<?xml version="1.0" encoding="utf-8"?>
<svg xmlns="http://www.w3.org/2000/svg" width="310.97" height="305.86" viewBox="0 0 310.97 305.86">
  <g style="isolation:isolate">
    <g id="b8304de2-7e64-48cf-a2a1-f2e83bb29aed" data-name="Layer 1">
      <path d="M303.79,195.56c4.32-13.42,7.81-27.37,7.08-41.44-1-19-9.48-36.64-18.17-53.53-16-31.09-39.9-55.08-64.21-80C208.82.35,169.91-1.29,143.62.58c-3.17.23-6.36.46-9.54.75-9.79.91-19.52,2.42-28.51,6.29C91.16,13.83,79.38,27.2,67.76,37.43c-12.58,11.08-23,21.84-31.67,36.36C26.28,90.22,9.21,113.87,8.47,133.62c-.93,24.85-1.05,43.85,7.49,67.29,9.09,25,21.92,52.2,43,69.49C70,279.46,85.4,285,98.06,291.53c24.68,12.75,50.86,17.29,78.32,12.42,28.74-5.1,50.36-17.5,75.64-30.7C284.49,256.3,293.08,228.8,303.79,195.56Z" style="fill:#aecc53;opacity:0.2"/>
      <path d="M133.08,27.48a13.84,13.84,0,0,1,4.79.86,13.65,13.65,0,0,1,26.2,0,13.65,13.65,0,1,1,4.78,26.44,13.6,13.6,0,0,1-8.94-3.34,13.65,13.65,0,0,1-17.89,0,13.65,13.65,0,1,1-8.94-24Z" style="fill:#fff"/>
      <path d="M220.57,42.5a18.74,18.74,0,0,0-6.51,1.17,18.56,18.56,0,0,0-35.62,0A18.58,18.58,0,0,0,155,53.51a10.64,10.64,0,1,0,3.83,20.67,18.53,18.53,0,0,0,25.28.89,18.52,18.52,0,0,0,24.32,0A18.56,18.56,0,1,0,220.57,42.5Z" style="fill:none;stroke:#fff;stroke-miterlimit:10;stroke-width:1.19768862566403px"/>
      <path d="M239.32,156.77c-.84-4.36-3.45-8.48-7.7-7.9-6,.82-4.1,10.09-5.4,14.17a6.29,6.29,0,0,0,3-2.16c.57-.8.69-2,1.65-2.54,1.92-1,1.65,3.93,1.62,4.74-.08,2.66-1.15,6.33.78,8.54C235.11,166.08,240.51,163,239.32,156.77Z" style="fill:#fff;stroke:#3c3c3b;stroke-linecap:round;stroke-linejoin:round;stroke-width:0.979725135708918px"/>
      <g style="mix-blend-mode:multiply">
        <path d="M243.53,151.68l.07-.07,9.25-8.86a22.88,22.88,0,0,0-4.32-36.31l-11.24-6.55A8.18,8.18,0,1,0,229.06,114l11.24,6.55a6.53,6.53,0,0,1,1.23,10.36l-9.25,8.86a8.18,8.18,0,0,0,11.25,11.88Z" style="fill:#aecc53"/>
      </g>
      <polygon points="230.74 246.98 205.66 247.27 218.93 238.08 218.97 159.03 257.7 155.8 268.07 246.98 244.21 247.78 254.73 239.34 239.57 193.9 230.74 246.98" style="fill:#fff;stroke:#3c3c3b;stroke-linecap:round;stroke-linejoin:round;stroke-width:0.964194979413252px"/>
      <polygon points="230.74 246.98 205.66 247.27 218.93 238.08 218.97 159.03 246.01 155.8 239.57 193.9 230.74 246.98" style="fill:#fff;stroke:#3c3c3b;stroke-linecap:round;stroke-linejoin:round;stroke-width:0.964194979413252px"/>
      <path d="M210.51,195.78s3.1-77.81,7.12-93.71c2.39-9.43,16.18-10.39,23.25-5.26,12.6,9.14,29.63,99,29.63,99Z" style="fill:#006d68;stroke:#006d68;stroke-linecap:round;stroke-linejoin:round;stroke-width:0.452303686340374px"/>
      <circle cx="225.41" cy="81.04" r="15.08" style="fill:#fff;stroke:#3c3c3b;stroke-linecap:round;stroke-linejoin:round;stroke-width:1.0088114420137px"/>
      <path d="M218.37,62.83c9.32-5.37,23.1-4,27.5,7,2.07,5.15,2.64,11-.3,15.91a11.92,11.92,0,0,1-7.49,6.16,3.71,3.71,0,0,1-1.94.26,2.73,2.73,0,0,1-2-2.46,3.72,3.72,0,0,1,1.58-3.38c.38-.26.79-.44,1.14-.72,1.9-1.57,2-5.74.35-7.45a3.51,3.51,0,0,0-3.77-.66c-.83.41-1.69,2-2.81,1.12-.95-.78-.09-2.71-.54-3.79-.57-1.37-2.36-2.57-3.61-3.25a8.33,8.33,0,0,0-4.5-1.06c-.36,0-.72.07-1.11.14-2.68.49-6.11,1.83-8.55,0a7.37,7.37,0,0,1-1.91-2.77c-.63-1.33-1.05-2.89-.16-4.2a.64.64,0,0,1,.27-.27c.32-.15.66.15.92.39C213.58,65.65,216.35,64,218.37,62.83Z" style="fill:#3c3c3b"/>
      <path d="M182.6,107.72c4.43-.28,8.85-2.34,8.82-6.63,0-6.08-9.49-5.35-13.38-7.15a6.37,6.37,0,0,0,1.77,3.23c.72.66,1.95.94,2.32,2,.74,2-4.11,1.14-4.91,1-2.64-.42-6.14-1.95-8.58-.31C173.91,102.36,176.29,108.11,182.6,107.72Z" style="fill:#fff;stroke:#3c3c3b;stroke-linecap:round;stroke-linejoin:round;stroke-width:0.979725135708918px"/>
      <g style="mix-blend-mode:multiply">
        <path d="M187.12,112.55l.06.08,7.62,10.29a22.88,22.88,0,0,0,36.56.32l7.92-10.32a8.18,8.18,0,0,0-13-10l-7.92,10.32a6.52,6.52,0,0,1-10.43-.09l-7.62-10.3a8.18,8.18,0,0,0-13.21,9.66Z" style="fill:#aecc53"/>
      </g>
      <line x1="170.51" y1="89.78" x2="170.51" y2="98.78" style="fill:none;stroke:#006d68;stroke-linecap:round;stroke-linejoin:round"/>
      <path d="M187.29,76.34l4.61,1.09L186,80.74" style="fill:#3c3c3b;stroke:#3c3c3b;stroke-linejoin:round"/>
      <path d="M181.53,79.65a12.14,12.14,0,1,1-24.27,0C157.26,79.39,181.53,79.39,181.53,79.65Z" style="fill:#006d68"/>
      <path d="M179.61,79.9a11.47,11.47,0,0,1-21.86,6.93C157.68,86.6,179.53,79.67,179.61,79.9Z" style="fill:#aecc53;mix-blend-mode:multiply"/>
      <circle cx="181.05" cy="78.42" r="6.5" style="fill:#fff;stroke:#3c3c3b;stroke-linecap:round;stroke-linejoin:round;stroke-width:1.0088114420137px"/>
      <circle cx="182.51" cy="77.78" r="1" style="fill:#3c3c3b"/>
      <path d="M50.69,216.28H37.32s0-.44,0-.66c.27-4.32,3.15-9.84,6.66-9.84s6.38,5.52,6.66,9.84C50.68,215.85,50.69,216.28,50.69,216.28Z" style="fill:#ccc"/>
      <path d="M93.69,216.28H67.6s0-.85,0-1.29c.54-8.43,6.15-19.21,13-19.21s12.47,10.78,13,19.21C93.67,215.43,93.69,216.28,93.69,216.28Z" style="fill:#ccc"/>
      <path d="M64.51,216.28h-21s0-.69,0-1c.43-6.79,5-15.46,10.47-15.46s10,8.68,10.46,15.47C64.5,215.6,64.51,216.28,64.51,216.28Z" style="fill:#aecc53;mix-blend-mode:multiply"/>
      <path d="M39.85,156.31H28.31A28.56,28.56,0,0,1,1.77,138.05a23.6,23.6,0,0,1-.6-14.81l18.06-65c4.17-15,25.45-15,29.63,0C56.12,84.33,64,112.37,67,123.22a23.62,23.62,0,0,1-.6,14.84A28.53,28.53,0,0,1,39.85,156.31Z" style="fill:#006d68;stroke:#006d68;stroke-linecap:round;stroke-linejoin:round;stroke-width:0.525761316415583px"/>
      <path d="M47.25,84.28A13.32,13.32,0,0,1,34.08,96h0A13.33,13.33,0,0,1,20.9,84.28" style="fill:none;stroke:#aecc53;stroke-linecap:round;stroke-linejoin:round;stroke-width:1.5px"/>
      <path d="M45.54,84.24a1.69,1.69,0,1,1,1.57,1.81A1.71,1.71,0,0,1,45.54,84.24Z" style="fill:#aecc53"/>
      <path d="M22.61,84.24a1.69,1.69,0,1,0-1.56,1.81A1.69,1.69,0,0,0,22.61,84.24Z" style="fill:#aecc53"/>
      <path d="M53.74,102.39a19.79,19.79,0,0,1-19.66,18.13h0a19.81,19.81,0,0,1-19.67-18.13" style="fill:none;stroke:#aecc53;stroke-linecap:round;stroke-linejoin:round;stroke-width:1.5px"/>
      <path d="M52,102.39a1.69,1.69,0,1,1,1.61,1.77A1.7,1.7,0,0,1,52,102.39Z" style="fill:#aecc53"/>
      <path d="M16.12,102.39a1.69,1.69,0,1,0-1.6,1.77A1.68,1.68,0,0,0,16.12,102.39Z" style="fill:#aecc53"/>
      <line x1="34.09" y1="69.54" x2="34.09" y2="215.78" style="fill:none;stroke:#aecc53;stroke-linecap:round;stroke-linejoin:round;stroke-width:1.5px"/>
      <path d="M32.39,69.62a1.7,1.7,0,1,1,1.7,1.7A1.7,1.7,0,0,1,32.39,69.62Z" style="fill:#aecc53"/>
      <path d="M106.89,152.42h9.89a24.46,24.46,0,0,0,22.74-15.64,20.26,20.26,0,0,0,.51-12.69L124.56,68.41c-3.57-12.86-21.81-12.86-25.39,0C93,90.74,86.24,114.77,83.65,124.07a20.17,20.17,0,0,0,.51,12.71A24.45,24.45,0,0,0,106.89,152.42Z" style="fill:none;stroke:#aecc53;stroke-linecap:round;stroke-linejoin:round;stroke-width:1.5px"/>
      <path d="M101.88,101.62a10.08,10.08,0,0,0,19.91,0" style="fill:none;stroke:#aecc53;stroke-linecap:round;stroke-linejoin:round;stroke-width:1.5px"/>
      <path d="M100.22,101.85a1.69,1.69,0,1,1,1.84,1.53A1.69,1.69,0,0,1,100.22,101.85Z" style="fill:#aecc53"/>
      <path d="M123.45,101.85a1.69,1.69,0,1,0-1.84,1.53A1.7,1.7,0,0,0,123.45,101.85Z" style="fill:#aecc53"/>
      <path d="M96.93,116.32a15,15,0,0,0,29.81,0" style="fill:none;stroke:#aecc53;stroke-linecap:round;stroke-linejoin:round;stroke-width:1.5px"/>
      <path d="M95.26,116.5a1.69,1.69,0,1,1,1.79,1.59A1.69,1.69,0,0,1,95.26,116.5Z" style="fill:#aecc53"/>
      <path d="M128.41,116.5a1.69,1.69,0,1,0-1.79,1.59A1.69,1.69,0,0,0,128.41,116.5Z" style="fill:#aecc53"/>
      <line x1="111.83" y1="88.54" x2="111.83" y2="200.78" style="fill:none;stroke:#aecc53;stroke-linecap:round;stroke-linejoin:round;stroke-width:1.5px"/>
      <circle cx="111.83" cy="88.63" r="1.69" style="fill:#aecc53"/>
      <path d="M72.21,174.6a2.85,2.85,0,1,1,0-5.69H86.78a23.32,23.32,0,0,0,.36-4,16.9,16.9,0,0,0-.44-3.56H72.21a2.85,2.85,0,1,1,0-5.69H85c-.84-2.38-1.9-4.94-3.09-7.59H72.21a2.85,2.85,0,1,1,0-5.69h7.05c-1.26-2.56-2.58-5.12-3.89-7.59H72.21a2.85,2.85,0,1,1,0-5.69h.06c-4.32-7.74-7.89-13.51-7.89-13.51s-3.57,5.77-7.88,13.51h.06a2.85,2.85,0,0,1,0,5.69H53.39c-1.31,2.47-2.63,5-3.89,7.59h7.06a2.85,2.85,0,0,1,0,5.69H46.82c-1.18,2.65-2.24,5.21-3.09,7.59H56.56a2.85,2.85,0,0,1,0,5.69H42.06a17.58,17.58,0,0,0-.44,3.56,23.32,23.32,0,0,0,.36,4H56.56a2.85,2.85,0,0,1,0,5.69H43.8a22.77,22.77,0,0,0,41.17,0Z" style="fill:#aecc53;mix-blend-mode:multiply"/>
      <line x1="64.14" y1="161.17" x2="64.14" y2="214.91" style="fill:none;stroke:#006d68;stroke-linecap:round;stroke-linejoin:round;stroke-width:1.5px"/>
      <path d="M111.78,200.58l7.13-15a9.28,9.28,0,0,1,16.75,0l13.85,29" style="fill:none;stroke:#aecc53;stroke-linecap:round;stroke-linejoin:round;stroke-width:1.67339069676543px"/>
      <path d="M114.51,205.73q2.65-6,5.61-11.83c1.55-3.07,3-6.53,5.92-8.57a7.09,7.09,0,0,1,4.85-1.28,8.9,8.9,0,0,1,4.64,1.91" style="fill:none;stroke:#aecc53;stroke-linecap:round;stroke-linejoin:round;stroke-width:1.67339069676543px"/>
      <path d="M117.43,211.66,124,197.31a20.5,20.5,0,0,1,3.14-5.33,6.92,6.92,0,0,1,7.7-1.8,14.72,14.72,0,0,1,2.32,1.15l1.7,1" style="fill:none;stroke:#aecc53;stroke-linecap:round;stroke-linejoin:round;stroke-width:1.67339069676543px"/>
      <line x1="170.51" y1="215.78" x2="195.51" y2="215.78" style="fill:none;stroke:#aecc53;stroke-linecap:round;stroke-linejoin:round;stroke-width:1.67339069676543px"/>
      <path d="M98.2,215.57l6.49-13.8a4.31,4.31,0,0,1,7.79,0l6.68,14" style="fill:none;stroke:#aecc53;stroke-linecap:round;stroke-linejoin:round;stroke-width:1.67339069676543px"/>
      <path d="M101.85,208.34c1.58-.7,2.43.36,3,1.7a21.52,21.52,0,0,1,1.55,5.62" style="fill:none;stroke:#aecc53;stroke-linecap:round;stroke-linejoin:round;stroke-width:1.67339069676543px"/>
      <path d="M103.35,204.5a7.14,7.14,0,0,1,4,1.36,9.55,9.55,0,0,1,2.37,3.57,21.26,21.26,0,0,1,2.24,6.14" style="fill:none;stroke:#aecc53;stroke-linecap:round;stroke-linejoin:round;stroke-width:1.67339069676543px"/>
      <line x1="14.51" y1="215.78" x2="163.29" y2="215.78" style="fill:none;stroke:#aecc53;stroke-linecap:round;stroke-linejoin:round;stroke-width:1.67339069676543px"/>
      <line x1="37.51" y1="221.78" x2="150.51" y2="221.78" style="fill:none;stroke:#aecc53;stroke-linecap:round;stroke-linejoin:round;stroke-width:1.67339069676543px"/>
      <line x1="59.51" y1="227.78" x2="82.51" y2="227.78" style="fill:none;stroke:#aecc53;stroke-linecap:round;stroke-linejoin:round;stroke-width:1.67339069676543px"/>
      <path d="M146.83,209c-1.51-2.81-3.71-6.37-7.3-6.3a8.26,8.26,0,0,0-5.36,2.42c-3,2.81-4.14,6.4-5.74,10" style="fill:none;stroke:#aecc53;stroke-linecap:round;stroke-linejoin:round;stroke-width:1.67339069676543px"/>
      <line x1="78.51" y1="188.78" x2="195.51" y2="188.78" style="fill:none;stroke:#3c3c3b;stroke-linecap:round;stroke-linejoin:round;stroke-width:4px"/>
      <line x1="92.01" y1="189.78" x2="92.01" y2="227.78" style="fill:none;stroke:#3c3c3b;stroke-linecap:round;stroke-linejoin:round;stroke-width:4px"/>
      <line x1="182.01" y1="189.78" x2="182.01" y2="227.78" style="fill:none;stroke:#3c3c3b;stroke-linecap:round;stroke-linejoin:round;stroke-width:4px"/>
      <line x1="167.39" y1="180.05" x2="167.39" y2="186.73" style="fill:#fff;stroke:#3c3c3b;stroke-linecap:round;stroke-linejoin:round;stroke-width:0.748940041650367px"/>
      <path d="M156.18,169.11l-2.91-.59,2.47,3.43" style="fill:#3c3c3b;stroke:#3c3c3b;stroke-linejoin:round;stroke-width:0.626933317733538px"/>
      <path d="M160.63,172.71a8.51,8.51,0,0,0,16.23,5.14C176.91,177.68,160.68,172.54,160.63,172.71Z" style="fill:#ccc"/>
      <path d="M160.61,174.92a9,9,0,0,0,13.11-12.37C173.59,162.41,160.48,174.78,160.61,174.92Z" style="fill:#aecc53;mix-blend-mode:multiply"/>
      <circle cx="159.18" cy="171.93" r="4.08" style="fill:#fff;stroke:#3c3c3b;stroke-linecap:round;stroke-linejoin:round;stroke-width:0.632457504309206px"/>
      <line x1="177.93" y1="248.73" x2="177.93" y2="257.73" style="fill:none;stroke:#006d68;stroke-linecap:round;stroke-linejoin:round"/>
      <path d="M161.14,235.28l-4.6,1.1,5.87,3.31" style="fill:#3c3c3b;stroke:#3c3c3b;stroke-linejoin:round"/>
      <path d="M170.9,240.33a8.41,8.41,0,0,0,16.81,0C187.71,240.15,170.9,240.15,170.9,240.33Z" style="fill:#006d68"/>
      <path d="M168.83,238.84a11.46,11.46,0,1,0,21.85,6.94C190.76,245.54,168.9,238.61,168.83,238.84Z" style="fill:#aecc53;mix-blend-mode:multiply"/>
      <circle cx="167.39" cy="237.36" r="6.5" style="fill:#fff;stroke:#006d68;stroke-linecap:round;stroke-linejoin:round"/>
      <circle cx="165.93" cy="236.73" r="1" style="fill:#3c3c3b"/>
      <line x1="104.78" y1="247.73" x2="104.78" y2="256.73" style="fill:none;stroke:#006d68;stroke-linecap:round;stroke-linejoin:round"/>
      <path d="M122.6,242.38l1.88,4.35L118.31,244" style="fill:#3c3c3b;stroke:#3c3c3b;stroke-linejoin:round"/>
      <path d="M113.89,237.84A11.47,11.47,0,0,1,92,244.78C92,244.54,113.81,237.61,113.89,237.84Z" style="fill:#ccc"/>
      <path d="M115.81,237.59a12.14,12.14,0,1,1-24.27,0C91.54,237.34,115.81,237.34,115.81,237.59Z" style="fill:#aecc53;mix-blend-mode:multiply"/>
      <circle cx="117.2" cy="238.62" r="6.5" style="fill:#fff;stroke:#3c3c3b;stroke-linecap:round;stroke-linejoin:round;stroke-width:1.0088114420137px"/>
      <circle cx="118.58" cy="239.41" r="1" style="fill:#3c3c3b"/>
      <line x1="171.01" y1="263.28" x2="171.01" y2="263.28" style="fill:none;stroke:#3c3c3b;stroke-linecap:round;stroke-linejoin:round"/>
      <line x1="165.29" y1="263.28" x2="133.86" y2="263.28" style="fill:none;stroke:#3c3c3b;stroke-linecap:round;stroke-linejoin:round;stroke-dasharray:0,5.714285850524902"/>
      <line x1="131.01" y1="263.28" x2="131.01" y2="263.28" style="fill:none;stroke:#3c3c3b;stroke-linecap:round;stroke-linejoin:round"/>
      <line x1="161.01" y1="260.28" x2="161.01" y2="260.28" style="fill:none;stroke:#3c3c3b;stroke-linecap:round;stroke-linejoin:round"/>
      <line x1="155.29" y1="260.28" x2="123.86" y2="260.28" style="fill:none;stroke:#3c3c3b;stroke-linecap:round;stroke-linejoin:round;stroke-dasharray:0,5.714285850524902"/>
      <line x1="121.01" y1="260.28" x2="121.01" y2="260.28" style="fill:none;stroke:#3c3c3b;stroke-linecap:round;stroke-linejoin:round"/>
      <line x1="150.01" y1="257.28" x2="150.01" y2="257.28" style="fill:none;stroke:#3c3c3b;stroke-linecap:round;stroke-linejoin:round"/>
      <line x1="144.29" y1="257.28" x2="112.86" y2="257.28" style="fill:none;stroke:#3c3c3b;stroke-linecap:round;stroke-linejoin:round;stroke-dasharray:0,5.714285850524902"/>
      <line x1="110.01" y1="257.28" x2="110.01" y2="257.28" style="fill:none;stroke:#3c3c3b;stroke-linecap:round;stroke-linejoin:round"/>
      <path d="M174.84,231.53l-3.83.75,2.16-3.25a1.63,1.63,0,1,1,1.67,2.5Z" style="fill:#006d68"/>
      <path d="M172.51,228.28l-1.5,4-1.5-4a1.6,1.6,0,1,1,3,0Z" style="fill:#006d68"/>
      <ellipse cx="240.51" cy="195.78" rx="30" ry="4" style="fill:#006d68;stroke:#006d68;stroke-linecap:round;stroke-linejoin:round;stroke-width:0.452303686340374px"/>
    </g>
  </g>
</svg>