<?xml version="1.0" encoding="utf-8"?>
<svg xmlns="http://www.w3.org/2000/svg" width="306.55" height="294.21" viewBox="0 0 306.55 294.21">
  <g style="isolation:isolate">
    <g id="b9fad3dd-2279-428b-956a-1431163dac2b" data-name="Layer 1">
      <path d="M272,47.31c-8.5-11.25-17.9-22.12-29.84-29.62C226,7.58,206.68,4.38,187.87,1.78c-34.64-4.78-68,1-102.4,6.52-27.84,4.49-51.55,35.37-65.13,58C18.7,69,17.05,71.73,15.46,74.5c-4.89,8.53-9.24,17.37-11.24,27-3.21,15.35,1,32.68,2.65,48.07,1.83,16.66,4.64,31.37,11.54,46.81,7.81,17.48,17.34,45,33.07,57,19.8,15,35.28,26.07,59.37,32.56,25.65,6.92,55.31,12.07,81.57,4.78,13.76-3.83,27.15-13.26,39.77-19.85,24.63-12.87,43.39-31.68,55.19-56.95,12.35-26.44,14.64-51.27,18.37-79.54C310.55,98,293,75.18,272,47.31Z" style="fill:#aecc53;opacity:0.2"/>
      <path d="M22.13,241l11.3-23.73a14.7,14.7,0,0,1,26.54,0l22,45.92" style="fill:none;stroke:#aecc53;stroke-linecap:round;stroke-linejoin:round;stroke-width:1.23650338381459px"/>
      <path d="M59.43,265.11.62,264.77,10.9,242.91a6.84,6.84,0,0,1,12.35,0l10.58,22.2" style="fill:none;stroke:#aecc53;stroke-linecap:round;stroke-linejoin:round;stroke-width:1.23650338381459px"/>
      <path d="M6.41,253.32c2.51-1.11,3.84.56,4.76,2.69a33.23,33.23,0,0,1,2.46,8.91" style="fill:none;stroke:#aecc53;stroke-linecap:round;stroke-linejoin:round;stroke-width:1.23650338381459px"/>
      <path d="M8.79,247.23a11.35,11.35,0,0,1,6.38,2.16C17,250.85,18,253,18.92,255.05c1.74,3.73,3.12,6.44,3.56,9.72" style="fill:none;stroke:#aecc53;stroke-linecap:round;stroke-linejoin:round;stroke-width:1.23650338381459px"/>
      <path d="M26.46,249.17q4.21-9.48,8.9-18.74c2.45-4.85,4.78-10.34,9.38-13.57a11.17,11.17,0,0,1,7.67-2c2.21.24,5.78,1.4,7.36,3" style="fill:none;stroke:#aecc53;stroke-linecap:round;stroke-linejoin:round;stroke-width:1.23650338381459px"/>
      <path d="M31.1,258.57l10.44-22.74a31.86,31.86,0,0,1,5-8.43,10.93,10.93,0,0,1,12.2-2.86,23.64,23.64,0,0,1,3.67,1.82l2.7,1.53" style="fill:none;stroke:#aecc53;stroke-linecap:round;stroke-linejoin:round;stroke-width:1.23650338381459px"/>
      <polygon points="117.76 125.57 46.83 91.97 119.16 105.51 117.76 125.57" style="fill:#006d68;stroke:#006d68;stroke-linecap:round;stroke-linejoin:round;stroke-width:0.838543638269279px"/>
      <path d="M216.69,264.44H118.42V64a43.8,43.8,0,0,1,43.71-43.9H173A43.8,43.8,0,0,1,216.69,64Z" style="fill:#aecc53;mix-blend-mode:multiply"/>
      <line x1="139.79" y1="256.11" x2="216.79" y2="256.11" style="fill:none;stroke:#fff;stroke-miterlimit:10;stroke-width:0.980325937271118px"/>
      <line x1="139.79" y1="248.42" x2="216.79" y2="248.42" style="fill:none;stroke:#fff;stroke-miterlimit:10;stroke-width:0.980325937271118px"/>
      <line x1="139.79" y1="241.21" x2="216.79" y2="241.21" style="fill:none;stroke:#fff;stroke-miterlimit:10;stroke-width:0.980325937271118px"/>
      <line x1="139.79" y1="234" x2="216.79" y2="234" style="fill:none;stroke:#fff;stroke-miterlimit:10;stroke-width:0.980325937271118px"/>
      <line x1="139.79" y1="226.31" x2="216.79" y2="226.31" style="fill:none;stroke:#fff;stroke-miterlimit:10;stroke-width:0.980325937271118px"/>
      <line x1="139.79" y1="219.11" x2="216.79" y2="219.11" style="fill:none;stroke:#fff;stroke-miterlimit:10;stroke-width:0.980325937271118px"/>
      <path d="M167.77,43.44a34.77,34.77,0,1,0,34.77,34.77,34.76,34.76,0,0,0-34.77-34.77Z" style="fill:#fff"/>
      <rect x="141.09" y="79.84" width="11.2" height="23.33" rx="5.6" style="fill:#3c3c3b"/>
      <path d="M160.23,75.64h0a14,14,0,0,1,14,14v17.73a0,0,0,0,1,0,0H158a11.79,11.79,0,0,1-11.79-11.79V89.64a14,14,0,0,1,14-14Z" style="fill:#aecc53;mix-blend-mode:multiply"/>
      <ellipse cx="149.56" cy="70.51" rx="2.33" ry="3.27" transform="translate(-15.1 55.49) rotate(-20.03)" style="fill:#fff;stroke:#3c3c3b;stroke-linecap:round;stroke-linejoin:round;stroke-width:0.727263364430717px"/>
      <ellipse cx="171.03" cy="70.51" rx="3.27" ry="2.33" transform="translate(46.21 207.04) rotate(-69.97)" style="fill:#fff;stroke:#3c3c3b;stroke-linecap:round;stroke-linejoin:round;stroke-width:0.727263364430717px"/>
      <polyline points="117.76 265.11 46.72 265.11 46.72 125.57 46.89 91.59 117.76 125.57 117.76 232.61" style="fill:#fff;stroke:#3c3c3b;stroke-linecap:round;stroke-linejoin:round;stroke-width:1.1756040859203px"/>
      <polygon points="217.52 102.79 252.95 60.71 289.78 102.79 289.78 265.11 217.52 265.11 217.52 102.79" style="fill:#fff;stroke:#3c3c3b;stroke-linecap:round;stroke-linejoin:round;stroke-width:1.18018099822079px"/>
      <polygon points="90.03 202.76 54.54 202.76 54.54 132.89 90.03 141.76 90.03 202.76" style="fill:#006d68"/>
      <path d="M85.22,202.76s-.32-12.57-.35-14.36a180.63,180.63,0,0,0-1.34-22.05c-.8-5.63-1.29-11.35-5.64-15.52-5.16-5-12.5-5.58-17.82-.46-3.17,3-4.59,7.1-5.78,11.32v41.07Z" style="fill:#aecc53"/>
      <circle cx="77.63" cy="137.54" r="11.47" style="fill:#3c3c3b;stroke:#3c3c3b;stroke-linecap:round;stroke-linejoin:round;stroke-width:0.805280116648675px"/>
      <path d="M67.32,121.55a6.53,6.53,0,0,1,4.89.63c.71.39,2.43,1.64,2.22,2.62-.35,1.63-2.48.44-2.33-.9.18-1.58,2.52-3.13,4-3.26a5.64,5.64,0,0,1,4.4,1.75c.58.51,2.31,2.07,1.19,2.86a1,1,0,0,1-1.42-1c.19-.74,1.68-1.18,2.31-1.29a2.54,2.54,0,0,1,1.66.33,4,4,0,0,1,2,3,1.92,1.92,0,0,1-.1.75c-.74,2-2.61,1.16-4,1a7.86,7.86,0,0,0-3,.08c-3.27.81-4.3,3.42-5,6.34-.12.52-.42,1.17-.95,1.11s-.62-.49-.9-.79c-1.12-1.16-2.93-.19-3.57.91a5.84,5.84,0,0,0-.06,4.79c.1.21,1.79,2.32,1.76,1.69.14,3-2.09,5.93-5.28,4.26a5.2,5.2,0,0,1-2.55-3.15c-.3-1.35,1.09-5.28,3.07-3.74a1.33,1.33,0,0,1-.28,2.09,1.92,1.92,0,0,1-1.09.06c-3.05-.53-5.24-3-4.73-6.13a3.43,3.43,0,0,1,3-2.8c1.86,0,1,2.64-.89,1.13a5.55,5.55,0,0,1-1.44-5.66c.88-2,2.63-2.52,4.59-2.27a3.19,3.19,0,0,1,2,.9c.54.61.54,1.62-.45,1.52s-1.34-1.51-1.5-2.24A3.7,3.7,0,0,1,67.32,121.55Z" style="fill:#fff;stroke:#3c3c3b;stroke-linecap:round;stroke-linejoin:round;stroke-width:0.805280116648675px"/>
      <path d="M107.29,152.62c.29-.3.57-.63.89-1a32,32,0,0,1,3.23-2.55,11.22,11.22,0,0,0,3.65-4.38.38.38,0,0,0,0-.27c-.08-.24-.43-.18-.65-.06-1.14.63-2.22,1.55-3.52,1.59-.27,0-.59-.06-.69-.31a.75.75,0,0,1,.2-.68c.82-1.1,1.48-2.28,2.25-3.42.33-.5,1.1-1.34.92-2a.57.57,0,0,0-.76-.28c-.69.29-1.33,1.31-1.83,1.84s-2.45,3.23-3.33,2.44c-.64-.58,1-3.06,1.24-3.61.13-.28,1.3-2.68,0-2.28-.66.2-1.77,1.72-2.24,2.31-1,1.21-1.68,2.6-2.66,3.81a1,1,0,0,1-.53.42c-1,.24-1.2-5.28-2.75-3.59a1.5,1.5,0,0,0-.27,1c0,1.08,0,2.16-.08,3.23,0,1.29,0,2.57,0,3.86a3.22,3.22,0,0,1-.06.93c-.15.66-.66,1.21-.7,1.88s1.08,1.25,1.61,1.61a5.39,5.39,0,0,0,2.52,1.08,4,4,0,0,0,2.31-.6A5.16,5.16,0,0,0,107.29,152.62Z" style="fill:#3c3c3b;stroke:#3c3c3b;stroke-linecap:round;stroke-linejoin:round;stroke-width:0.805280116648675px"/>
      <path d="M106.3,158.39a.25.25,0,0,1,0,.07l-4.77,9.37a18.8,18.8,0,0,1-29.58,5.22l-7.81-7.29a6.72,6.72,0,0,1,9.16-9.83l7.82,7.29a5.35,5.35,0,0,0,8.43-1.49l4.78-9.37a6.72,6.72,0,0,1,12,6Z" style="fill:#fff;stroke:#3c3c3b;stroke-linecap:round;stroke-linejoin:round;stroke-width:0.77644704549397px"/>
      <path d="M167.77,52.77a25.44,25.44,0,1,1-25.43,25.44,25.47,25.47,0,0,1,25.43-25.44m0-9.33a34.77,34.77,0,1,0,34.77,34.77,34.76,34.76,0,0,0-34.77-34.77Z" style="fill:#006d68"/>
      <path d="M167.77,48.21a30,30,0,1,0,30,30,30,30,0,0,0-30-30Z" style="fill:none;stroke:#aecc53;stroke-linecap:round;stroke-linejoin:round;stroke-width:0.908531104713494px"/>
      <circle cx="167.77" cy="174.34" r="34.77" style="fill:#fff"/>
      <circle cx="167.77" cy="174.34" r="29.4" style="fill:none;stroke:#3c3c3b;stroke-linecap:round;stroke-linejoin:round;stroke-width:0.933333337306976px"/>
      <polygon points="77.04 250.07 97.1 250.07 97.1 234.35 117.46 234.35 117.76 234.35 117.76 218.31 67.02 218.31 67.02 233.66 66.71 233.66 46.35 233.66 46.35 249.38 26.29 249.38 26.29 265.11 46.65 265.11 46.96 265.11 77.04 265.11 77.04 250.07" style="fill:#c6c6c6;stroke:#c6c6c6;stroke-linecap:round;stroke-linejoin:round;stroke-width:0.933333337306976px"/>
      <polygon points="139.58 218.32 117.76 217.97 117.42 233.66 117.11 233.66 96.75 233.66 96.75 249.38 76.69 249.38 76.69 265.11 97.05 265.11 97.36 265.11 140.16 265.11 139.58 218.32" style="fill:#006d68;mix-blend-mode:multiply"/>
      <polyline points="26.76 265.11 77.04 265.11 77.04 250.07 97.1 250.07 97.1 234.35 117.46 234.35 117.76 234.35 117.76 218.31" style="fill:none;stroke:#3c3c3b;stroke-linecap:round;stroke-linejoin:round;stroke-width:0.911660081162344px"/>
      <rect x="236.38" y="112.51" width="36.4" height="84.93" style="fill:#c6c6c6;stroke:#c6c6c6;stroke-linecap:round;stroke-linejoin:round;stroke-width:0.933333337306976px"/>
      <polygon points="252.63 60.71 217.16 74.71 217.16 103.64 252.63 60.71" style="fill:#3c3c3b;stroke:#3c3c3b;stroke-linecap:round;stroke-linejoin:round;stroke-width:0.905439286916539px"/>
      <path d="M241.69,197.44s0-10.69-.08-12.43a174.28,174.28,0,0,1,.49-21.44c.57-5.49.84-11.07,4.9-15.27,4.83-5,11.93-5.87,17.28-1.1,3.17,2.83,5.11,6.81,6.41,10.87,1.93,6,2.38,39.37,2.38,39.37Z" style="fill:#fff"/>
      <path d="M242,165c0-.47.08-.94.13-1.41.57-5.49.84-11.07,4.9-15.27,4.83-5,11.93-5.87,17.28-1.1,3.17,2.83,5.11,6.81,6.41,10.87,1.93,6,2.38,39.37,2.38,39.37H241.69s0-10.69-.08-12.43c0-2-.08-3.37-.09-5.4" style="fill:#fff;stroke:#3c3c3b;stroke-linecap:round;stroke-linejoin:round;stroke-width:0.77644704549397px"/>
      <circle cx="246.76" cy="135.4" r="11.14" style="fill:#fff;stroke:#3c3c3b;stroke-linecap:round;stroke-linejoin:round;stroke-width:0.753829137508272px"/>
      <path d="M239.42,127.11c2.22-5.41,6.82-8.88,12.2-10.89,2.41-.91,2.58-1.52,4.54-3.52,3-3,5.53-.8,8.79-1.94a5.27,5.27,0,0,0,.8-.36c2.21-1.21,3-3.57,6.28-3.2a6.17,6.17,0,0,1,5.49,5.41,3.46,3.46,0,0,1-.67,2.4c-1.78,2.16-2.82,1.23-2.43,3.91.28,2,1.87,3,1.39,5.36a7,7,0,0,1-4,4.94,9,9,0,0,0-2.92,1.43c-.9.9-1,2.28-1.4,3.51-1.61,5.57-7.62,10.84-13.74,9.85,1.06-.78.16-3.2.17-4.4,0,.55,1.06-.53,1.05-.53a3.82,3.82,0,0,0,.62-2c.29-1.69.17-3.47-1.25-4.64a2.47,2.47,0,0,0-1.6-.64,1.44,1.44,0,0,0-1.36.93c.26-.85-1.9-3.36-2.39-4a5.93,5.93,0,0,0-4-2.39A10.14,10.14,0,0,0,239.42,127.11Z" style="fill:#006d68;stroke:#006d68;stroke-linecap:round;stroke-linejoin:round;stroke-width:0.838543638269279px"/>
      <g style="mix-blend-mode:multiply">
        <path d="M221.63,167.79l.07.05,8.09,6.72A18.8,18.8,0,0,0,259,167.64l4.29-9.78a6.72,6.72,0,1,0-12.31-5.4l-4.29,9.78a5.37,5.37,0,0,1-8.34,2l-8.09-6.72c-2.86-2.37-4.31-1.08-6.68,1.78S218.83,165.41,221.63,167.79Z" style="fill:#aecc53"/>
      </g>
      <ellipse cx="223.91" cy="161.18" rx="5.6" ry="2.33" transform="translate(-44.16 226.39) rotate(-49.42)" style="fill:#3c3c3b"/>
      <path d="M219.11,162.56l-1.19-.58a32.52,32.52,0,0,0-3.94-1.17,11.24,11.24,0,0,1-5-2.71.41.41,0,0,1-.13-.24c0-.25.33-.32.58-.29,1.29.16,2.63.61,3.86.17.25-.1.52-.28.52-.55s-.22-.42-.43-.55c-1.18-.72-2.22-1.57-3.36-2.35-.5-.33-1.52-.83-1.6-1.51,0-.3.3-.54.6-.54a7.22,7.22,0,0,1,2.39,1c.61.29,3.47,2.09,4,1,.38-.78-2-2.48-2.48-2.9-.23-.21-2.21-2-.84-2.11.69-.06,2.28.94,2.93,1.31,1.34.77,2.53,1.79,3.89,2.55a1.1,1.1,0,0,0,.64.2c1-.15-.84-5.35,1.23-4.35a1.48,1.48,0,0,1,.62.82c.42,1,.84,2,1.27,3q.78,1.77,1.44,3.57a3.68,3.68,0,0,0,.4.85c.38.55,1.48.82,1.35,1.48a7.27,7.27,0,0,1-4.16,5A16.52,16.52,0,0,1,219.11,162.56Z" style="fill:#fff;stroke:#3c3c3b;stroke-linecap:round;stroke-linejoin:round;stroke-width:0.753829137508272px"/>
      <path d="M170.94,178.53h-6.33c-6.62,0-12.31-3.75-14.57-9a10.49,10.49,0,0,1-.33-7.3l9.91-32c2.29-7.4,14-7.4,16.27,0,4,12.85,8.28,26.67,9.94,32a10.54,10.54,0,0,1-.32,7.32C183.25,174.78,177.56,178.53,170.94,178.53Z" style="fill:#006d68;stroke:#006d68;stroke-linecap:round;stroke-linejoin:round;stroke-width:0.273512550804556px"/>
      <path d="M175,145.19a7.28,7.28,0,0,1-14.44,0" style="fill:none;stroke:#aecc53;stroke-linecap:round;stroke-linejoin:round;stroke-width:0.908531104713494px"/>
      <path d="M174,145.16a1,1,0,1,1,.94,1.1A1,1,0,0,1,174,145.16Z" style="fill:#aecc53"/>
      <path d="M161.59,145.16a1,1,0,0,0-1.1-.94,1,1,0,1,0,.16,2A1,1,0,0,0,161.59,145.16Z" style="fill:#aecc53"/>
      <path d="M178.56,155.13A10.87,10.87,0,0,1,167.77,165h0A10.85,10.85,0,0,1,157,155.13" style="fill:none;stroke:#aecc53;stroke-linecap:round;stroke-linejoin:round;stroke-width:0.908531104713494px"/>
      <path d="M177.53,155.13a1,1,0,0,1,1.07-1,1,1,0,1,1-.1,2.05A1,1,0,0,1,177.53,155.13Z" style="fill:#aecc53"/>
      <path d="M158,155.13a1,1,0,1,0-1,1.08A1,1,0,0,0,158,155.13Z" style="fill:#aecc53"/>
      <line x1="167.78" y1="137.1" x2="167.78" y2="200.03" style="fill:none;stroke:#aecc53;stroke-linecap:round;stroke-linejoin:round;stroke-width:0.908531104713494px"/>
      <path d="M166.75,137.15a1,1,0,1,1,1,1A1,1,0,0,1,166.75,137.15Z" style="fill:#aecc53"/>
      <path d="M157.91,190h19.73a0,0,0,0,1,0,0v2.6a9.87,9.87,0,0,1-9.87,9.87h0a9.87,9.87,0,0,1-9.87-9.87V190A0,0,0,0,1,157.91,190Z" style="fill:#ccc"/>
      <path d="M206.18,63.76c-.21.51-.43,1-.62,1.53A16.84,16.84,0,0,1,204,68.55c-1.2,1.87-3,3.36-5.35,3-2.05-.34-2.81-2.19-3.07-4a30.11,30.11,0,0,1-.21-3.15c0-.69-.38-1.59-.15-2.26s.77-.54,1.15-.14a7.46,7.46,0,0,1,.89,2.17c.12.31.37.68.68.58s.3-.35.34-.58c.26-1.48.52-3,.79-4.44a7.14,7.14,0,0,1,.35-1.83c.29-.62,1-1,1.09,0a23.16,23.16,0,0,1-.1,2.48,6.13,6.13,0,0,0,.17,2.42.37.37,0,0,0,.49.21.49.49,0,0,0,.22-.27c.73-1.43,1.12-3,1.8-4.44s1.7-1,1.42.52c-.2,1-.58,2-.84,3-.08.32-.76,2.17.22,1.85.72-.23,1.23-1.22,1.6-1.81.2-.35.72-1.93,1.33-1.41.39.33.3.95.14,1.43C206.74,62.46,206.46,63.11,206.18,63.76Z" style="fill:#fff;stroke:#3c3c3b;stroke-linecap:round;stroke-linejoin:round;stroke-width:0.70629472341307px"/>
      <path d="M198,69.41a5.9,5.9,0,0,0-6.65,5l-1.25,5.42a4.7,4.7,0,0,1-2.37,3.47,4.64,4.64,0,0,1-4.2.19l-8.58-3.78a5.84,5.84,0,0,0-4.91.07c4.68,4.69,3.76,8.13,4.37,12.58l4.36,1.93a16.5,16.5,0,0,0,23-12.86L203,76.05a.2.2,0,0,1,0-.07A5.9,5.9,0,0,0,198,69.41Z" style="fill:#3c3c3b"/>
      <path d="M254.49,210h0a18.2,18.2,0,0,1,18.2,18.2v36.4a0,0,0,0,1,0,0h-36.4a0,0,0,0,1,0,0v-36.4A18.2,18.2,0,0,1,254.49,210Z" style="fill:#fff;stroke:#3c3c3b;stroke-linecap:round;stroke-linejoin:round;stroke-width:0.933333337306976px"/>
      <path d="M272.7,253.19a8.57,8.57,0,0,0-9.61.39,9.77,9.77,0,0,0-2.95,3.81,4.48,4.48,0,0,0-.57,3.06c.15.61.45,1.17.61,1.78s.09,1.34.19,2" style="fill:none;stroke:#3c3c3b;stroke-linecap:round;stroke-linejoin:round;stroke-width:0.933333337306976px"/>
      <path d="M254.57,264.55a4.47,4.47,0,0,0,0-1.67,16.21,16.21,0,0,1-.17-2.09,15.3,15.3,0,0,1,.42-4c.62-2.53,1.85-3,3.78-4.57,2.34-1.92,2.81-5.42,5-7.47a9.22,9.22,0,0,1,4.07-1.82c1.44-.33,3.64-.3,4.72.87" style="fill:none;stroke:#3c3c3b;stroke-linecap:round;stroke-linejoin:round;stroke-width:0.933333337306976px"/>
      <path d="M272.35,237.82a16.43,16.43,0,0,0-17.69,7.12c-1.24,2-2.06,4.4-3.8,6-.89.85-2,1.46-2.91,2.26-3,2.59-3.92,6.81-4.26,10.75" style="fill:none;stroke:#3c3c3b;stroke-linecap:round;stroke-linejoin:round;stroke-width:0.933333337306976px"/>
      <path d="M258.68,210.28a15.27,15.27,0,0,0-2.89,5.93,10.06,10.06,0,0,0-.11,4.66,6,6,0,0,0,2.63,3.75c2.06,1.22,4.79.75,6.8-.55a18.45,18.45,0,0,0,4.85-5.25" style="fill:none;stroke:#3c3c3b;stroke-linecap:round;stroke-linejoin:round;stroke-width:0.933333337306976px"/>
      <path d="M251.23,211.35c-2.6,5.55-3.33,12.18-.95,17.82a6.94,6.94,0,0,0,8.49,4.9,18.31,18.31,0,0,0,6.66-2.43c1-.63,2-1.34,3.13-1.89a5.1,5.1,0,0,1,3.92-.55" style="fill:none;stroke:#3c3c3b;stroke-linecap:round;stroke-linejoin:round;stroke-width:0.933333337306976px"/>
      <path d="M241,217.06c2.92,1.47,3.46,4.48,3.54,7.48.06,2.19,0,4.64,1,6.67s2.72,2.62,3.91,4.34c5.92,8.58-5.55,11.65-7.63,18.76-.89,3.05-2,4.44-5.3,5.65" style="fill:none;stroke:#3c3c3b;stroke-linecap:round;stroke-linejoin:round;stroke-width:0.933333337306976px"/>
      <path d="M236.29,231.88c1.59,4.18,9.33,5.62,7.27,10.91-1.33,3.43-5.3,5.11-6.92,8.57" style="fill:none;stroke:#3c3c3b;stroke-linecap:round;stroke-linejoin:round;stroke-width:0.933333337306976px"/>
      <circle cx="160.3" cy="69.43" r="10.87" style="fill:#fff;stroke:#3c3c3b;stroke-linecap:round;stroke-linejoin:round;stroke-width:0.727263364430717px"/>
      <path d="M162.47,65.78a4.35,4.35,0,0,0,1.11.09,13.44,13.44,0,0,0,3.76-.71c2.31-.82,4.58-2.49,4.67-5.15,0-.57-.13-1.26-.68-1.43a1.26,1.26,0,0,0-.61,0c-1.86.38-2.24,1.75-4.37.67-8.19-4.16-18.19,1-16.87,10.76a4.71,4.71,0,0,1,.8-2.21,7.6,7.6,0,0,1,1.54-2,6.2,6.2,0,0,1,4.77-1.75,13.46,13.46,0,0,1,3.19.69C160.83,65.11,161.56,65.58,162.47,65.78Z" style="fill:#3c3c3b;stroke:#3c3c3b;stroke-linecap:round;stroke-linejoin:round;stroke-width:0.727263364430717px"/>
      <path d="M170.66,72.53a15.4,15.4,0,0,0-.76-4.2,8.3,8.3,0,0,0-2-3.25,1.93,1.93,0,0,1,2.71-2.75,2,2,0,0,1,.46.71l.06.17a11.33,11.33,0,0,1,.59,4.93A16.44,16.44,0,0,1,170.66,72.53Z" style="fill:#3c3c3b"/>
      <line x1="289.96" y1="265.11" x2="117.29" y2="265.11" style="fill:none;stroke:#3c3c3b;stroke-linecap:round;stroke-linejoin:round;stroke-width:1.18561971216881px"/>
    </g>
  </g>
</svg>