<svg xmlns="http://www.w3.org/2000/svg" width="356" height="246" fill="none" viewBox="0 0 356 246"><g clip-path="url(#a)"><path fill="#003834" d="M356 0H0v246h356z"/><path fill="#003834" stroke="#a9c753" stroke-miterlimit="10" stroke-width="1.46" d="M177.78 38.19H27.19v100.18h150.59z"/><path fill="#fff" stroke="#fff" stroke-miterlimit="10" stroke-width=".43" d="M109.36 108.34c-10.06 3.8-21.29-1.28-25.09-11.34-.88-2.32-1.27-4.7-1.25-7.04-5.05-1.6-10.28-2.64-15.55-3.42-.54 5.26.09 10.73 2.08 16.02 6.81 18.03 26.82 27.21 44.89 20.68l.8-.3-5.56-14.73s-.21.09-.32.13Z"/><path fill="#adcb53" stroke="#adcb53" stroke-miterlimit="10" stroke-width=".43" d="M69.79 77.07s-.19.47-.27.71a35.06 35.06 0 0 0-.66 22.76c.21.67.69 2.02.69 2.02L84.27 97c-1.7-4.51-1.62-9.26-.11-13.47.07-.2.23-.6.23-.6z"/><path stroke="#c8d3dd" stroke-miterlimit="10" stroke-width=".87" d="M109.36 108.34c-10.06 3.8-21.29-1.28-25.09-11.34s1.28-21.29 11.34-25.09 21.29 1.28 25.09 11.34-1.28 21.29-11.34 25.09Zm5.55 14.72c-18.12 6.84-38.34-2.3-45.18-20.42s2.3-38.34 20.42-45.18 38.34 2.3 45.18 20.42-2.3 38.34-20.42 45.18Z"/><path fill="#a9c753" d="M113.88 29.65H91.09v14.93h22.79z"/><path stroke="#adcb53" stroke-miterlimit="10" stroke-width="1.5" d="M38.57 122.47h28.9m-28.9 5.67h28.9m0-5.67 16.92-10.91"/><path fill="#003834" d="M227.67 132.25c-3.06-5.03-6.88-9.76-11.58-13.35-.9-.69-1.71-.99-2.44-1 .08-.2.15-.4.23-.6a25.4 25.4 0 0 0-4.22-3.59 25.2 25.2 0 0 0-14.15-4.32h-37.22c-4.07 0-7.92.96-11.33 2.67-2.66 1.33-5.03 3.13-7.05 5.27.11.18.21.37.31.56-1.8.67-3.52 2.04-5.52 3.96-2.23 2.15-4.26 4.49-6.01 7.04-16.67 24.29-17.81 57.57-17.27 86.1l21.58-.57v.57h87.82v-1.1l21.95 1.1c.52-27.27-.52-58.78-15.1-82.75z"/><path stroke="#686868" stroke-linecap="round" stroke-linejoin="round" stroke-width="1.3" d="m220.81 215-.5-51.47c-.03-3.16-.78-6.27-2.2-9.1-3.63-7.19-9.96-23.15-4.24-37.14a25.4 25.4 0 0 0-4.22-3.59 25.2 25.2 0 0 0-14.15-4.32h-37.22c-4.07 0-7.92.96-11.33 2.67-2.66 1.33-5.03 3.13-7.05 5.27 6.47 10.66.43 29.36-3.8 37.28-1.56 2.93-2.35 6.2-2.39 9.52l-.73 50.86"/><path stroke="#686868" stroke-miterlimit="10" stroke-width="1.3" d="M140.31 117.3c-27.05 18.22-29.44 68.82-28.89 97.7m102.45-97.7c27.05 18.22 29.44 68.82 28.89 97.7"/><path fill="gray" d="M174.06 96.19h7.21c3.76 0 6.81 3.05 6.81 6.81v6.69c0 5.75-4.67 10.41-10.41 10.41-5.75 0-10.41-4.67-10.41-10.41V103c0-3.76 3.05-6.81 6.81-6.81z"/><path stroke="#fff" stroke-linecap="round" stroke-linejoin="round" stroke-width="2.22" d="M188.07 109.69c0 5.73-4.69 10.41-10.41 10.41-5.73 0-10.41-4.69-10.41-10.41"/><path fill="gray" d="M172.43 87.36h10.9c2.86 0 5.18 2.32 5.18 5.18v9.62c0 5.03-4.09 9.12-9.12 9.12h-3.01c-5.03 0-9.12-4.09-9.12-9.12v-9.62c0-2.86 2.32-5.18 5.18-5.18z" opacity=".5" style="mix-blend-mode:multiply"/><path fill="gray" d="M177.66 106.74c17.353 0 31.42-14.067 31.42-31.42S195.013 43.9 177.66 43.9s-31.42 14.067-31.42 31.42 14.067 31.42 31.42 31.42"/><path fill="gray" d="M214.829 81.449c2.794-4.238 2.484-9.37-.693-11.465s-8.017-.358-10.811 3.879-2.484 9.37.693 11.465 8.017.358 10.811-3.88m-63.518 3.899c3.177-2.095 3.487-7.228.693-11.465s-7.634-5.974-10.811-3.88-3.487 7.228-.693 11.466 7.634 5.974 10.811 3.88"/><path stroke="#545454" stroke-linecap="round" stroke-linejoin="round" stroke-width=".99" d="M208.68 80.5c.98-.38 1.78-1.19 2.17-2.16.24-.61.3-1.35-.09-1.88s-1.35-.59-1.64 0c.11-1.11.58-2.29 1.24-3.19s1.8-1.52 2.9-1.29m-66.61 8.52a3.9 3.9 0 0 1-2.17-2.16c-.24-.61-.3-1.35.09-1.88s1.35-.59 1.64 0c-.11-1.11-.58-2.29-1.24-3.19s-1.8-1.52-2.9-1.29"/><path fill="#fff" d="M156.89 49.44c-2.57 1.65-4.58 3.87-6.12 6.25-2.56 3.96-4.43 8.6-4.02 13.4.04.47.19 1.04.65 1.15 1.12-1.92 1.28-4.34 2.27-6.35 1.07-2.16 2.45-4.18 4.05-5.97 1.62-1.81 3.51-3.27 5.55-4.16z"/><path fill="#fff" d="M205.14 47.1c1.57.61 3.21.77 4.43 2.39.43.57 1.08 1.6 1.19 2.31.05.31.06 1.95-.65 1.5-.38-.24-.6-.67-.93-.98-.99-.92-1.29.12-1.05.96.62 2.12 1.29 4.23 1.5 6.44.34 3.65.55 7.4-1.23 10.78-.09.16-.23.3-.41.35-.56.17-.85-.48-.96-.99-1.04-4.8-2.45-9.16-6.72-11.93-5.59-3.63-12.61-3.62-19-3.02-6.77.64-13.74 3.8-20.61 2.58-5.65-1-11.03-4.18-13.79-9.34-.71-1.33-1.71-3.46-1.3-5.04.69-2.67 3.17.16 4.6.85 1.28.61 2.97.67 4.32.31.74-.2 1.45-.51 2.13-.86.69-.36 1.37-.77 2.03-1.18 2.34-1.43 5.01-3.57 7.84-3.63-.94.02-1.99-4.09-1.59-4.76.62-1.04 1.79.17 2.7.47 1.36.46 2.8.75 4.2 1.04 2.06.42 3.62.16 5.66.1 3.71-.11 7.33.45 10.96 1.12-.61-1.59.35-3.62 1.73-4.52.11-.07.26-.08.36 0 .19.13.09.39.03.6-.18.64.13 1.31.45 1.9 1.16 2.13 3.56 5.81 6.01 6.53.5-1.98 1.61-3.74 3.71-4.38.15-.05.32-.02.43.09.23.21.08.49-.04.72-.52.99-.59 2.16-.42 3.26.36 2.28.99 4.14 2.87 5.54.48.35.98.59 1.48.79z"/><path fill="#000" d="M168.4 74.8a2.3 2.3 0 1 0 0-4.6 2.3 2.3 0 0 0 0 4.6m29.11 0a2.3 2.3 0 1 0 0-4.6 2.3 2.3 0 0 0 0 4.6"/><path stroke="#003834" stroke-linecap="round" stroke-linejoin="round" stroke-width=".66" d="M165.03 34.43c.26 2.19 1.21 4.75 3.1 6.02 1.42.95 3.12 1.36 4.8 1.68m28.2-5.63c-2.76.5-4.39 4.78-3.71 7.22m-7.37-11.47c-1.06.9-1.57 2.32-1.56 3.71s.52 2.73 1.22 3.93m-35.73 7.13c3.03-.32 4.95-1.73 7.3-3.4 2.32-1.64 5.67-2.3 8.46-2.18m-22.55 2.29c.83 1.72 2.6 2.96 4.5 3.14m24.52-3.91c4.97.64 9.18 1.2 13.49 4.03"/><path stroke="#fff" stroke-miterlimit="10" stroke-width="2.49" d="m156.06 67.35 15.25.18m13.28 0 15.25-.18"/><path fill="#fff" d="M188.35 87.99c-.21.07-.41.12-.47.13-.44.05-.97-.03-1.31-.34-.82-.75-1.17-1.97-1.96-2.78a8 8 0 0 0-1.51-1.2c-1.14-.83-2.54-1.22-3.95-1.22h-2.99c-1.41 0-2.81.39-3.95 1.22-.55.34-1.05.74-1.51 1.2-.79.8-1.14 2.03-1.96 2.78-.34.31-.86.39-1.31.34-.06 0-.25-.06-.47-.13a.59.59 0 0 0-.78.62c.13 1.21.98 2.44 1.87 3.09.08.06.17.12.27.17.81.46 1.98.65 2.84.74 1.27.14 5.75-2.09 6.7-2.09.81 0 5.01 2.23 6.28 2.09.87-.09 2.04-.29 2.84-.74.09-.05.18-.11.27-.17.89-.65 1.73-1.88 1.87-3.09a.59.59 0 0 0-.78-.62z"/><path stroke="#545454" stroke-linecap="round" stroke-linejoin="round" stroke-width=".64" d="M148.5 86.59c2.95 6.05 5.68 9.61 9.62 13.06 3.27 2.87 7.48 5.11 11.64 6.41 2.45.77 6.8 1.36 9.25.3 2.66-1.15 3.42-5.41.48-6.41-1.5-.51-5.47-.16-4.86 2.38"/><path stroke="#c3c3c3" stroke-linecap="round" stroke-linejoin="round" stroke-width="1.34" d="M28.65 215h298.03"/><path stroke="#fff" stroke-linecap="round" stroke-linejoin="round" stroke-width="1.35" d="M100.72 198.28H42.2m58.52 7.85H42.2m58.52-15.49H42.2m58.52-7.64H42.2"/><path fill="#fff" stroke="#fff" stroke-linejoin="round" stroke-width="1.35" d="m46.25 183 8.16 9.32L70.2 183z"/><path fill="#013834" stroke="#fff" stroke-linecap="round" stroke-linejoin="round" stroke-width="1.35" d="M241.93 165.26c0 16.63-13.48 30.11-30.11 30.11s-30.11-13.48-30.11-30.11zm85.96 0c0 16.63-13.48 30.11-30.11 30.11s-30.11-13.48-30.11-30.11z"/><path fill="#a9c753" d="M262.68 191.93h-16.12v22.35h16.12z"/><path stroke="#adcb53" stroke-linecap="round" stroke-linejoin="round" stroke-width="1.59" d="M211.34 195.37h86.56"/><path fill="#adcb53" d="M211.64 201.35c-3.3 0-5.98-2.68-5.98-5.98s2.68-5.98 5.98-5.98 5.98 2.68 5.98 5.98-2.68 5.98-5.98 5.98m85.96 0c3.3 0 5.98-2.68 5.98-5.98s-2.68-5.98-5.98-5.98-5.98 2.68-5.98 5.98 2.68 5.98 5.98 5.98"/><path fill="#adcb53" stroke="#adcb53" stroke-linecap="round" stroke-linejoin="round" stroke-width="1.09" d="M235.2 131.34h-46.77v27.05h46.77z"/><path fill="#fff" d="M210.98 152.51v-1.81c-1.18-.04-2.35-.37-3.03-.82l.5-1.76c.73.43 1.78.82 2.92.82s1.98-.58 1.98-1.48c0-.84-.65-1.38-2.04-1.89-1.96-.71-3.23-1.61-3.23-3.35 0-1.61 1.12-2.84 3.01-3.18v-1.83h1.53v1.74c1.18.04 1.98.32 2.58.62l-.5 1.72c-.45-.21-1.27-.64-2.54-.64s-1.78.67-1.78 1.31c0 .77.67 1.2 2.26 1.83 2.09.78 3.03 1.79 3.03 3.46s-1.1 2.99-3.16 3.33v1.92h-1.53z"/><path stroke="#fff" stroke-miterlimit="10" stroke-width="1.06" d="M211.82 154.98c5.589 0 10.12-4.531 10.12-10.12s-4.531-10.12-10.12-10.12-10.12 4.531-10.12 10.12 4.531 10.12 10.12 10.12Z"/><path stroke="#adcb53" stroke-linecap="round" stroke-linejoin="round" stroke-width="1.09" d="m326.7 110.29-56.15.18v47.62h56.15z"/><path fill="#a8c653" stroke="#a8c653" stroke-miterlimit="10" stroke-width="1.19" d="M326.69 106h-56.14v6.03h56.14z"/><path stroke="#adcb53" stroke-linecap="round" stroke-linejoin="round" stroke-width="1.09" d="M292.08 130.36c0 3.61 2.93 6.54 6.54 6.54s6.54-2.93 6.54-6.54c0-2.44-2.98-7.82-4.92-11.07-.73-1.23-2.51-1.23-3.25 0-1.94 3.24-4.92 8.63-4.92 11.07zm6.54-3.43v13.33"/><path fill="#adcb53" d="M296.99 127.02a1.63 1.63 0 1 1 3.26 0 1.63 1.63 0 0 1-3.26 0"/><path stroke="#adcb53" stroke-linecap="round" stroke-linejoin="round" stroke-width="1.09" d="m287.36 126.84-6.22 4.59 6.22 4.59m22.53-9.18 6.22 4.59-6.22 4.59m-1.38 12.09h7.41m-24.53 0h13.57m-23.63 0h6.02"/></g><defs><clipPath id="a"><path fill="#fff" d="M0 0h356v246H0z"/></clipPath></defs></svg>