<svg width="356" height="246" viewBox="0 0 356 246" fill="none" xmlns="http://www.w3.org/2000/svg">
<g clip-path="url(#clip0_1_2145)">
<path d="M356 0H0V246H356V0Z" fill="#003834"/>
<path d="M104.54 215.7V195.7" stroke="#ADCB53" stroke-width="1.23" stroke-linecap="round" stroke-linejoin="round"/>
<path d="M108.24 195.88C108.24 193.84 106.58 192.18 104.54 192.18C102.5 192.18 100.84 193.84 100.84 195.88C100.84 197.92 102.5 199.58 104.54 199.58C106.58 199.58 108.24 197.92 108.24 195.88Z" fill="#ADCB53"/>
<path d="M97.21 215.64V186.57" stroke="#ADCB53" stroke-width="1.23" stroke-linecap="round" stroke-linejoin="round"/>
<path d="M100.91 186.76C100.91 184.72 99.25 183.06 97.21 183.06C95.17 183.06 93.51 184.72 93.51 186.76C93.51 188.8 95.17 190.46 97.21 190.46C99.25 190.46 100.91 188.8 100.91 186.76Z" fill="#ADCB53"/>
<path d="M79.85 216H238.5" stroke="#ADCB53" stroke-width="1.23" stroke-linecap="round" stroke-linejoin="round"/>
<path d="M48.81 216H61.8" stroke="#ADCB53" stroke-width="1.23" stroke-linecap="round" stroke-linejoin="round"/>
<path d="M65.66 183.8V164.28" stroke="#ADCB53" stroke-width="1.23" stroke-linecap="round" stroke-linejoin="round"/>
<path d="M74.49 153.92C74.64 153.78 74.79 153.63 74.92 153.47C75.55 152.7 75.51 151.55 74.79 150.83L73.32 149.36C69.15 145.19 62.33 145.19 58.16 149.36L56.69 150.83C55.97 151.55 55.93 152.7 56.56 153.47C56.69 153.63 56.82 153.8 56.94 153.98C57.94 155.4 59.54 156.03 60.8 157.22C62.47 158.81 63.19 161.34 65.28 162.48C67.86 163.88 69.33 161.93 70.52 159.74C71.29 158.32 71.9 156.81 72.81 155.48C73.26 154.82 73.91 154.44 74.48 153.92H74.49Z" fill="white"/>
<path d="M66.13 165.42C64.33 164.92 62.45 164.69 60.58 164.73C58.83 164.77 57.13 165.26 55.4 165.23C55.24 165.23 55.07 165.23 54.91 165.23C54.14 165.27 53.43 164.72 53.31 163.94L53.06 162.34C52.35 157.81 55.47 153.52 60 152.81L61.6 152.56C62.38 152.44 63.12 152.94 63.32 153.69C63.36 153.85 63.41 154.01 63.46 154.16C64.08 155.96 64.78 157.73 65.3 159.56C65.82 161.39 66.01 163.28 66.18 165.2" fill="#C8D3DD"/>
<path d="M66.05 165.42C66.73 165.45 67.58 164.92 68.26 164.75C69.13 164.54 70.01 164.42 70.9 164.39C72.39 164.34 73.89 164.55 75.3 165.01C76.36 165.36 77.95 165.41 78.18 163.95L78.43 162.35C79.14 157.82 76.02 153.53 71.49 152.82L69.89 152.57C69.11 152.45 68.37 152.95 68.17 153.7C68.13 153.86 68.08 154.02 68.03 154.17L65.74 160.84C65.51 161.54 65.27 162.22 65.18 162.95C65.09 163.68 65.15 164.44 65.48 165.1C65.54 165.23 65.62 165.35 65.73 165.44C65.84 165.53 65.91 165.47 66.04 165.42H66.05Z" fill="#C8D3DD"/>
<path d="M67.89 165.21C67.89 163.98 66.89 164.09 65.66 164.09C64.43 164.09 63.43 163.97 63.43 165.21C63.43 166.45 64.43 168.56 65.66 168.56C66.89 168.56 67.89 166.44 67.89 165.21Z" fill="#ADCB53"/>
<path d="M177.66 215.8V196.28" stroke="#ADCB53" stroke-width="1.23" stroke-linecap="round" stroke-linejoin="round"/>
<path d="M186.49 185.92C186.64 185.78 186.79 185.63 186.92 185.47C187.55 184.7 187.51 183.55 186.79 182.83L185.32 181.36C181.15 177.19 174.33 177.19 170.16 181.36L168.69 182.83C167.97 183.55 167.93 184.7 168.56 185.47C168.69 185.63 168.82 185.8 168.94 185.98C169.94 187.4 171.54 188.03 172.8 189.22C174.47 190.81 175.19 193.34 177.28 194.48C179.86 195.88 181.33 193.93 182.52 191.74C183.29 190.32 183.9 188.81 184.81 187.48C185.26 186.82 185.91 186.44 186.48 185.92H186.49Z" fill="white"/>
<path d="M178.13 197.42C176.33 196.92 174.45 196.69 172.58 196.73C170.83 196.77 169.13 197.26 167.4 197.23C167.24 197.23 167.07 197.23 166.91 197.23C166.14 197.27 165.43 196.72 165.31 195.94L165.06 194.34C164.35 189.81 167.47 185.52 172 184.81L173.6 184.56C174.38 184.44 175.12 184.94 175.32 185.69C175.36 185.85 175.41 186.01 175.46 186.16C176.08 187.96 176.78 189.73 177.3 191.56C177.82 193.39 178.01 195.28 178.18 197.2" fill="#C8D3DD"/>
<path d="M178.05 197.42C178.73 197.45 179.58 196.92 180.26 196.75C181.13 196.54 182.01 196.42 182.9 196.39C184.39 196.34 185.89 196.55 187.3 197.01C188.36 197.36 189.95 197.41 190.18 195.95L190.43 194.35C191.14 189.82 188.02 185.53 183.49 184.82L181.89 184.57C181.11 184.45 180.37 184.95 180.17 185.7C180.13 185.86 180.08 186.02 180.03 186.17L177.74 192.84C177.51 193.54 177.27 194.22 177.18 194.95C177.09 195.68 177.15 196.44 177.48 197.1C177.54 197.23 177.62 197.35 177.73 197.44C177.84 197.53 177.91 197.47 178.04 197.42H178.05Z" fill="#C8D3DD"/>
<path d="M179.89 197.21C179.89 195.98 178.89 196.09 177.66 196.09C176.43 196.09 175.43 195.97 175.43 197.21C175.43 198.45 176.43 200.56 177.66 200.56C178.89 200.56 179.89 198.44 179.89 197.21Z" fill="#ADCB53"/>
<path d="M212.66 215.8V196.28" stroke="#ADCB53" stroke-width="1.23" stroke-linecap="round" stroke-linejoin="round"/>
<path d="M221.49 185.92C221.64 185.78 221.79 185.63 221.92 185.47C222.55 184.7 222.51 183.55 221.79 182.83L220.32 181.36C216.15 177.19 209.33 177.19 205.16 181.36L203.69 182.83C202.97 183.55 202.93 184.7 203.56 185.47C203.69 185.63 203.82 185.8 203.94 185.98C204.94 187.4 206.54 188.03 207.8 189.22C209.47 190.81 210.19 193.34 212.28 194.48C214.86 195.88 216.33 193.93 217.52 191.74C218.29 190.32 218.9 188.81 219.81 187.48C220.26 186.82 220.91 186.44 221.48 185.92H221.49Z" fill="white"/>
<path d="M213.13 197.42C211.33 196.92 209.45 196.69 207.58 196.73C205.83 196.77 204.13 197.26 202.4 197.23C202.24 197.23 202.07 197.23 201.91 197.23C201.14 197.27 200.43 196.72 200.31 195.94L200.06 194.34C199.35 189.81 202.47 185.52 207 184.81L208.6 184.56C209.38 184.44 210.12 184.94 210.32 185.69C210.36 185.85 210.41 186.01 210.46 186.16C211.08 187.96 211.78 189.73 212.3 191.56C212.82 193.39 213.01 195.28 213.18 197.2" fill="#C8D3DD"/>
<path d="M213.05 197.42C213.73 197.45 214.58 196.92 215.26 196.75C216.13 196.54 217.01 196.42 217.9 196.39C219.39 196.34 220.89 196.55 222.3 197.01C223.36 197.36 224.95 197.41 225.18 195.95L225.43 194.35C226.14 189.82 223.02 185.53 218.49 184.82L216.89 184.57C216.11 184.45 215.37 184.95 215.17 185.7C215.13 185.86 215.08 186.02 215.03 186.17L212.74 192.84C212.51 193.54 212.27 194.22 212.18 194.95C212.09 195.68 212.15 196.44 212.48 197.1C212.54 197.23 212.62 197.35 212.73 197.44C212.84 197.53 212.91 197.47 213.04 197.42H213.05Z" fill="#C8D3DD"/>
<path d="M214.89 197.21C214.89 195.98 213.89 196.09 212.66 196.09C211.43 196.09 210.43 195.97 210.43 197.21C210.43 198.45 211.43 200.56 212.66 200.56C213.89 200.56 214.89 198.44 214.89 197.21Z" fill="#ADCB53"/>
<path d="M321.13 216H260.89" stroke="#ADCB53" stroke-width="1.23" stroke-linecap="round" stroke-linejoin="round"/>
<path d="M301.37 215.6V201.47" stroke="#ADCB53" stroke-width="1.39" stroke-linecap="round" stroke-linejoin="round"/>
<path d="M303.98 201.6C303.98 200.16 302.81 198.99 301.37 198.99C299.93 198.99 298.76 200.16 298.76 201.6C298.76 203.04 299.93 204.21 301.37 204.21C302.81 204.21 303.98 203.04 303.98 201.6Z" fill="#ADCB53"/>
<path d="M298.13 163.7C296.97 165.84 296.29 168.28 296.26 170.88C296.16 179.37 306.63 188.89 311.5 188.89C318.08 188.89 327.18 179.69 327.18 171.07C327.18 167.53 325.99 164.28 324 161.67C323.05 160.43 322.82 158.79 323.42 157.35C324.04 155.85 324.39 154.21 324.39 152.49C324.39 149.56 323.39 146.86 321.72 144.72C320.67 143.37 320.48 141.55 321.26 140.02C322 138.57 322.41 136.93 322.41 135.19C322.41 129.29 315.92 117.5 311.72 117.5C308.03 117.5 301.03 129.29 301.03 135.19C301.03 136.93 301.45 138.57 302.18 140.02C302.96 141.55 302.77 143.37 301.72 144.72C300.05 146.87 299.05 149.56 299.05 152.49C299.05 154.21 299.39 155.85 300.02 157.35C300.65 158.85 300.39 160.43 299.44 161.67C298.95 162.31 298.51 162.99 298.12 163.7" stroke="#ADCB53" stroke-width="1.51" stroke-linecap="round" stroke-linejoin="round"/>
<path d="M311.73 131.11V215.33" stroke="#ADCB53" stroke-width="1.51" stroke-linecap="round" stroke-linejoin="round"/>
<path d="M93.71 215.76L78.76 188.01C75.54 181.26 65.93 181.26 62.72 188.01L49.45 215.76" stroke="#ADCB53" stroke-width="1.17" stroke-linecap="round" stroke-linejoin="round"/>
<path d="M296.18 216L287.9 200.63C286.12 196.89 280.8 196.89 279.02 200.63L271.67 216" stroke="#ADCB53" stroke-width="1.17" stroke-linecap="round" stroke-linejoin="round"/>
<path d="M82.27 215.96C80.17 211.38 75.96 203.79 73.86 199.21C73.03 197.41 72.19 195.58 70.85 194.11C68.92 191.99 66.14 191.41 63.48 192.38C62.7 192.66 61.98 193.07 61.26 193.48C60.72 193.79 60.17 194.1 59.63 194.4" stroke="#ADCB53" stroke-width="1.17" stroke-linecap="round" stroke-linejoin="round"/>
<path d="M84.21 67.8899C102.33 47.5999 128.38 46.1799 151.83 56.2999C155.49 57.8799 159.01 60.8499 161.96 63.4799C168.93 69.6999 174.26 77.6599 177.31 86.4799C178.75 90.6399 179.69 94.5599 179.31 98.9199C178.96 102.87 179.79 106.07 180.05 110.05C180.27 113.53 178.88 117.73 177.85 121.01C175.52 128.47 171.57 135.39 166.37 141.22C161.8 146.34 156.37 150.39 150.33 153.61C145.63 156.12 139.96 156.47 134.97 158.08C129.75 159.77 124.59 159.84 119.07 159.18C107.87 157.83 97.05 153.15 88.62 145.63C78.63 136.71 72.15 124.27 70.6 110.96C69.83 104.39 70.25 97.6799 71.85 91.2499C72.96 86.7699 75.32 82.9599 77.67 79.0499C79.99 75.1899 81.2 71.2599 84.21 67.8799V67.8899Z" stroke="#A6C453" stroke-width="1.52" stroke-linecap="round" stroke-linejoin="round"/>
<path d="M163.59 144C161.03 144.6 157.55 143.66 155.36 142.34C154.22 141.65 153.07 140.95 152.11 140.01C149.91 137.85 149 134.56 149.42 131.51C150.32 124.97 156.94 120.65 161.68 116.78C171.25 108.97 177.84 97.62 176.89 84.98" stroke="#A6C453" stroke-width="1.52" stroke-linecap="round" stroke-linejoin="round"/>
<path d="M148.98 153.87C143.29 152.66 138.03 148.94 135.3 143.76C132.62 138.68 133.74 132.21 136.12 127.19C140.49 118 148.63 112.43 155.43 105.19C160.76 99.51 163.83 93.45 165.79 85.98C167.17 80.69 168.55 73.74 167 68.38" stroke="#A6C453" stroke-width="1.52" stroke-linecap="round" stroke-linejoin="round"/>
<path d="M120.91 50.29C136.27 47.92 152.91 59.66 147.97 77.43C145.62 85.87 139.23 92.31 131.86 96.74C125.16 100.76 115.22 99.87 107.52 102.19C103.23 103.48 99.78 107.49 96.12 110.07C94.59 111.15 93.04 112.23 91.32 112.96C87.14 114.73 82.04 114.16 78.36 111.5C71.66 106.66 70.5699 98.41 72.1699 90.14" stroke="#A6C453" stroke-width="1.52" stroke-linecap="round" stroke-linejoin="round"/>
<path d="M135.73 75.95C136.62 72.08 135.56 67.64 132.48 65.14C130.95 63.9 129.04 63.2 127.13 62.74C115.71 59.99 103.32 65.31 95.67 74.23C92.98 77.37 90.74 81.01 89.87 85.05C89 89.09 89.62 93.57 92.15 96.84C96.06 101.9 99.82 98.99 103.56 95.83C106.95 92.97 109.24 92.08 113.55 91.7C122.74 90.9 133.44 85.92 135.73 75.95Z" stroke="#A6C453" stroke-width="1.52" stroke-linecap="round" stroke-linejoin="round"/>
<path d="M116.95 81.77C118.34 81.11 119.74 80.35 120.68 79.12C121.61 77.9 121.95 76.1 121.1 74.82C120.1 73.32 117.99 73.13 116.19 73.24C112.5 73.46 108.84 74.35 105.45 75.84C103.65 76.63 101.78 77.75 101.14 79.61C97.78 89.38 114.49 82.95 116.95 81.78V81.77Z" stroke="#A6C453" stroke-width="1.52" stroke-linecap="round" stroke-linejoin="round"/>
<path d="M73.95 124.51C81.46 133.47 95.67 129.04 102.79 122.23C106.57 118.61 108.79 114.1 113.93 111.97C118.06 110.26 122.71 110.53 127.12 109.76C147.02 106.25 163.31 78.8599 156.78 59.4199" stroke="#A6C453" stroke-width="1.52" stroke-linecap="round" stroke-linejoin="round"/>
<path d="M134.32 158.42C130.19 157.89 126.84 155.05 125.14 151.24C123.64 147.89 122.92 144.23 122.9 140.56C122.89 137.16 122.65 133.98 120.76 131.01C117.68 126.17 110.22 129.31 107.14 132.6C105.15 134.73 103.15 136.88 100.9 138.75C96.2899 142.58 90.8699 144.43 85.0099 142.42" stroke="#A6C453" stroke-width="1.52" stroke-linecap="round" stroke-linejoin="round"/>
<path d="M121.83 159.32C118.96 159.58 116.12 156.56 114.96 154.23C113.38 151.04 115.72 148.62 115.47 145.38C115.35 143.88 114.46 142.46 113.16 141.71C111.86 140.96 110.18 140.89 108.83 141.54C107.48 142.18 106.53 143.42 105.66 144.63C104.57 146.14 103.51 147.71 102.08 148.9C100.32 150.36 97.4 151.32 95.17 150.36" stroke="#A6C453" stroke-width="1.52" stroke-linecap="round" stroke-linejoin="round"/>
<path d="M139.32 102.89C139.38 110.72 133.09 117.11 125.26 117.18C117.43 117.24 111.04 110.95 110.97 103.12C110.91 95.29 124.97 81.97 124.97 81.97C124.97 81.97 139.25 95.06 139.31 102.89H139.32Z" fill="#A9C753" stroke="#A9C753" stroke-width="2.53" stroke-linecap="round" stroke-linejoin="round"/>
<path d="M125.12 101.12L125.32 124.93" stroke="white" stroke-width="1.62" stroke-linecap="round" stroke-linejoin="round"/>
<path d="M88.22 118.76C90.8654 118.76 93.01 116.615 93.01 113.97C93.01 111.324 90.8654 109.18 88.22 109.18C85.5745 109.18 83.43 111.324 83.43 113.97C83.43 116.615 85.5745 118.76 88.22 118.76Z" fill="#A9C753"/>
<path d="M163.14 121.97C165.785 121.97 167.93 119.825 167.93 117.18C167.93 114.535 165.785 112.39 163.14 112.39C160.495 112.39 158.35 114.535 158.35 117.18C158.35 119.825 160.495 121.97 163.14 121.97Z" fill="#A9C753"/>
<path d="M95.17 78.13C96.9649 78.13 98.42 76.6749 98.42 74.88C98.42 73.0851 96.9649 71.63 95.17 71.63C93.3751 71.63 91.92 73.0851 91.92 74.88C91.92 76.6749 93.3751 78.13 95.17 78.13Z" fill="#A9C753"/>
<path d="M148.85 73.16C151.495 73.16 153.64 71.0154 153.64 68.37C153.64 65.7245 151.495 63.58 148.85 63.58C146.205 63.58 144.06 65.7245 144.06 68.37C144.06 71.0154 146.205 73.16 148.85 73.16Z" fill="#A9C753"/>
<path d="M115 138.9C116.795 138.9 118.25 137.445 118.25 135.65C118.25 133.855 116.795 132.4 115 132.4C113.205 132.4 111.75 133.855 111.75 135.65C111.75 137.445 113.205 138.9 115 138.9Z" fill="#A9C753"/>
<path d="M212.01 154.87H164.17V66.4101L280.15 66.0901V154.87H232.31L222.16 165.02L212.01 154.87Z" fill="#003834"/>
<path d="M279.52 66.7201V154.24H232.04L231.67 154.61L222.15 164.13L212.63 154.61L212.26 154.24H164.78V67.0401L279.51 66.7201M280.78 65.4601L163.54 65.7801V155.49H211.75L222.16 165.9L232.57 155.49H280.78V65.4501V65.4601Z" fill="white"/>
<path d="M280.78 53.9H163.54V68.49H280.78V53.9Z" fill="#A8C653"/>
<path d="M275.888 58.7412L274.354 57.2068L267.842 63.7192L269.376 65.2537L275.888 58.7412Z" fill="#181818"/>
<path d="M274.349 65.2484L275.883 63.714L269.371 57.2015L267.836 58.736L274.349 65.2484Z" fill="#181818"/>
<path d="M258.58 58.42V64.24H252.04V58.42H258.58ZM259.58 57.42H251.03V65.25H259.58V57.42Z" fill="#181818"/>
<path d="M242.74 63.52H234.19V65.24H242.74V63.52Z" fill="#181818"/>
<path d="M239.3 123.95H252.15" stroke="#ADCB53" stroke-width="1.88" stroke-linecap="round" stroke-linejoin="round"/>
<path d="M209.61 123.95H233.15" stroke="#ADCB53" stroke-width="1.88" stroke-linecap="round" stroke-linejoin="round"/>
<path d="M192.16 123.95H202.6" stroke="#ADCB53" stroke-width="1.88" stroke-linecap="round" stroke-linejoin="round"/>
<path d="M242 137.56H252.15" stroke="#ADCB53" stroke-width="1.88" stroke-linecap="round" stroke-linejoin="round"/>
<path d="M192.16 137.56H201.95" stroke="#ADCB53" stroke-width="1.88" stroke-linecap="round" stroke-linejoin="round"/>
<path d="M206.41 137.56H237.91" stroke="#ADCB53" stroke-width="1.88" stroke-linecap="round" stroke-linejoin="round"/>
<path d="M192.056 94.302V96.162C192.032 96.954 191.876 97.278 191.396 97.518C191.876 97.758 192.056 98.142 192.056 98.91V100.71C192.056 101.61 192.308 101.85 193.196 101.862V102.702C192.056 102.69 191.876 102.654 191.552 102.402C191.204 102.102 191.072 101.694 191.072 100.926V99.018C191.072 98.322 190.892 98.034 190.388 97.878V97.11C190.892 96.954 191.072 96.678 191.072 96.018V93.93C191.072 93.342 191.192 92.97 191.456 92.706C191.732 92.418 192.152 92.31 193.016 92.31H193.196V93.198C192.32 93.21 192.056 93.474 192.056 94.302Z" fill="#A9C753"/>
<path d="M222.16 83.78C227.37 83.78 231.61 88.02 231.61 93.23C231.61 98.44 227.37 102.68 222.16 102.68C216.95 102.68 212.71 98.44 212.71 93.23C212.71 88.02 216.95 83.78 222.16 83.78ZM222.16 81.27C215.56 81.27 210.2 86.62 210.2 93.23C210.2 99.84 215.55 105.19 222.16 105.19C228.77 105.19 234.12 99.84 234.12 93.23C234.12 86.62 228.77 81.27 222.16 81.27Z" fill="#A9C753"/>
</g>
<defs>
<clipPath id="clip0_1_2145">
<rect width="356" height="246" fill="white"/>
</clipPath>
</defs>
</svg>
