<svg xmlns="http://www.w3.org/2000/svg" width="48" height="48" fill="none" viewBox="0 0 48 48"><g clip-path="url(#a)"><path fill="#006d68" d="M43.04 46.92c-.1-.1-.23-.16-.38-.18-2.23-.23-3.98-2.16-3.98-4.4l.03-29.08c0-3.93-3.2-7.13-7.13-7.13H.6c-.25 0-.46.16-.55.39-.1.23-.03.51.15.69.1.1.23.16.37.18 2.05.22 3.7 1.87 3.92 3.85l.04 29.62c0 3.93 3.2 7.13 7.13 7.13h30.97c.25 0 .46-.16.56-.39s.03-.51-.14-.68z"/><path fill="#a5c352" d="M47.8 40.8a.63.63 0 0 0-.4-.19c-2.21-.22-3.94-2.14-3.94-4.36l.03-29.08c0-3.95-3.22-7.17-7.17-7.17H5.34c-.26 0-.49.17-.59.42-.1.24-.03.54.16.73.11.11.24.17.39.19 2.03.22 3.67 1.85 3.88 3.82l.04 29.62c0 3.95 3.22 7.17 7.17 7.17h30.97c.26 0 .49-.17.59-.42.1-.24.03-.54-.15-.73"/><path fill="#fff" d="M36.94 19.55H15.76v2.84h21.18zm0-10.38H15.76v2.84h21.18zm0 20.76H15.76v2.84h21.18z"/></g><defs><clipPath id="a"><path fill="#fff" d="M0 0h48v48H0z"/></clipPath></defs></svg>