<svg xmlns="http://www.w3.org/2000/svg" width="320" height="320" fill="none" viewBox="0 0 320 320"><path fill="#fbfcf6" d="M160 23c65.71 0 119.06 53.35 119.06 119.06V243H40.94V142.06C40.94 76.35 94.29 23 160 23"/><path fill="#cee098" d="M318 293H2v9h316z"/><path fill="#006e69" d="M281.64 240H38.36L2 293h316z"/><path fill="#000" d="M164.4 53.62c13.934 0 25.23-11.296 25.23-25.23S178.334 3.16 164.4 3.16s-25.23 11.296-25.23 25.23 11.296 25.23 25.23 25.23"/><path fill="#aecc53" d="M126.81 134.4c3.84-1.03 7.84-1.74 11.78-1.18 6.14.87 11.64 4.43 12.58 11.08 1.16 8.22-5.62 12.34-11.99 15.71-5.07 2.68-9.44 5.1-13.46 9.12-.37.37-.74.75-1.1 1.15-2.28 2.49-4.43 5.19-5.53 8.37-1.64 4.75-.66 9.75.9 14.38 1.66 4.92 4.29 6.34 6.46 10.46 3.92 7.45 3.99 16.69 3.5 24.89-.15 2.48-1.81 16.2-5.07 16.33a95 95 0 0 1-18.74-1.11c-13.34-2.13-21.83-13.09-29.92-22.85-9.29-11.22-8.5-24.31-2.56-36.52 11.28-23.18 28.12-43.1 53.16-49.84zm80.88.43c-3.84-1.03-7.84-1.74-11.78-1.18-6.14.87-11.64 4.43-12.58 11.08-1.16 8.22 5.62 12.34 11.99 15.71 5.07 2.68 9.44 5.1 13.46 9.12.37.37.74.75 1.1 1.15 2.28 2.49 4.43 5.19 5.53 8.37 1.64 4.75.66 9.75-.9 14.37-1.22 3.61-4.15 5.84-5.7 9.16-1.79 3.84 1.78 8.06 4.01 11.32 1.98 2.89 4.05 5.88 7.07 7.67 2.36 1.4 5.13 1.96 7.85 2.34 6.18.86 12.47.93 18.67.23 6.6-.75 11.24-1.12 14.77-7.07 6.03-10.18 4.35-22.09-.33-32.43-10.38-22.93-28.12-43.1-53.16-49.84"/><path stroke="#006e69" stroke-linecap="round" stroke-linejoin="round" stroke-width=".83" d="M94.13 153.6c10.77-10.12 22.04-16.34 32.69-19.2 3.84-1.03 7.84-1.74 11.78-1.18 6.14.87 11.64 4.43 12.58 11.08 1.16 8.22-5.62 12.34-11.99 15.71-5.07 2.68-9.44 5.1-13.46 9.12"/><path fill="#006e69" d="M80.71 171.26c2.7-5.8 6.98-10.72 11.06-15.55.33-.42 1 .1.65.52-4.34 4.71-8.73 9.31-11.71 15.03"/><path stroke="#006e69" stroke-linecap="round" stroke-linejoin="round" stroke-width=".83" d="M240.93 155.06c-9.98-9.78-22.86-17.33-33.67-20.23-3.84-1.03-7.84-1.74-11.78-1.18-6.14.87-11.64 4.43-12.58 11.08-1.16 8.22 5.62 12.34 11.99 15.71 5.07 2.68 9.44 5.1 13.46 9.12.37.37.74.75 1.1 1.15"/><path fill="#006e69" d="M252.92 170.71c-2.21-3.91-4.95-7.49-7.97-10.77-.38-.4.28-.98.63-.54 2.84 3.51 5.37 7.28 7.34 11.31m-102.61-39.9h32.14c22.97 0 41.62 18.65 41.62 41.62v84.92H108.69v-84.92c0-22.97 18.65-41.62 41.62-41.62"/><path fill="#aecc53" d="M231.64 173.88v.01c-.68 5.56-2.19 12.05-6.72 15.62-3.46 2.71-23.82-2.51-27.83 7.6-3.1 7.83-3.06 9.96-4.33 18.08-.38 2.46-7.56 15.4 14.13 21.51 6.03 1.7 12.29 2.54 18.55 2.88 14.9.82 31.01-10.98 40.34-21.73 8.02-9.25 6.18-22.27 1.2-32.56-3.42-7.08-9.67-14.13-16.3-18.34-7.18-4.56-17.79-3.37-19.04 6.93"/><path stroke="#006e69" stroke-linecap="round" stroke-linejoin="round" stroke-width=".83" d="M239.03 173.73c-6.52.08-11.54 5.68-15.36 10.33-.24-.03-.23-.38-.14-.61 1.73-4.58 4.1-9.4 8.36-12.06 4.29-2.68 9.47-3.96 14.52-3.52m5.61 7.15c-3.04-.66-5.25-1.19-8.34-.73m-23.24 17.45c4.13 1.57 7.57 5.08 9.61 8.84 2.54 4.7 3.17 10.21 2.26 15.43-1.62 9.27-7.14 18.86-16.03 22.63"/><path stroke="#006e69" stroke-linecap="round" stroke-linejoin="round" stroke-width=".83" d="M228.73 199.25c-1.88.32-3.25 1.18-4.71 2.33m7.41 3.37c-1.69.56-3.39 1.14-5.04 1.78m5.89 6.72c-1.53.56-3.48.28-5.09.26m3.25 8.47c-2.19-.46-4.33-1.14-6.38-2.01"/><path fill="#aecc53" d="M106.7 212.21q-.3-2.1-.66-4.17c-.64-3.71-1.69-7.12-2.56-10.73-.75-3.06-.87-6.41-2.81-9.04-4.98-6.79-13.25-10.9-20.83-14.06-4.71-1.96-13.38-5.73-17.65-1.19-1.13 1.2-1.8 3.65-2.46 5.15-1.55 3.5-2.89 7.09-4 10.75-4.35 14.27 3.27 32.74 11.49 44.36 7.07 9.99 20.15 11.31 31.33 8.93 5.16-1.1 7.36-4.46 8.29-9.54 1.24-6.77.84-13.67-.12-20.46z"/><path stroke="#006e69" stroke-linecap="round" stroke-linejoin="round" stroke-width=".83" d="M102.78 195.15c-6.93 6.62-16.43 7.67-25.05 3.89s-16.61-11.43-18.16-20.96"/><path stroke="#006e69" stroke-linecap="round" stroke-linejoin="round" stroke-width=".83" d="M94.87 199.55c.13-1.9-.37-3.44-1.14-5.13m-5.04 6.4c-.14-1.78-.3-3.56-.53-5.32m-7.94 4.12c-.18-1.62.56-3.45.96-5m-8.99 1.13c.97-2.01 2.14-3.93 3.48-5.72"/><path fill="#006e69" d="M249.22 168.18c8.15 1.38 13.16 8.52 16.87 15.25-1.02-1.66-2.07-3.29-3.21-4.86-3.24-4.66-8.04-8.82-13.78-9.57-.55-.06-.44-.91.12-.83z"/><path fill="#aecc53" d="M166.38 53.68c15.624 0 28.29-6.895 28.29-15.4s-12.666-15.4-28.29-15.4-28.29 6.895-28.29 15.4 12.666 15.4 28.29 15.4"/><path fill="#003834" d="M135.37 117.9h61.72v4.06c0 17.03-13.83 30.86-30.86 30.86s-30.86-13.83-30.86-30.86z"/><path fill="#000" d="M166.23 127.94c16.552 0 29.97-4.303 29.97-9.61s-13.418-9.61-29.97-9.61-29.97 4.303-29.97 9.61 13.418 9.61 29.97 9.61"/><path stroke="#aecc53" stroke-miterlimit="10" stroke-width="3.36" d="M166.23 127.94c16.552 0 29.97-4.303 29.97-9.61s-13.418-9.61-29.97-9.61-29.97 4.303-29.97 9.61 13.418 9.61 29.97 9.61Z"/><path fill="#006e69" d="M150.47 150.4c-.06 0-.12 0-.18-.03-2.49-.74-4.84-2.95-6.07-4.82-2.93-4.45-2.71-9.36-2.28-13.62.04-.35.35-.6.69-.56.35.04.6.34.56.69-.51 5.02-.35 9.11 2.08 12.8 1.3 1.98 3.51 3.75 5.37 4.3a.628.628 0 0 1-.18 1.23zm31.47.07c-.26 0-.5-.16-.59-.42a.63.63 0 0 1 .38-.81c2.03-.72 3.85-2.51 5-4.91 1.12-2.34 1.23-4.9 1.34-7.62.05-1.31.11-2.66.29-3.97.05-.34.37-.59.71-.54s.59.37.54.71c-.17 1.25-.23 2.57-.28 3.85-.11 2.72-.23 5.53-1.46 8.11-1.29 2.69-3.37 4.71-5.71 5.55-.07.02-.14.04-.21.04zm-22.57 2.6c-.05 0-.11 0-.16-.02-2.27-.59-4.08-2.58-4.62-5.06-.45-2.09-.46-4.65-.47-6.91v-.77c0-.35.28-.63.63-.63s.63.28.63.63v.78c.01 2.19.02 4.68.44 6.65.44 2.02 1.89 3.63 3.7 4.11a.63.63 0 0 1-.16 1.24zm15.81-.13c-.27 0-.51-.17-.6-.43a.62.62 0 0 1 .4-.79c3.77-1.23 4.54-6.4 4.04-10.45-.04-.35.2-.66.55-.7s.66.2.7.55c.58 4.74-.41 10.34-4.9 11.8-.06.02-.13.03-.2.03z"/><path fill="#c3c3c3" stroke="#fff" stroke-miterlimit="10" stroke-width=".61" d="M214.278 89.91c3.603-5.463 3.205-12.08-.89-14.78s-10.334-.46-13.936 5.004-3.205 12.082.89 14.781c4.094 2.7 10.334.46 13.936-5.004Zm-81.868 5.02c4.094-2.7 4.492-9.318.89-14.781-3.603-5.464-9.843-7.705-13.937-5.005s-4.493 9.318-.89 14.781 9.842 7.705 13.937 5.005Z"/><path fill="#c3c3c3" stroke="#fff" stroke-miterlimit="10" stroke-width=".61" d="M166.38 122.49c22.362 0 40.49-18.128 40.49-40.49s-18.128-40.49-40.49-40.49S125.89 59.638 125.89 82s18.128 40.49 40.49 40.49Z"/><path stroke="#000" stroke-linecap="round" stroke-linejoin="bevel" stroke-width=".52" d="M172.63 101.31a7.04 7.04 0 0 1-6.25 3.78 7.06 7.06 0 0 1-6.25-3.78m47.23-10.08a5 5 0 0 0 2.79-2.79c.31-.78.39-1.74-.12-2.42s-1.73-.76-2.12 0c.14-1.43.75-2.95 1.6-4.11s2.33-1.96 3.74-1.66m-87.84 10.98a5 5 0 0 1-2.79-2.79c-.31-.78-.39-1.74.12-2.42s1.73-.76 2.12 0c-.14-1.43-.75-2.95-1.6-4.11s-2.33-1.96-3.74-1.66"/><path fill="#000" d="M147.56 90.23a2.96 2.96 0 1 0 0-5.92 2.96 2.96 0 0 0 0 5.92m37.64 0a2.96 2.96 0 1 0 0-5.92 2.96 2.96 0 0 0 0 5.92m-17.88-36.26c7.947 0 14.39-6.443 14.39-14.39s-6.443-14.39-14.39-14.39-14.39 6.443-14.39 14.39 6.443 14.39 14.39 14.39"/><path fill="#000" d="M125.89 82c-6.31-17 7.01-35.51 22.93-41.58 16.62-6.92 37.43-3.24 49.9 9.97 7.9 8.12 12.33 20.96 8.16 31.61-7.14-18.13-22.84-26.53-40.49-26.9-17.65.33-33.39 8.76-40.49 26.9z"/><path fill="#000" d="M146.18 55.16c6.042 0 10.94-4.898 10.94-10.94s-4.898-10.94-10.94-10.94-10.94 4.898-10.94 10.94 4.898 10.94 10.94 10.94"/><path fill="#000" d="M133.54 61.54a6.97 6.97 0 1 0 0-13.94 6.97 6.97 0 0 0 0 13.94m65.68 0a6.97 6.97 0 1 0 0-13.94 6.97 6.97 0 0 0 0 13.94"/><path fill="#000" d="M189.35 55.16c6.042 0 10.94-4.898 10.94-10.94s-4.898-10.94-10.94-10.94-10.94 4.898-10.94 10.94 4.898 10.94 10.94 10.94"/><path fill="#000" d="M167.32 68.08c7.947 0 14.39-6.443 14.39-14.39s-6.443-14.39-14.39-14.39-14.39 6.443-14.39 14.39 6.443 14.39 14.39 14.39"/><path fill="#000" d="M146.18 69.26c6.042 0 10.94-4.898 10.94-10.94s-4.898-10.94-10.94-10.94-10.94 4.898-10.94 10.94 4.898 10.94 10.94 10.94m43.17 0c6.042 0 10.94-4.898 10.94-10.94s-4.898-10.94-10.94-10.94-10.94 4.898-10.94 10.94 4.898 10.94 10.94 10.94"/><path stroke="#fff" stroke-linejoin="round" stroke-width="2.29" d="M152.71 76.17c-5.1-2.12-19.41 2.78-19.41 2.78s1.75 11.48 11.74 15.7c5.09 2.15 10.95-.3 13.07-5.41 2.12-5.1-.3-10.95-5.41-13.07zm27.34 0c5.1-2.12 19.41 2.78 19.41 2.78s-1.75 11.48-11.74 15.7c-5.09 2.15-10.95-.3-13.07-5.41-2.12-5.1.3-10.95 5.41-13.07z"/><path stroke="#fff" stroke-linejoin="round" stroke-width="2.29" d="M174.13 85.34c-2.38-2.48-13.12-2.48-15.5 0"/><path fill="#edecec" stroke="#edecec" stroke-miterlimit="10" stroke-width=".08" d="M88.98 183.09c-2.73 1.71-6.37 1.97-8.27-1.07-2.46-3.93 2-8.6-1.4-12.51-1.74-1.99-4.1-2.68-6.68-2.31-5.15.75-10.21 5.25-12.43 9.82-.07.15-.17.32-.34.35-1.92.31-6.95-2.09-7.86-3.86-.87-1.71.5-3.77 1.45-5.1 6.24-8.75 17.95-17.05 29.07-13.36 8.93 2.96 14.09 12.63 11.07 21.75-.83 2.52-2.36 4.88-4.61 6.28z"/><path fill="#878787" d="M76.98 181.34c4.9-1.34 8.38-6.38 8.35-11.46s-3.28-9.89-7.79-12.24c-3.25-1.7-7.31-2.17-10.58-.5-5.53 2.83-5.45 9.8-1.13 13.59 2 1.75 3.72 2.94 4.89 5.47 1.42 3.08 1.9 6.34 6.25 5.15z"/><path fill="#c3c3c3" d="M81.19 160.39c-.29 1.18-1.44 1.97-2.41 2.71-1.15.87-2.52 1.59-3.97 1.51-3.46-.18-5.85-2.17-9.37-.56-4.73 2.16-8.33 7.9-9.18 12.91-.03.17-.07.36-.23.43-1.75.83-5.01.83-6.2-.87-2.14-3.05-.63-9.55.28-12.88 2.09-7.62 8.85-14.95 17.13-15.11 5.52-.11 16.23 2.55 13.94 11.87z"/><path fill="#c3c3c3" d="M82.52 155.05c8.93 2.96 14.09 12.63 11.07 21.75-.83 2.52-2.36 4.88-4.61 6.28-2.73 1.71-6.37 1.97-8.27-1.07-2.46-3.93 2-8.6-1.4-12.51-1.74-1.99-4.1-2.68-6.68-2.31-3.71.54-7.07 2.86-9.54 5.6-1.22 1.35-1.91 2.96-2.99 4.38-1.15 1.52-2.77.5-4.17-.31-.56-.32-1.16-.7-1.37-1.31-.08-.25-.09-.52-.09-.79-.03-4.06.79-8.2 2.89-11.72 1.07-1.78 2.45-3.37 4.08-4.65 1.51-1.19 3.02-2.6 4.89-3.12 2.66-.75 5.37-.7 8.06-1.08s5.58 0 8.13.85z"/><path stroke="#fff" stroke-linecap="round" stroke-linejoin="round" stroke-width=".64" d="M72.95 154.31c-7.79-1.51-15.14 5.09-17.5 12.04-.84 2.49-1.28 5.1-1.45 7.72-.13 1.96 1.23 3.15 3 3.6 2.85.73 3.7-1.28 5.2-3.38 1.51-2.12 3.32-4.08 5.57-5.39 2.94-1.7 8.27-3.54 11.53.61"/><path stroke="#fff" stroke-linecap="round" stroke-linejoin="round" stroke-width=".64" d="M77.8 150.66c-7.07-2.88-14.22-3.76-20.45 1.48-4.68 3.93-7.87 9.98-8.33 16.09-.19 2.5-.84 7.35 1.47 9.07 1.21.9 3.39.75 4.77.63"/><path stroke="#fff" stroke-linecap="round" stroke-linejoin="round" stroke-width=".64" d="M54.16 172.4c.78-1.84 2.16-3.32 4.3-2.27 2.87 1.41 1.49 4.95 1.24 7.35m-10.63-5.36c1.27-2.73 4.45-2.31 5.11.63"/><path fill="#c3c3c3" d="M87.54 187.47c-1.54.98-3.2 1.86-4.72 2.15-3.5.66-7.26-.13-10.62-1.1-5.2-1.5-10.91-3.3-16.37-3.14-.43.01-.98-.04-1.12-.45-.38-1.11 1.35-4.78 2.14-5.69 1.36-1.57 3.85-2.08 5.8-2.26 4.34-.41 8.59 1.14 12.67-1.14 3.19-1.78 3.62-4.87 6.51-7.03 5.89-4.4 14.12.32 14 7.34-.06 3.47-2.69 7.36-5.43 9.36-.83.61-1.81 1.32-2.85 1.98z"/><path fill="#c3c3c3" d="M80.16 177.06c.25-7.18-.51-14.64-1.78-21.72-.21-1.2-.81-2.31-1.16-3.49-.91-3.08-1.8-6.19-2.08-9.41-.65-7.6 1.82-9.56 7.67-8.97.7.07 1.45.23 1.91.77.37.44.47 1.05.56 1.62.49 3.11.78 6.52 2.03 9.4 1.37 3.15 3.78 7.77 5.52 10.72 2.32 3.94 3.69 6.94 4.09 11.48.26 2.95.24 7.38-1.1 10.02-1.53 3.01-4.24 4.78-7.67 5.33-2.93.47-6.72-.05-7.79-3.29-.26-.79-.23-1.63-.2-2.46"/><path stroke="#fff" stroke-linecap="round" stroke-linejoin="round" stroke-width=".74" d="M54.74 184.9c3.68 1.37 8.15.86 12.14 2.07 3.31 1.01 7.05 2.79 10.57 2.97 7.43.38 9.72-1.87 14.24-5.48 4.48-3.59 5.82-10.58 5.64-16.15-.11-3.63-1.41-6.99-3.24-10.12-2.06-3.5-3.77-6.96-5.4-10.7-1.48-3.41-2.82-7.5-3.4-11.18-.11-.68-.22-1.39-.66-1.92-.54-.64-1.43-.83-2.26-.92-6.93-.7-7.69 3.57-7.12 9.81.35 3.89 1.53 6.32 2.53 10.09s4.59 13.08 2.03 16.8"/><path stroke="#fff" stroke-linecap="round" stroke-linejoin="round" stroke-width=".74" d="M64.05 185.9c.25-1.1-.3-2.24-1.09-3.05-2.48-2.54-8.03-2.29-8.29 1.92"/><path stroke="#fff" stroke-linecap="round" stroke-linejoin="round" stroke-width=".62" d="M81.13 133.84c-.25 2.19-.71 5.74 1.8 6.96.84.41 1.9.34 2.68-.17"/><path fill="#fff" d="M163.93 263.91c-19.59-9.69-80.73 5.38-80.89 5.65-2.13 3.35-9.59 13.31-12.48 17.27-.94 1.28.4 3.13 1.16 3.08l88.25-6.18c2.67-.16 3.97-19.81 3.97-19.81z"/><path fill="#fff" d="M159.14 279.67h11.06c1.13 0 2.05.92 2.05 2.05 0 3.91-3.18 7.09-7.09 7.09h-.99c-3.91 0-7.09-3.18-7.09-7.09 0-1.13.92-2.05 2.05-2.05z"/><path fill="#00544f" d="M163.79 261.97c.27-21.86-80.73 5.38-80.89 5.65-2.13 3.35-9.73 14.7-12.21 18.93-.38.66.12 1.47.88 1.42l88.25-6.18c2.67-.16 3.96-19.12 3.97-19.81z"/><path fill="#00544f" d="M163.71 264.38c2.78-20.09-75.35 0-75.53.22-2.22 2.82-10.11 12.36-12.72 15.94-.4.56.02 1.31.74 1.31l53.3-1.33c.66-.02 1.31 0 1.97.03l27.66 1.44c2.52.03 4.4-16.34 4.57-17.61z"/><path fill="#1e1e1e" d="M160.63 280.49h8.07c.83 0 1.5.67 1.5 1.5 0 2.85-2.32 5.17-5.17 5.17h-.72c-2.85 0-5.17-2.32-5.17-5.17 0-.83.67-1.5 1.5-1.5z"/><path fill="#cee098" d="M164.59 281.85c-9.32-.13-19.22-3.24-30.11-3.24-15.14 0-32.86 3.24-59.59 3.24 1.17-4.46 2.46-4.81 3.43-6.69 15.24-1.99 42.55-6.38 56.55-5.48 10.54.68 28.07-1.61 29.56 8.72.16 1.09.36 3.45.17 3.44z"/><path fill="#e1eab9" d="M164.58 279.99c-9.59-4.02-19.22-5.89-29.71-6.56-14.01-.9-38.79 5.81-59.46 5.39 3.15-4.31 18.37-27.15 23.5-35.39.48-.78 11.32.14 19.41-2.19 6.1-1.76 12.59-1.8 18.94-1.99 7.93-.23 18.32-.06 25.3 4.1.92.55 1.91 1.42 1.72 2.48l.3 34.17"/><path stroke="#fff" stroke-miterlimit="10" stroke-width=".16" d="M164.58 279.99c-9.59-4.02-19.22-5.89-29.71-6.56-14.01-.9-38.79 5.81-59.46 5.39 3.15-4.31 18.37-27.15 23.5-35.39.48-.78 11.32.14 19.41-2.19 6.1-1.76 12.59-1.8 18.94-1.99 7.93-.23 18.32-.06 25.3 4.1.92.55 1.91 1.42 1.72 2.48l.3 34.17"/><path fill="#ebf2d4" d="M164.58 278.2c-9.59-4.02-19.22-5.89-29.71-6.56-14.01-.9-38.3 5.81-58.97 5.39 3.15-4.31 5.71-6.58 7.91-10.46 4.8-8.45 9.97-16.69 15.1-24.94.48-.78 11.32.14 19.41-2.19 6.1-1.76 12.59-1.8 18.94-1.99 7.93-.23 18.32-.06 25.3 4.1.92.55 1.91 1.42 1.72 2.48z"/><path fill="#fff" d="M164.58 278.2c-9.59-4.02-19.22-7.84-29.71-8.51-8.27-.53-20.73-.1-34.01 2.86-8.63 1.92-18.55 1.71-24.8 2.53 3.13-4.46 5.06-6.58 7.26-10.46 4.8-8.45 10.46-16.69 15.59-24.94.48-.78 11.32.14 19.41-2.19 6.1-1.76 12.59-1.8 18.94-1.99 7.93-.23 18.32-.06 25.3 4.1.92.55 2.24 1.91 2.05 2.96l-.03 35.63"/><path stroke="#afd3d0" stroke-linecap="round" stroke-linejoin="round" stroke-width=".81" d="M126.27 263.94c7.92-.27 14.73 1.4 16.86 2 3.54 1 7.09 2 10.63 2.99m-65.81-1.68c4.06.39 8.12-.04 12.15-.59 1.49-.2 10.69-2.26 20.76-2.99m-9.04-11.36c6.27-1.13 17.18-2.8 26.62-2.19 3.88.25 7.68 1.33 11.45 2.39 3.54 1 7.09 2 10.63 2.99m-65.8-1.68c3.48.33 6.97.07 10.43-.37"/><path stroke="#afd3d0" stroke-linecap="round" stroke-linejoin="round" stroke-width=".81" d="M97.9 249.14c4.06.39 8.12-.04 12.15-.59 2.02-.28 18.25-3.97 31.58-3.1 3.88.25 7.68 1.33 11.45 2.39 3.54 1 7.09 2 10.63 2.99"/><path stroke="#afd3d0" stroke-linecap="round" stroke-linejoin="round" stroke-width=".81" d="M109.09 244.15c.88-.1 1.76-.22 2.64-.34 2.02-.28 18.25-3.97 31.58-3.1 3.88.25 7.68 1.33 11.45 2.39 3.54 1 7.09 2 10.63 2.99"/><path fill="#afd3d0" d="M157.09 258.99c-3.54-1-5.01-1.41-8.55-2.41-3.77-1.06-7.56-2.14-11.45-2.39-13.33-.87-29.56 2.82-31.58 3.1-4.02.55-8.09.98-12.15.59l-2.66 4.36c4.06.39 8.12-.04 12.15-.59 2.02-.28 18.25-3.97 31.58-3.1 3.88.25 7.68 1.33 11.45 2.39 3.54 1 7.09 2 10.63 2.99l.58-4.95"/><path stroke="#afd3d0" stroke-linecap="round" stroke-linejoin="round" stroke-width=".81" d="M157.09 258.99c-3.54-1-5.01-1.41-8.55-2.41-3.77-1.06-7.56-2.14-11.45-2.39-13.33-.87-29.56 2.82-31.58 3.1-4.02.55-8.09.98-12.15.59l-2.66 4.36c4.06.39 8.12-.04 12.15-.59 2.02-.28 18.25-3.97 31.58-3.1 3.88.25 7.68 1.33 11.45 2.39 3.54 1 7.09 2 10.63 2.99l.58-4.95"/><path fill="#fff" d="M175.13 260.3c19.59-9.69 72.5 9 72.67 9.26 2.13 3.35 9.59 13.31 12.48 17.27.94 1.28-.4 3.13-1.16 3.08l-88.25-6.18c-2.67-.16-1.3-20.68 4.26-23.43"/><path fill="#00544f" d="M173.63 258.99c19.59-9.69 73.65 8.36 73.81 8.62 2.13 3.35 10.22 14.7 12.7 18.93a.944.944 0 0 1-.88 1.42l-88.25-6.18c-2.67-.16-2.94-20.04 2.62-22.79"/><path fill="#00544f" d="M164.33 264.62c-2.78-20.09 76.23-.24 76.4-.02 2.22 2.82 10.11 12.36 12.72 15.94.4.56-.02 1.31-.74 1.31l-53.3-1.33c-.66-.02-1.31 0-1.97.03l-27.66 1.44c-2.52.03-5.27-16.09-5.45-17.36z"/><path fill="#cee098" d="M164.34 281.85c9.32-.13 19.22-3.24 30.11-3.24 15.14 0 32.86 3.24 59.59 3.24-1.17-4.46-2.46-4.81-3.43-6.69-15.24-1.99-42.55-6.38-56.55-5.48-10.54.68-28.07-1.61-29.56 8.72-.16 1.09-.36 3.45-.17 3.44z"/><path fill="#e1eab9" d="M164.34 279.99c9.59-4.02 19.22-5.89 29.71-6.56 14.01-.9 38.79 5.81 59.46 5.39-3.15-4.31-18.37-27.15-23.5-35.39-.48-.78-11.32.14-19.41-2.19-6.1-1.76-12.59-1.8-18.94-1.99-7.93-.23-18.32-.06-25.3 4.1-.92.55-1.91 1.42-1.72 2.48l-.3 34.17"/><path stroke="#fff" stroke-miterlimit="10" stroke-width=".16" d="M164.34 279.99c9.59-4.02 19.22-5.89 29.71-6.56 14.01-.9 38.79 5.81 59.46 5.39-3.15-4.31-18.37-27.15-23.5-35.39-.48-.78-11.32.14-19.41-2.19-6.1-1.76-12.59-1.8-18.94-1.99-7.93-.23-18.32-.06-25.3 4.1-.92.55-1.91 1.42-1.72 2.48l-.3 34.17"/><path fill="#ebf2d4" d="M164.34 278.2c9.59-4.02 19.22-5.89 29.71-6.56 14.01-.9 38.3 5.81 58.97 5.39-3.15-4.31-5.71-6.58-7.91-10.46-4.8-8.45-9.97-16.69-15.1-24.94-.48-.78-11.32.14-19.41-2.19-6.1-1.76-12.59-1.8-18.94-1.99-7.93-.23-18.32-.06-25.3 4.1-.92.55-1.91 1.42-1.72 2.48z"/><path fill="#fff" d="M164.34 278.2c9.59-4.02 19.22-7.84 29.71-8.51 8.27-.53 20.73-.1 34.01 2.86 8.63 1.92 18.55 1.71 24.8 2.53-3.13-4.46-5.06-6.58-7.26-10.46-4.8-8.45-10.46-16.69-15.59-24.94-.48-.78-11.32.14-19.41-2.19-6.1-1.76-12.59-1.8-18.94-1.99-7.93-.23-18.32-.06-25.3 4.1-.92.55-2.24 1.42-2.05 2.48z"/><path stroke="#afd3d0" stroke-linecap="round" stroke-linejoin="round" stroke-width=".65" d="M202.65 263.94c-7.92-.27-14.73 1.4-16.86 2-3.54 1-10 2.63-13.55 3.63"/><path stroke="#afd3d0" stroke-linecap="round" stroke-linejoin="round" stroke-width=".81" d="M240.97 267.25c-4.06.39-8.12-.04-12.15-.59-1.49-.2-10.69-2.26-20.76-2.99m30.16-1.42c-4.06.39-8.12-.04-12.15-.59-2.02-.28-18.25-3.97-31.58-3.1-3.88.25-7.68 1.33-11.45 2.39-3.54 1-7.09 2-10.63 2.99m44.69-11.63c-6.27-1.13-17.18-2.8-26.62-2.19-3.88.25-7.68 1.33-11.45 2.39-3.54 1-4.41 1.49-7.95 2.49m63.12-1.18c-3.48.33-6.97.07-10.43-.37"/><path fill="#afd3d0" d="m228.06 250.03-2.34-5.15c-2.27-.31-23.7-4.49-38.69-3.51-4.37.29-11.73 2.38-15.97 3.58v6.01c4.24-1.2 13.49-3.94 17.86-4.23 14.99-.99 36.86 2.98 39.13 3.3"/><path stroke="#afd3d0" stroke-linecap="round" stroke-linejoin="round" stroke-width=".92" d="m228.06 250.03-2.34-5.15c-2.27-.31-23.7-4.49-38.69-3.51-4.37.29-11.73 2.38-15.97 3.58v6.01c4.24-1.2 13.49-3.94 17.86-4.23 14.99-.99 36.86 2.98 39.13 3.3"/><path fill="#acca53" d="m197.98 270.85 5.02-.65c1.43-.46 3.02.18 3.64 1.56.16.35.25.73.25 1.11v43.95l-4.46-3.44-4.46 3.44v-45.98z"/><path fill="#acca53" d="M194.43 270.18h.97c1.37 0 2.59 1.71 2.59 3.08v7.87l5.36.26.7-11.44h-9.38c-.13 0-.23.1-.23.23z"/><path fill="#006d68" d="M203.34 309.28c7.649 0 13.85-6.201 13.85-13.85s-6.201-13.85-13.85-13.85-13.85 6.201-13.85 13.85 6.201 13.85 13.85 13.85"/><path fill="#003834" d="M203.34 283.79c6.42 0 11.64 5.22 11.64 11.64s-5.22 11.64-11.64 11.64-11.64-5.22-11.64-11.64 5.22-11.64 11.64-11.64m0-.48c-6.7 0-12.13 5.43-12.13 12.13s5.43 12.13 12.13 12.13 12.13-5.43 12.13-12.13-5.43-12.13-12.13-12.13"/><path fill="#fff" d="M208.85 296.21c.48-.08.86-.47.91-.97.06-.6-.38-1.14-.98-1.21-.6-.06-1.14.38-1.21.98-.04.35.1.68.34.91a4.98 4.98 0 0 1-4.08 3.04v-4.67c1.25-.15 2.36-.87 3.03-1.93a1.097 1.097 0 1 0-1.11-1.26c-.05.31.04.61.22.84-.49.72-1.27 1.23-2.14 1.37v-4.57a1.097 1.097 0 0 0-.49-2.08 1.097 1.097 0 0 0-.49 2.08v4.57c-.87-.14-1.65-.64-2.14-1.37a1.097 1.097 0 1 0-1.95-.51c.08.54.54.92 1.06.93a4.17 4.17 0 0 0 3.03 1.93v4.67a4.97 4.97 0 0 1-4.09-3.04c.24-.23.38-.55.34-.91-.06-.6-.6-1.04-1.21-.98s-1.04.6-.98 1.21c.05.5.44.89.91.97a5.95 5.95 0 0 0 5.02 3.73v4.75h.98v-4.75c2.25-.19 4.2-1.65 5.02-3.73z"/><path stroke="#afd3d0" stroke-linecap="round" stroke-linejoin="round" stroke-width=".81" d="m164.26 241.27.08 36.93"/><path fill="#c3c3c3" d="M196.2 242.76c-.03 2.18-.17 5.39-2.76 5.31-1.17-.04-2.34.19-3.54.11-2.44-.16-5.32-.14-5.27-3.38.06-3.84.37-7.66.39-11.5 0-1.11-.75-9.5-.46-9.61-1.76.68-3.84-.3-4.92-1.85-1.9-2.72-.96-6.59-.44-9.62.38-2.19.76-4.4 1.53-6.48 1.69-4.6 5.26-8.43 9.61-10.69 3.99-2.07 9.6-2.86 14.19-2.56 6.68.43 9.65 2.94 13.18 6.72.73.78 1.35 1.63 1.83 2.55.94 1.79 1.12 3.93 1.83 5.81 1.41 3.73 1.97 7.68 2.52 11.6.4 2.88 1.36 7.74-2.18 8.85-2.61.82-4.99.7-7.66.56-.86-.05-1.91-.21-2.7-.52s-.36-1.09-.44-1.66c-.03-.18-.65-1.37-.75-1.07-.49 1.41-1.25 4.5-2.83 4.99-3.61 1.15-6.52.16-10.02.1-.92 3.75-.99 7.63-1.11 11.46 0 .26-.01.56-.02.87z"/><path stroke="#fff" stroke-linecap="round" stroke-linejoin="round" stroke-width=".74" d="M185.3 246.03c-.34-2.7 1.54-6.42 4.54-6.76 1.65-.19 3.02.57 3.9 1.95.96 1.51 1.42 3.85 1.46 5.59m-10.74-22.99c-3.11.94-5.42-2.47-5.9-5.1-.34-1.9-.1-3.85.14-5.77.56-4.44 1.67-8.95 4.67-12.38 5.17-5.93 13.43-8.77 21.17-8.1 2.75.24 5.47.93 7.92 2.2 2.18 1.13 4.13 2.75 5.58 4.74 1.59 2.17 2.42 4.6 3.18 7.14 1.16 3.91 2.39 7.86 2.92 11.9.41 3.09 1.22 7.58-1.84 9.63-1.39.93-3.22.77-4.88.58-1.71-.2-3.42-.11-5.07-.28-.56-.06-1.14-.35-1.39-.85-.3-.62-.13-1.51-.7-1.9-.07-.05-.16-.09-.25-.07-.16.03-.24.21-.28.37-.15.55-.23 1.12-.4 1.66-.53 1.65-2.04 3-3.77 3.15-.46.04-.92 0-1.38-.05-1.31-.12-5.62 0-6.86-.26"/><path stroke="#fff" stroke-linecap="round" stroke-linejoin="round" stroke-width=".74" d="M198.79 218.39c1.04-1.53 3.35-2.72 5.19-2.81 2.17-.1 3.04 1.24 4.69 2.14 1.51.83 2.38-.21 3.52-1.07 3.7-2.77 5.5-1.69 8.89.7m-23.82 8.72c-.31 4.2-.54 8.4-.8 12.6-.12 1.91-.38 3.86-.39 5.78 0 1.5-.31 3.47-2.09 3.52-1.32.03-2.64.19-3.96.21-2.33.03-5.42-.42-5.38-3.39.09-5.81.41-11.55.23-17.36v-18.21"/><path fill="#cee098" d="M80.78 128.95v-26.14l-22.2-14.18.11 26.15z"/><path fill="#849e2a" d="M80.78 128.95v-26.14l22.09-14.18v26.15z"/><path fill="#fff" d="M80.78 129.54c-.1 0-.2-.02-.28-.07-.19-.1-.31-.3-.31-.52v-26.14c0-.2.1-.39.27-.5l22.09-14.17c.18-.12.41-.13.6-.02.19.1.31.3.31.52v26.14c0 .2-.1.39-.27.5L81.1 129.45a.6.6 0 0 1-.32.09m.59-26.41v24.74l20.91-13.41V89.72z"/><path fill="#acca53" d="m102.87 88.63-22.09 14.18-22.09-14.18 22.09-14.17z"/><path fill="#fff" d="M80.78 103.4a.6.6 0 0 1-.32-.09L58.37 89.14a.596.596 0 0 1 0-1l22.09-14.17c.2-.13.44-.13.64 0l22.09 14.17a.596.596 0 0 1 0 1L81.1 103.31a.6.6 0 0 1-.32.09M59.79 88.63l20.99 13.47 21-13.47-21-13.47z"/><path fill="#fff" d="M69.62 96.31a.59.59 0 0 1-.32-1.09l22.09-14.17c.27-.18.64-.1.82.18.18.27.1.64-.18.82L69.94 96.22a.6.6 0 0 1-.32.09"/><path fill="#003834" d="M80.78 116.64a.59.59 0 0 1-.32-1.09l21.69-13.92c.27-.18.64-.1.82.18.18.27.1.64-.18.82L81.1 116.55a.6.6 0 0 1-.32.09"/><path fill="#fff" d="M92.12 96.12c-.11 0-.21-.03-.31-.09l-22.44-13.8a.58.58 0 0 1-.19-.81c.17-.28.53-.36.81-.19l22.44 13.8c.28.17.37.54.19.81-.11.18-.31.28-.5.28"/><path fill="#fff" d="M80.78 103.4a.6.6 0 0 1-.32-.09L58.37 89.14a.596.596 0 0 1 0-1l22.09-14.17c.2-.13.44-.13.64 0l22.09 14.17a.596.596 0 0 1 0 1L81.1 103.31a.6.6 0 0 1-.32.09M59.79 88.63l20.99 13.47 21-13.47-21-13.47z"/><path fill="#003834" d="M92.58 121.92c-.33 0-.59-.26-.59-.59V95.38c0-.33.26-.59.59-.59s.59.26.59.59v25.95c0 .33-.26.59-.59.59"/><path fill="#fff" d="M80.78 129.54c-.1 0-.2-.02-.28-.07-.19-.1-.31-.3-.31-.52v-26.14c0-.2.1-.39.27-.5l22.09-14.17c.18-.12.41-.13.6-.02.19.1.31.3.31.52v26.14c0 .2-.1.39-.27.5L81.1 129.45a.6.6 0 0 1-.32.09m.59-26.41v24.74l20.91-13.41V89.72z"/><path fill="#849e2a" d="M69.62 121.92c-.33 0-.59-.26-.59-.59V95.72c0-.33.26-.59.59-.59s.59.26.59.59v25.61c0 .33-.26.59-.59.59"/><path fill="#849e2a" d="M80.78 116.47a.6.6 0 0 1-.32-.09l-21.8-13.92a.587.587 0 0 1-.18-.82c.18-.27.54-.36.82-.18l21.8 13.92c.28.18.36.54.18.82-.11.18-.3.27-.5.27"/><path fill="#fff" d="M80.78 129.54a.6.6 0 0 1-.32-.09l-22.09-14.17a.58.58 0 0 1-.27-.5l-.12-26.14c0-.22.12-.42.31-.52s.42-.1.6.02l22.21 14.17c.17.11.27.3.27.5v26.14a.586.586 0 0 1-.59.59m-21.5-15.09 20.91 13.42v-24.74L59.17 89.71z"/></svg>