<svg width="24" height="25" viewBox="0 0 24 25" fill="none" xmlns="http://www.w3.org/2000/svg">
    <path
        d="M4 20.1255V5.12549C4 4.46245 4.26339 3.82656 4.73223 3.35772C5.20107 2.88888 5.83696 2.62549 6.5 2.62549H19C19.2652 2.62549 19.5196 2.73085 19.7071 2.91838C19.8946 3.10592 20 3.36027 20 3.62549V21.6255C20 21.8907 19.8946 22.1451 19.7071 22.3326C19.5196 22.5201 19.2652 22.6255 19 22.6255H6.5C5.83696 22.6255 5.20107 22.3621 4.73223 21.8933C4.26339 21.4244 4 20.7885 4 20.1255ZM4 20.1255C4 19.4624 4.26339 18.8266 4.73223 18.3577C5.20107 17.8889 5.83696 17.6255 6.5 17.6255H20"
        stroke="#006D69" stroke-width="2" stroke-linecap="round" stroke-linejoin="round" />
</svg>