<svg xmlns="http://www.w3.org/2000/svg" viewBox="0 0 62 62"><path fill="#aecc53" d="M41.029 2.012a23.8 23.8 0 0 0-8.321-1.83c-3.797.02-7.51 1.56-11.016 3.172-6.449 2.943-11.504 7.551-16.83 12.242C.587 19.424-.12 27.256.015 32.593c0 .645 0 1.3.062 1.945a18.8 18.8 0 0 0 1.04 5.835C2.2 43.348 4.79 45.865 6.756 48.31a30 30 0 0 0 7.063 6.76c3.235 2.154 7.864 5.836 11.848 6.169 5.034.427 8.872.635 13.709-.874 5.139-1.602 10.776-3.942 14.5-8.04 1.945-2.153 3.214-5.201 4.66-7.729a24.47 24.47 0 0 0 3.256-15.748c-.76-5.866-3.058-10.401-5.492-15.602-3.142-6.751-8.665-8.748-15.27-11.234" opacity=".2"/></svg>