<svg xmlns="http://www.w3.org/2000/svg" width="32" height="32" fill="none" viewBox="0 0 32 32"><path fill="#006d68" d="M31.86 17.08c0-6.57-5.32-11.89-11.89-11.89S8.08 10.51 8.08 17.08s5.32 11.89 11.89 11.89c.46 0 .92-.03 1.37-.08a4.954 4.954 0 0 0 5.86 1.77c.22-.09.44-.19.64-.3a4.93 4.93 0 0 1-1.59-2.12c-.12-.3-.2-.6-.26-.9 3.51-2.07 5.87-5.88 5.87-10.25z"/><path fill="#a5c352" d="M.14 12.87C.14 6.31 5.46 1 12.01 1c6.56 0 11.87 5.32 11.87 11.87 0 6.56-5.32 11.87-11.87 11.87-.46 0-.92-.03-1.36-.08a4.95 4.95 0 0 1-5.85 1.77c-.22-.09-.44-.19-.64-.3.69-.53 1.25-1.25 1.59-2.12.12-.3.2-.6.26-.9C2.5 21.04.14 17.23.14 12.87"/></svg>