<svg xmlns="http://www.w3.org/2000/svg" width="26" height="26" fill="none" viewBox="0 0 26 26"><path stroke="#006d69" stroke-linecap="round" stroke-linejoin="round" stroke-width="2" d="M6.783 9.487H5.217a2.609 2.609 0 0 1 0-5.218h1.566m12.521 5.218h1.566a2.609 2.609 0 0 0 0-5.218h-1.566M4.696 23.052H21.39m-10.433-7.659v2.442c0 .573-.49 1.022-1.013 1.262-1.23.564-2.118 2.118-2.118 3.955m7.304-7.659v2.442c0 .573.49 1.022 1.012 1.262 1.232.564 2.119 2.118 2.119 3.955"/><path stroke="#006d69" stroke-linecap="round" stroke-linejoin="round" stroke-width="2" d="M19.305 2.182H6.783v7.305a6.26 6.26 0 1 0 12.522 0z"/></svg>