<svg xmlns="http://www.w3.org/2000/svg" width="24" height="25" fill="none" viewBox="0 0 24 25"><path stroke="#006d69" stroke-linecap="round" stroke-linejoin="round" stroke-width="2" d="M15 22.626v-4a4.8 4.8 0 0 0-1-3.5c3 0 6-2 6-5.5.08-1.25-.27-2.48-1-3.5.28-1.15.28-2.35 0-3.5 0 0-1 0-3 1.5-2.64-.5-5.36-.5-8 0-2-1.5-3-1.5-3-1.5-.3 1.15-.3 2.35 0 3.5a5.4 5.4 0 0 0-1 3.5c0 3.5 3 5.5 6 5.5-.39.49-.68 1.05-.85 1.65s-.22 1.23-.15 1.85v4"/><path stroke="#006d69" stroke-linecap="round" stroke-linejoin="round" stroke-width="2" d="M9 18.626c-4.51 2-5-2-7-2"/></svg>