<svg xmlns="http://www.w3.org/2000/svg" width="478" height="413" fill="none" viewBox="0 0 478 413"><g clip-path="url(#a)"><path fill="#ebf2d4" d="M304.15 12.32C286.14 5.57 267.35-.08 248.11 0c-25.92.11-50.56 10.58-74.13 21.34-43.41 19.81-77.64 50.86-113.22 82.39-28.8 25.53-33.53 78.45-32.67 114.41.1 4.34.21 8.7.41 13.05.61 13.41 2.04 26.77 6.74 39.27 7.53 20.04 25.01 36.96 38.21 53.45 14.29 17.86 28.29 32.75 47.53 45.5 21.78 14.43 52.92 39.22 79.79 41.5 33.82 2.86 59.71 4.24 92.22-5.89 34.62-10.79 72.56-26.54 97.48-54.14 13.06-14.47 21.59-35.13 31.32-51.96 18.97-32.83 26.83-68.23 21.95-105.97-5.11-39.5-20.63-69.78-37-105.09-21.02-45.34-57.96-58.82-102.58-75.54z"/></g><circle cx="347.26" cy="143.87" r=".825" fill="#aecc53"/><path stroke="#aecc53" stroke-linecap="round" stroke-linejoin="round" stroke-width="1.65" d="m353.09 143.89 37.88.08"/><circle cx="393.88" cy="143.97" r=".825" fill="#aecc53"/><path stroke="#aecc53" stroke-linecap="round" stroke-linejoin="round" stroke-width=".83" d="m297.3 143.7 41.21.08 8.75.09"/><path fill="#aecc53" d="M297.45 146.8c-1.71 0-3.1-1.4-3.1-3.11s1.4-3.1 3.11-3.1 3.1 1.4 3.1 3.11-1.4 3.1-3.11 3.1"/><path stroke="#fff" stroke-linecap="round" stroke-linejoin="round" stroke-width=".64" d="M412.72 117.27v-1.43c0-1.15.93-2.08 2.08-2.08h4.75c1.15 0 2.08.93 2.08 2.08m17.01 0c0-1.15.93-2.08 2.08-2.08h4.75c1.15 0 2.08.93 2.08 2.08v1.43m-.13.36-.96 2.63c-1.09 2.51-2.63 4.08-5.07 4.08h-22.52c-2.44 0-3.98-1.89-5.07-4.08l-1.08-2.62"/><path stroke="#6fafac" stroke-miterlimit="10" stroke-width=".64" d="m461.06 148.48-4.34-19.26c-1.55-7.57-8.2-13-15.93-13h-21.34c-7.72 0-14.38 5.44-15.93 13l-4.34 19.26a4.88 4.88 0 0 0 3.43 5.56c.27.08.54.13.82.14h.77c4.43-.08 7.84-2.82 8.93-8.85a3.12 3.12 0 0 1 3.06-2.54h27.86c1.51 0 2.8 1.08 3.07 2.56 1.09 6.01 4.5 8.75 8.92 8.82h.77c.28 0 .55-.06.82-.14 2.39-.7 3.87-3.1 3.43-5.56z"/><path stroke="#6fafac" stroke-miterlimit="10" stroke-width=".32" d="m461.06 148.48-4.34-19.26c-1.55-7.57-8.2-13-15.93-13h-21.34c-7.72 0-14.38 5.44-15.93 13l-4.34 19.26a4.88 4.88 0 0 0 3.43 5.56l.36.11c.24.03.51.04.8.05 4.63.1 12.3-2.62 13.43-8.82a3.12 3.12 0 0 1 3.07-2.56h19.7c1.51 0 2.8 1.08 3.07 2.56 1.13 6.2 8.8 8.92 13.43 8.82.29 0 .55-.02.8-.05l.36-.11c2.39-.7 3.87-3.1 3.43-5.56Z"/><path fill="#6fafac" d="M411.5 133.58a4.7 4.7 0 1 0 0-9.4 4.7 4.7 0 0 0 0 9.4"/><path fill="#003834" d="M411.5 132.18a3.3 3.3 0 1 0 .001-6.599 3.3 3.3 0 0 0-.001 6.599"/><path fill="#6fafac" d="M421.73 138.66a3.92 3.92 0 1 0 0-7.84 3.92 3.92 0 0 0 0 7.84m27.03-5.08a4.7 4.7 0 1 0 0-9.4 4.7 4.7 0 0 0 0 9.4m-10.23 5.08a3.92 3.92 0 1 0 0-7.84 3.92 3.92 0 0 0 0 7.84"/><path fill="#003834" d="M438.53 137.15a2.41 2.41 0 1 0 0-4.82 2.41 2.41 0 0 0 0 4.82m-14.36-3.32h-1.53v-1.53h-1.82v1.53h-1.53v1.82h1.53v1.53h1.82v-1.53h1.53zm24.59-6.01a1.19 1.19 0 1 0 0-2.38 1.19 1.19 0 0 0 0 2.38m0 4.5a1.19 1.19 0 1 0 0-2.38 1.19 1.19 0 0 0 0 2.38m2.25-2.25a1.19 1.19 0 1 0 0-2.38 1.19 1.19 0 0 0 0 2.38m-4.51 0a1.19 1.19 0 1 0 0-2.38 1.19 1.19 0 0 0 0 2.38"/><path stroke="#6fafac" stroke-miterlimit="10" stroke-width=".31" d="M417.21 145.37a3.12 3.12 0 0 1 3.07-2.56h19.7c1.51 0 2.8 1.08 3.07 2.56 1.13 6.2 8.8 8.92 13.43 8.82.29 0 .55-.02.8-.05l.36-.11c2.39-.7 3.87-3.1 3.43-5.56l-4.34-19.26c-1.55-7.57-8.2-13-15.93-13h-21.34c-7.72 0-14.38 5.44-15.93 13l-4.34 19.26a4.88 4.88 0 0 0 3.43 5.56l.36.11c.24.03.51.04.8.05"/><path stroke="#aecc53" stroke-linecap="round" stroke-linejoin="round" stroke-width=".62" d="m385.15 93.22.18-44.29h17.72l-.18 44.45zm-28.17-.03.17-54.26h17.72l-.18 54.45z"/><path stroke="#aecc53" stroke-linecap="round" stroke-linejoin="round" stroke-width=".62" d="m406.51 45.2-3.68 3.78v44.41l3.68-3.79zm-27.86-10.33-3.68 3.78v54.88l3.68-3.78zm52.36 24.21h-17.68v34.29h17.68z"/><path fill="#aecc53" stroke="#aecc53" stroke-linecap="round" stroke-linejoin="round" stroke-width=".62" d="M413.32 59.09H431l3.68-3.79H417z"/><path stroke="#aecc53" stroke-linecap="round" stroke-linejoin="round" stroke-width=".62" d="M434.68 55.3 431 59.09v34.29l3.68-3.79z"/><path fill="#aecc53" stroke="#aecc53" stroke-linecap="round" stroke-linejoin="round" stroke-width=".41" d="M385.15 48.98h17.68l3.68-3.78h-17.68z"/><path fill="#aecc53" stroke="#aecc53" stroke-linecap="round" stroke-linejoin="round" stroke-width=".62" d="M357.29 38.65h17.68l3.68-3.78h-17.68z"/><path stroke="#aecc53" stroke-linecap="round" stroke-linejoin="round" stroke-width=".83" d="M92.24 76.07c-.05 4.14-3.44 7.47-7.59 7.42-4.14-.05-7.47-3.44-7.42-7.59.05-4.14 7.63-11.05 7.63-11.05s7.43 7.08 7.38 11.22m-7.48-2.02-.15 13.07m30.96-11.05c-.05 4.14-3.44 7.47-7.59 7.42a7.5 7.5 0 0 1-7.42-7.59c.05-4.15 7.63-11.05 7.63-11.05s7.43 7.08 7.38 11.22m-7.48-2.02-.15 13.07"/><path stroke="#6fafac" stroke-linecap="round" stroke-linejoin="round" stroke-width=".83" d="M68.92 76.07c-.05 4.14-3.44 7.47-7.59 7.42-4.14-.05-7.47-3.44-7.42-7.59.05-4.14 7.63-11.05 7.63-11.05s7.43 7.08 7.38 11.22m-7.49-2.02-.14 13.07"/><path stroke="#6fafac" stroke-linecap="round" stroke-linejoin="round" stroke-width=".83" d="M49.43 59.66h70.62c2.41 0 4.36 1.95 4.36 4.36v5.7l11.46 5.65-11.46 5.65v5.7c0 2.41-1.95 4.36-4.36 4.36H49.43c-2.41 0-4.36-1.95-4.36-4.36V64.03c0-2.41 1.95-4.36 4.36-4.36z"/><path fill="#006d68" d="M49.88 118.91c-12-4-27.81 9.3-32 21s-.54 23.17 11 24c2.2.16 4.35 0 6.44-.45l8.56 4.36 4-9.91c3-4 4.94-6.44 6.99-9.96 7.01-12.04 4.96-25.73-4.99-29.04"/><path fill="#003834" d="M65.28 130.32c-2.41-2.32-4.98-4.55-7.48-6.78-3.31-2.95-5.81-4.6-9.5-5.04.53.11 1.06.24 1.57.41 9.94 3.31 12 17 4.99 29.04-2.05 3.52-3.99 5.96-6.99 9.96l-4 10-8.56-4.45c-2.09.44-4.24.61-6.44.45-3.1-.22-5.62-1.22-7.58-2.77.28.27.56.54.86.81 2.68 2.49 6.07 5.82 8.93 7.97 4.08 3.07 9.08 3.33 13.98 2.57l8.81 4.42 3.83-10.46c10.09-8.31 18.91-25.19 7.57-36.13z"/><path fill="#09443e" d="m47.88 157.91 9.83 8.54c10.09-8.31 18.91-25.19 7.57-36.13-2.41-2.32-4.98-4.55-7.48-6.78-3.31-2.95-5.81-4.6-9.5-5.04.53.11 1.06.24 1.57.41 9.94 3.31 12 17 4.99 29.04-2.05 3.52-3.99 5.96-6.99 9.96z"/><path fill="#00544f" d="m53.88 176.91-10-9.1 4.19-10.28 9.49 8.75z"/><path stroke="#acca53" stroke-linecap="round" stroke-linejoin="round" stroke-width=".37" d="M43.88 167.81s-8.67-4.09-9-4c-4.77 1.24-10.44.07-14.15-3.29-7.43-6.73-4.66-20.06.46-27.28"/><path fill="#006d68" d="M36.18 179.82c-3.27-1.82-6.76-3.43-9.92-5.37-.03-.15-.25-.22-.51-.2-1.98.46-4.05.82-6.11.75-14.14-.47-19.66-13.2-16.85-25.74.95-4.62 2.81-9.05 5.56-12.85-2.58 3.92-4.21 8.38-5.07 12.95-2.95 14.95 5.43 27.54 21.55 24.62.56-.13 1.59-.42 1.84.37 2.57 1.24 6.49 3.8 9.51 5.48z"/><path stroke="#acca53" stroke-linecap="round" stroke-linejoin="round" stroke-width=".37" d="M24.69 129.02c4.19-4.2 7.8-7.49 12.19-9.2"/><path fill="#fefefe" d="M53.33 272.25c-.16 0-.23.1-.32.2-.94 1.04-2.88 3.11-3.44 4.27-2.22 4.59-3.71 9.87-5.88 14.52-.06.12-.06.24-.08.36-.04.4 0 .94 0 1.37 0 .97-.04 1.39.39 2.3.49 1.05 1.47 2.13 2.4 2.82l20.69 12.4c.86.44 1.52.61 2.46.71.65.07.86.08 1.53-.08.56-.13.81-.24 1.28-.56 1.28-.86 2.3-2.74 3.5-3.77l.12-.41c.53-.3.8-.64 1.11-1.17 2.03-5.36 4.44-10.61 6.19-16.05.08-2.46-1.48-4.63-3.46-5.94l-20.58-12.27c-1.92-.67-4.88-.88-5.92 1.3z"/><path fill="#6eb0ad" d="M75.98 306.38c-.18.1-.77.44-.88.48s-.67.15-.8.16c-.42.04-.87-.01-1.28-.08-.39-.06-.79-.21-1.17-.32-7.28-3.98-14.3-8.47-21.46-12.67-1.37-.92-3.03-2.99-3.23-4.6-.05-.39 0-.88-.08-1.29 1.95-5.32 4.29-10.5 6.26-15.82 1.03-2.18 4-1.97 5.92-1.3l20.58 12.27c1.98 1.3 3.54 3.48 3.46 5.94-1.75 5.44-4.17 10.7-6.19 16.05-.32.53-.58.87-1.11 1.17h-.02z"/><path fill="#3b504f" d="M75.09 306.86c-.12.04-.67.15-.8.16-.42.04-.87-.01-1.28-.08-.39-.06-.79-.21-1.17-.32-7.28-3.98-14.3-8.47-21.46-12.67-1.37-.92-3.03-2.99-3.23-4.6-.05-.39 0-.88-.08-1.29 1.95-5.32 4.29-10.5 6.26-15.82-.16 0-.23.1-.32.2-.94 1.04-2.88 3.11-3.44 4.27-2.22 4.59-3.71 9.87-5.88 14.52-.06.12-.06.24-.08.36-.04.4 0 .94 0 1.37 0 .97-.04 1.39.39 2.3.49 1.05 1.47 2.13 2.4 2.82l20.69 12.4c.86.44 1.52.61 2.46.71.65.07.86.08 1.53-.08.56-.13.81-.24 1.28-.56 1.28-.86 2.3-2.74 3.5-3.77l.12-.41c-.18.1-.77.44-.88.48h-.01z"/><path fill="#e1fffd" d="M58.11 291.29c-.1 0-.2-.02-.29-.07a.67.67 0 0 1-.32-.9l5.2-10.87c.16-.34.56-.48.9-.32s.48.56.32.9l-5.2 10.87c-.12.24-.36.38-.61.38zm4.45 2.88c-.1 0-.2-.02-.29-.07a.67.67 0 0 1-.32-.9l5.2-10.88c.16-.34.56-.48.9-.32s.48.56.32.9l-5.2 10.88c-.12.24-.36.38-.61.38zm4.69 3.21c-.1 0-.2-.02-.29-.07a.67.67 0 0 1-.32-.9l5.21-10.88c.16-.34.56-.48.9-.32s.48.56.32.9l-5.21 10.88c-.12.24-.36.38-.61.38z"/><path fill="#003834" d="m174.42 184.21-47.9-10.54 19.22-10.29z"/><path fill="#aecc53" d="m252.81 86.11-127.07 20.77 71.86 33.05 152.69-25.03z"/><path fill="#6fafac" d="m125.52 153.15.22-46.27 71.86 33.05v60.38z"/><path fill="#006e6a" d="m350.35 167.37-.06-52.47-152.69 25.03v60.38z"/><path fill="#003834" d="m350.35 167.37-.06-52.47-43.98 7.12v54.45z" opacity=".3"/><path fill="#6fafac" d="m203.33 312.3.3-48.89-63.95-50.42v34.71z"/><path fill="#006e6a" d="m331.73 200.97-.03-29.51-27.24 6.4-35.11 26.35.3 55.21z"/><path fill="#003834" d="m331.73 200.97-.03-29.51-27.24 6.4-35.11 26.35.3 55.21z" opacity=".3"/><path fill="#fff" d="m160 131.34-6.71 16.3-2.35-2.67 10.91-1.55 3.06-.43c-.36.54-12.85 19.69-13.7 20.98l9.73-19.88 1.46 2.01-10.64 2.88-3.32.9c.59-2.14 4.92-18.04 5.62-20.57l5.94 2.02z"/><path fill="#aecc53" d="M203.3 313.24v-49.4l66.52-19.23.31 15.33 24.45-23.53 44.58-11.84v44.03z"/><path stroke="#006e69" stroke-linecap="round" stroke-linejoin="round" stroke-width="1.24" d="M239.56 279.99c-.24 5.36-4.78 9.51-10.15 9.27-5.36-.24-8.68-3.55-8.44-8.91s8.71-15.2 8.71-15.2 10.12 9.48 9.88 14.84m-9.59-2.94.47 17.73"/><path fill="#006e6a" d="m125.97 223-.31-49.11 45.34 9.6 26.6 16.82 25.86-5.72 45.89 8.38.37 56.97z"/><path stroke="#003834" stroke-linecap="round" stroke-linejoin="round" stroke-width=".83" d="M125.55 173.95v49.56m41.93-40.27-.5 50.23"/><path fill="#fff" d="m197.43 211.37 10.9 6.38-.51 3.17-12.35 2.69.49-3.1 8.37-1.77-7.4-4.28.49-3.1zm-9.41 13.82-2.95-1.42 9.29-18.38 2.95 1.42zm-2.25-15.68-.49 3.1-8.37 1.77 7.4 4.28-.49 3.1-10.9-6.41.51-3.17 12.35-2.67z"/><path fill="#003834" d="m225.91 194.63 77.52-16.96-33.78 25.55zm-57.59 40.01 73.2 18.15-38.22 11.05zm125.43 1.77 25.62-23.05 19.79 11.21z"/><path stroke="#acca53" stroke-linecap="round" stroke-linejoin="round" stroke-width=".83" d="m125.97 173.95 45.85 9.54"/><path stroke="#003834" stroke-linecap="round" stroke-linejoin="round" stroke-width=".83" d="m350.29 114.9.06 52.47-152.75 32.94-72.19-47.14.33-46.29"/><path stroke="#fff" stroke-linecap="round" stroke-linejoin="round" stroke-width=".83" d="M197.6 139.93v60.06"/><path stroke="#003834" stroke-linecap="round" stroke-linejoin="round" stroke-width=".83" d="m225.55 194.42 44.1 8.8m35.01-25.51-35.01 25.51"/><path stroke="#acca53" stroke-linecap="round" stroke-linejoin="round" stroke-width=".83" d="m125.97 173.95 16.67-8.78"/><path stroke="#003834" stroke-linecap="round" stroke-linejoin="round" stroke-width=".83" d="m126.17 223.28 143.55 36.66m61.98-59.27-61.98 59.27"/><path stroke="#aecc53" stroke-linecap="round" stroke-linejoin="round" stroke-width=".83" d="M269.65 203.63v56.62"/><path stroke="#003834" stroke-linecap="round" stroke-linejoin="round" stroke-width=".83" d="M331.7 171.53v29.14m-163.79 33.76 35.39 29.41m38.22-11.05-38.22 11.05"/><path stroke="#acca53" stroke-linecap="round" stroke-linejoin="round" stroke-width=".83" d="m339.16 224.57-43.34 11.84m23.03-22.88 20.31 11.04"/><path stroke="#003834" stroke-linecap="round" stroke-linejoin="round" stroke-width=".83" d="M139.27 227.28v20.57m64.03 15.99v49.4"/><path stroke="#acca53" stroke-linecap="round" stroke-linejoin="round" stroke-width=".83" d="M339.16 224.57v44.03"/><path stroke="#003834" stroke-linecap="round" stroke-linejoin="round" stroke-width=".83" d="m203.3 313.24-64.03-65.74m200.71 21.1L203.3 312.94m49.81-182.45v57.28m53.42-65.69v54.13m0-54.13-88.86-29.93m35.02 38.34-76.23-31.97m-34.13 15.99L281.3 94.52m-111.14 32.79 143.36-23.27m-142.23 78.77v-55.2m-28.76 36.59.1-49.35m72.32 82.18.1 48.43m78.52-60 .18 50.95m21.99-61.24.2 40.59m-137.53 27.95-.14 43.83m-21.65-55.57.11 33.45m95.51-9.47.34 40.18m47.31-60.54.01 45.84"/><path fill="#aecc53" d="M292.25 155.76a2.39 2.39 0 0 0 1.98-2.11 2.391 2.391 0 1 0-4.76-.48c-.08.76.22 1.48.74 1.97-1.51 3.63-4.91 6.21-8.87 6.6v-10.15c2.72-.33 5.14-1.9 6.58-4.19 1.14-.02 2.14-.86 2.31-2.02.2-1.31-.7-2.53-2-2.73-1.31-.2-2.53.7-2.73 2-.1.68.09 1.33.49 1.83-1.07 1.57-2.75 2.67-4.65 2.97v-9.92c.79-.39 1.33-1.2 1.33-2.13a2.39 2.39 0 1 0-4.78 0c0 .94.55 1.74 1.33 2.13v9.93c-1.9-.3-3.59-1.4-4.66-2.97.39-.5.59-1.15.49-1.83-.2-1.31-1.42-2.2-2.73-2s-2.2 1.42-2 2.73c.18 1.17 1.17 2 2.31 2.02a9.12 9.12 0 0 0 6.59 4.19v10.15c-3.97-.39-7.37-2.97-8.88-6.6.52-.49.82-1.2.74-1.97a2.4 2.4 0 0 0-2.62-2.14 2.4 2.4 0 0 0-2.14 2.62 2.4 2.4 0 0 0 1.98 2.11c1.79 4.52 6.02 7.7 10.92 8.11v10.32h2.12v-10.32c4.9-.41 9.13-3.59 10.91-8.11z"/><path stroke="#fff" stroke-linecap="round" stroke-linejoin="round" stroke-width=".83" d="M350.29 114.9 197.6 139.93l-71.86-33.05 127.07-20.77z"/><path fill="#6fafac" d="m218.94 368.59-19.48 1.37 8.49-22.81 16.22 5.23z"/><path fill="#006d68" d="m218.94 368.59-10.99-21.44 16.22 5.23z"/><circle cx="95.54" cy="239.18" r=".825" fill="#aecc53"/><path stroke="#aecc53" stroke-linecap="round" stroke-linejoin="round" stroke-width="1.65" d="M89.65 239.18H45.5"/><circle cx="42.56" cy="239.18" r=".825" fill="#aecc53"/><path stroke="#aecc53" stroke-linecap="round" stroke-linejoin="round" stroke-width=".83" d="M145.77 239.18H76.7"/><path fill="#aecc53" d="M145.62 236.08c1.71 0 3.1 1.39 3.1 3.1s-1.39 3.1-3.1 3.1-3.1-1.39-3.1-3.1 1.39-3.1 3.1-3.1"/><circle cx="152" cy="349.33" r=".825" fill="#aecc53"/><path stroke="#aecc53" stroke-linecap="round" stroke-linejoin="round" stroke-width="1.65" d="M146.07 349.33H95.64"/><circle cx="92.67" cy="349.33" r=".825" fill="#aecc53"/><path fill="#aecc53" d="M92.83 346.23c-1.71 0-3.1 1.39-3.1 3.1s1.39 3.1 3.1 3.1 3.1-1.39 3.1-3.1-1.39-3.1-3.1-3.1"/><path stroke="#aecc53" stroke-linecap="round" stroke-linejoin="round" stroke-width=".83" d="m188.67 274.83-36.65 74.5"/><path fill="#aecc53" d="M185.82 273.6a3.095 3.095 0 0 1 4.15-1.41c1.53.76 2.17 2.62 1.41 4.15a3.095 3.095 0 0 1-4.15 1.41c-1.53-.76-2.17-2.62-1.41-4.15"/><path stroke="#aecc53" stroke-linecap="round" stroke-linejoin="round" stroke-width=".83" d="m269.8 203.91 35.9-25.99m-79.63 17.32 43.2 8.75"/><path fill="#acca53" d="M29.97 244.13a7.05 7.05 0 1 0 0-14.1 7.05 7.05 0 1 0 0 14.1"/><path fill="#acca53" d="M43.73 233.83c-.67 0-1.3-.42-1.54-1.09a13.02 13.02 0 0 0-12.22-8.59c-5.46 0-10.38 3.45-12.22 8.59-.31.85-1.25 1.29-2.1.99a1.65 1.65 0 0 1-.99-2.1c2.31-6.44 8.46-10.76 15.31-10.76s13 4.33 15.31 10.76c.31.85-.14 1.79-.99 2.1-.18.07-.37.1-.55.1z"/><path fill="#acca53" d="M6.15 220.49c-.33 0-.66-.1-.95-.31-.74-.53-.91-1.55-.38-2.29a30.97 30.97 0 0 1 25.15-12.95c9.95 0 19.32 4.82 25.11 12.91.53.74.36 1.76-.38 2.29s-1.76.36-2.29-.38c-5.18-7.22-13.57-11.54-22.45-11.54s-17.3 4.33-22.48 11.58c-.32.45-.82.69-1.34.69z" opacity=".4"/><path fill="#acca53" d="M48.87 226.98c-.56 0-1.11-.29-1.41-.81-3.64-6.16-10.34-9.99-17.49-9.99s-13.85 3.83-17.49 9.99c-.46.78-1.47 1.04-2.25.58a1.645 1.645 0 0 1-.58-2.25c4.23-7.16 12.01-11.6 20.31-11.6s16.09 4.45 20.31 11.6a1.645 1.645 0 0 1-1.41 2.48z" opacity=".7"/><path stroke="#a6c453" stroke-linecap="round" stroke-linejoin="round" stroke-width=".83" d="M70.32 327.37c9.45-10.59 23.04-11.32 35.28-6.05 1.91.82 3.75 2.37 5.28 3.75 3.63 3.24 6.41 7.4 8.01 12 .75 2.17 1.24 4.22 1.04 6.49-.18 2.06.25 3.73.38 5.81.12 1.82-.61 4-1.15 5.72a28.9 28.9 0 0 1-5.99 10.54c-2.39 2.67-5.22 4.78-8.37 6.46-2.45 1.31-5.41 1.49-8.01 2.33-2.72.88-5.42.92-8.3.57-5.84-.7-11.49-3.15-15.89-7.07a28.83 28.83 0 0 1-9.4-18.09c-.4-3.43-.18-6.93.65-10.28.58-2.34 1.81-4.33 3.04-6.37s1.84-4.06 3.41-5.83z"/><path stroke="#a6c453" stroke-linecap="round" stroke-linejoin="round" stroke-width=".83" d="M111.73 367.08c-1.33.32-3.15-.18-4.3-.87-.6-.36-1.2-.73-1.69-1.21-1.15-1.13-1.62-2.84-1.41-4.44.47-3.41 3.92-5.67 6.4-7.69 4.99-4.07 8.43-9.99 7.93-16.59"/><path stroke="#a6c453" stroke-linecap="round" stroke-linejoin="round" stroke-width=".84" d="M102.46 372.97c-3.04-.65-5.84-3.05-7.3-5.81-1.43-2.71-.83-6.17.44-8.84 2.33-4.91 6.68-7.88 10.31-11.74 2.85-3.03 4.48-6.27 5.53-10.26.74-2.82 1.47-6.53.65-9.4"/><path stroke="#a6c453" stroke-linecap="round" stroke-linejoin="round" stroke-width=".83" d="M89.46 318.19c8.01-1.24 16.69 4.89 14.12 14.16-1.22 4.4-4.56 7.76-8.4 10.07-3.49 2.1-8.68 1.63-12.7 2.84-2.24.67-4.04 2.77-5.95 4.11-.8.56-1.61 1.13-2.51 1.51-2.18.93-4.84.63-6.76-.76-3.49-2.53-4.06-6.83-3.23-11.14"/><path stroke="#a6c453" stroke-linecap="round" stroke-linejoin="round" stroke-width=".83" d="M95.5 329.89c.46-2.02-.09-4.34-1.7-5.64-.8-.65-1.79-1.01-2.79-1.25-5.96-1.43-12.42 1.34-16.41 6-1.4 1.64-2.57 3.53-3.03 5.64s-.13 4.45 1.19 6.15c2.04 2.64 4 1.12 5.96-.53 1.77-1.49 2.96-1.96 5.21-2.15 4.79-.42 10.38-3.01 11.57-8.22m-4.06 45.29c-2.25-.89-3.73-2.97-4.15-5.36-.36-2.1-.25-4.27.26-6.34.48-1.92.8-3.75.16-5.69-1.04-3.17-5.7-2.47-7.91-1.05-1.43.91-2.86 1.84-4.4 2.58-3.15 1.5-6.47 1.77-9.48-.21"/><path stroke="#aecc53" stroke-linecap="round" stroke-linejoin="round" stroke-width=".83" d="M437.58 281.31h-28.13v46.74h28.13z"/><path fill="#acca53" d="M434.44 285.99h-21.85v8.97h21.85z" opacity=".3"/><path fill="#aecc53" stroke="#aecc53" stroke-linecap="round" stroke-linejoin="round" stroke-width=".41" d="M434.44 300.15h-21.85v8.97h21.85z" opacity=".7"/><path fill="#aecc53" stroke="#aecc53" stroke-linecap="round" stroke-linejoin="round" stroke-width=".41" d="M434.44 314.31h-21.85v8.97h21.85z"/><path stroke="#aecc53" stroke-linecap="round" stroke-linejoin="round" stroke-width=".83" d="M429.14 276.31h-11.56v5h11.56z"/><path stroke="#6fafac" stroke-linecap="round" stroke-linejoin="round" stroke-width="1.24" d="M308.12 43.79c7.053 0 12.77-5.717 12.77-12.77s-5.717-12.77-12.77-12.77-12.77 5.717-12.77 12.77 5.717 12.77 12.77 12.77"/><path stroke="#6fafac" stroke-linecap="round" stroke-linejoin="round" stroke-width=".54" d="M304.19 19.05c-2.2 1.92-3.34 4.46-3.29 7.4.02 1.58 1.17 2.6 2.38 3.39.72.47 1.24.75 1.67 1.53.39.7.6 1.5.57 2.31-.06 1.75-1.15 3.36-1.13 5.12.01 1.33.69 2.61 1.67 3.5.99.89 2.26 1.42 3.57 1.67"/><path stroke="#6fafac" stroke-linecap="round" stroke-linejoin="round" stroke-width="1.65" d="M308.12 7.5v5.71m0 35.61v5.71m23.51-23.51h-5.71m-35.61 0h-5.71m40.51-16.26-4.13 3.95m-25.73 24.61-4.13 3.95m33.25.74-3.95-4.13m-24.61-25.73-3.95-4.13"/><path stroke="#6fafac" stroke-linecap="round" stroke-linejoin="round" stroke-width=".54" d="M309.11 18.73c-.77.72-1.48 1.94-1.92 2.9s-.6 2.08-.25 3.07c.59 1.7 2.42 2.64 3.33 4.2.47.82 1.36 2.32-.09 4.78-.61 1.02-1.23 2.11-1.25 3.3-.06 3.94 4.78 4.49 7.63 3.6"/><path stroke="#6fafac" stroke-linecap="round" stroke-linejoin="round" stroke-width=".54" d="M316.23 26.12c-1.72-3.56-5.4-3.48-4.16-1.16 2.45 4.61 1.32 7.2 1.63 7.89.2.45.49.91.95 1.06.58.19 1.27-.12 1.61-.62 1.97-2.89.23-6.64-.02-7.17z"/><path fill="#006d68" d="M312.87 314.93h-7.43a3.028 3.028 0 0 0-1.27 5.78l-1 85.27c0 .84 1.44 1.52 2.28 1.52s2.28-.68 2.28-1.52l-1-84.99h6.16c1.68 0 3.03-1.36 3.03-3.03s-1.36-3.03-3.03-3.03z"/><path stroke="#003834" stroke-linecap="round" stroke-linejoin="round" stroke-width=".41" d="M312.87 317.96c4.32 9.8 5.02 25.02 2.39 35.37-.21.8-.44 1.6-.74 2.4-.37-.77-.67-1.55-.95-2.32-3.52-10.08-4.15-25.3-.7-35.44z"/><path stroke="#003834" stroke-linecap="round" stroke-linejoin="round" stroke-width=".41" d="M313.33 319.1c-9.34-4.11-19.08-13.68-24.42-22.31-.85-1.41-1.65-2.84-2.28-4.39.8.32 1.54.69 2.27 1.07 9.4 5.04 20.14 15.83 24.44 25.63z"/><path stroke="#003834" stroke-linecap="round" stroke-linejoin="round" stroke-width=".41" d="M311.65 319.1c4.11-9.34 13.68-19.08 22.31-24.42 1.41-.85 2.84-1.65 4.39-2.28-.32.8-.69 1.54-1.07 2.27-5.04 9.4-15.83 20.14-25.63 24.44z"/><path fill="#acca53" d="M312.71 320.99a3.03 3.03 0 1 0-.001-6.061 3.03 3.03 0 0 0 .001 6.061"/><path fill="#006d68" d="M367.32 300.9h-7.43a3.028 3.028 0 0 0-1.27 5.78l-1 85.27c0 .84 1.44 1.52 2.28 1.52s2.28-.68 2.28-1.52l-1-84.99h6.16c1.68 0 3.03-1.36 3.03-3.03s-1.36-3.03-3.03-3.03z"/><path stroke="#003834" stroke-linecap="round" stroke-linejoin="round" stroke-width=".41" d="M367.32 303.93c4.32 9.8 5.02 25.02 2.39 35.37-.21.8-.44 1.6-.74 2.4-.37-.77-.67-1.55-.95-2.32-3.52-10.08-4.15-25.3-.7-35.44z"/><path stroke="#003834" stroke-linecap="round" stroke-linejoin="round" stroke-width=".41" d="M367.78 305.08c-9.34-4.11-19.08-13.68-24.42-22.31-.85-1.41-1.65-2.84-2.28-4.39.8.32 1.54.69 2.27 1.07 9.4 5.04 20.14 15.83 24.44 25.63z"/><path stroke="#003834" stroke-linecap="round" stroke-linejoin="round" stroke-width=".41" d="M366.1 305.08c4.11-9.34 13.68-19.08 22.31-24.42 1.41-.85 2.84-1.65 4.39-2.28-.32.8-.69 1.54-1.07 2.27-5.04 9.4-15.83 20.14-25.63 24.44z"/><path fill="#acca53" d="M367.17 306.96a3.03 3.03 0 1 0-.001-6.061 3.03 3.03 0 0 0 .001 6.061"/><path fill="#aecc53" d="M222.92 57.13c1.29-.35 2.63-.58 3.95-.4 2.06.29 3.91 1.49 4.22 3.72.39 2.76-1.88 4.14-4.02 5.27-1.7.9-3.17 1.71-4.52 3.06-.12.12-.25.25-.37.39-.76.83-1.49 1.74-1.86 2.81-.55 1.59-.22 3.27.3 4.82.56 1.65 1.44 2.13 2.17 3.51 1.31 2.5 1.34 5.6 1.18 8.35-.05.83-.61 5.44-1.7 5.48-2.1.08-4.21-.04-6.29-.37-4.48-.71-7.33-4.39-10.04-7.67-3.12-3.76-2.74-8.1-.86-12.26 3.48-7.7 9.44-14.46 17.84-16.72zm30.33 0c-1.29-.35-2.63-.58-3.95-.4-2.06.29-3.91 1.49-4.22 3.72-.39 2.76 1.88 4.14 4.02 5.27 1.7.9 3.17 1.71 4.52 3.06.12.12.25.25.37.39.76.83 1.49 1.74 1.86 2.81.55 1.59.22 3.27-.3 4.82-.56 1.65-1.44 2.13-2.17 3.51-1.31 2.5-1.34 5.6-1.18 8.35.05.83.61 5.44 1.7 5.48 2.1.08 4.21-.04 6.29-.37 4.48-.71 7.33-4.39 10.04-7.67 3.12-3.76 2.74-8.1.86-12.26-3.48-7.7-9.44-14.46-17.84-16.72z"/><path stroke="#006e69" stroke-linecap="round" stroke-linejoin="round" stroke-width=".28" d="M211.95 63.58c3.27-3.16 7.4-5.48 10.97-6.44 1.29-.35 2.63-.58 3.95-.4 2.06.29 3.91 1.49 4.22 3.72.39 2.76-1.88 4.14-4.02 5.27-1.7.9-3.17 1.71-4.52 3.06"/><path fill="#006e69" d="M207.45 69.5c.91-1.95 2.34-3.6 3.71-5.22.05-.06.13-.07.2-.03.06.05.07.14.02.2-1.46 1.58-2.93 3.12-3.93 5.04z"/><path stroke="#006e69" stroke-linecap="round" stroke-linejoin="round" stroke-width=".28" d="M264.55 63.92c-3.35-3.28-7.67-5.81-11.3-6.79-1.29-.35-2.63-.58-3.95-.4-2.06.29-3.91 1.49-4.22 3.72-.39 2.76 1.88 4.14 4.02 5.27 1.7.9 3.17 1.71 4.52 3.06.12.12.25.25.37.39"/><path fill="#006e69" d="M268.58 69.17c-.74-1.31-1.66-2.51-2.67-3.61-.11-1.23 2.59 3.28 2.67 3.61m-24.82-11.2h-11.92c-7.401 0-13.4 6-13.4 13.4v26.3c0 7.401 5.999 13.4 13.4 13.4h11.92c7.401 0 13.4-5.999 13.4-13.4v-26.3c0-7.4-5.999-13.4-13.4-13.4"/><path fill="#003834" d="M244.17 109.61h-11.91c-7.37 0-13.4-6.03-13.4-13.4v-3.48l12.09.16 8.02-.16h18.61v3.48c0 7.37-6.03 13.4-13.4 13.4z"/><path fill="#000" d="M255.81 71.3h-35.77v23.39h35.77z"/><path fill="#ededed" d="M220.03 76.48v-5.19l35.77 23.39h-7.93zm0 7.99v-2.9l20.06 13.11h-4.45" opacity=".1"/><path fill="#aecc53" d="M227.85 55.24h19.8v1.3c0 5.46-4.44 9.9-9.9 9.9s-9.9-4.44-9.9-9.9z"/><path fill="#000" d="M237.74 58.46c5.307 0 9.61-1.379 9.61-3.08s-4.303-3.08-9.61-3.08-9.61 1.379-9.61 3.08 4.303 3.08 9.61 3.08"/><path fill="#006e69" d="M237.74 59c-2.62 0-5.1-.33-6.96-.93-2.09-.67-3.19-1.6-3.19-2.69s1.1-2.02 3.19-2.69c1.87-.6 4.34-.93 6.96-.93s5.1.33 6.96.93c2.09.67 3.19 1.6 3.19 2.69s-1.1 2.02-3.19 2.69c-1.87.6-4.34.93-6.96.93m0-6.16c-2.51 0-4.87.31-6.63.88-1.8.58-2.44 1.26-2.44 1.67s.64 1.09 2.44 1.67c1.76.57 4.12.88 6.63.88s4.87-.31 6.63-.88c1.8-.58 2.44-1.26 2.44-1.67s-.64-1.09-2.44-1.67c-1.76-.57-4.12-.88-6.63-.88m-5.05 12.83h-.06c-.8-.24-1.55-.95-1.95-1.55-.94-1.43-.87-3-.73-4.37 0-.11.11-.19.22-.18s.19.11.18.22c-.16 1.61-.11 2.92.67 4.11.42.63 1.13 1.2 1.72 1.38a.2.2 0 0 1 .14.25.2.2 0 0 1-.19.14m10.09.02c-.08 0-.16-.05-.19-.13-.04-.11.02-.22.12-.26.65-.23 1.24-.81 1.6-1.57.36-.75.39-1.57.43-2.44.02-.42.03-.85.09-1.27.02-.11.12-.19.23-.17s.19.12.17.23c-.06.4-.07.83-.09 1.24-.04.87-.07 1.78-.47 2.6-.41.86-1.08 1.51-1.83 1.78h-.07v-.02h.01zm-7.24.83h-.05c-.73-.19-1.31-.83-1.48-1.62-.14-.67-.15-1.49-.15-2.22v-.25c0-.11.09-.2.2-.2s.2.09.2.2v.25c0 .7 0 1.5.14 2.13.14.65.61 1.17 1.19 1.32a.2.2 0 0 1 .14.25c-.02.09-.11.15-.2.15zm5.08-.04c-.09 0-.16-.05-.19-.14-.03-.11.02-.22.13-.25 1.21-.39 1.46-2.05 1.3-3.35 0-.11.07-.21.18-.23.11 0 .21.07.23.18.19 1.52-.13 3.32-1.57 3.79z"/><path fill="#c3c3c3" stroke="#fff" stroke-miterlimit="10" stroke-width=".25" d="M252.87 41.53c-.66-.44-1.5-.47-2.32-.17-1.11-6.04-6.4-10.62-12.76-10.62s-11.65 4.58-12.76 10.62c-.82-.3-1.66-.27-2.32.17-1.31.87-1.44 2.99-.28 4.74.82 1.25 2.07 1.95 3.19 1.96 1.83 4.95 6.58 8.49 12.17 8.49s10.34-3.54 12.17-8.49c1.12 0 2.37-.71 3.19-1.96 1.16-1.75 1.03-3.87-.28-4.74Z"/><path stroke="#000" stroke-linecap="round" stroke-linejoin="bevel" stroke-width=".17" d="M239.8 49.92c-.38.72-1.13 1.21-2 1.21s-1.63-.49-2-1.21m14.82-3.23c.4-.16.74-.49.9-.89.1-.25.13-.56-.04-.78s-.56-.24-.68 0c.04-.46.24-.95.51-1.32s.75-.63 1.2-.53m-27.54 3.52c-.4-.16-.74-.49-.9-.89-.1-.25-.13-.56.04-.78s.56-.24.68 0c-.04-.46-.24-.95-.51-1.32s-.75-.63-1.2-.53"/><path fill="#000" d="M231.76 46.37a.95.95 0 1 0 0-1.9.95.95 0 0 0 0 1.9m12.07 0a.95.95 0 1 0 0-1.9.95.95 0 0 0 0 1.9"/><path fill="#003834" d="M227.92 117.35c.64-.6 1.17-1.29 1.62-2.19.76-1.49 1.14-3.27.52-4.88-1.06-2.78-3.95-2.96-6.49-2.58-2.68.4-5.36.81-8.04 1.21-2 .3-4.16.86-5.67 2.3-1.77 1.69-2.38 4.49-1.46 6.76 1.04 2.56 3.72 3.85 6.38 3.73 4.01-.17 8.03-.93 11.51-3.13.61-.39 1.15-.78 1.62-1.23h.01z"/><path stroke="#fff" stroke-linecap="round" stroke-linejoin="round" stroke-width=".37" d="M227.92 117.35c.64-.6 1.17-1.29 1.62-2.19.76-1.49 1.14-3.27.52-4.88-1.06-2.78-3.95-2.96-6.49-2.58-2.68.4-5.36.81-8.04 1.21-2 .3-4.16.86-5.67 2.3-1.77 1.69-2.38 4.49-1.46 6.76 1.04 2.56 3.72 3.85 6.38 3.73 4.01-.17 8.03-.93 11.51-3.13.61-.39 1.15-.78 1.62-1.23h.01z"/><path fill="#fff" d="M229.89 111.15s-.06-.04-.1-.02c-.77-1.12-2-1.79-3.3-2.12-1.2-.3-2.19-.08-3.4-.02-2.76.13-5.55.6-8.27 1.06-1.23.21-2.4.63-3.56 1.08-1.05.4-1.83 1.17-2.73 1.84.18-.13.31-.78.49-1 .25-.31.57-.49.85-.75 2.07-1.97 4.75-2.4 7.47-2.91 2.43-.46 4.9-.57 7.36-.72 2.21-.13 4.5.43 5.37 2.71.24.62.33 1.27.3 1.92-.12-.37-.27-.72-.48-1.04z"/><path fill="#006e6a" d="M259 88.14c.19-.08.39-.15.58-.22 4.13-1.43 9.06.05 11.81 3.22s3.34 7.75 1.89 11.64c-3.11 8.33-14.41 12.31-22.57 14.79-3.04.92-6.49 1.93-9.72 2.14-4.22.27-8.62.67-12.8-.17-1.69-.34-3.33-.92-4.8-1.83-1.15-.71-3.69-2.28-3.43-3.83.06-.34.22-.68.43-.96.43-.56 1.05-1.34 1.58-1.78 1.05-.86 2.53-1.4 3.74-2.08 1.6-.9 3.54-1.25 5.2-2.04 2.27-1.08 4.45-2.32 6.57-3.67 4.25-2.7 8.23-5.8 12.22-8.86 1.58-1.21 3.17-2.42 4.78-3.59 1.42-1.04 2.88-2.09 4.52-2.76"/><path stroke="#fff" stroke-miterlimit="10" stroke-width=".28" d="M259 88.14c.19-.08.39-.15.58-.22 4.13-1.43 9.06.05 11.81 3.22s3.34 7.75 1.89 11.64c-3.11 8.33-14.41 12.31-22.57 14.79-3.04.92-6.51 1.71-9.72 2.14-4.1.55-8.36.84-12.44-.03-2.41-.52-9.73-2.96-8.01-6.46.28-.57.7-1.05 1.12-1.53 1.5-1.7 3.68-2.74 5.79-3.46 1.14-.39 2.22-.62 3.32-1.14 1.21-.57 2.4-1.19 3.56-1.84 4.32-2.43 8.33-5.37 12.26-8.37 2.62-2 5.22-4.03 7.89-5.96 1.42-1.04 2.88-2.09 4.52-2.76z"/><path fill="#fff" d="M222.39 117.94c.53.11 1.09.19 1.6.35 1.06.33 2.29.6 2.49-.89.14-.96-.3-2.01-.52-2.93-.22-.9-.54-1.78-.93-2.63-.39-.83-.58-1.96-1.68-1.64-.62.18-1.71.86-2.17 1.25-.33.28-.65.57-.94.89-.67.73-1.17 1.33-.94 2.42.27 1.25 1.09 2.72 2.4 3.03.23.05.47.11.7.16h-.01z"/><path fill="#006d68" d="M216.98 119c1.74.19 3.84.45 5.49-.29 2.55-1.14.54-4.14-.13-5.95-.27-.73-.91-1.53-1.78-1.29-1.76.48-3.17 1.86-4.77 2.73-.92.5-2.19 1.19-2.42 2.31-.4 1.93 2.26 2.34 3.62 2.49z"/><path stroke="#006d68" stroke-linecap="round" stroke-linejoin="round" stroke-width=".19" d="M213.84 110.3c-.17.77.09 1.52.18 2.29.08.68-.03 1.36-.68 1.72-.83.46-1.58 1.23-1.49 2.27.09 1.03.83 2.3 1.86 2.61.33.1.71.13.92.39.22.26.15.57.16.89.02.38.06.57.12.94"/><path stroke="#fff" stroke-linecap="round" stroke-linejoin="round" stroke-width=".37" d="M214.67 114.39c.6 1.52.86 3.17.76 4.8m.76-5.99c.94 1.86 1.23 4.24 1.01 6.3m.43-7.02c1.36 2.18 1.81 4.93 1.2 7.43"/><path fill="#003834" d="M247.18 118.34c-.8-.36-1.52-.85-2.24-1.55-1.2-1.17-2.13-2.73-2.07-4.45.11-2.98 2.79-4.08 5.31-4.54 2.67-.48 5.34-.96 8-1.44 1.99-.36 4.21-.53 6.1.35 2.22 1.03 3.71 3.48 3.56 5.93-.16 2.76-2.28 4.84-4.84 5.59-3.85 1.13-7.91 1.71-11.9.75-.7-.17-1.34-.37-1.93-.64z"/><path stroke="#fff" stroke-linecap="round" stroke-linejoin="round" stroke-width=".37" d="M247.18 118.34c-.8-.36-1.52-.85-2.24-1.55-1.2-1.17-2.13-2.73-2.07-4.45.11-2.98 2.79-4.08 5.31-4.54 2.67-.48 5.34-.96 8-1.44 1.99-.36 4.21-.53 6.1.35 2.22 1.03 3.71 3.48 3.56 5.93-.16 2.76-2.28 4.84-4.84 5.59-3.85 1.13-7.91 1.71-11.9.75-.7-.17-1.34-.37-1.93-.64z"/><path fill="#fff" d="M243.32 113.11s.05-.06.08-.05c.37-1.3 1.32-2.34 2.44-3.07 1.04-.68 2.05-.78 3.21-1.12 2.65-.77 5.45-1.22 8.17-1.66 1.23-.2 2.48-.18 3.71-.13 1.12.05 2.11.52 3.18.86-.21-.07-.55-.64-.79-.79-.33-.21-.69-.28-1.04-.44-2.59-1.2-5.27-.74-8.01-.35-2.45.35-4.83 1.04-7.2 1.69-2.14.59-4.12 1.86-4.21 4.29-.02.67.1 1.31.33 1.91 0-.38.03-.77.12-1.14z"/><path fill="#006e6a" d="M215.5 88.57c-.19-.08-.39-.15-.58-.22-4.13-1.43-9.06.04-11.81 3.21s-3.34 7.75-1.9 11.64c3.1 8.33 14.4 12.32 22.57 14.81 3.04.93 6.49 1.93 9.72 2.14 9.7.63 15.85.75 20.64-4.55.72-.79 1.36-1.8 1.12-2.82-.36-1.48-2.25-2.05-3.82-2.45-12.24-3.11-21.62-11.86-31.42-19-1.42-1.04-2.87-2.09-4.52-2.77z"/><path stroke="#fff" stroke-miterlimit="10" stroke-width=".28" d="M215.18 88.62c-.19-.08-.39-.15-.58-.22-4.13-1.43-9.06.04-11.81 3.21s-3.34 7.75-1.9 11.64c3.1 8.33 14.4 12.32 22.57 14.81 3.04.93 6.51 1.71 9.72 2.14 8.24 1.11 15.85.75 20.64-4.55.72-.79 1.36-1.8 1.12-2.82-.36-1.48-2.25-2.05-3.82-2.45-12.24-3.11-21.62-11.86-31.42-19-1.42-1.04-2.87-2.09-4.52-2.77z"/><path fill="#fff" d="M252.61 117.12c-1.16.7-2.35 1.34-3.51 2.04-.12-.27-.27-.52-.38-.79-.45-1.04-.51-2.27-.6-3.39-.08-.93-.07-1.86.04-2.79.04-.38.16-2.42.7-2.44.04 0 .08.01.12.02q.675.21 1.35.39c.39.1.96.41 1.34.41.4.15.8.33 1.18.54.87.48 1.54.88 1.67 1.99.15 1.27-.15 2.93-1.3 3.64-.2.13-.41.25-.61.37z"/><path fill="#aecc53" d="M258.07 116.38c-1.59.74-3.49 1.67-5.29 1.5-2.78-.26-1.84-3.74-1.79-5.68.02-.78.37-1.75 1.27-1.8 1.82-.11 3.6.74 5.39 1.05 1.03.18 2.46.42 3.04 1.4 1 1.7-1.38 2.95-2.62 3.52z"/><path stroke="#006d68" stroke-linecap="round" stroke-linejoin="round" stroke-width=".19" d="M258.24 107.14c.41.68.41 1.47.57 2.22.14.67.47 1.27 1.2 1.41.93.17 1.89.66 2.15 1.67.25 1-.04 2.44-.91 3.07-.28.2-.63.35-.75.67s.04.58.13.89c.1.36.19.64.25 1.01"/><path stroke="#fff" stroke-linecap="round" stroke-linejoin="round" stroke-width=".37" d="M258.77 111.27c-.08 1.63.21 3.28.83 4.78m-2.65-5.42c-.29 2.06.2 4.41 1.07 6.28m-2.66-6.5c-.59 2.51-.12 5.24 1.26 7.42"/><path fill="#aecc53" d="M215.97 71.79c-.17 1.87-.14 4.11 1.1 5.6.94 1.14 2.41 1.65 3.08 2.92 1.31 2.5 1.34 5.6 1.18 8.35-.1 1.71-.24 4.88-2.24 5.5-.53.16-1.37 0-1.92-.01-1.28-.05-2.56-.17-3.83-.38-4.94-.79-9.39-5.8-11.69-9.99-1.97-3.6-.44-7.74 1.92-10.76 1.63-2.08 4.17-3.95 6.65-4.86 2.68-.98 6.07.16 5.75 3.62zm44.44 0c.17 1.87.14 4.11-1.1 5.6-.94 1.14-2.41 1.65-3.08 2.92-1.31 2.5-1.34 5.6-1.18 8.35.05.83.61 5.44 1.7 5.48 2.1.08 4.21-.04 6.29-.37 4.94-.79 9.39-5.8 11.69-9.99 1.97-3.6.44-7.74-1.92-10.76-1.63-2.08-4.17-3.95-6.65-4.86-2.68-.98-6.07.16-5.75 3.62z"/><path stroke="#006e69" stroke-linecap="round" stroke-linejoin="round" stroke-width=".28" d="M261.23 71.22c-2.13.49-3.38 2.68-4.3 4.48-.08 0-.1-.11-.09-.19.24-1.63.68-3.37 1.89-4.55a8 8 0 0 1 4.51-2.19m2.35 1.95c-1.04 0-1.81-.02-2.79.35m-6.27 7.4c1.97-.38 4.01.74 5.26 2.19 1.17 1.36 1.77 3.12 1.84 4.9.13 3.15-1 6.69-3.65 8.56"/><path stroke="#006e69" stroke-linecap="round" stroke-linejoin="round" stroke-width=".28" d="M261.26 80.32c-.59.24-.98.62-1.38 1.1m2.67.58c-.52.3-1.03.61-1.53.94m2.41 1.78c-.46.29-1.12.34-1.65.45m1.67 2.55c-.75 0-1.5-.07-2.24-.21"/><path fill="#c3c3c3" d="M261.85 88.01c.13-.82.12-1.66.07-2.5-.09-1.78-.75-3.45-1.99-4.74-1-1-2.38-1.16-3.72-1.24-1.52-.09-2.52-1.37-3.67-2.34a.56.56 0 0 0-.22-.13.52.52 0 0 0-.32.07c-.79.42-1.31 1.35-1.27 2.26.05 1.05.61 1.7 1.43 2.27.54.37.83 1.27.51 1.87-.42.77-1.41.59-2.19.64-.72.04-1.41-.16-2.11-.33-.3-.07-.8-.26-1.09-.05-.23.16-.32.6-.35.86q-.09.63-.06 1.26c0 .13.02.26.06.38.19.5.85.68 1.29.85.43.16.9.21 1.35.26.83.08 1.87.03 2.59.52.2.13.32.4.23.61-.06.14-.2.23-.34.3-.87.49-1.96 1.11-2.98 1.15-.62.03-1.2-.09-1.82.12-.6.21-.84.79-.69 1.39.09.35.09.69.35.97.35.37.92.48 1.39.59.43.1.88.14 1.33.12.25-.01 1.18-.18 1.31.06.21.38.45.74.73 1.07.07.08.14.16.24.22.08.04.19.07.31.09.26.04.57.04.77.04.35 0 .71-.04 1.05-.09.73-.11 1.45-.3 2.15-.57.63-.24 1.24-.54 1.8-.9.45-.29.92-.51 1.31-.87.41-.38.8-.8 1.14-1.24.67-.86 1.23-1.86 1.4-2.95v-.02z"/><path stroke="#fff" stroke-linecap="round" stroke-linejoin="round" stroke-width=".19" d="M261.85 88.01c.13-.82.12-1.66.07-2.5-.09-1.78-.75-3.45-1.99-4.74-1-1-2.38-1.16-3.72-1.24-1.52-.09-2.52-1.37-3.67-2.34a.56.56 0 0 0-.22-.13.52.52 0 0 0-.32.07c-.79.42-1.31 1.35-1.27 2.26.05 1.05.61 1.7 1.43 2.27.54.37.83 1.27.51 1.87-.42.77-1.41.59-2.19.64-.72.04-1.41-.16-2.11-.33-.3-.07-.8-.26-1.09-.05-.23.16-.32.6-.35.86q-.09.63-.06 1.26c0 .13.02.26.06.38.19.5.85.68 1.29.85.43.16.9.21 1.35.26.83.08 1.87.03 2.59.52.2.13.32.4.23.61-.06.14-.2.23-.34.3-.87.49-1.96 1.11-2.98 1.15-.62.03-1.2-.09-1.82.12-.6.21-.84.79-.69 1.39.09.35.09.69.35.97.35.37.92.48 1.39.59.43.1.88.14 1.33.12.25-.01 1.18-.18 1.31.06.21.38.45.74.73 1.07.07.08.14.16.24.22.08.04.19.07.31.09.26.04.57.04.77.04.35 0 .71-.04 1.05-.09.73-.11 1.45-.3 2.15-.57.63-.24 1.24-.54 1.8-.9.45-.29.92-.51 1.31-.87.41-.38.8-.8 1.14-1.24.67-.86 1.23-1.86 1.4-2.95v-.02z"/><path stroke="#fff" stroke-linecap="round" stroke-linejoin="round" stroke-width=".19" d="M254.27 85.16c-.11.58-.05 1.32.31 1.82.09.12.21.22.3.35s.15.29.09.43c-.14.37-.23.65-.18 1.06s.19.87.48 1.19c.13.14.28.24.39.39.11.14.09.22.08.37 0 .77.61 1.49.97 2.13"/><path stroke="#fff" stroke-linecap="round" stroke-linejoin="round" stroke-width=".19" d="M247.13 92.63c.51.23 1.08.4 1.64.49.89.14 1.82.09 2.7-.12 1.42-.34 2.73-.86 3.98-1.62.11-.07.23-.25.33-.34m-8.8-4.66c.49.11 1.06.12 1.49-.17.66-.46.46-1.42-.14-1.86-.33-.24-.68-.49-1.09-.54-.48.81-.5 1.66-.26 2.57"/><path stroke="#fff" stroke-linecap="round" stroke-linejoin="round" stroke-width=".19" d="M248.54 92.14c-.25.37-.76.5-1.19.5-.48 0-.62-.38-.71-.8-.07-.32-.27-1.09.14-1.27.15-.06.32-.04.48 0 .34.07.69.2.97.4.38.26.58.77.32 1.16zm5.14-13.87c-.35.45-.91.62-1.42.29-.33-.21-.61-.58-.85-.89"/><path fill="#c3c3c3" d="M215.98 86.01c-.06 1.68.4 3.39 1.28 4.82.72 1.18 2 2.64 3.37 3.02 1.69.46 3.49.36 5.16-.12.54-.15 1.05-.49 1.56-.74.36-.18.75-.38.94-.75.23-.43.26-.43.76-.54.57-.12 1.61-.32 2.03-.76.35-.37.44-1.05.37-1.53-.06-.39-.19-.96-.63-1.08-.13-.03-.26-.01-.39 0-.88.13-1.77.15-2.66.07-.37-.03-1.43-.22-1.65-.57-.39-.62.77-.3.95-.3.74.03 1.47-.21 2.2-.33.67-.11 1.65-.27 1.94-.99.3-.74.22-1.52 0-2.28-.02-.06-.04-.12-.09-.16-.07-.05-.16-.05-.25-.04q-.855.09-1.68.3c-1.07.28-4 .13-4.46-1.2-.27-.79.6-1.21 1.14-1.56.93-.6 1.31-1.39 1.13-2.57-.19-1.22-.97-2.91-2.22-1.55-.4.44-.79.88-1.23 1.28-1.44 1.3-3.61 1.41-5.15 2.61-1.48 1.15-2.35 3.09-2.41 4.97z"/><path stroke="#fff" stroke-linecap="round" stroke-linejoin="round" stroke-width=".19" d="M225.68 93.84c-.3.09-.61.15-.89.19-1.2.18-2.47.15-3.65-.14a5.5 5.5 0 0 1-2.28-1.18 8.3 8.3 0 0 1-1.6-1.89c-1.87-3.05-1.88-7.46 1.13-9.79 1.55-1.2 3.71-1.31 5.15-2.61.44-.4.83-.84 1.23-1.28 1.24-1.36 2.02.32 2.22 1.55.18 1.18-.19 1.97-1.13 2.57-.54.35-1.41.76-1.14 1.56.46 1.33 3.39 1.48 4.46 1.2.49-.13 1.22-.48 1.73-.25.74.33.53 1.86.29 2.44-.29.72-1.27.88-1.94.99-.92.15-1.82.26-2.76.25-.27 0-.6.03-.38.38.22.34 1.28.53 1.65.57.88.08 1.78.06 2.66-.07.13-.02.26-.04.39 0 .49.14.6.8.65 1.23.19 1.62-1.64 2.03-2.87 2.22-.04 0-.09.02-.12.05-.02.03 0 .08-.02.11 0 .09-.07.17-.14.23-.74.78-1.62 1.36-2.65 1.66h.01z"/><path stroke="#fff" stroke-linecap="round" stroke-linejoin="round" stroke-width=".19" d="M223.93 78.12c.02.14.04.2.12.31.13.22.31.52.59.5.39-.03.79-.65.92-.98.16-.41.08-.89-.18-1.24m5.82 7.7c-.79.08-1.93.46-1.82 1.45.07.65.9.94 1.45.75m.55 2.38c-.44.06-.85.17-1.24.34-.41.18-.8.6-.78 1.08.02.6.59.92 1.14.83m-5.97-6.75c.19.52.1 1.13-.23 1.57-.3.4-.56.81-.37 1.33.2.55.17 1.06.03 1.61s-.65.9-.93 1.37c-.25.42-.03.93-.11 1.39-.08.49-.3.99-.68 1.32m3.2-1.33c.45.07.86.05 1.31.05.48 0 1.37.09 1.85-.02"/><path stroke="#fff" stroke-miterlimit="10" stroke-width=".19" d="M203.19 99.73c1.36.2 2.77-.35 3.62-1.42.69-.86 1.14-2.15 1.25-3.23"/><path stroke="#006e69" stroke-linecap="round" stroke-linejoin="round" stroke-width=".28" d="M214.27 71.87c2.09.48 3.59 2.85 4.31 4.7-.33-.86.02-1.48-.05-2.31-.08-1-.66-1.99-1.34-2.71-.86-.91-1.98-1.55-3.12-2.06m-4.15 1.89c1.04 0 1.81-.02 2.79.35m6.57 6.86c-.29-.11-.61-.02-.9.09-3.02 1.11-4.73 3.83-4.86 6.98s1 6.69 3.65 8.56"/><path stroke="#006e69" stroke-linecap="round" stroke-linejoin="round" stroke-width=".28" d="M215.9 80.41c.59.24.98.62 1.38 1.1m-2.68.58c.52.3 1.03.61 1.53.94m-2.41 1.79c.46.29 1.12.34 1.65.45m-1.67 2.54c.75 0 1.5-.07 2.24-.21"/><path fill="#006e69" d="M265.77 68.67c2.77-.13 4.93 1.87 6.62 3.8-1.72-1.84-3.93-3.75-6.6-3.53-.18.02-.21-.27-.02-.28z"/><path fill="#000" d="M238.35 29.22c-2.43 0-4.41-1.98-4.41-4.41s1.98-4.41 4.41-4.41 4.41 1.98 4.41 4.41-1.98 4.41-4.41 4.41"/><path fill="#000" d="M238.35 20.53c2.37 0 4.28 1.92 4.28 4.28s-1.92 4.28-4.28 4.28-4.28-1.92-4.28-4.28 1.92-4.28 4.28-4.28m0-.25c-2.5 0-4.53 2.03-4.53 4.53s2.03 4.53 4.53 4.53 4.53-2.03 4.53-4.53-2.03-4.53-4.53-4.53m-13.58 23.49c-2.09-5.39 3.18-10.77 7.79-12.58 1.65-.73 3.47-1.11 5.42-1.11 5.96 0 11.45 3.47 13.35 8.43.66 1.84.64 3.75-.04 5.27l-.12.26-.11-.26c-2.68-6.27-10.65-7.12-13.02-7.23-5.06.18-11.17 2.72-13.04 7.23l-.12.29-.11-.29z"/><path fill="#000" d="M237.98 30.21c5.53 0 11.23 3.12 13.23 8.35.62 1.72.65 3.64-.04 5.17-2.2-5.14-8.13-7.07-13.13-7.31-4.68.16-11.18 2.55-13.16 7.31-2.06-5.32 3.05-10.59 7.72-12.42 1.67-.75 3.51-1.1 5.37-1.1m.01-.25c-1.96 0-3.81.38-5.47 1.12-2.51.98-4.94 2.85-6.49 4.99-1.3 1.79-2.59 4.59-1.37 7.75l.22.58.24-.57c1.85-4.47 7.91-6.98 12.94-7.16 9.31.44 12.22 5.59 12.89 7.16l.22.52.23-.51c.7-1.54.71-3.49.05-5.36-1.92-5.02-7.46-8.52-13.46-8.52"/><path fill="#aecc53" d="M245.77 27.33s0-.02-.02-.03c-1.84 2.27-4.69 3.53-7.71 3.52-2.93 0-5.87-1.23-7.72-3.54-.04 1.07-.04 2.14-.22 3.2-.03.16-.1.3-.2.41.25.35.52.69.82 1 2.82 2.99 7.54 3.82 11.3 2.26 2.26-.9 4.23-2.74 5.09-5.01-.47-.58-.9-1.2-1.34-1.81"/><path fill="#000" d="M233.25 29.57a3.38 3.38 0 1 0 0-6.76 3.38 3.38 0 0 0 0 6.76"/><path fill="#000" d="M233.25 22.93a3.26 3.26 0 1 1-.001 6.521 3.26 3.26 0 0 1 .001-6.521m0-.24c-1.93 0-3.51 1.57-3.51 3.51s1.57 3.51 3.51 3.51 3.51-1.57 3.51-3.51-1.57-3.51-3.51-3.51m10.2 6.89c-1.86 0-3.38-1.52-3.38-3.38s1.52-3.38 3.38-3.38 3.38 1.52 3.38 3.38-1.52 3.38-3.38 3.38"/><path fill="#000" d="M243.45 22.93a3.26 3.26 0 1 1-.001 6.521 3.26 3.26 0 0 1 .001-6.521m0-.24c-1.93 0-3.51 1.57-3.51 3.51s1.57 3.51 3.51 3.51 3.51-1.57 3.51-3.51-1.57-3.51-3.51-3.51"/><path fill="#000" d="M238.35 33.42c-2.43 0-4.41-1.98-4.41-4.41s1.98-4.41 4.41-4.41 4.41 1.98 4.41 4.41-1.98 4.41-4.41 4.41"/><path fill="#000" d="M238.35 24.73c2.37 0 4.28 1.92 4.28 4.28s-1.92 4.28-4.28 4.28-4.28-1.92-4.28-4.28 1.92-4.28 4.28-4.28m0-.25c-2.5 0-4.53 2.03-4.53 4.53s2.03 4.53 4.53 4.53 4.53-2.03 4.53-4.53-2.03-4.53-4.53-4.53"/><path fill="#000" d="M232.05 33.77a3.38 3.38 0 1 0 0-6.76 3.38 3.38 0 0 0 0 6.76"/><path fill="#000" d="M232.06 27.14a3.26 3.26 0 1 1-.001 6.521 3.26 3.26 0 0 1 .001-6.521m0-.25c-1.93 0-3.51 1.57-3.51 3.51s1.57 3.51 3.51 3.51 3.51-1.57 3.51-3.51-1.57-3.51-3.51-3.51m12.85 6.88a3.38 3.38 0 1 0 0-6.76 3.38 3.38 0 0 0 0 6.76"/><path fill="#000" d="M244.91 27.14a3.26 3.26 0 1 1-.001 6.521 3.26 3.26 0 0 1 .001-6.521m0-.25c-1.93 0-3.51 1.57-3.51 3.51s1.57 3.51 3.51 3.51 3.51-1.57 3.51-3.51-1.57-3.51-3.51-3.51"/><path stroke="#fff" stroke-linejoin="round" stroke-width=".75" d="M233.34 42.26c-1.66-.69-6.33.91-6.33.91s.57 3.74 3.83 5.12c1.66.7 3.57-.1 4.26-1.76s-.1-3.57-1.76-4.26zm8.91 0c1.66-.69 6.33.91 6.33.91s-.57 3.74-3.83 5.12c-1.66.7-3.57-.1-4.26-1.76s.1-3.57 1.76-4.26z"/><path stroke="#fff" stroke-linejoin="round" stroke-width=".75" d="M240.32 45.25c-.78-.81-4.28-.81-5.05 0"/><path fill="#6fafac" d="m450.01 215.32-48.81 6.45v-39.6l48.81-6.44z" opacity=".4"/><path fill="#6fafac" d="m457.38 221.31-48.81 6.45v-39.6l48.81-6.45z" opacity=".7"/><path fill="#6fafac" d="m465.66 227.3-48.8 6.44v-39.6l48.8-6.44z"/><path fill="#006e6a" d="M472.68 184.76c1.57-.12 2.57.07 2.91 1.8v45.23c-.21 2.84-1.71 2.98-4.07 3.37-14.05 2.32-28.26 3.84-42.32 6.12-1.49 0-2.15-1-2.26-2.38v-38.79c.04-1.3.93-2.49 2.2-2.8 5.41-.85 10.87-1.41 16.28-2.27.67-.11 1.66-.18 2.26-.4 3.28-1.23.29-5.75 3.81-6.86z"/><path fill="#003834" d="M432.97 229.89c-.79 0-1.49-.59-1.6-1.4-.12-.88.5-1.69 1.38-1.81l17.04-2.3a1.61 1.61 0 0 1 .43 3.19l-17.04 2.3h-.22.01z"/><path stroke="#6fafac" stroke-linecap="round" stroke-linejoin="round" stroke-width="1.65" d="M105.38 284.98a6.39 6.39 0 1 0 0-12.78 6.39 6.39 0 0 0 0 12.78"/><path stroke="#aecc53" stroke-linecap="round" stroke-linejoin="round" stroke-width="1.65" d="M369.98 209.89h31.22"/><path stroke="#aecc53" stroke-linecap="round" stroke-linejoin="round" stroke-width=".83" d="M306.79 209.89h63.19"/><path fill="#aecc53" d="M306.94 212.99c-1.71 0-3.1-1.39-3.1-3.1s1.39-3.1 3.1-3.1 3.1 1.39 3.1 3.1-1.39 3.1-3.1 3.1"/><path fill="#6fafac" d="M167.48 24.46v10.7l9.27 5.34 9.26-5.34v-10.7l-9.26-5.34z"/><path stroke="#6fafac" stroke-miterlimit="10" stroke-width=".83" d="M163.94 22.41V37.2l12.81 7.4 12.8-7.4V22.41l-12.8-7.39z"/><path fill="#aecc53" d="M182.61 51.29c-.31-.82.1-1.74.93-2.05.82-.31 1.74.1 2.06.93.31.82-.1 1.74-.93 2.05 0 0-.09.04-.14.05-.78.22-1.62-.2-1.92-.98m-6.2 2.42a1.59 1.59 0 1 1 .03-3.18c.88 0 1.59.73 1.58 1.6 0 .73-.5 1.34-1.17 1.52-.14.04-.28.06-.44.06m13.18-5.97c-.59-.65-.53-1.66.13-2.25.65-.59 1.66-.53 2.25.12s.54 1.67-.12 2.25c-.19.17-.41.28-.64.35-.56.16-1.19 0-1.61-.47zm-21.43 4.36a1.59 1.59 0 0 1-.89-2.07c.32-.82 1.25-1.22 2.07-.89s1.22 1.25.89 2.07c-.19.48-.59.82-1.06.95-.32.09-.67.08-1.01-.06m26.65-10.2c-.78-.4-1.1-1.36-.7-2.15.4-.78 1.36-1.1 2.14-.69.79.4 1.1 1.36.7 2.14-.21.41-.58.69-1 .81-.37.1-.77.07-1.15-.12zm-33.75 5.73c-.65-.6-.69-1.61-.09-2.25.59-.65 1.6-.69 2.25-.09.65.59.69 1.6.09 2.25-.21.23-.47.38-.75.45-.52.14-1.09.02-1.51-.36zm36.52-13.06c-.88-.09-1.51-.87-1.42-1.75.09-.87.87-1.51 1.75-1.42.87.09 1.51.87 1.42 1.75-.07.67-.55 1.21-1.16 1.38-.18.05-.38.07-.58.04zm-41.54 6.32c-.38-.79-.06-1.75.74-2.13a1.59 1.59 0 1 1 1.39 2.86c-.09.05-.18.08-.27.1-.73.2-1.51-.13-1.86-.83m39.5-15.26v-.08c-.23-.85.26-1.73 1.11-1.96.85-.24 1.73.26 1.96 1.11v.09c.23.85-.26 1.73-1.11 1.96s-1.73-.26-1.96-1.11zm-40.01 8.62c-.88.08-1.65-.57-1.73-1.45s.57-1.65 1.45-1.73 1.65.57 1.73 1.45a1.6 1.6 0 0 1-1.17 1.68c-.09.03-.19.05-.28.05m36.81-15.18c-.52-.7-.38-1.7.32-2.23.7-.52 1.71-.38 2.23.32s.38 1.7-.32 2.23c-.16.12-.34.21-.53.26-.62.17-1.3-.05-1.7-.58m-36.63 7.35a1.59 1.59 0 0 1-1.08-1.98c.25-.85 1.13-1.33 1.97-1.08.85.25 1.33 1.13 1.08 1.98-.16.55-.59.95-1.11 1.09-.28.08-.58.08-.87 0zm31.31-12.24c-.75-.47-.97-1.45-.51-2.2.47-.75 1.45-.97 2.2-.51.75.47.97 1.45.51 2.2a1.594 1.594 0 0 1-2.2.5zm-28.3 5.01c-.7-.53-.84-1.53-.3-2.23s1.53-.84 2.23-.3c.7.53.84 1.53.3 2.24a1.59 1.59 0 0 1-2.23.3zm21.58-7.67c-.87-.16-1.43-1-1.26-1.87a1.594 1.594 0 0 1 3.13.6 1.59 1.59 0 0 1-1.15 1.24c-.23.06-.48.08-.72.02zm-16.17 2c-.46-.75-.22-1.73.53-2.19.75-.45 1.73-.22 2.19.53a1.602 1.602 0 0 1-.94 2.37c-.67.18-1.4-.09-1.78-.71m8.95-2.03a1.6 1.6 0 0 1-1.86-1.28c-.16-.87.42-1.7 1.29-1.85.87-.16 1.7.42 1.85 1.28.15.82-.36 1.61-1.15 1.83l-.14.03z"/><path fill="#aecc53" d="m176.3 31.25-16.84-12.39.55-.91 16.84 12.39z"/><path fill="#aecc53" d="m176.77 31.29-.4-.99 17.1-11.87.4.99z"/><path fill="#aecc53" d="M177.4 30.47h-1.31v22.35h1.31z"/><defs><clipPath id="a"><path fill="#fff" d="M28 0h417.15v413H28z"/></clipPath></defs></svg>