<svg xmlns="http://www.w3.org/2000/svg" width="48" height="48" fill="none" viewBox="0 0 48 48"><g clip-path="url(#a)"><path fill="#006d68" d="M47.93 5.78.07 5.9V48h47.86z"/><path fill="#a8c653" d="M47.93 0H.07v5.78h47.86z"/><path stroke="#fff" stroke-linecap="round" stroke-linejoin="round" stroke-width="1.11" d="M17.28 27.96c0 3.71 3.01 6.72 6.72 6.72s6.72-3.01 6.72-6.72c0-2.5-3.06-8.03-5.05-11.36-.75-1.26-2.58-1.26-3.34 0-1.99 3.33-5.05 8.86-5.05 11.36M24 24.44v13.69"/><path fill="#fff" d="M22.32 24.53c0-.93.75-1.68 1.68-1.68s1.68.75 1.68 1.68-.75 1.68-1.68 1.68-1.68-.75-1.68-1.68"/><path stroke="#fff" stroke-linecap="round" stroke-linejoin="round" stroke-width="1.11" d="m13.41 24.35-6.39 4.71 6.39 4.71m21.18-9.42 6.39 4.71-6.39 4.71"/></g><defs><clipPath id="a"><path fill="#fff" d="M0 0h48v48H0z"/></clipPath></defs></svg>