<svg xmlns="http://www.w3.org/2000/svg" width="32" height="32" fill="none" viewBox="0 0 32 32"><g clip-path="url(#a)"><path fill="#006d68" d="M19.68 32H0v-7.08c0-1.74.45-3.38 1.25-4.8a9.83 9.83 0 0 1 8.59-5.04c5.43 0 9.84 4.41 9.84 9.84z"/><path fill="#a5c352" d="M32 32H12.32v-7.08c0-5.43 4.41-9.84 9.84-9.84 2.04 0 3.93.62 5.5 1.68A9.82 9.82 0 0 1 32 24.92zM9.19 13.94a5.2 5.2 0 1 0 0-10.4 5.2 5.2 0 0 0 0 10.4"/><path stroke="#006d68" stroke-linecap="round" stroke-miterlimit="10" stroke-width=".74" d="M4.18 8.19c.17-.54.69-.9 1.24-1.03 1.88-.45 3.76-.04 5.59-.44.84-.18 1.65-.56 2.27-1.15.63-.59 1.05-1.41 1.1-2.27"/><path fill="#006d68" d="M22.73 13.94a5.2 5.2 0 1 0 0-10.4 5.2 5.2 0 0 0 0 10.4"/><path stroke="#006d68" stroke-linecap="round" stroke-miterlimit="10" stroke-width=".74" d="M22.73 8.07a3.69 3.69 0 1 0 0-7.38 3.69 3.69 0 0 0 0 7.38Z"/></g><defs><clipPath id="a"><path fill="#fff" d="M0 0h32v32H0z"/></clipPath></defs></svg>