<svg xmlns="http://www.w3.org/2000/svg" width="504" height="436" fill="none" viewBox="0 0 504 436"><g stroke-linecap="round" stroke-linejoin="round" stroke-width="1.27" clip-path="url(#a)"><path stroke="url(#b)" d="M92.216 71.297C164.03-9.247 267.324-14.866 360.277 25.291c14.533 6.274 28.46 18.07 40.144 28.519 27.623 24.684 48.738 56.273 60.858 91.309 5.709 16.505 9.43 32.075 7.915 49.368-1.37 15.692 1.927 28.386 2.921 44.174.873 13.835-4.642 30.473-8.715 43.519-9.248 29.623-24.896 57.074-45.525 80.229-18.12 20.327-39.659 36.383-63.597 49.186-18.63 9.951-41.126 11.359-60.871 17.743-20.702 6.686-41.161 6.99-63.027 4.356-44.374-5.352-87.294-23.931-120.71-53.797-39.599-35.424-65.258-84.805-71.428-137.619-3.042-26.092-1.381-52.718 4.934-78.215 4.411-17.791 13.756-32.912 23.09-48.434 9.211-15.303 13.975-30.91 25.95-44.332"/><path stroke="url(#c)" d="M406.894 373.392c-10.146 2.391-23.951-1.335-32.642-6.602-4.521-2.743-9.09-5.522-12.872-9.223-8.727-8.568-12.339-21.626-10.678-33.749 3.563-25.971 29.805-43.119 48.592-58.47 37.938-30.995 64.07-76.031 60.288-126.224"/><path stroke="url(#d)" d="M421.014 357.434c-8.278 1.953-20.908-2.44-28.011-6.748-3.697-2.245-7.43-4.514-10.521-7.536-7.127-7.003-10.084-17.658-8.727-27.56 2.909-21.214 24.339-35.218 39.696-47.767 30.992-25.315 49.38-61.394 53.537-103.105"/><path stroke="url(#e)" d="M433.789 340.796c-6.423 1.517-16.52-2.877-22.035-6.214-2.873-1.735-5.769-3.495-8.157-5.849-5.527-5.425-7.818-13.702-6.764-21.383 2.255-16.457 18.884-27.318 30.799-37.051 19.902-16.262 36.277-49.295 41.586-75.812"/><path stroke="url(#f)" d="M439.51 331.463c-5.503 1.298-13.66-2.075-18.363-4.927-2.448-1.493-4.933-2.998-6.981-5-4.727-4.648-6.691-11.723-5.794-18.289 1.927-14.077 16.157-23.373 26.351-31.698 16.896-13.799 31.926-36.771 34.75-58.179"/><path stroke="url(#g)" d="M445.219 321.463c-4.569 1.08-10.787-.606-14.702-2.973-2.037-1.238-4.097-2.488-5.806-4.162-3.927-3.86-5.564-9.745-4.812-15.207 1.6-11.698 13.43-19.429 21.89-26.346 17.09-13.968 30.411-27.512 28.702-50.121"/><path stroke="url(#h)" d="M350.302 413.561c-22.532-4.805-44.701-20.594-55.525-41.14-10.618-20.169-6.181-45.836 3.273-65.751 17.32-36.468 49.598-58.579 76.53-87.317 21.138-22.548 33.295-46.601 41.053-76.261 5.49-20.994 9.575-47.22 3.454-68.518"/><path stroke="url(#i)" d="M359.999 408.015c-21.393-4.563-37.817-17.791-48.083-37.293-10.085-19.15-5.867-43.519 3.103-62.414 16.435-34.623 47.077-55.606 72.651-82.887 20.06-21.408 31.611-44.235 38.968-72.39 5.212-19.927 9.697-44.756 3.891-64.974"/><path stroke="url(#j)" d="M375.598 395.115c-18.533-3.957-35.696-16.104-44.592-33.01-8.739-16.589-5.091-37.705 2.691-54.076 14.241-30 49.258-46.395 71.427-70.036 17.381-18.543 39.307-50.666 45.756-117.777"/><path stroke="url(#k)" d="M344.969 109.137c-9.309 33.506-34.665 59.076-63.864 76.625-26.544 15.958-65.973 12.427-96.469 21.638-16.993 5.133-30.689 21.055-45.21 31.273-6.072 4.272-12.206 8.58-19.029 11.481-16.582 7.038-36.775 4.769-51.368-5.801-26.569-19.211-30.896-51.965-24.569-84.78 3.164-16.396 14.351-30.607 21.818-43.944 7.284-13.009 10.75-25.193 20.86-37.96C95.584 67 113.353 50.29 124.032 41.856c19.514-15.412 40.422-24.259 63.949-32.293 8.617-2.949 26.944-5.995 35.925-7.233 77.67-10.716 141.085 34.708 121.062 106.807"/><path stroke="url(#l)" d="M189.036 17.354c8.339-2.9 24.787-5.776 33.465-7.05 26.496-3.8 51.428-.717 71.779 8.142 11.588 5.085 21.636 12.075 29.344 20.91 14.994 17.184 20.775 41.262 13.26 68.81-8.52 31.261-31.841 55.059-58.93 71.406-24.812 14.976-60.871 13.119-89.33 20.91-16.824 4.6-29.769 18.313-43.901 28.483-1.018.728-2.024 1.456-3.055 2.184-4.787 3.41-9.672 6.687-14.957 9.09-15.708 7.184-34.253 5.558-48.58-5.558-22.932-17.816-27.392-46.492-22.205-75.642 2.594-14.612 12.085-27.354 18.412-39.429 6.533-12.476 10.048-24.272 19.405-36.371 4.012-5.23 9.988-11.65 16.254-17.815 6.436-6.335 13.199-12.415 18.472-16.675 18.387-14.757 38.313-23.665 60.567-31.383z"/><path stroke="url(#m)" d="M190.103 25.145c8.048-2.852 22.617-5.582 31.004-6.869 24.278-3.701 47.441-1.238 66.773 6.65 10.8 4.406 20.339 10.583 27.721 18.641 14.435 15.728 19.902 38.53 13.187 63.628-7.733 29.016-29.017 51.042-54.01 66.176-23.09 13.98-55.792 13.749-82.178 20.169-16.666 4.054-28.836 15.57-42.605 25.692-.957.703-1.915 1.407-2.884 2.111-4.546 3.325-9.164 6.541-14.097 8.956-14.836 7.318-31.756 6.396-45.78-5.327-19.417-16.238-23.89-41.019-19.853-66.504 2.012-12.815 9.793-24.114 15.005-34.927 5.77-11.965 9.394-23.312 17.951-34.78 3.878-5.195 9.381-11.311 15.175-17.16 5.963-6.008 12.242-11.772 17.393-16.007 17.272-14.102 36.205-23.083 57.198-30.473z"/><path stroke="url(#n)" d="M191.169 32.925c7.758-2.792 20.46-5.377 28.545-6.675 22.059-3.556 43.428-1.724 61.779 5.157 10.012 3.75 19.041 9.078 26.096 16.36 13.878 14.283 19.029 35.788 13.102 58.457-6.945 26.772-26.193 47.026-49.089 60.958-21.356 12.997-50.725 14.332-75.039 19.429-16.521 3.471-27.902 12.84-41.295 22.9-.897.668-1.806 1.36-2.727 2.051-4.291 3.24-8.642 6.384-13.236 8.811-13.963 7.451-29.296 7.305-42.98-5.085-16.012-14.502-20.4-35.546-17.502-57.353 1.442-11.032 7.478-20.898 11.599-30.413 4.982-11.468 8.69-22.39 16.496-33.19 3.733-5.158 8.764-10.971 14.097-16.493 5.478-5.692 11.272-11.129 16.314-15.34 16.133-13.483 34.084-22.487 53.816-29.562z"/><path stroke="url(#o)" d="M192.224 40.715c7.478-2.742 18.302-5.157 26.084-6.492 19.853-3.398 39.404-2.185 56.785 3.665 9.212 3.094 17.745 7.585 24.472 14.09 13.32 12.827 18.157 33.057 13.03 53.275-6.158 24.526-23.381 43.009-44.168 55.727-19.624 12.015-45.683 14.842-67.888 18.689-16.375 2.84-26.981 10.097-39.987 20.109-.848.643-1.697 1.311-2.557 1.978-4.048 3.168-8.121 6.238-12.375 8.677-13.091 7.585-26.896 8.313-40.193-4.854-12.726-12.621-16.908-30.072-15.15-48.215.872-9.235 5.114-17.706 8.205-25.898 4.146-11.007 7.988-21.468 15.042-31.601 3.576-5.133 8.157-10.619 13.018-15.837 4.993-5.364 10.327-10.473 15.223-14.672 15.042-12.791 31.975-21.893 50.447-28.653z"/><path stroke="url(#p)" d="M193.29 48.507c7.188-2.694 16.145-4.94 23.636-6.31 17.648-3.229 35.38-2.622 51.792 2.171 8.411 2.464 16.447 6.093 22.847 11.808 12.763 11.372 17.284 30.316 12.957 48.106-5.381 22.282-20.557 39.005-39.235 50.509-17.902 11.02-40.652 15.279-60.736 17.961-16.254 2.16-26.048 7.354-38.69 17.318-.788.619-1.588 1.262-2.4 1.917-3.793 3.083-7.611 6.092-11.514 8.544-12.218 7.718-24.678 9.478-37.393-4.612-9.575-10.618-13.405-24.587-12.799-39.077.291-7.451 2.691-14.538 4.8-21.395 3.236-10.558 7.272-20.558 13.587-30.012 3.418-5.109 7.539-10.279 11.927-15.181a169 169 0 0 1 14.145-14.005c13.926-12.136 29.865-21.298 47.064-27.742z"/><path stroke="url(#q)" d="M296.438 103.312c3.515-15.352-.679-32.997-12.885-42.924-6.072-4.94-13.623-7.694-21.223-9.527-22.641-5.461-46.241-2.9-67.973 5.437s-41.598 22.475-56.749 40.169c-10.666 12.451-19.527 26.893-22.993 42.936-3.454 16.044-.982 33.822 9.054 46.808 15.502 20.072 30.399 8.531 45.247-4.017 13.454-11.371 22.532-14.879 39.61-16.371 36.423-3.192 78.845-22.937 87.912-62.499z"/><path stroke="url(#r)" d="M194.83 62.875c-19.296 7.245-36.92 19.49-50.762 34.648-10.012 10.958-18.702 23.677-21.999 38.264-3.442 14.975-1.054 30.727 8.012 42.074 13.721 17.172 27.368 7.731 41.016-2.973 12.145-9.514 20.593-12.682 35.708-14.223 19.442-1.99 40.301-8.956 55.464-20.534 11.406-8.701 20.436-20.084 24.217-34.72 3.552-13.592.255-29.478-10.46-38.616-5.418-4.624-12.254-7.22-19.199-8.883-6.618-1.59-13.357-2.367-20.072-2.476-14.217-.23-28.435 2.452-41.925 7.451z"/><path stroke="url(#s)" d="M195.315 69.465c-16.885 6.08-32.278 16.492-44.774 29.126-9.37 9.466-17.83 20.461-21.018 33.604-3.381 13.931-1.139 27.62 6.97 37.329 11.939 14.284 24.314 6.929 36.798-1.942 10.824-7.682 18.654-10.485 31.805-12.075 17.733-2.136 36.302-8.628 49.137-18.131 10.194-7.548 18.533-17.208 22.327-29.878 3.551-11.856 1.2-25.958-8.036-34.307-4.764-4.309-10.885-6.736-17.188-8.24-5.951-1.42-12.084-2.064-18.12-2.112-12.836-.097-25.684 2.22-37.889 6.614z"/><path stroke="url(#t)" d="M196.284 82.632c-12.023 3.86-23.09 10.437-32.81 18.082-8.17 6.432-16.157 14.029-19.042 24.284-3.321 11.82-1.346 21.419 4.885 27.839 8.302 8.544 18.132 5.267 28.338.146 8.096-4.066 14.787-6.165 23.999-7.767 14.326-2.476 28.338-7.9 36.459-13.337 7.781-5.207 14.775-11.444 18.557-20.194 3.612-8.362 3.09-18.956-3.188-25.692-3.455-3.7-8.145-5.776-13.139-6.953-4.642-1.092-9.527-1.444-14.242-1.36a103.2 103.2 0 0 0-29.817 4.952"/><path stroke="url(#u)" d="M222.841 124.379c5.26-3.095 10.545-6.578 13.829-11.723 3.273-5.146 4.012-12.391.194-17.148-4.472-5.582-12.848-5.643-19.914-4.6a124.4 124.4 0 0 0-21.381 5.122 125 125 0 0 0-20.157 8.786c-6.836 3.726-13.841 8.799-15.732 16.359-2.485 9.939-.364 15.461 4.363 18.058s12.06 2.269 19.999.522c15.878-3.483 34.157-12.621 38.811-15.364z"/><path stroke="url(#v)" d="M210.175 119.755c2.46-1.456 4.945-3.082 6.484-5.497 1.54-2.415 1.879-5.813.085-8.046-2.097-2.609-6.024-2.646-9.333-2.16a58.6 58.6 0 0 0-19.466 6.517c-3.2 1.747-6.484 4.126-7.369 7.669-4.667 18.641 25.247 4.078 29.611 1.505z"/><path stroke="url(#w)" d="M51.539 296.039c29.768 35.558 86.093 17.985 114.322-9.041 15.006-14.369 23.769-32.281 44.168-40.74 16.375-6.796 34.811-5.692 52.277-8.774 78.906-13.92 143.448-122.644 117.571-199.827"/><path stroke="url(#x)" d="M45.648 278.478c28.799 34.405 88.845 19.369 116.153-6.771 14.508-13.896 22.993-31.225 42.725-39.417 15.842-6.565 33.684-5.51 50.568-8.495 76.324-13.459 150.018-113.178 105.183-198.516"/><path stroke="url(#y)" d="M38.242 242.277c13.285 47.499 83.985 46.347 111.281 20.206 14.508-13.895 22.993-31.225 42.725-39.417 15.842-6.565 33.683-5.509 50.568-8.495C319.14 201.113 400.021 97.086 337.89 16.577"/><path stroke="url(#z)" d="M303.48 426.571c-18.036-2.318-32.641-14.745-40.059-31.371-6.533-14.648-9.709-30.631-9.769-46.65-.061-14.854-1.103-28.761-9.333-41.722-13.442-21.165-45.986-7.415-59.44 6.953-8.703 9.296-17.394 18.714-27.211 26.869-20.121 16.723-43.756 24.817-69.33 16.019"/><path stroke="url(#A)" d="M293.42 429.325c-16.218-1.747-33.344-13.118-40.411-27.948a97 97 0 0 1-5.951-15.959c-2.376-8.592-3.37-17.33-3.261-26.067.17-13.35-.206-25.825-6.945-37.851-3.89-6.954-10.06-10.571-17.151-11.469-6.763-.874-14.302.716-21.065 3.859-6.945 3.216-13.006 7.986-17.309 12.755-7.672 8.483-15.417 17.002-24.156 24.417a94 94 0 0 1-7.345 5.655c-16.133 11.141-35.126 15.959-54.81 9.041"/><path stroke="url(#B)" d="M281.372 432.529c-14.618-1.225-28.508-12.257-35.32-25.509a85 85 0 0 1-5.806-14.32c-2.4-7.888-3.212-15.789-2.945-23.665.388-12.026.678-23.276-4.703-34.502-3.236-6.759-8.836-10.837-15.551-12.196-6.46-1.311-13.854-.121-20.375 2.912-6.642 3.095-12.23 7.949-16.399 12.731-6.776 7.767-13.66 15.521-21.442 22.281a84 84 0 0 1-6.557 5.158c-14.278 10.06-31.805 14.696-49.295 8.398"/><path stroke="url(#C)" d="M268.451 434.52c-12.339-.668-25.405-11.529-31.611-22.549a71 71 0 0 1-5.345-12.014c-2.291-6.808-2.885-13.483-2.497-20.133.582-10.133 1.491-19.648-2.364-29.478-2.436-6.225-7.199-10.497-13.199-12.208s-12.678-.898-18.593 1.881c-6 2.815-10.836 7.451-14.654 12.002-5.576 6.65-11.26 13.289-17.745 19.077a69 69 0 0 1-5.466 4.418c-11.769 8.507-29.66 12.499-44.156 7.123"/><path stroke="url(#D)" d="M253.3 435.223c-9.854-6.007-16.327-10.303-22.338-19.975a61.7 61.7 0 0 1-5.261-10.619c-2.351-6.226-2.763-12.184-2.242-18.119.8-9.004 2.388-17.536-.327-26.674-1.819-6.128-6.134-10.849-11.854-12.997-5.612-2.1-12.388-1.687-18.121 1.031-5.782 2.731-10.242 7.476-13.951 12.087-4.836 6.02-9.745 12.051-15.417 17.294a65 65 0 0 1-4.788 4.017c-10.169 7.609-26.617 11.929-39.211 7.075"/><path stroke="url(#E)" d="M241.688 434.774c-7.393-3.543-13.623-7.451-19.041-15.218-1.988-2.84-3.612-5.789-4.824-8.604-2.255-5.255-2.473-10.158-1.843-15 .934-7.342 3.115-14.381 1.6-22.245-1.091-5.631-4.727-10.461-9.793-12.839-5.018-2.379-11.272-2.294-16.46.17-5.176 2.463-9.006 6.966-12.351 11.359-3.818 5.012-7.673 10.085-12.194 14.453a48 48 0 0 1-3.842 3.362c-7.987 6.238-21.393 10.789-31.38 6.748"/><path stroke="url(#F)" d="M230.949 433.974c-9.623.885-19.138-9.26-23.029-17.1-5.309-10.716 2.558-18.834 1.709-29.72-.388-5.036-3.381-9.794-7.757-12.318-4.364-2.524-9.988-2.743-14.533-.57-4.509 2.16-7.696 6.31-10.618 10.376-3.636 5.085-7.211 10.327-12.011 14.32-5.903 4.891-15.696 8.119-23.175 4.891"/><path stroke="url(#G)" d="M264.306 343.975c0-24.284-7.442-41.517-10.012-45.436-4.982-7.573-12.945-13.325-21.89-14.806-3.176-.522-14.448-5.57-47.513 30.072"/><path stroke="url(#H)" d="M71.174 332.094c20.666 6.553 44.047 6.299 64.252-1.577 16.933-6.602 50.822-36.165 66.991-61.055 6.618-10.182 17.442-16.905 29.478-18.495.085 0 .17-.024.254-.036 8.703-1.153 16.375 2.33 25.296 1.577 8-.679 16.678-1.978 24.169-5.024 6.824-2.779 13.224-4.308 19.72-8.386 13.273-8.325 110.832-68.749 93.33-188.953"/><path stroke="url(#I)" d="M400.433 53.81c3.964 7.208 4.073 28.36 4.691 36.564 4.424 58.64-27.041 103.215-47.743 125.824-7.358 8.033-15.77 14.987-24.836 21.031-25.126 16.747-45.331 41.164-54.41 57.305-5.66 10.351-13.042 37.669-13.829 49.441-1.2 17.827 3.902 36.443 15.866 49.708 11.284 12.511 30.204 21.31 45.78 27.718"/><path stroke="url(#J)" d="M248.064 277.593c5.115 2.621 7.648 5.242 11.381 9.611.861 1.007 1.77 2.051 3.018 2.524 2.206.838 4.776-.497 6.097-2.463 1.842-2.731 2.824-8.265 2.715-11.529-.17-4.624-4.497-7.973-8.751-9.782-6.473-2.754-13.539-3.519-20.52-3.507-5.418 0-12.667-.497-17.248 3.01-5.782 4.442.994 7.136 5.187 7.852 6.315 1.08 12.267 1.262 18.133 4.271z"/></g><g filter="url(#K)"><rect width="155" height="44" x="19" y="53.531" fill="#fff" rx="8"/><path fill="#006d69" d="M37.54 80.675q-1.712 0-2.928-.704a4.7 4.7 0 0 1-1.872-2q-.64-1.312-.64-3.088t.64-3.072a4.7 4.7 0 0 1 1.872-2q1.215-.704 2.928-.704 1.152 0 2.144.368 1.008.351 1.68 1.024l-.576 1.328q-.735-.656-1.52-.944a4.5 4.5 0 0 0-1.68-.304q-1.824 0-2.784 1.12t-.96 3.184.96 3.2q.96 1.12 2.784 1.12.912 0 1.68-.288.785-.305 1.52-.96l.576 1.328q-.672.671-1.68 1.04a6.4 6.4 0 0 1-2.144.352m8.41 0q-1.184 0-2.048-.496a3.46 3.46 0 0 1-1.328-1.408q-.48-.912-.48-2.144 0-1.248.48-2.144a3.45 3.45 0 0 1 1.328-1.408q.864-.495 2.048-.496 1.167 0 2.016.496.864.495 1.344 1.408t.48 2.144-.48 2.144a3.4 3.4 0 0 1-1.344 1.408q-.849.495-2.016.496m-.016-1.248q1.008 0 1.616-.72t.608-2.08q0-1.376-.608-2.08t-1.616-.704q-.992 0-1.6.704t-.608 2.08q0 1.36.608 2.08.607.72 1.6.72m8.215 1.248q-1.281 0-1.92-.72-.624-.736-.624-2.112V69.25h1.616v8.496q0 .511.144.88.144.351.432.528.288.176.72.176.192 0 .368-.016t.336-.064l-.032 1.296a5 5 0 0 1-.528.096q-.256.032-.512.032m4.89 0q-1.28 0-1.92-.72-.624-.736-.624-2.112V69.25h1.616v8.496q0 .511.144.88.144.351.432.528.288.176.72.176.192 0 .368-.016.177-.016.336-.064l-.032 1.296a5 5 0 0 1-.528.096q-.255.032-.512.032m4.843 0a3.3 3.3 0 0 1-1.472-.32 2.6 2.6 0 0 1-1.008-.864 2.15 2.15 0 0 1-.368-1.232q0-.864.432-1.36.448-.513 1.456-.72 1.024-.225 2.752-.224h.752v.992h-.736q-.864 0-1.456.064-.593.064-.944.208-.352.128-.512.368a1.1 1.1 0 0 0-.144.576q0 .608.416.992.415.368 1.152.368.592 0 1.04-.272.448-.288.704-.768a2.2 2.2 0 0 0 .272-1.104v-1.84q0-.913-.384-1.312-.384-.4-1.264-.4-.672 0-1.344.208a5.6 5.6 0 0 0-1.376.624l-.496-1.136q.416-.289.96-.496a6.6 6.6 0 0 1 1.136-.32 5.7 5.7 0 0 1 1.168-.128q1.072 0 1.76.336.704.336 1.04 1.024t.336 1.776v4.816h-1.52v-1.744h.144a2.4 2.4 0 0 1-.48 1.024 2.2 2.2 0 0 1-.848.64q-.511.225-1.168.224m10.29 0q-1.025 0-1.776-.512a2.54 2.54 0 0 1-1.008-1.392h.176v1.76H69.98V69.25h1.616v5.184h-.192a2.4 2.4 0 0 1 1.008-1.344q.752-.513 1.76-.512 1.056 0 1.824.496.768.495 1.184 1.392.432.895.432 2.16 0 1.231-.432 2.16-.417.912-1.2 1.408-.768.48-1.808.48m-.4-1.248q1.008 0 1.6-.72.608-.72.608-2.08 0-1.376-.608-2.08-.592-.704-1.6-.704-.993 0-1.6.704-.609.704-.608 2.08 0 1.36.608 2.08.607.72 1.6.72m9.053 1.248q-1.184 0-2.048-.496a3.46 3.46 0 0 1-1.328-1.408q-.48-.912-.48-2.144 0-1.248.48-2.144a3.45 3.45 0 0 1 1.328-1.408q.863-.495 2.048-.496 1.167 0 2.016.496.864.495 1.344 1.408t.48 2.144-.48 2.144a3.4 3.4 0 0 1-1.344 1.408q-.848.495-2.016.496m-.016-1.248q1.007 0 1.616-.72.608-.72.608-2.08 0-1.376-.608-2.08-.609-.704-1.616-.704-.993 0-1.6.704-.609.704-.608 2.08 0 1.36.608 2.08.607.72 1.6.72m5.67 1.104v-7.808h1.569v1.872h-.16q.255-.96.912-1.456.672-.496 1.776-.576l.528-.032.112 1.376-.976.096q-1.041.095-1.584.656-.544.56-.544 1.536v4.336zm8.387.144a3.3 3.3 0 0 1-1.472-.32 2.6 2.6 0 0 1-1.008-.864 2.15 2.15 0 0 1-.368-1.232q0-.864.432-1.36.448-.513 1.456-.72 1.024-.225 2.752-.224h.752v.992h-.736q-.864 0-1.456.064-.591.064-.944.208-.351.128-.512.368a1.1 1.1 0 0 0-.144.576q0 .608.416.992.417.368 1.152.368.593 0 1.04-.272.449-.288.704-.768a2.2 2.2 0 0 0 .272-1.104v-1.84q0-.913-.384-1.312-.384-.4-1.264-.4-.672 0-1.344.208a5.6 5.6 0 0 0-1.376.624l-.496-1.136q.417-.289.96-.496a6.6 6.6 0 0 1 1.136-.32 5.7 5.7 0 0 1 1.168-.128q1.073 0 1.76.336.704.336 1.04 1.024t.336 1.776v4.816h-1.52v-1.744h.144a2.4 2.4 0 0 1-.48 1.024 2.2 2.2 0 0 1-.848.64q-.511.225-1.168.224m9.426 0q-1.456 0-2.192-.752-.72-.753-.72-2.176V73.97h-1.52v-1.248h1.52V70.37h1.616v2.352h2.416v1.248h-2.416v3.648q0 .848.352 1.28.368.432 1.184.432.24 0 .48-.064.256-.065.496-.128l.256 1.216q-.24.144-.672.224a3.6 3.6 0 0 1-.8.096m2.372-9.76v-1.68h1.888v1.68zm.144 9.616v-7.808h1.616v7.808zm7.283.144q-1.185 0-2.048-.496a3.45 3.45 0 0 1-1.328-1.408q-.48-.912-.48-2.144 0-1.248.48-2.144a3.45 3.45 0 0 1 1.328-1.408q.863-.495 2.048-.496 1.167 0 2.016.496.864.495 1.344 1.408t.48 2.144-.48 2.144a3.4 3.4 0 0 1-1.344 1.408q-.849.495-2.016.496m-.016-1.248q1.008 0 1.616-.72t.608-2.08q0-1.376-.608-2.08t-1.616-.704q-.993 0-1.6.704t-.608 2.08q0 1.36.608 2.08.607.72 1.6.72m5.67 1.104v-7.808h1.568v1.664h-.176q.352-.897 1.104-1.344.753-.465 1.728-.464.928 0 1.536.352.625.335.928 1.04.304.688.304 1.744v4.816h-1.616v-4.72q0-.671-.176-1.088a1.27 1.27 0 0 0-.528-.64q-.351-.208-.912-.208-.64 0-1.136.272-.48.271-.752.784-.255.512-.256 1.184v4.416z"/><g filter="url(#L)"><rect width="28" height="28" x="138" y="61.531" fill="#006d69" rx="8"/><rect width="26" height="26" x="139" y="62.531" stroke="url(#M)" stroke-width="2" rx="7"/><path stroke="#006d69" stroke-linecap="round" stroke-linejoin="round" stroke-width="2" d="M146.167 75.53h11.666M152 69.698v11.667"/><path stroke="#fff" stroke-linecap="round" stroke-linejoin="round" stroke-opacity=".95" stroke-width="2" d="M146.167 75.53h11.666M152 69.698v11.667"/></g></g><g filter="url(#N)"><rect width="155" height="44" x="342" y="307.625" fill="#fff" rx="8"/><path fill="#006d69" d="M355.422 334.625v-11.28h1.392l4.432 8.256h-.496l4.4-8.256h1.36v11.28h-1.488v-8.928h.352l-3.888 7.2h-1.008l-3.936-7.216h.384v8.944zm16.965.144q-1.184 0-2.048-.496a3.45 3.45 0 0 1-1.328-1.408q-.48-.912-.48-2.144 0-1.247.48-2.144a3.46 3.46 0 0 1 1.328-1.408q.864-.495 2.048-.496 1.169 0 2.016.496.864.496 1.344 1.408t.48 2.144-.48 2.144a3.4 3.4 0 0 1-1.344 1.408q-.847.496-2.016.496m-.016-1.248q1.008 0 1.616-.72t.608-2.08q0-1.375-.608-2.08-.608-.704-1.616-.704-.991 0-1.6.704-.608.705-.608 2.08 0 1.36.608 2.08.609.72 1.6.72m8.647 1.248q-1.023 0-1.808-.48-.768-.495-1.2-1.408-.432-.927-.432-2.16 0-1.263.432-2.16.432-.895 1.2-1.392.785-.495 1.808-.496 1.025 0 1.76.512.753.497 1.008 1.344h-.176v-5.184h1.616v11.28h-1.584v-1.76h.16a2.54 2.54 0 0 1-1.008 1.392q-.735.512-1.776.512m.416-1.248q.993 0 1.6-.72t.608-2.08q0-1.375-.608-2.08-.607-.704-1.6-.704-1.007 0-1.616.704-.608.705-.608 2.08 0 1.36.608 2.08.609.72 1.616.72m9.725 1.248q-1.28 0-2.208-.48a3.57 3.57 0 0 1-1.424-1.392q-.495-.912-.496-2.16 0-1.215.496-2.128a3.65 3.65 0 0 1 1.36-1.424q.864-.512 1.968-.512 1.088 0 1.856.48.785.465 1.2 1.328.416.864.416 2.064v.544h-6.016v-.992h4.928l-.272.224q0-1.2-.528-1.856t-1.52-.656q-.752 0-1.28.352-.511.352-.784.976-.272.624-.272 1.456v.096q0 .929.288 1.568a2.1 2.1 0 0 0 .88.944q.576.32 1.424.32.672 0 1.312-.208a4 4 0 0 0 1.232-.688l.48 1.12q-.528.48-1.36.752a5.4 5.4 0 0 1-1.68.272m7.474 0q-1.28 0-1.92-.72-.624-.735-.624-2.112v-8.592h1.616v8.496q0 .513.144.88.144.352.432.528t.72.176q.192 0 .368-.016.175-.015.336-.064l-.032 1.296a5 5 0 0 1-.528.096 4 4 0 0 1-.512.032m11.782 0q-1.712 0-2.928-.704a4.7 4.7 0 0 1-1.872-2q-.64-1.312-.64-3.088t.64-3.072a4.7 4.7 0 0 1 1.872-2q1.216-.704 2.928-.704 1.152 0 2.144.368 1.008.352 1.68 1.024l-.576 1.328q-.736-.656-1.52-.944a4.5 4.5 0 0 0-1.68-.304q-1.824 0-2.784 1.12t-.96 3.184.96 3.2q.96 1.12 2.784 1.12.912 0 1.68-.288.784-.303 1.52-.96l.576 1.328q-.672.672-1.68 1.04a6.4 6.4 0 0 1-2.144.352m5.58-.144v-11.28h1.616v5.136h-.224q.353-.895 1.104-1.344.753-.464 1.728-.464.929 0 1.536.352.625.336.928 1.04.304.688.304 1.744v4.816h-1.616v-4.72q0-.672-.176-1.088a1.27 1.27 0 0 0-.528-.64q-.351-.207-.912-.208a2.33 2.33 0 0 0-1.136.272q-.48.273-.752.784-.256.512-.256 1.184v4.416zm12.611.144q-1.184 0-2.048-.496a3.45 3.45 0 0 1-1.328-1.408q-.48-.912-.48-2.144 0-1.247.48-2.144a3.46 3.46 0 0 1 1.328-1.408q.864-.495 2.048-.496 1.168 0 2.016.496.864.496 1.344 1.408t.48 2.144-.48 2.144a3.4 3.4 0 0 1-1.344 1.408q-.848.496-2.016.496m-.016-1.248q1.008 0 1.616-.72t.608-2.08q0-1.375-.608-2.08-.608-.704-1.616-.704-.992 0-1.6.704-.608.705-.608 2.08 0 1.36.608 2.08t1.6.72m5.527-8.512v-1.68h1.888v1.68zm.144 9.616v-7.808h1.616v7.808zm7.331.144q-1.2 0-2.08-.496a3.53 3.53 0 0 1-1.344-1.424q-.48-.927-.48-2.176 0-1.231.48-2.128a3.34 3.34 0 0 1 1.344-1.376q.88-.495 2.08-.496.736 0 1.456.256.72.24 1.184.704l-.512 1.136a2.7 2.7 0 0 0-.976-.608 2.9 2.9 0 0 0-1.024-.208q-1.136 0-1.76.72-.608.705-.608 2.016 0 1.312.608 2.064.623.736 1.76.736.48 0 1.024-.192.543-.207.976-.624l.512 1.152q-.465.432-1.2.688-.72.256-1.44.256m7.536 0q-1.28 0-2.208-.48a3.57 3.57 0 0 1-1.424-1.392q-.496-.912-.496-2.16 0-1.215.496-2.128a3.65 3.65 0 0 1 1.36-1.424q.864-.512 1.968-.512 1.088 0 1.856.48.785.465 1.2 1.328.416.864.416 2.064v.544h-6.016v-.992h4.928l-.272.224q0-1.2-.528-1.856t-1.52-.656q-.752 0-1.28.352-.512.352-.784.976t-.272 1.456v.096q0 .929.288 1.568a2.1 2.1 0 0 0 .88.944q.576.32 1.424.32a4.2 4.2 0 0 0 1.312-.208 4 4 0 0 0 1.232-.688l.48 1.12q-.528.48-1.36.752a5.4 5.4 0 0 1-1.68.272"/><g filter="url(#O)"><rect width="28" height="28" x="461" y="315.625" fill="#006d69" rx="8"/><rect width="26" height="26" x="462" y="316.625" stroke="url(#P)" stroke-width="2" rx="7"/><path stroke="#006d69" stroke-linecap="round" stroke-linejoin="round" stroke-width="2" d="M469.167 329.625h11.666M475 323.792v11.667"/><path stroke="#fff" stroke-linecap="round" stroke-linejoin="round" stroke-opacity=".95" stroke-width="2" d="M469.167 329.625h11.666M475 323.792v11.667"/></g></g><g filter="url(#Q)"><rect width="143" height="44" x="7" y="323.625" fill="#fff" rx="8"/><path fill="#006d69" d="M20.71 350.625v-11.28h4.672q1.824 0 2.816.864t.992 2.448q0 1.025-.448 1.76t-1.312 1.12q-.848.384-2.048.384l.144-.224h.416q.64 0 1.104.32.48.32.864 1.024l1.952 3.584h-1.824l-1.952-3.6a2.1 2.1 0 0 0-.496-.64 1.3 1.3 0 0 0-.608-.32 3 3 0 0 0-.8-.096h-1.808v4.656zm1.664-5.904h2.736q1.216 0 1.84-.512t.624-1.52q0-.991-.624-1.504-.624-.512-1.84-.512h-2.736zm12.465 6.048q-1.28 0-2.208-.48a3.57 3.57 0 0 1-1.424-1.392q-.495-.912-.496-2.16 0-1.216.496-2.128a3.65 3.65 0 0 1 1.36-1.424q.864-.512 1.968-.512 1.088 0 1.856.48.785.465 1.2 1.328.416.864.416 2.064v.544h-6.016v-.992h4.928l-.272.224q0-1.2-.528-1.856t-1.52-.656q-.752 0-1.28.352-.512.352-.784.976-.272.625-.272 1.456v.096q0 .929.288 1.568.304.624.88.944t1.424.32a4.2 4.2 0 0 0 1.312-.208 4 4 0 0 0 1.232-.688l.48 1.12q-.528.48-1.36.752a5.4 5.4 0 0 1-1.68.272m8.37 0q-1.2 0-2.08-.496a3.53 3.53 0 0 1-1.344-1.424q-.48-.928-.48-2.176 0-1.231.48-2.128a3.34 3.34 0 0 1 1.344-1.376q.88-.495 2.08-.496.736 0 1.456.256.72.24 1.184.704l-.512 1.136a2.7 2.7 0 0 0-.976-.608 2.9 2.9 0 0 0-1.024-.208q-1.136 0-1.76.72-.608.705-.608 2.016 0 1.312.608 2.064.624.736 1.76.736.48 0 1.024-.192.544-.207.976-.624l.512 1.152q-.465.433-1.2.688-.72.256-1.44.256m7.264 0q-1.184 0-2.048-.496a3.45 3.45 0 0 1-1.328-1.408q-.48-.912-.48-2.144 0-1.248.48-2.144a3.46 3.46 0 0 1 1.328-1.408q.864-.495 2.048-.496 1.169 0 2.016.496.864.496 1.344 1.408t.48 2.144-.48 2.144a3.4 3.4 0 0 1-1.344 1.408q-.847.496-2.016.496m-.016-1.248q1.008 0 1.616-.72t.608-2.08q0-1.375-.608-2.08-.608-.704-1.616-.704-.991 0-1.6.704-.608.705-.608 2.08 0 1.36.608 2.08.609.72 1.6.72m9.207 4.128q-1.056 0-1.968-.256a5 5 0 0 1-1.616-.768l.496-1.152q.465.305.944.512.495.224.992.32a5.6 5.6 0 0 0 1.04.096q1.12 0 1.68-.576.56-.56.56-1.664v-1.632h.144a2.37 2.37 0 0 1-1.008 1.392q-.768.512-1.776.512-1.056 0-1.84-.48a3.34 3.34 0 0 1-1.216-1.36q-.432-.88-.432-2.048t.432-2.032a3.23 3.23 0 0 1 1.216-1.344q.784-.495 1.84-.496 1.025 0 1.776.512.768.513.992 1.392h-.128v-1.76h1.568v7.152q0 1.216-.416 2.032a2.63 2.63 0 0 1-1.248 1.232q-.816.417-2.032.416m-.128-4.48q1.04 0 1.632-.704.609-.704.608-1.92 0-1.2-.608-1.904-.592-.704-1.632-.704-1.025 0-1.632.704-.608.704-.608 1.904 0 1.216.608 1.92.608.705 1.632.704m6.092 1.456v-7.808h1.568v1.664h-.176q.353-.895 1.104-1.344.753-.464 1.728-.464.928 0 1.536.352.624.336.928 1.04.304.688.304 1.744v4.816h-1.616v-4.72q0-.671-.176-1.088a1.27 1.27 0 0 0-.528-.64q-.351-.207-.912-.208-.64 0-1.136.272a1.9 1.9 0 0 0-.752.784q-.255.512-.256 1.184v4.416zm9.075-9.616v-1.68h1.888v1.68zm.144 9.616v-7.808h1.616v7.808zm7.219.144q-1.457 0-2.192-.752-.72-.751-.72-2.176v-3.776h-1.52v-1.248h1.52v-2.352h1.616v2.352h2.416v1.248H80.77v3.648q0 .849.352 1.28.368.432 1.184.432.24 0 .48-.064.255-.063.496-.128l.256 1.216q-.24.144-.672.224a3.6 3.6 0 0 1-.8.096m2.371-9.76v-1.68h1.888v1.68zm.144 9.616v-7.808h1.616v7.808zm7.283.144q-1.184 0-2.048-.496a3.45 3.45 0 0 1-1.328-1.408q-.48-.912-.48-2.144 0-1.248.48-2.144a3.46 3.46 0 0 1 1.328-1.408q.864-.495 2.048-.496 1.168 0 2.016.496.864.496 1.344 1.408t.48 2.144-.48 2.144a3.4 3.4 0 0 1-1.344 1.408q-.847.496-2.016.496m-.016-1.248q1.007 0 1.616-.72.608-.72.608-2.08 0-1.375-.608-2.08-.608-.704-1.616-.704-.992 0-1.6.704-.608.705-.608 2.08 0 1.36.608 2.08t1.6.72m5.67 1.104v-7.808h1.569v1.664h-.176q.351-.895 1.104-1.344.752-.464 1.728-.464.927 0 1.536.352.624.336.928 1.04.304.688.304 1.744v4.816h-1.616v-4.72q0-.671-.176-1.088a1.28 1.28 0 0 0-.528-.64q-.352-.207-.912-.208-.64 0-1.136.272a1.9 1.9 0 0 0-.752.784q-.255.512-.256 1.184v4.416z"/><g filter="url(#R)"><rect width="28" height="28" x="114" y="331.625" fill="#006d69" rx="8"/><rect width="26" height="26" x="115" y="332.625" stroke="url(#S)" stroke-width="2" rx="7"/><path stroke="#006d69" stroke-linecap="round" stroke-linejoin="round" stroke-width="2" d="M122.167 345.625h11.666M128 339.792v11.667"/><path stroke="#fff" stroke-linecap="round" stroke-linejoin="round" stroke-opacity=".95" stroke-width="2" d="M122.167 345.625h11.666M128 339.792v11.667"/></g></g><g filter="url(#T)"><rect width="145" height="44" x="338" y="77.626" fill="#fff" rx="8"/><path fill="#006d69" d="M351.601 104.625v-11.28h7.296v1.344h-5.696v3.537h5.36v1.344h-5.36v3.711h5.696v1.344zm11.648.144a3.3 3.3 0 0 1-1.472-.32 2.6 2.6 0 0 1-1.008-.864 2.15 2.15 0 0 1-.368-1.232q0-.864.432-1.36.448-.511 1.456-.72 1.024-.224 2.752-.224h.752v.992h-.736q-.864 0-1.456.064-.591.064-.944.208-.351.129-.512.368a1.1 1.1 0 0 0-.144.576q0 .609.416.992.417.368 1.152.368.593 0 1.04-.272.449-.288.704-.768.273-.48.272-1.104v-1.84q0-.912-.384-1.311-.384-.4-1.264-.4-.672 0-1.344.207a5.6 5.6 0 0 0-1.376.624l-.496-1.135q.417-.288.96-.496a6.7 6.7 0 0 1 1.136-.32 5.7 5.7 0 0 1 1.168-.129q1.073 0 1.76.337.704.336 1.04 1.023.336.69.336 1.776v4.816h-1.52v-1.744h.144a2.4 2.4 0 0 1-.48 1.024 2.2 2.2 0 0 1-.848.64q-.511.225-1.168.224m6.098-.144v-7.808h1.568v1.873h-.16q.257-.96.912-1.456.672-.497 1.776-.576l.528-.032.112 1.375-.976.096q-1.04.097-1.584.657t-.544 1.535v4.336zm8.513.144q-1.281 0-1.92-.72-.624-.735-.624-2.112v-8.591h1.616v8.495q0 .513.144.88.144.352.432.528t.72.176q.191 0 .368-.016.175-.016.336-.064l-.032 1.296a5 5 0 0 1-.528.096 4 4 0 0 1-.512.032m2.959 2.736 1.536-3.424v.688l-3.408-7.952h1.728l2.624 6.48h-.448l2.656-6.48h1.664l-4.656 10.688zm14.211-2.736a3.3 3.3 0 0 1-1.472-.32 2.6 2.6 0 0 1-1.008-.864 2.15 2.15 0 0 1-.368-1.232q0-.864.432-1.36.448-.511 1.456-.72 1.024-.224 2.752-.224h.752v.992h-.736q-.864 0-1.456.064-.591.064-.944.208-.351.129-.512.368a1.1 1.1 0 0 0-.144.576q0 .609.416.992.417.368 1.152.368.593 0 1.04-.272.449-.288.704-.768.272-.48.272-1.104v-1.84q0-.912-.384-1.311-.384-.4-1.264-.4-.672 0-1.344.207a5.6 5.6 0 0 0-1.376.624l-.496-1.135q.417-.288.96-.496a6.7 6.7 0 0 1 1.136-.32 5.7 5.7 0 0 1 1.168-.129q1.073 0 1.76.337.704.336 1.04 1.023.336.69.336 1.776v4.816h-1.52v-1.744h.144a2.4 2.4 0 0 1-.48 1.024 2.2 2.2 0 0 1-.848.64q-.511.225-1.168.224m9.538 0q-1.2 0-2.08-.496a3.53 3.53 0 0 1-1.344-1.424q-.48-.927-.48-2.176 0-1.23.48-2.127a3.34 3.34 0 0 1 1.344-1.377q.88-.495 2.08-.495.736 0 1.456.255.72.24 1.184.704l-.512 1.136a2.7 2.7 0 0 0-.976-.608 2.9 2.9 0 0 0-1.024-.207q-1.136 0-1.76.72-.608.703-.608 2.015t.608 2.064q.624.736 1.76.736.48 0 1.024-.192.544-.207.976-.624l.512 1.152q-.464.432-1.2.688-.72.256-1.44.256m7.313 0q-1.2 0-2.08-.496a3.53 3.53 0 0 1-1.344-1.424q-.48-.927-.48-2.176 0-1.23.48-2.127a3.34 3.34 0 0 1 1.344-1.377q.88-.495 2.08-.495.736 0 1.456.255.72.24 1.184.704l-.512 1.136a2.7 2.7 0 0 0-.976-.608 2.9 2.9 0 0 0-1.024-.207q-1.136 0-1.76.72-.609.703-.608 2.015 0 1.313.608 2.064.624.736 1.76.736.48 0 1.024-.192.543-.207.976-.624l.512 1.152q-.465.432-1.2.688-.72.256-1.44.256m7.536 0q-1.28 0-2.208-.48a3.57 3.57 0 0 1-1.424-1.392q-.495-.912-.496-2.16 0-1.216.496-2.127a3.64 3.64 0 0 1 1.36-1.424q.864-.513 1.968-.513 1.089 0 1.856.48.785.465 1.2 1.328.416.866.416 2.064v.544h-6.016v-.992h4.928l-.272.224q0-1.2-.528-1.855-.527-.657-1.52-.656-.752 0-1.28.352-.511.352-.784.975-.272.625-.272 1.456v.096q0 .929.288 1.568a2.1 2.1 0 0 0 .88.944q.576.32 1.424.32.673 0 1.312-.208a4 4 0 0 0 1.232-.688l.48 1.12q-.528.48-1.36.752a5.4 5.4 0 0 1-1.68.272m7.666 0q-.624 0-1.216-.112a5.3 5.3 0 0 1-1.088-.32 3.7 3.7 0 0 1-.88-.512l.464-1.088q.4.273.848.48.448.192.928.288.497.096.96.096.848 0 1.28-.304a.95.95 0 0 0 .432-.816q0-.415-.288-.64-.288-.24-.864-.368l-1.52-.304q-.992-.207-1.504-.736-.512-.528-.512-1.344 0-.735.4-1.28.4-.544 1.12-.831.72-.304 1.664-.304.544 0 1.056.111.512.113.96.32.464.21.784.528l-.464 1.089a3 3 0 0 0-.704-.465 3.6 3.6 0 0 0-.8-.288 3.2 3.2 0 0 0-.832-.111q-.848 0-1.28.32a.98.98 0 0 0-.416.832q0 .4.256.655.256.257.8.368l1.52.304q1.04.209 1.568.704.544.496.544 1.344 0 .737-.4 1.28-.4.544-1.136.832-.72.273-1.68.272m7.75 0q-.624 0-1.216-.112a5.3 5.3 0 0 1-1.088-.32 3.7 3.7 0 0 1-.88-.512l.464-1.088q.4.273.848.48.448.192.928.288.497.096.96.096.848 0 1.28-.304a.95.95 0 0 0 .432-.816q0-.415-.288-.64-.288-.24-.864-.368l-1.52-.304q-.992-.207-1.504-.736-.512-.528-.512-1.344 0-.735.4-1.28.4-.544 1.12-.831.72-.304 1.664-.304.544 0 1.056.111.512.113.96.32.464.21.784.528l-.464 1.089a3 3 0 0 0-.704-.465 3.6 3.6 0 0 0-.8-.288 3.2 3.2 0 0 0-.832-.111q-.848 0-1.28.32a.98.98 0 0 0-.416.832q0 .4.256.655.256.257.8.368l1.52.304q1.04.209 1.568.704.544.496.544 1.344 0 .737-.4 1.28-.4.544-1.136.832-.72.273-1.68.272"/><g filter="url(#U)"><rect width="28" height="28" x="447" y="85.626" fill="#006d69" rx="8"/><rect width="26" height="26" x="448" y="86.626" stroke="url(#V)" stroke-width="2" rx="7"/><path stroke="#006d69" stroke-linecap="round" stroke-linejoin="round" stroke-width="2" d="M455.167 99.625h11.666M461 93.792v11.667"/><path stroke="#fff" stroke-linecap="round" stroke-linejoin="round" stroke-opacity=".95" stroke-width="2" d="M455.167 99.625h11.666M461 93.792v11.667"/></g></g><g filter="url(#W)"><rect width="146" height="44" x="185" y="188.625" fill="#fff" rx="8"/><path fill="#006d69" d="M203.661 215.769q-1.2 0-2.176-.4a4.6 4.6 0 0 1-1.68-1.168 5.3 5.3 0 0 1-1.056-1.824q-.368-1.071-.368-2.4t.368-2.384a5.1 5.1 0 0 1 1.056-1.824 4.5 4.5 0 0 1 1.664-1.168q.976-.4 2.192-.4 1.2 0 2.176.4a4.6 4.6 0 0 1 1.664 1.152q.704.753 1.072 1.824.368 1.056.368 2.384 0 1.329-.368 2.4a5.2 5.2 0 0 1-1.072 1.84 4.5 4.5 0 0 1-1.664 1.168q-.976.4-2.176.4m0-1.44q1.12 0 1.904-.512.8-.512 1.216-1.488.432-.975.432-2.352 0-1.375-.416-2.352-.416-.975-1.216-1.472-.785-.512-1.92-.512-1.12 0-1.92.512-.784.497-1.216 1.472-.416.977-.416 2.352 0 1.36.416 2.352.432.976 1.216 1.488.8.513 1.92.512m7.334 4.176v-10.688h1.584v1.76h-.176a2.47 2.47 0 0 1 1.008-1.376q.753-.528 1.776-.528 1.04 0 1.808.496.784.496 1.2 1.392.432.897.432 2.16 0 1.233-.432 2.16-.416.912-1.184 1.408-.768.48-1.824.48-1.007 0-1.76-.512a2.47 2.47 0 0 1-1.008-1.36h.192v4.608zm3.792-3.984q1.008 0 1.6-.72.608-.72.608-2.08 0-1.375-.608-2.08-.591-.704-1.6-.704-.991 0-1.6.704-.608.705-.608 2.08 0 1.36.608 2.08.609.72 1.6.72m5.662 3.984v-10.688h1.584v1.76h-.176a2.46 2.46 0 0 1 1.008-1.376q.752-.528 1.776-.528 1.04 0 1.808.496.783.496 1.2 1.392.432.897.432 2.16 0 1.233-.432 2.16-.416.912-1.184 1.408-.768.48-1.824.48-1.008 0-1.76-.512a2.46 2.46 0 0 1-1.008-1.36h.192v4.608zm3.792-3.984q1.008 0 1.6-.72.608-.72.608-2.08 0-1.375-.608-2.08-.592-.704-1.6-.704-.993 0-1.6.704-.609.705-.608 2.08 0 1.36.608 2.08.607.72 1.6.72m9.053 1.248q-1.184 0-2.048-.496a3.45 3.45 0 0 1-1.328-1.408q-.48-.912-.48-2.144 0-1.247.48-2.144a3.45 3.45 0 0 1 1.328-1.408q.864-.495 2.048-.496 1.167 0 2.016.496.864.496 1.344 1.408t.48 2.144-.48 2.144a3.4 3.4 0 0 1-1.344 1.408q-.849.496-2.016.496m-.016-1.248q1.007 0 1.616-.72.608-.72.608-2.08 0-1.375-.608-2.08-.609-.704-1.616-.704-.993 0-1.6.704-.608.705-.608 2.08 0 1.36.608 2.08.607.72 1.6.72m5.671 1.104v-7.808h1.568v1.872h-.16q.255-.96.912-1.456.672-.495 1.776-.576l.528-.032.112 1.376-.976.096q-1.041.096-1.584.656-.544.561-.544 1.536v4.336zm9.734.144q-1.457 0-2.192-.752-.72-.751-.72-2.176v-3.776h-1.52v-1.248h1.52v-2.352h1.616v2.352h2.416v1.248h-2.416v3.648q0 .849.352 1.28.368.432 1.184.432.24 0 .48-.064.255-.063.496-.128l.256 1.216q-.24.144-.672.224a3.6 3.6 0 0 1-.8.096m5.3 0q-.945 0-1.584-.352a2.24 2.24 0 0 1-.944-1.04q-.304-.704-.304-1.76v-4.8h1.616v4.816q0 .624.16 1.04.175.416.528.608.367.192.912.192.607 0 1.072-.272.463-.271.72-.784.255-.512.256-1.184v-4.416h1.616v7.808h-1.568v-1.712h.208q-.32.897-1.024 1.376-.705.48-1.664.48m6.325-.144v-7.808h1.568v1.664h-.176q.353-.896 1.104-1.344.751-.464 1.728-.464.928 0 1.536.352.624.336.928 1.04.304.688.304 1.744v4.816h-1.616v-4.72q0-.672-.176-1.088a1.27 1.27 0 0 0-.528-.64q-.352-.208-.912-.208-.64 0-1.136.272a1.9 1.9 0 0 0-.752.784 2.6 2.6 0 0 0-.256 1.184v4.416zm9.075-9.616v-1.68h1.888v1.68zm.144 9.616v-7.808h1.616v7.808zm7.218.144q-1.455 0-2.192-.752-.72-.751-.72-2.176v-3.776h-1.52v-1.248h1.52v-2.352h1.616v2.352h2.416v1.248h-2.416v3.648q0 .849.352 1.28.368.432 1.184.432.24 0 .48-.064.256-.063.496-.128l.256 1.216q-.24.144-.672.224a3.6 3.6 0 0 1-.8.096m3.425 2.736 1.536-3.424v.688l-3.408-7.952h1.728l2.624 6.48h-.448l2.656-6.48h1.664l-4.656 10.688z"/><g filter="url(#X)"><rect width="28" height="28" x="295" y="196.625" fill="#006d69" rx="8"/><rect width="26" height="26" x="296" y="197.625" stroke="url(#Y)" stroke-width="2" rx="7"/><path stroke="#006d69" stroke-linecap="round" stroke-linejoin="round" stroke-width="2" d="M303.167 210.625h11.666M309 204.792v11.667"/><path stroke="#fff" stroke-linecap="round" stroke-linejoin="round" stroke-opacity=".95" stroke-width="2" d="M303.167 210.625h11.666M309 204.792v11.667"/></g></g><defs><linearGradient id="b" x1="36" x2="473" y1="218.079" y2="218.079" gradientUnits="userSpaceOnUse"><stop stop-color="#006d68"/><stop offset=".14" stop-color="#107566"/><stop offset=".4" stop-color="#3a8c60"/><stop offset=".77" stop-color="#7eb158"/><stop offset="1" stop-color="#acca53"/></linearGradient><linearGradient id="c" x1="349.538" x2="460.709" y1="256.622" y2="256.622" gradientUnits="userSpaceOnUse"><stop stop-color="#006d68"/><stop offset=".14" stop-color="#107566"/><stop offset=".4" stop-color="#3a8c60"/><stop offset=".77" stop-color="#7eb158"/><stop offset="1" stop-color="#acca53"/></linearGradient><linearGradient id="d" x1="372.677" x2="467.764" y1="261.306" y2="261.306" gradientUnits="userSpaceOnUse"><stop stop-color="#006d68"/><stop offset=".14" stop-color="#107566"/><stop offset=".4" stop-color="#3a8c60"/><stop offset=".77" stop-color="#7eb158"/><stop offset="1" stop-color="#acca53"/></linearGradient><linearGradient id="e" x1="395.815" x2="469.982" y1="267.799" y2="267.799" gradientUnits="userSpaceOnUse"><stop stop-color="#006d68"/><stop offset=".14" stop-color="#107566"/><stop offset=".4" stop-color="#3a8c60"/><stop offset=".77" stop-color="#7eb158"/><stop offset="1" stop-color="#acca53"/></linearGradient><linearGradient id="f" x1="407.39" x2="470.236" y1="272.556" y2="272.556" gradientUnits="userSpaceOnUse"><stop stop-color="#006d68"/><stop offset=".14" stop-color="#107566"/><stop offset=".4" stop-color="#3a8c60"/><stop offset=".77" stop-color="#7eb158"/><stop offset="1" stop-color="#acca53"/></linearGradient><linearGradient id="g" x1="418.954" x2="471.424" y1="272.229" y2="272.229" gradientUnits="userSpaceOnUse"><stop stop-color="#006d68"/><stop offset=".14" stop-color="#107566"/><stop offset=".4" stop-color="#3a8c60"/><stop offset=".77" stop-color="#7eb158"/><stop offset="1" stop-color="#acca53"/></linearGradient><linearGradient id="h" x1="287.844" x2="422.917" y1="244.062" y2="244.062" gradientUnits="userSpaceOnUse"><stop stop-color="#006d68"/><stop offset=".14" stop-color="#107566"/><stop offset=".4" stop-color="#3a8c60"/><stop offset=".77" stop-color="#7eb158"/><stop offset="1" stop-color="#acca53"/></linearGradient><linearGradient id="i" x1="305.298" x2="434.032" y1="248.03" y2="248.03" gradientUnits="userSpaceOnUse"><stop stop-color="#006d68"/><stop offset=".14" stop-color="#107566"/><stop offset=".4" stop-color="#3a8c60"/><stop offset=".77" stop-color="#7eb158"/><stop offset="1" stop-color="#acca53"/></linearGradient><linearGradient id="j" x1="325.176" x2="451.655" y1="257.653" y2="257.653" gradientUnits="userSpaceOnUse"><stop stop-color="#006d68"/><stop offset=".14" stop-color="#107566"/><stop offset=".4" stop-color="#3a8c60"/><stop offset=".77" stop-color="#7eb158"/><stop offset="1" stop-color="#acca53"/></linearGradient><linearGradient id="k" x1="41.115" x2="349.466" y1="127.486" y2="127.486" gradientUnits="userSpaceOnUse"><stop stop-color="#006d68"/><stop offset=".14" stop-color="#107566"/><stop offset=".4" stop-color="#3a8c60"/><stop offset=".77" stop-color="#7eb158"/><stop offset="1" stop-color="#acca53"/></linearGradient><linearGradient id="l" x1="53.199" x2="340.933" y1="126.636" y2="126.636" gradientUnits="userSpaceOnUse"><stop stop-color="#006d68"/><stop offset=".14" stop-color="#107566"/><stop offset=".4" stop-color="#3a8c60"/><stop offset=".77" stop-color="#7eb158"/><stop offset="1" stop-color="#acca53"/></linearGradient><linearGradient id="m" x1="65.247" x2="332.412" y1="125.787" y2="125.787" gradientUnits="userSpaceOnUse"><stop stop-color="#006d68"/><stop offset=".14" stop-color="#107566"/><stop offset=".4" stop-color="#3a8c60"/><stop offset=".77" stop-color="#7eb158"/><stop offset="1" stop-color="#acca53"/></linearGradient><linearGradient id="n" x1="77.235" x2="323.891" y1="124.937" y2="124.937" gradientUnits="userSpaceOnUse"><stop stop-color="#006d68"/><stop offset=".14" stop-color="#107566"/><stop offset=".4" stop-color="#3a8c60"/><stop offset=".77" stop-color="#7eb158"/><stop offset="1" stop-color="#acca53"/></linearGradient><linearGradient id="o" x1="89.149" x2="315.382" y1="124.112" y2="124.112" gradientUnits="userSpaceOnUse"><stop stop-color="#006d68"/><stop offset=".14" stop-color="#107566"/><stop offset=".4" stop-color="#3a8c60"/><stop offset=".77" stop-color="#7eb158"/><stop offset="1" stop-color="#acca53"/></linearGradient><linearGradient id="p" x1="100.918" x2="306.886" y1="123.311" y2="123.311" gradientUnits="userSpaceOnUse"><stop stop-color="#006d68"/><stop offset=".14" stop-color="#107566"/><stop offset=".4" stop-color="#3a8c60"/><stop offset=".77" stop-color="#7eb158"/><stop offset="1" stop-color="#acca53"/></linearGradient><linearGradient id="q" x1="112.36" x2="298.413" y1="122.535" y2="122.535" gradientUnits="userSpaceOnUse"><stop stop-color="#006d68"/><stop offset=".14" stop-color="#107566"/><stop offset=".4" stop-color="#3a8c60"/><stop offset=".77" stop-color="#7eb158"/><stop offset="1" stop-color="#acca53"/></linearGradient><linearGradient id="r" x1="119.79" x2="288.632" y1="121.369" y2="121.369" gradientUnits="userSpaceOnUse"><stop stop-color="#006d68"/><stop offset=".14" stop-color="#107566"/><stop offset=".4" stop-color="#3a8c60"/><stop offset=".77" stop-color="#7eb158"/><stop offset="1" stop-color="#acca53"/></linearGradient><linearGradient id="s" x1="127.233" x2="278.899" y1="120.204" y2="120.204" gradientUnits="userSpaceOnUse"><stop stop-color="#006d68"/><stop offset=".14" stop-color="#107566"/><stop offset=".4" stop-color="#3a8c60"/><stop offset=".77" stop-color="#7eb158"/><stop offset="1" stop-color="#acca53"/></linearGradient><linearGradient id="t" x1="142.068" x2="259.688" y1="117.886" y2="117.886" gradientUnits="userSpaceOnUse"><stop stop-color="#006d68"/><stop offset=".14" stop-color="#107566"/><stop offset=".4" stop-color="#3a8c60"/><stop offset=".77" stop-color="#7eb158"/><stop offset="1" stop-color="#acca53"/></linearGradient><linearGradient id="u" x1="157.85" x2="240.21" y1="115.738" y2="115.738" gradientUnits="userSpaceOnUse"><stop stop-color="#006d68"/><stop offset=".14" stop-color="#107566"/><stop offset=".4" stop-color="#3a8c60"/><stop offset=".77" stop-color="#7eb158"/><stop offset="1" stop-color="#acca53"/></linearGradient><linearGradient id="v" x1="179.303" x2="218.72" y1="115.702" y2="115.702" gradientUnits="userSpaceOnUse"><stop stop-color="#006d68"/><stop offset=".14" stop-color="#107566"/><stop offset=".4" stop-color="#3a8c60"/><stop offset=".77" stop-color="#7eb158"/><stop offset="1" stop-color="#acca53"/></linearGradient><linearGradient id="w" x1="50.763" x2="386.446" y1="176.83" y2="176.83" gradientUnits="userSpaceOnUse"><stop stop-color="#006d68"/><stop offset=".14" stop-color="#107566"/><stop offset=".4" stop-color="#3a8c60"/><stop offset=".77" stop-color="#7eb158"/><stop offset="1" stop-color="#acca53"/></linearGradient><linearGradient id="x" x1="44.885" x2="374.689" y1="161.903" y2="161.903" gradientUnits="userSpaceOnUse"><stop stop-color="#006d68"/><stop offset=".14" stop-color="#107566"/><stop offset=".4" stop-color="#3a8c60"/><stop offset=".77" stop-color="#7eb158"/><stop offset="1" stop-color="#acca53"/></linearGradient><linearGradient id="y" x1="37.479" x2="360.774" y1="148.529" y2="148.529" gradientUnits="userSpaceOnUse"><stop stop-color="#006d68"/><stop offset=".14" stop-color="#107566"/><stop offset=".4" stop-color="#3a8c60"/><stop offset=".77" stop-color="#7eb158"/><stop offset="1" stop-color="#acca53"/></linearGradient><linearGradient id="z" x1="87.574" x2="304.255" y1="361.256" y2="361.256" gradientUnits="userSpaceOnUse"><stop stop-color="#006d68"/><stop offset=".14" stop-color="#107566"/><stop offset=".4" stop-color="#3a8c60"/><stop offset=".77" stop-color="#7eb158"/><stop offset="1" stop-color="#acca53"/></linearGradient><linearGradient id="A" x1="94.264" x2="294.195" y1="369.557" y2="369.557" gradientUnits="userSpaceOnUse"><stop stop-color="#006d68"/><stop offset=".14" stop-color="#107566"/><stop offset=".4" stop-color="#3a8c60"/><stop offset=".77" stop-color="#7eb158"/><stop offset="1" stop-color="#acca53"/></linearGradient><linearGradient id="B" x1="102.228" x2="282.147" y1="377.166" y2="377.166" gradientUnits="userSpaceOnUse"><stop stop-color="#006d68"/><stop offset=".14" stop-color="#107566"/><stop offset=".4" stop-color="#3a8c60"/><stop offset=".77" stop-color="#7eb158"/><stop offset="1" stop-color="#acca53"/></linearGradient><linearGradient id="C" x1="112.057" x2="269.215" y1="385.892" y2="385.892" gradientUnits="userSpaceOnUse"><stop stop-color="#006d68"/><stop offset=".14" stop-color="#107566"/><stop offset=".4" stop-color="#3a8c60"/><stop offset=".77" stop-color="#7eb158"/><stop offset="1" stop-color="#acca53"/></linearGradient><linearGradient id="D" x1="119.015" x2="254.076" y1="390.37" y2="390.37" gradientUnits="userSpaceOnUse"><stop stop-color="#006d68"/><stop offset=".14" stop-color="#107566"/><stop offset=".4" stop-color="#3a8c60"/><stop offset=".77" stop-color="#7eb158"/><stop offset="1" stop-color="#acca53"/></linearGradient><linearGradient id="E" x1="130.796" x2="242.464" y1="396.947" y2="396.947" gradientUnits="userSpaceOnUse"><stop stop-color="#006d68"/><stop offset=".14" stop-color="#107566"/><stop offset=".4" stop-color="#3a8c60"/><stop offset=".77" stop-color="#7eb158"/><stop offset="1" stop-color="#acca53"/></linearGradient><linearGradient id="F" x1="140.784" x2="231.713" y1="403.391" y2="403.391" gradientUnits="userSpaceOnUse"><stop stop-color="#006d68"/><stop offset=".14" stop-color="#107566"/><stop offset=".4" stop-color="#3a8c60"/><stop offset=".77" stop-color="#7eb158"/><stop offset="1" stop-color="#acca53"/></linearGradient><linearGradient id="G" x1="184.115" x2="265.069" y1="313.587" y2="313.587" gradientUnits="userSpaceOnUse"><stop stop-color="#006d68"/><stop offset=".14" stop-color="#107566"/><stop offset=".4" stop-color="#3a8c60"/><stop offset=".77" stop-color="#7eb158"/><stop offset="1" stop-color="#acca53"/></linearGradient><linearGradient id="H" x1="70.411" x2="397.536" y1="193.431" y2="193.431" gradientUnits="userSpaceOnUse"><stop stop-color="#006d68"/><stop offset=".14" stop-color="#107566"/><stop offset=".4" stop-color="#3a8c60"/><stop offset=".77" stop-color="#7eb158"/><stop offset="1" stop-color="#acca53"/></linearGradient><linearGradient id="I" x1="263.36" x2="406.312" y1="237.605" y2="237.605" gradientUnits="userSpaceOnUse"><stop stop-color="#006d68"/><stop offset=".14" stop-color="#107566"/><stop offset=".4" stop-color="#3a8c60"/><stop offset=".77" stop-color="#7eb158"/><stop offset="1" stop-color="#acca53"/></linearGradient><linearGradient id="J" x1="221.738" x2="272.027" y1="276.221" y2="276.221" gradientUnits="userSpaceOnUse"><stop stop-color="#006d68"/><stop offset=".14" stop-color="#107566"/><stop offset=".4" stop-color="#3a8c60"/><stop offset=".77" stop-color="#7eb158"/><stop offset="1" stop-color="#acca53"/></linearGradient><linearGradient id="M" x1="152" x2="152" y1="61.531" y2="89.531" gradientUnits="userSpaceOnUse"><stop stop-color="#fff" stop-opacity=".12"/><stop offset="1" stop-color="#fff" stop-opacity="0"/></linearGradient><linearGradient id="P" x1="475" x2="475" y1="315.625" y2="343.625" gradientUnits="userSpaceOnUse"><stop stop-color="#fff" stop-opacity=".12"/><stop offset="1" stop-color="#fff" stop-opacity="0"/></linearGradient><linearGradient id="S" x1="128" x2="128" y1="331.625" y2="359.625" gradientUnits="userSpaceOnUse"><stop stop-color="#fff" stop-opacity=".12"/><stop offset="1" stop-color="#fff" stop-opacity="0"/></linearGradient><linearGradient id="V" x1="461" x2="461" y1="85.626" y2="113.625" gradientUnits="userSpaceOnUse"><stop stop-color="#fff" stop-opacity=".12"/><stop offset="1" stop-color="#fff" stop-opacity="0"/></linearGradient><linearGradient id="Y" x1="309" x2="309" y1="196.625" y2="224.625" gradientUnits="userSpaceOnUse"><stop stop-color="#fff" stop-opacity=".12"/><stop offset="1" stop-color="#fff" stop-opacity="0"/></linearGradient><filter id="K" width="169" height="58" x="12" y="49.531" color-interpolation-filters="sRGB" filterUnits="userSpaceOnUse"><feFlood flood-opacity="0" result="BackgroundImageFix"/><feColorMatrix in="SourceAlpha" result="hardAlpha" values="0 0 0 0 0 0 0 0 0 0 0 0 0 0 0 0 0 0 127 0"/><feMorphology in="SourceAlpha" radius="1" result="effect1_dropShadow_8190_414"/><feOffset dy="3"/><feGaussianBlur stdDeviation="4"/><feColorMatrix values="0 0 0 0 0.196078 0 0 0 0 0.196078 0 0 0 0 0.278431 0 0 0 0.05 0"/><feBlend in2="BackgroundImageFix" result="effect1_dropShadow_8190_414"/><feColorMatrix in="SourceAlpha" result="hardAlpha" values="0 0 0 0 0 0 0 0 0 0 0 0 0 0 0 0 0 0 127 0"/><feOffset/><feGaussianBlur stdDeviation=".5"/><feColorMatrix values="0 0 0 0 0.0470588 0 0 0 0 0.101961 0 0 0 0 0.294118 0 0 0 0.24 0"/><feBlend in2="effect1_dropShadow_8190_414" result="effect2_dropShadow_8190_414"/><feBlend in="SourceGraphic" in2="effect2_dropShadow_8190_414" result="shape"/></filter><filter id="L" width="32" height="32" x="136" y="60.531" color-interpolation-filters="sRGB" filterUnits="userSpaceOnUse"><feFlood flood-opacity="0" result="BackgroundImageFix"/><feColorMatrix in="SourceAlpha" result="hardAlpha" values="0 0 0 0 0 0 0 0 0 0 0 0 0 0 0 0 0 0 127 0"/><feOffset dy="1"/><feGaussianBlur stdDeviation="1"/><feColorMatrix values="0 0 0 0 0.0392157 0 0 0 0 0.0509804 0 0 0 0 0.0705882 0 0 0 0.05 0"/><feBlend in2="BackgroundImageFix" result="effect1_dropShadow_8190_414"/><feBlend in="SourceGraphic" in2="effect1_dropShadow_8190_414" result="shape"/><feColorMatrix in="SourceAlpha" result="hardAlpha" values="0 0 0 0 0 0 0 0 0 0 0 0 0 0 0 0 0 0 127 0"/><feOffset dy="-2"/><feComposite in2="hardAlpha" k2="-1" k3="1" operator="arithmetic"/><feColorMatrix values="0 0 0 0 0.0392157 0 0 0 0 0.0496732 0 0 0 0 0.0705882 0 0 0 0.05 0"/><feBlend in2="shape" result="effect2_innerShadow_8190_414"/><feColorMatrix in="SourceAlpha" result="hardAlpha" values="0 0 0 0 0 0 0 0 0 0 0 0 0 0 0 0 0 0 127 0"/><feMorphology in="SourceAlpha" radius="1" result="effect3_innerShadow_8190_414"/><feOffset/><feComposite in2="hardAlpha" k2="-1" k3="1" operator="arithmetic"/><feColorMatrix values="0 0 0 0 0.0392157 0 0 0 0 0.0496732 0 0 0 0 0.0705882 0 0 0 0.18 0"/><feBlend in2="effect2_innerShadow_8190_414" result="effect3_innerShadow_8190_414"/></filter><filter id="N" width="169" height="58" x="335" y="303.625" color-interpolation-filters="sRGB" filterUnits="userSpaceOnUse"><feFlood flood-opacity="0" result="BackgroundImageFix"/><feColorMatrix in="SourceAlpha" result="hardAlpha" values="0 0 0 0 0 0 0 0 0 0 0 0 0 0 0 0 0 0 127 0"/><feMorphology in="SourceAlpha" radius="1" result="effect1_dropShadow_8190_414"/><feOffset dy="3"/><feGaussianBlur stdDeviation="4"/><feColorMatrix values="0 0 0 0 0.196078 0 0 0 0 0.196078 0 0 0 0 0.278431 0 0 0 0.05 0"/><feBlend in2="BackgroundImageFix" result="effect1_dropShadow_8190_414"/><feColorMatrix in="SourceAlpha" result="hardAlpha" values="0 0 0 0 0 0 0 0 0 0 0 0 0 0 0 0 0 0 127 0"/><feOffset/><feGaussianBlur stdDeviation=".5"/><feColorMatrix values="0 0 0 0 0.0470588 0 0 0 0 0.101961 0 0 0 0 0.294118 0 0 0 0.24 0"/><feBlend in2="effect1_dropShadow_8190_414" result="effect2_dropShadow_8190_414"/><feBlend in="SourceGraphic" in2="effect2_dropShadow_8190_414" result="shape"/></filter><filter id="O" width="32" height="32" x="459" y="314.625" color-interpolation-filters="sRGB" filterUnits="userSpaceOnUse"><feFlood flood-opacity="0" result="BackgroundImageFix"/><feColorMatrix in="SourceAlpha" result="hardAlpha" values="0 0 0 0 0 0 0 0 0 0 0 0 0 0 0 0 0 0 127 0"/><feOffset dy="1"/><feGaussianBlur stdDeviation="1"/><feColorMatrix values="0 0 0 0 0.0392157 0 0 0 0 0.0509804 0 0 0 0 0.0705882 0 0 0 0.05 0"/><feBlend in2="BackgroundImageFix" result="effect1_dropShadow_8190_414"/><feBlend in="SourceGraphic" in2="effect1_dropShadow_8190_414" result="shape"/><feColorMatrix in="SourceAlpha" result="hardAlpha" values="0 0 0 0 0 0 0 0 0 0 0 0 0 0 0 0 0 0 127 0"/><feOffset dy="-2"/><feComposite in2="hardAlpha" k2="-1" k3="1" operator="arithmetic"/><feColorMatrix values="0 0 0 0 0.0392157 0 0 0 0 0.0496732 0 0 0 0 0.0705882 0 0 0 0.05 0"/><feBlend in2="shape" result="effect2_innerShadow_8190_414"/><feColorMatrix in="SourceAlpha" result="hardAlpha" values="0 0 0 0 0 0 0 0 0 0 0 0 0 0 0 0 0 0 127 0"/><feMorphology in="SourceAlpha" radius="1" result="effect3_innerShadow_8190_414"/><feOffset/><feComposite in2="hardAlpha" k2="-1" k3="1" operator="arithmetic"/><feColorMatrix values="0 0 0 0 0.0392157 0 0 0 0 0.0496732 0 0 0 0 0.0705882 0 0 0 0.18 0"/><feBlend in2="effect2_innerShadow_8190_414" result="effect3_innerShadow_8190_414"/></filter><filter id="Q" width="157" height="58" x="0" y="319.625" color-interpolation-filters="sRGB" filterUnits="userSpaceOnUse"><feFlood flood-opacity="0" result="BackgroundImageFix"/><feColorMatrix in="SourceAlpha" result="hardAlpha" values="0 0 0 0 0 0 0 0 0 0 0 0 0 0 0 0 0 0 127 0"/><feMorphology in="SourceAlpha" radius="1" result="effect1_dropShadow_8190_414"/><feOffset dy="3"/><feGaussianBlur stdDeviation="4"/><feColorMatrix values="0 0 0 0 0.196078 0 0 0 0 0.196078 0 0 0 0 0.278431 0 0 0 0.05 0"/><feBlend in2="BackgroundImageFix" result="effect1_dropShadow_8190_414"/><feColorMatrix in="SourceAlpha" result="hardAlpha" values="0 0 0 0 0 0 0 0 0 0 0 0 0 0 0 0 0 0 127 0"/><feOffset/><feGaussianBlur stdDeviation=".5"/><feColorMatrix values="0 0 0 0 0.0470588 0 0 0 0 0.101961 0 0 0 0 0.294118 0 0 0 0.24 0"/><feBlend in2="effect1_dropShadow_8190_414" result="effect2_dropShadow_8190_414"/><feBlend in="SourceGraphic" in2="effect2_dropShadow_8190_414" result="shape"/></filter><filter id="R" width="32" height="32" x="112" y="330.625" color-interpolation-filters="sRGB" filterUnits="userSpaceOnUse"><feFlood flood-opacity="0" result="BackgroundImageFix"/><feColorMatrix in="SourceAlpha" result="hardAlpha" values="0 0 0 0 0 0 0 0 0 0 0 0 0 0 0 0 0 0 127 0"/><feOffset dy="1"/><feGaussianBlur stdDeviation="1"/><feColorMatrix values="0 0 0 0 0.0392157 0 0 0 0 0.0509804 0 0 0 0 0.0705882 0 0 0 0.05 0"/><feBlend in2="BackgroundImageFix" result="effect1_dropShadow_8190_414"/><feBlend in="SourceGraphic" in2="effect1_dropShadow_8190_414" result="shape"/><feColorMatrix in="SourceAlpha" result="hardAlpha" values="0 0 0 0 0 0 0 0 0 0 0 0 0 0 0 0 0 0 127 0"/><feOffset dy="-2"/><feComposite in2="hardAlpha" k2="-1" k3="1" operator="arithmetic"/><feColorMatrix values="0 0 0 0 0.0392157 0 0 0 0 0.0496732 0 0 0 0 0.0705882 0 0 0 0.05 0"/><feBlend in2="shape" result="effect2_innerShadow_8190_414"/><feColorMatrix in="SourceAlpha" result="hardAlpha" values="0 0 0 0 0 0 0 0 0 0 0 0 0 0 0 0 0 0 127 0"/><feMorphology in="SourceAlpha" radius="1" result="effect3_innerShadow_8190_414"/><feOffset/><feComposite in2="hardAlpha" k2="-1" k3="1" operator="arithmetic"/><feColorMatrix values="0 0 0 0 0.0392157 0 0 0 0 0.0496732 0 0 0 0 0.0705882 0 0 0 0.18 0"/><feBlend in2="effect2_innerShadow_8190_414" result="effect3_innerShadow_8190_414"/></filter><filter id="T" width="159" height="58" x="331" y="73.626" color-interpolation-filters="sRGB" filterUnits="userSpaceOnUse"><feFlood flood-opacity="0" result="BackgroundImageFix"/><feColorMatrix in="SourceAlpha" result="hardAlpha" values="0 0 0 0 0 0 0 0 0 0 0 0 0 0 0 0 0 0 127 0"/><feMorphology in="SourceAlpha" radius="1" result="effect1_dropShadow_8190_414"/><feOffset dy="3"/><feGaussianBlur stdDeviation="4"/><feColorMatrix values="0 0 0 0 0.196078 0 0 0 0 0.196078 0 0 0 0 0.278431 0 0 0 0.05 0"/><feBlend in2="BackgroundImageFix" result="effect1_dropShadow_8190_414"/><feColorMatrix in="SourceAlpha" result="hardAlpha" values="0 0 0 0 0 0 0 0 0 0 0 0 0 0 0 0 0 0 127 0"/><feOffset/><feGaussianBlur stdDeviation=".5"/><feColorMatrix values="0 0 0 0 0.0470588 0 0 0 0 0.101961 0 0 0 0 0.294118 0 0 0 0.24 0"/><feBlend in2="effect1_dropShadow_8190_414" result="effect2_dropShadow_8190_414"/><feBlend in="SourceGraphic" in2="effect2_dropShadow_8190_414" result="shape"/></filter><filter id="U" width="32" height="32" x="445" y="84.626" color-interpolation-filters="sRGB" filterUnits="userSpaceOnUse"><feFlood flood-opacity="0" result="BackgroundImageFix"/><feColorMatrix in="SourceAlpha" result="hardAlpha" values="0 0 0 0 0 0 0 0 0 0 0 0 0 0 0 0 0 0 127 0"/><feOffset dy="1"/><feGaussianBlur stdDeviation="1"/><feColorMatrix values="0 0 0 0 0.0392157 0 0 0 0 0.0509804 0 0 0 0 0.0705882 0 0 0 0.05 0"/><feBlend in2="BackgroundImageFix" result="effect1_dropShadow_8190_414"/><feBlend in="SourceGraphic" in2="effect1_dropShadow_8190_414" result="shape"/><feColorMatrix in="SourceAlpha" result="hardAlpha" values="0 0 0 0 0 0 0 0 0 0 0 0 0 0 0 0 0 0 127 0"/><feOffset dy="-2"/><feComposite in2="hardAlpha" k2="-1" k3="1" operator="arithmetic"/><feColorMatrix values="0 0 0 0 0.0392157 0 0 0 0 0.0496732 0 0 0 0 0.0705882 0 0 0 0.05 0"/><feBlend in2="shape" result="effect2_innerShadow_8190_414"/><feColorMatrix in="SourceAlpha" result="hardAlpha" values="0 0 0 0 0 0 0 0 0 0 0 0 0 0 0 0 0 0 127 0"/><feMorphology in="SourceAlpha" radius="1" result="effect3_innerShadow_8190_414"/><feOffset/><feComposite in2="hardAlpha" k2="-1" k3="1" operator="arithmetic"/><feColorMatrix values="0 0 0 0 0.0392157 0 0 0 0 0.0496732 0 0 0 0 0.0705882 0 0 0 0.18 0"/><feBlend in2="effect2_innerShadow_8190_414" result="effect3_innerShadow_8190_414"/></filter><filter id="W" width="160" height="58" x="178" y="184.625" color-interpolation-filters="sRGB" filterUnits="userSpaceOnUse"><feFlood flood-opacity="0" result="BackgroundImageFix"/><feColorMatrix in="SourceAlpha" result="hardAlpha" values="0 0 0 0 0 0 0 0 0 0 0 0 0 0 0 0 0 0 127 0"/><feMorphology in="SourceAlpha" radius="1" result="effect1_dropShadow_8190_414"/><feOffset dy="3"/><feGaussianBlur stdDeviation="4"/><feColorMatrix values="0 0 0 0 0.196078 0 0 0 0 0.196078 0 0 0 0 0.278431 0 0 0 0.05 0"/><feBlend in2="BackgroundImageFix" result="effect1_dropShadow_8190_414"/><feColorMatrix in="SourceAlpha" result="hardAlpha" values="0 0 0 0 0 0 0 0 0 0 0 0 0 0 0 0 0 0 127 0"/><feOffset/><feGaussianBlur stdDeviation=".5"/><feColorMatrix values="0 0 0 0 0.0470588 0 0 0 0 0.101961 0 0 0 0 0.294118 0 0 0 0.24 0"/><feBlend in2="effect1_dropShadow_8190_414" result="effect2_dropShadow_8190_414"/><feBlend in="SourceGraphic" in2="effect2_dropShadow_8190_414" result="shape"/></filter><filter id="X" width="32" height="32" x="293" y="195.625" color-interpolation-filters="sRGB" filterUnits="userSpaceOnUse"><feFlood flood-opacity="0" result="BackgroundImageFix"/><feColorMatrix in="SourceAlpha" result="hardAlpha" values="0 0 0 0 0 0 0 0 0 0 0 0 0 0 0 0 0 0 127 0"/><feOffset dy="1"/><feGaussianBlur stdDeviation="1"/><feColorMatrix values="0 0 0 0 0.0392157 0 0 0 0 0.0509804 0 0 0 0 0.0705882 0 0 0 0.05 0"/><feBlend in2="BackgroundImageFix" result="effect1_dropShadow_8190_414"/><feBlend in="SourceGraphic" in2="effect1_dropShadow_8190_414" result="shape"/><feColorMatrix in="SourceAlpha" result="hardAlpha" values="0 0 0 0 0 0 0 0 0 0 0 0 0 0 0 0 0 0 127 0"/><feOffset dy="-2"/><feComposite in2="hardAlpha" k2="-1" k3="1" operator="arithmetic"/><feColorMatrix values="0 0 0 0 0.0392157 0 0 0 0 0.0496732 0 0 0 0 0.0705882 0 0 0 0.05 0"/><feBlend in2="shape" result="effect2_innerShadow_8190_414"/><feColorMatrix in="SourceAlpha" result="hardAlpha" values="0 0 0 0 0 0 0 0 0 0 0 0 0 0 0 0 0 0 127 0"/><feMorphology in="SourceAlpha" radius="1" result="effect3_innerShadow_8190_414"/><feOffset/><feComposite in2="hardAlpha" k2="-1" k3="1" operator="arithmetic"/><feColorMatrix values="0 0 0 0 0.0392157 0 0 0 0 0.0496732 0 0 0 0 0.0705882 0 0 0 0.18 0"/><feBlend in2="effect2_innerShadow_8190_414" result="effect3_innerShadow_8190_414"/></filter><clipPath id="a"><path fill="#fff" d="M36 0h437v436H36z"/></clipPath></defs></svg>