<svg width="20" height="24" viewBox="0 0 20 24" fill="none" xmlns="http://www.w3.org/2000/svg">
<path d="M18.3478 12.6606C18.3478 17.878 14.6956 20.4867 10.3547 21.9997C10.1274 22.0768 9.88049 22.0731 9.65558 21.9893C5.30427 20.4867 1.6521 17.878 1.6521 12.6606V5.35627C1.6521 5.07952 1.76204 4.81411 1.95773 4.61842C2.15342 4.42273 2.41883 4.31279 2.69558 4.31279C4.78253 4.31279 7.39123 3.06061 9.20688 1.47453C9.42795 1.28566 9.70916 1.18188 9.99993 1.18188C10.2907 1.18188 10.5719 1.28566 10.793 1.47453C12.6191 3.07105 15.2173 4.31279 17.3043 4.31279C17.581 4.31279 17.8464 4.42273 18.0421 4.61842C18.2378 4.81411 18.3478 5.07952 18.3478 5.35627V12.6606Z" stroke="#006D69" stroke-width="2" stroke-linecap="round" stroke-linejoin="round"/>
</svg>
