<svg xmlns="http://www.w3.org/2000/svg" width="48" height="48" fill="none" viewBox="0 0 48 48"><g clip-path="url(#a)"><path fill="#a5c352" d="M28.07 1.75v1.02c0 .96-.78 1.75-1.75 1.75H12.66c-.96 0-1.75.78-1.75 1.75v27.46c0 .96.78 1.75 1.75 1.75h33.59c.96 0 1.75-.78 1.75-1.75V1.75C48 .79 47.22 0 46.25 0H29.82c-.96 0-1.75.78-1.75 1.75"/><path fill="#006d68" d="M17.15 14.28v1.02c0 .96-.78 1.75-1.75 1.75H1.75c-.96 0-1.75.78-1.75 1.75v27.46c0 .96.78 1.75 1.75 1.75h33.59c.96 0 1.75-.78 1.75-1.75V14.28c0-.96-.78-1.75-1.75-1.75H18.91c-.96 0-1.75.78-1.75 1.75z"/><path stroke="#fff" stroke-linecap="round" stroke-miterlimit="10" stroke-width="1.52" d="m5.21 40.39 7.62-8.57 6.43 6.45 8.69-9.99"/><path fill="#fff" d="m30.08 31.61 1.45-7.44-7.17 2.46z"/></g><defs><clipPath id="a"><path fill="#fff" d="M0 0h48v48H0z"/></clipPath></defs></svg>