<svg width="48" height="48" viewBox="0 0 48 48" fill="none" xmlns="http://www.w3.org/2000/svg">
<g clip-path="url(#clip0_1_902)">
<path d="M28.07 1.75V2.77C28.07 3.73 27.29 4.52 26.32 4.52H12.66C11.7 4.52 10.91 5.3 10.91 6.27V33.73C10.91 34.69 11.69 35.48 12.66 35.48H46.25C47.21 35.48 48 34.7 48 33.73V1.75C48 0.79 47.22 0 46.25 0H29.82C28.86 0 28.07 0.78 28.07 1.75Z" fill="#A5C352"/>
<path d="M17.15 14.28V15.3C17.15 16.26 16.37 17.05 15.4 17.05H1.75C0.79 17.05 0 17.83 0 18.8V46.26C0 47.22 0.78 48.01 1.75 48.01H35.34C36.3 48.01 37.09 47.23 37.09 46.26V14.28C37.09 13.32 36.31 12.53 35.34 12.53H18.91C17.95 12.53 17.16 13.31 17.16 14.28H17.15Z" fill="#006D68"/>
<path d="M5.20996 40.39L12.83 31.82L19.26 38.27L27.95 28.28" stroke="white" stroke-width="1.52" stroke-miterlimit="10" stroke-linecap="round"/>
<path d="M30.08 31.61L31.53 24.17L24.36 26.63L30.08 31.61Z" fill="white"/>
</g>
<defs>
<clipPath id="clip0_1_902">
<rect width="48" height="48" fill="white"/>
</clipPath>
</defs>
</svg>
