<svg xmlns="http://www.w3.org/2000/svg" width="380" height="282" fill="none" viewBox="0 0 380 282"><g clip-path="url(#a)"><path stroke="#a9c753" stroke-linecap="round" stroke-linejoin="round" stroke-width="2" d="M144.22 57.71v24.02"/><path fill="#a9c753" d="M141.97 81.61c0 1.25 1.01 2.26 2.26 2.26s2.26-1.01 2.26-2.26-1.01-2.26-2.26-2.26-2.26 1.01-2.26 2.26"/><path stroke="#a9c753" stroke-linecap="round" stroke-linejoin="round" stroke-width="2" d="M165.08 57.71v38.9"/><path fill="#a9c753" d="M165.08 98.76a2.26 2.26 0 1 0 0-4.52 2.26 2.26 0 0 0 0 4.52"/><path stroke="#a9c753" stroke-linecap="round" stroke-linejoin="round" stroke-width="2" d="M186.04 57.71v24.02"/><path fill="#a9c753" d="M186.04 83.87a2.26 2.26 0 1 0 0-4.52 2.26 2.26 0 0 0 0 4.52"/><path fill="#fff" d="M137.98 22.72h3.76C142.37 10.34 152.6.5 165.14.5c12.53 0 22.77 9.84 23.4 22.22h3.76c9.41 0 17.11 7.7 17.11 17.11s-7.7 17.11-17.11 17.11h-54.31c-9.41 0-17.11-7.7-17.11-17.11s7.7-17.11 17.11-17.11z"/><path stroke="#a9c753" stroke-linecap="round" stroke-linejoin="round" d="M137.98 22.72h3.76C142.37 10.34 152.6.5 165.14.5c12.53 0 22.77 9.84 23.4 22.22h3.76c9.41 0 17.11 7.7 17.11 17.11s-7.7 17.11-17.11 17.11h-54.31c-9.41 0-17.11-7.7-17.11-17.11s7.7-17.11 17.11-17.11z"/><path stroke="#a9c753" stroke-linecap="round" stroke-linejoin="round" stroke-width="2" d="M149.71 20.36A21.16 21.16 0 0 1 161.4 7.87m-34.54 31.28c0-7.1 4.85-11.76 11.81-11.76"/><path stroke="#a9c753" stroke-linecap="round" stroke-linejoin="round" stroke-width="1.82" d="M52.56 155.6c10.83.06 29.7-.43 45.48-23.53 5.35-7.84 9.2-19.68 8.65-29.23-.4-6.82-2.11-16.87-10.12-19.17-6.28-1.8-13.31.75-17.22 5.67-2.85 3.59-5.41 12.03-12.2 9.29-10.43-4.21 4.18-16.1 8.19-18.95 4.26-3.03 6.72-6.02 9.85-10.07 4.65-6.02 7.75-16.77 4.79-23.98-4.47-10.92-19.06-6.13-22.3 3.02-.4 1.13-1.19 2.27-2.41 2.56-1.15.27-2.38-.32-3.1-1.21-.72-.9-1-2.05-1.11-3.17-.87-8.63 8.36-13.61 9.45-21.89 1.16-8.9-6.6-13.51-15.27-15.23h-1.73c-8.69 1.61-16.5 6.14-15.44 15.05.99 8.29 10.17 13.37 9.2 21.99-.13 1.12-.42 2.27-1.15 3.16s-1.97 1.47-3.12 1.18c-1.21-.3-1.99-1.45-2.38-2.59-3.14-9.19-17.68-14.14-22.27-3.27-3.03 7.18-.05 17.96 4.53 24.03 3.09 4.09 5.51 7.1 9.74 10.18 3.97 2.89 18.45 14.95 7.97 19.04-6.82 2.66-9.29-5.8-12.1-9.43-3.85-4.96-10.86-7.6-17.16-5.86C3.29 85.4 1.47 95.43 1 102.25c-.66 9.53 2.68 21.68 8.32 29.32 17.2 23.28 34.39 23.97 45.22 24.03"/><path stroke="#006d68" stroke-linecap="round" stroke-linejoin="round" stroke-width="1.82" d="m54.24 28.1-1.33 226.36"/><path fill="#006d68" d="M51.5 28.22c0-1.51 1.24-2.73 2.76-2.72 1.51 0 2.73 1.24 2.72 2.76 0 1.51-1.24 2.73-2.76 2.72-1.51 0-2.73-1.24-2.72-2.76"/><path stroke="#006d68" stroke-linecap="round" stroke-linejoin="round" stroke-width="1.82" d="M75.08 57.85c-1.35 10.42-10.34 18.5-21.1 18.44s-19.66-8.25-20.9-18.67"/><path fill="#006d68" d="M72.31 57.77a2.744 2.744 0 1 1 5.471.431 2.744 2.744 0 0 1-5.471-.431m-36.46-.2a2.742 2.742 0 1 0-5.472.372 2.742 2.742 0 0 0 5.472-.372"/><path stroke="#006d68" stroke-linecap="round" stroke-linejoin="round" stroke-width="1.82" d="M89.28 101.26c-1.59 16.09-17.03 28.77-35.6 28.66-18.57-.1-33.86-12.95-35.28-29.05"/><path fill="#006d68" d="M86.51 101.22a2.74 2.74 0 1 1 5.47.35 2.74 2.74 0 0 1-5.47-.35m-65.32-.36a2.74 2.74 0 1 0-5.471.291 2.74 2.74 0 0 0 5.471-.291"/><path stroke="#adcb53" stroke-linecap="round" stroke-linejoin="round" stroke-width="2" d="M96.62 256.05h30.88m-116.69 0h67.8m-58.56-.57v-20.19"/><path fill="#adcb53" d="M20.05 239.24a3.76 3.76 0 1 0 0-7.52 3.76 3.76 0 0 0 0 7.52"/><path stroke="#adcb53" stroke-linecap="round" stroke-linejoin="round" stroke-width="2" d="M33.26 255.28V218.1"/><path fill="#adcb53" d="M33.26 222.04a3.76 3.76 0 1 0 0-7.52 3.76 3.76 0 0 0 0 7.52"/><path fill="#fff" d="M351.05 57.1H237.2v169.14h113.85z"/><path fill="#003834" d="M348.74 59.41v164.53H239.5V59.41zm4.61-4.61H234.9v173.74h118.45z"/><path fill="#aecc53" d="M323.16 59.29h-58.08v-2.88c0-4.19 3.4-7.59 7.59-7.59h42.9c4.19 0 7.59 3.4 7.59 7.59z"/><path fill="#aecc53" d="M273.95 66.2h40.33v-7h-40.33zm53.74 36.94h11.09V92.05h-11.09z"/><path stroke="#003834" stroke-linecap="round" stroke-linejoin="round" stroke-width="1.73" d="M321.1 97.59h-71.63"/><path fill="#aecc53" d="M327.69 135.5h11.09v-11.09h-11.09z"/><path stroke="#003834" stroke-linecap="round" stroke-linejoin="round" stroke-width="1.73" d="M321.1 129.96h-71.63"/><path fill="#aecc53" d="M327.69 167.88h11.09v-11.09h-11.09z"/><path stroke="#003834" stroke-linecap="round" stroke-linejoin="round" stroke-width="1.73" d="M321.1 162.33h-71.63"/><path fill="#aecc53" d="M327.69 200.24h11.09v-11.09h-11.09z"/><path stroke="#003834" stroke-linecap="round" stroke-linejoin="round" stroke-width="1.73" d="M321.1 194.7h-71.63"/><path fill="#a9c753" stroke="#a9c753" stroke-linecap="round" stroke-linejoin="round" stroke-width="1.39" d="M274.54 236.55H70.59c-2.24 13.28-7.47 41.17-7.47 41.17l.27 2.74H281.4l.18-2.74s-4.55-27.51-7.04-41.17"/><path fill="#003834" stroke="#a9c753" stroke-linecap="round" stroke-linejoin="round" stroke-width="1.39" d="M274.54 233.8H70.59c-2.47 14.63-5.14 29.22-7.2 43.92H281.4c-2.4-14.62-4.2-29.34-6.86-43.92"/><path fill="#006d68" d="M141.68 245.09h-10.53c.26-2.54.39-3.79.63-6.25h10.39c-.18 2.46-.28 3.71-.49 6.25m12.83 0H144c.19-2.54.29-3.79.46-6.25h10.36c-.11 2.46-.17 3.71-.3 6.25zm12.85 0h-10.5c.12-2.54.17-3.79.27-6.25h10.34c-.03 2.46-.06 3.71-.11 6.25m12.82.01h-10.5c.04-2.54.06-3.79.07-6.25h10.34c.05 2.46.06 3.71.09 6.25m12.94 0h-10.5c-.04-2.54-.06-3.8-.12-6.25h10.35c.12 2.46.18 3.71.28 6.26zm12.88 0h-10.52c-.12-2.54-.18-3.8-.31-6.26h10.37c.2 2.46.29 3.71.46 6.26m12.86 0h-10.54c-.19-2.54-.28-3.8-.49-6.26h10.41c.26 2.46.39 3.71.63 6.26zm21.23.01h-10.6c-.29-2.55-.44-3.8-.75-6.26h10.5c.35 2.46.52 3.72.85 6.26m13.03 0h-10.65c-.34-2.55-.51-3.8-.87-6.26h10.57c.39 2.46.58 3.72.95 6.26m13.06 0h-10.7c-.37-2.55-.56-3.8-.96-6.26h10.66c.42 2.46.61 3.72 1.01 6.27zm-25 8.74h-10.74c-.28-2.64-.42-3.94-.7-6.51h10.64c.32 2.57.48 3.88.8 6.52zm13.15.01h-10.75c-.33-2.64-.49-3.94-.82-6.52h10.67c.36 2.57.54 3.88.9 6.52m13.14 0h-10.76c-.36-2.64-.54-3.94-.91-6.52h10.72c.39 2.57.57 3.88.95 6.52m-25.21 9h-10.87c-.29-2.7-.43-4.04-.71-6.7h10.77c.32 2.66.48 4 .81 6.7m13.29.01H244.7c-.34-2.7-.5-4.04-.83-6.7h10.77c.36 2.66.54 4 .9 6.7zm13.21.01h-10.82c-.37-2.7-.55-4.04-.92-6.7h10.78c.38 2.66.57 4 .96 6.7m-25.34 9.14h-11.01c-.32-2.73-.47-4.1-.77-6.81h10.91c.34 2.71.51 4.07.87 6.81m13.41.01h-10.95c-.37-2.73-.55-4.09-.89-6.8h10.88c.37 2.71.56 4.07.96 6.8m13.29 0h-10.88c-.41-2.73-.6-4.09-.98-6.8h10.84c.4 2.71.6 4.07 1.02 6.8M89.65 245.08h-10.7c.44-2.54.65-3.78 1.07-6.24h10.66c-.4 2.45-.6 3.7-1.02 6.24zm13 0H92c.41-2.54.62-3.79 1.01-6.24h10.57c-.36 2.45-.55 3.71-.93 6.24m12.98 0h-10.6c.38-2.54.56-3.79.91-6.24h10.5c-.31 2.46-.48 3.71-.81 6.24m12.89.01h-10.56c.32-2.54.48-3.79.79-6.24h10.44c-.25 2.46-.39 3.71-.66 6.25zm40.63 8.73h-13.77c.13-2.63.2-3.93.33-6.5h13.57c-.05 2.57-.07 3.87-.13 6.5m16.81.01h-13.77c.03-2.63.05-3.94.08-6.5h13.57c.05 2.57.08 3.87.12 6.51zm16.86 0h-13.78c-.06-2.63-.1-3.94-.17-6.51h13.58c.15 2.57.22 3.87.36 6.51zm16.83.01h-13.78c-.16-2.63-.24-3.94-.4-6.51h13.61c.24 2.57.35 3.88.58 6.51zm-118.24-.05c-7.99 0-15.97 0-23.96-.01.45-2.63.67-3.93 1.11-6.49h23.82c-.39 2.56-.58 3.86-.98 6.49zm16.85.01h-13.8c.38-2.63.57-3.93.95-6.49h13.66c-.32 2.56-.49 3.86-.82 6.49zm16.88.01h-13.79c.31-2.63.47-3.93.78-6.49h13.62c-.24 2.56-.37 3.87-.61 6.5zm16.81 0h-13.78c.23-2.63.35-3.93.57-6.5h13.59c-.15 2.57-.23 3.87-.38 6.5m6.74 9.01h-14.04c.18-2.7.28-4.04.47-6.69h13.84c-.11 2.65-.17 3.99-.27 6.69m17.15.01h-14.05c.08-2.7.13-4.04.22-6.69h13.84c-.01 2.65-.02 3.99-.02 6.69zm17.19.01h-14.05c-.02-2.7-.02-4.04-.03-6.69h13.84c.09 2.65.13 3.99.23 6.69zm27.4.01c-8.1 0-16.2 0-24.31-.01-.11-2.7-.17-4.04-.27-6.69 8 0 15.99 0 23.99.01.23 2.65.34 4 .59 6.7zm-130.55-.07H75.97c.43-2.7.66-4.04 1.1-6.69h13.85c-.42 2.65-.63 3.99-1.04 6.69m17.03.01H92.95c.4-2.7.61-4.04 1.02-6.69h13.85c-.37 2.65-.55 3.99-.91 6.69m17.13.01h-14c.35-2.7.52-4.04.88-6.69h13.85c-.3 2.65-.44 3.99-.73 6.69m17.12.01h-14.02c.27-2.7.41-4.04.69-6.69h13.85c-.21 2.65-.31 3.99-.51 6.69zm27.73 9.19h-14.32c.09-2.74.14-4.11.26-6.82h14.12c-.04 2.71-.05 4.08-.06 6.82m17.49 0h-14.32c0-2.74 0-4.11.01-6.82h14.12c.06 2.71.1 4.08.19 6.82m17.51.01h-14.3c-.11-2.74-.15-4.1-.24-6.81h14.11c.16 2.71.24 4.08.43 6.81m17.4.01h-14.26c-.2-2.74-.3-4.1-.47-6.81h14.08c.25 2.71.37 4.07.65 6.81m-122.43-.05H74.55c.4-2.75.61-4.12 1.04-6.83 8.06 0 16.12 0 24.18.01-.37 2.71-.56 4.08-.9 6.83zm17.29.01h-14.17c.34-2.75.51-4.12.88-6.83h14.03c-.31 2.71-.46 4.08-.74 6.83m17.43.01h-14.24c.27-2.75.41-4.11.71-6.83h14.07c-.23 2.71-.34 4.08-.54 6.82zm17.44 0h-14.29c.19-2.74.29-4.11.5-6.82h14.1c-.14 2.71-.2 4.08-.31 6.82"/><path fill="#003834" stroke="#adcb53" stroke-linecap="round" stroke-linejoin="round" stroke-width="1.46" d="M275.11 113.22H70.59v120.59h204.52z"/><path stroke="#adcb53" stroke-linecap="round" stroke-linejoin="round" stroke-width="1.46" d="M70.59 120.54h204.52"/><path stroke="#006d68" stroke-miterlimit="10" stroke-width="2.15" d="M225.01 145.07h-87.52v54.17h87.52z"/><path fill="#006d68" stroke="#006d68" stroke-linecap="round" stroke-linejoin="round" stroke-width="2.15" d="M225.01 138.97h-87.52v6.1h87.52z"/><path fill="#003834" stroke="#fff" stroke-miterlimit="10" stroke-width=".99" d="M208.21 161.88h-87.52v54.17h87.52z"/><path fill="#fff" stroke="#fff" stroke-miterlimit="10" stroke-width="1.48" d="M208.21 155.77h-87.52v6.1h87.52z"/><path stroke="#a9c753" stroke-linecap="round" stroke-linejoin="round" stroke-width="2.35" d="M154.5 188.23c-.04 5.49 4.37 9.98 9.86 10.02s9.98-4.37 10.02-9.86-9.82-14.84-9.82-14.84-10.02 9.18-10.06 14.67zm9.97-2.49-.14 18.63"/><path stroke="#a9c753" stroke-linecap="round" stroke-linejoin="round" stroke-width="1.85" d="m347.09 253.49 8.23-17.49c1.98-4.16 7.9-4.16 9.88 0l8.46 17.76"/><path stroke="#a9c753" stroke-linecap="round" stroke-linejoin="round" stroke-width="1.85" d="M351.73 244.33c2-.89 3.07.45 3.81 2.15.98 2.27 1.64 4.67 1.97 7.13m-3.88-14.15c1.82.14 3.69.58 5.11 1.73 1.42 1.16 2.23 2.86 3 4.52 1.39 2.99 2.49 5.16 2.84 7.78m-44.46.27h58.92m-90.3 0h19.61"/></g><defs><clipPath id="a"><path fill="#fff" d="M0 0h379.96v281.16H0z"/></clipPath></defs></svg>