<svg xmlns="http://www.w3.org/2000/svg" width="48" height="48" fill="none" viewBox="0 0 48 48"><path fill="#a4c352" d="M25 11.4c6.4 0 11.6 5.2 11.6 11.6S31.39 34.6 25 34.6 13.4 29.4 13.4 23 18.61 11.4 25 11.4m0-2.61c-7.85 0-14.21 6.36-14.21 14.21S17.15 37.21 25 37.21 39.21 30.85 39.21 23 32.85 8.79 25 8.79"/><path fill="#a4c352" d="M25 3.75c10.61 0 19.25 8.64 19.25 19.25S35.61 42.25 25 42.25 5.75 33.61 5.75 23 14.39 3.75 25 3.75M25 1C12.85 1 3 10.85 3 23s9.85 22 22 22 22-9.85 22-22S37.15 1 25 1"/><path fill="#a4c352" d="M25 29.42a6.42 6.42 0 1 0 0-12.84 6.42 6.42 0 0 0 0 12.84"/><g style="mix-blend-mode:multiply"><path stroke="#006d68" stroke-miterlimit="10" stroke-width=".92" d="m12.05 36.02 8.85-8.85"/><path fill="#006d68" d="m12.4 35.09-6.64 1.64-5.04 5.04H6.3v5.57l5.04-5.04 1.64-6.64zm10.78-3.74 2.37-8.83-8.83 2.36z"/></g></svg>