<svg xmlns="http://www.w3.org/2000/svg" width="371" height="388" fill="none" viewBox="0 0 371 388"><path fill="#ebf2d4" d="M356.85 258.86c5.97-15.92 10.97-32.54 10.89-49.54-.1-22.91-9.35-44.69-18.86-65.54-17.52-38.38-44.96-68.64-72.84-100.09-22.56-25.46-69.35-29.64-101.14-28.88-3.83.09-7.69.19-11.54.36-11.85.54-23.67 1.81-34.72 5.96-17.72 6.66-32.67 22.11-47.25 33.78C65.6 67.54 52.43 79.92 41.16 96.92 28.4 116.17 6.49 143.7 4.48 167.45c-2.53 29.9-3.75 52.79 5.21 81.52 9.54 30.61 23.46 64.15 47.87 86.18 12.79 11.55 31.05 19.09 45.93 27.69 29.02 16.77 60.32 23.72 93.68 19.41 34.92-4.52 61.69-18.24 92.9-32.71 40.08-18.58 52-51.24 66.78-90.69z"/><path fill="#013834" d="M136.67 344.47c0 5.44-20.83 9.85-46.52 9.85s-46.52-4.41-46.52-9.85"/><path stroke="#006d68" stroke-miterlimit="10" stroke-width=".84" d="M43.62 344.47c0-5.44 20.83-2.51 46.52-2.51s46.52-2.93 46.52 2.51"/><path stroke="#006d68" stroke-linecap="round" stroke-linejoin="round" stroke-width=".86" d="M136.67 344.47c0 5.44-20.83 9.85-46.52 9.85s-46.52-4.41-46.52-9.85"/><path fill="#013834" d="M136.66 337.03H43.62v7.28h93.04z"/><path fill="#013834" d="M90.15 347.04c25.692 0 46.52-4.41 46.52-9.85s-20.828-9.85-46.52-9.85-46.52 4.41-46.52 9.85 20.828 9.85 46.52 9.85"/><path stroke="#006d68" stroke-miterlimit="10" stroke-width=".84" d="M43.62 337.19c0-5.44 20.83-9.85 46.52-9.85s46.52 4.41 46.52 9.85"/><path stroke="#006d68" stroke-linecap="round" stroke-linejoin="round" stroke-width=".86" d="M136.67 337.19c0 5.44-20.83 9.85-46.52 9.85s-46.52-4.41-46.52-9.85m-.01-.16v7.28m93.05-7.28v7.28"/><path fill="#003834" d="M54.47 327.08V209.94h71.36v117.14"/><path fill="#013834" d="M90.15 334.09c19.728 0 35.72-3.089 35.72-6.9s-15.992-6.9-35.72-6.9-35.72 3.089-35.72 6.9 15.992 6.9 35.72 6.9"/><path stroke="#a5c352" stroke-linecap="round" stroke-linejoin="round" stroke-width=".63" d="M125.86 327.19c0 3.81-15.99 6.9-35.72 6.9s-35.72-3.09-35.72-6.9"/><path fill="#006d68" stroke="#013834" stroke-miterlimit="10" d="M61.89 324.71h-.03c-1.33 0-2.41-1.32-2.41-2.94V211.12c0-1.62 1.09-2.94 2.41-2.94h.03c1.33 0 2.41 1.32 2.41 2.94v110.65c0 1.62-1.09 2.94-2.41 2.94Zm8.05 1.17h-.03c-1.33 0-2.41-1.32-2.41-2.94V212.29c0-1.62 1.09-2.94 2.41-2.94h.03c1.33 0 2.41 1.32 2.41 2.94v110.65c0 1.62-1.09 2.94-2.41 2.94Zm8.06 1.17h-.03c-1.33 0-2.41-1.32-2.41-2.94V213.46c0-1.62 1.09-2.94 2.41-2.94H78c1.33 0 2.41 1.32 2.41 2.94v110.65c0 1.62-1.09 2.94-2.41 2.94Zm7.85.49h-.03c-1.33 0-2.41-1.32-2.41-2.94V213.95c0-1.62 1.09-2.94 2.41-2.94h.03c1.33 0 2.41 1.32 2.41 2.94V324.6c0 1.62-1.09 2.94-2.41 2.94Zm8.22 0h-.03c-1.33 0-2.41-1.32-2.41-2.94V213.95c0-1.62 1.09-2.94 2.41-2.94h.03c1.33 0 2.41 1.32 2.41 2.94V324.6c0 1.62-1.09 2.94-2.41 2.94Zm8.24-.66h-.03c-1.33 0-2.41-1.32-2.41-2.94V213.29c0-1.62 1.09-2.94 2.41-2.94h.03c1.33 0 2.41 1.32 2.41 2.94v110.65c0 1.62-1.09 2.94-2.41 2.94Zm8.06-1.08h-.03c-1.33 0-2.41-1.32-2.41-2.94V212.21c0-1.62 1.09-2.94 2.41-2.94h.03c1.33 0 2.41 1.32 2.41 2.94v110.65c0 1.62-1.09 2.94-2.41 2.94Zm8.07-1.09h-.03c-1.33 0-2.41-1.32-2.41-2.94V211.12c0-1.62 1.09-2.94 2.41-2.94h.03c1.33 0 2.41 1.32 2.41 2.94v110.65c0 1.62-1.09 2.94-2.41 2.94Z"/><path stroke="#a5c352" stroke-linecap="round" stroke-linejoin="round" stroke-width=".63" d="M54.47 327.08V209.94h71.36v117.14"/><path fill="#006d68" stroke="#fff" stroke-miterlimit="10" stroke-width=".75" d="M90.15 215.08c19.728 0 35.72-2.333 35.72-5.21s-15.992-5.21-35.72-5.21-35.72 2.333-35.72 5.21 15.992 5.21 35.72 5.21Z"/><path fill="#adcb53" d="M90.15 212.48c9.864 0 17.86-1.169 17.86-2.61s-7.996-2.61-17.86-2.61-17.86 1.169-17.86 2.61 7.996 2.61 17.86 2.61"/><path fill="#013834" d="M247.19 344.47c0 5.44-20.83 9.85-46.52 9.85s-46.52-4.41-46.52-9.85"/><path stroke="#006d68" stroke-miterlimit="10" stroke-width=".84" d="M154.14 344.47c0-5.44 20.83-2.51 46.52-2.51s46.52-2.93 46.52 2.51"/><path stroke="#006d68" stroke-linecap="round" stroke-linejoin="round" stroke-width=".86" d="M247.19 344.47c0 5.44-20.83 9.85-46.52 9.85s-46.52-4.41-46.52-9.85"/><path fill="#013834" d="M247.18 337.03h-93.04v7.28h93.04z"/><path fill="#013834" d="M200.66 347.04c25.692 0 46.52-4.41 46.52-9.85s-20.828-9.85-46.52-9.85-46.52 4.41-46.52 9.85 20.828 9.85 46.52 9.85"/><path stroke="#006d68" stroke-miterlimit="10" stroke-width=".84" d="M154.14 337.19c0-5.44 20.83-9.85 46.52-9.85s46.52 4.41 46.52 9.85"/><path stroke="#006d68" stroke-linecap="round" stroke-linejoin="round" stroke-width=".86" d="M247.19 337.19c0 5.44-20.83 9.85-46.52 9.85s-46.52-4.41-46.52-9.85m-.01-.16v7.28m93.05-7.28v7.28"/><path fill="#003834" d="M164.98 327.08v-189h71.37v189"/><path fill="#013834" d="M200.66 334.09c19.728 0 35.72-3.089 35.72-6.9s-15.992-6.9-35.72-6.9-35.72 3.089-35.72 6.9 15.992 6.9 35.72 6.9"/><path stroke="#a5c352" stroke-linecap="round" stroke-linejoin="round" stroke-width=".63" d="M236.38 327.19c0 3.81-15.99 6.9-35.72 6.9s-35.72-3.09-35.72-6.9"/><path fill="#006d68" stroke="#013834" stroke-miterlimit="10" d="M172.4 324.71h-.03c-1.33 0-2.41-1.32-2.41-2.94v-182.5c0-1.62 1.09-2.94 2.41-2.94h.03c1.33 0 2.41 1.32 2.41 2.94v182.5c0 1.62-1.09 2.94-2.41 2.94Zm8.06 1.17h-.03c-1.33 0-2.41-1.32-2.41-2.94v-182.5c0-1.62 1.09-2.94 2.41-2.94h.03c1.33 0 2.41 1.32 2.41 2.94v182.5c0 1.62-1.09 2.94-2.41 2.94Zm8.06 1.17h-.03c-1.33 0-2.41-1.32-2.41-2.94v-182.5c0-1.62 1.09-2.94 2.41-2.94h.03c1.33 0 2.41 1.32 2.41 2.94v182.5c0 1.62-1.09 2.94-2.41 2.94Zm7.85.49h-.03c-1.33 0-2.41-1.32-2.41-2.94V142.1c0-1.62 1.09-2.94 2.41-2.94h.03c1.33 0 2.41 1.32 2.41 2.94v182.5c0 1.62-1.09 2.94-2.41 2.94Zm8.22 0h-.03c-1.33 0-2.41-1.32-2.41-2.94V142.1c0-1.62 1.09-2.94 2.41-2.94h.03c1.33 0 2.41 1.32 2.41 2.94v182.5c0 1.62-1.09 2.94-2.41 2.94Zm8.23-.66h-.03c-1.33 0-2.41-1.32-2.41-2.94v-182.5c0-1.62 1.09-2.94 2.41-2.94h.03c1.33 0 2.41 1.32 2.41 2.94v182.5c0 1.62-1.09 2.94-2.41 2.94Zm8.07-1.08h-.03c-1.33 0-2.41-1.32-2.41-2.94v-182.5c0-1.62 1.09-2.94 2.41-2.94h.03c1.33 0 2.41 1.32 2.41 2.94v182.5c0 1.62-1.09 2.94-2.41 2.94Zm8.06-1.09h-.03c-1.33 0-2.41-1.32-2.41-2.94v-182.5c0-1.62 1.09-2.94 2.41-2.94h.03c1.33 0 2.41 1.32 2.41 2.94v182.5c0 1.62-1.09 2.94-2.41 2.94Z"/><path stroke="#a5c352" stroke-linecap="round" stroke-linejoin="round" stroke-width=".63" d="M164.98 327.08v-189h71.37v189"/><path fill="#006d68" stroke="#fff" stroke-miterlimit="10" stroke-width=".75" d="M200.66 143.22c19.728 0 35.72-2.333 35.72-5.21s-15.992-5.21-35.72-5.21-35.72 2.333-35.72 5.21 15.992 5.21 35.72 5.21Z"/><path fill="#adcb53" d="M200.66 140.62c9.864 0 17.86-1.169 17.86-2.61s-7.996-2.61-17.86-2.61-17.86 1.169-17.86 2.61 7.996 2.61 17.86 2.61"/><path fill="#003834" d="M275.95 327.08V63.5h71.36v263.58"/><path fill="#013834" d="M358.15 344.47c0 5.44-20.83 9.85-46.52 9.85s-46.52-4.41-46.52-9.85"/><path stroke="#006d68" stroke-miterlimit="10" stroke-width=".84" d="M265.11 344.47c0-5.44 20.83-2.51 46.52-2.51s46.52-2.93 46.52 2.51"/><path stroke="#006d68" stroke-linecap="round" stroke-linejoin="round" stroke-width=".86" d="M358.15 344.47c0 5.44-20.83 9.85-46.52 9.85s-46.52-4.41-46.52-9.85"/><path fill="#013834" d="M358.15 337.03h-93.04v7.28h93.04z"/><path fill="#013834" d="M311.63 347.04c25.692 0 46.52-4.41 46.52-9.85s-20.828-9.85-46.52-9.85-46.52 4.41-46.52 9.85 20.828 9.85 46.52 9.85"/><path stroke="#006d68" stroke-miterlimit="10" stroke-width=".84" d="M265.11 337.19c0-5.44 20.83-9.85 46.52-9.85s46.52 4.41 46.52 9.85"/><path stroke="#006d68" stroke-linecap="round" stroke-linejoin="round" stroke-width=".86" d="M358.15 337.19c0 5.44-20.83 9.85-46.52 9.85s-46.52-4.41-46.52-9.85m0-.16v7.28m93.04-7.28v7.28"/><path fill="#013834" d="M311.63 334.09c19.728 0 35.72-3.089 35.72-6.9s-15.992-6.9-35.72-6.9-35.72 3.089-35.72 6.9 15.992 6.9 35.72 6.9"/><path stroke="#a5c352" stroke-linecap="round" stroke-linejoin="round" stroke-width=".63" d="M347.35 327.19c0 3.81-15.99 6.9-35.72 6.9s-35.72-3.09-35.72-6.9"/><path fill="#006d68" stroke="#013834" stroke-miterlimit="10" d="M283.37 324.71h-.03c-1.33 0-2.41-1.32-2.41-2.94V64.69c0-1.62 1.09-2.94 2.41-2.94h.03c1.33 0 2.41 1.32 2.41 2.94v257.09c0 1.62-1.09 2.94-2.41 2.94zm8.06 1.17h-.03c-1.33 0-2.41-1.32-2.41-2.94V65.85c0-1.62 1.09-2.94 2.41-2.94h.03c1.33 0 2.41 1.32 2.41 2.94v257.09c0 1.62-1.09 2.94-2.41 2.94Zm8.05 1.17h-.03c-1.33 0-2.41-1.32-2.41-2.94V67.02c0-1.62 1.09-2.94 2.41-2.94h.03c1.33 0 2.41 1.32 2.41 2.94v257.09c0 1.62-1.09 2.94-2.41 2.94Zm7.86.49h-.03c-1.33 0-2.41-1.32-2.41-2.94V67.51c0-1.62 1.09-2.94 2.41-2.94h.03c1.33 0 2.41 1.32 2.41 2.94V324.6c0 1.62-1.09 2.94-2.41 2.94Zm8.21 0h-.03c-1.33 0-2.41-1.32-2.41-2.94V67.51c0-1.62 1.09-2.94 2.41-2.94h.03c1.33 0 2.41 1.32 2.41 2.94V324.6c0 1.62-1.09 2.94-2.41 2.94Zm8.24-.66h-.03c-1.33 0-2.41-1.32-2.41-2.94V66.85c0-1.62 1.09-2.94 2.41-2.94h.03c1.33 0 2.41 1.32 2.41 2.94v257.09c0 1.62-1.09 2.94-2.41 2.94Zm8.06-1.08h-.03c-1.33 0-2.41-1.32-2.41-2.94V65.77c0-1.62 1.09-2.94 2.41-2.94h.03c1.33 0 2.41 1.32 2.41 2.94v257.09c0 1.62-1.09 2.94-2.41 2.94Zm8.07-1.09h-.03c-1.33 0-2.41-1.32-2.41-2.94V64.69c0-1.62 1.09-2.94 2.41-2.94h.03c1.33 0 2.41 1.32 2.41 2.94v257.09c0 1.62-1.09 2.94-2.41 2.94z"/><path stroke="#a5c352" stroke-linecap="round" stroke-linejoin="round" stroke-width=".63" d="M275.95 327.08V63.5h71.36v263.58"/><path fill="#006d68" stroke="#fff" stroke-miterlimit="10" stroke-width=".75" d="M311.63 68.64c19.728 0 35.72-2.333 35.72-5.21s-15.992-5.21-35.72-5.21-35.72 2.333-35.72 5.21 15.992 5.21 35.72 5.21Z"/><path fill="#adcb53" d="M311.63 66.04c9.864 0 17.86-1.169 17.86-2.61s-7.996-2.61-17.86-2.61-17.86 1.169-17.86 2.61 7.996 2.61 17.86 2.61"/><path stroke="#006d68" stroke-dasharray="4.06 4.06" stroke-linecap="round" stroke-linejoin="round" d="M87.59 206.83s-2-32.55 32-37.5"/><path fill="#006d68" stroke="#006d68" stroke-miterlimit="10" stroke-width=".81" d="M344.89 4.33h-67.81v39.21h67.81z"/><path fill="#fff" d="M309.78 35.01v-2.63c-1.71-.05-3.41-.54-4.39-1.19l.73-2.55c1.06.62 2.57 1.19 4.23 1.19s2.87-.84 2.87-2.14c0-1.22-.95-2-2.95-2.74-2.84-1.03-4.69-2.33-4.69-4.85 0-2.33 1.63-4.12 4.36-4.6v-2.66h2.22v2.52c1.71.05 2.87.46 3.74.89l-.73 2.49c-.65-.3-1.84-.92-3.68-.92s-2.57.98-2.57 1.9c0 1.11.97 1.73 3.28 2.66 3.03 1.14 4.39 2.6 4.39 5.01s-1.6 4.33-4.58 4.82V35h-2.22z"/><path stroke="#fff" stroke-miterlimit="10" stroke-width="1.54" d="M310.99 38.6c8.102 0 14.67-6.568 14.67-14.67s-6.568-14.67-14.67-14.67-14.67 6.568-14.67 14.67 6.568 14.67 14.67 14.67Z"/><path fill="#adcb53" d="M200.18 121.33c12.702 0 23-10.297 23-23s-10.298-23-23-23-23 10.298-23 23 10.297 23 23 23"/><path stroke="#fff" stroke-linecap="round" stroke-linejoin="round" stroke-width="1.8" d="M211.44 99.82c.05 6.22-4.95 11.31-11.17 11.36s-11.31-4.95-11.36-11.17 11.13-16.81 11.13-16.81 11.35 10.4 11.4 16.62M200.15 97l.16 24.33"/><path fill="#006d68" stroke="#006d68" stroke-miterlimit="10" stroke-width=".93" d="m146.892 47.486-29.997 8.285 11.049 40.003 29.996-8.285z"/><path stroke="#006d68" stroke-miterlimit="10" stroke-width="2.81" d="m125.894 60.214-14.439 3.988 7.294 26.41 14.44-3.987z"/><path stroke="#000" stroke-linecap="round" stroke-linejoin="round" stroke-width="20.58" d="M63.77 109.85v19.11c0 11.63-9.43 21.05-21.05 21.05H27.1"/><path fill="#006d68" stroke="#006d68" stroke-miterlimit="10" stroke-width=".81" d="M12.22 171.08v-31.27H27.1v17.9c0 7.38-5.99 13.37-13.37 13.37z"/><path stroke="#adcb53" stroke-linecap="round" stroke-linejoin="round" stroke-width="15.44" d="M63.77 57.58c-8.41.38-15.47 3.98-19.33 9.26s-4.62 12.12-2.73 18.89"/><path fill="#fff" d="m44.64 106.21.25-.13a2.99 2.99 0 0 0 1.3-4.03l-.31-.62s.09-.03.16 0l.29.57a2.99 2.99 0 0 0 4.03 1.3l.25-.13a2.99 2.99 0 0 0 1.3-4.03l-.45-.88s0-.02.01-.02l.15.21a3.023 3.023 0 0 0 4.23.65c1.35-.99 1.64-2.88.65-4.23l-.67-.91c3.39-2.07-1.55-6.21-3.4-7.83-6.2-4.5-14.44.02-16.18 6.92-.21 3.26 1.44 6.47 2.7 9.41.41.86.58 1.09 1.83 2.72.83 1.26 2.48 1.74 3.86 1.03"/><path stroke="#9d9d9c" stroke-linecap="round" stroke-linejoin="round" stroke-width=".75" d="M38.95 102.45c.41.86.58 1.09 1.83 2.72.83 1.26 2.48 1.74 3.86 1.03l.25-.13a2.99 2.99 0 0 0 1.3-4.03l-.31-.62s.09-.03.16 0l.29.57a2.99 2.99 0 0 0 4.03 1.3l.25-.13a2.99 2.99 0 0 0 1.3-4.03l-.45-.88s0-.02.01-.02l.15.21a3.023 3.023 0 0 0 4.23.65c1.35-.99 1.64-2.88.65-4.23l-1.97-2.33"/><path stroke="#9d9d9c" stroke-linecap="round" stroke-linejoin="round" stroke-width=".75" d="M55.61 94.17c3.59-2.06-.96-6.48-2.9-8.13-6.84-5.15-15.66 1.91-16.28 6.55-.5 3.59 1.06 6.48 2.25 9.65"/><path fill="#000" d="M72.15 45.29c11.06 0 20.04 8.98 20.04 20.04v41.82H52.87V64.57c0-10.64 8.64-19.28 19.28-19.28"/><path fill="#adcb53" d="m80.09 56.29-12.71-4.54c-.83-.3-1.51-.9-1.9-1.69a3.41 3.41 0 0 1 1.24-4.42l5.37-3.36 5 4 3 10z"/><path fill="#fff" d="M71.27 49.48c6.44.33 6.38-4.44 6.18-9.36l-11.14-3.45c.27 4.27-1.7 12.7 4.96 12.81"/><path fill="#fff" d="M56.22 24.85c1.87 21.86 39.16 28.82 38.77 0-.43-25.48-38.34-25.48-38.77 0"/><path fill="#fff" d="M71.27 49.48c6.44.33 6.38-4.44 6.18-9.36l-11.14-3.45c.27 4.27-1.7 12.7 4.96 12.81"/><path stroke="#9d9d9c" stroke-linecap="round" stroke-linejoin="round" d="M56.22 24.85c.59 6.89 4.7 12.29 10.04 15.57-.13 4.18 0 8.97 5.01 9.06 4.73.24 5.95-2.27 6.18-5.57 9.14.41 17.73-5.15 17.54-19.06-.43-25.48-38.34-25.48-38.77 0"/><path fill="#000" d="M93.13 10.7c-5.18-2.81-6.5-6.01-13.64-6.37-7.48-.02-16.91 2.45-20.4 9.73-1.35 4.86-3.48.13-5.75 3.68 5.69-.64-2.45 8.86 3.36 16.35 4.84 5.55 1.24 6.23 3.64 7.17 2.27.66 4.98.27 7.11-.66 5.25-2.34 8.76-9.7 6.91-15.17-.97-2.18 4.05.48 4.68.92-.51-1.88 2.12-5.51 3.87-6.31 5.12-.8 10.74-3.58 12.18-8.97-.73-.01-1.37-.15-1.96-.36z"/><path fill="#fff" d="M76.89 25.77c3.39 5.3-2.44 9.15-5.98 3.94-3.39-5.3 2.44-9.15 5.98-3.94"/><path stroke="#9d9d9c" stroke-linecap="round" stroke-linejoin="round" stroke-width=".51" d="M74.1 29.21c-1.5-.43-1.61-3.05-.23-2.11-.11-1.08-.89-2.55-2.15-2.33"/><path fill="#000" d="M88.87 24.07c-.03 1.86 2.9 1.86 2.87 0 .03-1.86-2.9-1.86-2.87 0"/><path stroke="#9d9d9c" stroke-linecap="round" stroke-linejoin="round" d="M92.38 35.63c-1.27.26-2.51-.15-3.56-.88"/><path stroke="#cccbcb" stroke-linecap="round" stroke-linejoin="round" stroke-width=".4" d="M91.55 14.14c-2.04.73-3.47-1.35-5.04-2.31-5.79-4.03-11.88-3.77-18.04-.65"/><path stroke="#cccbcb" stroke-linecap="round" stroke-linejoin="round" stroke-width=".4" d="M79.64 12.06c3.87-.9 7.32 5.78 11.18 3.66m-9.89-1.32c2.83 1.31 5.67 5.2 9.14 3.03"/><path fill="#000" d="M52.87 107.15h38.77v1.82c0 8.86-7.19 16.05-16.05 16.05h-6.67c-8.86 0-16.05-7.19-16.05-16.05z"/><path stroke="#adcb53" stroke-linecap="round" stroke-linejoin="round" stroke-width="15.44" d="M72.69 64.42c1.96 8.19 6.82 14.45 12.74 17.24s12.77 2.25 19.07-.87"/><path fill="#fff" d="m122.09 82.32-.08-.26a2.99 2.99 0 0 0-3.77-1.94l-.66.21s-.02-.09.03-.16l.61-.19a2.99 2.99 0 0 0 1.94-3.77l-.08-.26a2.99 2.99 0 0 0-3.77-1.94l-.94.3-.02-.02.23-.12a3.016 3.016 0 0 0 1.33-4.06 3.013 3.013 0 0 0-4.06-1.33l-1.01.51c-1.49-3.68-6.38.52-8.28 2.08-5.44 5.39-2.33 14.25 4.2 17.09 3.18.74 6.61-.37 9.73-1.13.92-.26 1.16-.39 2.99-1.36 1.38-.61 2.12-2.17 1.64-3.64z"/><path stroke="#9d9d9c" stroke-linecap="round" stroke-linejoin="round" stroke-width=".75" d="M117.46 87.33c.92-.26 1.16-.39 2.99-1.36 1.38-.61 2.12-2.17 1.64-3.64l-.08-.26a2.99 2.99 0 0 0-3.77-1.94l-.66.21s-.02-.09.03-.16l.61-.19a2.99 2.99 0 0 0 1.94-3.77l-.08-.26a2.99 2.99 0 0 0-3.77-1.94l-.94.3-.02-.02.23-.12a3.016 3.016 0 0 0 1.33-4.06 3.013 3.013 0 0 0-4.06-1.33l-2.62 1.57"/><path stroke="#9d9d9c" stroke-linecap="round" stroke-linejoin="round" stroke-width=".75" d="M111.99 69.54c-1.45-3.87-6.55-.11-8.5 1.55-6.19 5.91-.66 15.76 3.82 17.13 3.46 1.07 6.57 0 9.89-.65"/><path stroke="#000" stroke-linecap="round" stroke-linejoin="round" stroke-width="20.58" d="M73.63 117.59h19.11c11.63 0 21.05 9.43 21.05 21.05v15.62"/><path fill="#006d68" stroke="#006d68" stroke-miterlimit="10" stroke-width=".81" d="M134.1 169.14h-31.27v-14.88h17.9c7.38 0 13.37 5.99 13.37 13.37z"/><path stroke="#adcb53" stroke-linecap="round" stroke-linejoin="round" stroke-width="2" d="M102.82 169.15h31.27M12.21 139.81v31.27"/></svg>