<svg width="41" height="44.5" viewBox="0 0 49 52" fill="none" xmlns="http://www.w3.org/2000/svg">
<path d="M48.3537 20.4662C47.4574 16.7817 45.7724 13.5306 43.2987 10.713C40.825 7.89546 37.9749 5.54747 34.7483 3.66909C31.5217 1.7907 28.0084 0.833443 24.2082 0.797318C20.408 0.761196 16.9305 1.77264 13.7756 3.83164C10.6208 5.89064 7.73479 8.23862 5.11769 10.8756C2.50059 13.5126 0.941081 16.6914 0.439171 20.412C-0.0627388 24.1327 -0.13444 27.8895 0.224067 31.6824C0.582574 35.4753 2.12415 38.6902 4.84881 41.3272C7.57346 43.9641 10.5311 46.2399 13.7219 48.1544C16.9126 50.0689 20.4618 51.2429 24.3695 51.6763C28.2773 52.1098 31.952 51.3693 35.3936 49.4548C38.8353 47.5403 41.5958 44.9756 43.6751 41.7606C45.7545 38.5457 47.2781 35.114 48.2461 31.4656C49.2141 27.8172 49.2499 24.1507 48.3537 20.4662Z" fill="var(--accent1-light)"/>

</svg>
