<svg width="53" height="54" viewBox="0 0 53 54" fill="none" xmlns="http://www.w3.org/2000/svg">
<path d="M3.90109 41.3881V25.8872C3.89802 25.7101 3.85071 25.5365 3.76342 25.3824L2.12416 22.6415L3.76342 19.9007C3.8515 19.7468 3.89887 19.573 3.90109 19.3958V3.93423C3.90109 3.41252 4.10833 2.91218 4.47724 2.54328C4.84614 2.17437 5.3465 1.96712 5.86821 1.96712H14.0842V0H5.86821C4.82479 0 3.82408 0.414515 3.08626 1.15233C2.34845 1.89014 1.93398 2.89081 1.93398 3.93423V19.1466L0.137352 22.1563C0.0474212 22.3093 0 22.4836 0 22.6612C0 22.8387 0.0474212 23.013 0.137352 23.1661L1.93398 26.1758V41.3881C1.93565 42.4341 2.34959 43.4372 3.0861 44.1798C3.82262 44.9225 4.82232 45.3448 5.86821 45.3551H14.0842V43.388H5.86821C5.6071 43.3881 5.34863 43.3361 5.10781 43.2352C4.86699 43.1343 4.64865 42.9865 4.46555 42.8003C4.28245 42.6142 4.13823 42.3934 4.04133 42.151C3.94442 41.9085 3.89674 41.6492 3.90109 41.3881Z" fill="#AECC53"/>
<path d="M50.8364 19.1466V3.93423C50.8364 2.89081 50.4219 1.89014 49.6841 1.15233C48.9463 0.414515 47.9456 0 46.9021 0H38.6533V1.96712H46.8693C47.391 1.96712 47.8914 2.17437 48.2603 2.54328C48.6292 2.91218 48.8364 3.41252 48.8364 3.93423V19.4154C48.8387 19.5927 48.886 19.7665 48.9741 19.9203L50.6134 22.6612L48.9741 25.402C48.886 25.5559 48.8387 25.7297 48.8364 25.9069V41.3881C48.8408 41.6492 48.7931 41.9085 48.6962 42.151C48.5993 42.3934 48.4551 42.6142 48.272 42.8003C48.0889 42.9865 47.8706 43.1343 47.6297 43.2352C47.3889 43.3361 47.1304 43.3881 46.8693 43.388H38.6533V45.3551H46.8693C47.3887 45.3552 47.903 45.2523 48.3824 45.0526C48.8619 44.8528 49.2972 44.5601 49.663 44.1913C50.0287 43.8225 50.3177 43.3849 50.5135 42.9037C50.7093 42.4226 50.8079 41.9075 50.8036 41.3881V26.1758L52.6002 23.1661C52.6901 23.013 52.7375 22.8387 52.7375 22.6612C52.7375 22.4836 52.6901 22.3093 52.6002 22.1563L50.8364 19.1466Z" fill="#AECC53"/>
<path d="M41.2106 30.2753C41.8721 30.1677 42.4778 29.8395 42.9292 29.3442C43.3806 28.8488 43.6513 28.2153 43.6971 27.5466C43.743 26.878 43.5613 26.2135 43.1817 25.6611C42.8021 25.1088 42.2468 24.7011 41.6061 24.5042C40.9655 24.3073 40.2772 24.3329 39.6529 24.5768C39.0287 24.8206 38.5052 25.2685 38.1677 25.8475C37.8301 26.4265 37.6982 27.1026 37.7936 27.766C37.8889 28.4294 38.2058 29.0411 38.6927 29.5016C37.7696 31.7258 36.2619 33.6589 34.3295 35.096C32.3971 36.5332 30.112 37.4209 27.7162 37.6651V25.1083C29.3708 24.9017 30.9585 24.3297 32.3648 23.4338C33.771 22.5379 34.9605 21.3405 35.8469 19.9283C36.5149 19.916 37.1591 19.6784 37.6751 19.254C38.191 18.8297 38.5484 18.2435 38.6894 17.5904C38.8304 16.9374 38.7466 16.256 38.4517 15.6566C38.1567 15.0571 37.6679 14.5749 37.0645 14.2881C36.4612 14.0014 35.7787 13.9269 35.1277 14.0767C34.4766 14.2265 33.8953 14.5919 33.478 15.1136C33.0607 15.6353 32.8318 16.2826 32.8285 16.9507C32.8253 17.6187 33.048 18.2682 33.4602 18.7939C32.8032 19.7648 31.9548 20.5913 30.9671 21.2227C29.9794 21.8541 28.8732 22.2771 27.7162 22.4659V10.1976C28.3143 9.90172 28.7947 9.41228 29.0794 8.80883C29.3641 8.20537 29.4362 7.52337 29.2843 6.87367C29.1323 6.22396 28.7652 5.64473 28.2424 5.2301C27.7197 4.81548 27.0721 4.58984 26.4048 4.58984C25.7376 4.58984 25.09 4.81548 24.5672 5.2301C24.0445 5.64473 23.6772 6.22396 23.5252 6.87367C23.3733 7.52337 23.4456 8.20537 23.7303 8.80883C24.015 9.41228 24.4954 9.90172 25.0934 10.1976V22.479C23.934 22.29 22.8252 21.8663 21.8352 21.2337C20.8453 20.6012 19.995 19.7732 19.3363 18.8005C19.7469 18.2757 19.9683 17.6277 19.9645 16.9614C19.9607 16.2951 19.732 15.6497 19.3155 15.1296C18.899 14.6095 18.319 14.2453 17.6697 14.0961C17.0203 13.9468 16.3396 14.0212 15.7378 14.3073C15.136 14.5933 14.6485 15.0741 14.3542 15.6719C14.0599 16.2696 13.976 16.9493 14.1163 17.6006C14.2565 18.252 14.6127 18.8369 15.1269 19.2606C15.6411 19.6843 16.2833 19.9218 16.9495 19.9348C17.838 21.348 19.0297 22.5459 20.4382 23.4418C21.8467 24.3377 23.4369 24.9092 25.0934 25.1149V37.6717C22.695 37.4278 20.4072 36.5396 18.4725 35.1013C16.5378 33.6629 15.0283 31.728 14.1038 29.5016C14.4337 29.194 14.688 28.8145 14.8472 28.3926C15.0065 27.9707 15.0662 27.5177 15.0217 27.0689C14.9675 26.5201 14.761 25.9974 14.4254 25.5599C14.0898 25.1223 13.6386 24.7872 13.1226 24.5926C12.6067 24.3979 12.0466 24.3514 11.5056 24.4583C10.9646 24.5652 10.4644 24.8212 10.0612 25.1974C9.65803 25.5736 9.36807 26.0551 9.22411 26.5874C9.08015 27.1198 9.08794 27.6817 9.24652 28.2099C9.4051 28.738 9.70817 29.2113 10.1215 29.5763C10.5349 29.9413 11.0421 30.1834 11.5858 30.2753C12.6818 33.0375 14.5267 35.4392 16.913 37.2104C19.2992 38.9815 22.1322 40.0518 25.0934 40.301V53.0676H27.7162V40.301C30.6747 40.048 33.5043 38.976 35.8877 37.2052C38.2712 35.4344 40.1143 33.0348 41.2106 30.2753Z" fill="white"/>
</svg>
