<svg width="96" height="96" viewBox="0 0 96 96" xmlns="http://www.w3.org/2000/svg"><title>Mighty Networks icon</title><defs><linearGradient id="bg-gradient" x1="0%" y1="0%" x2="100%" y2="100%"><stop offset="0%" stop-color="#000000"/><stop offset="100%" stop-color="#000000"/></linearGradient></defs><circle cx="48" cy="48" r="48" fill="url(#bg-gradient)" opacity="1"/><g transform="translate(19.200000000000003, 19.200000000000003)" fill="#ffffff"><title>Mighty Networks icon</title>
<path d="M36,4H14C8.486,4,4,8.486,4,14v22c0,5.514,4.486,10,10,10h22c5.514,0,10-4.486,10-10V14C46,8.486,41.514,4,36,4z M21,35h-8    V21l8,8V35z M37,35h-8v-8l-4,4L13,19v-4h9l3.267,3.733L29,15h8V35z M26.2,19.8L29,17v6L26.2,19.8z" fill="#ffffff" style="fill: rgb(255, 255, 255);"/>
</g></svg>
