<svg xmlns="http://www.w3.org/2000/svg" width="70" height="70" viewBox="0 0 70 70"><g style="isolation:isolate"><g id="fc6d8795-c5da-433b-bb1f-be6df10680e4" data-name="Layer 1"><path d="M44.65,7.26a22.87,22.87,0,0,0-8-1.76C33,5.52,29.43,7,26.06,8.55,19.86,11.38,15,15.81,9.88,20.32,5.77,24,5.09,31.53,5.22,36.66c0,.62,0,1.25.06,1.87a18.06,18.06,0,0,0,1,5.61C7.32,47,9.81,49.42,11.7,51.77a28.91,28.91,0,0,0,6.79,6.5c3.11,2.07,7.56,5.61,11.39,5.93,4.84.41,8.53.61,13.18-.84C48,61.82,53.42,59.57,57,55.63c1.87-2.07,3.09-5,4.48-7.43a23.53,23.53,0,0,0,3.13-15.14c-.73-5.64-2.94-10-5.28-15C56.31,11.57,51,9.65,44.65,7.26Z" style="fill:#aecc53;opacity:0.2"/><polygon points="22.67 21.25 15.32 35 22.67 48.75 30.03 35 22.67 21.25 22.67 21.25" style="fill:#006d68"/><path d="M53.47,33.79H50.38a11.71,11.71,0,0,0-2.59-6.23L50,25.37a1.21,1.21,0,0,0,0-1.71,1.2,1.2,0,0,0-1.71,0l-2.19,2.19a11.71,11.71,0,0,0-6.23-2.59V20.17a1.21,1.21,0,0,0-2.42,0v3.09a11.71,11.71,0,0,0-6.23,2.59L29,23.66a1.21,1.21,0,0,0-1.71,1.71l2.19,2.19a11.71,11.71,0,0,0-2.59,6.23H23.81a1.21,1.21,0,1,0,0,2.42H26.9a11.71,11.71,0,0,0,2.59,6.23L27.3,44.63a1.2,1.2,0,0,0,0,1.71,1.17,1.17,0,0,0,.85.36,1.21,1.21,0,0,0,.86-.36l2.19-2.19a11.71,11.71,0,0,0,6.23,2.59v3.09a1.21,1.21,0,0,0,2.42,0V46.74a11.71,11.71,0,0,0,6.23-2.59l2.19,2.19a1.21,1.21,0,0,0,.86.36,1.17,1.17,0,0,0,.85-.36,1.21,1.21,0,0,0,0-1.71l-2.19-2.19a11.71,11.71,0,0,0,2.59-6.23h3.09a1.21,1.21,0,0,0,0-2.42Zm-5.54,0H41.56l4.5-4.5A9.22,9.22,0,0,1,47.93,33.79Zm-3.58-6.21-4.5,4.5V25.71A9.22,9.22,0,0,1,44.35,27.58Zm-6.92-1.87v6.37l-4.5-4.5A9.22,9.22,0,0,1,37.43,25.71Zm-6.22,3.58,4.51,4.5H29.34A9.41,9.41,0,0,1,31.21,29.29Zm-1.87,6.92h6.38l-4.51,4.5A9.41,9.41,0,0,1,29.34,36.21Zm3.59,6.22,4.5-4.51v6.37A9.3,9.3,0,0,1,32.93,42.43Zm6.92,1.86V37.92l4.5,4.51A9.3,9.3,0,0,1,39.85,44.29Zm6.21-3.58-4.5-4.5h6.37A9.22,9.22,0,0,1,46.06,40.71Z" style="fill:#aecc53;mix-blend-mode:multiply"/></g></g></svg>