<svg width="23" height="20" viewBox="0 0 23 20" fill="none" xmlns="http://www.w3.org/2000/svg">
<path fill-rule="evenodd" clip-rule="evenodd" d="M12.8472 1.15383C12.237 0.11539 10.763 0.11539 10.1528 1.15383L0.726317 17.1955C0.098018 18.2647 0.852315 19.625 2.07351 19.625H20.9265C22.1477 19.625 22.902 18.2647 22.2737 17.1955L12.8472 1.15383ZM11.4979 5.875C10.7618 5.875 10.1867 6.51064 10.2599 7.24318L10.7421 12.0659C10.7809 12.4543 11.1077 12.75 11.4979 12.75C11.8881 12.75 12.2148 12.4543 12.2536 12.0659L12.7358 7.24318C12.8091 6.51064 12.2339 5.875 11.4979 5.875ZM11.5 14.125C10.7408 14.125 10.1253 14.7406 10.1253 15.5C10.1253 16.2594 10.7408 16.875 11.5 16.875C12.2592 16.875 12.8747 16.2594 12.8747 15.5C12.8747 14.7406 12.2592 14.125 11.5 14.125Z" fill="currentColor"/>
<path fill-rule="evenodd" clip-rule="evenodd" d="M12.8472 1.15383C12.237 0.11539 10.763 0.11539 10.1528 1.15383L0.726317 17.1955C0.098018 18.2647 0.852315 19.625 2.07351 19.625H20.9265C22.1477 19.625 22.902 18.2647 22.2737 17.1955L12.8472 1.15383ZM11.4979 5.875C10.7618 5.875 10.1867 6.51064 10.2599 7.24318L10.7421 12.0659C10.7809 12.4543 11.1077 12.75 11.4979 12.75C11.8881 12.75 12.2148 12.4543 12.2536 12.0659L12.7358 7.24318C12.8091 6.51064 12.2339 5.875 11.4979 5.875ZM11.5 14.125C10.7408 14.125 10.1253 14.7406 10.1253 15.5C10.1253 16.2594 10.7408 16.875 11.5 16.875C12.2592 16.875 12.8747 16.2594 12.8747 15.5C12.8747 14.7406 12.2592 14.125 11.5 14.125Z" fill="black" fill-opacity="0.25"/>
</svg>
