<?xml version="1.0" encoding="utf-8"?>
<svg xmlns="http://www.w3.org/2000/svg" width="306.91" height="302.63" viewBox="0 0 306.91 302.63">
  <g style="isolation:isolate">
    <g id="a3d0ae9d-1dee-4780-a64e-b7915d8da755" data-name="Layer 1">
      <path d="M202.36,9c-13.2-4.95-27-9.09-41.07-9-19,.08-37,7.75-54.32,15.64C75.16,30.16,50.08,52.91,24,76,2.9,94.71-.57,133.5.07,159.85c.08,3.18.15,6.37.3,9.56.44,9.83,1.5,19.62,4.94,28.78,5.52,14.69,18.33,27.08,28,39.17,10.47,13.08,20.73,24,34.82,33.34,16,10.58,38.78,28.74,58.47,30.41,24.78,2.1,43.75,3.11,67.57-4.32,25.37-7.91,53.17-19.45,71.43-39.67,9.57-10.61,15.82-25.75,22.95-38.08,13.9-24,19.66-50,16.09-77.65-3.75-28.95-15.12-51.13-27.11-77C262.12,31.16,235.06,21.29,202.36,9Z" style="fill:#aecc53;opacity:0.2"/>
      <path d="M96.16,232a3.46,3.46,0,0,0-3.55-.88c-1.59.32-3-.22-4.56-.55-1.34-.29-2.68.56-3.77,1.42a9.71,9.71,0,0,0-3.7,7.59c0,3.77,2.24,6,4.5,8.76a3.83,3.83,0,0,0,1.2,1.07c.89.42,2,.07,2.93.17.63.07,1.23.32,1.87.35,1.48.07,2.7-1.08,3.73-2.14,2.4-2.47,5-4.52,5-8.21A9.66,9.66,0,0,0,96.16,232Zm-9.61,3.55a1.35,1.35,0,0,0-.28.2,4.46,4.46,0,0,0-1.53,2c-.17.43-.8,2-1.4,1.19-.87-1.18.56-3.93,1.57-4.63a1.41,1.41,0,0,1,1-.29,1,1,0,0,1,.87.88C86.8,235.32,86.72,235.39,86.55,235.5Z" style="fill:#aecc53;mix-blend-mode:multiply"/>
      <path d="M96.16,232a3.46,3.46,0,0,0-3.55-.88c-1.59.32-3-.22-4.56-.55-1.34-.29-2.68.56-3.77,1.42a9.71,9.71,0,0,0-3.7,7.59c0,3.77,2.24,6,4.5,8.76a3.83,3.83,0,0,0,1.2,1.07c.89.42,2,.07,2.93.17.63.07,1.23.32,1.87.35,1.48.07,2.7-1.08,3.73-2.14,2.4-2.47,5-4.52,5-8.21A9.66,9.66,0,0,0,96.16,232Z" style="fill:none;stroke:#ededed;stroke-linecap:round;stroke-linejoin:round;stroke-width:0.236386938991493px"/>
      <path d="M89.64,225.67c.94.63,1.47,3.14,1.47,3.14s-2.52.47-3.46-.17-1.55-3.19-1.55-3.19S88.69,225,89.64,225.67Z" style="fill:#3c3c3b"/>
      <path d="M90.68,230.86c0-1.25.13-2.9,1.7-3.12" style="fill:none;stroke:#3c3c3b;stroke-linecap:round;stroke-linejoin:round;stroke-width:0.514489412307739px"/>
      <path d="M117.16,232a3.46,3.46,0,0,0-3.55-.88c-1.59.32-3-.22-4.56-.55-1.34-.29-2.68.56-3.77,1.42a9.71,9.71,0,0,0-3.7,7.59c0,3.77,2.24,6,4.5,8.76a3.83,3.83,0,0,0,1.2,1.07c.89.42,2,.07,2.93.17.63.07,1.23.32,1.87.35,1.48.07,2.7-1.08,3.73-2.14,2.4-2.47,5-4.52,5-8.21A9.66,9.66,0,0,0,117.16,232Zm-9.61,3.55a1.35,1.35,0,0,0-.28.2,4.46,4.46,0,0,0-1.53,2c-.17.43-.8,2-1.4,1.19-.87-1.18.56-3.93,1.57-4.63a1.41,1.41,0,0,1,1-.29,1,1,0,0,1,.87.88C107.8,235.32,107.72,235.39,107.55,235.5Z" style="fill:#aecc53;mix-blend-mode:multiply"/>
      <path d="M117.16,232a3.46,3.46,0,0,0-3.55-.88c-1.59.32-3-.22-4.56-.55-1.34-.29-2.68.56-3.77,1.42a9.71,9.71,0,0,0-3.7,7.59c0,3.77,2.24,6,4.5,8.76a3.83,3.83,0,0,0,1.2,1.07c.89.42,2,.07,2.93.17.63.07,1.23.32,1.87.35,1.48.07,2.7-1.08,3.73-2.14,2.4-2.47,5-4.52,5-8.21A9.66,9.66,0,0,0,117.16,232Z" style="fill:none;stroke:#ededed;stroke-linecap:round;stroke-linejoin:round;stroke-width:0.236386938991493px"/>
      <path d="M110.64,225.67c.94.63,1.47,3.14,1.47,3.14s-2.52.47-3.46-.17-1.55-3.19-1.55-3.19S109.69,225,110.64,225.67Z" style="fill:#3c3c3b"/>
      <path d="M111.68,230.86c0-1.25.13-2.9,1.7-3.12" style="fill:none;stroke:#3c3c3b;stroke-linecap:round;stroke-linejoin:round;stroke-width:0.514489412307739px"/>
      <path d="M152.84,241.32s-.12,3.42-.35,5.09a37.5,37.5,0,0,1-74.44-1.08c-.14-1.32-.21-4-.21-4Z" style="fill:#fff"/>
      <rect x="125.34" y="205.32" width="55" height="71" style="fill:none;stroke:#aecc53;stroke-linecap:round;stroke-linejoin:round;stroke-width:1.5px"/>
      <path d="M138,205.94c3.89,3.83-.7,10.7-4.92,12s-7.32,3-7.93,7.71" style="fill:none;stroke:#aecc53;stroke-linecap:round;stroke-linejoin:round;stroke-width:1.5px"/>
      <path d="M125.22,237.44a49.74,49.74,0,0,1,7.4-4.07c2.53-1.08,5.3-.86,7.9-1.82,10-3.7,13.1-16.69,10.87-25.83" style="fill:none;stroke:#aecc53;stroke-linecap:round;stroke-linejoin:round;stroke-width:1.5px"/>
      <path d="M126,244.11c1.65-2.1,6-5.54,9-4.74,5.36,1.48,3.24,9.41,1.27,12.45a55.27,55.27,0,0,1-9.59,11.27c-.59.51-.1.08-.7.59" style="fill:none;stroke:#aecc53;stroke-linecap:round;stroke-linejoin:round;stroke-width:1.5px"/>
      <path d="M162.12,206.69a25.18,25.18,0,0,1-8.28,25c-1.62,1.32-3.4,2.44-4.91,3.89C143,241.26,144.35,250.85,141,258a47.74,47.74,0,0,1-15.08,17.9" style="fill:none;stroke:#aecc53;stroke-linecap:round;stroke-linejoin:round;stroke-width:1.5px"/>
      <path d="M145.37,275.68c1.47-3.79,3-7.64,3.42-11.68.38-3.37,0-6.78.26-10.17s1.12-6.91,3.51-9.32a5,5,0,0,1,3.58-1.69c2.64.1,5.52,3.77,7,5.73a24.15,24.15,0,0,1,4.15,10.79c.84,5.4.52,10.9.52,16.34" style="fill:none;stroke:#aecc53;stroke-linecap:round;stroke-linejoin:round;stroke-width:1.5px"/>
      <path d="M169.91,205.68a39.62,39.62,0,0,1-3.52,24.4c-1,2-2.22,4-2.35,6.3-.25,4.11,3,7.45,5.24,10.92,5.27,8.24,5.27,19,4.39,28.38" style="fill:none;stroke:#aecc53;stroke-linecap:round;stroke-linejoin:round;stroke-width:1.5px"/>
      <path d="M179.92,222.63l-3.56,7.75a19.79,19.79,0,0,0-1.75,4.88c-.83,4.82,2.1,11.48,5.43,14.91" style="fill:none;stroke:#aecc53;stroke-linecap:round;stroke-linejoin:round;stroke-width:1.5px"/>
      <path d="M153.78,275.45q.21-4.9.86-9.77c.2-1.45.68-3.19,2.11-3.53a2.7,2.7,0,0,1,2.16.61c3.34,2.52,2.94,9,2.77,12.66" style="fill:none;stroke:#aecc53;stroke-linecap:round;stroke-linejoin:round;stroke-width:1.5px"/>
      <g style="mix-blend-mode:multiply">
        <path d="M93,129.23l0,.09-3.27,12.11a22.42,22.42,0,0,1-33.23,13.36l-10.91-6.58a8,8,0,1,1,8.28-13.72l10.91,6.58a6.39,6.39,0,0,0,9.48-3.81l3.27-12.11A8,8,0,0,1,93,129.23Z" style="fill:#aecc53"/>
      </g>
      <path d="M91,105.89c-2.33,2.67-2.92,5.64-3.51,9a11,11,0,0,1-.38,1.68,12.84,12.84,0,0,0-.51,1.43A3.32,3.32,0,0,0,88,121.47a4.43,4.43,0,0,0,4.45-.07c2.63-1.42,4-4.07,5.42-6.52a3.81,3.81,0,0,1,1.75-1.64c.15-.06.32-.15.31-.31a.27.27,0,0,0-.08-.16,1.43,1.43,0,0,0-1.35-.28,6,6,0,0,0-2.74,1.63,4,4,0,0,1-3,.6c.46,0,1.62-4.29,1.77-4.73a38.77,38.77,0,0,0,4.56-.94c.82-.37,3.12-.9,2.33-2.31a.56.56,0,0,0-.47-.2l-9.15-1a.85.85,0,0,0-.42,0A.77.77,0,0,0,91,105.89Z" style="fill:#fff;stroke:#3c3c3b;stroke-linecap:round;stroke-linejoin:round;stroke-width:0.926012262355367px"/>
      <polygon points="56.89 267.84 81.46 268.13 68.46 259.13 54.99 191.29 17.05 188.13 6.89 267.84 30.26 268.13 19.96 260.36 39.18 211.31 56.89 267.84" style="fill:#006d68;stroke:#006d68;stroke-linecap:round;stroke-linejoin:round;stroke-width:0.697014844844262px"/>
      <path d="M19.85,189.21c10,5.54,22.48,5.71,33.77,3.26a1.26,1.26,0,0,0,1.2-1.53c.31-10.09,1.87-19.88,3.5-29.82a49.76,49.76,0,0,0-2-25.62c-3.11-9-15.85-10.18-22.78-5.16-12.34,8.95-12,25.94-11.68,39.7a16.4,16.4,0,0,1-.22,3.9c-1.05,4.61-3.16,8.87-5,13.23A34,34,0,0,0,19.85,189.21Z" style="fill:#fff"/>
      <path d="M56.1,176a43.07,43.07,0,0,0,.34,6.59c1.28,9.65,3.77,19.09,5.61,28.64,1.2,6.2,3.48,13.22,3.29,19.59,0,.4-45,7-58-6,1.81-4.36,8-83,26.18-94.48,7.43-4.68,17.34-4,22,4,3.56,6,4.37,13.94,3.42,20.81S56.26,168.93,56.1,176Z" style="fill:#fff"/>
      <path d="M26.3,139.22c2.17-4.1,4.57-7.2,7.22-8.88,7.43-4.68,17.34-4,22,4,3.56,6,4.37,13.94,3.42,20.81S56.26,168.93,56.1,176a43.07,43.07,0,0,0,.34,6.59c1.28,9.65,3.77,19.09,5.61,28.64,1.2,6.2,3.48,13.22,3.29,19.59,0,.4-45,7-58-6,1-2.4,3.32-27.32,8.24-51.14" style="fill:none;stroke:#3c3c3b;stroke-linecap:round;stroke-linejoin:round"/>
      <circle cx="48.67" cy="114.9" r="14.77" style="fill:#3c3c3b"/>
      <path d="M52,103.93c2.57-.66,5.37-.8,6.89.58,0-5.35-5-8.85-9.7-10.22a17.52,17.52,0,0,0-14.65,2.34c-1.43,1-3.25,1.86-4.86,1.19-2.39-1-2.81-4.08-5.2-5.16a8.11,8.11,0,0,0-7.94,1c-3,2.47-4.28,7.94-2.45,11.42a6.19,6.19,0,0,0,4.58,3.48c2.56.44,5.22-2,7.41,0,1.94,1.72,1,3.76.83,5.83a10.23,10.23,0,0,0,1.84,6.76c2.64,3.9,7.37,5.85,11.89,6.44-.61-1.61,1-3.35.28-4.7-.37-.73-1.63-1.16-2.2-1.77a7.89,7.89,0,0,1-1.56-2.67c-1.14-3.42,1.69-9,5.54-6.07a9,9,0,0,1,4.88-6.79A20.22,20.22,0,0,1,52,103.93Z" style="fill:#aecc53"/>
      <g style="mix-blend-mode:multiply">
        <path d="M22,183.32l-.06-.09L15,172.78A22.43,22.43,0,0,1,26.91,139l12.15-3.84a8,8,0,0,1,4.83,15.28l-12.15,3.84a6.4,6.4,0,0,0-3.4,9.64l6.93,10.46A8,8,0,0,1,22,183.32Z" style="fill:#aecc53"/>
      </g>
      <line x1="90.53" y1="111.06" x2="101.15" y2="110.58" style="fill:none;stroke:#3c3c3b;stroke-linecap:round;stroke-linejoin:round;stroke-width:3px"/>
      <path d="M30.72,197.17c1.89,2.69,4.83,5,6.55,1.11,1.35-3.07,1.72-7.06.29-10.16C35,182.56,26.72,184,28,190.6A17.92,17.92,0,0,0,30.72,197.17Z" style="fill:#fff;stroke:#3c3c3b;stroke-linecap:round;stroke-linejoin:round;stroke-width:0.926012262355367px"/>
      <path d="M24.34,190.82h17a0,0,0,0,1,0,0v13.45a7.55,7.55,0,0,1-7.55,7.55H31.89a7.55,7.55,0,0,1-7.55-7.55V190.82A0,0,0,0,1,24.34,190.82Z" style="fill:#fff;stroke:#3c3c3b;stroke-linecap:round;stroke-linejoin:round;stroke-width:0.926012262355367px"/>
      <path d="M30,97.63c1,3,0,8-4,11" style="fill:none;stroke:#3c3c3b;stroke-linecap:round;stroke-linejoin:round;stroke-width:4px"/>
      <rect x="106.46" y="54.26" width="94.9" height="73.46" style="fill:#fff"/>
      <path d="M200.77,54.85v72.29H107.05V54.85h93.72M202,53.67H105.87v74.65H202V53.67Z" style="fill:#3c3c3b"/>
      <rect x="105.87" y="45.32" width="96.08" height="8.35" style="fill:#3c3c3b;stroke:#3c3c3b;stroke-linecap:round;stroke-linejoin:round;stroke-width:0.905439286916539px"/>
      <rect x="115.12" y="62.93" width="12.86" height="59.2" style="fill:none;stroke:#c6c6c6;stroke-linecap:round;stroke-linejoin:round;stroke-width:0.933333337306976px"/>
      <rect x="127.98" y="62.93" width="12.86" height="59.2" style="fill:none;stroke:#c6c6c6;stroke-linecap:round;stroke-linejoin:round;stroke-width:0.933333337306976px"/>
      <rect x="141.05" y="62.93" width="12.86" height="59.2" style="fill:none;stroke:#c6c6c6;stroke-linecap:round;stroke-linejoin:round;stroke-width:0.933333337306976px"/>
      <rect x="153.91" y="62.93" width="12.86" height="59.2" style="fill:none;stroke:#c6c6c6;stroke-linecap:round;stroke-linejoin:round;stroke-width:0.933333337306976px"/>
      <rect x="166.99" y="62.93" width="12.86" height="59.2" style="fill:none;stroke:#c6c6c6;stroke-linecap:round;stroke-linejoin:round;stroke-width:0.933333337306976px"/>
      <rect x="179.85" y="62.93" width="12.86" height="59.2" style="fill:none;stroke:#c6c6c6;stroke-linecap:round;stroke-linejoin:round;stroke-width:0.933333337306976px"/>
      <rect x="148.03" y="30.02" width="11.76" height="77.59" transform="translate(222.73 -85.1) rotate(90)" style="fill:none;stroke:#c6c6c6;stroke-linecap:round;stroke-linejoin:round;stroke-width:0.933333337306976px"/>
      <rect x="148.03" y="41.78" width="11.76" height="77.59" transform="translate(234.49 -73.34) rotate(90)" style="fill:none;stroke:#c6c6c6;stroke-linecap:round;stroke-linejoin:round;stroke-width:0.933333337306976px"/>
      <rect x="148.03" y="53.74" width="11.76" height="77.59" transform="translate(246.45 -61.38) rotate(90)" style="fill:none;stroke:#c6c6c6;stroke-linecap:round;stroke-linejoin:round;stroke-width:0.933333337306976px"/>
      <rect x="148.03" y="65.5" width="11.76" height="77.59" transform="translate(258.21 -49.62) rotate(90)" style="fill:none;stroke:#c6c6c6;stroke-linecap:round;stroke-linejoin:round;stroke-width:0.933333337306976px"/>
      <rect x="148.03" y="77.46" width="11.76" height="77.59" transform="translate(270.17 -37.66) rotate(90)" style="fill:none;stroke:#c6c6c6;stroke-linecap:round;stroke-linejoin:round;stroke-width:0.933333337306976px"/>
      <circle cx="121.55" cy="68.81" r="2.73" style="fill:#006d68"/>
      <circle cx="134.41" cy="68.81" r="2.73" style="fill:#006d68"/>
      <circle cx="147.48" cy="68.81" r="2.73" style="fill:#006d68"/>
      <circle cx="121.55" cy="80.57" r="2.73" style="fill:#006d68"/>
      <circle cx="134.41" cy="80.57" r="2.73" style="fill:#006d68"/>
      <circle cx="147.48" cy="80.57" r="2.73" style="fill:#006d68"/>
      <circle cx="121.55" cy="92.33" r="2.73" style="fill:#3c3c3c"/>
      <circle cx="160.34" cy="68.81" r="2.73" style="fill:#006d68"/>
      <circle cx="160.34" cy="80.57" r="2.73" style="fill:#006d68"/>
      <circle cx="173.34" cy="68.81" r="2.73" style="fill:#006d68"/>
      <circle cx="173.34" cy="80.57" r="2.73" style="fill:#006d68"/>
      <circle cx="186.34" cy="68.81" r="2.73" style="fill:#006d68"/>
      <circle cx="186.34" cy="80.57" r="2.73" style="fill:#006d68"/>
      <polygon points="268.32 267.31 242.72 267.6 256.27 258.23 256.3 177.53 295.84 174.24 306.43 267.31 282.07 268.13 292.81 259.51 277.34 213.13 268.32 267.31" style="fill:#fff;stroke:#3c3c3b;stroke-linecap:round;stroke-linejoin:round;stroke-width:0.964194979413252px"/>
      <path d="M210.78,119.78c3.85,2.39,8.75,3.28,11.25-.31,3.55-5.1-4.74-10-6.91-13.85a6.55,6.55,0,0,0-.44,3.73c.21,1,1.07,1.93.78,3-.58,2.13-4.1-1.48-4.68-2-1.95-1.91-4-5.25-7-5.32C206.7,110.19,205.3,116.39,210.78,119.78Z" style="fill:#fff"/>
      <path d="M210.78,119.78c3.85,2.39,8.75,3.28,11.25-.31,3.55-5.1-4.74-10-6.91-13.85a6.55,6.55,0,0,0-.44,3.73c.21,1,1.07,1.93.78,3-.58,2.13-4.1-1.48-4.68-2-1.95-1.91-4-5.25-7-5.32C206.7,110.19,205.3,116.39,210.78,119.78Z" style="fill:none;stroke:#3c3c3b;stroke-linecap:round;stroke-linejoin:round"/>
      <path d="M218.51,130.13l.06.08,8.37,10a23.37,23.37,0,0,0,37.28-1.81l7.47-11a8.35,8.35,0,0,0-13.81-9.39l-7.47,11a6.67,6.67,0,0,1-10.64.52l-8.36-10a8.35,8.35,0,0,0-12.9,10.61Z" style="fill:#aecc53"/>
      <path d="M255.3,176.2c-.42-.36-.26-13.74-.35-16a222,222,0,0,1,.14-27.42c.59-7,.81-14.17,5.91-19.64,6.06-6.5,15.12-7.79,22.07-1.81,4.13,3.55,6.69,8.6,8.45,13.76,2.6,7.62,5.88,36.9,5.49,49.46C297,175.21,270.5,189.37,255.3,176.2Z" style="fill:#006d68;stroke:#006d68;stroke-linecap:round;stroke-linejoin:round;stroke-width:0.752426474177474px"/>
      <rect x="244.34" y="157.82" width="27" height="19" transform="translate(397.47 441.14) rotate(-150)" style="fill:#3c3c3b"/>
      <circle cx="260.4" cy="96.67" r="14.25" style="fill:#fff;stroke:#3c3c3b;stroke-linecap:round;stroke-linejoin:round"/>
      <path d="M254.39,78.71c.42-.28.84-.55,1.28-.79C266,72.06,279.4,76.46,283,88.21c.92,3,2,6.1,2,9.29,7.5-3.47,12.16,4.35,8.8,11a7.5,7.5,0,0,1-6.69,4.22,6,6,0,0,1-5.66-5.07c-1.44.44-11.25-1.23-11.47,0,.36-2-.25-3.72-.26-5.72,0,.71,1.34-.7,1.33-.7a4.84,4.84,0,0,0,.75-2.61c.33-2.16.14-4.44-1.7-5.91a3.21,3.21,0,0,0-2.07-.78,1.87,1.87,0,0,0-1.72,1.23c.57-2-2.64-4.71-4-5.65-4.2-2.92-9-3.14-12.91.34A10.27,10.27,0,0,1,254.39,78.71Z" style="fill:#3c3c3b;stroke:#3c3c3b;stroke-linecap:round;stroke-linejoin:round;stroke-width:0.970113517566058px"/>
      <g style="mix-blend-mode:multiply">
        <path d="M284.78,168.66l.08-.06,10-8.4A23.34,23.34,0,0,0,292.93,123l-11-7.42a8.34,8.34,0,1,0-9.33,13.83l11,7.42a6.67,6.67,0,0,1,.55,10.63l-10,8.39c-3.53,3-3.26,7-.3,10.51S281.25,171.55,284.78,168.66Z" style="fill:#aecc53"/>
      </g>
      <ellipse cx="276.84" cy="164.32" rx="3.5" ry="7.5" transform="translate(-37.62 233.28) rotate(-43.06)" style="fill:#3c3c3b"/>
      <path d="M277.6,168.8a1.11,1.11,0,0,1-.16.24c-1.8,2.23-4.95,3.92-7.55,5.06a7.27,7.27,0,0,1-4.3.63c-2-.38-3.52-1.78-5.34-2.55a18.58,18.58,0,0,1-2.5-1.1c-.41-.25-1.85-1.79-2.27-1.71a29.47,29.47,0,0,0,8.15-2.54c1.16-.49,4.06-1.68,1.39-2.77a3.22,3.22,0,0,1-1.87-2.73c0-.51,0-2.4.86-2a39.8,39.8,0,0,0,4.49,2.1,10,10,0,0,0,3.08.49c1.21,0,2.13-.29,3.1.49A9,9,0,0,1,277,165C277.55,166,278.19,167.72,277.6,168.8Z" style="fill:#fff;stroke:#3c3c3b;stroke-linecap:round;stroke-linejoin:round"/>
      <line x1="277.34" y1="212.82" x2="269.48" y2="189.62" style="fill:none;stroke:#3c3c3b;stroke-linecap:round;stroke-linejoin:round;stroke-width:0.964194979413252px"/>
      <path d="M214.34,229.32h-5V112.78a3.46,3.46,0,0,1,3.46-3.46h1.54Z" style="fill:#aecc53"/>
      <rect x="209.34" y="229.32" width="5" height="2" style="fill:#3c3c3b"/>
      <line x1="209.84" y1="128.32" x2="211.84" y2="128.32" style="fill:none;stroke:#3c3c3b;stroke-linecap:round;stroke-linejoin:round"/>
      <line x1="209.84" y1="144.32" x2="211.84" y2="144.32" style="fill:none;stroke:#3c3c3b;stroke-linecap:round;stroke-linejoin:round"/>
      <line x1="209.84" y1="160.32" x2="211.84" y2="160.32" style="fill:none;stroke:#3c3c3b;stroke-linecap:round;stroke-linejoin:round"/>
      <line x1="209.84" y1="176.32" x2="211.84" y2="176.32" style="fill:none;stroke:#3c3c3b;stroke-linecap:round;stroke-linejoin:round"/>
      <line x1="209.84" y1="192.32" x2="211.84" y2="192.32" style="fill:none;stroke:#3c3c3b;stroke-linecap:round;stroke-linejoin:round"/>
      <line x1="209.84" y1="208.32" x2="211.84" y2="208.32" style="fill:none;stroke:#3c3c3b;stroke-linecap:round;stroke-linejoin:round"/>
      <path d="M171.37,202.34a3.83,3.83,0,0,0-2.52-.54c-1.37.19-2.59.94-4,.57a13.92,13.92,0,0,1-6.9-4.25,87.83,87.83,0,0,1-9.67-13.82c-3.94-6.62-2.33-14.34,2.32-20.12a27.93,27.93,0,0,1,8.58-7.08c4.54-2.44,6.84-1.55,11.57-.72,3.57.62,6.79-1.5,10.13.15a25,25,0,0,1,8.27,6.45,24.41,24.41,0,0,1,5,10c1.1,4.73.13,8.1-2.46,12.17-3.22,5.06-6.28,10.63-11.11,14.36-1.89,1.45-5.34,3.69-7.87,3.29A4.69,4.69,0,0,1,171.37,202.34Z" style="fill:#006d68;stroke:#006d68;stroke-linecap:round;stroke-linejoin:round;stroke-width:0.25547835303343px"/>
      <path d="M182.14,152.53c-2.8,1.72-10,.09-10,.09s1.81-7.19,4.61-8.91S187,143.5,187,143.5,184.94,150.81,182.14,152.53Z" style="fill:none;stroke:#aecc53;stroke-linecap:round;stroke-linejoin:round;stroke-width:1.10380276098692px;mix-blend-mode:multiply"/>
      <path d="M171.82,156.49c-.06-1.92-.34-4.45-2.77-4.7" style="fill:none;stroke:#3c3c3b;stroke-linecap:round;stroke-linejoin:round;stroke-width:0.735868507324611px"/>
      <path d="M134.84,168.2c-2.61-2-3.88-2.32-6.91-1.71s-5.87-.41-8.85-1.06c-2.61-.56-5.21,1.09-7.34,2.77a18.84,18.84,0,0,0-7.18,14.74c0,7.32,4.35,11.72,8.74,17a7.37,7.37,0,0,0,2.33,2.09c1.74.81,3.78.13,5.69.33,1.22.13,2.4.63,3.63.68,2.88.13,5.26-2.09,7.27-4.16,4.66-4.8,9.79-8.79,9.79-16A18.85,18.85,0,0,0,134.84,168.2Zm-18.69,6.91a3.2,3.2,0,0,0-.55.39,8.7,8.7,0,0,0-3,3.91c-.33.84-1.55,3.91-2.72,2.3-1.69-2.29,1.1-7.64,3-9a2.79,2.79,0,0,1,1.84-.56,1.92,1.92,0,0,1,1.7,1.71C116.64,174.77,116.49,174.9,116.15,175.11Z" style="fill:#aecc53;mix-blend-mode:multiply"/>
      <path d="M134.84,168.2c-2.61-2-3.88-2.32-6.91-1.71s-5.87-.41-8.85-1.06c-2.61-.56-5.21,1.09-7.34,2.77a18.84,18.84,0,0,0-7.18,14.74c0,7.32,4.35,11.72,8.74,17a7.37,7.37,0,0,0,2.33,2.09c1.74.81,3.78.13,5.69.33,1.22.13,2.4.63,3.63.68,2.88.13,5.26-2.09,7.27-4.16,4.66-4.8,9.79-8.79,9.79-16A18.85,18.85,0,0,0,134.84,168.2Z" style="fill:none;stroke:#ededed;stroke-linecap:round;stroke-linejoin:round;stroke-width:0.459459287862079px"/>
      <path d="M122.16,156c1.84,1.23,2.86,6.11,2.86,6.11s-4.9.9-6.74-.33-3-6.2-3-6.2S120.32,154.77,122.16,156Z" style="fill:#3c3c3b"/>
      <path d="M124.19,166.08c0-2.42.25-5.63,3.31-6.05" style="fill:none;stroke:#3c3c3b;stroke-linecap:round;stroke-linejoin:round"/>
      <ellipse cx="185" cy="177.06" rx="3.13" ry="4.23" style="fill:#3c3c3b;stroke:#3c3c3b;stroke-linecap:round;stroke-linejoin:round;stroke-width:0.333142128268167px"/>
      <path d="M191.74,181.26a13.11,13.11,0,0,1-6.77-1.85,2.58,2.58,0,0,1,2.67-4.41,7.86,7.86,0,0,0,11.71-4.91,19.16,19.16,0,0,0,.35-3.84,18.65,18.65,0,0,1,.91-6.29,2.58,2.58,0,1,1,4.82,1.82,14.31,14.31,0,0,0-.58,4.6,23.27,23.27,0,0,1-.49,4.9,13.21,13.21,0,0,1-7.63,9A12.91,12.91,0,0,1,191.74,181.26Z" style="fill:#fff;stroke:#3c3c3b;stroke-linecap:round;stroke-linejoin:round;stroke-width:0.659837826811836px"/>
      <path d="M188.4,179a4.06,4.06,0,0,1,.79-3.28" style="fill:none;stroke:#3c3c3b;stroke-linecap:round;stroke-linejoin:round;stroke-width:0.659837826811836px"/>
      <path d="M191.45,176.32a4.25,4.25,0,0,0,.44,3.23" style="fill:none;stroke:#3c3c3b;stroke-linecap:round;stroke-linejoin:round;stroke-width:0.659837826811836px"/>
      <path d="M194.39,176a4.78,4.78,0,0,0,1.14,2.37" style="fill:none;stroke:#3c3c3b;stroke-linecap:round;stroke-linejoin:round;stroke-width:0.659837826811836px"/>
      <path d="M197.28,173.91a2,2,0,0,0,1.69,1.71" style="fill:none;stroke:#3c3c3b;stroke-linecap:round;stroke-linejoin:round;stroke-width:0.659837826811836px"/>
      <path d="M198.91,171.47a2.06,2.06,0,0,0,1.91.88" style="fill:none;stroke:#3c3c3b;stroke-linecap:round;stroke-linejoin:round;stroke-width:0.659837826811836px"/>
      <path d="M199.63,168.46a2.45,2.45,0,0,0,2.26.52" style="fill:none;stroke:#3c3c3b;stroke-linecap:round;stroke-linejoin:round;stroke-width:0.659837826811836px"/>
      <path d="M199.82,165.06a2.57,2.57,0,0,0,2.43.76" style="fill:none;stroke:#3c3c3b;stroke-linecap:round;stroke-linejoin:round;stroke-width:0.659837826811836px"/>
      <circle cx="202.7" cy="160.5" r="0.56" style="fill:#3c3c3b"/>
      <line x1="108.07" y1="205.32" x2="197.6" y2="205.32" style="fill:none;stroke:#3c3c3b;stroke-linecap:round;stroke-linejoin:round;stroke-width:2px"/>
      <path d="M257.68,171.4c3.73.42,6.83-1.7,9.91-3.42.66,2.06,1.71,4.48,4.06,4.85" style="fill:none;stroke:#3c3c3b;stroke-linecap:round;stroke-linejoin:round"/>
      <line x1="243.84" y1="164.32" x2="247.84" y2="158.32" style="fill:none;stroke:#aecc53;stroke-linecap:round;stroke-linejoin:round;stroke-width:2px"/>
      <rect x="190.84" y="238.32" width="37" height="9" style="fill:#fff"/>
      <rect x="190.84" y="252.32" width="37" height="9" style="fill:#fff"/>
      <rect x="190.84" y="267.32" width="37" height="9" style="fill:#fff"/>
    </g>
  </g>
</svg>