<?xml version="1.0" encoding="utf-8"?>
<svg xmlns="http://www.w3.org/2000/svg" width="315.56" height="303.12" viewBox="0 0 315.56 303.12">
  <g style="isolation:isolate">
    <g id="f50b8b76-b23a-436c-b600-19307d2f436f" data-name="Layer 1">
      <path d="M212.08,9c-13.22-4.95-27-9.1-41.13-9-19,.08-37.11,7.76-54.41,15.66C84.68,30.2,59.56,53,33.44,76.13c-21.14,18.74-24.61,57.58-24,84,.07,3.18.15,6.38.3,9.58.44,9.84,1.5,19.65,5,28.82,5.53,14.71,18.35,27.13,28,39.23,10.49,13.11,20.76,24,34.88,33.4,16,10.59,38.84,28.79,58.56,30.46,24.82,2.1,43.83,3.11,67.68-4.33,25.41-7.92,53.26-19.48,71.55-39.74,9.58-10.62,15.85-25.78,23-38.13,13.93-24.1,19.7-50.08,16.12-77.78-3.75-29-15.14-51.22-27.16-77.13C271.94,31.21,244.83,21.32,212.08,9Z" style="fill:#aecc53;opacity:0.2"/>
      <line x1="128.03" y1="246.06" x2="203.48" y2="246.06" style="fill:none;stroke:#aecc53;stroke-linecap:round;stroke-linejoin:round;stroke-width:1.5px"/>
      <line x1="97.48" y1="246.06" x2="118.98" y2="246.06" style="fill:none;stroke:#aecc53;stroke-linecap:round;stroke-linejoin:round;stroke-width:1.5px"/>
      <line x1="137.48" y1="240.06" x2="215.48" y2="240.06" style="fill:none;stroke:#aecc53;stroke-linecap:round;stroke-linejoin:round;stroke-width:1.5px"/>
      <polygon points="103.17 73.56 95.84 73.56 57.71 73.56 50.37 73.56 28.38 231.96 57.71 231.96 95.84 231.96 125.17 231.96 103.17 73.56" style="fill:#fff;stroke:#3c3c3b;stroke-linecap:round;stroke-linejoin:round;stroke-width:1.5px"/>
      <path d="M120.57,202.54c-4.34-3.38-13-4.31-17.74-1.12-5.41,3.64-4.53,7.24-3.36,12.54a25.52,25.52,0,0,1-1.75,16.2" style="fill:none;stroke:#3c3c3b;stroke-linecap:round;stroke-linejoin:round;stroke-width:1.5px"/>
      <path d="M86.67,231c4-4.89,2.36-12,1.67-18.3a35.67,35.67,0,0,1,2-17.39c2.25-5.45,6.47-10.23,12-12.4s12.22-1.4,16.61,2.53" style="fill:none;stroke:#3c3c3b;stroke-linecap:round;stroke-linejoin:round;stroke-width:1.5px"/>
      <path d="M72.21,230.77c6.21-6.2,6.64-19.4,6.08-27.5-.94-13.76-4.86-28.41,4.32-40.44,6.58-8.61,19.41-16.26,30.6-13.47" style="fill:none;stroke:#3c3c3b;stroke-linecap:round;stroke-linejoin:round;stroke-width:1.5px"/>
      <path d="M31.86,207.93a26.68,26.68,0,0,1,10.33-10.71,11.41,11.41,0,0,1,4.8-1.68c3.61-.25,7.51,2.41,9,5.66,1.64,3.56,0,6.44-2,9.66a41.22,41.22,0,0,0-4.93,10.28,16.07,16.07,0,0,0,.6,11.17" style="fill:none;stroke:#3c3c3b;stroke-linecap:round;stroke-linejoin:round;stroke-width:1.5px"/>
      <path d="M62.15,231.71c-2.3-5.07-.82-11,1.46-16.12s5.34-9.91,6.31-15.39a12.55,12.55,0,0,0-.46-6.85,14.93,14.93,0,0,0-3.33-4.65c-4.19-4.3-9.42-7.85-15.33-8.91s-12.55.76-16.25,5.49" style="fill:none;stroke:#3c3c3b;stroke-linecap:round;stroke-linejoin:round;stroke-width:1.5px"/>
      <path d="M70.13,74.31c3.51,2.49,5.18,8.44,4.81,12.56-.18,2-.84,3.94-1,5.94a12.1,12.1,0,0,0,4.25,10.26,11.18,11.18,0,0,0,10.89,1.8c7.32-2.85,8.76-12.38,16.1-15.68" style="fill:none;stroke:#3c3c3b;stroke-linecap:round;stroke-linejoin:round;stroke-width:1.5px"/>
      <path d="M50.51,76a25.43,25.43,0,0,1,9.42,12.87c1.89,5.87,1.59,12.32,3.87,18a21.27,21.27,0,0,0,31.39,10c3.86-2.52,7.06-6.36,11.55-7.37" style="fill:none;stroke:#3c3c3b;stroke-linecap:round;stroke-linejoin:round;stroke-width:1.5px"/>
      <path d="M46.38,106.79c4.43,1,7.36,5.28,8.73,9.61s1.64,8.95,3.25,13.19a22.28,22.28,0,0,0,32.73,11c3.2-2,5.83-4.8,8.88-7s6.81-3.91,10.52-3.22" style="fill:none;stroke:#3c3c3b;stroke-linecap:round;stroke-linejoin:round;stroke-width:1.5px"/>
      <path d="M37.14,168.67c4.32-.94,8.94-1.85,13-.23,1.36.54,2.6,1.34,4,1.81,5.15,1.77,11.21-1.89,12.79-7.1S66.08,152,61.76,148.7c-3.15-2.41-7.06-3.58-10.46-5.61-3.88-2.33-8.51-7.79-8.49-12.51" style="fill:none;stroke:#3c3c3b;stroke-linecap:round;stroke-linejoin:round;stroke-width:1.5px"/>
      <polygon points="180.46 164.94 180.46 133.94 151.44 162.96 151.44 133.94 120.44 164.94 120.44 231.94 214.94 231.94 214.94 164.94 180.46 164.94" style="fill:#006d68;stroke:#006d68;stroke-linecap:round;stroke-linejoin:round;stroke-width:1.09122911095619px"/>
      <line x1="59.98" y1="232.06" x2="181.98" y2="232.06" style="fill:none;stroke:#3c3c3b;stroke-linecap:round;stroke-linejoin:round;stroke-width:1.5px"/>
      <rect x="179.85" y="104.44" width="59.18" height="149.5" style="fill:#fff;stroke:#3c3c3b;stroke-linecap:round;stroke-linejoin:round"/>
      <rect x="184.7" y="182.12" width="49.48" height="18.86" style="fill:#aecc53;mix-blend-mode:multiply"/>
      <rect x="184.7" y="158.59" width="49.48" height="18.86" style="fill:#aecc53;mix-blend-mode:multiply"/>
      <rect x="184.7" y="205.64" width="49.48" height="18.86" style="fill:#aecc53;mix-blend-mode:multiply"/>
      <rect x="184.7" y="135.12" width="49.48" height="18.86" style="fill:#aecc53;mix-blend-mode:multiply"/>
      <rect x="184.7" y="111.12" width="49.48" height="18.86" style="fill:#aecc53;mix-blend-mode:multiply"/>
      <rect x="184.7" y="229.16" width="49.48" height="18.86" style="fill:#aecc53;mix-blend-mode:multiply"/>
      <rect x="196.95" y="93.18" width="24.33" height="11.26" style="fill:none;stroke:#3c3c3b;stroke-linecap:round;stroke-linejoin:round"/>
      <rect x="210.85" y="150.7" width="59.18" height="103.24" style="fill:#fff;stroke:#3c3c3b;stroke-linecap:round;stroke-linejoin:round"/>
      <rect x="215.7" y="182.12" width="49.48" height="18.86" style="fill:#006d68;stroke:#006d68;stroke-linecap:round;stroke-linejoin:round;stroke-width:1.09122911095619px"/>
      <rect x="215.7" y="158.59" width="49.48" height="18.86" style="fill:#006d68;stroke:#006d68;stroke-linecap:round;stroke-linejoin:round;stroke-width:1.09122911095619px"/>
      <rect x="215.7" y="205.64" width="49.48" height="18.86" style="fill:#006d68;stroke:#006d68;stroke-linecap:round;stroke-linejoin:round;stroke-width:1.09122911095619px"/>
      <rect x="215.7" y="229.16" width="49.48" height="18.86" style="fill:#006d68;stroke:#006d68;stroke-linecap:round;stroke-linejoin:round;stroke-width:1.09122911095619px"/>
      <rect x="227.95" y="140.18" width="24.33" height="10.52" style="fill:#fff;stroke:#3c3c3b;stroke-linecap:round;stroke-linejoin:round"/>
      <path d="M260.46,220.42a3.36,3.36,0,1,0,0-6.71H243.28a27.6,27.6,0,0,1-.43-4.75,20.86,20.86,0,0,1,.52-4.2h17.09a3.36,3.36,0,1,0,0-6.71H245.34c1-2.8,2.25-5.82,3.65-8.94h11.47a3.36,3.36,0,1,0,0-6.71h-8.31c1.48-3,3-6,4.58-8.94h3.73a3.36,3.36,0,1,0,0-6.71h-.07c5.08-9.13,9.3-15.93,9.3-15.93s4.21,6.8,9.29,15.93h-.07a3.36,3.36,0,0,0,0,6.71h3.73c1.55,2.91,3.1,5.92,4.59,8.94h-8.32a3.36,3.36,0,0,0,0,6.71h11.48c1.4,3.12,2.64,6.14,3.64,8.94H278.91a3.36,3.36,0,0,0,0,6.71H296a20.16,20.16,0,0,1,.52,4.2,26.64,26.64,0,0,1-.43,4.75H278.91a3.36,3.36,0,0,0,0,6.71h15a26.84,26.84,0,0,1-48.53,0Z" style="fill:#aecc53;mix-blend-mode:multiply"/>
      <line x1="0.75" y1="253.94" x2="297.98" y2="253.94" style="fill:none;stroke:#aecc53;stroke-linecap:round;stroke-linejoin:round;stroke-width:1.5px"/>
      <rect x="120.48" y="83.56" width="31" height="148" style="fill:#aecc53;mix-blend-mode:multiply"/>
      <path d="M153,15.37H118.92a9,9,0,0,0-9,9V53.19a9,9,0,0,0,9,9h9.6L136,69.63l7.46-7.46H153a9,9,0,0,0,9-9V24.34A9,9,0,0,0,153,15.37Z" style="fill:#fff;stroke:#aecc53;stroke-linecap:round;stroke-linejoin:round;stroke-width:1.5px"/>
      <path d="M136,32.45c-.46-1.18-.43-2.53-1.24-3.51a8.07,8.07,0,0,0-14.28,5.17,1.62,1.62,0,0,0,0,.21c.25,8,14.61,20.49,15.44,20.7H136C136.79,54.83,139.27,40.76,136,32.45Z" style="fill:#006d68"/>
      <path d="M151.46,34.32a1.62,1.62,0,0,0,0-.21A8.07,8.07,0,0,0,136,30.92c-5,9.84-.87,23.89,0,24.1H136C136.85,54.81,151.21,42.27,151.46,34.32Z" style="fill:#aecc53;mix-blend-mode:multiply"/>
      <path d="M20.86,222.63a9.41,9.41,0,0,1,17,0l7.23,15.19c.14.29-1.36,2.44-1.55,2.8-.59,1.08-1.17,2.16-1.73,3.24-1.09,2.1-2.14,4.22-3.13,6.36L36.92,254H5.48s1.06-2.09,1.43-2.84l2.38-4.88,6.11-12.52C17.22,230.07,19.08,226.37,20.86,222.63Z" style="fill:#aecc53;mix-blend-mode:multiply"/>
      <path d="M63.59,252.89l-8-17.13a5.36,5.36,0,0,0-9.67,0l-8.29,17.39" style="fill:none;stroke:#aecc53;stroke-linecap:round;stroke-linejoin:round;stroke-width:1.50242453813553px"/>
      <path d="M59.13,243.92c-2-.87-3,.44-3.73,2.11a26.35,26.35,0,0,0-1.93,7" style="fill:none;stroke:#aecc53;stroke-linecap:round;stroke-linejoin:round;stroke-width:1.50242453813553px"/>
      <path d="M57.27,239.14a8.92,8.92,0,0,0-5,1.7,11.87,11.87,0,0,0-2.94,4.43c-1.37,2.93-2.44,5-2.79,7.62" style="fill:none;stroke:#aecc53;stroke-linecap:round;stroke-linejoin:round;stroke-width:1.50242453813553px"/>
    </g>
  </g>
</svg>