<svg xmlns="http://www.w3.org/2000/svg" viewBox="0 0 812 696"><defs><style>.cls-13,.cls-6{fill:#aecc53}.cls-17{stroke:#3c3c3b}.cls-12,.cls-14,.cls-17,.cls-4,.cls-9{stroke-linecap:round;stroke-linejoin:round}.cls-4{fill:#006d68;stroke:#006d68;stroke-width:1.09px}.cls-8{stroke-miterlimit:10}.cls-6,.cls-7{mix-blend-mode:multiply}.cls-7{fill:#ccc}.cls-12,.cls-14,.cls-17,.cls-8,.cls-9{fill:none}.cls-12,.cls-14,.cls-8,.cls-9{stroke:#aecc53}.cls-8,.cls-9{stroke-width:2.7px}.cls-12{stroke-width:1.74px}.cls-14{stroke-width:1.67px}.cls-17{stroke-width:1.5px}</style></defs><g style="isolation:isolate"><g id="Layer_1" data-name="Layer 1"><path d="M472.81 690.44c74.46-8.52 145.72-41.93 199.39-92.86 29.23-27.73 42.63-54.4 58.89-89.63 17.34-37.56 38.27-74.71 43.75-116.12 7.35-55.58 20.67-110.72 28-166.53 4.71-35.89 9.42-72.34 3.8-108.07s-23.06-71.3-54.14-91.13C704.94-4.23 642.64 1.75 589.29 10.42c-12.27 2-25.49 3.16-36.6 8.73-10.45 5.23-16.79 14.47-29 18.49-25.23 8.36-52.59.67-78.51 3.59-47 5.29-97.8 27.15-142.25 42.47-73.61 25.4-147.02 56.43-205.11 107.3C31.9 248.73-12.41 338.66 7.67 425.67A209.4 209.4 0 0 0 31 484.33C49.47 515.84 76 542 105.4 564c13.61 10.15 26.54 20.27 42.71 23.3 20.3 3.82 36.5 2.49 55.49 13.51 13.91 8.08 21.18 23.17 33.09 33.25 58.02 49.09 162.55 64.8 236.12 56.38" style="fill:#aecc53;opacity:.2"/><path d="M803.91 428.61v47.6h-70.09v-47.6H618.71v-54.4l126.4-180h58.8z" style="fill:#fff;stroke:#3c3c3b;stroke-linecap:round;stroke-linejoin:round;stroke-width:1.92px"/><path d="M238.92 428.61v47.6h-71.6v-47.6H53.72v-54.4l126.4-180h58.8zm-71.6-56v-69.2l-48 69.2Z" class="cls-4"/><path d="M732.31 372.61v-69.2l-48 69.2Z" style="stroke:#3c3c3b;fill:#3c3c3b;stroke-miterlimit:10"/><path d="M167.32 372.61v-69.2l71.4 86.8v86z" class="cls-6"/><path d="m167.32 372.61-47.6-.4 48 104h71z" class="cls-7"/><path d="M594.18 335.21c0 66.42-45.17 111.37-104.33 131.08-9.25 3.08-20.48 3.38-30.13 3.38a134.6 134.6 0 0 1-65.38-16.94c-9.39-5.23-17.47-10.85-23.87-19.41-5.8-7.76-12.51-12.24-19.44-19.07-6.07-6-10.35-15.89-13.82-23.55a134.5 134.5 0 0 1-11.95-55.49 140.5 140.5 0 0 1 9.07-48.66c4.48-12.21 14.24-22.09 20.7-33.12 6.77-11.56 16.05-20.09 27.18-27.85 22.58-15.76 49.91-24.83 77.51-24.83a134.6 134.6 0 0 1 119 71.77c5.27 10 7.17 20.75 9.23 31.7 2.05 10.78 6.23 19.92 6.23 30.99Z" class="cls-8"/><path d="M325.81 325.65c3.68-5.26 11.56-9.21 17.7-10.36a43 43 0 0 1 9.7-1c7.52.35 14.53 4.86 18.73 11.1 9 13.38 4 32 1.63 46.77-4.73 29.79 1.71 61.18 24 82.66" class="cls-9"/><path d="M336.37 283.93c12.32-7 28-8.82 41.35-3.82 13.15 4.9 21.62 18.5 25.44 31.51 7 23.84 1.21 47.23.61 71.47-.48 19 3.79 35.05 12.38 51.84 6.08 11.89 14.88 26.78 26.42 34M556 427c-24.12 29.29-73.53 35-93.42-5.43-9.45-19.19-8.27-41.33-2-61.36 5.66-18.21 25.22-32.77 35.46-49.51 5.71-9.32 5.48-22.25 8-32.9a65 65 0 0 1 4-13.07 33.06 33.06 0 0 1 26-18.42c20.07-2.07 38.08 11.1 45.52 29.08" class="cls-9"/><path d="M487.22 404.29c4.67 8.49 13.83 14.87 23.51 14.41 4.81-.22 9.41-2.05 13.66-4.33 25.27-13.57 39.19-43.37 38.61-72.1-.2-10.09-2-20.35-7-29.13s-13.41-15.93-23.33-17.77c-15.35-2.85-17.47 8.55-19.15 20.4-1.52 10.74-4.25 16.08-11.49 23.77-15.46 16.46-26.85 42.87-14.81 64.75Z" class="cls-8"/><path d="M512 363.17c-1.45 3.47-2.77 7.14-2.48 10.89s2.6 7.58 6.24 8.51c4.26 1.09 8.41-2 11.51-5.1a77.3 77.3 0 0 0 15.34-22.19c2-4.36 3.57-9.44 1.71-13.87-9.81-23.25-29.79 15.59-32.32 21.76Z" class="cls-8"/><path d="M520.79 215.37c-28.25-4.1-46.93 27.07-48.83 51.05-1 12.75 2.31 24.57-3.6 36.82-4.74 9.83-13.67 16.9-20.43 25.47-30.55 38.75-15.9 114.64 27.62 139.44M355.68 251.78c8.39-5.75 19.11-6 28.39-1.85a64.4 64.4 0 0 1 27.14 23.25c5 7.72 2.71 23.58 11 28.56 3.76 2.26 8.8 1.45 12.39-1.06s5.95-6.43 7.68-10.46c12-27.91-7.25-74.15 29.21-89.47" class="cls-9"/><path d="M377 229.84c4.81-5.15 14.89-4.26 20.8-1.89 8.07 3.24 7.73 11.46 13.46 17a11.38 11.38 0 0 0 18.36-3.81c1.4-3.36 1.12-7.16.73-10.79-.48-4.52-1.08-9.1-.4-13.59.83-5.52 4.6-12 10.21-13.9" class="cls-9"/><path d="M732.72 193.86h71v282.35h-71z" style="fill:#fff;stroke:#3c3c3b;stroke-linecap:round;stroke-linejoin:round;stroke-width:1.2px"/><path d="M738.53 386.04h59.36v22.63h-59.36zm0-30.22h59.36v22.63h-59.36zm0 60.44h59.36v22.63h-59.36zm0-90.61h59.36v22.63h-59.36zm0-30.79h59.36v22.63h-59.36zm0-29.82h59.36v22.63h-59.36zm0-30.22h59.36v22.63h-59.36zm0-30.17h59.36v22.63h-59.36zm0 241.83h59.36v22.63h-59.36z" class="cls-4"/><path d="M753.23 180.35h29.19v13.51h-29.19z" style="fill:#3c3c3b"/><path d="M298.15 476.21h-59.82s0-2 .1-3c1.23-19.33 14.11-44 29.81-44s28.58 24.71 29.81 44.05c.07 1 .1 2.95.1 2.95" class="cls-7"/><path d="M319.81 476.21H288v-1.58c.66-10.29 7.51-23.44 15.87-23.44s15.21 13.16 15.87 23.45c.05.53.07 1.57.07 1.57" class="cls-6"/><path d="M81.63 373H93.1a28.39 28.39 0 0 0 26.41-18.17 23.42 23.42 0 0 0 .6-14.73l-18-64.66c-4.16-14.93-25.33-14.94-29.49 0-7.22 25.94-15 53.84-18 64.64a23.44 23.44 0 0 0 .59 14.76A28.39 28.39 0 0 0 81.63 373" class="cls-12"/><path d="M75.81 314a11.71 11.71 0 0 0 23.12 0" class="cls-12"/><path d="M73.88 314.24A2 2 0 1 1 76 316a2 2 0 0 1-2.12-1.76m26.97 0a2 2 0 1 0-2.13 1.76 2 2 0 0 0 2.13-1.76" class="cls-13"/><path d="M70.06 331a17.41 17.41 0 0 0 34.62 0" class="cls-12"/><path d="M68.11 331.26a2 2 0 1 1 2.09 1.84 2 2 0 0 1-2.09-1.84m38.51 0a2 2 0 1 0-2.08 1.84 2 2 0 0 0 2.08-1.84" class="cls-13"/><path d="M87.36 298.79v130.34" class="cls-12"/><circle cx="87.36" cy="298.89" r="1.96" class="cls-13"/><path d="m104.89 413.86 7.14-15a9.27 9.27 0 0 1 16.74 0l13.86 29" class="cls-14"/><path d="M107.63 419q2.66-6 5.61-11.83c1.55-3.06 3-6.52 5.92-8.56a7 7 0 0 1 4.85-1.29 8.9 8.9 0 0 1 4.64 1.92" class="cls-14"/><path d="m110.55 424.93 6.59-14.35a20.5 20.5 0 0 1 3.14-5.32 6.92 6.92 0 0 1 7.7-1.81 15.7 15.7 0 0 1 2.32 1.16l1.7 1m-40.68 23.24 6.49-13.8a4.31 4.31 0 0 1 7.79 0l6.68 14" class="cls-14"/><path d="M95 421.62c1.58-.7 2.43.36 3 1.7a21.5 21.5 0 0 1 1.55 5.62m-3.08-11.17a7.15 7.15 0 0 1 4 1.37 9.55 9.55 0 0 1 2.37 3.57 21.3 21.3 0 0 1 2.24 6.14m34.92-6.63c-1.51-2.8-3.71-6.36-7.3-6.29a8.26 8.26 0 0 0-5.36 2.42c-3 2.81-4.14 6.39-5.74 10" class="cls-14"/><path d="M261.64 363a8.14 8.14 0 0 1 0-16.27h41.66a65.3 65.3 0 0 0 1-11.52 50.5 50.5 0 0 0-1.21-10.21h-41.45a8.13 8.13 0 0 1 0-16.26h36.66c-2.42-6.8-5.44-14.13-8.83-21.69h-27.83a8.14 8.14 0 0 1 0-16.27h20.17c-3.6-7.31-7.37-14.63-11.13-21.68h-9a8.14 8.14 0 0 1 0-16.27h.18c-12.33-22.14-22.55-38.63-22.55-38.63s-10.21 16.49-22.54 38.63h.18a8.14 8.14 0 0 1 0 16.27h-9c-3.76 7.05-7.53 14.37-11.13 21.68h20.17a8.14 8.14 0 0 1 0 16.27h-27.91c-3.39 7.56-6.42 14.89-8.84 21.69h36.67a8.13 8.13 0 0 1 0 16.26h-41.45a50.5 50.5 0 0 0-1.25 10.17 65.3 65.3 0 0 0 1 11.52h41.66a8.14 8.14 0 0 1 0 16.27h-36.43a65.07 65.07 0 0 0 117.67 0Z" class="cls-6"/><path d="M239.72 338.21v138" style="stroke-linecap:round;stroke-linejoin:round;fill:none;stroke:#fff;stroke-width:4px"/><path d="m167.72 372.21 72 104" style="fill:none"/><path d="M634.26 355.57c1.65 2.62 3.35 5.3 5.83 7.14s6 2.65 8.71 1.21c5.42-2.86 4.41-6.4 10.83-4.84s9.42 8.75 15.37 10.92c5.25 1.92 11.18-2.57 12.55-8s-.64-11.13-3.32-16c-6-10.86-15.66-18.07-25.41-25.18m-16.88 106.7c6.86-4.27 9.51-10.71 8.89-18.4-.3-3.68-1.1-7.6-3.78-10.14-3.46-3.29-8.81-3.2-13.58-3.15a17.55 17.55 0 0 1-14-7.11m48.24 39.89c3.14-3.88 6-7.88 7.25-12.65 1.74-6.69-.13-13.83-3.06-20.1-4.14-8.86-11.37-17.27-21-18.71-4.47-.66-9.14.21-13.46-1.09-4.63-1.39-8.18-5.07-11.33-8.74a2.3 2.3 0 0 1-.76-1.56" class="cls-17"/><path d="M667.59 307.51c9.53 8.06 19.3 16.41 25 27.5a71.4 71.4 0 0 1 5.29 14.42c1.2 4.49 2.18 9.13 1.71 13.75-.63 6.05-3.73 11.61-7.53 16.36-2.09 2.61-4.46 5.14-5.48 8.32-1.55 4.84.34 10 1.47 15 2 8.68 2.46 16.9-.26 25.38m39.62-.67a73.9 73.9 0 0 1-6.08-29.15c0-4.78.31-10.09 1.86-14.65 1.34-3.94 1.69-7.72 0-11.79-1.1-2.67-3.4-5-6.26-5.41s-5.76 1.32-7.52 3.65-2.12 5.51-3.64 8-3.9 4.38-5.24 7.12c-3.56 7.28-1.09 15.94 1.59 23.59 2.22 6.34 4.57 13.2 3.66 19.68M672.22 299a41.54 41.54 0 0 1 21.65 17.46c1.78 2.91 3.18 6 4.67 9.08a163 163 0 0 0 10.12 17.74c1.92 2.93 4.06 5.9 7.19 7.47a5.7 5.7 0 0 0 3.37.72c2-.3 3.5-2.14 4.5-3.95 3.56-6.47 4.13-14.26 2.94-21.56s-4-14.2-6.92-21c-6-14-12.41-27.84-21-40.39-.65-1-.41-.9-1.35-1.57" class="cls-17"/><path d="M682.52 285.62c5.37 2.94 8.42 8.72 11.27 14.13 1.21 2.27 13.05 20.49 15.63 11.64a7 7 0 0 0-.39-4c-3.94-12.92-10.65-25-17.45-36.59m12.54-16.27c4.55 2.66 6.15 8.39 9.57 12.39 1.49 1.76 3.73 3.27 6 2.7s3.52-3.1 4.25-5.38a49.85 49.85 0 0 0-1.49-34.07" class="cls-17"/><path d="M732.82 404.71h-34.5v24.5h-41v23.3h-38.61v23.88l114.01.82z" class="cls-6"/><path d="M580.32 196.71a10 10 0 1 1-10 10 10 10 0 0 1 10-10m0-9a19 19 0 1 0 19 19 19 19 0 0 0-19-19" class="cls-13" style="mix-blend-mode:multiply"/><path d="M560.89 505.16H421.02m235.3 0h-78.65m-179.29 0h-52.06m181.28 20.61H175.83m557.49 0H570.37" style="stroke-linecap:round;stroke-linejoin:round;fill:none;stroke:#aecc53;stroke-width:2.78px"/></g></g></svg>