<svg xmlns="http://www.w3.org/2000/svg" viewBox="0 0 812 696"><defs><style>.cls-1{isolation:isolate;}.cls-13,.cls-2,.cls-6{fill:#aecc53;}.cls-2{opacity:0.2;}.cls-10,.cls-3{fill:#fff;}.cls-10,.cls-17,.cls-3,.cls-5{stroke:#3c3c3b;}.cls-10,.cls-12,.cls-14,.cls-15,.cls-17,.cls-19,.cls-3,.cls-4,.cls-9{stroke-linecap:round;stroke-linejoin:round;}.cls-3{stroke-width:1.92px;}.cls-4{fill:#006d68;stroke:#006d68;stroke-width:1.09px;}.cls-11,.cls-5{fill:#3c3c3b;}.cls-5,.cls-8{stroke-miterlimit:10;}.cls-18,.cls-6,.cls-7{mix-blend-mode:multiply;}.cls-7{fill:#ccc;}.cls-12,.cls-14,.cls-15,.cls-16,.cls-17,.cls-19,.cls-8,.cls-9{fill:none;}.cls-12,.cls-14,.cls-19,.cls-8,.cls-9{stroke:#aecc53;}.cls-8,.cls-9{stroke-width:2.7px;}.cls-10{stroke-width:1.2px;}.cls-12{stroke-width:1.74px;}.cls-14{stroke-width:1.67px;}.cls-15{stroke:#fff;stroke-width:4px;}.cls-17{stroke-width:1.5px;}.cls-19{stroke-width:2.78px;}</style></defs><g class="cls-1"><g id="Layer_1" data-name="Layer 1"><path class="cls-2" d="M472.81,690.44c74.46-8.52,145.72-41.93,199.39-92.86,29.23-27.73,42.63-54.4,58.89-89.63,17.34-37.56,38.27-74.71,43.75-116.12,7.35-55.58,20.67-110.72,28-166.53,4.71-35.89,9.42-72.34,3.8-108.07S783.58,45.93,752.5,26.1C704.94-4.23,642.64,1.75,589.29,10.42c-12.27,2-25.49,3.16-36.6,8.73-10.45,5.23-16.79,14.47-29,18.49-25.23,8.36-52.59.67-78.51,3.59-47,5.29-97.8,27.15-142.25,42.47C229.32,109.1,155.91,140.13,97.82,191,31.9,248.73-12.41,338.66,7.67,425.67A209.36,209.36,0,0,0,31,484.33C49.47,515.84,76,542,105.4,564c13.61,10.15,26.54,20.27,42.71,23.3,20.3,3.82,36.5,2.49,55.49,13.51,13.91,8.08,21.18,23.17,33.09,33.25C294.71,683.15,399.24,698.86,472.81,690.44Z"/><path class="cls-3" d="M803.91,428.61v47.6H733.82v-47.6H618.71v-54.4l126.4-180h58.8v234.4Z"/><path class="cls-4" d="M238.92,428.61v47.6h-71.6v-47.6H53.72v-54.4l126.4-180h58.8v234.4Zm-71.6-56v-69.2l-48,69.2Z"/><path class="cls-5" d="M732.31,372.61v-69.2l-48,69.2Z"/><polygon class="cls-6" points="167.32 372.61 167.32 303.41 238.72 390.21 238.72 476.21 167.32 372.61"/><polygon class="cls-7" points="167.32 372.61 119.72 372.21 167.72 476.21 238.72 476.21 167.32 372.61"/><path class="cls-8" d="M594.18,335.21c0,66.42-45.17,111.37-104.33,131.08-9.25,3.08-20.48,3.38-30.13,3.38a134.6,134.6,0,0,1-65.38-16.94c-9.39-5.23-17.47-10.85-23.87-19.41-5.8-7.76-12.51-12.24-19.44-19.07-6.07-6-10.35-15.89-13.82-23.55a134.54,134.54,0,0,1-11.95-55.49,140.46,140.46,0,0,1,9.07-48.66c4.48-12.21,14.24-22.09,20.7-33.12,6.77-11.56,16.05-20.09,27.18-27.85,22.58-15.76,49.91-24.83,77.51-24.83a134.6,134.6,0,0,1,119,71.77c5.27,10,7.17,20.75,9.23,31.7C590,315,594.18,324.14,594.18,335.21Z"/><path class="cls-9" d="M325.81,325.65c3.68-5.26,11.56-9.21,17.7-10.36a43,43,0,0,1,9.7-1c7.52.35,14.53,4.86,18.73,11.1,9,13.38,4,32,1.63,46.77-4.73,29.79,1.71,61.18,24,82.66"/><path class="cls-9" d="M336.37,283.93c12.32-7,28-8.82,41.35-3.82,13.15,4.9,21.62,18.5,25.44,31.51,7,23.84,1.21,47.23.61,71.47-.48,19,3.79,35.05,12.38,51.84,6.08,11.89,14.88,26.78,26.42,34"/><path class="cls-9" d="M556,427c-24.12,29.29-73.53,35-93.42-5.43-9.45-19.19-8.27-41.33-2-61.36,5.66-18.21,25.22-32.77,35.46-49.51,5.71-9.32,5.48-22.25,8-32.9a64.9,64.9,0,0,1,4-13.07,33.06,33.06,0,0,1,26-18.42c20.07-2.07,38.08,11.1,45.52,29.08"/><path class="cls-8" d="M487.22,404.29c4.67,8.49,13.83,14.87,23.51,14.41,4.81-.22,9.41-2.05,13.66-4.33C549.66,400.8,563.58,371,563,342.27c-.2-10.09-2-20.35-7-29.13s-13.41-15.93-23.33-17.77c-15.35-2.85-17.47,8.55-19.15,20.4-1.52,10.74-4.25,16.08-11.49,23.77C486.57,356,475.18,382.41,487.22,404.29Z"/><path class="cls-8" d="M512,363.17c-1.45,3.47-2.77,7.14-2.48,10.89s2.6,7.58,6.24,8.51c4.26,1.09,8.41-2,11.51-5.1a77.3,77.3,0,0,0,15.34-22.19c2-4.36,3.57-9.44,1.71-13.87C534.51,318.16,514.53,357,512,363.17Z"/><path class="cls-9" d="M520.79,215.37c-28.25-4.1-46.93,27.07-48.83,51.05-1,12.75,2.31,24.57-3.6,36.82-4.74,9.83-13.67,16.9-20.43,25.47-30.55,38.75-15.9,114.64,27.62,139.44"/><path class="cls-9" d="M355.68,251.78c8.39-5.75,19.11-6,28.39-1.85a64.39,64.39,0,0,1,27.14,23.25c5,7.72,2.71,23.58,11,28.56,3.76,2.26,8.8,1.45,12.39-1.06s5.95-6.43,7.68-10.46c12-27.91-7.25-74.15,29.21-89.47"/><path class="cls-9" d="M377,229.84c4.81-5.15,14.89-4.26,20.8-1.89,8.07,3.24,7.73,11.46,13.46,17a11.38,11.38,0,0,0,18.36-3.81c1.4-3.36,1.12-7.16.73-10.79-.48-4.52-1.08-9.1-.4-13.59.83-5.52,4.6-12,10.21-13.9"/><rect class="cls-10" x="732.72" y="193.86" width="71" height="282.35"/><rect class="cls-4" x="738.53" y="386.04" width="59.36" height="22.63"/><rect class="cls-4" x="738.53" y="355.82" width="59.36" height="22.63"/><rect class="cls-4" x="738.53" y="416.26" width="59.36" height="22.63"/><rect class="cls-4" x="738.53" y="325.65" width="59.36" height="22.63"/><rect class="cls-4" x="738.53" y="294.86" width="59.36" height="22.63"/><rect class="cls-4" x="738.53" y="265.04" width="59.36" height="22.63"/><rect class="cls-4" x="738.53" y="234.82" width="59.36" height="22.63"/><rect class="cls-4" x="738.53" y="204.65" width="59.36" height="22.63"/><rect class="cls-4" x="738.53" y="446.48" width="59.36" height="22.63"/><rect class="cls-11" x="753.23" y="180.35" width="29.19" height="13.51"/><path class="cls-7" d="M298.15,476.21H238.33s0-2,.1-3c1.23-19.33,14.11-44,29.81-44s28.58,24.71,29.81,44.05C298.12,474.26,298.15,476.21,298.15,476.21Z"/><path class="cls-6" d="M319.81,476.21H288s0-1,0-1.58c.66-10.29,7.51-23.44,15.87-23.44s15.21,13.16,15.87,23.45C319.79,475.17,319.81,476.21,319.81,476.21Z"/><path class="cls-12" d="M81.63,373H93.1a28.39,28.39,0,0,0,26.41-18.17,23.42,23.42,0,0,0,.6-14.73l-18-64.66c-4.16-14.93-25.33-14.94-29.49,0-7.22,25.94-15,53.84-18,64.64a23.44,23.44,0,0,0,.59,14.76A28.39,28.39,0,0,0,81.63,373Z"/><path class="cls-12" d="M75.81,314a11.71,11.71,0,0,0,23.12,0"/><path class="cls-13" d="M73.88,314.24A2,2,0,1,1,76,316,2,2,0,0,1,73.88,314.24Z"/><path class="cls-13" d="M100.85,314.24A2,2,0,1,0,98.72,316,2,2,0,0,0,100.85,314.24Z"/><path class="cls-12" d="M70.06,331a17.41,17.41,0,0,0,34.62,0"/><path class="cls-13" d="M68.11,331.26a2,2,0,1,1,2.09,1.84A2,2,0,0,1,68.11,331.26Z"/><path class="cls-13" d="M106.62,331.26a2,2,0,1,0-2.08,1.84A2,2,0,0,0,106.62,331.26Z"/><line class="cls-12" x1="87.36" y1="298.79" x2="87.36" y2="429.13"/><circle class="cls-13" cx="87.36" cy="298.89" r="1.96"/><path class="cls-14" d="M104.89,413.86l7.14-15a9.27,9.27,0,0,1,16.74,0l13.86,29"/><path class="cls-14" d="M107.63,419q2.66-6,5.61-11.83c1.55-3.06,3-6.52,5.92-8.56a7,7,0,0,1,4.85-1.29,8.92,8.92,0,0,1,4.64,1.92"/><path class="cls-14" d="M110.55,424.93l6.59-14.35a20.45,20.45,0,0,1,3.14-5.32,6.92,6.92,0,0,1,7.7-1.81,15.7,15.7,0,0,1,2.32,1.16l1.7,1"/><path class="cls-14" d="M91.32,428.85l6.49-13.8a4.31,4.31,0,0,1,7.79,0l6.68,14"/><path class="cls-14" d="M95,421.62c1.58-.7,2.43.36,3,1.7a21.52,21.52,0,0,1,1.55,5.62"/><path class="cls-14" d="M96.47,417.77a7.15,7.15,0,0,1,4,1.37,9.55,9.55,0,0,1,2.37,3.57,21.26,21.26,0,0,1,2.24,6.14"/><path class="cls-14" d="M140,422.22c-1.51-2.8-3.71-6.36-7.3-6.29a8.26,8.26,0,0,0-5.36,2.42c-3,2.81-4.14,6.39-5.74,10"/><path class="cls-6" d="M261.64,363a8.14,8.14,0,0,1,0-16.27H303.3a65.29,65.29,0,0,0,1-11.52A50.5,50.5,0,0,0,303.09,325H261.64a8.13,8.13,0,0,1,0-16.26H298.3c-2.42-6.8-5.44-14.13-8.83-21.69H261.64a8.14,8.14,0,0,1,0-16.27h20.17c-3.6-7.31-7.37-14.63-11.13-21.68h-9a8.14,8.14,0,0,1,0-16.27h.18c-12.33-22.14-22.55-38.63-22.55-38.63s-10.21,16.49-22.54,38.63h.18a8.14,8.14,0,0,1,0,16.27h-9c-3.76,7.05-7.53,14.37-11.13,21.68h20.17a8.14,8.14,0,0,1,0,16.27H189.08c-3.39,7.56-6.42,14.89-8.84,21.69h36.67a8.13,8.13,0,0,1,0,16.26H175.46a50.5,50.5,0,0,0-1.25,10.17,65.29,65.29,0,0,0,1,11.52h41.66a8.14,8.14,0,0,1,0,16.27H180.44a65.07,65.07,0,0,0,117.67,0Z"/><line class="cls-15" x1="239.72" y1="338.21" x2="239.72" y2="476.21"/><line class="cls-16" x1="167.72" y1="372.21" x2="239.72" y2="476.21"/><path class="cls-17" d="M634.26,355.57c1.65,2.62,3.35,5.3,5.83,7.14s6,2.65,8.71,1.21c5.42-2.86,4.41-6.4,10.83-4.84S669.05,367.83,675,370c5.25,1.92,11.18-2.57,12.55-8s-.64-11.13-3.32-16c-6-10.86-15.66-18.07-25.41-25.18"/><path class="cls-17" d="M641.94,427.52c6.86-4.27,9.51-10.71,8.89-18.4-.3-3.68-1.1-7.6-3.78-10.14-3.46-3.29-8.81-3.2-13.58-3.15a17.55,17.55,0,0,1-14-7.11"/><path class="cls-17" d="M667.71,428.61c3.14-3.88,6-7.88,7.25-12.65,1.74-6.69-.13-13.83-3.06-20.1-4.14-8.86-11.37-17.27-21-18.71-4.47-.66-9.14.21-13.46-1.09-4.63-1.39-8.18-5.07-11.33-8.74a2.31,2.31,0,0,1-.76-1.56"/><path class="cls-17" d="M667.59,307.51c9.53,8.06,19.3,16.41,25,27.5a71.39,71.39,0,0,1,5.29,14.42c1.2,4.49,2.18,9.13,1.71,13.75-.63,6.05-3.73,11.61-7.53,16.36-2.09,2.61-4.46,5.14-5.48,8.32-1.55,4.84.34,10,1.47,15,2,8.68,2.46,16.9-.26,25.38"/><path class="cls-17" d="M727.41,427.57a73.92,73.92,0,0,1-6.08-29.15c0-4.78.31-10.09,1.86-14.65,1.34-3.94,1.69-7.72,0-11.79-1.1-2.67-3.4-5-6.26-5.41s-5.76,1.32-7.52,3.65-2.12,5.51-3.64,8-3.9,4.38-5.24,7.12c-3.56,7.28-1.09,15.94,1.59,23.59,2.22,6.34,4.57,13.2,3.66,19.68"/><path class="cls-17" d="M672.22,299a41.54,41.54,0,0,1,21.65,17.46c1.78,2.91,3.18,6,4.67,9.08a162.62,162.62,0,0,0,10.12,17.74c1.92,2.93,4.06,5.9,7.19,7.47a5.71,5.71,0,0,0,3.37.72c2-.3,3.5-2.14,4.5-3.95,3.56-6.47,4.13-14.26,2.94-21.56s-4-14.2-6.92-21c-6-14-12.41-27.84-21-40.39-.65-1-.41-.9-1.35-1.57"/><path class="cls-17" d="M682.52,285.62c5.37,2.94,8.42,8.72,11.27,14.13,1.21,2.27,13.05,20.49,15.63,11.64a7,7,0,0,0-.39-4c-3.94-12.92-10.65-25-17.45-36.59"/><path class="cls-17" d="M704.12,254.53c4.55,2.66,6.15,8.39,9.57,12.39,1.49,1.76,3.73,3.27,6,2.7s3.52-3.1,4.25-5.38a49.85,49.85,0,0,0-1.49-34.07"/><polygon class="cls-6" points="732.82 404.71 698.32 404.71 698.32 429.21 657.32 429.21 657.32 452.51 618.71 452.51 618.71 476.39 732.72 477.21 732.82 404.71"/><g class="cls-18"><path class="cls-13" d="M580.32,196.71a10,10,0,1,1-10,10,10,10,0,0,1,10-10m0-9a19,19,0,1,0,19,19,19,19,0,0,0-19-19Z"/></g><line class="cls-19" x1="560.89" y1="505.16" x2="421.02" y2="505.16"/><line class="cls-19" x1="656.32" y1="505.16" x2="577.67" y2="505.16"/><line class="cls-19" x1="398.38" y1="505.16" x2="346.32" y2="505.16"/><line class="cls-19" x1="527.6" y1="525.77" x2="175.83" y2="525.77"/><line class="cls-19" x1="733.32" y1="525.77" x2="570.37" y2="525.77"/></g></g></svg>