<svg width="352" height="298" viewBox="0 0 352 298" fill="none" xmlns="http://www.w3.org/2000/svg">
<path d="M188 297.3H168.399V229C168.399 223.6 172.8 219.2 178.2 219.2C183.6 219.2 188 223.6 188 229V297.3Z" fill="#3C3C3B"/>
<path d="M188 297.9H168.399C168.099 297.9 167.899 297.7 167.899 297.4V229.1C167.899 223.4 172.5 218.8 178.2 218.8C183.9 218.8 188.5 223.4 188.5 229.1V297.4C188.5 297.6 188.3 297.9 188 297.9ZM168.899 296.8H187.399V229C187.399 223.9 183.2 219.7 178.1 219.7C173 219.7 168.8 223.9 168.8 229V296.8H168.899Z" fill="#3C3C3B"/>
<path d="M158.6 297.3H139V229C139 223.6 143.4 219.2 148.8 219.2C154.2 219.2 158.6 223.6 158.6 229V297.3Z" fill="#3C3C3B"/>
<path d="M158.6 297.9H139C138.7 297.9 138.5 297.7 138.5 297.4V229.1C138.5 223.4 143.1 218.8 148.8 218.8C154.5 218.8 159.1 223.4 159.1 229.1V297.4C159.1 297.6 158.9 297.9 158.6 297.9ZM139.5 296.8H158V229C158 223.9 153.8 219.7 148.7 219.7C143.6 219.7 139.399 223.9 139.399 229V296.8H139.5Z" fill="#3C3C3B"/>
<path d="M232.1 142.3H132.5L106.399 184.7H205.2L232.1 142.3Z" fill="#006D69"/>
<path d="M205.2 185.4H106.399C106.199 185.4 105.999 185.3 105.899 185.1C105.799 184.9 105.799 184.7 105.899 184.5L132 142C132.1 141.8 132.3 141.7 132.5 141.7H232.099C232.299 141.7 232.499 141.8 232.599 142C232.699 142.2 232.699 142.4 232.599 142.6L205.7 185.1C205.6 185.2 205.4 185.4 205.2 185.4ZM107.5 184.1H204.899L231.099 142.9H132.899L107.5 184.1Z" fill="#A9C753"/>
<mask id="mask0_8109_960" style="mask-type:luminance" maskUnits="userSpaceOnUse" x="106" y="142" width="127" height="43">
<path d="M232.1 142.3H132.5L106.399 184.7H205.2L232.1 142.3Z" fill="white"/>
</mask>
<g mask="url(#mask0_8109_960)">
<path d="M227.701 164.2C226.701 164.2 225.6 164 224.6 163.6C221.5 162.4 219.2 158.7 218.9 154.7C218.8 153.8 219 152.8 219.1 151.9C219.3 150.5 219.4 149.1 219 148.1C218.5 146.9 217.5 146.1 216 145.6C215.7 145.5 215.4 145.4 215.1 145.4C214.1 145.2 213 144.9 212 144.2C210.2 142.8 209.1 139.6 210.4 137C210.6 136.7 210.901 136.6 211.201 136.7C211.501 136.9 211.6 137.2 211.5 137.5C210.5 139.5 211.301 142.2 212.701 143.2C213.501 143.8 214.4 144 215.3 144.2C215.6 144.3 216 144.4 216.3 144.5C218.1 145 219.4 146.1 220 147.6C220.6 148.9 220.401 150.5 220.201 152C220.101 152.9 220 153.8 220 154.6C220.3 158.8 222.8 161.6 225 162.5C227.5 163.5 230.1 162.8 232.6 161.9C232.9 161.8 233.3 162 233.4 162.3C233.5 162.6 233.3 163 233 163.1C231.4 163.6 229.601 164.2 227.701 164.2Z" fill="white"/>
<path d="M229.899 174.5C223.499 174.5 216.699 172.9 213.899 164.9C213.399 163.4 213.199 161.8 212.899 160.3C212.699 158.9 212.5 157.4 212.1 156.1C210.9 152.3 208.099 150.4 205.399 148.6C204.999 148.3 204.6 148.1 204.3 147.8C201.1 145.6 198.099 143 198.899 137.3C198.899 137 199.3 136.7 199.6 136.8C199.9 136.8 200.2 137.2 200.1 137.5C199.4 142.5 202 144.8 205 146.9C205.4 147.2 205.7 147.4 206.1 147.6C208.8 149.4 211.9 151.5 213.3 155.7C213.7 157.1 214 158.6 214.2 160.1C214.4 161.6 214.7 163.2 215.1 164.5C218.1 173 226.2 173.6 233 173.2C233.3 173.2 233.6 173.4 233.7 173.8C233.7 174.1 233.5 174.4 233.1 174.5C231.9 174.5 230.899 174.5 229.899 174.5Z" fill="white"/>
<path d="M216.399 186.2H216.3C209.7 185.1 205.4 184 201.7 175.7C200.9 174 200.1 171.4 200.2 168.5C200.2 168 200.3 167.6 200.3 167.1C200.4 166.2 200.499 165.4 200.399 164.6C200.299 163.3 199.7 162.3 199.1 161.3C197.1 158.1 194.7 155.5 192 153.7C190.9 152.9 189.8 152.3 188.6 151.7C187 150.8 185.3 149.9 183.8 148.6C180.6 145.9 178.7 142.1 178.3 138C178.3 137.7 178.499 137.4 178.899 137.3C179.199 137.3 179.5 137.5 179.6 137.9C179.9 141.7 181.7 145.2 184.6 147.7C186.1 148.9 187.6 149.8 189.2 150.7C190.3 151.3 191.5 152 192.7 152.8C195.5 154.7 198 157.4 200.1 160.8C200.8 161.9 201.5 163.1 201.6 164.6C201.7 165.5 201.6 166.5 201.5 167.4C201.4 167.8 201.399 168.3 201.399 168.7C201.199 171.4 202 173.8 202.8 175.4C206.3 183.1 209.9 184.1 216.5 185.2C216.8 185.3 217.1 185.6 217 185.9C216.9 185.9 216.699 186.2 216.399 186.2Z" fill="white"/>
<path d="M183.7 186.2C183.6 186.2 183.4 186.2 183.3 186.1C180.8 184.2 179.7 178.9 180.3 175.4C180.7 172.8 182 170.9 183.3 169.1C185.4 166 187.3 163.3 184.6 157.6C182.6 153.4 179 152.1 176.3 152.3C175.8 152.3 175.3 152.4 174.8 152.5C173.9 152.6 173 152.8 172.1 152.7C167.2 152.4 160.899 145 160.899 137.5C160.899 137.2 161.2 136.9 161.5 136.9C161.8 136.9 162.1 137.2 162.1 137.5C162.1 144.3 167.9 151.3 172.2 151.5C173 151.5 173.8 151.4 174.7 151.3C175.2 151.2 175.8 151.1 176.3 151.1C180.3 150.8 184 153.1 185.8 157.1C188.8 163.5 186.599 166.7 184.399 169.8C183.199 171.5 182 173.3 181.6 175.6C181 179.1 182.2 183.7 184.1 185.1C184.4 185.3 184.4 185.7 184.2 186C184.1 186.1 183.9 186.2 183.7 186.2Z" fill="white"/>
<path d="M119.9 186.2C119.6 186.2 119.4 186 119.3 185.7C119.2 185.4 119.4 185 119.8 185C122.5 184.4 123.9 181.3 124.3 178.6C124.8 175.2 123.9 170.9 120.8 169.2C119.9 168.7 118.801 168.5 117.701 168.3C115.201 167.8 112.4 167.3 111.1 163.2C110.7 161.9 110.701 160.1 110.701 158.3C110.701 156.9 110.7 155.5 110.5 154.4C109.5 148.3 108.101 143.9 106.701 142.2C105.401 140.6 103.801 139.7 102.201 138.8C101.901 138.6 101.8 138.3 102 138C102.2 137.7 102.5 137.6 102.8 137.8C104.4 138.7 106.201 139.7 107.701 141.5C109.701 144 111 149.8 111.8 154.3C112 155.5 112 157 112 158.4C112 160.1 112 161.8 112.3 163C113.3 166.4 115.5 166.8 117.9 167.2C119.1 167.4 120.3 167.7 121.4 168.3C125 170.4 126 175.2 125.5 179C124.9 182.9 122.8 185.7 120 186.4C119.9 186.2 119.9 186.2 119.9 186.2Z" fill="white"/>
<path d="M132.2 186.3C132 186.3 131.9 186.2 131.7 186.1C130.8 185.1 130.799 183 131.399 181.6C131.799 180.7 132.3 180.1 132.7 179.4C132.9 179.1 133.099 178.8 133.399 178.5C135.499 175.3 135.8 169.4 134 165.2C132.4 161.4 129.5 159 126.2 158.8H125.899C125.299 158.8 124.7 158.8 124 158.4C121.9 157.2 121.599 153.6 121.299 150.4L121.2 149.8C120.5 142.3 118.699 139.2 114.399 137.9C114.099 137.8 113.9 137.5 114 137.1C114.1 136.8 114.399 136.6 114.799 136.7C119.599 138.1 121.7 141.6 122.5 149.6L122.599 150.2C122.899 153 123.2 156.4 124.7 157.2C125.1 157.4 125.5 157.4 126 157.4H126.299C129.999 157.6 133.399 160.3 135.099 164.5C136.999 169.1 136.699 175.3 134.399 178.9C134.199 179.2 133.9 179.6 133.7 179.9C133.2 180.5 132.8 181.1 132.5 181.8C132 182.9 132.099 184.4 132.599 185C132.799 185.2 132.799 185.6 132.599 185.9C132.499 186.2 132.4 186.3 132.2 186.3Z" fill="white"/>
<path d="M146.3 186.7C146 186.7 145.7 186.4 145.7 186.1C145.5 183 147.1 180.8 148.6 178.8C149.2 178 149.8 177.1 150.3 176.2C152.1 172.9 152.5 167.7 151.1 163.5C149.9 159.7 147.299 156.8 144.399 156L144.1 155.9C143.5 155.7 142.8 155.6 142.2 155C140.8 153.7 140.6 151.2 140.5 148.8C140.5 148.4 140.399 148 140.399 147.6C139.699 140 137.4 138.4 133.3 138C133 138 132.7 137.7 132.7 137.3C132.7 137 132.999 136.7 133.399 136.7C138.799 137.1 141 140 141.7 147.4C141.7 147.8 141.8 148.2 141.8 148.6C141.9 150.7 142.1 153 143.1 154C143.5 154.4 143.9 154.5 144.5 154.6L144.8 154.7C148.1 155.6 151 158.8 152.3 163.1C153.7 167.6 153.399 173.2 151.399 176.8C150.899 177.8 150.2 178.7 149.6 179.5C148.1 181.5 146.799 183.4 146.899 186.1C146.899 186.4 146.6 186.7 146.3 186.7Z" fill="white"/>
<path d="M162.3 185.8C162.1 185.8 161.9 185.7 161.8 185.5C159.2 181.7 161.399 178.9 163.399 176.5C164.399 175.3 165.3 174.1 165.7 172.9C167.8 165.5 160.999 158.3 156.899 156.1C156.099 155.7 155.299 155.4 154.399 155.2C152.499 154.6 150.5 154 149 151.5C146.8 147.7 146.7 140.6 148.7 136.9C148.9 136.6 149.2 136.5 149.5 136.6C149.8 136.8 149.9 137.1 149.8 137.4C148 140.8 148.2 147.4 150.1 150.8C151.3 152.9 153 153.4 154.8 153.9C155.7 154.2 156.6 154.4 157.5 154.9C161.9 157.2 169.199 165 166.899 173.1C166.499 174.6 165.399 175.9 164.399 177.1C162.399 179.5 160.7 181.6 162.8 184.6C163 184.9 162.9 185.3 162.6 185.5C162.5 185.7 162.4 185.8 162.3 185.8Z" fill="white"/>
</g>
<path d="M259.899 297.201H205.2V184.701L232.5 142.301L259.899 184.701V297.201Z" fill="#A9C753"/>
<path d="M260.399 297.7H204.7V184.6L204.8 184.5L232.6 141.4L260.5 184.6V297.7H260.399ZM205.7 296.7H259.399V184.9L232.5 143.2L205.6 184.9V296.7H205.7Z" fill="#A9C753"/>
<path d="M205.2 297.8H106.399C106.099 297.8 105.899 297.6 105.899 297.3V184.7C105.899 184.4 106.099 184.2 106.399 184.2H205.2C205.5 184.2 205.7 184.4 205.7 184.7V297.3C205.7 297.6 205.4 297.8 205.2 297.8ZM106.899 296.8H204.7V185.2H106.899V296.8Z" fill="#A9C753"/>
<path d="M288.6 58.8C283.5 58.8 278.5 57.1 274.6 53.9C270.6 57.1 265.7 58.8 260.6 58.8C255.5 58.8 250.5 57.1 246.6 53.9C242.6 57.1 237.7 58.8 232.6 58.8C220.2 58.8 210.2 48.7 210.2 36.4C210.2 24.1 220.3 14 232.6 14C234.9 14 237.3 14.4 239.5 15.1C242.6 6.19999 251.2 0 260.7 0C270.2 0 278.799 6.19999 281.899 15.1C284.099 14.4 286.4 14 288.8 14C301.2 14 311.2 24.1 311.2 36.4C311.2 48.7 301 58.8 288.6 58.8ZM274.6 51.2L275.3 51.8C279 55 283.8 56.8 288.7 56.8C300 56.8 309.1 47.6 309.1 36.4C309.1 25.1 299.9 16 288.7 16C286.2 16 283.8 16.4 281.5 17.3L280.5 17.7L280.2 16.7C277.7 8.1 269.6 2 260.6 2C251.6 2 243.5 8 241 16.7L240.7 17.7L239.7 17.3C237.4 16.4 235 16 232.5 16C221.2 16 212.1 25.2 212.1 36.4C212.1 47.7 221.3 56.8 232.5 56.8C237.4 56.8 242.199 55 245.899 51.8L246.6 51.2L247.3 51.8C251 55 255.8 56.8 260.7 56.8C265.6 56.8 270.4 55 274.1 51.8L274.6 51.2Z" fill="#006D69"/>
<path d="M240.8 38.2998C238.2 38.2998 235.6 38.7998 233.3 39.6998C230.7 30.7998 222.5 24.2998 212.8 24.2998C203.1 24.2998 194.9 30.7998 192.3 39.6998C190 38.7998 187.4 38.2998 184.8 38.2998C173 38.2998 163.399 47.8998 163.399 59.6998C163.399 71.4998 173 81.0998 184.8 81.0998C190.2 81.0998 195.1 79.0998 198.8 75.8998C202.6 79.1998 207.5 81.0998 212.8 81.0998C218.2 81.0998 223.1 79.0998 226.8 75.8998C230.6 79.1998 235.5 81.0998 240.8 81.0998C252.6 81.0998 262.2 71.4998 262.2 59.6998C262.2 47.8998 252.6 38.2998 240.8 38.2998Z" fill="#006D69"/>
<path d="M212.2 120.6C211.9 120.6 211.699 120.5 211.399 120.3C210.999 119.9 210.9 119.2 211.3 118.7C219.9 109.5 234 108.9 243.5 117.2C244 117.6 244 118.3 243.6 118.8C243.2 119.3 242.5 119.3 242 118.9C233.5 111.4 220.699 112 212.899 120.3C212.799 120.5 212.5 120.6 212.2 120.6Z" fill="#006D68"/>
<path d="M219.299 127.2C218.999 127.2 218.8 127.1 218.5 126.9C218.1 126.5 217.999 125.8 218.399 125.3C220.899 122.7 224.199 121.2 227.799 121.1C231.399 121 234.799 122.3 237.399 124.7C237.799 125.1 237.899 125.8 237.399 126.3C236.999 126.7 236.299 126.8 235.799 126.3C233.599 124.2 230.799 123.2 227.799 123.3C224.799 123.4 222 124.6 220 126.8C219.9 127.1 219.599 127.2 219.299 127.2Z" fill="#006D68"/>
<path d="M205.099 113.9C204.799 113.9 204.599 113.8 204.299 113.6C203.899 113.2 203.799 112.5 204.299 112C216.399 99.1005 237.1 98.2005 250.2 110C250.7 110.4 250.699 111.1 250.299 111.6C249.899 112.1 249.2 112.1 248.7 111.7C236.4 100.7 217.199 101.5 205.899 113.5C205.699 113.8 205.399 113.9 205.099 113.9Z" fill="#006D68"/>
<path d="M240.3 186.4H227.2V221.5H240.3V186.4Z" fill="#006D69"/>
<path d="M57.3994 277.5C56.8994 277.5 56.3994 277.1 56.3994 276.5L55.3994 112.6C55.3994 112 55.7994 111.6 56.3994 111.6C56.8994 111.6 57.3994 112 57.3994 112.6L58.3994 276.5C58.3994 277 57.9994 277.5 57.3994 277.5Z" fill="#006D69"/>
<path d="M53.3994 112.8C53.3994 111.1 54.6994 109.8 56.3994 109.8C58.0994 109.8 59.3994 111.1 59.3994 112.8C59.3994 114.5 58.0994 115.8 56.3994 115.8C54.7994 115.8 53.3994 114.5 53.3994 112.8Z" fill="#006D69"/>
<path d="M56.2006 204.4H56.1C48.5 204.4 34.9004 203.3 23.5004 186.7C19.2004 180.4 16.6004 171.6 17.0004 164.7C17.5004 156.2 20.2006 151.1 25.2006 149.7C30.1005 148.3 35.6998 150.2 38.8998 154.2C39.3998 154.8 39.8998 155.7 40.3998 156.5C42.2998 159.7 43.8 161.8 46.6 160.7C48.5 159.9 48.6 159 48.6 158.7C48.9 155.9 43.6998 151.1 40.3998 148.7C37.1998 146.4 35.3004 144.1 33.0004 141.1C29.4004 136.4 26.9998 128.2 29.3998 122.5C30.7998 119.1 33.7006 117.2 37.2006 117.2C41.7006 117.3 46.2006 120.5 47.7006 124.7C47.8006 124.9 48.1005 125.7 48.7006 125.9C49.1006 126 49.5998 125.8 49.8998 125.4C50.1998 125 50.4004 124.4 50.5004 123.6C50.8004 120.5 49.1002 118.1 47.3002 115.5C45.7002 113.2 44 110.8 43.6 107.8C42.8 101.6 47.2 97.2 55.6 95.5C55.7 95.5 55.7002 95.5 55.8002 95.5H57.1C57.2 95.5 57.2002 95.5 57.3002 95.5C65.8002 97.1 70.1998 101.5 69.3998 107.7C68.9998 110.7 67.4002 113.1 65.8002 115.4C64.0002 118 62.3005 120.5 62.7006 123.5C62.8005 124.3 63.0002 124.9 63.3002 125.3C63.6002 125.7 64.1004 125.9 64.5004 125.8C65.1004 125.7 65.4004 124.8 65.5004 124.6C66.9004 120.4 71.3998 117.1 75.8998 117C79.4998 116.9 82.3002 118.8 83.8002 122.2C86.2002 127.8 83.8998 136.1 80.3998 140.8C78.0998 143.8 76.3 146.1 73.1 148.5C69.8 150.9 64.6004 155.8 65.0004 158.6C65.0004 158.9 65.2004 159.8 67.0004 160.6C69.8004 161.7 71.2 159.6 73.1 156.4C73.6 155.5 74.1 154.7 74.6 154.1C77.8 150 83.4002 148.1 88.3002 149.4C93.2002 150.8 96 155.8 96.6 164.3C97.1 171.6 94.5002 180.7 90.3002 186.4C78.0002 203.1 65.5004 204.3 58.0004 204.4H57.8998C57.6998 204.4 57.5005 204.4 57.2006 204.4C56.7006 204.4 56.5005 204.4 56.2006 204.4ZM28.6 151.5C27.7 151.5 26.7002 151.6 25.8002 151.9C21.8002 153 19.6006 157.4 19.2006 164.9C18.8006 171.3 21.4002 179.8 25.3002 185.6C36.5002 201.9 49.5004 202.4 57.0004 202.3C64.0004 202.2 76.2998 201.6 88.3998 185.2C92.2998 179.9 94.7002 171.4 94.3002 164.5C93.8002 157 91.5004 152.6 87.5004 151.5C83.4004 150.4 78.7 152 76.1 155.4C75.7 155.9 75.2002 156.7 74.8002 157.5C73.2002 160.3 70.8004 164.5 66.0004 162.6C63.5004 161.6 62.8 160.1 62.6 158.9C62 154 70.6 147.5 71.6 146.8C74.6 144.6 76.3004 142.5 78.5004 139.6C81.6004 135.5 83.7005 128 81.7005 123.1C80.6005 120.5 78.4998 119.1 75.8998 119.2C72.2998 119.3 68.6004 122 67.5004 125.4C67.0004 126.8 66.1004 127.7 65.0004 128C63.8004 128.3 62.5 127.8 61.6 126.8C61 126.1 60.7004 125.1 60.5004 123.9C60.1004 120.1 62.1004 117.2 64.0004 114.3C65.5004 112.1 66.9006 110 67.2006 107.5C68.0005 100.8 61.0998 98.5 56.8998 97.7H55.8002C51.6002 98.6 44.7 101 45.6 107.6C45.9 110.1 47.3998 112.1 48.8998 114.3C50.8998 117.1 52.9004 120 52.5004 123.8C52.4004 125 52.0004 126 51.5004 126.7C50.7004 127.7 49.3005 128.2 48.2006 128C47.1005 127.7 46.2006 126.8 45.7006 125.4C44.5005 122.1 40.8006 119.4 37.2006 119.3C34.6005 119.2 32.4998 120.6 31.3998 123.2C29.3998 128.1 31.6002 135.5 34.8002 139.7C37.1002 142.6 38.8002 144.7 41.8002 146.8C42.8002 147.5 51.4998 153.8 50.8998 158.8C50.7998 159.9 50.1 161.5 47.6 162.5C42.9 164.4 40.4002 160.2 38.8002 157.5C38.3002 156.7 37.9004 156 37.5004 155.4C35.2004 153 31.9 151.5 28.6 151.5Z" fill="#A9C753"/>
<path d="M56.5004 146.4C48.6004 146.4 41.8002 140.8 40.3002 133C40.2002 132.5 40.5 132 41.1 131.9C41.6 131.8 42.1006 132.1 42.2006 132.7C43.5006 139.5 49.4998 144.5 56.3998 144.5H56.5004C63.5004 144.5 69.4006 139.4 70.7006 132.6C70.8006 132.1 71.3002 131.7 71.8002 131.8C72.3002 131.9 72.7 132.4 72.6 132.9C71.3 140.6 64.6004 146.3 56.5004 146.4C56.6004 146.4 56.6004 146.4 56.5004 146.4Z" fill="#006D69"/>
<path d="M38.5003 133.3C38.3003 131.7 39.4999 130.2 41.0999 130.1C42.6999 130 44.2001 131.1 44.3001 132.7C44.5001 134.3 43.3005 135.8 41.7005 135.9C40.1005 136 38.6003 134.9 38.5003 133.3Z" fill="#006D69"/>
<path d="M74.7006 133.1C74.9006 131.5 73.7004 130 72.0004 129.9C70.3004 129.8 68.9002 130.9 68.8002 132.6C68.7002 134.3 69.8004 135.7 71.5004 135.8C73.1004 135.9 74.5006 134.7 74.7006 133.1Z" fill="#006D69"/>
<path d="M56.7 185.601C43.2 185.601 31.6998 176.601 29.9998 164.701C29.8998 164.201 30.2996 163.701 30.7996 163.601C31.2996 163.501 31.7992 163.901 31.8992 164.401C33.4992 175.401 44.1 183.601 56.7 183.601C56.8 183.601 56.7992 183.601 56.8992 183.601C69.4992 183.501 80.0994 175.201 81.5994 164.101C81.6994 163.601 82.2 163.201 82.7 163.301C83.2 163.401 83.5998 163.901 83.4998 164.401C81.8998 176.401 70.4992 185.501 56.8992 185.601C56.7992 185.601 56.7 185.601 56.7 185.601Z" fill="#006D69"/>
<path d="M28.0996 164.9C27.9996 163.3 29.1998 161.9 30.7998 161.7C32.3998 161.5 33.8 162.8 34 164.4C34.1 166 32.8998 167.4 31.2998 167.6C29.5998 167.8 28.1996 166.6 28.0996 164.9Z" fill="#006D69"/>
<path d="M85.3994 164.6C85.4994 163 84.3002 161.6 82.7002 161.4C81.1002 161.3 79.7 162.5 79.5 164.1C79.4 165.7 80.6002 167.1 82.2002 167.3C83.9002 167.5 85.2994 166.2 85.3994 164.6Z" fill="#006D69"/>
<path d="M25.7002 296.7C25.1002 296.7 24.7002 296.3 24.7002 295.7V242.8C24.7002 242.2 25.1002 241.8 25.7002 241.8C26.3002 241.8 26.7002 242.2 26.7002 242.8V295.7C26.7002 296.3 26.2002 296.7 25.7002 296.7Z" fill="#006D69"/>
<path d="M25.7002 246C27.357 246 28.7002 244.657 28.7002 243C28.7002 241.343 27.357 240 25.7002 240C24.0433 240 22.7002 241.343 22.7002 243C22.7002 244.657 24.0433 246 25.7002 246Z" fill="#006D69"/>
<path d="M37.2002 296.7C36.6002 296.7 36.2002 296.3 36.2002 295.7V260.1C36.2002 259.5 36.6002 259.1 37.2002 259.1C37.8002 259.1 38.2002 259.5 38.2002 260.1V295.7C38.2002 296.3 37.8002 296.7 37.2002 296.7Z" fill="#006D69"/>
<path d="M37.2002 263.3C38.857 263.3 40.2002 261.957 40.2002 260.3C40.2002 258.643 38.857 257.3 37.2002 257.3C35.5433 257.3 34.2002 258.643 34.2002 260.3C34.2002 261.957 35.5433 263.3 37.2002 263.3Z" fill="#006D69"/>
<path d="M14.0996 296.7C13.4996 296.7 13.0996 296.3 13.0996 295.7V260.1C13.0996 259.5 13.4996 259.1 14.0996 259.1C14.6996 259.1 15.0996 259.5 15.0996 260.1V295.7C15.0996 296.3 14.6996 296.7 14.0996 296.7Z" fill="#006D69"/>
<path d="M14.0996 263.3C15.7565 263.3 17.0996 261.957 17.0996 260.3C17.0996 258.643 15.7565 257.3 14.0996 257.3C12.4428 257.3 11.0996 258.643 11.0996 260.3C11.0996 261.957 12.4428 263.3 14.0996 263.3Z" fill="#006D69"/>
<path d="M102.9 295.6C102.5 295.6 102.2 295.4 102 295L85.1001 259.7C83.4001 256.1 79.8003 253.8 75.8003 253.8C71.8003 253.8 68.2005 256 66.5005 259.7L57.8003 277.9C57.6003 278.4 57.0005 278.6 56.5005 278.4C56.0005 278.2 55.8005 277.6 56.0005 277.1L64.7007 258.9C66.8007 254.6 71.0003 251.9 75.8003 251.9C80.6003 251.9 84.7999 254.6 86.8999 258.9L103.8 294.2C104 294.7 103.8 295.3 103.3 295.5C103.1 295.6 103 295.6 102.9 295.6Z" fill="#A9C753"/>
<path d="M63.8003 292C63.7003 292 63.4999 292 63.3999 291.9C62.8999 291.7 62.6999 291.1 62.8999 290.6L70.8999 273.1C71.8999 270.9 73.0999 268.4 74.8999 266.4C77.5999 263.5 81.5003 262.5 85.3003 263.9C86.4003 264.3 87.3003 264.8 88.3003 265.4L90.3999 266.6C90.8999 266.9 91.0003 267.5 90.8003 268C90.5003 268.5 89.8999 268.6 89.3999 268.4L87.3003 267.2C86.4003 266.7 85.5001 266.2 84.6001 265.9C81.5001 264.8 78.4003 265.5 76.3003 267.8C74.7003 269.6 73.7001 271.8 72.6001 274L64.6001 291.5C64.6001 291.8 64.2003 292 63.8003 292Z" fill="#A9C753"/>
<path d="M65.8999 297.1C65.4999 297.1 65.2005 296.9 65.0005 296.5L56.8999 279.5C56.1999 278 54.7001 277.1 53.1001 277.1C51.5001 277.1 50.0003 278 49.3003 279.5L41.3999 296.3C41.1999 296.8 40.6001 297 40.1001 296.8C39.6001 296.6 39.4001 296 39.6001 295.5L47.5005 278.7C48.5005 276.5 50.7001 275.1 53.1001 275.1C55.5001 275.1 57.7007 276.5 58.7007 278.7L66.8003 295.7C67.0003 296.2 66.8003 296.8 66.3003 297C66.2003 297 66.0999 297.1 65.8999 297.1Z" fill="#A9C753"/>
<path d="M77.2007 296.2C77.1007 296.2 76.9003 296.2 76.8003 296.1C76.3003 295.9 76.1003 295.3 76.3003 294.8C76.6003 294.1 76.9007 293.4 77.2007 292.7C78.7007 289.1 80.3005 285.3 83.5005 282.3C85.6005 280.3 88.2007 279.1 90.7007 279.1H90.8003C96.0003 279.1 98.9999 284.6 100.4 287.3C100.7 287.8 100.5 288.4 100 288.7C99.5005 289 98.9001 288.8 98.6001 288.3C96.6001 284.5 94.2001 281.1 90.6001 281.2C88.6001 281.2 86.5007 282.2 84.7007 283.9C81.8007 286.6 80.3999 290 78.8999 293.6C78.5999 294.3 78.3005 295 78.0005 295.7C78.0005 296 77.6007 296.2 77.2007 296.2Z" fill="#A9C753"/>
<path d="M310 236.8H298C285.4 236.8 273.9 228.9 269.3 217.1C267.4 212.1 267.1 206.4 268.6 201L287.4 133.2C289.5 125.6 296 120.7 303.9 120.7C311.8 120.7 318.3 125.6 320.4 133.2C328 160.4 336.1 189.6 339.3 200.9C340.8 206.3 340.6 212 338.6 217C334.1 228.9 322.6 236.8 310 236.8ZM304 122.8C297.1 122.8 291.4 127.1 289.6 133.8L270.8 201.6C269.4 206.6 269.6 211.8 271.4 216.4C275.6 227.4 286.4 234.8 298.1 234.8H310.1C321.8 234.8 332.5 227.4 336.8 216.5C338.6 211.9 338.8 206.7 337.4 201.7C334.2 190.4 326.1 161.1 318.5 134C316.5 127.1 310.9 122.8 304 122.8Z" fill="#A9C753"/>
<path d="M304 185.201C297.8 185.201 292.499 181.001 291.099 175.001C290.999 174.501 291.299 173.901 291.799 173.801C292.299 173.701 292.9 174.001 293 174.501C294.2 179.501 298.8 183.201 304 183.201C309.2 183.201 313.8 179.601 315 174.501C315.1 174.001 315.7 173.601 316.2 173.801C316.7 173.901 317.099 174.501 316.899 175.001C315.499 181.001 310.2 185.201 304 185.201Z" fill="#006D69"/>
<path d="M312.9 174.6C313.1 173 314.6 171.8 316.3 172C317.9 172.2 319.1 173.7 318.9 175.4C318.7 177 317.2 178.2 315.5 178C313.9 177.7 312.7 176.2 312.9 174.6Z" fill="#006D69"/>
<path d="M295.1 174.6C294.9 173 293.401 171.8 291.701 172C290.101 172.2 288.9 173.7 289.1 175.4C289.3 177 290.8 178.2 292.5 178C294.2 177.7 295.3 176.2 295.1 174.6Z" fill="#006D69"/>
<path d="M304 209.1C294.6 209.1 286.5 202.1 285 192.9C284.9 192.4 285.3 191.8 285.8 191.8C286.4 191.7 286.899 192.1 286.899 192.6C288.199 200.9 295.499 207.1 303.899 207.1C312.299 207.1 319.599 200.8 320.899 192.6C320.999 192.1 321.5 191.7 322 191.8C322.5 191.9 322.9 192.4 322.8 192.9C321.6 202.1 313.4 209.1 304 209.1Z" fill="#006D69"/>
<path d="M319 192.6C319.1 190.9 320.6 189.7 322.3 189.9C324 190.1 325.2 191.5 325 193.2C324.9 194.9 323.4 196.1 321.7 195.9C320.1 195.7 318.8 194.2 319 192.6Z" fill="#006D69"/>
<path d="M289 192.6C288.9 190.9 287.4 189.7 285.7 189.9C284 190.1 282.8 191.5 283 193.2C283.1 194.9 284.6 196.1 286.3 195.9C288 195.7 289.2 194.2 289 192.6Z" fill="#006D69"/>
<path d="M304 280.5C303.4 280.5 303 280.1 303 279.5V158.9C303 158.3 303.4 157.9 304 157.9C304.6 157.9 305 158.3 305 158.9V279.5C305 280 304.6 280.5 304 280.5Z" fill="#006D69"/>
<path d="M304 162C305.657 162 307 160.657 307 159C307 157.343 305.657 156 304 156C302.343 156 301 157.343 301 159C301 160.657 302.343 162 304 162Z" fill="#006D69"/>
<path d="M258.201 297.301C258.101 297.301 257.9 297.301 257.8 297.201C257.3 297.001 257.1 296.401 257.3 295.901L274.201 260.601C276.301 256.301 280.5 253.601 285.3 253.601C290.1 253.601 294.3 256.301 296.4 260.601L305.1 278.801C305.3 279.301 305.1 279.901 304.6 280.101C304.1 280.301 303.5 280.101 303.3 279.601L294.6 261.401C292.9 257.801 289.3 255.501 285.3 255.501C281.3 255.501 277.7 257.701 276 261.401L259.1 296.701C258.9 297.101 258.501 297.301 258.201 297.301Z" fill="#A9C753"/>
<path d="M297.2 293.7C296.8 293.7 296.5 293.5 296.3 293.1L288.3 275.6C287.3 273.4 286.3 271.1 284.6 269.4C282.5 267.1 279.4 266.4 276.3 267.5C275.4 267.8 274.5 268.3 273.6 268.8L271.5 270C271 270.3 270.4 270.1 270.1 269.6C269.8 269.1 270 268.5 270.5 268.2L272.6 267C273.5 266.5 274.5 265.9 275.6 265.5C279.5 264.1 283.4 265 286 268C287.8 270 288.9 272.4 290 274.7L298 292.2C298.2 292.7 298 293.3 297.5 293.5C297.5 293.7 297.3 293.7 297.2 293.7Z" fill="#A9C753"/>
<path d="M320.1 297.3C319.7 297.3 319.401 297.1 319.201 296.7L311.9 281.1C311.2 279.6 309.7 278.7 308.1 278.7C306.5 278.7 305 279.6 304.3 281.1L296.9 296.7C296.7 297.2 296.1 297.4 295.6 297.2C295.1 297 294.9 296.4 295.1 295.9L302.5 280.3C303.5 278.1 305.7 276.7 308.1 276.7C310.5 276.7 312.701 278.1 313.701 280.3L321 295.9C321.2 296.4 321 297 320.5 297.2C320.3 297.3 320.2 297.3 320.1 297.3Z" fill="#A9C753"/>
<path d="M283.8 298C283.4 298 283 297.8 282.8 297.3C282.5 296.6 282.2 295.9 281.9 295.2C280.4 291.6 278.9 288.2 276.1 285.5C274.3 283.8 272.3 282.9 270.3 282.9H270.201C266.701 282.9 264.4 286.3 262.4 290C262.1 290.5 261.4 290.7 260.9 290.4C260.4 290.1 260.2 289.4 260.5 288.9C262 286.2 265.001 280.7 270.201 280.7C270.301 280.7 270.3 280.7 270.3 280.7C272.8 280.7 275.4 281.9 277.6 284C280.8 287 282.4 290.8 283.9 294.4C284.2 295.1 284.5 295.8 284.8 296.5C285 297.1 284.801 297.7 284.201 298C284.101 298 284 298 283.8 298Z" fill="#A9C753"/>
<path d="M77.2002 296.7H1C0.4 296.7 0 296.3 0 295.7C0 295.1 0.4 294.7 1 294.7H77.2002C77.8002 294.7 78.2002 295.1 78.2002 295.7C78.2002 296.3 77.8002 296.7 77.2002 296.7Z" fill="#006D69"/>
<path d="M351 297.9H283.8C283.2 297.9 282.8 297.5 282.8 296.9C282.8 296.3 283.2 295.9 283.8 295.9H351C351.6 295.9 352 296.3 352 296.9C352 297.5 351.6 297.9 351 297.9Z" fill="#A9C753"/>
</svg>
