<svg xmlns="http://www.w3.org/2000/svg" width="352" height="298" fill="none" viewBox="0 0 352 298"><path fill="#3c3c3b" d="M188 297.3h-19.601V229c0-5.4 4.401-9.8 9.801-9.8s9.8 4.4 9.8 9.8z"/><path fill="#3c3c3b" d="M188 297.9h-19.601c-.3 0-.5-.2-.5-.5v-68.3c0-5.7 4.601-10.3 10.301-10.3s10.3 4.6 10.3 10.3v68.3c0 .2-.2.5-.5.5m-19.101-1.1h18.5V229c0-5.1-4.199-9.3-9.299-9.3s-9.3 4.2-9.3 9.3v67.8zm-10.299.5H139V229c0-5.4 4.4-9.8 9.8-9.8s9.8 4.4 9.8 9.8z"/><path fill="#3c3c3b" d="M158.6 297.9H139c-.3 0-.5-.2-.5-.5v-68.3c0-5.7 4.6-10.3 10.3-10.3s10.3 4.6 10.3 10.3v68.3c0 .2-.2.5-.5.5m-19.1-1.1H158V229c0-5.1-4.2-9.3-9.3-9.3s-9.301 4.2-9.301 9.3v67.8z"/><path fill="#006d69" d="M232.1 142.3h-99.6l-26.101 42.4H205.2z"/><path fill="#a9c753" d="M205.2 185.4h-98.801c-.2 0-.4-.1-.5-.3q-.15-.3 0-.6L132 142c.1-.2.3-.3.5-.3h99.599c.2 0 .4.1.5.3q.15.3 0 .6L205.7 185.1c-.1.1-.3.3-.5.3m-97.7-1.3h97.399l26.2-41.2h-98.2z"/><mask id="a" width="127" height="43" x="106" y="142" maskUnits="userSpaceOnUse" style="mask-type:luminance"><path fill="#fff" d="M232.1 142.3h-99.6l-26.101 42.4H205.2z"/></mask><g fill="#fff" mask="url(#a)"><path d="M227.701 164.2c-1 0-2.101-.2-3.101-.6-3.1-1.2-5.4-4.9-5.7-8.9-.1-.9.1-1.9.2-2.8.2-1.4.3-2.8-.1-3.8-.5-1.2-1.5-2-3-2.5-.3-.1-.6-.2-.9-.2-1-.2-2.1-.5-3.1-1.2-1.8-1.4-2.9-4.6-1.6-7.2.2-.3.501-.4.801-.3.3.2.399.5.299.8-1 2-.199 4.7 1.201 5.7.8.6 1.699.8 2.599 1 .3.1.7.2 1 .3 1.8.5 3.1 1.6 3.7 3.1.6 1.3.401 2.9.201 4.4-.1.9-.201 1.8-.201 2.6.3 4.2 2.8 7 5 7.9 2.5 1 5.1.3 7.6-.6.3-.1.7.1.8.4s-.1.7-.4.8c-1.6.5-3.399 1.1-5.299 1.1"/><path d="M229.899 174.5c-6.4 0-13.2-1.6-16-9.6-.5-1.5-.7-3.1-1-4.6-.2-1.4-.399-2.9-.799-4.2-1.2-3.8-4.001-5.7-6.701-7.5-.4-.3-.799-.5-1.099-.8-3.2-2.2-6.201-4.8-5.401-10.5 0-.3.401-.6.701-.5.3 0 .6.4.5.7-.7 5 1.9 7.3 4.9 9.4.4.3.7.5 1.1.7 2.7 1.8 5.8 3.9 7.2 8.1.4 1.4.7 2.9.9 4.4s.5 3.1.9 4.4c3 8.5 11.1 9.1 17.9 8.7.3 0 .6.2.7.6 0 .3-.2.6-.6.7zm-13.5 11.7h-.099c-6.6-1.1-10.9-2.2-14.6-10.5-.8-1.7-1.6-4.3-1.5-7.2 0-.5.1-.9.1-1.4.1-.9.199-1.7.099-2.5-.1-1.3-.699-2.3-1.299-3.3-2-3.2-4.4-5.8-7.1-7.6-1.1-.8-2.2-1.4-3.4-2-1.6-.9-3.3-1.8-4.8-3.1-3.2-2.7-5.1-6.5-5.5-10.6 0-.3.199-.6.599-.7.3 0 .601.2.701.6.3 3.8 2.1 7.3 5 9.8 1.5 1.2 3 2.1 4.6 3 1.1.6 2.3 1.3 3.5 2.1 2.8 1.9 5.3 4.6 7.4 8 .7 1.1 1.4 2.3 1.5 3.8.1.9 0 1.9-.1 2.8-.1.4-.101.9-.101 1.3-.2 2.7.601 5.1 1.401 6.7 3.5 7.7 7.1 8.7 13.7 9.8.3.1.6.4.5.7-.1 0-.301.3-.601.3m-32.699 0c-.1 0-.3 0-.4-.1-2.5-1.9-3.6-7.2-3-10.7.4-2.6 1.7-4.5 3-6.3 2.1-3.1 4-5.8 1.3-11.5-2-4.2-5.6-5.5-8.3-5.3-.5 0-1 .1-1.5.2-.9.1-1.8.3-2.7.2-4.9-.3-11.201-7.7-11.201-15.2 0-.3.301-.6.601-.6s.6.3.6.6c0 6.8 5.8 13.8 10.1 14 .8 0 1.6-.1 2.5-.2.5-.1 1.1-.2 1.6-.2 4-.3 7.7 2 9.5 6 3 6.4.799 9.6-1.401 12.7-1.2 1.7-2.399 3.5-2.799 5.8-.6 3.5.6 8.1 2.5 9.5.3.2.3.6.1.9-.1.1-.3.2-.5.2m-63.8 0c-.3 0-.5-.2-.6-.5s.1-.7.5-.7c2.7-.6 4.1-3.7 4.5-6.4.5-3.4-.4-7.7-3.5-9.4-.9-.5-1.999-.7-3.099-.9-2.5-.5-5.301-1-6.601-5.1-.4-1.3-.399-3.1-.399-4.9 0-1.4-.001-2.8-.201-3.9-1-6.1-2.399-10.5-3.799-12.2-1.3-1.6-2.9-2.5-4.5-3.4-.3-.2-.401-.5-.201-.8s.5-.4.8-.2c1.6.9 3.401 1.9 4.901 3.7 2 2.5 3.299 8.3 4.099 12.8.2 1.2.2 2.7.2 4.1 0 1.7 0 3.4.3 4.6 1 3.4 3.2 3.8 5.6 4.2 1.2.2 2.4.5 3.5 1.1 3.6 2.1 4.6 6.9 4.1 10.7-.6 3.9-2.7 6.7-5.5 7.4zm12.3.1c-.2 0-.3-.1-.5-.2-.9-1-.901-3.1-.301-4.5.4-.9.901-1.5 1.301-2.2.2-.3.399-.6.699-.9 2.1-3.2 2.401-9.1.601-13.3-1.6-3.8-4.5-6.2-7.8-6.4h-.301c-.6 0-1.199 0-1.899-.4-2.1-1.2-2.401-4.8-2.701-8l-.099-.6c-.7-7.5-2.501-10.6-6.801-11.9-.3-.1-.499-.4-.399-.8.1-.3.399-.5.799-.4 4.8 1.4 6.901 4.9 7.701 12.9l.099.6c.3 2.8.601 6.2 2.101 7 .4.2.8.2 1.3.2h.299c3.7.2 7.1 2.9 8.8 7.1 1.9 4.6 1.6 10.8-.7 14.4-.2.3-.499.7-.699 1-.5.6-.9 1.2-1.2 1.9-.5 1.1-.401 2.6.099 3.2.2.2.2.6 0 .9-.1.3-.199.4-.399.4m14.1.4c-.3 0-.6-.3-.6-.6-.2-3.1 1.4-5.3 2.9-7.3.6-.8 1.2-1.7 1.7-2.6 1.8-3.3 2.2-8.5.8-12.7-1.2-3.8-3.801-6.7-6.701-7.5l-.299-.1c-.6-.2-1.3-.3-1.9-.9-1.4-1.3-1.6-3.8-1.7-6.2 0-.4-.101-.8-.101-1.2-.7-7.6-2.999-9.2-7.099-9.6-.3 0-.6-.3-.6-.7 0-.3.299-.6.699-.6 5.4.4 7.601 3.3 8.301 10.7 0 .4.1.8.1 1.2.1 2.1.3 4.4 1.3 5.4.4.4.8.5 1.4.6l.3.1c3.3.9 6.2 4.1 7.5 8.4 1.4 4.5 1.099 10.1-.901 13.7-.5 1-1.199 1.9-1.799 2.7-1.5 2-2.801 3.9-2.701 6.6 0 .3-.299.6-.599.6m16-.9c-.2 0-.4-.1-.5-.3-2.6-3.8-.401-6.6 1.599-9 1-1.2 1.901-2.4 2.301-3.6 2.1-7.4-4.701-14.6-8.801-16.8-.8-.4-1.6-.7-2.5-.9-1.9-.6-3.899-1.2-5.399-3.7-2.2-3.8-2.3-10.9-.3-14.6.2-.3.5-.4.8-.3.3.2.4.5.3.8-1.8 3.4-1.6 10 .3 13.4 1.2 2.1 2.9 2.6 4.7 3.1.9.3 1.8.5 2.7 1 4.4 2.3 11.699 10.1 9.399 18.2-.4 1.5-1.5 2.8-2.5 4-2 2.4-3.699 4.5-1.599 7.5.2.3.1.7-.2.9q-.15.3-.3.3"/></g><path fill="#a9c753" d="M259.899 297.201H205.2v-112.5l27.3-42.4 27.399 42.4z"/><path fill="#a9c753" d="M260.399 297.7H204.7V184.6l.1-.1 27.8-43.1 27.9 43.2v113.1zm-54.699-1h53.699V184.9L232.5 143.2l-26.9 41.7v111.8z"/><path fill="#a9c753" d="M205.2 297.8h-98.801c-.3 0-.5-.2-.5-.5V184.7c0-.3.2-.5.5-.5H205.2c.3 0 .5.2.5.5v112.6c0 .3-.3.5-.5.5m-98.301-1H204.7V185.2h-97.801z"/><path fill="#006d69" d="M288.6 58.8c-5.1 0-10.1-1.7-14-4.9-4 3.2-8.9 4.9-14 4.9s-10.1-1.7-14-4.9c-4 3.2-8.9 4.9-14 4.9-12.4 0-22.4-10.1-22.4-22.4S220.3 14 232.6 14c2.3 0 4.7.4 6.9 1.1C242.6 6.2 251.2 0 260.7 0s18.099 6.2 21.199 15.1c2.2-.7 4.501-1.1 6.901-1.1 12.4 0 22.4 10.1 22.4 22.4S301 58.8 288.6 58.8m-14-7.6.7.6c3.7 3.2 8.5 5 13.4 5 11.3 0 20.4-9.2 20.4-20.4 0-11.3-9.2-20.4-20.4-20.4-2.5 0-4.9.4-7.2 1.3l-1 .4-.3-1C277.7 8.1 269.6 2 260.6 2S243.5 8 241 16.7l-.3 1-1-.4c-2.3-.9-4.7-1.3-7.2-1.3-11.3 0-20.4 9.2-20.4 20.4 0 11.3 9.2 20.4 20.4 20.4 4.9 0 9.699-1.8 13.399-5l.701-.6.7.6c3.7 3.2 8.5 5 13.4 5s9.7-1.8 13.4-5z"/><path fill="#006d69" d="M240.8 38.3c-2.6 0-5.2.5-7.5 1.4-2.6-8.9-10.8-15.4-20.5-15.4s-17.9 6.5-20.5 15.4c-2.3-.9-4.9-1.4-7.5-1.4-11.8 0-21.401 9.6-21.401 21.4S173 81.1 184.8 81.1c5.4 0 10.3-2 14-5.2 3.8 3.3 8.7 5.2 14 5.2 5.4 0 10.3-2 14-5.2 3.8 3.3 8.7 5.2 14 5.2 11.8 0 21.4-9.6 21.4-21.4s-9.6-21.4-21.4-21.4"/><path fill="#006d68" d="M212.2 120.6c-.3 0-.501-.1-.801-.3-.4-.4-.499-1.1-.099-1.6 8.6-9.2 22.7-9.8 32.2-1.5.5.4.5 1.1.1 1.6s-1.1.5-1.6.1c-8.5-7.5-21.301-6.9-29.101 1.4-.1.2-.399.3-.699.3m7.099 6.6c-.3 0-.499-.1-.799-.3-.4-.4-.501-1.1-.101-1.6 2.5-2.6 5.8-4.1 9.4-4.2s7 1.2 9.6 3.6c.4.4.5 1.1 0 1.6-.4.4-1.1.5-1.6 0-2.2-2.1-5-3.1-8-3S222 124.6 220 126.8c-.1.3-.401.4-.701.4"/><path fill="#006d68" d="M205.099 113.9c-.3 0-.5-.1-.8-.3-.4-.4-.5-1.1 0-1.6 12.1-12.9 32.801-13.8 45.901-2 .5.4.499 1.1.099 1.6s-1.099.5-1.599.1c-12.3-11-31.501-10.2-42.801 1.8-.2.3-.5.4-.8.4"/><path fill="#006d69" d="M240.3 186.4h-13.1v35.1h13.1zM57.4 277.5c-.5 0-1-.4-1-1l-1-163.9c0-.6.4-1 1-1 .5 0 1 .4 1 1l1 163.9c0 .5-.4 1-1 1"/><path fill="#006d69" d="M53.4 112.8c0-1.7 1.3-3 3-3s3 1.3 3 3-1.3 3-3 3c-1.6 0-3-1.3-3-3"/><path fill="#a9c753" d="M56.2 204.4h-.1c-7.6 0-21.2-1.1-32.6-17.7-4.3-6.3-6.9-15.1-6.5-22 .5-8.5 3.2-13.6 8.2-15 4.9-1.4 10.5.5 13.7 4.5.5.6 1 1.5 1.5 2.3 1.9 3.2 3.4 5.3 6.2 4.2 1.9-.8 2-1.7 2-2 .3-2.8-4.9-7.6-8.2-10-3.2-2.3-5.1-4.6-7.4-7.6-3.6-4.7-6-12.9-3.6-18.6 1.4-3.4 4.3-5.3 7.8-5.3 4.5.1 9 3.3 10.5 7.5.1.2.4 1 1 1.2.4.1.9-.1 1.2-.5q.45-.6.6-1.8c.3-3.1-1.4-5.5-3.2-8.1-1.6-2.3-3.3-4.7-3.7-7.7-.8-6.2 3.6-10.6 12-12.3h1.7c8.5 1.6 12.9 6 12.1 12.2-.4 3-2 5.4-3.6 7.7-1.8 2.6-3.5 5.1-3.1 8.1q.15 1.2.6 1.8c.3.4.8.6 1.2.5.6-.1.9-1 1-1.2 1.4-4.2 5.9-7.5 10.4-7.6 3.6-.1 6.4 1.8 7.9 5.2 2.4 5.6.1 13.9-3.4 18.6-2.3 3-4.1 5.3-7.3 7.7-3.3 2.4-8.5 7.3-8.1 10.1 0 .3.2 1.2 2 2 2.8 1.1 4.2-1 6.1-4.2.5-.9 1-1.7 1.5-2.3 3.2-4.1 8.8-6 13.7-4.7 4.9 1.4 7.7 6.4 8.3 14.9.5 7.3-2.1 16.4-6.3 22.1-12.3 16.7-24.8 17.9-32.3 18zm-27.6-52.9c-.9 0-1.9.1-2.8.4-4 1.1-6.2 5.5-6.6 13-.4 6.4 2.2 14.9 6.1 20.7 11.2 16.3 24.2 16.8 31.7 16.7 7-.1 19.3-.7 31.4-17.1 3.9-5.3 6.3-13.8 5.9-20.7-.5-7.5-2.8-11.9-6.8-13-4.1-1.1-8.8.5-11.4 3.9-.4.5-.9 1.3-1.3 2.1-1.6 2.8-4 7-8.8 5.1-2.5-1-3.2-2.5-3.4-3.7-.6-4.9 8-11.4 9-12.1 3-2.2 4.7-4.3 6.9-7.2 3.1-4.1 5.2-11.6 3.2-16.5-1.1-2.6-3.2-4-5.8-3.9-3.6.1-7.3 2.8-8.4 6.2-.5 1.4-1.4 2.3-2.5 2.6-1.2.3-2.5-.2-3.4-1.2-.6-.7-.9-1.7-1.1-2.9-.4-3.8 1.6-6.7 3.5-9.6 1.5-2.2 2.9-4.3 3.2-6.8.8-6.7-6.1-9-10.3-9.8h-1.1c-4.2.9-11.1 3.3-10.2 9.9.3 2.5 1.8 4.5 3.3 6.7 2 2.8 4 5.7 3.6 9.5-.1 1.2-.5 2.2-1 2.9-.8 1-2.2 1.5-3.3 1.3-1.1-.3-2-1.2-2.5-2.6-1.2-3.3-4.9-6-8.5-6.1-2.6-.1-4.7 1.3-5.8 3.9-2 4.9.2 12.3 3.4 16.5 2.3 2.9 4 5 7 7.1 1 .7 9.7 7 9.1 12-.1 1.1-.8 2.7-3.3 3.7-4.7 1.9-7.2-2.3-8.8-5-.5-.8-.9-1.5-1.3-2.1-2.3-2.4-5.6-3.9-8.9-3.9"/><path fill="#006d69" d="M56.5 146.4c-7.9 0-14.7-5.6-16.2-13.4-.1-.5.2-1 .8-1.1.5-.1 1 .2 1.1.8 1.3 6.8 7.3 11.8 14.2 11.8h.1c7 0 12.9-5.1 14.2-11.9.1-.5.6-.9 1.1-.8s.9.6.8 1.1c-1.3 7.7-8 13.4-16.1 13.5q.15 0 0 0"/><path fill="#006d69" d="M38.5 133.3c-.2-1.6 1-3.1 2.6-3.2s3.1 1 3.2 2.6c.2 1.6-1 3.1-2.6 3.2s-3.1-1-3.2-2.6m36.2-.2c.2-1.6-1-3.1-2.7-3.2s-3.1 1-3.2 2.7 1 3.1 2.7 3.2c1.6.1 3-1.1 3.2-2.7m-18 52.501c-13.5 0-25-9-26.7-20.9-.1-.5.3-1 .8-1.1s1 .3 1.1.8c1.6 11 12.2 19.2 24.8 19.2h.2c12.6-.1 23.2-8.4 24.7-19.5.1-.5.6-.9 1.1-.8s.9.6.8 1.1c-1.6 12-13 21.1-26.6 21.2z"/><path fill="#006d69" d="M28.1 164.9c-.1-1.6 1.1-3 2.7-3.2s3 1.1 3.2 2.7c.1 1.6-1.1 3-2.7 3.2-1.7.2-3.1-1-3.2-2.7m57.3-.3c.1-1.6-1.1-3-2.7-3.2-1.6-.1-3 1.1-3.2 2.7-.1 1.6 1.1 3 2.7 3.2 1.7.2 3.1-1.1 3.2-2.7M25.7 296.7c-.6 0-1-.4-1-1v-52.9c0-.6.4-1 1-1s1 .4 1 1v52.9c0 .6-.5 1-1 1"/><path fill="#006d69" d="M25.7 246a3 3 0 1 0 0-6 3 3 0 0 0 0 6m11.5 50.7c-.6 0-1-.4-1-1v-35.6c0-.6.4-1 1-1s1 .4 1 1v35.6c0 .6-.4 1-1 1"/><path fill="#006d69" d="M37.2 263.3a3 3 0 1 0 0-6 3 3 0 0 0 0 6m-23.1 33.4c-.6 0-1-.4-1-1v-35.6c0-.6.4-1 1-1s1 .4 1 1v35.6c0 .6-.4 1-1 1"/><path fill="#006d69" d="M14.1 263.3a3 3 0 1 0 0-6 3 3 0 0 0 0 6"/><path fill="#a9c753" d="M102.9 295.6q-.6 0-.9-.6l-16.9-35.3c-1.7-3.6-5.3-5.9-9.3-5.9s-7.6 2.2-9.3 5.9l-8.7 18.2c-.2.5-.8.7-1.3.5s-.7-.8-.5-1.3l8.7-18.2c2.1-4.3 6.3-7 11.1-7s9 2.7 11.1 7l16.9 35.3c.2.5 0 1.1-.5 1.3-.2.1-.3.1-.4.1"/><path fill="#a9c753" d="M63.8 292c-.1 0-.3 0-.4-.1-.5-.2-.7-.8-.5-1.3l8-17.5c1-2.2 2.2-4.7 4-6.7 2.7-2.9 6.6-3.9 10.4-2.5 1.1.4 2 .9 3 1.5l2.1 1.2c.5.3.6.9.4 1.4-.3.5-.9.6-1.4.4l-2.1-1.2c-.9-.5-1.8-1-2.7-1.3-3.1-1.1-6.2-.4-8.3 1.9-1.6 1.8-2.6 4-3.7 6.2l-8 17.5c0 .3-.4.5-.8.5"/><path fill="#a9c753" d="M65.9 297.1q-.6 0-.9-.6l-8.1-17c-.7-1.5-2.2-2.4-3.8-2.4s-3.1.9-3.8 2.4l-7.9 16.8c-.2.5-.8.7-1.3.5s-.7-.8-.5-1.3l7.9-16.8a6.155 6.155 0 0 1 11.2 0l8.1 17c.2.5 0 1.1-.5 1.3-.1 0-.2.1-.4.1m11.3-.9c-.1 0-.3 0-.4-.1-.5-.2-.7-.8-.5-1.3l.9-2.1c1.5-3.6 3.1-7.4 6.3-10.4 2.1-2 4.7-3.2 7.2-3.2h.1c5.2 0 8.2 5.5 9.6 8.2.3.5.1 1.1-.4 1.4s-1.1.1-1.4-.4c-2-3.8-4.4-7.2-8-7.1-2 0-4.1 1-5.9 2.7-2.9 2.7-4.3 6.1-5.8 9.7l-.9 2.1c0 .3-.4.5-.8.5M310 236.8h-12c-12.6 0-24.1-7.9-28.7-19.7-1.9-5-2.2-10.7-.7-16.1l18.8-67.8c2.1-7.6 8.6-12.5 16.5-12.5s14.4 4.9 16.5 12.5c7.6 27.2 15.7 56.4 18.9 67.7 1.5 5.4 1.3 11.1-.7 16.1-4.5 11.9-16 19.8-28.6 19.8m-6-114c-6.9 0-12.6 4.3-14.4 11l-18.8 67.8c-1.4 5-1.2 10.2.6 14.8 4.2 11 15 18.4 26.7 18.4h12c11.7 0 22.4-7.4 26.7-18.3 1.8-4.6 2-9.8.6-14.8-3.2-11.3-11.3-40.6-18.9-67.7-2-6.9-7.6-11.2-14.5-11.2"/><path fill="#006d69" d="M304 185.201c-6.2 0-11.501-4.2-12.901-10.2-.1-.5.2-1.1.7-1.2s1.101.2 1.201.7c1.2 5 5.8 8.7 11 8.7s9.8-3.6 11-8.7c.1-.5.7-.9 1.2-.7.5.1.899.7.699 1.2-1.4 6-6.699 10.2-12.899 10.2"/><path fill="#006d69" d="M312.9 174.6c.2-1.6 1.7-2.8 3.4-2.6 1.6.2 2.8 1.7 2.6 3.4-.2 1.6-1.7 2.8-3.4 2.6-1.6-.3-2.8-1.8-2.6-3.4m-17.8 0c-.2-1.6-1.699-2.8-3.399-2.6-1.6.2-2.801 1.7-2.601 3.4.2 1.6 1.7 2.8 3.4 2.6 1.7-.3 2.8-1.8 2.6-3.4m8.9 34.5c-9.4 0-17.5-7-19-16.2-.1-.5.3-1.1.8-1.1.6-.1 1.099.3 1.099.8 1.3 8.3 8.6 14.5 17 14.5s15.7-6.3 17-14.5c.1-.5.601-.9 1.101-.8s.9.6.8 1.1c-1.2 9.2-9.4 16.2-18.8 16.2"/><path fill="#006d69" d="M319 192.6c.1-1.7 1.6-2.9 3.3-2.7s2.9 1.6 2.7 3.3c-.1 1.7-1.6 2.9-3.3 2.7-1.6-.2-2.9-1.7-2.7-3.3m-30 0c-.1-1.7-1.6-2.9-3.3-2.7s-2.9 1.6-2.7 3.3c.1 1.7 1.6 2.9 3.3 2.7s2.9-1.7 2.7-3.3m15 87.9c-.6 0-1-.4-1-1V158.9c0-.6.4-1 1-1s1 .4 1 1v120.6c0 .5-.4 1-1 1"/><path fill="#006d69" d="M304 162a3 3 0 1 0 0-6 3 3 0 0 0 0 6"/><path fill="#a9c753" d="M258.201 297.301c-.1 0-.301 0-.401-.1-.5-.2-.7-.8-.5-1.3l16.901-35.3c2.1-4.3 6.299-7 11.099-7s9 2.7 11.1 7l8.7 18.2c.2.5 0 1.1-.5 1.3s-1.1 0-1.3-.5l-8.7-18.2c-1.7-3.6-5.3-5.9-9.3-5.9s-7.6 2.2-9.3 5.9l-16.9 35.3c-.2.4-.599.6-.899.6"/><path fill="#a9c753" d="M297.2 293.7q-.6 0-.9-.6l-8-17.5c-1-2.2-2-4.5-3.7-6.2-2.1-2.3-5.2-3-8.3-1.9-.9.3-1.8.8-2.7 1.3l-2.1 1.2c-.5.3-1.1.1-1.4-.4s-.1-1.1.4-1.4l2.1-1.2c.9-.5 1.9-1.1 3-1.5 3.9-1.4 7.8-.5 10.4 2.5 1.8 2 2.9 4.4 4 6.7l8 17.5c.2.5 0 1.1-.5 1.3 0 .2-.2.2-.3.2"/><path fill="#a9c753" d="M320.1 297.3q-.6 0-.899-.6l-7.301-15.6c-.7-1.5-2.2-2.4-3.8-2.4s-3.1.9-3.8 2.4l-7.4 15.6c-.2.5-.8.7-1.3.5s-.7-.8-.5-1.3l7.4-15.6a6.156 6.156 0 0 1 11.201 0L321 295.9c.2.5 0 1.1-.5 1.3-.2.1-.3.1-.4.1m-36.3.7c-.4 0-.8-.2-1-.7l-.9-2.1c-1.5-3.6-3-7-5.8-9.7-1.8-1.7-3.8-2.6-5.8-2.6h-.099c-3.5 0-5.801 3.4-7.801 7.1-.3.5-1 .7-1.5.4s-.7-1-.4-1.5c1.5-2.7 4.501-8.2 9.701-8.2h.099c2.5 0 5.1 1.2 7.3 3.3 3.2 3 4.8 6.8 6.3 10.4l.9 2.1c.2.6.001 1.2-.599 1.5z"/><path fill="#006d69" d="M77.2 296.7H1c-.6 0-1-.4-1-1s.4-1 1-1h76.2c.6 0 1 .4 1 1s-.4 1-1 1"/><path fill="#a9c753" d="M351 297.9h-67.2c-.6 0-1-.4-1-1s.4-1 1-1H351c.6 0 1 .4 1 1s-.4 1-1 1"/></svg>