<?xml version="1.0" encoding="UTF-8"?>
<svg id="text" xmlns="http://www.w3.org/2000/svg" xmlns:xlink="http://www.w3.org/1999/xlink" version="1.1" viewBox="0 0 500 500">
  <!-- Generator: Adobe Illustrator 30.2.1, SVG Export Plug-In . SVG Version: 2.1.1 Build 1)  -->
  <defs>
    <style>
      .st0 {
        fill: url(#linear-gradient2);
      }

      .st1 {
        fill: url(#linear-gradient1);
      }

      .st2 {
        fill: url(#linear-gradient9);
      }

      .st3 {
        fill: url(#linear-gradient3);
      }

      .st4 {
        fill: url(#linear-gradient6);
      }

      .st5 {
        fill: url(#linear-gradient8);
      }

      .st6 {
        fill: url(#linear-gradient7);
      }

      .st7 {
        fill: url(#linear-gradient5);
      }

      .st8 {
        fill: url(#linear-gradient4);
      }

      .st9 {
        fill: url(#radial-gradient);
      }

      .st10 {
        fill: url(#linear-gradient);
      }

      .st11 {
        stroke-width: 1.28px;
      }

      .st11, .st12 {
        fill: none;
      }

      .st11, .st12, .st13 {
        stroke: #fff;
        stroke-miterlimit: 10;
      }

      .st14 {
        fill: #fff;
      }

      .st12 {
        stroke-width: 1.27px;
      }

      .st15 {
        fill: url(#radial-gradient1);
      }

      .st16 {
        fill: url(#radial-gradient3);
      }

      .st17 {
        fill: url(#radial-gradient2);
      }

      .st18 {
        fill: url(#radial-gradient5);
      }

      .st13 {
        fill: url(#radial-gradient4);
        stroke-width: .66px;
      }
    </style>
    <linearGradient id="linear-gradient" x1="4049.96" y1="8426.94" x2="4495.65" y2="8426.94" gradientTransform="translate(-6208.09 7172.15) rotate(-110.01)" gradientUnits="userSpaceOnUse">
      <stop offset="0" stop-color="#003834"/>
      <stop offset=".28" stop-color="#013a36"/>
      <stop offset=".48" stop-color="#074440"/>
      <stop offset=".66" stop-color="#115450"/>
      <stop offset=".82" stop-color="#1f6a66"/>
      <stop offset=".97" stop-color="#318682"/>
      <stop offset=".99" stop-color="#338a86"/>
    </linearGradient>
    <linearGradient id="linear-gradient1" x1="237.45" y1="4038.05" x2="237.45" y2="3893.53" gradientTransform="translate(127.57 4057.53) scale(1 -1)" gradientUnits="userSpaceOnUse">
      <stop offset=".01" stop-color="#001815"/>
      <stop offset=".2" stop-color="#002623"/>
      <stop offset=".36" stop-color="#003834"/>
      <stop offset=".53" stop-color="#00544f"/>
      <stop offset=".57" stop-color="#065851"/>
      <stop offset=".64" stop-color="#196457"/>
      <stop offset=".71" stop-color="#377962"/>
      <stop offset=".79" stop-color="#619671"/>
      <stop offset=".87" stop-color="#96ba84"/>
      <stop offset=".95" stop-color="#cee098"/>
    </linearGradient>
    <linearGradient id="linear-gradient2" x1="13788.98" y1="138.18" x2="13788.98" y2="56.57" gradientTransform="translate(14154) rotate(-180) scale(1 -1)" gradientUnits="userSpaceOnUse">
      <stop offset="0" stop-color="#00544f"/>
      <stop offset=".64" stop-color="#003834"/>
      <stop offset=".8" stop-color="#002623"/>
      <stop offset=".99" stop-color="#001815"/>
    </linearGradient>
    <linearGradient id="linear-gradient3" x1="1171.45" y1="3762.13" x2="1171.45" y2="3680.51" gradientTransform="translate(-806.43 3745.52) scale(1 -1)" gradientUnits="userSpaceOnUse">
      <stop offset=".01" stop-color="#001815"/>
      <stop offset=".2" stop-color="#002623"/>
      <stop offset=".36" stop-color="#003834"/>
      <stop offset="1" stop-color="#00544f"/>
    </linearGradient>
    <radialGradient id="radial-gradient" cx="13743.62" cy="74.23" fx="13743.62" fy="74.23" r="82.59" gradientTransform="translate(14257.26 11.2) rotate(-180) scale(1.01 -.99)" gradientUnits="userSpaceOnUse">
      <stop offset=".16" stop-color="#006d68"/>
      <stop offset=".17" stop-color="#0b736e" stop-opacity=".96"/>
      <stop offset=".26" stop-color="#569e9a" stop-opacity=".66"/>
      <stop offset=".36" stop-color="#93c1bf" stop-opacity=".42"/>
      <stop offset=".48" stop-color="#c3dcdb" stop-opacity=".23"/>
      <stop offset=".6" stop-color="#e5f0ef" stop-opacity=".1"/>
      <stop offset=".75" stop-color="#f9fbfb" stop-opacity=".02"/>
      <stop offset="1" stop-color="#fff" stop-opacity="0"/>
    </radialGradient>
    <radialGradient id="radial-gradient1" cx="14012.89" cy="308.38" fx="14012.89" fy="308.38" r="43.99" xlink:href="#radial-gradient"/>
    <radialGradient id="radial-gradient2" cx="13699.12" cy="220.01" fx="13699.12" fy="220.01" r="43.99" xlink:href="#radial-gradient"/>
    <linearGradient id="linear-gradient4" x1="-12.6" y1="3952.18" x2="-12.6" y2="3778.77" gradientTransform="translate(127.57 4057.53) scale(1 -1)" gradientUnits="userSpaceOnUse">
      <stop offset=".01" stop-color="#001815"/>
      <stop offset=".19" stop-color="#002623"/>
      <stop offset=".35" stop-color="#003834"/>
      <stop offset=".5" stop-color="#00544f"/>
      <stop offset=".53" stop-color="#065851"/>
      <stop offset=".58" stop-color="#196457"/>
      <stop offset=".63" stop-color="#377962"/>
      <stop offset=".69" stop-color="#619671"/>
      <stop offset=".75" stop-color="#96ba84"/>
      <stop offset=".81" stop-color="#cee098"/>
    </linearGradient>
    <linearGradient id="linear-gradient5" x1="14039.03" y1="201.03" x2="14039.03" y2="103.1" gradientTransform="translate(14154) rotate(-180) scale(1 -1)" xlink:href="#linear-gradient3"/>
    <radialGradient id="radial-gradient3" cx="13990.99" cy="157.76" fx="13990.99" fy="157.76" r="89.48" xlink:href="#radial-gradient"/>
    <linearGradient id="linear-gradient6" x1="-39.96" y1="3559.17" x2="-39.96" y2="3705.96" gradientTransform="translate(127.57 4057.53) scale(1 -1)" gradientUnits="userSpaceOnUse">
      <stop offset=".05" stop-color="#cee098"/>
      <stop offset=".13" stop-color="#96ba84"/>
      <stop offset=".21" stop-color="#619671"/>
      <stop offset=".29" stop-color="#377962"/>
      <stop offset=".36" stop-color="#196457"/>
      <stop offset=".43" stop-color="#065851"/>
      <stop offset=".47" stop-color="#00544f"/>
      <stop offset=".64" stop-color="#003834"/>
      <stop offset=".8" stop-color="#002623"/>
      <stop offset=".99" stop-color="#001815"/>
    </linearGradient>
    <linearGradient id="linear-gradient7" x1="13994.35" y1="421.32" x2="14138.44" y2="421.32" gradientTransform="translate(14154) rotate(-180) scale(1 -1)" gradientUnits="userSpaceOnUse">
      <stop offset=".01" stop-color="#001815"/>
      <stop offset=".32" stop-color="#002623"/>
      <stop offset=".91" stop-color="#004d48"/>
      <stop offset="1" stop-color="#00544f"/>
    </linearGradient>
    <radialGradient id="radial-gradient4" cx="293.93" cy="264.4" fx="293.93" fy="264.4" r="106.27" gradientTransform="translate(-49.8 11.2) scale(1.01 .99)" gradientUnits="userSpaceOnUse">
      <stop offset="0" stop-color="#fff" stop-opacity="0"/>
      <stop offset=".32" stop-color="#fff" stop-opacity="0"/>
      <stop offset=".45" stop-color="#fff" stop-opacity=".04"/>
      <stop offset=".56" stop-color="#fff" stop-opacity=".09"/>
      <stop offset=".64" stop-color="#fff" stop-opacity=".16"/>
      <stop offset=".72" stop-color="#fff" stop-opacity=".25"/>
      <stop offset=".78" stop-color="#fff" stop-opacity=".36"/>
      <stop offset=".84" stop-color="#fff" stop-opacity=".49"/>
      <stop offset=".9" stop-color="#fff" stop-opacity=".65"/>
      <stop offset=".95" stop-color="#fff" stop-opacity=".82"/>
      <stop offset="1" stop-color="#fff"/>
    </radialGradient>
    <linearGradient id="linear-gradient8" x1="294.93" y1="3731.71" x2="294.93" y2="3613.12" xlink:href="#linear-gradient4"/>
    <linearGradient id="linear-gradient9" x1="13731.5" y1="391.25" x2="13731.5" y2="324.28" gradientTransform="translate(14154) rotate(-180) scale(1 -1)" xlink:href="#linear-gradient3"/>
    <radialGradient id="radial-gradient5" cx="13686.75" cy="359.49" fx="13686.75" fy="359.49" r="61.19" xlink:href="#radial-gradient"/>
  </defs>
  <circle class="st10" cx="248.58" cy="274.21" r="222.85"/>
  <g>
    <g>
      <rect class="st1" x="289.52" y="60.35" width="150.99" height="96.95"/>
      <polygon class="st0" points="365.02 115.1 440.51 60.35 289.52 60.35 365.02 115.1"/>
      <polygon class="st3" points="365.02 6.47 289.52 61.22 440.51 61.22 365.02 6.47"/>
    </g>
    <g>
      <ellipse class="st9" cx="365.02" cy="85.03" rx="83.49" ry="82.14"/>
      <polygon class="st14" points="365.02 101.62 371.16 85.28 387.77 79.23 371.16 73.18 365.02 56.84 358.87 73.18 342.26 79.23 358.87 85.28 365.02 101.62"/>
      <polygon class="st14" points="381.11 95.06 373.71 79.23 381.11 63.4 365.02 70.68 348.93 63.4 356.33 79.23 348.93 95.06 365.02 87.78 381.11 95.06"/>
    </g>
  </g>
  <g>
    <ellipse class="st15" cx="92.83" cy="317.9" rx="44.47" ry="43.75"/>
    <polygon class="st14" points="92.83 326.74 96.1 318.04 104.95 314.82 96.1 311.59 92.83 302.89 89.55 311.59 80.71 314.82 89.55 318.04 92.83 326.74"/>
    <polygon class="st14" points="101.4 323.25 97.46 314.82 101.4 306.38 92.83 310.26 84.26 306.38 88.2 314.82 84.26 323.25 92.83 319.37 101.4 323.25"/>
  </g>
  <g>
    <ellipse class="st17" cx="409.99" cy="230.01" rx="44.47" ry="43.75"/>
    <polygon class="st14" points="409.99 238.85 413.27 230.15 422.11 226.93 413.27 223.71 409.99 215 406.72 223.71 397.87 226.93 406.72 230.15 409.99 238.85"/>
    <polygon class="st14" points="418.56 235.36 414.62 226.93 418.56 218.49 409.99 222.37 401.42 218.49 405.36 226.93 401.42 235.36 409.99 231.48 418.56 235.36"/>
  </g>
  <path class="st11" d="M244.4,273.56C92.82,119.43,225.29-21.95,364.13,73.58"/>
  <g>
    <rect class="st8" x="24.38" y="107.64" width="181.17" height="116.32"/>
    <polygon class="st7" points="114.96 173.33 205.55 107.64 24.38 107.64 114.96 173.33"/>
    <g>
      <ellipse class="st16" cx="114.96" cy="168.1" rx="90.45" ry="89"/>
      <polygon class="st14" points="114.96 186.08 121.62 168.37 139.62 161.82 121.62 155.27 114.96 137.56 108.31 155.27 90.31 161.82 108.31 168.37 114.96 186.08"/>
      <polygon class="st14" points="132.4 178.97 124.38 161.82 132.4 144.67 114.96 152.56 97.53 144.67 105.55 161.82 97.53 178.97 114.96 171.09 132.4 178.97"/>
    </g>
  </g>
  <path class="st12" d="M246.95,273.56c-16.56,0-122.28-16.56-154.12,40.76"/>
  <path class="st12" d="M258.41,277.38c119.73-16.56,229.28,28.02,164.31,75.15"/>
  <g>
    <rect class="st4" x="15.56" y="395.19" width="144.09" height="92.52"/>
    <polygon class="st6" points="87.61 447.44 159.65 395.19 15.56 395.19 87.61 447.44"/>
    <g>
      <polygon class="st14" points="87.61 457.58 92.9 443.5 107.21 438.29 92.9 433.07 87.61 418.99 82.31 433.07 68 438.29 82.31 443.5 87.61 457.58"/>
      <polygon class="st14" points="101.47 451.93 95.1 438.29 101.47 424.64 87.61 430.92 73.74 424.64 80.12 438.29 73.74 451.93 87.61 445.65 101.47 451.93"/>
    </g>
  </g>
  <path class="st11" d="M272.42,299.03c103.17,164.31-100.63,230.55-173.23,150.3"/>
  <g>
    <ellipse class="st13" cx="247.31" cy="274.17" rx="107.42" ry="105.7"/>
    <g>
      <polygon class="st14" points="247.31 309.59 237.59 283.73 211.31 274.17 237.59 264.6 247.31 238.75 257.03 264.6 283.31 274.17 257.03 283.73 247.31 309.59"/>
      <polygon class="st14" points="221.86 299.21 233.56 274.17 221.86 249.12 247.31 260.64 272.76 249.12 261.06 274.17 272.76 299.21 247.31 287.7 221.86 299.21"/>
    </g>
  </g>
  <g>
    <rect class="st5" x="360.55" y="327.38" width="123.89" height="79.55"/>
    <polygon class="st2" points="422.49 372.31 484.44 327.38 360.55 327.38 422.49 372.31"/>
    <g>
      <ellipse class="st18" cx="422.49" cy="368.73" rx="61.86" ry="60.86"/>
      <polygon class="st14" points="422.49 381.02 427.05 368.92 439.35 364.44 427.05 359.96 422.49 347.85 417.94 359.96 405.63 364.44 417.94 368.92 422.49 381.02"/>
      <polygon class="st14" points="434.42 376.17 428.93 364.44 434.42 352.71 422.49 358.1 410.57 352.71 416.05 364.44 410.57 376.17 422.49 370.77 434.42 376.17"/>
    </g>
  </g>
</svg>