<svg xmlns="http://www.w3.org/2000/svg" id="text" viewBox="0 0 500 500"><defs><linearGradient id="linear-gradient" x1="6751.33" x2="6751.33" y1="388.12" y2="178.38" gradientTransform="matrix(-1 0 0 1 6986.3 0)" gradientUnits="userSpaceOnUse"><stop offset="0" stop-color="#6fafac"/><stop offset=".32" stop-color="#479793"/><stop offset=".78" stop-color="#137874"/><stop offset="1" stop-color="#006d68"/></linearGradient><linearGradient id="linear-gradient1" x1="6795.69" x2="6795.69" y1="415.2" y2="205.46" gradientTransform="matrix(-1 0 0 1 6986.3 0)" gradientUnits="userSpaceOnUse"><stop offset="0" stop-color="#006d68"/><stop offset="1" stop-color="#003834"/></linearGradient><linearGradient id="linear-gradient2" x1="6841.47" x2="6841.47" y1="464.04" y2="254.3" gradientTransform="matrix(-1 0 0 1 6986.3 0)" gradientUnits="userSpaceOnUse"><stop offset=".28" stop-color="#cee098"/><stop offset=".37" stop-color="#c5db96"/><stop offset=".51" stop-color="#accd94"/><stop offset=".69" stop-color="#85b78f"/><stop offset=".9" stop-color="#4e9989"/><stop offset="1" stop-color="#338a86"/></linearGradient><linearGradient id="linear-gradient3" x1="316.21" x2="382.48" y1="380.89" y2="380.89" gradientUnits="userSpaceOnUse"><stop offset="0" stop-color="#fff"/><stop offset=".5" stop-color="#fff" stop-opacity="0"/><stop offset=".66" stop-color="#fff" stop-opacity="0"/><stop offset=".73" stop-color="#fff" stop-opacity=".04"/><stop offset=".78" stop-color="#fff" stop-opacity=".09"/><stop offset=".82" stop-color="#fff" stop-opacity=".16"/><stop offset=".86" stop-color="#fff" stop-opacity=".25"/><stop offset=".89" stop-color="#fff" stop-opacity=".36"/><stop offset=".92" stop-color="#fff" stop-opacity=".49"/><stop offset=".95" stop-color="#fff" stop-opacity=".65"/><stop offset=".98" stop-color="#fff" stop-opacity=".82"/><stop offset="1" stop-color="#fff"/></linearGradient><radialGradient id="radial-gradient" cx="342.47" cy="431.15" r="20.4" fx="342.47" fy="431.15" gradientUnits="userSpaceOnUse"><stop offset="0" stop-color="#fff"/><stop offset=".03" stop-color="#fff" stop-opacity=".94"/><stop offset=".2" stop-color="#fff" stop-opacity=".66"/><stop offset=".36" stop-color="#fff" stop-opacity=".43"/><stop offset=".5" stop-color="#fff" stop-opacity=".24"/><stop offset=".63" stop-color="#fff" stop-opacity=".11"/><stop offset=".73" stop-color="#fff" stop-opacity=".03"/><stop offset=".8" stop-color="#fff" stop-opacity="0"/></radialGradient><style>.st5{stroke:#fff}.st7{fill:#fff}.st5{stroke-linecap:round;stroke-linejoin:round;stroke-width:3.13px;fill:none}.st9{fill:#aecc53}.st10{fill:#003834}</style></defs><path d="M261.84 50.58h202.97v305.7H261.84z" style="stroke-miterlimit:10;fill:none;stroke:#338a86;stroke-width:3px"/><path d="M323.47 32.72h79.7c7.78 0 14.11 6.32 14.11 14.11v5.34H309.37v-5.34c0-7.78 6.32-14.11 14.11-14.11Z" class="st7"/><path d="M325.85 50.18h74.94v13.01h-74.94z" class="st7"/><path d="M280.35 111.22h20.6v20.6h-20.6z" class="st10"/><path d="M313.21 121.53h133.08" class="st5"/><path d="M280.35 171.36h20.6v20.6h-20.6z" class="st10"/><path d="M313.21 181.67h133.08" class="st5"/><path d="M280.35 231.5h20.6v20.6h-20.6z" class="st10"/><path d="M313.21 241.81h133.08" class="st5"/><path d="M280.35 291.64h20.6v20.6h-20.6z" class="st10"/><path d="M313.21 301.95h133.08" class="st5"/><path d="M243.17 176.6v6.04c0 5.7 4.62 10.32 10.32 10.32h80.79c5.7 0 10.32 4.62 10.32 10.32v162.4c0 5.7-4.62 10.32-10.32 10.32H135.65c-5.7 0-10.32-4.62-10.32-10.32V176.59c0-5.7 4.62-10.32 10.32-10.32h97.19c5.7 0 10.32 4.62 10.32 10.32Z" style="fill:url(#linear-gradient)"/><path d="M198.81 215.79v6.04c0 5.7 4.62 10.32 10.32 10.32h80.79c5.7 0 10.32 4.62 10.32 10.32v162.4c0 5.7-4.62 10.32-10.32 10.32H91.3c-5.7 0-10.32-4.62-10.32-10.32V215.78c0-5.7 4.62-10.32 10.32-10.32h97.19c5.7 0 10.32 4.62 10.32 10.32Z" style="fill:url(#linear-gradient1)"/><path d="M153.03 264.62v6.04c0 5.7 4.62 10.32 10.32 10.32h80.79c5.7 0 10.32 4.62 10.32 10.32v162.4c0 5.7-4.62 10.32-10.32 10.32H45.52c-5.7 0-10.32-4.62-10.32-10.32V264.61c0-5.7 4.62-10.32 10.32-10.32h97.19c5.7 0 10.32 4.62 10.32 10.32Z" style="fill:url(#linear-gradient2)"/><path d="M55.85 410.07h89.13v25.34H55.85z" style="fill:#00524f" transform="matrix(-1 0 0 -1 200.84 845.48)"/><path d="M382.48 345.98v-40.24h-66.27v40.24c0 12.01 7.32 22.39 17.71 26.91 3.21 1.4 5.37 4.48 5.37 7.99s-2.15 6.59-5.37 7.99c-10.39 4.52-17.71 14.9-17.71 26.91v40.24h66.27v-40.24c0-12.01-7.32-22.39-17.71-26.91-3.21-1.4-5.37-4.48-5.37-7.99s2.15-6.59 5.37-7.99c10.39-4.52 17.71-14.9 17.71-26.91Z" style="fill:url(#linear-gradient3);stroke-width:1.27px;stroke:#fff;stroke-miterlimit:10"/><rect width="88.75" height="11.83" x="304.97" y="296.28" class="st9" rx="5.92" ry="5.92"/><rect width="88.75" height="11.83" x="304.97" y="455.44" class="st9" rx="5.92" ry="5.92"/><circle cx="342.47" cy="431.15" r="20.4" style="fill:url(#radial-gradient)"/><circle cx="342.47" cy="431.15" r="6.12" class="st7"/></svg>