<svg xmlns="http://www.w3.org/2000/svg" xmlns:xlink="http://www.w3.org/1999/xlink" id="text" viewBox="0 0 500 500"><defs><linearGradient id="linear-gradient" x1="4049.96" x2="4495.65" y1="8426.94" y2="8426.94" gradientTransform="rotate(249.99 -593.515 5759.147)" gradientUnits="userSpaceOnUse"><stop offset="0" stop-color="#003834"/><stop offset=".28" stop-color="#013a36"/><stop offset=".48" stop-color="#074440"/><stop offset=".66" stop-color="#115450"/><stop offset=".82" stop-color="#1f6a66"/><stop offset=".97" stop-color="#318682"/><stop offset=".99" stop-color="#338a86"/></linearGradient><linearGradient id="linear-gradient1" x1="237.45" x2="237.45" y1="4038.05" y2="3893.53" gradientTransform="matrix(1 0 0 -1 127.57 4057.53)" gradientUnits="userSpaceOnUse"><stop offset=".01" stop-color="#001815"/><stop offset=".2" stop-color="#002623"/><stop offset=".36" stop-color="#003834"/><stop offset=".53" stop-color="#00544f"/><stop offset=".57" stop-color="#065851"/><stop offset=".64" stop-color="#196457"/><stop offset=".71" stop-color="#377962"/><stop offset=".79" stop-color="#619671"/><stop offset=".87" stop-color="#96ba84"/><stop offset=".95" stop-color="#cee098"/></linearGradient><linearGradient id="linear-gradient2" x1="13788.98" x2="13788.98" y1="138.18" y2="56.57" gradientTransform="matrix(-1 0 0 1 14154 0)" gradientUnits="userSpaceOnUse"><stop offset="0" stop-color="#00544f"/><stop offset=".64" stop-color="#003834"/><stop offset=".8" stop-color="#002623"/><stop offset=".99" stop-color="#001815"/></linearGradient><linearGradient id="linear-gradient3" x1="1171.45" x2="1171.45" y1="3762.13" y2="3680.51" gradientTransform="matrix(1 0 0 -1 -806.43 3745.52)" gradientUnits="userSpaceOnUse"><stop offset=".01" stop-color="#001815"/><stop offset=".2" stop-color="#002623"/><stop offset=".36" stop-color="#003834"/><stop offset="1" stop-color="#00544f"/></linearGradient><linearGradient id="linear-gradient4" x1="-12.6" x2="-12.6" y1="3952.18" y2="3778.77" gradientTransform="matrix(1 0 0 -1 127.57 4057.53)" gradientUnits="userSpaceOnUse"><stop offset=".01" stop-color="#001815"/><stop offset=".19" stop-color="#002623"/><stop offset=".35" stop-color="#003834"/><stop offset=".5" stop-color="#00544f"/><stop offset=".53" stop-color="#065851"/><stop offset=".58" stop-color="#196457"/><stop offset=".63" stop-color="#377962"/><stop offset=".69" stop-color="#619671"/><stop offset=".75" stop-color="#96ba84"/><stop offset=".81" stop-color="#cee098"/></linearGradient><linearGradient xlink:href="#linear-gradient3" id="linear-gradient5" x1="14039.03" x2="14039.03" y1="201.03" y2="103.1" gradientTransform="matrix(-1 0 0 1 14154 0)"/><linearGradient id="linear-gradient6" x1="-39.96" x2="-39.96" y1="3559.17" y2="3705.96" gradientTransform="matrix(1 0 0 -1 127.57 4057.53)" gradientUnits="userSpaceOnUse"><stop offset=".05" stop-color="#cee098"/><stop offset=".13" stop-color="#96ba84"/><stop offset=".21" stop-color="#619671"/><stop offset=".29" stop-color="#377962"/><stop offset=".36" stop-color="#196457"/><stop offset=".43" stop-color="#065851"/><stop offset=".47" stop-color="#00544f"/><stop offset=".64" stop-color="#003834"/><stop offset=".8" stop-color="#002623"/><stop offset=".99" stop-color="#001815"/></linearGradient><linearGradient id="linear-gradient7" x1="13994.35" x2="14138.44" y1="421.32" y2="421.32" gradientTransform="matrix(-1 0 0 1 14154 0)" gradientUnits="userSpaceOnUse"><stop offset=".01" stop-color="#001815"/><stop offset=".32" stop-color="#002623"/><stop offset=".91" stop-color="#004d48"/><stop offset="1" stop-color="#00544f"/></linearGradient><linearGradient xlink:href="#linear-gradient4" id="linear-gradient8" x1="294.93" x2="294.93" y1="3731.71" y2="3613.12"/><linearGradient xlink:href="#linear-gradient3" id="linear-gradient9" x1="13731.5" x2="13731.5" y1="391.25" y2="324.28" gradientTransform="matrix(-1 0 0 1 14154 0)"/><radialGradient id="radial-gradient" cx="13743.62" cy="74.23" r="82.59" fx="13743.62" fy="74.23" gradientTransform="matrix(-1.01 0 0 .99 14257.26 11.2)" gradientUnits="userSpaceOnUse"><stop offset=".16" stop-color="#006d68"/><stop offset=".17" stop-color="#0b736e" stop-opacity=".96"/><stop offset=".26" stop-color="#569e9a" stop-opacity=".66"/><stop offset=".36" stop-color="#93c1bf" stop-opacity=".42"/><stop offset=".48" stop-color="#c3dcdb" stop-opacity=".23"/><stop offset=".6" stop-color="#e5f0ef" stop-opacity=".1"/><stop offset=".75" stop-color="#f9fbfb" stop-opacity=".02"/><stop offset="1" stop-color="#fff" stop-opacity="0"/></radialGradient><radialGradient xlink:href="#radial-gradient" id="radial-gradient1" cx="14012.89" cy="308.38" r="43.99" fx="14012.89" fy="308.38"/><radialGradient xlink:href="#radial-gradient" id="radial-gradient2" cx="13699.12" cy="220.01" r="43.99" fx="13699.12" fy="220.01"/><radialGradient xlink:href="#radial-gradient" id="radial-gradient3" cx="13990.99" cy="157.76" r="89.48" fx="13990.99" fy="157.76"/><radialGradient id="radial-gradient4" cx="293.93" cy="264.4" r="106.27" fx="293.93" fy="264.4" gradientTransform="matrix(1.01 0 0 .99 -49.8 11.2)" gradientUnits="userSpaceOnUse"><stop offset="0" stop-color="#fff" stop-opacity="0"/><stop offset=".32" stop-color="#fff" stop-opacity="0"/><stop offset=".45" stop-color="#fff" stop-opacity=".04"/><stop offset=".56" stop-color="#fff" stop-opacity=".09"/><stop offset=".64" stop-color="#fff" stop-opacity=".16"/><stop offset=".72" stop-color="#fff" stop-opacity=".25"/><stop offset=".78" stop-color="#fff" stop-opacity=".36"/><stop offset=".84" stop-color="#fff" stop-opacity=".49"/><stop offset=".9" stop-color="#fff" stop-opacity=".65"/><stop offset=".95" stop-color="#fff" stop-opacity=".82"/><stop offset="1" stop-color="#fff"/></radialGradient><radialGradient xlink:href="#radial-gradient" id="radial-gradient5" cx="13686.75" cy="359.49" r="61.19" fx="13686.75" fy="359.49"/><style>.st11{stroke-width:1.28px;fill:none;stroke:#fff;stroke-miterlimit:10}.st14{fill:#fff}</style></defs><circle cx="248.58" cy="274.21" r="222.85" style="fill:url(#linear-gradient)"/><path d="M289.52 60.35h150.99v96.95H289.52z" style="fill:url(#linear-gradient1)"/><path d="m365.02 115.1 75.49-54.75H289.52z" style="fill:url(#linear-gradient2)"/><path d="m365.02 6.47-75.5 54.75h150.99z" style="fill:url(#linear-gradient3)"/><ellipse cx="365.02" cy="85.03" rx="83.49" ry="82.14" style="fill:url(#radial-gradient)"/><path d="m365.02 101.62 6.14-16.34 16.61-6.05-16.61-6.05-6.14-16.34-6.15 16.34-16.61 6.05 16.61 6.05z" class="st14"/><path d="m381.11 95.06-7.4-15.83 7.4-15.83-16.09 7.28-16.09-7.28 7.4 15.83-7.4 15.83 16.09-7.28z" class="st14"/><ellipse cx="92.83" cy="317.9" rx="44.47" ry="43.75" style="fill:url(#radial-gradient1)"/><path d="m92.83 326.74 3.27-8.7 8.85-3.22-8.85-3.23-3.27-8.7-3.28 8.7-8.84 3.23 8.84 3.22z" class="st14"/><path d="m101.4 323.25-3.94-8.43 3.94-8.44-8.57 3.88-8.57-3.88 3.94 8.44-3.94 8.43 8.57-3.88z" class="st14"/><ellipse cx="409.99" cy="230.01" rx="44.47" ry="43.75" style="fill:url(#radial-gradient2)"/><path d="m409.99 238.85 3.28-8.7 8.84-3.22-8.84-3.22-3.28-8.71-3.27 8.71-8.85 3.22 8.85 3.22z" class="st14"/><path d="m418.56 235.36-3.94-8.43 3.94-8.44-8.57 3.88-8.57-3.88 3.94 8.44-3.94 8.43 8.57-3.88z" class="st14"/><path d="M244.4 273.56C92.82 119.43 225.29-21.95 364.13 73.58" class="st11"/><path d="M24.38 107.64h181.17v116.32H24.38z" style="fill:url(#linear-gradient4)"/><path d="m114.96 173.33 90.59-65.69H24.38z" style="fill:url(#linear-gradient5)"/><ellipse cx="114.96" cy="168.1" rx="90.45" ry="89" style="fill:url(#radial-gradient3)"/><path d="m114.96 186.08 6.66-17.71 18-6.55-18-6.55-6.66-17.71-6.65 17.71-18 6.55 18 6.55z" class="st14"/><path d="m132.4 178.97-8.02-17.15 8.02-17.15-17.44 7.89-17.43-7.89 8.02 17.15-8.02 17.15 17.43-7.88z" class="st14"/><path d="M246.95 273.56c-16.56 0-122.28-16.56-154.12 40.76m165.58-36.94c119.73-16.56 229.28 28.02 164.31 75.15" style="fill:none;stroke:#fff;stroke-miterlimit:10;stroke-width:1.27px"/><path d="M15.56 395.19h144.09v92.52H15.56z" style="fill:url(#linear-gradient6)"/><path d="m87.61 447.44 72.04-52.25H15.56z" style="fill:url(#linear-gradient7)"/><path d="m87.61 457.58 5.29-14.08 14.31-5.21-14.31-5.22-5.29-14.08-5.3 14.08L68 438.29l14.31 5.21z" class="st14"/><path d="m101.47 451.93-6.37-13.64 6.37-13.65-13.86 6.28-13.87-6.28 6.38 13.65-6.38 13.64 13.87-6.28z" class="st14"/><path d="M272.42 299.03c103.17 164.31-100.63 230.55-173.23 150.3" class="st11"/><ellipse cx="247.31" cy="274.17" rx="107.42" ry="105.7" style="stroke:#fff;stroke-miterlimit:10;fill:url(#radial-gradient4);stroke-width:.66px"/><path d="m247.31 309.59-9.72-25.86-26.28-9.56 26.28-9.57 9.72-25.85 9.72 25.85 26.28 9.57-26.28 9.56z" class="st14"/><path d="m221.86 299.21 11.7-25.04-11.7-25.05 25.45 11.52 25.45-11.52-11.7 25.05 11.7 25.04-25.45-11.51z" class="st14"/><path d="M360.55 327.38h123.89v79.55H360.55z" style="fill:url(#linear-gradient8)"/><path d="m422.49 372.31 61.95-44.93H360.55z" style="fill:url(#linear-gradient9)"/><ellipse cx="422.49" cy="368.73" rx="61.86" ry="60.86" style="fill:url(#radial-gradient5)"/><path d="m422.49 381.02 4.56-12.1 12.3-4.48-12.3-4.48-4.56-12.11-4.55 12.11-12.31 4.48 12.31 4.48z" class="st14"/><path d="m434.42 376.17-5.49-11.73 5.49-11.73-11.93 5.39-11.92-5.39 5.48 11.73-5.48 11.73 11.92-5.4z" class="st14"/></svg>