<svg width="400" height="277" viewBox="0 0 400 277" fill="none" xmlns="http://www.w3.org/2000/svg">
<g clip-path="url(#clip0_8046_7067)">
<path d="M400 0.62793H0V276.628H400V0.62793Z" fill="#003834"/>
<path d="M380.067 257.701C380.045 229.383 378.225 183.91 374.989 172.365C371.843 161.168 366.978 150.094 358.573 142.027C348.73 132.569 334.708 126.129 321.888 133.871C313.517 138.931 308.551 149.118 305.371 157.858C302.427 165.959 299.36 174.171 298.191 182.754C297.079 190.956 301.697 196.779 304.506 204.127C307.427 211.779 305.494 218.814 303.348 226.466C302.18 230.65 299.618 252.36 298.461 256.579" stroke="#ADCB53" stroke-width="2.25203" stroke-miterlimit="10"/>
<path d="M315.552 123.066H334.653V132.603C334.653 137.865 330.372 142.14 325.102 142.14C319.833 142.14 315.552 137.865 315.552 132.603V123.066Z" fill="#808080"/>
<path d="M311.91 136.586C328.74 136.586 342.382 122.963 342.382 106.159C342.382 89.3542 328.74 75.7314 311.91 75.7314C295.081 75.7314 281.438 89.3542 281.438 106.159C281.438 122.963 295.081 136.586 311.91 136.586Z" fill="#808080"/>
<path d="M361.181 90.8106C357.833 77.2237 347.417 66.4979 333.934 62.7169C323.507 59.7886 311.226 59.9457 300.968 63.2555C298.99 63.895 297.091 64.6691 295.271 65.5555C284.147 69.8189 276.237 80.5784 276.237 93.1891V96.1286H329.327C330.237 97.5311 330.867 99.0345 331.293 100.605V139.885H334.395C350.058 139.885 362.754 127.207 362.754 111.567C362.754 111.567 361.81 93.3125 361.192 90.7994L361.181 90.8106Z" fill="white"/>
<path d="M270.551 216.727C268.034 214.708 265.562 212.688 263.034 210.691C260.483 208.683 257.888 206.394 256.337 203.488C255.944 202.737 255.09 202.131 254.27 202.333C253.607 202.49 253.146 203.118 252.888 203.746C252.393 204.958 252.461 206.293 252.685 207.561C252.787 208.122 254.697 212.812 255.921 214.124C256.135 214.349 256.045 214.73 255.753 214.843C254.64 215.269 253.36 215.246 252.191 214.955C249.663 214.315 247.146 212.677 245.427 210.747C243.393 208.459 241.449 206.114 239.303 203.926C237.135 201.727 233.528 200.986 230.551 201.222C229.652 201.289 228.562 201.637 228.405 202.523C228.303 203.084 228.629 203.612 228.933 204.083C231.146 207.46 233.764 210.456 236.034 213.788C237.674 216.2 238.82 219.196 240.09 221.821C240.82 223.336 241.596 224.895 242.921 225.939C244.135 226.892 245.685 227.307 247.18 227.689C250.079 228.441 253.124 228.452 256.034 229.192C258.843 229.91 261.326 229.955 263.843 231.627" fill="#808080"/>
<path d="M337.077 106.208C340.686 101.538 341.066 95.7911 337.926 93.3725C334.787 90.9539 329.316 92.7795 325.708 97.45C322.099 102.121 321.719 107.867 324.858 110.286C327.998 112.705 333.468 110.879 337.077 106.208Z" fill="#808080"/>
<path d="M347.955 227.891C356.124 217.984 360.315 182.844 360.472 177.302C360.697 169.628 359.652 155.906 352.483 151.183C345.865 146.807 336.719 148.311 331.832 154.313C328.202 158.767 325.349 165.073 324.023 170.66C322.528 176.887 322.495 183.327 322.888 189.677C323.236 195.433 324.461 200.302 320.393 205.238C317.528 208.716 313.292 210.601 308.775 210.411L280.854 209.21C271.011 208.784 262.686 216.413 262.259 226.253C261.843 236.014 269.36 244.271 279.101 244.81C279.169 244.81 279.247 244.81 279.326 244.81L307.247 246.01C323.056 246.683 337.899 240.075 347.955 227.879V227.891Z" fill="#013834" stroke="white" stroke-width="1.68902" stroke-linecap="round" stroke-linejoin="round"/>
<path d="M332.877 209.816C330.787 206.237 325.619 203.107 321.383 203.398C321.461 203.398 325.079 206.977 325.45 207.437C326.686 208.941 327.349 210.96 327.304 212.89" stroke="white" stroke-width="1.68902" stroke-linecap="round" stroke-linejoin="round"/>
<path d="M330.449 103.511C331.168 103.253 331.932 102.76 332.022 101.997C332.078 101.458 331.764 100.92 331.314 100.617C330.865 100.314 330.303 100.202 329.764 100.168C330.067 98.6083 331.64 97.3069 333.123 96.7235C334.618 96.1401 336.55 96.2298 337.561 97.4752" stroke="#C3C3C3" stroke-width="0.889553" stroke-linecap="round" stroke-linejoin="round"/>
<path d="M101.989 258.228C100.832 254.009 97.5848 163.849 94.641 155.76C91.4612 147.02 86.4949 136.833 78.1241 131.773C65.3039 124.02 51.2814 130.471 41.4387 139.929C33.0455 147.996 28.1691 159.07 25.023 170.267C21.787 181.812 19.9668 229.865 19.9443 258.183" fill="#003834"/>
<path d="M101.989 258.228C100.832 254.009 97.5848 163.849 94.641 155.76C91.4612 147.02 86.4949 136.833 78.1241 131.773C65.3039 124.02 51.2814 130.471 41.4387 139.929C33.0455 147.996 28.1691 159.07 25.023 170.267C21.787 181.812 19.9668 229.865 19.9443 258.183" stroke="white" stroke-width="1.40752" stroke-miterlimit="10"/>
<path d="M66.1123 123.067H85.2134V132.603C85.2134 137.865 80.9325 142.14 75.6629 142.14C70.3932 142.14 66.1123 137.865 66.1123 132.603V123.067Z" fill="white"/>
<path d="M88.0901 134.488C104.919 134.488 118.562 120.865 118.562 104.061C118.562 87.2561 104.919 73.6333 88.0901 73.6333C71.2609 73.6333 57.6182 87.2561 57.6182 104.061C57.6182 120.865 71.2609 134.488 88.0901 134.488Z" fill="white"/>
<path d="M66.7525 125.03C57.7412 123.269 51.2805 115.449 48.8873 106.877C46.4828 98.2603 47.5053 88.5442 51.4154 80.5111C52.6513 77.9754 54.2019 75.5745 56.1569 73.5213C70.4378 58.5433 88.2468 59.912 99.0334 63.4013C104.64 65.2076 109.09 68.8428 113.202 72.9379C115.168 74.8901 116.55 76.7189 117.977 79.0413C119.404 81.3637 121.955 84.034 124.865 82.2501C124.595 85.0662 122.64 87.6579 120 88.7013C116.887 89.9354 113.168 89.5203 109.977 88.8472C106.865 88.1964 104.921 86.2554 102.292 84.7745C97.7075 82.1828 91.8423 82.1603 86.7974 83.0803C81.5727 84.0228 72.9772 87.6579 69.0671 95.5789C63.7187 106.417 66.2918 124.94 66.7412 125.03H66.7525Z" fill="#181818"/>
<path d="M48.8873 106.877C46.4828 98.2603 47.5053 88.5442 51.4154 80.5111C52.6513 77.9754 54.2019 75.5745 56.1569 73.5213C70.4378 58.5433 88.2468 59.912 99.0334 63.4013C104.64 65.2076 109.09 68.8428 113.202 72.9379C115.168 74.8901 116.55 76.7189 117.977 79.0413C119.404 81.3637 121.955 84.034 124.865 82.2501C124.595 85.0662 122.64 87.6579 120 88.7013" stroke="#757575" stroke-width="0.867033" stroke-miterlimit="10"/>
<path d="M75.1225 108.221C78.2621 105.802 77.8818 100.055 74.2733 95.3848C70.6647 90.7142 65.1943 88.8887 62.0548 91.3073C58.9152 93.7259 59.2954 99.4727 62.904 104.143C66.5126 108.814 71.983 110.639 75.1225 108.221Z" fill="white"/>
<path d="M131.304 235.498C132.888 236.305 134.27 237.214 136.068 237.54C140.27 238.302 144.326 237.394 148.54 237.697C149.27 237.753 150.394 237.742 151.023 238.157C151.551 238.493 151.922 239.256 152.337 239.727C153.506 241.085 154.764 242.386 156.236 243.43C158.146 244.799 160.45 245.719 162.798 245.606C163.191 245.584 163.697 245.393 163.63 245.012C163.607 244.877 163.506 244.765 163.416 244.664C161.742 242.757 160.596 240.401 160.113 237.91C161.225 239.503 162.877 240.614 164.495 241.691C167.068 243.407 170.742 243.396 173.618 242.566C174.483 242.308 175.483 241.758 175.461 240.849C175.45 240.288 175.023 239.828 174.618 239.424C171.764 236.563 168.585 234.162 165.686 231.369C163.585 229.338 161.854 226.645 160.079 224.323C159.057 222.988 157.978 221.619 156.472 220.867C155.09 220.172 153.495 220.093 151.944 220.015C148.944 219.869 145.967 220.475 142.967 220.34C140.068 220.205 137.63 220.665 134.832 219.543" fill="white"/>
<path d="M150.405 231.526C151.192 231.705 152.012 231.526 152.81 231.616C156.776 232.098 160.237 238.504 162.181 241.433" stroke="#003834" stroke-width="1.12602" stroke-miterlimit="10"/>
<path d="M52.0459 225.781C43.8774 215.874 39.6864 180.735 39.5291 175.192C39.3043 167.518 40.3493 153.797 47.5178 149.073C54.1358 144.698 63.2819 146.201 68.1695 152.204C71.7987 156.658 74.6527 162.963 75.9785 168.55C77.4729 174.777 77.5066 181.217 77.1133 187.568C76.765 193.323 75.5403 198.192 79.6077 203.129C82.4729 206.607 86.7088 208.492 91.2257 208.301L119.147 207.101C128.99 206.674 137.316 214.304 137.743 224.143C138.158 233.904 130.641 242.162 120.9 242.7C120.832 242.7 120.754 242.7 120.675 242.7L92.7538 243.901C76.9448 244.574 62.1021 237.966 52.0459 225.77V225.781Z" fill="#003834" stroke="#ADCB53" stroke-width="1.68902" stroke-linecap="round" stroke-linejoin="round"/>
<path d="M67.124 207.707C69.2139 204.128 74.3825 200.998 78.6184 201.289C78.5398 201.289 74.9218 204.868 74.551 205.328C73.315 206.832 72.6521 208.851 72.6971 210.781" stroke="#ADCB53" stroke-width="1.68902" stroke-linecap="round" stroke-linejoin="round"/>
<path d="M69.5508 101.413C68.8317 101.155 68.0677 100.661 67.9778 99.8985C67.9216 99.36 68.2362 98.8214 68.6857 98.5185C69.1351 98.2156 69.6969 98.1034 70.2362 98.0697C69.9329 96.5102 68.3598 95.2087 66.8767 94.6253C65.3823 94.0419 63.4497 94.1317 62.4385 95.377" stroke="#3D3D3D" stroke-width="1.3287" stroke-linecap="round" stroke-linejoin="round"/>
<path d="M101.944 104.902C101.292 106.315 101.922 107.987 103.337 108.626C104.753 109.277 106.427 108.649 107.068 107.235C107.719 105.822 102.596 103.477 101.944 104.89V104.902Z" fill="#3C3C3C"/>
<path d="M113.393 104.812C109.865 98.3721 101.562 96.6779 96.4717 98.9106" stroke="#3C3C3C" stroke-width="4.50407" stroke-linejoin="round"/>
<path d="M104.202 127.453C101.314 126.252 100.033 125.187 98.8311 122.247" stroke="#606060" stroke-width="0.788211" stroke-linecap="round" stroke-linejoin="round"/>
<path d="M294.449 109.389C295.101 110.803 294.472 112.475 293.056 113.114C291.64 113.765 289.966 113.137 289.326 111.723C288.674 110.309 293.798 107.965 294.449 109.378V109.389Z" fill="#181818"/>
<path d="M283 109.3C286.528 102.86 294.831 101.166 299.921 103.398" stroke="white" stroke-width="1.12602" stroke-miterlimit="10"/>
<path d="M293.314 129.697C296.202 128.497 297.483 127.431 298.685 124.491" stroke="#C3C3C3" stroke-width="0.889553" stroke-linecap="round" stroke-linejoin="round"/>
<path d="M206.528 81.7562C222.36 92.2802 230.135 112.386 224.012 131.593C217 153.595 193.686 166.475 171.281 160.742C162.596 158.52 155.214 153.864 149.641 147.716C144 151.183 136.585 150.891 131.191 146.549C133.18 145.618 134.967 144.238 136.517 142.499C137.102 141.848 137.596 141.208 138.023 140.591C140.203 137.427 140.798 133.456 139.787 129.765C137.618 121.81 137.663 113.126 140.439 104.633C147.54 82.9006 170.585 70.1777 192.798 75.7314" stroke="white" stroke-width="1.68902" stroke-linecap="round" stroke-linejoin="round"/>
<path d="M192.956 82.1041C177.473 92.7177 169.934 112.599 175.99 131.593C183.001 153.595 206.316 166.475 228.72 160.742C237.406 158.52 244.788 153.864 250.361 147.716C256.001 151.183 263.417 150.891 268.81 146.549C266.821 145.618 265.035 144.238 263.484 142.499C262.9 141.848 262.406 141.208 261.979 140.591C259.799 137.427 259.203 133.456 260.215 129.765C262.383 121.81 262.338 113.126 259.563 104.633C252.462 82.9006 229.417 70.1777 207.203 75.7314" stroke="#ADCB53" stroke-width="1.68902" stroke-linecap="round" stroke-linejoin="round"/>
<path d="M208.753 33.8262C207.54 37.4837 204.068 40.154 200.012 40.154C195.955 40.154 192.484 37.495 191.259 33.8262" stroke="#A9C753" stroke-width="1.63272" stroke-linecap="round" stroke-linejoin="round"/>
<path d="M205.674 33.4446C205.966 31.7841 207.551 30.6622 209.213 30.9539C210.876 31.2456 212 32.8275 211.708 34.488C211.416 36.1485 209.831 37.2705 208.169 36.9787C206.506 36.687 205.382 35.1051 205.674 33.4446Z" fill="#A9C753"/>
<path d="M194.337 33.4446C194.045 31.7841 192.46 30.6622 190.797 30.9539C189.135 31.2456 188.011 32.8275 188.303 34.488C188.595 36.1485 190.179 37.2705 191.842 36.9787C193.505 36.687 194.629 35.1051 194.337 33.4446Z" fill="#A9C753"/>
<path d="M213.381 47.2563C212.044 53.3934 206.539 58.0383 199.999 58.0383C193.46 58.0383 187.954 53.3934 186.617 47.2451" stroke="#A9C753" stroke-width="1.63272" stroke-linecap="round" stroke-linejoin="round"/>
<path d="M210.293 47.043C210.484 45.3601 212.012 44.1596 213.686 44.3615C215.371 44.5523 216.574 46.0781 216.371 47.7498C216.18 49.4327 214.652 50.6332 212.978 50.4313C211.293 50.2405 210.09 48.7147 210.293 47.043Z" fill="#A9C753"/>
<path d="M189.708 47.043C189.517 45.3601 187.989 44.1596 186.315 44.3615C184.63 44.5523 183.427 46.0781 183.63 47.7498C183.821 49.4327 185.349 50.6332 187.023 50.4313C188.708 50.2405 189.911 48.7147 189.708 47.043Z" fill="#A9C753"/>
<path d="M200.012 21.9336V129.338" stroke="#A9C753" stroke-width="1.63272" stroke-linecap="round" stroke-linejoin="round"/>
<path d="M196.943 22.0908C196.943 20.3966 198.314 19.0278 200.011 19.0278C201.707 19.0278 203.078 20.3966 203.078 22.0908C203.078 23.7849 201.707 25.1537 200.011 25.1537C198.314 25.1537 196.943 23.7849 196.943 22.0908Z" fill="#A9C753"/>
<path d="M215.045 129.338V116.57" stroke="#A8C653" stroke-width="1.30618" stroke-linecap="round" stroke-linejoin="round"/>
<path d="M215.045 119.139C216.398 119.139 217.495 118.044 217.495 116.693C217.495 115.343 216.398 114.248 215.045 114.248C213.692 114.248 212.596 115.343 212.596 116.693C212.596 118.044 213.692 119.139 215.045 119.139Z" fill="#A8C653"/>
<path d="M208.045 129.338V108.425" stroke="#A8C653" stroke-width="1.30618" stroke-linecap="round" stroke-linejoin="round"/>
<path d="M210.495 108.548C210.495 107.191 209.393 106.103 208.045 106.103C206.697 106.103 205.596 107.202 205.596 108.548C205.596 109.895 206.697 110.994 208.045 110.994C209.393 110.994 210.495 109.895 210.495 108.548Z" fill="#A8C653"/>
<path d="M184.955 129.338V116.57" stroke="#A8C653" stroke-width="1.30618" stroke-linecap="round" stroke-linejoin="round"/>
<path d="M184.955 119.139C186.308 119.139 187.405 118.044 187.405 116.693C187.405 115.343 186.308 114.248 184.955 114.248C183.603 114.248 182.506 115.343 182.506 116.693C182.506 118.044 183.603 119.139 184.955 119.139Z" fill="#A8C653"/>
<path d="M191.956 129.338V108.425" stroke="#A8C653" stroke-width="1.30618" stroke-linecap="round" stroke-linejoin="round"/>
<path d="M194.416 108.548C194.416 107.191 193.315 106.103 191.967 106.103C190.619 106.103 189.518 107.202 189.518 108.548C189.518 109.895 190.619 110.994 191.967 110.994C193.315 110.994 194.416 109.895 194.416 108.548Z" fill="#A8C653"/>
<path d="M176.866 129.798H223.136" stroke="#A9C753" stroke-width="0.821992" stroke-linecap="round" stroke-linejoin="round"/>
<path d="M146.955 245.359H205.697L221.112 189.261" stroke="#ADCB53" stroke-width="2.25203" stroke-linecap="round" stroke-linejoin="round"/>
</g>
<defs>
<clipPath id="clip0_8046_7067">
<rect y="0.62793" width="400" height="276" rx="6" fill="white"/>
</clipPath>
</defs>
</svg>
