<svg width="400" height="280" viewBox="0 0 400 280" fill="none" xmlns="http://www.w3.org/2000/svg">
<g clip-path="url(#clip0_8046_6900)">
<path d="M400 0.62793H0V279.372H400V0.62793Z" fill="#003834"/>
<path d="M129.787 137.246H62.3604V84.432L129.787 84.2847V137.246Z" stroke="#C3C3C3" stroke-width="0.846256" stroke-miterlimit="10"/>
<path d="M129.776 76.3418H62.3604V84.2282H129.776V76.3418Z" stroke="#ADCB53" stroke-width="0.846256" stroke-miterlimit="10"/>
<path d="M126.335 78.1379L122.847 81.6553L123.665 82.4805L127.153 78.9632L126.335 78.1379Z" fill="#A8C653"/>
<path d="M123.665 78.1381L122.847 78.9634L126.335 82.4808L127.153 81.6555L123.665 78.1381Z" fill="#A8C653"/>
<path d="M117.889 78.7895V81.9395H114.383V78.7895H117.889ZM118.428 78.2456H113.844V82.4721H118.428V78.2456Z" fill="#A8C653"/>
<path d="M109.405 81.5435H104.82V82.4726H109.405V81.5435Z" fill="#181818"/>
<path d="M75.3047 104.171H89.7429" stroke="#C3C3C3" stroke-width="0.846256" stroke-miterlimit="10"/>
<path d="M68.0234 104.171H73.9673" stroke="#C3C3C3" stroke-width="0.846256" stroke-miterlimit="10"/>
<path d="M68.0234 115.842H81.2819" stroke="#C3C3C3" stroke-width="0.846256" stroke-miterlimit="10"/>
<path d="M43.6963 119.514V67.5493L110.269 67.3906V119.514H43.6963Z" fill="#003834"/>
<path d="M109.854 67.821V119.094H44.1127V67.9797L109.854 67.8324M110.697 66.9712L43.2812 67.1298V119.944H110.697V66.9712Z" fill="white"/>
<path d="M110.697 60.1724H43.2812V68.0588H110.697V60.1724Z" fill="#A8C653"/>
<path d="M108.077 62.7789L107.259 61.9536L103.771 65.471L104.589 66.2963L108.077 62.7789Z" fill="#003834"/>
<path d="M107.258 66.3013L108.076 65.4761L104.588 61.9587L103.77 62.784L107.258 66.3013Z" fill="#003834"/>
<path d="M98.7979 62.6083V65.7584H95.2923V62.6083H98.7979ZM99.3372 62.0645H94.7529V66.2909H99.3372V62.0645Z" fill="#003834"/>
<path d="M90.3147 65.3623H85.7305V66.2915H90.3147V65.3623Z" fill="#003834"/>
<path d="M48.9326 75.186H105.034" stroke="#ADCB53" stroke-width="1.26374" stroke-miterlimit="10"/>
<path d="M48.9326 81.0215H105.034" stroke="#ADCB53" stroke-width="1.26374" stroke-miterlimit="10"/>
<path d="M72.6738 86.8569H105.033" stroke="white" stroke-width="0.846256" stroke-miterlimit="10"/>
<path d="M56.2139 86.8569H70.6521" stroke="white" stroke-width="0.846256" stroke-miterlimit="10"/>
<path d="M48.9326 86.8569H54.8764" stroke="white" stroke-width="0.846256" stroke-miterlimit="10"/>
<path d="M48.9326 92.6929H105.034" stroke="white" stroke-width="0.846256" stroke-miterlimit="10"/>
<path d="M63.7539 98.5283H105.035" stroke="#ADCB53" stroke-width="1.26374" stroke-miterlimit="10"/>
<path d="M48.9326 98.5283H62.191" stroke="white" stroke-width="0.846256" stroke-miterlimit="10"/>
<path d="M75.5283 104.364H105.034" stroke="white" stroke-width="0.846256" stroke-miterlimit="10"/>
<path d="M48.9326 104.364H72.6742" stroke="#ADCB53" stroke-width="1.26374" stroke-miterlimit="10"/>
<path d="M60.8096 110.21H105.034" stroke="#ADCB53" stroke-width="1.26374" stroke-miterlimit="10"/>
<path d="M48.9326 110.21H58.0674" stroke="white" stroke-width="0.846256" stroke-miterlimit="10"/>
<path d="M112.909 40.3549C112.932 43.5615 110.381 46.179 107.202 46.213C104.022 46.247 101.426 43.6635 101.393 40.4568C101.37 37.2501 107.078 31.7886 107.078 31.7886C107.078 31.7886 112.876 37.1482 112.909 40.3549Z" stroke="#ADCB53" stroke-width="0.710855" stroke-linecap="round" stroke-linejoin="round"/>
<path d="M107.146 38.9038L107.224 51.4473" stroke="#ADCB53" stroke-width="0.710855" stroke-linecap="round" stroke-linejoin="round"/>
<path d="M96.8206 40.3549C96.8431 43.5615 94.2925 46.179 91.1128 46.213C87.933 46.247 85.3375 43.6635 85.3038 40.4568C85.2813 37.2501 90.9892 31.7886 90.9892 31.7886C90.9892 31.7886 96.7869 37.1482 96.8206 40.3549Z" stroke="#ADCB53" stroke-width="0.710855" stroke-linecap="round" stroke-linejoin="round"/>
<path d="M91.0566 38.9038L91.1353 51.4473" stroke="#ADCB53" stroke-width="0.710855" stroke-linecap="round" stroke-linejoin="round"/>
<path d="M252.697 207.919C251.888 198.004 250.742 188.112 250.742 178.163C250.742 169.892 250.956 159.932 259.304 156.453C268.855 152.476 279.967 158.345 281.473 159.932C288.293 167.15 291.046 176.883 293.18 186.322C294.787 193.438 295.708 200.667 296.338 207.93H252.697V207.919Z" fill="#013834" stroke="white" stroke-width="1.12834" stroke-linecap="round" stroke-linejoin="round"/>
<path d="M151.854 65.4754V117.825H258.067V65.4754C258.067 63.4812 256.461 61.8608 254.483 61.8608H155.427C153.45 61.8608 151.843 63.4812 151.843 65.4754H151.854Z" fill="black"/>
<path d="M258.067 117.814V65.4647C258.067 63.4704 256.461 61.8501 254.483 61.8501H155.427C153.45 61.8501 151.843 63.4704 151.843 65.4647V117.814" stroke="white" stroke-width="0.710855" stroke-miterlimit="10"/>
<path d="M116.775 210.184C126.405 169.846 162.584 139.648 205.416 139.648C248.259 139.648 284.438 169.857 294.056 210.184H116.775Z" fill="#013834" stroke="white" stroke-width="1.12834" stroke-linecap="round" stroke-linejoin="round"/>
<path d="M108.292 210.185C108.921 202.922 109.843 195.693 111.449 188.577C113.584 179.138 116.337 169.405 123.157 162.187C128.236 156.816 138.955 154.697 145.326 158.708C152.977 163.535 153.888 172.147 153.888 180.418C153.888 190.367 152.741 200.27 151.932 210.174H108.292V210.185Z" fill="#013834" stroke="white" stroke-width="1.12834" stroke-linecap="round" stroke-linejoin="round"/>
<path d="M56.7422 210.252H345.506" stroke="#AECC53" stroke-width="1.34273" stroke-linecap="round" stroke-linejoin="round"/>
<path d="M205.415 155.773C195.944 155.773 188.247 148.011 188.247 138.459V127.332C188.247 121.089 193.281 116.012 199.472 116.012H211.359C217.55 116.012 222.584 121.089 222.584 127.332V138.459C222.584 148.011 214.887 155.773 205.415 155.773Z" fill="#CCCBCB"/>
<path d="M186.731 138.459C186.731 146.685 195.136 153.416 205.417 153.416C215.698 153.416 224.102 146.685 224.102 138.459" stroke="#ADCB53" stroke-width="5.55144" stroke-linecap="round" stroke-linejoin="round"/>
<path d="M205.416 133.541C234.03 133.541 257.225 110.149 257.225 81.2939C257.225 52.4384 234.03 29.0464 205.416 29.0464C176.803 29.0464 153.607 52.4384 153.607 81.2939C153.607 110.149 176.803 133.541 205.416 133.541Z" fill="white"/>
<path d="M161.951 97.972C167.189 94.4892 167.699 85.9525 163.091 78.9047C158.483 71.8569 150.501 68.9669 145.264 72.4497C140.026 75.9325 139.516 84.4692 144.124 91.517C148.732 98.5648 156.714 101.455 161.951 97.972Z" fill="white"/>
<path d="M266.703 91.4937C271.312 84.4459 270.801 75.9092 265.564 72.4264C260.326 68.9436 252.345 71.8336 247.736 78.8814C243.128 85.9292 243.638 94.4659 248.876 97.9487C254.114 101.432 262.095 98.5415 266.703 91.4937Z" fill="white"/>
<path d="M149.945 103.219C152.638 103.219 154.821 101.017 154.821 98.3015C154.821 95.5855 152.638 93.3838 149.945 93.3838C147.252 93.3838 145.068 95.5855 145.068 98.3015C145.068 101.017 147.252 103.219 149.945 103.219Z" fill="#ADCB53"/>
<path d="M260.889 103.219C263.582 103.219 265.765 101.017 265.765 98.3015C265.765 95.5855 263.582 93.3838 260.889 93.3838C258.196 93.3838 256.013 95.5855 256.013 98.3015C256.013 101.017 258.196 103.219 260.889 103.219Z" fill="#ADCB53"/>
<path d="M195.63 109.452C197.585 111.944 201.237 113.633 205.416 113.633C209.596 113.633 213.248 111.956 215.203 109.452" stroke="#9D9D9C" stroke-width="1.63609" stroke-linecap="round" stroke-linejoin="round"/>
<path d="M154.27 89.9052C152.663 89.2706 151.337 87.9335 150.697 86.3019C150.304 85.2934 150.202 84.0583 150.843 83.1858C151.495 82.3133 153.068 82.2 153.551 83.1858C153.371 81.3389 152.584 79.3786 151.506 77.8829C150.416 76.3872 148.528 75.3561 146.73 75.7413" stroke="#9D9D9C" stroke-width="1.63609" stroke-linecap="round" stroke-linejoin="round"/>
<path d="M256.562 89.9052C258.169 89.2706 259.495 87.9335 260.136 86.3019C260.529 85.2934 260.63 84.0583 259.989 83.1858C259.349 82.3133 257.765 82.2 257.282 83.1858C257.461 81.3389 258.248 79.3786 259.327 77.8829C260.416 76.3872 262.304 75.3561 264.102 75.7413" stroke="#9D9D9C" stroke-width="1.63609" stroke-linecap="round" stroke-linejoin="round"/>
<path d="M185.203 76.6026C185.203 76.6026 185.18 77.1125 185.124 77.3618C184.776 79.1068 183.248 80.4212 181.416 80.4212C179.585 80.4212 177.967 79.0275 177.675 77.2032C177.641 77.0106 177.63 76.5913 177.63 76.5913H185.203V76.6026Z" fill="black"/>
<path d="M194.742 73.6115C185.202 63.1303 172.607 67.6514 168.09 73.6115" stroke="black" stroke-width="4.25384" stroke-linecap="round" stroke-linejoin="round"/>
<path d="M185.203 77.3169L173.45 76.603L185.203 75.8892C186.181 75.8439 186.181 77.3622 185.203 77.3169Z" fill="#ADCB53"/>
<path d="M225.629 76.6026C225.629 76.6026 225.651 77.1125 225.708 77.3618C226.056 79.1068 227.584 80.4212 229.415 80.4212C231.303 80.4212 232.865 79.0275 233.157 77.2032C233.191 77.0106 233.202 76.5913 233.202 76.5913H225.629V76.6026Z" fill="black"/>
<path d="M216.091 73.6115C225.63 63.1303 238.226 67.6514 242.742 73.6115" stroke="black" stroke-width="4.25384" stroke-linecap="round" stroke-linejoin="round"/>
<path d="M225.63 75.8892L237.382 76.603L225.63 77.3169C224.652 77.3622 224.652 75.8439 225.63 75.8892Z" fill="#ADCB53"/>
<path d="M300.844 248.223L261.63 216.156C260.226 215.012 258.473 214.377 256.664 214.377H138.72C134.507 214.377 132.698 219.771 136.046 222.355L174.788 252.337C176.203 253.764 178.664 253.764 180.08 253.764L298.866 253.878C299.799 253.878 300.687 253.481 301.282 252.756C301.305 252.733 301.316 252.71 301.338 252.688C302.428 251.351 302.181 249.311 300.844 248.223Z" fill="#006E69"/>
<path d="M303.237 245.515L261.136 211.08C260.293 210.4 259.248 210.026 258.17 210.026H139.967C135.473 210.026 133.54 215.782 137.113 218.536L176.945 249.277C177.181 249.447 177.462 249.537 177.743 249.537H300.597C301.81 248.416 302.799 247.09 303.237 245.526V245.515Z" fill="black"/>
<path d="M187.811 195.33C188.867 191.613 191.676 184.724 186.777 182.526C184.575 181.54 181.777 181.767 179.665 182.888C177.182 184.214 175.923 185.97 174.777 188.384C173.788 190.457 172.294 193.392 169.991 194.14C168.328 194.684 166.507 193.834 164.979 192.973C164.946 195.76 165.002 198.537 165.137 201.324C165.215 202.865 165.26 208.202 165.833 209.63C165.833 209.63 180.552 210.344 181.305 210.287C181.305 210.287 182.519 208.497 184.193 205.641C186.058 202.457 186.811 198.876 187.822 195.33H187.811Z" fill="white"/>
<path d="M166.495 193.562C168.113 195.251 169.293 194.809 170.742 193.8C172.192 192.792 172.843 190.99 173.619 189.381C174.405 187.749 175.405 186.231 176.585 184.86C178.585 182.548 181.72 181.438 184.765 181.869C190.563 182.684 192.057 190.695 181.237 210.774" stroke="#BCBCBC" stroke-width="1.16219" stroke-linecap="round" stroke-linejoin="round"/>
<path d="M149.259 215.635C146.664 209.788 143.338 203.862 141.349 197.777C139.754 192.882 135.237 183.852 128.653 186.356C125.237 187.659 123.304 192.169 123.664 195.647C124.439 203.341 127.383 210.57 130.81 217.414C132.001 219.805 133.585 224.847 136.091 225.493C139.214 226.298 142.417 223.363 144.99 222.037C147.653 220.666 150.9 219.284 149.271 215.635H149.259Z" fill="white"/>
<path d="M164.338 211.953C161.743 206.106 158.417 200.18 156.428 194.095C154.833 189.2 150.316 180.169 143.732 182.673C140.462 183.919 140.125 188.86 136.574 188.882C138.496 192.576 139.361 196.826 140.552 200.791C141.9 205.267 143.799 209.562 145.889 213.732C147.08 216.122 148.664 221.165 151.17 221.811C154.293 222.615 157.496 219.68 160.069 218.355C162.732 216.984 165.979 215.601 164.35 211.953H164.338Z" fill="white"/>
<path d="M180.799 210.354C178.204 204.508 174.878 198.581 172.889 192.497C171.294 187.602 166.777 178.571 160.193 181.075C156.777 182.378 154.844 186.888 155.204 190.366C155.979 198.06 158.923 205.289 162.35 212.133C163.541 214.524 165.125 219.567 167.631 220.212C170.754 221.017 173.957 218.082 176.53 216.756C179.193 215.385 182.44 214.003 180.811 210.354H180.799Z" fill="white"/>
<path d="M146.158 213.074C144.551 209.629 139.798 210.173 136.967 211.488C131.315 214.128 131.686 219.215 133.944 223.759" stroke="#BCBCBC" stroke-width="1.16219" stroke-linecap="round" stroke-linejoin="round"/>
<path d="M161.439 210.309C159.989 208.349 156.349 207.159 154.09 207.556C150.057 208.269 146.281 213.697 148 217.742" stroke="#BCBCBC" stroke-width="1.16219" stroke-linecap="round" stroke-linejoin="round"/>
<path d="M178.934 206.343C176.541 202.876 171.069 203.703 168.001 205.505C164.822 207.374 163.316 211.148 163.777 214.842" stroke="#BCBCBC" stroke-width="1.16219" stroke-linecap="round" stroke-linejoin="round"/>
<path d="M155.349 194.944C157.719 200.621 159.63 206.706 162.337 212.133C163.528 214.524 165.113 219.567 167.618 220.212C170.742 221.017 173.944 218.082 176.517 216.756C179.18 215.385 182.427 214.003 180.798 210.354C178.203 204.508 174.877 198.581 172.888 192.497C171.293 187.602 166.776 178.571 160.191 181.075C156.922 182.321 154.315 187.069 155.36 190.48C154.91 188.531 152.102 185.528 150.618 184.236C148.663 182.537 146.225 181.721 143.731 182.673C141.248 183.624 140.922 185.562 139.495 187.398C137.989 189.347 136.124 188.429 134.405 187.137C132.675 185.834 130.686 185.607 128.663 186.378C125.248 187.681 123.315 192.191 123.675 195.669C124.45 203.363 127.394 210.592 130.821 217.436C132.012 219.827 133.596 224.869 136.101 225.515C139.225 226.32 142.427 223.385 145 222.059C146.439 221.323 147.618 220.643 148.955 219.657C149.517 220.722 150.506 221.685 151.663 221.957C152.36 222.116 153.09 221.912 153.776 221.674C155.484 221.096 157.203 220.416 158.798 219.544C160.585 218.558 162.113 217.153 163.955 216.258" stroke="#BCBCBC" stroke-width="1.16219" stroke-linecap="round" stroke-linejoin="round"/>
<path d="M139.979 195.658C143.338 203.669 145.462 212.304 149.057 220.179" stroke="#BCBCBC" stroke-width="1.16219" stroke-linecap="round" stroke-linejoin="round"/>
<path d="M297.731 159.931H179.675C175.772 159.931 172.607 163.122 172.607 167.058V243.724C172.607 247.661 175.772 250.852 179.675 250.852H297.731C301.634 250.852 304.798 247.661 304.798 243.724V167.058C304.798 163.122 301.634 159.931 297.731 159.931Z" fill="#003834"/>
<path d="M297.731 159.931H179.675C175.772 159.931 172.607 163.122 172.607 167.058V243.724C172.607 247.661 175.772 250.852 179.675 250.852H297.731C301.634 250.852 304.798 247.661 304.798 243.724V167.058C304.798 163.122 301.634 159.931 297.731 159.931Z" stroke="#ADCB53" stroke-width="0.688288" stroke-linecap="round" stroke-linejoin="round"/>
<path d="M219.922 225.301L226.023 226.592L227.304 232.745L246.124 213.766L242.922 210.525L234.281 210.752L219.922 225.301Z" fill="#CEE098"/>
<path d="M265.461 205.04H254.765L238.708 221.232L222.652 205.04H211.922L238.708 232.053L265.495 205.04H265.461Z" fill="#006D68"/>
<path d="M211.922 205.041L214.63 202.344L238.731 178.027L262.832 202.344L265.484 205.041H254.787L238.731 188.849L222.675 205.041H211.922Z" fill="#AAC853"/>
<path d="M257.495 225.3L251.394 226.592L250.113 232.745L231.293 213.765L235.9 209.097H241.506L257.495 225.3Z" fill="#AAC853"/>
<path d="M248.349 206.196C248.664 206.196 248.922 205.935 248.922 205.618C248.922 205.301 248.664 205.04 248.349 205.04H245.102V202.797H248.349C248.664 202.797 248.922 202.536 248.922 202.219C248.922 201.902 248.664 201.641 248.349 201.641H245.102V201.256C245.102 200.179 244.282 199.295 243.248 199.193V195.907C243.248 195.59 242.989 195.33 242.675 195.33C242.36 195.33 242.102 195.59 242.102 195.907V199.182H239.293V195.907C239.293 195.59 239.034 195.33 238.72 195.33C238.405 195.33 238.147 195.59 238.147 195.907V199.182H235.338V195.907C235.338 195.59 235.079 195.33 234.765 195.33C234.45 195.33 234.192 195.59 234.192 195.907V199.193C233.147 199.295 232.338 200.179 232.338 201.256V201.641H229.091C228.776 201.641 228.518 201.902 228.518 202.219C228.518 202.536 228.776 202.797 229.091 202.797H232.338V205.04H229.091C228.776 205.04 228.518 205.301 228.518 205.618C228.518 205.935 228.776 206.196 229.091 206.196H232.338V208.44H229.091C228.776 208.44 228.518 208.7 228.518 209.018C228.518 209.335 228.776 209.595 229.091 209.595H232.338V209.981C232.338 211.057 233.158 211.941 234.192 212.043V215.329C234.192 215.646 234.45 215.907 234.765 215.907C235.079 215.907 235.338 215.646 235.338 215.329V212.054H238.147V215.329C238.147 215.646 238.405 215.907 238.72 215.907C239.034 215.907 239.293 215.646 239.293 215.329V212.054H242.102V215.329C242.102 215.646 242.36 215.907 242.675 215.907C242.989 215.907 243.248 215.646 243.248 215.329V212.043C244.293 211.941 245.102 211.057 245.102 209.981V209.595H248.349C248.664 209.595 248.922 209.335 248.922 209.018C248.922 208.7 248.664 208.44 248.349 208.44H245.102V206.196H248.349ZM241.506 207.533C241.506 208.032 241.102 208.44 240.607 208.44H236.798C236.304 208.44 235.9 208.032 235.9 207.533V203.692C235.9 203.193 236.304 202.785 236.798 202.785H240.607C241.102 202.785 241.506 203.193 241.506 203.692V207.533Z" fill="white"/>
<path d="M152.022 64.1954C159.629 42.0319 180.506 26.123 205.067 26.123C229.629 26.123 250.506 42.0319 258.112 64.1954H152.022Z" fill="black"/>
<path d="M152.022 64.1954C159.629 42.0319 180.506 26.123 205.067 26.123C229.629 26.123 250.506 42.0319 258.112 64.1954" stroke="white" stroke-width="0.710855" stroke-miterlimit="10"/>
<path d="M202.518 26.1792C217.697 32.7286 230.787 46.949 231.72 64.1949H228.192C228.383 47.7082 216.529 33.4991 202.518 26.1792Z" fill="white"/>
<path d="M202.518 26.1792C215.72 34.1109 225.551 48.5014 226.338 64.1949C226.36 65.1467 224.9 65.1581 224.922 64.1949C224.596 48.796 215.237 34.3489 202.518 26.1792Z" fill="#ADCB53"/>
<path d="M318.292 141.201C316.753 143.796 315.865 146.764 315.82 149.914C315.685 160.214 329.539 171.761 335.978 171.761C344.685 171.761 356.719 160.588 356.719 150.141C356.719 145.846 355.146 141.892 352.506 138.742C351.247 137.235 350.944 135.241 351.742 133.496C352.562 131.683 353.023 129.688 353.023 127.603C353.023 124.046 351.708 120.771 349.494 118.176C348.101 116.533 347.854 114.323 348.888 112.477C349.865 110.72 350.416 108.726 350.416 106.607C350.416 99.4458 341.832 85.146 336.27 85.146C331.393 85.146 322.124 99.4458 322.124 106.607C322.124 108.715 322.674 110.709 323.652 112.477C324.674 114.323 324.438 116.544 323.045 118.176C320.832 120.782 319.517 124.057 319.517 127.603C319.517 129.688 319.966 131.683 320.798 133.496C321.584 135.241 321.292 137.235 320.034 138.731C319.382 139.501 318.798 140.328 318.281 141.201" stroke="#ADCB53" stroke-width="1.69251" stroke-linecap="round" stroke-linejoin="round"/>
<path d="M336.271 105.508V196.939" stroke="#ADCB53" stroke-width="1.69251" stroke-linecap="round" stroke-linejoin="round"/>
<path d="M336.269 227.385C330.617 227.385 326.011 222.751 326.011 217.051V195.386H346.516V217.051C346.516 222.751 341.921 227.385 336.258 227.385H336.269Z" fill="#003834"/>
<path d="M346.1 195.805V217.051C346.1 222.524 341.685 226.966 336.269 226.966C330.853 226.966 326.437 222.513 326.437 217.051V195.805H346.1ZM346.943 194.956H325.595V217.051C325.595 223 330.37 227.816 336.269 227.816C342.168 227.816 346.943 223 346.943 217.051V194.956Z" fill="white"/>
</g>
<defs>
<clipPath id="clip0_8046_6900">
<rect y="0.62793" width="400" height="278.744" rx="6" fill="white"/>
</clipPath>
</defs>
</svg>
