<svg xmlns="http://www.w3.org/2000/svg" width="356" height="246" fill="none" viewBox="0 0 356 246"><g clip-path="url(#a)"><path fill="#003834" d="M356 0H0v246h356z"/><path stroke="#adcb53" stroke-linecap="round" stroke-linejoin="round" stroke-width="1.23" d="M104.54 215.7v-20"/><path fill="#adcb53" d="M108.24 195.88c0-2.04-1.66-3.7-3.7-3.7s-3.7 1.66-3.7 3.7 1.66 3.7 3.7 3.7 3.7-1.66 3.7-3.7"/><path stroke="#adcb53" stroke-linecap="round" stroke-linejoin="round" stroke-width="1.23" d="M97.21 215.64v-29.07"/><path fill="#adcb53" d="M100.91 186.76c0-2.04-1.66-3.7-3.7-3.7s-3.7 1.66-3.7 3.7 1.66 3.7 3.7 3.7 3.7-1.66 3.7-3.7"/><path stroke="#adcb53" stroke-linecap="round" stroke-linejoin="round" stroke-width="1.23" d="M79.85 216H238.5m-189.69 0H61.8m3.86-32.2v-19.52"/><path fill="#fff" d="M74.49 153.92c.15-.14.3-.29.43-.45.63-.77.59-1.92-.13-2.64l-1.47-1.47c-4.17-4.17-10.99-4.17-15.16 0l-1.47 1.47c-.72.72-.76 1.87-.13 2.64.13.16.26.33.38.51 1 1.42 2.6 2.05 3.86 3.24 1.67 1.59 2.39 4.12 4.48 5.26 2.58 1.4 4.05-.55 5.24-2.74.77-1.42 1.38-2.93 2.29-4.26.45-.66 1.1-1.04 1.67-1.56z"/><path fill="#c8d3dd" d="M66.13 165.42c-1.8-.5-3.68-.73-5.55-.69-1.75.04-3.45.53-5.18.5h-.49c-.77.04-1.48-.51-1.6-1.29l-.25-1.6c-.71-4.53 2.41-8.82 6.94-9.53l1.6-.25c.78-.12 1.52.38 1.72 1.13.04.16.09.32.14.47.62 1.8 1.32 3.57 1.84 5.4s.71 3.72.88 5.64"/><path fill="#c8d3dd" d="M66.05 165.42c.68.03 1.53-.5 2.21-.67q1.305-.315 2.64-.36c1.49-.05 2.99.16 4.4.62 1.06.35 2.65.4 2.88-1.06l.25-1.6c.71-4.53-2.41-8.82-6.94-9.53l-1.6-.25c-.78-.12-1.52.38-1.72 1.13-.04.16-.09.32-.14.47l-2.29 6.67c-.23.7-.47 1.38-.56 2.11s-.03 1.49.3 2.15c.06.13.14.25.25.34s.18.03.31-.02z"/><path fill="#adcb53" d="M67.89 165.21c0-1.23-1-1.12-2.23-1.12s-2.23-.12-2.23 1.12 1 3.35 2.23 3.35 2.23-2.12 2.23-3.35"/><path stroke="#adcb53" stroke-linecap="round" stroke-linejoin="round" stroke-width="1.23" d="M177.66 215.8v-19.52"/><path fill="#fff" d="M186.49 185.92c.15-.14.3-.29.43-.45.63-.77.59-1.92-.13-2.64l-1.47-1.47c-4.17-4.17-10.99-4.17-15.16 0l-1.47 1.47c-.72.72-.76 1.87-.13 2.64.13.16.26.33.38.51 1 1.42 2.6 2.05 3.86 3.24 1.67 1.59 2.39 4.12 4.48 5.26 2.58 1.4 4.05-.55 5.24-2.74.77-1.42 1.38-2.93 2.29-4.26.45-.66 1.1-1.04 1.67-1.56z"/><path fill="#c8d3dd" d="M178.13 197.42c-1.8-.5-3.68-.73-5.55-.69-1.75.04-3.45.53-5.18.5h-.49c-.77.04-1.48-.51-1.6-1.29l-.25-1.6c-.71-4.53 2.41-8.82 6.94-9.53l1.6-.25c.78-.12 1.52.38 1.72 1.13.04.16.09.32.14.47.62 1.8 1.32 3.57 1.84 5.4s.71 3.72.88 5.64"/><path fill="#c8d3dd" d="M178.05 197.42c.68.03 1.53-.5 2.21-.67q1.305-.315 2.64-.36c1.49-.05 2.99.16 4.4.62 1.06.35 2.65.4 2.88-1.06l.25-1.6c.71-4.53-2.41-8.82-6.94-9.53l-1.6-.25c-.78-.12-1.52.38-1.72 1.13-.04.16-.09.32-.14.47l-2.29 6.67c-.23.7-.47 1.38-.56 2.11s-.03 1.49.3 2.15c.06.13.14.25.25.34s.18.03.31-.02z"/><path fill="#adcb53" d="M179.89 197.21c0-1.23-1-1.12-2.23-1.12s-2.23-.12-2.23 1.12 1 3.35 2.23 3.35 2.23-2.12 2.23-3.35"/><path stroke="#adcb53" stroke-linecap="round" stroke-linejoin="round" stroke-width="1.23" d="M212.66 215.8v-19.52"/><path fill="#fff" d="M221.49 185.92c.15-.14.3-.29.43-.45.63-.77.59-1.92-.13-2.64l-1.47-1.47c-4.17-4.17-10.99-4.17-15.16 0l-1.47 1.47c-.72.72-.76 1.87-.13 2.64.13.16.26.33.38.51 1 1.42 2.6 2.05 3.86 3.24 1.67 1.59 2.39 4.12 4.48 5.26 2.58 1.4 4.05-.55 5.24-2.74.77-1.42 1.38-2.93 2.29-4.26.45-.66 1.1-1.04 1.67-1.56z"/><path fill="#c8d3dd" d="M213.13 197.42c-1.8-.5-3.68-.73-5.55-.69-1.75.04-3.45.53-5.18.5h-.49c-.77.04-1.48-.51-1.6-1.29l-.25-1.6c-.71-4.53 2.41-8.82 6.94-9.53l1.6-.25c.78-.12 1.52.38 1.72 1.13.04.16.09.32.14.47.62 1.8 1.32 3.57 1.84 5.4s.71 3.72.88 5.64"/><path fill="#c8d3dd" d="M213.05 197.42c.68.03 1.53-.5 2.21-.67q1.305-.315 2.64-.36c1.49-.05 2.99.16 4.4.62 1.06.35 2.65.4 2.88-1.06l.25-1.6c.71-4.53-2.41-8.82-6.94-9.53l-1.6-.25c-.78-.12-1.52.38-1.72 1.13-.04.16-.09.32-.14.47l-2.29 6.67c-.23.7-.47 1.38-.56 2.11s-.03 1.49.3 2.15c.06.13.14.25.25.34s.18.03.31-.02z"/><path fill="#adcb53" d="M214.89 197.21c0-1.23-1-1.12-2.23-1.12s-2.23-.12-2.23 1.12 1 3.35 2.23 3.35 2.23-2.12 2.23-3.35"/><path stroke="#adcb53" stroke-linecap="round" stroke-linejoin="round" stroke-width="1.23" d="M321.13 216h-60.24"/><path stroke="#adcb53" stroke-linecap="round" stroke-linejoin="round" stroke-width="1.39" d="M301.37 215.6v-14.13"/><path fill="#adcb53" d="M303.98 201.6c0-1.44-1.17-2.61-2.61-2.61s-2.61 1.17-2.61 2.61 1.17 2.61 2.61 2.61 2.61-1.17 2.61-2.61"/><path stroke="#adcb53" stroke-linecap="round" stroke-linejoin="round" stroke-width="1.51" d="M298.13 163.7a15.4 15.4 0 0 0-1.87 7.18c-.1 8.49 10.37 18.01 15.24 18.01 6.58 0 15.68-9.2 15.68-17.82 0-3.54-1.19-6.79-3.18-9.4a4.35 4.35 0 0 1-.58-4.32c.62-1.5.97-3.14.97-4.86 0-2.93-1-5.63-2.67-7.77a4.39 4.39 0 0 1-.46-4.7c.74-1.45 1.15-3.09 1.15-4.83 0-5.9-6.49-17.69-10.69-17.69-3.69 0-10.69 11.79-10.69 17.69 0 1.74.42 3.38 1.15 4.83.78 1.53.59 3.35-.46 4.7a12.6 12.6 0 0 0-2.67 7.77c0 1.72.34 3.36.97 4.86s.37 3.08-.58 4.32c-.49.64-.93 1.32-1.32 2.03m13.61-32.59v84.22"/><path stroke="#adcb53" stroke-linecap="round" stroke-linejoin="round" stroke-width="1.17" d="m93.71 215.76-14.95-27.75c-3.22-6.75-12.83-6.75-16.04 0l-13.27 27.75m246.73.24-8.28-15.37c-1.78-3.74-7.1-3.74-8.88 0L271.67 216"/><path stroke="#adcb53" stroke-linecap="round" stroke-linejoin="round" stroke-width="1.17" d="M82.27 215.96c-2.1-4.58-6.31-12.17-8.41-16.75-.83-1.8-1.67-3.63-3.01-5.1-1.93-2.12-4.71-2.7-7.37-1.73-.78.28-1.5.69-2.22 1.1-.54.31-1.09.62-1.63.92"/><path stroke="#a6c453" stroke-linecap="round" stroke-linejoin="round" stroke-width="1.52" d="M84.21 67.89c18.12-20.29 44.17-21.71 67.62-11.59 3.66 1.58 7.18 4.55 10.13 7.18 6.97 6.22 12.3 14.18 15.35 23 1.44 4.16 2.38 8.08 2 12.44-.35 3.95.48 7.15.74 11.13.22 3.48-1.17 7.68-2.2 10.96-2.33 7.46-6.28 14.38-11.48 20.21-4.57 5.12-10 9.17-16.04 12.39-4.7 2.51-10.37 2.86-15.36 4.47-5.22 1.69-10.38 1.76-15.9 1.1-11.2-1.35-22.02-6.03-30.45-13.55-9.99-8.92-16.47-21.36-18.02-34.67a55.2 55.2 0 0 1 1.25-19.71c1.11-4.48 3.47-8.29 5.82-12.2 2.32-3.86 3.53-7.79 6.54-11.17z"/><path stroke="#a6c453" stroke-linecap="round" stroke-linejoin="round" stroke-width="1.52" d="M163.59 144c-2.56.6-6.04-.34-8.23-1.66-1.14-.69-2.29-1.39-3.25-2.33-2.2-2.16-3.11-5.45-2.69-8.5.9-6.54 7.52-10.86 12.26-14.73 9.57-7.81 16.16-19.16 15.21-31.8"/><path stroke="#a6c453" stroke-linecap="round" stroke-linejoin="round" stroke-width="1.52" d="M148.98 153.87c-5.69-1.21-10.95-4.93-13.68-10.11-2.68-5.08-1.56-11.55.82-16.57 4.37-9.19 12.51-14.76 19.31-22 5.33-5.68 8.4-11.74 10.36-19.21 1.38-5.29 2.76-12.24 1.21-17.6m-46.09-18.09c15.36-2.37 32 9.37 27.06 27.14-2.35 8.44-8.74 14.88-16.11 19.31-6.7 4.02-16.64 3.13-24.34 5.45-4.29 1.29-7.74 5.3-11.4 7.88-1.53 1.08-3.08 2.16-4.8 2.89-4.18 1.77-9.28 1.2-12.96-1.46-6.7-4.84-7.79-13.09-6.19-21.36"/><path stroke="#a6c453" stroke-linecap="round" stroke-linejoin="round" stroke-width="1.52" d="M135.73 75.95c.89-3.87-.17-8.31-3.25-10.81-1.53-1.24-3.44-1.94-5.35-2.4-11.42-2.75-23.81 2.57-31.46 11.49-2.69 3.14-4.93 6.78-5.8 10.82s-.25 8.52 2.28 11.79c3.91 5.06 7.67 2.15 11.41-1.01 3.39-2.86 5.68-3.75 9.99-4.13 9.19-.8 19.89-5.78 22.18-15.75"/><path stroke="#a6c453" stroke-linecap="round" stroke-linejoin="round" stroke-width="1.52" d="M116.95 81.77c1.39-.66 2.79-1.42 3.73-2.65.93-1.22 1.27-3.02.42-4.3-1-1.5-3.11-1.69-4.91-1.58-3.69.22-7.35 1.11-10.74 2.6-1.8.79-3.67 1.91-4.31 3.77-3.36 9.77 13.35 3.34 15.81 2.17zm-43 42.74c7.51 8.96 21.72 4.53 28.84-2.28 3.78-3.62 6-8.13 11.14-10.26 4.13-1.71 8.78-1.44 13.19-2.21 19.9-3.51 36.19-30.9 29.66-50.34m-22.46 99c-4.13-.53-7.48-3.37-9.18-7.18-1.5-3.35-2.22-7.01-2.24-10.68-.01-3.4-.25-6.58-2.14-9.55-3.08-4.84-10.54-1.7-13.62 1.59-1.99 2.13-3.99 4.28-6.24 6.15-4.61 3.83-10.03 5.68-15.89 3.67"/><path stroke="#a6c453" stroke-linecap="round" stroke-linejoin="round" stroke-width="1.52" d="M121.83 159.32c-2.87.26-5.71-2.76-6.87-5.09-1.58-3.19.76-5.61.51-8.85-.12-1.5-1.01-2.92-2.31-3.67s-2.98-.82-4.33-.17c-1.35.64-2.3 1.88-3.17 3.09-1.09 1.51-2.15 3.08-3.58 4.27-1.76 1.46-4.68 2.42-6.91 1.46"/><path fill="#a9c753" stroke="#a9c753" stroke-linecap="round" stroke-linejoin="round" stroke-width="2.53" d="M139.32 102.89c.06 7.83-6.23 14.22-14.06 14.29-7.83.06-14.22-6.23-14.29-14.06-.06-7.83 14-21.15 14-21.15s14.28 13.09 14.34 20.92z"/><path stroke="#fff" stroke-linecap="round" stroke-linejoin="round" stroke-width="1.62" d="m125.12 101.12.2 23.81"/><path fill="#a9c753" d="M88.22 118.76a4.79 4.79 0 1 0 0-9.58 4.79 4.79 0 0 0 0 9.58m74.92 3.21a4.79 4.79 0 1 0-.001-9.581 4.79 4.79 0 0 0 .001 9.581M95.17 78.13a3.25 3.25 0 1 0 0-6.5 3.25 3.25 0 0 0 0 6.5m53.68-4.97a4.79 4.79 0 1 0 0-9.58 4.79 4.79 0 0 0 0 9.58M115 138.9a3.25 3.25 0 1 0 0-6.5 3.25 3.25 0 0 0 0 6.5"/><path fill="#003834" d="M212.01 154.87h-47.84V66.41l115.98-.32v88.78h-47.84l-10.15 10.15z"/><path fill="#fff" d="M279.52 66.72v87.52h-47.48l-.37.37-9.52 9.52-9.52-9.52-.37-.37h-47.48v-87.2l114.73-.32m1.27-1.26-117.24.32v89.71h48.21l10.41 10.41 10.41-10.41h48.21V65.45z"/><path fill="#a8c653" d="M280.78 53.9H163.54v14.59h117.24z"/><path fill="#181818" d="m275.888 58.741-1.534-1.534-6.512 6.512 1.534 1.535z"/><path fill="#181818" d="m274.349 65.248 1.534-1.534-6.512-6.512-1.535 1.534zM258.58 58.42v5.82h-6.54v-5.82zm1-1h-8.55v7.83h8.55zm-16.84 6.1h-8.55v1.72h8.55z"/><path stroke="#adcb53" stroke-linecap="round" stroke-linejoin="round" stroke-width="1.88" d="M239.3 123.95h12.85m-42.54 0h23.54m-40.99 0h10.44m39.4 13.61h10.15m-59.99 0h9.79m4.46 0h31.5"/><path fill="#a9c753" d="M192.056 94.302v1.86c-.024.792-.18 1.116-.66 1.356.48.24.66.624.66 1.392v1.8c0 .9.252 1.14 1.14 1.152v.84c-1.14-.012-1.32-.048-1.644-.3-.348-.3-.48-.708-.48-1.476v-1.908c0-.696-.18-.984-.684-1.14v-.768c.504-.156.684-.432.684-1.092V93.93c0-.588.12-.96.384-1.224.276-.288.696-.396 1.56-.396h.18v.888c-.876.012-1.14.276-1.14 1.104M222.16 83.78c5.21 0 9.45 4.24 9.45 9.45s-4.24 9.45-9.45 9.45-9.45-4.24-9.45-9.45 4.24-9.45 9.45-9.45m0-2.51c-6.6 0-11.96 5.35-11.96 11.96s5.35 11.96 11.96 11.96 11.96-5.35 11.96-11.96-5.35-11.96-11.96-11.96"/></g><defs><clipPath id="a"><path fill="#fff" d="M0 0h356v246H0z"/></clipPath></defs></svg>