<svg xmlns="http://www.w3.org/2000/svg" width="400" height="278" fill="none" viewBox="0 0 400 278"><g clip-path="url(#a)"><path fill="#003834" d="M400 .628H0v276.404h400z"/><path fill="#aecc53" d="m232.326 65.515 18.989 24.967a42.8 42.8 0 0 0-11.978 15.91c-2.326 5.348-3.494 11.045-3.494 16.932a42.56 42.56 0 0 0 4.798 19.652l-4.686 2.685-.135.068-6.932 3.977s-.09.045-.146.068l-7.158 4.101s-.101.045-.157.079l-8.034 4.595c-5.842-10.764-8.921-22.91-8.921-35.236 0-10.213 2.045-20.101 6.079-29.404 4.797-11.068 12.303-20.854 21.752-28.394m.338-2.382c-10.304 7.854-18.472 18.259-23.607 30.101-4.124 9.506-6.214 19.63-6.214 30.068 0 13.18 3.45 26.168 9.967 37.539l9.505-5.449 7.304-4.191 7.067-4.056 6.247-3.573c-3.528-6.147-5.382-13.169-5.382-20.293a40.7 40.7 0 0 1 3.36-16.258 40.97 40.97 0 0 1 12.775-16.281l-21.022-27.63zm101.325 111.45-8.315-7.674-6.842-6.326-5.259-4.854-5.09-4.697c-7.719 8.36-18.674 13.158-30.045 13.158-14.618 0-28.224-7.888-35.494-20.585l-6.011 3.45-6.214 3.562-8.09 4.629-9.82 5.629c13.45 23.483 38.607 38.068 65.641 38.068 21.033 0 41.28-8.866 55.55-24.326z"/><path fill="#fff" d="m325.921 167.156 8.045 7.438c12.933-14 20.045-32.213 20.045-51.281h-34.719a40.77 40.77 0 0 1-10.843 27.731l5.292 4.887 5.989 5.529 6.18 5.707zM278.416 49.392c40.191 0 73 32.247 73.898 72.236h-31.359c-.888-22.697-19.629-40.877-42.528-40.877-8.922 0-17.461 2.73-24.686 7.877-.179.123-.55.416-1.067.82l-18.978-24.977c.405-.315.787-.596.911-.697 12.752-9.404 27.91-14.382 43.82-14.382m-.011-1.685c-16.293 0-31.764 5.078-44.821 14.707-.314.236-2.258 1.73-2.258 1.73l21.034 27.675c.348-.258 2-1.573 2.348-1.832 6.944-4.955 15.112-7.561 23.697-7.561 22.539 0 40.876 18.337 40.876 40.876h34.719c0-41.685-33.91-75.607-75.607-75.607z"/><path stroke="#fff" stroke-miterlimit="10" stroke-width=".416" d="m282.191 57.583-.045-23.483h35.877"/><path fill="#fff" d="M317.944 35.684c.865 0 1.573-.708 1.573-1.573s-.708-1.573-1.573-1.573-1.573.708-1.573 1.573.708 1.573 1.573 1.573"/><path stroke="#fff" stroke-miterlimit="10" stroke-width=".416" d="M224.45 89.605h-50.82"/><path fill="#fff" d="M173.708 88.032c-.865 0-1.573.708-1.573 1.573s.708 1.573 1.573 1.573 1.573-.708 1.573-1.573-.708-1.573-1.573-1.573"/><path stroke="#fff" stroke-miterlimit="10" stroke-width="2.247" d="M175.011 83.066h30.337"/><path stroke="#fff" stroke-miterlimit="10" stroke-width=".416" d="M336.169 160.392H387"/><path fill="#fff" d="M386.922 161.965c.865 0 1.573-.708 1.573-1.573s-.708-1.573-1.573-1.573c-.866 0-1.573.708-1.573 1.573s.707 1.573 1.573 1.573"/><path stroke="#fff" stroke-miterlimit="10" stroke-width="2.247" d="M385.608 153.853h-30.337M281.753 28.01h35.955m-35.955-6.741h35.955"/><path stroke="#fff" stroke-miterlimit="10" stroke-width=".416" d="m289.899 195.167.427 25.731"/><path fill="#fff" d="M288.753 220.842a1.58 1.58 0 1 0 3.158-.058 1.58 1.58 0 0 0-3.158.058"/><path stroke="#fff" stroke-miterlimit="10" stroke-width="2.247" d="M295.235 215.65h38.203m-38.203-5.617h38.203"/><path stroke="#fff" stroke-miterlimit="10" stroke-width="1.124" d="m286.967 141.493-16.045-9.269v-18.54l16.045-9.269h.045l16.056 9.269v18.54l-16.056 9.269z"/><path fill="#a7c553" d="M286.933 132.224v-18.54l-16.056-9.269-16.057 9.269v18.54l16.057 9.269z"/><path fill="#fff" d="M278.248 123.179a7.366 7.366 0 0 1-14.73.123c-.034-4.067 7.281-10.989 7.281-10.989s7.415 6.798 7.449 10.866"/><path stroke="#000" stroke-linecap="round" stroke-linejoin="round" stroke-width="1.022" d="m270.865 121.336.101 12.258"/><path fill="#000" d="m78.067 168.707 43.787-3.416c2.472-.18 6.595 3.09 6.618 5.573l.472 36.517 12.472 8.314-24.371-.168-5.157-27.989-42.596 6.899z"/><path fill="#000" d="m92.146 169.65-14.393 30.405-21.854 51.404 13.18 17.045L44 259.605l3.663-74.73z"/><path stroke="#757575" stroke-miterlimit="10" stroke-width=".865" d="m92.146 169.65-14.393 30.405-21.854 51.404 13.18 17.045L44 259.605l3.663-74.73z"/><path fill="#003834" stroke="#adcb53" stroke-linecap="round" stroke-linejoin="round" stroke-width="1.124" d="M101.226 171.887c-2.338-12.888-7.675-41.079-9.9-48.989-2.246-7.978-4.078-16.135-11.168-21.304-8.427-6.134-19.135-5.618-25.82 2.809-3.966 5-5.798 11.394-6.685 17.72-1.304 9.359-2.36 62.764-2.36 62.764.685 1.022 1.247 2.191 2.225 2.752 31.989 18.405 54.966-8.73 53.696-15.752z"/><path fill="#fff" d="M77.18 99.168c9.228 0 16.708-7.48 16.708-16.708s-7.48-16.708-16.708-16.708-16.707 7.48-16.707 16.708 7.48 16.708 16.707 16.708"/><path fill="#000" d="M68.034 91.257c-1.46-5.955.55-12.382 5.303-16.27 5.506-4.494 12.877-4.674 18.45-1.292-1.158-3.056-3.068-5.932-6.236-8.213-6.573-4.73-15.326-5.124-21.955-.472-8.348 5.843-10.483 17.326-4.753 25.786a18.8 18.8 0 0 0 3.775 4.102c2.528 2.022 6.281-.337 5.472-3.472-.011-.056-.034-.113-.045-.169z"/><path fill="#000" d="M59.843 76.325a9.55 9.55 0 0 0 9.55-9.55 9.55 9.55 0 1 0-9.55 9.55"/><path stroke="#757575" stroke-linecap="round" stroke-linejoin="round" stroke-width=".562" d="M91.775 73.696c-1.157-3.057-3.067-5.933-6.236-8.214-5.067-3.652-11.427-4.697-17.112-2.876-1.55-3.18-4.81-5.382-8.584-5.382-5.27 0-9.551 4.28-9.551 9.55 0 4 2.46 7.416 5.944 8.843-1.304 5.022-.54 10.55 2.595 15.18a18.8 18.8 0 0 0 3.776 4.1"/><path fill="#fff" d="M69.7 89.528c2.008-.689 2.891-3.417 1.973-6.093s-3.29-4.289-5.297-3.6-2.89 3.416-1.973 6.093c.918 2.677 3.29 4.288 5.297 3.6"/><path fill="#3c3c3c" d="M87.36 81.886a1.57 1.57 0 0 0 .775 2.079 1.57 1.57 0 0 0 2.078-.776c.36-.786-2.494-2.09-2.853-1.303"/><path stroke="#3c3c3c" stroke-linecap="round" stroke-linejoin="round" stroke-width="1.124" d="M92.483 80.594c-2.011-2.348-5.337-3.28-8.169-2.045"/><path stroke="#606060" stroke-linecap="round" stroke-linejoin="round" stroke-width=".438" d="M88.618 94.459c-1.607-.663-2.315-1.258-2.99-2.899"/><path stroke="#adcb53" stroke-linecap="round" stroke-linejoin="round" stroke-width="2.831" d="m122.393 120.437 22.236-11.427"/><path fill="#fff" d="M119.001 124.493c1.427-1.236 3.382-1.741 4.247-3.46.764-1.506.753-4.225 1.101-5.91.18-.866.517-1.888 1.371-2.101.809-.191 1.584.516 1.865 1.303.809 2.303 1.079 7.629 5.281 5.921 2.371-.966 2.067-4.91 4.303-6.281 1.068-.651 4.573-2.393 5.877-1.078.775.775-2.832 5.292-3.281 6.55a445 445 0 0 0-2.27 6.427c-.371 1.09-.764 2.214-1.584 3.034-.742.753-1.764 1.157-2.753 1.539-4.697 1.843-11.011 2.472-14.775 6.034"/><path fill="#aecc53" d="M120.449 138.617s-.057.056-.09.078l-11.618 9.989c-6.573 5.663-15.214 7.843-23.686 6-8.483-1.842-15.415-7.427-19.045-15.314l-6.505-14.135c-2.259-4.91-.113-10.719 4.798-12.978 4.91-2.258 10.719-.112 12.977 4.798l6.506 14.135a7.75 7.75 0 0 0 5.427 4.371 7.78 7.78 0 0 0 6.764-1.708l11.618-9.989c4.09-3.528 10.269-3.056 13.797 1.034 3.495 4.067 3.068 10.179-.943 13.719"/><path stroke="#606060" stroke-linecap="round" stroke-linejoin="round" stroke-width=".438" d="M65.799 83.426c.011-.708.123-1.528.73-1.888.584-.36 1.382-.078 1.843.439.45.516.64 1.202.809 1.865.09.348-1.63.674-.764 1.91.224.326.55.562.865.786-.09.416-.191.854-.46 1.191-.26.337-.72.562-1.124.416"/><path fill="#aecc53" d="M134.562 78.74a1.36 1.36 0 0 0 1.135-1.213 1.373 1.373 0 0 0-2.73-.28c-.045.438.123.842.427 1.134a6.2 6.2 0 0 1-5.102 3.798v-5.843a5.26 5.26 0 0 0 3.787-2.404 1.37 1.37 0 0 0 1.326-1.169 1.373 1.373 0 0 0-1.146-1.562 1.38 1.38 0 0 0-1.562 1.146c-.056.394.056.765.281 1.057a3.98 3.98 0 0 1-2.674 1.708v-5.708a1.37 1.37 0 0 0-.607-2.596c-.753 0-1.371.618-1.371 1.37 0 .54.315 1 .764 1.226v5.708a3.96 3.96 0 0 1-2.674-1.708c.225-.292.337-.663.281-1.057a1.36 1.36 0 0 0-1.562-1.146c-.741.124-1.27.82-1.146 1.562a1.38 1.38 0 0 0 1.326 1.169c.831 1.314 2.225 2.224 3.786 2.404v5.843A6.2 6.2 0 0 1 122 78.38a1.39 1.39 0 0 0 .427-1.135 1.373 1.373 0 1 0-1.595 1.495 7.43 7.43 0 0 0 6.281 4.663v5.932h1.224v-5.932a7.42 7.42 0 0 0 6.27-4.663z"/><path stroke="#aecc53" stroke-linecap="round" stroke-linejoin="round" stroke-width="1.112" d="M144.945 76.73c0-9.529-7.731-17.26-17.259-17.26s-17.258 7.731-17.258 17.26c0 8.01 5.46 14.752 12.865 16.696l4.393 5.82 4.393-5.82c7.405-1.944 12.866-8.686 12.866-16.697"/><path stroke="#aecc53" stroke-linecap="round" stroke-linejoin="round" stroke-width="1.685" d="M214.337 159.819h-30.865v56.472H97.157v56.247h-85.65"/></g><defs><clipPath id="a"><rect width="400" height="276.404" y=".628" fill="#fff" rx="6"/></clipPath></defs></svg>