<svg xmlns="http://www.w3.org/2000/svg" width="356" height="246" fill="none" viewBox="0 0 356 246"><g clip-path="url(#a)"><path fill="#003834" d="M356 0H0v246h356z"/><path stroke="#a8c653" stroke-linecap="round" stroke-linejoin="round" stroke-width="2.85" d="M52.58 120.15c110.84 2.83 197.87-40.18 243.57-82.99"/><path fill="#a8c653" d="M299.59 43.66 303.42 30l-13.75 3.51z"/><path stroke="#fff" stroke-dasharray="5.3 5.3" stroke-linecap="round" stroke-linejoin="round" stroke-width="1.18" d="M303.42 209.73V42.12M52.58 214.78v-88.86"/><path stroke="#c3c3c3" stroke-linecap="round" stroke-linejoin="round" stroke-width="1.34" d="M29.08 216h297.84"/><path stroke="#adcb53" stroke-miterlimit="10" stroke-width=".91" d="M292.32 119.8h-77.51v77.51h77.51z"/><path stroke="#adcb53" stroke-linecap="round" stroke-linejoin="round" stroke-width=".81" d="M88.51 55.35H74.29v21.27h14.22zm-3.12-2.74h-7.96v2.74h7.96z"/><path fill="#adcb53" d="M86.82 70.42H75.99v2.87h10.83zm0-5.87H75.99v2.87h10.83zm0-5.87H75.99v2.87h10.83zm-3.56 94.9-3.73 8.99-1.29-1.47 6.03-.84 1.69-.23c-.2.3-7.13 10.85-7.6 11.56l5.4-10.96.8 1.11-5.88 1.57-1.84.49c.33-1.18 2.75-9.95 3.13-11.35l3.27 1.13z"/><path stroke="#fff" stroke-linecap="round" stroke-linejoin="round" stroke-width="1.53" d="M81.4 176.74c8.13 0 14.72-6.59 14.72-14.72S89.53 147.3 81.4 147.3s-14.72 6.59-14.72 14.72 6.59 14.72 14.72 14.72"/><path stroke="#fff" stroke-linecap="round" stroke-linejoin="round" stroke-width="1.61" d="M81.4 84.15c10.792 0 19.54-8.748 19.54-19.54S92.192 45.07 81.4 45.07s-19.54 8.748-19.54 19.54 8.748 19.54 19.54 19.54"/><path stroke="#adcb53" stroke-linecap="round" stroke-linejoin="round" stroke-width=".89" d="M155.07 195.14c0-2.25-1.83-4.08-4.08-4.08-.12 0-.24 0-.36.02a4.52 4.52 0 0 0-4.36-3.34 4.52 4.52 0 0 0-4.36 3.34c-.11 0-.23-.02-.34-.02-2.25 0-4.08 1.83-4.08 4.08 0 1.6.93 2.98 2.27 3.65.39.27.86.43 1.37.43h10.29c.49 0 .94-.15 1.32-.39a4.07 4.07 0 0 0 2.34-3.68z"/><path stroke="#adcb53" stroke-linecap="round" stroke-linejoin="round" stroke-width=".89" d="M137.48 195.14c0-2.25 1.83-4.08 4.08-4.08 1.21 0 2.29.52 3.03 1.35m3.51-.14c.74-.74 1.76-1.2 2.89-1.2 2.25 0 4.08 1.83 4.08 4.08"/><path stroke="#fff" stroke-linecap="round" stroke-linejoin="round" stroke-width="1.58" d="M146.28 208.62c8.361 0 15.14-6.778 15.14-15.14s-6.779-15.14-15.14-15.14-15.14 6.778-15.14 15.14 6.778 15.14 15.14 15.14"/><path stroke="#fff" stroke-dasharray="5.3 5.3" stroke-linecap="round" stroke-linejoin="round" stroke-width="1.18" d="m95.43 78.21 37.49 25.66m-34.7 54.69 35.01-15.9"/><path stroke="#fff" stroke-dasharray="5.3 5.3" stroke-linecap="round" stroke-linejoin="round" stroke-width="1.58" d="M155.07 181.16 178 147.52"/><path stroke="#fff" stroke-linecap="round" stroke-linejoin="round" stroke-width=".53" d="M259.51 169.27v18.14m-16.11-35.53v35.53m40.99-47.95v47.95m-61.64-13.73v13.73m61.64 0h-61.64"/><path stroke="#adcb53" stroke-linecap="round" stroke-linejoin="round" stroke-width="1.78" d="m222.75 173.68 19.93-21.8 16.83 17.39 18.41-22.51"/><path fill="#adcb53" d="m282.1 152.86 2.29-14.02-13.29 5.03z"/><path fill="#003834" d="M123.1 161.07V61.11l113.66-.29v100.25z"/><path fill="#fff" d="M235.23 62.35v97.18h-110.6V62.64zm3.06-3.06-116.72.3V162.6h116.72z"/><path fill="#fff" d="M238.29 48.56H121.57v13.53h116.72z"/><path fill="#181818" d="m233.754 53.042-1.421-1.421-6.039 6.038 1.421 1.422z"/><path fill="#181818" d="m232.328 59.094 1.421-1.421-6.038-6.039-1.422 1.421zM217.7 52.75v5.4h-6.07v-5.4zm.93-.93h-7.93v7.26h7.93zM203 57.49h-7.93v1.6H203z"/><path stroke="#adcb53" stroke-linecap="round" stroke-linejoin="round" stroke-width="1.75" d="M169.4 91.59c0 5.81 4.71 10.53 10.53 10.53 5.81 0 10.53-4.71 10.53-10.53 0-3.92-4.8-12.59-7.91-17.81-1.18-1.98-4.04-1.98-5.23 0-3.12 5.22-7.91 13.88-7.91 17.81zm10.53-5.51v21.44"/><path fill="#adcb53" d="M179.93 88.84a2.63 2.63 0 1 0 0-5.26 2.63 2.63 0 0 0 0 5.26"/><path stroke="#adcb53" stroke-linecap="round" stroke-linejoin="round" stroke-width="1.75" d="m161.8 85.92-10.01 7.39 10.01 7.39m36.26-14.78 10.01 7.39-10.01 7.39m-2.23 19.44h11.93m-39.47 0h21.84m-38.03 0h9.68m36.56 12.62h9.42m-55.66 0h9.09m4.13 0h29.22m-9.83 12.62h23.05m-55.66 0h22.38"/></g><defs><clipPath id="a"><path fill="#fff" d="M0 0h356v246H0z"/></clipPath></defs></svg>