<svg width="356" height="246" viewBox="0 0 356 246" fill="none" xmlns="http://www.w3.org/2000/svg">
<g clip-path="url(#clip0_1_2230)">
<path d="M356 0H0V246H356V0Z" fill="#003834"/>
<path d="M52.58 120.15C163.42 122.98 250.45 79.97 296.15 37.16" stroke="#A8C653" stroke-width="2.85" stroke-linecap="round" stroke-linejoin="round"/>
<path d="M299.59 43.66L303.42 30L289.67 33.51L299.59 43.66Z" fill="#A8C653"/>
<path d="M303.42 209.73V42.12" stroke="white" stroke-width="1.18" stroke-linecap="round" stroke-linejoin="round" stroke-dasharray="5.3 5.3"/>
<path d="M52.58 214.78V125.92" stroke="white" stroke-width="1.18" stroke-linecap="round" stroke-linejoin="round" stroke-dasharray="5.3 5.3"/>
<path d="M29.08 216H326.92" stroke="#C3C3C3" stroke-width="1.34" stroke-linecap="round" stroke-linejoin="round"/>
<path d="M292.32 119.8H214.81V197.31H292.32V119.8Z" stroke="#ADCB53" stroke-width="0.91" stroke-miterlimit="10"/>
<path d="M88.5099 55.35H74.2899V76.62H88.5099V55.35Z" stroke="#ADCB53" stroke-width="0.81" stroke-linecap="round" stroke-linejoin="round"/>
<path d="M85.3899 52.61H77.4299V55.35H85.3899V52.61Z" stroke="#ADCB53" stroke-width="0.81" stroke-linecap="round" stroke-linejoin="round"/>
<path d="M86.8199 70.4199H75.9899V73.2899H86.8199V70.4199Z" fill="#ADCB53"/>
<path d="M86.8199 64.5499H75.9899V67.4199H86.8199V64.5499Z" fill="#ADCB53"/>
<path d="M86.8199 58.6799H75.9899V61.5499H86.8199V58.6799Z" fill="#ADCB53"/>
<path d="M83.26 153.58L79.53 162.57L78.24 161.1L84.27 160.26L85.96 160.03C85.76 160.33 78.83 170.88 78.36 171.59L83.76 160.63L84.56 161.74L78.68 163.31L76.84 163.8C77.17 162.62 79.59 153.85 79.97 152.45L83.24 153.58H83.26Z" fill="#ADCB53"/>
<path d="M81.3999 176.74C89.5296 176.74 96.1199 170.15 96.1199 162.02C96.1199 153.89 89.5296 147.3 81.3999 147.3C73.2703 147.3 66.6799 153.89 66.6799 162.02C66.6799 170.15 73.2703 176.74 81.3999 176.74Z" stroke="white" stroke-width="1.53" stroke-linecap="round" stroke-linejoin="round"/>
<path d="M81.4 84.1499C92.1916 84.1499 100.94 75.4016 100.94 64.6099C100.94 53.8183 92.1916 45.0699 81.4 45.0699C70.6083 45.0699 61.86 53.8183 61.86 64.6099C61.86 75.4016 70.6083 84.1499 81.4 84.1499Z" stroke="white" stroke-width="1.61" stroke-linecap="round" stroke-linejoin="round"/>
<path d="M155.07 195.14C155.07 192.89 153.24 191.06 150.99 191.06C150.87 191.06 150.75 191.06 150.63 191.08C150.11 189.16 148.36 187.74 146.27 187.74C144.18 187.74 142.43 189.16 141.91 191.08C141.8 191.08 141.68 191.06 141.57 191.06C139.32 191.06 137.49 192.89 137.49 195.14C137.49 196.74 138.42 198.12 139.76 198.79C140.15 199.06 140.62 199.22 141.13 199.22H151.42C151.91 199.22 152.36 199.07 152.74 198.83C154.12 198.18 155.08 196.78 155.08 195.15L155.07 195.14Z" stroke="#ADCB53" stroke-width="0.89" stroke-linecap="round" stroke-linejoin="round"/>
<path d="M137.48 195.14C137.48 192.89 139.31 191.06 141.56 191.06C142.77 191.06 143.85 191.58 144.59 192.41" stroke="#ADCB53" stroke-width="0.89" stroke-linecap="round" stroke-linejoin="round"/>
<path d="M148.1 192.27C148.84 191.53 149.86 191.07 150.99 191.07C153.24 191.07 155.07 192.9 155.07 195.15" stroke="#ADCB53" stroke-width="0.89" stroke-linecap="round" stroke-linejoin="round"/>
<path d="M146.28 208.62C154.641 208.62 161.42 201.842 161.42 193.48C161.42 185.118 154.641 178.34 146.28 178.34C137.918 178.34 131.14 185.118 131.14 193.48C131.14 201.842 137.918 208.62 146.28 208.62Z" stroke="white" stroke-width="1.58" stroke-linecap="round" stroke-linejoin="round"/>
<path d="M95.4299 78.21L132.92 103.87" stroke="white" stroke-width="1.18" stroke-linecap="round" stroke-linejoin="round" stroke-dasharray="5.3 5.3"/>
<path d="M98.22 158.56L133.23 142.66" stroke="white" stroke-width="1.18" stroke-linecap="round" stroke-linejoin="round" stroke-dasharray="5.3 5.3"/>
<path d="M155.07 181.16L178 147.52" stroke="white" stroke-width="1.58" stroke-linecap="round" stroke-linejoin="round" stroke-dasharray="5.3 5.3"/>
<path d="M259.51 169.27V187.41" stroke="white" stroke-width="0.53" stroke-linecap="round" stroke-linejoin="round"/>
<path d="M243.4 151.88V187.41" stroke="white" stroke-width="0.53" stroke-linecap="round" stroke-linejoin="round"/>
<path d="M284.39 139.46V187.41" stroke="white" stroke-width="0.53" stroke-linecap="round" stroke-linejoin="round"/>
<path d="M222.75 173.68V187.41" stroke="white" stroke-width="0.53" stroke-linecap="round" stroke-linejoin="round"/>
<path d="M284.39 187.41H222.75" stroke="white" stroke-width="0.53" stroke-linecap="round" stroke-linejoin="round"/>
<path d="M222.75 173.68L242.68 151.88L259.51 169.27L277.92 146.76" stroke="#ADCB53" stroke-width="1.78" stroke-linecap="round" stroke-linejoin="round"/>
<path d="M282.1 152.86L284.39 138.84L271.1 143.87L282.1 152.86Z" fill="#ADCB53"/>
<path d="M123.1 161.07V61.1101L236.76 60.8201V161.07H123.1Z" fill="#003834"/>
<path d="M235.23 62.35V159.53H124.63V62.64L235.23 62.35ZM238.29 59.29L121.57 59.59V162.6H238.29V59.29Z" fill="white"/>
<path d="M238.29 48.5601H121.57V62.0901H238.29V48.5601Z" fill="white"/>
<path d="M233.754 53.042L232.333 51.6207L226.294 57.6594L227.715 59.0807L233.754 53.042Z" fill="#181818"/>
<path d="M232.328 59.094L233.749 57.6727L227.711 51.634L226.289 53.0553L232.328 59.094Z" fill="#181818"/>
<path d="M217.7 52.7501V58.1501H211.63V52.7501H217.7ZM218.63 51.8201H210.7V59.0801H218.63V51.8201Z" fill="#181818"/>
<path d="M203 57.4901H195.07V59.0901H203V57.4901Z" fill="#181818"/>
<path d="M169.4 91.59C169.4 97.4 174.11 102.12 179.93 102.12C185.74 102.12 190.46 97.41 190.46 91.59C190.46 87.67 185.66 79 182.55 73.78C181.37 71.8 178.51 71.8 177.32 73.78C174.2 79 169.41 87.66 169.41 91.59H169.4Z" stroke="#ADCB53" stroke-width="1.75" stroke-linecap="round" stroke-linejoin="round"/>
<path d="M179.93 86.0801V107.52" stroke="#ADCB53" stroke-width="1.75" stroke-linecap="round" stroke-linejoin="round"/>
<path d="M179.93 88.8401C181.382 88.8401 182.56 87.6626 182.56 86.2101C182.56 84.7576 181.382 83.5801 179.93 83.5801C178.477 83.5801 177.3 84.7576 177.3 86.2101C177.3 87.6626 178.477 88.8401 179.93 88.8401Z" fill="#ADCB53"/>
<path d="M161.8 85.92L151.79 93.31L161.8 100.7" stroke="#ADCB53" stroke-width="1.75" stroke-linecap="round" stroke-linejoin="round"/>
<path d="M198.06 85.92L208.07 93.31L198.06 100.7" stroke="#ADCB53" stroke-width="1.75" stroke-linecap="round" stroke-linejoin="round"/>
<path d="M195.83 120.14H207.76" stroke="#ADCB53" stroke-width="1.75" stroke-linecap="round" stroke-linejoin="round"/>
<path d="M168.29 120.14H190.13" stroke="#ADCB53" stroke-width="1.75" stroke-linecap="round" stroke-linejoin="round"/>
<path d="M152.1 120.14H161.78" stroke="#ADCB53" stroke-width="1.75" stroke-linecap="round" stroke-linejoin="round"/>
<path d="M198.34 132.76H207.76" stroke="#ADCB53" stroke-width="1.75" stroke-linecap="round" stroke-linejoin="round"/>
<path d="M152.1 132.76H161.19" stroke="#ADCB53" stroke-width="1.75" stroke-linecap="round" stroke-linejoin="round"/>
<path d="M165.32 132.76H194.54" stroke="#ADCB53" stroke-width="1.75" stroke-linecap="round" stroke-linejoin="round"/>
<path d="M184.71 145.38H207.76" stroke="#ADCB53" stroke-width="1.75" stroke-linecap="round" stroke-linejoin="round"/>
<path d="M152.1 145.38H174.48" stroke="#ADCB53" stroke-width="1.75" stroke-linecap="round" stroke-linejoin="round"/>
</g>
<defs>
<clipPath id="clip0_1_2230">
<rect width="356" height="246" fill="white"/>
</clipPath>
</defs>
</svg>
