<svg xmlns="http://www.w3.org/2000/svg" viewBox="0 0 50 50"><path d="M4.55 38.55V24.46c0-.16-.04-.32-.13-.46l-1.49-2.5L4.42 19c.08-.14.13-.3.13-.46V4.47c0-1 .82-1.82 1.82-1.82h7.47V.86H6.37c-1.99 0-3.61 1.62-3.61 3.61v13.84l-1.63 2.74c-.17.28-.17.63 0 .92l1.63 2.74v13.84c0 1.99 1.62 3.61 3.61 3.61h7.47v-1.79H6.37c-1 0-1.82-.82-1.82-1.82m42.69-20.24V4.47c0-1.99-1.62-3.61-3.61-3.61h-7.47v1.79h7.47c1 0 1.82.82 1.82 1.82v14.09c0 .16.04.32.13.46l1.49 2.49L45.58 24a.94.94 0 0 0-.13.46v14.09c0 1-.82 1.82-1.82 1.82h-7.47v1.79h7.47c1.99 0 3.61-1.62 3.61-3.61V24.71l1.63-2.74c.17-.28.17-.63 0-.92z" style="fill:#aecc53"/><path d="M38.48 28.4c1.16-.2 2.1-1.14 2.23-2.37a2.694 2.694 0 0 0-5.36-.54c-.09.86.25 1.66.83 2.21a12.15 12.15 0 0 1-9.99 7.43V23.7c3.06-.37 5.78-2.14 7.4-4.72 1.28-.03 2.4-.97 2.6-2.28.22-1.47-.78-2.84-2.25-3.07-1.47-.22-2.84.78-3.07 2.25-.12.76.1 1.5.55 2.06-1.2 1.77-3.1 3-5.23 3.34V10.11c.88-.44 1.5-1.35 1.5-2.4 0-1.49-1.21-2.69-2.69-2.69s-2.69 1.21-2.69 2.69c0 1.06.61 1.96 1.5 2.4v11.17a7.84 7.84 0 0 1-5.24-3.34c.44-.56.66-1.3.55-2.06a2.684 2.684 0 0 0-3.07-2.25c-1.47.22-2.48 1.6-2.25 3.07.2 1.31 1.32 2.25 2.6 2.28 1.62 2.58 4.35 4.35 7.41 4.72v11.43c-4.46-.44-8.3-3.34-10-7.43.58-.55.92-1.35.83-2.21a2.694 2.694 0 0 0-5.36.54 2.7 2.7 0 0 0 2.23 2.37c2.01 5.08 6.77 8.67 12.29 9.13v11.62h2.39V37.53c5.52-.46 10.27-4.05 12.28-9.13Z" style="fill:#00524f"/></svg>