<?xml version="1.0" encoding="UTF-8"?>
<svg id="text" xmlns="http://www.w3.org/2000/svg" version="1.1" viewBox="0 0 50 50">
  <!-- Generator: Adobe Illustrator 30.2.1, SVG Export Plug-In . SVG Version: 2.1.1 Build 1)  -->
  <defs>
    <style>
      .st0 {
        fill: none;
        stroke: #006d68;
        stroke-linecap: round;
        stroke-linejoin: round;
        stroke-width: 2px;
      }

      .st1 {
        fill: #a7c553;
      }

      .st2 {
        fill: #fff;
      }

      .st3 {
        fill: #006d68;
      }
    </style>
  </defs>
  <polygon class="st1" points="32.95 34.22 32.95 15.78 16.97 6.56 1 15.78 1 34.22 16.97 43.44 32.95 34.22"/>
  <polygon class="st3" points="32.98 43.44 17.01 34.22 17.01 15.78 32.98 6.56 33.03 6.56 49 15.78 49 34.22 33.03 43.44 32.98 43.44"/>
  <g>
    <path class="st2" d="M24.3,25.23c.03,4.05-3.22,7.35-7.27,7.39-4.05.03-7.35-3.22-7.39-7.27-.03-4.05,7.24-10.93,7.24-10.93,0,0,7.38,6.77,7.42,10.81Z"/>
    <line class="st0" x1="16.96" y1="23.39" x2="17.06" y2="35.59"/>
  </g>
</svg>