<svg xmlns="http://www.w3.org/2000/svg" viewBox="0 0 50 50"><path d="M17.98 3.42v1.05c0 .99-.8 1.79-1.79 1.79H2.18c-.99 0-1.79.8-1.79 1.79v28.16c0 .99.8 1.79 1.79 1.79h34.44c.99 0 1.79-.8 1.79-1.79V3.42c0-.99-.8-1.79-1.79-1.79H19.77c-.99 0-1.79.8-1.79 1.79" style="fill:#006d68"/><path d="M29.18 13.8v1.05c0 .99-.8 1.79-1.79 1.79H13.38c-.99 0-1.79.8-1.79 1.79v28.16c0 .99.8 1.79 1.79 1.79h34.44c.99 0 1.79-.8 1.79-1.79V13.8c0-.99-.8-1.79-1.79-1.79H30.97c-.99 0-1.79.8-1.79 1.79" style="fill:#a7c553"/></svg>