<?xml version="1.0" encoding="UTF-8"?>
<svg id="text" xmlns="http://www.w3.org/2000/svg" version="1.1" viewBox="0 0 50 50">
  <!-- Generator: Adobe Illustrator 30.2.1, SVG Export Plug-In . SVG Version: 2.1.1 Build 1)  -->
  <defs>
    <style>
      .st0 {
        fill: #a7c553;
      }

      .st1 {
        fill: #006d68;
      }
    </style>
  </defs>
  <path class="st1" d="M17.98,3.42v1.05c0,.99-.8,1.79-1.79,1.79H2.18c-.99,0-1.79.8-1.79,1.79v28.16c0,.99.8,1.79,1.79,1.79h34.44c.99,0,1.79-.8,1.79-1.79V3.42c0-.99-.8-1.79-1.79-1.79h-16.85c-.99,0-1.79.8-1.79,1.79Z"/>
  <path class="st0" d="M29.18,13.8v1.05c0,.99-.8,1.79-1.79,1.79h-14.01c-.99,0-1.79.8-1.79,1.79v28.16c0,.99.8,1.79,1.79,1.79h34.44c.99,0,1.79-.8,1.79-1.79V13.8c0-.99-.8-1.79-1.79-1.79h-16.85c-.99,0-1.79.8-1.79,1.79Z"/>
</svg>