<svg xmlns="http://www.w3.org/2000/svg" id="text" viewBox="0 0 500 500"><defs><linearGradient id="linear-gradient" x1="52.89" x2="52.89" y1="370" y2="139.66" gradientUnits="userSpaceOnUse"><stop offset=".01" stop-color="#001815"/><stop offset=".1" stop-color="#00322e"/><stop offset=".2" stop-color="#004440"/><stop offset=".3" stop-color="#00504b"/><stop offset=".4" stop-color="#00544f"/><stop offset=".46" stop-color="#065851"/><stop offset=".54" stop-color="#196457"/><stop offset=".63" stop-color="#377962"/><stop offset=".74" stop-color="#619671"/><stop offset=".85" stop-color="#96ba84"/><stop offset=".95" stop-color="#cee098"/></linearGradient><linearGradient id="linear-gradient1" x1="261.46" x2="454.56" y1="359.29" y2="359.29" gradientUnits="userSpaceOnUse"><stop offset="0" stop-color="#6fafac"/><stop offset=".32" stop-color="#479793"/><stop offset=".78" stop-color="#137874"/><stop offset="1" stop-color="#006d68"/></linearGradient><linearGradient id="linear-gradient2" x1="280.52" x2="473.62" y1="378.41" y2="378.41" gradientUnits="userSpaceOnUse"><stop offset=".28" stop-color="#cee098"/><stop offset=".37" stop-color="#c5db96"/><stop offset=".51" stop-color="#accd94"/><stop offset=".69" stop-color="#85b78f"/><stop offset=".9" stop-color="#4e9989"/><stop offset="1" stop-color="#338a86"/></linearGradient><linearGradient id="linear-gradient3" x1="400.45" x2="400.45" y1="493.76" y2="309.06" gradientUnits="userSpaceOnUse"><stop offset="0" stop-color="#338a86"/><stop offset=".59" stop-color="#003834"/></linearGradient><style>.st5{fill:#adcb53}.st10{fill:none;stroke-linecap:round;stroke:#adcb53;stroke-linejoin:round;stroke-width:3.74px}</style></defs><path d="M495.76 423.54H11.72m484.04-66.43H11.72m484.04-66.43H11.72m484.04-66.43H11.72m484.04-66.43H11.72m484.04-66.43H11.72m417.3-85.15v485.29M362.59 6.24v485.29M296.16 6.24v451.32M229.73 6.24v485.29M163.3 6.24v485.29M96.86 6.24v485.29" style="fill:none;stroke-linecap:round;stroke:#6fafac;stroke-miterlimit:10;stroke-width:2.5px"/><path d="M447.11 181.52h26.2v26.2h-26.2z" style="fill:#bed675" transform="rotate(45 460.205 194.623)"/><path d="M52.79 362.34V73.02l328.33-.84v290.16z" style="fill:#fff"/><path d="M379.25 74.05v286.42H54.66V74.89zm3.74-3.75-332.07.86v293.06h332.07z" class="st5"/><path d="M50.92 39.78h332.07v38.49H50.92z" style="fill:#003834"/><path d="m366.036 48.497 4.044 4.045-17.182 17.182-4.045-4.044z" class="st5"/><path d="m370.073 65.686-4.045 4.044-17.182-17.182 4.044-4.045zM323.49 52.53v13.74h-15.44V52.53zm3.56-3.46h-22.56v20.66h22.56zm-67.02 16.1h22.56v4.55h-22.56z" class="st5"/><path d="M143.1 266.2v-50.88c0-.58-.16-1.15-.46-1.65l-5.37-9.01 5.37-9.01c.3-.5.46-1.07.46-1.65v-50.88c0-3.62 2.94-6.56 6.56-6.56h27v-6.46h-27c-7.18 0-13.03 5.84-13.03 13.03v49.99l-5.9 9.9a3.22 3.22 0 0 0 0 3.31l5.9 9.9v49.99c0 7.18 5.85 13.03 13.03 13.03h27v-6.46h-27c-3.62 0-6.56-2.94-6.56-6.56Zm154.18-73.1v-49.99c0-7.18-5.84-13.03-13.03-13.03h-27v6.46h27c3.62 0 6.56 2.94 6.56 6.56v50.88c0 .58.16 1.15.46 1.66l5.37 9.01-5.37 9.01c-.3.5-.46 1.07-.46 1.66v50.88c0 3.62-2.94 6.56-6.56 6.56h-27v6.46h27c7.18 0 13.03-5.85 13.03-13.03V216.2l5.9-9.9c.61-1.02.61-2.29 0-3.31l-5.9-9.9Z" style="fill:#aecc53"/><path d="M265.64 229.52c4.2-.71 7.6-4.11 8.05-8.56.54-5.34-3.35-10.11-8.69-10.66-5.34-.54-10.11 3.35-10.66 8.69-.32 3.11.9 6 3 8-6.12 14.77-19.97 25.22-36.07 26.83v-41.27c11.04-1.34 20.89-7.72 26.74-17.03 4.64-.1 8.68-3.49 9.4-8.23.81-5.31-2.83-10.27-8.14-11.08s-10.27 2.83-11.08 8.14c-.42 2.76.38 5.41 1.97 7.45-4.33 6.4-11.19 10.85-18.89 12.08v-40.34c3.2-1.59 5.41-4.86 5.41-8.67 0-5.37-4.35-9.72-9.72-9.72s-9.72 4.35-9.72 9.72c0 3.81 2.22 7.08 5.41 8.67v40.35c-7.72-1.22-14.58-5.67-18.92-12.08 1.59-2.04 2.39-4.69 1.97-7.45-.81-5.31-5.77-8.95-11.08-8.14s-8.95 5.77-8.14 11.08c.72 4.74 4.77 8.13 9.4 8.23 5.85 9.33 15.71 15.71 26.77 17.04v41.27c-16.12-1.59-29.98-12.06-36.1-26.83 2.1-2 3.31-4.89 3-8-.54-5.34-5.32-9.23-10.66-8.69s-9.23 5.32-8.69 10.66c.45 4.45 3.85 7.85 8.05 8.56 7.27 18.36 24.46 31.31 44.4 32.96v41.95h8.62V262.5c19.92-1.65 37.1-14.61 44.36-32.96Z" style="fill:#00524f"/><path d="M9.03 288.73A49.8 49.8 0 0 0 3 311.9C2.67 339.28 36.46 370 52.17 370c21.24 0 50.6-29.69 50.6-57.48 0-11.41-3.83-21.92-10.27-30.32-3.06-4-3.81-9.3-1.88-13.95a40.7 40.7 0 0 0 3.12-15.67c0-9.45-3.21-18.16-8.6-25.08-3.4-4.36-3.99-10.24-1.48-15.16a34.3 34.3 0 0 0 3.72-15.59c0-19.05-20.94-57.07-34.49-57.07-11.91 0-34.49 38.02-34.49 57.07a34.3 34.3 0 0 0 3.72 15.59c2.5 4.93 1.91 10.81-1.48 15.16a40.7 40.7 0 0 0-8.6 25.08c0 5.55 1.11 10.85 3.12 15.67 1.93 4.64 1.2 9.94-1.86 13.92a50 50 0 0 0-4.26 6.56" style="fill:url(#linear-gradient)"/><path d="M52.89 183.59v308.28m44.18-1.85v-70.79" class="st10"/><path d="M108.33 419.79c0-6.22-5.04-11.26-11.26-11.26s-11.26 5.04-11.26 11.26 5.04 11.26 11.26 11.26 11.26-5.04 11.26-11.26" class="st5"/><path d="M126.07 490.02v-44.84" class="st10"/><path d="M137.33 445.74c0-6.22-5.04-11.26-11.26-11.26s-11.26 5.04-11.26 11.26S119.85 457 126.07 457s11.26-5.04 11.26-11.26" class="st5"/><path d="M163.56 491.31H10.12" class="st10"/><path d="M350.79 276.03v5.32a9.09 9.09 0 0 1-9.09 9.09h-71.14a9.09 9.09 0 0 0-9.09 9.09v143.01a9.09 9.09 0 0 0 9.09 9.09h174.91a9.09 9.09 0 0 0 9.09-9.09V276.02a9.09 9.09 0 0 0-9.09-9.09h-85.58a9.09 9.09 0 0 0-9.09 9.09Z" style="fill:url(#linear-gradient1)"/><path d="M369.85 295.15v5.32a9.09 9.09 0 0 1-9.09 9.09h-71.14a9.09 9.09 0 0 0-9.09 9.09v143.01a9.09 9.09 0 0 0 9.09 9.09h174.91a9.09 9.09 0 0 0 9.09-9.09V295.14a9.09 9.09 0 0 0-9.09-9.09h-85.58a9.09 9.09 0 0 0-9.09 9.09Z" style="fill:url(#linear-gradient2)"/><path d="M393.23 318.15v5.32a9.09 9.09 0 0 1-9.09 9.09H313a9.09 9.09 0 0 0-9.09 9.09v143.01a9.09 9.09 0 0 0 9.09 9.09h174.91a9.09 9.09 0 0 0 9.09-9.09V318.14a9.09 9.09 0 0 0-9.09-9.09h-85.58a9.09 9.09 0 0 0-9.09 9.09Z" style="fill:url(#linear-gradient3)"/><path d="m460.5 111.55 11.58 6.68v13.37l-11.58 6.68-11.58-6.68v-13.37zm0-4.32-15.32 8.84v17.69l15.32 8.84 15.32-8.84v-17.69z" class="st5"/></svg>