<?xml version="1.0" encoding="UTF-8"?>
<svg id="text" xmlns="http://www.w3.org/2000/svg" xmlns:xlink="http://www.w3.org/1999/xlink" version="1.1" viewBox="0 0 500 500">
  <!-- Generator: Adobe Illustrator 30.2.1, SVG Export Plug-In . SVG Version: 2.1.1 Build 1)  -->
  <defs>
    <style>
      .st0 {
        fill: #bed675;
      }

      .st1 {
        fill: url(#linear-gradient2);
      }

      .st2 {
        fill: url(#linear-gradient1);
      }

      .st3 {
        fill: url(#linear-gradient3);
      }

      .st4 {
        fill: url(#linear-gradient);
      }

      .st5 {
        fill: #adcb53;
      }

      .st6 {
        fill: #fff;
      }

      .st7 {
        fill: #00524f;
      }

      .st8 {
        fill: #aecc53;
      }

      .st9 {
        stroke: #6fafac;
        stroke-miterlimit: 10;
        stroke-width: 2.5px;
      }

      .st9, .st10 {
        fill: none;
        stroke-linecap: round;
      }

      .st10 {
        stroke: #adcb53;
        stroke-linejoin: round;
        stroke-width: 3.74px;
      }

      .st11 {
        fill: #003834;
      }
    </style>
    <linearGradient id="linear-gradient" x1="52.89" y1="370" x2="52.89" y2="139.66" gradientUnits="userSpaceOnUse">
      <stop offset=".01" stop-color="#001815"/>
      <stop offset=".1" stop-color="#00322e"/>
      <stop offset=".2" stop-color="#004440"/>
      <stop offset=".3" stop-color="#00504b"/>
      <stop offset=".4" stop-color="#00544f"/>
      <stop offset=".46" stop-color="#065851"/>
      <stop offset=".54" stop-color="#196457"/>
      <stop offset=".63" stop-color="#377962"/>
      <stop offset=".74" stop-color="#619671"/>
      <stop offset=".85" stop-color="#96ba84"/>
      <stop offset=".95" stop-color="#cee098"/>
    </linearGradient>
    <linearGradient id="linear-gradient1" x1="261.46" y1="359.29" x2="454.56" y2="359.29" gradientUnits="userSpaceOnUse">
      <stop offset="0" stop-color="#6fafac"/>
      <stop offset=".32" stop-color="#479793"/>
      <stop offset=".78" stop-color="#137874"/>
      <stop offset="1" stop-color="#006d68"/>
    </linearGradient>
    <linearGradient id="linear-gradient2" x1="280.52" y1="378.41" x2="473.62" y2="378.41" gradientUnits="userSpaceOnUse">
      <stop offset=".28" stop-color="#cee098"/>
      <stop offset=".37" stop-color="#c5db96"/>
      <stop offset=".51" stop-color="#accd94"/>
      <stop offset=".69" stop-color="#85b78f"/>
      <stop offset=".9" stop-color="#4e9989"/>
      <stop offset="1" stop-color="#338a86"/>
    </linearGradient>
    <linearGradient id="linear-gradient3" x1="400.45" y1="493.76" x2="400.45" y2="309.06" gradientUnits="userSpaceOnUse">
      <stop offset="0" stop-color="#338a86"/>
      <stop offset=".59" stop-color="#003834"/>
    </linearGradient>
  </defs>
  <g>
    <g>
      <line class="st9" x1="495.76" y1="423.54" x2="11.72" y2="423.54"/>
      <line class="st9" x1="495.76" y1="357.11" x2="11.72" y2="357.11"/>
      <line class="st9" x1="495.76" y1="290.68" x2="11.72" y2="290.68"/>
      <line class="st9" x1="495.76" y1="224.25" x2="11.72" y2="224.25"/>
      <line class="st9" x1="495.76" y1="157.82" x2="11.72" y2="157.82"/>
      <line class="st9" x1="495.76" y1="91.39" x2="11.72" y2="91.39"/>
    </g>
    <g>
      <g>
        <line class="st9" x1="429.02" y1="6.24" x2="429.02" y2="491.53"/>
        <line class="st9" x1="362.59" y1="6.24" x2="362.59" y2="491.53"/>
        <line class="st9" x1="296.16" y1="6.24" x2="296.16" y2="457.56"/>
        <line class="st9" x1="229.73" y1="6.24" x2="229.73" y2="491.53"/>
        <line class="st9" x1="163.3" y1="6.24" x2="163.3" y2="491.53"/>
        <line class="st9" x1="96.86" y1="6.24" x2="96.86" y2="491.53"/>
      </g>
      <rect class="st0" x="447.11" y="181.52" width="26.2" height="26.2" transform="translate(272.41 -268.41) rotate(45)"/>
    </g>
  </g>
  <g>
    <g>
      <g>
        <g>
          <polygon class="st6" points="52.79 362.34 52.79 73.02 381.12 72.18 381.12 362.34 52.79 362.34"/>
          <path class="st5" d="M379.25,74.05v286.42H54.66V74.89l324.59-.84M382.99,70.3l-332.07.86v293.06h332.07V70.3h0Z"/>
        </g>
        <g>
          <rect class="st11" x="50.92" y="39.78" width="332.07" height="38.49"/>
          <g>
            <g>
              <rect class="st5" x="356.61" y="46.96" width="5.72" height="24.3" transform="translate(147.08 -236.87) rotate(45)"/>
              <rect class="st5" x="356.61" y="46.96" width="5.72" height="24.3" transform="translate(655.44 -153.27) rotate(135)"/>
            </g>
            <path class="st5" d="M323.49,52.53v13.74h-15.44v-13.74h15.44M327.05,49.07h-22.56v20.66h22.56v-20.66h0Z"/>
            <rect class="st5" x="260.03" y="65.17" width="22.56" height="4.55"/>
          </g>
        </g>
        <g>
          <path class="st8" d="M143.1,266.2v-50.88c0-.58-.16-1.15-.46-1.65l-5.37-9.01,5.37-9.01c.3-.5.46-1.07.46-1.65v-50.88c0-3.62,2.94-6.56,6.56-6.56h27v-6.46h-27c-7.18,0-13.03,5.84-13.03,13.03v49.99l-5.9,9.9c-.61,1.02-.61,2.29,0,3.31l5.9,9.9v49.99c0,7.18,5.85,13.03,13.03,13.03h27v-6.46h-27c-3.62,0-6.56-2.94-6.56-6.56Z"/>
          <path class="st8" d="M297.28,193.1v-49.99c0-7.18-5.84-13.03-13.03-13.03h-27v6.46h27c3.62,0,6.56,2.94,6.56,6.56v50.88c0,.58.16,1.15.46,1.66l5.37,9.01-5.37,9.01c-.3.5-.46,1.07-.46,1.66v50.88c0,3.62-2.94,6.56-6.56,6.56h-27v6.46h27c7.18,0,13.03-5.85,13.03-13.03v-49.99l5.9-9.9c.61-1.02.61-2.29,0-3.31l-5.9-9.9Z"/>
          <path class="st7" d="M265.64,229.52c4.2-.71,7.6-4.11,8.05-8.56.54-5.34-3.35-10.11-8.69-10.66-5.34-.54-10.11,3.35-10.66,8.69-.32,3.11.9,6,3,8-6.12,14.77-19.97,25.22-36.07,26.83v-41.27c11.04-1.34,20.89-7.72,26.74-17.03,4.64-.1,8.68-3.49,9.4-8.23.81-5.31-2.83-10.27-8.14-11.08-5.31-.81-10.27,2.83-11.08,8.14-.42,2.76.38,5.41,1.97,7.45-4.33,6.4-11.19,10.85-18.89,12.08v-40.34c3.2-1.59,5.41-4.86,5.41-8.67,0-5.37-4.35-9.72-9.72-9.72s-9.72,4.35-9.72,9.72c0,3.81,2.22,7.08,5.41,8.67v40.35c-7.72-1.22-14.58-5.67-18.92-12.08,1.59-2.04,2.39-4.69,1.97-7.45-.81-5.31-5.77-8.95-11.08-8.14-5.31.81-8.95,5.77-8.14,11.08.72,4.74,4.77,8.13,9.4,8.23,5.85,9.33,15.71,15.71,26.77,17.04v41.27c-16.12-1.59-29.98-12.06-36.1-26.83,2.1-2,3.31-4.89,3-8-.54-5.34-5.32-9.23-10.66-8.69-5.34.54-9.23,5.32-8.69,10.66.45,4.45,3.85,7.85,8.05,8.56,7.27,18.36,24.46,31.31,44.4,32.96v41.95h8.62v-41.95c19.92-1.65,37.1-14.61,44.36-32.96Z"/>
        </g>
      </g>
      <g>
        <path class="st4" d="M9.03,288.73c-3.75,6.9-5.92,14.79-6.03,23.17-.33,27.38,33.46,58.1,49.17,58.1,21.24,0,50.6-29.69,50.6-57.48,0-11.41-3.83-21.92-10.27-30.32-3.06-4-3.81-9.3-1.88-13.95,2.01-4.83,3.12-10.12,3.12-15.67,0-9.45-3.21-18.16-8.6-25.08-3.4-4.36-3.99-10.24-1.48-15.16,2.38-4.68,3.72-9.98,3.72-15.59,0-19.05-20.94-57.07-34.49-57.07-11.91,0-34.49,38.02-34.49,57.07,0,5.61,1.34,10.91,3.72,15.59,2.5,4.93,1.91,10.81-1.48,15.16-5.39,6.92-8.6,15.63-8.6,25.08,0,5.55,1.11,10.85,3.12,15.67,1.93,4.64,1.2,9.94-1.86,13.92-1.58,2.06-3.01,4.26-4.26,6.56"/>
        <line class="st10" x1="52.89" y1="183.59" x2="52.89" y2="491.87"/>
      </g>
      <g>
        <g>
          <line class="st10" x1="97.07" y1="490.02" x2="97.07" y2="419.23"/>
          <path class="st5" d="M108.33,419.79c0-6.22-5.04-11.26-11.26-11.26s-11.26,5.04-11.26,11.26,5.04,11.26,11.26,11.26,11.26-5.04,11.26-11.26Z"/>
        </g>
        <g>
          <line class="st10" x1="126.07" y1="490.02" x2="126.07" y2="445.18"/>
          <path class="st5" d="M137.33,445.74c0-6.22-5.04-11.26-11.26-11.26s-11.26,5.04-11.26,11.26,5.04,11.26,11.26,11.26,11.26-5.04,11.26-11.26Z"/>
        </g>
        <path class="st10" d="M163.56,491.31H10.12"/>
      </g>
      <path class="st2" d="M350.79,276.03v5.32c0,5.02-4.07,9.09-9.09,9.09h-71.14c-5.02,0-9.09,4.07-9.09,9.09v143.01c0,5.02,4.07,9.09,9.09,9.09h174.91c5.02,0,9.09-4.07,9.09-9.09v-166.52c0-5.02-4.07-9.09-9.09-9.09h-85.58c-5.02,0-9.09,4.07-9.09,9.09Z"/>
      <path class="st1" d="M369.85,295.15v5.32c0,5.02-4.07,9.09-9.09,9.09h-71.14c-5.02,0-9.09,4.07-9.09,9.09v143.01c0,5.02,4.07,9.09,9.09,9.09h174.91c5.02,0,9.09-4.07,9.09-9.09v-166.52c0-5.02-4.07-9.09-9.09-9.09h-85.58c-5.02,0-9.09,4.07-9.09,9.09Z"/>
      <path class="st3" d="M393.23,318.15v5.32c0,5.02-4.07,9.09-9.09,9.09h-71.14c-5.02,0-9.09,4.07-9.09,9.09v143.01c0,5.02,4.07,9.09,9.09,9.09h174.91c5.02,0,9.09-4.07,9.09-9.09v-166.52c0-5.02-4.07-9.09-9.09-9.09h-85.58c-5.02,0-9.09,4.07-9.09,9.09Z"/>
    </g>
    <path class="st5" d="M460.5,111.55l11.58,6.68v13.37l-11.58,6.68-11.58-6.68v-13.37l11.58-6.68M460.5,107.23l-15.32,8.84v17.69l15.32,8.84,15.32-8.84v-17.69l-15.32-8.84h0Z"/>
  </g>
</svg>