<?xml version="1.0" encoding="UTF-8"?>
<svg id="text" xmlns="http://www.w3.org/2000/svg" version="1.1" viewBox="0 0 50 50">
  <!-- Generator: Adobe Illustrator 30.2.1, SVG Export Plug-In . SVG Version: 2.1.1 Build 1)  -->
  <defs>
    <style>
      .st0 {
        fill: #00524f;
      }

      .st1 {
        fill: #aecc53;
      }
    </style>
  </defs>
  <path class="st1" d="M4.55,38.55v-14.09c0-.16-.04-.32-.13-.46l-1.49-2.5,1.49-2.5c.08-.14.13-.3.13-.46V4.47c0-1,.82-1.82,1.82-1.82h7.47V.86h-7.47c-1.99,0-3.61,1.62-3.61,3.61v13.84l-1.63,2.74c-.17.28-.17.63,0,.92l1.63,2.74v13.84c0,1.99,1.62,3.61,3.61,3.61h7.47v-1.79h-7.47c-1,0-1.82-.82-1.82-1.82Z"/>
  <path class="st1" d="M47.24,18.31V4.47c0-1.99-1.62-3.61-3.61-3.61h-7.47v1.79h7.47c1,0,1.82.82,1.82,1.82v14.09c0,.16.04.32.13.46l1.49,2.49-1.49,2.49c-.08.14-.13.3-.13.46v14.09c0,1-.82,1.82-1.82,1.82h-7.47v1.79h7.47c1.99,0,3.61-1.62,3.61-3.61v-13.84l1.63-2.74c.17-.28.17-.63,0-.92l-1.63-2.74Z"/>
  <path class="st0" d="M38.48,28.4c1.16-.2,2.1-1.14,2.23-2.37.15-1.48-.93-2.8-2.41-2.95-1.48-.15-2.8.93-2.95,2.41-.09.86.25,1.66.83,2.21-1.69,4.09-5.53,6.98-9.99,7.43v-11.43c3.06-.37,5.78-2.14,7.4-4.72,1.28-.03,2.4-.97,2.6-2.28.22-1.47-.78-2.84-2.25-3.07-1.47-.22-2.84.78-3.07,2.25-.12.76.1,1.5.55,2.06-1.2,1.77-3.1,3-5.23,3.34v-11.17c.88-.44,1.5-1.35,1.5-2.4,0-1.49-1.21-2.69-2.69-2.69s-2.69,1.21-2.69,2.69c0,1.06.61,1.96,1.5,2.4v11.17c-2.14-.34-4.04-1.57-5.24-3.34.44-.56.66-1.3.55-2.06-.22-1.47-1.6-2.48-3.07-2.25-1.47.22-2.48,1.6-2.25,3.07.2,1.31,1.32,2.25,2.6,2.28,1.62,2.58,4.35,4.35,7.41,4.72v11.43c-4.46-.44-8.3-3.34-10-7.43.58-.55.92-1.35.83-2.21-.15-1.48-1.47-2.56-2.95-2.41-1.48.15-2.56,1.47-2.41,2.95.13,1.23,1.07,2.17,2.23,2.37,2.01,5.08,6.77,8.67,12.29,9.13v11.62h2.39v-11.62c5.52-.46,10.27-4.05,12.28-9.13Z"/>
</svg>