<svg xmlns="http://www.w3.org/2000/svg" width="88" height="144" fill="none" viewBox="0 0 88 144"><path fill="#aecc53" d="M75.252 119.186a6.6 6.6 0 0 0 2.357-4.504 6.7 6.7 0 0 0-1.525-4.873 6.7 6.7 0 0 0-4.514-2.389 6.62 6.62 0 0 0-4.858 1.496l-26.128 21.726a54 54 0 0 1-6.701-6.731 41 41 0 0 1-4.55-7.07l25.995-21.615a6.63 6.63 0 0 0 2.14-4.465 6.72 6.72 0 0 0-1.54-4.73 6.72 6.72 0 0 0-4.369-2.377 6.63 6.63 0 0 0-4.78 1.29l-22.996 19.122c-2.05-5.55-4.002-11.745-5.85-18.29l17.462-14.522a6.6 6.6 0 0 0 2.356-4.504 6.7 6.7 0 0 0-1.525-4.873 6.7 6.7 0 0 0-4.513-2.389 6.6 6.6 0 0 0-4.858 1.496l-12.65 10.518c-1.63-6.463-3.062-13.092-4.41-19.508l5.666-4.711a6.6 6.6 0 0 0 2.357-4.504 6.7 6.7 0 0 0-1.525-4.874 6.7 6.7 0 0 0-4.514-2.388 6.6 6.6 0 0 0-4.858 1.495l-.11.092C2.932 16.684.668.95.668.95s15.068 5.088 34.428 12.635l-.11.092a6.6 6.6 0 0 0-2.357 4.504 6.7 6.7 0 0 0 1.525 4.873 6.7 6.7 0 0 0 4.514 2.389 6.6 6.6 0 0 0 4.858-1.496l5.677-4.72a588 588 0 0 1 18.364 7.903L54.92 37.647a6.6 6.6 0 0 0-2.357 4.504 6.7 6.7 0 0 0 1.525 4.874 6.7 6.7 0 0 0 4.514 2.388 6.6 6.6 0 0 0 4.858-1.495l17.474-14.53c6.089 3 11.834 6.06 16.917 9.089l-23.007 19.13a6.63 6.63 0 0 0-2.14 4.466 6.72 6.72 0 0 0 1.54 4.73 6.72 6.72 0 0 0 4.369 2.376 6.63 6.63 0 0 0 4.78-1.29l26.006-21.625a42 42 0 0 1 6.121 5.763 54 54 0 0 1 5.396 7.817l-26.14 21.735a6.6 6.6 0 0 0-2.357 4.504 6.7 6.7 0 0 0 1.526 4.874 6.7 6.7 0 0 0 4.513 2.388 6.6 6.6 0 0 0 4.858-1.495l22.885-19.03a53.33 53.33 0 0 1-.795 29.685 52.83 52.83 0 0 1-16.543 24.547A52.84 52.84 0 0 1 81.71 142.84a53.34 53.34 0 0 1-29.332-4.633z"/></svg>