<svg xmlns="http://www.w3.org/2000/svg" width="75" height="130" fill="none" viewBox="0 0 75 130"><path fill="#aecc53" d="M-6.35 23.753a6.28 6.28 0 0 0-1.836 4.464 6.36 6.36 0 0 0 1.866 4.475 6.36 6.36 0 0 0 4.475 1.866 6.28 6.28 0 0 0 4.464-1.836L25.434 9.906a51 51 0 0 1 6.922 5.782 39 39 0 0 1 4.917 6.289l-22.7 22.7a6.3 6.3 0 0 0-1.635 4.407 6.38 6.38 0 0 0 1.867 4.338 6.38 6.38 0 0 0 4.338 1.868 6.3 6.3 0 0 0 4.408-1.636l20.08-20.08c2.422 5.069 4.806 10.758 7.124 16.786l-15.25 15.249a6.28 6.28 0 0 0-1.836 4.463 6.36 6.36 0 0 0 1.866 4.476 6.36 6.36 0 0 0 4.476 1.866 6.28 6.28 0 0 0 4.463-1.837L55.52 63.532c2.104 5.97 4.034 12.112 5.867 18.062l-4.948 4.947a6.28 6.28 0 0 0-1.836 4.464 6.36 6.36 0 0 0 1.866 4.475 6.36 6.36 0 0 0 4.475 1.866 6.28 6.28 0 0 0 4.464-1.837l.096-.096c5.443 18.972 8.953 33.652 8.953 33.652s-14.69-3.5-33.652-8.953l.096-.096a6.28 6.28 0 0 0 1.837-4.464 6.36 6.36 0 0 0-1.866-4.475 6.36 6.36 0 0 0-4.476-1.866 6.28 6.28 0 0 0-4.463 1.836l-4.957 4.958a557 557 0 0 1-18.052-5.877l11.045-11.045a6.28 6.28 0 0 0 1.837-4.463 6.36 6.36 0 0 0-1.866-4.476 6.36 6.36 0 0 0-4.476-1.866A6.28 6.28 0 0 0 11 90.115l-15.26 15.258c-6.018-2.307-11.717-4.701-16.786-7.122l20.09-20.09A6.3 6.3 0 0 0 .68 73.753a6.38 6.38 0 0 0-1.868-4.338 6.38 6.38 0 0 0-4.338-1.868 6.3 6.3 0 0 0-4.408 1.636L-32.642 91.89a40 40 0 0 1-6.289-4.916 51 51 0 0 1-5.781-6.922l22.825-22.825a6.28 6.28 0 0 0 1.836-4.463 6.36 6.36 0 0 0-1.866-4.476 6.36 6.36 0 0 0-4.475-1.866 6.28 6.28 0 0 0-4.464 1.837L-50.84 68.244a50.64 50.64 0 0 1-1.83-28.138 50.17 50.17 0 0 1 13.508-24.65A50.17 50.17 0 0 1-14.513 1.95a50.64 50.64 0 0 1 28.138 1.83z"/></svg>