<svg width="320" height="320" viewBox="0 0 320 320" fill="none" xmlns="http://www.w3.org/2000/svg">
<path d="M160 23C225.71 23 279.06 76.35 279.06 142.06V243H40.9399V142.06C40.9399 76.35 94.2899 23 160 23Z" fill="#FBFCF6"/>
<path d="M318 293H2V302H318V293Z" fill="#CEE098"/>
<path d="M281.64 240H38.36L2 293H318L281.64 240Z" fill="#006E69"/>
<path d="M164.4 53.62C178.334 53.62 189.63 42.3241 189.63 28.39C189.63 14.4559 178.334 3.16 164.4 3.16C150.466 3.16 139.17 14.4559 139.17 28.39C139.17 42.3241 150.466 53.62 164.4 53.62Z" fill="black"/>
<path d="M126.81 134.4C130.65 133.37 134.65 132.66 138.59 133.22C144.73 134.09 150.23 137.65 151.17 144.3C152.33 152.52 145.55 156.64 139.18 160.01C134.11 162.69 129.74 165.11 125.72 169.13C125.35 169.5 124.98 169.88 124.62 170.28C122.34 172.77 120.19 175.47 119.09 178.65C117.45 183.4 118.43 188.4 119.99 193.03C121.65 197.95 124.28 199.37 126.45 203.49C130.37 210.94 130.44 220.18 129.95 228.38C129.8 230.86 128.14 244.58 124.88 244.71C118.62 244.96 112.33 244.59 106.14 243.6C92.8 241.47 84.31 230.51 76.22 220.75C66.93 209.53 67.72 196.44 73.66 184.23C84.94 161.05 101.78 141.13 126.82 134.39L126.81 134.4Z" fill="#AECC53"/>
<path d="M207.69 134.83C203.85 133.8 199.85 133.09 195.91 133.65C189.77 134.52 184.27 138.08 183.33 144.73C182.17 152.95 188.95 157.07 195.32 160.44C200.39 163.12 204.76 165.54 208.78 169.56C209.15 169.93 209.52 170.31 209.88 170.71C212.16 173.2 214.31 175.9 215.41 179.08C217.05 183.83 216.07 188.83 214.51 193.45C213.29 197.06 210.36 199.29 208.81 202.61C207.02 206.45 210.59 210.67 212.82 213.93C214.8 216.82 216.87 219.81 219.89 221.6C222.25 223 225.02 223.56 227.74 223.94C233.92 224.8 240.21 224.87 246.41 224.17C253.01 223.42 257.65 223.05 261.18 217.1C267.21 206.92 265.53 195.01 260.85 184.67C250.47 161.74 232.73 141.57 207.69 134.83Z" fill="#AECC53"/>
<path d="M94.13 153.6C104.9 143.48 116.17 137.26 126.82 134.4C130.66 133.37 134.66 132.66 138.6 133.22C144.74 134.09 150.24 137.65 151.18 144.3C152.34 152.52 145.56 156.64 139.19 160.01C134.12 162.69 129.75 165.11 125.73 169.13" stroke="#006E69" stroke-width="0.83" stroke-linecap="round" stroke-linejoin="round"/>
<path d="M80.7101 171.26C83.4101 165.46 87.6901 160.54 91.7701 155.71C92.1001 155.29 92.7701 155.81 92.4201 156.23C88.0801 160.94 83.6901 165.54 80.7101 171.26Z" fill="#006E69"/>
<path d="M240.93 155.06C230.95 145.28 218.07 137.73 207.26 134.83C203.42 133.8 199.42 133.09 195.48 133.65C189.34 134.52 183.84 138.08 182.9 144.73C181.74 152.95 188.52 157.07 194.89 160.44C199.96 163.12 204.33 165.54 208.35 169.56C208.72 169.93 209.09 170.31 209.45 170.71" stroke="#006E69" stroke-width="0.83" stroke-linecap="round" stroke-linejoin="round"/>
<path d="M252.92 170.71C250.71 166.8 247.97 163.22 244.95 159.94C244.57 159.54 245.23 158.96 245.58 159.4C248.42 162.91 250.95 166.68 252.92 170.71Z" fill="#006E69"/>
<path d="M150.31 130.81H182.45C205.42 130.81 224.07 149.46 224.07 172.43V257.35H108.69V172.43C108.69 149.46 127.34 130.81 150.31 130.81Z" fill="#006E69"/>
<path d="M231.64 173.88C231.64 173.88 231.64 173.88 231.64 173.89C230.96 179.45 229.45 185.94 224.92 189.51C221.46 192.22 201.1 187 197.09 197.11C193.99 204.94 194.03 207.07 192.76 215.19C192.38 217.65 185.2 230.59 206.89 236.7C212.92 238.4 219.18 239.24 225.44 239.58C240.34 240.4 256.45 228.6 265.78 217.85C273.8 208.6 271.96 195.58 266.98 185.29C263.56 178.21 257.31 171.16 250.68 166.95C243.5 162.39 232.89 163.58 231.64 173.88Z" fill="#AECC53"/>
<path d="M239.03 173.73C232.51 173.81 227.49 179.41 223.67 184.06C223.43 184.03 223.44 183.68 223.53 183.45C225.26 178.87 227.63 174.05 231.89 171.39C236.18 168.71 241.36 167.43 246.41 167.87" stroke="#006E69" stroke-width="0.83" stroke-linecap="round" stroke-linejoin="round"/>
<path d="M252.02 175.02C248.98 174.36 246.77 173.83 243.68 174.29" stroke="#006E69" stroke-width="0.83" stroke-linecap="round" stroke-linejoin="round"/>
<path d="M220.44 191.74C224.57 193.31 228.01 196.82 230.05 200.58C232.59 205.28 233.22 210.79 232.31 216.01C230.69 225.28 225.17 234.87 216.28 238.64" stroke="#006E69" stroke-width="0.83" stroke-linecap="round" stroke-linejoin="round"/>
<path d="M228.73 199.25C226.85 199.57 225.48 200.43 224.02 201.58" stroke="#006E69" stroke-width="0.83" stroke-linecap="round" stroke-linejoin="round"/>
<path d="M231.43 204.95C229.74 205.51 228.04 206.09 226.39 206.73" stroke="#006E69" stroke-width="0.83" stroke-linecap="round" stroke-linejoin="round"/>
<path d="M232.28 213.45C230.75 214.01 228.8 213.73 227.19 213.71" stroke="#006E69" stroke-width="0.83" stroke-linecap="round" stroke-linejoin="round"/>
<path d="M230.44 222.18C228.25 221.72 226.11 221.04 224.06 220.17" stroke="#006E69" stroke-width="0.83" stroke-linecap="round" stroke-linejoin="round"/>
<path d="M106.7 212.21C106.5 210.81 106.28 209.42 106.04 208.04C105.4 204.33 104.35 200.92 103.48 197.31C102.73 194.25 102.61 190.9 100.67 188.27C95.69 181.48 87.42 177.37 79.84 174.21C75.13 172.25 66.46 168.48 62.19 173.02C61.06 174.22 60.39 176.67 59.73 178.17C58.18 181.67 56.84 185.26 55.73 188.92C51.38 203.19 59 221.66 67.22 233.28C74.29 243.27 87.37 244.59 98.55 242.21C103.71 241.11 105.91 237.75 106.84 232.67C108.08 225.9 107.68 219 106.72 212.21H106.7Z" fill="#AECC53"/>
<path d="M102.78 195.15C95.8501 201.77 86.3501 202.82 77.7301 199.04C69.1101 195.26 61.1201 187.61 59.5701 178.08" stroke="#006E69" stroke-width="0.83" stroke-linecap="round" stroke-linejoin="round"/>
<path d="M94.8701 199.55C95.0001 197.65 94.5001 196.11 93.7301 194.42" stroke="#006E69" stroke-width="0.83" stroke-linecap="round" stroke-linejoin="round"/>
<path d="M88.69 200.82C88.55 199.04 88.39 197.26 88.16 195.5" stroke="#006E69" stroke-width="0.83" stroke-linecap="round" stroke-linejoin="round"/>
<path d="M80.2201 199.62C80.0401 198 80.7801 196.17 81.1801 194.62" stroke="#006E69" stroke-width="0.83" stroke-linecap="round" stroke-linejoin="round"/>
<path d="M72.1901 195.75C73.1601 193.74 74.3301 191.82 75.6701 190.03" stroke="#006E69" stroke-width="0.83" stroke-linecap="round" stroke-linejoin="round"/>
<path d="M249.22 168.18C257.37 169.56 262.38 176.7 266.09 183.43C265.07 181.77 264.02 180.14 262.88 178.57C259.64 173.91 254.84 169.75 249.1 169C248.55 168.94 248.66 168.09 249.22 168.17V168.18Z" fill="#006E69"/>
<path d="M166.38 53.68C182.004 53.68 194.67 46.7852 194.67 38.28C194.67 29.7748 182.004 22.88 166.38 22.88C150.756 22.88 138.09 29.7748 138.09 38.28C138.09 46.7852 150.756 53.68 166.38 53.68Z" fill="#AECC53"/>
<path d="M135.37 117.9H197.09V121.96C197.09 138.99 183.26 152.82 166.23 152.82C149.2 152.82 135.37 138.99 135.37 121.96V117.9Z" fill="#003834"/>
<path d="M166.23 127.94C182.782 127.94 196.2 123.637 196.2 118.33C196.2 113.023 182.782 108.72 166.23 108.72C149.678 108.72 136.26 113.023 136.26 118.33C136.26 123.637 149.678 127.94 166.23 127.94Z" fill="black"/>
<path d="M166.23 127.94C182.782 127.94 196.2 123.637 196.2 118.33C196.2 113.023 182.782 108.72 166.23 108.72C149.678 108.72 136.26 113.023 136.26 118.33C136.26 123.637 149.678 127.94 166.23 127.94Z" stroke="#AECC53" stroke-width="3.36" stroke-miterlimit="10"/>
<path d="M150.47 150.4C150.41 150.4 150.35 150.4 150.29 150.37C147.8 149.63 145.45 147.42 144.22 145.55C141.29 141.1 141.51 136.19 141.94 131.93C141.98 131.58 142.29 131.33 142.63 131.37C142.98 131.41 143.23 131.71 143.19 132.06C142.68 137.08 142.84 141.17 145.27 144.86C146.57 146.84 148.78 148.61 150.64 149.16C150.97 149.26 151.16 149.61 151.06 149.94C150.98 150.21 150.73 150.39 150.46 150.39L150.47 150.4Z" fill="#006E69"/>
<path d="M181.94 150.47C181.68 150.47 181.44 150.31 181.35 150.05C181.23 149.72 181.4 149.36 181.73 149.24C183.76 148.52 185.58 146.73 186.73 144.33C187.85 141.99 187.96 139.43 188.07 136.71C188.12 135.4 188.18 134.05 188.36 132.74C188.41 132.4 188.73 132.15 189.07 132.2C189.41 132.25 189.66 132.57 189.61 132.91C189.44 134.16 189.38 135.48 189.33 136.76C189.22 139.48 189.1 142.29 187.87 144.87C186.58 147.56 184.5 149.58 182.16 150.42C182.09 150.44 182.02 150.46 181.95 150.46L181.94 150.47Z" fill="#006E69"/>
<path d="M159.37 153.07C159.32 153.07 159.26 153.07 159.21 153.05C156.94 152.46 155.13 150.47 154.59 147.99C154.14 145.9 154.13 143.34 154.12 141.08C154.12 140.82 154.12 140.56 154.12 140.31C154.12 139.96 154.4 139.68 154.75 139.68C155.1 139.68 155.38 139.96 155.38 140.31C155.38 140.56 155.38 140.82 155.38 141.09C155.39 143.28 155.4 145.77 155.82 147.74C156.26 149.76 157.71 151.37 159.52 151.85C159.86 151.94 160.06 152.28 159.97 152.62C159.9 152.9 159.64 153.09 159.36 153.09L159.37 153.07Z" fill="#006E69"/>
<path d="M175.18 152.94C174.91 152.94 174.67 152.77 174.58 152.51C174.47 152.18 174.65 151.82 174.98 151.72C178.75 150.49 179.52 145.32 179.02 141.27C178.98 140.92 179.22 140.61 179.57 140.57C179.92 140.53 180.23 140.77 180.27 141.12C180.85 145.86 179.86 151.46 175.37 152.92C175.31 152.94 175.24 152.95 175.17 152.95L175.18 152.94Z" fill="#006E69"/>
<path d="M214.278 89.9107C217.881 84.4469 217.483 77.8292 213.388 75.1294C209.294 72.4297 203.054 74.6704 199.452 80.1341C195.849 85.5979 196.247 92.2156 200.342 94.9153C204.436 97.6151 210.676 95.3744 214.278 89.9107Z" fill="#C3C3C3" stroke="white" stroke-width="0.61" stroke-miterlimit="10"/>
<path d="M132.41 94.93C136.504 92.2303 136.902 85.6125 133.3 80.1488C129.697 74.6851 123.457 72.4444 119.363 75.1441C115.269 77.8439 114.87 84.4616 118.473 89.9254C122.076 95.3891 128.315 97.6298 132.41 94.93Z" fill="#C3C3C3" stroke="white" stroke-width="0.61" stroke-miterlimit="10"/>
<path d="M166.38 122.49C188.742 122.49 206.87 104.362 206.87 82C206.87 59.638 188.742 41.51 166.38 41.51C144.018 41.51 125.89 59.638 125.89 82C125.89 104.362 144.018 122.49 166.38 122.49Z" fill="#C3C3C3" stroke="white" stroke-width="0.61" stroke-miterlimit="10"/>
<path d="M172.63 101.31C171.45 103.56 169.1 105.09 166.38 105.09C163.66 105.09 161.31 103.55 160.13 101.31" stroke="black" stroke-width="0.52" stroke-linecap="round" stroke-linejoin="bevel"/>
<path d="M207.36 91.23C208.62 90.73 209.66 89.7 210.15 88.44C210.46 87.66 210.54 86.7 210.03 86.02C209.52 85.34 208.3 85.26 207.91 86.02C208.05 84.59 208.66 83.07 209.51 81.91C210.36 80.75 211.84 79.95 213.25 80.25" stroke="black" stroke-width="0.52" stroke-linecap="round" stroke-linejoin="bevel"/>
<path d="M125.41 91.23C124.15 90.73 123.11 89.7 122.62 88.44C122.31 87.66 122.23 86.7 122.74 86.02C123.25 85.34 124.47 85.26 124.86 86.02C124.72 84.59 124.11 83.07 123.26 81.91C122.41 80.75 120.93 79.95 119.52 80.25" stroke="black" stroke-width="0.52" stroke-linecap="round" stroke-linejoin="bevel"/>
<path d="M147.56 90.23C149.195 90.23 150.52 88.9048 150.52 87.27C150.52 85.6352 149.195 84.31 147.56 84.31C145.925 84.31 144.6 85.6352 144.6 87.27C144.6 88.9048 145.925 90.23 147.56 90.23Z" fill="black"/>
<path d="M185.2 90.23C186.835 90.23 188.16 88.9048 188.16 87.27C188.16 85.6352 186.835 84.31 185.2 84.31C183.565 84.31 182.24 85.6352 182.24 87.27C182.24 88.9048 183.565 90.23 185.2 90.23Z" fill="black"/>
<path d="M167.32 53.97C175.267 53.97 181.71 47.5274 181.71 39.58C181.71 31.6326 175.267 25.19 167.32 25.19C159.373 25.19 152.93 31.6326 152.93 39.58C152.93 47.5274 159.373 53.97 167.32 53.97Z" fill="black"/>
<path d="M125.89 82C119.58 65 132.9 46.49 148.82 40.42C165.44 33.5 186.25 37.18 198.72 50.39C206.62 58.51 211.05 71.35 206.88 82C199.74 63.87 184.04 55.47 166.39 55.1C148.74 55.43 133 63.86 125.9 82H125.89Z" fill="black"/>
<path d="M146.18 55.16C152.222 55.16 157.12 50.262 157.12 44.22C157.12 38.178 152.222 33.28 146.18 33.28C140.138 33.28 135.24 38.178 135.24 44.22C135.24 50.262 140.138 55.16 146.18 55.16Z" fill="black"/>
<path d="M133.54 61.54C137.389 61.54 140.51 58.4194 140.51 54.57C140.51 50.7206 137.389 47.6 133.54 47.6C129.691 47.6 126.57 50.7206 126.57 54.57C126.57 58.4194 129.691 61.54 133.54 61.54Z" fill="black"/>
<path d="M199.22 61.54C203.069 61.54 206.19 58.4194 206.19 54.57C206.19 50.7206 203.069 47.6 199.22 47.6C195.371 47.6 192.25 50.7206 192.25 54.57C192.25 58.4194 195.371 61.54 199.22 61.54Z" fill="black"/>
<path d="M189.35 55.16C195.392 55.16 200.29 50.262 200.29 44.22C200.29 38.178 195.392 33.28 189.35 33.28C183.308 33.28 178.41 38.178 178.41 44.22C178.41 50.262 183.308 55.16 189.35 55.16Z" fill="black"/>
<path d="M167.32 68.08C175.267 68.08 181.71 61.6374 181.71 53.69C181.71 45.7426 175.267 39.3 167.32 39.3C159.373 39.3 152.93 45.7426 152.93 53.69C152.93 61.6374 159.373 68.08 167.32 68.08Z" fill="black"/>
<path d="M146.18 69.26C152.222 69.26 157.12 64.362 157.12 58.32C157.12 52.278 152.222 47.38 146.18 47.38C140.138 47.38 135.24 52.278 135.24 58.32C135.24 64.362 140.138 69.26 146.18 69.26Z" fill="black"/>
<path d="M189.35 69.26C195.392 69.26 200.29 64.362 200.29 58.32C200.29 52.278 195.392 47.38 189.35 47.38C183.308 47.38 178.41 52.278 178.41 58.32C178.41 64.362 183.308 69.26 189.35 69.26Z" fill="black"/>
<path d="M152.71 76.17C147.61 74.05 133.3 78.95 133.3 78.95C133.3 78.95 135.05 90.43 145.04 94.65C150.13 96.8 155.99 94.35 158.11 89.24C160.23 84.14 157.81 78.29 152.7 76.17H152.71Z" stroke="white" stroke-width="2.29" stroke-linejoin="round"/>
<path d="M180.05 76.17C185.15 74.05 199.46 78.95 199.46 78.95C199.46 78.95 197.71 90.43 187.72 94.65C182.63 96.8 176.77 94.35 174.65 89.24C172.53 84.14 174.95 78.29 180.06 76.17H180.05Z" stroke="white" stroke-width="2.29" stroke-linejoin="round"/>
<path d="M174.13 85.34C171.75 82.86 161.01 82.86 158.63 85.34" stroke="white" stroke-width="2.29" stroke-linejoin="round"/>
<path d="M88.98 183.09C86.25 184.8 82.61 185.06 80.71 182.02C78.25 178.09 82.71 173.42 79.31 169.51C77.57 167.52 75.21 166.83 72.63 167.2C67.48 167.95 62.42 172.45 60.2 177.02C60.13 177.17 60.03 177.34 59.86 177.37C57.94 177.68 52.91 175.28 52 173.51C51.13 171.8 52.5 169.74 53.45 168.41C59.69 159.66 71.4 151.36 82.52 155.05C91.45 158.01 96.61 167.68 93.59 176.8C92.76 179.32 91.23 181.68 88.98 183.08V183.09Z" fill="#EDECEC" stroke="#EDECEC" stroke-width="0.08" stroke-miterlimit="10"/>
<path d="M76.9801 181.34C81.8801 180 85.3601 174.96 85.3301 169.88C85.3001 164.8 82.0501 159.99 77.5401 157.64C74.2901 155.94 70.2301 155.47 66.9601 157.14C61.4301 159.97 61.5101 166.94 65.8301 170.73C67.8301 172.48 69.5501 173.67 70.7201 176.2C72.1401 179.28 72.6201 182.54 76.9701 181.35L76.9801 181.34Z" fill="#878787"/>
<path d="M81.1901 160.39C80.9001 161.57 79.7501 162.36 78.7801 163.1C77.6301 163.97 76.2601 164.69 74.8101 164.61C71.3501 164.43 68.9601 162.44 65.4401 164.05C60.7101 166.21 57.1101 171.95 56.2601 176.96C56.2301 177.13 56.1901 177.32 56.0301 177.39C54.2801 178.22 51.0201 178.22 49.8301 176.52C47.6901 173.47 49.2001 166.97 50.1101 163.64C52.2001 156.02 58.9601 148.69 67.2401 148.53C72.7601 148.42 83.4701 151.08 81.1801 160.4L81.1901 160.39Z" fill="#C3C3C3"/>
<path d="M82.52 155.05C91.45 158.01 96.61 167.68 93.59 176.8C92.76 179.32 91.23 181.68 88.98 183.08C86.25 184.79 82.61 185.05 80.71 182.01C78.25 178.08 82.71 173.41 79.31 169.5C77.57 167.51 75.21 166.82 72.63 167.19C68.92 167.73 65.56 170.05 63.09 172.79C61.87 174.14 61.18 175.75 60.1 177.17C58.95 178.69 57.33 177.67 55.93 176.86C55.37 176.54 54.77 176.16 54.56 175.55C54.48 175.3 54.47 175.03 54.47 174.76C54.44 170.7 55.26 166.56 57.36 163.04C58.43 161.26 59.81 159.67 61.44 158.39C62.95 157.2 64.46 155.79 66.33 155.27C68.99 154.52 71.7 154.57 74.39 154.19C77.08 153.81 79.97 154.19 82.52 155.04V155.05Z" fill="#C3C3C3"/>
<path d="M72.9501 154.31C65.1601 152.8 57.8101 159.4 55.4501 166.35C54.6101 168.84 54.1701 171.45 54.0001 174.07C53.8701 176.03 55.2301 177.22 57.0001 177.67C59.8501 178.4 60.7001 176.39 62.2001 174.29C63.7101 172.17 65.5201 170.21 67.7701 168.9C70.7101 167.2 76.0401 165.36 79.3001 169.51" stroke="white" stroke-width="0.64" stroke-linecap="round" stroke-linejoin="round"/>
<path d="M77.8001 150.66C70.7301 147.78 63.5801 146.9 57.3501 152.14C52.6701 156.07 49.4801 162.12 49.0201 168.23C48.8301 170.73 48.1801 175.58 50.4901 177.3C51.7001 178.2 53.8801 178.05 55.2601 177.93" stroke="white" stroke-width="0.64" stroke-linecap="round" stroke-linejoin="round"/>
<path d="M54.16 172.4C54.94 170.56 56.32 169.08 58.46 170.13C61.33 171.54 59.95 175.08 59.7 177.48" stroke="white" stroke-width="0.64" stroke-linecap="round" stroke-linejoin="round"/>
<path d="M49.0701 172.12C50.3401 169.39 53.5201 169.81 54.1801 172.75" stroke="white" stroke-width="0.64" stroke-linecap="round" stroke-linejoin="round"/>
<path d="M87.5401 187.47C86.0001 188.45 84.3401 189.33 82.8201 189.62C79.3201 190.28 75.5601 189.49 72.2001 188.52C67.0001 187.02 61.2901 185.22 55.8301 185.38C55.4001 185.39 54.8501 185.34 54.7101 184.93C54.3301 183.82 56.0601 180.15 56.8501 179.24C58.2101 177.67 60.7001 177.16 62.6501 176.98C66.9901 176.57 71.2401 178.12 75.3201 175.84C78.5101 174.06 78.9401 170.97 81.8301 168.81C87.7201 164.41 95.9501 169.13 95.8301 176.15C95.7701 179.62 93.1401 183.51 90.4001 185.51C89.5701 186.12 88.5901 186.83 87.5501 187.49L87.5401 187.47Z" fill="#C3C3C3"/>
<path d="M80.1601 177.06C80.4101 169.88 79.6501 162.42 78.3801 155.34C78.1701 154.14 77.5701 153.03 77.2201 151.85C76.3101 148.77 75.4201 145.66 75.1401 142.44C74.4901 134.84 76.9601 132.88 82.8101 133.47C83.5101 133.54 84.2601 133.7 84.7201 134.24C85.0901 134.68 85.1901 135.29 85.2801 135.86C85.7701 138.97 86.0601 142.38 87.3101 145.26C88.6801 148.41 91.0901 153.03 92.8301 155.98C95.1501 159.92 96.5201 162.92 96.9201 167.46C97.1801 170.41 97.1601 174.84 95.8201 177.48C94.2901 180.49 91.5801 182.26 88.1501 182.81C85.2201 183.28 81.4301 182.76 80.3601 179.52C80.1001 178.73 80.1301 177.89 80.1601 177.06Z" fill="#C3C3C3"/>
<path d="M54.7401 184.9C58.4201 186.27 62.8901 185.76 66.8801 186.97C70.1901 187.98 73.9301 189.76 77.4501 189.94C84.8801 190.32 87.1701 188.07 91.6901 184.46C96.1701 180.87 97.5101 173.88 97.3301 168.31C97.2201 164.68 95.9201 161.32 94.0901 158.19C92.0301 154.69 90.3201 151.23 88.6901 147.49C87.2101 144.08 85.8701 139.99 85.2901 136.31C85.1801 135.63 85.0701 134.92 84.6301 134.39C84.0901 133.75 83.2001 133.56 82.3701 133.47C75.4401 132.77 74.6801 137.04 75.2501 143.28C75.6001 147.17 76.7801 149.6 77.7801 153.37C78.7801 157.14 82.3701 166.45 79.8101 170.17" stroke="white" stroke-width="0.74" stroke-linecap="round" stroke-linejoin="round"/>
<path d="M64.05 185.9C64.3 184.8 63.75 183.66 62.96 182.85C60.48 180.31 54.93 180.56 54.67 184.77" stroke="white" stroke-width="0.74" stroke-linecap="round" stroke-linejoin="round"/>
<path d="M81.13 133.84C80.88 136.03 80.42 139.58 82.93 140.8C83.77 141.21 84.83 141.14 85.61 140.63" stroke="white" stroke-width="0.62" stroke-linecap="round" stroke-linejoin="round"/>
<path d="M163.93 263.91C144.34 254.22 83.2001 269.29 83.0401 269.56C80.9101 272.91 73.4501 282.87 70.5601 286.83C69.6201 288.11 70.9601 289.96 71.7201 289.91L159.97 283.73C162.64 283.57 163.94 263.92 163.94 263.92L163.93 263.91Z" fill="white"/>
<path d="M159.14 279.67H170.2C171.33 279.67 172.25 280.59 172.25 281.72C172.25 285.63 169.07 288.81 165.16 288.81H164.17C160.26 288.81 157.08 285.63 157.08 281.72C157.08 280.59 158 279.67 159.13 279.67H159.14Z" fill="white"/>
<path d="M163.79 261.97C164.06 240.11 83.0601 267.35 82.9001 267.62C80.7701 270.97 73.1701 282.32 70.6901 286.55C70.3101 287.21 70.8101 288.02 71.5701 287.97L159.82 281.79C162.49 281.63 163.78 262.67 163.79 261.98V261.97Z" fill="#00544F"/>
<path d="M163.71 264.38C166.49 244.29 88.3601 264.38 88.1801 264.6C85.9601 267.42 78.0701 276.96 75.4601 280.54C75.0601 281.1 75.4801 281.85 76.2001 281.85L129.5 280.52C130.16 280.5 130.81 280.52 131.47 280.55L159.13 281.99C161.65 282.02 163.53 265.65 163.7 264.38H163.71Z" fill="#00544F"/>
<path d="M160.63 280.49H168.7C169.53 280.49 170.2 281.16 170.2 281.99C170.2 284.84 167.88 287.16 165.03 287.16H164.31C161.46 287.16 159.14 284.84 159.14 281.99C159.14 281.16 159.81 280.49 160.64 280.49H160.63Z" fill="#1E1E1E"/>
<path d="M164.59 281.85C155.27 281.72 145.37 278.61 134.48 278.61C119.34 278.61 101.62 281.85 74.8901 281.85C76.0601 277.39 77.3501 277.04 78.3201 275.16C93.5601 273.17 120.87 268.78 134.87 269.68C145.41 270.36 162.94 268.07 164.43 278.4C164.59 279.49 164.79 281.85 164.6 281.84L164.59 281.85Z" fill="#CEE098"/>
<path d="M164.58 279.99C154.99 275.97 145.36 274.1 134.87 273.43C120.86 272.53 96.08 279.24 75.41 278.82C78.56 274.51 93.78 251.67 98.91 243.43C99.39 242.65 110.23 243.57 118.32 241.24C124.42 239.48 130.91 239.44 137.26 239.25C145.19 239.02 155.58 239.19 162.56 243.35C163.48 243.9 164.47 244.77 164.28 245.83L164.58 280" fill="#E1EAB9"/>
<path d="M164.58 279.99C154.99 275.97 145.36 274.1 134.87 273.43C120.86 272.53 96.08 279.24 75.41 278.82C78.56 274.51 93.78 251.67 98.91 243.43C99.39 242.65 110.23 243.57 118.32 241.24C124.42 239.48 130.91 239.44 137.26 239.25C145.19 239.02 155.58 239.19 162.56 243.35C163.48 243.9 164.47 244.77 164.28 245.83L164.58 280" stroke="white" stroke-width="0.16" stroke-miterlimit="10"/>
<path d="M164.58 278.2C154.99 274.18 145.36 272.31 134.87 271.64C120.86 270.74 96.57 277.45 75.9 277.03C79.05 272.72 81.61 270.45 83.81 266.57C88.61 258.12 93.78 249.88 98.91 241.63C99.39 240.85 110.23 241.77 118.32 239.44C124.42 237.68 130.91 237.64 137.26 237.45C145.19 237.22 155.58 237.39 162.56 241.55C163.48 242.1 164.47 242.97 164.28 244.03L164.58 278.2Z" fill="#EBF2D4"/>
<path d="M164.58 278.2C154.99 274.18 145.36 270.36 134.87 269.69C126.6 269.16 114.14 269.59 100.86 272.55C92.2301 274.47 82.3101 274.26 76.0601 275.08C79.1901 270.62 81.1201 268.5 83.3201 264.62C88.1201 256.17 93.7801 247.93 98.9101 239.68C99.3901 238.9 110.23 239.82 118.32 237.49C124.42 235.73 130.91 235.69 137.26 235.5C145.19 235.27 155.58 235.44 162.56 239.6C163.48 240.15 164.8 241.51 164.61 242.56L164.58 278.19" fill="white"/>
<path d="M126.27 263.94C134.19 263.67 141 265.34 143.13 265.94C146.67 266.94 150.22 267.94 153.76 268.93" stroke="#AFD3D0" stroke-width="0.81" stroke-linecap="round" stroke-linejoin="round"/>
<path d="M87.9501 267.25C92.0101 267.64 96.0701 267.21 100.1 266.66C101.59 266.46 110.79 264.4 120.86 263.67" stroke="#AFD3D0" stroke-width="0.81" stroke-linecap="round" stroke-linejoin="round"/>
<path d="M111.82 252.31C118.09 251.18 129 249.51 138.44 250.12C142.32 250.37 146.12 251.45 149.89 252.51C153.43 253.51 156.98 254.51 160.52 255.5" stroke="#AFD3D0" stroke-width="0.81" stroke-linecap="round" stroke-linejoin="round"/>
<path d="M94.7201 253.82C98.2001 254.15 101.69 253.89 105.15 253.45" stroke="#AFD3D0" stroke-width="0.81" stroke-linecap="round" stroke-linejoin="round"/>
<path d="M97.9 249.14C101.96 249.53 106.02 249.1 110.05 248.55C112.07 248.27 128.3 244.58 141.63 245.45C145.51 245.7 149.31 246.78 153.08 247.84C156.62 248.84 160.17 249.84 163.71 250.83" stroke="#AFD3D0" stroke-width="0.81" stroke-linecap="round" stroke-linejoin="round"/>
<path d="M109.09 244.15C109.97 244.05 110.85 243.93 111.73 243.81C113.75 243.53 129.98 239.84 143.31 240.71C147.19 240.96 150.99 242.04 154.76 243.1C158.3 244.1 161.85 245.1 165.39 246.09" stroke="#AFD3D0" stroke-width="0.81" stroke-linecap="round" stroke-linejoin="round"/>
<path d="M157.09 258.99C153.55 257.99 152.08 257.58 148.54 256.58C144.77 255.52 140.98 254.44 137.09 254.19C123.76 253.32 107.53 257.01 105.51 257.29C101.49 257.84 97.4201 258.27 93.3601 257.88L90.7001 262.24C94.7601 262.63 98.8201 262.2 102.85 261.65C104.87 261.37 121.1 257.68 134.43 258.55C138.31 258.8 142.11 259.88 145.88 260.94C149.42 261.94 152.97 262.94 156.51 263.93L157.09 258.98" fill="#AFD3D0"/>
<path d="M157.09 258.99C153.55 257.99 152.08 257.58 148.54 256.58C144.77 255.52 140.98 254.44 137.09 254.19C123.76 253.32 107.53 257.01 105.51 257.29C101.49 257.84 97.4201 258.27 93.3601 257.88L90.7001 262.24C94.7601 262.63 98.8201 262.2 102.85 261.65C104.87 261.37 121.1 257.68 134.43 258.55C138.31 258.8 142.11 259.88 145.88 260.94C149.42 261.94 152.97 262.94 156.51 263.93L157.09 258.98" stroke="#AFD3D0" stroke-width="0.81" stroke-linecap="round" stroke-linejoin="round"/>
<path d="M175.13 260.3C194.72 250.61 247.63 269.3 247.8 269.56C249.93 272.91 257.39 282.87 260.28 286.83C261.22 288.11 259.88 289.96 259.12 289.91L170.87 283.73C168.2 283.57 169.57 263.05 175.13 260.3Z" fill="white"/>
<path d="M173.63 258.99C193.22 249.3 247.28 267.35 247.44 267.61C249.57 270.96 257.66 282.31 260.14 286.54C260.52 287.2 260.02 288.01 259.26 287.96L171.01 281.78C168.34 281.62 168.07 261.74 173.63 258.99Z" fill="#00544F"/>
<path d="M164.33 264.62C161.55 244.53 240.56 264.38 240.73 264.6C242.95 267.42 250.84 276.96 253.45 280.54C253.85 281.1 253.43 281.85 252.71 281.85L199.41 280.52C198.75 280.5 198.1 280.52 197.44 280.55L169.78 281.99C167.26 282.02 164.51 265.9 164.33 264.63V264.62Z" fill="#00544F"/>
<path d="M164.34 281.85C173.66 281.72 183.56 278.61 194.45 278.61C209.59 278.61 227.31 281.85 254.04 281.85C252.87 277.39 251.58 277.04 250.61 275.16C235.37 273.17 208.06 268.78 194.06 269.68C183.52 270.36 165.99 268.07 164.5 278.4C164.34 279.49 164.14 281.85 164.33 281.84L164.34 281.85Z" fill="#CEE098"/>
<path d="M164.34 279.99C173.93 275.97 183.56 274.1 194.05 273.43C208.06 272.53 232.84 279.24 253.51 278.82C250.36 274.51 235.14 251.67 230.01 243.43C229.53 242.65 218.69 243.57 210.6 241.24C204.5 239.48 198.01 239.44 191.66 239.25C183.73 239.02 173.34 239.19 166.36 243.35C165.44 243.9 164.45 244.77 164.64 245.83L164.34 280" fill="#E1EAB9"/>
<path d="M164.34 279.99C173.93 275.97 183.56 274.1 194.05 273.43C208.06 272.53 232.84 279.24 253.51 278.82C250.36 274.51 235.14 251.67 230.01 243.43C229.53 242.65 218.69 243.57 210.6 241.24C204.5 239.48 198.01 239.44 191.66 239.25C183.73 239.02 173.34 239.19 166.36 243.35C165.44 243.9 164.45 244.77 164.64 245.83L164.34 280" stroke="white" stroke-width="0.16" stroke-miterlimit="10"/>
<path d="M164.34 278.2C173.93 274.18 183.56 272.31 194.05 271.64C208.06 270.74 232.35 277.45 253.02 277.03C249.87 272.72 247.31 270.45 245.11 266.57C240.31 258.12 235.14 249.88 230.01 241.63C229.53 240.85 218.69 241.77 210.6 239.44C204.5 237.68 198.01 237.64 191.66 237.45C183.73 237.22 173.34 237.39 166.36 241.55C165.44 242.1 164.45 242.97 164.64 244.03L164.34 278.2Z" fill="#EBF2D4"/>
<path d="M164.34 278.2C173.93 274.18 183.56 270.36 194.05 269.69C202.32 269.16 214.78 269.59 228.06 272.55C236.69 274.47 246.61 274.26 252.86 275.08C249.73 270.62 247.8 268.5 245.6 264.62C240.8 256.17 235.14 247.93 230.01 239.68C229.53 238.9 218.69 239.82 210.6 237.49C204.5 235.73 198.01 235.69 191.66 235.5C183.73 235.27 173.34 235.44 166.36 239.6C165.44 240.15 164.12 241.02 164.31 242.08L164.34 278.2Z" fill="white"/>
<path d="M202.65 263.94C194.73 263.67 187.92 265.34 185.79 265.94C182.25 266.94 175.79 268.57 172.24 269.57" stroke="#AFD3D0" stroke-width="0.65" stroke-linecap="round" stroke-linejoin="round"/>
<path d="M240.97 267.25C236.91 267.64 232.85 267.21 228.82 266.66C227.33 266.46 218.13 264.4 208.06 263.67" stroke="#AFD3D0" stroke-width="0.81" stroke-linecap="round" stroke-linejoin="round"/>
<path d="M238.22 262.25C234.16 262.64 230.1 262.21 226.07 261.66C224.05 261.38 207.82 257.69 194.49 258.56C190.61 258.81 186.81 259.89 183.04 260.95C179.5 261.95 175.95 262.95 172.41 263.94" stroke="#AFD3D0" stroke-width="0.81" stroke-linecap="round" stroke-linejoin="round"/>
<path d="M217.1 252.31C210.83 251.18 199.92 249.51 190.48 250.12C186.6 250.37 182.8 251.45 179.03 252.51C175.49 253.51 174.62 254 171.08 255" stroke="#AFD3D0" stroke-width="0.81" stroke-linecap="round" stroke-linejoin="round"/>
<path d="M234.2 253.82C230.72 254.15 227.23 253.89 223.77 253.45" stroke="#AFD3D0" stroke-width="0.81" stroke-linecap="round" stroke-linejoin="round"/>
<path d="M228.06 250.03L225.72 244.88C223.45 244.57 202.02 240.39 187.03 241.37C182.66 241.66 175.3 243.75 171.06 244.95V250.96C175.3 249.76 184.55 247.02 188.92 246.73C203.91 245.74 225.78 249.71 228.05 250.03" fill="#AFD3D0"/>
<path d="M228.06 250.03L225.72 244.88C223.45 244.57 202.02 240.39 187.03 241.37C182.66 241.66 175.3 243.75 171.06 244.95V250.96C175.3 249.76 184.55 247.02 188.92 246.73C203.91 245.74 225.78 249.71 228.05 250.03" stroke="#AFD3D0" stroke-width="0.92" stroke-linecap="round" stroke-linejoin="round"/>
<path d="M197.98 270.85L203 270.2C204.43 269.74 206.02 270.38 206.64 271.76C206.8 272.11 206.89 272.49 206.89 272.87V316.82L202.43 313.38L197.97 316.82V270.84L197.98 270.85Z" fill="#ACCA53"/>
<path d="M194.43 270.18H195.4C196.77 270.18 197.99 271.89 197.99 273.26V281.13L203.35 281.39L204.05 269.95H194.67C194.54 269.95 194.44 270.05 194.44 270.18H194.43Z" fill="#ACCA53"/>
<path d="M203.34 309.28C210.989 309.28 217.19 303.079 217.19 295.43C217.19 287.781 210.989 281.58 203.34 281.58C195.691 281.58 189.49 287.781 189.49 295.43C189.49 303.079 195.691 309.28 203.34 309.28Z" fill="#006D68"/>
<path d="M203.34 283.79C209.76 283.79 214.98 289.01 214.98 295.43C214.98 301.85 209.76 307.07 203.34 307.07C196.92 307.07 191.7 301.85 191.7 295.43C191.7 289.01 196.92 283.79 203.34 283.79ZM203.34 283.31C196.64 283.31 191.21 288.74 191.21 295.44C191.21 302.14 196.64 307.57 203.34 307.57C210.04 307.57 215.47 302.14 215.47 295.44C215.47 288.74 210.04 283.31 203.34 283.31Z" fill="#003834"/>
<path d="M208.85 296.21C209.33 296.13 209.71 295.74 209.76 295.24C209.82 294.64 209.38 294.1 208.78 294.03C208.18 293.97 207.64 294.41 207.57 295.01C207.53 295.36 207.67 295.69 207.91 295.92C207.22 297.59 205.65 298.77 203.83 298.96V294.29C205.08 294.14 206.19 293.42 206.86 292.36C207.38 292.35 207.84 291.97 207.92 291.43C208.01 290.83 207.6 290.27 207 290.18C206.4 290.09 205.84 290.5 205.75 291.1C205.7 291.41 205.79 291.71 205.97 291.94C205.48 292.66 204.7 293.17 203.83 293.31V288.74C204.19 288.56 204.44 288.19 204.44 287.76C204.44 287.15 203.95 286.66 203.34 286.66C202.73 286.66 202.24 287.15 202.24 287.76C202.24 288.19 202.49 288.56 202.85 288.74V293.31C201.98 293.17 201.2 292.67 200.71 291.94C200.89 291.71 200.98 291.41 200.93 291.1C200.84 290.5 200.28 290.09 199.68 290.18C199.08 290.27 198.67 290.83 198.76 291.43C198.84 291.97 199.3 292.35 199.82 292.36C200.48 293.42 201.6 294.14 202.85 294.29V298.96C201.03 298.78 199.46 297.6 198.76 295.92C199 295.69 199.14 295.37 199.1 295.01C199.04 294.41 198.5 293.97 197.89 294.03C197.28 294.09 196.85 294.63 196.91 295.24C196.96 295.74 197.35 296.13 197.82 296.21C198.64 298.29 200.59 299.75 202.84 299.94V304.69H203.82V299.94C206.07 299.75 208.02 298.29 208.84 296.21H208.85Z" fill="white"/>
<path d="M164.26 241.27L164.34 278.2" stroke="#AFD3D0" stroke-width="0.81" stroke-linecap="round" stroke-linejoin="round"/>
<path d="M196.2 242.76C196.17 244.94 196.03 248.15 193.44 248.07C192.27 248.03 191.1 248.26 189.9 248.18C187.46 248.02 184.58 248.04 184.63 244.8C184.69 240.96 185 237.14 185.02 233.3C185.02 232.19 184.27 223.8 184.56 223.69C182.8 224.37 180.72 223.39 179.64 221.84C177.74 219.12 178.68 215.25 179.2 212.22C179.58 210.03 179.96 207.82 180.73 205.74C182.42 201.14 185.99 197.31 190.34 195.05C194.33 192.98 199.94 192.19 204.53 192.49C211.21 192.92 214.18 195.43 217.71 199.21C218.44 199.99 219.06 200.84 219.54 201.76C220.48 203.55 220.66 205.69 221.37 207.57C222.78 211.3 223.34 215.25 223.89 219.17C224.29 222.05 225.25 226.91 221.71 228.02C219.1 228.84 216.72 228.72 214.05 228.58C213.19 228.53 212.14 228.37 211.35 228.06C210.56 227.75 210.99 226.97 210.91 226.4C210.88 226.22 210.26 225.03 210.16 225.33C209.67 226.74 208.91 229.83 207.33 230.32C203.72 231.47 200.81 230.48 197.31 230.42C196.39 234.17 196.32 238.05 196.2 241.88C196.2 242.14 196.19 242.44 196.18 242.75L196.2 242.76Z" fill="#C3C3C3"/>
<path d="M185.3 246.03C184.96 243.33 186.84 239.61 189.84 239.27C191.49 239.08 192.86 239.84 193.74 241.22C194.7 242.73 195.16 245.07 195.2 246.81" stroke="white" stroke-width="0.74" stroke-linecap="round" stroke-linejoin="round"/>
<path d="M184.46 223.82C181.35 224.76 179.04 221.35 178.56 218.72C178.22 216.82 178.46 214.87 178.7 212.95C179.26 208.51 180.37 204 183.37 200.57C188.54 194.64 196.8 191.8 204.54 192.47C207.29 192.71 210.01 193.4 212.46 194.67C214.64 195.8 216.59 197.42 218.04 199.41C219.63 201.58 220.46 204.01 221.22 206.55C222.38 210.46 223.61 214.41 224.14 218.45C224.55 221.54 225.36 226.03 222.3 228.08C220.91 229.01 219.08 228.85 217.42 228.66C215.71 228.46 214 228.55 212.35 228.38C211.79 228.32 211.21 228.03 210.96 227.53C210.66 226.91 210.83 226.02 210.26 225.63C210.19 225.58 210.1 225.54 210.01 225.56C209.85 225.59 209.77 225.77 209.73 225.93C209.58 226.48 209.5 227.05 209.33 227.59C208.8 229.24 207.29 230.59 205.56 230.74C205.1 230.78 204.64 230.74 204.18 230.69C202.87 230.57 198.56 230.69 197.32 230.43" stroke="white" stroke-width="0.74" stroke-linecap="round" stroke-linejoin="round"/>
<path d="M198.79 218.39C199.83 216.86 202.14 215.67 203.98 215.58C206.15 215.48 207.02 216.82 208.67 217.72C210.18 218.55 211.05 217.51 212.19 216.65C215.89 213.88 217.69 214.96 221.08 217.35" stroke="white" stroke-width="0.74" stroke-linecap="round" stroke-linejoin="round"/>
<path d="M197.26 226.07C196.95 230.27 196.72 234.47 196.46 238.67C196.34 240.58 196.08 242.53 196.07 244.45C196.07 245.95 195.76 247.92 193.98 247.97C192.66 248 191.34 248.16 190.02 248.18C187.69 248.21 184.6 247.76 184.64 244.79C184.73 238.98 185.05 233.24 184.87 227.43V209.22" stroke="white" stroke-width="0.74" stroke-linecap="round" stroke-linejoin="round"/>
<path d="M80.7801 128.95V102.81L58.5801 88.63L58.6901 114.78L80.7801 128.95Z" fill="#CEE098"/>
<path d="M80.78 128.95V102.81L102.87 88.63V114.78L80.78 128.95Z" fill="#849E2A"/>
<path d="M80.7801 129.54C80.6801 129.54 80.5801 129.52 80.5001 129.47C80.3101 129.37 80.1901 129.17 80.1901 128.95V102.81C80.1901 102.61 80.2901 102.42 80.4601 102.31L102.55 88.14C102.73 88.02 102.96 88.01 103.15 88.12C103.34 88.22 103.46 88.42 103.46 88.64V114.78C103.46 114.98 103.36 115.17 103.19 115.28L81.1001 129.45C81.0001 129.51 80.8901 129.54 80.7801 129.54ZM81.3701 103.13V127.87L102.28 114.46V89.72L81.3701 103.13Z" fill="white"/>
<path d="M102.87 88.63L80.7801 102.81L58.6901 88.63L80.7801 74.46L102.87 88.63Z" fill="#ACCA53"/>
<path d="M80.7801 103.4C80.6701 103.4 80.5601 103.37 80.4601 103.31L58.3701 89.14C58.2001 89.03 58.1001 88.84 58.1001 88.64C58.1001 88.44 58.2001 88.25 58.3701 88.14L80.4601 73.97C80.6601 73.84 80.9001 73.84 81.1001 73.97L103.19 88.14C103.36 88.25 103.46 88.44 103.46 88.64C103.46 88.84 103.36 89.03 103.19 89.14L81.1001 103.31C81.0001 103.37 80.8901 103.4 80.7801 103.4ZM59.7901 88.63L80.7801 102.1L101.78 88.63L80.7801 75.16L59.7901 88.63Z" fill="white"/>
<path d="M69.6202 96.31C69.4302 96.31 69.2302 96.21 69.1202 96.04C68.9402 95.77 69.0202 95.4 69.3002 95.22L91.3902 81.05C91.6602 80.87 92.0302 80.95 92.2102 81.23C92.3902 81.5 92.3102 81.87 92.0302 82.05L69.9402 96.22C69.8402 96.28 69.7302 96.31 69.6202 96.31Z" fill="white"/>
<path d="M80.7801 116.64C80.5901 116.64 80.3901 116.54 80.2801 116.37C80.1001 116.1 80.1801 115.73 80.4601 115.55L102.15 101.63C102.42 101.45 102.79 101.53 102.97 101.81C103.15 102.08 103.07 102.45 102.79 102.63L81.1001 116.55C81.0001 116.61 80.8901 116.64 80.7801 116.64Z" fill="#003834"/>
<path d="M92.1201 96.12C92.0101 96.12 91.9101 96.09 91.8101 96.03L69.3701 82.23C69.0901 82.06 69.0001 81.69 69.1801 81.42C69.3501 81.14 69.7101 81.06 69.9901 81.23L92.4301 95.03C92.7101 95.2 92.8001 95.57 92.6201 95.84C92.5101 96.02 92.3101 96.12 92.1201 96.12Z" fill="white"/>
<path d="M80.7801 103.4C80.6701 103.4 80.5601 103.37 80.4601 103.31L58.3701 89.14C58.2001 89.03 58.1001 88.84 58.1001 88.64C58.1001 88.44 58.2001 88.25 58.3701 88.14L80.4601 73.97C80.6601 73.84 80.9001 73.84 81.1001 73.97L103.19 88.14C103.36 88.25 103.46 88.44 103.46 88.64C103.46 88.84 103.36 89.03 103.19 89.14L81.1001 103.31C81.0001 103.37 80.8901 103.4 80.7801 103.4ZM59.7901 88.63L80.7801 102.1L101.78 88.63L80.7801 75.16L59.7901 88.63Z" fill="white"/>
<path d="M92.5801 121.92C92.2501 121.92 91.9901 121.66 91.9901 121.33V95.38C91.9901 95.05 92.2501 94.79 92.5801 94.79C92.9101 94.79 93.1701 95.05 93.1701 95.38V121.33C93.1701 121.66 92.9101 121.92 92.5801 121.92Z" fill="#003834"/>
<path d="M80.7801 129.54C80.6801 129.54 80.5801 129.52 80.5001 129.47C80.3101 129.37 80.1901 129.17 80.1901 128.95V102.81C80.1901 102.61 80.2901 102.42 80.4601 102.31L102.55 88.14C102.73 88.02 102.96 88.01 103.15 88.12C103.34 88.22 103.46 88.42 103.46 88.64V114.78C103.46 114.98 103.36 115.17 103.19 115.28L81.1001 129.45C81.0001 129.51 80.8901 129.54 80.7801 129.54ZM81.3701 103.13V127.87L102.28 114.46V89.72L81.3701 103.13Z" fill="white"/>
<path d="M69.6202 121.92C69.2902 121.92 69.0302 121.66 69.0302 121.33V95.72C69.0302 95.39 69.2902 95.13 69.6202 95.13C69.9502 95.13 70.2102 95.39 70.2102 95.72V121.33C70.2102 121.66 69.9502 121.92 69.6202 121.92Z" fill="#849E2A"/>
<path d="M80.7801 116.47C80.6701 116.47 80.5601 116.44 80.4601 116.38L58.6601 102.46C58.3801 102.28 58.3001 101.92 58.4801 101.64C58.6601 101.37 59.0201 101.28 59.3001 101.46L81.1001 115.38C81.3801 115.56 81.4601 115.92 81.2801 116.2C81.1701 116.38 80.9801 116.47 80.7801 116.47Z" fill="#849E2A"/>
<path d="M80.7801 129.54C80.6701 129.54 80.5601 129.51 80.4601 129.45L58.3701 115.28C58.2001 115.17 58.1001 114.99 58.1001 114.78L57.9801 88.64C57.9801 88.42 58.1001 88.22 58.2901 88.12C58.4801 88.02 58.7101 88.02 58.8901 88.14L81.1001 102.31C81.2701 102.42 81.3701 102.61 81.3701 102.81V128.95C81.3701 129.17 81.2501 129.37 81.0601 129.47C80.9701 129.52 80.8701 129.54 80.7801 129.54ZM59.2801 114.45L80.1901 127.87V103.13L59.1701 89.71L59.2801 114.45Z" fill="white"/>
</svg>
