<svg xmlns="http://www.w3.org/2000/svg" width="56" height="50" fill="none" viewBox="0 0 56 50"><path fill="#a5c352" d="M32.7 41.75h-9.39a3.53 3.53 0 0 0 0 7.06h9.39a3.53 3.53 0 1 0 0-7.06"/><path stroke="#a5c352" stroke-linecap="round" stroke-linejoin="round" stroke-width="1.44" d="M28 41.75V17.6M7.88 33.99a3.89 3.89 0 0 1 3.84-3.89l2.72-.06a3.89 3.89 0 0 0 3.84-3.89v-8.12m29.84 15.96a3.89 3.89 0 0 0-3.84-3.89l-2.72-.06a3.89 3.89 0 0 1-3.84-3.89v-8.12"/><path fill="#006d68" d="M51.97 34.64h-7.7a3.53 3.53 0 0 0 0 7.06h7.7a3.53 3.53 0 1 0 0-7.06m-40.24 0h-7.7a3.53 3.53 0 0 0 0 7.06h7.7a3.53 3.53 0 1 0 0-7.06M36.72 3.2H19.84a7.84 7.84 0 0 0 0 15.68h16.88a7.84 7.84 0 0 0 0-15.68"/></svg>