<svg xmlns="http://www.w3.org/2000/svg" width="484" height="460" fill="none" viewBox="0 0 484 460"><path fill="#ebf2d4" d="M270.25 72.638c-16.5-6.19-33.73-11.37-51.35-11.29-23.75.11-46.33 9.69-67.93 19.55-39.78 18.16-71.14 46.61-103.75 75.5-26.39 23.39-30.73 71.89-29.93 104.84.1 3.97.2 7.97.38 11.96.55 12.29 1.87 24.53 6.18 35.99 6.9 18.36 22.92 33.87 35.01 48.98 13.09 16.36 25.92 30.01 43.55 41.7 19.96 13.23 48.49 35.94 73.11 38.02 30.99 2.62 54.72 3.88 84.5-5.4 31.72-9.89 66.49-24.32 89.32-49.62 11.97-13.26 19.79-32.19 28.7-47.61 17.38-30.08 24.59-62.53 20.12-97.11-4.68-36.2-18.9-63.94-33.9-96.3-19.26-41.55-53.11-53.9-94-69.23z"/><path stroke="#fff" stroke-linecap="round" stroke-linejoin="round" stroke-width="1.78" d="M317.5 262.588v3.49c0 3.29-2.67 5.96-5.96 5.96h-46.61c-3.29 0-5.96 2.67-5.96 5.96v93.7c0 3.29 2.67 5.96 5.96 5.96h114.6c3.29 0 5.96-2.67 5.96-5.96v-109.1c0-3.29-2.67-5.96-5.96-5.96h-56.07c-3.29 0-5.96 2.67-5.96 5.96z"/><path stroke="#adcb53" stroke-linecap="round" stroke-linejoin="round" stroke-width="1.78" d="M332.82 277.038v3.49c0 3.29-2.67 5.96-5.96 5.96h-46.61c-3.29 0-5.96 2.67-5.96 5.96v93.7c0 3.29 2.67 5.96 5.96 5.96h114.6c3.29 0 5.96-2.67 5.96-5.96v-109.1c0-3.29-2.67-5.96-5.96-5.96h-56.07c-3.29 0-5.96 2.67-5.96 5.96z"/><path fill="#006e69" stroke="#006e69" stroke-linecap="round" stroke-linejoin="round" stroke-width="2.53" d="M345.31 289.568v3.49c0 3.29-2.67 5.96-5.96 5.96h-46.61c-3.29 0-5.96 2.67-5.96 5.96v93.7c0 3.29 2.67 5.96 5.96 5.96h114.6c3.29 0 5.96-2.67 5.96-5.96v-109.1c0-3.29-2.67-5.96-5.96-5.96h-56.07c-3.29 0-5.96 2.67-5.96 5.96z"/><path fill="#003834" d="M360.631 304.628v3.49c0 3.29-2.67 5.96-5.96 5.96h-46.61c-3.29 0-5.96 2.67-5.96 5.96v93.7c0 3.29 2.67 5.96 5.96 5.96h114.6c3.29 0 5.96-2.67 5.96-5.96v-109.1c0-3.29-2.67-5.96-5.96-5.96h-56.07c-3.29 0-5.96 2.67-5.96 5.96z"/><path stroke="#adcb53" stroke-linecap="round" stroke-linejoin="round" stroke-width="1.4" d="M348.59 388.258h67.12m-67.12 8h67.12m-67.12 8h67.12m0-49.31c.06 7.11-5.66 12.92-12.77 12.98s-12.92-5.66-12.98-12.77 12.72-19.21 12.72-19.21 12.97 11.89 13.03 19m-12.899-3.21.18 27.8m-25.711-24.59c.06 7.11-5.66 12.92-12.77 12.98s-12.92-5.66-12.98-12.77 12.72-19.21 12.72-19.21 12.97 11.89 13.03 19m-12.899-3.21.18 27.8"/><path fill="#adcb53" d="M132.11 175.408c-4.33 0-7.87-3.54-7.87-7.87s3.54-7.87 7.87-7.87h40.31c.65-3.62 1-7.34 1-11.15 0-2.86-.43-6.17-1.21-9.84h-40.1c-4.33 0-7.87-3.54-7.87-7.87s3.54-7.87 7.87-7.87h35.47c-2.34-6.57-5.27-13.67-8.55-20.98H132.1c-4.33 0-7.87-3.54-7.87-7.87s3.54-7.87 7.87-7.87h19.51c-3.48-7.08-7.13-14.16-10.76-20.98h-8.75c-4.33 0-7.87-3.54-7.87-7.87s3.54-7.87 7.87-7.87h.17c-11.93-21.42-21.81-37.38-21.81-37.38s-9.88 15.95-21.81 37.38h.17c4.33 0 7.87 3.54 7.87 7.87s-3.54 7.87-7.87 7.87h-8.75c-3.63 6.82-7.28 13.9-10.76 20.98h19.51c4.33 0 7.87 3.54 7.87 7.87s-3.54 7.87-7.87 7.87H61.89c-3.28 7.31-6.21 14.41-8.55 20.98h35.47c4.33 0 7.87 3.54 7.87 7.87s-3.54 7.87-7.87 7.87h-40.1c-.78 3.67-1.21 6.98-1.21 9.84 0 3.81.36 7.53 1 11.15h40.31c4.33 0 7.87 3.54 7.87 7.87s-3.54 7.87-7.87 7.87H53.52c10.09 21.32 31.78 36.07 56.93 36.07s46.84-14.75 56.93-36.07h-35.29z"/><path fill="#006e69" stroke="#006e69" stroke-linecap="round" stroke-linejoin="round" stroke-width="2.53" d="M253.82 190.488c0 25.57-20.73 46.3-46.3 46.3s-46.3-20.73-46.3-46.3c0-17.26 21.09-55.37 34.81-78.33 5.2-8.7 17.79-8.7 22.99 0 13.71 22.95 34.81 61.07 34.81 78.33z"/><path stroke="#fff" stroke-linecap="round" stroke-linejoin="round" stroke-width="3.03" d="M225.54 163.258c-1.54 8.54-9.05 15.07-18.02 15.07s-16.48-6.53-18.02-15.07"/><path fill="#fff" d="M222.1 163.098a3.413 3.413 0 0 1 3.73-3.07c1.88.18 3.25 1.85 3.07 3.73a3.413 3.413 0 0 1-3.73 3.07 3.413 3.413 0 0 1-3.07-3.73m-29.15 0a3.413 3.413 0 0 0-3.73-3.07 3.413 3.413 0 0 0-3.07 3.73 3.413 3.413 0 0 0 3.73 3.07 3.413 3.413 0 0 0 3.07-3.73"/><path stroke="#fff" stroke-linecap="round" stroke-linejoin="round" stroke-width="3.03" d="M234.55 188.248c-1.62 13.45-13.15 23.97-27.02 23.97s-25.4-10.52-27.02-23.97"/><path fill="#fff" d="M231.09 188.168c.13-1.88 1.77-3.3 3.65-3.17s3.3 1.77 3.17 3.65a3.423 3.423 0 0 1-3.65 3.17 3.423 3.423 0 0 1-3.17-3.65m-47.13 0a3.423 3.423 0 0 0-3.65-3.17c-1.88.13-3.3 1.77-3.17 3.65s1.77 3.3 3.65 3.17 3.3-1.77 3.17-3.65"/><path stroke="#adcb53" stroke-linecap="round" stroke-linejoin="round" stroke-width="3.03" d="M207.54 236.788v101.21"/><path stroke="#fff" stroke-linecap="round" stroke-linejoin="round" stroke-width="3.03" d="M207.54 142.938v93.85"/><path fill="#fff" d="M204.12 143.107c0-1.89 1.53-3.419 3.42-3.419s3.42 1.529 3.42 3.419-1.53 3.42-3.42 3.42-3.42-1.53-3.42-3.42"/><path stroke="#fff" stroke-linecap="round" stroke-linejoin="round" stroke-width="3.56" d="M110.47 67.838v262.35"/><path fill="#003834" d="M110 246.948c0 28.55-23.14 51.69-51.69 51.69s-51.69-23.14-51.69-51.69c0-19.31 23.65-63.74 38.96-90.47 5.63-9.84 19.83-9.84 25.46 0 15.31 26.73 38.96 71.16 38.96 90.47"/><path stroke="#aecc53" stroke-linecap="round" stroke-linejoin="round" stroke-width="3.77" d="M58.31 183.637v170.22"/><path fill="#aecc53" d="M58.31 188.107a4.25 4.25 0 1 0 .002-8.499 4.25 4.25 0 0 0-.002 8.499"/><path stroke="#aecc53" stroke-linecap="round" stroke-linejoin="round" stroke-width="3.77" d="M79.39 216.167c-1.9 10.19-10.9 17.97-21.62 17.97s-19.72-7.78-21.62-17.97"/><path fill="#aecc53" d="M75.12 215.947a4.253 4.253 0 0 1 4.65-3.81c2.33.23 4.04 2.31 3.81 4.65a4.246 4.246 0 0 1-4.65 3.81 4.253 4.253 0 0 1-3.81-4.65m-34.69 0a4.253 4.253 0 0 0-4.65-3.81 4.253 4.253 0 0 0-3.81 4.65 4.246 4.246 0 0 0 4.65 3.81 4.253 4.253 0 0 0 3.81-4.65"/><path stroke="#aecc53" stroke-linecap="round" stroke-linejoin="round" stroke-width="3.77" d="M90.22 246.178c-2 16.1-15.83 28.66-32.44 28.66s-30.44-12.56-32.44-28.66"/><path fill="#aecc53" d="M85.92 246.078a4.25 4.25 0 0 1 4.54-3.93 4.25 4.25 0 0 1 3.93 4.54 4.25 4.25 0 0 1-4.54 3.93 4.25 4.25 0 0 1-3.93-4.54m-56.29 0a4.25 4.25 0 0 0-4.54-3.93 4.25 4.25 0 0 0-3.93 4.54 4.25 4.25 0 0 0 4.54 3.93 4.25 4.25 0 0 0 3.93-4.54"/><path fill="#006e69" stroke="#006e69" stroke-linecap="round" stroke-linejoin="round" stroke-width="2.53" d="M259.96 329.208H27.8v116.96h232.16z"/><path fill="#ebf2d4" d="M149.931 407.638v-27.64l-17.41-13.56-20.56-28.13-.28.21v-8.31h-2.7v62.98l-15.27 12.39v13.67c-1 .5-1.69 1.52-1.69 2.71 0 1.68 1.36 3.04 3.04 3.04s3.04-1.36 3.04-3.04c0-1.19-.69-2.22-1.69-2.71v-12.39l12.57-10.2v29.18a3.039 3.039 0 0 0 1.35 5.76c1.68 0 3.04-1.36 3.04-3.04 0-1.19-.69-2.22-1.69-2.71v-29.18l12.57 10.2v12.39c-1 .5-1.69 1.52-1.69 2.71 0 1.68 1.36 3.04 3.04 3.04s3.04-1.36 3.04-3.04c0-1.19-.69-2.22-1.69-2.71v-13.67l-15.27-12.39v-50.68l18.51 25.33v24.3c-1 .5-1.69 1.52-1.69 2.71 0 1.68 1.36 3.04 3.04 3.04s3.04-1.36 3.04-3.04c0-1.19-.69-2.22-1.69-2.71v-21.97l14.34 11.17v26.32c-1 .5-1.69 1.52-1.69 2.71 0 1.68 1.36 3.04 3.04 3.04s3.04-1.36 3.04-3.04c0-1.19-.69-2.22-1.69-2.71zm-60.771-18.67v-27.64l-17.55-13.67-12.15-9.61-.03.04v-7.88h-2.7v63.19l-11.22 12.3v13.55c-1 .5-1.69 1.52-1.69 2.71 0 1.68 1.36 3.04 3.04 3.04s3.04-1.36 3.04-3.04c0-1.19-.69-2.22-1.69-2.71v-12.51l8.52-9.34v28.44a3.039 3.039 0 0 0 1.35 5.76c1.68 0 3.04-1.36 3.04-3.04 0-1.19-.69-2.22-1.69-2.71v-28.44l8.52 9.34v12.51c-1 .5-1.69 1.52-1.69 2.71 0 1.68 1.36 3.04 3.04 3.04s3.04-1.36 3.04-3.04c0-1.19-.69-2.22-1.69-2.72v-13.55l-11.22-12.3v-51.93l9.99 7.9v24.08c-1 .5-1.69 1.52-1.69 2.71 0 1.68 1.36 3.04 3.04 3.04s3.04-1.36 3.04-3.04c0-1.19-.69-2.22-1.69-2.72v-21.97l14.34 11.17v26.32c-1 .5-1.69 1.52-1.69 2.71 0 1.68 1.36 3.04 3.04 3.04s3.04-1.36 3.04-3.04c0-1.19-.69-2.22-1.69-2.71zm157.861 18.67v-27.64l-17.41-13.56-20.56-28.13-.28.21v-8.31h-2.7v8.33l-.29-.21-19.88 28.12-17.4 13.56v27.64c-1 .5-1.69 1.52-1.69 2.71 0 1.68 1.36 3.04 3.04 3.04s3.04-1.36 3.04-3.04c0-1.19-.69-2.22-1.69-2.72v-26.32l14.34-11.17v21.97c-1 .5-1.69 1.52-1.69 2.71 0 1.68 1.36 3.04 3.04 3.04s3.04-1.36 3.04-3.04c0-1.19-.69-2.22-1.69-2.71v-24.31l17.84-25.23v50.6l-15.27 12.39v13.67a3.039 3.039 0 0 0 1.35 5.76c1.68 0 3.04-1.36 3.04-3.04 0-1.19-.69-2.22-1.69-2.71v-12.39l12.57-10.2v29.18c-1 .5-1.69 1.52-1.69 2.71 0 1.68 1.36 3.04 3.04 3.04s3.04-1.36 3.04-3.04c0-1.19-.69-2.22-1.69-2.71v-29.18l12.57 10.2v12.39c-1 .5-1.69 1.52-1.69 2.71 0 1.68 1.36 3.04 3.04 3.04s3.04-1.36 3.04-3.04c0-1.19-.69-2.22-1.69-2.72v-13.67l-15.27-12.39v-50.68l18.51 25.33v24.3c-1 .5-1.69 1.52-1.69 2.71 0 1.68 1.36 3.04 3.04 3.04s3.04-1.36 3.04-3.04c0-1.19-.69-2.22-1.69-2.71v-21.97l14.34 11.17v26.32c-1 .5-1.69 1.52-1.69 2.71 0 1.68 1.36 3.04 3.04 3.04s3.04-1.36 3.04-3.04c0-1.19-.69-2.22-1.69-2.72z"/><path stroke="#adcb53" stroke-linecap="round" stroke-linejoin="round" stroke-width="2.04" d="M294.66 193.598a25.65 25.65 0 0 0-3.11 11.95c-.17 14.12 17.25 29.96 25.36 29.96 10.95 0 26.09-15.31 26.09-29.64 0-5.88-1.98-11.3-5.3-15.64-1.58-2.06-1.96-4.8-.97-7.19 1.04-2.49 1.61-5.22 1.61-8.08 0-4.88-1.66-9.36-4.44-12.93-1.75-2.25-2.06-5.28-.77-7.82 1.23-2.41 1.92-5.15 1.92-8.04 0-9.82-10.8-29.43-17.79-29.43-6.14 0-17.79 19.61-17.79 29.43 0 2.89.69 5.63 1.92 8.04 1.29 2.54.99 5.57-.77 7.82a20.98 20.98 0 0 0-4.44 12.93c0 2.86.57 5.59 1.61 8.08 1 2.39.62 5.13-.96 7.18-.82 1.06-1.55 2.19-2.2 3.38m22.641-54.22v147.62"/><path stroke="#adcb53" stroke-linecap="round" stroke-linejoin="round" stroke-width="1.82" d="M441.601 432.138v-37.47"/><path fill="#adcb53" d="M441.6 400.428a5.48 5.48 0 1 0 0-10.96 5.48 5.48 0 0 0 0 10.96"/><path stroke="#adcb53" stroke-linecap="round" stroke-linejoin="round" stroke-width="1.82" d="M460.601 432.138v-37.47"/><path fill="#adcb53" d="M460.6 400.428a5.48 5.48 0 1 0 0-10.96 5.48 5.48 0 0 0 0 10.96"/><path stroke="#adcb53" stroke-linecap="round" stroke-linejoin="round" stroke-width="1.82" d="M477.34 432.978h-57.42"/><path stroke="#adcb53" stroke-linecap="round" stroke-linejoin="round" stroke-width="2.04" d="M463.77 446.218H27.86"/></svg>