<svg width="484" height="460" viewBox="0 0 484 460" fill="none" xmlns="http://www.w3.org/2000/svg">
<path d="M270.25 72.6381C253.75 66.4481 236.52 61.2681 218.9 61.3481C195.15 61.4581 172.57 71.0381 150.97 80.8981C111.19 99.0581 79.8298 127.508 47.2198 156.398C20.8298 179.788 16.4898 228.288 17.2898 261.238C17.3898 265.208 17.4898 269.208 17.6698 273.198C18.2198 285.488 19.5398 297.728 23.8498 309.188C30.7498 327.548 46.7698 343.058 58.8598 358.168C71.9498 374.528 84.7798 388.178 102.41 399.868C122.37 413.098 150.9 435.808 175.52 437.888C206.51 440.508 230.24 441.768 260.02 432.488C291.74 422.598 326.51 408.168 349.34 382.868C361.31 369.608 369.13 350.678 378.04 335.258C395.42 305.178 402.63 272.728 398.16 238.148C393.48 201.948 379.26 174.208 364.26 141.848C345 100.298 311.15 87.9481 270.26 72.6181L270.25 72.6381Z" fill="#EBF2D4"/>
<path d="M317.5 262.588V266.078C317.5 269.368 314.83 272.038 311.54 272.038H264.93C261.64 272.038 258.97 274.708 258.97 277.998V371.698C258.97 374.988 261.64 377.658 264.93 377.658H379.53C382.82 377.658 385.49 374.988 385.49 371.698V262.598C385.49 259.308 382.82 256.638 379.53 256.638H323.46C320.17 256.638 317.5 259.308 317.5 262.598V262.588Z" stroke="white" stroke-width="1.78" stroke-linecap="round" stroke-linejoin="round"/>
<path d="M332.82 277.038V280.528C332.82 283.818 330.15 286.488 326.86 286.488H280.25C276.96 286.488 274.29 289.158 274.29 292.448V386.148C274.29 389.438 276.96 392.108 280.25 392.108H394.85C398.14 392.108 400.81 389.438 400.81 386.148V277.048C400.81 273.758 398.14 271.088 394.85 271.088H338.78C335.49 271.088 332.82 273.758 332.82 277.048V277.038Z" stroke="#ADCB53" stroke-width="1.78" stroke-linecap="round" stroke-linejoin="round"/>
<path d="M345.31 289.568V293.058C345.31 296.348 342.64 299.018 339.35 299.018H292.74C289.45 299.018 286.78 301.688 286.78 304.978V398.678C286.78 401.968 289.45 404.638 292.74 404.638H407.34C410.63 404.638 413.3 401.968 413.3 398.678V289.578C413.3 286.288 410.63 283.618 407.34 283.618H351.27C347.98 283.618 345.31 286.288 345.31 289.578V289.568Z" fill="#006E69" stroke="#006E69" stroke-width="2.53" stroke-linecap="round" stroke-linejoin="round"/>
<path d="M360.631 304.628V308.118C360.631 311.408 357.961 314.078 354.671 314.078H308.061C304.771 314.078 302.101 316.748 302.101 320.038V413.738C302.101 417.028 304.771 419.698 308.061 419.698H422.661C425.951 419.698 428.621 417.028 428.621 413.738V304.638C428.621 301.348 425.951 298.678 422.661 298.678H366.591C363.301 298.678 360.631 301.348 360.631 304.638V304.628Z" fill="#003834"/>
<path d="M348.59 388.258H415.71" stroke="#ADCB53" stroke-width="1.4" stroke-linecap="round" stroke-linejoin="round"/>
<path d="M348.59 396.258H415.71" stroke="#ADCB53" stroke-width="1.4" stroke-linecap="round" stroke-linejoin="round"/>
<path d="M348.59 404.258H415.71" stroke="#ADCB53" stroke-width="1.4" stroke-linecap="round" stroke-linejoin="round"/>
<path d="M415.71 354.948C415.77 362.058 410.05 367.868 402.94 367.928C395.83 367.988 390.02 362.268 389.96 355.158C389.9 348.048 402.68 335.948 402.68 335.948C402.68 335.948 415.65 347.838 415.71 354.948Z" stroke="#ADCB53" stroke-width="1.4" stroke-linecap="round" stroke-linejoin="round"/>
<path d="M402.811 351.738L402.991 379.538" stroke="#ADCB53" stroke-width="1.4" stroke-linecap="round" stroke-linejoin="round"/>
<path d="M377.28 354.948C377.34 362.058 371.62 367.868 364.51 367.928C357.4 367.988 351.59 362.268 351.53 355.158C351.47 348.048 364.25 335.948 364.25 335.948C364.25 335.948 377.22 347.838 377.28 354.948Z" stroke="#ADCB53" stroke-width="1.4" stroke-linecap="round" stroke-linejoin="round"/>
<path d="M364.381 351.738L364.561 379.538" stroke="#ADCB53" stroke-width="1.4" stroke-linecap="round" stroke-linejoin="round"/>
<path d="M132.11 175.408C127.78 175.408 124.24 171.868 124.24 167.538C124.24 163.208 127.78 159.668 132.11 159.668H172.42C173.07 156.048 173.42 152.328 173.42 148.518C173.42 145.658 172.99 142.348 172.21 138.678H132.11C127.78 138.678 124.24 135.138 124.24 130.808C124.24 126.478 127.78 122.938 132.11 122.938H167.58C165.24 116.368 162.31 109.268 159.03 101.958H132.1C127.77 101.958 124.23 98.4177 124.23 94.0877C124.23 89.7577 127.77 86.2177 132.1 86.2177H151.61C148.13 79.1377 144.48 72.0577 140.85 65.2377H132.1C127.77 65.2377 124.23 61.6977 124.23 57.3677C124.23 53.0377 127.77 49.4977 132.1 49.4977H132.27C120.34 28.0777 110.46 12.1177 110.46 12.1177C110.46 12.1177 100.58 28.0677 88.65 49.4977H88.82C93.15 49.4977 96.69 53.0377 96.69 57.3677C96.69 61.6977 93.15 65.2377 88.82 65.2377H80.07C76.44 72.0577 72.79 79.1377 69.31 86.2177H88.82C93.15 86.2177 96.69 89.7577 96.69 94.0877C96.69 98.4177 93.15 101.958 88.82 101.958H61.89C58.61 109.268 55.68 116.368 53.34 122.938H88.81C93.14 122.938 96.68 126.478 96.68 130.808C96.68 135.138 93.14 138.678 88.81 138.678H48.71C47.93 142.348 47.5 145.658 47.5 148.518C47.5 152.328 47.86 156.048 48.5 159.668H88.81C93.14 159.668 96.68 163.208 96.68 167.538C96.68 171.868 93.14 175.408 88.81 175.408H53.52C63.61 196.728 85.3 211.478 110.45 211.478C135.6 211.478 157.29 196.728 167.38 175.408H132.09H132.11Z" fill="#ADCB53"/>
<path d="M253.82 190.488C253.82 216.058 233.09 236.788 207.52 236.788C181.95 236.788 161.22 216.058 161.22 190.488C161.22 173.228 182.31 135.118 196.03 112.158C201.23 103.458 213.82 103.458 219.02 112.158C232.73 135.108 253.83 173.228 253.83 190.488H253.82Z" fill="#006E69" stroke="#006E69" stroke-width="2.53" stroke-linecap="round" stroke-linejoin="round"/>
<path d="M225.54 163.258C224 171.798 216.49 178.328 207.52 178.328C198.55 178.328 191.04 171.798 189.5 163.258" stroke="white" stroke-width="3.03" stroke-linecap="round" stroke-linejoin="round"/>
<path d="M222.1 163.098C222.28 161.218 223.95 159.848 225.83 160.028C227.71 160.208 229.08 161.878 228.9 163.758C228.72 165.638 227.05 167.008 225.17 166.828C223.29 166.648 221.92 164.978 222.1 163.098Z" fill="white"/>
<path d="M192.95 163.098C192.77 161.218 191.1 159.848 189.22 160.028C187.34 160.208 185.97 161.878 186.15 163.758C186.33 165.638 188 167.008 189.88 166.828C191.76 166.648 193.13 164.978 192.95 163.098Z" fill="white"/>
<path d="M234.55 188.248C232.93 201.698 221.4 212.218 207.53 212.218C193.66 212.218 182.13 201.698 180.51 188.248" stroke="white" stroke-width="3.03" stroke-linecap="round" stroke-linejoin="round"/>
<path d="M231.09 188.168C231.22 186.288 232.86 184.868 234.74 184.998C236.62 185.128 238.04 186.768 237.91 188.648C237.78 190.528 236.14 191.948 234.26 191.818C232.38 191.688 230.96 190.048 231.09 188.168Z" fill="white"/>
<path d="M183.96 188.168C183.83 186.288 182.19 184.868 180.31 184.998C178.43 185.128 177.01 186.768 177.14 188.648C177.27 190.528 178.91 191.948 180.79 191.818C182.67 191.688 184.09 190.048 183.96 188.168Z" fill="white"/>
<path d="M207.54 236.788V337.998" stroke="#ADCB53" stroke-width="3.03" stroke-linecap="round" stroke-linejoin="round"/>
<path d="M207.54 142.938V236.788" stroke="white" stroke-width="3.03" stroke-linecap="round" stroke-linejoin="round"/>
<path d="M204.12 143.107C204.12 141.217 205.65 139.688 207.54 139.688C209.43 139.688 210.96 141.217 210.96 143.107C210.96 144.997 209.43 146.527 207.54 146.527C205.65 146.527 204.12 144.997 204.12 143.107Z" fill="white"/>
<path d="M110.47 67.8379V330.188" stroke="white" stroke-width="3.56" stroke-linecap="round" stroke-linejoin="round"/>
<path d="M110 246.948C110 275.498 86.8601 298.638 58.3101 298.638C29.7601 298.638 6.62012 275.498 6.62012 246.948C6.62012 227.638 30.2701 183.208 45.5801 156.478C51.2101 146.638 65.4101 146.638 71.0401 156.478C86.3501 183.208 110 227.638 110 246.948Z" fill="#003834"/>
<path d="M58.3105 183.637V353.857" stroke="#AECC53" stroke-width="3.77" stroke-linecap="round" stroke-linejoin="round"/>
<path d="M58.3105 188.107C60.6578 188.107 62.5605 186.205 62.5605 183.857C62.5605 181.51 60.6578 179.607 58.3105 179.607C55.9633 179.607 54.0605 181.51 54.0605 183.857C54.0605 186.205 55.9633 188.107 58.3105 188.107Z" fill="#AECC53"/>
<path d="M79.3904 216.167C77.4904 226.357 68.4904 234.137 57.7704 234.137C47.0504 234.137 38.0504 226.357 36.1504 216.167" stroke="#AECC53" stroke-width="3.77" stroke-linecap="round" stroke-linejoin="round"/>
<path d="M75.1203 215.947C75.3503 213.617 77.4303 211.907 79.7703 212.137C82.1003 212.367 83.8103 214.447 83.5803 216.787C83.3503 219.127 81.2703 220.827 78.9303 220.597C76.6003 220.367 74.8903 218.287 75.1203 215.947Z" fill="#AECC53"/>
<path d="M40.43 215.947C40.2 213.617 38.12 211.907 35.78 212.137C33.45 212.367 31.74 214.447 31.97 216.787C32.2 219.127 34.28 220.827 36.62 220.597C38.95 220.367 40.66 218.287 40.43 215.947Z" fill="#AECC53"/>
<path d="M90.2198 246.178C88.2198 262.278 74.3898 274.838 57.7798 274.838C41.1698 274.838 27.3398 262.278 25.3398 246.178" stroke="#AECC53" stroke-width="3.77" stroke-linecap="round" stroke-linejoin="round"/>
<path d="M85.9196 246.078C86.0896 243.738 88.1296 241.978 90.4596 242.148C92.7996 242.318 94.5596 244.358 94.3896 246.688C94.2196 249.028 92.1796 250.788 89.8496 250.618C87.5096 250.448 85.7496 248.408 85.9196 246.078Z" fill="#AECC53"/>
<path d="M29.6298 246.078C29.4598 243.738 27.4198 241.978 25.0898 242.148C22.7498 242.318 20.9898 244.358 21.1598 246.688C21.3298 249.028 23.3698 250.788 25.6998 250.618C28.0398 250.448 29.7998 248.408 29.6298 246.078Z" fill="#AECC53"/>
<path d="M259.96 329.208H27.7998V446.168H259.96V329.208Z" fill="#006E69" stroke="#006E69" stroke-width="2.53" stroke-linecap="round" stroke-linejoin="round"/>
<path d="M149.931 407.638V379.998L132.521 366.438L111.961 338.308L111.681 338.518V330.208H108.981V393.188L93.7105 405.578V419.248C92.7105 419.748 92.0205 420.768 92.0205 421.958C92.0205 423.638 93.3805 424.998 95.0605 424.998C96.7405 424.998 98.1005 423.638 98.1005 421.958C98.1005 420.768 97.4105 419.738 96.4105 419.248V406.858L108.981 396.658V425.838C107.981 426.338 107.291 427.358 107.291 428.558C107.291 430.238 108.651 431.598 110.331 431.598C112.011 431.598 113.371 430.238 113.371 428.558C113.371 427.368 112.681 426.338 111.681 425.848V396.668L124.251 406.868V419.258C123.251 419.758 122.561 420.778 122.561 421.968C122.561 423.648 123.921 425.008 125.601 425.008C127.281 425.008 128.641 423.648 128.641 421.968C128.641 420.778 127.951 419.748 126.951 419.258V405.588L111.681 393.198V342.518L130.191 367.848V392.148C129.191 392.648 128.501 393.668 128.501 394.858C128.501 396.538 129.861 397.898 131.541 397.898C133.221 397.898 134.581 396.538 134.581 394.858C134.581 393.668 133.891 392.638 132.891 392.148V370.178L147.231 381.348V407.668C146.231 408.168 145.541 409.188 145.541 410.378C145.541 412.058 146.901 413.418 148.581 413.418C150.261 413.418 151.621 412.058 151.621 410.378C151.621 409.188 150.931 408.158 149.931 407.668V407.638Z" fill="#EBF2D4"/>
<path d="M89.1603 388.968V361.328L71.6103 347.658L59.4603 338.048L59.4303 338.088V330.208H56.7303V393.398L45.5103 405.698V419.248C44.5103 419.748 43.8203 420.768 43.8203 421.958C43.8203 423.638 45.1803 424.998 46.8603 424.998C48.5403 424.998 49.9003 423.638 49.9003 421.958C49.9003 420.768 49.2103 419.738 48.2103 419.248V406.738L56.7303 397.398V425.838C55.7303 426.338 55.0403 427.358 55.0403 428.558C55.0403 430.238 56.4003 431.598 58.0803 431.598C59.7603 431.598 61.1203 430.238 61.1203 428.558C61.1203 427.368 60.4303 426.338 59.4303 425.848V397.408L67.9503 406.748V419.258C66.9503 419.758 66.2603 420.778 66.2603 421.968C66.2603 423.648 67.6203 425.008 69.3003 425.008C70.9803 425.008 72.3403 423.648 72.3403 421.968C72.3403 420.778 71.6503 419.748 70.6503 419.248V405.698L59.4303 393.398V341.468L69.4203 349.368V373.448C68.4203 373.948 67.7303 374.968 67.7303 376.158C67.7303 377.838 69.0903 379.198 70.7703 379.198C72.4503 379.198 73.8103 377.838 73.8103 376.158C73.8103 374.968 73.1203 373.938 72.1203 373.438V351.468L86.4603 362.638V388.958C85.4603 389.458 84.7703 390.478 84.7703 391.668C84.7703 393.348 86.1303 394.708 87.8103 394.708C89.4903 394.708 90.8503 393.348 90.8503 391.668C90.8503 390.478 90.1603 389.448 89.1603 388.958V388.968Z" fill="#EBF2D4"/>
<path d="M247.021 407.638V379.998L229.611 366.438L209.051 338.308L208.771 338.518V330.208H206.071V338.538L205.781 338.328L185.901 366.448L168.501 380.008V407.648C167.501 408.148 166.811 409.168 166.811 410.358C166.811 412.038 168.171 413.398 169.851 413.398C171.531 413.398 172.891 412.038 172.891 410.358C172.891 409.168 172.201 408.138 171.201 407.638V381.318L185.541 370.148V392.118C184.541 392.618 183.851 393.638 183.851 394.828C183.851 396.508 185.211 397.868 186.891 397.868C188.571 397.868 189.931 396.508 189.931 394.828C189.931 393.638 189.241 392.608 188.241 392.118V367.808L206.081 342.578V393.178L190.811 405.568V419.238C189.811 419.738 189.121 420.758 189.121 421.958C189.121 423.638 190.481 424.998 192.161 424.998C193.841 424.998 195.201 423.638 195.201 421.958C195.201 420.768 194.511 419.738 193.511 419.248V406.858L206.081 396.658V425.838C205.081 426.338 204.391 427.358 204.391 428.548C204.391 430.228 205.751 431.588 207.431 431.588C209.111 431.588 210.471 430.228 210.471 428.548C210.471 427.358 209.781 426.328 208.781 425.838V396.658L221.351 406.858V419.248C220.351 419.748 219.661 420.768 219.661 421.958C219.661 423.638 221.021 424.998 222.701 424.998C224.381 424.998 225.741 423.638 225.741 421.958C225.741 420.768 225.051 419.738 224.051 419.238V405.568L208.781 393.178V342.498L227.291 367.828V392.128C226.291 392.628 225.601 393.648 225.601 394.838C225.601 396.518 226.961 397.878 228.641 397.878C230.321 397.878 231.681 396.518 231.681 394.838C231.681 393.648 230.991 392.618 229.991 392.128V370.158L244.331 381.328V407.648C243.331 408.148 242.641 409.168 242.641 410.358C242.641 412.038 244.001 413.398 245.681 413.398C247.361 413.398 248.721 412.038 248.721 410.358C248.721 409.168 248.031 408.138 247.031 407.638H247.021Z" fill="#EBF2D4"/>
<path d="M294.66 193.598C292.72 197.158 291.61 201.228 291.55 205.548C291.38 219.668 308.8 235.508 316.91 235.508C327.86 235.508 343 220.198 343 205.868C343 199.988 341.02 194.568 337.7 190.228C336.12 188.168 335.74 185.428 336.73 183.038C337.77 180.548 338.34 177.818 338.34 174.958C338.34 170.078 336.68 165.598 333.9 162.028C332.15 159.778 331.84 156.748 333.13 154.208C334.36 151.798 335.05 149.058 335.05 146.168C335.05 136.348 324.25 116.738 317.26 116.738C311.12 116.738 299.47 136.348 299.47 146.168C299.47 149.058 300.16 151.798 301.39 154.208C302.68 156.748 302.38 159.778 300.62 162.028C297.84 165.598 296.18 170.088 296.18 174.958C296.18 177.818 296.75 180.548 297.79 183.038C298.79 185.428 298.41 188.168 296.83 190.218C296.01 191.278 295.28 192.408 294.63 193.598" stroke="#ADCB53" stroke-width="2.04" stroke-linecap="round" stroke-linejoin="round"/>
<path d="M317.271 139.378V286.998" stroke="#ADCB53" stroke-width="2.04" stroke-linecap="round" stroke-linejoin="round"/>
<path d="M441.601 432.138V394.668" stroke="#ADCB53" stroke-width="1.82" stroke-linecap="round" stroke-linejoin="round"/>
<path d="M441.6 400.428C444.627 400.428 447.08 397.974 447.08 394.948C447.08 391.921 444.627 389.468 441.6 389.468C438.574 389.468 436.12 391.921 436.12 394.948C436.12 397.974 438.574 400.428 441.6 400.428Z" fill="#ADCB53"/>
<path d="M460.601 432.138V394.668" stroke="#ADCB53" stroke-width="1.82" stroke-linecap="round" stroke-linejoin="round"/>
<path d="M460.6 400.428C463.627 400.428 466.08 397.974 466.08 394.948C466.08 391.921 463.627 389.468 460.6 389.468C457.574 389.468 455.12 391.921 455.12 394.948C455.12 397.974 457.574 400.428 460.6 400.428Z" fill="#ADCB53"/>
<path d="M477.34 432.978H419.92" stroke="#ADCB53" stroke-width="1.82" stroke-linecap="round" stroke-linejoin="round"/>
<path d="M463.77 446.218H27.8604" stroke="#ADCB53" stroke-width="2.04" stroke-linecap="round" stroke-linejoin="round"/>
</svg>
