<svg xmlns="http://www.w3.org/2000/svg" width="153" height="153" fill="none" viewBox="0 0 153 153"><path fill="#006d68" d="M29.65 76.44c0-26.01 21.08-47.09 47.09-47.09s47.09 21.08 47.09 47.09h28.78c0-41.9-33.97-75.87-75.87-75.87S.86 34.54.86 76.44z"/><path d="M152.61 76.44h-28.78s-.04 2.27-.12 3.38c-1.73 24.43-22.1 43.71-46.97 43.71-24.97 0-45.4-19.43-46.99-44-.07-1.02-.1-3.09-.1-3.09H.87s.02 2.05.06 3.07c1.61 40.48 34.94 72.8 75.81 72.8 40.66 0 73.85-31.98 75.78-72.16.06-1.23.09-3.71.09-3.71" style="fill:#003834"/><path fill="#cee098" d="M76.93 112.38V68.17L39.38 44.2l.2 44.21z"/><path fill="#849e2a" d="M76.93 112.38V68.17l37.36-23.97v44.21z"/><path fill="#fff" d="M76.93 113.38q-.255 0-.48-.12c-.32-.18-.52-.51-.52-.88V68.17c0-.34.17-.66.46-.84l37.35-23.97c.31-.2.7-.21 1.02-.04.32.18.52.51.52.88v44.21c0 .34-.17.66-.46.84l-37.35 23.97c-.16.11-.35.16-.54.16m1-44.67v41.83l35.35-22.68V46.03z"/><path fill="#acca53" d="M114.29 44.2 76.93 68.17 39.58 44.2l37.35-23.97z"/><path fill="#fff" d="M76.93 69.17c-.19 0-.38-.05-.54-.16L39.04 45.04a.99.99 0 0 1-.46-.84c0-.34.17-.66.46-.84l37.35-23.97c.33-.21.75-.21 1.08 0l37.35 23.97c.29.18.46.5.46.84s-.17.66-.46.84L77.47 69.01c-.17.11-.35.16-.54.16M41.43 44.2l35.5 22.78 35.5-22.78-35.5-22.78z"/><path fill="#fff" d="M58.06 57.18c-.33 0-.65-.16-.84-.46-.3-.46-.16-1.08.3-1.38l37.35-23.97c.46-.3 1.08-.16 1.38.3s.16 1.08-.3 1.38L58.6 57.02c-.17.11-.35.16-.54.16"/><path fill="#003834" d="M76.93 91.55c-.33 0-.65-.16-.84-.46-.3-.46-.16-1.08.3-1.38l36.68-23.54c.46-.3 1.08-.16 1.38.3s.16 1.08-.3 1.38L77.47 91.39c-.17.11-.35.16-.54.16"/><path fill="#fff" d="M96.11 56.86a1 1 0 0 1-.52-.15L57.64 33.37a1.004 1.004 0 0 1 1.05-1.71L96.64 55a1.006 1.006 0 0 1-.52 1.86z"/><path fill="#fff" d="M76.93 69.17c-.19 0-.38-.05-.54-.16L39.04 45.04a.99.99 0 0 1-.46-.84c0-.34.17-.66.46-.84l37.35-23.97c.33-.21.75-.21 1.08 0l37.35 23.97c.29.18.46.5.46.84s-.17.66-.46.84L77.47 69.01c-.17.11-.35.16-.54.16M41.43 44.2l35.5 22.78 35.5-22.78-35.5-22.78z"/><path fill="#003834" d="M96.87 100.49c-.55 0-1-.45-1-1V55.6c0-.55.45-1 1-1s1 .45 1 1v43.89c0 .55-.45 1-1 1"/><path fill="#fff" d="M76.93 113.38q-.255 0-.48-.12c-.32-.18-.52-.51-.52-.88V68.17c0-.34.17-.66.46-.84l37.35-23.97c.31-.2.7-.21 1.02-.04.32.18.52.51.52.88v44.21c0 .34-.17.66-.46.84l-37.35 23.97c-.16.11-.35.16-.54.16m1-44.67v41.83l35.35-22.68V46.03z"/><path fill="#849e2a" d="M58.06 100.49c-.55 0-1-.45-1-1V56.18c0-.55.45-1 1-1s1 .45 1 1v43.31c0 .55-.45 1-1 1"/><path fill="#849e2a" d="M76.93 91.27c-.18 0-.37-.05-.54-.16L39.52 67.58a1 1 0 0 1 1.08-1.68l36.87 23.53c.47.3.6.92.3 1.38-.19.3-.51.46-.84.46"/><path fill="#fff" d="M76.93 113.38c-.19 0-.38-.05-.54-.16L39.04 89.25a.99.99 0 0 1-.46-.84l-.2-44.21a1.006 1.006 0 0 1 1.54-.85l37.55 23.97c.29.18.46.5.46.84v44.21c0 .37-.2.7-.52.88q-.225.12-.48.12zM40.58 87.86l35.36 22.68V68.71L40.4 46.03l.19 41.83z"/></svg>