<svg xmlns="http://www.w3.org/2000/svg" width="81" height="82" fill="none" viewBox="0 0 81 82"><path fill="#aecc53" d="M5.95 63.745v-23.64a1.6 1.6 0 0 0-.21-.77l-2.5-4.18 2.5-4.18c.134-.235.206-.5.21-.77V6.625a3 3 0 0 1 3-3h12.53v-3H8.95a6 6 0 0 0-6 6v23.2l-2.74 4.59a1.52 1.52 0 0 0 0 1.54l2.74 4.59v23.2a6.06 6.06 0 0 0 6 6.05h12.53v-3H8.95a3 3 0 0 1-3-3.05m71.58-33.92v-23.2a6 6 0 0 0-6-6H58.95v3h12.53a3 3 0 0 1 3 3v23.61c.003.27.075.535.21.77l2.5 4.18-2.5 4.18a1.6 1.6 0 0 0-.21.77v23.61a3 3 0 0 1-3 3.05H58.95v3h12.53a6 6 0 0 0 6-6.05v-23.2l2.74-4.59a1.52 1.52 0 0 0 0-1.54z"/><path fill="#fff" d="M62.85 46.797a4.53 4.53 0 1 0-3.84-1.18 20.36 20.36 0 0 1-16.74 12.45v-19.15a17.15 17.15 0 0 0 12.4-7.9 4.52 4.52 0 1 0-3.64-1.73 13.13 13.13 0 0 1-8.76 5.6v-18.71a4.51 4.51 0 1 0-4 0v18.73a13.16 13.16 0 0 1-8.78-5.61 4.51 4.51 0 1 0-3.64 1.73 17.17 17.17 0 0 0 12.42 7.9v19.15a20.38 20.38 0 0 1-16.76-12.46 4.47 4.47 0 0 0 1.4-3.71 4.51 4.51 0 1 0-5.24 4.89 24.36 24.36 0 0 0 20.6 15.29v19.47h4v-19.47a24.38 24.38 0 0 0 20.58-15.29"/></svg>