<svg xmlns="http://www.w3.org/2000/svg" width="54" height="111" fill="none" viewBox="0 0 54 111"><path fill="#006d69" d="M26.378 74.488h7.665a18.75 18.75 0 0 0 10.698-3.396 19.24 19.24 0 0 0 6.945-8.944 16.2 16.2 0 0 0 .402-10.01L40.086 8.23c-2.775-10.144-16.924-10.148-19.702 0A59785 59785 0 0 1 8.339 52.135a16.2 16.2 0 0 0 .399 10.027 19.24 19.24 0 0 0 6.946 8.935 18.75 18.75 0 0 0 10.694 3.391"/><path fill="#006d69" fill-rule="evenodd" d="m40.079 8.498 12.293 43.609v.002a15.37 15.37 0 0 1-.404 9.78 18.95 18.95 0 0 1-7.019 8.764 19.37 19.37 0 0 1-10.814 3.329h-7.85a19.37 19.37 0 0 1-10.808-3.324 18.95 18.95 0 0 1-7.02-8.754 15.38 15.38 0 0 1-.402-9.799v-.001c2.066-7.284 7.393-26.107 12.337-43.606 2.777-9.831 16.914-9.828 19.687 0m.494-.136c-2.912-10.321-17.76-10.325-20.675 0A52861 52861 0 0 1 7.56 51.967a15.88 15.88 0 0 0 .415 10.116v.002a19.45 19.45 0 0 0 7.21 8.99 19.9 19.9 0 0 0 11.098 3.413h7.853A19.9 19.9 0 0 0 45.24 71.07a19.45 19.45 0 0 0 7.208-9v-.001a15.87 15.87 0 0 0 .419-10.099z" clip-rule="evenodd"/><path fill="#aecc53" fill-rule="evenodd" d="M39.797 28.736c-.554-.094-1.076.296-1.167.87a8.96 8.96 0 0 1-2.893 5.327 8.37 8.37 0 0 1-5.525 2.117 8.37 8.37 0 0 1-5.525-2.117 8.96 8.96 0 0 1-2.893-5.326c-.09-.575-.613-.965-1.167-.871s-.93.635-.84 1.21c.404 2.568 1.673 4.905 3.582 6.592a10.35 10.35 0 0 0 6.841 2.622h.004a10.35 10.35 0 0 0 6.841-2.622c1.91-1.687 3.178-4.024 3.581-6.592.09-.575-.285-1.117-.84-1.21" clip-rule="evenodd"/><path fill="#aecc53" d="M22.176 30.182a1.607 1.607 0 1 0-3.2.291 1.607 1.607 0 0 0 3.2-.291m16.072 0a1.606 1.606 0 1 1 3.198.29 1.606 1.606 0 0 1-3.198-.29"/><path fill="#aecc53" fill-rule="evenodd" d="M44.555 42.378a1.03 1.03 0 0 0-1.132.932c-.361 3.35-1.908 6.444-4.345 8.696-2.436 2.25-5.592 3.5-8.866 3.511-3.275-.01-6.431-1.26-8.867-3.51C18.907 49.755 17.36 46.66 17 43.31a1.033 1.033 0 0 0-1.132-.932c-.563.064-.969.586-.906 1.164.415 3.865 2.2 7.436 5.011 10.034s6.455 4.04 10.235 4.051l.003-1.055.003 1.055c3.78-.012 7.422-1.454 10.234-4.052 2.811-2.597 4.595-6.168 5.012-10.032.062-.58-.343-1.1-.906-1.165" clip-rule="evenodd"/><path fill="#aecc53" d="M17.362 43.879a1.605 1.605 0 1 0-3.204.197 1.605 1.605 0 0 0 3.204-.197m24.897-.001a1.605 1.605 0 1 1 3.204.198 1.605 1.605 0 0 1-3.205-.198"/><path fill="#aecc53" fill-rule="evenodd" d="M30.212 16.678c-.444 0-.803.451-.803 1.008v91.927c0 .556.36 1.007.803 1.007s.803-.451.803-1.007V17.686c0-.557-.36-1.008-.803-1.008" clip-rule="evenodd"/><path fill="#aecc53" d="M30.212 19.087a1.606 1.606 0 1 1 0-3.212 1.606 1.606 0 0 1 0 3.212"/><path fill="#aecc53" d="M8.932 86.35a1.6 1.6 0 0 0 1.136-.473 1.62 1.62 0 0 0 0-2.286 1.6 1.6 0 0 0-1.136-.473H.71a13 13 0 0 1-.205-2.29q.02-1.022.247-2.02h8.181a1.6 1.6 0 0 0 1.09-.499 1.625 1.625 0 0 0 0-2.236 1.6 1.6 0 0 0-1.09-.5H1.695a60 60 0 0 1 1.741-4.309h5.496a1.6 1.6 0 0 0 1.136-.473 1.62 1.62 0 0 0 0-2.286 1.6 1.6 0 0 0-1.136-.473h-3.98a122 122 0 0 1 2.197-4.312h1.783a1.6 1.6 0 0 0 1.136-.474 1.62 1.62 0 0 0 0-2.285 1.6 1.6 0 0 0-1.136-.474h-.034c2.438-4.4 4.45-7.677 4.45-7.677s2.017 3.277 4.452 7.677h-.035a1.6 1.6 0 0 0-1.135.474 1.62 1.62 0 0 0 0 2.285 1.6 1.6 0 0 0 1.135.474h1.787a142 142 0 0 1 2.194 4.312h-3.98a1.6 1.6 0 0 0-1.136.473 1.62 1.62 0 0 0 0 2.286 1.6 1.6 0 0 0 1.135.473h5.5a59 59 0 0 1 1.741 4.309h-7.24c-.414.02-.804.198-1.09.5a1.625 1.625 0 0 0 0 2.236c.286.302.676.48 1.09.5h8.184c.15.663.233 1.34.247 2.02 0 .767-.07 1.533-.205 2.289h-8.227a1.6 1.6 0 0 0-1.135.473 1.62 1.62 0 0 0 0 2.286 1.6 1.6 0 0 0 1.135.473h7.203a12.9 12.9 0 0 1-4.741 5.4 12.8 12.8 0 0 1-6.876 2.008c-2.435 0-4.82-.696-6.877-2.007a12.9 12.9 0 0 1-4.74-5.401z" style="mix-blend-mode:multiply"/><path fill="#006d69" fill-rule="evenodd" d="M13.752 55.218a.39.39 0 0 0-.402.38v53.839c0 .21.18.38.402.38s.401-.17.401-.38V55.598c0-.21-.18-.38-.401-.38" clip-rule="evenodd"/></svg>