<svg xmlns="http://www.w3.org/2000/svg" width="99" height="152" fill="none" viewBox="0 0 99 152"><path fill="#aecc53" d="M-20.134 97.798a7.26 7.26 0 0 0 5.231 1.945 7.36 7.36 0 0 0 5.099-2.335 7.36 7.36 0 0 0 1.978-5.247 7.26 7.26 0 0 0-2.3-5.085l-27.278-25.46a59 59 0 0 1 6.407-8.23 45 45 0 0 1 7.072-5.933l27.139 25.33a7.28 7.28 0 0 0 5.16 1.715 7.38 7.38 0 0 0 4.938-2.331 7.38 7.38 0 0 0 1.986-5.088 7.28 7.28 0 0 0-2.065-5.03l-24.008-22.408c5.762-3 12.242-5.982 19.117-8.9l18.23 17.016a7.26 7.26 0 0 0 5.232 1.945 7.36 7.36 0 0 0 5.099-2.335 7.36 7.36 0 0 0 1.978-5.247 7.26 7.26 0 0 0-2.3-5.085L23.375 24.709c6.816-2.67 13.839-5.145 20.641-7.5l5.916 5.522a7.26 7.26 0 0 0 5.231 1.945 7.36 7.36 0 0 0 5.099-2.335 7.36 7.36 0 0 0 1.978-5.247 7.26 7.26 0 0 0-2.3-5.085l-.116-.108C81.534 4.855 98.36.214 98.36.214s-3.46 17.117-9.006 39.25l-.115-.108a7.26 7.26 0 0 0-5.232-1.945 7.36 7.36 0 0 0-5.099 2.335 7.36 7.36 0 0 0-1.978 5.247 7.26 7.26 0 0 0 2.3 5.085l5.927 5.532a644 644 0 0 1-6.072 21.098L65.88 64.382a7.26 7.26 0 0 0-5.232-1.945 7.36 7.36 0 0 0-5.099 2.335 7.36 7.36 0 0 0-1.978 5.247 7.26 7.26 0 0 0 2.3 5.085l18.243 17.027c-2.427 7.048-4.967 13.73-7.564 19.685l-24.019-22.42a7.28 7.28 0 0 0-5.16-1.714 7.37 7.37 0 0 0-4.938 2.331 7.38 7.38 0 0 0-1.986 5.088 7.28 7.28 0 0 0 2.066 5.029l27.15 25.342a46 46 0 0 1-5.432 7.464 59.3 59.3 0 0 1-7.77 6.957l-27.289-25.47a7.26 7.26 0 0 0-5.231-1.945 7.36 7.36 0 0 0-5.099 2.335 7.36 7.36 0 0 0-1.978 5.247 7.26 7.26 0 0 0 2.3 5.085l23.893 22.3a58.56 58.56 0 0 1-32.448 3.236 58.03 58.03 0 0 1-29.026-14.629 58 58 0 0 1-16.592-27.951 58.56 58.56 0 0 1 .994-32.593z"/><path fill="#fff" fill-opacity=".5" d="M-20.134 97.798a7.26 7.26 0 0 0 5.231 1.945 7.36 7.36 0 0 0 5.099-2.335 7.36 7.36 0 0 0 1.978-5.247 7.26 7.26 0 0 0-2.3-5.085l-27.278-25.46a59 59 0 0 1 6.407-8.23 45 45 0 0 1 7.072-5.933l27.139 25.33a7.28 7.28 0 0 0 5.16 1.715 7.38 7.38 0 0 0 4.938-2.331 7.38 7.38 0 0 0 1.986-5.088 7.28 7.28 0 0 0-2.065-5.03l-24.008-22.408c5.762-3 12.242-5.982 19.117-8.9l18.23 17.016a7.26 7.26 0 0 0 5.232 1.945 7.36 7.36 0 0 0 5.099-2.335 7.36 7.36 0 0 0 1.978-5.247 7.26 7.26 0 0 0-2.3-5.085L23.375 24.709c6.816-2.67 13.839-5.145 20.641-7.5l5.916 5.522a7.26 7.26 0 0 0 5.231 1.945 7.36 7.36 0 0 0 5.099-2.335 7.36 7.36 0 0 0 1.978-5.247 7.26 7.26 0 0 0-2.3-5.085l-.116-.108C81.534 4.855 98.36.214 98.36.214s-3.46 17.117-9.006 39.25l-.115-.108a7.26 7.26 0 0 0-5.232-1.945 7.36 7.36 0 0 0-5.099 2.335 7.36 7.36 0 0 0-1.978 5.247 7.26 7.26 0 0 0 2.3 5.085l5.927 5.532a644 644 0 0 1-6.072 21.098L65.88 64.382a7.26 7.26 0 0 0-5.232-1.945 7.36 7.36 0 0 0-5.099 2.335 7.36 7.36 0 0 0-1.978 5.247 7.26 7.26 0 0 0 2.3 5.085l18.243 17.027c-2.427 7.048-4.967 13.73-7.564 19.685l-24.019-22.42a7.28 7.28 0 0 0-5.16-1.714 7.37 7.37 0 0 0-4.938 2.331 7.38 7.38 0 0 0-1.986 5.088 7.28 7.28 0 0 0 2.066 5.029l27.15 25.342a46 46 0 0 1-5.432 7.464 59.3 59.3 0 0 1-7.77 6.957l-27.289-25.47a7.26 7.26 0 0 0-5.231-1.945 7.36 7.36 0 0 0-5.099 2.335 7.36 7.36 0 0 0-1.978 5.247 7.26 7.26 0 0 0 2.3 5.085l23.893 22.3a58.56 58.56 0 0 1-32.448 3.236 58.03 58.03 0 0 1-29.026-14.629 58 58 0 0 1-16.592-27.951 58.56 58.56 0 0 1 .994-32.593z"/></svg>