<svg xmlns="http://www.w3.org/2000/svg" width="28" height="29" fill="none" viewBox="0 0 28 29"><path fill="currentColor" d="M9.365 23.17c0 .116-.13.209-.293.209-.187.017-.316-.075-.316-.208 0-.116.13-.209.293-.209.17-.017.316.075.316.209m-1.755-.26c-.04.116.073.249.242.284.147.058.317 0 .35-.116.034-.116-.073-.249-.242-.301-.147-.04-.31.017-.35.133m2.495-.098c-.164.04-.277.15-.26.283.017.116.164.191.333.15.164-.04.277-.15.26-.265-.017-.11-.17-.186-.333-.168M13.819.625C5.99.625 0 6.722 0 14.752c0 6.421 3.94 11.916 9.569 13.85.722.133.976-.325.976-.701 0-.36-.017-2.34-.017-3.555 0 0-3.951.868-4.781-1.726 0 0-.644-1.684-1.57-2.119 0 0-1.292-.909.09-.891 0 0 1.406.116 2.18 1.494 1.236 2.235 3.308 1.592 4.115 1.21.13-.927.497-1.57.903-1.951-3.155-.36-6.34-.828-6.34-6.398 0-1.592.43-2.392 1.333-3.41-.147-.377-.627-1.928.147-3.932 1.18-.376 3.895 1.564 3.895 1.564a13 13 0 0 1 3.545-.493c1.203 0 2.416.168 3.545.493 0 0 2.716-1.946 3.895-1.564.774 2.01.294 3.555.147 3.932.903 1.024 1.457 1.823 1.457 3.41 0 5.587-3.325 6.033-6.48 6.398.518.457.959 1.325.959 2.686 0 1.951-.017 4.366-.017 4.84 0 .377.26.834.976.7C24.173 26.669 28 21.174 28 14.753 28 6.722 21.65.625 13.82.625m-8.332 19.97c-.073.057-.056.19.04.3.09.093.22.133.293.058.074-.058.057-.191-.04-.301-.09-.093-.22-.133-.293-.058m-.61-.47c-.04.075.017.168.13.226.09.058.203.04.243-.04.04-.076-.017-.169-.13-.226-.113-.035-.203-.018-.243.04m1.83 2.061c-.09.076-.057.25.073.36.13.132.293.15.367.057.073-.075.04-.249-.074-.359-.124-.133-.293-.15-.367-.058m-.644-.85c-.09.057-.09.208 0 .34.09.134.243.192.316.134.09-.075.09-.226 0-.359-.079-.133-.226-.191-.316-.116"/></svg>