<svg xmlns="http://www.w3.org/2000/svg" width="16" height="16" fill="none" viewBox="0 0 16 16"><path fill="#fff" d="M8 0C3.58 0 0 3.671 0 8.202c0 3.63 2.29 6.696 5.47 7.782.4.072.55-.173.55-.389 0-.195-.01-.841-.01-1.528-2.01.38-2.53-.502-2.69-.963-.09-.237-.48-.964-.82-1.159-.28-.154-.68-.533-.01-.544.63-.01 1.08.595 1.23.841.72 1.24 1.87.892 2.33.677.07-.533.28-.892.51-1.097-1.78-.205-3.64-.913-3.64-4.05 0-.892.31-1.63.82-2.205-.08-.205-.36-1.045.08-2.173 0 0 .67-.215 2.2.84a7.2 7.2 0 0 1 2-.276c.68 0 1.36.092 2 .277 1.53-1.067 2.2-.841 2.2-.841.44 1.128.16 1.968.08 2.173.51.574.82 1.303.82 2.204 0 3.149-1.87 3.846-3.65 4.05.29.258.54.75.54 1.518 0 1.097-.01 1.98-.01 2.256 0 .216.15.471.55.39C13.71 14.897 16 11.821 16 8.201 16 3.671 12.42 0 8 0"/></svg>