<svg xmlns="http://www.w3.org/2000/svg" width="157" height="53" fill="none" viewBox="0 0 157 53"><path fill="#aecc53" d="M13.774 44.912h-8.03a3.85 3.85 0 0 1-3.85-3.852V26.17l-1.76-2.954a.96.96 0 0 1 0-.982l1.76-2.952V4.372A3.85 3.85 0 0 1 5.743.487h8.043v1.925H5.745A1.925 1.925 0 0 0 3.819 4.37v15.155a.94.94 0 0 1-.141.488l-1.598 2.69 1.598 2.683c.09.146.14.315.14.488v15.16a1.926 1.926 0 0 0 1.927 1.926h8.042zm32.049 0H37.78v-1.926h8.043a1.926 1.926 0 0 0 1.925-1.925V25.893a1 1 0 0 1 .135-.488l1.605-2.683-1.605-2.69a1 1 0 0 1-.135-.487V4.371a1.926 1.926 0 0 0-1.925-1.958H37.78V.488h8.043a3.85 3.85 0 0 1 3.85 3.883v14.885l1.76 2.953a.96.96 0 0 1 0 .982l-1.76 2.952v14.892a3.85 3.85 0 0 1-3.85 3.851"/><path fill="#006d69" d="M40.09 24.385a2.882 2.882 0 0 0-2.285 4.968 13.08 13.08 0 0 1-10.738 7.991V25.052a11.03 11.03 0 0 0 7.96-5.077 2.894 2.894 0 1 0-2.921-3.325 2.86 2.86 0 0 0 .584 2.215 8.44 8.44 0 0 1-5.623 3.6V10.45a2.895 2.895 0 1 0-2.567 0v12.016a8.42 8.42 0 0 1-5.636-3.601 2.86 2.86 0 0 0 .584-2.215 2.895 2.895 0 1 0-2.927 3.325 11.04 11.04 0 0 0 7.979 5.077v12.292a13.08 13.08 0 0 1-10.758-7.991 2.895 2.895 0 1 0-2.465.75A15.64 15.64 0 0 0 24.5 39.925v12.498h2.567V39.924a15.64 15.64 0 0 0 13.21-9.82 2.888 2.888 0 0 0-.186-5.72M75.65 3.53h-2.567a2.81 2.81 0 0 0-2.625-1.444c-2.01 0-3.402 1.431-3.402 3.659s1.412 3.69 3.498 3.69a3.03 3.03 0 0 0 3.17-2.567h-3.85v-1.72h6.059v1.925a5.47 5.47 0 0 1-5.469 4.365 5.72 5.72 0 1 1 0-11.438c2.497 0 4.493 1.284 5.212 3.511m4.166 7.85h-2.247v-8.89h2.246v1.38a3.08 3.08 0 0 1 2.722-1.508V4.71h-.59c-1.33 0-2.132.514-2.132 2.228zm8.113.148c-2.568 0-4.455-1.798-4.455-4.59s1.83-4.589 4.455-4.589a4.17 4.17 0 0 1 4.384 4.397q.001.436-.064.866h-6.496a2.075 2.075 0 0 0 2.13 2.054 1.82 1.82 0 0 0 1.779-1.078h2.426a4.134 4.134 0 0 1-4.16 2.94m-2.163-5.424h4.217a1.977 1.977 0 0 0-2.118-1.926 2.067 2.067 0 0 0-2.1 1.926m12.069 5.424c-2.567 0-4.493-1.797-4.493-4.59 0-2.792 1.83-4.589 4.493-4.589a4.17 4.17 0 0 1 4.377 4.397q.007.436-.064.866h-6.495a2.085 2.085 0 0 0 2.13 2.054 1.84 1.84 0 0 0 1.785-1.078h2.433a4.136 4.136 0 0 1-4.153 2.94zm-2.15-5.424h4.217a1.977 1.977 0 0 0-2.118-1.926 2.067 2.067 0 0 0-2.1 1.926m14.391.365c0-1.424-.783-2.194-1.97-2.194-1.188 0-2.003.77-2.003 2.195v4.91h-2.246v-8.89h2.246v1.11a3.3 3.3 0 0 1 2.677-1.232c2.067 0 3.543 1.342 3.543 3.8v5.212h-2.247zM69.135 32.017c-2.324 0-4.12-1.22-4.153-3.338h2.382a1.536 1.536 0 0 0 1.7 1.489c1.06 0 1.682-.558 1.682-1.36 0-2.427-5.777-.964-5.777-5.027 0-2.022 1.637-3.209 3.948-3.209s3.851 1.175 4.005 3.21h-2.465a1.483 1.483 0 0 0-1.604-1.336c-.886-.032-1.54.405-1.54 1.316 0 2.247 5.737.995 5.737 4.942 0 1.766-1.412 3.357-3.96 3.357m9.898-.012a4.59 4.59 0 1 1 4.635-4.59 4.44 4.44 0 0 1-4.635 4.59m0-1.926c1.188 0 2.324-.867 2.324-2.632s-1.104-2.631-2.291-2.631c-1.188 0-2.26.847-2.26 2.631 0 1.785 1.027 2.632 2.227 2.632m6.534-5.263h-1.014v-1.85h1.014v-.45c0-2.182 1.233-3.209 3.736-3.125v1.893c-1.091-.032-1.457.321-1.457 1.316v.366h1.553v1.849h-1.553v7.06h-2.279zm5.648 0h-1.059v-1.85h1.06v-2.195h2.259v2.195h1.99v1.849h-1.99v4.3c0 .59.237.848.943.848h1.047V31.9h-1.412c-1.701 0-2.837-.719-2.837-2.76zm4.88-1.849h2.278l1.566 6.772 1.701-6.772h2.375l1.669 6.759 1.572-6.759h2.15l-2.599 8.89h-2.42l-1.624-6.207-1.618 6.207h-2.439zm18.016-.141a3.51 3.51 0 0 1 2.933 1.412v-1.284h2.266v8.89h-2.266v-1.284a3.5 3.5 0 0 1-2.952 1.445c-2.247 0-4.038-1.849-4.038-4.622s1.791-4.557 4.057-4.557m.578 1.97a2.37 2.37 0 0 0-2.343 2.568c0 1.682 1.136 2.644 2.343 2.644a2.39 2.39 0 0 0 2.355-2.612c0-1.688-1.123-2.619-2.355-2.619m9.063 7.08h-2.24v-8.89h2.24v1.38a3.1 3.1 0 0 1 2.728-1.508v2.368h-.59c-1.335 0-2.138.514-2.138 2.227zm8.12.148c-2.567 0-4.455-1.798-4.455-4.59s1.823-4.59 4.455-4.59a4.17 4.17 0 0 1 4.117 2.68 4.2 4.2 0 0 1 .267 1.718q.002.436-.064.866h-6.522a2.1 2.1 0 0 0 .641 1.473 2.1 2.1 0 0 0 1.497.581 1.82 1.82 0 0 0 1.778-1.078h2.426a4.13 4.13 0 0 1-4.159 2.94zm-2.182-5.424h4.217a1.975 1.975 0 0 0-2.118-1.926 2.07 2.07 0 0 0-2.099 1.926M65.272 41.247h6.912v1.81h-4.666v2.869h3.575v1.784h-3.575v4.73h-2.246zm12.452 11.341A4.589 4.589 0 1 1 82.358 48a4.44 4.44 0 0 1-4.634 4.59m0-1.925c1.187 0 2.323-.867 2.323-2.632s-1.11-2.631-2.291-2.631-2.266.847-2.266 2.631c0 1.785 1.027 2.632 2.234 2.632m14.673 1.775H90.13v-1.122a3.25 3.25 0 0 1-2.645 1.238c-2.067 0-3.562-1.347-3.562-3.787v-5.218h2.246v4.897c0 1.425.79 2.196 1.971 2.196s1.99-.77 1.99-2.196v-4.897h2.266zm8.447-4.91c0-1.424-.79-2.195-1.97-2.195-1.182 0-2.01.77-2.01 2.196v4.91h-2.246v-8.89h2.246v1.11a3.31 3.31 0 0 1 2.683-1.232c2.067 0 3.543 1.341 3.543 3.8v5.212h-2.246zm7.882-4.12a3.65 3.65 0 0 1 2.901 1.38v-4.217h2.279V52.44h-2.253v-1.316a3.35 3.35 0 0 1-2.921 1.464c-2.259 0-4.056-1.85-4.056-4.622 0-2.773 1.797-4.557 4.076-4.557zm.584 1.97a2.37 2.37 0 0 0-1.73.774 2.37 2.37 0 0 0-.613 1.794 2.44 2.44 0 0 0 .603 1.826 2.42 2.42 0 0 0 1.74.818c1.239 0 2.356-.93 2.356-2.612s-1.117-2.619-2.356-2.619m10.276-1.951a3.51 3.51 0 0 1 2.934 1.412v-1.284h2.266v8.89h-2.266v-1.284a3.51 3.51 0 0 1-2.953 1.445c-2.24 0-4.037-1.85-4.037-4.622 0-2.773 1.797-4.557 4.056-4.557m.578 1.97a2.37 2.37 0 0 0-2.343 2.568c0 1.681 1.136 2.644 2.343 2.644a2.395 2.395 0 0 0 2.356-2.612c0-1.688-1.123-2.619-2.356-2.619m7.176.039h-1.059v-1.85h1.059v-2.194h2.285v2.195h1.99V45.4h-1.99v4.3c0 .59.238.847.944.847h1.046v1.894h-1.412c-1.701 0-2.837-.72-2.837-2.76zm5.63-4.218a1.378 1.378 0 0 1 1.585-1.46 1.38 1.38 0 0 1 1.137 1.057 1.385 1.385 0 0 1-.567 1.446c-.228.157-.498.24-.775.241a1.314 1.314 0 0 1-1.38-1.284m.244 2.369h2.246v8.89h-2.246zm8.402 9.038a4.59 4.59 0 1 1 4.64-4.59 4.445 4.445 0 0 1-4.64 4.59m0-1.926c1.187 0 2.33-.867 2.33-2.632s-1.111-2.631-2.298-2.631-2.26.847-2.26 2.631c0 1.785 1.027 2.632 2.228 2.632m12.516-3.133c0-1.424-.783-2.195-1.97-2.195-1.188 0-2.01.77-2.01 2.196v4.91h-2.24v-8.89h2.253v1.11a3.31 3.31 0 0 1 2.683-1.232c2.067 0 3.543 1.341 3.543 3.8v5.212h-2.246z"/></svg>