<svg xmlns="http://www.w3.org/2000/svg" width="184" height="20" fill="none" viewBox="0 0 184 20"><path fill="#aecc53" d="M5.342 17.108H2.228c-.396 0-.776-.156-1.056-.434a1.48 1.48 0 0 1-.438-1.05V9.89L.052 8.753a.37.37 0 0 1 0-.378l.682-1.137V1.495A1.47 1.47 0 0 1 1.167.44 1.5 1.5 0 0 1 2.228 0h3.12v.742h-3.12a.75.75 0 0 0-.694.466.7.7 0 0 0-.053.287v5.837a.36.36 0 0 1-.055.187l-.62 1.036.62 1.033a.36.36 0 0 1 .055.188v5.839a.746.746 0 0 0 .747.742h3.12zm12.43 0h-3.12v-.742h3.12a.75.75 0 0 0 .528-.217.74.74 0 0 0 .219-.524V9.784q.001-.1.052-.188l.623-1.033-.623-1.036a.4.4 0 0 1-.052-.188V1.495A.74.74 0 0 0 18.06.8a.8.8 0 0 0-.289-.057h-3.12V0h3.12a1.5 1.5 0 0 1 1.06.439 1.5 1.5 0 0 1 .434 1.056v5.733l.682 1.137a.37.37 0 0 1 0 .378l-.682 1.137v5.735c0 .393-.158.77-.438 1.049a1.5 1.5 0 0 1-1.056.434"/><path fill="#006d69" d="M15.549 9.203a1.12 1.12 0 0 0-1.138.64 1.1 1.1 0 0 0 .252 1.273 5.04 5.04 0 0 1-1.656 2.108 5.1 5.1 0 0 1-2.51.97V9.46a4.3 4.3 0 0 0 1.766-.633c.533-.338.985-.79 1.322-1.322a1.13 1.13 0 0 0 1.005-.665 1.11 1.11 0 0 0-.184-1.186 1.12 1.12 0 0 0-1.16-.334 1.12 1.12 0 0 0-.794.904 1.1 1.1 0 0 0 .227.853 3.26 3.26 0 0 1-2.181 1.387V3.836a1.107 1.107 0 0 0 .2-1.873 1.128 1.128 0 0 0-1.791.62 1.11 1.11 0 0 0 .595 1.253v4.628a3.28 3.28 0 0 1-2.186-1.387 1.1 1.1 0 0 0 .227-.853 1.11 1.11 0 0 0-.793-.903 1.13 1.13 0 0 0-1.16.332 1.111 1.111 0 0 0 .818 1.852c.337.533.79.985 1.325 1.323s1.14.554 1.77.632v4.733a5.1 5.1 0 0 1-2.514-.967 5.04 5.04 0 0 1-1.66-2.11 1.113 1.113 0 0 0-.36-1.848 1.13 1.13 0 0 0-1.334.404 1.11 1.11 0 0 0 .091 1.381c.17.187.398.31.648.352a6.03 6.03 0 0 0 2.022 2.616 6.1 6.1 0 0 0 3.106 1.166V20h.996v-4.813A6.1 6.1 0 0 0 13.6 14.02a6.03 6.03 0 0 0 2.02-2.615 1.12 1.12 0 0 0 .679-.393 1.11 1.11 0 0 0-.048-1.46 1.12 1.12 0 0 0-.703-.35"/><path fill="#006d68" d="M31.04 14.132q-1.428 0-2.424-.54a3.64 3.64 0 0 1-1.5-1.512q-.516-.972-.516-2.28 0-1.344.528-2.328a3.74 3.74 0 0 1 1.548-1.524q1.02-.54 2.424-.54.6 0 1.152.12a5 5 0 0 1 1.02.312q.48.204.816.492l-.6 1.452a3.6 3.6 0 0 0-1.128-.576q-.576-.18-1.248-.18-1.284 0-1.932.708-.636.708-.636 2.064t.648 2.052q.66.696 1.944.696.432 0 .888-.084a6 6 0 0 0 .9-.24l-.348.756v-2.304h-1.824V9.332h3.36v4.152q-.408.204-.924.348a7 7 0 0 1-1.056.216 7 7 0 0 1-1.092.084M35.602 14V8.108h1.776v1.44h-.12q.144-.72.624-1.104.492-.396 1.296-.456l.528-.036.108 1.524-1.02.108q-.684.06-1.02.396-.324.336-.324.972V14zm7.9.132q-1.044 0-1.8-.372a2.8 2.8 0 0 1-1.152-1.068q-.396-.696-.396-1.632 0-.912.384-1.596a2.7 2.7 0 0 1 1.068-1.08 3.1 3.1 0 0 1 1.572-.396q.864 0 1.488.372.624.36.96 1.032.348.672.348 1.596v.456h-4.332v-.936h3.024l-.192.168q0-.732-.324-1.104-.312-.384-.9-.384-.444 0-.756.204a1.3 1.3 0 0 0-.48.588q-.168.384-.168.924V11q0 .612.18 1.008.192.384.564.576.384.192.948.192.48 0 .972-.144t.888-.444l.48 1.212q-.444.336-1.092.54a4.4 4.4 0 0 1-1.284.192m6.586 0q-1.044 0-1.8-.372a2.8 2.8 0 0 1-1.152-1.068q-.396-.696-.396-1.632 0-.912.384-1.596a2.7 2.7 0 0 1 1.068-1.08 3.1 3.1 0 0 1 1.572-.396q.864 0 1.488.372.624.36.96 1.032.348.672.348 1.596v.456h-4.332v-.936h3.024l-.192.168q0-.732-.324-1.104-.312-.384-.9-.384-.444 0-.756.204a1.3 1.3 0 0 0-.48.588q-.168.384-.168.924V11q0 .612.18 1.008.192.384.564.576.384.192.948.192.48 0 .972-.144t.888-.444l.48 1.212q-.444.336-1.092.54a4.4 4.4 0 0 1-1.284.192M53.614 14V8.108h1.776v1.104h-.132q.276-.588.816-.9a2.4 2.4 0 0 1 1.248-.324q.708 0 1.164.276.456.264.684.816.228.54.228 1.38V14h-1.812v-3.456q0-.408-.108-.66a.65.65 0 0 0-.3-.372.9.9 0 0 0-.492-.12q-.384 0-.672.168a1.1 1.1 0 0 0-.432.456q-.156.3-.156.696V14zm13.657.132q-.66 0-1.284-.12a6 6 0 0 1-1.14-.312 4.4 4.4 0 0 1-.924-.504l.54-1.464q.384.264.828.456t.948.3q.504.096 1.031.096.876 0 1.249-.264.37-.276.371-.684a.66.66 0 0 0-.12-.396q-.108-.168-.371-.288-.252-.132-.697-.216l-1.355-.288q-1.152-.24-1.716-.816-.552-.588-.552-1.536 0-.816.431-1.416.444-.6 1.212-.936.78-.336 1.788-.336.588 0 1.128.12.54.108.996.324.457.216.793.516l-.54 1.368a3.3 3.3 0 0 0-1.08-.576 4 4 0 0 0-1.308-.204q-.505 0-.864.132a1.23 1.23 0 0 0-.54.372.9.9 0 0 0-.18.552q0 .348.251.564.252.216.877.348l1.355.288q1.177.252 1.752.816.576.552.576 1.464 0 .792-.431 1.392-.42.588-1.2.924-.769.324-1.825.324m7.339 0q-.948 0-1.656-.372a2.6 2.6 0 0 1-1.08-1.068q-.384-.696-.384-1.644t.384-1.632a2.64 2.64 0 0 1 1.08-1.056q.708-.372 1.656-.372t1.644.372q.708.372 1.092 1.068.396.684.396 1.62 0 .948-.396 1.644-.384.696-1.092 1.068-.696.372-1.644.372m0-1.356q.588 0 .948-.42.36-.432.36-1.308t-.36-1.284q-.36-.42-.948-.42-.576 0-.936.42-.36.408-.36 1.284t.36 1.308q.36.42.936.42M79.242 14V9.464h-1.116V8.108h1.644l-.528.48v-.372q0-1.308.696-1.956.696-.66 2.172-.744l.66-.048.108 1.32-.564.036q-.468.024-.744.156a.78.78 0 0 0-.396.348q-.12.216-.12.576v.408l-.228-.204h1.764v1.356h-1.536V14zm6.666.132q-1.26 0-1.872-.612t-.612-1.8V9.464h-1.116V8.108h1.116V6.38h1.812v1.728h1.74v1.356h-1.74v2.184q0 .504.228.756.24.252.756.252.156 0 .324-.036.18-.036.384-.096l.264 1.32a2.3 2.3 0 0 1-.6.204q-.348.084-.684.084M89.641 14l-2.4-5.892h1.836l1.548 4.14h-.276l1.536-4.14h1.2l1.524 4.14h-.228l1.512-4.14h1.74L95.257 14h-1.536L92.03 9.632h.78L91.165 14zm10.543.132q-.648 0-1.164-.252a2 2 0 0 1-.804-.684 1.7 1.7 0 0 1-.288-.972q0-.648.336-1.02.336-.384 1.092-.54.756-.168 2.004-.168h.636v.936h-.624a7 7 0 0 0-.792.036 1.7 1.7 0 0 0-.516.132.7.7 0 0 0-.3.216.6.6 0 0 0-.084.336q0 .336.228.552.24.216.684.216.348 0 .612-.156a1.2 1.2 0 0 0 .432-.444q.156-.288.156-.648v-1.38q0-.528-.24-.744-.24-.228-.816-.228-.48 0-1.02.156a4.6 4.6 0 0 0-1.056.444l-.492-1.212a3.2 3.2 0 0 1 .756-.372q.456-.168.948-.252a5 5 0 0 1 .936-.096q.924 0 1.512.276.6.264.9.828.3.552.3 1.428V14h-1.692v-1.188h.084a1.54 1.54 0 0 1-.9 1.164q-.36.156-.828.156m4.688-.132V8.108h1.776v1.44h-.12q.144-.72.624-1.104.492-.396 1.296-.456l.528-.036.108 1.524-1.02.108q-.684.06-1.02.396-.324.336-.324.972V14zm7.9.132q-1.044 0-1.8-.372a2.8 2.8 0 0 1-1.152-1.068q-.396-.696-.396-1.632 0-.912.384-1.596a2.7 2.7 0 0 1 1.068-1.08 3.1 3.1 0 0 1 1.572-.396q.864 0 1.488.372.624.36.96 1.032.348.672.348 1.596v.456h-4.332v-.936h3.024l-.192.168q0-.732-.324-1.104-.312-.384-.9-.384-.444 0-.756.204a1.3 1.3 0 0 0-.48.588q-.168.384-.168.924V11q0 .612.18 1.008.192.384.564.576.384.192.948.192.48 0 .972-.144t.888-.444l.48 1.212q-.444.336-1.092.54a4.4 4.4 0 0 1-1.284.192m7.021-.132V5.54h5.712v1.452h-3.852v2.064h3.588v1.452h-3.588V14zm9.321.132q-.948 0-1.656-.372a2.6 2.6 0 0 1-1.08-1.068q-.384-.696-.384-1.644t.384-1.632a2.64 2.64 0 0 1 1.08-1.056q.708-.372 1.656-.372t1.644.372q.708.372 1.092 1.068.396.684.396 1.62 0 .948-.396 1.644-.384.696-1.092 1.068-.696.372-1.644.372m0-1.356q.588 0 .948-.42.36-.432.36-1.308t-.36-1.284q-.36-.42-.948-.42-.576 0-.936.42-.36.408-.36 1.284t.36 1.308q.36.42.936.42m6.406 1.356q-.744 0-1.236-.276a1.7 1.7 0 0 1-.732-.828q-.228-.564-.228-1.392V8.108h1.812v3.576q0 .348.096.588.096.228.288.348.204.108.516.108.348 0 .612-.156a1.1 1.1 0 0 0 .408-.468q.156-.3.156-.708V8.108h1.812V14h-1.764v-1.152h.18a2.14 2.14 0 0 1-.756.948q-.492.336-1.164.336m4.906-.132V8.108h1.776v1.104h-.132q.276-.588.816-.9a2.4 2.4 0 0 1 1.248-.324q.708 0 1.164.276.456.264.684.816.228.54.228 1.38V14h-1.812v-3.456q0-.408-.108-.66a.65.65 0 0 0-.3-.372.9.9 0 0 0-.492-.12q-.384 0-.672.168a1.1 1.1 0 0 0-.432.456q-.156.3-.156.696V14zm9.429.132q-.768 0-1.356-.372-.576-.372-.9-1.068t-.324-1.644.324-1.632a2.5 2.5 0 0 1 .9-1.056 2.5 2.5 0 0 1 1.356-.372q.696 0 1.224.336.54.336.732.876h-.132V5.54h1.812V14h-1.776v-1.164h.108a1.65 1.65 0 0 1-.72.948q-.54.348-1.248.348m.54-1.356q.588 0 .948-.42.36-.432.36-1.308t-.36-1.284q-.36-.42-.948-.42-.576 0-.936.42-.36.408-.36 1.284t.36 1.308q.36.42.936.42m6.484 1.356q-.648 0-1.164-.252a2 2 0 0 1-.804-.684 1.7 1.7 0 0 1-.288-.972q0-.648.336-1.02.336-.384 1.092-.54.756-.168 2.004-.168h.636v.936h-.624a7 7 0 0 0-.792.036 1.7 1.7 0 0 0-.516.132.7.7 0 0 0-.3.216.6.6 0 0 0-.084.336q0 .336.228.552.24.216.684.216.348 0 .612-.156a1.2 1.2 0 0 0 .432-.444q.156-.288.156-.648v-1.38q0-.528-.24-.744-.24-.228-.816-.228-.48 0-1.02.156a4.6 4.6 0 0 0-1.056.444l-.492-1.212a3.2 3.2 0 0 1 .756-.372q.456-.168.948-.252.492-.096.936-.096.924 0 1.512.276.6.264.9.828.3.552.3 1.428V14h-1.692v-1.188h.084a1.54 1.54 0 0 1-.9 1.164q-.36.156-.828.156m7.58 0q-1.26 0-1.872-.612t-.612-1.8V9.464h-1.116V8.108h1.116V6.38h1.812v1.728h1.74v1.356h-1.74v2.184q0 .504.228.756.24.252.756.252.156 0 .324-.036.18-.036.384-.096l.264 1.32a2.3 2.3 0 0 1-.6.204q-.348.084-.684.084m1.888-7.164V5.276h1.956v1.692zm.072 7.032V8.108h1.812V14zm6.043.132q-.948 0-1.656-.372a2.6 2.6 0 0 1-1.08-1.068q-.384-.696-.384-1.644t.384-1.632a2.64 2.64 0 0 1 1.08-1.056q.708-.372 1.656-.372t1.644.372q.708.372 1.092 1.068.396.684.396 1.62 0 .948-.396 1.644-.384.696-1.092 1.068-.696.372-1.644.372m0-1.356q.588 0 .948-.42.36-.432.36-1.308t-.36-1.284q-.36-.42-.948-.42-.576 0-.936.42-.36.408-.36 1.284t.36 1.308q.36.42.936.42M176.696 14V8.108h1.776v1.104h-.132q.276-.588.816-.9a2.4 2.4 0 0 1 1.248-.324q.708 0 1.164.276.456.264.684.816.228.54.228 1.38V14h-1.812v-3.456q0-.408-.108-.66a.65.65 0 0 0-.3-.372.9.9 0 0 0-.492-.12q-.384 0-.672.168a1.1 1.1 0 0 0-.432.456q-.156.3-.156.696V14z"/></svg>