<?xml version="1.0" encoding="UTF-8"?>
<svg id="Layer_1" xmlns="http://www.w3.org/2000/svg" version="1.1" viewBox="0 0 165 165">
  <!-- Generator: Adobe Illustrator 30.2.1, SVG Export Plug-In . SVG Version: 2.1.1 Build 1)  -->
  <defs>
    <style>
      .st0 {
        fill: #aecc53;
      }

      .st1 {
        fill: #006d68;
      }
    </style>
  </defs>
  <g>
    <path class="st0" d="M63.8,111.26h-12.53c-3.33,0-6.05-2.71-6.05-6.05v-23.2l-2.74-4.59c-.28-.47-.28-1.06,0-1.54l2.74-4.59v-23.2c0-3.33,2.71-6.05,6.05-6.05h12.53v3h-12.53c-1.68,0-3.05,1.37-3.05,3.05v23.61c0,.27-.07.54-.21.77l-2.49,4.18,2.49,4.18c.14.23.21.5.21.77v23.61c0,1.68,1.37,3.05,3.05,3.05h12.53v3Z"/>
    <path class="st0" d="M113.73,111.26h-12.53v-3h12.53c1.68,0,3.05-1.37,3.05-3.05v-23.61c0-.27.07-.54.21-.77l2.49-4.18-2.49-4.18c-.14-.23-.21-.5-.21-.77v-23.61c0-1.68-1.37-3.05-3.05-3.05h-12.53v-3h12.53c3.33,0,6.05,2.71,6.05,6.05v23.2l2.74,4.59c.28.47.28,1.06,0,1.54l-2.74,4.59v23.2c0,3.33-2.71,6.05-6.05,6.05Z"/>
  </g>
  <path class="st1" d="M104.8,79.27c-2.48-.25-4.69,1.55-4.95,4.03-.15,1.44.42,2.78,1.39,3.71-2.84,6.85-9.26,11.7-16.74,12.45v-19.15c5.12-.62,9.69-3.58,12.41-7.9,2.15-.04,4.03-1.62,4.36-3.82.38-2.46-1.32-4.77-3.78-5.14-2.46-.38-4.77,1.32-5.14,3.78-.2,1.28.18,2.51.92,3.46-2.01,2.97-5.19,5.03-8.77,5.6v-18.72c1.48-.74,2.51-2.26,2.51-4.02,0-2.49-2.02-4.51-4.51-4.51s-4.51,2.02-4.51,4.51c0,1.77,1.03,3.29,2.51,4.02v18.72c-3.58-.57-6.77-2.63-8.78-5.61.74-.95,1.11-2.18.92-3.46-.38-2.46-2.68-4.15-5.14-3.78-2.46.38-4.15,2.68-3.78,5.14.34,2.2,2.21,3.77,4.36,3.82,2.71,4.33,7.29,7.29,12.42,7.91v19.15c-7.48-.74-13.91-5.59-16.75-12.45.97-.93,1.54-2.27,1.39-3.71-.25-2.48-2.47-4.28-4.95-4.03-2.48.25-4.28,2.47-4.03,4.95.21,2.06,1.79,3.64,3.74,3.97,3.37,8.52,11.35,14.53,20.6,15.29v19.47h4v-19.47c9.24-.77,17.21-6.78,20.59-15.29,1.95-.33,3.53-1.91,3.74-3.97.25-2.48-1.55-4.69-4.03-4.95Z"/>
</svg>