<?xml version="1.0" encoding="utf-8"?>
<!-- Generator: Adobe Illustrator 25.0.1, SVG Export Plug-In . SVG Version: 6.00 Build 0)  -->
<svg version="1.1" id="Layer_1" xmlns="http://www.w3.org/2000/svg" xmlns:xlink="http://www.w3.org/1999/xlink" x="0px" y="0px"
	 viewBox="0 0 209.8 209.8" style="enable-background:new 0 0 209.8 209.8;" xml:space="preserve">
<style type="text/css">
	.st0{clip-path:url(#SVGID_2_);}
	.st1{fill:#AECC53;}
	.st2{fill:#006D69;}
</style>
<g>
	<g>
		<defs>
			<rect id="SVGID_1_" x="30.7" y="30.7" width="148.3" height="148.3"/>
		</defs>
		<clipPath id="SVGID_2_">
			<use xlink:href="#SVGID_1_"  style="overflow:visible;"/>
		</clipPath>
		<g class="st0">
			<path class="st1" d="M70.8,158.2h-23c-3,0-5.7-1.2-7.9-3.2c-2.1-2-3.3-4.9-3.3-7.7v-42.7l-5-8.4c-0.2-0.4-0.4-1-0.4-1.4
				c0-0.5,0.1-1,0.4-1.4l5-8.4V42.3c0-3,1.2-5.7,3.3-7.7c2.1-2,4.9-3.2,7.9-3.2h23v5.5h-23c-0.7,0-1.5,0.1-2.1,0.4
				c-0.6,0.3-1.3,0.6-1.8,1.2c-0.5,0.5-1,1.2-1.2,1.8c-0.2,0.6-0.4,1.4-0.4,2.1v43.4c0,0.5-0.1,1-0.4,1.4l-4.6,7.6l4.6,7.6
				c0.2,0.4,0.4,1,0.4,1.4v43.4c0,1.5,0.6,2.9,1.7,3.9c1.1,1.1,2.4,1.6,3.9,1.6h23v5.4H70.8z"/>
			<path class="st1" d="M162.5,158.2h-23v-5.5h23c1.5,0,2.9-0.5,3.9-1.6c1.1-1.1,1.7-2.4,1.7-3.9v-43.4c0-0.5,0.1-1,0.4-1.4l4.6-7.6
				l-4.6-7.6c-0.2-0.4-0.4-1-0.4-1.4V42.2c0-0.7-0.1-1.5-0.4-2.1c-0.3-0.6-0.7-1.3-1.2-1.8c-0.5-0.5-1.2-1-1.8-1.2
				c-0.6-0.3-1.4-0.4-2.1-0.4h-23v-5.5h23c1.5,0,2.9,0.2,4.2,0.8c1.4,0.5,2.5,1.4,3.6,2.3c1.1,1.1,1.8,2.2,2.4,3.6
				c0.5,1.4,0.8,2.8,0.8,4.2v42.7l5,8.4c0.2,0.4,0.4,1,0.4,1.4c0,0.5-0.1,1-0.4,1.4l-5,8.4V147c0,3-1.2,5.7-3.3,7.7
				C168.3,156.9,165.4,158.1,162.5,158.2"/>
			<path class="st2" d="M146.1,99.5c-1.7-0.2-3.5,0.2-5,1.1s-2.7,2.1-3.4,3.7s-1,3.3-0.6,5c0.3,1.7,1.2,3.3,2.4,4.5
				c-2.5,6.3-6.8,11.7-12.2,15.7c-5.4,4-11.8,6.5-18.6,7.2v-35.1c4.7-0.5,9.1-2.2,13.1-4.7c3.9-2.5,7.3-5.8,9.8-9.9
				c1.9,0,3.7-0.7,5.1-1.9c1.5-1.2,2.4-2.9,2.9-4.7c0.4-1.8,0.2-3.7-0.6-5.4c-0.8-1.7-2.2-3.1-3.9-3.8c-1.7-0.8-3.6-1.1-5.4-0.6
				c-1.8,0.4-3.5,1.5-4.7,2.9c-1.2,1.5-1.8,3.3-1.8,5.2s0.6,3.7,1.8,5.2c-1.8,2.8-4.2,5-7,6.8c-2.8,1.8-5.8,3-9.1,3.5V59.6
				c1.7-0.8,3-2.2,3.8-3.9c0.8-1.7,1-3.6,0.5-5.4c-0.4-1.8-1.5-3.4-2.9-4.6c-1.5-1.2-3.3-1.8-5.2-1.8s-3.7,0.6-5.2,1.8
				c-1.5,1.2-2.4,2.8-2.9,4.6c-0.4,1.8-0.2,3.7,0.5,5.4c0.8,1.7,2.1,3.1,3.8,3.9V94c-3.3-0.5-6.4-1.7-9.1-3.5
				c-2.8-1.8-5.2-4.1-7-6.8c1.2-1.5,1.8-3.3,1.7-5.1s-0.6-3.7-1.8-5.1c-1.2-1.5-2.8-2.4-4.6-2.9c-1.8-0.4-3.7-0.2-5.4,0.6
				c-1.7,0.8-3.1,2.1-3.8,3.8c-0.8,1.7-1.1,3.6-0.6,5.4c0.4,1.8,1.4,3.5,2.9,4.7c1.5,1.2,3.2,1.8,5.1,1.9c2.4,3.9,5.8,7.3,9.8,9.9
				s8.4,4.1,13.1,4.7v35.1c-6.7-0.6-13.2-3.2-18.6-7.2c-5.4-4-9.7-9.4-12.2-15.7c1-0.8,1.6-1.9,2.1-3.1c0.4-1.2,0.6-2.4,0.5-3.7
				c-0.1-1.5-0.7-3-1.7-4.2c-1-1.3-2.2-2.1-3.6-2.8c-1.5-0.5-3-0.6-4.6-0.4c-1.5,0.3-2.9,1.1-4,2.1c-1.2,1.1-1.9,2.4-2.3,3.9
				c-0.4,1.5-0.4,3.1,0.1,4.6c0.4,1.5,1.3,2.8,2.4,3.8c1.2,1.1,2.5,1.7,4.1,1.9c3.1,7.7,8.3,14.4,15,19.4c6.7,5,14.6,8,22.9,8.7
				v35.8h7.3v-35.8c8.3-0.7,16.2-3.7,22.9-8.7c6.7-5,11.9-11.7,14.9-19.4c2-0.3,3.8-1.4,5.1-2.9c1.3-1.6,1.9-3.5,1.9-5.5
				c-0.1-2-0.8-3.9-2.2-5.4C150,100.6,148.1,99.6,146.1,99.5"/>
		</g>
	</g>
</g>
</svg>
