<svg xmlns="http://www.w3.org/2000/svg" xmlns:xlink="http://www.w3.org/1999/xlink" xml:space="preserve" viewBox="0 0 209.8 209.8"><defs><path id="a" d="M30.7 30.7H179V179H30.7z"/></defs><clipPath id="b"><use xlink:href="#a" style="overflow:visible"/></clipPath><g style="clip-path:url(#b)"><path d="M70.8 158.2h-23c-3 0-5.7-1.2-7.9-3.2-2.1-2-3.3-4.9-3.3-7.7v-42.7l-5-8.4c-.2-.4-.4-1-.4-1.4 0-.5.1-1 .4-1.4l5-8.4V42.3c0-3 1.2-5.7 3.3-7.7s4.9-3.2 7.9-3.2h23v5.5h-23c-.7 0-1.5.1-2.1.4s-1.3.6-1.8 1.2c-.5.5-1 1.2-1.2 1.8s-.4 1.4-.4 2.1v43.4c0 .5-.1 1-.4 1.4l-4.6 7.6 4.6 7.6c.2.4.4 1 .4 1.4v43.4c0 1.5.6 2.9 1.7 3.9 1.1 1.1 2.4 1.6 3.9 1.6h23v5.4h-.1zm91.7 0h-23v-5.5h23c1.5 0 2.9-.5 3.9-1.6 1.1-1.1 1.7-2.4 1.7-3.9v-43.4c0-.5.1-1 .4-1.4l4.6-7.6-4.6-7.6c-.2-.4-.4-1-.4-1.4V42.2c0-.7-.1-1.5-.4-2.1s-.7-1.3-1.2-1.8-1.2-1-1.8-1.2c-.6-.3-1.4-.4-2.1-.4h-23v-5.5h23c1.5 0 2.9.2 4.2.8 1.4.5 2.5 1.4 3.6 2.3 1.1 1.1 1.8 2.2 2.4 3.6.5 1.4.8 2.8.8 4.2v42.7l5 8.4c.2.4.4 1 .4 1.4 0 .5-.1 1-.4 1.4l-5 8.4V147c0 3-1.2 5.7-3.3 7.7-2 2.2-4.9 3.4-7.8 3.5" style="fill:#aecc53"/><path d="M146.1 99.5c-1.7-.2-3.5.2-5 1.1s-2.7 2.1-3.4 3.7-1 3.3-.6 5c.3 1.7 1.2 3.3 2.4 4.5-2.5 6.3-6.8 11.7-12.2 15.7s-11.8 6.5-18.6 7.2v-35.1c4.7-.5 9.1-2.2 13.1-4.7 3.9-2.5 7.3-5.8 9.8-9.9 1.9 0 3.7-.7 5.1-1.9 1.5-1.2 2.4-2.9 2.9-4.7.4-1.8.2-3.7-.6-5.4s-2.2-3.1-3.9-3.8c-1.7-.8-3.6-1.1-5.4-.6-1.8.4-3.5 1.5-4.7 2.9-1.2 1.5-1.8 3.3-1.8 5.2s.6 3.7 1.8 5.2c-1.8 2.8-4.2 5-7 6.8s-5.8 3-9.1 3.5V59.6c1.7-.8 3-2.2 3.8-3.9s1-3.6.5-5.4c-.4-1.8-1.5-3.4-2.9-4.6-1.5-1.2-3.3-1.8-5.2-1.8s-3.7.6-5.2 1.8-2.4 2.8-2.9 4.6c-.4 1.8-.2 3.7.5 5.4.8 1.7 2.1 3.1 3.8 3.9V94c-3.3-.5-6.4-1.7-9.1-3.5-2.8-1.8-5.2-4.1-7-6.8 1.2-1.5 1.8-3.3 1.7-5.1s-.6-3.7-1.8-5.1c-1.2-1.5-2.8-2.4-4.6-2.9a8.4 8.4 0 0 0-5.4.6c-1.7.8-3.1 2.1-3.8 3.8-.8 1.7-1.1 3.6-.6 5.4.4 1.8 1.4 3.5 2.9 4.7s3.2 1.8 5.1 1.9c2.4 3.9 5.8 7.3 9.8 9.9s8.4 4.1 13.1 4.7v35.1c-6.7-.6-13.2-3.2-18.6-7.2s-9.7-9.4-12.2-15.7c1-.8 1.6-1.9 2.1-3.1.4-1.2.6-2.4.5-3.7-.1-1.5-.7-3-1.7-4.2-1-1.3-2.2-2.1-3.6-2.8-1.5-.5-3-.6-4.6-.4-1.5.3-2.9 1.1-4 2.1-1.2 1.1-1.9 2.4-2.3 3.9s-.4 3.1.1 4.6c.4 1.5 1.3 2.8 2.4 3.8 1.2 1.1 2.5 1.7 4.1 1.9 3.1 7.7 8.3 14.4 15 19.4s14.6 8 22.9 8.7v35.8h7.3V144c8.3-.7 16.2-3.7 22.9-8.7s11.9-11.7 14.9-19.4c2-.3 3.8-1.4 5.1-2.9 1.3-1.6 1.9-3.5 1.9-5.5-.1-2-.8-3.9-2.2-5.4-1.6-1.5-3.5-2.5-5.5-2.6" style="fill:#006d69"/></g></svg>