<svg xmlns="http://www.w3.org/2000/svg" viewBox="0 0 328.41 166.89"><path d="M66.11 115.18H52.29c-3.68 0-6.67-2.99-6.67-6.67v-25.6l-3.02-5.07c-.31-.52-.31-1.17 0-1.69l3.02-5.07v-25.6c0-3.68 2.99-6.67 6.67-6.67h13.82v3.31H52.29c-1.85 0-3.36 1.51-3.36 3.36v26.05c0 .3-.08.59-.23.85l-2.75 4.61 2.75 4.61c.15.26.23.55.23.85v26.05c0 1.85 1.51 3.36 3.36 3.36h13.82v3.31Zm55.09 0h-13.82v-3.31h13.82c1.85 0 3.36-1.51 3.36-3.36V82.46c0-.3.08-.59.23-.85l2.75-4.61-2.75-4.61c-.15-.26-.23-.55-.23-.85V45.49c0-1.85-1.51-3.36-3.36-3.36h-13.82v-3.31h13.82c3.68 0 6.67 2.99 6.67 6.67v25.6l3.02 5.07c.31.52.31 1.17 0 1.7l-3.02 5.07v25.6c0 3.68-2.99 6.67-6.67 6.67Z" style="fill:#a4c94d"/><path d="M111.35 79.88a4.98 4.98 0 0 0-5.46 4.45c-.16 1.59.46 3.07 1.53 4.1-3.13 7.56-10.22 12.91-18.47 13.74V81.04c5.65-.69 10.7-3.95 13.69-8.72a4.99 4.99 0 0 0 4.82-4.21 4.967 4.967 0 0 0-4.17-5.67 4.967 4.967 0 0 0-5.67 4.17c-.22 1.41.19 2.77 1.01 3.81-2.22 3.28-5.73 5.55-9.67 6.18V55.94c1.64-.82 2.77-2.49 2.77-4.44a4.98 4.98 0 0 0-9.96 0 4.95 4.95 0 0 0 2.77 4.44V76.6c-3.95-.62-7.47-2.9-9.69-6.19.82-1.04 1.23-2.4 1.01-3.81a4.985 4.985 0 0 0-5.67-4.17 4.985 4.985 0 0 0-4.17 5.67c.37 2.43 2.44 4.16 4.82 4.21 2.99 4.78 8.05 8.04 13.71 8.72v21.13c-8.25-.82-15.35-6.17-18.49-13.74 1.08-1.03 1.7-2.5 1.53-4.1a4.976 4.976 0 0 0-5.46-4.45 4.983 4.983 0 0 0-4.45 5.46c.23 2.28 1.97 4.02 4.12 4.38 3.72 9.4 12.53 16.03 22.73 16.88v21.48h4.41v-21.48c10.2-.85 19-7.48 22.71-16.87 2.15-.37 3.89-2.11 4.12-4.38a4.976 4.976 0 0 0-4.45-5.46Zm89.65.57h-11.18c-2.22-4.1-6.25-6.25-11.39-6.25-8.68 0-14.73 6.18-14.73 15.84s6.11 15.98 15.14 15.98c7.5 0 12.3-4.31 13.75-11.18h-16.67v-7.43h26.26v8.47c-1.94 9.86-10.77 18.89-23.69 18.89-14.1 0-24.8-10.21-24.8-24.73s10.7-24.8 24.73-24.8c10.84 0 19.45 5.49 22.58 15.21m28.56 34.38c-10.07 0-17.85-5.28-17.99-14.45h10.42c.28 3.89 2.85 6.46 7.36 6.46s7.29-2.43 7.29-5.9c0-10.49-25.01-4.17-24.94-21.74 0-8.75 7.08-14.03 17.09-14.03s16.74 5.07 17.37 13.82h-10.7c-.21-3.2-2.78-5.7-6.95-5.77-3.82-.14-6.67 1.74-6.67 5.7 0 9.73 24.87 4.31 24.87 21.39 0 7.64-6.11 14.52-17.16 14.52Zm26.55-49.07h29.94v7.85h-20.21v12.43h15.49v7.71h-15.49v20.49h-9.72V65.76Z" style="fill:#006d68"/></svg>