<svg xmlns="http://www.w3.org/2000/svg" viewBox="0 0 165 165"><path d="M63.8 111.26H51.27c-3.33 0-6.05-2.71-6.05-6.05v-23.2l-2.74-4.59c-.28-.47-.28-1.06 0-1.54l2.74-4.59v-23.2c0-3.33 2.71-6.05 6.05-6.05H63.8v3H51.27c-1.68 0-3.05 1.37-3.05 3.05V71.7c0 .27-.07.54-.21.77l-2.49 4.18 2.49 4.18c.14.23.21.5.21.77v23.61c0 1.68 1.37 3.05 3.05 3.05H63.8zm49.93 0H101.2v-3h12.53c1.68 0 3.05-1.37 3.05-3.05V81.6c0-.27.07-.54.21-.77l2.49-4.18-2.49-4.18c-.14-.23-.21-.5-.21-.77V48.09c0-1.68-1.37-3.05-3.05-3.05H101.2v-3h12.53c3.33 0 6.05 2.71 6.05 6.05v23.2l2.74 4.59c.28.47.28 1.06 0 1.54l-2.74 4.59v23.2c0 3.33-2.71 6.05-6.05 6.05" style="fill:#aecc53"/><path d="M104.8 79.27a4.52 4.52 0 0 0-4.95 4.03c-.15 1.44.42 2.78 1.39 3.71-2.84 6.85-9.26 11.7-16.74 12.45V80.31c5.12-.62 9.69-3.58 12.41-7.9a4.496 4.496 0 0 0 4.36-3.82 4.51 4.51 0 0 0-3.78-5.14 4.51 4.51 0 0 0-5.14 3.78c-.2 1.28.18 2.51.92 3.46a13.12 13.12 0 0 1-8.77 5.6V57.57c1.48-.74 2.51-2.26 2.51-4.02a4.511 4.511 0 0 0-9.02 0c0 1.77 1.03 3.29 2.51 4.02v18.72a13.12 13.12 0 0 1-8.78-5.61c.74-.95 1.11-2.18.92-3.46a4.52 4.52 0 0 0-5.14-3.78 4.52 4.52 0 0 0-3.78 5.14c.34 2.2 2.21 3.77 4.36 3.82 2.71 4.33 7.29 7.29 12.42 7.91v19.15c-7.48-.74-13.91-5.59-16.75-12.45.97-.93 1.54-2.27 1.39-3.71-.25-2.48-2.47-4.28-4.95-4.03s-4.28 2.47-4.03 4.95c.21 2.06 1.79 3.64 3.74 3.97 3.37 8.52 11.35 14.53 20.6 15.29v19.47h4v-19.47c9.24-.77 17.21-6.78 20.59-15.29 1.95-.33 3.53-1.91 3.74-3.97a4.52 4.52 0 0 0-4.03-4.95" style="fill:#006d68"/></svg>