<svg width="184" height="20" viewBox="0 0 184 20" fill="none" xmlns="http://www.w3.org/2000/svg">
<path d="M5.3423 17.108H2.22798C1.83184 17.108 1.45191 16.9517 1.17179 16.6735C0.891677 16.3954 0.734314 16.0182 0.734314 15.6248V9.89L0.0522079 8.75297C0.0180297 8.69575 0 8.63043 0 8.56383C0 8.49731 0.0180297 8.432 0.0522079 8.37477L0.734314 7.23768V1.49549C0.73267 1.29969 0.770085 1.10549 0.844418 0.924123C0.918744 0.742748 1.02852 0.577792 1.16739 0.438758C1.30625 0.299728 1.47145 0.189373 1.65349 0.114067C1.83552 0.0387606 2.03078 -6.80266e-06 2.22798 8.95346e-10H5.34726V0.741569H2.22798C2.12885 0.741553 2.03072 0.761132 1.93929 0.799172C1.84786 0.837204 1.76497 0.89294 1.69545 0.963115C1.62594 1.03329 1.57118 1.1165 1.53439 1.20791C1.4976 1.29931 1.4795 1.39707 1.48115 1.49549V7.3316C1.48066 7.39801 1.46171 7.46302 1.42639 7.51949L0.806521 8.55522L1.42639 9.58845C1.46171 9.64484 1.48066 9.70986 1.48115 9.7763V15.6149C1.48115 15.8116 1.55983 16.0002 1.69989 16.1393C1.83995 16.2784 2.02991 16.3565 2.22798 16.3565H5.34726L5.3423 17.108Z" fill="#AECC53"/>
<path d="M17.7721 17.108H14.6528V16.3664H17.7721C17.9702 16.3664 18.1602 16.2882 18.3002 16.1492C18.4403 16.0101 18.5189 15.8215 18.5189 15.6248V9.78371C18.5197 9.71772 18.5378 9.65293 18.5712 9.59586L19.1936 8.56262L18.5712 7.5269C18.5378 7.46975 18.5197 7.40511 18.5189 7.33904V1.49549C18.5206 1.39707 18.5025 1.29931 18.4657 1.20791C18.4289 1.1165 18.3742 1.03329 18.3046 0.963115C18.2351 0.89294 18.1523 0.837204 18.0608 0.799172C17.9694 0.761132 17.8712 0.741553 17.7721 0.741569H14.6528V8.95346e-10H17.7721C17.9693 -6.80266e-06 18.1646 0.0387606 18.3466 0.114067C18.5286 0.189373 18.6939 0.299728 18.8327 0.438758C18.9715 0.577792 19.0813 0.742748 19.1557 0.924123C19.23 1.10549 19.2674 1.29969 19.2657 1.49549V7.22782L19.9479 8.36487C19.982 8.42209 20.0001 8.48741 20.0001 8.55401C20.0001 8.62053 19.982 8.68585 19.9479 8.74307L19.2657 9.8801V15.6149C19.2657 16.0083 19.1084 16.3855 18.8283 16.6637C18.5482 16.9418 18.1682 17.0981 17.7721 17.0981" fill="#AECC53"/>
<path d="M15.549 9.20284C15.3158 9.17736 15.0804 9.22544 14.8762 9.34019C14.6721 9.45502 14.5094 9.63063 14.4114 9.84222C14.3133 10.0539 14.2849 10.2908 14.33 10.5195C14.3751 10.7481 14.4915 10.9568 14.6627 11.1161C14.3122 11.954 13.7402 12.6824 13.007 13.2241C12.2739 13.7659 11.4069 14.1008 10.4979 14.1935V9.45986C11.1261 9.38101 11.7288 9.16473 12.2626 8.82667C12.7964 8.48854 13.248 8.03701 13.5848 7.50459C13.7987 7.50036 14.007 7.4355 14.185 7.31768C14.3631 7.19984 14.5035 7.03397 14.5898 6.83954C14.6761 6.64513 14.7046 6.43024 14.672 6.22028C14.6394 6.01028 14.5471 5.81392 14.4059 5.65429C14.2647 5.49466 14.0805 5.37844 13.875 5.31929C13.6695 5.26014 13.4512 5.26052 13.2459 5.3204C13.0406 5.38029 12.8568 5.49717 12.7162 5.6573C12.5756 5.81739 12.4839 6.0141 12.4521 6.22417C12.4285 6.37417 12.4365 6.52737 12.4756 6.67413C12.5145 6.8209 12.5836 6.95803 12.6786 7.07699C12.4294 7.44336 12.1073 7.75534 11.7324 7.99377C11.3574 8.23219 10.9373 8.39215 10.4979 8.46374V3.83636C10.7249 3.72479 10.9073 3.54028 11.0154 3.31279C11.1235 3.0853 11.1509 2.8282 11.0932 2.58327C11.0356 2.33834 10.8961 2.11999 10.6977 1.96368C10.4993 1.80737 10.2533 1.72232 10 1.72232C9.74664 1.72232 9.50079 1.80737 9.30236 1.96368C9.10385 2.11999 8.96449 2.33834 8.90672 2.58327C8.8491 2.8282 8.8765 3.0853 8.98458 3.31279C9.09266 3.54028 9.27503 3.72479 9.50208 3.83636V8.46374C9.06176 8.39306 8.64062 8.23356 8.26469 7.99505C7.88877 7.75655 7.56601 7.44404 7.31636 7.07699C7.41134 6.95803 7.4805 6.8209 7.51947 6.67413C7.55845 6.52737 7.56644 6.37417 7.5429 6.22417C7.5111 6.01421 7.41952 5.81761 7.27901 5.65752C7.13849 5.49747 6.95481 5.38056 6.74968 5.3206C6.54451 5.26067 6.32639 5.26014 6.12091 5.31909C5.91547 5.37806 5.73125 5.49405 5.58995 5.65344C5.44862 5.81284 5.35608 6.00897 5.32323 6.21882C5.29039 6.42866 5.31862 6.64344 5.40453 6.83792C5.49043 7.03236 5.63048 7.19842 5.80819 7.31653C5.9859 7.43467 6.19394 7.49991 6.40772 7.50459C6.74534 8.03784 7.19811 8.48997 7.73326 8.82811C8.26842 9.16625 8.87262 9.38207 9.50208 9.45986V14.1935C8.59168 14.1021 7.72322 13.7677 6.98867 13.2259C6.25414 12.6841 5.68091 11.9551 5.32979 11.1161C5.51382 10.9434 5.6337 10.7141 5.66997 10.4653C5.70623 10.2166 5.65674 9.96294 5.52957 9.74561C5.40239 9.52827 5.20494 9.35992 4.96933 9.26807C4.73367 9.17615 4.47371 9.16602 4.23153 9.23927C3.98937 9.31252 3.77928 9.46492 3.6353 9.67167C3.49133 9.87843 3.42194 10.1274 3.43842 10.3783C3.4549 10.6291 3.55627 10.867 3.72607 11.0535C3.89589 11.2399 4.12414 11.3639 4.37384 11.4052C4.78984 12.4468 5.49013 13.3526 6.39605 14.0207C7.30201 14.6888 8.37765 15.0928 9.50208 15.1872V20H10.4979V15.1872C11.6215 15.0919 12.6961 14.6876 13.6011 14.0195C14.5061 13.3515 15.2056 12.4462 15.6212 11.4052C15.8878 11.3598 16.1287 11.22 16.2996 11.0119C16.4705 10.8037 16.5598 10.5412 16.5509 10.2728C16.5422 10.0044 16.4359 9.74818 16.2517 9.55155C16.0675 9.35493 15.818 9.23103 15.549 9.20284Z" fill="#006D69"/>
<path d="M31.04 14.132C30.088 14.132 29.28 13.952 28.616 13.592C27.96 13.232 27.46 12.728 27.116 12.08C26.772 11.432 26.6 10.672 26.6 9.8C26.6 8.904 26.776 8.128 27.128 7.472C27.488 6.816 28.004 6.308 28.676 5.948C29.356 5.588 30.164 5.408 31.1 5.408C31.5 5.408 31.884 5.448 32.252 5.528C32.62 5.6 32.96 5.704 33.272 5.84C33.592 5.976 33.864 6.14 34.088 6.332L33.488 7.784C33.12 7.512 32.744 7.32 32.36 7.208C31.976 7.088 31.56 7.028 31.112 7.028C30.256 7.028 29.612 7.264 29.18 7.736C28.756 8.208 28.544 8.896 28.544 9.8C28.544 10.704 28.76 11.388 29.192 11.852C29.632 12.316 30.28 12.548 31.136 12.548C31.424 12.548 31.72 12.52 32.024 12.464C32.328 12.408 32.628 12.328 32.924 12.224L32.576 12.98V10.676H30.752V9.332H34.112V13.484C33.84 13.62 33.532 13.736 33.188 13.832C32.852 13.928 32.5 14 32.132 14.048C31.764 14.104 31.4 14.132 31.04 14.132ZM35.6023 14V8.108H37.3783V9.548H37.2583C37.3543 9.068 37.5623 8.7 37.8823 8.444C38.2103 8.18 38.6423 8.028 39.1783 7.988L39.7063 7.952L39.8143 9.476L38.7943 9.584C38.3383 9.624 37.9983 9.756 37.7743 9.98C37.5583 10.204 37.4503 10.528 37.4503 10.952V14H35.6023ZM43.5021 14.132C42.8061 14.132 42.2061 14.008 41.7021 13.76C41.2061 13.504 40.8221 13.148 40.5501 12.692C40.2861 12.228 40.1541 11.684 40.1541 11.06C40.1541 10.452 40.2821 9.92 40.5381 9.464C40.7941 9 41.1501 8.64 41.6061 8.384C42.0701 8.12 42.5941 7.988 43.1781 7.988C43.7541 7.988 44.2501 8.112 44.6661 8.36C45.0821 8.6 45.4021 8.944 45.6261 9.392C45.8581 9.84 45.9741 10.372 45.9741 10.988V11.444H41.6421V10.508H44.6661L44.4741 10.676C44.4741 10.188 44.3661 9.82 44.1501 9.572C43.9421 9.316 43.6421 9.188 43.2501 9.188C42.9541 9.188 42.7021 9.256 42.4941 9.392C42.2861 9.528 42.1261 9.724 42.0141 9.98C41.9021 10.236 41.8461 10.544 41.8461 10.904V11C41.8461 11.408 41.9061 11.744 42.0261 12.008C42.1541 12.264 42.3421 12.456 42.5901 12.584C42.8461 12.712 43.1621 12.776 43.5381 12.776C43.8581 12.776 44.1821 12.728 44.5101 12.632C44.8381 12.536 45.1341 12.388 45.3981 12.188L45.8781 13.4C45.5821 13.624 45.2181 13.804 44.7861 13.94C44.3621 14.068 43.9341 14.132 43.5021 14.132ZM50.088 14.132C49.392 14.132 48.792 14.008 48.288 13.76C47.792 13.504 47.408 13.148 47.136 12.692C46.872 12.228 46.74 11.684 46.74 11.06C46.74 10.452 46.868 9.92 47.124 9.464C47.38 9 47.736 8.64 48.192 8.384C48.656 8.12 49.18 7.988 49.764 7.988C50.34 7.988 50.836 8.112 51.252 8.36C51.668 8.6 51.988 8.944 52.212 9.392C52.444 9.84 52.56 10.372 52.56 10.988V11.444H48.228V10.508H51.252L51.06 10.676C51.06 10.188 50.952 9.82 50.736 9.572C50.528 9.316 50.228 9.188 49.836 9.188C49.54 9.188 49.288 9.256 49.08 9.392C48.872 9.528 48.712 9.724 48.6 9.98C48.488 10.236 48.432 10.544 48.432 10.904V11C48.432 11.408 48.492 11.744 48.612 12.008C48.74 12.264 48.928 12.456 49.176 12.584C49.432 12.712 49.748 12.776 50.124 12.776C50.444 12.776 50.768 12.728 51.096 12.632C51.424 12.536 51.72 12.388 51.984 12.188L52.464 13.4C52.168 13.624 51.804 13.804 51.372 13.94C50.948 14.068 50.52 14.132 50.088 14.132ZM53.614 14V8.108H55.39V9.212H55.258C55.442 8.82 55.714 8.52 56.074 8.312C56.442 8.096 56.858 7.988 57.322 7.988C57.794 7.988 58.182 8.08 58.486 8.264C58.79 8.44 59.018 8.712 59.17 9.08C59.322 9.44 59.398 9.9 59.398 10.46V14H57.586V10.544C57.586 10.272 57.55 10.052 57.478 9.884C57.414 9.708 57.314 9.584 57.178 9.512C57.05 9.432 56.886 9.392 56.686 9.392C56.43 9.392 56.206 9.448 56.014 9.56C55.83 9.664 55.686 9.816 55.582 10.016C55.478 10.216 55.426 10.448 55.426 10.712V14H53.614ZM67.2705 14.132C66.8305 14.132 66.4025 14.092 65.9865 14.012C65.5785 13.94 65.1985 13.836 64.8465 13.7C64.4945 13.556 64.1865 13.388 63.9225 13.196L64.4625 11.732C64.7185 11.908 64.9945 12.06 65.2905 12.188C65.5865 12.316 65.9025 12.416 66.2385 12.488C66.5745 12.552 66.9185 12.584 67.2705 12.584C67.8545 12.584 68.2705 12.496 68.5185 12.32C68.7665 12.136 68.8905 11.908 68.8905 11.636C68.8905 11.484 68.8505 11.352 68.7705 11.24C68.6985 11.128 68.5745 11.032 68.3985 10.952C68.2305 10.864 67.9985 10.792 67.7025 10.736L66.3465 10.448C65.5785 10.288 65.0065 10.016 64.6305 9.632C64.2625 9.24 64.0785 8.728 64.0785 8.096C64.0785 7.552 64.2225 7.08 64.5105 6.68C64.8065 6.28 65.2105 5.968 65.7225 5.744C66.2425 5.52 66.8385 5.408 67.5105 5.408C67.9025 5.408 68.2785 5.448 68.6385 5.528C68.9985 5.6 69.3305 5.708 69.6345 5.852C69.9385 5.996 70.2025 6.168 70.4265 6.368L69.8865 7.736C69.5665 7.48 69.2065 7.288 68.8065 7.16C68.4065 7.024 67.9705 6.956 67.4985 6.956C67.1625 6.956 66.8745 7 66.6345 7.088C66.4025 7.176 66.2225 7.3 66.0945 7.46C65.9745 7.62 65.9145 7.804 65.9145 8.012C65.9145 8.244 65.9985 8.432 66.1665 8.576C66.3345 8.72 66.6265 8.836 67.0425 8.924L68.3985 9.212C69.1825 9.38 69.7665 9.652 70.1505 10.028C70.5345 10.396 70.7265 10.884 70.7265 11.492C70.7265 12.02 70.5825 12.484 70.2945 12.884C70.0145 13.276 69.6145 13.584 69.0945 13.808C68.5825 14.024 67.9745 14.132 67.2705 14.132ZM74.61 14.132C73.978 14.132 73.426 14.008 72.954 13.76C72.49 13.512 72.13 13.156 71.874 12.692C71.618 12.228 71.49 11.68 71.49 11.048C71.49 10.416 71.618 9.872 71.874 9.416C72.13 8.96 72.49 8.608 72.954 8.36C73.426 8.112 73.978 7.988 74.61 7.988C75.242 7.988 75.79 8.112 76.254 8.36C76.726 8.608 77.09 8.964 77.346 9.428C77.61 9.884 77.742 10.424 77.742 11.048C77.742 11.68 77.61 12.228 77.346 12.692C77.09 13.156 76.726 13.512 76.254 13.76C75.79 14.008 75.242 14.132 74.61 14.132ZM74.61 12.776C75.002 12.776 75.318 12.636 75.558 12.356C75.798 12.068 75.918 11.632 75.918 11.048C75.918 10.464 75.798 10.036 75.558 9.764C75.318 9.484 75.002 9.344 74.61 9.344C74.226 9.344 73.914 9.484 73.674 9.764C73.434 10.036 73.314 10.464 73.314 11.048C73.314 11.632 73.434 12.068 73.674 12.356C73.914 12.636 74.226 12.776 74.61 12.776ZM79.2418 14V9.464H78.1258V8.108H79.7698L79.2418 8.588V8.216C79.2418 7.344 79.4738 6.692 79.9378 6.26C80.4018 5.82 81.1258 5.572 82.1098 5.516L82.7698 5.468L82.8778 6.788L82.3138 6.824C82.0018 6.84 81.7538 6.892 81.5698 6.98C81.3858 7.06 81.2538 7.176 81.1738 7.328C81.0938 7.472 81.0538 7.664 81.0538 7.904V8.312L80.8258 8.108H82.5898V9.464H81.0538V14H79.2418ZM85.9083 14.132C85.0683 14.132 84.4443 13.928 84.0363 13.52C83.6283 13.112 83.4243 12.512 83.4243 11.72V9.464H82.3083V8.108H83.4243V6.38H85.2363V8.108H86.9763V9.464H85.2363V11.648C85.2363 11.984 85.3123 12.236 85.4643 12.404C85.6243 12.572 85.8763 12.656 86.2203 12.656C86.3243 12.656 86.4323 12.644 86.5443 12.62C86.6643 12.596 86.7923 12.564 86.9283 12.524L87.1923 13.844C87.0243 13.932 86.8243 14 86.5923 14.048C86.3603 14.104 86.1323 14.132 85.9083 14.132ZM89.6413 14L87.2413 8.108H89.0773L90.6253 12.248H90.3493L91.8853 8.108H93.0853L94.6093 12.248H94.3813L95.8933 8.108H97.6333L95.2573 14H93.7213L92.0293 9.632H92.8093L91.1653 14H89.6413ZM100.184 14.132C99.7521 14.132 99.3641 14.048 99.0201 13.88C98.6761 13.712 98.4081 13.484 98.2161 13.196C98.0241 12.908 97.9281 12.584 97.9281 12.224C97.9281 11.792 98.0401 11.452 98.2641 11.204C98.4881 10.948 98.8521 10.768 99.3561 10.664C99.8601 10.552 100.528 10.496 101.36 10.496H101.996V11.432H101.372C101.06 11.432 100.796 11.444 100.58 11.468C100.372 11.492 100.2 11.536 100.064 11.6C99.9281 11.656 99.8281 11.728 99.7641 11.816C99.7081 11.904 99.6801 12.016 99.6801 12.152C99.6801 12.376 99.7561 12.56 99.9081 12.704C100.068 12.848 100.296 12.92 100.592 12.92C100.824 12.92 101.028 12.868 101.204 12.764C101.388 12.652 101.532 12.504 101.636 12.32C101.74 12.128 101.792 11.912 101.792 11.672V10.292C101.792 9.94 101.712 9.692 101.552 9.548C101.392 9.396 101.12 9.32 100.736 9.32C100.416 9.32 100.076 9.372 99.7161 9.476C99.3641 9.572 99.0121 9.72 98.6601 9.92L98.1681 8.708C98.3761 8.564 98.6281 8.44 98.9241 8.336C99.2281 8.224 99.5441 8.14 99.8721 8.084C100.2 8.02 100.512 7.988 100.808 7.988C101.424 7.988 101.928 8.08 102.32 8.264C102.72 8.44 103.02 8.716 103.22 9.092C103.42 9.46 103.52 9.936 103.52 10.52V14H101.828V12.812H101.912C101.864 13.084 101.76 13.32 101.6 13.52C101.448 13.712 101.252 13.864 101.012 13.976C100.772 14.08 100.496 14.132 100.184 14.132ZM104.872 14V8.108H106.648V9.548H106.528C106.624 9.068 106.832 8.7 107.152 8.444C107.48 8.18 107.912 8.028 108.448 7.988L108.976 7.952L109.084 9.476L108.064 9.584C107.608 9.624 107.268 9.756 107.044 9.98C106.828 10.204 106.72 10.528 106.72 10.952V14H104.872ZM112.772 14.132C112.076 14.132 111.476 14.008 110.972 13.76C110.476 13.504 110.092 13.148 109.82 12.692C109.556 12.228 109.424 11.684 109.424 11.06C109.424 10.452 109.552 9.92 109.808 9.464C110.064 9 110.42 8.64 110.876 8.384C111.34 8.12 111.864 7.988 112.448 7.988C113.024 7.988 113.52 8.112 113.936 8.36C114.352 8.6 114.672 8.944 114.896 9.392C115.128 9.84 115.244 10.372 115.244 10.988V11.444H110.912V10.508H113.936L113.744 10.676C113.744 10.188 113.636 9.82 113.42 9.572C113.212 9.316 112.912 9.188 112.52 9.188C112.224 9.188 111.972 9.256 111.764 9.392C111.556 9.528 111.396 9.724 111.284 9.98C111.172 10.236 111.116 10.544 111.116 10.904V11C111.116 11.408 111.176 11.744 111.296 12.008C111.424 12.264 111.612 12.456 111.86 12.584C112.116 12.712 112.432 12.776 112.808 12.776C113.128 12.776 113.452 12.728 113.78 12.632C114.108 12.536 114.404 12.388 114.668 12.188L115.148 13.4C114.852 13.624 114.488 13.804 114.056 13.94C113.632 14.068 113.204 14.132 112.772 14.132ZM119.793 14V5.54H125.505V6.992H121.653V9.056H125.241V10.508H121.653V14H119.793ZM129.114 14.132C128.482 14.132 127.93 14.008 127.458 13.76C126.994 13.512 126.634 13.156 126.378 12.692C126.122 12.228 125.994 11.68 125.994 11.048C125.994 10.416 126.122 9.872 126.378 9.416C126.634 8.96 126.994 8.608 127.458 8.36C127.93 8.112 128.482 7.988 129.114 7.988C129.746 7.988 130.294 8.112 130.758 8.36C131.23 8.608 131.594 8.964 131.85 9.428C132.114 9.884 132.246 10.424 132.246 11.048C132.246 11.68 132.114 12.228 131.85 12.692C131.594 13.156 131.23 13.512 130.758 13.76C130.294 14.008 129.746 14.132 129.114 14.132ZM129.114 12.776C129.506 12.776 129.822 12.636 130.062 12.356C130.302 12.068 130.422 11.632 130.422 11.048C130.422 10.464 130.302 10.036 130.062 9.764C129.822 9.484 129.506 9.344 129.114 9.344C128.73 9.344 128.418 9.484 128.178 9.764C127.938 10.036 127.818 10.464 127.818 11.048C127.818 11.632 127.938 12.068 128.178 12.356C128.418 12.636 128.73 12.776 129.114 12.776ZM135.52 14.132C135.024 14.132 134.612 14.04 134.284 13.856C133.956 13.672 133.712 13.396 133.552 13.028C133.4 12.652 133.324 12.188 133.324 11.636V8.108H135.136V11.684C135.136 11.916 135.168 12.112 135.232 12.272C135.296 12.424 135.392 12.54 135.52 12.62C135.656 12.692 135.828 12.728 136.036 12.728C136.268 12.728 136.472 12.676 136.648 12.572C136.824 12.46 136.96 12.304 137.056 12.104C137.16 11.904 137.212 11.668 137.212 11.396V8.108H139.024V14H137.26V12.848H137.44C137.264 13.256 137.012 13.572 136.684 13.796C136.356 14.02 135.968 14.132 135.52 14.132ZM140.426 14V8.108H142.202V9.212H142.07C142.254 8.82 142.526 8.52 142.886 8.312C143.254 8.096 143.67 7.988 144.134 7.988C144.606 7.988 144.994 8.08 145.298 8.264C145.602 8.44 145.83 8.712 145.982 9.08C146.134 9.44 146.21 9.9 146.21 10.46V14H144.398V10.544C144.398 10.272 144.362 10.052 144.29 9.884C144.226 9.708 144.126 9.584 143.99 9.512C143.862 9.432 143.698 9.392 143.498 9.392C143.242 9.392 143.018 9.448 142.826 9.56C142.642 9.664 142.498 9.816 142.394 10.016C142.29 10.216 142.238 10.448 142.238 10.712V14H140.426ZM149.855 14.132C149.343 14.132 148.891 14.008 148.499 13.76C148.115 13.512 147.815 13.156 147.599 12.692C147.383 12.228 147.275 11.68 147.275 11.048C147.275 10.416 147.383 9.872 147.599 9.416C147.815 8.96 148.115 8.608 148.499 8.36C148.891 8.112 149.343 7.988 149.855 7.988C150.319 7.988 150.727 8.1 151.079 8.324C151.439 8.548 151.683 8.84 151.811 9.2H151.679V5.54H153.491V14H151.715V12.836H151.823C151.711 13.228 151.471 13.544 151.103 13.784C150.743 14.016 150.327 14.132 149.855 14.132ZM150.395 12.776C150.787 12.776 151.103 12.636 151.343 12.356C151.583 12.068 151.703 11.632 151.703 11.048C151.703 10.464 151.583 10.036 151.343 9.764C151.103 9.484 150.787 9.344 150.395 9.344C150.011 9.344 149.699 9.484 149.459 9.764C149.219 10.036 149.099 10.464 149.099 11.048C149.099 11.632 149.219 12.068 149.459 12.356C149.699 12.636 150.011 12.776 150.395 12.776ZM156.879 14.132C156.447 14.132 156.059 14.048 155.715 13.88C155.371 13.712 155.103 13.484 154.911 13.196C154.719 12.908 154.623 12.584 154.623 12.224C154.623 11.792 154.735 11.452 154.959 11.204C155.183 10.948 155.547 10.768 156.051 10.664C156.555 10.552 157.223 10.496 158.055 10.496H158.691V11.432H158.067C157.755 11.432 157.491 11.444 157.275 11.468C157.067 11.492 156.895 11.536 156.759 11.6C156.623 11.656 156.523 11.728 156.459 11.816C156.403 11.904 156.375 12.016 156.375 12.152C156.375 12.376 156.451 12.56 156.603 12.704C156.763 12.848 156.991 12.92 157.287 12.92C157.519 12.92 157.723 12.868 157.899 12.764C158.083 12.652 158.227 12.504 158.331 12.32C158.435 12.128 158.487 11.912 158.487 11.672V10.292C158.487 9.94 158.407 9.692 158.247 9.548C158.087 9.396 157.815 9.32 157.431 9.32C157.111 9.32 156.771 9.372 156.411 9.476C156.059 9.572 155.707 9.72 155.355 9.92L154.863 8.708C155.071 8.564 155.323 8.44 155.619 8.336C155.923 8.224 156.239 8.14 156.567 8.084C156.895 8.02 157.207 7.988 157.503 7.988C158.119 7.988 158.623 8.08 159.015 8.264C159.415 8.44 159.715 8.716 159.915 9.092C160.115 9.46 160.215 9.936 160.215 10.52V14H158.523V12.812H158.607C158.559 13.084 158.455 13.32 158.295 13.52C158.143 13.712 157.947 13.864 157.707 13.976C157.467 14.08 157.191 14.132 156.879 14.132ZM164.459 14.132C163.619 14.132 162.995 13.928 162.587 13.52C162.179 13.112 161.975 12.512 161.975 11.72V9.464H160.859V8.108H161.975V6.38H163.787V8.108H165.527V9.464H163.787V11.648C163.787 11.984 163.863 12.236 164.015 12.404C164.175 12.572 164.427 12.656 164.771 12.656C164.875 12.656 164.983 12.644 165.095 12.62C165.215 12.596 165.343 12.564 165.479 12.524L165.743 13.844C165.575 13.932 165.375 14 165.143 14.048C164.911 14.104 164.683 14.132 164.459 14.132ZM166.347 6.968V5.276H168.303V6.968H166.347ZM166.419 14V8.108H168.231V14H166.419ZM172.462 14.132C171.83 14.132 171.278 14.008 170.806 13.76C170.342 13.512 169.982 13.156 169.726 12.692C169.47 12.228 169.342 11.68 169.342 11.048C169.342 10.416 169.47 9.872 169.726 9.416C169.982 8.96 170.342 8.608 170.806 8.36C171.278 8.112 171.83 7.988 172.462 7.988C173.094 7.988 173.642 8.112 174.106 8.36C174.578 8.608 174.942 8.964 175.198 9.428C175.462 9.884 175.594 10.424 175.594 11.048C175.594 11.68 175.462 12.228 175.198 12.692C174.942 13.156 174.578 13.512 174.106 13.76C173.642 14.008 173.094 14.132 172.462 14.132ZM172.462 12.776C172.854 12.776 173.17 12.636 173.41 12.356C173.65 12.068 173.77 11.632 173.77 11.048C173.77 10.464 173.65 10.036 173.41 9.764C173.17 9.484 172.854 9.344 172.462 9.344C172.078 9.344 171.766 9.484 171.526 9.764C171.286 10.036 171.166 10.464 171.166 11.048C171.166 11.632 171.286 12.068 171.526 12.356C171.766 12.636 172.078 12.776 172.462 12.776ZM176.696 14V8.108H178.472V9.212H178.34C178.524 8.82 178.796 8.52 179.156 8.312C179.524 8.096 179.94 7.988 180.404 7.988C180.876 7.988 181.264 8.08 181.568 8.264C181.872 8.44 182.1 8.712 182.252 9.08C182.404 9.44 182.48 9.9 182.48 10.46V14H180.668V10.544C180.668 10.272 180.632 10.052 180.56 9.884C180.496 9.708 180.396 9.584 180.26 9.512C180.132 9.432 179.968 9.392 179.768 9.392C179.512 9.392 179.288 9.448 179.096 9.56C178.912 9.664 178.768 9.816 178.664 10.016C178.56 10.216 178.508 10.448 178.508 10.712V14H176.696Z" fill="#006D68"/>
</svg>
