<?xml version="1.0" encoding="UTF-8"?>
<svg id="text" xmlns="http://www.w3.org/2000/svg" xmlns:xlink="http://www.w3.org/1999/xlink" version="1.1" viewBox="0 0 500 500">
  <!-- Generator: Adobe Illustrator 30.2.1, SVG Export Plug-In . SVG Version: 2.1.1 Build 1)  -->
  <defs>
    <style>
      .st0 {
        fill: url(#linear-gradient2);
      }

      .st1 {
        fill: url(#linear-gradient1);
      }

      .st2 {
        fill: url(#linear-gradient9);
      }

      .st3 {
        fill: url(#linear-gradient3);
      }

      .st4 {
        fill: url(#linear-gradient6);
      }

      .st5 {
        fill: url(#linear-gradient8);
      }

      .st6 {
        fill: url(#linear-gradient7);
      }

      .st7 {
        fill: url(#linear-gradient5);
      }

      .st8 {
        fill: url(#linear-gradient4);
      }

      .st9 {
        fill: url(#linear-gradient10);
      }

      .st10 {
        fill: url(#radial-gradient);
      }

      .st11 {
        fill: url(#linear-gradient);
      }

      .st12 {
        fill: #338a86;
      }

      .st13 {
        fill: #55a59f;
      }

      .st14 {
        fill: url(#radial-gradient1);
      }
    </style>
    <linearGradient id="linear-gradient" x1="51.5" y1="934" x2="471.5" y2="934" gradientTransform="translate(0 -684)" gradientUnits="userSpaceOnUse">
      <stop offset="0" stop-color="#277672"/>
      <stop offset=".3" stop-color="#00544f"/>
      <stop offset=".6" stop-color="#003834"/>
      <stop offset=".8" stop-color="#002623"/>
      <stop offset="1" stop-color="#001815"/>
    </linearGradient>
    <radialGradient id="radial-gradient" cx="297" cy="625.4" fx="297" fy="625.4" r="210.1" gradientTransform="translate(-47.3 -305.4) rotate(-11.6)" gradientUnits="userSpaceOnUse">
      <stop offset="0" stop-color="#9fd18b"/>
      <stop offset="0" stop-color="#8fc485"/>
      <stop offset=".3" stop-color="#68a577"/>
      <stop offset=".5" stop-color="#297260"/>
      <stop offset=".6" stop-color="#0c5b56"/>
      <stop offset=".8" stop-color="#053935"/>
      <stop offset="1" stop-color="#001815"/>
    </radialGradient>
    <linearGradient id="linear-gradient1" x1="99.5" y1="952.7" x2="197.1" y2="952.7" gradientTransform="translate(0 -684)" gradientUnits="userSpaceOnUse">
      <stop offset=".3" stop-color="#fff"/>
      <stop offset=".8" stop-color="#cee098"/>
    </linearGradient>
    <linearGradient id="linear-gradient2" x1="-1094.2" y1="-91.2" x2="-1070.1" y2="-90.9" gradientTransform="translate(-754.7 -375.2) rotate(-150)" gradientUnits="userSpaceOnUse">
      <stop offset="0" stop-color="#fff"/>
      <stop offset="1" stop-color="#cee098"/>
    </linearGradient>
    <linearGradient id="linear-gradient3" x1="-594.9" y1="1015.5" x2="-582.6" y2="1015.5" gradientTransform="translate(-325.3 -815.1) rotate(-51.9)" gradientUnits="userSpaceOnUse">
      <stop offset="0" stop-color="#fff"/>
      <stop offset=".8" stop-color="#cee098"/>
    </linearGradient>
    <linearGradient id="linear-gradient4" x1="178.5" y1="929.6" x2="159.7" y2="932.8" gradientTransform="translate(0 -684)" gradientUnits="userSpaceOnUse">
      <stop offset=".3" stop-color="#fff"/>
      <stop offset=".8" stop-color="#cee098"/>
    </linearGradient>
    <linearGradient id="linear-gradient5" x1="158.4" y1="947.1" x2="144.6" y2="949.4" gradientTransform="translate(0 -684)" gradientUnits="userSpaceOnUse">
      <stop offset=".3" stop-color="#fff"/>
      <stop offset=".8" stop-color="#cee098"/>
    </linearGradient>
    <radialGradient id="radial-gradient1" cx="286" cy="809.2" fx="286" fy="809.2" r="18.2" gradientTransform="translate(105.6 -571.4) rotate(14)" gradientUnits="userSpaceOnUse">
      <stop offset=".3" stop-color="#fff"/>
      <stop offset=".8" stop-color="#cee098"/>
    </radialGradient>
    <linearGradient id="linear-gradient6" x1="140.2" y1="966.5" x2="140.2" y2="991" gradientTransform="translate(0 -684)" gradientUnits="userSpaceOnUse">
      <stop offset=".3" stop-color="#fff"/>
      <stop offset=".8" stop-color="#cee098"/>
    </linearGradient>
    <linearGradient id="linear-gradient7" x1="349.6" y1="978.1" x2="406.1" y2="978.1" gradientTransform="translate(0 -684)" gradientUnits="userSpaceOnUse">
      <stop offset="0" stop-color="#fff"/>
      <stop offset=".8" stop-color="#cee098"/>
    </linearGradient>
    <linearGradient id="linear-gradient8" x1="-70.2" y1="-4916.2" x2="-41.9" y2="-4916.2" gradientTransform="translate(-4538.3 364.3) rotate(90)" gradientUnits="userSpaceOnUse">
      <stop offset=".2" stop-color="#cee098"/>
      <stop offset=".7" stop-color="#fff"/>
    </linearGradient>
    <linearGradient id="linear-gradient9" x1="377.9" y1="978.1" x2="406.1" y2="978.1" gradientTransform="translate(0 -684)" gradientUnits="userSpaceOnUse">
      <stop offset=".3" stop-color="#fff"/>
      <stop offset=".8" stop-color="#cee098"/>
    </linearGradient>
    <linearGradient id="linear-gradient10" x1="27.7" y1="413.1" x2="90.3" y2="413.1" gradientTransform="translate(0 -342)" gradientUnits="userSpaceOnUse">
      <stop offset="0" stop-color="#bed675"/>
      <stop offset=".2" stop-color="#a1c678"/>
      <stop offset=".8" stop-color="#559c82"/>
      <stop offset="1" stop-color="#378c86"/>
    </linearGradient>
  </defs>
  <circle class="st11" cx="261.5" cy="250" r="210"/>
  <g>
    <path class="st13" d="M266.4,455.6c-113.2,0-205.2-92.1-205.2-205.2S153.2,45.1,266.4,45.1s205.2,92.1,205.2,205.2-92.1,205.2-205.2,205.2h0ZM266.4,45.9c-112.7,0-204.5,91.7-204.5,204.5s91.7,204.5,204.5,204.5,204.5-91.7,204.5-204.5S379.2,45.9,266.4,45.9Z"/>
    <path class="st13" d="M275.3,445.4c-107.1,0-194.3-87.1-194.3-194.3S168.2,56.8,275.3,56.8s194.3,87.1,194.3,194.3-87.1,194.3-194.3,194.3h0ZM275.3,57.6c-106.7,0-193.5,86.8-193.5,193.5s86.8,193.5,193.5,193.5,193.5-86.8,193.5-193.5S382,57.6,275.3,57.6Z"/>
    <path class="st12" d="M284.1,435.1c-101.1,0-183.3-82.2-183.3-183.3s82.2-183.3,183.3-183.3,183.3,82.2,183.3,183.3-82.2,183.3-183.3,183.3h0ZM284.1,69.3c-100.7,0-182.6,81.9-182.6,182.6s81.9,182.6,182.6,182.6,182.6-81.9,182.6-182.6-81.9-182.6-182.6-182.6h0Z"/>
    <path class="st12" d="M293,424.9c-95,0-172.3-77.3-172.3-172.3s77.3-172.3,172.3-172.3,172.3,77.3,172.3,172.3-77.3,172.3-172.3,172.3ZM293,80.9c-94.6,0-171.6,77-171.6,171.6s77,171.6,171.6,171.6,171.6-77,171.6-171.6-77-171.6-171.6-171.6Z"/>
    <path class="st12" d="M301.8,414.6c-88.9,0-161.3-72.4-161.3-161.3s72.4-161.3,161.3-161.3,161.3,72.4,161.3,161.3-72.4,161.3-161.3,161.3ZM301.8,92.6c-88.6,0-160.7,72.1-160.7,160.7s72.1,160.7,160.7,160.7,160.7-72.1,160.7-160.7-72.1-160.7-160.7-160.7Z"/>
    <path class="st12" d="M310.7,404.4c-82.9,0-150.3-67.4-150.3-150.3s67.4-150.3,150.3-150.3,150.3,67.4,150.3,150.3-67.4,150.3-150.3,150.3ZM310.7,104.3c-82.6,0-149.8,67.2-149.8,149.8s67.2,149.8,149.8,149.8,149.8-67.2,149.8-149.8-67.2-149.8-149.8-149.8h0Z"/>
    <path class="st12" d="M316.8,397.1c-78.5,0-142.3-63.8-142.3-142.3s63.8-142.3,142.3-142.3,142.3,63.8,142.3,142.3-63.8,142.3-142.3,142.3ZM316.8,113.1c-78.2,0-141.7,63.6-141.7,141.7s63.6,141.7,141.7,141.7,141.7-63.6,141.7-141.7-63.6-141.7-141.7-141.7Z"/>
    <path class="st12" d="M324,389c-73.8,0-133.9-60.1-133.9-133.9s60.1-133.9,133.9-133.9,133.9,60.1,133.9,133.9-60.1,133.9-133.9,133.9ZM324,121.8c-73.5,0-133.4,59.8-133.4,133.4s59.8,133.4,133.4,133.4,133.4-59.8,133.4-133.4-59.8-133.4-133.4-133.4h0Z"/>
    <path class="st12" d="M329.6,382.7c-70.1,0-127.2-57.1-127.2-127.2s57.1-127.2,127.2-127.2,127.2,57.1,127.2,127.2-57.1,127.2-127.2,127.2ZM329.6,128.9c-69.8,0-126.7,56.9-126.7,126.7s56.9,126.7,126.7,126.7,126.7-56.9,126.7-126.7-56.9-126.7-126.7-126.7Z"/>
    <path class="st12" d="M335.7,375.6c-65.9,0-119.4-53.5-119.4-119.4s53.5-119.4,119.4-119.4,119.4,53.5,119.4,119.4-53.5,119.4-119.4,119.4ZM335.7,137.4c-65.6,0-118.9,53.3-118.9,118.9s53.3,118.9,118.9,118.9,118.9-53.3,118.9-118.9-53.3-118.9-118.9-118.9Z"/>
    <path class="st12" d="M341.7,368.5c-61.7,0-111.9-50.2-111.9-111.9s50.2-111.9,111.9-111.9,111.9,50.2,111.9,111.9-50.2,111.9-111.9,111.9ZM341.7,145.2c-61.5,0-111.5,50-111.5,111.5s50,111.5,111.5,111.5,111.5-50,111.5-111.5-50-111.5-111.5-111.5h0Z"/>
    <path class="st12" d="M346.1,363.4c-58.7,0-106.4-47.7-106.4-106.4s47.7-106.4,106.4-106.4,106.4,47.7,106.4,106.4-47.7,106.4-106.4,106.4ZM346.1,151c-58.5,0-106,47.6-106,106s47.6,106,106,106,106-47.6,106-106-47.6-106-106-106Z"/>
    <path class="st12" d="M350.6,358.3c-55.6,0-100.9-45.3-100.9-100.9s45.3-100.9,100.9-100.9,100.9,45.3,100.9,100.9-45.3,100.9-100.9,100.9ZM350.6,156.8c-55.4,0-100.5,45.1-100.5,100.5s45.1,100.5,100.5,100.5,100.5-45.1,100.5-100.5-45.1-100.5-100.5-100.5h0Z"/>
    <path class="st12" d="M355,353.2c-52.6,0-95.4-42.8-95.4-95.4s42.8-95.4,95.4-95.4,95.4,42.8,95.4,95.4-42.8,95.4-95.4,95.4ZM355,162.7c-52.4,0-95.1,42.6-95.1,95.1s42.6,95.1,95.1,95.1,95.1-42.6,95.1-95.1-42.6-95.1-95.1-95.1h0Z"/>
    <path class="st12" d="M359.4,348.1c-49.6,0-89.9-40.3-89.9-89.9s40.3-89.9,89.9-89.9,89.9,40.3,89.9,89.9-40.3,89.9-89.9,89.9ZM359.4,168.5c-49.4,0-89.6,40.2-89.6,89.6s40.2,89.6,89.6,89.6,89.6-40.2,89.6-89.6-40.2-89.6-89.6-89.6Z"/>
    <path class="st12" d="M363.8,342.9c-46.6,0-84.5-37.9-84.5-84.5s37.9-84.5,84.5-84.5,84.5,37.9,84.5,84.5-37.9,84.5-84.5,84.5ZM363.8,174.4c-46.4,0-84.1,37.7-84.1,84.1s37.7,84.1,84.1,84.1,84.1-37.7,84.1-84.1-37.7-84.1-84.1-84.1Z"/>
    <path class="st12" d="M368.3,337.8c-43.5,0-79-35.4-79-79s35.4-79,79-79,79,35.4,79,79-35.4,79-79,79ZM368.3,180.2c-43.4,0-78.7,35.3-78.7,78.7s35.3,78.7,78.7,78.7,78.7-35.3,78.7-78.7-35.3-78.7-78.7-78.7h0Z"/>
    <path class="st12" d="M372.7,332.7c-40.5,0-73.5-33-73.5-73.5s33-73.5,73.5-73.5,73.5,33,73.5,73.5-33,73.5-73.5,73.5ZM372.7,186c-40.4,0-73.2,32.8-73.2,73.2s32.8,73.2,73.2,73.2,73.2-32.8,73.2-73.2-32.8-73.2-73.2-73.2h0Z"/>
    <path class="st12" d="M377.1,327.6c-37.5,0-68-30.5-68-68s30.5-68,68-68,68,30.5,68,68-30.5,68-68,68ZM377.1,191.9c-37.3,0-67.7,30.4-67.7,67.7s30.4,67.7,67.7,67.7,67.7-30.4,67.7-67.7-30.4-67.7-67.7-67.7h0Z"/>
  </g>
  <circle class="st10" cx="249.8" cy="250" r="128.1"/>
  <g>
    <g>
      <path class="st1" d="M191,251.1c-.3-.1-.6-.3-.8-.4-6.1-13.3-18.2-23.3-32.8-26.6-1-.2-2-.8-2.7-1.6-.6-.8-1.4-1.4-2.4-1.9-3.4-1.8-7.4-1.1-10,1.6-.7.7-1.7,1.2-2.7,1.4-22.7,3.6-40.1,23.2-40.1,46.9s1.8,14.9,5.1,21.3c.4.7.6,1.5.6,2.3,0,4.1,2.2,8.1,6.1,10.2.8.5,1.7.8,2.6,1,.8.2,1.6.6,2.2,1.1,8.3,7.1,19.1,11.5,31,11.5s7.8-.5,11.4-1.4c0,0,.1.1.2.1,3.2,1.7,7.1.5,8.8-2.7.1-.3.3-.6.4-.8,15.8-7.7,26.7-23.9,26.7-42.7v-.2c0-1,.3-2.1.9-3,.1-.2.3-.5.4-.7,3-5.6.8-12.6-4.8-15.6h0v.2h0Z"/>
      <circle class="st0" cx="134.1" cy="243.1" r="12"/>
      <circle class="st3" cx="111" cy="274.2" r="6.1"/>
      <circle class="st8" cx="167" cy="247.6" r="7.5"/>
      <circle class="st7" cx="150" cy="264.5" r="5.5"/>
      <circle class="st14" cx="178.6" cy="281.3" r="11.5"/>
      <circle class="st4" cx="140.2" cy="296" r="11.6"/>
    </g>
    <g>
      <polygon class="st6" points="377.9 322.4 370.2 301.8 349.6 294.1 370.2 286.5 377.9 265.9 385.5 286.5 406.1 294.1 385.5 301.8 377.9 322.4"/>
      <polygon class="st5" points="349.6 294.1 406.1 294.1 385.5 301.8 377.9 322.4 370.2 301.8 349.6 294.1"/>
      <polygon class="st2" points="377.9 322.4 377.9 265.9 385.5 286.5 406.1 294.1 385.5 301.8 377.9 322.4"/>
    </g>
    <circle class="st9" cx="59" cy="71.1" r="31.3"/>
  </g>
</svg>