<svg width="478" height="413" viewBox="0 0 478 413" fill="none" xmlns="http://www.w3.org/2000/svg">
<g clip-path="url(#clip0_100_21)">
<path d="M304.15 12.32C286.14 5.56998 267.35 -0.0800152 248.11 -1.52141e-05C222.19 0.109985 197.55 10.58 173.98 21.34C130.57 41.15 96.34 72.2 60.76 103.73C31.96 129.26 27.23 182.18 28.09 218.14C28.19 222.48 28.3 226.84 28.5 231.19C29.11 244.6 30.54 257.96 35.24 270.46C42.77 290.5 60.25 307.42 73.45 323.91C87.74 341.77 101.74 356.66 120.98 369.41C142.76 383.84 173.9 408.63 200.77 410.91C234.59 413.77 260.48 415.15 292.99 405.02C327.61 394.23 365.55 378.48 390.47 350.88C403.53 336.41 412.06 315.75 421.79 298.92C440.76 266.09 448.62 230.69 443.74 192.95C438.63 153.45 423.11 123.17 406.74 87.86C385.72 42.52 348.78 29.04 304.16 12.32H304.15Z" fill="#EBF2D4"/>
</g>
<circle cx="347.26" cy="143.87" r="0.825" fill="#AECC53"/>
<path d="M353.09 143.89L390.97 143.97" stroke="#AECC53" stroke-width="1.65" stroke-linecap="round" stroke-linejoin="round"/>
<circle cx="393.88" cy="143.97" r="0.825" fill="#AECC53"/>
<path d="M297.3 143.7L338.51 143.78L347.26 143.87" stroke="#AECC53" stroke-width="0.83" stroke-linecap="round" stroke-linejoin="round"/>
<path d="M297.45 146.8C295.74 146.8 294.35 145.4 294.35 143.69C294.35 141.98 295.75 140.59 297.46 140.59C299.17 140.59 300.56 141.99 300.56 143.7C300.56 145.41 299.16 146.8 297.45 146.8Z" fill="#AECC53"/>
<path d="M412.72 117.27V115.84C412.72 114.69 413.65 113.76 414.8 113.76H419.55C420.7 113.76 421.63 114.69 421.63 115.84" stroke="white" stroke-width="0.64" stroke-linecap="round" stroke-linejoin="round"/>
<path d="M438.64 115.84C438.64 114.69 439.57 113.76 440.72 113.76H445.47C446.62 113.76 447.55 114.69 447.55 115.84V117.27" stroke="white" stroke-width="0.64" stroke-linecap="round" stroke-linejoin="round"/>
<path d="M447.42 117.63L446.46 120.26C445.37 122.77 443.83 124.34 441.39 124.34H418.87C416.43 124.34 414.89 122.45 413.8 120.26L412.72 117.64" stroke="white" stroke-width="0.64" stroke-linecap="round" stroke-linejoin="round"/>
<path d="M461.06 148.48L456.72 129.22C455.17 121.65 448.52 116.22 440.79 116.22H419.45C411.73 116.22 405.07 121.66 403.52 129.22L399.18 148.48C398.73 150.94 400.21 153.33 402.61 154.04C402.88 154.12 403.15 154.17 403.43 154.18H404.2C408.63 154.1 412.04 151.36 413.13 145.33C413.4 143.86 414.7 142.79 416.19 142.79H444.05C445.56 142.79 446.85 143.87 447.12 145.35C448.21 151.36 451.62 154.1 456.04 154.17H456.81C457.09 154.17 457.36 154.11 457.63 154.03C460.02 153.33 461.5 150.93 461.06 148.47V148.48Z" stroke="#6FAFAC" stroke-width="0.64" stroke-miterlimit="10"/>
<path d="M461.06 148.48L456.72 129.22C455.17 121.65 448.52 116.22 440.79 116.22H419.45C411.73 116.22 405.07 121.66 403.52 129.22L399.18 148.48C398.73 150.94 400.21 153.33 402.61 154.04L402.97 154.15C403.21 154.18 403.48 154.19 403.77 154.2C408.4 154.3 416.07 151.58 417.2 145.38C417.47 143.9 418.76 142.82 420.27 142.82H439.97C441.48 142.82 442.77 143.9 443.04 145.38C444.17 151.58 451.84 154.3 456.47 154.2C456.76 154.2 457.02 154.18 457.27 154.15L457.63 154.04C460.02 153.34 461.5 150.94 461.06 148.48Z" stroke="#6FAFAC" stroke-width="0.32" stroke-miterlimit="10"/>
<path d="M411.5 133.58C414.096 133.58 416.2 131.476 416.2 128.88C416.2 126.284 414.096 124.18 411.5 124.18C408.904 124.18 406.8 126.284 406.8 128.88C406.8 131.476 408.904 133.58 411.5 133.58Z" fill="#6FAFAC"/>
<path d="M411.5 132.18C413.323 132.18 414.8 130.703 414.8 128.88C414.8 127.057 413.323 125.58 411.5 125.58C409.677 125.58 408.2 127.057 408.2 128.88C408.2 130.703 409.677 132.18 411.5 132.18Z" fill="#003834"/>
<path d="M421.73 138.66C423.895 138.66 425.65 136.905 425.65 134.74C425.65 132.575 423.895 130.82 421.73 130.82C419.565 130.82 417.81 132.575 417.81 134.74C417.81 136.905 419.565 138.66 421.73 138.66Z" fill="#6FAFAC"/>
<path d="M448.76 133.58C451.356 133.58 453.46 131.476 453.46 128.88C453.46 126.284 451.356 124.18 448.76 124.18C446.164 124.18 444.06 126.284 444.06 128.88C444.06 131.476 446.164 133.58 448.76 133.58Z" fill="#6FAFAC"/>
<path d="M438.53 138.66C440.695 138.66 442.45 136.905 442.45 134.74C442.45 132.575 440.695 130.82 438.53 130.82C436.365 130.82 434.61 132.575 434.61 134.74C434.61 136.905 436.365 138.66 438.53 138.66Z" fill="#6FAFAC"/>
<path d="M438.53 137.15C439.861 137.15 440.94 136.071 440.94 134.74C440.94 133.409 439.861 132.33 438.53 132.33C437.199 132.33 436.12 133.409 436.12 134.74C436.12 136.071 437.199 137.15 438.53 137.15Z" fill="#003834"/>
<path d="M424.17 133.83H422.64V132.3H420.82V133.83H419.29V135.65H420.82V137.18H422.64V135.65H424.17V133.83Z" fill="#003834"/>
<path d="M448.76 127.82C449.417 127.82 449.95 127.287 449.95 126.63C449.95 125.973 449.417 125.44 448.76 125.44C448.103 125.44 447.57 125.973 447.57 126.63C447.57 127.287 448.103 127.82 448.76 127.82Z" fill="#003834"/>
<path d="M448.76 132.32C449.417 132.32 449.95 131.787 449.95 131.13C449.95 130.473 449.417 129.94 448.76 129.94C448.103 129.94 447.57 130.473 447.57 131.13C447.57 131.787 448.103 132.32 448.76 132.32Z" fill="#003834"/>
<path d="M451.01 130.07C451.667 130.07 452.2 129.537 452.2 128.88C452.2 128.223 451.667 127.69 451.01 127.69C450.353 127.69 449.82 128.223 449.82 128.88C449.82 129.537 450.353 130.07 451.01 130.07Z" fill="#003834"/>
<path d="M446.5 130.07C447.157 130.07 447.69 129.537 447.69 128.88C447.69 128.223 447.157 127.69 446.5 127.69C445.843 127.69 445.31 128.223 445.31 128.88C445.31 129.537 445.843 130.07 446.5 130.07Z" fill="#003834"/>
<path d="M417.21 145.37C417.48 143.89 418.77 142.81 420.28 142.81H439.98C441.49 142.81 442.78 143.89 443.05 145.37C444.18 151.57 451.85 154.29 456.48 154.19C456.77 154.19 457.03 154.17 457.28 154.14L457.64 154.03C460.03 153.33 461.51 150.93 461.07 148.47L456.73 129.21C455.18 121.64 448.53 116.21 440.8 116.21H419.46C411.74 116.21 405.08 121.65 403.53 129.21L399.19 148.47C398.74 150.93 400.22 153.32 402.62 154.03L402.98 154.14C403.22 154.17 403.49 154.18 403.78 154.19" stroke="#6FAFAC" stroke-width="0.31" stroke-miterlimit="10"/>
<path d="M385.15 93.22L385.33 48.93H403.05L402.87 93.38L385.15 93.22Z" stroke="#AECC53" stroke-width="0.62" stroke-linecap="round" stroke-linejoin="round"/>
<path d="M356.98 93.19L357.15 38.93H374.87L374.69 93.38L356.98 93.19Z" stroke="#AECC53" stroke-width="0.62" stroke-linecap="round" stroke-linejoin="round"/>
<path d="M406.51 45.2L402.83 48.98V93.39L406.51 89.6V45.2Z" stroke="#AECC53" stroke-width="0.62" stroke-linecap="round" stroke-linejoin="round"/>
<path d="M378.65 34.87L374.97 38.65V93.53L378.65 89.75V34.87Z" stroke="#AECC53" stroke-width="0.62" stroke-linecap="round" stroke-linejoin="round"/>
<path d="M431.01 59.08H413.33V93.37H431.01V59.08Z" stroke="#AECC53" stroke-width="0.62" stroke-linecap="round" stroke-linejoin="round"/>
<path d="M413.32 59.09H431L434.68 55.3H417L413.32 59.09Z" fill="#AECC53" stroke="#AECC53" stroke-width="0.62" stroke-linecap="round" stroke-linejoin="round"/>
<path d="M434.68 55.3L431 59.09V93.38L434.68 89.59V55.3Z" stroke="#AECC53" stroke-width="0.62" stroke-linecap="round" stroke-linejoin="round"/>
<path d="M385.15 48.98H402.83L406.51 45.2H388.83L385.15 48.98Z" fill="#AECC53" stroke="#AECC53" stroke-width="0.41" stroke-linecap="round" stroke-linejoin="round"/>
<path d="M357.29 38.65H374.97L378.65 34.87H360.97L357.29 38.65Z" fill="#AECC53" stroke="#AECC53" stroke-width="0.62" stroke-linecap="round" stroke-linejoin="round"/>
<path d="M92.2399 76.07C92.1899 80.21 88.7999 83.54 84.6499 83.49C80.5099 83.44 77.1799 80.05 77.2299 75.9C77.2799 71.76 84.8599 64.85 84.8599 64.85C84.8599 64.85 92.2899 71.93 92.2399 76.07Z" stroke="#AECC53" stroke-width="0.83" stroke-linecap="round" stroke-linejoin="round"/>
<path d="M84.7599 74.05L84.6099 87.12" stroke="#AECC53" stroke-width="0.83" stroke-linecap="round" stroke-linejoin="round"/>
<path d="M115.57 76.07C115.52 80.21 112.13 83.54 107.98 83.49C103.83 83.44 100.51 80.05 100.56 75.9C100.61 71.75 108.19 64.85 108.19 64.85C108.19 64.85 115.62 71.93 115.57 76.07Z" stroke="#AECC53" stroke-width="0.83" stroke-linecap="round" stroke-linejoin="round"/>
<path d="M108.09 74.05L107.94 87.12" stroke="#AECC53" stroke-width="0.83" stroke-linecap="round" stroke-linejoin="round"/>
<path d="M68.92 76.07C68.87 80.21 65.48 83.54 61.33 83.49C57.19 83.44 53.86 80.05 53.91 75.9C53.96 71.76 61.54 64.85 61.54 64.85C61.54 64.85 68.97 71.93 68.92 76.07Z" stroke="#6FAFAC" stroke-width="0.83" stroke-linecap="round" stroke-linejoin="round"/>
<path d="M61.43 74.05L61.29 87.12" stroke="#6FAFAC" stroke-width="0.83" stroke-linecap="round" stroke-linejoin="round"/>
<path d="M49.4299 59.66H120.05C122.46 59.66 124.41 61.61 124.41 64.02V69.72L135.87 75.37L124.41 81.02V86.72C124.41 89.13 122.46 91.08 120.05 91.08H49.4299C47.0199 91.08 45.0699 89.13 45.0699 86.72V64.03C45.0699 61.62 47.0199 59.67 49.4299 59.67V59.66Z" stroke="#6FAFAC" stroke-width="0.83" stroke-linecap="round" stroke-linejoin="round"/>
<path d="M49.8801 118.91C37.8801 114.91 22.0701 128.21 17.8801 139.91C13.6901 151.61 17.3401 163.08 28.8801 163.91C31.0801 164.07 33.2301 163.91 35.3201 163.46L43.8801 167.82L47.8801 157.91C50.8801 153.91 52.8201 151.47 54.8701 147.95C61.8801 135.91 59.8301 122.22 49.8801 118.91Z" fill="#006D68"/>
<path d="M65.28 130.32C62.87 128 60.3 125.77 57.8 123.54C54.49 120.59 51.99 118.94 48.3 118.5C48.83 118.61 49.36 118.74 49.87 118.91C59.81 122.22 61.87 135.91 54.86 147.95C52.81 151.47 50.87 153.91 47.87 157.91L43.87 167.91L35.31 163.46C33.22 163.9 31.07 164.07 28.87 163.91C25.77 163.69 23.25 162.69 21.29 161.14C21.57 161.41 21.85 161.68 22.15 161.95C24.83 164.44 28.22 167.77 31.08 169.92C35.16 172.99 40.16 173.25 45.06 172.49L53.87 176.91L57.7 166.45C67.79 158.14 76.61 141.26 65.27 130.32H65.28Z" fill="#003834"/>
<path d="M47.88 157.91L57.71 166.45C67.8 158.14 76.62 141.26 65.28 130.32C62.87 128 60.3 125.77 57.8 123.54C54.49 120.59 51.99 118.94 48.3 118.5C48.83 118.61 49.36 118.74 49.87 118.91C59.81 122.22 61.87 135.91 54.86 147.95C52.81 151.47 50.87 153.91 47.87 157.91H47.88Z" fill="#09443E"/>
<path d="M53.88 176.91L43.88 167.81L48.07 157.53L57.56 166.28L53.88 176.91Z" fill="#00544F"/>
<path d="M43.8799 167.81C43.8799 167.81 35.2099 163.72 34.8799 163.81C30.1099 165.05 24.4399 163.88 20.7299 160.52C13.2999 153.79 16.0699 140.46 21.1899 133.24" stroke="#ACCA53" stroke-width="0.37" stroke-linecap="round" stroke-linejoin="round"/>
<path d="M36.18 179.82C32.91 178 29.42 176.39 26.26 174.45C26.23 174.3 26.01 174.23 25.75 174.25C23.77 174.71 21.7 175.07 19.64 175C5.49999 174.53 -0.0200076 161.8 2.78999 149.26C3.73999 144.64 5.59999 140.21 8.34999 136.41C5.76999 140.33 4.13999 144.79 3.27999 149.36C0.329992 164.31 8.70999 176.9 24.83 173.98C25.39 173.85 26.42 173.56 26.67 174.35C29.24 175.59 33.16 178.15 36.18 179.83V179.82Z" fill="#006D68"/>
<path d="M24.6899 129.02C28.8799 124.82 32.4899 121.53 36.8799 119.82" stroke="#ACCA53" stroke-width="0.37" stroke-linecap="round" stroke-linejoin="round"/>
<path d="M53.3301 272.25C53.1701 272.25 53.1001 272.35 53.0101 272.45C52.0701 273.49 50.1301 275.56 49.5701 276.72C47.3501 281.31 45.8601 286.59 43.6901 291.24C43.6301 291.36 43.6301 291.48 43.6101 291.6C43.5701 292 43.6101 292.54 43.6101 292.97C43.6101 293.94 43.5701 294.36 44.0001 295.27C44.4901 296.32 45.4701 297.4 46.4001 298.09L67.0901 310.49C67.9501 310.93 68.6101 311.1 69.5501 311.2C70.2001 311.27 70.4101 311.28 71.0801 311.12C71.6401 310.99 71.8901 310.88 72.3601 310.56C73.6401 309.7 74.6601 307.82 75.8601 306.79L75.9801 306.38C76.5101 306.08 76.7801 305.74 77.0901 305.21C79.1201 299.85 81.5301 294.6 83.2801 289.16C83.3601 286.7 81.8001 284.53 79.8201 283.22L59.2401 270.95C57.3201 270.28 54.3601 270.07 53.3201 272.25H53.3301Z" fill="#FEFEFE"/>
<path d="M75.9801 306.38C75.8001 306.48 75.2101 306.82 75.1001 306.86C74.9901 306.9 74.4301 307.01 74.3001 307.02C73.8801 307.06 73.4301 307.01 73.0201 306.94C72.6301 306.88 72.2301 306.73 71.8501 306.62C64.5701 302.64 57.5501 298.15 50.3901 293.95C49.0201 293.03 47.3601 290.96 47.1601 289.35C47.1101 288.96 47.1601 288.47 47.0801 288.06C49.0301 282.74 51.3701 277.56 53.3401 272.24C54.3701 270.06 57.3401 270.27 59.2601 270.94L79.8401 283.21C81.8201 284.51 83.3801 286.69 83.3001 289.15C81.5501 294.59 79.1301 299.85 77.1101 305.2C76.7901 305.73 76.5301 306.07 76.0001 306.37H75.9801V306.38Z" fill="#6EB0AD"/>
<path d="M75.0901 306.86C74.9701 306.9 74.4201 307.01 74.2901 307.02C73.8701 307.06 73.4201 307.01 73.0101 306.94C72.6201 306.88 72.2201 306.73 71.8401 306.62C64.5601 302.64 57.5401 298.15 50.3801 293.95C49.0101 293.03 47.3501 290.96 47.1501 289.35C47.1001 288.96 47.1501 288.47 47.0701 288.06C49.0201 282.74 51.3601 277.56 53.3301 272.24C53.1701 272.24 53.1001 272.34 53.0101 272.44C52.0701 273.48 50.1301 275.55 49.5701 276.71C47.3501 281.3 45.8601 286.58 43.6901 291.23C43.6301 291.35 43.6301 291.47 43.6101 291.59C43.5701 291.99 43.6101 292.53 43.6101 292.96C43.6101 293.93 43.5701 294.35 44.0001 295.26C44.4901 296.31 45.4701 297.39 46.4001 298.08L67.0901 310.48C67.9501 310.92 68.6101 311.09 69.5501 311.19C70.2001 311.26 70.4101 311.27 71.0801 311.11C71.6401 310.98 71.8901 310.87 72.3601 310.55C73.6401 309.69 74.6601 307.81 75.8601 306.78L75.9801 306.37C75.8001 306.47 75.2101 306.81 75.1001 306.85H75.0901V306.86Z" fill="#3B504F"/>
<path d="M58.1101 291.29C58.0101 291.29 57.9101 291.27 57.8201 291.22C57.4801 291.06 57.3401 290.66 57.5001 290.32L62.7001 279.45C62.8601 279.11 63.2601 278.97 63.6001 279.13C63.9401 279.29 64.0801 279.69 63.9201 280.03L58.7201 290.9C58.6001 291.14 58.3601 291.28 58.1101 291.28V291.29Z" fill="#E1FFFD"/>
<path d="M62.5601 294.17C62.4601 294.17 62.3601 294.15 62.2701 294.1C61.9301 293.94 61.7901 293.54 61.9501 293.2L67.1501 282.32C67.3101 281.98 67.7101 281.84 68.0501 282C68.3901 282.16 68.5301 282.56 68.3701 282.9L63.1701 293.78C63.0501 294.02 62.8101 294.16 62.5601 294.16V294.17Z" fill="#E1FFFD"/>
<path d="M67.25 297.38C67.15 297.38 67.05 297.36 66.96 297.31C66.62 297.15 66.48 296.75 66.64 296.41L71.85 285.53C72.01 285.19 72.41 285.05 72.75 285.21C73.09 285.37 73.23 285.77 73.07 286.11L67.86 296.99C67.74 297.23 67.5 297.37 67.25 297.37V297.38Z" fill="#E1FFFD"/>
<path d="M174.42 184.21L126.52 173.67L145.74 163.38L174.42 184.21Z" fill="#003834"/>
<path d="M252.81 86.11L125.74 106.88L197.6 139.93L350.29 114.9L252.81 86.11Z" fill="#AECC53"/>
<path d="M125.52 153.15L125.74 106.88L197.6 139.93V200.31L125.52 153.15Z" fill="#6FAFAC"/>
<path d="M350.35 167.37L350.29 114.9L197.6 139.93V200.31L350.35 167.37Z" fill="#006E6A"/>
<path opacity="0.3" d="M350.35 167.37L350.29 114.9L306.31 122.02V176.47L350.35 167.37Z" fill="#003834"/>
<path d="M203.33 312.3L203.63 263.41L139.68 212.99V247.7L203.33 312.3Z" fill="#6FAFAC"/>
<path d="M331.73 200.97L331.7 171.46L304.46 177.86L269.35 204.21L269.65 259.42L331.73 200.97Z" fill="#006E6A"/>
<path opacity="0.3" d="M331.73 200.97L331.7 171.46L304.46 177.86L269.35 204.21L269.65 259.42L331.73 200.97Z" fill="#003834"/>
<path d="M160 131.34L153.29 147.64L150.94 144.97L161.85 143.42L164.91 142.99C164.55 143.53 152.06 162.68 151.21 163.97L160.94 144.09L162.4 146.1L151.76 148.98L148.44 149.88C149.03 147.74 153.36 131.84 154.06 129.31L160 131.33V131.34Z" fill="white"/>
<path d="M203.3 313.24V263.84L269.82 244.61L270.13 259.94L294.58 236.41L339.16 224.57V268.6L203.3 313.24Z" fill="#AECC53"/>
<path d="M239.56 279.99C239.32 285.35 234.78 289.5 229.41 289.26C224.05 289.02 220.73 285.71 220.97 280.35C221.21 274.99 229.68 265.15 229.68 265.15C229.68 265.15 239.8 274.63 239.56 279.99Z" stroke="#006E69" stroke-width="1.24" stroke-linecap="round" stroke-linejoin="round"/>
<path d="M229.97 277.05L230.44 294.78" stroke="#006E69" stroke-width="1.24" stroke-linecap="round" stroke-linejoin="round"/>
<path d="M125.97 223L125.66 173.89L171 183.49L197.6 200.31L223.46 194.59L269.35 202.97L269.72 259.94L125.97 223Z" fill="#006E6A"/>
<path d="M125.55 173.95V223.51" stroke="#003834" stroke-width="0.83" stroke-linecap="round" stroke-linejoin="round"/>
<path d="M167.48 183.24L166.98 233.47" stroke="#003834" stroke-width="0.83" stroke-linecap="round" stroke-linejoin="round"/>
<path d="M197.43 211.37L208.33 217.75L207.82 220.92L195.47 223.61L195.96 220.51L204.33 218.74L196.93 214.46L197.42 211.36L197.43 211.37Z" fill="white"/>
<path d="M188.02 225.19L185.07 223.77L194.36 205.39L197.31 206.81L188.02 225.19Z" fill="white"/>
<path d="M185.77 209.51L185.28 212.61L176.91 214.38L184.31 218.66L183.82 221.76L172.92 215.35L173.43 212.18L185.78 209.51H185.77Z" fill="white"/>
<path d="M225.91 194.63L303.43 177.67L269.65 203.22L225.91 194.63Z" fill="#003834"/>
<path d="M168.32 234.64L241.52 252.79L203.3 263.84L168.32 234.64Z" fill="#003834"/>
<path d="M293.75 236.41L319.37 213.36L339.16 224.57L293.75 236.41Z" fill="#003834"/>
<path d="M125.97 173.95L171.82 183.49" stroke="#ACCA53" stroke-width="0.83" stroke-linecap="round" stroke-linejoin="round"/>
<path d="M350.29 114.9L350.35 167.37L197.6 200.31L125.41 153.17L125.74 106.88" stroke="#003834" stroke-width="0.83" stroke-linecap="round" stroke-linejoin="round"/>
<path d="M197.6 139.93V174.82V199.99" stroke="white" stroke-width="0.83" stroke-linecap="round" stroke-linejoin="round"/>
<path d="M225.55 194.42L269.65 203.22" stroke="#003834" stroke-width="0.83" stroke-linecap="round" stroke-linejoin="round"/>
<path d="M304.66 177.71L269.65 203.22" stroke="#003834" stroke-width="0.83" stroke-linecap="round" stroke-linejoin="round"/>
<path d="M125.97 173.95L142.64 165.17" stroke="#ACCA53" stroke-width="0.83" stroke-linecap="round" stroke-linejoin="round"/>
<path d="M126.17 223.28L269.72 259.94" stroke="#003834" stroke-width="0.83" stroke-linecap="round" stroke-linejoin="round"/>
<path d="M331.7 200.67L269.72 259.94" stroke="#003834" stroke-width="0.83" stroke-linecap="round" stroke-linejoin="round"/>
<path d="M269.65 203.63V260.25" stroke="#AECC53" stroke-width="0.83" stroke-linecap="round" stroke-linejoin="round"/>
<path d="M331.7 171.53V200.67" stroke="#003834" stroke-width="0.83" stroke-linecap="round" stroke-linejoin="round"/>
<path d="M167.91 234.43L203.3 263.84" stroke="#003834" stroke-width="0.83" stroke-linecap="round" stroke-linejoin="round"/>
<path d="M241.52 252.79L203.3 263.84" stroke="#003834" stroke-width="0.83" stroke-linecap="round" stroke-linejoin="round"/>
<path d="M339.16 224.57L295.82 236.41" stroke="#ACCA53" stroke-width="0.83" stroke-linecap="round" stroke-linejoin="round"/>
<path d="M318.85 213.53L339.16 224.57" stroke="#ACCA53" stroke-width="0.83" stroke-linecap="round" stroke-linejoin="round"/>
<path d="M139.27 227.28V247.85" stroke="#003834" stroke-width="0.83" stroke-linecap="round" stroke-linejoin="round"/>
<path d="M203.3 263.84V313.24" stroke="#003834" stroke-width="0.83" stroke-linecap="round" stroke-linejoin="round"/>
<path d="M339.16 224.57V268.6" stroke="#ACCA53" stroke-width="0.83" stroke-linecap="round" stroke-linejoin="round"/>
<path d="M203.3 313.24L139.27 247.5" stroke="#003834" stroke-width="0.83" stroke-linecap="round" stroke-linejoin="round"/>
<path d="M339.98 268.6L203.3 312.94" stroke="#003834" stroke-width="0.83" stroke-linecap="round" stroke-linejoin="round"/>
<path d="M253.11 130.49V187.77" stroke="#003834" stroke-width="0.83" stroke-linecap="round" stroke-linejoin="round"/>
<path d="M306.53 122.08V176.21" stroke="#003834" stroke-width="0.83" stroke-linecap="round" stroke-linejoin="round"/>
<path d="M306.53 122.08L217.67 92.15" stroke="#003834" stroke-width="0.83" stroke-linecap="round" stroke-linejoin="round"/>
<path d="M252.69 130.49L176.46 98.52" stroke="#003834" stroke-width="0.83" stroke-linecap="round" stroke-linejoin="round"/>
<path d="M142.33 114.51L281.3 94.52" stroke="#003834" stroke-width="0.83" stroke-linecap="round" stroke-linejoin="round"/>
<path d="M170.16 127.31L313.52 104.04" stroke="#003834" stroke-width="0.83" stroke-linecap="round" stroke-linejoin="round"/>
<path d="M171.29 182.81V127.61" stroke="#003834" stroke-width="0.83" stroke-linecap="round" stroke-linejoin="round"/>
<path d="M142.53 164.2L142.63 114.85" stroke="#003834" stroke-width="0.83" stroke-linecap="round" stroke-linejoin="round"/>
<path d="M214.95 197.03L215.05 245.46" stroke="#003834" stroke-width="0.83" stroke-linecap="round" stroke-linejoin="round"/>
<path d="M293.57 185.46L293.75 236.41" stroke="#003834" stroke-width="0.83" stroke-linecap="round" stroke-linejoin="round"/>
<path d="M315.74 175.17L315.94 215.76" stroke="#003834" stroke-width="0.83" stroke-linecap="round" stroke-linejoin="round"/>
<path d="M178.41 243.71L178.27 287.54" stroke="#003834" stroke-width="0.83" stroke-linecap="round" stroke-linejoin="round"/>
<path d="M156.62 231.97L156.73 265.42" stroke="#003834" stroke-width="0.83" stroke-linecap="round" stroke-linejoin="round"/>
<path d="M252.24 255.95L252.58 296.13" stroke="#003834" stroke-width="0.83" stroke-linecap="round" stroke-linejoin="round"/>
<path d="M299.89 235.59L299.9 281.43" stroke="#003834" stroke-width="0.83" stroke-linecap="round" stroke-linejoin="round"/>
<path d="M292.25 155.76C293.28 155.58 294.12 154.75 294.23 153.65C294.36 152.34 293.41 151.16 292.09 151.03C290.78 150.9 289.6 151.85 289.47 153.17C289.39 153.93 289.69 154.65 290.21 155.14C288.7 158.77 285.3 161.35 281.34 161.74V151.59C284.06 151.26 286.48 149.69 287.92 147.4C289.06 147.38 290.06 146.54 290.23 145.38C290.43 144.07 289.53 142.85 288.23 142.65C286.92 142.45 285.7 143.35 285.5 144.65C285.4 145.33 285.59 145.98 285.99 146.48C284.92 148.05 283.24 149.15 281.34 149.45V139.53C282.13 139.14 282.67 138.33 282.67 137.4C282.67 136.08 281.6 135.01 280.28 135.01C278.96 135.01 277.89 136.08 277.89 137.4C277.89 138.34 278.44 139.14 279.22 139.53V149.46C277.32 149.16 275.63 148.06 274.56 146.49C274.95 145.99 275.15 145.34 275.05 144.66C274.85 143.35 273.63 142.46 272.32 142.66C271.01 142.86 270.12 144.08 270.32 145.39C270.5 146.56 271.49 147.39 272.63 147.41C274.07 149.7 276.5 151.27 279.22 151.6V161.75C275.25 161.36 271.85 158.78 270.34 155.15C270.86 154.66 271.16 153.95 271.08 153.18C270.95 151.87 269.77 150.91 268.46 151.04C267.15 151.17 266.19 152.35 266.32 153.66C266.43 154.75 267.27 155.59 268.3 155.77C270.09 160.29 274.32 163.47 279.22 163.88V174.2H281.34V163.88C286.24 163.47 290.47 160.29 292.25 155.77V155.76Z" fill="#AECC53"/>
<path d="M350.29 114.9L197.6 139.93L125.74 106.88L252.81 86.11L350.29 114.9Z" stroke="white" stroke-width="0.83" stroke-linecap="round" stroke-linejoin="round"/>
<path d="M218.94 368.59L199.46 369.96L207.95 347.15L224.17 352.38L218.94 368.59Z" fill="#6FAFAC"/>
<path d="M218.94 368.59L207.95 347.15L224.17 352.38L218.94 368.59Z" fill="#006D68"/>
<circle cx="95.54" cy="239.18" r="0.825" fill="#AECC53"/>
<path d="M89.65 239.18H45.5" stroke="#AECC53" stroke-width="1.65" stroke-linecap="round" stroke-linejoin="round"/>
<circle cx="42.56" cy="239.18" r="0.825" fill="#AECC53"/>
<path d="M145.77 239.18H93.01H76.7" stroke="#AECC53" stroke-width="0.83" stroke-linecap="round" stroke-linejoin="round"/>
<path d="M145.62 236.08C147.33 236.08 148.72 237.47 148.72 239.18C148.72 240.89 147.33 242.28 145.62 242.28C143.91 242.28 142.52 240.89 142.52 239.18C142.52 237.47 143.91 236.08 145.62 236.08Z" fill="#AECC53"/>
<circle cx="152" cy="349.33" r="0.825" fill="#AECC53"/>
<path d="M146.07 349.33H95.64" stroke="#AECC53" stroke-width="1.65" stroke-linecap="round" stroke-linejoin="round"/>
<circle cx="92.67" cy="349.33" r="0.825" fill="#AECC53"/>
<path d="M92.83 346.23C91.12 346.23 89.73 347.62 89.73 349.33C89.73 351.04 91.12 352.43 92.83 352.43C94.54 352.43 95.93 351.04 95.93 349.33C95.93 347.62 94.54 346.23 92.83 346.23Z" fill="#AECC53"/>
<path d="M188.67 274.83L152.02 349.33" stroke="#AECC53" stroke-width="0.83" stroke-linecap="round" stroke-linejoin="round"/>
<path d="M185.82 273.6C186.58 272.06 188.44 271.43 189.97 272.19C191.5 272.95 192.14 274.81 191.38 276.34C190.62 277.88 188.76 278.51 187.23 277.75C185.7 276.99 185.06 275.13 185.82 273.6Z" fill="#AECC53"/>
<path d="M269.8 203.91L305.7 177.92" stroke="#AECC53" stroke-width="0.83" stroke-linecap="round" stroke-linejoin="round"/>
<path d="M226.07 195.24L269.27 203.99" stroke="#AECC53" stroke-width="0.83" stroke-linecap="round" stroke-linejoin="round"/>
<path d="M29.97 244.13C33.8637 244.13 37.02 240.974 37.02 237.08C37.02 233.186 33.8637 230.03 29.97 230.03C26.0764 230.03 22.92 233.186 22.92 237.08C22.92 240.974 26.0764 244.13 29.97 244.13Z" fill="#ACCA53"/>
<path d="M43.73 233.83C43.06 233.83 42.43 233.41 42.19 232.74C40.34 227.6 35.43 224.15 29.97 224.15C24.51 224.15 19.59 227.6 17.75 232.74C17.44 233.59 16.5 234.03 15.65 233.73C14.8 233.42 14.36 232.48 14.66 231.63C16.97 225.19 23.12 220.87 29.97 220.87C36.82 220.87 42.97 225.2 45.28 231.63C45.59 232.48 45.14 233.42 44.29 233.73C44.11 233.8 43.92 233.83 43.74 233.83H43.73Z" fill="#ACCA53"/>
<g opacity="0.4">
<path d="M6.15001 220.49C5.82001 220.49 5.49001 220.39 5.20001 220.18C4.46001 219.65 4.29001 218.63 4.82001 217.89C10.61 209.78 20.02 204.94 29.97 204.94C39.92 204.94 49.29 209.76 55.08 217.85C55.61 218.59 55.44 219.61 54.7 220.14C53.96 220.67 52.94 220.5 52.41 219.76C47.23 212.54 38.84 208.22 29.96 208.22C21.08 208.22 12.66 212.55 7.48001 219.8C7.16001 220.25 6.66001 220.49 6.14001 220.49H6.15001Z" fill="#ACCA53"/>
</g>
<g opacity="0.7">
<path d="M48.87 226.98C48.31 226.98 47.76 226.69 47.46 226.17C43.82 220.01 37.12 216.18 29.97 216.18C22.82 216.18 16.12 220.01 12.48 226.17C12.02 226.95 11.01 227.21 10.23 226.75C9.45002 226.29 9.19002 225.28 9.65002 224.5C13.88 217.34 21.66 212.9 29.96 212.9C38.26 212.9 46.05 217.35 50.27 224.5C50.73 225.28 50.47 226.29 49.69 226.75C49.43 226.9 49.14 226.98 48.86 226.98H48.87Z" fill="#ACCA53"/>
</g>
<path d="M70.32 327.37C79.77 316.78 93.36 316.05 105.6 321.32C107.51 322.14 109.35 323.69 110.88 325.07C114.51 328.31 117.29 332.47 118.89 337.07C119.64 339.24 120.13 341.29 119.93 343.56C119.75 345.62 120.18 347.29 120.31 349.37C120.43 351.19 119.7 353.37 119.16 355.09C117.94 358.98 115.88 362.59 113.17 365.63C110.78 368.3 107.95 370.41 104.8 372.09C102.35 373.4 99.39 373.58 96.79 374.42C94.07 375.3 91.37 375.34 88.49 374.99C82.65 374.29 77 371.84 72.6 367.92C67.39 363.27 64.01 356.78 63.2 349.83C62.8 346.4 63.02 342.9 63.85 339.55C64.43 337.21 65.66 335.22 66.89 333.18C68.12 331.14 68.73 329.12 70.3 327.35L70.32 327.37Z" stroke="#A6C453" stroke-width="0.83" stroke-linecap="round" stroke-linejoin="round"/>
<path d="M111.73 367.08C110.4 367.4 108.58 366.9 107.43 366.21C106.83 365.85 106.23 365.48 105.74 365C104.59 363.87 104.12 362.16 104.33 360.56C104.8 357.15 108.25 354.89 110.73 352.87C115.72 348.8 119.16 342.88 118.66 336.28" stroke="#A6C453" stroke-width="0.83" stroke-linecap="round" stroke-linejoin="round"/>
<path d="M102.46 372.97C99.42 372.32 96.62 369.92 95.16 367.16C93.73 364.45 94.33 360.99 95.6 358.32C97.93 353.41 102.28 350.44 105.91 346.58C108.76 343.55 110.39 340.31 111.44 336.32C112.18 333.5 112.91 329.79 112.09 326.92" stroke="#A6C453" stroke-width="0.84" stroke-linecap="round" stroke-linejoin="round"/>
<path d="M89.46 318.19C97.47 316.95 106.15 323.08 103.58 332.35C102.36 336.75 99.02 340.11 95.18 342.42C91.69 344.52 86.5 344.05 82.48 345.26C80.24 345.93 78.44 348.03 76.53 349.37C75.73 349.93 74.92 350.5 74.02 350.88C71.84 351.81 69.18 351.51 67.26 350.12C63.77 347.59 63.2 343.29 64.03 338.98" stroke="#A6C453" stroke-width="0.83" stroke-linecap="round" stroke-linejoin="round"/>
<path d="M95.5 329.89C95.96 327.87 95.41 325.55 93.8 324.25C93 323.6 92.01 323.24 91.01 323C85.05 321.57 78.59 324.34 74.6 329C73.2 330.64 72.03 332.53 71.57 334.64C71.11 336.75 71.44 339.09 72.76 340.79C74.8 343.43 76.76 341.91 78.72 340.26C80.49 338.77 81.68 338.3 83.93 338.11C88.72 337.69 94.31 335.1 95.5 329.89Z" stroke="#A6C453" stroke-width="0.83" stroke-linecap="round" stroke-linejoin="round"/>
<path d="M91.44 375.18C89.19 374.29 87.71 372.21 87.29 369.82C86.93 367.72 87.04 365.55 87.55 363.48C88.03 361.56 88.35 359.73 87.71 357.79C86.67 354.62 82.01 355.32 79.8 356.74C78.37 357.65 76.94 358.58 75.4 359.32C72.25 360.82 68.93 361.09 65.92 359.11" stroke="#A6C453" stroke-width="0.83" stroke-linecap="round" stroke-linejoin="round"/>
<path d="M437.58 281.31H409.45V328.05H437.58V281.31Z" stroke="#AECC53" stroke-width="0.83" stroke-linecap="round" stroke-linejoin="round"/>
<path opacity="0.3" d="M434.44 285.99H412.59V294.96H434.44V285.99Z" fill="#ACCA53"/>
<path opacity="0.7" d="M434.44 300.15H412.59V309.12H434.44V300.15Z" fill="#AECC53" stroke="#AECC53" stroke-width="0.41" stroke-linecap="round" stroke-linejoin="round"/>
<path d="M434.44 314.31H412.59V323.28H434.44V314.31Z" fill="#AECC53" stroke="#AECC53" stroke-width="0.41" stroke-linecap="round" stroke-linejoin="round"/>
<path d="M429.14 276.31H417.58V281.31H429.14V276.31Z" stroke="#AECC53" stroke-width="0.83" stroke-linecap="round" stroke-linejoin="round"/>
<path d="M308.12 43.79C315.173 43.79 320.89 38.0727 320.89 31.02C320.89 23.9673 315.173 18.25 308.12 18.25C301.067 18.25 295.35 23.9673 295.35 31.02C295.35 38.0727 301.067 43.79 308.12 43.79Z" stroke="#6FAFAC" stroke-width="1.24" stroke-linecap="round" stroke-linejoin="round"/>
<path d="M304.19 19.05C301.99 20.97 300.85 23.51 300.9 26.45C300.92 28.03 302.07 29.05 303.28 29.84C304 30.31 304.52 30.59 304.95 31.37C305.34 32.07 305.55 32.87 305.52 33.68C305.46 35.43 304.37 37.04 304.39 38.8C304.4 40.13 305.08 41.41 306.06 42.3C307.05 43.19 308.32 43.72 309.63 43.97" stroke="#6FAFAC" stroke-width="0.54" stroke-linecap="round" stroke-linejoin="round"/>
<path d="M308.12 7.5V13.21" stroke="#6FAFAC" stroke-width="1.65" stroke-linecap="round" stroke-linejoin="round"/>
<path d="M308.12 48.82V54.53" stroke="#6FAFAC" stroke-width="1.65" stroke-linecap="round" stroke-linejoin="round"/>
<path d="M331.63 31.02H325.92" stroke="#6FAFAC" stroke-width="1.65" stroke-linecap="round" stroke-linejoin="round"/>
<path d="M290.31 31.02H284.6" stroke="#6FAFAC" stroke-width="1.65" stroke-linecap="round" stroke-linejoin="round"/>
<path d="M325.11 14.76L320.98 18.71" stroke="#6FAFAC" stroke-width="1.65" stroke-linecap="round" stroke-linejoin="round"/>
<path d="M295.25 43.32L291.12 47.27" stroke="#6FAFAC" stroke-width="1.65" stroke-linecap="round" stroke-linejoin="round"/>
<path d="M324.37 48.01L320.42 43.88" stroke="#6FAFAC" stroke-width="1.65" stroke-linecap="round" stroke-linejoin="round"/>
<path d="M295.81 18.15L291.86 14.02" stroke="#6FAFAC" stroke-width="1.65" stroke-linecap="round" stroke-linejoin="round"/>
<path d="M309.11 18.73C308.34 19.45 307.63 20.67 307.19 21.63C306.75 22.59 306.59 23.71 306.94 24.7C307.53 26.4 309.36 27.34 310.27 28.9C310.74 29.72 311.63 31.22 310.18 33.68C309.57 34.7 308.95 35.79 308.93 36.98C308.87 40.92 313.71 41.47 316.56 40.58" stroke="#6FAFAC" stroke-width="0.54" stroke-linecap="round" stroke-linejoin="round"/>
<path d="M316.23 26.12C314.51 22.56 310.83 22.64 312.07 24.96C314.52 29.57 313.39 32.16 313.7 32.85C313.9 33.3 314.19 33.76 314.65 33.91C315.23 34.1 315.92 33.79 316.26 33.29C318.23 30.4 316.49 26.65 316.24 26.12H316.23Z" stroke="#6FAFAC" stroke-width="0.54" stroke-linecap="round" stroke-linejoin="round"/>
<path d="M312.87 314.93H305.44C303.76 314.93 302.41 316.29 302.41 317.96C302.41 319.18 303.13 320.23 304.17 320.71L303.17 405.98C303.17 406.82 304.61 407.5 305.45 407.5C306.29 407.5 307.73 406.82 307.73 405.98L306.73 320.99H312.89C314.57 320.99 315.92 319.63 315.92 317.96C315.92 316.29 314.56 314.93 312.89 314.93H312.87Z" fill="#006D68"/>
<path d="M312.87 317.96C317.19 327.76 317.89 342.98 315.26 353.33C315.05 354.13 314.82 354.93 314.52 355.73C314.15 354.96 313.85 354.18 313.57 353.41C310.05 343.33 309.42 328.11 312.87 317.97V317.96Z" stroke="#003834" stroke-width="0.41" stroke-linecap="round" stroke-linejoin="round"/>
<path d="M313.33 319.1C303.99 314.99 294.25 305.42 288.91 296.79C288.06 295.38 287.26 293.95 286.63 292.4C287.43 292.72 288.17 293.09 288.9 293.47C298.3 298.51 309.04 309.3 313.34 319.1H313.33Z" stroke="#003834" stroke-width="0.41" stroke-linecap="round" stroke-linejoin="round"/>
<path d="M311.65 319.1C315.76 309.76 325.33 300.02 333.96 294.68C335.37 293.83 336.8 293.03 338.35 292.4C338.03 293.2 337.66 293.94 337.28 294.67C332.24 304.07 321.45 314.81 311.65 319.11V319.1Z" stroke="#003834" stroke-width="0.41" stroke-linecap="round" stroke-linejoin="round"/>
<path d="M312.71 320.99C314.383 320.99 315.74 319.633 315.74 317.96C315.74 316.287 314.383 314.93 312.71 314.93C311.037 314.93 309.68 316.287 309.68 317.96C309.68 319.633 311.037 320.99 312.71 320.99Z" fill="#ACCA53"/>
<path d="M367.32 300.9H359.89C358.21 300.9 356.86 302.26 356.86 303.93C356.86 305.15 357.58 306.2 358.62 306.68L357.62 391.95C357.62 392.79 359.06 393.47 359.9 393.47C360.74 393.47 362.18 392.79 362.18 391.95L361.18 306.96H367.34C369.02 306.96 370.37 305.6 370.37 303.93C370.37 302.26 369.01 300.9 367.34 300.9H367.32Z" fill="#006D68"/>
<path d="M367.32 303.93C371.64 313.73 372.34 328.95 369.71 339.3C369.5 340.1 369.27 340.9 368.97 341.7C368.6 340.93 368.3 340.15 368.02 339.38C364.5 329.3 363.87 314.08 367.32 303.94V303.93Z" stroke="#003834" stroke-width="0.41" stroke-linecap="round" stroke-linejoin="round"/>
<path d="M367.78 305.08C358.44 300.97 348.7 291.4 343.36 282.77C342.51 281.36 341.71 279.93 341.08 278.38C341.88 278.7 342.62 279.07 343.35 279.45C352.75 284.49 363.49 295.28 367.79 305.08H367.78Z" stroke="#003834" stroke-width="0.41" stroke-linecap="round" stroke-linejoin="round"/>
<path d="M366.1 305.08C370.21 295.74 379.78 286 388.41 280.66C389.82 279.81 391.25 279.01 392.8 278.38C392.48 279.18 392.11 279.92 391.73 280.65C386.69 290.05 375.9 300.79 366.1 305.09V305.08Z" stroke="#003834" stroke-width="0.41" stroke-linecap="round" stroke-linejoin="round"/>
<path d="M367.17 306.96C368.843 306.96 370.2 305.603 370.2 303.93C370.2 302.257 368.843 300.9 367.17 300.9C365.497 300.9 364.14 302.257 364.14 303.93C364.14 305.603 365.497 306.96 367.17 306.96Z" fill="#ACCA53"/>
<path d="M222.92 57.1301C224.21 56.7801 225.55 56.5501 226.87 56.7301C228.93 57.0201 230.78 58.2201 231.09 60.4501C231.48 63.2101 229.21 64.5901 227.07 65.7201C225.37 66.6201 223.9 67.4301 222.55 68.7801C222.43 68.9001 222.3 69.0301 222.18 69.1701C221.42 70.0001 220.69 70.9101 220.32 71.9801C219.77 73.5701 220.1 75.2501 220.62 76.8001C221.18 78.4501 222.06 78.9301 222.79 80.3101C224.1 82.8101 224.13 85.9101 223.97 88.6601C223.92 89.4901 223.36 94.1001 222.27 94.1401C220.17 94.2201 218.06 94.1001 215.98 93.7701C211.5 93.0601 208.65 89.3801 205.94 86.1001C202.82 82.3401 203.2 78.0001 205.08 73.8401C208.56 66.1401 214.52 59.3801 222.92 57.1201V57.1301Z" fill="#AECC53"/>
<path d="M253.25 57.1301C251.96 56.7801 250.62 56.5501 249.3 56.7301C247.24 57.0201 245.39 58.2201 245.08 60.4501C244.69 63.2101 246.96 64.5901 249.1 65.7201C250.8 66.6201 252.27 67.4301 253.62 68.7801C253.74 68.9001 253.87 69.0301 253.99 69.1701C254.75 70.0001 255.48 70.9101 255.85 71.9801C256.4 73.5701 256.07 75.2501 255.55 76.8001C254.99 78.4501 254.11 78.9301 253.38 80.3101C252.07 82.8101 252.04 85.9101 252.2 88.6601C252.25 89.4901 252.81 94.1001 253.9 94.1401C256 94.2201 258.11 94.1001 260.19 93.7701C264.67 93.0601 267.52 89.3801 270.23 86.1001C273.35 82.3401 272.97 78.0001 271.09 73.8401C267.61 66.1401 261.65 59.3801 253.25 57.1201V57.1301Z" fill="#AECC53"/>
<path d="M211.95 63.58C215.22 60.42 219.35 58.1 222.92 57.14C224.21 56.79 225.55 56.56 226.87 56.74C228.93 57.03 230.78 58.23 231.09 60.46C231.48 63.22 229.21 64.6 227.07 65.73C225.37 66.63 223.9 67.44 222.55 68.79" stroke="#006E69" stroke-width="0.28" stroke-linecap="round" stroke-linejoin="round"/>
<path d="M207.45 69.5C208.36 67.55 209.79 65.9 211.16 64.28C211.21 64.22 211.29 64.21 211.36 64.25C211.42 64.3 211.43 64.39 211.38 64.45C209.92 66.03 208.45 67.57 207.45 69.49V69.5Z" fill="#006E69"/>
<path d="M264.55 63.9201C261.2 60.6401 256.88 58.1101 253.25 57.1301C251.96 56.7801 250.62 56.5501 249.3 56.7301C247.24 57.0201 245.39 58.2201 245.08 60.4501C244.69 63.2101 246.96 64.5901 249.1 65.7201C250.8 66.6201 252.27 67.4301 253.62 68.7801C253.74 68.9001 253.87 69.0301 253.99 69.1701" stroke="#006E69" stroke-width="0.28" stroke-linecap="round" stroke-linejoin="round"/>
<path d="M268.58 69.17C267.84 67.86 266.92 66.66 265.91 65.56C265.8 64.33 268.5 68.84 268.58 69.17Z" fill="#006E69"/>
<path d="M243.76 57.97H231.84C224.439 57.97 218.44 63.9694 218.44 71.37V97.67C218.44 105.071 224.439 111.07 231.84 111.07H243.76C251.161 111.07 257.16 105.071 257.16 97.67V71.37C257.16 63.9694 251.161 57.97 243.76 57.97Z" fill="#006E69"/>
<path d="M244.17 109.61H232.26C224.89 109.61 218.86 103.58 218.86 96.21V92.73L230.95 92.89L238.97 92.73H257.58V96.21C257.58 103.58 251.55 109.61 244.18 109.61H244.17Z" fill="#003834"/>
<path d="M255.81 71.3H220.04V94.69H255.81V71.3Z" fill="black"/>
<path opacity="0.1" d="M220.03 76.48V71.29L255.8 94.68H247.87L220.03 76.48Z" fill="#EDEDED"/>
<path opacity="0.1" d="M220.03 84.4701V81.5701L240.09 94.6801H235.64" fill="#EDEDED"/>
<path d="M227.85 55.2401H247.65V56.5401C247.65 62.0001 243.21 66.44 237.75 66.44C232.29 66.44 227.85 62.0001 227.85 56.5401V55.2401Z" fill="#AECC53"/>
<path d="M237.74 58.46C243.047 58.46 247.35 57.0811 247.35 55.3801C247.35 53.679 243.047 52.3 237.74 52.3C232.433 52.3 228.13 53.679 228.13 55.3801C228.13 57.0811 232.433 58.46 237.74 58.46Z" fill="black"/>
<path d="M237.74 59C235.12 59 232.64 58.67 230.78 58.07C228.69 57.4 227.59 56.47 227.59 55.38C227.59 54.29 228.69 53.36 230.78 52.69C232.65 52.09 235.12 51.76 237.74 51.76C240.36 51.76 242.84 52.09 244.7 52.69C246.79 53.36 247.89 54.29 247.89 55.38C247.89 56.47 246.79 57.4 244.7 58.07C242.83 58.67 240.36 59 237.74 59ZM237.74 52.84C235.23 52.84 232.87 53.15 231.11 53.72C229.31 54.3 228.67 54.98 228.67 55.39C228.67 55.8 229.31 56.48 231.11 57.06C232.87 57.63 235.23 57.94 237.74 57.94C240.25 57.94 242.61 57.63 244.37 57.06C246.17 56.48 246.81 55.8 246.81 55.39C246.81 54.98 246.17 54.3 244.37 53.72C242.61 53.15 240.25 52.84 237.74 52.84Z" fill="#006E69"/>
<path d="M232.69 65.6701H232.63C231.83 65.4301 231.08 64.7201 230.68 64.1201C229.74 62.6901 229.81 61.1201 229.95 59.7501C229.95 59.6401 230.06 59.5601 230.17 59.5701C230.28 59.5801 230.36 59.6801 230.35 59.7901C230.19 61.4001 230.24 62.7101 231.02 63.9001C231.44 64.5301 232.15 65.1001 232.74 65.2801C232.85 65.3101 232.91 65.4201 232.88 65.5301C232.85 65.6201 232.77 65.6701 232.69 65.6701Z" fill="#006E69"/>
<path d="M242.78 65.6901C242.7 65.6901 242.62 65.6401 242.59 65.5601C242.55 65.4501 242.61 65.3401 242.71 65.3001C243.36 65.0701 243.95 64.4901 244.31 63.7301C244.67 62.9801 244.7 62.1601 244.74 61.2901C244.76 60.8701 244.77 60.4401 244.83 60.0201C244.85 59.9101 244.95 59.8301 245.06 59.8501C245.17 59.8701 245.25 59.9701 245.23 60.0801C245.17 60.4801 245.16 60.9101 245.14 61.3201C245.1 62.1901 245.07 63.1001 244.67 63.9201C244.26 64.7801 243.59 65.4301 242.84 65.7001H242.77V65.6801H242.78V65.6901Z" fill="#006E69"/>
<path d="M235.54 66.52H235.49C234.76 66.33 234.18 65.69 234.01 64.9C233.87 64.23 233.86 63.41 233.86 62.68V62.43C233.86 62.32 233.95 62.23 234.06 62.23C234.17 62.23 234.26 62.32 234.26 62.43V62.68C234.26 63.38 234.26 64.18 234.4 64.81C234.54 65.46 235.01 65.98 235.59 66.13C235.7 66.16 235.76 66.27 235.73 66.38C235.71 66.47 235.62 66.53 235.53 66.53L235.54 66.52Z" fill="#006E69"/>
<path d="M240.62 66.4801C240.53 66.4801 240.46 66.4301 240.43 66.3401C240.4 66.2301 240.45 66.1201 240.56 66.0901C241.77 65.7001 242.02 64.0401 241.86 62.7401C241.86 62.6301 241.93 62.5301 242.04 62.5101C242.15 62.5101 242.25 62.5801 242.27 62.6901C242.46 64.2101 242.14 66.0101 240.7 66.4801H240.62Z" fill="#006E69"/>
<path d="M252.87 41.5301C252.21 41.0901 251.37 41.0601 250.55 41.3601C249.44 35.3201 244.15 30.7401 237.79 30.7401C231.43 30.7401 226.14 35.3201 225.03 41.3601C224.21 41.0601 223.37 41.0901 222.71 41.5301C221.4 42.4001 221.27 44.5201 222.43 46.2701C223.25 47.5201 224.5 48.2201 225.62 48.2301C227.45 53.18 232.2 56.7201 237.79 56.7201C243.38 56.7201 248.13 53.18 249.96 48.2301C251.08 48.2301 252.33 47.5201 253.15 46.2701C254.31 44.5201 254.18 42.4001 252.87 41.5301Z" fill="#C3C3C3" stroke="white" stroke-width="0.25" stroke-miterlimit="10"/>
<path d="M239.8 49.92C239.42 50.64 238.67 51.13 237.8 51.13C236.93 51.13 236.17 50.64 235.8 49.92" stroke="black" stroke-width="0.17" stroke-linecap="round" stroke-linejoin="bevel"/>
<path d="M250.62 46.6901C251.02 46.5301 251.36 46.2001 251.52 45.8001C251.62 45.5501 251.65 45.2401 251.48 45.0201C251.31 44.8001 250.92 44.7801 250.8 45.0201C250.84 44.5601 251.04 44.0701 251.31 43.7001C251.58 43.3301 252.06 43.0701 252.51 43.1701" stroke="black" stroke-width="0.17" stroke-linecap="round" stroke-linejoin="bevel"/>
<path d="M224.97 46.6901C224.57 46.5301 224.23 46.2001 224.07 45.8001C223.97 45.5501 223.94 45.2401 224.11 45.0201C224.28 44.8001 224.67 44.7801 224.79 45.0201C224.75 44.5601 224.55 44.0701 224.28 43.7001C224.01 43.3301 223.53 43.0701 223.08 43.1701" stroke="black" stroke-width="0.17" stroke-linecap="round" stroke-linejoin="bevel"/>
<path d="M231.76 46.37C232.285 46.37 232.71 45.9447 232.71 45.42C232.71 44.8954 232.285 44.47 231.76 44.47C231.235 44.47 230.81 44.8954 230.81 45.42C230.81 45.9447 231.235 46.37 231.76 46.37Z" fill="black"/>
<path d="M243.83 46.37C244.355 46.37 244.78 45.9447 244.78 45.42C244.78 44.8954 244.355 44.47 243.83 44.47C243.305 44.47 242.88 44.8954 242.88 45.42C242.88 45.9447 243.305 46.37 243.83 46.37Z" fill="black"/>
<path d="M227.92 117.35C228.56 116.75 229.09 116.06 229.54 115.16C230.3 113.67 230.68 111.89 230.06 110.28C229 107.5 226.11 107.32 223.57 107.7C220.89 108.1 218.21 108.51 215.53 108.91C213.53 109.21 211.37 109.77 209.86 111.21C208.09 112.9 207.48 115.7 208.4 117.97C209.44 120.53 212.12 121.82 214.78 121.7C218.79 121.53 222.81 120.77 226.29 118.57C226.9 118.18 227.44 117.79 227.91 117.34H227.92V117.35Z" fill="#003834"/>
<path d="M227.92 117.35C228.56 116.75 229.09 116.06 229.54 115.16C230.3 113.67 230.68 111.89 230.06 110.28C229 107.5 226.11 107.32 223.57 107.7C220.89 108.1 218.21 108.51 215.53 108.91C213.53 109.21 211.37 109.77 209.86 111.21C208.09 112.9 207.48 115.7 208.4 117.97C209.44 120.53 212.12 121.82 214.78 121.7C218.79 121.53 222.81 120.77 226.29 118.57C226.9 118.18 227.44 117.79 227.91 117.34H227.92V117.35Z" stroke="white" stroke-width="0.37" stroke-linecap="round" stroke-linejoin="round"/>
<path d="M229.89 111.15C229.89 111.15 229.83 111.11 229.79 111.13C229.02 110.01 227.79 109.34 226.49 109.01C225.29 108.71 224.3 108.93 223.09 108.99C220.33 109.12 217.54 109.59 214.82 110.05C213.59 110.26 212.42 110.68 211.26 111.13C210.21 111.53 209.43 112.3 208.53 112.97C208.71 112.84 208.84 112.19 209.02 111.97C209.27 111.66 209.59 111.48 209.87 111.22C211.94 109.25 214.62 108.82 217.34 108.31C219.77 107.85 222.24 107.74 224.7 107.59C226.91 107.46 229.2 108.02 230.07 110.3C230.31 110.92 230.4 111.57 230.37 112.22C230.25 111.85 230.1 111.5 229.89 111.18V111.15Z" fill="white"/>
<path d="M259 88.14C259.19 88.06 259.39 87.99 259.58 87.92C263.71 86.49 268.64 87.97 271.39 91.14C274.14 94.31 274.73 98.89 273.28 102.78C270.17 111.11 258.87 115.09 250.71 117.57C247.67 118.49 244.22 119.5 240.99 119.71C236.77 119.98 232.37 120.38 228.19 119.54C226.5 119.2 224.86 118.62 223.39 117.71C222.24 117 219.7 115.43 219.96 113.88C220.02 113.54 220.18 113.2 220.39 112.92C220.82 112.36 221.44 111.58 221.97 111.14C223.02 110.28 224.5 109.74 225.71 109.06C227.31 108.16 229.25 107.81 230.91 107.02C233.18 105.94 235.36 104.7 237.48 103.35C241.73 100.65 245.71 97.55 249.7 94.49C251.28 93.28 252.87 92.0701 254.48 90.9001C255.9 89.8601 257.36 88.81 259 88.14Z" fill="#006E6A"/>
<path d="M259 88.14C259.19 88.06 259.39 87.99 259.58 87.92C263.71 86.49 268.64 87.97 271.39 91.14C274.14 94.31 274.73 98.89 273.28 102.78C270.17 111.11 258.87 115.09 250.71 117.57C247.67 118.49 244.2 119.28 240.99 119.71C236.89 120.26 232.63 120.55 228.55 119.68C226.14 119.16 218.82 116.72 220.54 113.22C220.82 112.65 221.24 112.17 221.66 111.69C223.16 109.99 225.34 108.95 227.45 108.23C228.59 107.84 229.67 107.61 230.77 107.09C231.98 106.52 233.17 105.9 234.33 105.25C238.65 102.82 242.66 99.88 246.59 96.88C249.21 94.88 251.81 92.85 254.48 90.92C255.9 89.88 257.36 88.8301 259 88.1601V88.14Z" stroke="white" stroke-width="0.28" stroke-miterlimit="10"/>
<path d="M222.39 117.94C222.92 118.05 223.48 118.13 223.99 118.29C225.05 118.62 226.28 118.89 226.48 117.4C226.62 116.44 226.18 115.39 225.96 114.47C225.74 113.57 225.42 112.69 225.03 111.84C224.64 111.01 224.45 109.88 223.35 110.2C222.73 110.38 221.64 111.06 221.18 111.45C220.85 111.73 220.53 112.02 220.24 112.34C219.57 113.07 219.07 113.67 219.3 114.76C219.57 116.01 220.39 117.48 221.7 117.79C221.93 117.84 222.17 117.9 222.4 117.95H222.39V117.94Z" fill="white"/>
<path d="M216.98 119C218.72 119.19 220.82 119.45 222.47 118.71C225.02 117.57 223.01 114.57 222.34 112.76C222.07 112.03 221.43 111.23 220.56 111.47C218.8 111.95 217.39 113.33 215.79 114.2C214.87 114.7 213.6 115.39 213.37 116.51C212.97 118.44 215.63 118.85 216.99 119H216.98Z" fill="#006D68"/>
<path d="M213.84 110.3C213.67 111.07 213.93 111.82 214.02 112.59C214.1 113.27 213.99 113.95 213.34 114.31C212.51 114.77 211.76 115.54 211.85 116.58C211.94 117.61 212.68 118.88 213.71 119.19C214.04 119.29 214.42 119.32 214.63 119.58C214.85 119.84 214.78 120.15 214.79 120.47C214.81 120.85 214.85 121.04 214.91 121.41" stroke="#006D68" stroke-width="0.19" stroke-linecap="round" stroke-linejoin="round"/>
<path d="M214.67 114.39C215.27 115.91 215.53 117.56 215.43 119.19" stroke="white" stroke-width="0.37" stroke-linecap="round" stroke-linejoin="round"/>
<path d="M216.19 113.2C217.13 115.06 217.42 117.44 217.2 119.5" stroke="white" stroke-width="0.37" stroke-linecap="round" stroke-linejoin="round"/>
<path d="M217.63 112.48C218.99 114.66 219.44 117.41 218.83 119.91" stroke="white" stroke-width="0.37" stroke-linecap="round" stroke-linejoin="round"/>
<path d="M247.18 118.34C246.38 117.98 245.66 117.49 244.94 116.79C243.74 115.62 242.81 114.06 242.87 112.34C242.98 109.36 245.66 108.26 248.18 107.8C250.85 107.32 253.52 106.84 256.18 106.36C258.17 106 260.39 105.83 262.28 106.71C264.5 107.74 265.99 110.19 265.84 112.64C265.68 115.4 263.56 117.48 261 118.23C257.15 119.36 253.09 119.94 249.1 118.98C248.4 118.81 247.76 118.61 247.17 118.34H247.18Z" fill="#003834"/>
<path d="M247.18 118.34C246.38 117.98 245.66 117.49 244.94 116.79C243.74 115.62 242.81 114.06 242.87 112.34C242.98 109.36 245.66 108.26 248.18 107.8C250.85 107.32 253.52 106.84 256.18 106.36C258.17 106 260.39 105.83 262.28 106.71C264.5 107.74 265.99 110.19 265.84 112.64C265.68 115.4 263.56 117.48 261 118.23C257.15 119.36 253.09 119.94 249.1 118.98C248.4 118.81 247.76 118.61 247.17 118.34H247.18Z" stroke="white" stroke-width="0.37" stroke-linecap="round" stroke-linejoin="round"/>
<path d="M243.32 113.11C243.32 113.11 243.37 113.05 243.4 113.06C243.77 111.76 244.72 110.72 245.84 109.99C246.88 109.31 247.89 109.21 249.05 108.87C251.7 108.1 254.5 107.65 257.22 107.21C258.45 107.01 259.7 107.03 260.93 107.08C262.05 107.13 263.04 107.6 264.11 107.94C263.9 107.87 263.56 107.3 263.32 107.15C262.99 106.94 262.63 106.87 262.28 106.71C259.69 105.51 257.01 105.97 254.27 106.36C251.82 106.71 249.44 107.4 247.07 108.05C244.93 108.64 242.95 109.91 242.86 112.34C242.84 113.01 242.96 113.65 243.19 114.25C243.19 113.87 243.22 113.48 243.31 113.11H243.32Z" fill="white"/>
<path d="M215.5 88.57C215.31 88.49 215.11 88.42 214.92 88.35C210.79 86.92 205.86 88.39 203.11 91.56C200.36 94.73 199.77 99.31 201.21 103.2C204.31 111.53 215.61 115.52 223.78 118.01C226.82 118.94 230.27 119.94 233.5 120.15C243.2 120.78 249.35 120.9 254.14 115.6C254.86 114.81 255.5 113.8 255.26 112.78C254.9 111.3 253.01 110.73 251.44 110.33C239.2 107.22 229.82 98.47 220.02 91.33C218.6 90.29 217.15 89.24 215.5 88.56V88.57Z" fill="#006E6A"/>
<path d="M215.18 88.62C214.99 88.54 214.79 88.47 214.6 88.4C210.47 86.97 205.54 88.44 202.79 91.61C200.04 94.78 199.45 99.36 200.89 103.25C203.99 111.58 215.29 115.57 223.46 118.06C226.5 118.99 229.97 119.77 233.18 120.2C241.42 121.31 249.03 120.95 253.82 115.65C254.54 114.86 255.18 113.85 254.94 112.83C254.58 111.35 252.69 110.78 251.12 110.38C238.88 107.27 229.5 98.52 219.7 91.38C218.28 90.34 216.83 89.29 215.18 88.61V88.62Z" stroke="white" stroke-width="0.28" stroke-miterlimit="10"/>
<path d="M252.61 117.12C251.45 117.82 250.26 118.46 249.1 119.16C248.98 118.89 248.83 118.64 248.72 118.37C248.27 117.33 248.21 116.1 248.12 114.98C248.04 114.05 248.05 113.12 248.16 112.19C248.2 111.81 248.32 109.77 248.86 109.75C248.9 109.75 248.94 109.76 248.98 109.77C249.43 109.91 249.88 110.04 250.33 110.16C250.72 110.26 251.29 110.57 251.67 110.57C252.07 110.72 252.47 110.9 252.85 111.11C253.72 111.59 254.39 111.99 254.52 113.1C254.67 114.37 254.37 116.03 253.22 116.74C253.02 116.87 252.81 116.99 252.61 117.11V117.12Z" fill="white"/>
<path d="M258.07 116.38C256.48 117.12 254.58 118.05 252.78 117.88C250 117.62 250.94 114.14 250.99 112.2C251.01 111.42 251.36 110.45 252.26 110.4C254.08 110.29 255.86 111.14 257.65 111.45C258.68 111.63 260.11 111.87 260.69 112.85C261.69 114.55 259.31 115.8 258.07 116.37V116.38Z" fill="#AECC53"/>
<path d="M258.24 107.14C258.65 107.82 258.65 108.61 258.81 109.36C258.95 110.03 259.28 110.63 260.01 110.77C260.94 110.94 261.9 111.43 262.16 112.44C262.41 113.44 262.12 114.88 261.25 115.51C260.97 115.71 260.62 115.86 260.5 116.18C260.38 116.5 260.54 116.76 260.63 117.07C260.73 117.43 260.82 117.71 260.88 118.08" stroke="#006D68" stroke-width="0.19" stroke-linecap="round" stroke-linejoin="round"/>
<path d="M258.77 111.27C258.69 112.9 258.98 114.55 259.6 116.05" stroke="white" stroke-width="0.37" stroke-linecap="round" stroke-linejoin="round"/>
<path d="M256.95 110.63C256.66 112.69 257.15 115.04 258.02 116.91" stroke="white" stroke-width="0.37" stroke-linecap="round" stroke-linejoin="round"/>
<path d="M255.36 110.41C254.77 112.92 255.24 115.65 256.62 117.83" stroke="white" stroke-width="0.37" stroke-linecap="round" stroke-linejoin="round"/>
<path d="M215.97 71.79C215.8 73.66 215.83 75.9 217.07 77.39C218.01 78.53 219.48 79.04 220.15 80.31C221.46 82.81 221.49 85.91 221.33 88.66C221.23 90.37 221.09 93.54 219.09 94.16C218.56 94.32 217.72 94.16 217.17 94.15C215.89 94.1 214.61 93.98 213.34 93.77C208.4 92.98 203.95 87.97 201.65 83.78C199.68 80.18 201.21 76.04 203.57 73.02C205.2 70.94 207.74 69.07 210.22 68.16C212.9 67.18 216.29 68.32 215.97 71.78V71.79Z" fill="#AECC53"/>
<path d="M260.41 71.79C260.58 73.66 260.55 75.9 259.31 77.39C258.37 78.53 256.9 79.04 256.23 80.31C254.92 82.81 254.89 85.91 255.05 88.66C255.1 89.49 255.66 94.1 256.75 94.14C258.85 94.22 260.96 94.1 263.04 93.77C267.98 92.98 272.43 87.97 274.73 83.78C276.7 80.18 275.17 76.04 272.81 73.02C271.18 70.94 268.64 69.07 266.16 68.16C263.48 67.18 260.09 68.32 260.41 71.78V71.79Z" fill="#AECC53"/>
<path d="M261.23 71.22C259.1 71.71 257.85 73.9 256.93 75.7C256.85 75.7 256.83 75.59 256.84 75.51C257.08 73.88 257.52 72.14 258.73 70.96C259.94 69.78 261.55 68.99 263.24 68.77" stroke="#006E69" stroke-width="0.28" stroke-linecap="round" stroke-linejoin="round"/>
<path d="M265.59 70.72C264.55 70.72 263.78 70.7 262.8 71.07" stroke="#006E69" stroke-width="0.28" stroke-linecap="round" stroke-linejoin="round"/>
<path d="M256.53 78.47C258.5 78.09 260.54 79.21 261.79 80.66C262.96 82.02 263.56 83.78 263.63 85.56C263.76 88.71 262.63 92.25 259.98 94.12" stroke="#006E69" stroke-width="0.28" stroke-linecap="round" stroke-linejoin="round"/>
<path d="M261.26 80.3201C260.67 80.5601 260.28 80.9401 259.88 81.4201" stroke="#006E69" stroke-width="0.28" stroke-linecap="round" stroke-linejoin="round"/>
<path d="M262.55 82.0001C262.03 82.3001 261.52 82.6101 261.02 82.9401" stroke="#006E69" stroke-width="0.28" stroke-linecap="round" stroke-linejoin="round"/>
<path d="M263.43 84.72C262.97 85.01 262.31 85.06 261.78 85.17" stroke="#006E69" stroke-width="0.28" stroke-linecap="round" stroke-linejoin="round"/>
<path d="M263.45 87.72C262.7 87.72 261.95 87.65 261.21 87.51" stroke="#006E69" stroke-width="0.28" stroke-linecap="round" stroke-linejoin="round"/>
<path d="M261.85 88.01C261.98 87.19 261.97 86.35 261.92 85.51C261.83 83.73 261.17 82.06 259.93 80.77C258.93 79.77 257.55 79.61 256.21 79.53C254.69 79.44 253.69 78.16 252.54 77.19C252.47 77.13 252.4 77.08 252.32 77.06C252.21 77.04 252.1 77.08 252 77.13C251.21 77.55 250.69 78.48 250.73 79.39C250.78 80.44 251.34 81.09 252.16 81.66C252.7 82.03 252.99 82.93 252.67 83.53C252.25 84.3 251.26 84.12 250.48 84.17C249.76 84.21 249.07 84.01 248.37 83.84C248.07 83.77 247.57 83.58 247.28 83.79C247.05 83.95 246.96 84.39 246.93 84.65C246.87 85.07 246.85 85.49 246.87 85.91C246.87 86.04 246.89 86.17 246.93 86.29C247.12 86.79 247.78 86.97 248.22 87.14C248.65 87.3 249.12 87.35 249.57 87.4C250.4 87.48 251.44 87.43 252.16 87.92C252.36 88.05 252.48 88.32 252.39 88.53C252.33 88.67 252.19 88.76 252.05 88.83C251.18 89.32 250.09 89.94 249.07 89.98C248.45 90.01 247.87 89.89 247.25 90.1C246.65 90.31 246.41 90.89 246.56 91.49C246.65 91.84 246.65 92.18 246.91 92.46C247.26 92.83 247.83 92.94 248.3 93.05C248.73 93.15 249.18 93.19 249.63 93.17C249.88 93.16 250.81 92.99 250.94 93.23C251.15 93.61 251.39 93.97 251.67 94.3C251.74 94.38 251.81 94.46 251.91 94.52C251.99 94.56 252.1 94.59 252.22 94.61C252.48 94.65 252.79 94.65 252.99 94.65C253.34 94.65 253.7 94.61 254.04 94.56C254.77 94.45 255.49 94.26 256.19 93.99C256.82 93.75 257.43 93.45 257.99 93.09C258.44 92.8 258.91 92.58 259.3 92.22C259.71 91.84 260.1 91.42 260.44 90.98C261.11 90.12 261.67 89.12 261.84 88.03V88.01H261.85Z" fill="#C3C3C3"/>
<path d="M261.85 88.01C261.98 87.19 261.97 86.35 261.92 85.51C261.83 83.73 261.17 82.06 259.93 80.77C258.93 79.77 257.55 79.61 256.21 79.53C254.69 79.44 253.69 78.16 252.54 77.19C252.47 77.13 252.4 77.08 252.32 77.06C252.21 77.04 252.1 77.08 252 77.13C251.21 77.55 250.69 78.48 250.73 79.39C250.78 80.44 251.34 81.09 252.16 81.66C252.7 82.03 252.99 82.93 252.67 83.53C252.25 84.3 251.26 84.12 250.48 84.17C249.76 84.21 249.07 84.01 248.37 83.84C248.07 83.77 247.57 83.58 247.28 83.79C247.05 83.95 246.96 84.39 246.93 84.65C246.87 85.07 246.85 85.49 246.87 85.91C246.87 86.04 246.89 86.17 246.93 86.29C247.12 86.79 247.78 86.97 248.22 87.14C248.65 87.3 249.12 87.35 249.57 87.4C250.4 87.48 251.44 87.43 252.16 87.92C252.36 88.05 252.48 88.32 252.39 88.53C252.33 88.67 252.19 88.76 252.05 88.83C251.18 89.32 250.09 89.94 249.07 89.98C248.45 90.01 247.87 89.89 247.25 90.1C246.65 90.31 246.41 90.89 246.56 91.49C246.65 91.84 246.65 92.18 246.91 92.46C247.26 92.83 247.83 92.94 248.3 93.05C248.73 93.15 249.18 93.19 249.63 93.17C249.88 93.16 250.81 92.99 250.94 93.23C251.15 93.61 251.39 93.97 251.67 94.3C251.74 94.38 251.81 94.46 251.91 94.52C251.99 94.56 252.1 94.59 252.22 94.61C252.48 94.65 252.79 94.65 252.99 94.65C253.34 94.65 253.7 94.61 254.04 94.56C254.77 94.45 255.49 94.26 256.19 93.99C256.82 93.75 257.43 93.45 257.99 93.09C258.44 92.8 258.91 92.58 259.3 92.22C259.71 91.84 260.1 91.42 260.44 90.98C261.11 90.12 261.67 89.12 261.84 88.03V88.01H261.85Z" stroke="white" stroke-width="0.19" stroke-linecap="round" stroke-linejoin="round"/>
<path d="M254.27 85.16C254.16 85.74 254.22 86.48 254.58 86.98C254.67 87.1 254.79 87.2 254.88 87.33C254.97 87.46 255.03 87.62 254.97 87.76C254.83 88.13 254.74 88.41 254.79 88.82C254.84 89.23 254.98 89.69 255.27 90.01C255.4 90.15 255.55 90.25 255.66 90.4C255.77 90.54 255.75 90.62 255.74 90.77C255.74 91.54 256.35 92.26 256.71 92.9" stroke="white" stroke-width="0.19" stroke-linecap="round" stroke-linejoin="round"/>
<path d="M247.13 92.63C247.64 92.86 248.21 93.03 248.77 93.12C249.66 93.26 250.59 93.21 251.47 93C252.89 92.66 254.2 92.14 255.45 91.38C255.56 91.31 255.68 91.13 255.78 91.04" stroke="white" stroke-width="0.19" stroke-linecap="round" stroke-linejoin="round"/>
<path d="M246.98 86.38C247.47 86.49 248.04 86.5 248.47 86.21C249.13 85.75 248.93 84.79 248.33 84.35C248 84.11 247.65 83.86 247.24 83.81C246.76 84.62 246.74 85.47 246.98 86.38Z" stroke="white" stroke-width="0.19" stroke-linecap="round" stroke-linejoin="round"/>
<path d="M248.54 92.14C248.29 92.51 247.78 92.64 247.35 92.64C246.87 92.64 246.73 92.26 246.64 91.84C246.57 91.52 246.37 90.75 246.78 90.57C246.93 90.51 247.1 90.53 247.26 90.57C247.6 90.64 247.95 90.77 248.23 90.97C248.61 91.23 248.81 91.74 248.55 92.13L248.54 92.14Z" stroke="white" stroke-width="0.19" stroke-linecap="round" stroke-linejoin="round"/>
<path d="M253.68 78.27C253.33 78.72 252.77 78.89 252.26 78.56C251.93 78.35 251.65 77.98 251.41 77.67" stroke="white" stroke-width="0.19" stroke-linecap="round" stroke-linejoin="round"/>
<path d="M215.98 86.0101C215.92 87.6901 216.38 89.4001 217.26 90.8301C217.98 92.0101 219.26 93.4701 220.63 93.85C222.32 94.31 224.12 94.2101 225.79 93.7301C226.33 93.5801 226.84 93.24 227.35 92.99C227.71 92.81 228.1 92.61 228.29 92.24C228.52 91.81 228.55 91.81 229.05 91.7C229.62 91.58 230.66 91.3801 231.08 90.9401C231.43 90.5701 231.52 89.8901 231.45 89.4101C231.39 89.0201 231.26 88.4501 230.82 88.3301C230.69 88.3001 230.56 88.3201 230.43 88.3301C229.55 88.4601 228.66 88.4801 227.77 88.4001C227.4 88.3701 226.34 88.1801 226.12 87.8301C225.73 87.2101 226.89 87.5301 227.07 87.5301C227.81 87.5601 228.54 87.32 229.27 87.2C229.94 87.09 230.92 86.9301 231.21 86.2101C231.51 85.4701 231.43 84.6901 231.21 83.9301C231.19 83.8701 231.17 83.81 231.12 83.77C231.05 83.72 230.96 83.7201 230.87 83.7301C230.3 83.7901 229.74 83.89 229.19 84.03C228.12 84.3101 225.19 84.1601 224.73 82.8301C224.46 82.0401 225.33 81.62 225.87 81.27C226.8 80.67 227.18 79.88 227 78.7C226.81 77.48 226.03 75.7901 224.78 77.1501C224.38 77.5901 223.99 78.0301 223.55 78.4301C222.11 79.7301 219.94 79.8401 218.4 81.0401C216.92 82.1901 216.05 84.1301 215.99 86.0101H215.98Z" fill="#C3C3C3"/>
<path d="M225.68 93.84C225.38 93.93 225.07 93.99 224.79 94.03C223.59 94.21 222.32 94.18 221.14 93.89C220.3 93.68 219.5 93.27 218.86 92.71C218.24 92.16 217.69 91.53 217.26 90.82C215.39 87.77 215.38 83.36 218.39 81.03C219.94 79.83 222.1 79.72 223.54 78.42C223.98 78.02 224.37 77.58 224.77 77.14C226.01 75.78 226.79 77.46 226.99 78.69C227.17 79.87 226.8 80.66 225.86 81.26C225.32 81.61 224.45 82.02 224.72 82.82C225.18 84.15 228.11 84.3 229.18 84.02C229.67 83.89 230.4 83.54 230.91 83.77C231.65 84.1 231.44 85.63 231.2 86.21C230.91 86.93 229.93 87.09 229.26 87.2C228.34 87.35 227.44 87.46 226.5 87.45C226.23 87.45 225.9 87.48 226.12 87.83C226.34 88.17 227.4 88.36 227.77 88.4C228.65 88.48 229.55 88.46 230.43 88.33C230.56 88.31 230.69 88.29 230.82 88.33C231.31 88.47 231.42 89.13 231.47 89.56C231.66 91.18 229.83 91.59 228.6 91.78C228.56 91.78 228.51 91.8 228.48 91.83C228.46 91.86 228.48 91.9101 228.46 91.9401C228.46 92.0301 228.39 92.11 228.32 92.17C227.58 92.95 226.7 93.53 225.67 93.83H225.68V93.84Z" stroke="white" stroke-width="0.19" stroke-linecap="round" stroke-linejoin="round"/>
<path d="M223.93 78.12C223.95 78.26 223.97 78.32 224.05 78.43C224.18 78.65 224.36 78.95 224.64 78.93C225.03 78.9 225.43 78.28 225.56 77.95C225.72 77.54 225.64 77.06 225.38 76.71" stroke="white" stroke-width="0.19" stroke-linecap="round" stroke-linejoin="round"/>
<path d="M231.2 84.41C230.41 84.49 229.27 84.87 229.38 85.86C229.45 86.51 230.28 86.8 230.83 86.61" stroke="white" stroke-width="0.19" stroke-linecap="round" stroke-linejoin="round"/>
<path d="M231.38 88.9901C230.94 89.0501 230.53 89.1601 230.14 89.3301C229.73 89.5101 229.34 89.9301 229.36 90.4101C229.38 91.0101 229.95 91.3301 230.5 91.2401" stroke="white" stroke-width="0.19" stroke-linecap="round" stroke-linejoin="round"/>
<path d="M224.53 84.4901C224.72 85.0101 224.63 85.6201 224.3 86.0601C224 86.4601 223.74 86.8701 223.93 87.3901C224.13 87.9401 224.1 88.4501 223.96 89.0001C223.82 89.5501 223.31 89.9001 223.03 90.3701C222.78 90.7901 223 91.3001 222.92 91.7601C222.84 92.2501 222.62 92.7501 222.24 93.0801" stroke="white" stroke-width="0.19" stroke-linecap="round" stroke-linejoin="round"/>
<path d="M225.44 91.7501C225.89 91.8201 226.3 91.8001 226.75 91.8001C227.23 91.8001 228.12 91.8901 228.6 91.7801" stroke="white" stroke-width="0.19" stroke-linecap="round" stroke-linejoin="round"/>
<path d="M203.19 99.73C204.55 99.93 205.96 99.38 206.81 98.31C207.5 97.45 207.95 96.16 208.06 95.08" stroke="white" stroke-width="0.19" stroke-miterlimit="10"/>
<path d="M214.27 71.8701C216.36 72.3501 217.86 74.72 218.58 76.57C218.25 75.71 218.6 75.0901 218.53 74.2601C218.45 73.2601 217.87 72.2701 217.19 71.5501C216.33 70.6401 215.21 70.0001 214.07 69.4901" stroke="#006E69" stroke-width="0.28" stroke-linecap="round" stroke-linejoin="round"/>
<path d="M209.92 71.3801C210.96 71.3801 211.73 71.3601 212.71 71.7301" stroke="#006E69" stroke-width="0.28" stroke-linecap="round" stroke-linejoin="round"/>
<path d="M219.28 78.59C218.99 78.48 218.67 78.57 218.38 78.68C215.36 79.79 213.65 82.51 213.52 85.66C213.39 88.81 214.52 92.35 217.17 94.22" stroke="#006E69" stroke-width="0.28" stroke-linecap="round" stroke-linejoin="round"/>
<path d="M215.9 80.41C216.49 80.65 216.88 81.03 217.28 81.51" stroke="#006E69" stroke-width="0.28" stroke-linecap="round" stroke-linejoin="round"/>
<path d="M214.6 82.09C215.12 82.39 215.63 82.7 216.13 83.03" stroke="#006E69" stroke-width="0.28" stroke-linecap="round" stroke-linejoin="round"/>
<path d="M213.72 84.8201C214.18 85.1101 214.84 85.1601 215.37 85.2701" stroke="#006E69" stroke-width="0.28" stroke-linecap="round" stroke-linejoin="round"/>
<path d="M213.7 87.81C214.45 87.81 215.2 87.74 215.94 87.6" stroke="#006E69" stroke-width="0.28" stroke-linecap="round" stroke-linejoin="round"/>
<path d="M265.77 68.67C268.54 68.54 270.7 70.54 272.39 72.47C270.67 70.63 268.46 68.72 265.79 68.94C265.61 68.96 265.58 68.67 265.77 68.66V68.67Z" fill="#006E69"/>
<path d="M238.35 29.22C235.92 29.22 233.94 27.24 233.94 24.81C233.94 22.38 235.92 20.4 238.35 20.4C240.78 20.4 242.76 22.38 242.76 24.81C242.76 27.24 240.78 29.22 238.35 29.22Z" fill="black"/>
<path d="M238.35 20.53C240.72 20.53 242.63 22.45 242.63 24.81C242.63 27.17 240.71 29.09 238.35 29.09C235.99 29.09 234.07 27.17 234.07 24.81C234.07 22.45 235.99 20.53 238.35 20.53ZM238.35 20.28C235.85 20.28 233.82 22.31 233.82 24.81C233.82 27.31 235.85 29.34 238.35 29.34C240.85 29.34 242.88 27.31 242.88 24.81C242.88 22.31 240.85 20.28 238.35 20.28Z" fill="black"/>
<path d="M224.77 43.77C222.68 38.38 227.95 33 232.56 31.19C234.21 30.46 236.03 30.08 237.98 30.08C243.94 30.08 249.43 33.55 251.33 38.51C251.99 40.35 251.97 42.26 251.29 43.78L251.17 44.04L251.06 43.78C248.38 37.51 240.41 36.66 238.04 36.55C232.98 36.73 226.87 39.27 225 43.78L224.88 44.07L224.77 43.78V43.77Z" fill="black"/>
<path d="M237.98 30.21C243.51 30.21 249.21 33.33 251.21 38.56C251.83 40.28 251.86 42.2 251.17 43.73C248.97 38.59 243.04 36.66 238.04 36.42C233.36 36.58 226.86 38.97 224.88 43.73C222.82 38.41 227.93 33.14 232.6 31.31C234.27 30.56 236.11 30.21 237.97 30.21M237.98 29.96C236.02 29.96 234.17 30.34 232.51 31.08C230 32.06 227.57 33.93 226.02 36.07C224.72 37.86 223.43 40.66 224.65 43.82L224.87 44.4L225.11 43.83C226.96 39.36 233.02 36.85 238.05 36.67C247.36 37.11 250.27 42.26 250.94 43.83L251.16 44.35L251.39 43.84C252.09 42.3 252.1 40.35 251.44 38.48C249.52 33.46 243.98 29.96 237.98 29.96Z" fill="black"/>
<path d="M245.77 27.33C245.77 27.33 245.77 27.31 245.75 27.3C243.91 29.57 241.06 30.83 238.04 30.82C235.11 30.82 232.17 29.59 230.32 27.28C230.28 28.35 230.28 29.42 230.1 30.48C230.07 30.64 230 30.78 229.9 30.89C230.15 31.24 230.42 31.58 230.72 31.89C233.54 34.88 238.26 35.71 242.02 34.15C244.28 33.25 246.25 31.41 247.11 29.14C246.64 28.56 246.21 27.94 245.77 27.33Z" fill="#AECC53"/>
<path d="M233.25 29.57C235.117 29.57 236.63 28.0567 236.63 26.19C236.63 24.3233 235.117 22.81 233.25 22.81C231.383 22.81 229.87 24.3233 229.87 26.19C229.87 28.0567 231.383 29.57 233.25 29.57Z" fill="black"/>
<path d="M233.25 22.93C235.05 22.93 236.51 24.39 236.51 26.19C236.51 27.99 235.05 29.45 233.25 29.45C231.45 29.45 229.99 27.99 229.99 26.19C229.99 24.39 231.45 22.93 233.25 22.93ZM233.25 22.69C231.32 22.69 229.74 24.26 229.74 26.2C229.74 28.14 231.31 29.71 233.25 29.71C235.19 29.71 236.76 28.14 236.76 26.2C236.76 24.26 235.19 22.69 233.25 22.69Z" fill="black"/>
<path d="M243.45 29.58C241.59 29.58 240.07 28.06 240.07 26.2C240.07 24.34 241.59 22.82 243.45 22.82C245.31 22.82 246.83 24.34 246.83 26.2C246.83 28.06 245.31 29.58 243.45 29.58Z" fill="black"/>
<path d="M243.45 22.93C245.25 22.93 246.71 24.39 246.71 26.19C246.71 27.99 245.25 29.45 243.45 29.45C241.65 29.45 240.19 27.99 240.19 26.19C240.19 24.39 241.65 22.93 243.45 22.93ZM243.45 22.69C241.52 22.69 239.94 24.26 239.94 26.2C239.94 28.14 241.51 29.71 243.45 29.71C245.39 29.71 246.96 28.14 246.96 26.2C246.96 24.26 245.39 22.69 243.45 22.69Z" fill="black"/>
<path d="M238.35 33.42C235.92 33.42 233.94 31.44 233.94 29.01C233.94 26.58 235.92 24.6 238.35 24.6C240.78 24.6 242.76 26.58 242.76 29.01C242.76 31.44 240.78 33.42 238.35 33.42Z" fill="black"/>
<path d="M238.35 24.73C240.72 24.73 242.63 26.65 242.63 29.01C242.63 31.37 240.71 33.29 238.35 33.29C235.99 33.29 234.07 31.37 234.07 29.01C234.07 26.65 235.99 24.73 238.35 24.73ZM238.35 24.48C235.85 24.48 233.82 26.51 233.82 29.01C233.82 31.51 235.85 33.54 238.35 33.54C240.85 33.54 242.88 31.51 242.88 29.01C242.88 26.51 240.85 24.48 238.35 24.48Z" fill="black"/>
<path d="M232.05 33.77C233.917 33.77 235.43 32.2567 235.43 30.39C235.43 28.5233 233.917 27.01 232.05 27.01C230.183 27.01 228.67 28.5233 228.67 30.39C228.67 32.2567 230.183 33.77 232.05 33.77Z" fill="black"/>
<path d="M232.06 27.14C233.86 27.14 235.32 28.6 235.32 30.4C235.32 32.2 233.86 33.66 232.06 33.66C230.26 33.66 228.8 32.2 228.8 30.4C228.8 28.6 230.26 27.14 232.06 27.14ZM232.06 26.89C230.13 26.89 228.55 28.46 228.55 30.4C228.55 32.34 230.12 33.91 232.06 33.91C234 33.91 235.57 32.34 235.57 30.4C235.57 28.46 234 26.89 232.06 26.89Z" fill="black"/>
<path d="M244.91 33.77C246.777 33.77 248.29 32.2567 248.29 30.39C248.29 28.5233 246.777 27.01 244.91 27.01C243.043 27.01 241.53 28.5233 241.53 30.39C241.53 32.2567 243.043 33.77 244.91 33.77Z" fill="black"/>
<path d="M244.91 27.14C246.71 27.14 248.17 28.6 248.17 30.4C248.17 32.2 246.71 33.66 244.91 33.66C243.11 33.66 241.65 32.2 241.65 30.4C241.65 28.6 243.11 27.14 244.91 27.14ZM244.91 26.89C242.98 26.89 241.4 28.46 241.4 30.4C241.4 32.34 242.97 33.91 244.91 33.91C246.85 33.91 248.42 32.34 248.42 30.4C248.42 28.46 246.85 26.89 244.91 26.89Z" fill="black"/>
<path d="M233.34 42.26C231.68 41.57 227.01 43.17 227.01 43.17C227.01 43.17 227.58 46.91 230.84 48.29C232.5 48.99 234.41 48.19 235.1 46.53C235.79 44.87 235 42.96 233.34 42.27V42.26Z" stroke="white" stroke-width="0.75" stroke-linejoin="round"/>
<path d="M242.25 42.26C243.91 41.57 248.58 43.17 248.58 43.17C248.58 43.17 248.01 46.91 244.75 48.29C243.09 48.99 241.18 48.19 240.49 46.53C239.8 44.87 240.59 42.96 242.25 42.27V42.26Z" stroke="white" stroke-width="0.75" stroke-linejoin="round"/>
<path d="M240.32 45.25C239.54 44.44 236.04 44.44 235.27 45.25" stroke="white" stroke-width="0.75" stroke-linejoin="round"/>
<path opacity="0.4" d="M450.01 215.32L401.2 221.77V182.17L450.01 175.73V215.32Z" fill="#6FAFAC"/>
<path opacity="0.7" d="M457.38 221.31L408.57 227.76V188.16L457.38 181.71V221.31Z" fill="#6FAFAC"/>
<path d="M465.66 227.3L416.86 233.74V194.14L465.66 187.7V227.3Z" fill="#6FAFAC"/>
<path d="M472.68 184.76C474.25 184.64 475.25 184.83 475.59 186.56V231.79C475.38 234.63 473.88 234.77 471.52 235.16C457.47 237.48 443.26 239 429.2 241.28C427.71 241.28 427.05 240.28 426.94 238.9V200.11C426.98 198.81 427.87 197.62 429.14 197.31C434.55 196.46 440.01 195.9 445.42 195.04C446.09 194.93 447.08 194.86 447.68 194.64C450.96 193.41 447.97 188.89 451.49 187.78L472.68 184.76Z" fill="#006E6A"/>
<path d="M432.97 229.89C432.18 229.89 431.48 229.3 431.37 228.49C431.25 227.61 431.87 226.8 432.75 226.68L449.79 224.38C450.67 224.26 451.48 224.88 451.6 225.76C451.72 226.64 451.1 227.45 450.22 227.57L433.18 229.87H432.96H432.97V229.89Z" fill="#003834"/>
<path d="M105.38 284.98C108.909 284.98 111.77 282.119 111.77 278.59C111.77 275.061 108.909 272.2 105.38 272.2C101.851 272.2 98.99 275.061 98.99 278.59C98.99 282.119 101.851 284.98 105.38 284.98Z" stroke="#6FAFAC" stroke-width="1.65" stroke-linecap="round" stroke-linejoin="round"/>
<path d="M369.98 209.89H401.2" stroke="#AECC53" stroke-width="1.65" stroke-linecap="round" stroke-linejoin="round"/>
<path d="M306.79 209.89H369.98" stroke="#AECC53" stroke-width="0.83" stroke-linecap="round" stroke-linejoin="round"/>
<path d="M306.94 212.99C305.23 212.99 303.84 211.6 303.84 209.89C303.84 208.18 305.23 206.79 306.94 206.79C308.65 206.79 310.04 208.18 310.04 209.89C310.04 211.6 308.65 212.99 306.94 212.99Z" fill="#AECC53"/>
<path d="M167.48 24.46V35.16L176.75 40.5L186.01 35.16V24.46L176.75 19.12L167.48 24.46Z" fill="#6FAFAC"/>
<path d="M163.94 22.41V37.2L176.75 44.6L189.55 37.2V22.41L176.75 15.02L163.94 22.41Z" stroke="#6FAFAC" stroke-width="0.83" stroke-miterlimit="10"/>
<path d="M182.61 51.29C182.3 50.47 182.71 49.55 183.54 49.24C184.36 48.93 185.28 49.34 185.6 50.17C185.91 50.99 185.5 51.91 184.67 52.22C184.67 52.22 184.58 52.26 184.53 52.27C183.75 52.49 182.91 52.07 182.61 51.29ZM176.41 53.71C175.53 53.71 174.82 52.98 174.83 52.11C174.83 51.23 175.56 50.52 176.44 50.53C177.32 50.53 178.03 51.26 178.02 52.13C178.02 52.86 177.52 53.47 176.85 53.65C176.71 53.69 176.57 53.71 176.41 53.71ZM189.59 47.74C189 47.09 189.06 46.08 189.72 45.49C190.37 44.9 191.38 44.96 191.97 45.61C192.56 46.26 192.51 47.28 191.85 47.86C191.66 48.03 191.44 48.14 191.21 48.21C190.65 48.37 190.02 48.21 189.6 47.74H189.59ZM168.16 52.1C167.34 51.77 166.94 50.85 167.27 50.03C167.59 49.21 168.52 48.81 169.34 49.14C170.16 49.47 170.56 50.39 170.23 51.21C170.04 51.69 169.64 52.03 169.17 52.16C168.85 52.25 168.5 52.24 168.16 52.1ZM194.81 41.9C194.03 41.5 193.71 40.54 194.11 39.75C194.51 38.97 195.47 38.65 196.25 39.06C197.04 39.46 197.35 40.42 196.95 41.2C196.74 41.61 196.37 41.89 195.95 42.01C195.58 42.11 195.18 42.08 194.8 41.89L194.81 41.9ZM161.06 47.63C160.41 47.03 160.37 46.02 160.97 45.38C161.56 44.73 162.57 44.69 163.22 45.29C163.87 45.88 163.91 46.89 163.31 47.54C163.1 47.77 162.84 47.92 162.56 47.99C162.04 48.13 161.47 48.01 161.05 47.63H161.06ZM197.58 34.57C196.7 34.48 196.07 33.7 196.16 32.82C196.25 31.95 197.03 31.31 197.91 31.4C198.78 31.49 199.42 32.27 199.33 33.15C199.26 33.82 198.78 34.36 198.17 34.53C197.99 34.58 197.79 34.6 197.59 34.57H197.58ZM156.04 40.89C155.66 40.1 155.98 39.14 156.78 38.76C157.57 38.37 158.52 38.7 158.91 39.49C159.29 40.28 158.97 41.24 158.17 41.62C158.08 41.67 157.99 41.7 157.9 41.72C157.17 41.92 156.39 41.59 156.04 40.89ZM195.54 25.63V25.59V25.55C195.31 24.7 195.8 23.82 196.65 23.59C197.5 23.35 198.38 23.85 198.61 24.7V24.75V24.79C198.84 25.64 198.35 26.52 197.5 26.75C196.65 26.98 195.77 26.49 195.54 25.64V25.63ZM155.53 34.25C154.65 34.33 153.88 33.68 153.8 32.8C153.72 31.92 154.37 31.15 155.25 31.07C156.13 30.99 156.9 31.64 156.98 32.52C157.05 33.3 156.54 34 155.81 34.2C155.72 34.23 155.62 34.25 155.53 34.25ZM192.34 19.07C191.82 18.37 191.96 17.37 192.66 16.84C193.36 16.32 194.37 16.46 194.89 17.16C195.41 17.86 195.27 18.86 194.57 19.39C194.41 19.51 194.23 19.6 194.04 19.65C193.42 19.82 192.74 19.6 192.34 19.07ZM155.71 26.42C154.86 26.17 154.38 25.29 154.63 24.44C154.88 23.59 155.76 23.11 156.6 23.36C157.45 23.61 157.93 24.49 157.68 25.34C157.52 25.89 157.09 26.29 156.57 26.43C156.29 26.51 155.99 26.51 155.7 26.43L155.71 26.42ZM187.02 14.18C186.27 13.71 186.05 12.73 186.51 11.98C186.98 11.23 187.96 11.01 188.71 11.47C189.46 11.94 189.68 12.92 189.22 13.67C189 14.02 188.66 14.26 188.29 14.36C187.87 14.47 187.41 14.42 187.02 14.17V14.18ZM158.72 19.19C158.02 18.66 157.88 17.66 158.42 16.96C158.96 16.26 159.95 16.12 160.65 16.66C161.35 17.19 161.49 18.19 160.95 18.9C160.73 19.19 160.43 19.38 160.11 19.47C159.64 19.6 159.13 19.51 158.72 19.2V19.19ZM180.3 11.52C179.43 11.36 178.87 10.52 179.04 9.64999C179.21 8.78999 180.04 8.21999 180.91 8.38999C181.77 8.55999 182.34 9.38999 182.17 10.25C182.05 10.87 181.59 11.34 181.02 11.49C180.79 11.55 180.54 11.57 180.3 11.51V11.52ZM164.13 13.52C163.67 12.77 163.91 11.79 164.66 11.33C165.41 10.88 166.39 11.11 166.85 11.86C167.3 12.61 167.07 13.59 166.32 14.05C166.19 14.13 166.06 14.19 165.91 14.23C165.24 14.41 164.51 14.14 164.13 13.52ZM173.08 11.49C172.21 11.65 171.38 11.07 171.22 10.21C171.06 9.33999 171.64 8.50999 172.51 8.35999C173.38 8.19999 174.21 8.77999 174.36 9.63999C174.51 10.46 174 11.25 173.21 11.47C173.21 11.47 173.12 11.49 173.07 11.5L173.08 11.49Z" fill="#AECC53"/>
<path d="M176.3 31.25L159.46 18.86L160.01 17.95L176.85 30.34L176.3 31.25Z" fill="#AECC53"/>
<path d="M176.77 31.29L176.37 30.3L193.47 18.43L193.87 19.42L176.77 31.29Z" fill="#AECC53"/>
<path d="M177.4 30.47H176.09V52.82H177.4V30.47Z" fill="#AECC53"/>
<defs>
<clipPath id="clip0_100_21">
<rect width="417.15" height="413" fill="white" transform="translate(28)"/>
</clipPath>
</defs>
</svg>
