<svg width="400" height="400" viewBox="0 0 400 400" fill="none" xmlns="http://www.w3.org/2000/svg">
<path d="M263.9 23.7C247.55 17.57 230.48 12.44 213.02 12.51C189.49 12.61 167.12 22.11 145.71 31.88C106.3 49.87 75.22 78.06 42.92 106.68C16.77 129.85 12.48 177.91 13.26 210.55C13.35 214.49 13.45 218.45 13.63 222.4C14.18 234.57 15.48 246.71 19.75 258.06C26.59 276.25 42.46 291.62 54.44 306.59C67.41 322.8 80.13 336.33 97.59 347.9C117.36 361 145.64 383.51 170.03 385.57C200.73 388.17 224.24 389.42 253.75 380.22C285.18 370.42 319.63 356.12 342.25 331.06C354.11 317.92 361.85 299.17 370.68 283.89C387.9 254.08 395.04 221.94 390.61 187.68C385.97 151.82 371.88 124.33 357.02 92.27C337.94 51.1 304.4 38.87 263.88 23.68L263.9 23.7Z" fill="#EBF2D4"/>
<path d="M218.21 331.45C293.553 331.45 354.63 270.373 354.63 195.03C354.63 119.687 293.553 58.61 218.21 58.61C142.867 58.61 81.79 119.687 81.79 195.03C81.79 270.373 142.867 331.45 218.21 331.45Z" stroke="#ADCB53" stroke-width="2.1" stroke-miterlimit="10"/>
<path d="M336.03 286.76C353.427 286.76 367.53 272.657 367.53 255.26C367.53 237.863 353.427 223.76 336.03 223.76C318.633 223.76 304.53 237.863 304.53 255.26C304.53 272.657 318.633 286.76 336.03 286.76Z" fill="#EBF2D4"/>
<path d="M324.03 147.76C341.427 147.76 355.53 133.657 355.53 116.26C355.53 98.863 341.427 84.76 324.03 84.76C306.633 84.76 292.53 98.863 292.53 116.26C292.53 133.657 306.633 147.76 324.03 147.76Z" fill="#EBF2D4"/>
<path d="M209.58 85.47C226.977 85.47 241.08 71.367 241.08 53.97C241.08 36.573 226.977 22.47 209.58 22.47C192.183 22.47 178.08 36.573 178.08 53.97C178.08 71.367 192.183 85.47 209.58 85.47Z" fill="#EBF2D4"/>
<path d="M84.03 171.76C101.427 171.76 115.53 157.657 115.53 140.26C115.53 122.863 101.427 108.76 84.03 108.76C66.6331 108.76 52.53 122.863 52.53 140.26C52.53 157.657 66.6331 171.76 84.03 171.76Z" fill="#EBF2D4"/>
<path d="M277.34 302.85L255.44 316.94H139.33V107.56L160.81 93.48H277.34V302.85Z" fill="#003834"/>
<path d="M255.44 107.8H139.37V317.07H255.44V107.8Z" stroke="#AECC53" stroke-width="1.12" stroke-linecap="round" stroke-linejoin="round"/>
<path d="M174.86 192.09V169.67C174.86 153.14 188.3 155.81 204.74 155.81H211.93C214.54 155.81 217.16 155.79 219.77 155.81C223.27 155.84 226.92 155.18 227.28 150.79V117.07" stroke="#6FAFAC" stroke-width="1.12" stroke-linecap="round" stroke-linejoin="round"/>
<path d="M176.11 192.03C176.11 192.72 175.55 193.29 174.85 193.29C174.15 193.29 173.59 192.73 173.59 192.03C173.59 191.33 174.15 190.77 174.85 190.77C175.55 190.77 176.11 191.33 176.11 192.03Z" fill="#6FAFAC"/>
<path d="M228.53 117.12C228.53 116.43 227.97 115.86 227.27 115.86C226.57 115.86 226.01 116.42 226.01 117.12C226.01 117.82 226.57 118.38 227.27 118.38C227.97 118.38 228.53 117.82 228.53 117.12Z" fill="#6FAFAC"/>
<path d="M178.17 192.09V169.67C178.17 153.14 191.61 155.81 208.05 155.81H220.69" stroke="#6FAFAC" stroke-width="1.12" stroke-linecap="round" stroke-linejoin="round"/>
<path d="M178.17 193.29C178.866 193.29 179.43 192.726 179.43 192.03C179.43 191.334 178.866 190.77 178.17 190.77C177.474 190.77 176.91 191.334 176.91 192.03C176.91 192.726 177.474 193.29 178.17 193.29Z" fill="#6FAFAC"/>
<path d="M220.61 157.06C221.3 157.06 221.87 156.5 221.87 155.8C221.87 155.1 221.31 154.54 220.61 154.54C219.91 154.54 219.35 155.1 219.35 155.8C219.35 156.5 219.91 157.06 220.61 157.06Z" fill="#6FAFAC"/>
<path d="M171.55 192.09V169.67C171.55 153.14 184.99 155.81 201.43 155.81H220.69" stroke="#6FAFAC" stroke-width="1.12" stroke-linecap="round" stroke-linejoin="round"/>
<path d="M172.8 192.03C172.8 192.72 172.24 193.29 171.54 193.29C170.84 193.29 170.28 192.73 170.28 192.03C170.28 191.33 170.84 190.77 171.54 190.77C172.24 190.77 172.8 191.33 172.8 192.03Z" fill="#6FAFAC"/>
<path d="M220.61 157.06C221.3 157.06 221.87 156.5 221.87 155.8C221.87 155.1 221.31 154.54 220.61 154.54C219.91 154.54 219.35 155.1 219.35 155.8C219.35 156.5 219.91 157.06 220.61 157.06Z" fill="#6FAFAC"/>
<path d="M174.86 238.99V216.57C174.86 200.04 188.3 202.71 204.74 202.71H211.93C214.54 202.71 217.16 202.69 219.77 202.71C223.27 202.74 226.92 202.08 227.28 197.69V157.93" stroke="#6FAFAC" stroke-width="1.12" stroke-linecap="round" stroke-linejoin="round"/>
<path d="M176.11 238.93C176.11 239.62 175.55 240.19 174.85 240.19C174.15 240.19 173.59 239.63 173.59 238.93C173.59 238.23 174.15 237.67 174.85 237.67C175.55 237.67 176.11 238.23 176.11 238.93Z" fill="#6FAFAC"/>
<path d="M228.53 157.99C228.53 157.3 227.97 156.73 227.27 156.73C226.57 156.73 226.01 157.29 226.01 157.99C226.01 158.69 226.57 159.25 227.27 159.25C227.97 159.25 228.53 158.69 228.53 157.99Z" fill="#6FAFAC"/>
<path d="M178.17 238.99V216.57C178.17 200.04 191.61 202.71 208.05 202.71H220.69" stroke="#6FAFAC" stroke-width="1.12" stroke-linecap="round" stroke-linejoin="round"/>
<path d="M178.17 240.19C178.866 240.19 179.43 239.626 179.43 238.93C179.43 238.234 178.866 237.67 178.17 237.67C177.474 237.67 176.91 238.234 176.91 238.93C176.91 239.626 177.474 240.19 178.17 240.19Z" fill="#6FAFAC"/>
<path d="M220.61 203.97C221.3 203.97 221.87 203.41 221.87 202.71C221.87 202.01 221.31 201.45 220.61 201.45C219.91 201.45 219.35 202.01 219.35 202.71C219.35 203.41 219.91 203.97 220.61 203.97Z" fill="#6FAFAC"/>
<path d="M171.55 238.99V216.57C171.55 200.04 184.99 202.71 201.43 202.71H220.69" stroke="#6FAFAC" stroke-width="1.12" stroke-linecap="round" stroke-linejoin="round"/>
<path d="M172.8 238.93C172.8 239.62 172.24 240.19 171.54 240.19C170.84 240.19 170.28 239.63 170.28 238.93C170.28 238.23 170.84 237.67 171.54 237.67C172.24 237.67 172.8 238.23 172.8 238.93Z" fill="#6FAFAC"/>
<path d="M220.61 203.97C221.3 203.97 221.87 203.41 221.87 202.71C221.87 202.01 221.31 201.45 220.61 201.45C219.91 201.45 219.35 202.01 219.35 202.71C219.35 203.41 219.91 203.97 220.61 203.97Z" fill="#6FAFAC"/>
<path d="M254.85 108.41H140.02V116.77H254.85V108.41Z" fill="#AECC53"/>
<path d="M276.99 93.63H160.81L139.37 107.49H255.56L276.99 93.63Z" stroke="#AECC53" stroke-width="1.11" stroke-linecap="round" stroke-linejoin="round"/>
<path d="M277.77 93.63L277.22 302.9L255.71 316.77L256.25 107.49L277.77 93.63Z" stroke="#AECC53" stroke-width="1.12" stroke-linecap="round" stroke-linejoin="round"/>
<path d="M174.86 285.89V263.47C174.86 246.94 188.3 249.61 204.74 249.61H211.93C214.54 249.61 217.16 249.59 219.77 249.61C223.27 249.64 226.92 248.98 227.28 244.59V204.83" stroke="#6FAFAC" stroke-width="1.12" stroke-linecap="round" stroke-linejoin="round"/>
<path d="M176.11 285.83C176.11 286.52 175.55 287.09 174.85 287.09C174.15 287.09 173.59 286.53 173.59 285.83C173.59 285.13 174.15 284.57 174.85 284.57C175.55 284.57 176.11 285.13 176.11 285.83Z" fill="#6FAFAC"/>
<path d="M228.53 204.9C228.53 204.21 227.97 203.64 227.27 203.64C226.57 203.64 226.01 204.2 226.01 204.9C226.01 205.6 226.57 206.16 227.27 206.16C227.97 206.16 228.53 205.6 228.53 204.9Z" fill="#6FAFAC"/>
<path d="M178.17 285.89V263.47C178.17 246.94 191.61 249.61 208.05 249.61H220.69" stroke="#6FAFAC" stroke-width="1.12" stroke-linecap="round" stroke-linejoin="round"/>
<path d="M179.42 285.83C179.42 286.52 178.86 287.09 178.16 287.09C177.46 287.09 176.9 286.53 176.9 285.83C176.9 285.13 177.46 284.57 178.16 284.57C178.86 284.57 179.42 285.13 179.42 285.83Z" fill="#6FAFAC"/>
<path d="M220.61 250.87C221.3 250.87 221.87 250.31 221.87 249.61C221.87 248.91 221.31 248.35 220.61 248.35C219.91 248.35 219.35 248.91 219.35 249.61C219.35 250.31 219.91 250.87 220.61 250.87Z" fill="#6FAFAC"/>
<path d="M171.55 285.89V263.47C171.55 246.94 184.99 249.61 201.43 249.61H220.69" stroke="#6FAFAC" stroke-width="1.12" stroke-linecap="round" stroke-linejoin="round"/>
<path d="M172.8 285.83C172.8 286.52 172.24 287.09 171.54 287.09C170.84 287.09 170.28 286.53 170.28 285.83C170.28 285.13 170.84 284.57 171.54 284.57C172.24 284.57 172.8 285.13 172.8 285.83Z" fill="#6FAFAC"/>
<path d="M220.61 250.87C221.3 250.87 221.87 250.31 221.87 249.61C221.87 248.91 221.31 248.35 220.61 248.35C219.91 248.35 219.35 248.91 219.35 249.61C219.35 250.31 219.91 250.87 220.61 250.87Z" fill="#6FAFAC"/>
<path d="M246.39 133.93H148.42C146.912 133.93 145.69 135.152 145.69 136.66V162.93C145.69 164.438 146.912 165.66 148.42 165.66H246.39C247.898 165.66 249.12 164.438 249.12 162.93V136.66C249.12 135.152 247.898 133.93 246.39 133.93Z" fill="#003834"/>
<path d="M246.39 180.83H148.42C146.912 180.83 145.69 182.052 145.69 183.56V209.83C145.69 211.338 146.912 212.56 148.42 212.56H246.39C247.898 212.56 249.12 211.338 249.12 209.83V183.56C249.12 182.052 247.898 180.83 246.39 180.83Z" fill="#003834"/>
<path d="M246.39 227.73H148.42C146.912 227.73 145.69 228.952 145.69 230.46V256.73C145.69 258.238 146.912 259.46 148.42 259.46H246.39C247.898 259.46 249.12 258.238 249.12 256.73V230.46C249.12 228.952 247.898 227.73 246.39 227.73Z" fill="#003834"/>
<path d="M246.39 274.64H148.42C146.912 274.64 145.69 275.862 145.69 277.37V303.64C145.69 305.148 146.912 306.37 148.42 306.37H246.39C247.898 306.37 249.12 305.148 249.12 303.64V277.37C249.12 275.862 247.898 274.64 246.39 274.64Z" fill="#003834"/>
<path d="M246.39 129.92H148.42C146.912 129.92 145.69 131.142 145.69 132.65V158.92C145.69 160.428 146.912 161.65 148.42 161.65H246.39C247.898 161.65 249.12 160.428 249.12 158.92V132.65C249.12 131.142 247.898 129.92 246.39 129.92Z" fill="#006E69"/>
<path d="M178.64 149.6H155.76C153.65 149.6 151.95 147.89 151.95 145.79C151.95 143.69 153.66 141.98 155.76 141.98H178.64C180.75 141.98 182.45 143.69 182.45 145.79C182.45 147.89 180.74 149.6 178.64 149.6Z" fill="#AECC53"/>
<path d="M197.71 149.68H191.35C189.24 149.68 187.54 147.97 187.54 145.87C187.54 143.77 189.25 142.06 191.35 142.06H197.71C199.82 142.06 201.52 143.77 201.52 145.87C201.52 147.97 199.81 149.68 197.71 149.68Z" stroke="#6FAFAC" stroke-width="1.09" stroke-linecap="round" stroke-linejoin="round"/>
<path d="M194.64 146.63V125.76C194.64 112.79 208.08 115.14 224.52 115.14H247.06" stroke="#6FAFAC" stroke-width="0.99" stroke-linecap="round" stroke-linejoin="round"/>
<path d="M195.75 146.57C195.75 147.19 195.25 147.68 194.64 147.68C194.03 147.68 193.53 147.18 193.53 146.57C193.53 145.96 194.03 145.46 194.64 145.46C195.25 145.46 195.75 145.96 195.75 146.57Z" fill="#6FAFAC"/>
<path d="M197.95 146.63V125.76C197.95 112.79 211.39 115.87 227.83 115.87H247.06" stroke="#6FAFAC" stroke-width="0.99" stroke-linecap="round" stroke-linejoin="round"/>
<path d="M199.06 146.57C199.06 147.19 198.56 147.68 197.95 147.68C197.34 147.68 196.84 147.18 196.84 146.57C196.84 145.96 197.34 145.46 197.95 145.46C198.56 145.46 199.06 145.96 199.06 146.57Z" fill="#6FAFAC"/>
<path d="M191.33 146.63V125.76C191.33 112.79 204.77 115.14 221.21 115.14H247.06" stroke="#6FAFAC" stroke-width="0.99" stroke-linecap="round" stroke-linejoin="round"/>
<path d="M192.44 146.57C192.44 147.19 191.94 147.68 191.33 147.68C190.72 147.68 190.22 147.18 190.22 146.57C190.22 145.96 190.72 145.46 191.33 145.46C191.94 145.46 192.44 145.96 192.44 146.57Z" fill="#6FAFAC"/>
<path d="M244.45 140.14H212.69V151.43H244.45V140.14Z" fill="#003834"/>
<path d="M217.41 145.78H239.73" stroke="#6FAFAC" stroke-width="0.99" stroke-linecap="round" stroke-linejoin="round"/>
<path d="M246.39 176.82H148.42C146.912 176.82 145.69 178.042 145.69 179.55V205.82C145.69 207.328 146.912 208.55 148.42 208.55H246.39C247.898 208.55 249.12 207.328 249.12 205.82V179.55C249.12 178.042 247.898 176.82 246.39 176.82Z" fill="#006E69"/>
<path d="M244.45 187.04H212.69V198.33H244.45V187.04Z" fill="#003834"/>
<path d="M217.41 192.69H239.73" stroke="#6FAFAC" stroke-width="0.99" stroke-linecap="round" stroke-linejoin="round"/>
<path d="M178.64 196.5H155.76C153.65 196.5 151.95 194.79 151.95 192.69C151.95 190.59 153.66 188.88 155.76 188.88H178.64C180.75 188.88 182.45 190.59 182.45 192.69C182.45 194.79 180.74 196.5 178.64 196.5Z" fill="#AECC53"/>
<path d="M197.71 196.5H191.35C189.24 196.5 187.54 194.79 187.54 192.69C187.54 190.59 189.25 188.88 191.35 188.88H197.71C199.82 188.88 201.52 190.59 201.52 192.69C201.52 194.79 199.81 196.5 197.71 196.5Z" stroke="#6FAFAC" stroke-width="1.09" stroke-linecap="round" stroke-linejoin="round"/>
<path d="M194.64 192.22V169.66C194.64 153.13 208.08 155.8 224.52 155.8H231.71C234.32 155.8 236.94 155.78 239.55 155.8C243.05 155.83 246.7 155.17 247.06 150.78V115.46" stroke="#6FAFAC" stroke-width="0.99" stroke-linecap="round" stroke-linejoin="round"/>
<path d="M195.75 192.17C195.75 192.79 195.25 193.28 194.64 193.28C194.03 193.28 193.53 192.78 193.53 192.17C193.53 191.56 194.03 191.06 194.64 191.06C195.25 191.06 195.75 191.56 195.75 192.17Z" fill="#6FAFAC"/>
<path d="M248.17 115.52C248.17 114.9 247.67 114.41 247.06 114.41C246.45 114.41 245.95 114.91 245.95 115.52C245.95 116.13 246.45 116.63 247.06 116.63C247.67 116.63 248.17 116.13 248.17 115.52Z" fill="#6FAFAC"/>
<path d="M197.95 192.22V169.66C197.95 153.13 211.39 155.8 227.83 155.8H240.6" stroke="#6FAFAC" stroke-width="0.99" stroke-linecap="round" stroke-linejoin="round"/>
<path d="M199.06 192.17C199.06 192.79 198.56 193.28 197.95 193.28C197.34 193.28 196.84 192.78 196.84 192.17C196.84 191.56 197.34 191.06 197.95 191.06C198.56 191.06 199.06 191.56 199.06 192.17Z" fill="#6FAFAC"/>
<path d="M240.54 156.92C241.16 156.92 241.65 156.42 241.65 155.81C241.65 155.2 241.15 154.7 240.54 154.7C239.93 154.7 239.43 155.2 239.43 155.81C239.43 156.42 239.93 156.92 240.54 156.92Z" fill="#6FAFAC"/>
<path d="M191.33 192.22V169.66C191.33 153.13 204.77 155.8 221.21 155.8H240.6" stroke="#6FAFAC" stroke-width="0.99" stroke-linecap="round" stroke-linejoin="round"/>
<path d="M192.44 192.17C192.44 192.79 191.94 193.28 191.33 193.28C190.72 193.28 190.22 192.78 190.22 192.17C190.22 191.56 190.72 191.06 191.33 191.06C191.94 191.06 192.44 191.56 192.44 192.17Z" fill="#6FAFAC"/>
<path d="M240.54 156.92C241.16 156.92 241.65 156.42 241.65 155.81C241.65 155.2 241.15 154.7 240.54 154.7C239.93 154.7 239.43 155.2 239.43 155.81C239.43 156.42 239.93 156.92 240.54 156.92Z" fill="#6FAFAC"/>
<path d="M246.39 223.73H148.42C146.912 223.73 145.69 224.952 145.69 226.46V252.73C145.69 254.238 146.912 255.46 148.42 255.46H246.39C247.898 255.46 249.12 254.238 249.12 252.73V226.46C249.12 224.952 247.898 223.73 246.39 223.73Z" fill="#006E69"/>
<path d="M244.45 233.94H212.69V245.23H244.45V233.94Z" fill="#003834"/>
<path d="M217.41 239.59H239.73" stroke="#6FAFAC" stroke-width="0.99" stroke-linecap="round" stroke-linejoin="round"/>
<path d="M178.64 243.4H155.76C153.65 243.4 151.95 241.69 151.95 239.59C151.95 237.49 153.66 235.78 155.76 235.78H178.64C180.75 235.78 182.45 237.49 182.45 239.59C182.45 241.69 180.74 243.4 178.64 243.4Z" fill="#AECC53"/>
<path d="M197.71 243.4H191.35C189.24 243.4 187.54 241.69 187.54 239.59C187.54 237.49 189.25 235.78 191.35 235.78H197.71C199.82 235.78 201.52 237.49 201.52 239.59C201.52 241.69 199.81 243.4 197.71 243.4Z" stroke="#6FAFAC" stroke-width="1.09" stroke-linecap="round" stroke-linejoin="round"/>
<path d="M246.39 270.63H148.42C146.912 270.63 145.69 271.852 145.69 273.36V299.63C145.69 301.138 146.912 302.36 148.42 302.36H246.39C247.898 302.36 249.12 301.138 249.12 299.63V273.36C249.12 271.852 247.898 270.63 246.39 270.63Z" fill="#006E69"/>
<path d="M244.45 280.85H212.69V292.14H244.45V280.85Z" fill="#003834"/>
<path d="M217.41 286.49H239.73" stroke="#6FAFAC" stroke-width="0.99" stroke-linecap="round" stroke-linejoin="round"/>
<path d="M197.71 290.31H191.35C189.24 290.31 187.54 288.6 187.54 286.5C187.54 284.4 189.25 282.69 191.35 282.69H197.71C199.82 282.69 201.52 284.4 201.52 286.5C201.52 288.6 199.81 290.31 197.71 290.31Z" stroke="#6FAFAC" stroke-width="1.09" stroke-linecap="round" stroke-linejoin="round"/>
<path d="M194.64 238.99V216.57C194.64 200.04 208.08 202.71 224.52 202.71H231.71C234.32 202.71 236.94 202.69 239.55 202.71C243.05 202.74 246.7 202.08 247.06 197.69V165.06" stroke="#6FAFAC" stroke-width="1.12" stroke-linecap="round" stroke-linejoin="round"/>
<path d="M195.9 238.93C195.9 239.62 195.34 240.19 194.64 240.19C193.94 240.19 193.38 239.63 193.38 238.93C193.38 238.23 193.94 237.67 194.64 237.67C195.34 237.67 195.9 238.23 195.9 238.93Z" fill="#6FAFAC"/>
<path d="M248.31 165.12C248.31 164.43 247.75 163.86 247.05 163.86C246.35 163.86 245.79 164.42 245.79 165.12C245.79 165.82 246.35 166.38 247.05 166.38C247.75 166.38 248.31 165.82 248.31 165.12Z" fill="#6FAFAC"/>
<path d="M197.95 238.99V216.57C197.95 200.04 211.39 202.71 227.83 202.71H240.47" stroke="#6FAFAC" stroke-width="1.12" stroke-linecap="round" stroke-linejoin="round"/>
<path d="M199.21 238.93C199.21 239.62 198.65 240.19 197.95 240.19C197.25 240.19 196.69 239.63 196.69 238.93C196.69 238.23 197.25 237.67 197.95 237.67C198.65 237.67 199.21 238.23 199.21 238.93Z" fill="#6FAFAC"/>
<path d="M240.4 203.97C241.09 203.97 241.66 203.41 241.66 202.71C241.66 202.01 241.1 201.45 240.4 201.45C239.7 201.45 239.14 202.01 239.14 202.71C239.14 203.41 239.7 203.97 240.4 203.97Z" fill="#6FAFAC"/>
<path d="M191.33 238.99V216.57C191.33 200.04 204.77 202.71 221.21 202.71H240.47" stroke="#6FAFAC" stroke-width="1.12" stroke-linecap="round" stroke-linejoin="round"/>
<path d="M192.59 238.93C192.59 239.62 192.03 240.19 191.33 240.19C190.63 240.19 190.07 239.63 190.07 238.93C190.07 238.23 190.63 237.67 191.33 237.67C192.03 237.67 192.59 238.23 192.59 238.93Z" fill="#6FAFAC"/>
<path d="M240.4 203.97C241.09 203.97 241.66 203.41 241.66 202.71C241.66 202.01 241.1 201.45 240.4 201.45C239.7 201.45 239.14 202.01 239.14 202.71C239.14 203.41 239.7 203.97 240.4 203.97Z" fill="#6FAFAC"/>
<path d="M194.64 286.03V263.47C194.64 246.94 208.08 249.61 224.52 249.61H231.71C234.32 249.61 236.94 249.59 239.55 249.61C243.05 249.64 246.7 248.98 247.06 244.59V211.82" stroke="#6FAFAC" stroke-width="0.99" stroke-linecap="round" stroke-linejoin="round"/>
<path d="M195.75 285.98C195.75 286.6 195.25 287.09 194.64 287.09C194.03 287.09 193.53 286.59 193.53 285.98C193.53 285.37 194.03 284.87 194.64 284.87C195.25 284.87 195.75 285.37 195.75 285.98Z" fill="#6FAFAC"/>
<path d="M248.17 211.88C248.17 211.26 247.67 210.77 247.06 210.77C246.45 210.77 245.95 211.27 245.95 211.88C245.95 212.49 246.45 212.99 247.06 212.99C247.67 212.99 248.17 212.49 248.17 211.88Z" fill="#6FAFAC"/>
<path d="M197.95 286.03V263.47C197.95 246.94 211.39 249.61 227.83 249.61H240.6" stroke="#6FAFAC" stroke-width="0.99" stroke-linecap="round" stroke-linejoin="round"/>
<path d="M199.06 285.98C199.06 286.6 198.56 287.09 197.95 287.09C197.34 287.09 196.84 286.59 196.84 285.98C196.84 285.37 197.34 284.87 197.95 284.87C198.56 284.87 199.06 285.37 199.06 285.98Z" fill="#6FAFAC"/>
<path d="M240.54 250.73C241.16 250.73 241.65 250.23 241.65 249.62C241.65 249.01 241.15 248.51 240.54 248.51C239.93 248.51 239.43 249.01 239.43 249.62C239.43 250.23 239.93 250.73 240.54 250.73Z" fill="#6FAFAC"/>
<path d="M191.33 286.03V263.47C191.33 246.94 204.77 249.61 221.21 249.61H240.6" stroke="#6FAFAC" stroke-width="0.99" stroke-linecap="round" stroke-linejoin="round"/>
<path d="M192.44 285.98C192.44 286.6 191.94 287.09 191.33 287.09C190.72 287.09 190.22 286.59 190.22 285.98C190.22 285.37 190.72 284.87 191.33 284.87C191.94 284.87 192.44 285.37 192.44 285.98Z" fill="#6FAFAC"/>
<path d="M240.54 250.73C241.16 250.73 241.65 250.23 241.65 249.62C241.65 249.01 241.15 248.51 240.54 248.51C239.93 248.51 239.43 249.01 239.43 249.62C239.43 250.23 239.93 250.73 240.54 250.73Z" fill="#6FAFAC"/>
<path d="M225.71 296.51C227.71 296.51 229.7 296.51 231.7 296.51C234.31 296.51 236.93 296.49 239.54 296.51C243.04 296.54 246.69 295.88 247.05 291.49V258.86" stroke="#6FAFAC" stroke-width="1.12" stroke-linecap="round" stroke-linejoin="round"/>
<path d="M225.77 297.77C225.08 297.77 224.51 297.21 224.51 296.51C224.51 295.81 225.07 295.25 225.77 295.25C226.47 295.25 227.03 295.81 227.03 296.51C227.03 297.21 226.47 297.77 225.77 297.77Z" fill="#6FAFAC"/>
<path d="M248.31 258.92C248.31 258.23 247.75 257.66 247.05 257.66C246.35 257.66 245.79 258.22 245.79 258.92C245.79 259.62 246.35 260.18 247.05 260.18C247.75 260.18 248.31 259.62 248.31 258.92Z" fill="#6FAFAC"/>
<path d="M229.02 296.51H240.46" stroke="#6FAFAC" stroke-width="1.12" stroke-linecap="round" stroke-linejoin="round"/>
<path d="M229.08 297.77C228.39 297.77 227.82 297.21 227.82 296.51C227.82 295.81 228.38 295.25 229.08 295.25C229.78 295.25 230.34 295.81 230.34 296.51C230.34 297.21 229.78 297.77 229.08 297.77Z" fill="#6FAFAC"/>
<path d="M240.4 297.77C241.09 297.77 241.66 297.21 241.66 296.51C241.66 295.81 241.1 295.25 240.4 295.25C239.7 295.25 239.14 295.81 239.14 296.51C239.14 297.21 239.7 297.77 240.4 297.77Z" fill="#6FAFAC"/>
<path d="M222.4 296.51H240.46" stroke="#6FAFAC" stroke-width="1.12" stroke-linecap="round" stroke-linejoin="round"/>
<path d="M222.46 297.77C221.77 297.77 221.2 297.21 221.2 296.51C221.2 295.81 221.76 295.25 222.46 295.25C223.16 295.25 223.72 295.81 223.72 296.51C223.72 297.21 223.16 297.77 222.46 297.77Z" fill="#6FAFAC"/>
<path d="M240.4 297.77C241.09 297.77 241.66 297.21 241.66 296.51C241.66 295.81 241.1 295.25 240.4 295.25C239.7 295.25 239.14 295.81 239.14 296.51C239.14 297.21 239.7 297.77 240.4 297.77Z" fill="#6FAFAC"/>
<path d="M8.91003 315.8V213.83L124.68 213.53V315.8H8.91003Z" fill="#003834"/>
<path d="M123.86 214.35V314.97H9.74003V214.64L123.86 214.35ZM125.51 212.7L8.09003 213V316.62H125.51V212.7Z" fill="#6FAFAC"/>
<path d="M125.51 201.91H8.09003V215.52H125.51V201.91Z" fill="#AECC53"/>
<path d="M120.942 206.428L119.514 205L113.44 211.074L114.868 212.502L120.942 206.428Z" fill="#003834"/>
<path d="M119.512 212.502L120.94 211.074L114.866 205L113.438 206.428L119.512 212.502Z" fill="#003834"/>
<path d="M104.79 206.13V211.56H98.68V206.13H104.79ZM105.73 205.19H97.75V212.49H105.73V205.19Z" fill="#003834"/>
<path d="M90.01 210.89H82.03V212.5H90.01V210.89Z" fill="#003834"/>
<path d="M56.21 245.19C56.21 251.04 60.95 255.78 66.8 255.78C72.65 255.78 77.39 251.04 77.39 245.19C77.39 241.24 72.57 232.52 69.43 227.28C68.24 225.29 65.36 225.29 64.17 227.28C61.03 232.53 56.21 241.25 56.21 245.19Z" stroke="#AECC53" stroke-width="1.76" stroke-linecap="round" stroke-linejoin="round"/>
<path d="M66.79 239.65V261.22" stroke="#AECC53" stroke-width="1.76" stroke-linecap="round" stroke-linejoin="round"/>
<path d="M64.15 239.78C64.15 238.32 65.33 237.14 66.79 237.14C68.25 237.14 69.43 238.32 69.43 239.78C69.43 241.24 68.25 242.42 66.79 242.42C65.33 242.42 64.15 241.24 64.15 239.78Z" fill="#AECC53"/>
<path d="M48.5601 239.5L38.4901 246.93L48.5601 254.36" stroke="#AECC53" stroke-width="1.76" stroke-linecap="round" stroke-linejoin="round"/>
<path d="M85.03 239.5L95.1 246.93L85.03 254.36" stroke="#AECC53" stroke-width="1.76" stroke-linecap="round" stroke-linejoin="round"/>
<path d="M82.8 273.92H94.79" stroke="#AECC53" stroke-width="1.76" stroke-linecap="round" stroke-linejoin="round"/>
<path d="M55.08 273.92H77.05" stroke="#AECC53" stroke-width="1.76" stroke-linecap="round" stroke-linejoin="round"/>
<path d="M38.8 273.92H48.5401" stroke="#AECC53" stroke-width="1.76" stroke-linecap="round" stroke-linejoin="round"/>
<path d="M85.32 286.61H94.79" stroke="#AECC53" stroke-width="1.76" stroke-linecap="round" stroke-linejoin="round"/>
<path d="M38.8 286.61H47.94" stroke="#AECC53" stroke-width="1.76" stroke-linecap="round" stroke-linejoin="round"/>
<path d="M52.1 286.61H81.49" stroke="#AECC53" stroke-width="1.76" stroke-linecap="round" stroke-linejoin="round"/>
<path d="M71.61 299.31H94.79" stroke="#AECC53" stroke-width="1.76" stroke-linecap="round" stroke-linejoin="round"/>
<path d="M38.8 299.31H61.3101" stroke="#AECC53" stroke-width="1.76" stroke-linecap="round" stroke-linejoin="round"/>
<path d="M55.0701 378.8V276.83L170.83 276.53V378.8H55.0701Z" fill="#003834"/>
<path d="M170.01 277.35V377.97H55.89V277.64L170.01 277.35ZM171.66 275.7L54.2401 276V379.62H171.66V275.7Z" fill="#6FAFAC"/>
<path d="M65.09 332.32V359.84H73.43V332.32H65.09Z" fill="#6FAFAC"/>
<path d="M108.78 295.48V359.84H117.12V295.48H108.78Z" fill="#338A86"/>
<path d="M79.66 316.45V359.84H88V316.45H79.66Z" fill="#338A86"/>
<path d="M94.22 308.49V359.85H102.56V308.49H94.22Z" fill="#6FAFAC"/>
<path d="M152.46 332.33V359.85H160.8V332.33H152.46Z" fill="#6FAFAC"/>
<path d="M137.9 316.46V359.85H146.24V316.46H137.9Z" fill="#338A86"/>
<path d="M123.35 308.49V359.85H131.69V308.49H123.35Z" fill="#6FAFAC"/>
<path d="M171.66 264.91H54.2401V278.52H171.66V264.91Z" fill="#AECC53"/>
<path d="M167.087 269.419L165.659 267.99L159.585 274.064L161.013 275.493L167.087 269.419Z" fill="#003834"/>
<path d="M165.661 275.497L167.09 274.069L161.016 267.995L159.587 269.423L165.661 275.497Z" fill="#003834"/>
<path d="M150.94 269.13V274.56H144.83V269.13H150.94ZM151.88 268.19H143.9V275.49H151.88V268.19Z" fill="#003834"/>
<path d="M136.16 273.89H128.18V275.5H136.16V273.89Z" fill="#003834"/>
<path d="M183.25 72L207 32.81C208.17 30.88 210.97 30.88 212.15 32.81L235.9 72C237.12 74 235.67 76.57 233.33 76.57H185.82C183.48 76.57 182.03 74.01 183.25 72Z" fill="#6FAFAC"/>
<path d="M212.86 45.43L207.08 59.49L204.79 57.33L213.33 56.93L216.12 56.8C215.47 57.77 206.71 70.9 205.79 72.28L212.3 57.62L213.67 59.63L205.3 61.37L203.03 61.84C203.03 60.39 206.63 46.83 206.62 45.01L209.1 45.42H212.87L212.86 45.43Z" fill="#003834"/>
<path d="M84.03 166.32C98.4226 166.32 110.09 154.653 110.09 140.26C110.09 125.867 98.4226 114.2 84.03 114.2C69.6375 114.2 57.97 125.867 57.97 140.26C57.97 154.653 69.6375 166.32 84.03 166.32Z" fill="#6FAFAC"/>
<path d="M96.34 145.05C96.34 151.85 90.83 157.36 84.03 157.36C77.23 157.36 71.72 151.85 71.72 145.05C71.72 138.25 84.03 123.15 84.03 123.15C84.03 123.15 96.34 138.25 96.34 145.05Z" fill="#003834"/>
<path d="M74.93 141.75C77.09 136.89 80.11 132.5 83.07 128.11C81.75 130.39 80.48 132.7 79.29 135.04C78.12 137.36 76.95 139.74 76.13 142.19C75.84 143.02 74.62 142.57 74.93 141.75Z" fill="#AFD3D0"/>
<path d="M78.5001 153.02C78.3801 153.02 78.2601 152.99 78.1601 152.92C75.4701 151.2 73.9401 148.16 74.1701 144.98C74.1901 144.63 74.5001 144.36 74.8501 144.39C75.2001 144.41 75.4701 144.72 75.4401 145.07C75.2501 147.79 76.5501 150.38 78.8501 151.84C79.1501 152.03 79.2301 152.43 79.0401 152.72C78.9201 152.91 78.7101 153.01 78.5001 153.01V153.02Z" fill="#AFD3D0"/>
<path d="M336.03 281.32C350.423 281.32 362.09 269.653 362.09 255.26C362.09 240.867 350.423 229.2 336.03 229.2C321.637 229.2 309.97 240.867 309.97 255.26C309.97 269.653 321.637 281.32 336.03 281.32Z" fill="#6FAFAC"/>
<path d="M322.23 257.74C322.32 257.4 322.63 257.17 322.97 257.17C323.03 257.17 323.1 257.17 323.16 257.19L328.83 258.64L334.53 255.27H337.52L343.22 258.64L348.89 257.19C348.95 257.17 349.02 257.17 349.08 257.17C349.42 257.17 349.73 257.4 349.82 257.74C349.92 258.15 349.68 258.56 349.27 258.67L345.07 259.75L349.28 262.24C349.64 262.45 349.76 262.92 349.55 263.28C349.34 263.64 348.87 263.76 348.51 263.55L344.3 261.06L345.38 265.26C345.48 265.67 345.24 266.08 344.83 266.19C344.42 266.29 344.01 266.05 343.9 265.64L342.45 259.97L336.79 256.62V263.2L340.93 267.34C341.23 267.64 341.23 268.12 340.93 268.42C340.63 268.72 340.15 268.72 339.85 268.42L336.79 265.36V270.25C336.79 270.67 336.45 271.01 336.03 271.01C335.61 271.01 335.27 270.67 335.27 270.25V265.36L332.21 268.42C331.91 268.72 331.43 268.72 331.13 268.42C330.83 268.12 330.83 267.64 331.13 267.34L335.27 263.2V256.62L329.61 259.97L328.16 265.64C328.06 266.05 327.64 266.29 327.23 266.19C326.82 266.09 326.58 265.67 326.68 265.26L327.76 261.06L323.55 263.55C323.19 263.76 322.72 263.64 322.51 263.28C322.3 262.92 322.42 262.45 322.78 262.24L326.99 259.75L322.79 258.67C322.38 258.57 322.14 258.15 322.24 257.74H322.23Z" fill="#003834"/>
<path d="M322.23 252.77C322.32 253.11 322.63 253.34 322.97 253.34C323.03 253.34 323.1 253.34 323.16 253.32L328.83 251.87L334.53 255.24H337.52L343.22 251.87L348.89 253.32C348.95 253.34 349.02 253.34 349.08 253.34C349.42 253.34 349.73 253.11 349.82 252.77C349.92 252.36 349.68 251.95 349.27 251.84L345.07 250.76L349.28 248.27C349.64 248.06 349.76 247.59 349.55 247.23C349.34 246.87 348.87 246.75 348.51 246.96L344.3 249.45L345.38 245.25C345.48 244.84 345.24 244.43 344.83 244.32C344.42 244.22 344.01 244.46 343.9 244.87L342.45 250.54L336.79 253.89V247.31L340.93 243.17C341.23 242.87 341.23 242.39 340.93 242.09C340.63 241.79 340.15 241.79 339.85 242.09L336.79 245.15V240.26C336.79 239.84 336.45 239.5 336.03 239.5C335.61 239.5 335.27 239.84 335.27 240.26V245.15L332.21 242.09C331.91 241.79 331.43 241.79 331.13 242.09C330.83 242.39 330.83 242.87 331.13 243.17L335.27 247.31V253.89L329.61 250.54L328.16 244.87C328.06 244.46 327.64 244.22 327.23 244.32C326.82 244.42 326.58 244.84 326.68 245.25L327.76 249.45L323.55 246.96C323.19 246.75 322.72 246.87 322.51 247.23C322.3 247.59 322.42 248.06 322.78 248.27L326.99 250.76L322.79 251.84C322.38 251.94 322.14 252.36 322.24 252.77H322.23Z" fill="#003834"/>
<path d="M324.03 142.32C338.423 142.32 350.09 130.653 350.09 116.26C350.09 101.867 338.423 90.2 324.03 90.2C309.637 90.2 297.97 101.867 297.97 116.26C297.97 130.653 309.637 142.32 324.03 142.32Z" fill="#6FAFAC"/>
<path d="M345.12 116.26C345.12 116.26 335.68 129.73 324.03 129.73C312.38 129.73 302.94 116.26 302.94 116.26C302.94 116.26 312.38 102.79 324.03 102.79C335.68 102.79 345.12 116.26 345.12 116.26Z" stroke="#003834" stroke-miterlimit="10"/>
<path d="M324.03 127.51C330.315 127.51 335.41 122.415 335.41 116.13C335.41 109.845 330.315 104.75 324.03 104.75C317.745 104.75 312.65 109.845 312.65 116.13C312.65 122.415 317.745 127.51 324.03 127.51Z" fill="#003834"/>
<path d="M324.03 120.82C326.62 120.82 328.72 118.72 328.72 116.13C328.72 113.54 326.62 111.44 324.03 111.44C321.44 111.44 319.34 113.54 319.34 116.13C319.34 118.72 321.44 120.82 324.03 120.82Z" fill="#6FAFAC"/>
</svg>
