<?xml version="1.0" encoding="UTF-8"?>
<svg id="text" xmlns="http://www.w3.org/2000/svg" xmlns:xlink="http://www.w3.org/1999/xlink" version="1.1" viewBox="0 0 50 50">
  <!-- Generator: Adobe Illustrator 30.3.0, SVG Export Plug-In . SVG Version: 2.1.3 Build 182)  -->
  <defs>
    <style>
      .st0 {
        fill: url(#linear-gradient2);
      }

      .st1 {
        fill: url(#linear-gradient1);
      }

      .st2 {
        fill: url(#linear-gradient);
      }

      .st3 {
        fill: #003834;
      }
    </style>
    <linearGradient id="linear-gradient" x1="2.16" y1="13.13" x2="32.34" y2="13.13" gradientUnits="userSpaceOnUse">
      <stop offset="0" stop-color="#6fafac"/>
      <stop offset=".32" stop-color="#479793"/>
      <stop offset=".78" stop-color="#137874"/>
      <stop offset="1" stop-color="#006d68"/>
    </linearGradient>
    <linearGradient id="linear-gradient1" x1="17.25" y1="49.88" x2="17.25" y2="20.88" gradientUnits="userSpaceOnUse">
      <stop offset="0" stop-color="#cee098"/>
      <stop offset=".08" stop-color="#bdd696"/>
      <stop offset=".4" stop-color="#82b58f"/>
      <stop offset=".67" stop-color="#579e8a"/>
      <stop offset=".88" stop-color="#3c8f87"/>
      <stop offset="1" stop-color="#338a86"/>
    </linearGradient>
    <linearGradient id="linear-gradient2" x1="39" y1="45" x2="39" y2="32.27" gradientUnits="userSpaceOnUse">
      <stop offset="0" stop-color="#cee098"/>
      <stop offset=".13" stop-color="#c7dc97"/>
      <stop offset=".3" stop-color="#b6d295"/>
      <stop offset=".5" stop-color="#99c291"/>
      <stop offset=".72" stop-color="#70ac8d"/>
      <stop offset=".95" stop-color="#3d8f87"/>
      <stop offset="1" stop-color="#338a86"/>
    </linearGradient>
  </defs>
  <path class="st2" d="M29.34,26.15c-1.66,0-3-1.34-3-3v-7.95c0-5.01-4.08-9.09-9.09-9.09s-9.09,4.08-9.09,9.09H2.16C2.16,6.89,8.93.12,17.25.12s15.09,6.77,15.09,15.09v7.95c0,1.66-1.34,3-3,3Z"/>
  <path class="st1" d="M-.25,20.88v11.5c0,9.67,7.84,17.5,17.5,17.5s17.5-7.83,17.5-17.5v-11.5H-.25ZM19.25,35.46l2,7.42h-8l2-7.42c-1.76-.77-3-2.53-3-4.58,0-2.76,2.24-5,5-5s5,2.24,5,5c0,2.05-1.24,3.81-3,4.58Z"/>
  <circle class="st3" cx="39" cy="38.63" r="11.25"/>
  <path class="st0" d="M38.81,45c-.47,0-.92-.16-1.29-.47l-5.26-4.42c-.85-.71-.96-1.97-.25-2.82.71-.85,1.97-.96,2.82-.25l3.53,2.96,4.42-6.83c.6-.93,1.84-1.19,2.77-.59.93.6,1.19,1.84.59,2.77l-5.65,8.74c-.31.48-.82.81-1.38.89-.1.02-.2.02-.3.02Z"/>
</svg>