<?xml version="1.0" encoding="UTF-8"?>
<svg id="text" xmlns="http://www.w3.org/2000/svg" xmlns:xlink="http://www.w3.org/1999/xlink" version="1.1" viewBox="0 0 50 50">
  <!-- Generator: Adobe Illustrator 30.3.0, SVG Export Plug-In . SVG Version: 2.1.3 Build 182)  -->
  <defs>
    <style>
      .st0 {
        fill: url(#linear-gradient2);
      }

      .st1 {
        fill: url(#linear-gradient3);
      }

      .st2 {
        fill: url(#linear-gradient);
      }

      .st3 {
        fill: none;
        stroke: url(#linear-gradient1);
        stroke-miterlimit: 10;
        stroke-width: 3px;
      }

      .st4 {
        fill: #00524f;
      }
    </style>
    <linearGradient id="linear-gradient" x1="25" y1="55" x2="25" y2="29.61" gradientUnits="userSpaceOnUse">
      <stop offset="0" stop-color="#338a86"/>
      <stop offset=".12" stop-color="#3c8f87"/>
      <stop offset=".33" stop-color="#579e8a"/>
      <stop offset=".6" stop-color="#82b58f"/>
      <stop offset=".92" stop-color="#bdd696"/>
      <stop offset="1" stop-color="#cee098"/>
    </linearGradient>
    <linearGradient id="linear-gradient1" y1="37.4" y2="10.13" gradientTransform="translate(10.84 -7.69) rotate(22.22)" xlink:href="#linear-gradient"/>
    <linearGradient id="linear-gradient2" x1="-3788.03" y1="1243.94" x2="-3788.03" y2="1222.31" gradientTransform="translate(-3763 1244) rotate(-180)" gradientUnits="userSpaceOnUse">
      <stop offset="0" stop-color="#6fafac"/>
      <stop offset=".32" stop-color="#479793"/>
      <stop offset=".78" stop-color="#137874"/>
      <stop offset="1" stop-color="#006d68"/>
    </linearGradient>
    <linearGradient id="linear-gradient3" x1="-3782.48" y1="1243.51" x2="-3792.67" y2="1224.42" xlink:href="#linear-gradient2"/>
  </defs>
  <path class="st2" d="M41.01,40.62c0-8.84-7.17-16.01-16.01-16.01h0c-6.01,0-11.24,3.31-13.98,8.2-1.29,2.31-2.03,4.98-2.03,7.81l.18,6.06c1.1,1.88,7.76,3.32,15.84,3.32s14.74-1.45,15.84-3.32l.18-6.06Z"/>
  <ellipse class="st3" cx="25" cy="23.77" rx="24.66" ry="8.39" transform="translate(-7.13 11.22) rotate(-22.22)"/>
  <circle class="st0" cx="25.03" cy="10.87" r="10.82"/>
  <circle class="st1" cx="25.03" cy="10.87" r="10.82"/>
  <path class="st4" d="M31.5,2.19C28.5-.12,24.1-.72,20.4.95c-5.35,2.41-7.73,8.69-5.33,14.04.34.76.77,1.44,1.26,2.07.66.03,1.27-.13,1.87-.59.48-.37.91-.73,1.24-1.25.1-.16.59-1.6.62-1.61-2.56.58-2.75-3.59-1.78-5.04.58-.87,1.9-1.07,2.47-.06.14.25.29.5.53.66.49-.86.92-1.99,1.6-2.71,1.6-1.68,4.3-3.26,6.52-3.9.59-.17,1.49-.32,2.1-.36Z"/>
</svg>