<?xml version="1.0" encoding="UTF-8"?>
<svg id="text" xmlns="http://www.w3.org/2000/svg" xmlns:xlink="http://www.w3.org/1999/xlink" version="1.1" viewBox="0 0 50 50">
  <!-- Generator: Adobe Illustrator 30.3.0, SVG Export Plug-In . SVG Version: 2.1.3 Build 182)  -->
  <defs>
    <style>
      .st0 {
        fill: url(#linear-gradient1);
      }

      .st1 {
        fill: url(#linear-gradient);
      }
    </style>
    <linearGradient id="linear-gradient" x1="26.6" y1="22.07" x2="56.4" y2="51.87" gradientUnits="userSpaceOnUse">
      <stop offset="0" stop-color="#006d68"/>
      <stop offset="1" stop-color="#003834"/>
    </linearGradient>
    <linearGradient id="linear-gradient1" x1="2.18" y1="36.66" x2="31.92" y2="6.91" gradientUnits="userSpaceOnUse">
      <stop offset="0" stop-color="#338a86"/>
      <stop offset=".1" stop-color="#4e9989"/>
      <stop offset=".31" stop-color="#85b78f"/>
      <stop offset=".49" stop-color="#accd94"/>
      <stop offset=".63" stop-color="#c5db96"/>
      <stop offset=".72" stop-color="#cee098"/>
    </linearGradient>
  </defs>
  <path class="st1" d="M49.89,26.69c0-10.31-8.36-18.67-18.67-18.67S12.56,16.38,12.56,26.69s8.36,18.67,18.67,18.67c.73,0,1.44-.05,2.15-.13,2.01,2.87,5.79,4.11,9.2,2.78.35-.14.69-.3,1.01-.48-1.08-.84-1.96-1.97-2.49-3.33-.18-.47-.31-.94-.4-1.42,5.51-3.25,9.21-9.23,9.21-16.09Z"/>
  <path class="st0" d="M.11,20.09c0-10.29,8.34-18.63,18.63-18.63,10.29,0,18.63,8.34,18.63,18.63,0,10.29-8.34,18.63-18.63,18.63-.72,0-1.44-.05-2.14-.13-2.01,2.87-5.78,4.1-9.18,2.78-.35-.14-.69-.3-1-.48,1.08-.83,1.96-1.96,2.49-3.33.18-.47.31-.94.4-1.42C3.8,32.91.11,26.93.11,20.09Z"/>
</svg>