<?xml version="1.0" encoding="UTF-8"?>
<svg id="text" xmlns="http://www.w3.org/2000/svg" xmlns:xlink="http://www.w3.org/1999/xlink" version="1.1" viewBox="0 0 50 50">
  <!-- Generator: Adobe Illustrator 30.3.0, SVG Export Plug-In . SVG Version: 2.1.3 Build 182)  -->
  <defs>
    <style>
      .st0 {
        fill: url(#linear-gradient1);
      }

      .st1 {
        fill: none;
        stroke: url(#linear-gradient2);
        stroke-linecap: round;
        stroke-linejoin: round;
        stroke-width: 2.94px;
      }

      .st2 {
        fill: url(#linear-gradient);
      }
    </style>
    <linearGradient id="linear-gradient" x1="-78.57" y1="-102.49" x2="-62.26" y2="-102.49" gradientTransform="translate(66.75 151.5) rotate(6.94)" gradientUnits="userSpaceOnUse">
      <stop offset="0" stop-color="#6fafac"/>
      <stop offset=".32" stop-color="#479793"/>
      <stop offset=".78" stop-color="#137874"/>
      <stop offset="1" stop-color="#006d68"/>
    </linearGradient>
    <linearGradient id="linear-gradient1" x1="-74.56" y1="-124.69" x2="-32.71" y2="-124.69" xlink:href="#linear-gradient"/>
    <linearGradient id="linear-gradient2" x1="-65.53" y1="-128.11" x2="-41.75" y2="-128.11" gradientTransform="translate(66.75 151.5) rotate(6.94)" gradientUnits="userSpaceOnUse">
      <stop offset="0" stop-color="#338a86"/>
      <stop offset=".02" stop-color="#398d86"/>
      <stop offset=".19" stop-color="#66a68b"/>
      <stop offset=".35" stop-color="#8bbb90"/>
      <stop offset=".52" stop-color="#a8cb93"/>
      <stop offset=".68" stop-color="#bdd696"/>
      <stop offset=".84" stop-color="#c9dd97"/>
      <stop offset="1" stop-color="#cee098"/>
    </linearGradient>
  </defs>
  <path class="st2" d="M1.61,48.5h0c-1.5-1.55-1.47-4.04.08-5.55l10.67-10.38,5.47,5.62-10.67,10.38c-1.55,1.5-4.04,1.47-5.55-.08Z"/>
  <path class="st0" d="M26.04,42.01c-11.45-1.39-19.64-11.85-18.24-23.3C9.2,7.26,19.65-.92,31.1.47c11.45,1.39,19.64,11.85,18.24,23.3-1.39,11.45-11.85,19.64-23.3,18.24ZM30.4,6.24c-8.27-1.01-15.82,4.9-16.83,13.17-1.01,8.27,4.9,15.82,13.17,16.83,8.27,1.01,15.82-4.9,16.83-13.17s-4.9-15.82-13.17-16.83Z"/>
  <path class="st1" d="M18.23,19.98c.7-5.71,5.89-9.78,11.6-9.09s9.78,5.89,9.09,11.6c-.15,1.25-.52,2.42-1.06,3.48"/>
</svg>