<?xml version="1.0" encoding="UTF-8"?>
<svg id="text" xmlns="http://www.w3.org/2000/svg" xmlns:xlink="http://www.w3.org/1999/xlink" version="1.1" viewBox="0 0 50 50">
  <!-- Generator: Adobe Illustrator 30.3.0, SVG Export Plug-In . SVG Version: 2.1.3 Build 182)  -->
  <defs>
    <style>
      .st0 {
        fill: url(#linear-gradient2);
      }

      .st1 {
        fill: url(#linear-gradient1);
      }

      .st2 {
        fill: url(#linear-gradient3);
      }

      .st3 {
        fill: url(#linear-gradient);
      }
    </style>
    <linearGradient id="linear-gradient" x1="40.43" y1="46.24" x2="40.43" y2="2.75" gradientUnits="userSpaceOnUse">
      <stop offset="0" stop-color="#6fafac"/>
      <stop offset=".32" stop-color="#479793"/>
      <stop offset=".78" stop-color="#137874"/>
      <stop offset="1" stop-color="#006d68"/>
    </linearGradient>
    <linearGradient id="linear-gradient1" x1="9.57" y1="49.48" x2="9.57" y2="4.26" xlink:href="#linear-gradient"/>
    <linearGradient id="linear-gradient2" x1="22" y1="49.48" x2="22" y2="4.26" gradientTransform="translate(44 94) rotate(-180)" xlink:href="#linear-gradient"/>
    <linearGradient id="linear-gradient3" x1="22" y1="49.48" x2="22" y2="4.26" xlink:href="#linear-gradient"/>
  </defs>
  <path class="st3" d="M43.62,24.47V0h-6.38v6.38h-6.38v6.38h6.38v11.7h-6.38v25.53h19.15v-25.53h-6.38ZM43.62,37.5v6.12h-6.38v-12.77h6.38v6.65Z"/>
  <g>
    <path class="st1" d="M12.77,0H0v25.53h6.38v24.47h6.38v-6.38h6.38v-6.38h-6.38v-11.7h6.38V0h-6.38ZM12.77,13v6.15h-6.38V6.38h6.38v6.62Z"/>
    <rect class="st0" x="19" y="44" width="6" height="6" transform="translate(44 94) rotate(180)"/>
    <rect class="st2" x="19" y="31" width="6" height="6"/>
  </g>
</svg>