<?xml version="1.0" encoding="UTF-8"?>
<svg id="text" xmlns="http://www.w3.org/2000/svg" xmlns:xlink="http://www.w3.org/1999/xlink" version="1.1" viewBox="0 0 50 50">
  <!-- Generator: Adobe Illustrator 30.3.0, SVG Export Plug-In . SVG Version: 2.1.3 Build 182)  -->
  <defs>
    <style>
      .st0 {
        fill: url(#linear-gradient);
      }

      .st1 {
        fill: #fff;
      }
    </style>
    <linearGradient id="linear-gradient" x1="-3705.7" y1="7061.56" x2="-3705.7" y2="7011.56" gradientTransform="translate(-3680.7 7050.87) rotate(-180)" gradientUnits="userSpaceOnUse">
      <stop offset="0" stop-color="#6fafac"/>
      <stop offset=".32" stop-color="#479793"/>
      <stop offset=".78" stop-color="#137874"/>
      <stop offset="1" stop-color="#006d68"/>
    </linearGradient>
  </defs>
  <path class="st0" d="M50,25c0,13.78-11.22,25-25,25S0,38.78,0,25,11.22,0,25,0s25,11.22,25,25Z"/>
  <g>
    <path class="st1" d="M13.5,32.62v-7.92c0-.09-.02-.18-.07-.26l-.84-1.4.84-1.4c.05-.08.07-.17.07-.26v-7.92c0-.56.46-1.02,1.02-1.02h4.21v-1.01h-4.21c-1.12,0-2.03.91-2.03,2.03v7.79l-.92,1.54c-.09.16-.09.36,0,.52l.92,1.54v7.79c0,1.12.91,2.03,2.03,2.03h4.21v-1.01h-4.21c-.56,0-1.02-.46-1.02-1.02Z"/>
    <path class="st1" d="M37.51,21.24v-7.79c0-1.12-.91-2.03-2.03-2.03h-4.21v1.01h4.21c.56,0,1.02.46,1.02,1.02v7.92c0,.09.02.18.07.26l.84,1.4-.84,1.4c-.05.08-.07.17-.07.26v7.92c0,.56-.46,1.02-1.02,1.02h-4.21v1.01h4.21c1.12,0,2.03-.91,2.03-2.03v-7.79l.92-1.54c.09-.16.09-.36,0-.52,0,0-.92-1.54-.92-1.54Z"/>
    <path class="st1" d="M32.58,26.91c.65-.11,1.18-.64,1.26-1.33.08-.83-.52-1.57-1.35-1.66-.83-.08-1.57.52-1.66,1.35-.05.48.14.93.47,1.25-.95,2.3-3.11,3.93-5.62,4.18v-6.43c1.72-.21,3.25-1.2,4.17-2.65.72-.01,1.35-.54,1.46-1.28.13-.83-.44-1.6-1.27-1.73s-1.6.44-1.73,1.27c-.07.43.06.84.31,1.16-.67,1-1.74,1.69-2.94,1.88v-6.28c.5-.25.84-.76.84-1.35,0-.84-.68-1.51-1.51-1.51s-1.51.68-1.51,1.51c0,.59.35,1.1.84,1.35v6.28c-1.2-.19-2.27-.88-2.95-1.88.25-.32.37-.73.31-1.16-.13-.83-.9-1.39-1.73-1.27s-1.39.9-1.27,1.73c.11.74.74,1.27,1.46,1.28.91,1.45,2.45,2.45,4.17,2.66v6.43c-2.51-.25-4.67-1.88-5.62-4.18.33-.31.52-.76.47-1.25-.08-.83-.83-1.44-1.66-1.35s-1.44.83-1.35,1.66c.07.69.6,1.22,1.26,1.33,1.13,2.86,3.81,4.88,6.91,5.13v6.54h1.34v-6.54c3.1-.26,5.78-2.28,6.91-5.13Z"/>
  </g>
</svg>