<?xml version="1.0" encoding="UTF-8"?>
<svg id="text" xmlns="http://www.w3.org/2000/svg" xmlns:xlink="http://www.w3.org/1999/xlink" version="1.1" viewBox="0 0 50 50">
  <!-- Generator: Adobe Illustrator 30.3.0, SVG Export Plug-In . SVG Version: 2.1.3 Build 182)  -->
  <defs>
    <style>
      .st0, .st1 {
        fill: none;
      }

      .st2 {
        fill: url(#linear-gradient1);
      }

      .st3 {
        fill: url(#linear-gradient);
      }

      .st1 {
        stroke: #fff;
        stroke-linecap: round;
        stroke-linejoin: round;
        stroke-width: 3px;
      }
    </style>
    <linearGradient id="linear-gradient" x1="23" y1="55.84" x2="23" y2="9.84" gradientTransform="translate(0 0)" gradientUnits="userSpaceOnUse">
      <stop offset="0" stop-color="#338a86"/>
      <stop offset=".12" stop-color="#3c8f87"/>
      <stop offset=".33" stop-color="#579e8a"/>
      <stop offset=".6" stop-color="#82b58f"/>
      <stop offset=".92" stop-color="#bdd696"/>
      <stop offset="1" stop-color="#cee098"/>
    </linearGradient>
    <linearGradient id="linear-gradient1" x1="-4678.4" y1="1593.5" x2="-4652.4" y2="1593.5" gradientTransform="translate(1630.5 4699.5) rotate(90)" gradientUnits="userSpaceOnUse">
      <stop offset="0" stop-color="#006d68"/>
      <stop offset="1" stop-color="#003834"/>
    </linearGradient>
  </defs>
  <rect class="st0" y="0" width="50" height="50"/>
  <path class="st3" d="M0,23C0,10.32,10.32,0,23,0c12.68,0,23,10.32,23,23,0,12.68-10.32,23-23,23C10.32,46,0,35.68,0,23Z"/>
  <path class="st2" d="M37,24c7.17,0,13,5.83,13,13s-5.83,13-13,13-13-5.83-13-13c0-7.17,5.83-13,13-13Z"/>
  <line class="st1" x1="37" y1="37" x2="37" y2="27.5"/>
  <line class="st1" x1="37" y1="37" x2="42.5" y2="40.5"/>
</svg>