<svg xmlns="http://www.w3.org/2000/svg" width="50" height="50" fill="none" viewBox="0 0 50 50"><path fill="#a7c553" d="M35.111 41.534h1.97a2.4 2.4 0 0 0 2.39-2.39 2.4 2.4 0 0 0-2.39-2.39h-1.97v-8.449h-9.289v1.83a2.4 2.4 0 0 1-2.39 2.39 2.4 2.4 0 0 1-2.39-2.39v-1.83h-9.57v7.503c.193 0 .377 0 .57.053.236.008.455.07.674.149q.024.002.061.017c.131 0 .271-.017.403-.026a3 3 0 0 1 1.366.035c.236.096.481.201.717.306a2.9 2.9 0 0 1 1.077 1.077c.105.236.202.482.307.718.122.403.14.797.052 1.2a2.26 2.26 0 0 1-.359 1.12c-.192.35-.446.63-.77.84-.29.263-.63.447-1.024.535q-.646.104-1.305.183a4 4 0 0 1-.56.035c-.403 0-.806-.06-1.2-.14V50h23.63z"/><path fill="#006d68" d="M25.76 28.007h8.45v-9.289h1.97a2.4 2.4 0 0 0 2.39-2.39 2.4 2.4 0 0 0-2.39-2.39h-1.97V4.36h-8.45V2.39A2.4 2.4 0 0 0 23.37 0a2.4 2.4 0 0 0-2.39 2.39v1.97h-8.448v10.26c1.76-.594 4.097.307 4.097 2.724 0 2.416-2.337 3.318-4.097 2.723v7.95h8.448v1.969a2.4 2.4 0 0 0 2.39 2.39 2.4 2.4 0 0 0 2.39-2.39z"/></svg>