<svg xmlns="http://www.w3.org/2000/svg" width="497" height="987" fill="none" viewBox="0 0 497 987"><g stroke="#adcb53" stroke-miterlimit="10" clip-path="url(#a)" opacity=".5"><path d="M680.66 696.91c-42.807-.33-85.669-18.838-116.335-49.603s-48.322-73.963-48.407-116.542c.054-15.887 2.402-31.799-1.788-47.309-3.565-12.733-11.155-23.947-17.138-35.834-22.074-42.982-22.975-95.706-1.883-137.708 26.487-52.545 98.048-95.123 159.509-81.905"/><path d="M612.814 826.419c-70.319.312-139.293-53.108-157.353-121.684-8.882-34.618-6.217-71.169-15.754-105.779-10.695-38.2-35.884-70.993-52.382-107.161-28.232-61.91-29.44-134.61-3.364-195.666s79.017-108.99 142.147-129.2c9.957 2.507 8.617 5.306 18.353 3.23 22.376-5.169 46.801-1.845 67.656 9.053"/><path d="M538.565 938.487c-44.594 13.611-94.907-16.603-119.835-57.588s-30.712-89.559-35.917-136.337c-4.359-39.419-3.103-84.797-15.904-122.481-12.223-35.89-38.722-68.669-56.406-102.203-50.143-94.741-65.872-210.182-24.239-305.644 41.633-95.461 146.592-162.823 251.237-144.857"/></g><defs><clipPath id="a"><path fill="#fff" d="M.422 494.924 522.36 986.656l465.726-494.333L466.148.59z"/></clipPath></defs></svg>