<svg width="325" height="508" viewBox="0 0 325 508" fill="none" xmlns="http://www.w3.org/2000/svg">
<g opacity="0.5" clip-path="url(#clip0_6146_22916)">
<path d="M447.968 -268.729C423.403 -275.309 390.621 -268.629 367.554 -259.741C334.631 -247.008 303.778 -219.155 294.46 -184.972C282.979 -142.463 259.107 -129.474 226.752 -102.801C201.429 -81.8662 180.344 -56.0234 166.637 -26.134C115.412 86.0019 149.442 202.115 226.948 291.34C252.716 321 280.758 348.545 307.206 377.688C327.079 399.627 363.967 429.071 361.99 460.781" stroke="#ADCB53" stroke-miterlimit="10"/>
<path d="M518.315 112.455C497.196 92.6861 472.348 76.5964 454.392 68.1454C413.28 48.803 345.859 42.5702 308.828 73.8638C261.515 113.813 273.127 175.205 308.727 219.667C335.567 253.071 376.699 263.923 419.462 263.161C457.178 262.535 497.349 255.185 529.213 233.991C544.832 223.61 559.604 208.563 560.764 189.804C562.463 163.234 542.849 135.434 518.315 112.455Z" stroke="#ADCB53" stroke-miterlimit="10"/>
<path d="M408.741 311.227C459.622 315.213 520.328 306.949 564.354 279.935C582.285 268.881 605.17 248.068 606.468 225.143C612.537 113.445 491.195 -11.8345 381.577 -14.8238C321.077 -16.4706 258.937 9.67174 232.399 66.9299C212.363 110.085 210.769 162.233 231.044 205.331C261.768 270.704 336.591 305.565 408.741 311.227Z" stroke="#ADCB53" stroke-miterlimit="10"/>
</g>
<defs>
<clipPath id="clip0_6146_22916">
<rect width="514.1" height="664.1" fill="white" transform="translate(354 -328.378) rotate(32.1495)"/>
</clipPath>
</defs>
</svg>
