<svg xmlns="http://www.w3.org/2000/svg" width="496" height="153" fill="none" viewBox="0 0 496 153"><path fill="#006d68" d="M29.65 76.44c0-26.01 21.08-47.09 47.09-47.09s47.09 21.08 47.09 47.09h28.78c0-41.9-33.97-75.87-75.87-75.87S.86 34.54.86 76.44z"/><path fill="#003834" d="M152.61 76.44h-28.78s-.04 2.27-.12 3.38c-1.73 24.43-22.1 43.71-46.97 43.71-24.97 0-45.4-19.43-46.99-44-.07-1.02-.1-3.09-.1-3.09H.87s.02 2.05.06 3.07c1.61 40.48 34.94 72.8 75.81 72.8 40.66 0 73.85-31.98 75.78-72.16.06-1.23.09-3.71.09-3.71"/><path fill="#cee098" d="M76.93 112.38V68.17L39.38 44.2l.2 44.21z"/><path fill="#849e2a" d="M76.93 112.38V68.17l37.36-23.97v44.21z"/><path fill="#fff" d="M76.93 113.38q-.255 0-.48-.12c-.32-.18-.52-.51-.52-.88V68.17c0-.34.17-.66.46-.84l37.35-23.97c.31-.2.7-.21 1.02-.04.32.18.52.51.52.88v44.21c0 .34-.17.66-.46.84l-37.35 23.97c-.16.11-.35.16-.54.16m1-44.67v41.83l35.35-22.68V46.03z"/><path fill="#acca53" d="M114.29 44.2 76.93 68.17 39.58 44.2l37.35-23.97z"/><path fill="#fff" d="M76.93 69.17c-.19 0-.38-.05-.54-.16L39.04 45.04a.99.99 0 0 1-.46-.84c0-.34.17-.66.46-.84l37.35-23.97c.33-.21.75-.21 1.08 0l37.35 23.97c.29.18.46.5.46.84s-.17.66-.46.84L77.47 69.01c-.17.11-.35.16-.54.16M41.43 44.2l35.5 22.78 35.5-22.78-35.5-22.78z"/><path fill="#fff" d="M58.06 57.18a1.002 1.002 0 0 1-.54-1.84l37.35-23.97c.46-.3 1.08-.16 1.38.3s.16 1.08-.3 1.38L58.6 57.02c-.17.11-.35.16-.54.16"/><path fill="#003834" d="M76.93 91.55c-.33 0-.65-.16-.84-.46-.3-.46-.16-1.08.3-1.38l36.68-23.54c.46-.3 1.08-.16 1.38.3s.16 1.08-.3 1.38L77.47 91.39c-.17.11-.35.16-.54.16"/><path fill="#fff" d="M96.11 56.86a1 1 0 0 1-.52-.15L57.64 33.37a1.004 1.004 0 0 1 1.05-1.71L96.64 55a1.006 1.006 0 0 1-.52 1.86z"/><path fill="#fff" d="M76.93 69.17c-.19 0-.38-.05-.54-.16L39.04 45.04a.99.99 0 0 1-.46-.84c0-.34.17-.66.46-.84l37.35-23.97c.33-.21.75-.21 1.08 0l37.35 23.97c.29.18.46.5.46.84s-.17.66-.46.84L77.47 69.01c-.17.11-.35.16-.54.16M41.43 44.2l35.5 22.78 35.5-22.78-35.5-22.78z"/><path fill="#003834" d="M96.87 100.49c-.55 0-1-.45-1-1V55.6c0-.55.45-1 1-1s1 .45 1 1v43.89c0 .55-.45 1-1 1"/><path fill="#fff" d="M76.93 113.38q-.255 0-.48-.12c-.32-.18-.52-.51-.52-.88V68.17c0-.34.17-.66.46-.84l37.35-23.97c.31-.2.7-.21 1.02-.04.32.18.52.51.52.88v44.21c0 .34-.17.66-.46.84l-37.35 23.97c-.16.11-.35.16-.54.16m1-44.67v41.83l35.35-22.68V46.03z"/><path fill="#849e2a" d="M58.06 100.49c-.55 0-1-.45-1-1V56.18c0-.55.45-1 1-1s1 .45 1 1v43.31c0 .55-.45 1-1 1"/><path fill="#849e2a" d="M76.93 91.27c-.18 0-.37-.05-.54-.16L39.52 67.58a1 1 0 0 1 1.08-1.68l36.87 23.53c.47.3.6.92.3 1.38-.19.3-.51.46-.84.46"/><path fill="#fff" d="M76.93 113.38c-.19 0-.38-.05-.54-.16L39.04 89.25a.99.99 0 0 1-.46-.84l-.2-44.21a1.006 1.006 0 0 1 1.54-.85l37.55 23.97c.29.18.46.5.46.84v44.21c0 .37-.2.7-.52.88q-.225.12-.48.12zM40.58 87.86l35.36 22.68V68.71L40.4 46.03l.19 41.83z"/><path fill="#003834" d="M188.29 55.93q-2.75 0-5.35-.5-2.55-.45-4.75-1.3-2.2-.9-3.85-2.1l2.25-6.1a20.3 20.3 0 0 0 3.45 1.9q1.85.8 3.95 1.25 2.1.4 4.3.4 3.65 0 5.2-1.1 1.55-1.15 1.55-2.85 0-.95-.5-1.65-.45-.7-1.55-1.2-1.05-.55-2.9-.9l-5.65-1.2q-4.8-1-7.15-3.4-2.3-2.45-2.3-6.4 0-3.4 1.8-5.9 1.85-2.5 5.05-3.9 3.25-1.4 7.45-1.4 2.45 0 4.7.5 2.25.45 4.15 1.35t3.3 2.15l-2.25 5.7a13.9 13.9 0 0 0-4.5-2.4q-2.5-.85-5.45-.85-2.1 0-3.6.55-1.45.55-2.25 1.55-.75 1-.75 2.3 0 1.45 1.05 2.35t3.65 1.45l5.65 1.2q4.9 1.05 7.3 3.4 2.4 2.3 2.4 6.1 0 3.3-1.8 5.8-1.75 2.45-5 3.85-3.2 1.35-7.6 1.35m35.781 0q-3.9 0-7.15-1.3-3.2-1.3-5.5-3.7t-3.55-5.75q-1.2-3.35-1.2-7.45 0-4.15 1.2-7.45 1.25-3.35 3.55-5.7 2.3-2.4 5.5-3.7 3.25-1.3 7.15-1.3 3.95 0 7.15 1.3t5.5 3.65 3.55 5.7 1.25 7.45q0 4.15-1.25 7.5t-3.55 5.75-5.5 3.7-7.15 1.3m0-6.6q3 0 5.05-1.35 2.05-1.4 3.15-4 1.15-2.65 1.15-6.25 0-3.65-1.1-6.25t-3.2-3.95-5.05-1.35q-2.9 0-5 1.35t-3.2 3.95-1.1 6.25q0 3.6 1.1 6.25 1.1 2.6 3.2 4 2.1 1.35 5 1.35m23.445 6.05V20.13h23.8v6.05h-16.05v8.6h14.95v6.05h-14.95v14.55zm37.502 0V26.53h-11.65v-6.4h31.05v6.4h-11.65v28.85zm-104.803 46.815q-1.375 0-2.675-.25a12.7 12.7 0 0 1-2.375-.65 9.2 9.2 0 0 1-1.925-1.05l1.125-3.05a10 10 0 0 0 1.725.95q.925.4 1.975.625 1.05.2 2.15.2 1.825 0 2.6-.55.775-.575.775-1.425a1.38 1.38 0 0 0-.25-.825q-.225-.35-.775-.6-.525-.275-1.45-.45l-2.825-.6q-2.4-.5-3.575-1.7-1.15-1.225-1.15-3.2 0-1.7.9-2.95.925-1.25 2.525-1.95 1.625-.7 3.725-.7 1.225 0 2.35.25 1.125.225 2.075.675t1.65 1.075l-1.125 2.85a7 7 0 0 0-2.25-1.2q-1.25-.425-2.725-.425-1.05 0-1.8.275-.724.275-1.125.775-.375.5-.375 1.15 0 .725.525 1.175t1.825.725l2.825.6q2.45.525 3.65 1.7 1.2 1.15 1.2 3.05 0 1.65-.9 2.9-.875 1.225-2.5 1.925-1.6.675-3.8.675m13.916 0q-1.55 0-2.575-.575t-1.525-1.725q-.475-1.175-.475-2.9v-7.35h3.775v7.45q0 .725.2 1.225.2.475.6.725.424.225 1.075.225.724 0 1.275-.325.55-.35.85-.975.325-.625.325-1.475v-6.85h3.775v12.275h-3.675v-2.4h.375q-.55 1.275-1.575 1.975-1.026.7-2.425.7m14.921 0q-1.076 0-2.075-.175a11 11 0 0 1-1.825-.475q-.825-.3-1.45-.75l.9-2.45q.624.375 1.35.675.75.275 1.55.425t1.575.15q1.074 0 1.55-.325.5-.35.5-.9 0-.5-.325-.75-.326-.25-.95-.35l-2.625-.475q-1.551-.275-2.4-1.125-.825-.875-.825-2.225 0-1.25.7-2.15.7-.925 1.925-1.4 1.25-.5 2.825-.5.9 0 1.75.15t1.6.45q.774.3 1.375.8l-.95 2.425a5 5 0 0 0-1.125-.65 7.7 7.7 0 0 0-1.325-.425 5 5 0 0 0-1.275-.175q-1.125 0-1.625.375-.5.35-.5.9 0 .425.275.725.3.275.9.375l2.625.475q1.624.275 2.475 1.1.85.8.85 2.2 0 1.275-.675 2.2-.675.9-1.9 1.4-1.225.475-2.875.475m13.507 0q-2.625 0-3.9-1.275t-1.275-3.75v-4.7h-2.325v-2.825h2.325v-3.6h3.775v3.6h3.625v2.825h-3.625v4.55q0 1.05.475 1.575.501.525 1.575.525.325 0 .675-.075.375-.075.8-.2l.55 2.75q-.525.275-1.25.425a6 6 0 0 1-1.425.175m8.233 0q-1.35 0-2.425-.525t-1.675-1.425-.6-2.025q0-1.35.7-2.125.7-.8 2.275-1.125 1.575-.35 4.175-.35h1.325v1.95h-1.3q-.975 0-1.65.075-.65.075-1.075.275-.426.175-.625.45-.175.275-.175.7 0 .7.475 1.15.5.45 1.425.45.724 0 1.275-.325.575-.35.9-.925.325-.6.325-1.35v-2.875q0-1.1-.5-1.55-.5-.475-1.7-.475-1 0-2.125.325-1.1.3-2.2.925l-1.025-2.525a6.6 6.6 0 0 1 1.575-.775 11 11 0 0 1 1.975-.525q1.024-.2 1.95-.2 1.924 0 3.15.575a3.8 3.8 0 0 1 1.875 1.725q.625 1.15.625 2.975v7.25h-3.525v-2.475h.175a3.2 3.2 0 0 1-.65 1.475q-.475.6-1.225.95-.75.325-1.725.325m9.616-14.925v-3.525h4.075v3.525zm.15 14.65V89.645h3.775v12.275zm6.689 0V89.645h3.7v2.3h-.275a4.13 4.13 0 0 1 1.7-1.875q1.15-.675 2.6-.675 1.475 0 2.425.575.95.55 1.425 1.7.475 1.125.475 2.875v7.375h-3.775v-7.2q0-.85-.225-1.375-.2-.55-.625-.775-.4-.25-1.025-.25-.8 0-1.4.35a2.26 2.26 0 0 0-.9.95q-.325.625-.325 1.45v6.85zm19.018.275q-1.35 0-2.425-.525t-1.675-1.425-.6-2.025q0-1.35.7-2.125.7-.8 2.275-1.125 1.575-.35 4.175-.35h1.325v1.95h-1.3q-.975 0-1.65.075-.65.075-1.075.275-.424.175-.625.45-.174.275-.175.7 0 .7.475 1.15.501.45 1.425.45.726 0 1.275-.325a2.5 2.5 0 0 0 .9-.925q.325-.6.325-1.35v-2.875q0-1.1-.5-1.55-.5-.475-1.7-.475a7.7 7.7 0 0 0-2.125.325q-1.1.3-2.2.925l-1.025-2.525q.651-.45 1.575-.775a11 11 0 0 1 1.975-.525q1.026-.2 1.95-.2 1.926 0 3.15.575a3.78 3.78 0 0 1 1.875 1.725q.625 1.15.625 2.975v7.25h-3.525v-2.475h.175a3.2 3.2 0 0 1-.65 1.475q-.475.6-1.225.95-.75.325-1.725.325m17.341 0q-1.475 0-2.625-.725-1.125-.75-1.5-1.975h.25v2.425h-3.7V84.295h3.775v7.625h-.3q.4-1.125 1.525-1.825t2.575-.7q1.625 0 2.825.775t1.875 2.2.675 3.4-.675 3.425-1.9 2.225q-1.2.775-2.8.775m-1.125-2.825q1.2 0 1.95-.875.75-.9.75-2.725t-.75-2.675q-.75-.875-1.95-.875-1.224 0-1.975.875-.75.85-.75 2.675t.75 2.725q.75.875 1.975.875m13.384 2.825q-2.375 0-3.475-1.225-1.1-1.25-1.1-3.7V84.295h3.775V97.12q0 .625.2 1.1.2.45.575.675.4.225 1 .225.25 0 .525-.025.274-.025.525-.1l-.05 2.925q-.475.125-.975.2-.475.075-1 .075m10.003 0q-2.175 0-3.75-.775-1.55-.8-2.4-2.225-.825-1.45-.825-3.4 0-1.9.8-3.325a5.67 5.67 0 0 1 2.225-2.25q1.45-.825 3.275-.825 1.8 0 3.1.775 1.3.75 2 2.15.726 1.4.725 3.325v.95h-9.025v-1.95h6.3l-.4.35q0-1.525-.675-2.3-.65-.8-1.875-.8-.924 0-1.575.425t-1 1.225q-.35.8-.35 1.925v.2q0 1.275.375 2.1.4.8 1.175 1.2.8.4 1.975.4 1 0 2.025-.3 1.026-.3 1.85-.925l1 2.525q-.924.7-2.275 1.125-1.325.4-2.675.4m22.804 0q-1.95 0-3.575-.65a7.85 7.85 0 0 1-2.75-1.85q-1.15-1.2-1.775-2.875-.6-1.675-.6-3.725 0-2.075.6-3.725.625-1.675 1.775-2.85a7.85 7.85 0 0 1 2.75-1.85q1.625-.65 3.575-.65 1.975 0 3.575.65a8 8 0 0 1 2.75 1.825q1.15 1.174 1.775 2.85.625 1.675.625 3.725 0 2.075-.625 3.75t-1.775 2.875a7.85 7.85 0 0 1-2.75 1.85q-1.6.65-3.575.65m0-3.3q1.5 0 2.525-.675 1.025-.7 1.575-2 .575-1.325.575-3.125 0-1.825-.55-3.125t-1.6-1.975-2.525-.675q-1.45 0-2.5.675t-1.6 1.975-.55 3.125q0 1.8.55 3.125.55 1.3 1.6 2 1.05.675 2.5.675m11.397 3.025V89.645h3.7v3h-.25q.3-1.5 1.3-2.3 1.026-.825 2.7-.95l1.1-.075.225 3.175-2.125.225q-1.425.125-2.125.825-.675.7-.675 2.025v6.35zm15.983 4.775q-1.749 0-3.3-.375t-2.7-1.175l1.025-2.575q.675.4 1.45.7.8.3 1.625.45t1.575.15q1.6 0 2.4-.725t.8-2.225v-1.9h.225q-.375 1.15-1.55 1.875a4.86 4.86 0 0 1-2.6.725q-1.65 0-2.875-.75-1.225-.775-1.9-2.15-.675-1.4-.675-3.225 0-1.85.675-3.2.676-1.375 1.9-2.125 1.225-.775 2.875-.775 1.476 0 2.6.725 1.15.7 1.525 1.85h-.2v-2.325h3.675v10.85q0 2.05-.75 3.425a4.64 4.64 0 0 1-2.225 2.075q-1.45.7-3.575.7m.075-7.9q1.25 0 2-.875.775-.875.775-2.425t-.775-2.4q-.75-.875-2-.875-1.275 0-2.025.875-.75.85-.75 2.4t.75 2.425 2.025.875m13.556 3.4q-1.35 0-2.425-.525t-1.675-1.425-.6-2.025q0-1.35.7-2.125.7-.8 2.275-1.125 1.575-.35 4.175-.35h1.325v1.95h-1.3q-.975 0-1.65.075-.65.075-1.075.275-.424.175-.625.45-.175.275-.175.7 0 .7.475 1.15.501.45 1.425.45.726 0 1.275-.325a2.5 2.5 0 0 0 .9-.925q.325-.6.325-1.35v-2.875q0-1.1-.5-1.55-.5-.475-1.7-.475a7.7 7.7 0 0 0-2.125.325q-1.1.3-2.2.925l-1.025-2.525q.651-.45 1.575-.775a11 11 0 0 1 1.975-.525q1.026-.2 1.95-.2 1.926 0 3.15.575a3.78 3.78 0 0 1 1.875 1.725q.625 1.15.625 2.975v7.25h-3.525v-2.475h.175a3.2 3.2 0 0 1-.65 1.475q-.474.6-1.225.95-.75.325-1.725.325m9.766-.275V89.645h3.7v2.3h-.275q.575-1.225 1.7-1.875 1.15-.675 2.6-.675 1.476 0 2.425.575.951.55 1.425 1.7.475 1.125.475 2.875v7.375h-3.775v-7.2q0-.85-.225-1.375-.2-.55-.625-.775-.4-.25-1.025-.25-.8 0-1.4.35a2.26 2.26 0 0 0-.9.95q-.325.625-.325 1.45v6.85zm14.718-14.65v-3.525h4.075v3.525zm.15 14.65V89.645h3.775v12.275zm11.39.275q-1.075 0-2.075-.175a11 11 0 0 1-1.825-.475q-.825-.3-1.45-.75l.9-2.45q.625.375 1.35.675.75.275 1.55.425t1.575.15q1.075 0 1.55-.325.5-.35.5-.9 0-.5-.325-.75t-.95-.35l-2.625-.475q-1.55-.275-2.4-1.125-.825-.875-.825-2.225 0-1.25.7-2.15.7-.925 1.925-1.4 1.25-.5 2.825-.5.9 0 1.75.15t1.6.45q.775.3 1.375.8l-.95 2.425a5 5 0 0 0-1.125-.65 7.6 7.6 0 0 0-1.325-.425 5 5 0 0 0-1.275-.175q-1.125 0-1.625.375-.5.35-.5.9 0 .425.275.725.3.275.9.375l2.625.475q1.625.275 2.475 1.1.85.8.85 2.2 0 1.275-.675 2.2-.675.9-1.9 1.4-1.225.475-2.875.475m11.755 0q-1.35 0-2.425-.525t-1.675-1.425-.6-2.025q0-1.35.7-2.125.7-.8 2.275-1.125 1.575-.35 4.175-.35h1.325v1.95h-1.3q-.975 0-1.65.075-.65.075-1.075.275-.426.175-.625.45-.175.275-.175.7 0 .7.475 1.15.5.45 1.425.45.725 0 1.275-.325.574-.35.9-.925.325-.6.325-1.35v-2.875q0-1.1-.5-1.55-.5-.475-1.7-.475-1 0-2.125.325-1.1.3-2.2.925l-1.025-2.525a6.6 6.6 0 0 1 1.575-.775 11 11 0 0 1 1.975-.525q1.025-.2 1.95-.2 1.925 0 3.15.575a3.8 3.8 0 0 1 1.875 1.725q.624 1.15.625 2.975v7.25h-3.525v-2.475h.175a3.2 3.2 0 0 1-.65 1.475q-.475.6-1.225.95-.75.325-1.725.325m15.791 0q-2.625 0-3.9-1.275t-1.275-3.75v-4.7h-2.325v-2.825h2.325v-3.6h3.775v3.6h3.625v2.825h-3.625v4.55q0 1.05.475 1.575.5.525 1.575.525.324 0 .675-.075.375-.075.8-.2l.55 2.75q-.525.275-1.25.425a6 6 0 0 1-1.425.175m3.932-14.925v-3.525h4.075v3.525zm.15 14.65V89.645h3.775v12.275zm12.589.275q-1.974 0-3.45-.775a5.47 5.47 0 0 1-2.25-2.225q-.8-1.45-.8-3.425t.8-3.4a5.5 5.5 0 0 1 2.25-2.2q1.476-.775 3.45-.775 1.976 0 3.425.775a5.4 5.4 0 0 1 2.275 2.225q.825 1.425.825 3.375 0 1.975-.825 3.425a5.4 5.4 0 0 1-2.275 2.225q-1.45.775-3.425.775m0-2.825q1.225 0 1.975-.875.75-.9.75-2.725t-.75-2.675q-.75-.875-1.975-.875-1.2 0-1.95.875-.75.85-.75 2.675t.75 2.725q.75.875 1.95.875m8.822 2.55V89.645h3.7v2.3h-.275a4.13 4.13 0 0 1 1.7-1.875q1.15-.675 2.6-.675 1.475 0 2.425.575.95.55 1.425 1.7.475 1.125.475 2.875v7.375h-3.775v-7.2q0-.85-.225-1.375-.2-.55-.625-.775-.4-.25-1.025-.25-.8 0-1.4.35a2.26 2.26 0 0 0-.9.95q-.325.625-.325 1.45v6.85zm19.018.275q-1.35 0-2.425-.525t-1.675-1.425-.6-2.025q0-1.35.7-2.125.7-.8 2.275-1.125 1.575-.35 4.175-.35h1.325v1.95h-1.3q-.975 0-1.65.075-.65.075-1.075.275-.424.175-.625.45-.174.275-.175.7 0 .7.475 1.15.501.45 1.425.45.726 0 1.275-.325a2.5 2.5 0 0 0 .9-.925q.325-.6.325-1.35v-2.875q0-1.1-.5-1.55-.5-.475-1.7-.475a7.7 7.7 0 0 0-2.125.325q-1.1.3-2.2.925l-1.025-2.525q.651-.45 1.575-.775a11 11 0 0 1 1.975-.525q1.026-.2 1.95-.2 1.926 0 3.15.575a3.78 3.78 0 0 1 1.875 1.725q.625 1.15.625 2.975v7.25h-3.525v-2.475h.175a3.2 3.2 0 0 1-.65 1.475q-.475.6-1.225.95-.75.325-1.725.325m14.341 0q-2.374 0-3.475-1.225-1.1-1.25-1.1-3.7V84.295h3.775V97.12q0 .625.2 1.1.2.45.575.675.4.225 1 .225.25 0 .525-.025.276-.025.525-.1l-.05 2.925q-.474.125-.975.2-.474.075-1 .075m-318.19 29.725v-17.625h11.9v3.025h-8.025v4.3h7.475v3.025h-7.475v7.275zm13.689 0v-12.275h3.7v3h-.25q.3-1.5 1.3-2.3 1.024-.825 2.7-.95l1.1-.075.225 3.175-2.125.225q-1.425.125-2.125.825-.675.7-.675 2.025v6.35zm14.33.275q-1.35 0-2.425-.525t-1.675-1.425-.6-2.025q0-1.35.7-2.125.7-.8 2.275-1.125 1.575-.35 4.175-.35h1.325v1.95h-1.3q-.975 0-1.65.075-.65.075-1.075.275-.424.175-.625.45-.175.275-.175.7 0 .7.475 1.15.501.45 1.425.45.726 0 1.275-.325a2.5 2.5 0 0 0 .9-.925q.325-.6.325-1.35v-2.875q0-1.1-.5-1.55-.5-.475-1.7-.475-1 0-2.125.325a9.5 9.5 0 0 0-2.2.925l-1.025-2.525q.651-.45 1.575-.775a11 11 0 0 1 1.975-.525 10 10 0 0 1 1.95-.2q1.926 0 3.15.575a3.78 3.78 0 0 1 1.875 1.725q.625 1.15.625 2.975v7.25h-3.525v-2.475h.175a3.2 3.2 0 0 1-.65 1.475q-.475.6-1.225.95-.75.325-1.725.325m9.816-.275v-12.275h3.7v2.3h-.275a4.2 4.2 0 0 1 .9-1.35 3.8 3.8 0 0 1 1.375-.875 4.6 4.6 0 0 1 1.75-.325q1.425 0 2.375.675.951.675 1.35 2.075h-.35a4.4 4.4 0 0 1 1.675-2q1.15-.75 2.625-.75 1.425 0 2.325.575.925.55 1.375 1.7.45 1.125.45 2.875v7.375h-3.775v-7.25q0-1.225-.4-1.775-.375-.575-1.3-.575a2.16 2.16 0 0 0-1.225.35q-.524.326-.8.975-.25.625-.25 1.55v6.725H219.5v-7.25q0-1.225-.4-1.775-.375-.575-1.3-.575-.724 0-1.225.35-.5.326-.775.975-.275.625-.275 1.55v6.725zm28.542.275q-2.175 0-3.75-.775-1.55-.8-2.4-2.225-.825-1.45-.825-3.4 0-1.9.8-3.325a5.66 5.66 0 0 1 2.225-2.25q1.45-.825 3.275-.825 1.8 0 3.1.775 1.3.75 2 2.15.725 1.4.725 3.325v.95h-9.025v-1.95h6.3l-.4.35q0-1.525-.675-2.3-.65-.8-1.875-.8-.925 0-1.575.425t-1 1.225-.35 1.925v.2q0 1.275.375 2.1.4.8 1.175 1.2.8.4 1.975.4 1 0 2.025-.3t1.85-.925l1 2.525q-.925.7-2.275 1.125-1.325.4-2.675.4m10.601-.275-5-12.275h3.825l3.225 8.625h-.575l3.2-8.625h2.5l3.175 8.625h-.475l3.15-8.625h3.625l-4.95 12.275h-3.2l-3.525-9.1h1.625l-3.425 9.1zm23.665.275q-1.974 0-3.45-.775a5.47 5.47 0 0 1-2.25-2.225q-.8-1.45-.8-3.425t.8-3.4a5.5 5.5 0 0 1 2.25-2.2q1.476-.775 3.45-.775 1.976 0 3.425.775a5.4 5.4 0 0 1 2.275 2.225q.825 1.425.825 3.375 0 1.975-.825 3.425a5.4 5.4 0 0 1-2.275 2.225q-1.45.775-3.425.775m0-2.825q1.225 0 1.975-.875.75-.9.75-2.725t-.75-2.675q-.75-.875-1.975-.875-1.2 0-1.95.875-.75.85-.75 2.675t.75 2.725q.75.875 1.95.875m8.822 2.55v-12.275h3.7v3h-.25q.3-1.5 1.3-2.3 1.025-.825 2.7-.95l1.1-.075.225 3.175-2.125.225q-1.425.125-2.125.825-.675.7-.675 2.025v6.35zm10.303 0v-17.625h3.775v10.425h.05l4.525-5.075h4.475l-5.825 6.575v-1.425l6.075 7.125h-4.55l-4.7-5.3h-.05v5.3zm21.848 0v-9.45h-2.325v-2.825h3.425l-1.1 1v-.775q0-2.725 1.45-4.075 1.45-1.375 4.525-1.55l1.375-.1.225 2.75-1.175.075q-.975.05-1.55.325-.575.25-.825.725-.25.45-.25 1.2v.85l-.475-.425h3.675v2.825h-3.2v9.45zm14.203.275q-1.975 0-3.45-.775a5.46 5.46 0 0 1-2.25-2.225q-.8-1.45-.8-3.425t.8-3.4a5.5 5.5 0 0 1 2.25-2.2q1.475-.775 3.45-.775t3.425.775a5.4 5.4 0 0 1 2.275 2.225q.825 1.425.825 3.375 0 1.975-.825 3.425a5.4 5.4 0 0 1-2.275 2.225q-1.45.775-3.425.775m0-2.825q1.225 0 1.975-.875.75-.9.75-2.725t-.75-2.675q-.75-.875-1.975-.875-1.2 0-1.95.875-.75.85-.75 2.675t.75 2.725q.75.875 1.95.875m8.822 2.55v-12.275h3.7v3h-.25q.3-1.5 1.3-2.3 1.024-.825 2.7-.95l1.1-.075.225 3.175-2.125.225q-1.425.125-2.125.825-.675.7-.675 2.025v6.35zm21.785 0v-14.425h-5.825v-3.2h15.525v3.2h-5.825v14.425zm15.669.275q-2.175 0-3.75-.775-1.551-.8-2.4-2.225-.825-1.45-.825-3.4 0-1.9.8-3.325a5.66 5.66 0 0 1 2.225-2.25q1.45-.825 3.275-.825 1.8 0 3.1.775 1.3.75 2 2.15.725 1.4.725 3.325v.95h-9.025v-1.95h6.3l-.4.35q0-1.525-.675-2.3-.651-.8-1.875-.8-.926 0-1.575.425-.65.425-1 1.225t-.35 1.925v.2q0 1.275.375 2.1.4.8 1.175 1.2.8.4 1.975.4.999 0 2.025-.3t1.85-.925l1 2.525q-.925.7-2.275 1.125-1.325.4-2.675.4m13.321 0q-2 0-3.5-.775a5.57 5.57 0 0 1-2.275-2.25q-.8-1.45-.8-3.425t.8-3.4a5.3 5.3 0 0 1 2.275-2.175q1.5-.775 3.5-.775 1.2 0 2.375.35 1.2.35 1.95 1l-1.05 2.6a4.4 4.4 0 0 0-1.4-.775q-.801-.3-1.5-.3-1.476 0-2.3.925-.8.9-.8 2.575 0 1.65.8 2.6.825.925 2.3.925.699 0 1.5-.275.8-.275 1.4-.8l1.05 2.6q-.75.625-1.95 1t-2.375.375m5.963-.275v-17.625h3.775v7.65h-.35a4.13 4.13 0 0 1 1.7-1.875q1.15-.675 2.6-.675 1.475 0 2.425.575.95.55 1.425 1.7.475 1.125.475 2.875v7.375h-3.775v-7.2q0-.85-.225-1.375-.2-.55-.625-.775-.4-.25-1.025-.25-.8 0-1.4.35a2.26 2.26 0 0 0-.9.95q-.325.625-.325 1.45v6.85zm14.868 0v-12.275h3.7v2.3h-.275a4.13 4.13 0 0 1 1.7-1.875q1.15-.675 2.6-.675 1.475 0 2.425.575.95.55 1.425 1.7.475 1.125.475 2.875v7.375h-3.775v-7.2q0-.85-.225-1.375-.2-.55-.625-.775-.4-.25-1.025-.25-.8 0-1.4.35a2.26 2.26 0 0 0-.9.95q-.325.625-.325 1.45v6.85zm20.768.275q-1.974 0-3.45-.775a5.47 5.47 0 0 1-2.25-2.225q-.8-1.45-.8-3.425t.8-3.4a5.5 5.5 0 0 1 2.25-2.2q1.476-.775 3.45-.775 1.976 0 3.425.775a5.4 5.4 0 0 1 2.275 2.225q.825 1.425.825 3.375 0 1.975-.825 3.425a5.4 5.4 0 0 1-2.275 2.225q-1.45.775-3.425.775m0-2.825q1.225 0 1.975-.875.75-.9.75-2.725t-.75-2.675q-.75-.875-1.975-.875-1.2 0-1.95.875-.75.85-.75 2.675t.75 2.725q.75.875 1.95.875m13.397 2.825q-2.375 0-3.475-1.225-1.1-1.25-1.1-3.7v-12.975h3.775v12.825q0 .625.2 1.1.2.45.575.675.4.225 1 .225.25 0 .525-.025.274-.025.525-.1l-.05 2.925q-.476.125-.975.2-.475.075-1 .075m9.528 0q-1.975 0-3.45-.775a5.46 5.46 0 0 1-2.25-2.225q-.8-1.45-.8-3.425t.8-3.4a5.5 5.5 0 0 1 2.25-2.2q1.474-.775 3.45-.775 1.975 0 3.425.775a5.4 5.4 0 0 1 2.275 2.225q.825 1.425.825 3.375 0 1.975-.825 3.425a5.4 5.4 0 0 1-2.275 2.225q-1.45.775-3.425.775m0-2.825q1.225 0 1.975-.875.75-.9.75-2.725t-.75-2.675q-.75-.875-1.975-.875-1.2 0-1.95.875-.75.85-.75 2.675t.75 2.725q.75.875 1.95.875m14.722 7.325q-1.75 0-3.3-.375-1.551-.375-2.7-1.175l1.025-2.575q.675.4 1.45.7a9.4 9.4 0 0 0 3.2.6q1.599 0 2.4-.725t.8-2.225v-1.9h.225q-.375 1.15-1.55 1.875a4.86 4.86 0 0 1-2.6.725q-1.65 0-2.875-.75-1.225-.775-1.9-2.15-.675-1.4-.675-3.225 0-1.85.675-3.2.675-1.375 1.9-2.125 1.224-.775 2.875-.775 1.475 0 2.6.725 1.15.7 1.525 1.85h-.2v-2.325h3.675v10.85q0 2.05-.75 3.425a4.65 4.65 0 0 1-2.225 2.075q-1.45.7-3.575.7m.075-7.9q1.25 0 2-.875.774-.875.775-2.425 0-1.55-.775-2.4-.75-.875-2-.875-1.275 0-2.025.875-.75.85-.75 2.4t.75 2.425 2.025.875m10.356 7.625 2.7-5.925v1.55l-5.4-12.4h3.975l3.475 8.8h-.8l3.575-8.8h3.75l-7.425 16.775z"/></svg>