<svg xmlns="http://www.w3.org/2000/svg" width="104" height="33" fill="none" viewBox="0 0 104 33"><circle cx="10.178" cy="12.443" r="9.678" fill="#828282" style="mix-blend-mode:multiply"/><circle cx="18.473" cy="20.738" r="9.678" fill="#a8a8a8" style="mix-blend-mode:multiply"/><path fill="#0e0e0e" d="M41.783 23.092c-3.77 0-6.719-3.06-6.719-7 0-3.919 2.949-6.961 6.72-6.961 3.527 0 6.29 2.352 6.756 5.786h-3.005c-.318-1.922-1.81-3.248-3.714-3.248-2.296 0-3.845 1.81-3.845 4.424 0 2.632 1.549 4.46 3.845 4.46 1.903 0 3.378-1.343 3.714-3.266h3.005c-.467 3.472-3.23 5.805-6.757 5.805m13.702-.28V21.58c-.653.933-1.642 1.42-3.005 1.42-2.071 0-3.453-1.213-3.453-3.08 0-1.941 1.568-2.986 4.48-2.986.56 0 1.045.037 1.661.112v-.598c0-1.12-.635-1.773-1.717-1.773-1.12 0-1.792.654-1.885 1.774h-2.333c.15-2.296 1.81-3.79 4.218-3.79 2.613 0 4.143 1.438 4.143 3.883v6.271zm-4.013-2.968c0 .84.598 1.363 1.568 1.363 1.325 0 2.128-.728 2.128-1.885v-.71a9.5 9.5 0 0 0-1.493-.13c-1.475 0-2.203.466-2.203 1.362m17.56-2.015c0 2.949-1.736 5.17-4.424 5.17-1.176 0-2.184-.504-2.93-1.475v4.89h-2.594V12.845h2.388v1.456c.766-1.064 1.867-1.642 3.136-1.642 2.688 0 4.424 2.24 4.424 5.17m-2.67 0c0-1.867-1.063-2.875-2.332-2.875-1.27 0-2.334.99-2.334 2.875s1.064 2.855 2.334 2.855c1.269 0 2.333-.952 2.333-2.855m12.002 1.791c0 2.09-1.586 3.379-4.423 3.379s-4.424-1.363-4.63-3.584h2.483c.019 1.027.896 1.68 2.184 1.68 1.008 0 1.773-.317 1.773-1.027 0-.634-.41-.896-1.362-1.082l-1.792-.336c-1.792-.317-2.874-1.307-2.874-2.856 0-1.848 1.586-3.135 4.068-3.135 2.501 0 4.218 1.325 4.405 3.471h-2.482c-.094-.97-.821-1.568-1.923-1.568-.951 0-1.586.355-1.586.99 0 .597.41.84 1.306 1.008l1.923.354c1.94.373 2.93 1.27 2.93 2.706m7.091-1.007v-5.768h2.575v9.967h-2.37v-1.306c-.541.877-1.642 1.493-2.912 1.493-1.997 0-3.453-1.213-3.453-3.808v-6.346h2.595v5.842c0 1.4.69 2.016 1.736 2.016.933 0 1.829-.747 1.829-2.09m6.773 4.199h-2.613V9.411h2.613zm5.91.168c-2.986 0-4.983-2.072-4.983-5.189 0-2.967 2.071-5.132 4.946-5.132 3.154 0 5.244 2.557 4.778 5.804h-7.074c.168 1.624.952 2.52 2.277 2.52 1.139 0 1.904-.56 2.202-1.55h2.576c-.56 2.26-2.296 3.547-4.722 3.547m-.093-8.418c-1.214 0-1.979.784-2.203 2.259h4.293c-.075-1.381-.858-2.259-2.09-2.259"/></svg>