<svg xmlns="http://www.w3.org/2000/svg" width="134" height="33" fill="none" viewBox="0 0 134 33"><path fill="#0e0e0e" fill-rule="evenodd" d="M.5 16.203c10.299 0 16.203-5.904 16.203-16.203 0 10.299 5.904 16.203 16.203 16.203-10.299 0-16.203 5.904-16.203 16.203 0-10.299-5.904-16.203-16.203-16.203" clip-rule="evenodd"/><path fill="#0e0e0e" d="m36.957 22.28 4.43-13.29h4.01l4.43 13.29h-2.954l-.893-2.735h-5.177l-.893 2.734zm4.502-4.904h3.865l-1.13-3.39-.748-2.425h-.11l-.747 2.424zm13.311 5.067q-1.46 0-2.553-.62a4.4 4.4 0 0 1-1.695-1.768q-.602-1.148-.602-2.661 0-1.531.602-2.661a4.33 4.33 0 0 1 1.732-1.769q1.111-.638 2.606-.638 1.258 0 2.242.474.985.474 1.55 1.313.583.838.638 1.95h-2.625q-.128-.765-.638-1.148-.51-.402-1.24-.401-1.057 0-1.604.784-.546.782-.547 2.096 0 1.44.584 2.15.6.712 1.55.712.855 0 1.348-.438.51-.437.583-1.148h2.607q-.054 1.148-.656 2.005-.584.838-1.586 1.312-1.003.456-2.297.456m5.819-.163v-9.771h2.589l.091 1.768h.11q.363-.966 1.184-1.458a3.44 3.44 0 0 1 1.805-.493q1.02 0 1.86.492.837.493 1.239 1.696h.146q.345-1.094 1.22-1.64a3.76 3.76 0 0 1 2.006-.548q.948 0 1.695.401.747.402 1.185 1.295.456.875.456 2.351v5.906h-2.68v-5.323q0-1.24-.42-1.84-.4-.603-1.312-.602-.966 0-1.513.71-.528.693-.528 1.623v5.432h-2.68v-5.323q0-1.24-.419-1.84-.401-.603-1.312-.602-.985 0-1.513.71-.53.693-.529 1.623v5.432zm21.702.163q-1.53 0-2.624-.62a4.2 4.2 0 0 1-1.659-1.731q-.583-1.131-.583-2.625 0-1.586.583-2.734a4.3 4.3 0 0 1 1.677-1.769q1.076-.638 2.516-.638 1.695 0 2.789.748 1.093.729 1.567 2.023.475 1.276.31 2.898h-6.799q-.019 1.167.602 1.805.62.62 1.622.62.766 0 1.294-.328.547-.347.693-.912h2.533a3.23 3.23 0 0 1-.747 1.714q-.6.73-1.567 1.148-.966.4-2.206.401m-.09-8.093q-.912 0-1.477.528-.565.51-.638 1.404h4.156q-.054-.984-.638-1.458-.564-.474-1.403-.474m15.729 8.093q-1.988 0-3.5-.802a5.7 5.7 0 0 1-2.334-2.333q-.838-1.531-.838-3.682 0-2.152.838-3.664a5.7 5.7 0 0 1 2.334-2.333q1.512-.803 3.5-.803 1.712 0 3.044.602 1.33.584 2.151 1.659.82 1.057 1.002 2.479h-2.88q-.237-1.02-1.13-1.659-.875-.656-2.187-.656-1.714 0-2.735 1.094-1.002 1.093-1.002 3.28 0 2.206 1.002 3.3 1.02 1.095 2.735 1.094 1.276 0 2.187-.638t1.13-1.695h2.88a4.9 4.9 0 0 1-1.002 2.497q-.839 1.075-2.188 1.677-1.331.583-3.007.583m12.017 0q-1.458 0-2.57-.601a4.24 4.24 0 0 1-1.732-1.732q-.601-1.13-.601-2.716 0-1.514.583-2.643a4.25 4.25 0 0 1 1.677-1.787q1.094-.638 2.643-.638 1.458 0 2.552.602a4.1 4.1 0 0 1 1.713 1.75q.62 1.13.62 2.716 0 1.514-.583 2.661a4.3 4.3 0 0 1-1.677 1.768q-1.076.62-2.625.62m-.018-2.17q.984 0 1.586-.71.601-.71.601-2.17 0-1.457-.583-2.168-.584-.711-1.586-.711t-1.604.71-.602 2.17q0 1.44.584 2.169.601.71 1.604.71m6.245 2.007v-9.771h2.425l.109 1.567h.091q.328-.948 1.039-1.312.729-.383 1.659-.383h.547v2.515h-.602q-1.349 0-1.95.602-.602.584-.638 1.677v5.104zm6.917 3.043V12.51h2.588l.091 1.695h.146a2.86 2.86 0 0 1 1.148-1.367q.82-.51 1.951-.51 1.75 0 2.825 1.275 1.094 1.258 1.094 3.792 0 2.515-1.094 3.791-1.076 1.276-2.825 1.276-1.13 0-1.951-.51a3 3 0 0 1-1.148-1.367h-.146v4.74zm4.921-5.03q.984 0 1.568-.694.601-.711.601-2.205t-.601-2.188q-.584-.71-1.568-.71-.747 0-1.239.346a2.07 2.07 0 0 0-.729.911 2.9 2.9 0 0 0-.237 1.167v.948q0 .62.237 1.185.237.546.729.893.492.346 1.239.346"/></svg>