<svg xmlns="http://www.w3.org/2000/svg" width="128" height="33" fill="none" viewBox="0 0 128 33"><path fill="#0e0e0e" d="M.5 10.74h11.718L.691 22.265l1.862 1.862L14.08 12.602v11.717h.074l2.559-2.559V10.976l-2.87-2.87H3.057L.5 10.664zm31.926 6.53h2.23v2.072h-2.23v2.95h-2.477v-2.95h-6.481v-1.81l6.71-7.956h2.248zm-5.797 0h3.32v-4.058zm14.248-3.619q1.3 0 2.319.51 1.036.509 1.616 1.51.597 1.001.597 2.406 0 2.09-1.318 3.267-1.317 1.16-3.706 1.16-1.65 0-2.775-.545-1.106-.544-1.686-1.44a4.3 4.3 0 0 1-.65-1.968h2.53q.561 2.038 2.564 2.038 1.23 0 1.862-.685.65-.686.65-1.844 0-1.177-.65-1.827-.65-.668-1.845-.668-1.58 0-2.423 1.318l-2.284-.229.86-7.078h8.133v2.073h-6.077l-.386 2.915q.948-.913 2.67-.913m14.279-4.075q2.653 0 4.795 1.265 2.16 1.247 2.16 5.093t-2.16 5.112q-2.142 1.246-4.795 1.247h-4.285V9.576zM55.07 20.08q1.211-.017 2.16-.28.966-.282 1.633-1.195.685-.913.685-2.67 0-1.755-.685-2.67-.667-.912-1.633-1.194-.948-.28-2.16-.28h-1.722v8.29zm12.854-7.448q1.528 0 2.617.685 1.106.667 1.633 1.915.544 1.247.457 2.933h-7.096q.123 1.194.755 1.81.633.614 1.651.614.897 0 1.44-.44.563-.437.756-1.106h2.441q-.316 1.65-1.563 2.565-1.23.895-3.074.895-1.51 0-2.617-.614a4.1 4.1 0 0 1-1.686-1.722q-.58-1.124-.58-2.6 0-1.457.598-2.581a4.2 4.2 0 0 1 1.703-1.739q1.107-.615 2.565-.615m2.266 3.987q-.105-.948-.685-1.528-.562-.58-1.599-.58-.948 0-1.545.528-.597.526-.79 1.58zm12.741-3.776v9.063q0 1.845-1.177 2.968-1.177 1.142-3.442 1.142-1.967 0-3.126-.878-1.16-.861-1.37-2.319h2.406q.421 1.3 2.09 1.3 1.16 0 1.686-.58.527-.561.527-1.668v-1.265q-.984 1.51-2.968 1.51-1.248 0-2.196-.561-.93-.58-1.458-1.651-.51-1.072-.509-2.53 0-1.456.51-2.529.526-1.07 1.457-1.633.948-.58 2.196-.58 2.002 0 2.968 1.51v-1.299zm-4.724 7.377q1.176 0 1.809-.79.632-.79.632-2.055 0-1.264-.632-2.055-.633-.79-1.81-.79-1.194 0-1.791.807-.58.79-.58 2.038 0 1.246.58 2.055.597.79 1.791.79m11.292-7.482q.3 0 .597.053v2.406a4 4 0 0 0-.667-.053q-1.107 0-1.651.527-.545.51-.685 1.212-.14.686-.14 1.598v3.811h-2.407v-9.449h2.371v1.616q.773-1.72 2.582-1.721m5.982-.106q1.528 0 2.617.685 1.107.667 1.633 1.915.545 1.247.457 2.933h-7.096q.123 1.194.755 1.81.633.614 1.651.614.897 0 1.44-.44.563-.437.756-1.106h2.441q-.316 1.65-1.563 2.565-1.23.895-3.074.895-1.51 0-2.617-.614a4.1 4.1 0 0 1-1.686-1.722q-.58-1.124-.58-2.6 0-1.457.598-2.581a4.2 4.2 0 0 1 1.703-1.739q1.107-.615 2.565-.615m2.266 3.987q-.106-.948-.685-1.528-.562-.58-1.599-.58-.948 0-1.545.528-.598.526-.79 1.58zm8.034-3.987q1.528 0 2.617.685 1.107.667 1.634 1.915.544 1.247.456 2.933h-7.096q.123 1.194.756 1.81.632.614 1.651.614.895 0 1.44-.44.562-.437.755-1.106h2.441q-.315 1.65-1.563 2.565-1.229.895-3.073.895-1.511 0-2.617-.614a4.1 4.1 0 0 1-1.686-1.722q-.58-1.124-.58-2.6 0-1.457.597-2.581a4.2 4.2 0 0 1 1.704-1.739q1.106-.615 2.564-.615m2.266 3.987q-.105-.948-.685-1.528-.563-.58-1.598-.58-.95 0-1.546.528-.598.526-.79 1.58zm7.697 5.884q-2.143 0-3.32-.948-1.176-.95-1.335-2.389h2.407q.474 1.51 2.301 1.51.843 0 1.317-.298.474-.316.474-.808 0-.526-.527-.738-.509-.228-1.756-.456a14.4 14.4 0 0 1-1.985-.457 3.65 3.65 0 0 1-1.423-.878q-.597-.597-.597-1.598 0-1.423 1.195-2.108 1.194-.703 2.915-.703 1.898 0 3.021.826a3.23 3.23 0 0 1 1.353 2.213h-2.407a1.77 1.77 0 0 0-.685-.896q-.456-.315-1.335-.316-.755 0-1.211.246-.44.246-.44.667 0 .369.352.615.369.228.808.334.439.105 1.51.316 1.897.351 2.758.93.86.58.86 1.757 0 1.44-1.106 2.319-1.107.86-3.144.86m8.392-7.271a3.2 3.2 0 0 1-1.475-.351 2.85 2.85 0 0 1-1.072-1.037q-.386-.668-.386-1.545 0-.879.386-1.546.405-.667 1.072-1.019a3.06 3.06 0 0 1 1.475-.368q.79 0 1.458.368.684.352 1.089 1.037.404.667.404 1.528 0 .86-.404 1.545-.405.667-1.089 1.037a3.1 3.1 0 0 1-1.458.35m0-1.475q.597 0 .948-.387.369-.404.369-1.071 0-.668-.369-1.054-.351-.387-.948-.387-.58 0-.948.387-.352.386-.352 1.054 0 .667.352 1.071.368.387.948.387"/><path fill="#0e0e0e" fill-rule="evenodd" d="M124.146 10.99a1.314 1.314 0 1 0 0 2.628 1.314 1.314 0 0 0 0-2.627m0 4.257a2.943 2.943 0 1 0-.001-5.885 2.943 2.943 0 0 0 .001 5.885" clip-rule="evenodd"/></svg>