<svg xmlns="http://www.w3.org/2000/svg" width="163" height="33" fill="none" viewBox="0 0 163 33"><path fill="#828282" fill-rule="evenodd" d="M9.125 2.885 4.516 5.546l4.612 2.662 4.61-2.661zm5.952 4.98-4.61 2.662v5.324l4.61-2.662zm1.34 7.643-4.612 2.662 4.612 2.662 4.61-2.661zm5.949 4.982-4.61 2.661v5.323l4.61-2.661zm-7.288 7.985V23.15l-4.612-2.662v5.324zm-7.29-12.623-4.61-2.663V7.865l4.611 2.662zm0 3.092-6.284-3.63A2.01 2.01 0 0 1 .5 13.576V5.547c0-.479.255-.92.67-1.16L8.12.373a2.01 2.01 0 0 1 2.009 0l6.956 4.014c.415.24.67.681.67 1.16v7.642l6.62 3.822c.413.24.669.681.669 1.16v8.028a2.01 2.01 0 0 1-1.005 1.74l-6.953 4.014c-.414.24-.924.24-1.338 0l-6.955-4.014a2.01 2.01 0 0 1-1.004-1.74z" clip-rule="evenodd"/><path fill="#0e0e0e" d="M31.963 22.09V8.428h6.71q2.08 0 3.13.974 1.05.957 1.05 2.53 0 1.05-.544 1.875-.524.825-1.518 1.106v.15q1.181.243 1.8 1.106.637.843.637 2.005 0 1.93-1.293 2.924-1.275.994-3.618.994zm2.83-8.059h3.187q1.011 0 1.462-.469.468-.468.468-1.218 0-.842-.562-1.256-.544-.43-1.462-.43h-3.093zm0 5.81h3.205q1.163 0 1.706-.506.543-.505.544-1.33 0-.937-.581-1.369-.563-.45-1.556-.45h-3.318zm13.179 2.419q-1.743 0-2.662-1.013-.918-1.011-.918-2.942v-6.26h2.755v5.529q0 1.2.431 1.836.45.62 1.481.619 1.05 0 1.612-.712.581-.731.581-1.725v-5.548h2.755v10.047h-2.642l-.113-1.837h-.131a2.84 2.84 0 0 1-1.218 1.5q-.844.505-1.931.505m7.927-11.509V8.428h2.755v2.324zm0 11.34V12.045h2.755v10.047zm4.751 0V8.428h2.755V22.09zm8.161.17q-1.8 0-2.905-1.294-1.106-1.312-1.106-3.899 0-2.605 1.106-3.898 1.105-1.312 2.905-1.312 1.162 0 1.987.525.843.525 1.2 1.405h.15v-5.36h2.755V22.09H72.24l-.094-1.762h-.15q-.356.862-1.2 1.406-.823.524-1.986.524m1.05-2.231q.768 0 1.255-.356.507-.357.75-.919.244-.58.244-1.218v-.956a3 3 0 0 0-.244-1.218 2.15 2.15 0 0 0-.75-.919q-.487-.356-1.255-.356-1.013 0-1.631.731-.619.713-.619 2.25 0 1.518.619 2.249.619.712 1.63.712m7.027-9.277V8.428h2.755v2.324zm0 11.34V12.045h2.755v10.047zm4.751 0V12.045h2.642l.113 1.818h.112q.412-.993 1.275-1.5a3.74 3.74 0 0 1 1.93-.505q1.013 0 1.8.412.806.413 1.274 1.33.47.9.469 2.419v6.073h-2.755v-5.473q0-1.275-.45-1.893-.45-.62-1.443-.62-1.07 0-1.65.732a2.6 2.6 0 0 0-.562 1.668v5.586zm13.791 3.131q-1.725 0-2.55-.581-.805-.58-.805-1.556 0-.825.6-1.33.6-.507 1.368-.582v-.15a1.96 1.96 0 0 1-.956-.618 1.64 1.64 0 0 1-.337-1.012q0-.675.45-1.144.468-.487 1.218-.656v-.187a2.86 2.86 0 0 1-1.031-.975q-.375-.619-.375-1.462 0-1.405 1.125-2.25 1.143-.861 3.055-.861.318 0 .656.056.356.038.656.131.262-1.068 1.143-1.668.881-.619 2.306-.637v2.136q-.713-.018-1.275.17-.562.168-.862.543.674.319 1.106 1.012.43.675.431 1.556 0 1.387-1.106 2.211-1.087.825-3.093.825-.375 0-.75-.037a7 7 0 0 1-.73-.113.73.73 0 0 0-.488.206.58.58 0 0 0-.168.431q0 .357.393.469.412.094.919.094h2.436q1.762 0 2.587.693.843.675.881 2.006.038 1.125-.469 1.837-.487.731-1.387 1.087t-2.08.356zm1.78-8.753q.77 0 1.181-.394.413-.412.413-1.05 0-.693-.45-1.068t-1.162-.375q-.75 0-1.181.412a1.37 1.37 0 0 0-.431 1.031q0 .675.45 1.069.45.375 1.18.375m-1.368 7.216h2.418q1.256 0 1.256-.956 0-.544-.356-.693a1.9 1.9 0 0 0-.825-.17H95.26q-.355.075-.58.32a.83.83 0 0 0-.226.58q0 .47.356.694.375.225 1.031.225m7.732-1.594V8.428h6.71q2.081 0 3.13.974 1.05.957 1.05 2.53 0 1.05-.543 1.875-.525.825-1.519 1.106v.15q1.181.243 1.8 1.106.637.843.637 2.005 0 1.93-1.293 2.924-1.275.994-3.618.994zm2.83-8.059h3.187q1.012 0 1.462-.469.468-.468.468-1.218 0-.842-.562-1.256-.543-.43-1.462-.43h-3.093zm0 5.81h3.205q1.163 0 1.706-.506.544-.505.544-1.33 0-.937-.581-1.369-.563-.45-1.556-.45h-3.318zm9.876 2.249V8.428h2.755V22.09zm9.192.17q-1.499 0-2.642-.619a4.36 4.36 0 0 1-1.781-1.78q-.618-1.162-.619-2.794 0-1.556.6-2.717.6-1.182 1.725-1.837 1.124-.657 2.717-.656 1.5 0 2.625.618a4.23 4.23 0 0 1 1.762 1.8q.637 1.161.637 2.792 0 1.557-.6 2.737-.6 1.162-1.724 1.818-1.106.637-2.7.637m-.018-2.231q1.012 0 1.63-.731.62-.73.619-2.23 0-1.5-.6-2.231t-1.631-.731q-1.03 0-1.649.731-.618.73-.619 2.23 0 1.482.6 2.231.619.73 1.65.731m10.991 2.232q-1.5 0-2.624-.638a4.5 4.5 0 0 1-1.743-1.818q-.62-1.181-.619-2.736 0-1.575.619-2.737a4.46 4.46 0 0 1 1.78-1.818q1.144-.657 2.681-.656 1.293 0 2.305.487t1.593 1.35q.6.861.657 2.005h-2.7q-.13-.787-.656-1.18-.524-.413-1.274-.413-1.088 0-1.65.806t-.562 2.155q0 1.482.6 2.212.618.732 1.593.731.881 0 1.387-.45.525-.45.6-1.18h2.68q-.055 1.18-.675 2.061-.599.862-1.63 1.35-1.032.468-2.362.468m5.984-.169V8.428h2.793v7.778l.824-.956 2.981-3.205h3.392l-3.861 3.974 3.936 6.073h-3.242l-2.043-3.187-.6-1.05-1.387 1.369v2.868zm14.894.188q-2.193 0-3.393-.918-1.18-.937-1.162-2.437h2.699q.019.806.563 1.162.562.338 1.368.338.843 0 1.274-.281a.93.93 0 0 0 .432-.806q0-.695-.507-.9-.487-.206-1.555-.356-1.106-.15-2.025-.431-.918-.3-1.462-.9-.524-.6-.524-1.706 0-1.593 1.199-2.38 1.218-.807 3.187-.806 1.93 0 3.074.843 1.143.825 1.18 2.324h-2.699q0-.637-.45-.974-.431-.338-1.18-.338-.769 0-1.163.3a.88.88 0 0 0-.393.75q0 .562.506.787t1.612.375q.788.113 1.499.281.713.15 1.256.488.563.318.881.9.338.561.338 1.48 0 1.65-1.219 2.437-1.218.768-3.336.768"/></svg>