<svg width="496" height="153" viewBox="0 0 496 153" fill="none" xmlns="http://www.w3.org/2000/svg">
<path d="M29.6501 76.44C29.6501 50.43 50.7301 29.35 76.7401 29.35C102.75 29.35 123.83 50.43 123.83 76.44H152.61C152.61 34.54 118.64 0.570007 76.7401 0.570007C34.8401 0.570007 0.860107 34.54 0.860107 76.44H29.6401H29.6501Z" fill="#006D68"/>
<path d="M152.61 76.44H123.83C123.83 76.44 123.79 78.71 123.71 79.82C121.98 104.25 101.61 123.53 76.7401 123.53C51.7701 123.53 31.3401 104.1 29.7501 79.53C29.6801 78.51 29.6501 76.44 29.6501 76.44H0.870117C0.870117 76.44 0.890117 78.49 0.930117 79.51C2.54012 119.99 35.8701 152.31 76.7401 152.31C117.4 152.31 150.59 120.33 152.52 80.15C152.58 78.92 152.61 76.44 152.61 76.44Z" fill="#003834"/>
<path d="M76.9301 112.38V68.17L39.3801 44.2L39.5801 88.41L76.9301 112.38Z" fill="#CEE098"/>
<path d="M76.9302 112.38V68.17L114.29 44.2V88.41L76.9302 112.38Z" fill="#849E2A"/>
<path d="M76.9302 113.38C76.7602 113.38 76.6002 113.34 76.4502 113.26C76.1302 113.08 75.9302 112.75 75.9302 112.38V68.17C75.9302 67.83 76.1002 67.51 76.3902 67.33L113.74 43.36C114.05 43.16 114.44 43.15 114.76 43.32C115.08 43.5 115.28 43.83 115.28 44.2V88.41C115.28 88.75 115.11 89.07 114.82 89.25L77.4702 113.22C77.3102 113.33 77.1202 113.38 76.9302 113.38ZM77.9302 68.71V110.54L113.28 87.86V46.03L77.9302 68.71Z" fill="white"/>
<path d="M114.29 44.2L76.9301 68.17L39.5801 44.2L76.9301 20.23L114.29 44.2Z" fill="#ACCA53"/>
<path d="M76.9301 69.17C76.7401 69.17 76.5501 69.12 76.3901 69.01L39.0401 45.04C38.7501 44.86 38.5801 44.54 38.5801 44.2C38.5801 43.86 38.7501 43.54 39.0401 43.36L76.3901 19.39C76.7201 19.18 77.1401 19.18 77.4701 19.39L114.82 43.36C115.11 43.54 115.28 43.86 115.28 44.2C115.28 44.54 115.11 44.86 114.82 45.04L77.4701 69.01C77.3001 69.12 77.1201 69.17 76.9301 69.17ZM41.4301 44.2L76.9301 66.98L112.43 44.2L76.9301 21.42L41.4301 44.2Z" fill="white"/>
<path d="M58.0601 57.18C57.7301 57.18 57.4101 57.02 57.2201 56.72C56.9201 56.26 57.06 55.64 57.52 55.34L94.8701 31.37C95.3301 31.07 95.9501 31.21 96.2501 31.67C96.5501 32.13 96.4101 32.75 95.9501 33.05L58.6001 57.02C58.4301 57.13 58.2501 57.18 58.0601 57.18Z" fill="white"/>
<path d="M76.9302 91.55C76.6002 91.55 76.2802 91.39 76.0902 91.09C75.7902 90.63 75.9302 90.01 76.3902 89.71L113.07 66.17C113.53 65.87 114.15 66.01 114.45 66.47C114.75 66.93 114.61 67.55 114.15 67.85L77.4702 91.39C77.3002 91.5 77.1202 91.55 76.9302 91.55Z" fill="#003834"/>
<path d="M96.1101 56.86C95.9301 56.86 95.7501 56.81 95.5901 56.71L57.6401 33.37C57.1701 33.08 57.0201 32.46 57.3101 31.99C57.6001 31.52 58.2101 31.37 58.6901 31.66L96.6401 55C97.1101 55.29 97.2601 55.91 96.9701 56.38C96.7801 56.69 96.4501 56.86 96.1201 56.86H96.1101Z" fill="white"/>
<path d="M76.9301 69.17C76.7401 69.17 76.5501 69.12 76.3901 69.01L39.0401 45.04C38.7501 44.86 38.5801 44.54 38.5801 44.2C38.5801 43.86 38.7501 43.54 39.0401 43.36L76.3901 19.39C76.7201 19.18 77.1401 19.18 77.4701 19.39L114.82 43.36C115.11 43.54 115.28 43.86 115.28 44.2C115.28 44.54 115.11 44.86 114.82 45.04L77.4701 69.01C77.3001 69.12 77.1201 69.17 76.9301 69.17ZM41.4301 44.2L76.9301 66.98L112.43 44.2L76.9301 21.42L41.4301 44.2Z" fill="white"/>
<path d="M96.8701 100.49C96.3201 100.49 95.8701 100.04 95.8701 99.49V55.6C95.8701 55.05 96.3201 54.6 96.8701 54.6C97.4201 54.6 97.8701 55.05 97.8701 55.6V99.49C97.8701 100.04 97.4201 100.49 96.8701 100.49Z" fill="#003834"/>
<path d="M76.9302 113.38C76.7602 113.38 76.6002 113.34 76.4502 113.26C76.1302 113.08 75.9302 112.75 75.9302 112.38V68.17C75.9302 67.83 76.1002 67.51 76.3902 67.33L113.74 43.36C114.05 43.16 114.44 43.15 114.76 43.32C115.08 43.5 115.28 43.83 115.28 44.2V88.41C115.28 88.75 115.11 89.07 114.82 89.25L77.4702 113.22C77.3102 113.33 77.1202 113.38 76.9302 113.38ZM77.9302 68.71V110.54L113.28 87.86V46.03L77.9302 68.71Z" fill="white"/>
<path d="M58.0601 100.49C57.5101 100.49 57.0601 100.04 57.0601 99.49V56.18C57.0601 55.63 57.5101 55.18 58.0601 55.18C58.6101 55.18 59.0601 55.63 59.0601 56.18V99.49C59.0601 100.04 58.6101 100.49 58.0601 100.49Z" fill="#849E2A"/>
<path d="M76.9301 91.27C76.7501 91.27 76.5601 91.22 76.3901 91.11L39.5201 67.58C39.0501 67.28 38.9201 66.66 39.2201 66.2C39.5201 65.74 40.1301 65.6 40.6001 65.9L77.4701 89.43C77.9401 89.73 78.0701 90.35 77.7701 90.81C77.5801 91.11 77.2601 91.27 76.9301 91.27Z" fill="#849E2A"/>
<path d="M76.9301 113.38C76.7401 113.38 76.5501 113.33 76.3901 113.22L39.0401 89.25C38.7501 89.07 38.5801 88.75 38.5801 88.41L38.3801 44.2C38.3801 43.83 38.5801 43.5 38.9001 43.32C39.2201 43.14 39.6101 43.16 39.9201 43.35L77.4701 67.32C77.7601 67.5 77.9301 67.82 77.9301 68.16V112.37C77.9301 112.74 77.7301 113.07 77.4101 113.25C77.2601 113.33 77.1001 113.37 76.9301 113.37V113.38ZM40.5801 87.86L75.9401 110.54V68.71L40.4001 46.03L40.5901 87.86H40.5801Z" fill="white"/>
<path d="M188.29 55.93C186.457 55.93 184.673 55.7633 182.94 55.43C181.24 55.13 179.657 54.6967 178.19 54.13C176.723 53.53 175.44 52.83 174.34 52.03L176.59 45.93C177.657 46.6633 178.807 47.2967 180.04 47.83C181.273 48.3633 182.59 48.78 183.99 49.08C185.39 49.3467 186.823 49.48 188.29 49.48C190.723 49.48 192.457 49.1133 193.49 48.38C194.523 47.6133 195.04 46.6633 195.04 45.53C195.04 44.8967 194.873 44.3467 194.54 43.88C194.24 43.4133 193.723 43.0133 192.99 42.68C192.29 42.3133 191.323 42.0133 190.09 41.78L184.44 40.58C181.24 39.9133 178.857 38.78 177.29 37.18C175.757 35.5467 174.99 33.4133 174.99 30.78C174.99 28.5133 175.59 26.5467 176.79 24.88C178.023 23.2133 179.707 21.9133 181.84 20.98C184.007 20.0467 186.49 19.58 189.29 19.58C190.923 19.58 192.49 19.7467 193.99 20.08C195.49 20.38 196.873 20.83 198.14 21.43C199.407 22.03 200.507 22.7467 201.44 23.58L199.19 29.28C197.857 28.2133 196.357 27.4133 194.69 26.88C193.023 26.3133 191.207 26.03 189.24 26.03C187.84 26.03 186.64 26.2133 185.64 26.58C184.673 26.9467 183.923 27.4633 183.39 28.13C182.89 28.7967 182.64 29.5633 182.64 30.43C182.64 31.3967 182.99 32.18 183.69 32.78C184.39 33.38 185.607 33.8633 187.34 34.23L192.99 35.43C196.257 36.13 198.69 37.2633 200.29 38.83C201.89 40.3633 202.69 42.3967 202.69 44.93C202.69 47.13 202.09 49.0633 200.89 50.73C199.723 52.3633 198.057 53.6467 195.89 54.58C193.757 55.48 191.223 55.93 188.29 55.93ZM224.071 55.93C221.471 55.93 219.088 55.4967 216.921 54.63C214.788 53.7633 212.954 52.53 211.421 50.93C209.888 49.33 208.704 47.4133 207.871 45.18C207.071 42.9467 206.671 40.4633 206.671 37.73C206.671 34.9633 207.071 32.48 207.871 30.28C208.704 28.0467 209.888 26.1467 211.421 24.58C212.954 22.98 214.788 21.7467 216.921 20.88C219.088 20.0133 221.471 19.58 224.071 19.58C226.704 19.58 229.088 20.0133 231.221 20.88C233.354 21.7467 235.188 22.9633 236.721 24.53C238.254 26.0967 239.438 27.9967 240.271 30.23C241.104 32.4633 241.521 34.9467 241.521 37.68C241.521 40.4467 241.104 42.9467 240.271 45.18C239.438 47.4133 238.254 49.33 236.721 50.93C235.188 52.53 233.354 53.7633 231.221 54.63C229.088 55.4967 226.704 55.93 224.071 55.93ZM224.071 49.33C226.071 49.33 227.754 48.88 229.121 47.98C230.488 47.0467 231.538 45.7133 232.271 43.98C233.038 42.2133 233.421 40.13 233.421 37.73C233.421 35.2967 233.054 33.2133 232.321 31.48C231.588 29.7467 230.521 28.43 229.121 27.53C227.721 26.63 226.038 26.18 224.071 26.18C222.138 26.18 220.471 26.63 219.071 27.53C217.671 28.43 216.604 29.7467 215.871 31.48C215.138 33.2133 214.771 35.2967 214.771 37.73C214.771 40.13 215.138 42.2133 215.871 43.98C216.604 45.7133 217.671 47.0467 219.071 47.98C220.471 48.88 222.138 49.33 224.071 49.33ZM247.516 55.38V20.13H271.316V26.18H255.266V34.78H270.216V40.83H255.266V55.38H247.516ZM285.018 55.38V26.53H273.368V20.13H304.418V26.53H292.768V55.38H285.018Z" fill="#003834"/>
<path d="M180.215 102.195C179.298 102.195 178.407 102.112 177.54 101.945C176.69 101.795 175.898 101.578 175.165 101.295C174.432 100.995 173.79 100.645 173.24 100.245L174.365 97.195C174.898 97.5616 175.473 97.8783 176.09 98.145C176.707 98.4116 177.365 98.62 178.065 98.77C178.765 98.9033 179.482 98.97 180.215 98.97C181.432 98.97 182.298 98.7866 182.815 98.42C183.332 98.0366 183.59 97.5616 183.59 96.995C183.59 96.6783 183.507 96.4033 183.34 96.17C183.19 95.9366 182.932 95.7366 182.565 95.57C182.215 95.3866 181.732 95.2366 181.115 95.12L178.29 94.52C176.69 94.1866 175.498 93.62 174.715 92.82C173.948 92.0033 173.565 90.9366 173.565 89.62C173.565 88.4866 173.865 87.5033 174.465 86.67C175.082 85.8366 175.923 85.1866 176.99 84.72C178.073 84.2533 179.315 84.02 180.715 84.02C181.532 84.02 182.315 84.1033 183.065 84.27C183.815 84.42 184.507 84.645 185.14 84.945C185.773 85.245 186.323 85.6033 186.79 86.02L185.665 88.87C184.998 88.3366 184.248 87.9366 183.415 87.67C182.582 87.3866 181.673 87.245 180.69 87.245C179.99 87.245 179.39 87.3366 178.89 87.52C178.407 87.7033 178.032 87.9616 177.765 88.295C177.515 88.6283 177.39 89.0116 177.39 89.445C177.39 89.9283 177.565 90.32 177.915 90.62C178.265 90.92 178.873 91.1616 179.74 91.345L182.565 91.945C184.198 92.295 185.415 92.8616 186.215 93.645C187.015 94.4116 187.415 95.4283 187.415 96.695C187.415 97.795 187.115 98.7616 186.515 99.595C185.932 100.412 185.098 101.053 184.015 101.52C182.948 101.97 181.682 102.195 180.215 102.195ZM194.131 102.195C193.097 102.195 192.239 102.003 191.556 101.62C190.872 101.237 190.364 100.662 190.031 99.895C189.714 99.1116 189.556 98.145 189.556 96.995V89.645H193.331V97.095C193.331 97.5783 193.397 97.9866 193.531 98.32C193.664 98.6366 193.864 98.8783 194.131 99.045C194.414 99.195 194.772 99.27 195.206 99.27C195.689 99.27 196.114 99.1616 196.481 98.945C196.847 98.7116 197.131 98.3866 197.331 97.97C197.547 97.5533 197.656 97.0616 197.656 96.495V89.645H201.431V101.92H197.756V99.52H198.131C197.764 100.37 197.239 101.028 196.556 101.495C195.872 101.962 195.064 102.195 194.131 102.195ZM209.052 102.195C208.335 102.195 207.643 102.137 206.977 102.02C206.31 101.903 205.702 101.745 205.152 101.545C204.602 101.345 204.118 101.095 203.702 100.795L204.602 98.345C205.018 98.595 205.468 98.82 205.952 99.02C206.452 99.2033 206.968 99.345 207.502 99.445C208.035 99.545 208.56 99.595 209.077 99.595C209.793 99.595 210.31 99.4866 210.627 99.27C210.96 99.0366 211.127 98.7366 211.127 98.37C211.127 98.0366 211.018 97.7866 210.802 97.62C210.585 97.4533 210.268 97.3366 209.852 97.27L207.227 96.795C206.193 96.6116 205.393 96.2366 204.827 95.67C204.277 95.0866 204.002 94.345 204.002 93.445C204.002 92.6116 204.235 91.895 204.702 91.295C205.168 90.6783 205.81 90.2116 206.627 89.895C207.46 89.5616 208.402 89.395 209.452 89.395C210.052 89.395 210.635 89.445 211.202 89.545C211.768 89.645 212.302 89.795 212.802 89.995C213.318 90.195 213.777 90.4616 214.177 90.795L213.227 93.22C212.91 92.97 212.535 92.7533 212.102 92.57C211.668 92.3866 211.227 92.245 210.777 92.145C210.327 92.0283 209.902 91.97 209.502 91.97C208.752 91.97 208.21 92.095 207.877 92.345C207.543 92.5783 207.377 92.8783 207.377 93.245C207.377 93.5283 207.468 93.77 207.652 93.97C207.852 94.1533 208.152 94.2783 208.552 94.345L211.177 94.82C212.26 95.0033 213.085 95.37 213.652 95.92C214.218 96.4533 214.502 97.1866 214.502 98.12C214.502 98.97 214.277 99.7033 213.827 100.32C213.377 100.92 212.743 101.387 211.927 101.72C211.11 102.037 210.152 102.195 209.052 102.195ZM222.559 102.195C220.809 102.195 219.509 101.77 218.659 100.92C217.809 100.07 217.384 98.82 217.384 97.17V92.47H215.059V89.645H217.384V86.045H221.159V89.645H224.784V92.47H221.159V97.02C221.159 97.72 221.318 98.245 221.634 98.595C221.968 98.945 222.493 99.12 223.209 99.12C223.426 99.12 223.651 99.095 223.884 99.045C224.134 98.995 224.401 98.9283 224.684 98.845L225.234 101.595C224.884 101.778 224.468 101.92 223.984 102.02C223.501 102.137 223.026 102.195 222.559 102.195ZM230.792 102.195C229.892 102.195 229.083 102.02 228.367 101.67C227.65 101.32 227.092 100.845 226.692 100.245C226.292 99.645 226.092 98.97 226.092 98.22C226.092 97.32 226.325 96.6116 226.792 96.095C227.258 95.5616 228.017 95.1866 229.067 94.97C230.117 94.7366 231.508 94.62 233.242 94.62H234.567V96.57H233.267C232.617 96.57 232.067 96.595 231.617 96.645C231.183 96.695 230.825 96.7866 230.542 96.92C230.258 97.0366 230.05 97.1866 229.917 97.37C229.8 97.5533 229.742 97.7866 229.742 98.07C229.742 98.5366 229.9 98.92 230.217 99.22C230.55 99.52 231.025 99.67 231.642 99.67C232.125 99.67 232.55 99.5616 232.917 99.345C233.3 99.1116 233.6 98.8033 233.817 98.42C234.033 98.02 234.142 97.57 234.142 97.07V94.195C234.142 93.4616 233.975 92.945 233.642 92.645C233.308 92.3283 232.742 92.17 231.942 92.17C231.275 92.17 230.567 92.2783 229.817 92.495C229.083 92.695 228.35 93.0033 227.617 93.42L226.592 90.895C227.025 90.595 227.55 90.3366 228.167 90.12C228.8 89.8866 229.458 89.7116 230.142 89.595C230.825 89.4616 231.475 89.395 232.092 89.395C233.375 89.395 234.425 89.5866 235.242 89.97C236.075 90.3366 236.7 90.9116 237.117 91.695C237.533 92.4616 237.742 93.4533 237.742 94.67V101.92H234.217V99.445H234.392C234.292 100.012 234.075 100.503 233.742 100.92C233.425 101.32 233.017 101.637 232.517 101.87C232.017 102.087 231.442 102.195 230.792 102.195ZM240.408 87.27V83.745H244.483V87.27H240.408ZM240.558 101.92V89.645H244.333V101.92H240.558ZM247.247 101.92V89.645H250.947V91.945H250.672C251.055 91.1283 251.622 90.5033 252.372 90.07C253.139 89.62 254.005 89.395 254.972 89.395C255.955 89.395 256.764 89.5866 257.397 89.97C258.03 90.3366 258.505 90.9033 258.822 91.67C259.139 92.42 259.297 93.3783 259.297 94.545V101.92H255.522V94.72C255.522 94.1533 255.447 93.695 255.297 93.345C255.164 92.9783 254.955 92.72 254.672 92.57C254.405 92.4033 254.064 92.32 253.647 92.32C253.114 92.32 252.647 92.4366 252.247 92.67C251.864 92.8866 251.564 93.2033 251.347 93.62C251.13 94.0366 251.022 94.52 251.022 95.07V101.92H247.247ZM266.265 102.195C265.365 102.195 264.557 102.02 263.84 101.67C263.124 101.32 262.565 100.845 262.165 100.245C261.765 99.645 261.565 98.97 261.565 98.22C261.565 97.32 261.799 96.6116 262.265 96.095C262.732 95.5616 263.49 95.1866 264.54 94.97C265.59 94.7366 266.982 94.62 268.715 94.62H270.04V96.57H268.74C268.09 96.57 267.54 96.595 267.09 96.645C266.657 96.695 266.299 96.7866 266.015 96.92C265.732 97.0366 265.524 97.1866 265.39 97.37C265.274 97.5533 265.215 97.7866 265.215 98.07C265.215 98.5366 265.374 98.92 265.69 99.22C266.024 99.52 266.499 99.67 267.115 99.67C267.599 99.67 268.024 99.5616 268.39 99.345C268.774 99.1116 269.074 98.8033 269.29 98.42C269.507 98.02 269.615 97.57 269.615 97.07V94.195C269.615 93.4616 269.449 92.945 269.115 92.645C268.782 92.3283 268.215 92.17 267.415 92.17C266.749 92.17 266.04 92.2783 265.29 92.495C264.557 92.695 263.824 93.0033 263.09 93.42L262.065 90.895C262.499 90.595 263.024 90.3366 263.64 90.12C264.274 89.8866 264.932 89.7116 265.615 89.595C266.299 89.4616 266.949 89.395 267.565 89.395C268.849 89.395 269.899 89.5866 270.715 89.97C271.549 90.3366 272.174 90.9116 272.59 91.695C273.007 92.4616 273.215 93.4533 273.215 94.67V101.92H269.69V99.445H269.865C269.765 100.012 269.549 100.503 269.215 100.92C268.899 101.32 268.49 101.637 267.99 101.87C267.49 102.087 266.915 102.195 266.265 102.195ZM283.606 102.195C282.623 102.195 281.748 101.953 280.981 101.47C280.231 100.97 279.731 100.312 279.481 99.495H279.731V101.92H276.031V84.295H279.806V91.92H279.506C279.773 91.17 280.281 90.5616 281.031 90.095C281.781 89.6283 282.64 89.395 283.606 89.395C284.69 89.395 285.631 89.6533 286.431 90.17C287.231 90.6866 287.856 91.42 288.306 92.37C288.756 93.32 288.981 94.4533 288.981 95.77C288.981 97.0866 288.756 98.2283 288.306 99.195C287.856 100.162 287.223 100.903 286.406 101.42C285.606 101.937 284.673 102.195 283.606 102.195ZM282.481 99.37C283.281 99.37 283.931 99.0783 284.431 98.495C284.931 97.895 285.181 96.9866 285.181 95.77C285.181 94.5533 284.931 93.6616 284.431 93.095C283.931 92.5116 283.281 92.22 282.481 92.22C281.665 92.22 281.006 92.5116 280.506 93.095C280.006 93.6616 279.756 94.5533 279.756 95.77C279.756 96.9866 280.006 97.895 280.506 98.495C281.006 99.0783 281.665 99.37 282.481 99.37ZM295.865 102.195C294.282 102.195 293.123 101.787 292.39 100.97C291.657 100.137 291.29 98.9033 291.29 97.27V84.295H295.065V97.12C295.065 97.5366 295.132 97.9033 295.265 98.22C295.398 98.52 295.59 98.745 295.84 98.895C296.107 99.045 296.44 99.12 296.84 99.12C297.007 99.12 297.182 99.1116 297.365 99.095C297.548 99.0783 297.723 99.045 297.89 98.995L297.84 101.92C297.523 102.003 297.198 102.07 296.865 102.12C296.548 102.17 296.215 102.195 295.865 102.195ZM305.868 102.195C304.418 102.195 303.168 101.937 302.118 101.42C301.085 100.887 300.285 100.145 299.718 99.195C299.168 98.2283 298.893 97.095 298.893 95.795C298.893 94.5283 299.16 93.42 299.693 92.47C300.227 91.5033 300.968 90.7533 301.918 90.22C302.885 89.67 303.977 89.395 305.193 89.395C306.393 89.395 307.427 89.6533 308.293 90.17C309.16 90.67 309.827 91.3866 310.293 92.32C310.777 93.2533 311.018 94.3616 311.018 95.645V96.595H301.993V94.645H308.293L307.893 94.995C307.893 93.9783 307.668 93.2116 307.218 92.695C306.785 92.1616 306.16 91.895 305.343 91.895C304.727 91.895 304.202 92.0366 303.768 92.32C303.335 92.6033 303.002 93.0116 302.768 93.545C302.535 94.0783 302.418 94.72 302.418 95.47V95.67C302.418 96.52 302.543 97.22 302.793 97.77C303.06 98.3033 303.452 98.7033 303.968 98.97C304.502 99.2366 305.16 99.37 305.943 99.37C306.61 99.37 307.285 99.27 307.968 99.07C308.652 98.87 309.268 98.5616 309.818 98.145L310.818 100.67C310.202 101.137 309.443 101.512 308.543 101.795C307.66 102.062 306.768 102.195 305.868 102.195ZM328.672 102.195C327.372 102.195 326.18 101.978 325.097 101.545C324.03 101.112 323.114 100.495 322.347 99.695C321.58 98.895 320.989 97.9366 320.572 96.82C320.172 95.7033 319.972 94.4616 319.972 93.095C319.972 91.7116 320.172 90.47 320.572 89.37C320.989 88.2533 321.58 87.3033 322.347 86.52C323.114 85.72 324.03 85.1033 325.097 84.67C326.18 84.2366 327.372 84.02 328.672 84.02C329.989 84.02 331.18 84.2366 332.247 84.67C333.314 85.1033 334.23 85.7116 334.997 86.495C335.764 87.2783 336.355 88.2283 336.772 89.345C337.189 90.4616 337.397 91.7033 337.397 93.07C337.397 94.4533 337.189 95.7033 336.772 96.82C336.355 97.9366 335.764 98.895 334.997 99.695C334.23 100.495 333.314 101.112 332.247 101.545C331.18 101.978 329.989 102.195 328.672 102.195ZM328.672 98.895C329.672 98.895 330.514 98.67 331.197 98.22C331.88 97.7533 332.405 97.0866 332.772 96.22C333.155 95.3366 333.347 94.295 333.347 93.095C333.347 91.8783 333.164 90.8366 332.797 89.97C332.43 89.1033 331.897 88.445 331.197 87.995C330.497 87.545 329.655 87.32 328.672 87.32C327.705 87.32 326.872 87.545 326.172 87.995C325.472 88.445 324.939 89.1033 324.572 89.97C324.205 90.8366 324.022 91.8783 324.022 93.095C324.022 94.295 324.205 95.3366 324.572 96.22C324.939 97.0866 325.472 97.7533 326.172 98.22C326.872 98.67 327.705 98.895 328.672 98.895ZM340.069 101.92V89.645H343.769V92.645H343.519C343.719 91.645 344.153 90.8783 344.819 90.345C345.503 89.795 346.403 89.4783 347.519 89.395L348.619 89.32L348.844 92.495L346.719 92.72C345.769 92.8033 345.061 93.0783 344.594 93.545C344.144 94.0116 343.919 94.6866 343.919 95.57V101.92H340.069ZM356.052 106.695C354.886 106.695 353.786 106.57 352.752 106.32C351.719 106.07 350.819 105.678 350.052 105.145L351.077 102.57C351.527 102.837 352.011 103.07 352.527 103.27C353.061 103.47 353.602 103.62 354.152 103.72C354.702 103.82 355.227 103.87 355.727 103.87C356.794 103.87 357.594 103.628 358.127 103.145C358.661 102.662 358.927 101.92 358.927 100.92V99.02H359.152C358.902 99.7866 358.386 100.412 357.602 100.895C356.819 101.378 355.952 101.62 355.002 101.62C353.902 101.62 352.944 101.37 352.127 100.87C351.311 100.353 350.677 99.6366 350.227 98.72C349.777 97.7866 349.552 96.7116 349.552 95.495C349.552 94.2616 349.777 93.195 350.227 92.295C350.677 91.3783 351.311 90.67 352.127 90.17C352.944 89.6533 353.902 89.395 355.002 89.395C355.986 89.395 356.852 89.6366 357.602 90.12C358.369 90.5866 358.877 91.2033 359.127 91.97H358.927V89.645H362.602V100.495C362.602 101.862 362.352 103.003 361.852 103.92C361.352 104.853 360.611 105.545 359.627 105.995C358.661 106.462 357.469 106.695 356.052 106.695ZM356.127 98.795C356.961 98.795 357.627 98.5033 358.127 97.92C358.644 97.3366 358.902 96.5283 358.902 95.495C358.902 94.4616 358.644 93.6616 358.127 93.095C357.627 92.5116 356.961 92.22 356.127 92.22C355.277 92.22 354.602 92.5116 354.102 93.095C353.602 93.6616 353.352 94.4616 353.352 95.495C353.352 96.5283 353.602 97.3366 354.102 97.92C354.602 98.5033 355.277 98.795 356.127 98.795ZM369.683 102.195C368.783 102.195 367.975 102.02 367.258 101.67C366.542 101.32 365.983 100.845 365.583 100.245C365.183 99.645 364.983 98.97 364.983 98.22C364.983 97.32 365.217 96.6116 365.683 96.095C366.15 95.5616 366.908 95.1866 367.958 94.97C369.008 94.7366 370.4 94.62 372.133 94.62H373.458V96.57H372.158C371.508 96.57 370.958 96.595 370.508 96.645C370.075 96.695 369.717 96.7866 369.433 96.92C369.15 97.0366 368.942 97.1866 368.808 97.37C368.692 97.5533 368.633 97.7866 368.633 98.07C368.633 98.5366 368.792 98.92 369.108 99.22C369.442 99.52 369.917 99.67 370.533 99.67C371.017 99.67 371.442 99.5616 371.808 99.345C372.192 99.1116 372.492 98.8033 372.708 98.42C372.925 98.02 373.033 97.57 373.033 97.07V94.195C373.033 93.4616 372.867 92.945 372.533 92.645C372.2 92.3283 371.633 92.17 370.833 92.17C370.167 92.17 369.458 92.2783 368.708 92.495C367.975 92.695 367.242 93.0033 366.508 93.42L365.483 90.895C365.917 90.595 366.442 90.3366 367.058 90.12C367.692 89.8866 368.35 89.7116 369.033 89.595C369.717 89.4616 370.367 89.395 370.983 89.395C372.267 89.395 373.317 89.5866 374.133 89.97C374.967 90.3366 375.592 90.9116 376.008 91.695C376.425 92.4616 376.633 93.4533 376.633 94.67V101.92H373.108V99.445H373.283C373.183 100.012 372.967 100.503 372.633 100.92C372.317 101.32 371.908 101.637 371.408 101.87C370.908 102.087 370.333 102.195 369.683 102.195ZM379.449 101.92V89.645H383.149V91.945H382.874C383.258 91.1283 383.824 90.5033 384.574 90.07C385.341 89.62 386.208 89.395 387.174 89.395C388.158 89.395 388.966 89.5866 389.599 89.97C390.233 90.3366 390.708 90.9033 391.024 91.67C391.341 92.42 391.499 93.3783 391.499 94.545V101.92H387.724V94.72C387.724 94.1533 387.649 93.695 387.499 93.345C387.366 92.9783 387.158 92.72 386.874 92.57C386.608 92.4033 386.266 92.32 385.849 92.32C385.316 92.32 384.849 92.4366 384.449 92.67C384.066 92.8866 383.766 93.2033 383.549 93.62C383.333 94.0366 383.224 94.52 383.224 95.07V101.92H379.449ZM394.167 87.27V83.745H398.242V87.27H394.167ZM394.317 101.92V89.645H398.092V101.92H394.317ZM405.707 102.195C404.99 102.195 404.299 102.137 403.632 102.02C402.965 101.903 402.357 101.745 401.807 101.545C401.257 101.345 400.774 101.095 400.357 100.795L401.257 98.345C401.674 98.595 402.124 98.82 402.607 99.02C403.107 99.2033 403.624 99.345 404.157 99.445C404.69 99.545 405.215 99.595 405.732 99.595C406.449 99.595 406.965 99.4866 407.282 99.27C407.615 99.0366 407.782 98.7366 407.782 98.37C407.782 98.0366 407.674 97.7866 407.457 97.62C407.24 97.4533 406.924 97.3366 406.507 97.27L403.882 96.795C402.849 96.6116 402.049 96.2366 401.482 95.67C400.932 95.0866 400.657 94.345 400.657 93.445C400.657 92.6116 400.89 91.895 401.357 91.295C401.824 90.6783 402.465 90.2116 403.282 89.895C404.115 89.5616 405.057 89.395 406.107 89.395C406.707 89.395 407.29 89.445 407.857 89.545C408.424 89.645 408.957 89.795 409.457 89.995C409.974 90.195 410.432 90.4616 410.832 90.795L409.882 93.22C409.565 92.97 409.19 92.7533 408.757 92.57C408.324 92.3866 407.882 92.245 407.432 92.145C406.982 92.0283 406.557 91.97 406.157 91.97C405.407 91.97 404.865 92.095 404.532 92.345C404.199 92.5783 404.032 92.8783 404.032 93.245C404.032 93.5283 404.124 93.77 404.307 93.97C404.507 94.1533 404.807 94.2783 405.207 94.345L407.832 94.82C408.915 95.0033 409.74 95.37 410.307 95.92C410.874 96.4533 411.157 97.1866 411.157 98.12C411.157 98.97 410.932 99.7033 410.482 100.32C410.032 100.92 409.399 101.387 408.582 101.72C407.765 102.037 406.807 102.195 405.707 102.195ZM417.462 102.195C416.562 102.195 415.753 102.02 415.037 101.67C414.32 101.32 413.762 100.845 413.362 100.245C412.962 99.645 412.762 98.97 412.762 98.22C412.762 97.32 412.995 96.6116 413.462 96.095C413.928 95.5616 414.687 95.1866 415.737 94.97C416.787 94.7366 418.178 94.62 419.912 94.62H421.237V96.57H419.937C419.287 96.57 418.737 96.595 418.287 96.645C417.853 96.695 417.495 96.7866 417.212 96.92C416.928 97.0366 416.72 97.1866 416.587 97.37C416.47 97.5533 416.412 97.7866 416.412 98.07C416.412 98.5366 416.57 98.92 416.887 99.22C417.22 99.52 417.695 99.67 418.312 99.67C418.795 99.67 419.22 99.5616 419.587 99.345C419.97 99.1116 420.27 98.8033 420.487 98.42C420.703 98.02 420.812 97.57 420.812 97.07V94.195C420.812 93.4616 420.645 92.945 420.312 92.645C419.978 92.3283 419.412 92.17 418.612 92.17C417.945 92.17 417.237 92.2783 416.487 92.495C415.753 92.695 415.02 93.0033 414.287 93.42L413.262 90.895C413.695 90.595 414.22 90.3366 414.837 90.12C415.47 89.8866 416.128 89.7116 416.812 89.595C417.495 89.4616 418.145 89.395 418.762 89.395C420.045 89.395 421.095 89.5866 421.912 89.97C422.745 90.3366 423.37 90.9116 423.787 91.695C424.203 92.4616 424.412 93.4533 424.412 94.67V101.92H420.887V99.445H421.062C420.962 100.012 420.745 100.503 420.412 100.92C420.095 101.32 419.687 101.637 419.187 101.87C418.687 102.087 418.112 102.195 417.462 102.195ZM433.253 102.195C431.503 102.195 430.203 101.77 429.353 100.92C428.503 100.07 428.078 98.82 428.078 97.17V92.47H425.753V89.645H428.078V86.045H431.853V89.645H435.478V92.47H431.853V97.02C431.853 97.72 432.011 98.245 432.328 98.595C432.661 98.945 433.186 99.12 433.903 99.12C434.119 99.12 434.344 99.095 434.578 99.045C434.828 98.995 435.094 98.9283 435.378 98.845L435.928 101.595C435.578 101.778 435.161 101.92 434.678 102.02C434.194 102.137 433.719 102.195 433.253 102.195ZM437.185 87.27V83.745H441.26V87.27H437.185ZM437.335 101.92V89.645H441.11V101.92H437.335ZM449.924 102.195C448.608 102.195 447.458 101.937 446.474 101.42C445.508 100.903 444.758 100.162 444.224 99.195C443.691 98.2283 443.424 97.0866 443.424 95.77C443.424 94.4533 443.691 93.32 444.224 92.37C444.758 91.42 445.508 90.6866 446.474 90.17C447.458 89.6533 448.608 89.395 449.924 89.395C451.241 89.395 452.383 89.6533 453.349 90.17C454.333 90.6866 455.091 91.4283 455.624 92.395C456.174 93.345 456.449 94.47 456.449 95.77C456.449 97.0866 456.174 98.2283 455.624 99.195C455.091 100.162 454.333 100.903 453.349 101.42C452.383 101.937 451.241 102.195 449.924 102.195ZM449.924 99.37C450.741 99.37 451.399 99.0783 451.899 98.495C452.399 97.895 452.649 96.9866 452.649 95.77C452.649 94.5533 452.399 93.6616 451.899 93.095C451.399 92.5116 450.741 92.22 449.924 92.22C449.124 92.22 448.474 92.5116 447.974 93.095C447.474 93.6616 447.224 94.5533 447.224 95.77C447.224 96.9866 447.474 97.895 447.974 98.495C448.474 99.0783 449.124 99.37 449.924 99.37ZM458.746 101.92V89.645H462.446V91.945H462.171C462.554 91.1283 463.121 90.5033 463.871 90.07C464.638 89.62 465.504 89.395 466.471 89.395C467.454 89.395 468.263 89.5866 468.896 89.97C469.529 90.3366 470.004 90.9033 470.321 91.67C470.638 92.42 470.796 93.3783 470.796 94.545V101.92H467.021V94.72C467.021 94.1533 466.946 93.695 466.796 93.345C466.663 92.9783 466.454 92.72 466.171 92.57C465.904 92.4033 465.563 92.32 465.146 92.32C464.613 92.32 464.146 92.4366 463.746 92.67C463.363 92.8866 463.063 93.2033 462.846 93.62C462.629 94.0366 462.521 94.52 462.521 95.07V101.92H458.746ZM477.764 102.195C476.864 102.195 476.056 102.02 475.339 101.67C474.623 101.32 474.064 100.845 473.664 100.245C473.264 99.645 473.064 98.97 473.064 98.22C473.064 97.32 473.298 96.6116 473.764 96.095C474.231 95.5616 474.989 95.1866 476.039 94.97C477.089 94.7366 478.481 94.62 480.214 94.62H481.539V96.57H480.239C479.589 96.57 479.039 96.595 478.589 96.645C478.156 96.695 477.798 96.7866 477.514 96.92C477.231 97.0366 477.023 97.1866 476.889 97.37C476.773 97.5533 476.714 97.7866 476.714 98.07C476.714 98.5366 476.873 98.92 477.189 99.22C477.523 99.52 477.998 99.67 478.614 99.67C479.098 99.67 479.523 99.5616 479.889 99.345C480.273 99.1116 480.573 98.8033 480.789 98.42C481.006 98.02 481.114 97.57 481.114 97.07V94.195C481.114 93.4616 480.948 92.945 480.614 92.645C480.281 92.3283 479.714 92.17 478.914 92.17C478.248 92.17 477.539 92.2783 476.789 92.495C476.056 92.695 475.323 93.0033 474.589 93.42L473.564 90.895C473.998 90.595 474.523 90.3366 475.139 90.12C475.773 89.8866 476.431 89.7116 477.114 89.595C477.798 89.4616 478.448 89.395 479.064 89.395C480.348 89.395 481.398 89.5866 482.214 89.97C483.048 90.3366 483.673 90.9116 484.089 91.695C484.506 92.4616 484.714 93.4533 484.714 94.67V101.92H481.189V99.445H481.364C481.264 100.012 481.048 100.503 480.714 100.92C480.398 101.32 479.989 101.637 479.489 101.87C478.989 102.087 478.414 102.195 477.764 102.195ZM492.105 102.195C490.522 102.195 489.364 101.787 488.63 100.97C487.897 100.137 487.53 98.9033 487.53 97.27V84.295H491.305V97.12C491.305 97.5366 491.372 97.9033 491.505 98.22C491.639 98.52 491.83 98.745 492.08 98.895C492.347 99.045 492.68 99.12 493.08 99.12C493.247 99.12 493.422 99.1116 493.605 99.095C493.789 99.0783 493.964 99.045 494.13 98.995L494.08 101.92C493.764 102.003 493.439 102.07 493.105 102.12C492.789 102.17 492.455 102.195 492.105 102.195Z" fill="#003834"/>
<path d="M173.915 131.92V114.295H185.815V117.32H177.79V121.62H185.265V124.645H177.79V131.92H173.915ZM187.604 131.92V119.645H191.304V122.645H191.054C191.254 121.645 191.687 120.878 192.354 120.345C193.037 119.795 193.937 119.478 195.054 119.395L196.154 119.32L196.379 122.495L194.254 122.72C193.304 122.803 192.595 123.078 192.129 123.545C191.679 124.012 191.454 124.687 191.454 125.57V131.92H187.604ZM201.934 132.195C201.034 132.195 200.226 132.02 199.509 131.67C198.793 131.32 198.234 130.845 197.834 130.245C197.434 129.645 197.234 128.97 197.234 128.22C197.234 127.32 197.468 126.612 197.934 126.095C198.401 125.562 199.159 125.187 200.209 124.97C201.259 124.737 202.651 124.62 204.384 124.62H205.709V126.57H204.409C203.759 126.57 203.209 126.595 202.759 126.645C202.326 126.695 201.968 126.787 201.684 126.92C201.401 127.037 201.193 127.187 201.059 127.37C200.943 127.553 200.884 127.787 200.884 128.07C200.884 128.537 201.043 128.92 201.359 129.22C201.693 129.52 202.168 129.67 202.784 129.67C203.268 129.67 203.693 129.562 204.059 129.345C204.443 129.112 204.743 128.803 204.959 128.42C205.176 128.02 205.284 127.57 205.284 127.07V124.195C205.284 123.462 205.118 122.945 204.784 122.645C204.451 122.328 203.884 122.17 203.084 122.17C202.418 122.17 201.709 122.278 200.959 122.495C200.226 122.695 199.493 123.003 198.759 123.42L197.734 120.895C198.168 120.595 198.693 120.337 199.309 120.12C199.943 119.887 200.601 119.712 201.284 119.595C201.968 119.462 202.618 119.395 203.234 119.395C204.518 119.395 205.568 119.587 206.384 119.97C207.218 120.337 207.843 120.912 208.259 121.695C208.676 122.462 208.884 123.453 208.884 124.67V131.92H205.359V129.445H205.534C205.434 130.012 205.218 130.503 204.884 130.92C204.568 131.32 204.159 131.637 203.659 131.87C203.159 132.087 202.584 132.195 201.934 132.195ZM211.75 131.92V119.645H215.45V121.945H215.175C215.392 121.428 215.692 120.978 216.075 120.595C216.459 120.212 216.917 119.92 217.45 119.72C217.984 119.503 218.567 119.395 219.2 119.395C220.15 119.395 220.942 119.62 221.575 120.07C222.209 120.52 222.659 121.212 222.925 122.145H222.575C222.942 121.295 223.5 120.628 224.25 120.145C225.017 119.645 225.892 119.395 226.875 119.395C227.825 119.395 228.6 119.587 229.2 119.97C229.817 120.337 230.275 120.903 230.575 121.67C230.875 122.42 231.025 123.378 231.025 124.545V131.92H227.25V124.67C227.25 123.853 227.117 123.262 226.85 122.895C226.6 122.512 226.167 122.32 225.55 122.32C225.084 122.32 224.675 122.437 224.325 122.67C223.975 122.887 223.709 123.212 223.525 123.645C223.359 124.062 223.275 124.578 223.275 125.195V131.92H219.5V124.67C219.5 123.853 219.367 123.262 219.1 122.895C218.85 122.512 218.417 122.32 217.8 122.32C217.317 122.32 216.909 122.437 216.575 122.67C216.242 122.887 215.984 123.212 215.8 123.645C215.617 124.062 215.525 124.578 215.525 125.195V131.92H211.75ZM240.292 132.195C238.842 132.195 237.592 131.937 236.542 131.42C235.509 130.887 234.709 130.145 234.142 129.195C233.592 128.228 233.317 127.095 233.317 125.795C233.317 124.528 233.584 123.42 234.117 122.47C234.65 121.503 235.392 120.753 236.342 120.22C237.309 119.67 238.4 119.395 239.617 119.395C240.817 119.395 241.85 119.653 242.717 120.17C243.584 120.67 244.25 121.387 244.717 122.32C245.2 123.253 245.442 124.362 245.442 125.645V126.595H236.417V124.645H242.717L242.317 124.995C242.317 123.978 242.092 123.212 241.642 122.695C241.209 122.162 240.584 121.895 239.767 121.895C239.15 121.895 238.625 122.037 238.192 122.32C237.759 122.603 237.425 123.012 237.192 123.545C236.959 124.078 236.842 124.72 236.842 125.47V125.67C236.842 126.52 236.967 127.22 237.217 127.77C237.484 128.303 237.875 128.703 238.392 128.97C238.925 129.237 239.584 129.37 240.367 129.37C241.034 129.37 241.709 129.27 242.392 129.07C243.075 128.87 243.692 128.562 244.242 128.145L245.242 130.67C244.625 131.137 243.867 131.512 242.967 131.795C242.084 132.062 241.192 132.195 240.292 132.195ZM250.893 131.92L245.893 119.645H249.718L252.943 128.27H252.368L255.568 119.645H258.068L261.243 128.27H260.768L263.918 119.645H267.543L262.593 131.92H259.393L255.868 122.82H257.493L254.068 131.92H250.893ZM274.558 132.195C273.242 132.195 272.092 131.937 271.108 131.42C270.142 130.903 269.392 130.162 268.858 129.195C268.325 128.228 268.058 127.087 268.058 125.77C268.058 124.453 268.325 123.32 268.858 122.37C269.392 121.42 270.142 120.687 271.108 120.17C272.092 119.653 273.242 119.395 274.558 119.395C275.875 119.395 277.017 119.653 277.983 120.17C278.967 120.687 279.725 121.428 280.258 122.395C280.808 123.345 281.083 124.47 281.083 125.77C281.083 127.087 280.808 128.228 280.258 129.195C279.725 130.162 278.967 130.903 277.983 131.42C277.017 131.937 275.875 132.195 274.558 132.195ZM274.558 129.37C275.375 129.37 276.033 129.078 276.533 128.495C277.033 127.895 277.283 126.987 277.283 125.77C277.283 124.553 277.033 123.662 276.533 123.095C276.033 122.512 275.375 122.22 274.558 122.22C273.758 122.22 273.108 122.512 272.608 123.095C272.108 123.662 271.858 124.553 271.858 125.77C271.858 126.987 272.108 127.895 272.608 128.495C273.108 129.078 273.758 129.37 274.558 129.37ZM283.38 131.92V119.645H287.08V122.645H286.83C287.03 121.645 287.463 120.878 288.13 120.345C288.813 119.795 289.713 119.478 290.83 119.395L291.93 119.32L292.155 122.495L290.03 122.72C289.08 122.803 288.372 123.078 287.905 123.545C287.455 124.012 287.23 124.687 287.23 125.57V131.92H283.38ZM293.683 131.92V114.295H297.458V124.72H297.508L302.033 119.645H306.508L300.683 126.22V124.795L306.758 131.92H302.208L297.508 126.62H297.458V131.92H293.683ZM315.531 131.92V122.47H313.206V119.645H316.631L315.531 120.645V119.87C315.531 118.053 316.014 116.695 316.981 115.795C317.948 114.878 319.456 114.362 321.506 114.245L322.881 114.145L323.106 116.895L321.931 116.97C321.281 117.003 320.764 117.112 320.381 117.295C319.998 117.462 319.723 117.703 319.556 118.02C319.389 118.32 319.306 118.72 319.306 119.22V120.07L318.831 119.645H322.506V122.47H319.306V131.92H315.531ZM329.734 132.195C328.417 132.195 327.267 131.937 326.284 131.42C325.317 130.903 324.567 130.162 324.034 129.195C323.501 128.228 323.234 127.087 323.234 125.77C323.234 124.453 323.501 123.32 324.034 122.37C324.567 121.42 325.317 120.687 326.284 120.17C327.267 119.653 328.417 119.395 329.734 119.395C331.051 119.395 332.192 119.653 333.159 120.17C334.142 120.687 334.901 121.428 335.434 122.395C335.984 123.345 336.259 124.47 336.259 125.77C336.259 127.087 335.984 128.228 335.434 129.195C334.901 130.162 334.142 130.903 333.159 131.42C332.192 131.937 331.051 132.195 329.734 132.195ZM329.734 129.37C330.551 129.37 331.209 129.078 331.709 128.495C332.209 127.895 332.459 126.987 332.459 125.77C332.459 124.553 332.209 123.662 331.709 123.095C331.209 122.512 330.551 122.22 329.734 122.22C328.934 122.22 328.284 122.512 327.784 123.095C327.284 123.662 327.034 124.553 327.034 125.77C327.034 126.987 327.284 127.895 327.784 128.495C328.284 129.078 328.934 129.37 329.734 129.37ZM338.556 131.92V119.645H342.256V122.645H342.006C342.206 121.645 342.639 120.878 343.306 120.345C343.989 119.795 344.889 119.478 346.006 119.395L347.106 119.32L347.331 122.495L345.206 122.72C344.256 122.803 343.547 123.078 343.081 123.545C342.631 124.012 342.406 124.687 342.406 125.57V131.92H338.556ZM360.341 131.92V117.495H354.516V114.295H370.041V117.495H364.216V131.92H360.341ZM376.01 132.195C374.56 132.195 373.31 131.937 372.26 131.42C371.226 130.887 370.426 130.145 369.86 129.195C369.31 128.228 369.035 127.095 369.035 125.795C369.035 124.528 369.301 123.42 369.835 122.47C370.368 121.503 371.11 120.753 372.06 120.22C373.026 119.67 374.118 119.395 375.335 119.395C376.535 119.395 377.568 119.653 378.435 120.17C379.301 120.67 379.968 121.387 380.435 122.32C380.918 123.253 381.16 124.362 381.16 125.645V126.595H372.135V124.645H378.435L378.035 124.995C378.035 123.978 377.81 123.212 377.36 122.695C376.926 122.162 376.301 121.895 375.485 121.895C374.868 121.895 374.343 122.037 373.91 122.32C373.476 122.603 373.143 123.012 372.91 123.545C372.676 124.078 372.56 124.72 372.56 125.47V125.67C372.56 126.52 372.685 127.22 372.935 127.77C373.201 128.303 373.593 128.703 374.11 128.97C374.643 129.237 375.301 129.37 376.085 129.37C376.751 129.37 377.426 129.27 378.11 129.07C378.793 128.87 379.41 128.562 379.96 128.145L380.96 130.67C380.343 131.137 379.585 131.512 378.685 131.795C377.801 132.062 376.91 132.195 376.01 132.195ZM389.331 132.195C387.997 132.195 386.831 131.937 385.831 131.42C384.847 130.887 384.089 130.137 383.556 129.17C383.022 128.203 382.756 127.062 382.756 125.745C382.756 124.428 383.022 123.295 383.556 122.345C384.089 121.395 384.847 120.67 385.831 120.17C386.831 119.653 387.997 119.395 389.331 119.395C390.131 119.395 390.922 119.512 391.706 119.745C392.506 119.978 393.156 120.312 393.656 120.745L392.606 123.345C392.206 123.012 391.739 122.753 391.206 122.57C390.672 122.37 390.172 122.27 389.706 122.27C388.722 122.27 387.956 122.578 387.406 123.195C386.872 123.795 386.606 124.653 386.606 125.77C386.606 126.87 386.872 127.737 387.406 128.37C387.956 128.987 388.722 129.295 389.706 129.295C390.172 129.295 390.672 129.203 391.206 129.02C391.739 128.837 392.206 128.57 392.606 128.22L393.656 130.82C393.156 131.237 392.506 131.57 391.706 131.82C390.906 132.07 390.114 132.195 389.331 132.195ZM395.294 131.92V114.295H399.069V121.945H398.719C399.102 121.128 399.669 120.503 400.419 120.07C401.186 119.62 402.052 119.395 403.019 119.395C404.002 119.395 404.811 119.587 405.444 119.97C406.077 120.337 406.552 120.903 406.869 121.67C407.186 122.42 407.344 123.378 407.344 124.545V131.92H403.569V124.72C403.569 124.153 403.494 123.695 403.344 123.345C403.211 122.978 403.002 122.72 402.719 122.57C402.452 122.403 402.111 122.32 401.694 122.32C401.161 122.32 400.694 122.437 400.294 122.67C399.911 122.887 399.611 123.203 399.394 123.62C399.177 124.037 399.069 124.52 399.069 125.07V131.92H395.294ZM410.162 131.92V119.645H413.862V121.945H413.587C413.97 121.128 414.537 120.503 415.287 120.07C416.054 119.62 416.92 119.395 417.887 119.395C418.87 119.395 419.679 119.587 420.312 119.97C420.945 120.337 421.42 120.903 421.737 121.67C422.054 122.42 422.212 123.378 422.212 124.545V131.92H418.437V124.72C418.437 124.153 418.362 123.695 418.212 123.345C418.079 122.978 417.87 122.72 417.587 122.57C417.32 122.403 416.979 122.32 416.562 122.32C416.029 122.32 415.562 122.437 415.162 122.67C414.779 122.887 414.479 123.203 414.262 123.62C414.045 124.037 413.937 124.52 413.937 125.07V131.92H410.162ZM430.93 132.195C429.614 132.195 428.464 131.937 427.48 131.42C426.514 130.903 425.764 130.162 425.23 129.195C424.697 128.228 424.43 127.087 424.43 125.77C424.43 124.453 424.697 123.32 425.23 122.37C425.764 121.42 426.514 120.687 427.48 120.17C428.464 119.653 429.614 119.395 430.93 119.395C432.247 119.395 433.389 119.653 434.355 120.17C435.339 120.687 436.097 121.428 436.63 122.395C437.18 123.345 437.455 124.47 437.455 125.77C437.455 127.087 437.18 128.228 436.63 129.195C436.097 130.162 435.339 130.903 434.355 131.42C433.389 131.937 432.247 132.195 430.93 132.195ZM430.93 129.37C431.747 129.37 432.405 129.078 432.905 128.495C433.405 127.895 433.655 126.987 433.655 125.77C433.655 124.553 433.405 123.662 432.905 123.095C432.405 122.512 431.747 122.22 430.93 122.22C430.13 122.22 429.48 122.512 428.98 123.095C428.48 123.662 428.23 124.553 428.23 125.77C428.23 126.987 428.48 127.895 428.98 128.495C429.48 129.078 430.13 129.37 430.93 129.37ZM444.327 132.195C442.744 132.195 441.585 131.787 440.852 130.97C440.119 130.137 439.752 128.903 439.752 127.27V114.295H443.527V127.12C443.527 127.537 443.594 127.903 443.727 128.22C443.86 128.52 444.052 128.745 444.302 128.895C444.569 129.045 444.902 129.12 445.302 129.12C445.469 129.12 445.644 129.112 445.827 129.095C446.01 129.078 446.185 129.045 446.352 128.995L446.302 131.92C445.985 132.003 445.66 132.07 445.327 132.12C445.01 132.17 444.677 132.195 444.327 132.195ZM453.855 132.195C452.538 132.195 451.388 131.937 450.405 131.42C449.438 130.903 448.688 130.162 448.155 129.195C447.622 128.228 447.355 127.087 447.355 125.77C447.355 124.453 447.622 123.32 448.155 122.37C448.688 121.42 449.438 120.687 450.405 120.17C451.388 119.653 452.538 119.395 453.855 119.395C455.172 119.395 456.313 119.653 457.28 120.17C458.263 120.687 459.022 121.428 459.555 122.395C460.105 123.345 460.38 124.47 460.38 125.77C460.38 127.087 460.105 128.228 459.555 129.195C459.022 130.162 458.263 130.903 457.28 131.42C456.313 131.937 455.172 132.195 453.855 132.195ZM453.855 129.37C454.672 129.37 455.33 129.078 455.83 128.495C456.33 127.895 456.58 126.987 456.58 125.77C456.58 124.553 456.33 123.662 455.83 123.095C455.33 122.512 454.672 122.22 453.855 122.22C453.055 122.22 452.405 122.512 451.905 123.095C451.405 123.662 451.155 124.553 451.155 125.77C451.155 126.987 451.405 127.895 451.905 128.495C452.405 129.078 453.055 129.37 453.855 129.37ZM468.577 136.695C467.41 136.695 466.31 136.57 465.277 136.32C464.243 136.07 463.343 135.678 462.577 135.145L463.602 132.57C464.052 132.837 464.535 133.07 465.052 133.27C465.585 133.47 466.127 133.62 466.677 133.72C467.227 133.82 467.752 133.87 468.252 133.87C469.318 133.87 470.118 133.628 470.652 133.145C471.185 132.662 471.452 131.92 471.452 130.92V129.02H471.677C471.427 129.787 470.91 130.412 470.127 130.895C469.343 131.378 468.477 131.62 467.527 131.62C466.427 131.62 465.468 131.37 464.652 130.87C463.835 130.353 463.202 129.637 462.752 128.72C462.302 127.787 462.077 126.712 462.077 125.495C462.077 124.262 462.302 123.195 462.752 122.295C463.202 121.378 463.835 120.67 464.652 120.17C465.468 119.653 466.427 119.395 467.527 119.395C468.51 119.395 469.377 119.637 470.127 120.12C470.893 120.587 471.402 121.203 471.652 121.97H471.452V119.645H475.127V130.495C475.127 131.862 474.877 133.003 474.377 133.92C473.877 134.853 473.135 135.545 472.152 135.995C471.185 136.462 469.993 136.695 468.577 136.695ZM468.652 128.795C469.485 128.795 470.152 128.503 470.652 127.92C471.168 127.337 471.427 126.528 471.427 125.495C471.427 124.462 471.168 123.662 470.652 123.095C470.152 122.512 469.485 122.22 468.652 122.22C467.802 122.22 467.127 122.512 466.627 123.095C466.127 123.662 465.877 124.462 465.877 125.495C465.877 126.528 466.127 127.337 466.627 127.92C467.127 128.503 467.802 128.795 468.652 128.795ZM479.008 136.42L481.708 130.495V132.045L476.308 119.645H480.283L483.758 128.445H482.958L486.533 119.645H490.283L482.858 136.42H479.008Z" fill="#003834"/>
</svg>
