<svg xmlns="http://www.w3.org/2000/svg" width="78" height="73" fill="none" viewBox="0 0 78 73"><path fill="#aecc53" d="M45.2 29.576c-.547 0-1.072.217-1.458.601a2.05 2.05 0 0 0 0 2.903c.386.385.911.601 1.458.601h10.56c.175.96.263 1.932.264 2.907a12.5 12.5 0 0 1-.317 2.565H45.2a2.07 2.07 0 0 0-1.399.634 2.05 2.05 0 0 0 0 2.84c.367.383.868.61 1.399.635h9.296c-.613 1.714-1.378 3.561-2.237 5.471h-7.06a2.07 2.07 0 0 0-1.457.601 2.047 2.047 0 0 0 0 2.903c.386.385.911.601 1.458.601h5.113c-.895 1.847-1.87 3.695-2.823 5.476H45.2c-.547 0-1.072.216-1.458.601a2.05 2.05 0 0 0 0 2.903c.386.384.911.6 1.458.6h.045a279 279 0 0 1-5.717 9.75s-2.59-4.162-5.717-9.75h.044c.547 0 1.072-.216 1.459-.6a2.05 2.05 0 0 0 0-2.903 2.07 2.07 0 0 0-1.459-.601h-2.294a180 180 0 0 1-2.819-5.476h5.113c.547 0 1.072-.216 1.459-.601a2.05 2.05 0 0 0 0-2.903 2.07 2.07 0 0 0-1.459-.6h-7.063c-.859-1.906-1.624-3.758-2.237-5.472h9.3a2.07 2.07 0 0 0 1.4-.635 2.05 2.05 0 0 0 0-2.84 2.07 2.07 0 0 0-1.4-.634H23.344a12.8 12.8 0 0 1-.318-2.565c.002-.975.09-1.948.264-2.907h10.566c.547 0 1.072-.216 1.459-.601a2.05 2.05 0 0 0 0-2.902 2.07 2.07 0 0 0-1.459-.602h-9.25a16.45 16.45 0 0 1 6.089-6.858 16.56 16.56 0 0 1 8.831-2.55c3.128 0 6.19.885 8.832 2.55a16.45 16.45 0 0 1 6.09 6.858zM16.527 16.077a1.08 1.08 0 0 0-.796-.202 1.066 1.066 0 0 0-.48 1.917l4.414 3.282a8.5 8.5 0 0 1-.793 1.297 6.5 6.5 0 0 1-.93.973l-4.39-3.265a1.08 1.08 0 0 0-.782-.17 1.069 1.069 0 0 0-.495 1.887l3.884 2.888a39 39 0 0 1-2.635 1.592l-2.95-2.193a1.08 1.08 0 0 0-.796-.202 1.066 1.066 0 0 0-.48 1.917l2.138 1.589c-.948.494-1.93.963-2.881 1.411l-.958-.712a1.08 1.08 0 0 0-.796-.202 1.067 1.067 0 0 0-.48 1.918l.02.014C3.296 31.178.92 32.114.92 32.114s.212-2.545.641-5.851l.019.014c.229.17.515.242.796.202a1.067 1.067 0 0 0 .48-1.918l-.96-.713a97 97 0 0 1 .524-3.164l2.137 1.589c.229.17.515.242.796.202a1.066 1.066 0 0 0 .48-1.918l-2.952-2.194a39 39 0 0 1 .765-2.982l3.887 2.89a1.068 1.068 0 0 0 1.277-1.717l-4.394-3.267q.274-.62.664-1.17a8.5 8.5 0 0 1 1.014-1.133l4.416 3.283c.228.17.515.243.796.202a1.066 1.066 0 0 0 .48-1.917L7.92 9.677a8.57 8.57 0 0 1 4.676-.974 8.62 8.62 0 0 1 7.381 5.489 8.57 8.57 0 0 1 .414 4.758zm44.946 0c.228-.17.515-.243.796-.202a1.066 1.066 0 0 1 .902 1.213 1.08 1.08 0 0 1-.423.704l-4.413 3.282q.338.684.792 1.297.415.535.93.973l4.391-3.265a1.069 1.069 0 0 1 1.277 1.717l-3.884 2.888c.788.526 1.682 1.06 2.634 1.592l2.95-2.193c.229-.17.515-.243.797-.202a1.066 1.066 0 0 1 .479 1.917l-2.137 1.589c.948.494 1.93.963 2.881 1.411l.958-.712c.228-.17.514-.242.796-.202a1.066 1.066 0 0 1 .479 1.918l-.019.014a145 145 0 0 0 5.419 2.298s-.211-2.545-.64-5.851l-.02.014a1.067 1.067 0 1 1-1.275-1.715l.96-.714a97 97 0 0 0-.524-3.164l-2.137 1.589a1.08 1.08 0 0 1-.796.202 1.066 1.066 0 0 1-.48-1.918l2.952-2.194a39 39 0 0 0-.765-2.982l-3.887 2.89a1.068 1.068 0 0 1-1.277-1.717l4.394-3.267a6.6 6.6 0 0 0-.665-1.17 8.5 8.5 0 0 0-1.013-1.133l-4.416 3.283c-.228.17-.515.243-.796.202a1.066 1.066 0 0 1-.902-1.213c.042-.281.194-.534.423-.704l3.866-2.875a8.57 8.57 0 0 0-4.676-.974 8.62 8.62 0 0 0-7.382 5.489 8.57 8.57 0 0 0-.413 4.758zM45.026 6.964a6 6 0 1 0-12 0 6 6 0 0 0 12 0"/></svg>