<svg xmlns="http://www.w3.org/2000/svg" xmlns:xlink="http://www.w3.org/1999/xlink" id="text" viewBox="0 0 500 500"><defs><linearGradient id="linear-gradient" x1="210.88" x2="210.88" y1="338.15" y2="9.03" gradientUnits="userSpaceOnUse"><stop offset="0" stop-color="#cee098"/><stop offset=".12" stop-color="#c5db96"/><stop offset=".32" stop-color="#accd94"/><stop offset=".57" stop-color="#85b78f"/><stop offset=".86" stop-color="#4e9989"/><stop offset="1" stop-color="#338a86"/></linearGradient><linearGradient id="linear-gradient1" x1="382.96" x2="382.96" y1="445.04" y2="185.97" gradientUnits="userSpaceOnUse"><stop offset="0" stop-color="#338a86"/><stop offset=".59" stop-color="#003834"/></linearGradient><linearGradient xlink:href="#linear-gradient1" id="linear-gradient2" x1="56.55" x2="131.6" y1="100.52" y2="100.52"/><radialGradient id="radial-gradient" cx="-4146.22" cy="385.86" r="249.88" fx="-4146.22" fy="385.86" gradientTransform="matrix(-1 0 0 1 -3967.82 0)" gradientUnits="userSpaceOnUse"><stop offset="0" stop-color="#bed675"/><stop offset=".43" stop-color="#5d9361"/><stop offset=".86" stop-color="#00544f"/></radialGradient><style>.st2{stroke-width:5.19px}.st2,.st3,.st5{fill:none}.st2,.st3{stroke-miterlimit:10;stroke:#fff}.st3{stroke-width:6.28px}.st5{stroke-linecap:round;stroke-linejoin:round;stroke:#00544f;stroke-width:3.75px}.st13{fill:#00544f}.st14{fill:#fff}</style></defs><path d="M85.28 498.74c3.7-30.49 14.42-60.62 32.71-88.03 63.14-94.65 192.3-121.01 288.49-58.89 53.42 34.5 85.42 89.03 92.52 146.92z" style="fill:url(#radial-gradient)"/><path d="M374.65 277.78H203.86c-14.7 0-26.6 11.97-26.52 26.67l.06 11.2c.12 20.64-25.43 30.37-39.07 14.89l-38.56-43.77a26.53 26.53 0 0 0-19.9-8.99H47.1c-21.04 0-38.1-17.06-38.1-38.1V47.13c0-21.04 17.06-38.1 38.1-38.1h327.54c21.04 0 38.1 17.06 38.1 38.1v192.54c0 21.04-17.06 38.1-38.1 38.1Z" style="fill:url(#linear-gradient)"/><path d="M154.27 121.24h211.61" class="st2"/><path d="M55.88 166.24h310" class="st3"/><path d="M154.27 76.24h211.61" class="st2"/><path d="M55.88 211.24h310" class="st3"/><rect width="62.5" height="43.4" x="213.02" y="360.15" rx="8.79" ry="8.79" style="fill:none;stroke-miterlimit:10;stroke:#fff;stroke-linecap:round;stroke-width:2.5px"/><path d="m255.07 385.12-15.42 6.38c-2.33.96-4.89-.75-4.89-3.27v-12.75c0-2.52 2.56-4.23 4.89-3.27l15.42 6.38c2.91 1.2 2.91 5.33 0 6.53" class="st14"/><path d="M98.02 256.24h28.12m-28.12 58.75h28.12" style="fill:none;stroke-dasharray:0 56.25;stroke-linecap:round;stroke-linejoin:round;stroke:#6fafac;stroke-width:20px"/><path d="M419.89 78.11c12.43 0 22.5 10.07 22.5 22.5s-10.07 22.5-22.5 22.5" style="fill:none;stroke-miterlimit:10;stroke:#6fafac;stroke-width:12.5px"/><path d="M197.39 467.86v-39.59" class="st5"/><path d="M207.83 428.8c0-5.76-4.67-10.43-10.43-10.43s-10.43 4.67-10.43 10.43 4.67 10.43 10.43 10.43 10.43-4.67 10.43-10.43" class="st13"/><path d="M166.49 467.86v-62.47" class="st5"/><path d="M176.93 405.91c0-5.76-4.67-10.43-10.43-10.43s-10.43 4.67-10.43 10.43 4.67 10.43 10.43 10.43 10.43-4.67 10.43-10.43" class="st13"/><path d="M248.85 468.9h49.79m-162.14 0h96.04" class="st5"/><path d="M439.21 445.04H326.69c-7.76 0-14.06-6.06-14.06-13.55V199.51c0-7.48 6.29-13.55 14.06-13.55h112.52c7.76 0 14.06 6.06 14.06 13.55v231.98c0 7.48-6.29 13.55-14.06 13.55" style="fill:url(#linear-gradient1)"/><path d="M435.51 179.62H329.3c-11.1 0-20.18 9.08-20.18 20.18v231.41c0 11.1 9.08 20.18 20.18 20.18h106.21c11.1 0 20.18-9.08 20.18-20.18V199.8c0-11.1-9.08-20.18-20.18-20.18m15.73 247.45c0 9.58-7.84 17.42-17.42 17.42H330.99c-9.58 0-17.42-7.84-17.42-17.42V203.95c0-2.4.49-4.68 1.37-6.77 2.65-6.25 8.86-10.66 16.05-10.66h102.83c7.19 0 13.39 4.41 16.05 10.66.88 2.08 1.37 4.37 1.37 6.77z" class="st14"/><circle cx="382.4" cy="195.69" r="3.91" style="fill:#338a86"/><path d="M362.4 435.61h40" style="fill:none;stroke:#fff;stroke-linecap:round;stroke-linejoin:round;stroke-width:1.41px"/><rect width="114.94" height="83.94" x="325.52" y="229.88" rx="9" ry="9" style="fill:#006d68"/><path d="M363.84 284.54v-13.19c0-.15-.04-.3-.12-.43l-1.39-2.34 1.39-2.34c.08-.13.12-.28.12-.43v-13.19c0-.94.76-1.7 1.7-1.7h7v-1.68h-7c-1.86 0-3.38 1.52-3.38 3.38v12.96l-1.53 2.57a.83.83 0 0 0 0 .86l1.53 2.57v12.96c0 1.86 1.52 3.38 3.38 3.38h7v-1.68h-7c-.94 0-1.7-.76-1.7-1.7m39.97-18.95v-12.96c0-1.86-1.52-3.38-3.38-3.38h-7v1.68h7c.94 0 1.7.76 1.7 1.7v13.19c0 .15.04.3.12.43l1.39 2.34-1.39 2.34c-.08.13-.12.28-.12.43v13.19c0 .94-.76 1.7-1.7 1.7h-7v1.68h7c1.86 0 3.38-1.52 3.38-3.38v-12.96l1.53-2.57a.83.83 0 0 0 0-.86z" style="fill:#aecc53"/><path d="M395.61 275.03a2.52 2.52 0 0 0 2.09-2.22c.14-1.38-.87-2.62-2.25-2.76s-2.62.87-2.76 2.25c-.08.81.23 1.55.78 2.07-1.59 3.83-5.18 6.54-9.35 6.96v-10.7c2.86-.35 5.42-2 6.93-4.42a2.514 2.514 0 0 0 .33-5 2.513 2.513 0 0 0-2.36 4.04 7.33 7.33 0 0 1-4.9 3.13v-10.46c.83-.41 1.4-1.26 1.4-2.25 0-1.39-1.13-2.52-2.52-2.52s-2.52 1.13-2.52 2.52c0 .99.57 1.84 1.4 2.25v10.46c-2-.32-3.78-1.47-4.91-3.13.41-.53.62-1.22.51-1.93a2.518 2.518 0 1 0-4.98.76 2.514 2.514 0 0 0 2.44 2.13 9.6 9.6 0 0 0 6.94 4.42v10.7c-4.18-.41-7.77-3.13-9.36-6.96.54-.52.86-1.27.78-2.07a2.52 2.52 0 0 0-2.76-2.25 2.52 2.52 0 0 0-2.25 2.76c.12 1.15 1 2.03 2.09 2.22 1.88 4.76 6.34 8.12 11.51 8.54v10.88h2.23v-10.88c5.16-.43 9.62-3.79 11.5-8.54Z" class="st14"/><path d="M325.52 337.38h115m-115 41.25h115m-49.16-20.62h49.16m-115 0h43.61" style="fill:none;stroke-miterlimit:10;stroke:#338a86;stroke-width:7.5px"/><path d="m99.42 67.96 2.21 8.74c.84 3.33 4.49 5.09 7.62 3.67l8.21-3.72c5.21-2.36 10.13 3.8 6.67 8.36l-5.46 7.18c-2.08 2.74-1.18 6.69 1.88 8.25l8.03 4.1c5.1 2.6 3.34 10.29-2.38 10.42l-9.02.21c-3.43.08-5.96 3.25-5.27 6.61l1.8 8.84c1.14 5.61-5.96 9.03-9.63 4.64l-5.78-6.92c-2.2-2.64-6.26-2.64-8.46 0l-5.78 6.92c-3.67 4.39-10.78.97-9.63-4.64l1.8-8.84c.69-3.37-1.84-6.53-5.27-6.61l-9.02-.21c-5.72-.13-7.48-7.82-2.38-10.42l8.03-4.1c3.06-1.56 3.96-5.51 1.88-8.25l-5.46-7.18c-3.46-4.56 1.45-10.72 6.67-8.36l8.21 3.72c3.13 1.42 6.78-.34 7.62-3.67l2.21-8.74c1.4-5.55 9.29-5.55 10.69 0Z" style="fill:url(#linear-gradient2)"/></svg>