<?xml version="1.0" encoding="UTF-8"?>
<svg id="text" xmlns="http://www.w3.org/2000/svg" xmlns:xlink="http://www.w3.org/1999/xlink" version="1.1" viewBox="0 0 500 500">
  <!-- Generator: Adobe Illustrator 30.2.1, SVG Export Plug-In . SVG Version: 2.1.1 Build 1)  -->
  <defs>
    <style>
      .st0 {
        fill: url(#linear-gradient2);
      }

      .st1 {
        fill: url(#linear-gradient1);
      }

      .st2 {
        stroke-width: 5.19px;
      }

      .st2, .st3, .st4, .st5, .st6, .st7, .st8, .st9, .st10 {
        fill: none;
      }

      .st2, .st3, .st6, .st8, .st10 {
        stroke-miterlimit: 10;
      }

      .st2, .st3, .st7, .st8 {
        stroke: #fff;
      }

      .st3 {
        stroke-width: 6.28px;
      }

      .st4 {
        stroke-dasharray: 0 56.25;
      }

      .st4, .st5, .st7, .st8, .st9 {
        stroke-linecap: round;
      }

      .st4, .st5, .st7, .st9 {
        stroke-linejoin: round;
      }

      .st4, .st6, .st9 {
        stroke: #6fafac;
      }

      .st4, .st9 {
        stroke-width: 20px;
      }

      .st11 {
        fill: url(#radial-gradient);
      }

      .st12 {
        fill: url(#linear-gradient);
      }

      .st5 {
        stroke: #00544f;
        stroke-width: 3.75px;
      }

      .st13 {
        fill: #00544f;
      }

      .st6 {
        stroke-width: 12.5px;
      }

      .st7 {
        stroke-width: 1.41px;
      }

      .st14 {
        fill: #fff;
      }

      .st15 {
        fill: #338a86;
      }

      .st8 {
        stroke-width: 2.5px;
      }

      .st16 {
        fill: #aecc53;
      }

      .st17 {
        fill: #006d68;
      }

      .st10 {
        stroke: #338a86;
        stroke-width: 7.5px;
      }
    </style>
    <radialGradient id="radial-gradient" cx="-4146.22" cy="385.86" fx="-4146.22" fy="385.86" r="249.88" gradientTransform="translate(-3967.82) rotate(-180) scale(1 -1)" gradientUnits="userSpaceOnUse">
      <stop offset="0" stop-color="#bed675"/>
      <stop offset=".43" stop-color="#5d9361"/>
      <stop offset=".86" stop-color="#00544f"/>
    </radialGradient>
    <linearGradient id="linear-gradient" x1="210.88" y1="338.15" x2="210.88" y2="9.03" gradientUnits="userSpaceOnUse">
      <stop offset="0" stop-color="#cee098"/>
      <stop offset=".12" stop-color="#c5db96"/>
      <stop offset=".32" stop-color="#accd94"/>
      <stop offset=".57" stop-color="#85b78f"/>
      <stop offset=".86" stop-color="#4e9989"/>
      <stop offset="1" stop-color="#338a86"/>
    </linearGradient>
    <linearGradient id="linear-gradient1" x1="382.96" y1="445.04" x2="382.96" y2="185.97" gradientUnits="userSpaceOnUse">
      <stop offset="0" stop-color="#338a86"/>
      <stop offset=".59" stop-color="#003834"/>
    </linearGradient>
    <linearGradient id="linear-gradient2" x1="56.55" y1="100.52" x2="131.6" y2="100.52" xlink:href="#linear-gradient1"/>
  </defs>
  <path class="st11" d="M85.28,498.74c3.7-30.49,14.42-60.62,32.71-88.03,63.14-94.65,192.3-121.01,288.49-58.89,53.42,34.5,85.42,89.03,92.52,146.92H85.28Z"/>
  <path class="st12" d="M374.65,277.78h-170.79c-14.7,0-26.6,11.97-26.52,26.67l.06,11.2c.12,20.64-25.43,30.37-39.07,14.89l-38.56-43.77c-5.03-5.71-12.28-8.99-19.9-8.99h-32.77c-21.04,0-38.1-17.06-38.1-38.1V47.13c0-21.04,17.06-38.1,38.1-38.1h327.54c21.04,0,38.1,17.06,38.1,38.1v192.54c0,21.04-17.06,38.1-38.1,38.1Z"/>
  <g>
    <line class="st2" x1="154.27" y1="121.24" x2="365.88" y2="121.24"/>
    <line class="st3" x1="55.88" y1="166.24" x2="365.88" y2="166.24"/>
    <line class="st2" x1="154.27" y1="76.24" x2="365.88" y2="76.24"/>
    <line class="st3" x1="55.88" y1="211.24" x2="365.88" y2="211.24"/>
  </g>
  <g>
    <rect class="st8" x="213.02" y="360.15" width="62.5" height="43.4" rx="8.79" ry="8.79"/>
    <path class="st14" d="M255.07,385.12l-15.42,6.38c-2.33.96-4.89-.75-4.89-3.27v-12.75c0-2.52,2.56-4.23,4.89-3.27l15.42,6.38c2.91,1.2,2.91,5.33,0,6.53Z"/>
  </g>
  <g>
    <g>
      <line class="st9" x1="41.77" y1="256.24" x2="41.77" y2="256.24"/>
      <line class="st4" x1="98.02" y1="256.24" x2="126.14" y2="256.24"/>
      <line class="st9" x1="154.27" y1="256.24" x2="154.27" y2="256.24"/>
    </g>
    <g>
      <line class="st9" x1="41.77" y1="314.99" x2="41.77" y2="314.99"/>
      <line class="st4" x1="98.02" y1="314.99" x2="126.14" y2="314.99"/>
      <line class="st9" x1="154.27" y1="314.99" x2="154.27" y2="314.99"/>
    </g>
  </g>
  <path class="st6" d="M419.89,78.11c12.43,0,22.5,10.07,22.5,22.5s-10.07,22.5-22.5,22.5"/>
  <g>
    <g>
      <line class="st5" x1="197.39" y1="467.86" x2="197.39" y2="428.27"/>
      <path class="st13" d="M207.83,428.8c0-5.76-4.67-10.43-10.43-10.43s-10.43,4.67-10.43,10.43,4.67,10.43,10.43,10.43,10.43-4.67,10.43-10.43Z"/>
    </g>
    <g>
      <line class="st5" x1="166.49" y1="467.86" x2="166.49" y2="405.39"/>
      <path class="st13" d="M176.93,405.91c0-5.76-4.67-10.43-10.43-10.43s-10.43,4.67-10.43,10.43,4.67,10.43,10.43,10.43,10.43-4.67,10.43-10.43Z"/>
    </g>
    <path class="st5" d="M248.85,468.9c50.5,0,32.14,0,49.79,0"/>
    <path class="st5" d="M136.5,468.9c18.33,0,55.39,0,96.04,0"/>
  </g>
  <g>
    <path class="st1" d="M439.21,445.04h-112.52c-7.76,0-14.06-6.06-14.06-13.55v-231.98c0-7.48,6.29-13.55,14.06-13.55h112.52c7.76,0,14.06,6.06,14.06,13.55v231.98c0,7.48-6.29,13.55-14.06,13.55Z"/>
    <g>
      <path class="st14" d="M435.51,179.62h-106.21c-11.1,0-20.18,9.08-20.18,20.18v231.41c0,11.1,9.08,20.18,20.18,20.18h106.21c11.1,0,20.18-9.08,20.18-20.18v-231.41c0-11.1-9.08-20.18-20.18-20.18ZM451.24,427.07c0,9.58-7.84,17.42-17.42,17.42h-102.83c-9.58,0-17.42-7.84-17.42-17.42v-223.12c0-2.4.49-4.68,1.37-6.77,2.65-6.25,8.86-10.66,16.05-10.66h102.83c7.19,0,13.39,4.41,16.05,10.66.88,2.08,1.37,4.37,1.37,6.77v223.12Z"/>
      <circle class="st15" cx="382.4" cy="195.69" r="3.91"/>
      <line class="st7" x1="362.4" y1="435.61" x2="402.4" y2="435.61"/>
    </g>
    <g>
      <rect class="st17" x="325.52" y="229.88" width="114.94" height="83.94" rx="9" ry="9"/>
      <g>
        <path class="st16" d="M363.84,284.54v-13.19c0-.15-.04-.3-.12-.43l-1.39-2.34,1.39-2.34c.08-.13.12-.28.12-.43v-13.19c0-.94.76-1.7,1.7-1.7h7v-1.68h-7c-1.86,0-3.38,1.52-3.38,3.38v12.96l-1.53,2.57c-.16.26-.16.59,0,.86l1.53,2.57v12.96c0,1.86,1.52,3.38,3.38,3.38h7v-1.68h-7c-.94,0-1.7-.76-1.7-1.7Z"/>
        <path class="st16" d="M403.81,265.59v-12.96c0-1.86-1.52-3.38-3.38-3.38h-7v1.68h7c.94,0,1.7.76,1.7,1.7v13.19c0,.15.04.3.12.43l1.39,2.34-1.39,2.34c-.08.13-.12.28-.12.43v13.19c0,.94-.76,1.7-1.7,1.7h-7v1.68h7c1.86,0,3.38-1.52,3.38-3.38v-12.96l1.53-2.57c.16-.26.16-.59,0-.86l-1.53-2.57Z"/>
        <path class="st14" d="M395.61,275.03c1.09-.18,1.97-1.07,2.09-2.22.14-1.38-.87-2.62-2.25-2.76-1.38-.14-2.62.87-2.76,2.25-.08.81.23,1.55.78,2.07-1.59,3.83-5.18,6.54-9.35,6.96v-10.7c2.86-.35,5.42-2,6.93-4.42,1.2-.02,2.25-.9,2.44-2.13.21-1.38-.73-2.66-2.11-2.87-1.38-.21-2.66.73-2.87,2.11-.11.72.1,1.4.51,1.93-1.12,1.66-2.9,2.81-4.9,3.13v-10.46c.83-.41,1.4-1.26,1.4-2.25,0-1.39-1.13-2.52-2.52-2.52s-2.52,1.13-2.52,2.52c0,.99.57,1.84,1.4,2.25v10.46c-2-.32-3.78-1.47-4.91-3.13.41-.53.62-1.22.51-1.93-.21-1.38-1.5-2.32-2.87-2.11-1.38.21-2.32,1.5-2.11,2.87.19,1.23,1.24,2.11,2.44,2.13,1.52,2.42,4.07,4.07,6.94,4.42v10.7c-4.18-.41-7.77-3.13-9.36-6.96.54-.52.86-1.27.78-2.07-.14-1.38-1.38-2.39-2.76-2.25-1.38.14-2.39,1.38-2.25,2.76.12,1.15,1,2.03,2.09,2.22,1.88,4.76,6.34,8.12,11.51,8.54v10.88h2.23v-10.88c5.16-.43,9.62-3.79,11.5-8.54Z"/>
      </g>
      <line class="st10" x1="325.52" y1="337.38" x2="440.52" y2="337.38"/>
      <line class="st10" x1="325.52" y1="378.63" x2="440.52" y2="378.63"/>
      <g>
        <line class="st10" x1="391.36" y1="358.01" x2="440.52" y2="358.01"/>
        <line class="st10" x1="325.52" y1="358.01" x2="369.13" y2="358.01"/>
      </g>
    </g>
  </g>
  <path class="st0" d="M99.42,67.96l2.21,8.74c.84,3.33,4.49,5.09,7.62,3.67l8.21-3.72c5.21-2.36,10.13,3.8,6.67,8.36l-5.46,7.18c-2.08,2.74-1.18,6.69,1.88,8.25l8.03,4.1c5.1,2.6,3.34,10.29-2.38,10.42l-9.02.21c-3.43.08-5.96,3.25-5.27,6.61l1.8,8.84c1.14,5.61-5.96,9.03-9.63,4.64l-5.78-6.92c-2.2-2.64-6.26-2.64-8.46,0l-5.78,6.92c-3.67,4.39-10.78.97-9.63-4.64l1.8-8.84c.69-3.37-1.84-6.53-5.27-6.61l-9.02-.21c-5.72-.13-7.48-7.82-2.38-10.42l8.03-4.1c3.06-1.56,3.96-5.51,1.88-8.25l-5.46-7.18c-3.46-4.56,1.45-10.72,6.67-8.36l8.21,3.72c3.13,1.42,6.78-.34,7.62-3.67l2.21-8.74c1.4-5.55,9.29-5.55,10.69,0Z"/>
</svg>