<?xml version="1.0" encoding="UTF-8"?>
<svg id="text" xmlns="http://www.w3.org/2000/svg" xmlns:xlink="http://www.w3.org/1999/xlink" version="1.1" viewBox="0 0 500 500">
  <!-- Generator: Adobe Illustrator 30.2.1, SVG Export Plug-In . SVG Version: 2.1.1 Build 1)  -->
  <defs>
    <style>
      .st0 {
        fill: #bed675;
      }

      .st1 {
        fill: url(#linear-gradient1);
      }

      .st2 {
        fill: url(#linear-gradient);
      }

      .st3 {
        fill: #338a86;
      }

      .st4 {
        stroke: #fff;
        stroke-width: 4.42px;
      }

      .st4, .st5, .st6, .st7 {
        fill: none;
        stroke-linecap: round;
        stroke-linejoin: round;
      }

      .st5 {
        stroke: #cee098;
        stroke-width: 2px;
      }

      .st6 {
        stroke: #ebf2d4;
      }

      .st6, .st7 {
        stroke-width: 1.1px;
      }

      .st7 {
        stroke: #afd3d0;
      }

      .st8 {
        fill: #003834;
      }
    </style>
    <linearGradient id="linear-gradient" x1="-6160.94" y1="-141.03" x2="-6160.94" y2="-347.59" gradientTransform="translate(-5989.24 45.1) rotate(-175.45) scale(1 -1)" gradientUnits="userSpaceOnUse">
      <stop offset=".28" stop-color="#cee098"/>
      <stop offset=".37" stop-color="#c5db96"/>
      <stop offset=".51" stop-color="#accd94"/>
      <stop offset=".69" stop-color="#85b78f"/>
      <stop offset=".9" stop-color="#4e9989"/>
      <stop offset="1" stop-color="#338a86"/>
    </linearGradient>
    <linearGradient id="linear-gradient1" x1="-742.33" y1="242.6" x2="-742.33" y2="36.04" gradientTransform="translate(1065.96 45.1) rotate(-4.55)" gradientUnits="userSpaceOnUse">
      <stop offset=".13" stop-color="#003834"/>
      <stop offset=".58" stop-color="#338a86"/>
    </linearGradient>
  </defs>
  <g>
    <g>
      <line class="st5" x1="425.9" y1="426.46" x2="56.25" y2="426.46"/>
      <line class="st5" x1="425.9" y1="367.64" x2="56.25" y2="367.64"/>
      <line class="st5" x1="425.9" y1="308.82" x2="56.25" y2="308.82"/>
      <line class="st5" x1="425.9" y1="250" x2="56.25" y2="250"/>
      <line class="st5" x1="425.9" y1="191.18" x2="56.25" y2="191.18"/>
      <line class="st5" x1="425.9" y1="132.36" x2="56.25" y2="132.36"/>
      <line class="st5" x1="425.9" y1="73.54" x2="56.25" y2="73.54"/>
    </g>
    <g>
      <line class="st5" x1="417.54" y1="65.47" x2="417.54" y2="434.53"/>
      <line class="st5" x1="358.72" y1="65.47" x2="358.72" y2="434.53"/>
      <line class="st5" x1="299.9" y1="65.47" x2="299.9" y2="434.53"/>
      <line class="st5" x1="241.08" y1="65.47" x2="241.08" y2="434.53"/>
      <line class="st5" x1="182.26" y1="65.47" x2="182.26" y2="434.53"/>
      <line class="st5" x1="123.44" y1="65.47" x2="123.44" y2="434.53"/>
      <line class="st5" x1="64.62" y1="65.47" x2="64.62" y2="434.53"/>
    </g>
    <rect class="st0" x="375.84" y="89.22" width="23.2" height="23.2" transform="translate(184.77 -244.43) rotate(45)"/>
  </g>
  <g>
    <g>
      <path class="st3" d="M43.09,352.34c16.51,1.31,31.5-7.38,39.02-20.99-8.33-16.39-12.39-35.21-10.82-54.89,4.53-56.86,54.29-99.29,111.15-94.76,56.86,4.53,99.29,54.29,94.76,111.15-4.53,56.86-54.29,99.29-111.15,94.76-18.25-1.45-35.01-7.57-49.21-17.09-8.33,6.52-22.79,8.96-43.39,4.17-13.13-3.05-24.57-11.83-31.19-22.45.28.03.56.07.84.09Z"/>
      <path class="st2" d="M51.93,358.97c16.51,1.31,31.5-7.38,39.02-20.99-8.33-16.39-12.39-35.21-10.82-54.89,4.53-56.86,54.29-99.29,111.15-94.76,56.86,4.53,99.29,54.29,94.76,111.15-4.53,56.86-54.29,99.29-111.15,94.76-18.25-1.45-35.01-7.57-49.21-17.09-8.33,6.52-22.79,8.96-43.39,4.17-13.13-3.05-24.57-11.83-31.19-22.45.28.03.56.07.84.09Z"/>
      <path class="st6" d="M51.93,358.97c16.51,1.31,31.5-7.38,39.02-20.99-8.33-16.39-12.39-35.21-10.82-54.89,4.53-56.86,54.29-99.29,111.15-94.76,56.86,4.53,99.29,54.29,94.76,111.15-4.53,56.86-54.29,99.29-111.15,94.76-18.25-1.45-35.01-7.57-49.21-17.09-8.33,6.52-22.79,8.96-43.39,4.17-13.13-3.05-24.57-11.83-31.19-22.45.28.03.56.07.84.09Z"/>
      <line class="st6" x1="42.41" y1="352.23" x2="51.25" y2="358.86"/>
    </g>
    <g>
      <line class="st4" x1="135.49" y1="254.4" x2="235.17" y2="254.4"/>
      <line class="st4" x1="135.49" y1="282.25" x2="235.17" y2="282.25"/>
      <line class="st4" x1="135.49" y1="310.1" x2="235.17" y2="310.1"/>
      <line class="st4" x1="135.49" y1="337.94" x2="235.17" y2="337.94"/>
    </g>
    <g>
      <path class="st8" d="M447.91,300.42c-16.51,1.31-31.5-7.38-39.02-20.99,8.33-16.39,12.39-35.21,10.82-54.89-4.53-56.86-54.29-99.29-111.15-94.76-56.86,4.53-99.29,54.29-94.76,111.15,4.53,56.86,54.29,99.29,111.15,94.76,18.25-1.45,35.01-7.57,49.21-17.09,8.33,6.52,62.42-1.91,83.03-6.69,0,0-9-11.51-9.28-11.49Z"/>
      <path class="st1" d="M456.75,311.47c-16.51,1.31-31.5-7.38-39.02-20.99,8.33-16.39,12.39-35.21,10.82-54.89-4.53-56.86-54.29-99.29-111.15-94.76-56.86,4.53-99.29,54.29-94.76,111.15,4.53,56.86,54.29,99.29,111.15,94.76,18.25-1.45,35.01-7.57,49.21-17.09,8.33,6.52,22.79,8.96,43.39,4.17,13.13-3.05,24.57-11.83,31.19-22.45-.28.03-.56.07-.84.09Z"/>
      <path class="st7" d="M456.75,311.47c-16.51,1.31-31.5-7.38-39.02-20.99,8.33-16.39,12.39-35.21,10.82-54.89-4.53-56.86-54.29-99.29-111.15-94.76-56.86,4.53-99.29,54.29-94.76,111.15,4.53,56.86,54.29,99.29,111.15,94.76,18.25-1.45,35.01-7.57,49.21-17.09,8.33,6.52,22.79,8.96,43.39,4.17,13.13-3.05,24.57-11.83,31.19-22.45-.28.03-.56.07-.84.09Z"/>
      <line class="st7" x1="457.74" y1="311.36" x2="447.8" y2="300.32"/>
    </g>
  </g>
</svg>