<svg xmlns="http://www.w3.org/2000/svg" viewBox="0 0 500 500"><defs><linearGradient id="a" x1="-6160.94" x2="-6160.94" y1="-141.03" y2="-347.59" gradientTransform="rotate(4.55 -3562.242 -75357.19)scale(-1 1)" gradientUnits="userSpaceOnUse"><stop offset=".28" stop-color="#cee098"/><stop offset=".37" stop-color="#c5db96"/><stop offset=".51" stop-color="#accd94"/><stop offset=".69" stop-color="#85b78f"/><stop offset=".9" stop-color="#4e9989"/><stop offset="1" stop-color="#338a86"/></linearGradient><linearGradient id="b" x1="-742.33" x2="-742.33" y1="242.6" y2="36.04" gradientTransform="rotate(-4.55 1100.602 -13393.474)" gradientUnits="userSpaceOnUse"><stop offset=".13" stop-color="#003834"/><stop offset=".58" stop-color="#338a86"/></linearGradient></defs><path d="M425.9 426.46H56.25m369.65-58.82H56.25m369.65-58.82H56.25M425.9 250H56.25m369.65-58.82H56.25m369.65-58.82H56.25M425.9 73.54H56.25m361.29-8.07v369.06M358.72 65.47v369.06M299.9 65.47v369.06M241.08 65.47v369.06M182.26 65.47v369.06M123.44 65.47v369.06M64.62 65.47v369.06" style="fill:none;stroke-linecap:round;stroke-linejoin:round;stroke:#cee098;stroke-width:2px"/><path d="M375.84 89.22h23.2v23.2h-23.2z" style="fill:#bed675" transform="rotate(45 387.438 100.822)"/><path d="M43.09 352.34c16.51 1.31 31.5-7.38 39.02-20.99-8.33-16.39-12.39-35.21-10.82-54.89 4.53-56.86 54.29-99.29 111.15-94.76s99.29 54.29 94.76 111.15-54.29 99.29-111.15 94.76c-18.25-1.45-35.01-7.57-49.21-17.09-8.33 6.52-22.79 8.96-43.39 4.17-13.13-3.05-24.57-11.83-31.19-22.45.28.03.56.07.84.09Z" style="fill:#338a86"/><path d="M51.93 358.97c16.51 1.31 31.5-7.38 39.02-20.99-8.33-16.39-12.39-35.21-10.82-54.89 4.53-56.86 54.29-99.29 111.15-94.76s99.29 54.29 94.76 111.15-54.29 99.29-111.15 94.76c-18.25-1.45-35.01-7.57-49.21-17.09-8.33 6.52-22.79 8.96-43.39 4.17-13.13-3.05-24.57-11.83-31.19-22.45.28.03.56.07.84.09Z" style="fill:url(#a)"/><path d="M51.93 358.97c16.51 1.31 31.5-7.38 39.02-20.99-8.33-16.39-12.39-35.21-10.82-54.89 4.53-56.86 54.29-99.29 111.15-94.76s99.29 54.29 94.76 111.15-54.29 99.29-111.15 94.76c-18.25-1.45-35.01-7.57-49.21-17.09-8.33 6.52-22.79 8.96-43.39 4.17-13.13-3.05-24.57-11.83-31.19-22.45.28.03.56.07.84.09Zm-9.52-6.74 8.84 6.63" style="fill:none;stroke-linecap:round;stroke-linejoin:round;stroke:#ebf2d4;stroke-width:1.1px"/><path d="M135.49 254.4h99.68m-99.68 27.85h99.68m-99.68 27.85h99.68m-99.68 27.84h99.68" style="stroke:#fff;stroke-width:4.42px;fill:none;stroke-linecap:round;stroke-linejoin:round"/><path d="M447.91 300.42c-16.51 1.31-31.5-7.38-39.02-20.99 8.33-16.39 12.39-35.21 10.82-54.89-4.53-56.86-54.29-99.29-111.15-94.76s-99.29 54.29-94.76 111.15 54.29 99.29 111.15 94.76c18.25-1.45 35.01-7.57 49.21-17.09 8.33 6.52 62.42-1.91 83.03-6.69 0 0-9-11.51-9.28-11.49" style="fill:#003834"/><path d="M456.75 311.47c-16.51 1.31-31.5-7.38-39.02-20.99 8.33-16.39 12.39-35.21 10.82-54.89-4.53-56.86-54.29-99.29-111.15-94.76s-99.29 54.29-94.76 111.15 54.29 99.29 111.15 94.76c18.25-1.45 35.01-7.57 49.21-17.09 8.33 6.52 22.79 8.96 43.39 4.17 13.13-3.05 24.57-11.83 31.19-22.45-.28.03-.56.07-.84.09Z" style="fill:url(#b)"/><path d="M456.75 311.47c-16.51 1.31-31.5-7.38-39.02-20.99 8.33-16.39 12.39-35.21 10.82-54.89-4.53-56.86-54.29-99.29-111.15-94.76s-99.29 54.29-94.76 111.15 54.29 99.29 111.15 94.76c18.25-1.45 35.01-7.57 49.21-17.09 8.33 6.52 22.79 8.96 43.39 4.17 13.13-3.05 24.57-11.83 31.19-22.45-.28.03-.56.07-.84.09Zm.99-.11-9.94-11.04" style="fill:none;stroke-linecap:round;stroke-linejoin:round;stroke-width:1.1px;stroke:#afd3d0"/></svg>