<svg width="380" height="282" viewBox="0 0 380 282" fill="none" xmlns="http://www.w3.org/2000/svg">
<g clip-path="url(#clip0_1_2408)">
<path d="M144.22 57.71V81.73" stroke="#A9C753" stroke-width="2" stroke-linecap="round" stroke-linejoin="round"/>
<path d="M141.97 81.6099C141.97 82.8599 142.98 83.8699 144.23 83.8699C145.48 83.8699 146.49 82.8599 146.49 81.6099C146.49 80.3599 145.48 79.3499 144.23 79.3499C142.98 79.3499 141.97 80.3599 141.97 81.6099Z" fill="#A9C753"/>
<path d="M165.08 57.71V96.61" stroke="#A9C753" stroke-width="2" stroke-linecap="round" stroke-linejoin="round"/>
<path d="M165.08 98.76C166.328 98.76 167.34 97.7482 167.34 96.5C167.34 95.2518 166.328 94.24 165.08 94.24C163.832 94.24 162.82 95.2518 162.82 96.5C162.82 97.7482 163.832 98.76 165.08 98.76Z" fill="#A9C753"/>
<path d="M186.04 57.71V81.73" stroke="#A9C753" stroke-width="2" stroke-linecap="round" stroke-linejoin="round"/>
<path d="M186.04 83.8699C187.288 83.8699 188.3 82.858 188.3 81.6099C188.3 80.3617 187.288 79.3499 186.04 79.3499C184.792 79.3499 183.78 80.3617 183.78 81.6099C183.78 82.858 184.792 83.8699 186.04 83.8699Z" fill="#A9C753"/>
<path d="M137.98 22.72H141.74C142.37 10.34 152.6 0.5 165.14 0.5C177.67 0.5 187.91 10.34 188.54 22.72H192.3C201.71 22.72 209.41 30.42 209.41 39.83C209.41 49.24 201.71 56.94 192.3 56.94H137.99C128.58 56.94 120.88 49.24 120.88 39.83C120.88 30.42 128.58 22.72 137.99 22.72H137.98Z" fill="white"/>
<path d="M137.98 22.72H141.74C142.37 10.34 152.6 0.5 165.14 0.5C177.67 0.5 187.91 10.34 188.54 22.72H192.3C201.71 22.72 209.41 30.42 209.41 39.83C209.41 49.24 201.71 56.94 192.3 56.94H137.99C128.58 56.94 120.88 49.24 120.88 39.83C120.88 30.42 128.58 22.72 137.99 22.72H137.98Z" stroke="#A9C753" stroke-linecap="round" stroke-linejoin="round"/>
<path d="M149.71 20.3601C151.67 14.7301 155.95 10.1801 161.4 7.87012" stroke="#A9C753" stroke-width="2" stroke-linecap="round" stroke-linejoin="round"/>
<path d="M126.86 39.1499C126.86 32.0499 131.71 27.3899 138.67 27.3899" stroke="#A9C753" stroke-width="2" stroke-linecap="round" stroke-linejoin="round"/>
<path d="M52.56 155.6C63.39 155.66 82.26 155.17 98.04 132.07C103.39 124.23 107.24 112.39 106.69 102.84C106.29 96.02 104.58 85.97 96.57 83.67C90.29 81.87 83.26 84.42 79.35 89.34C76.5 92.93 73.94 101.37 67.15 98.63C56.72 94.42 71.33 82.53 75.34 79.68C79.6 76.65 82.06 73.66 85.19 69.61C89.84 63.59 92.94 52.84 89.98 45.63C85.51 34.71 70.92 39.5 67.68 48.65C67.28 49.78 66.49 50.92 65.27 51.21C64.12 51.48 62.89 50.89 62.17 50C61.45 49.1 61.17 47.95 61.06 46.83C60.19 38.2 69.42 33.22 70.51 24.94C71.67 16.04 63.91 11.43 55.24 9.70996H53.51C44.82 11.32 37.01 15.85 38.07 24.76C39.06 33.05 48.24 38.13 47.27 46.75C47.14 47.87 46.85 49.02 46.12 49.91C45.39 50.8 44.15 51.38 43 51.09C41.79 50.79 41.01 49.64 40.62 48.5C37.48 39.31 22.94 34.36 18.35 45.23C15.32 52.41 18.3 63.19 22.88 69.26C25.97 73.35 28.39 76.36 32.62 79.44C36.59 82.33 51.07 94.39 40.59 98.48C33.77 101.14 31.3 92.68 28.49 89.05C24.64 84.09 17.63 81.45 11.33 83.19C3.29001 85.4 1.47001 95.43 1.00001 102.25C0.340014 111.78 3.68001 123.93 9.32001 131.57C26.52 154.85 43.71 155.54 54.54 155.6" stroke="#A9C753" stroke-width="1.82" stroke-linecap="round" stroke-linejoin="round"/>
<path d="M54.24 28.1001L52.91 254.46" stroke="#006D68" stroke-width="1.82" stroke-linecap="round" stroke-linejoin="round"/>
<path d="M51.5001 28.2201C51.5001 26.7101 52.7401 25.4901 54.2601 25.5001C55.7701 25.5001 56.9901 26.7401 56.9801 28.2601C56.9801 29.7701 55.7401 30.9901 54.2201 30.9801C52.7101 30.9801 51.4901 29.7401 51.5001 28.2201Z" fill="#006D68"/>
<path d="M75.08 57.8501C73.73 68.2701 64.74 76.3501 53.98 76.2901C43.22 76.2301 34.32 68.0401 33.08 57.6201" stroke="#006D68" stroke-width="1.82" stroke-linecap="round" stroke-linejoin="round"/>
<path d="M72.31 57.77C72.43 56.26 73.75 55.1299 75.26 55.2499C76.77 55.3699 77.9 56.69 77.78 58.2C77.66 59.71 76.34 60.84 74.83 60.72C73.32 60.6 72.19 59.28 72.31 57.77Z" fill="#006D68"/>
<path d="M35.85 57.57C35.75 56.06 34.44 54.92 32.93 55.02C31.42 55.12 30.28 56.43 30.38 57.94C30.48 59.45 31.79 60.59 33.3 60.49C34.81 60.39 35.95 59.08 35.85 57.57Z" fill="#006D68"/>
<path d="M89.28 101.26C87.69 117.35 72.25 130.03 53.68 129.92C35.11 129.82 19.82 116.97 18.4 100.87" stroke="#006D68" stroke-width="1.82" stroke-linecap="round" stroke-linejoin="round"/>
<path d="M86.51 101.22C86.61 99.7101 87.91 98.5601 89.42 98.6601C90.93 98.7601 92.08 100.06 91.98 101.57C91.88 103.08 90.58 104.23 89.07 104.13C87.56 104.03 86.41 102.73 86.51 101.22Z" fill="#006D68"/>
<path d="M21.19 100.86C21.11 99.35 19.82 98.19 18.31 98.27C16.8 98.35 15.64 99.64 15.72 101.15C15.8 102.66 17.09 103.82 18.6 103.74C20.11 103.66 21.27 102.37 21.19 100.86Z" fill="#006D68"/>
<path d="M96.6201 256.05H127.5" stroke="#ADCB53" stroke-width="2" stroke-linecap="round" stroke-linejoin="round"/>
<path d="M10.8101 256.05H78.6101" stroke="#ADCB53" stroke-width="2" stroke-linecap="round" stroke-linejoin="round"/>
<path d="M20.05 255.48V235.29" stroke="#ADCB53" stroke-width="2" stroke-linecap="round" stroke-linejoin="round"/>
<path d="M20.05 239.24C22.1266 239.24 23.81 237.557 23.81 235.48C23.81 233.403 22.1266 231.72 20.05 231.72C17.9734 231.72 16.29 233.403 16.29 235.48C16.29 237.557 17.9734 239.24 20.05 239.24Z" fill="#ADCB53"/>
<path d="M33.26 255.28V218.1" stroke="#ADCB53" stroke-width="2" stroke-linecap="round" stroke-linejoin="round"/>
<path d="M33.26 222.04C35.3366 222.04 37.02 220.357 37.02 218.28C37.02 216.203 35.3366 214.52 33.26 214.52C31.1834 214.52 29.5 216.203 29.5 218.28C29.5 220.357 31.1834 222.04 33.26 222.04Z" fill="#ADCB53"/>
<path d="M351.05 57.1001H237.2V226.24H351.05V57.1001Z" fill="white"/>
<path d="M348.74 59.41V223.94H239.5V59.41H348.74ZM353.35 54.8H234.9V228.54H353.35V54.8Z" fill="#003834"/>
<path d="M323.16 59.29L265.08 59.29V56.41C265.08 52.22 268.48 48.82 272.67 48.82L315.57 48.82C319.76 48.82 323.16 52.22 323.16 56.41V59.29Z" fill="#AECC53"/>
<path d="M273.95 66.2002H314.28V59.2002L273.95 59.2002V66.2002Z" fill="#AECC53"/>
<path d="M327.69 103.14H338.78V92.0501H327.69V103.14Z" fill="#AECC53"/>
<path d="M321.1 97.5901H249.47" stroke="#003834" stroke-width="1.73" stroke-linecap="round" stroke-linejoin="round"/>
<path d="M327.69 135.5H338.78V124.41H327.69V135.5Z" fill="#AECC53"/>
<path d="M321.1 129.96H249.47" stroke="#003834" stroke-width="1.73" stroke-linecap="round" stroke-linejoin="round"/>
<path d="M327.69 167.88H338.78V156.79H327.69V167.88Z" fill="#AECC53"/>
<path d="M321.1 162.33H249.47" stroke="#003834" stroke-width="1.73" stroke-linecap="round" stroke-linejoin="round"/>
<path d="M327.69 200.24H338.78V189.15H327.69V200.24Z" fill="#AECC53"/>
<path d="M321.1 194.7H249.47" stroke="#003834" stroke-width="1.73" stroke-linecap="round" stroke-linejoin="round"/>
<path d="M274.54 236.55H70.59C68.35 249.83 63.12 277.72 63.12 277.72L63.39 280.46H281.4L281.58 277.72C281.58 277.72 277.03 250.21 274.54 236.55Z" fill="#A9C753" stroke="#A9C753" stroke-width="1.39" stroke-linecap="round" stroke-linejoin="round"/>
<path d="M274.54 233.8H70.59C68.12 248.43 65.45 263.02 63.39 277.72H281.4C279 263.1 277.2 248.38 274.54 233.8Z" fill="#003834" stroke="#A9C753" stroke-width="1.39" stroke-linecap="round" stroke-linejoin="round"/>
<path d="M141.68 245.09C138.17 245.09 134.66 245.09 131.15 245.09C131.41 242.55 131.54 241.3 131.78 238.84C135.24 238.84 138.71 238.84 142.17 238.84C141.99 241.3 141.89 242.55 141.68 245.09Z" fill="#006D68"/>
<path d="M154.51 245.09C151.01 245.09 147.5 245.09 144 245.09C144.19 242.55 144.29 241.3 144.46 238.84C147.91 238.84 151.37 238.84 154.82 238.84C154.71 241.3 154.65 242.55 154.52 245.09H154.51Z" fill="#006D68"/>
<path d="M167.36 245.09C163.86 245.09 160.36 245.09 156.86 245.09C156.98 242.55 157.03 241.3 157.13 238.84C160.58 238.84 164.02 238.84 167.47 238.84C167.44 241.3 167.41 242.55 167.36 245.09Z" fill="#006D68"/>
<path d="M180.18 245.1C176.68 245.1 173.18 245.1 169.68 245.1C169.72 242.56 169.74 241.31 169.75 238.85C173.2 238.85 176.64 238.85 180.09 238.85C180.14 241.31 180.15 242.56 180.18 245.1Z" fill="#006D68"/>
<path d="M193.12 245.1C189.62 245.1 186.12 245.1 182.62 245.1C182.58 242.56 182.56 241.3 182.5 238.85C185.95 238.85 189.4 238.85 192.85 238.85C192.97 241.31 193.03 242.56 193.13 245.11L193.12 245.1Z" fill="#006D68"/>
<path d="M206 245.1C202.49 245.1 198.99 245.1 195.48 245.1C195.36 242.56 195.3 241.3 195.17 238.84C198.63 238.84 202.08 238.84 205.54 238.84C205.74 241.3 205.83 242.55 206 245.1Z" fill="#006D68"/>
<path d="M218.86 245.1C215.35 245.1 211.83 245.1 208.32 245.1C208.13 242.56 208.04 241.3 207.83 238.84C211.3 238.84 214.77 238.84 218.24 238.84C218.5 241.3 218.63 242.55 218.87 245.1H218.86Z" fill="#006D68"/>
<path d="M240.09 245.11C236.56 245.11 233.02 245.11 229.49 245.11C229.2 242.56 229.05 241.31 228.74 238.85C232.24 238.85 235.74 238.85 239.24 238.85C239.59 241.31 239.76 242.57 240.09 245.11Z" fill="#006D68"/>
<path d="M253.12 245.11C249.57 245.11 246.02 245.11 242.47 245.11C242.13 242.56 241.96 241.31 241.6 238.85C245.12 238.85 248.65 238.85 252.17 238.85C252.56 241.31 252.75 242.57 253.12 245.11Z" fill="#006D68"/>
<path d="M266.18 245.11C262.61 245.11 259.05 245.11 255.48 245.11C255.11 242.56 254.92 241.31 254.52 238.85C258.07 238.85 261.63 238.85 265.18 238.85C265.6 241.31 265.79 242.57 266.19 245.12L266.18 245.11Z" fill="#006D68"/>
<path d="M241.18 253.85C237.6 253.85 234.02 253.85 230.44 253.85C230.16 251.21 230.02 249.91 229.74 247.34C233.29 247.34 236.83 247.34 240.38 247.34C240.7 249.91 240.86 251.22 241.18 253.86V253.85Z" fill="#006D68"/>
<path d="M254.33 253.86C250.75 253.86 247.16 253.86 243.58 253.86C243.25 251.22 243.09 249.92 242.76 247.34C246.32 247.34 249.88 247.34 253.43 247.34C253.79 249.91 253.97 251.22 254.33 253.86Z" fill="#006D68"/>
<path d="M267.47 253.86C263.88 253.86 260.3 253.86 256.71 253.86C256.35 251.22 256.17 249.92 255.8 247.34C259.37 247.34 262.94 247.34 266.52 247.34C266.91 249.91 267.09 251.22 267.47 253.86Z" fill="#006D68"/>
<path d="M242.26 262.86C238.64 262.86 235.01 262.86 231.39 262.86C231.1 260.16 230.96 258.82 230.68 256.16C234.27 256.16 237.86 256.16 241.45 256.16C241.77 258.82 241.93 260.16 242.26 262.86Z" fill="#006D68"/>
<path d="M255.55 262.87C251.93 262.87 248.32 262.87 244.7 262.87C244.36 260.17 244.2 258.83 243.87 256.17C247.46 256.17 251.05 256.17 254.64 256.17C255 258.83 255.18 260.17 255.54 262.87H255.55Z" fill="#006D68"/>
<path d="M268.76 262.88C265.15 262.88 261.55 262.88 257.94 262.88C257.57 260.18 257.39 258.84 257.02 256.18C260.61 256.18 264.2 256.18 267.8 256.18C268.18 258.84 268.37 260.18 268.76 262.88Z" fill="#006D68"/>
<path d="M243.42 272.02C239.75 272.02 236.08 272.02 232.41 272.02C232.09 269.29 231.94 267.92 231.64 265.21C235.28 265.21 238.91 265.21 242.55 265.21C242.89 267.92 243.06 269.28 243.42 272.02Z" fill="#006D68"/>
<path d="M256.83 272.03C253.18 272.03 249.53 272.03 245.88 272.03C245.51 269.3 245.33 267.94 244.99 265.23C248.62 265.23 252.24 265.23 255.87 265.23C256.24 267.94 256.43 269.3 256.83 272.03Z" fill="#006D68"/>
<path d="M270.12 272.03C266.49 272.03 262.87 272.03 259.24 272.03C258.83 269.3 258.64 267.94 258.26 265.23C261.87 265.23 265.48 265.23 269.1 265.23C269.5 267.94 269.7 269.3 270.12 272.03Z" fill="#006D68"/>
<path d="M89.6501 245.08C86.0801 245.08 82.5201 245.08 78.9501 245.08C79.3901 242.54 79.6001 241.3 80.0201 238.84C83.5701 238.84 87.1301 238.84 90.6801 238.84C90.2801 241.29 90.0801 242.54 89.6601 245.08H89.6501Z" fill="#006D68"/>
<path d="M102.65 245.08C99.1001 245.08 95.5501 245.08 92.0001 245.08C92.4101 242.54 92.6201 241.29 93.0101 238.84C96.5301 238.84 100.06 238.84 103.58 238.84C103.22 241.29 103.03 242.55 102.65 245.08Z" fill="#006D68"/>
<path d="M115.63 245.08C112.1 245.08 108.56 245.08 105.03 245.08C105.41 242.54 105.59 241.29 105.94 238.84C109.44 238.84 112.94 238.84 116.44 238.84C116.13 241.3 115.96 242.55 115.63 245.08Z" fill="#006D68"/>
<path d="M128.52 245.09C125 245.09 121.48 245.09 117.96 245.09C118.28 242.55 118.44 241.3 118.75 238.85C122.23 238.85 125.71 238.85 129.19 238.85C128.94 241.31 128.8 242.56 128.53 245.1L128.52 245.09Z" fill="#006D68"/>
<path d="M169.15 253.82C164.56 253.82 159.97 253.82 155.38 253.82C155.51 251.19 155.58 249.89 155.71 247.32C160.23 247.32 164.76 247.32 169.28 247.32C169.23 249.89 169.21 251.19 169.15 253.82Z" fill="#006D68"/>
<path d="M185.96 253.83C181.37 253.83 176.78 253.83 172.19 253.83C172.22 251.2 172.24 249.89 172.27 247.33C176.79 247.33 181.31 247.33 185.84 247.33C185.89 249.9 185.92 251.2 185.96 253.84V253.83Z" fill="#006D68"/>
<path d="M202.82 253.83C198.23 253.83 193.64 253.83 189.04 253.83C188.98 251.2 188.94 249.89 188.87 247.32C193.4 247.32 197.92 247.32 202.45 247.32C202.6 249.89 202.67 251.19 202.81 253.83H202.82Z" fill="#006D68"/>
<path d="M219.65 253.84C215.06 253.84 210.46 253.84 205.87 253.84C205.71 251.21 205.63 249.9 205.47 247.33C210.01 247.33 214.54 247.33 219.08 247.33C219.32 249.9 219.43 251.21 219.66 253.84H219.65Z" fill="#006D68"/>
<path d="M101.41 253.79C93.4201 253.79 85.4401 253.79 77.4501 253.78C77.9001 251.15 78.1201 249.85 78.5601 247.29C86.5001 247.29 94.4401 247.29 102.38 247.29C101.99 249.85 101.8 251.15 101.4 253.78L101.41 253.79Z" fill="#006D68"/>
<path d="M118.26 253.8C113.66 253.8 109.06 253.8 104.46 253.8C104.84 251.17 105.03 249.87 105.41 247.31C109.96 247.31 114.52 247.31 119.07 247.31C118.75 249.87 118.58 251.17 118.25 253.8H118.26Z" fill="#006D68"/>
<path d="M135.14 253.81C130.54 253.81 125.95 253.81 121.35 253.81C121.66 251.18 121.82 249.88 122.13 247.32C126.67 247.32 131.21 247.32 135.75 247.32C135.51 249.88 135.38 251.19 135.14 253.82V253.81Z" fill="#006D68"/>
<path d="M151.95 253.81C147.36 253.81 142.76 253.81 138.17 253.81C138.4 251.18 138.52 249.88 138.74 247.31C143.27 247.31 147.8 247.31 152.33 247.31C152.18 249.88 152.1 251.18 151.95 253.81Z" fill="#006D68"/>
<path d="M158.69 262.82C154.01 262.82 149.33 262.82 144.65 262.82C144.83 260.12 144.93 258.78 145.12 256.13C149.73 256.13 154.35 256.13 158.96 256.13C158.85 258.78 158.79 260.12 158.69 262.82Z" fill="#006D68"/>
<path d="M175.84 262.83C171.16 262.83 166.47 262.83 161.79 262.83C161.87 260.13 161.92 258.79 162.01 256.14C166.62 256.14 171.24 256.14 175.85 256.14C175.84 258.79 175.83 260.13 175.83 262.83H175.84Z" fill="#006D68"/>
<path d="M193.03 262.84C188.35 262.84 183.67 262.84 178.98 262.84C178.96 260.14 178.96 258.8 178.95 256.15C183.56 256.15 188.18 256.15 192.79 256.15C192.88 258.8 192.92 260.14 193.02 262.84H193.03Z" fill="#006D68"/>
<path d="M220.43 262.85C212.33 262.85 204.23 262.85 196.12 262.84C196.01 260.14 195.95 258.8 195.85 256.15C203.85 256.15 211.84 256.15 219.84 256.16C220.07 258.81 220.18 260.16 220.43 262.86V262.85Z" fill="#006D68"/>
<path d="M89.8801 262.78C85.2401 262.78 80.6001 262.78 75.9701 262.78C76.4001 260.08 76.6301 258.74 77.0701 256.09C81.6901 256.09 86.3101 256.09 90.9201 256.09C90.5001 258.74 90.2901 260.08 89.8801 262.78Z" fill="#006D68"/>
<path d="M106.91 262.79C102.26 262.79 97.6001 262.79 92.9501 262.79C93.3501 260.09 93.5601 258.75 93.9701 256.1C98.5901 256.1 103.2 256.1 107.82 256.1C107.45 258.75 107.27 260.09 106.91 262.79Z" fill="#006D68"/>
<path d="M124.04 262.8C119.37 262.8 114.71 262.8 110.04 262.8C110.39 260.1 110.56 258.76 110.92 256.11C115.54 256.11 120.15 256.11 124.77 256.11C124.47 258.76 124.33 260.1 124.04 262.8Z" fill="#006D68"/>
<path d="M141.16 262.81C136.49 262.81 131.81 262.81 127.14 262.81C127.41 260.11 127.55 258.77 127.83 256.12C132.45 256.12 137.06 256.12 141.68 256.12C141.47 258.77 141.37 260.11 141.17 262.81H141.16Z" fill="#006D68"/>
<path d="M168.89 272C164.12 272 159.34 272 154.57 272C154.66 269.26 154.71 267.89 154.83 265.18C159.54 265.18 164.24 265.18 168.95 265.18C168.91 267.89 168.9 269.26 168.89 272Z" fill="#006D68"/>
<path d="M186.38 272C181.61 272 176.83 272 172.06 272C172.06 269.26 172.06 267.89 172.07 265.18C176.78 265.18 181.48 265.18 186.19 265.18C186.25 267.89 186.29 269.26 186.38 272Z" fill="#006D68"/>
<path d="M203.89 272.01C199.12 272.01 194.36 272.01 189.59 272.01C189.48 269.27 189.44 267.91 189.35 265.2C194.05 265.2 198.75 265.2 203.46 265.2C203.62 267.91 203.7 269.28 203.89 272.01Z" fill="#006D68"/>
<path d="M221.29 272.02C216.54 272.02 211.79 272.02 207.03 272.02C206.83 269.28 206.73 267.92 206.56 265.21C211.25 265.21 215.95 265.21 220.64 265.21C220.89 267.92 221.01 269.28 221.29 272.02Z" fill="#006D68"/>
<path d="M98.86 271.97C90.76 271.97 82.65 271.97 74.55 271.97C74.95 269.22 75.16 267.85 75.59 265.14C83.65 265.14 91.71 265.14 99.77 265.15C99.4 267.86 99.21 269.23 98.87 271.98L98.86 271.97Z" fill="#006D68"/>
<path d="M116.15 271.98C111.43 271.98 106.71 271.98 101.98 271.98C102.32 269.23 102.49 267.86 102.86 265.15C107.54 265.15 112.21 265.15 116.89 265.15C116.58 267.86 116.43 269.23 116.15 271.98Z" fill="#006D68"/>
<path d="M133.58 271.99C128.83 271.99 124.09 271.99 119.34 271.99C119.61 269.24 119.75 267.88 120.05 265.16C124.74 265.16 129.43 265.16 134.12 265.16C133.89 267.87 133.78 269.24 133.58 271.98V271.99Z" fill="#006D68"/>
<path d="M151.02 271.99C146.26 271.99 141.49 271.99 136.73 271.99C136.92 269.25 137.02 267.88 137.23 265.17C141.93 265.17 146.63 265.17 151.33 265.17C151.19 267.88 151.13 269.25 151.02 271.99Z" fill="#006D68"/>
<path d="M275.11 113.22H70.59V233.81H275.11V113.22Z" fill="#003834" stroke="#ADCB53" stroke-width="1.46" stroke-linecap="round" stroke-linejoin="round"/>
<path d="M70.59 120.54H275.11" stroke="#ADCB53" stroke-width="1.46" stroke-linecap="round" stroke-linejoin="round"/>
<path d="M225.01 145.07H137.49V199.24H225.01V145.07Z" stroke="#006D68" stroke-width="2.15" stroke-miterlimit="10"/>
<path d="M225.01 138.97H137.49V145.07H225.01V138.97Z" fill="#006D68" stroke="#006D68" stroke-width="2.15" stroke-linecap="round" stroke-linejoin="round"/>
<path d="M208.21 161.88H120.69V216.05H208.21V161.88Z" fill="#003834" stroke="white" stroke-width="0.99" stroke-miterlimit="10"/>
<path d="M208.21 155.77H120.69V161.87H208.21V155.77Z" fill="white" stroke="white" stroke-width="1.48" stroke-miterlimit="10"/>
<path d="M154.5 188.23C154.46 193.72 158.87 198.21 164.36 198.25C169.85 198.29 174.34 193.88 174.38 188.39C174.42 182.9 164.56 173.55 164.56 173.55C164.56 173.55 154.54 182.73 154.5 188.22V188.23Z" stroke="#A9C753" stroke-width="2.35" stroke-linecap="round" stroke-linejoin="round"/>
<path d="M164.47 185.74L164.33 204.37" stroke="#A9C753" stroke-width="2.35" stroke-linecap="round" stroke-linejoin="round"/>
<path d="M347.09 253.49L355.32 236C357.3 231.84 363.22 231.84 365.2 236L373.66 253.76" stroke="#A9C753" stroke-width="1.85" stroke-linecap="round" stroke-linejoin="round"/>
<path d="M351.73 244.33C353.73 243.44 354.8 244.78 355.54 246.48C356.52 248.75 357.18 251.15 357.51 253.61" stroke="#A9C753" stroke-width="1.85" stroke-linecap="round" stroke-linejoin="round"/>
<path d="M353.63 239.46C355.45 239.6 357.32 240.04 358.74 241.19C360.16 242.35 360.97 244.05 361.74 245.71C363.13 248.7 364.23 250.87 364.58 253.49" stroke="#A9C753" stroke-width="1.85" stroke-linecap="round" stroke-linejoin="round"/>
<path d="M320.12 253.76H379.04" stroke="#A9C753" stroke-width="1.85" stroke-linecap="round" stroke-linejoin="round"/>
<path d="M288.74 253.76H308.35" stroke="#A9C753" stroke-width="1.85" stroke-linecap="round" stroke-linejoin="round"/>
</g>
<defs>
<clipPath id="clip0_1_2408">
<rect width="379.96" height="281.16" fill="white"/>
</clipPath>
</defs>
</svg>
