<svg xmlns="http://www.w3.org/2000/svg" width="232" height="441" fill="none" viewBox="0 0 232 441"><g clip-path="url(#a)"><path stroke="#338a86" stroke-linecap="round" stroke-linejoin="round" stroke-width="2.36" d="M189.28 74.55c-73.39 24.38-73.37 73.37-73.37 73.37s0-48.61-73.37-73.37c0 0 .04-2.91.13-4.35 2.24-38.5 34.18-69.02 73.24-69.02s71.22 30.74 73.27 69.43c.07 1.3.1 3.94.1 3.94"/><path stroke="#aecc53" stroke-miterlimit="10" stroke-width="2.93" d="M115.91 40.05v400.26"/><path fill="#aecc53" d="M115.91 51.63c6.092 0 11.03-4.939 11.03-11.03 0-6.092-4.938-11.03-11.03-11.03s-11.03 4.938-11.03 11.03 4.938 11.03 11.03 11.03"/><path stroke="#aecc53" stroke-miterlimit="10" stroke-width="1.5" d="M152.03 61.06a124.2 124.2 0 0 0-23.46 27.93c-6.18 10.05-10.74 20-12.66 31.75"/><path fill="#aecc53" d="M148.18 56.96a5.64 5.64 0 0 1 7.31 8.59 5.65 5.65 0 0 1-7.95-.63 5.64 5.64 0 0 1 .64-7.95z"/><path stroke="#aecc53" stroke-miterlimit="10" stroke-width="1.5" d="M79.78 61.06c9.14 8.09 17.07 17.53 23.46 27.93 6.18 10.05 10.74 20 12.66 31.75"/><path fill="#aecc53" d="M76.33 65.54a5.65 5.65 0 0 1-.64-7.95 5.65 5.65 0 0 1 7.95-.64 5.65 5.65 0 0 1 .64 7.95 5.64 5.64 0 0 1-7.95.63z"/><path stroke="#338a86" stroke-linecap="round" stroke-linejoin="round" stroke-width="2.36" d="M199.85 196.25c-34.13-39.66-64.78-27.05-64.78-27.05s30.42-12.5 27.05-64.78c0 0 1.83-.72 2.75-1.04 24.67-8.49 51.98 3.64 62.03 28.09 10.08 24.53-.93 52.48-24.61 63.71-.8.38-2.44 1.08-2.44 1.08z"/><path stroke="#aecc53" stroke-miterlimit="10" stroke-width="2.93" d="m191.48 146.02-40.06 16.46c-4.96 2.04-9.95 3.98-14.96 5.76-10.12 3.6-18.29 12.01-20.68 22.52"/><path fill="#aecc53" d="M186.78 136.03c5.63-2.31 12.08.38 14.4 6.01 2.31 5.63-.38 12.08-6.01 14.4s-12.08-.38-14.4-6.01.38-12.08 6.01-14.4"/><path stroke="#aecc53" stroke-miterlimit="10" stroke-width="1.01" d="M198.71 169.47a84.3 84.3 0 0 0-23.51-7.5c-7.88-1.28-15.28-1.58-23.12.24"/><path fill="#aecc53" d="M200.19 166.04a3.81 3.81 0 0 1 1.74 5.1c-.93 1.88-3.21 2.67-5.1 1.74a3.81 3.81 0 0 1-1.74-5.1 3.81 3.81 0 0 1 5.1-1.74"/><path stroke="#aecc53" stroke-miterlimit="10" stroke-width="1.01" d="M180.13 124.26a84 84 0 0 1-11.45 21.86c-4.7 6.45-9.76 11.86-16.61 16.09"/><path fill="#aecc53" d="M176.4 123.16a3.81 3.81 0 0 1 4.85-2.35c1.99.69 3.04 2.86 2.35 4.85a3.81 3.81 0 0 1-4.85 2.35 3.81 3.81 0 0 1-2.35-4.85"/><path stroke="#338a86" stroke-linecap="round" stroke-linejoin="round" stroke-width="2.36" d="M31.97 214.18c34.13-39.66 64.78-27.05 64.78-27.05s-30.42-12.5-27.05-64.78c0 0-1.83-.72-2.75-1.04-24.67-8.49-51.98 3.64-62.03 28.09-10.08 24.53.93 52.48 24.61 63.71.8.38 2.44 1.08 2.44 1.08z"/><path stroke="#aecc53" stroke-miterlimit="10" stroke-width="2.93" d="M40.33 163.95c13.79 5.67 27.58 11.33 41.38 17 5.65 2.32 11.61 3.9 16.5 7.69 7.05 5.46 14.58 12.4 17.8 21.05"/><path fill="#aecc53" d="M36.65 174.37c-5.63-2.31-8.33-8.76-6.01-14.4s8.76-8.33 14.4-6.01c5.63 2.31 8.33 8.76 6.01 14.4s-8.76 8.33-14.4 6.01"/><path stroke="#aecc53" stroke-miterlimit="10" stroke-width="1.01" d="M33.1 187.41a84.3 84.3 0 0 1 23.51-7.5c7.88-1.28 15.28-1.58 23.12.24"/><path fill="#aecc53" d="M34.99 190.81c-1.89.93-4.18.15-5.1-1.74a3.805 3.805 0 0 1 1.74-5.1c1.89-.92 4.18-.15 5.1 1.74.93 1.89.15 4.18-1.74 5.1"/><path stroke="#aecc53" stroke-miterlimit="10" stroke-width="1.01" d="M51.68 142.19c2.72 7.8 6.58 15.19 11.45 21.87 4.7 6.45 9.76 11.86 16.61 16.09"/><path fill="#aecc53" d="M48.21 143.59c-.69-1.99.36-4.16 2.35-4.85s4.16.36 4.85 2.35-.36 4.16-2.35 4.85-4.16-.36-4.85-2.35"/></g><defs><clipPath id="a"><path fill="#fff" d="M0 0h231.82v440.31H0z"/></clipPath></defs></svg>