<svg xmlns="http://www.w3.org/2000/svg" viewBox="0 0 50 50"><path d="M49 26.63c0-9.94-8.06-18-18-18s-18 8.06-18 18 8.06 18 18 18q1.05 0 2.07-.12a7.506 7.506 0 0 0 9.84 2.22 7.53 7.53 0 0 1-2.79-4.58c5.31-3.13 8.88-8.9 8.88-15.52" style="fill:#006d68"/><path d="M1 20.27C1 10.35 9.05 2.3 18.97 2.3s17.97 8.04 17.97 17.97c0 9.92-8.04 17.97-17.97 17.97q-1.05 0-2.07-.12c-1.94 2.76-5.57 3.96-8.86 2.68a8 8 0 0 1-.97-.46c1.04-.8 1.89-1.89 2.4-3.21.18-.45.3-.91.39-1.37C4.56 32.63 1 26.87 1 20.27" style="fill:#a5c352"/></svg>