<?xml version="1.0" encoding="UTF-8"?>
<svg id="text" xmlns="http://www.w3.org/2000/svg" version="1.1" viewBox="0 0 50 50">
  <!-- Generator: Adobe Illustrator 29.8.1, SVG Export Plug-In . SVG Version: 2.1.1 Build 2)  -->
  <defs>
    <style>
      .st0 {
        fill: #a5c352;
      }

      .st1 {
        fill: #006d68;
      }
    </style>
  </defs>
  <path class="st1" d="M49,26.63c0-9.94-8.06-18-18-18S13,16.69,13,26.63s8.06,18,18,18c.7,0,1.39-.04,2.07-.12,1.94,2.77,5.58,3.96,8.87,2.68.34-.13.66-.29.97-.46-1.04-.81-1.89-1.9-2.4-3.21-.18-.45-.3-.91-.39-1.37,5.31-3.13,8.88-8.9,8.88-15.52Z"/>
  <path class="st0" d="M1,20.27c0-9.92,8.05-17.97,17.97-17.97s17.97,8.04,17.97,17.97c0,9.92-8.04,17.97-17.97,17.97-.7,0-1.39-.04-2.07-.12-1.94,2.76-5.57,3.96-8.86,2.68-.34-.13-.66-.29-.97-.46,1.04-.8,1.89-1.89,2.4-3.21.18-.45.3-.91.39-1.37C4.56,32.63,1,26.87,1,20.27Z"/>
</svg>