<svg class="h-12 w-auto mx-auto" width="569" height="153" viewBox="0 0 569 153" fill="none" xmlns="http://www.w3.org/2000/svg">
<path d="M189.77 89.22C187.4 88.49 185.4 87.45 183.77 86.12L185.92 81.42C187.62 82.72 189.41 83.67 191.3 84.27C193.18 84.87 195.23 85.17 197.42 85.17C199.85 85.17 201.73 84.74 203.04 83.89C204.36 83.04 205.02 81.85 205.02 80.32C205.02 78.99 204.41 77.97 203.2 77.27C201.98 76.57 199.96 75.9 197.12 75.27C194.19 74.64 191.8 73.9 189.97 73.07C188.14 72.24 186.75 71.17 185.82 69.87C184.89 68.57 184.42 66.92 184.42 64.92C184.42 62.85 184.99 61 186.12 59.37C187.25 57.74 188.85 56.46 190.92 55.55C192.99 54.63 195.37 54.17 198.07 54.17C200.54 54.17 202.89 54.55 205.12 55.29C207.35 56.04 209.19 57.06 210.62 58.36L208.47 63.06C205.34 60.56 201.87 59.31 198.07 59.31C195.8 59.31 194.01 59.77 192.69 60.69C191.37 61.61 190.71 62.88 190.71 64.51C190.71 65.88 191.29 66.93 192.46 67.66C193.63 68.39 195.61 69.08 198.41 69.71C201.38 70.38 203.79 71.12 205.64 71.93C207.49 72.75 208.91 73.79 209.89 75.05C210.87 76.32 211.37 77.92 211.37 79.85C211.37 81.95 210.81 83.79 209.7 85.37C208.58 86.95 206.97 88.17 204.85 89.02C202.73 89.87 200.24 90.29 197.37 90.29C194.67 90.32 192.14 89.95 189.77 89.22Z" fill="#3C3C3B"></path>
<path d="M224.24 88.09C221.66 86.61 219.67 84.5 218.29 81.76C216.91 79.03 216.22 75.84 216.22 72.21C216.22 68.58 216.91 65.4 218.29 62.68C219.67 59.96 221.66 57.86 224.24 56.38C226.82 54.9 229.85 54.16 233.31 54.16C235.68 54.16 237.91 54.53 240.01 55.26C242.11 55.99 243.88 57.03 245.31 58.36L243.16 63.06C241.56 61.79 239.98 60.87 238.41 60.29C236.84 59.71 235.18 59.41 233.41 59.41C230.01 59.41 227.39 60.51 225.53 62.71C223.68 64.91 222.76 68.08 222.76 72.21C222.76 76.38 223.68 79.56 225.53 81.76C227.38 83.96 230.01 85.06 233.41 85.06C235.18 85.06 236.84 84.77 238.41 84.18C239.98 83.6 241.56 82.67 243.16 81.41L245.31 86.11C243.88 87.44 242.11 88.48 240.01 89.21C237.91 89.94 235.68 90.31 233.31 90.31C229.85 90.32 226.83 89.57 224.24 88.09Z" fill="#3C3C3B"></path>
<path d="M251.22 54.62H257.67V89.87H251.22V54.62Z" fill="#3C3C3B"></path>
<path d="M283.17 89.22C280.8 88.49 278.8 87.45 277.17 86.12L279.32 81.42C281.02 82.72 282.81 83.67 284.7 84.27C286.58 84.87 288.63 85.17 290.82 85.17C293.25 85.17 295.13 84.74 296.44 83.89C297.76 83.04 298.42 81.85 298.42 80.32C298.42 78.99 297.81 77.97 296.6 77.27C295.38 76.57 293.36 75.9 290.52 75.27C287.59 74.64 285.2 73.9 283.37 73.07C281.54 72.24 280.15 71.17 279.22 69.87C278.29 68.57 277.82 66.92 277.82 64.92C277.82 62.85 278.39 61 279.52 59.37C280.65 57.74 282.25 56.46 284.32 55.55C286.39 54.63 288.77 54.17 291.47 54.17C293.94 54.17 296.29 54.55 298.52 55.29C300.75 56.04 302.59 57.06 304.02 58.36L301.87 63.06C298.74 60.56 295.27 59.31 291.47 59.31C289.2 59.31 287.41 59.77 286.09 60.69C284.77 61.61 284.11 62.88 284.11 64.51C284.11 65.88 284.69 66.93 285.86 67.66C287.03 68.39 289.01 69.08 291.81 69.71C294.78 70.38 297.19 71.12 299.04 71.93C300.89 72.75 302.31 73.79 303.29 75.05C304.27 76.32 304.77 77.92 304.77 79.85C304.77 81.95 304.21 83.79 303.1 85.37C301.98 86.95 300.37 88.17 298.25 89.02C296.13 89.87 293.64 90.29 290.77 90.29C288.07 90.32 285.54 89.95 283.17 89.22Z" fill="#3C3C3B"></path>
<path d="M329.84 66.42C331.49 67.49 332.77 68.99 333.69 70.94C334.61 72.89 335.07 75.13 335.07 77.67C335.07 80.2 334.61 82.42 333.69 84.32C332.77 86.22 331.5 87.69 329.87 88.72C328.24 89.75 326.35 90.27 324.22 90.27C322.49 90.27 320.94 89.9 319.57 89.17C318.2 88.44 317.15 87.42 316.42 86.12V98.87H310.17V65.42H316.32V69.12C317.05 67.75 318.11 66.69 319.5 65.94C320.88 65.19 322.46 64.82 324.22 64.82C326.32 64.82 328.19 65.35 329.84 66.42ZM327.17 83.39C328.27 82.04 328.82 80.13 328.82 77.67C328.82 75.14 328.27 73.17 327.17 71.77C326.07 70.37 324.54 69.67 322.57 69.67C320.57 69.67 319.03 70.35 317.95 71.72C316.87 73.09 316.33 75.04 316.33 77.57C316.33 80.07 316.87 82 317.95 83.37C319.03 84.74 320.57 85.42 322.57 85.42C324.53 85.42 326.07 84.74 327.17 83.39Z" fill="#3C3C3B"></path>
<path d="M361.67 78.76H345.02C345.22 81.03 345.9 82.71 347.07 83.81C348.24 84.91 349.9 85.46 352.07 85.46C354.77 85.46 357.24 84.59 359.47 82.86L361.27 87.16C360.14 88.09 358.71 88.84 357 89.41C355.28 89.98 353.56 90.26 351.83 90.26C347.83 90.26 344.67 89.13 342.35 86.86C340.03 84.59 338.87 81.49 338.87 77.56C338.87 75.06 339.37 72.84 340.37 70.91C341.37 68.98 342.78 67.48 344.6 66.41C346.42 65.34 348.48 64.81 350.77 64.81C354.14 64.81 356.8 65.89 358.75 68.06C360.7 70.23 361.68 73.21 361.68 77.01V78.76H361.67ZM346.89 70.82C345.87 71.89 345.25 73.42 345.01 75.42H356.31C356.24 73.39 355.74 71.85 354.81 70.8C353.88 69.75 352.58 69.23 350.91 69.23C349.25 69.22 347.91 69.75 346.89 70.82Z" fill="#3C3C3B"></path>
<path d="M371.24 88.72C369.36 87.69 367.91 86.22 366.91 84.32C365.91 82.42 365.41 80.2 365.41 77.67C365.41 75.14 365.93 72.89 366.99 70.94C368.04 68.99 369.53 67.48 371.47 66.42C373.4 65.35 375.64 64.82 378.17 64.82C379.9 64.82 381.6 65.1 383.25 65.64C384.9 66.19 386.23 66.93 387.23 67.87L385.43 72.27C384.4 71.44 383.31 70.8 382.16 70.37C381.01 69.94 379.87 69.72 378.74 69.72C376.57 69.72 374.89 70.39 373.69 71.74C372.49 73.09 371.89 75.03 371.89 77.56C371.89 80.06 372.49 81.99 373.69 83.34C374.89 84.69 376.57 85.36 378.74 85.36C379.87 85.36 381.01 85.14 382.16 84.71C383.31 84.28 384.4 83.64 385.43 82.81L387.23 87.16C386.16 88.13 384.8 88.88 383.13 89.43C381.46 89.98 379.73 90.25 377.93 90.25C375.35 90.26 373.13 89.75 371.24 88.72Z" fill="#3C3C3B"></path>
<path d="M397.72 54.07V60.22H390.82V54.07H397.72ZM391.17 65.42H397.42V89.87H391.17V65.42Z" fill="#3C3C3B"></path>
<path d="M411.82 65.42H427.97V89.87H421.72V70.12H411.82V89.87H405.57V70.12H400.87V65.42H405.57C405.57 61.89 406.5 59.23 408.37 57.44C410.24 55.66 413.05 54.68 416.82 54.51L418.97 54.41L419.27 59.06L416.92 59.16C415.05 59.26 413.74 59.72 412.97 60.54C412.2 61.36 411.82 62.58 411.82 64.22V65.42ZM428.37 54.01V60.26H421.37V54.01H428.37Z" fill="#3C3C3B"></path>
<path d="M438.94 88.72C437.06 87.69 435.61 86.22 434.61 84.32C433.61 82.42 433.11 80.2 433.11 77.67C433.11 75.14 433.63 72.89 434.69 70.94C435.74 68.99 437.23 67.48 439.17 66.42C441.1 65.35 443.34 64.82 445.87 64.82C447.6 64.82 449.3 65.1 450.95 65.64C452.6 66.19 453.93 66.93 454.93 67.87L453.13 72.27C452.1 71.44 451.01 70.8 449.86 70.37C448.71 69.94 447.57 69.72 446.44 69.72C444.27 69.72 442.59 70.39 441.39 71.74C440.19 73.09 439.59 75.03 439.59 77.56C439.59 80.06 440.19 81.99 441.39 83.34C442.59 84.69 444.27 85.36 446.44 85.36C447.57 85.36 448.71 85.14 449.86 84.71C451.01 84.28 452.1 83.64 453.13 82.81L454.93 87.16C453.86 88.13 452.5 88.88 450.83 89.43C449.16 89.98 447.43 90.25 445.63 90.25C443.05 90.26 440.82 89.75 438.94 88.72Z" fill="#3C3C3B"></path>
<path d="M477.02 67.32C478.69 68.99 479.52 71.55 479.52 75.02V89.87H473.57V86.12C473 87.42 472.11 88.44 470.89 89.17C469.67 89.9 468.27 90.27 466.66 90.27C465.03 90.27 463.54 89.94 462.21 89.27C460.88 88.6 459.83 87.69 459.06 86.52C458.29 85.35 457.91 84.05 457.91 82.62C457.91 80.82 458.37 79.4 459.29 78.37C460.21 77.34 461.7 76.59 463.77 76.12C465.84 75.65 468.69 75.42 472.32 75.42H473.57V74.27C473.57 72.6 473.21 71.4 472.49 70.67C471.77 69.94 470.58 69.57 468.91 69.57C467.61 69.57 466.25 69.8 464.84 70.25C463.42 70.7 462.03 71.32 460.66 72.13L458.91 67.83C460.28 66.96 461.93 66.25 463.86 65.68C465.79 65.11 467.63 64.83 469.36 64.83C472.8 64.82 475.35 65.65 477.02 67.32ZM471.99 84.09C473.04 82.97 473.57 81.53 473.57 79.76V78.71H472.67C470.44 78.71 468.7 78.81 467.47 79.01C466.24 79.21 465.35 79.56 464.82 80.06C464.29 80.56 464.02 81.24 464.02 82.11C464.02 83.18 464.39 84.05 465.12 84.73C465.85 85.41 466.79 85.75 467.92 85.75C469.58 85.76 470.94 85.21 471.99 84.09Z" fill="#3C3C3B"></path>
<path d="M500.67 85.42L500.37 90.07C499.37 90.17 498.45 90.22 497.62 90.22C494.19 90.22 491.65 89.43 490.02 87.84C488.39 86.26 487.57 83.9 487.57 80.76V70.11H482.87V65.41H487.57V58.11H493.82V65.41H500.27V70.11H493.82V80.66C493.82 83.93 495.34 85.56 498.37 85.56C499.1 85.57 499.87 85.51 500.67 85.42Z" fill="#3C3C3B"></path>
<path d="M510.86 54.07V60.22H503.96V54.07H510.86ZM504.31 65.42H510.56V89.87H504.31V65.42Z" fill="#3C3C3B"></path>
<path d="M521.59 88.72C519.71 87.69 518.25 86.2 517.21 84.27C516.18 82.34 515.66 80.09 515.66 77.52C515.66 74.95 516.18 72.71 517.21 70.8C518.24 68.88 519.7 67.41 521.59 66.37C523.47 65.34 525.66 64.82 528.16 64.82C530.66 64.82 532.85 65.34 534.74 66.37C536.62 67.4 538.07 68.88 539.09 70.8C540.11 72.72 540.61 74.96 540.61 77.52C540.61 80.09 540.1 82.34 539.09 84.27C538.07 86.2 536.62 87.69 534.74 88.72C532.86 89.75 530.66 90.27 528.16 90.27C525.66 90.27 523.47 89.75 521.59 88.72ZM532.76 83.42C533.83 82.09 534.36 80.12 534.36 77.52C534.36 74.95 533.83 73 532.76 71.64C531.69 70.29 530.16 69.62 528.16 69.62C526.16 69.62 524.62 70.3 523.54 71.64C522.46 72.99 521.92 74.95 521.92 77.52C521.92 80.12 522.45 82.09 523.52 83.42C524.59 84.75 526.12 85.42 528.12 85.42C530.15 85.42 531.7 84.75 532.76 83.42Z" fill="#3C3C3B"></path>
<path d="M566.51 67.32C567.94 68.99 568.66 71.5 568.66 74.87V89.87H562.41V75.22C562.41 73.32 562.05 71.94 561.34 71.07C560.62 70.2 559.5 69.77 557.96 69.77C556.16 69.77 554.72 70.34 553.63 71.47C552.55 72.6 552.01 74.12 552.01 76.02V89.87H545.76V65.42H551.86V69.07C552.69 67.7 553.81 66.65 555.21 65.92C556.61 65.19 558.19 64.82 559.96 64.82C562.9 64.82 565.08 65.65 566.51 67.32Z" fill="#3C3C3B"></path>
<path d="M151.77 76.44H122.99C122.99 76.44 122.95 78.71 122.87 79.82C121.14 104.25 100.77 123.53 75.9 123.53C50.93 123.53 30.5 104.1 28.91 79.53C28.84 78.51 28.81 76.44 28.81 76.44H0.0299988C0.0299988 76.44 0.0499982 78.49 0.0899982 79.51C1.7 119.99 35.03 152.31 75.9 152.31C116.56 152.31 149.75 120.33 151.68 80.15C151.74 78.92 151.77 76.44 151.77 76.44Z" fill="#3C3C3C"></path>
<path d="M0.019989 76.44H28.8C28.8 50.43 49.88 29.35 75.89 29.35C101.9 29.35 122.98 50.43 122.98 76.44H151.76C151.76 34.54 117.79 0.570007 75.89 0.570007C33.99 0.570007 0.019989 34.54 0.019989 76.44Z" fill="#006D68"></path>
<path d="M75.9 112.13C95.611 112.13 111.59 96.151 111.59 76.44C111.59 56.729 95.611 40.75 75.9 40.75C56.189 40.75 40.21 56.729 40.21 76.44C40.21 96.151 56.189 112.13 75.9 112.13Z" fill="#ACCA53"></path>
<path d="M79.54 76.44L75.9 112.13L72.25 76.44H79.54Z" fill="white"></path>
<path d="M72.25 76.44L75.9 40.75L79.54 76.44H72.25Z" fill="#3C3C3C"></path>
</svg>