<?xml version="1.0" encoding="UTF-8"?>
<svg id="Layer_12" xmlns="http://www.w3.org/2000/svg" xmlns:xlink="http://www.w3.org/1999/xlink" version="1.1" viewBox="0 0 1920 1080">
  <!-- Generator: Adobe Illustrator 30.6.0, SVG Export Plug-In . SVG Version: 2.1.4 Build 109)  -->
  <defs>
    <style>
      .st0 {
        fill: #bed675;
      }

      .st1 {
        fill: #cee098;
      }

      .st2 {
        fill: #6fafac;
      }

      .st3 {
        fill: url(#linear-gradient2);
      }

      .st4 {
        fill: url(#linear-gradient1);
      }

      .st5 {
        fill: url(#linear-gradient3);
      }

      .st6 {
        fill: url(#linear-gradient);
      }

      .st7 {
        isolation: isolate;
      }

      .st8 {
        fill: #fff;
      }

      .st9 {
        fill: #003834;
      }
    </style>
    <linearGradient id="linear-gradient" x1="290.8" y1="9682.9" x2="290.8" y2="9273.4" gradientTransform="translate(598.5056 10054.2453) rotate(-180)" gradientUnits="userSpaceOnUse">
      <stop offset="0" stop-color="#00544f"/>
      <stop offset="1" stop-color="#003834"/>
    </linearGradient>
    <linearGradient id="linear-gradient1" x1="-146.3" y1="9682.9" x2="-146.3" y2="9273.4" gradientTransform="translate(598.5056 10054.2453) rotate(-180)" gradientUnits="userSpaceOnUse">
      <stop offset="0" stop-color="#00544f"/>
      <stop offset="1" stop-color="#003834"/>
    </linearGradient>
    <linearGradient id="linear-gradient2" x1="-583.4" y1="9682.9" x2="-583.4" y2="9273.4" gradientTransform="translate(598.5056 10054.2453) rotate(-180)" gradientUnits="userSpaceOnUse">
      <stop offset="0" stop-color="#00544f"/>
      <stop offset="1" stop-color="#003834"/>
    </linearGradient>
    <linearGradient id="linear-gradient3" x1="-1020.5" y1="9682.9" x2="-1020.5" y2="9273.4" gradientTransform="translate(598.5056 10054.2453) rotate(-180)" gradientUnits="userSpaceOnUse">
      <stop offset="0" stop-color="#00544f"/>
      <stop offset="1" stop-color="#003834"/>
    </linearGradient>
  </defs>
  <rect class="st9" width="1920" height="1080"/>
  <g>
    <g class="st7">
      <g class="st7">
        <g class="st7">
          <path class="st8" d="M269.7,268.1c-6.4-1.8-11.6-4.1-15.6-7l7.1-16.2c4.2,2.7,8.8,4.7,13.6,6.1,4.8,1.4,9.7,2.1,14.6,2.1s8.8-.7,11.4-2.1,3.9-3.3,3.9-5.8-1.2-4.1-3.6-5.5c-2.4-1.4-6.9-2.8-13.6-4.2-8.2-1.8-14.7-3.8-19.4-6.2-4.7-2.4-7.9-5.2-9.8-8.5s-2.8-7.2-2.8-12,1.5-10.3,4.6-14.6c3-4.3,7.3-7.7,12.9-10.1,5.5-2.5,11.9-3.7,19.1-3.7s12.5.9,18.4,2.7c6,1.8,10.6,4.1,13.9,6.9l-7,16.2c-8-5.5-16.4-8.2-25.2-8.2s-7.7.8-10.2,2.4c-2.6,1.6-3.9,3.8-3.9,6.4s.5,2.9,1.4,3.9c.9,1,2.6,2,5.1,2.9,2.5,1,6.2,1.9,11.1,2.9,8,1.8,14.3,3.9,18.9,6.3,4.6,2.5,7.8,5.3,9.8,8.6,1.9,3.2,2.9,7.1,2.9,11.6,0,8.7-3.3,15.4-10,20.3-6.7,4.9-16,7.3-28.1,7.3s-13.1-.9-19.5-2.6Z"/>
          <path class="st8" d="M359.1,265.1c-6.8-3.8-12-9-15.6-15.9-3.6-6.8-5.4-14.8-5.4-23.8s1.8-16.9,5.4-23.7c3.6-6.8,8.8-12.1,15.6-15.8,6.8-3.8,14.8-5.6,23.9-5.6s11.3.9,16.7,2.6,9.8,4.1,13.2,7l-7.1,16.2c-7.2-5.1-14.7-7.6-22.2-7.6s-12.6,2.2-16.4,6.8c-3.8,4.5-5.7,11.2-5.7,20.1s1.9,15.6,5.7,20.2c3.8,4.5,9.3,6.8,16.4,6.8s15-2.5,22.2-7.6l7.1,16.2c-3.4,2.9-7.8,5.2-13.2,7s-10.9,2.6-16.7,2.6c-9.2,0-17.1-1.9-23.9-5.6Z"/>
          <path class="st8" d="M425.1,181.5h23v88.1h-23v-88.1Z"/>
          <path class="st8" d="M559.8,228.6h-61v-14.9h61v14.9ZM559.8,253.6h-61v-14.9h61v14.9Z"/>
          <path class="st8" d="M618.9,264.7c-2.8-8.8-4.1-18.2-4.1-28s1.4-19.2,4.1-28c2.8-8.8,7.6-18.7,14.6-29.6l14.4,6c-4,10.4-6.7,19.5-8.2,27.2-1.5,7.7-2.2,15.9-2.2,24.4s.7,16.7,2.2,24.4c1.5,7.7,4.2,16.8,8.2,27.2l-14.4,6c-7-10.9-11.9-20.8-14.6-29.6Z"/>
          <path class="st8" d="M668.7,264.7c-2.8-8.8-4.1-18.2-4.1-28s1.4-19.2,4.1-28c2.8-8.8,7.6-18.7,14.6-29.6l14.4,6c-4,10.4-6.7,19.5-8.2,27.2-1.5,7.7-2.2,15.9-2.2,24.4s.7,16.7,2.2,24.4c1.5,7.7,4.2,16.8,8.2,27.2l-14.4,6c-7-10.9-11.9-20.8-14.6-29.6Z"/>
          <path class="st8" d="M710.1,181.5h62.6v17.8h-40.2v16.8h37.8v17.6h-37.8v18.2h40.2v17.8h-62.6v-88.1Z"/>
          <path class="st8" d="M860.4,233.6l18.8,18.8-10.5,10.5-18.8-18.8-18.8,18.8-10.5-10.5,18.8-18.8-18.8-18.8,10.5-10.5,18.8,18.8,18.8-18.8,10.5,10.5-18.8,18.8Z"/>
          <path class="st8" d="M931.2,181.5h23v88.1h-23v-88.1Z"/>
          <path class="st8" d="M966.6,288.3c4-10.4,6.7-19.5,8.2-27.2,1.5-7.7,2.2-15.9,2.2-24.4s-.7-16.7-2.2-24.4c-1.5-7.7-4.2-16.8-8.2-27.2l14.4-6c7,10.9,11.9,20.8,14.6,29.6,2.8,8.8,4.1,18.2,4.1,28s-1.4,19.2-4.1,28-7.6,18.7-14.6,29.6l-14.4-6Z"/>
          <path class="st8" d="M1115.7,241.1h-23.1v23h-14.8v-23h-23.1v-14.9h23.1v-23.1h14.8v23.1h23.1v14.9Z"/>
          <path class="st8" d="M1255.4,181.5v88.1h-20v-46.2l-17,31.6h-14.8l-16.9-30.9v45.5h-20.1v-88.1h18.1l26.5,50.1,26.4-50.1h17.8Z"/>
          <path class="st8" d="M1268.1,288.3c4-10.4,6.7-19.5,8.2-27.2,1.5-7.7,2.2-15.9,2.2-24.4s-.7-16.7-2.2-24.4c-1.5-7.7-4.2-16.8-8.2-27.2l14.4-6c7,10.9,11.9,20.8,14.6,29.6,2.8,8.8,4.1,18.2,4.1,28s-1.4,19.2-4.1,28-7.6,18.7-14.6,29.6l-14.4-6Z"/>
          <path class="st8" d="M1410.5,210.7c4.1,2.7,7.3,6.5,9.6,11.4,2.3,4.9,3.4,10.5,3.4,16.9s-1.1,11.9-3.4,16.7c-2.3,4.8-5.5,8.5-9.6,11.1-4.1,2.6-8.8,3.9-14.1,3.9s-7.5-.8-10.8-2.4c-3.3-1.6-5.9-3.7-7.7-6.4v30.2h-22.2v-84h21.9v7.9c1.8-2.9,4.3-5.2,7.7-6.9,3.4-1.7,7.1-2.5,11.2-2.5s9.9,1.4,14.1,4.1ZM1398.5,250.1c2-2.6,3.1-6.3,3.1-11.1s-1-9-3.1-11.7c-2.1-2.7-5-4.1-8.9-4.1s-6.8,1.3-8.9,4c-2.1,2.7-3.1,6.5-3.1,11.5s1,8.7,3.1,11.3c2.1,2.6,5.1,3.9,9,3.9s6.8-1.3,8.8-3.9Z"/>
          <path class="st8" d="M1490.6,243.1h-38c.7,4,2.1,6.9,4.4,8.6s5.5,2.6,9.6,2.6,6-.5,9.1-1.5c3.1-1,5.8-2.4,8.2-4.1l5.6,14.6c-3.1,2.2-6.8,4-11.1,5.3-4.3,1.3-8.7,1.9-13,1.9-7.1,0-13.2-1.3-18.4-3.9-5.2-2.6-9.1-6.3-11.9-11.1-2.8-4.8-4.2-10.5-4.2-17s1.3-11.7,3.9-16.6,6.3-8.7,11-11.4c4.7-2.7,10-4.1,15.9-4.1,8.8,0,15.8,2.8,21,8.4,5.2,5.6,7.8,13.3,7.8,23.1v5ZM1452.3,232.6h19.6c-.5-7.3-3.7-11-9.5-11s-9.3,3.7-10.1,11Z"/>
          <path class="st8" d="M1548.1,224.7l-12.1,1.2c-4.8.5-8.2,1.8-10.1,3.9-1.9,2.1-2.9,5-2.9,8.9v30.9h-22.2v-61.5h21.1v10.6c1.4-3.8,3.8-6.6,7-8.6,3.2-2,7.2-3.1,11.9-3.3l6.1-.5,1.2,18.4Z"/>
          <path class="st8" d="M1669.6,269.6h-25.2l-15.2-28.1c-1.9-3.2-5-4.9-9.1-4.9h-7v33h-22.6v-88.1h42c10.7,0,18.7,2.3,24.1,6.9s8.1,11.3,8.1,20.1-1.8,12.3-5.5,16.9c-3.7,4.6-8.8,7.7-15.5,9.3,5.1,1.1,9.1,4.4,12.1,9.9l14,25ZM1639.6,217c2.2-1.6,3.3-4.2,3.3-7.8s-1.1-6.3-3.3-7.9c-2.2-1.6-5.9-2.4-10.9-2.4h-16v20.5h16c5.1,0,8.7-.8,10.9-2.4Z"/>
        </g>
      </g>
    </g>
    <path class="st6" d="M463,371.3H152.4c-21.5,0-38.8,13.7-38.8,30.5v348.5c0,16.8,17.4,30.5,38.8,30.5h310.7c21.5,0,38.8-13.7,38.8-30.5v-348.5c0-16.8-17.4-30.5-38.8-30.5h-.1Z"/>
    <path class="st4" d="M900.2,371.3h-310.7c-21.5,0-38.8,13.7-38.8,30.5v348.5c0,16.8,17.4,30.5,38.8,30.5h310.7c21.5,0,38.8-13.7,38.8-30.5v-348.5c0-16.8-17.4-30.5-38.8-30.5Z"/>
    <path class="st3" d="M1337.3,371.3h-310.7c-21.5,0-38.8,13.7-38.8,30.5v348.5c0,16.8,17.4,30.5,38.8,30.5h310.7c21.5,0,38.8-13.7,38.8-30.5v-348.5c0-16.8-17.4-30.5-38.8-30.5Z"/>
    <path class="st5" d="M1774.4,371.3h-310.7c-21.5,0-38.8,13.7-38.8,30.5v348.5c0,16.8,17.4,30.5,38.8,30.5h310.7c21.5,0,38.8-13.7,38.8-30.5v-348.5c0-16.8-17.4-30.5-38.8-30.5h0Z"/>
    <g class="st7">
      <g class="st7">
        <g class="st7">
          <path class="st0" d="M272.5,450.8h75.1v21.3h-48.3v20.1h45.3v21.1h-45.3v21.9h48.3v21.3h-75.1v-105.8Z"/>
        </g>
      </g>
    </g>
    <g class="st7">
      <g class="st7">
        <g class="st7">
          <path class="st0" d="M731,450.8h27.6v105.8h-27.6v-105.8Z"/>
        </g>
      </g>
    </g>
    <g class="st7">
      <g class="st7">
        <g class="st7">
          <path class="st0" d="M1235.3,450.8v105.7h-24v-55.5l-20.4,38h-17.7l-20.2-37v54.6h-24.1v-105.7h21.8l31.8,60.2,31.7-60.2h21.3Z"/>
        </g>
      </g>
    </g>
    <g class="st7">
      <g class="st7">
        <g class="st7">
          <path class="st0" d="M1670.8,556.5h-30.3l-18.3-33.7c-2.3-3.9-6-5.8-11-5.8h-8.4v39.6h-27.2v-105.7h50.4c12.8,0,22.4,2.8,28.9,8.3s9.7,13.6,9.7,24.1-2.2,14.8-6.6,20.3c-4.4,5.6-10.6,9.3-18.6,11.2,6.1,1.3,11,5.2,14.5,11.8l16.8,30ZM1634.9,493.4c2.6-1.9,4-5,4-9.3s-1.3-7.6-4-9.5c-2.7-2-7-2.9-13.1-2.9h-19.2v24.6h19.2c6.1,0,10.5-.9,13.1-2.9Z"/>
        </g>
      </g>
    </g>
    <g class="st7">
      <g class="st7">
        <path class="st1" d="M246.5,625.4h18.9v4.1h-13.8v7.8h13v4h-13v8.2h13.8v4.1h-18.9v-28.2Z"/>
        <path class="st1" d="M286.2,635.6c1.1,1.3,1.7,3.3,1.7,6v12h-5v-11.7c0-1.5-.3-2.6-.9-3.3-.6-.7-1.5-1-2.7-1s-2.6.5-3.5,1.4c-.9.9-1.3,2.1-1.3,3.6v11.1h-5v-19.6h4.9v2.9c.7-1.1,1.6-1.9,2.7-2.5,1.1-.6,2.4-.9,3.8-.9,2.3,0,4.1.7,5.2,2Z"/>
        <path class="st1" d="M310.2,644.7h-13.3c.2,1.8.7,3.2,1.6,4,.9.9,2.3,1.3,4,1.3s4.1-.7,5.9-2.1l1.4,3.4c-.9.7-2,1.3-3.4,1.8-1.4.5-2.8.7-4.1.7-3.2,0-5.7-.9-7.6-2.7-1.9-1.8-2.8-4.3-2.8-7.4s.4-3.8,1.2-5.3c.8-1.5,1.9-2.7,3.4-3.6,1.5-.9,3.1-1.3,4.9-1.3,2.7,0,4.8.9,6.4,2.6,1.6,1.7,2.3,4.1,2.3,7.2v1.4ZM298.4,638.4c-.8.9-1.3,2.1-1.5,3.7h9c0-1.6-.5-2.9-1.2-3.7s-1.8-1.3-3.1-1.3-2.4.4-3.2,1.3Z"/>
        <path class="st1" d="M327.1,637.7l-2.9.3c-3.3.3-5,2-5,5v10.6h-5v-19.6h4.8v3.4c1-2.3,3.1-3.6,6.3-3.8h1.5c0-.1.3,4.1.3,4.1Z"/>
        <path class="st1" d="M348.2,634v17.8c0,3.1-.8,5.4-2.5,7-1.7,1.6-4.2,2.4-7.5,2.4s-3.3-.2-4.9-.7c-1.6-.4-2.9-1.1-4.1-1.9l1.4-3.5c2.4,1.5,4.9,2.2,7.5,2.2s5.2-1.7,5.2-5.1v-2.6c-.6,1.1-1.4,1.9-2.6,2.5s-2.4.9-3.8.9-3.2-.4-4.5-1.2c-1.3-.8-2.4-2-3.1-3.4-.7-1.5-1.1-3.2-1.1-5.1s.4-3.6,1.1-5.1c.7-1.5,1.8-2.6,3.1-3.4,1.3-.8,2.9-1.2,4.6-1.2s2.7.3,3.8.9c1.1.6,2,1.4,2.6,2.5v-3h5ZM341.9,647.6c.9-1,1.3-2.5,1.3-4.3s-.4-3.3-1.3-4.3c-.9-1-2.1-1.6-3.7-1.6s-2.8.5-3.7,1.6c-.9,1-1.4,2.5-1.4,4.3s.5,3.2,1.4,4.3c.9,1.1,2.1,1.6,3.7,1.6s2.8-.5,3.7-1.6Z"/>
        <path class="st1" d="M372,634.1l-11.8,26.7h-5l3.6-8-8.2-18.8h5.3l5.5,13.8,5.7-13.8h4.9Z"/>
      </g>
    </g>
    <g class="st7">
      <g class="st7">
        <path class="st8" d="M190.6,721.2h13.4v2h-11v7.4h10.4v2h-10.4v7.7h11v2h-13.4v-21.2Z"/>
        <path class="st8" d="M220.3,733.2v9.2h-2.4v-9c0-1.4-.3-2.3-.8-3-.5-.6-1.4-.9-2.5-.9s-2.4.4-3.2,1.2c-.8.8-1.2,1.9-1.2,3.3v8.4h-2.4v-14.6h2.4v2.4c.5-.9,1.1-1.6,2-2.1.9-.5,1.8-.7,2.9-.7,3.5,0,5.2,1.9,5.2,5.8Z"/>
        <path class="st8" d="M237,735.5h-10.7c0,1.7.5,3,1.4,3.9s2,1.3,3.6,1.3,3.3-.6,4.7-1.7l.8,1.8c-.6.6-1.5,1.1-2.5,1.4-1,.4-2,.5-3.1.5-2.3,0-4.1-.7-5.4-2-1.3-1.3-2-3.2-2-5.5s.3-2.8.9-4c.6-1.1,1.4-2,2.4-2.7,1.1-.6,2.2-1,3.6-1,1.9,0,3.5.6,4.6,1.9,1.1,1.3,1.7,3,1.7,5.2v.9ZM227.8,730.5c-.8.8-1.2,1.9-1.4,3.4h8.5c0-1.5-.4-2.6-1.1-3.4-.7-.8-1.7-1.2-2.9-1.2s-2.3.4-3.1,1.2Z"/>
        <path class="st8" d="M248.9,729.5l-1.6.2c-1.5.1-2.6.6-3.3,1.4-.7.8-1,1.8-1,3v8.3h-2.4v-14.6h2.4v2.6c.8-1.7,2.4-2.7,4.8-2.9h.9c0,0,.2,2,.2,2Z"/>
        <path class="st8" d="M264,727.8v13.6c0,2.2-.6,3.8-1.7,4.9-1.1,1.1-2.8,1.7-5,1.7s-4.7-.7-6.4-2l.8-1.8c1,.6,1.9,1.1,2.8,1.4.9.3,1.8.4,2.9.4s2.5-.4,3.2-1.1c.7-.8,1.1-1.8,1.1-3.3v-2.6c-.4.9-1.1,1.7-1.9,2.2-.9.5-1.9.8-3.1.8s-2.4-.3-3.4-.9c-1-.6-1.8-1.5-2.3-2.6-.6-1.1-.8-2.4-.8-3.8s.3-2.7.8-3.8c.5-1.1,1.3-2,2.3-2.6,1-.6,2.1-.9,3.4-.9s2.2.2,3,.8c.9.5,1.5,1.2,1.9,2.1v-2.5h2.4ZM260.3,738.5c.8-.9,1.2-2.2,1.2-3.9s-.4-2.9-1.2-3.8-1.9-1.4-3.3-1.4-2.5.5-3.3,1.4-1.2,2.2-1.2,3.8.4,2.9,1.2,3.9c.8.9,1.9,1.4,3.3,1.4s2.5-.5,3.3-1.4Z"/>
        <path class="st8" d="M281.4,727.8l-8.6,20h-2.5l2.5-5.6-6.2-14.4h2.6l4.9,11.9,5-11.9h2.4Z"/>
        <path class="st8" d="M294,741.7c-1.1-.6-1.9-1.5-2.4-2.6-.6-1.1-.9-2.5-.9-4s.3-2.9.9-4c.6-1.1,1.4-2,2.5-2.7s2.3-1,3.8-1,1.9.2,2.9.5c.9.4,1.7.8,2.3,1.4l-.8,1.8c-1.4-1.1-2.8-1.7-4.2-1.7s-2.7.5-3.5,1.5c-.8,1-1.3,2.4-1.3,4.1s.4,3.1,1.3,4.1c.8,1,2,1.4,3.5,1.4s2.8-.6,4.2-1.7l.8,1.8c-.6.6-1.4,1-2.3,1.4s-1.9.5-2.9.5c-1.4,0-2.7-.3-3.8-.9Z"/>
        <path class="st8" d="M308.4,741.7c-1-.6-1.9-1.5-2.4-2.7-.6-1.1-.9-2.5-.9-4s.3-2.9.9-4c.6-1.2,1.4-2,2.4-2.7s2.3-.9,3.6-.9,2.6.3,3.7.9c1.1.6,1.9,1.5,2.4,2.7s.9,2.5.9,4-.3,2.9-.9,4c-.6,1.2-1.4,2-2.4,2.7-1.1.6-2.3.9-3.7.9s-2.6-.3-3.6-.9ZM315.4,739.2c.8-1,1.2-2.3,1.2-4.2s-.4-3.2-1.2-4.1c-.8-1-1.9-1.5-3.3-1.5s-2.5.5-3.3,1.5c-.8,1-1.2,2.3-1.2,4.1s.4,3.2,1.2,4.1c.8,1,1.9,1.4,3.3,1.4s2.5-.5,3.3-1.4Z"/>
        <path class="st8" d="M335.2,733.2v9.2h-2.4v-9c0-1.4-.3-2.3-.8-3-.5-.6-1.4-.9-2.5-.9s-2.4.4-3.2,1.2c-.8.8-1.2,1.9-1.2,3.3v8.4h-2.4v-14.6h2.4v2.4c.5-.9,1.1-1.6,2-2.1.9-.5,1.8-.7,2.9-.7,3.5,0,5.2,1.9,5.2,5.8Z"/>
        <path class="st8" d="M338.8,740.7l.8-1.8c.8.6,1.6,1.1,2.4,1.3.8.3,1.7.4,2.7.4s1.9-.2,2.5-.6c.6-.4.9-.9.9-1.6s-.2-1-.6-1.4c-.4-.3-1-.6-1.9-.8l-2.5-.6c-1.2-.3-2.2-.8-2.9-1.4-.7-.7-1-1.5-1-2.5s.5-2.3,1.5-3.1,2.4-1.2,4.1-1.2,2,.2,2.9.5,1.7.8,2.3,1.4l-.8,1.8c-1.3-1.1-2.8-1.7-4.4-1.7s-1.8.2-2.4.6c-.6.4-.9.9-.9,1.6s.2,1,.5,1.4c.3.4.9.6,1.7.8l2.5.6c1.4.3,2.4.8,3,1.5.7.7,1,1.5,1,2.5s-.5,2.3-1.5,3.1c-1,.8-2.4,1.1-4.2,1.1s-4.4-.6-5.9-1.9Z"/>
        <path class="st8" d="M366.4,727.8v14.6h-2.4v-2.5c-.5.9-1.1,1.6-1.9,2-.8.5-1.8.7-2.8.7-1.7,0-3.1-.5-3.9-1.5-.9-1-1.3-2.4-1.3-4.3v-9.1h2.4v9c0,1.3.3,2.3.8,2.9.5.6,1.3.9,2.5.9s2.3-.4,3.1-1.2c.8-.8,1.2-1.9,1.2-3.3v-8.2h2.4Z"/>
        <path class="st8" d="M392,733.2v9.2h-2.4v-9.1c0-1.3-.2-2.3-.7-2.9-.5-.6-1.2-.9-2.3-.9s-2.2.4-2.9,1.2c-.7.8-1,1.9-1,3.4v8.3h-2.4v-9.1c0-1.4-.2-2.3-.7-3s-1.2-.9-2.3-.9-2.2.4-2.9,1.2c-.7.8-1,1.9-1,3.4v8.3h-2.4v-14.6h2.4v2.3c.4-.9,1.1-1.5,1.8-2,.8-.5,1.7-.7,2.7-.7,2.3,0,3.8,1,4.5,2.9.4-.9,1.1-1.6,1.9-2.1s1.8-.8,2.9-.8c3.2,0,4.9,1.9,4.9,5.8Z"/>
        <path class="st8" d="M408.7,735.5h-10.7c0,1.7.5,3,1.4,3.9s2,1.3,3.6,1.3,3.3-.6,4.7-1.7l.8,1.8c-.6.6-1.5,1.1-2.5,1.4-1,.4-2,.5-3.1.5-2.3,0-4.1-.7-5.4-2-1.3-1.3-2-3.2-2-5.5s.3-2.8.9-4c.6-1.1,1.4-2,2.4-2.7,1.1-.6,2.2-1,3.6-1,1.9,0,3.5.6,4.6,1.9,1.1,1.3,1.7,3,1.7,5.2v.9ZM399.4,730.5c-.8.8-1.2,1.9-1.4,3.4h8.5c0-1.5-.4-2.6-1.1-3.4-.7-.8-1.7-1.2-2.9-1.2s-2.3.4-3.1,1.2Z"/>
        <path class="st8" d="M425.2,721.2v21.2h-2.4v-2.7c-.4.9-1.1,1.6-1.9,2.1-.9.5-1.8.8-3,.8s-2.4-.3-3.4-1c-1-.6-1.7-1.5-2.3-2.7-.5-1.2-.8-2.5-.8-4s.3-2.8.8-4c.5-1.1,1.3-2,2.3-2.6,1-.6,2.1-.9,3.4-.9s2.1.2,3,.8c.8.5,1.5,1.2,1.9,2.1v-9.1h2.4ZM421.6,739.1c.8-1,1.2-2.3,1.2-4.1s-.4-3.2-1.2-4.1c-.8-1-1.9-1.4-3.3-1.4s-2.5.5-3.3,1.4-1.2,2.3-1.2,4,.4,3.2,1.2,4.2,1.9,1.5,3.3,1.5,2.5-.5,3.3-1.5Z"/>
      </g>
    </g>
    <g class="st7">
      <g class="st7">
        <path class="st8" d="M216.4,764.4c1,.6,1.7,1.5,2.3,2.6.5,1.1.8,2.5.8,4s-.3,2.9-.8,4c-.5,1.1-1.3,2-2.3,2.7-1,.6-2.1,1-3.4,1s-2.1-.2-3-.8c-.9-.5-1.5-1.2-1.9-2.1v2.7h-2.4v-21.2h2.4v9.1c.4-.9,1.1-1.6,1.9-2.1.8-.5,1.8-.8,3-.8s2.4.3,3.4.9ZM215.8,775.1c.8-1,1.2-2.4,1.2-4.2s-.4-3.1-1.2-4c-.8-1-1.9-1.4-3.3-1.4s-2.5.5-3.3,1.4c-.8,1-1.2,2.3-1.2,4.1s.4,3.2,1.2,4.1c.8,1,1.9,1.5,3.3,1.5s2.5-.5,3.3-1.5Z"/>
        <path class="st8" d="M235.8,763.8l-8.6,20h-2.5l2.5-5.6-6.2-14.4h2.6l4.9,11.9,5-11.9h2.4Z"/>
        <path class="st8" d="M253.8,776.6v1.9c-.6,0-1.1.1-1.6.1-1.8,0-3.1-.5-4-1.4-.9-.9-1.3-2.2-1.3-3.8v-7.7h-2.9v-1.9h2.9v-4.4h2.4v4.4h4.1v1.9h-4.1v7.5c0,2.3,1.1,3.5,3.2,3.5s.9,0,1.3,0Z"/>
        <path class="st8" d="M268.9,769.2v9.2h-2.4v-9c0-1.4-.3-2.3-.8-3-.5-.6-1.4-.9-2.5-.9s-2.4.4-3.2,1.2c-.8.8-1.2,1.9-1.2,3.3v8.4h-2.4v-21.2h2.4v8.9c.5-.9,1.1-1.5,2-2,.9-.5,1.8-.7,2.9-.7,3.5,0,5.2,1.9,5.2,5.8Z"/>
        <path class="st8" d="M285.5,771.5h-10.7c0,1.7.5,3,1.4,3.9s2,1.3,3.6,1.3,3.3-.6,4.7-1.7l.8,1.8c-.6.6-1.5,1.1-2.5,1.4-1,.4-2,.5-3.1.5-2.3,0-4.1-.7-5.4-2-1.3-1.3-2-3.2-2-5.5s.3-2.8.9-4c.6-1.1,1.4-2,2.4-2.7,1.1-.6,2.2-1,3.6-1,1.9,0,3.5.6,4.6,1.9,1.1,1.3,1.7,3,1.7,5.2v.9ZM276.3,766.5c-.8.8-1.2,1.9-1.4,3.4h8.5c0-1.5-.4-2.6-1.1-3.4-.7-.8-1.7-1.2-2.9-1.2s-2.3.4-3.1,1.2Z"/>
        <path class="st8" d="M295.9,776.7l.8-1.8c.8.6,1.6,1.1,2.4,1.3.8.3,1.7.4,2.7.4s1.9-.2,2.5-.6c.6-.4.9-.9.9-1.6s-.2-1-.6-1.4c-.4-.3-1-.6-1.9-.8l-2.5-.6c-1.2-.3-2.2-.8-2.9-1.4-.7-.7-1-1.5-1-2.5s.5-2.3,1.5-3.1,2.4-1.2,4.1-1.2,2,.2,2.9.5,1.7.8,2.3,1.4l-.8,1.8c-1.3-1.1-2.8-1.7-4.4-1.7s-1.8.2-2.4.6c-.6.4-.9.9-.9,1.6s.2,1,.5,1.4c.3.4.9.6,1.7.8l2.5.6c1.4.3,2.4.8,3,1.5.7.7,1,1.5,1,2.5s-.5,2.3-1.5,3.1c-1,.8-2.4,1.1-4.2,1.1s-4.4-.6-5.9-1.9Z"/>
        <path class="st8" d="M313.7,777.7c-1-.6-1.9-1.5-2.4-2.7-.6-1.1-.9-2.5-.9-4s.3-2.9.9-4c.6-1.2,1.4-2,2.4-2.7s2.3-.9,3.6-.9,2.6.3,3.7.9c1.1.6,1.9,1.5,2.4,2.7s.9,2.5.9,4-.3,2.9-.9,4c-.6,1.2-1.4,2-2.4,2.7-1.1.6-2.3.9-3.7.9s-2.6-.3-3.6-.9ZM320.6,775.2c.8-1,1.2-2.3,1.2-4.2s-.4-3.2-1.2-4.1c-.8-1-1.9-1.5-3.3-1.5s-2.5.5-3.3,1.5c-.8,1-1.2,2.3-1.2,4.1s.4,3.2,1.2,4.1c.8,1,1.9,1.4,3.3,1.4s2.5-.5,3.3-1.4Z"/>
        <path class="st8" d="M331.1,763.8h4.1v1.9h-4.1v12.7h-2.4v-12.7h-2.9v-1.9h2.9v-.5c0-1.9.5-3.4,1.5-4.4,1-1,2.5-1.6,4.5-1.7h1.2c0,0,.2,1.8.2,1.8h-1.4c-1.2.2-2.1.5-2.7,1.1-.6.6-.8,1.5-.8,2.8v.8Z"/>
        <path class="st8" d="M344.8,776.6v1.9c-.6,0-1.1.1-1.6.1-1.8,0-3.1-.5-4-1.4-.9-.9-1.3-2.2-1.3-3.8v-7.7h-2.9v-1.9h2.9v-4.4h2.4v4.4h4.1v1.9h-4.1v7.5c0,2.3,1.1,3.5,3.2,3.5s.9,0,1.3,0Z"/>
        <path class="st8" d="M369.7,763.8l-5.4,14.6h-2.3l-4.1-11.3-4.1,11.3h-2.3l-5.4-14.6h2.5l4.1,11.7,4.2-11.7h2.1l4.2,11.7,4.2-11.7h2.4Z"/>
        <path class="st8" d="M382.5,764.9c.9,1,1.4,2.4,1.4,4.3v9.2h-2.4v-2.5c-.4.9-1,1.5-1.7,2-.8.5-1.7.7-2.7.7s-1.8-.2-2.6-.6c-.8-.4-1.4-.9-1.9-1.6-.5-.7-.7-1.4-.7-2.2s.3-2,.8-2.6c.6-.6,1.5-1.1,2.8-1.3,1.3-.3,3.1-.4,5.3-.4h.7v-1c0-1.2-.2-2.1-.8-2.7s-1.3-.8-2.4-.8c-1.7,0-3.4.5-5,1.6l-.8-1.8c.8-.5,1.7-1,2.7-1.3,1.1-.3,2.1-.5,3.1-.5,1.9,0,3.2.5,4.2,1.4ZM380.3,775.5c.8-.8,1.2-1.9,1.2-3.1v-.9h-.5c-1.8,0-3.1,0-4,.2s-1.6.4-2,.8c-.4.4-.6.9-.6,1.5s.3,1.4.9,1.9c.6.5,1.3.8,2.1.8s2.2-.4,3-1.2Z"/>
        <path class="st8" d="M396.6,765.5l-1.6.2c-1.5.1-2.6.6-3.3,1.4-.7.8-1,1.8-1,3v8.3h-2.4v-14.6h2.4v2.6c.8-1.7,2.4-2.7,4.8-2.9h.9c0,0,.2,2,.2,2Z"/>
        <path class="st8" d="M410.8,771.5h-10.7c0,1.7.5,3,1.4,3.9s2,1.3,3.6,1.3,3.3-.6,4.7-1.7l.8,1.8c-.6.6-1.5,1.1-2.5,1.4-1,.4-2,.5-3.1.5-2.3,0-4.1-.7-5.4-2-1.3-1.3-2-3.2-2-5.5s.3-2.8.9-4c.6-1.1,1.4-2,2.4-2.7,1.1-.6,2.2-1,3.6-1,1.9,0,3.5.6,4.6,1.9,1.1,1.3,1.7,3,1.7,5.2v.9ZM401.6,766.5c-.8.8-1.2,1.9-1.4,3.4h8.5c0-1.5-.4-2.6-1.1-3.4-.7-.8-1.7-1.2-2.9-1.2s-2.3.4-3.1,1.2Z"/>
      </g>
    </g>
    <g class="st7">
      <g class="st7">
        <path class="st1" d="M667.9,625.4h5.2v28.2h-5.2v-28.2Z"/>
        <path class="st1" d="M695.3,635.6c1.1,1.3,1.7,3.3,1.7,6v12h-5v-11.7c0-1.5-.3-2.6-.9-3.3-.6-.7-1.5-1-2.7-1s-2.6.5-3.5,1.4c-.9.9-1.3,2.1-1.3,3.6v11.1h-5v-19.6h4.9v2.9c.7-1.1,1.6-1.9,2.7-2.5,1.1-.6,2.4-.9,3.8-.9,2.3,0,4.1.7,5.2,2Z"/>
        <path class="st1" d="M714,650l-.2,3.7c-.8,0-1.5.1-2.2.1-2.7,0-4.8-.6-6.1-1.9-1.3-1.3-2-3.2-2-5.7v-8.5h-3.8v-3.8h3.8v-5.8h5v5.8h5.2v3.8h-5.2v8.4c0,2.6,1.2,3.9,3.6,3.9s1.2,0,1.8-.1Z"/>
        <path class="st1" d="M734.1,644.7h-13.3c.2,1.8.7,3.2,1.6,4,.9.9,2.3,1.3,4,1.3s4.1-.7,5.9-2.1l1.4,3.4c-.9.7-2,1.3-3.4,1.8-1.4.5-2.8.7-4.1.7-3.2,0-5.7-.9-7.6-2.7-1.9-1.8-2.8-4.3-2.8-7.4s.4-3.8,1.2-5.3c.8-1.5,1.9-2.7,3.4-3.6,1.5-.9,3.1-1.3,4.9-1.3,2.7,0,4.8.9,6.4,2.6,1.6,1.7,2.3,4.1,2.3,7.2v1.4ZM722.2,638.4c-.8.9-1.3,2.1-1.5,3.7h9c0-1.6-.5-2.9-1.2-3.7s-1.8-1.3-3.1-1.3-2.4.4-3.2,1.3Z"/>
        <path class="st1" d="M754.7,635.6c1.1,1.3,1.7,3.3,1.7,6v12h-5v-11.7c0-1.5-.3-2.6-.9-3.3-.6-.7-1.5-1-2.7-1s-2.6.5-3.5,1.4c-.9.9-1.3,2.1-1.3,3.6v11.1h-5v-19.6h4.9v2.9c.7-1.1,1.6-1.9,2.7-2.5,1.1-.6,2.4-.9,3.8-.9,2.3,0,4.1.7,5.2,2Z"/>
        <path class="st1" d="M763.9,653.3c-1.5-.4-2.7-1-3.7-1.8l1.4-3.5c2.1,1.5,4.5,2.3,7.2,2.3s2-.2,2.6-.6c.6-.4.9-.9.9-1.6s-.2-1-.6-1.4-1.2-.6-2.2-.9l-3.2-.7c-1.8-.4-3.2-1.1-4-2-.9-.9-1.3-2.1-1.3-3.5s.3-2.3,1-3.2,1.6-1.6,2.8-2.1c1.2-.5,2.6-.8,4.2-.8s2.7.2,4,.6c1.3.4,2.4,1,3.4,1.8l-1.4,3.4c-2-1.5-4.1-2.2-6.1-2.2s-1.9.2-2.6.6c-.6.4-.9,1-.9,1.7s.2,1,.6,1.3c.4.3,1,.6,1.9.8l3.3.8c1.9.4,3.4,1.1,4.3,2,.9.9,1.4,2.1,1.4,3.6s-.7,3.3-2.2,4.3c-1.5,1.1-3.5,1.6-6,1.6s-3.3-.2-4.8-.6Z"/>
        <path class="st1" d="M786.2,625v4.9h-5.5v-4.9h5.5ZM780.9,634h5v19.6h-5v-19.6Z"/>
        <path class="st1" d="M802.9,650l-.2,3.7c-.8,0-1.5.1-2.2.1-2.7,0-4.8-.6-6.1-1.9-1.3-1.3-2-3.2-2-5.7v-8.5h-3.8v-3.8h3.8v-5.8h5v5.8h5.2v3.8h-5.2v8.4c0,2.6,1.2,3.9,3.6,3.9s1.2,0,1.8-.1Z"/>
        <path class="st1" d="M824.8,634.1l-11.8,26.7h-5l3.6-8-8.2-18.8h5.3l5.5,13.8,5.7-13.8h4.9Z"/>
      </g>
    </g>
    <g class="st7">
      <g class="st7">
        <path class="st8" d="M624.1,741.3c-1.5-.9-2.6-2.1-3.4-3.8-.8-1.6-1.2-3.6-1.2-5.8s.4-4.1,1.2-5.8c.8-1.6,1.9-2.9,3.4-3.7,1.5-.9,3.2-1.3,5.2-1.3s2.8.2,4,.7c1.2.5,2.3,1.1,3.2,2l-.9,1.9c-1-.9-2-1.5-3-1.9-1-.4-2.1-.6-3.2-.6-2.3,0-4.1.8-5.4,2.3-1.3,1.5-1.9,3.6-1.9,6.4s.6,4.9,1.9,6.4c1.3,1.5,3.1,2.3,5.4,2.3s2.3-.2,3.2-.6c1-.4,2-1,3-1.9l.9,1.9c-.9.9-2,1.5-3.2,2-1.2.4-2.6.7-4,.7s-3.7-.4-5.2-1.3Z"/>
        <path class="st8" d="M650,728.9c.9,1,1.4,2.4,1.4,4.3v9.2h-2.4v-2.5c-.4.9-1,1.5-1.7,2-.8.5-1.7.7-2.7.7s-1.8-.2-2.6-.6c-.8-.4-1.4-.9-1.9-1.6-.5-.7-.7-1.4-.7-2.2s.3-2,.8-2.6c.6-.6,1.5-1.1,2.8-1.3,1.3-.3,3.1-.4,5.3-.4h.7v-1c0-1.2-.2-2.1-.8-2.7s-1.3-.8-2.4-.8c-1.7,0-3.4.5-5,1.6l-.8-1.8c.8-.5,1.7-1,2.7-1.3,1.1-.3,2.1-.5,3.1-.5,1.9,0,3.2.5,4.2,1.4ZM647.9,739.5c.8-.8,1.2-1.9,1.2-3.1v-.9h-.5c-1.8,0-3.1,0-4,.2s-1.6.4-2,.8c-.4.4-.6.9-.6,1.5s.3,1.4.9,1.9c.6.5,1.3.8,2.1.8s2.2-.4,3-1.2Z"/>
        <path class="st8" d="M664.1,729.5l-1.6.2c-1.5.1-2.6.6-3.3,1.4-.7.8-1,1.8-1,3v8.3h-2.4v-14.6h2.4v2.6c.8-1.7,2.4-2.7,4.8-2.9h.9c0,0,.2,2,.2,2Z"/>
        <path class="st8" d="M677.2,728.4c1,.6,1.7,1.5,2.3,2.6.5,1.1.8,2.5.8,4s-.3,2.9-.8,4c-.5,1.1-1.3,2-2.3,2.7-1,.6-2.1,1-3.4,1s-2.1-.2-3-.8c-.9-.5-1.5-1.2-1.9-2.1v2.7h-2.4v-21.2h2.4v9.1c.4-.9,1.1-1.6,1.9-2.1.8-.5,1.8-.8,3-.8s2.4.3,3.4.9ZM676.6,739.1c.8-1,1.2-2.4,1.2-4.2s-.4-3.1-1.2-4c-.8-1-1.9-1.4-3.3-1.4s-2.5.5-3.3,1.4c-.8,1-1.2,2.3-1.2,4.1s.4,3.2,1.2,4.1c.8,1,1.9,1.5,3.3,1.5s2.5-.5,3.3-1.5Z"/>
        <path class="st8" d="M686.3,741.7c-1-.6-1.9-1.5-2.4-2.7-.6-1.1-.9-2.5-.9-4s.3-2.9.9-4c.6-1.2,1.4-2,2.4-2.7s2.3-.9,3.6-.9,2.6.3,3.7.9c1.1.6,1.9,1.5,2.4,2.7s.9,2.5.9,4-.3,2.9-.9,4c-.6,1.2-1.4,2-2.4,2.7-1.1.6-2.3.9-3.7.9s-2.6-.3-3.6-.9ZM693.3,739.2c.8-1,1.2-2.3,1.2-4.2s-.4-3.2-1.2-4.1c-.8-1-1.9-1.5-3.3-1.5s-2.5.5-3.3,1.5c-.8,1-1.2,2.3-1.2,4.1s.4,3.2,1.2,4.1c.8,1,1.9,1.4,3.3,1.4s2.5-.5,3.3-1.4Z"/>
        <path class="st8" d="M713.1,733.2v9.2h-2.4v-9c0-1.4-.3-2.3-.8-3-.5-.6-1.4-.9-2.5-.9s-2.4.4-3.2,1.2c-.8.8-1.2,1.9-1.2,3.3v8.4h-2.4v-14.6h2.4v2.4c.5-.9,1.1-1.6,2-2.1.9-.5,1.8-.7,2.9-.7,3.5,0,5.2,1.9,5.2,5.8Z"/>
        <path class="st8" d="M728,721.5v2.7h-2.9v-2.7h2.9ZM725.3,727.8h2.4v14.6h-2.4v-14.6Z"/>
        <path class="st8" d="M744.9,733.2v9.2h-2.4v-9c0-1.4-.3-2.3-.8-3-.5-.6-1.4-.9-2.5-.9s-2.4.4-3.2,1.2c-.8.8-1.2,1.9-1.2,3.3v8.4h-2.4v-14.6h2.4v2.4c.5-.9,1.1-1.6,2-2.1.9-.5,1.8-.7,2.9-.7,3.5,0,5.2,1.9,5.2,5.8Z"/>
        <path class="st8" d="M757.1,740.6v1.9c-.6,0-1.1.1-1.6.1-1.8,0-3.1-.5-4-1.4-.9-.9-1.3-2.2-1.3-3.8v-7.7h-2.9v-1.9h2.9v-4.4h2.4v4.4h4.1v1.9h-4.1v7.5c0,2.3,1.1,3.5,3.2,3.5s.9,0,1.3,0Z"/>
        <path class="st8" d="M771.8,735.5h-10.7c0,1.7.5,3,1.4,3.9s2,1.3,3.6,1.3,3.3-.6,4.7-1.7l.8,1.8c-.6.6-1.5,1.1-2.5,1.4-1,.4-2,.5-3.1.5-2.3,0-4.1-.7-5.4-2-1.3-1.3-2-3.2-2-5.5s.3-2.8.9-4c.6-1.1,1.4-2,2.4-2.7,1.1-.6,2.2-1,3.6-1,1.9,0,3.5.6,4.6,1.9,1.1,1.3,1.7,3,1.7,5.2v.9ZM762.5,730.5c-.8.8-1.2,1.9-1.4,3.4h8.5c0-1.5-.4-2.6-1.1-3.4-.7-.8-1.7-1.2-2.9-1.2s-2.3.4-3.1,1.2Z"/>
        <path class="st8" d="M787.9,733.2v9.2h-2.4v-9c0-1.4-.3-2.3-.8-3-.5-.6-1.4-.9-2.5-.9s-2.4.4-3.2,1.2c-.8.8-1.2,1.9-1.2,3.3v8.4h-2.4v-14.6h2.4v2.4c.5-.9,1.1-1.6,2-2.1.9-.5,1.8-.7,2.9-.7,3.5,0,5.2,1.9,5.2,5.8Z"/>
        <path class="st8" d="M791.5,740.7l.8-1.8c.8.6,1.6,1.1,2.4,1.3.8.3,1.7.4,2.7.4s1.9-.2,2.5-.6c.6-.4.9-.9.9-1.6s-.2-1-.6-1.4c-.4-.3-1-.6-1.9-.8l-2.5-.6c-1.2-.3-2.2-.8-2.9-1.4-.7-.7-1-1.5-1-2.5s.5-2.3,1.5-3.1,2.4-1.2,4.1-1.2,2,.2,2.9.5,1.7.8,2.3,1.4l-.8,1.8c-1.3-1.1-2.8-1.7-4.4-1.7s-1.8.2-2.4.6c-.6.4-.9.9-.9,1.6s.2,1,.5,1.4c.3.4.9.6,1.7.8l2.5.6c1.4.3,2.4.8,3,1.5.7.7,1,1.5,1,2.5s-.5,2.3-1.5,3.1c-1,.8-2.4,1.1-4.2,1.1s-4.4-.6-5.9-1.9Z"/>
        <path class="st8" d="M809.5,721.5v2.7h-2.9v-2.7h2.9ZM806.8,727.8h2.4v14.6h-2.4v-14.6Z"/>
        <path class="st8" d="M821.5,740.6v1.9c-.6,0-1.1.1-1.6.1-1.8,0-3.1-.5-4-1.4-.9-.9-1.3-2.2-1.3-3.8v-7.7h-2.9v-1.9h2.9v-4.4h2.4v4.4h4.1v1.9h-4.1v7.5c0,2.3,1.1,3.5,3.2,3.5s.9,0,1.3,0Z"/>
        <path class="st8" d="M837,727.8l-8.6,20h-2.5l2.5-5.6-6.2-14.4h2.6l4.9,11.9,5-11.9h2.4Z"/>
        <path class="st8" d="M849.7,741.7c-1-.6-1.9-1.5-2.4-2.7-.6-1.1-.9-2.5-.9-4s.3-2.9.9-4c.6-1.2,1.4-2,2.4-2.7s2.3-.9,3.6-.9,2.6.3,3.7.9c1.1.6,1.9,1.5,2.4,2.7s.9,2.5.9,4-.3,2.9-.9,4c-.6,1.2-1.4,2-2.4,2.7-1.1.6-2.3.9-3.7.9s-2.6-.3-3.6-.9ZM856.6,739.2c.8-1,1.2-2.3,1.2-4.2s-.4-3.2-1.2-4.1c-.8-1-1.9-1.5-3.3-1.5s-2.5.5-3.3,1.5c-.8,1-1.2,2.3-1.2,4.1s.4,3.2,1.2,4.1c.8,1,1.9,1.4,3.3,1.4s2.5-.5,3.3-1.4Z"/>
        <path class="st8" d="M867.1,727.8h4.1v1.9h-4.1v12.7h-2.4v-12.7h-2.9v-1.9h2.9v-.5c0-1.9.5-3.4,1.5-4.4,1-1,2.5-1.6,4.5-1.7h1.2c0,0,.2,1.8.2,1.8h-1.4c-1.2.2-2.1.5-2.7,1.1-.6.6-.8,1.5-.8,2.8v.8Z"/>
      </g>
    </g>
    <g class="st7">
      <g class="st7">
        <path class="st8" d="M635.4,776.6v1.9c-.6,0-1.1.1-1.6.1-1.8,0-3.1-.5-4-1.4-.9-.9-1.3-2.2-1.3-3.8v-7.7h-2.9v-1.9h2.9v-4.4h2.4v4.4h4.1v1.9h-4.1v7.5c0,2.3,1.1,3.5,3.2,3.5s.9,0,1.3,0Z"/>
        <path class="st8" d="M650.4,769.2v9.2h-2.4v-9c0-1.4-.3-2.3-.8-3-.5-.6-1.4-.9-2.5-.9s-2.4.4-3.2,1.2c-.8.8-1.2,1.9-1.2,3.3v8.4h-2.4v-21.2h2.4v8.9c.5-.9,1.1-1.5,2-2,.9-.5,1.8-.7,2.9-.7,3.5,0,5.2,1.9,5.2,5.8Z"/>
        <path class="st8" d="M667.1,771.5h-10.7c0,1.7.5,3,1.4,3.9s2,1.3,3.6,1.3,3.3-.6,4.7-1.7l.8,1.8c-.6.6-1.5,1.1-2.5,1.4-1,.4-2,.5-3.1.5-2.3,0-4.1-.7-5.4-2-1.3-1.3-2-3.2-2-5.5s.3-2.8.9-4c.6-1.1,1.4-2,2.4-2.7,1.1-.6,2.2-1,3.6-1,1.9,0,3.5.6,4.6,1.9,1.1,1.3,1.7,3,1.7,5.2v.9ZM657.8,766.5c-.8.8-1.2,1.9-1.4,3.4h8.5c0-1.5-.4-2.6-1.1-3.4-.7-.8-1.7-1.2-2.9-1.2s-2.3.4-3.1,1.2Z"/>
        <path class="st8" d="M690.6,771.5h-10.7c0,1.7.5,3,1.4,3.9s2,1.3,3.6,1.3,3.3-.6,4.7-1.7l.8,1.8c-.6.6-1.5,1.1-2.5,1.4-1,.4-2,.5-3.1.5-2.3,0-4.1-.7-5.4-2-1.3-1.3-2-3.2-2-5.5s.3-2.8.9-4c.6-1.1,1.4-2,2.4-2.7,1.1-.6,2.2-1,3.6-1,1.9,0,3.5.6,4.6,1.9,1.1,1.3,1.7,3,1.7,5.2v.9ZM681.4,766.5c-.8.8-1.2,1.9-1.4,3.4h8.5c0-1.5-.4-2.6-1.1-3.4-.7-.8-1.7-1.2-2.9-1.2s-2.3.4-3.1,1.2Z"/>
        <path class="st8" d="M694.2,757.2h2.4v21.2h-2.4v-21.2Z"/>
        <path class="st8" d="M713.4,771.5h-10.7c0,1.7.5,3,1.4,3.9s2,1.3,3.6,1.3,3.3-.6,4.7-1.7l.8,1.8c-.6.6-1.5,1.1-2.5,1.4-1,.4-2,.5-3.1.5-2.3,0-4.1-.7-5.4-2-1.3-1.3-2-3.2-2-5.5s.3-2.8.9-4c.6-1.1,1.4-2,2.4-2.7,1.1-.6,2.2-1,3.6-1,1.9,0,3.5.6,4.6,1.9,1.1,1.3,1.7,3,1.7,5.2v.9ZM704.2,766.5c-.8.8-1.2,1.9-1.4,3.4h8.5c0-1.5-.4-2.6-1.1-3.4-.7-.8-1.7-1.2-2.9-1.2s-2.3.4-3.1,1.2Z"/>
        <path class="st8" d="M719.4,777.7c-1.1-.6-1.9-1.5-2.4-2.6-.6-1.1-.9-2.5-.9-4s.3-2.9.9-4c.6-1.1,1.4-2,2.5-2.7s2.3-1,3.8-1,1.9.2,2.9.5c.9.4,1.7.8,2.3,1.4l-.8,1.8c-1.4-1.1-2.8-1.7-4.2-1.7s-2.7.5-3.5,1.5c-.8,1-1.3,2.4-1.3,4.1s.4,3.1,1.3,4.1c.8,1,2,1.4,3.5,1.4s2.8-.6,4.2-1.7l.8,1.8c-.6.6-1.4,1-2.3,1.4s-1.9.5-2.9.5c-1.4,0-2.7-.3-3.8-.9Z"/>
        <path class="st8" d="M739.1,776.6v1.9c-.6,0-1.1.1-1.6.1-1.8,0-3.1-.5-4-1.4-.9-.9-1.3-2.2-1.3-3.8v-7.7h-2.9v-1.9h2.9v-4.4h2.4v4.4h4.1v1.9h-4.1v7.5c0,2.3,1.1,3.5,3.2,3.5s.9,0,1.3,0Z"/>
        <path class="st8" d="M749.9,765.5l-1.6.2c-1.5.1-2.6.6-3.3,1.4-.7.8-1,1.8-1,3v8.3h-2.4v-14.6h2.4v2.6c.8-1.7,2.4-2.7,4.8-2.9h.9c0,0,.2,2,.2,2Z"/>
        <path class="st8" d="M754.9,757.5v2.7h-2.9v-2.7h2.9ZM752.2,763.8h2.4v14.6h-2.4v-14.6Z"/>
        <path class="st8" d="M761.6,777.7c-1.1-.6-1.9-1.5-2.4-2.6-.6-1.1-.9-2.5-.9-4s.3-2.9.9-4c.6-1.1,1.4-2,2.5-2.7s2.3-1,3.8-1,1.9.2,2.9.5c.9.4,1.7.8,2.3,1.4l-.8,1.8c-1.4-1.1-2.8-1.7-4.2-1.7s-2.7.5-3.5,1.5c-.8,1-1.3,2.4-1.3,4.1s.4,3.1,1.3,4.1c.8,1,2,1.4,3.5,1.4s2.8-.6,4.2-1.7l.8,1.8c-.6.6-1.4,1-2.3,1.4s-1.9.5-2.9.5c-1.4,0-2.7-.3-3.8-.9Z"/>
        <path class="st8" d="M776.2,757.5v2.7h-2.9v-2.7h2.9ZM773.5,763.8h2.4v14.6h-2.4v-14.6Z"/>
        <path class="st8" d="M788.2,776.6v1.9c-.6,0-1.1.1-1.6.1-1.8,0-3.1-.5-4-1.4-.9-.9-1.3-2.2-1.3-3.8v-7.7h-2.9v-1.9h2.9v-4.4h2.4v4.4h4.1v1.9h-4.1v7.5c0,2.3,1.1,3.5,3.2,3.5s.9,0,1.3,0Z"/>
        <path class="st8" d="M803.7,763.8l-8.6,20h-2.5l2.5-5.6-6.2-14.4h2.6l4.9,11.9,5-11.9h2.4Z"/>
        <path class="st8" d="M827.1,763.8v13.6c0,2.2-.6,3.8-1.7,4.9-1.1,1.1-2.8,1.7-5,1.7s-4.7-.7-6.4-2l.8-1.8c1,.6,1.9,1.1,2.8,1.4.9.3,1.8.4,2.9.4s2.5-.4,3.2-1.1c.7-.8,1.1-1.8,1.1-3.3v-2.6c-.4.9-1.1,1.7-1.9,2.2-.9.5-1.9.8-3.1.8s-2.4-.3-3.4-.9c-1-.6-1.8-1.5-2.3-2.6-.6-1.1-.8-2.4-.8-3.8s.3-2.7.8-3.8c.5-1.1,1.3-2,2.3-2.6,1-.6,2.1-.9,3.4-.9s2.2.2,3,.8c.9.5,1.5,1.2,1.9,2.1v-2.5h2.4ZM823.4,774.5c.8-.9,1.2-2.2,1.2-3.9s-.4-2.9-1.2-3.8-1.9-1.4-3.3-1.4-2.5.5-3.3,1.4-1.2,2.2-1.2,3.8.4,2.9,1.2,3.9c.8.9,1.9,1.4,3.3,1.4s2.5-.5,3.3-1.4Z"/>
        <path class="st8" d="M839.9,765.5l-1.6.2c-1.5.1-2.6.6-3.3,1.4-.7.8-1,1.8-1,3v8.3h-2.4v-14.6h2.4v2.6c.8-1.7,2.4-2.7,4.8-2.9h.9c0,0,.2,2,.2,2Z"/>
        <path class="st8" d="M844.9,757.5v2.7h-2.9v-2.7h2.9ZM842.2,763.8h2.4v14.6h-2.4v-14.6Z"/>
        <path class="st8" d="M862.1,757.2v21.2h-2.4v-2.7c-.4.9-1.1,1.6-1.9,2.1-.9.5-1.8.8-3,.8s-2.4-.3-3.4-1c-1-.6-1.7-1.5-2.3-2.7-.5-1.2-.8-2.5-.8-4s.3-2.8.8-4c.5-1.1,1.3-2,2.3-2.6,1-.6,2.1-.9,3.4-.9s2.1.2,3,.8c.8.5,1.5,1.2,1.9,2.1v-9.1h2.4ZM858.5,775.1c.8-1,1.2-2.3,1.2-4.1s-.4-3.2-1.2-4.1c-.8-1-1.9-1.4-3.3-1.4s-2.5.5-3.3,1.4-1.2,2.3-1.2,4,.4,3.2,1.2,4.2,1.9,1.5,3.3,1.5,2.5-.5,3.3-1.5Z"/>
      </g>
    </g>
    <g class="st7">
      <g class="st7">
        <path class="st1" d="M1092.5,625.5h18.9v4.1h-13.8v7.8h13v4h-13v8.2h13.8v4.1h-18.9v-28.2Z"/>
        <path class="st1" d="M1143.8,635.6c1.1,1.3,1.6,3.3,1.6,6.1v12h-5v-11.8c0-1.5-.3-2.6-.8-3.3-.5-.7-1.3-1-2.4-1s-2.4.5-3.1,1.4c-.7.9-1.1,2.2-1.1,3.8v10.9h-5v-11.8c0-1.5-.2-2.6-.7-3.3-.5-.7-1.3-1-2.5-1s-2.3.5-3.1,1.4c-.7.9-1.1,2.2-1.1,3.8v10.9h-5v-19.6h4.9v2.8c.6-1.1,1.4-1.9,2.4-2.4s2.2-.8,3.6-.8c3,0,4.9,1.2,5.9,3.7.6-1.1,1.5-2,2.6-2.7s2.4-1,3.8-1c2.2,0,3.9.7,5,2Z"/>
        <path class="st1" d="M1166.3,634.9c1.3.8,2.3,2,3.1,3.5.7,1.5,1.1,3.3,1.1,5.3s-.4,3.8-1.1,5.4c-.7,1.6-1.8,2.8-3.1,3.6s-2.8,1.3-4.5,1.3-2.7-.3-3.8-.9c-1.1-.6-2-1.5-2.5-2.6v3.2h-4.9v-28.2h5v11.5c.6-1.1,1.4-1.9,2.5-2.5,1.1-.6,2.3-.9,3.7-.9s3.2.4,4.5,1.2ZM1164.1,648.5c.9-1.1,1.3-2.7,1.3-4.7s-.4-3.5-1.3-4.6c-.9-1.1-2.1-1.6-3.7-1.6s-2.8.5-3.7,1.6-1.3,2.6-1.3,4.7.4,3.6,1.3,4.7c.9,1.1,2.1,1.6,3.7,1.6s2.8-.6,3.7-1.7Z"/>
        <path class="st1" d="M1178.2,652.8c-1.5-.8-2.7-2-3.5-3.6-.8-1.5-1.2-3.3-1.2-5.4s.4-3.8,1.2-5.4c.8-1.5,2-2.7,3.5-3.5,1.5-.8,3.3-1.2,5.3-1.2s3.8.4,5.3,1.2c1.5.8,2.7,2,3.5,3.5s1.2,3.3,1.2,5.4-.4,3.9-1.2,5.4c-.8,1.5-2,2.7-3.5,3.6-1.5.8-3.3,1.2-5.3,1.2s-3.8-.4-5.3-1.2ZM1187.2,648.5c.9-1.1,1.3-2.6,1.3-4.7s-.4-3.6-1.3-4.7c-.9-1.1-2.1-1.6-3.7-1.6s-2.8.5-3.7,1.6-1.3,2.6-1.3,4.7.4,3.7,1.3,4.7c.9,1.1,2.1,1.6,3.7,1.6s2.9-.5,3.7-1.6Z"/>
        <path class="st1" d="M1216.5,625.5v28.2h-5v-3.2c-.6,1.1-1.4,1.9-2.5,2.6-1.1.6-2.4.9-3.8.9s-3.2-.4-4.5-1.3-2.3-2.1-3.1-3.6c-.7-1.6-1.1-3.4-1.1-5.4s.4-3.8,1.1-5.3c.7-1.5,1.8-2.7,3.1-3.5,1.3-.8,2.8-1.2,4.5-1.2s2.7.3,3.8.9c1.1.6,1.9,1.4,2.5,2.5v-11.5h5ZM1210.2,648.5c.9-1.1,1.3-2.7,1.3-4.7s-.4-3.6-1.3-4.7c-.9-1.1-2.1-1.6-3.7-1.6s-2.8.5-3.7,1.6c-.9,1.1-1.3,2.6-1.3,4.6s.4,3.6,1.3,4.7c.9,1.1,2.1,1.7,3.7,1.7s2.8-.5,3.7-1.6Z"/>
        <path class="st1" d="M1226.8,625.1v4.9h-5.5v-4.9h5.5ZM1221.6,634.1h5v19.6h-5v-19.6Z"/>
        <path class="st1" d="M1248.9,644.8h-13.3c.2,1.8.7,3.2,1.6,4s2.3,1.3,4,1.3,4.1-.7,5.9-2.1l1.4,3.4c-.9.7-2,1.3-3.4,1.8-1.4.5-2.8.7-4.1.7-3.2,0-5.7-.9-7.6-2.7-1.9-1.8-2.8-4.3-2.8-7.4s.4-3.8,1.2-5.3c.8-1.5,1.9-2.7,3.4-3.6,1.5-.9,3.1-1.3,4.9-1.3,2.7,0,4.8.9,6.4,2.6,1.6,1.7,2.3,4.1,2.3,7.2v1.4ZM1237.1,638.5c-.8.9-1.3,2.1-1.5,3.7h9c0-1.6-.5-2.9-1.2-3.7-.7-.8-1.8-1.3-3.1-1.3s-2.4.4-3.2,1.3Z"/>
        <path class="st1" d="M1271.9,625.5v28.2h-5v-3.2c-.6,1.1-1.4,1.9-2.5,2.6-1.1.6-2.4.9-3.8.9s-3.2-.4-4.5-1.3-2.3-2.1-3.1-3.6c-.7-1.6-1.1-3.4-1.1-5.4s.4-3.8,1.1-5.3c.7-1.5,1.8-2.7,3.1-3.5,1.3-.8,2.8-1.2,4.5-1.2s2.7.3,3.8.9c1.1.6,1.9,1.4,2.5,2.5v-11.5h5ZM1265.6,648.5c.9-1.1,1.3-2.7,1.3-4.7s-.4-3.6-1.3-4.7c-.9-1.1-2.1-1.6-3.7-1.6s-2.8.5-3.7,1.6c-.9,1.1-1.3,2.6-1.3,4.6s.4,3.6,1.3,4.7c.9,1.1,2.1,1.7,3.7,1.7s2.8-.5,3.7-1.6Z"/>
      </g>
    </g>
    <g class="st7">
      <g class="st7">
        <path class="st8" d="M1073.1,721.3h13.4v2h-11v7.4h10.4v2h-10.4v7.7h11v2h-13.4v-21.2Z"/>
        <path class="st8" d="M1111.3,733.3v9.2h-2.4v-9.1c0-1.3-.2-2.3-.7-2.9s-1.2-.9-2.3-.9-2.2.4-2.9,1.2c-.7.8-1,1.9-1,3.4v8.3h-2.4v-9.1c0-1.4-.2-2.3-.7-3-.5-.6-1.2-.9-2.3-.9s-2.2.4-2.9,1.2c-.7.8-1,1.9-1,3.4v8.3h-2.4v-14.6h2.4v2.3c.4-.9,1.1-1.5,1.8-2,.8-.5,1.7-.7,2.7-.7,2.3,0,3.8,1,4.5,2.9.4-.9,1.1-1.6,1.9-2.1.9-.5,1.8-.8,2.9-.8,3.2,0,4.9,1.9,4.9,5.8Z"/>
        <path class="st8" d="M1118.5,721.6v2.7h-2.9v-2.7h2.9ZM1115.8,727.9h2.4v14.6h-2.4v-14.6Z"/>
        <path class="st8" d="M1121.8,740.8l.8-1.8c.8.6,1.6,1.1,2.4,1.3.8.3,1.7.4,2.7.4s1.9-.2,2.5-.6.9-.9.9-1.6-.2-1-.6-1.4c-.4-.3-1-.6-1.9-.8l-2.5-.6c-1.2-.3-2.2-.8-2.9-1.4s-1-1.5-1-2.5.5-2.3,1.5-3.1c1-.8,2.4-1.2,4.1-1.2s2,.2,2.9.5,1.7.8,2.3,1.4l-.8,1.8c-1.3-1.1-2.8-1.7-4.4-1.7s-1.8.2-2.4.6c-.6.4-.9.9-.9,1.6s.2,1,.5,1.4c.3.4.9.6,1.7.8l2.5.6c1.4.3,2.4.8,3,1.5.7.7,1,1.5,1,2.5s-.5,2.3-1.5,3.1c-1,.8-2.4,1.1-4.2,1.1s-4.4-.6-5.9-1.9Z"/>
        <path class="st8" d="M1136.2,740.8l.8-1.8c.8.6,1.6,1.1,2.4,1.3.8.3,1.7.4,2.7.4s1.9-.2,2.5-.6c.6-.4.9-.9.9-1.6s-.2-1-.6-1.4c-.4-.3-1-.6-1.9-.8l-2.5-.6c-1.2-.3-2.2-.8-2.8-1.4-.7-.7-1-1.5-1-2.5s.5-2.3,1.5-3.1c1-.8,2.4-1.2,4.1-1.2s2,.2,2.9.5,1.7.8,2.3,1.4l-.8,1.8c-1.3-1.1-2.8-1.7-4.4-1.7s-1.8.2-2.4.6c-.6.4-.9.9-.9,1.6s.2,1,.5,1.4c.3.4.9.6,1.7.8l2.5.6c1.4.3,2.4.8,3,1.5.7.7,1,1.5,1,2.5s-.5,2.3-1.5,3.1-2.4,1.1-4.2,1.1-4.4-.6-5.8-1.9Z"/>
        <path class="st8" d="M1154.2,721.6v2.7h-2.9v-2.7h2.9ZM1151.5,727.9h2.4v14.6h-2.4v-14.6Z"/>
        <path class="st8" d="M1160.9,741.8c-1-.6-1.9-1.5-2.4-2.7-.6-1.1-.9-2.5-.9-4s.3-2.9.9-4c.6-1.2,1.4-2,2.4-2.7s2.3-.9,3.6-.9,2.6.3,3.7.9c1.1.6,1.9,1.5,2.4,2.7.6,1.2.9,2.5.9,4s-.3,2.9-.9,4c-.6,1.2-1.4,2-2.4,2.7-1.1.6-2.3.9-3.7.9s-2.6-.3-3.6-.9ZM1167.9,739.3c.8-1,1.2-2.3,1.2-4.2s-.4-3.2-1.2-4.1c-.8-1-1.9-1.5-3.3-1.5s-2.5.5-3.3,1.5-1.2,2.3-1.2,4.1.4,3.2,1.2,4.1c.8,1,1.9,1.4,3.3,1.4s2.5-.5,3.3-1.4Z"/>
        <path class="st8" d="M1187.7,733.3v9.2h-2.4v-9c0-1.4-.3-2.3-.8-3s-1.4-.9-2.5-.9-2.4.4-3.2,1.2c-.8.8-1.2,1.9-1.2,3.3v8.4h-2.4v-14.6h2.4v2.4c.5-.9,1.1-1.6,2-2.1.9-.5,1.8-.7,2.9-.7,3.5,0,5.2,1.9,5.2,5.8Z"/>
        <path class="st8" d="M1191.3,740.8l.8-1.8c.8.6,1.6,1.1,2.4,1.3.8.3,1.7.4,2.7.4s1.9-.2,2.5-.6.9-.9.9-1.6-.2-1-.6-1.4c-.4-.3-1-.6-1.9-.8l-2.5-.6c-1.2-.3-2.2-.8-2.9-1.4s-1-1.5-1-2.5.5-2.3,1.5-3.1c1-.8,2.4-1.2,4.1-1.2s2,.2,2.9.5,1.7.8,2.3,1.4l-.8,1.8c-1.3-1.1-2.8-1.7-4.4-1.7s-1.8.2-2.4.6c-.6.4-.9.9-.9,1.6s.2,1,.5,1.4c.3.4.9.6,1.7.8l2.5.6c1.4.3,2.4.8,3,1.5.7.7,1,1.5,1,2.5s-.5,2.3-1.5,3.1c-1,.8-2.4,1.1-4.2,1.1s-4.4-.6-5.9-1.9Z"/>
        <path class="st8" d="M1225,728.5c1,.6,1.7,1.5,2.3,2.6.5,1.1.8,2.5.8,4s-.3,2.9-.8,4c-.5,1.1-1.3,2-2.3,2.7-1,.6-2.1,1-3.4,1s-2.1-.2-3-.8c-.9-.5-1.5-1.2-1.9-2.1v2.7h-2.4v-21.2h2.4v9.1c.4-.9,1.1-1.6,1.9-2.1.8-.5,1.8-.8,3-.8s2.4.3,3.4.9ZM1224.5,739.2c.8-1,1.2-2.4,1.2-4.2s-.4-3.1-1.2-4-1.9-1.4-3.3-1.4-2.5.5-3.3,1.4c-.8,1-1.2,2.3-1.2,4.1s.4,3.2,1.2,4.1c.8,1,1.9,1.5,3.3,1.5s2.5-.5,3.3-1.5Z"/>
        <path class="st8" d="M1241.9,728.9c.9,1,1.4,2.4,1.4,4.3v9.2h-2.4v-2.5c-.4.9-1,1.5-1.7,2-.8.5-1.7.7-2.7.7s-1.8-.2-2.6-.6c-.8-.4-1.4-.9-1.9-1.6-.5-.7-.7-1.4-.7-2.2s.3-2,.8-2.6,1.5-1.1,2.8-1.3c1.3-.3,3.1-.4,5.3-.4h.7v-1c0-1.2-.2-2.1-.8-2.7s-1.3-.8-2.4-.8c-1.7,0-3.3.5-5,1.6l-.8-1.8c.8-.5,1.7-1,2.7-1.3s2.1-.5,3.1-.5c1.9,0,3.2.5,4.2,1.4ZM1239.7,739.6c.8-.8,1.2-1.9,1.2-3.1v-.9h-.5c-1.8,0-3.1,0-4,.2s-1.6.4-2,.8c-.4.4-.6.9-.6,1.5s.3,1.4.9,1.9c.6.5,1.3.8,2.1.8s2.2-.4,3-1.2Z"/>
        <path class="st8" d="M1257.5,742.5l-7.4-7v7h-2.4v-21.2h2.4v13.2l6.8-6.6h3.1l-7.3,7,8,7.6h-3.2Z"/>
        <path class="st8" d="M1274.6,735.6h-10.7c0,1.7.5,3,1.4,3.9s2,1.3,3.6,1.3,3.3-.6,4.7-1.7l.8,1.8c-.6.6-1.5,1.1-2.5,1.4-1,.4-2,.5-3.1.5-2.3,0-4.1-.7-5.4-2-1.3-1.3-2-3.2-2-5.5s.3-2.8.9-4c.6-1.1,1.4-2,2.4-2.7,1.1-.6,2.2-1,3.6-1,1.9,0,3.5.6,4.6,1.9,1.1,1.3,1.7,3,1.7,5.2v.9ZM1265.4,730.6c-.8.8-1.2,1.9-1.4,3.4h8.5c0-1.5-.4-2.6-1.1-3.4-.7-.8-1.7-1.2-2.9-1.2s-2.3.4-3.1,1.2Z"/>
        <path class="st8" d="M1291.2,721.3v21.2h-2.4v-2.7c-.4.9-1.1,1.6-1.9,2.1-.9.5-1.8.8-3,.8s-2.4-.3-3.4-1c-1-.6-1.7-1.5-2.3-2.7-.5-1.2-.8-2.5-.8-4s.3-2.8.8-4c.5-1.1,1.3-2,2.3-2.6,1-.6,2.1-.9,3.4-.9s2.1.2,3,.8c.8.5,1.5,1.2,1.9,2.1v-9.1h2.4ZM1287.6,739.2c.8-1,1.2-2.3,1.2-4.1s-.4-3.2-1.2-4.1-1.9-1.4-3.3-1.4-2.5.5-3.3,1.4-1.2,2.3-1.2,4,.4,3.2,1.2,4.2,1.9,1.5,3.3,1.5,2.5-.5,3.3-1.5Z"/>
      </g>
    </g>
    <g class="st7">
      <g class="st7">
        <path class="st8" d="M1068.4,757.6v2.7h-2.9v-2.7h2.9ZM1065.7,763.9h2.4v14.6h-2.4v-14.6Z"/>
        <path class="st8" d="M1085.2,769.3v9.2h-2.4v-9c0-1.4-.3-2.3-.8-3s-1.4-.9-2.5-.9-2.4.4-3.2,1.2c-.8.8-1.2,1.9-1.2,3.3v8.4h-2.4v-14.6h2.4v2.4c.5-.9,1.1-1.6,2-2.1.9-.5,1.8-.7,2.9-.7,3.5,0,5.2,1.9,5.2,5.8Z"/>
        <path class="st8" d="M1097.4,776.7v1.9c-.6,0-1.1.1-1.6.1-1.8,0-3.1-.5-4-1.4s-1.3-2.2-1.3-3.8v-7.7h-2.8v-1.9h2.8v-4.4h2.4v4.4h4.1v1.9h-4.1v7.5c0,2.3,1.1,3.5,3.2,3.5s.9,0,1.3,0Z"/>
        <path class="st8" d="M1102.3,777.8c-1-.6-1.9-1.5-2.4-2.7-.6-1.1-.9-2.5-.9-4s.3-2.9.9-4c.6-1.2,1.4-2,2.4-2.7s2.3-.9,3.6-.9,2.6.3,3.7.9c1.1.6,1.9,1.5,2.4,2.7.6,1.2.9,2.5.9,4s-.3,2.9-.9,4c-.6,1.2-1.4,2-2.4,2.7-1.1.6-2.3.9-3.7.9s-2.6-.3-3.6-.9ZM1109.2,775.3c.8-1,1.2-2.3,1.2-4.2s-.4-3.2-1.2-4.1c-.8-1-1.9-1.5-3.3-1.5s-2.5.5-3.3,1.5-1.2,2.3-1.2,4.1.4,3.2,1.2,4.1c.8,1,1.9,1.4,3.3,1.4s2.5-.5,3.3-1.4Z"/>
        <path class="st8" d="M1132,776.7v1.9c-.6,0-1.1.1-1.6.1-1.8,0-3.1-.5-4-1.4s-1.3-2.2-1.3-3.8v-7.7h-2.8v-1.9h2.8v-4.4h2.4v4.4h4.1v1.9h-4.1v7.5c0,2.3,1.1,3.5,3.2,3.5s.9,0,1.3,0Z"/>
        <path class="st8" d="M1147.1,769.3v9.2h-2.4v-9c0-1.4-.3-2.3-.8-3s-1.4-.9-2.5-.9-2.4.4-3.2,1.2c-.8.8-1.2,1.9-1.2,3.3v8.4h-2.4v-21.2h2.4v8.9c.5-.9,1.1-1.5,2-2,.9-.5,1.8-.7,2.9-.7,3.5,0,5.2,1.9,5.2,5.8Z"/>
        <path class="st8" d="M1163.7,771.6h-10.7c0,1.7.5,3,1.4,3.9s2,1.3,3.6,1.3,3.3-.6,4.7-1.7l.8,1.8c-.6.6-1.5,1.1-2.5,1.4-1,.4-2,.5-3.1.5-2.3,0-4.1-.7-5.4-2-1.3-1.3-2-3.2-2-5.5s.3-2.8.9-4c.6-1.1,1.4-2,2.4-2.7,1.1-.6,2.2-1,3.6-1,1.9,0,3.5.6,4.6,1.9,1.1,1.3,1.7,3,1.7,5.2v.9ZM1154.5,766.6c-.8.8-1.2,1.9-1.4,3.4h8.5c0-1.5-.4-2.6-1.1-3.4-.7-.8-1.7-1.2-2.9-1.2s-2.3.4-3.1,1.2Z"/>
        <path class="st8" d="M1187.6,769.3v9.2h-2.4v-9c0-1.4-.3-2.3-.8-3-.5-.6-1.4-.9-2.5-.9s-2.4.4-3.2,1.2c-.8.8-1.2,1.9-1.2,3.3v8.4h-2.4v-21.2h2.4v8.9c.5-.9,1.1-1.5,2-2,.8-.5,1.8-.7,2.9-.7,3.5,0,5.2,1.9,5.2,5.8Z"/>
        <path class="st8" d="M1202.2,764.9c.9,1,1.4,2.4,1.4,4.3v9.2h-2.4v-2.5c-.4.9-1,1.5-1.7,2-.8.5-1.7.7-2.7.7s-1.8-.2-2.6-.6c-.8-.4-1.4-.9-1.9-1.6-.5-.7-.7-1.4-.7-2.2s.3-2,.8-2.6c.6-.6,1.5-1.1,2.8-1.3,1.3-.3,3.1-.4,5.3-.4h.7v-1c0-1.2-.2-2.1-.8-2.7s-1.3-.8-2.4-.8c-1.7,0-3.4.5-5,1.6l-.8-1.8c.8-.5,1.7-1,2.7-1.3,1.1-.3,2.1-.5,3.1-.5,1.9,0,3.2.5,4.2,1.4ZM1200,775.6c.8-.8,1.2-1.9,1.2-3.1v-.9h-.5c-1.8,0-3.1,0-4,.2s-1.6.4-2,.8c-.4.4-.6.9-.6,1.5s.3,1.4.9,1.9c.6.5,1.3.8,2.1.8s2.2-.4,3-1.2Z"/>
        <path class="st8" d="M1216.3,765.6l-1.6.2c-1.5.1-2.6.6-3.3,1.4-.7.8-1,1.8-1,3v8.3h-2.4v-14.6h2.4v2.6c.8-1.7,2.4-2.7,4.8-2.9h.9c0,0,.2,2,.2,2Z"/>
        <path class="st8" d="M1231.2,757.3v21.2h-2.4v-2.7c-.4.9-1.1,1.6-1.9,2.1-.9.5-1.8.8-3,.8s-2.4-.3-3.4-1c-1-.6-1.7-1.5-2.3-2.7-.5-1.2-.8-2.5-.8-4s.3-2.8.8-4c.5-1.1,1.3-2,2.3-2.6,1-.6,2.1-.9,3.4-.9s2.1.2,3,.8c.8.5,1.5,1.2,1.9,2.1v-9.1h2.4ZM1227.7,775.2c.8-1,1.2-2.3,1.2-4.1s-.4-3.2-1.2-4.1-1.9-1.4-3.3-1.4-2.5.5-3.3,1.4-1.2,2.3-1.2,4,.4,3.2,1.2,4.2,1.9,1.5,3.3,1.5,2.5-.5,3.3-1.5Z"/>
        <path class="st8" d="M1258,763.9l-5.4,14.6h-2.3l-4.1-11.3-4.1,11.3h-2.3l-5.4-14.6h2.5l4.1,11.7,4.2-11.7h2.1l4.2,11.7,4.2-11.7h2.4Z"/>
        <path class="st8" d="M1270.8,764.9c.9,1,1.4,2.4,1.4,4.3v9.2h-2.4v-2.5c-.4.9-1,1.5-1.7,2-.8.5-1.7.7-2.7.7s-1.8-.2-2.6-.6c-.8-.4-1.4-.9-1.9-1.6-.5-.7-.7-1.4-.7-2.2s.3-2,.8-2.6c.6-.6,1.5-1.1,2.8-1.3,1.3-.3,3.1-.4,5.3-.4h.7v-1c0-1.2-.2-2.1-.8-2.7s-1.3-.8-2.4-.8c-1.7,0-3.4.5-5,1.6l-.8-1.8c.8-.5,1.7-1,2.7-1.3,1.1-.3,2.1-.5,3.1-.5,1.9,0,3.2.5,4.2,1.4ZM1268.7,775.6c.8-.8,1.2-1.9,1.2-3.1v-.9h-.5c-1.8,0-3.1,0-4,.2s-1.6.4-2,.8c-.4.4-.6.9-.6,1.5s.3,1.4.9,1.9c.6.5,1.3.8,2.1.8s2.2-.4,3-1.2Z"/>
        <path class="st8" d="M1284.9,765.6l-1.6.2c-1.5.1-2.6.6-3.3,1.4-.7.8-1,1.8-1,3v8.3h-2.4v-14.6h2.4v2.6c.8-1.7,2.4-2.7,4.8-2.9h.9c0,0,.2,2,.2,2Z"/>
        <path class="st8" d="M1299.2,771.6h-10.7c0,1.7.5,3,1.4,3.9s2,1.3,3.6,1.3,3.3-.6,4.7-1.7l.8,1.8c-.6.6-1.5,1.1-2.5,1.4-1,.4-2,.5-3.1.5-2.3,0-4.1-.7-5.4-2-1.3-1.3-2-3.2-2-5.5s.3-2.8.9-4c.6-1.1,1.4-2,2.4-2.7s2.2-1,3.6-1c1.9,0,3.5.6,4.6,1.9,1.1,1.3,1.7,3,1.7,5.2v.9ZM1289.9,766.6c-.8.8-1.2,1.9-1.4,3.4h8.5c0-1.5-.4-2.6-1.1-3.4s-1.7-1.2-2.9-1.2-2.3.4-3.1,1.2Z"/>
      </g>
    </g>
    <g class="st7">
      <g class="st7">
        <path class="st1" d="M1482.1,625.5h18.5v4.1h-13.4v7.7h12.6v4.1h-12.6v12.3h-5.1v-28.2Z"/>
        <path class="st1" d="M1521.9,634.1v19.6h-4.9v-3c-.6,1.1-1.4,1.9-2.5,2.5s-2.2.9-3.5.9c-4.8,0-7.2-2.7-7.2-8.1v-11.8h5v11.8c0,1.4.3,2.4.8,3.1.6.7,1.4,1,2.6,1s2.5-.5,3.3-1.4c.8-.9,1.3-2.1,1.3-3.7v-10.9h5Z"/>
        <path class="st1" d="M1543.7,635.7c1.1,1.3,1.7,3.3,1.7,6v12h-5v-11.7c0-1.5-.3-2.6-.9-3.3s-1.5-1-2.7-1-2.6.5-3.5,1.4-1.3,2.1-1.3,3.6v11.1h-5v-19.6h4.9v2.9c.7-1.1,1.6-1.9,2.7-2.5,1.1-.6,2.4-.9,3.8-.9,2.3,0,4.1.7,5.2,2Z"/>
        <path class="st1" d="M1554,652.8c-1.5-.8-2.7-2-3.5-3.5-.8-1.5-1.2-3.3-1.2-5.3s.4-3.8,1.3-5.4c.8-1.6,2-2.8,3.6-3.6s3.3-1.3,5.4-1.3,2.7.2,4.1.7c1.3.4,2.4,1,3.2,1.8l-1.4,3.5c-.8-.7-1.7-1.2-2.6-1.5s-1.8-.5-2.7-.5c-1.7,0-3.1.5-4,1.6s-1.4,2.6-1.4,4.7.5,3.5,1.4,4.6,2.3,1.6,4,1.6,1.8-.2,2.7-.5c.9-.3,1.8-.9,2.6-1.5l1.4,3.5c-.9.8-1.9,1.4-3.3,1.8-1.3.4-2.7.7-4.2.7-2.1,0-3.8-.4-5.3-1.2Z"/>
        <path class="st1" d="M1581.9,650.1l-.2,3.7c-.8,0-1.5.1-2.2.1-2.7,0-4.8-.6-6.1-1.9s-2-3.2-2-5.7v-8.5h-3.8v-3.8h3.8v-5.8h5v5.8h5.2v3.8h-5.2v8.4c0,2.6,1.2,3.9,3.6,3.9s1.2,0,1.8-.1Z"/>
        <path class="st1" d="M1590.1,625.1v4.9h-5.5v-4.9h5.5ZM1584.9,634.1h5v19.6h-5v-19.6Z"/>
        <path class="st1" d="M1598.7,652.8c-1.5-.8-2.7-2-3.5-3.6-.8-1.5-1.2-3.3-1.2-5.4s.4-3.8,1.2-5.4c.8-1.5,2-2.7,3.5-3.5,1.5-.8,3.3-1.2,5.3-1.2s3.8.4,5.3,1.2c1.5.8,2.7,2,3.5,3.5s1.2,3.3,1.2,5.4-.4,3.9-1.2,5.4c-.8,1.5-2,2.7-3.5,3.6-1.5.8-3.3,1.2-5.3,1.2s-3.8-.4-5.3-1.2ZM1607.6,648.5c.9-1.1,1.3-2.6,1.3-4.7s-.4-3.6-1.3-4.7-2.1-1.6-3.7-1.6-2.8.5-3.7,1.6c-.9,1.1-1.3,2.6-1.3,4.7s.4,3.7,1.3,4.7c.9,1.1,2.1,1.6,3.7,1.6s2.9-.5,3.7-1.6Z"/>
        <path class="st1" d="M1634.6,635.7c1.1,1.3,1.7,3.3,1.7,6v12h-5v-11.7c0-1.5-.3-2.6-.9-3.3s-1.5-1-2.7-1-2.6.5-3.5,1.4-1.3,2.1-1.3,3.6v11.1h-5v-19.6h4.9v2.9c.7-1.1,1.6-1.9,2.7-2.5,1.1-.6,2.4-.9,3.8-.9,2.3,0,4.1.7,5.2,2Z"/>
        <path class="st1" d="M1655.9,635.7c1.3,1.3,2,3.4,2,6.2v11.9h-4.8v-3c-.5,1-1.2,1.9-2.1,2.4-1,.6-2.1.9-3.4.9s-2.5-.3-3.6-.8c-1.1-.5-1.9-1.3-2.5-2.2s-.9-2-.9-3.1.4-2.6,1.1-3.4c.7-.8,1.9-1.4,3.6-1.8,1.7-.4,3.9-.6,6.8-.6h1v-.9c0-1.3-.3-2.3-.9-2.9-.6-.6-1.5-.9-2.9-.9s-2.1.2-3.3.5c-1.1.4-2.2.9-3.3,1.5l-1.4-3.4c1.1-.7,2.4-1.3,4-1.7,1.5-.5,3-.7,4.4-.7,2.7,0,4.8.7,6.1,2ZM1651.9,649.1c.8-.9,1.3-2,1.3-3.5v-.8h-.7c-1.8,0-3.2,0-4.2.2-1,.2-1.7.4-2.1.8-.4.4-.6.9-.6,1.6s.3,1.6.9,2.1c.6.5,1.3.8,2.2.8,1.3,0,2.4-.4,3.3-1.3Z"/>
        <path class="st1" d="M1663,625.5h5v28.2h-5v-28.2Z"/>
        <path class="st1" d="M1687.3,651.1c-2-2-3-4.9-3-8.8v-16.8h5v17.1c0,2.4.6,4.3,1.7,5.5,1.1,1.2,2.8,1.9,5,1.9s3.9-.6,5-1.9c1.1-1.3,1.7-3.1,1.7-5.5v-17.1h5v16.8c0,3.8-1,6.7-3,8.7-2,2-4.9,3-8.8,3s-6.8-1-8.8-3Z"/>
        <path class="st1" d="M1729.9,635.7c1.1,1.3,1.7,3.3,1.7,6v12h-5v-11.7c0-1.5-.3-2.6-.9-3.3-.6-.7-1.5-1-2.7-1s-2.6.5-3.5,1.4c-.9.9-1.3,2.1-1.3,3.6v11.1h-5v-19.6h4.9v2.9c.7-1.1,1.6-1.9,2.7-2.5,1.1-.6,2.4-.9,3.8-.9,2.3,0,4.1.7,5.2,2Z"/>
        <path class="st1" d="M1742,625.1v4.9h-5.5v-4.9h5.5ZM1736.7,634.1h5v19.6h-5v-19.6Z"/>
        <path class="st1" d="M1758.7,650.1l-.2,3.7c-.8,0-1.5.1-2.2.1-2.7,0-4.8-.6-6.1-1.9s-2-3.2-2-5.7v-8.5h-3.8v-3.8h3.8v-5.8h5v5.8h5.2v3.8h-5.2v8.4c0,2.6,1.2,3.9,3.6,3.9s1.2,0,1.8-.1Z"/>
      </g>
    </g>
    <g class="st7">
      <g class="st7">
        <path class="st8" d="M1562.4,742.5h-2.7l-3.6-6.8c-.4-.8-1-1.4-1.5-1.7-.6-.3-1.4-.5-2.4-.5h-4v8.9h-2.4v-21.2h8.7c2.3,0,4.1.5,5.3,1.5,1.2,1,1.8,2.5,1.8,4.5s-.5,3-1.4,4-2.3,1.6-4,1.9c.5.2,1,.4,1.4.8.4.4.8.9,1.1,1.5l3.7,6.9ZM1554.3,731.5c1.6,0,2.9-.3,3.7-1,.8-.7,1.2-1.7,1.2-3.1s-.4-2.4-1.2-3-2-1-3.7-1h-6.1v8.1h6.1Z"/>
        <path class="st8" d="M1576,728.9c.9,1,1.4,2.4,1.4,4.3v9.2h-2.4v-2.5c-.4.9-1,1.5-1.7,2-.8.5-1.7.7-2.7.7s-1.8-.2-2.6-.6c-.8-.4-1.4-.9-1.9-1.6-.5-.7-.7-1.4-.7-2.2s.3-2,.8-2.6,1.5-1.1,2.8-1.3c1.3-.3,3.1-.4,5.3-.4h.7v-1c0-1.2-.2-2.1-.8-2.7s-1.3-.8-2.4-.8c-1.7,0-3.3.5-5,1.6l-.8-1.8c.8-.5,1.7-1,2.7-1.3s2.1-.5,3.1-.5c1.9,0,3.2.5,4.2,1.4ZM1573.9,739.6c.8-.8,1.2-1.9,1.2-3.1v-.9h-.5c-1.8,0-3.1,0-4,.2s-1.6.4-2,.8c-.4.4-.6.9-.6,1.5s.3,1.4.9,1.9c.6.5,1.3.8,2.1.8s2.2-.4,3-1.2Z"/>
        <path class="st8" d="M1589.6,740.7v1.9c-.6,0-1.1.1-1.6.1-1.8,0-3.1-.5-4-1.4s-1.3-2.2-1.3-3.8v-7.7h-2.8v-1.9h2.8v-4.4h2.4v4.4h4.1v1.9h-4.1v7.5c0,2.3,1.1,3.5,3.2,3.5s.9,0,1.3,0Z"/>
        <path class="st8" d="M1604.3,735.6h-10.7c0,1.7.5,3,1.4,3.9s2,1.3,3.6,1.3,3.3-.6,4.7-1.7l.8,1.8c-.6.6-1.5,1.1-2.5,1.4-1,.4-2,.5-3.1.5-2.3,0-4.1-.7-5.4-2-1.3-1.3-2-3.2-2-5.5s.3-2.8.9-4c.6-1.1,1.4-2,2.4-2.7,1.1-.6,2.2-1,3.6-1,1.9,0,3.5.6,4.6,1.9,1.1,1.3,1.7,3,1.7,5.2v.9ZM1595,730.6c-.8.8-1.2,1.9-1.4,3.4h8.5c0-1.5-.4-2.6-1.1-3.4-.7-.8-1.7-1.2-2.9-1.2s-2.3.4-3.1,1.2Z"/>
        <path class="st8" d="M1613.3,733.7h30v1.6h-30v-1.6Z"/>
        <path class="st8" d="M1664.1,728.5c1,.6,1.7,1.5,2.3,2.7.5,1.2.8,2.5.8,4s-.3,2.8-.8,4-1.3,2-2.3,2.6-2.1.9-3.4.9-2.1-.2-3-.8c-.9-.5-1.5-1.2-1.9-2.1v8.1h-2.4v-20h2.4v2.5c.4-.9,1.1-1.6,1.9-2.1.8-.5,1.8-.8,3-.8s2.4.3,3.4,1ZM1663.5,739.3c.8-1,1.2-2.3,1.2-4.1s-.4-3.1-1.2-4.1c-.8-1-1.9-1.5-3.3-1.5s-2.5.5-3.3,1.4-1.2,2.3-1.2,4.1.4,3.2,1.2,4.1,1.9,1.5,3.3,1.5,2.5-.5,3.3-1.4Z"/>
        <path class="st8" d="M1683,735.6h-10.7c0,1.7.5,3,1.4,3.9s2,1.3,3.6,1.3,3.3-.6,4.7-1.7l.8,1.8c-.6.6-1.5,1.1-2.5,1.4-1,.4-2,.5-3.1.5-2.3,0-4.1-.7-5.4-2-1.3-1.3-2-3.2-2-5.5s.3-2.8.9-4c.6-1.1,1.4-2,2.4-2.7,1.1-.6,2.2-1,3.6-1,1.9,0,3.5.6,4.6,1.9,1.1,1.3,1.7,3,1.7,5.2v.9ZM1673.8,730.6c-.8.8-1.2,1.9-1.4,3.4h8.5c0-1.5-.4-2.6-1.1-3.4-.7-.8-1.7-1.2-2.9-1.2s-2.3.4-3.1,1.2Z"/>
        <path class="st8" d="M1694.9,729.6l-1.6.2c-1.5.1-2.6.6-3.3,1.4s-1,1.8-1,3v8.3h-2.4v-14.6h2.4v2.6c.8-1.7,2.4-2.7,4.8-2.9h.9c0,0,.2,2,.2,2Z"/>
      </g>
    </g>
    <g class="st7">
      <g class="st7">
        <path class="st8" d="M1461,776.7v1.9c-.6,0-1.1.1-1.6.1-1.8,0-3.1-.5-4-1.4-.9-.9-1.3-2.2-1.3-3.8v-7.7h-2.9v-1.9h2.9v-4.4h2.4v4.4h4.1v1.9h-4.1v7.5c0,2.3,1.1,3.5,3.2,3.5s.9,0,1.3,0Z"/>
        <path class="st8" d="M1471.8,765.6l-1.6.2c-1.5.1-2.6.6-3.3,1.4s-1,1.8-1,3v8.3h-2.4v-14.6h2.4v2.6c.8-1.7,2.4-2.7,4.8-2.9h.9c0,0,.2,2,.2,2Z"/>
        <path class="st8" d="M1484.1,764.9c.9,1,1.4,2.4,1.4,4.3v9.2h-2.4v-2.5c-.4.9-1,1.5-1.7,2-.8.5-1.7.7-2.7.7s-1.8-.2-2.6-.6c-.8-.4-1.4-.9-1.9-1.6-.5-.7-.7-1.4-.7-2.2s.3-2,.8-2.6,1.5-1.1,2.8-1.3c1.3-.3,3.1-.4,5.3-.4h.7v-1c0-1.2-.2-2.1-.8-2.7s-1.3-.8-2.4-.8c-1.7,0-3.3.5-5,1.6l-.8-1.8c.8-.5,1.7-1,2.7-1.3s2.1-.5,3.1-.5c1.9,0,3.2.5,4.2,1.4ZM1481.9,775.6c.8-.8,1.2-1.9,1.2-3.1v-.9h-.5c-1.8,0-3.1,0-4,.2s-1.6.4-2,.8c-.4.4-.6.9-.6,1.5s.3,1.4.9,1.9c.6.5,1.3.8,2.1.8s2.2-.4,3-1.2Z"/>
        <path class="st8" d="M1502.5,769.3v9.2h-2.4v-9c0-1.4-.3-2.3-.8-3-.5-.6-1.4-.9-2.5-.9s-2.4.4-3.2,1.2c-.8.8-1.2,1.9-1.2,3.3v8.4h-2.4v-14.6h2.4v2.4c.5-.9,1.2-1.6,2-2.1.9-.5,1.8-.7,2.9-.7,3.5,0,5.2,1.9,5.2,5.8Z"/>
        <path class="st8" d="M1506,776.8l.8-1.8c.8.6,1.6,1.1,2.4,1.3.8.3,1.7.4,2.7.4s1.9-.2,2.5-.6c.6-.4.9-.9.9-1.6s-.2-1-.6-1.4c-.4-.3-1-.6-1.9-.8l-2.5-.6c-1.2-.3-2.2-.8-2.8-1.4-.7-.7-1-1.5-1-2.5s.5-2.3,1.5-3.1c1-.8,2.4-1.2,4.1-1.2s2,.2,2.9.5,1.7.8,2.3,1.4l-.8,1.8c-1.3-1.1-2.8-1.7-4.4-1.7s-1.8.2-2.4.6c-.6.4-.9.9-.9,1.6s.2,1,.5,1.4c.3.4.9.6,1.7.8l2.5.6c1.4.3,2.4.8,3,1.5.7.7,1,1.5,1,2.5s-.5,2.3-1.5,3.1-2.4,1.1-4.2,1.1-4.4-.6-5.8-1.9Z"/>
        <path class="st8" d="M1531.4,764.9c.9,1,1.4,2.4,1.4,4.3v9.2h-2.4v-2.5c-.4.9-1,1.5-1.7,2-.8.5-1.7.7-2.7.7s-1.8-.2-2.6-.6c-.8-.4-1.4-.9-1.9-1.6-.5-.7-.7-1.4-.7-2.2s.3-2,.8-2.6c.6-.6,1.5-1.1,2.8-1.3,1.3-.3,3.1-.4,5.3-.4h.7v-1c0-1.2-.2-2.1-.8-2.7s-1.3-.8-2.4-.8c-1.7,0-3.4.5-5,1.6l-.8-1.8c.8-.5,1.7-1,2.7-1.3,1.1-.3,2.1-.5,3.1-.5,1.9,0,3.2.5,4.2,1.4ZM1529.2,775.6c.8-.8,1.2-1.9,1.2-3.1v-.9h-.5c-1.8,0-3.1,0-4,.2s-1.6.4-2,.8c-.4.4-.6.9-.6,1.5s.3,1.4.9,1.9c.6.5,1.3.8,2.1.8s2.2-.4,3-1.2Z"/>
        <path class="st8" d="M1539.6,777.8c-1.1-.6-1.9-1.5-2.4-2.6-.6-1.1-.9-2.5-.9-4s.3-2.9.9-4c.6-1.1,1.4-2,2.5-2.7,1.1-.6,2.3-1,3.8-1s1.9.2,2.9.5c.9.4,1.7.8,2.3,1.4l-.8,1.8c-1.4-1.1-2.8-1.7-4.2-1.7s-2.7.5-3.5,1.5c-.8,1-1.3,2.4-1.3,4.1s.4,3.1,1.3,4.1c.8,1,2,1.4,3.5,1.4s2.8-.6,4.2-1.7l.8,1.8c-.6.6-1.4,1-2.3,1.4-.9.3-1.9.5-2.9.5-1.4,0-2.7-.3-3.8-.9Z"/>
        <path class="st8" d="M1559.3,776.7v1.9c-.6,0-1.1.1-1.6.1-1.8,0-3.1-.5-4-1.4s-1.3-2.2-1.3-3.8v-7.7h-2.8v-1.9h2.8v-4.4h2.4v4.4h4.1v1.9h-4.1v7.5c0,2.3,1.1,3.5,3.2,3.5s.9,0,1.3,0Z"/>
        <path class="st8" d="M1564.5,757.6v2.7h-2.9v-2.7h2.9ZM1561.8,763.9h2.4v14.6h-2.4v-14.6Z"/>
        <path class="st8" d="M1571.2,777.8c-1-.6-1.9-1.5-2.4-2.7-.6-1.1-.9-2.5-.9-4s.3-2.9.9-4,1.4-2,2.4-2.7,2.3-.9,3.6-.9,2.6.3,3.7.9c1.1.6,1.9,1.5,2.4,2.7.6,1.2.9,2.5.9,4s-.3,2.9-.9,4c-.6,1.2-1.4,2-2.4,2.7-1.1.6-2.3.9-3.7.9s-2.6-.3-3.6-.9ZM1578.1,775.3c.8-1,1.2-2.3,1.2-4.2s-.4-3.2-1.2-4.1-1.9-1.5-3.3-1.5-2.5.5-3.3,1.5c-.8,1-1.2,2.3-1.2,4.1s.4,3.2,1.2,4.1c.8,1,1.9,1.4,3.3,1.4s2.5-.5,3.3-1.4Z"/>
        <path class="st8" d="M1598,769.3v9.2h-2.4v-9c0-1.4-.3-2.3-.8-3s-1.4-.9-2.5-.9-2.4.4-3.2,1.2c-.8.8-1.2,1.9-1.2,3.3v8.4h-2.4v-14.6h2.4v2.4c.5-.9,1.1-1.6,2-2.1.9-.5,1.8-.7,2.9-.7,3.5,0,5.2,1.9,5.2,5.8Z"/>
        <path class="st8" d="M1605.1,775.4v2.2c0,.8-.1,1.6-.4,2.3-.3.7-.7,1.4-1.4,2l-1.1-.9c.8-.9,1.2-1.7,1.3-2.5h-1.4v-3.1h3.1Z"/>
        <path class="st8" d="M1629.4,763.9v14.6h-2.4v-2.5c-.5.9-1.1,1.6-1.9,2-.8.5-1.8.7-2.8.7-1.7,0-3.1-.5-3.9-1.5-.9-1-1.3-2.4-1.3-4.3v-9.1h2.4v9c0,1.3.3,2.3.8,2.9.5.6,1.3.9,2.5.9s2.3-.4,3.1-1.2c.8-.8,1.2-1.9,1.2-3.3v-8.2h2.4Z"/>
        <path class="st8" d="M1633,776.8l.8-1.8c.8.6,1.6,1.1,2.4,1.3.8.3,1.7.4,2.7.4s1.9-.2,2.5-.6.9-.9.9-1.6-.2-1-.6-1.4c-.4-.3-1-.6-1.9-.8l-2.5-.6c-1.2-.3-2.2-.8-2.9-1.4s-1-1.5-1-2.5.5-2.3,1.5-3.1c1-.8,2.4-1.2,4.1-1.2s2,.2,2.9.5,1.7.8,2.3,1.4l-.8,1.8c-1.3-1.1-2.8-1.7-4.4-1.7s-1.8.2-2.4.6c-.6.4-.9.9-.9,1.6s.2,1,.5,1.4c.3.4.9.6,1.7.8l2.5.6c1.4.3,2.4.8,3,1.5.7.7,1,1.5,1,2.5s-.5,2.3-1.5,3.1c-1,.8-2.4,1.1-4.2,1.1s-4.4-.6-5.9-1.9Z"/>
        <path class="st8" d="M1660.5,771.6h-10.7c0,1.7.5,3,1.4,3.9s2,1.3,3.6,1.3,3.3-.6,4.7-1.7l.8,1.8c-.6.6-1.5,1.1-2.5,1.4-1,.4-2,.5-3.1.5-2.3,0-4.1-.7-5.4-2-1.3-1.3-2-3.2-2-5.5s.3-2.8.9-4c.6-1.1,1.4-2,2.4-2.7s2.2-1,3.6-1c1.9,0,3.5.6,4.6,1.9,1.1,1.3,1.7,3,1.7,5.2v.9ZM1651.3,766.6c-.8.8-1.2,1.9-1.4,3.4h8.5c0-1.5-.4-2.6-1.1-3.4s-1.7-1.2-2.9-1.2-2.3.4-3.1,1.2Z"/>
        <path class="st8" d="M1672.4,765.6l-1.6.2c-1.5.1-2.6.6-3.3,1.4s-1,1.8-1,3v8.3h-2.4v-14.6h2.4v2.6c.8-1.7,2.4-2.7,4.8-2.9h.9c0,0,.2,2,.2,2Z"/>
        <path class="st8" d="M1676.8,775.4v2.2c0,.8-.1,1.6-.4,2.3-.3.7-.7,1.4-1.4,2l-1.1-.9c.8-.9,1.2-1.7,1.3-2.5h-1.4v-3.1h3.1Z"/>
        <path class="st8" d="M1696.9,765.6l-1.6.2c-1.5.1-2.6.6-3.3,1.4s-1,1.8-1,3v8.3h-2.4v-14.6h2.4v2.6c.8-1.7,2.4-2.7,4.8-2.9h.9c0,0,.2,2,.2,2Z"/>
        <path class="st8" d="M1711.2,771.6h-10.7c0,1.7.5,3,1.4,3.9s2,1.3,3.6,1.3,3.3-.6,4.7-1.7l.8,1.8c-.6.6-1.5,1.1-2.5,1.4-1,.4-2,.5-3.1.5-2.3,0-4.1-.7-5.4-2-1.3-1.3-2-3.2-2-5.5s.3-2.8.9-4c.6-1.1,1.4-2,2.4-2.7,1.1-.6,2.2-1,3.6-1,1.9,0,3.5.6,4.6,1.9,1.1,1.3,1.7,3,1.7,5.2v.9ZM1701.9,766.6c-.8.8-1.2,1.9-1.4,3.4h8.5c0-1.5-.4-2.6-1.1-3.4-.7-.8-1.7-1.2-2.9-1.2s-2.3.4-3.1,1.2Z"/>
        <path class="st8" d="M1727.7,763.9v20h-2.4v-8.1c-.4.9-1.1,1.6-1.9,2.1-.9.5-1.8.8-3,.8s-2.4-.3-3.4-.9-1.7-1.5-2.3-2.6-.8-2.5-.8-4,.3-2.9.8-4c.5-1.1,1.3-2,2.3-2.7,1-.6,2.1-1,3.4-1s2.1.2,3,.8c.8.5,1.5,1.2,1.9,2.1v-2.5h2.4ZM1724.1,775.2c.8-1,1.2-2.3,1.2-4.1s-.4-3.2-1.2-4.1-1.9-1.4-3.3-1.4-2.5.5-3.3,1.5c-.8,1-1.2,2.4-1.2,4.1s.4,3.1,1.2,4.1,1.9,1.4,3.3,1.4,2.5-.5,3.3-1.5Z"/>
        <path class="st8" d="M1744.5,763.9v14.6h-2.4v-2.5c-.5.9-1.1,1.6-1.9,2-.8.5-1.8.7-2.8.7-1.7,0-3-.5-3.9-1.5-.9-1-1.3-2.4-1.3-4.3v-9.1h2.4v9c0,1.3.3,2.3.8,2.9.5.6,1.3.9,2.5.9s2.3-.4,3.1-1.2c.8-.8,1.2-1.9,1.2-3.3v-8.2h2.4Z"/>
        <path class="st8" d="M1761.3,771.6h-10.7c0,1.7.5,3,1.4,3.9s2,1.3,3.6,1.3,3.3-.6,4.7-1.7l.8,1.8c-.6.6-1.5,1.1-2.5,1.4-1,.4-2,.5-3.1.5-2.3,0-4.1-.7-5.4-2-1.3-1.3-2-3.2-2-5.5s.3-2.8.9-4c.6-1.1,1.4-2,2.4-2.7s2.2-1,3.6-1c1.9,0,3.5.6,4.6,1.9,1.1,1.3,1.7,3,1.7,5.2v.9ZM1752,766.6c-.8.8-1.2,1.9-1.4,3.4h8.5c0-1.5-.4-2.6-1.1-3.4s-1.7-1.2-2.9-1.2-2.3.4-3.1,1.2Z"/>
        <path class="st8" d="M1764,776.8l.8-1.8c.8.6,1.6,1.1,2.4,1.3.8.3,1.7.4,2.7.4s1.9-.2,2.5-.6.9-.9.9-1.6-.2-1-.6-1.4c-.4-.3-1-.6-1.9-.8l-2.5-.6c-1.2-.3-2.2-.8-2.9-1.4s-1-1.5-1-2.5.5-2.3,1.5-3.1c1-.8,2.4-1.2,4.1-1.2s2,.2,2.9.5,1.7.8,2.3,1.4l-.8,1.8c-1.3-1.1-2.8-1.7-4.4-1.7s-1.8.2-2.4.6c-.6.4-.9.9-.9,1.6s.2,1,.5,1.4c.3.4.9.6,1.7.8l2.5.6c1.4.3,2.4.8,3,1.5.7.7,1,1.5,1,2.5s-.5,2.3-1.5,3.1c-1,.8-2.4,1.1-4.2,1.1s-4.4-.6-5.9-1.9Z"/>
        <path class="st8" d="M1786.9,776.7v1.9c-.6,0-1.1.1-1.6.1-1.8,0-3.1-.5-4-1.4s-1.3-2.2-1.3-3.8v-7.7h-2.8v-1.9h2.8v-4.4h2.4v4.4h4.1v1.9h-4.1v7.5c0,2.3,1.1,3.5,3.2,3.5s.9,0,1.3,0Z"/>
      </g>
    </g>
    <g class="st7">
      <g class="st7">
        <g class="st7">
          <path class="st2" d="M387.8,889.2c-1.5-.9-2.6-2.1-3.3-3.8s-1.2-3.5-1.2-5.7.4-4.1,1.2-5.8,1.9-2.9,3.3-3.8c1.4-.9,3.2-1.3,5.1-1.3s3.7.4,5.1,1.3c1.4.9,2.6,2.1,3.3,3.8.8,1.6,1.2,3.5,1.2,5.7s-.4,4.1-1.2,5.7c-.8,1.6-1.9,2.9-3.3,3.8-1.5.9-3.2,1.3-5.1,1.3s-3.7-.4-5.1-1.3ZM398.2,886.2c1.2-1.5,1.9-3.7,1.9-6.5s-.6-5-1.9-6.5c-1.2-1.5-3-2.2-5.2-2.2s-4,.8-5.2,2.3c-1.3,1.5-1.9,3.7-1.9,6.4s.6,4.9,1.9,6.5c1.2,1.5,3,2.3,5.2,2.3s4-.8,5.2-2.3Z"/>
          <path class="st2" d="M417.4,876.3c1,.6,1.7,1.5,2.3,2.7.5,1.2.8,2.5.8,4s-.3,2.8-.8,4-1.3,2-2.3,2.6c-1,.6-2.1.9-3.4.9s-2.1-.2-3-.8c-.9-.5-1.5-1.2-1.9-2.1v8.1h-2.4v-20h2.4v2.5c.4-.9,1.1-1.6,1.9-2.1.8-.5,1.8-.8,3-.8s2.4.3,3.4,1ZM416.8,887.1c.8-1,1.2-2.3,1.2-4.1s-.4-3.1-1.2-4.1c-.8-1-1.9-1.5-3.3-1.5s-2.5.5-3.3,1.4c-.8,1-1.2,2.3-1.2,4.1s.4,3.2,1.2,4.1c.8,1,1.9,1.5,3.3,1.5s2.5-.5,3.3-1.4Z"/>
          <path class="st2" d="M436.4,883.4h-10.7c0,1.7.5,3,1.4,3.9s2,1.3,3.6,1.3,3.3-.6,4.7-1.7l.8,1.8c-.6.6-1.5,1.1-2.5,1.4-1,.4-2,.5-3.1.5-2.3,0-4.1-.7-5.4-2-1.3-1.3-2-3.2-2-5.5s.3-2.8.9-4c.6-1.1,1.4-2,2.4-2.7,1.1-.6,2.2-1,3.6-1,1.9,0,3.5.6,4.6,1.9,1.1,1.3,1.7,3,1.7,5.2v.9ZM427.1,878.4c-.8.8-1.2,1.9-1.4,3.4h8.5c0-1.5-.4-2.6-1.1-3.4-.7-.8-1.7-1.2-2.9-1.2s-2.3.4-3.1,1.2Z"/>
          <path class="st2" d="M448.2,877.4l-1.6.2c-1.5.1-2.6.6-3.3,1.4-.7.8-1,1.8-1,3v8.3h-2.4v-14.6h2.4v2.6c.8-1.7,2.4-2.7,4.8-2.9h.9c0,0,.2,2,.2,2Z"/>
          <path class="st2" d="M460.5,876.8c.9,1,1.4,2.4,1.4,4.3v9.2h-2.4v-2.5c-.4.9-1,1.5-1.7,2-.8.5-1.7.7-2.7.7s-1.8-.2-2.6-.6c-.8-.4-1.4-.9-1.9-1.6-.5-.7-.7-1.4-.7-2.2s.3-2,.8-2.6c.6-.6,1.5-1.1,2.8-1.3,1.3-.3,3.1-.4,5.3-.4h.7v-1c0-1.2-.2-2.1-.8-2.7s-1.3-.8-2.4-.8c-1.7,0-3.4.5-5,1.6l-.8-1.8c.8-.5,1.7-1,2.7-1.3,1.1-.3,2.1-.5,3.1-.5,1.9,0,3.2.5,4.2,1.4ZM458.3,887.4c.8-.8,1.2-1.9,1.2-3.1v-.9h-.5c-1.8,0-3.1,0-4,.2s-1.6.4-2,.8c-.4.4-.6.9-.6,1.5s.3,1.4.9,1.9c.6.5,1.3.8,2.1.8s2.2-.4,3-1.2Z"/>
          <path class="st2" d="M474,888.5v1.9c-.6,0-1.1.1-1.6.1-1.8,0-3.1-.5-4-1.4-.9-.9-1.3-2.2-1.3-3.8v-7.7h-2.9v-1.9h2.9v-4.4h2.4v4.4h4.1v1.9h-4.1v7.5c0,2.3,1.1,3.5,3.2,3.5s.9,0,1.3,0Z"/>
          <path class="st2" d="M479.2,869.4v2.7h-2.9v-2.7h2.9ZM476.5,875.7h2.4v14.6h-2.4v-14.6Z"/>
          <path class="st2" d="M485.9,889.6c-1-.6-1.9-1.5-2.4-2.7-.6-1.1-.9-2.5-.9-4s.3-2.9.9-4c.6-1.2,1.4-2,2.4-2.7s2.3-.9,3.6-.9,2.6.3,3.7.9c1.1.6,1.9,1.5,2.4,2.7s.9,2.5.9,4-.3,2.9-.9,4c-.6,1.2-1.4,2-2.4,2.7-1.1.6-2.3.9-3.7.9s-2.6-.3-3.6-.9ZM492.8,887.1c.8-1,1.2-2.3,1.2-4.2s-.4-3.2-1.2-4.1c-.8-1-1.9-1.5-3.3-1.5s-2.5.5-3.3,1.5c-.8,1-1.2,2.3-1.2,4.1s.4,3.2,1.2,4.1c.8,1,1.9,1.4,3.3,1.4s2.5-.5,3.3-1.4Z"/>
          <path class="st2" d="M512.7,881.1v9.2h-2.4v-9c0-1.4-.3-2.3-.8-3-.5-.6-1.4-.9-2.5-.9s-2.4.4-3.2,1.2c-.8.8-1.2,1.9-1.2,3.3v8.4h-2.4v-14.6h2.4v2.4c.5-.9,1.1-1.6,2-2.1.9-.5,1.8-.7,2.9-.7,3.5,0,5.2,1.9,5.2,5.8Z"/>
          <path class="st2" d="M527.3,876.8c.9,1,1.4,2.4,1.4,4.3v9.2h-2.4v-2.5c-.4.9-1,1.5-1.7,2-.8.5-1.7.7-2.7.7s-1.8-.2-2.6-.6c-.8-.4-1.4-.9-1.9-1.6-.5-.7-.7-1.4-.7-2.2s.3-2,.8-2.6c.6-.6,1.5-1.1,2.8-1.3,1.3-.3,3.1-.4,5.3-.4h.7v-1c0-1.2-.2-2.1-.8-2.7s-1.3-.8-2.4-.8c-1.7,0-3.4.5-5,1.6l-.8-1.8c.8-.5,1.7-1,2.7-1.3,1.1-.3,2.1-.5,3.1-.5,1.9,0,3.2.5,4.2,1.4ZM525.1,887.4c.8-.8,1.2-1.9,1.2-3.1v-.9h-.5c-1.8,0-3.1,0-4,.2s-1.6.4-2,.8c-.4.4-.6.9-.6,1.5s.3,1.4.9,1.9c.6.5,1.3.8,2.1.8s2.2-.4,3-1.2Z"/>
          <path class="st2" d="M533.1,869.1h2.4v21.2h-2.4v-21.2Z"/>
          <path class="st2" d="M548.1,869.1h13.4v2h-11v7.4h10.4v2h-10.4v7.7h11v2h-13.4v-21.2Z"/>
          <path class="st2" d="M577.8,881.1v9.2h-2.4v-9c0-1.4-.3-2.3-.8-3-.5-.6-1.4-.9-2.5-.9s-2.4.4-3.2,1.2c-.8.8-1.2,1.9-1.2,3.3v8.4h-2.4v-14.6h2.4v2.4c.5-.9,1.1-1.6,2-2.1.9-.5,1.8-.7,2.9-.7,3.5,0,5.2,1.9,5.2,5.8Z"/>
          <path class="st2" d="M594.5,883.4h-10.7c0,1.7.5,3,1.4,3.9s2,1.3,3.6,1.3,3.3-.6,4.7-1.7l.8,1.8c-.6.6-1.5,1.1-2.5,1.4-1,.4-2,.5-3.1.5-2.3,0-4.1-.7-5.4-2-1.3-1.3-2-3.2-2-5.5s.3-2.8.9-4c.6-1.1,1.4-2,2.4-2.7,1.1-.6,2.2-1,3.6-1,1.9,0,3.5.6,4.6,1.9,1.1,1.3,1.7,3,1.7,5.2v.9ZM585.2,878.4c-.8.8-1.2,1.9-1.4,3.4h8.5c0-1.5-.4-2.6-1.1-3.4-.7-.8-1.7-1.2-2.9-1.2s-2.3.4-3.1,1.2Z"/>
          <path class="st2" d="M606.3,877.4l-1.6.2c-1.5.1-2.6.6-3.3,1.4-.7.8-1,1.8-1,3v8.3h-2.4v-14.6h2.4v2.6c.8-1.7,2.4-2.7,4.8-2.9h.9c0,0,.2,2,.2,2Z"/>
          <path class="st2" d="M621.4,875.7v13.6c0,2.2-.6,3.8-1.7,4.9-1.1,1.1-2.8,1.7-5,1.7s-4.7-.7-6.4-2l.8-1.8c1,.6,1.9,1.1,2.8,1.4.9.3,1.8.4,2.9.4s2.5-.4,3.2-1.1c.7-.8,1.1-1.8,1.1-3.3v-2.6c-.4.9-1.1,1.7-1.9,2.2-.9.5-1.9.8-3.1.8s-2.4-.3-3.4-.9c-1-.6-1.8-1.5-2.3-2.6-.6-1.1-.8-2.4-.8-3.8s.3-2.7.8-3.8c.5-1.1,1.3-2,2.3-2.6,1-.6,2.1-.9,3.4-.9s2.2.2,3,.8c.9.5,1.5,1.2,1.9,2.1v-2.5h2.4ZM617.8,886.4c.8-.9,1.2-2.2,1.2-3.9s-.4-2.9-1.2-3.8-1.9-1.4-3.3-1.4-2.5.5-3.3,1.4-1.2,2.2-1.2,3.8.4,2.9,1.2,3.9c.8.9,1.9,1.4,3.3,1.4s2.5-.5,3.3-1.4Z"/>
          <path class="st2" d="M638.8,875.7l-8.6,20h-2.5l2.5-5.6-6.2-14.4h2.6l4.9,11.9,5-11.9h2.4Z"/>
        </g>
      </g>
    </g>
    <polygon class="st2" points="945.8 912.7 105.8 912.7 105.8 864.7 107.8 864.7 107.8 910.7 943.8 910.7 943.8 864.7 945.8 864.7 945.8 912.7"/>
    <g class="st7">
      <g class="st7">
        <g class="st7">
          <path class="st1" d="M991.1,887.9h2.5v21.2h-2.5v-21.2Z"/>
          <path class="st1" d="M997.6,906.7l1-1.9c1,.9,2.1,1.5,3.2,1.9s2.4.6,3.8.6,3-.3,3.9-1c.9-.7,1.4-1.6,1.4-2.8s-.2-1.3-.7-1.7c-.4-.4-1-.8-1.7-1.1-.7-.3-1.7-.5-2.9-.8-1.6-.4-3-.8-4-1.2s-1.9-1-2.5-1.8c-.7-.8-1-1.8-1-3.1s.3-2.3.9-3.2,1.5-1.7,2.7-2.2,2.5-.8,4.1-.8,2.8.2,4.1.7c1.3.5,2.3,1.1,3.2,2l-.9,1.9c-1-.9-2-1.5-3-1.9-1-.4-2.1-.6-3.3-.6s-2.9.3-3.9,1c-.9.7-1.4,1.7-1.4,2.9s.4,1.9,1.2,2.4,2.1,1,3.7,1.4c1.8.4,3.2.8,4.3,1.2,1,.4,1.9.9,2.6,1.7.7.7,1,1.7,1,3s-.3,2.2-.9,3.2c-.6.9-1.5,1.6-2.7,2.1-1.2.5-2.6.7-4.1.7-3.3,0-5.9-.9-7.9-2.7Z"/>
          <path class="st1" d="M1021,908c-1.5-.9-2.6-2.1-3.3-3.8s-1.2-3.5-1.2-5.7.4-4.1,1.2-5.8c.8-1.6,1.9-2.9,3.3-3.8,1.5-.9,3.2-1.3,5.1-1.3s3.7.4,5.1,1.3c1.4.9,2.6,2.1,3.3,3.8.8,1.6,1.2,3.5,1.2,5.7s-.4,4.1-1.2,5.7c-.8,1.6-1.9,2.9-3.3,3.8-1.5.9-3.2,1.3-5.1,1.3s-3.7-.4-5.1-1.3ZM1031.4,905c1.2-1.5,1.9-3.7,1.9-6.5s-.6-5-1.9-6.5c-1.2-1.5-3-2.2-5.2-2.2s-4,.8-5.2,2.3c-1.2,1.5-1.9,3.7-1.9,6.4s.6,4.9,1.9,6.5c1.2,1.5,3,2.3,5.2,2.3s4-.8,5.2-2.3Z"/>
          <path class="st1" d="M1036.7,910.4l7.7-23.9,2,.7-7.6,23.9-2-.7Z"/>
          <path class="st1" d="M1048.4,887.9h2.5v21.2h-2.5v-21.2Z"/>
          <path class="st1" d="M1056.1,887.9h13.4v2h-10.9v7.4h10.3v2h-10.3v7.7h10.9v2h-13.4v-21.2Z"/>
          <path class="st1" d="M1077.2,908c-1.5-.9-2.6-2.1-3.4-3.8-.8-1.6-1.2-3.6-1.2-5.8s.4-4.1,1.2-5.8c.8-1.6,1.9-2.9,3.4-3.7s3.2-1.3,5.2-1.3,2.8.2,4,.7c1.2.5,2.3,1.1,3.2,2l-.9,1.9c-1-.9-2-1.5-3-1.9-1-.4-2.1-.6-3.2-.6-2.3,0-4.1.8-5.4,2.3-1.3,1.5-1.9,3.6-1.9,6.4s.6,4.9,1.9,6.4c1.3,1.5,3.1,2.3,5.4,2.3s2.3-.2,3.2-.6,2-1,3-1.9l.9,1.9c-.9.9-2,1.5-3.2,2-1.2.4-2.6.7-4,.7s-3.7-.4-5.2-1.3Z"/>
          <path class="st1" d="M1115,907v2.1h-13.6v-1.9l7.4-8.2c1-1.1,1.7-2.1,2.2-3,.5-.9.7-1.8.7-2.7s-.3-2-1-2.7-1.6-.9-2.9-.9c-2,0-4,.8-6,2.4l-.9-1.9c.8-.8,1.9-1.4,3.2-1.9,1.3-.5,2.5-.7,3.8-.7,1.9,0,3.5.5,4.6,1.5,1.1,1,1.7,2.3,1.7,4s-.3,2.4-.8,3.5c-.5,1.1-1.5,2.4-2.7,3.8l-6,6.5h10.4Z"/>
          <path class="st1" d="M1132.5,907v2.1h-11.8v-2.1h4.7v-16l-3.7,2.3-1.1-1.9,5.5-3.5h1.8v19.1h4.7Z"/>
          <path class="st1" d="M1138.3,906.6c-1.3-1.8-1.9-4.5-1.9-8s.6-6.2,1.9-8.1,3.1-2.8,5.5-2.8,4.3.9,5.5,2.7c1.3,1.8,1.9,4.5,1.9,8.1s-.6,6.2-1.9,8.1c-1.3,1.8-3.1,2.8-5.5,2.8s-4.3-.9-5.5-2.8ZM1147.6,905.1c.8-1.4,1.2-3.6,1.2-6.6s-.4-5.2-1.2-6.6c-.8-1.4-2-2.1-3.7-2.1s-2.9.7-3.7,2.1c-.8,1.4-1.2,3.6-1.2,6.6s.4,5.2,1.2,6.6,2,2.1,3.7,2.1,2.9-.7,3.7-2.1Z"/>
          <path class="st1" d="M1167.6,900.1c.7.9,1,2,1,3.3s-.6,3.3-1.9,4.4c-1.2,1.1-2.9,1.6-5.1,1.6s-2.7-.2-3.9-.7c-1.3-.5-2.3-1.1-3.2-1.9l.9-1.9c1.9,1.6,4,2.4,6.1,2.4s2.6-.3,3.4-1c.8-.7,1.2-1.7,1.2-3,0-2.6-1.6-3.9-4.9-3.9h-2.4v-2.1h2c1.6,0,2.8-.3,3.6-1,.8-.7,1.3-1.7,1.3-3s-.3-2-1-2.6c-.7-.6-1.7-.9-2.9-.9-2,0-4,.8-6,2.4l-.9-1.9c.9-.8,1.9-1.5,3.1-1.9,1.2-.5,2.5-.7,3.9-.7,1.9,0,3.4.5,4.6,1.5,1.1,1,1.7,2.3,1.7,3.9s-.3,2.3-.9,3.2c-.6.9-1.4,1.6-2.5,2,1.2.4,2.2,1,2.8,1.8Z"/>
          <path class="st1" d="M1186.5,907v2.1h-11.8v-2.1h4.6v-16l-3.7,2.3-1.1-1.9,5.6-3.5h1.8v19.1h4.7Z"/>
          <path class="st1" d="M1193.8,894.5v3.1h-3.1v-3.1h3.1ZM1193.8,906v3.1h-3.1v-3.1h3.1Z"/>
          <path class="st1" d="M1211.9,907v2.1h-13.6v-1.9l7.4-8.2c1-1.1,1.7-2.1,2.2-3,.5-.9.7-1.8.7-2.7s-.3-2-1-2.7c-.7-.6-1.6-.9-2.9-.9-2,0-4,.8-6,2.4l-.9-1.9c.8-.8,1.9-1.4,3.2-1.9,1.3-.5,2.5-.7,3.8-.7,1.9,0,3.5.5,4.6,1.5s1.7,2.3,1.7,4-.3,2.4-.8,3.5c-.6,1.1-1.5,2.4-2.7,3.8l-6,6.5h10.4Z"/>
          <path class="st1" d="M1217.2,906.6c-1.3-1.8-1.9-4.5-1.9-8s.6-6.2,1.9-8.1,3.1-2.8,5.5-2.8,4.3.9,5.5,2.7c1.3,1.8,1.9,4.5,1.9,8.1s-.6,6.2-1.9,8.1-3.1,2.8-5.5,2.8-4.3-.9-5.5-2.8ZM1226.5,905.1c.8-1.4,1.2-3.6,1.2-6.6s-.4-5.2-1.2-6.6c-.8-1.4-2-2.1-3.7-2.1s-2.9.7-3.7,2.1c-.8,1.4-1.2,3.6-1.2,6.6s.4,5.2,1.2,6.6c.8,1.4,2,2.1,3.7,2.1s2.9-.7,3.7-2.1Z"/>
          <path class="st1" d="M1247.9,907v2.1h-13.6v-1.9l7.4-8.2c1-1.1,1.7-2.1,2.2-3,.4-.9.7-1.8.7-2.7s-.3-2-1-2.7-1.6-.9-2.9-.9c-2,0-4,.8-6,2.4l-.9-1.9c.8-.8,1.9-1.4,3.2-1.9,1.3-.5,2.5-.7,3.8-.7,1.9,0,3.5.5,4.6,1.5s1.7,2.3,1.7,4-.3,2.4-.8,3.5-1.5,2.4-2.7,3.8l-6,6.5h10.4Z"/>
          <path class="st1" d="M1266.7,904.5h-3.2v4.6h-2.4v-4.6h-9.8v-1.9l10.2-14.7h2v14.5h3.2v2ZM1261,902.5v-10.4l-7.2,10.4h7.2Z"/>
          <path class="st1" d="M1293.7,887.9h2.3v26.6h-2.3v-26.6Z"/>
          <path class="st1" d="M1324.6,887.9h7.1c3.4,0,6,.9,7.8,2.7,1.8,1.8,2.8,4.4,2.8,7.8s-.9,6-2.8,7.8c-1.9,1.8-4.5,2.8-7.8,2.8h-7.1v-21.2ZM1331.6,907c5.5,0,8.2-2.8,8.2-8.5s-2.7-8.5-8.2-8.5h-4.5v17h4.5Z"/>
          <path class="st1" d="M1358.7,902.2h-10.7c0,1.7.5,3,1.4,3.9.8.9,2,1.3,3.6,1.3s3.3-.6,4.7-1.7l.8,1.8c-.6.6-1.5,1.1-2.5,1.4-1,.4-2,.5-3.1.5-2.3,0-4.1-.7-5.4-2s-2-3.2-2-5.5.3-2.8.9-4c.6-1.1,1.4-2,2.4-2.7,1-.6,2.2-1,3.6-1,1.9,0,3.5.6,4.6,1.9,1.1,1.3,1.7,3,1.7,5.2v.9ZM1349.4,897.2c-.8.8-1.2,1.9-1.4,3.4h8.5c0-1.5-.4-2.6-1.1-3.4s-1.7-1.2-2.9-1.2-2.3.4-3.1,1.2Z"/>
          <path class="st1" d="M1361.3,907.4l.8-1.8c.8.6,1.6,1.1,2.4,1.3.8.3,1.7.4,2.7.4s1.9-.2,2.5-.6c.6-.4.9-.9.9-1.6s-.2-1-.6-1.4c-.4-.3-1-.6-1.9-.8l-2.5-.6c-1.2-.3-2.2-.8-2.9-1.4-.7-.7-1-1.5-1-2.5s.5-2.3,1.5-3.1c1-.8,2.4-1.2,4.1-1.2s2,.2,2.9.5,1.7.8,2.3,1.4l-.8,1.8c-1.3-1.1-2.8-1.7-4.4-1.7s-1.8.2-2.4.6c-.6.4-.9.9-.9,1.6s.2,1,.5,1.4c.3.4.9.6,1.7.8l2.5.6c1.4.3,2.4.8,3,1.5.7.7,1,1.5,1,2.5s-.5,2.3-1.5,3.1-2.4,1.1-4.2,1.1-4.4-.6-5.9-1.9Z"/>
          <path class="st1" d="M1379.3,888.2v2.7h-2.9v-2.7h2.9ZM1376.6,894.5h2.4v14.6h-2.4v-14.6Z"/>
          <path class="st1" d="M1396.7,894.5v13.6c0,2.2-.6,3.8-1.7,4.9-1.1,1.1-2.8,1.7-5,1.7s-4.7-.7-6.5-2l.8-1.8c1,.6,1.9,1.1,2.8,1.4.9.3,1.8.4,2.9.4s2.5-.4,3.2-1.1c.7-.8,1.1-1.8,1.1-3.3v-2.6c-.4.9-1.1,1.7-1.9,2.2-.9.5-1.9.8-3.1.8s-2.4-.3-3.4-.9c-1-.6-1.8-1.5-2.3-2.6-.6-1.1-.8-2.4-.8-3.8s.3-2.7.8-3.8c.5-1.1,1.3-2,2.3-2.6,1-.6,2.1-.9,3.4-.9s2.2.2,3,.8c.9.5,1.5,1.2,2,2.1v-2.5h2.4ZM1393,905.2c.8-.9,1.2-2.2,1.2-3.9s-.4-2.9-1.2-3.8-1.9-1.4-3.3-1.4-2.5.5-3.3,1.4c-.8.9-1.2,2.2-1.2,3.8s.4,2.9,1.2,3.9c.8.9,1.9,1.4,3.3,1.4s2.5-.5,3.3-1.4Z"/>
          <path class="st1" d="M1413.8,899.9v9.2h-2.4v-9c0-1.4-.3-2.3-.8-3-.5-.6-1.4-.9-2.5-.9s-2.4.4-3.2,1.2c-.8.8-1.2,1.9-1.2,3.3v8.4h-2.4v-14.6h2.4v2.4c.5-.9,1.1-1.6,2-2.1.9-.5,1.8-.7,2.9-.7,3.5,0,5.2,1.9,5.2,5.8Z"/>
          <path class="st1" d="M1430.5,902.2h-10.7c0,1.7.5,3,1.4,3.9.8.9,2,1.3,3.6,1.3s3.3-.6,4.7-1.7l.8,1.8c-.6.6-1.5,1.1-2.5,1.4-1,.4-2,.5-3.1.5-2.3,0-4.1-.7-5.4-2s-2-3.2-2-5.5.3-2.8.9-4c.6-1.1,1.4-2,2.4-2.7,1-.6,2.2-1,3.6-1,1.9,0,3.5.6,4.6,1.9,1.1,1.3,1.7,3,1.7,5.2v.9ZM1421.2,897.2c-.8.8-1.2,1.9-1.4,3.4h8.5c0-1.5-.4-2.6-1.1-3.4s-1.7-1.2-2.9-1.2-2.3.4-3.1,1.2Z"/>
          <path class="st1" d="M1447,887.9v21.2h-2.4v-2.7c-.4.9-1.1,1.6-1.9,2.1-.8.5-1.8.8-3,.8s-2.4-.3-3.4-1c-1-.6-1.7-1.5-2.3-2.7-.5-1.2-.8-2.5-.8-4s.3-2.8.8-4c.5-1.1,1.3-2,2.3-2.6s2.1-.9,3.4-.9,2.1.2,3,.8c.9.5,1.5,1.2,1.9,2.1v-9.1h2.4ZM1443.4,905.8c.8-1,1.2-2.3,1.2-4.1s-.4-3.2-1.2-4.1c-.8-1-1.9-1.4-3.3-1.4s-2.5.5-3.3,1.4c-.8,1-1.2,2.3-1.2,4s.4,3.2,1.2,4.2c.8,1,1.9,1.5,3.3,1.5s2.5-.5,3.3-1.5Z"/>
          <path class="st1" d="M1462.5,894.5h4.1v1.9h-4.1v12.7h-2.4v-12.7h-2.8v-1.9h2.8v-.5c0-1.9.5-3.4,1.5-4.4s2.5-1.6,4.5-1.7h1.2c0,0,.2,1.8.2,1.8h-1.4c-1.2.2-2.1.5-2.7,1.1-.6.6-.8,1.5-.8,2.8v.8Z"/>
          <path class="st1" d="M1471.3,908.4c-1-.6-1.9-1.5-2.4-2.7-.6-1.1-.9-2.5-.9-4s.3-2.9.9-4c.6-1.2,1.4-2,2.4-2.7s2.3-.9,3.6-.9,2.6.3,3.7.9c1.1.6,1.9,1.5,2.4,2.7s.9,2.5.9,4-.3,2.9-.9,4c-.6,1.2-1.4,2-2.4,2.7-1.1.6-2.3.9-3.7.9s-2.6-.3-3.6-.9ZM1478.3,905.9c.8-1,1.2-2.3,1.2-4.2s-.4-3.2-1.2-4.1c-.8-1-1.9-1.5-3.3-1.5s-2.5.5-3.3,1.5c-.8,1-1.2,2.3-1.2,4.1s.4,3.2,1.2,4.1c.8,1,1.9,1.4,3.3,1.4s2.5-.5,3.3-1.4Z"/>
          <path class="st1" d="M1493.8,896.2l-1.6.2c-1.5.1-2.6.6-3.3,1.4s-1,1.8-1,3v8.3h-2.4v-14.6h2.4v2.6c.8-1.7,2.4-2.7,4.8-2.9h.9c0,0,.2,2,.2,2Z"/>
          <path class="st1" d="M1518.1,903.7h-11l-2.3,5.4h-2.5l9.3-21.2h2.1l9.3,21.2h-2.5l-2.3-5.4ZM1517.2,901.6l-4.7-10.8-4.7,10.8h9.3Z"/>
          <path class="st1" d="M1528.1,908.4c-1.1-.6-1.9-1.5-2.4-2.6-.6-1.1-.9-2.5-.9-4s.3-2.9.9-4c.6-1.1,1.4-2,2.5-2.7,1.1-.6,2.3-1,3.8-1s1.9.2,2.9.5c.9.4,1.7.8,2.3,1.4l-.8,1.8c-1.4-1.1-2.8-1.7-4.2-1.7s-2.7.5-3.5,1.5c-.8,1-1.3,2.4-1.3,4.1s.4,3.1,1.3,4.1,2,1.4,3.5,1.4,2.8-.6,4.2-1.7l.8,1.8c-.6.6-1.4,1-2.3,1.4s-1.9.5-2.9.5c-1.4,0-2.7-.3-3.8-.9Z"/>
          <path class="st1" d="M1547.8,907.3v1.9c-.6,0-1.1.1-1.6.1-1.8,0-3.1-.5-4-1.4-.9-.9-1.3-2.2-1.3-3.8v-7.7h-2.8v-1.9h2.8v-4.4h2.4v4.4h4.1v1.9h-4.1v7.5c0,2.3,1.1,3.5,3.2,3.5s.9,0,1.3,0Z"/>
          <path class="st1" d="M1553,888.2v2.7h-2.9v-2.7h2.9ZM1550.3,894.5h2.4v14.6h-2.4v-14.6Z"/>
          <path class="st1" d="M1559.7,908.4c-1-.6-1.9-1.5-2.4-2.7-.6-1.1-.9-2.5-.9-4s.3-2.9.9-4c.6-1.2,1.4-2,2.4-2.7s2.3-.9,3.6-.9,2.6.3,3.7.9c1.1.6,1.9,1.5,2.4,2.7s.9,2.5.9,4-.3,2.9-.9,4c-.6,1.2-1.4,2-2.4,2.7-1.1.6-2.3.9-3.7.9s-2.6-.3-3.6-.9ZM1566.6,905.9c.8-1,1.2-2.3,1.2-4.2s-.4-3.2-1.2-4.1c-.8-1-1.9-1.5-3.3-1.5s-2.5.5-3.3,1.5c-.8,1-1.2,2.3-1.2,4.1s.4,3.2,1.2,4.1c.8,1,1.9,1.4,3.3,1.4s2.5-.5,3.3-1.4Z"/>
          <path class="st1" d="M1586.5,899.9v9.2h-2.4v-9c0-1.4-.3-2.3-.8-3-.5-.6-1.4-.9-2.5-.9s-2.4.4-3.2,1.2c-.8.8-1.2,1.9-1.2,3.3v8.4h-2.4v-14.6h2.4v2.4c.5-.9,1.1-1.6,2-2.1.9-.5,1.8-.7,2.9-.7,3.5,0,5.2,1.9,5.2,5.8Z"/>
          <path class="st1" d="M1611.3,899.9v9.2h-2.4v-9c0-1.4-.3-2.3-.8-3-.5-.6-1.4-.9-2.5-.9s-2.4.4-3.2,1.2c-.8.8-1.2,1.9-1.2,3.3v8.4h-2.4v-14.6h2.4v2.4c.5-.9,1.1-1.6,2-2.1.9-.5,1.8-.7,2.9-.7,3.5,0,5.2,1.9,5.2,5.8Z"/>
          <path class="st1" d="M1618.1,908.4c-1-.6-1.9-1.5-2.4-2.7-.6-1.1-.9-2.5-.9-4s.3-2.9.9-4c.6-1.2,1.4-2,2.4-2.7s2.3-.9,3.6-.9,2.6.3,3.7.9c1.1.6,1.9,1.5,2.4,2.7s.9,2.5.9,4-.3,2.9-.9,4c-.6,1.2-1.4,2-2.4,2.7-1.1.6-2.3.9-3.7.9s-2.6-.3-3.6-.9ZM1625.1,905.9c.8-1,1.2-2.3,1.2-4.2s-.4-3.2-1.2-4.1c-.8-1-1.9-1.5-3.3-1.5s-2.5.5-3.3,1.5c-.8,1-1.2,2.3-1.2,4.1s.4,3.2,1.2,4.1c.8,1,1.9,1.4,3.3,1.4s2.5-.5,3.3-1.4Z"/>
          <path class="st1" d="M1640.1,907.3v1.9c-.6,0-1.1.1-1.6.1-1.8,0-3.1-.5-4-1.4-.9-.9-1.3-2.2-1.3-3.8v-7.7h-2.8v-1.9h2.8v-4.4h2.4v4.4h4.1v1.9h-4.1v7.5c0,2.3,1.1,3.5,3.2,3.5s.9,0,1.3,0Z"/>
          <path class="st1" d="M1667.3,909.1h-2.7l-3.6-6.8c-.4-.8-1-1.4-1.5-1.7-.6-.3-1.4-.5-2.4-.5h-4v8.9h-2.4v-21.2h8.7c2.3,0,4.1.5,5.3,1.5,1.2,1,1.8,2.5,1.8,4.5s-.5,3-1.4,4-2.3,1.6-4,1.9c.5.2,1,.4,1.4.8.4.4.8.9,1.1,1.5l3.7,6.9ZM1659.1,898.1c1.6,0,2.9-.3,3.7-1,.8-.7,1.2-1.7,1.2-3.1s-.4-2.4-1.2-3-2-1-3.7-1h-6.1v8.1h6.1Z"/>
          <path class="st1" d="M1683.1,902.2h-10.7c0,1.7.5,3,1.4,3.9.8.9,2,1.3,3.6,1.3s3.3-.6,4.7-1.7l.8,1.8c-.6.6-1.5,1.1-2.5,1.4-1,.4-2,.5-3.1.5-2.3,0-4.1-.7-5.4-2s-2-3.2-2-5.5.3-2.8.9-4c.6-1.1,1.4-2,2.4-2.7,1-.6,2.2-1,3.6-1,1.9,0,3.5.6,4.6,1.9,1.1,1.3,1.7,3,1.7,5.2v.9ZM1673.9,897.2c-.8.8-1.2,1.9-1.4,3.4h8.5c0-1.5-.4-2.6-1.1-3.4s-1.7-1.2-2.9-1.2-2.3.4-3.1,1.2Z"/>
          <path class="st1" d="M1697.4,895.1c1,.6,1.7,1.5,2.3,2.7.5,1.2.8,2.5.8,4s-.3,2.8-.8,4c-.5,1.1-1.3,2-2.3,2.6s-2.1.9-3.4.9-2.1-.2-3-.8c-.9-.5-1.5-1.2-1.9-2.1v8.1h-2.4v-20h2.4v2.5c.4-.9,1.1-1.6,1.9-2.1.8-.5,1.8-.8,3-.8s2.4.3,3.4,1ZM1696.8,905.9c.8-1,1.2-2.3,1.2-4.1s-.4-3.1-1.2-4.1c-.8-1-1.9-1.5-3.3-1.5s-2.5.5-3.3,1.4c-.8,1-1.2,2.3-1.2,4.1s.4,3.2,1.2,4.1c.8,1,1.9,1.5,3.3,1.5s2.5-.5,3.3-1.4Z"/>
          <path class="st1" d="M1706.6,908.4c-1-.6-1.9-1.5-2.4-2.7-.6-1.1-.9-2.5-.9-4s.3-2.9.9-4c.6-1.2,1.4-2,2.4-2.7s2.3-.9,3.6-.9,2.6.3,3.7.9c1.1.6,1.9,1.5,2.4,2.7s.9,2.5.9,4-.3,2.9-.9,4c-.6,1.2-1.4,2-2.4,2.7-1.1.6-2.3.9-3.7.9s-2.6-.3-3.6-.9ZM1713.5,905.9c.8-1,1.2-2.3,1.2-4.2s-.4-3.2-1.2-4.1c-.8-1-1.9-1.5-3.3-1.5s-2.5.5-3.3,1.5c-.8,1-1.2,2.3-1.2,4.1s.4,3.2,1.2,4.1c.8,1,1.9,1.4,3.3,1.4s2.5-.5,3.3-1.4Z"/>
          <path class="st1" d="M1729.1,896.2l-1.6.2c-1.5.1-2.6.6-3.3,1.4s-1,1.8-1,3v8.3h-2.4v-14.6h2.4v2.6c.8-1.7,2.4-2.7,4.8-2.9h.9c0,0,.2,2,.2,2Z"/>
          <path class="st1" d="M1740.3,907.3v1.9c-.6,0-1.1.1-1.6.1-1.8,0-3.1-.5-4-1.4-.9-.9-1.3-2.2-1.3-3.8v-7.7h-2.8v-1.9h2.8v-4.4h2.4v4.4h4.1v1.9h-4.1v7.5c0,2.3,1.1,3.5,3.2,3.5s.9,0,1.3,0Z"/>
          <path class="st1" d="M1745.4,888.2v2.7h-2.9v-2.7h2.9ZM1742.7,894.5h2.4v14.6h-2.4v-14.6Z"/>
          <path class="st1" d="M1762.3,899.9v9.2h-2.4v-9c0-1.4-.3-2.3-.8-3-.5-.6-1.4-.9-2.5-.9s-2.4.4-3.2,1.2c-.8.8-1.2,1.9-1.2,3.3v8.4h-2.4v-14.6h2.4v2.4c.5-.9,1.1-1.6,2-2.1.9-.5,1.8-.7,2.9-.7,3.5,0,5.2,1.9,5.2,5.8Z"/>
          <path class="st1" d="M1779.8,894.5v13.6c0,2.2-.6,3.8-1.7,4.9-1.1,1.1-2.8,1.7-5,1.7s-4.7-.7-6.5-2l.8-1.8c1,.6,1.9,1.1,2.8,1.4.9.3,1.8.4,2.9.4s2.5-.4,3.2-1.1c.7-.8,1.1-1.8,1.1-3.3v-2.6c-.4.9-1.1,1.7-1.9,2.2-.9.5-1.9.8-3.1.8s-2.4-.3-3.4-.9c-1-.6-1.8-1.5-2.3-2.6-.6-1.1-.8-2.4-.8-3.8s.3-2.7.8-3.8c.5-1.1,1.3-2,2.3-2.6,1-.6,2.1-.9,3.4-.9s2.2.2,3,.8c.9.5,1.5,1.2,2,2.1v-2.5h2.4ZM1776.2,905.2c.8-.9,1.2-2.2,1.2-3.9s-.4-2.9-1.2-3.8-1.9-1.4-3.3-1.4-2.5.5-3.3,1.4c-.8.9-1.2,2.2-1.2,3.8s.4,2.9,1.2,3.9c.8.9,1.9,1.4,3.3,1.4s2.5-.5,3.3-1.4Z"/>
        </g>
      </g>
    </g>
  </g>
</svg>