<?xml version="1.0" encoding="UTF-8"?>
<svg id="Layer_12" xmlns="http://www.w3.org/2000/svg" xmlns:xlink="http://www.w3.org/1999/xlink" version="1.1" viewBox="0 0 500 520">
  <!-- Generator: Adobe Illustrator 30.5.1, SVG Export Plug-In . SVG Version: 2.1.4 Build 3)  -->
  <defs>
    <style>
      .st0 {
        fill: #bed675;
      }

      .st1 {
        fill: #cee098;
      }

      .st2 {
        fill: url(#linear-gradient2);
      }

      .st3 {
        fill: url(#linear-gradient1);
      }

      .st4 {
        fill: url(#linear-gradient9);
      }

      .st5 {
        fill: url(#linear-gradient3);
      }

      .st6 {
        fill: url(#linear-gradient6);
      }

      .st7 {
        fill: url(#linear-gradient8);
      }

      .st8 {
        fill: url(#linear-gradient7);
      }

      .st9 {
        fill: url(#linear-gradient5);
      }

      .st10 {
        fill: url(#linear-gradient4);
      }

      .st11 {
        fill: url(#linear-gradient12);
      }

      .st12 {
        fill: url(#linear-gradient11);
      }

      .st13 {
        fill: url(#linear-gradient10);
      }

      .st14 {
        fill: #ebf2d4;
      }

      .st15 {
        stroke-width: .6px;
      }

      .st15, .st16, .st17 {
        fill: #fff;
      }

      .st15, .st18, .st19, .st20 {
        stroke-linejoin: round;
      }

      .st15, .st18, .st21, .st22, .st23 {
        stroke: #fff;
      }

      .st15, .st18, .st20 {
        stroke-linecap: round;
      }

      .st24 {
        fill: #afd3d0;
      }

      .st25 {
        fill: url(#linear-gradient);
      }

      .st16 {
        opacity: .6;
      }

      .st26, .st19 {
        fill: #00544f;
      }

      .st18, .st21, .st20, .st22, .st23 {
        fill: none;
      }

      .st18, .st20 {
        stroke-width: .9px;
      }

      .st19 {
        stroke: #00544f;
        stroke-width: .7px;
      }

      .st21 {
        stroke-width: .5px;
      }

      .st21, .st22, .st23 {
        stroke-miterlimit: 10;
      }

      .st20 {
        stroke: #cee098;
      }

      .st27 {
        fill: #338a86;
      }

      .st22 {
        stroke-width: 1px;
      }

      .st28 {
        fill: #00524f;
      }

      .st29 {
        fill: #aecc53;
      }

      .st30 {
        opacity: .8;
      }

      .st31 {
        fill: #006d68;
      }

      .st32 {
        fill: #003834;
      }

      .st23 {
        stroke-width: 2px;
      }
    </style>
    <linearGradient id="linear-gradient" x1="320.3" y1="284.6" x2="423.5" y2="98.5" gradientUnits="userSpaceOnUse">
      <stop offset=".2" stop-color="#6fafac"/>
      <stop offset=".6" stop-color="#cfe4da"/>
      <stop offset=".8" stop-color="#f7faee"/>
    </linearGradient>
    <linearGradient id="linear-gradient1" x1="-12362.6" y1="270.3" x2="-12362.6" y2="28.6" gradientTransform="translate(12493.8846)" gradientUnits="userSpaceOnUse">
      <stop offset="0" stop-color="#cee098"/>
      <stop offset=".6" stop-color="#eaf2d4"/>
      <stop offset="1" stop-color="#fff"/>
    </linearGradient>
    <linearGradient id="linear-gradient2" x1="-16221.6" y1="266" x2="-16221.6" y2="24.3" gradientTransform="translate(-15846.5441) scale(-1 1)" gradientUnits="userSpaceOnUse">
      <stop offset="0" stop-color="#fff"/>
      <stop offset=".1" stop-color="#fafcfc"/>
      <stop offset=".3" stop-color="#ebf4f3"/>
      <stop offset=".5" stop-color="#d3e7e6"/>
      <stop offset=".7" stop-color="#b2d4d2"/>
      <stop offset=".9" stop-color="#88bdba"/>
      <stop offset="1" stop-color="#6fafac"/>
    </linearGradient>
    <linearGradient id="linear-gradient3" x1="250.4" y1="337.5" x2="250.4" y2="279.9" gradientUnits="userSpaceOnUse">
      <stop offset="0" stop-color="#338a86"/>
      <stop offset="0" stop-color="#3f9084"/>
      <stop offset=".3" stop-color="#75ae7d"/>
      <stop offset=".5" stop-color="#9cc379"/>
      <stop offset=".6" stop-color="#b5d176"/>
      <stop offset=".7" stop-color="#bed675"/>
    </linearGradient>
    <linearGradient id="linear-gradient4" x1="365.9" y1="270.3" x2="365.9" y2="132.4" gradientUnits="userSpaceOnUse">
      <stop offset="0" stop-color="#338a86"/>
      <stop offset=".3" stop-color="#6aa88c"/>
      <stop offset=".6" stop-color="#a0c692"/>
      <stop offset=".9" stop-color="#c1d996"/>
      <stop offset="1" stop-color="#cee098"/>
    </linearGradient>
    <linearGradient id="linear-gradient5" x1="365.9" y1="230.1" x2="365.9" y2="172.5" gradientUnits="userSpaceOnUse">
      <stop offset="0" stop-color="#006d68"/>
      <stop offset="1" stop-color="#003834"/>
    </linearGradient>
    <linearGradient id="linear-gradient6" x1="149.6" y1="237.8" x2="149.6" y2="139.3" gradientUnits="userSpaceOnUse">
      <stop offset="0" stop-color="#338a86"/>
      <stop offset=".1" stop-color="#4e9989"/>
      <stop offset=".4" stop-color="#85b78f"/>
      <stop offset=".7" stop-color="#accd94"/>
      <stop offset=".9" stop-color="#c5db96"/>
      <stop offset="1" stop-color="#cee098"/>
    </linearGradient>
    <linearGradient id="linear-gradient7" x1="-3465.5" y1="439.4" x2="-3465.5" y2="302" gradientTransform="translate(-3317.428) scale(-1 1)" gradientUnits="userSpaceOnUse">
      <stop offset="0" stop-color="#006d68"/>
      <stop offset=".2" stop-color="#137874"/>
      <stop offset=".7" stop-color="#479793"/>
      <stop offset="1" stop-color="#6fafac"/>
    </linearGradient>
    <linearGradient id="linear-gradient8" x1="-3480.8" y1="378.4" x2="-3435.3" y2="378.4" gradientTransform="translate(-3317.428) scale(-1 1)" gradientUnits="userSpaceOnUse">
      <stop offset="0" stop-color="#6baca9"/>
      <stop offset="1" stop-color="#afd3d0"/>
    </linearGradient>
    <linearGradient id="linear-gradient9" x1="-3480.8" y1="359.1" x2="-3435.3" y2="359.1" xlink:href="#linear-gradient8"/>
    <linearGradient id="linear-gradient10" x1="-3480.8" y1="397.7" x2="-3435.3" y2="397.7" xlink:href="#linear-gradient8"/>
    <linearGradient id="linear-gradient11" x1="303.8" y1="474" x2="303.8" y2="371.9" gradientUnits="userSpaceOnUse">
      <stop offset="0" stop-color="#338a86"/>
      <stop offset=".1" stop-color="#3a8e86"/>
      <stop offset=".3" stop-color="#509a89"/>
      <stop offset=".5" stop-color="#74ae8d"/>
      <stop offset=".8" stop-color="#a5c993"/>
      <stop offset="1" stop-color="#cee098"/>
    </linearGradient>
    <linearGradient id="linear-gradient12" x1="233.8" y1="509.8" x2="233.8" y2="373.2" xlink:href="#linear-gradient11"/>
  </defs>
  <polygon class="st1" points="250.9 241.3 7.9 379.3 250.9 516.3 492.9 380.3 250.9 241.3"/>
  <polygon class="st25" points="492.9 380.3 250.9 241.3 250.9 2.8 492.9 143.3 492.9 380.3"/>
  <g>
    <g>
      <line class="st22" x1="250.3" y1="517.2" x2="492.9" y2="379.9"/>
      <line class="st22" x1="215.6" y1="497.5" x2="458.2" y2="360.1"/>
      <line class="st22" x1="181" y1="477.7" x2="423.6" y2="340.4"/>
      <line class="st22" x1="146.3" y1="458" x2="388.9" y2="320.7"/>
      <line class="st22" x1="111.6" y1="438.3" x2="354.2" y2="300.9"/>
      <line class="st22" x1="76.9" y1="418.5" x2="319.5" y2="281.2"/>
      <line class="st22" x1="42.3" y1="398.8" x2="284.9" y2="261.5"/>
      <line class="st22" x1="7.6" y1="379.1" x2="250.2" y2="241.7"/>
    </g>
    <g>
      <line class="st22" x1="7.1" y1="379.2" x2="251" y2="516.6"/>
      <line class="st22" x1="41.7" y1="359.6" x2="285.4" y2="496.9"/>
      <line class="st22" x1="76.4" y1="340" x2="319.9" y2="477.3"/>
      <line class="st22" x1="111.1" y1="320.4" x2="354.4" y2="457.7"/>
      <line class="st22" x1="145.7" y1="300.7" x2="388.9" y2="438.1"/>
      <line class="st22" x1="180.4" y1="281.1" x2="423.3" y2="418.5"/>
      <line class="st22" x1="215" y1="261.5" x2="457.8" y2="398.8"/>
      <line class="st22" x1="249.7" y1="241.9" x2="492.3" y2="379.2"/>
    </g>
  </g>
  <g>
    <g>
      <line class="st18" x1="492.9" y1="141.6" x2="492.9" y2="379.1"/>
      <path class="st17" d="M491,141.7c0-1.1.9-1.9,1.9-1.9s1.9.9,1.9,1.9-.9,1.9-1.9,1.9-1.9-.9-1.9-1.9Z"/>
    </g>
    <g>
      <line class="st18" x1="482.2" y1="135.6" x2="482.2" y2="373"/>
      <path class="st17" d="M480.3,135.7c0-1.1.9-1.9,1.9-1.9s1.9.9,1.9,1.9-.9,1.9-1.9,1.9-1.9-.9-1.9-1.9Z"/>
    </g>
    <g>
      <line class="st18" x1="471.5" y1="129.5" x2="471.5" y2="366.9"/>
      <path class="st17" d="M469.5,129.6c0-1.1.9-1.9,1.9-1.9s1.9.9,1.9,1.9-.9,1.9-1.9,1.9-1.9-.9-1.9-1.9Z"/>
    </g>
    <g>
      <line class="st18" x1="460.8" y1="123.4" x2="460.8" y2="360.8"/>
      <path class="st17" d="M458.8,123.5c0-1.1.9-1.9,1.9-1.9s1.9.9,1.9,1.9-.9,1.9-1.9,1.9-1.9-.9-1.9-1.9Z"/>
    </g>
    <g>
      <line class="st18" x1="450" y1="117.3" x2="450" y2="354.8"/>
      <path class="st17" d="M448.1,117.4c0-1.1.9-1.9,1.9-1.9s1.9.9,1.9,1.9-.9,1.9-1.9,1.9-1.9-.9-1.9-1.9Z"/>
    </g>
    <g>
      <line class="st18" x1="439.3" y1="111.3" x2="439.3" y2="348.7"/>
      <path class="st17" d="M437.4,111.4c0-1.1.9-1.9,1.9-1.9s1.9.9,1.9,1.9-.9,1.9-1.9,1.9-1.9-.9-1.9-1.9Z"/>
    </g>
    <g>
      <line class="st18" x1="428.6" y1="105.2" x2="428.6" y2="342.6"/>
      <path class="st17" d="M426.7,105.3c0-1.1.9-1.9,1.9-1.9s1.9.9,1.9,1.9-.9,1.9-1.9,1.9-1.9-.9-1.9-1.9Z"/>
    </g>
    <g>
      <line class="st18" x1="417.9" y1="99.1" x2="417.9" y2="336.5"/>
      <path class="st17" d="M416,99.2c0-1.1.9-1.9,1.9-1.9s1.9.9,1.9,1.9-.9,1.9-1.9,1.9-1.9-.9-1.9-1.9Z"/>
    </g>
    <g>
      <line class="st18" x1="407.2" y1="93" x2="407.2" y2="330.5"/>
      <path class="st17" d="M405.2,93.1c0-1.1.9-1.9,1.9-1.9s1.9.9,1.9,1.9-.9,1.9-1.9,1.9-1.9-.9-1.9-1.9Z"/>
    </g>
    <g>
      <line class="st18" x1="396.4" y1="86.9" x2="396.4" y2="324.4"/>
      <path class="st17" d="M394.5,87c0-1.1.9-1.9,1.9-1.9s1.9.9,1.9,1.9-.9,1.9-1.9,1.9-1.9-.9-1.9-1.9Z"/>
    </g>
    <g>
      <line class="st18" x1="385.7" y1="80.9" x2="385.7" y2="318.3"/>
      <circle class="st17" cx="385.7" cy="81" r="1.9"/>
    </g>
    <g>
      <line class="st18" x1="375" y1="74.8" x2="375" y2="312.2"/>
      <path class="st17" d="M373.1,74.9c0-1.1.9-1.9,1.9-1.9s1.9.9,1.9,1.9-.9,1.9-1.9,1.9-1.9-.9-1.9-1.9Z"/>
    </g>
    <g>
      <line class="st18" x1="364.3" y1="68.7" x2="364.3" y2="306.1"/>
      <path class="st17" d="M362.4,68.8c0-1.1.9-1.9,1.9-1.9s1.9.9,1.9,1.9-.9,1.9-1.9,1.9-1.9-.9-1.9-1.9Z"/>
    </g>
    <g>
      <line class="st18" x1="353.6" y1="62.6" x2="353.6" y2="300.1"/>
      <path class="st17" d="M351.6,62.7c0-1.1.9-1.9,1.9-1.9s1.9.9,1.9,1.9-.9,1.9-1.9,1.9-1.9-.9-1.9-1.9Z"/>
    </g>
    <g>
      <line class="st18" x1="342.9" y1="56.6" x2="342.9" y2="294"/>
      <path class="st17" d="M340.9,56.6c0-1.1.9-1.9,1.9-1.9s1.9.9,1.9,1.9-.9,1.9-1.9,1.9-1.9-.9-1.9-1.9Z"/>
    </g>
    <g>
      <line class="st18" x1="332.1" y1="50.5" x2="332.1" y2="287.9"/>
      <path class="st17" d="M330.2,50.6c0-1.1.9-1.9,1.9-1.9s1.9.9,1.9,1.9-.9,1.9-1.9,1.9-1.9-.9-1.9-1.9Z"/>
    </g>
    <g>
      <line class="st18" x1="321.4" y1="44.4" x2="321.4" y2="281.8"/>
      <path class="st17" d="M319.5,44.5c0-1.1.9-1.9,1.9-1.9s1.9.9,1.9,1.9-.9,1.9-1.9,1.9-1.9-.9-1.9-1.9Z"/>
    </g>
    <g>
      <line class="st18" x1="310.7" y1="38.3" x2="310.7" y2="275.8"/>
      <path class="st17" d="M308.8,38.4c0-1.1.9-1.9,1.9-1.9s1.9.9,1.9,1.9-.9,1.9-1.9,1.9-1.9-.9-1.9-1.9Z"/>
    </g>
    <g>
      <line class="st18" x1="300" y1="32.2" x2="300" y2="269.7"/>
      <path class="st17" d="M298.1,32.3c0-1.1.9-1.9,1.9-1.9s1.9.9,1.9,1.9-.9,1.9-1.9,1.9-1.9-.9-1.9-1.9Z"/>
    </g>
    <g>
      <line class="st18" x1="289.3" y1="26.2" x2="289.3" y2="263.6"/>
      <path class="st17" d="M287.3,26.3c0-1.1.9-1.9,1.9-1.9s1.9.9,1.9,1.9-.9,1.9-1.9,1.9-1.9-.9-1.9-1.9Z"/>
    </g>
    <g>
      <line class="st18" x1="278.6" y1="20.1" x2="278.6" y2="257.5"/>
      <path class="st17" d="M276.6,20.2c0-1.1.9-1.9,1.9-1.9s1.9.9,1.9,1.9-.9,1.9-1.9,1.9-1.9-.9-1.9-1.9Z"/>
    </g>
    <g>
      <line class="st18" x1="267.8" y1="14" x2="267.8" y2="251.4"/>
      <path class="st17" d="M265.9,14.1c0-1.1.9-1.9,1.9-1.9s1.9.9,1.9,1.9-.9,1.9-1.9,1.9-1.9-.9-1.9-1.9Z"/>
    </g>
    <g>
      <line class="st18" x1="257.1" y1="7.9" x2="257.1" y2="245.4"/>
      <path class="st17" d="M255.2,8c0-1.1.9-1.9,1.9-1.9s1.9.9,1.9,1.9-.9,1.9-1.9,1.9-1.9-.9-1.9-1.9Z"/>
    </g>
  </g>
  <g>
    <g>
      <line class="st20" x1="9.3" y1="139.6" x2="9.3" y2="377.1"/>
      <path class="st1" d="M7.4,139.7c0-1.1.9-1.9,1.9-1.9s1.9.9,1.9,1.9-.9,1.9-1.9,1.9-1.9-.9-1.9-1.9Z"/>
    </g>
    <g>
      <line class="st20" x1="20" y1="133.6" x2="20" y2="371"/>
      <path class="st1" d="M18.1,133.7c0-1.1.9-1.9,1.9-1.9s1.9.9,1.9,1.9-.9,1.9-1.9,1.9-1.9-.9-1.9-1.9Z"/>
    </g>
    <g>
      <line class="st20" x1="30.7" y1="127.5" x2="30.7" y2="364.9"/>
      <path class="st1" d="M28.8,127.6c0-1.1.9-1.9,1.9-1.9s1.9.9,1.9,1.9-.9,1.9-1.9,1.9-1.9-.9-1.9-1.9Z"/>
    </g>
    <g>
      <line class="st20" x1="41.4" y1="121.4" x2="41.4" y2="358.8"/>
      <path class="st1" d="M39.5,121.5c0-1.1.9-1.9,1.9-1.9s1.9.9,1.9,1.9-.9,1.9-1.9,1.9-1.9-.9-1.9-1.9Z"/>
    </g>
    <g>
      <line class="st20" x1="52.2" y1="115.3" x2="52.2" y2="352.8"/>
      <path class="st1" d="M50.2,115.4c0-1.1.9-1.9,1.9-1.9s1.9.9,1.9,1.9-.9,1.9-1.9,1.9-1.9-.9-1.9-1.9Z"/>
    </g>
    <g>
      <line class="st20" x1="62.9" y1="109.3" x2="62.9" y2="346.7"/>
      <path class="st1" d="M60.9,109.4c0-1.1.9-1.9,1.9-1.9s1.9.9,1.9,1.9-.9,1.9-1.9,1.9-1.9-.9-1.9-1.9Z"/>
    </g>
    <g>
      <line class="st20" x1="73.6" y1="103.2" x2="73.6" y2="340.6"/>
      <path class="st1" d="M71.7,103.3c0-1.1.9-1.9,1.9-1.9s1.9.9,1.9,1.9-.9,1.9-1.9,1.9-1.9-.9-1.9-1.9Z"/>
    </g>
    <g>
      <line class="st20" x1="84.3" y1="97.1" x2="84.3" y2="334.5"/>
      <path class="st1" d="M82.4,97.2c0-1.1.9-1.9,1.9-1.9s1.9.9,1.9,1.9-.9,1.9-1.9,1.9-1.9-.9-1.9-1.9Z"/>
    </g>
    <g>
      <line class="st20" x1="95" y1="91" x2="95" y2="328.5"/>
      <path class="st1" d="M93.1,91.1c0-1.1.9-1.9,1.9-1.9s1.9.9,1.9,1.9-.9,1.9-1.9,1.9-1.9-.9-1.9-1.9Z"/>
    </g>
    <g>
      <line class="st20" x1="105.7" y1="84.9" x2="105.7" y2="322.4"/>
      <path class="st1" d="M103.8,85c0-1.1.9-1.9,1.9-1.9s1.9.9,1.9,1.9-.9,1.9-1.9,1.9-1.9-.9-1.9-1.9Z"/>
    </g>
    <g>
      <line class="st20" x1="116.5" y1="78.9" x2="116.5" y2="316.3"/>
      <path class="st1" d="M114.5,79c0-1.1.9-1.9,1.9-1.9s1.9.9,1.9,1.9-.9,1.9-1.9,1.9-1.9-.9-1.9-1.9Z"/>
    </g>
    <g>
      <line class="st20" x1="127.2" y1="72.8" x2="127.2" y2="310.2"/>
      <path class="st1" d="M125.2,72.9c0-1.1.9-1.9,1.9-1.9s1.9.9,1.9,1.9-.9,1.9-1.9,1.9-1.9-.9-1.9-1.9Z"/>
    </g>
    <g>
      <line class="st20" x1="137.9" y1="66.7" x2="137.9" y2="304.1"/>
      <path class="st1" d="M136,66.8c0-1.1.9-1.9,1.9-1.9s1.9.9,1.9,1.9-.9,1.9-1.9,1.9-1.9-.9-1.9-1.9Z"/>
    </g>
    <g>
      <line class="st20" x1="148.6" y1="60.6" x2="148.6" y2="298.1"/>
      <path class="st1" d="M146.7,60.7c0-1.1.9-1.9,1.9-1.9s1.9.9,1.9,1.9-.9,1.9-1.9,1.9-1.9-.9-1.9-1.9Z"/>
    </g>
    <g>
      <line class="st20" x1="159.3" y1="54.6" x2="159.3" y2="292"/>
      <path class="st1" d="M157.4,54.6c0-1.1.9-1.9,1.9-1.9s1.9.9,1.9,1.9-.9,1.9-1.9,1.9-1.9-.9-1.9-1.9Z"/>
    </g>
    <g>
      <line class="st20" x1="170.1" y1="48.5" x2="170.1" y2="285.9"/>
      <path class="st1" d="M168.1,48.6c0-1.1.9-1.9,1.9-1.9s1.9.9,1.9,1.9-.9,1.9-1.9,1.9-1.9-.9-1.9-1.9Z"/>
    </g>
    <g>
      <line class="st20" x1="180.8" y1="42.4" x2="180.8" y2="279.8"/>
      <path class="st1" d="M178.8,42.5c0-1.1.9-1.9,1.9-1.9s1.9.9,1.9,1.9-.9,1.9-1.9,1.9-1.9-.9-1.9-1.9Z"/>
    </g>
    <g>
      <line class="st20" x1="191.5" y1="36.3" x2="191.5" y2="273.8"/>
      <path class="st1" d="M189.6,36.4c0-1.1.9-1.9,1.9-1.9s1.9.9,1.9,1.9-.9,1.9-1.9,1.9-1.9-.9-1.9-1.9Z"/>
    </g>
    <g>
      <line class="st20" x1="202.2" y1="30.2" x2="202.2" y2="267.7"/>
      <path class="st1" d="M200.3,30.3c0-1.1.9-1.9,1.9-1.9s1.9.9,1.9,1.9-.9,1.9-1.9,1.9-1.9-.9-1.9-1.9Z"/>
    </g>
    <g>
      <line class="st20" x1="212.9" y1="24.2" x2="212.9" y2="261.6"/>
      <path class="st1" d="M211,24.3c0-1.1.9-1.9,1.9-1.9s1.9.9,1.9,1.9-.9,1.9-1.9,1.9-1.9-.9-1.9-1.9Z"/>
    </g>
    <g>
      <line class="st20" x1="223.6" y1="18.1" x2="223.6" y2="255.5"/>
      <path class="st1" d="M221.7,18.2c0-1.1.9-1.9,1.9-1.9s1.9.9,1.9,1.9-.9,1.9-1.9,1.9-1.9-.9-1.9-1.9Z"/>
    </g>
    <g>
      <line class="st20" x1="234.4" y1="12" x2="234.4" y2="249.4"/>
      <path class="st1" d="M232.4,12.1c0-1.1.9-1.9,1.9-1.9s1.9.9,1.9,1.9-.9,1.9-1.9,1.9-1.9-.9-1.9-1.9Z"/>
    </g>
    <g>
      <line class="st20" x1="245.1" y1="5.9" x2="245.1" y2="243.4"/>
      <path class="st1" d="M243.1,6c0-1.1.9-1.9,1.9-1.9s1.9.9,1.9,1.9-.9,1.9-1.9,1.9-1.9-.9-1.9-1.9Z"/>
    </g>
  </g>
  <g>
    <g>
      <path class="st3" d="M213.9,83.8v146c0,3.3-1.9,6.4-4.8,8.1l-152.8,87c-3.3,1.9-7.5-.5-7.5-4.3v-143.3c0,0,165.1-93.4,165.1-93.4Z"/>
      <path class="st16" d="M65.9,188.3v107l136-77v-17l-40.2-15.1c-4.9-1.8-10.4-1.5-15.1,1l-28.2,15.1c-4.8,2.5-10.4,2.9-15.4.9l-37.1-14.8Z"/>
      <g class="st30">
        <path class="st21" d="M209.1,237.9l-152.8,87c-3.3,1.9-7.5-.5-7.5-4.3v-143.3"/>
      </g>
      <path class="st31" d="M213.9,83.8v-8.9c0-5.1-5.6-8.3-10-5.8L55.3,153.7c-4,2.3-6.5,6.6-6.6,11.2v12.4c0,0,165.1-93.4,165.1-93.4Z"/>
      <path class="st17" d="M188.1,88.3c-.6-1-.3-2.3.7-2.8h0c1-.6,2.3-.3,2.8.7h0c.6,1,.3,2.3-.7,2.8h0c-.3.2-.7.3-1.1.3h0c-.7,0-1.4-.4-1.8-1ZM195.2,84c-.6-1-.3-2.3.7-2.8h0c1-.6,2.3-.3,2.8.7h0c.6,1,.3,2.3-.7,2.8h0c-.3.2-.7.3-1.1.3h0c-.7,0-1.4-.4-1.8-1ZM202.4,79.8c-.6-1-.3-2.3.7-2.8h0c1-.6,2.3-.3,2.8.7h0c.6,1,.3,2.3-.7,2.8h0c-.3.2-.7.3-1.1.3h0c-.7,0-1.4-.4-1.8-1Z"/>
    </g>
    <line class="st21" x1="48.7" y1="177.2" x2="213.9" y2="83.8"/>
  </g>
  <g>
    <g>
      <path class="st2" d="M292.4,79.5v146c0,3.3,1.9,6.4,4.8,8.1l152.8,87c3.3,1.9,7.5-.5,7.5-4.3v-143.3c0,0-165.1-93.4-165.1-93.4Z"/>
      <g class="st30">
        <path class="st21" d="M297.2,233.6l152.8,87c3.3,1.9,7.5-.5,7.5-4.3v-143.3"/>
      </g>
      <path class="st31" d="M292.4,79.5v-8.9c0-5.1,5.6-8.3,10-5.8l148.5,84.5c4,2.3,6.5,6.6,6.6,11.2v12.4c0,0-165.1-93.4-165.1-93.4Z"/>
      <path class="st17" d="M448.4,160h0c-.4,0-.7,0-1.1-.3h0c-1-.6-1.3-1.9-.7-2.8h0c.6-1,1.9-1.3,2.8-.7h0c1,.6,1.3,1.9.7,2.8-.4.6-1.1,1-1.8,1ZM441.3,155.8h0c-.4,0-.7,0-1.1-.3h0c-1-.6-1.3-1.9-.7-2.8h0c.6-1,1.9-1.3,2.8-.7h0c1,.6,1.3,1.9.7,2.8-.4.6-1.1,1-1.8,1ZM434.2,151.5h0c-.4,0-.7,0-1.1-.3h0c-1-.6-1.3-1.9-.7-2.8h0c.6-1,1.9-1.3,2.8-.7h0c1,.6,1.3,1.9.7,2.8-.4.6-1.1,1-1.8,1Z"/>
    </g>
    <line class="st21" x1="457.6" y1="172.9" x2="292.4" y2="79.5"/>
  </g>
  <g>
    <g>
      <path class="st31" d="M198.9,323.6v29.9c0,15.4,23.1,27.8,51.5,27.8s51.5-12.4,51.5-27.8v-29.9h-103Z"/>
      <ellipse class="st32" cx="250.4" cy="325.7" rx="51.5" ry="27.8"/>
    </g>
    <g>
      <path class="st5" d="M198.9,279.9v29.9c0,15.4,23.1,27.8,51.5,27.8s51.5-12.4,51.5-27.8v-29.9h-103Z"/>
      <ellipse class="st32" cx="250.4" cy="281.9" rx="51.5" ry="27.8"/>
    </g>
    <g>
      <path class="st0" d="M198.9,236.1v29.9c0,15.4,23.1,27.8,51.5,27.8s51.5-12.4,51.5-27.8v-29.9h-103Z"/>
      <ellipse class="st31" cx="250.4" cy="238.2" rx="51.5" ry="27.8"/>
    </g>
    <g>
      <path class="st29" d="M224.3,221.3v15.1c0,7.8,11.7,14.1,26.1,14.1s26.1-6.3,26.1-14.1v-15.1h-52.1Z"/>
      <ellipse class="st26" cx="250.4" cy="222.4" rx="26.1" ry="14.1"/>
    </g>
  </g>
  <path class="st17" d="M399.5,221c4.7,2.7,7.1,4.1,11.8,6.9,1.4.8,2.5-.1,2.5-2.1s-1.1-4.2-2.5-5.1c-4.7-2.7-7.1-4.1-11.8-6.9v-11.7c4.7,2.7,7.1,4.1,11.8,6.9,1.4.8,2.5-.1,2.5-2.1s-1.1-4.2-2.5-5.1c-4.7-2.7-7.1-4.1-11.8-6.9v-1.5c0-9.3-5.3-20-11.9-23.9-.4-.2-.6-.4-1-.6v-16.7c0-2-1.1-4.2-2.5-5.1-.4-.2-.7-.3-1-.3h0s-5.1.8-5.1.8v14.6s3.6,2.4,3.6,3.8c-3.2-1.9-4.8-2.8-8-4.7v-16.7c0-2-1.1-4.2-2.5-5.1-.4-.2-.8-.3-1.1-.3h0s-5,1-5,1v16s3.6,1.4,3.6,2.2c-3.3-1.9-4.9-2.9-8.2-4.8v-16.7c0-2-1.1-4.2-2.5-5.1-.3-.2-.5-.2-.8-.3v-.3s-5,1-5,1v16s3.3,1.6,3.3,2.4c-.4-.2-.6-.4-1-.6-3.3-1.9-6.3-1.8-8.5,0-2.1,1.8-3.5,5.3-3.5,9.9v1.5c-4.7-2.7-7.1-4.1-11.8-6.9-.5-.3-1.1-.4-1.5-.2h0s-4,.7-4,.7v4.6s12.6,6.1,17.3,8.8v11.7c-4.7-2.7-7.1-4.1-11.8-6.9-.6-.3-1.1-.4-1.5-.2h0c0-.1-4,.9-4,.9v4.6s12.6,6,17.3,8.7v11.3c-4.7-2.7-7.1-4.1-11.8-6.9-.5-.3-1-.4-1.4-.2h0s-4.1.6-4.1.6v3.4s12.6,7.5,17.3,10.2v1.5c0,9.3,5.3,20,11.9,23.9.4.2.6.4,1,.6v16.7c0,2,1.1,4.2,2.5,5.1,1.4.8,2.5-.1,2.5-2.1v-16.7c3.3,1.9,4.9,2.9,8.2,4.8v16.7c0,2,1.1,4.2,2.5,5.1,1.4.8,2.5-.1,2.5-2.1v-16.7c3.2,1.9,4.8,2.8,8,4.7v16.7c0,2,1.1,4.2,2.5,5.1,1.4.8,2.5-.1,2.5-2.1v-16.7c.4.2.6.4,1,.6,6.6,3.8,11.9-.6,11.9-10v-1.5c4.7,2.7,7.1,4.1,11.8,6.9,1.4.8,2.5-.1,2.5-2.1s-1.1-4.2-2.5-5.1c-4.7-2.7-7.1-4.1-11.8-6.9v-11.3Z"/>
  <g>
    <path class="st10" d="M394.6,221.7c4.7,2.7,7.1,4.1,11.8,6.9,1.4.8,2.5-.1,2.5-2.1s-1.1-4.2-2.5-5.1c-4.7-2.7-7.1-4.1-11.8-6.9v-11.7c4.7,2.7,7.1,4.1,11.8,6.9,1.4.8,2.5-.1,2.5-2.1s-1.1-4.2-2.5-5.1c-4.7-2.7-7.1-4.1-11.8-6.9v-1.5c0-9.3-5.3-20-11.9-23.9-.4-.2-.6-.4-1-.6v-16.7c0-2-1.1-4.2-2.5-5.1-1.4-.8-2.5.1-2.5,2.1v16.7c-3.2-1.9-4.8-2.8-8-4.7v-16.7c0-2-1.1-4.2-2.5-5.1-1.4-.8-2.5.1-2.5,2.1v16.7c-3.3-1.9-4.9-2.9-8.2-4.8v-16.7c0-2-1.1-4.2-2.5-5.1-1.4-.8-2.5.1-2.5,2.1v16.7c-.4-.2-.6-.4-1-.6-3.3-1.9-6.3-1.8-8.5,0-2.1,1.8-3.5,5.3-3.5,9.9v1.5c-4.7-2.7-7.1-4.1-11.8-6.9-1.4-.8-2.5.1-2.5,2.1s1.1,4.2,2.5,5.1c4.7,2.7,7.1,4.1,11.8,6.9v11.7c-4.7-2.7-7.1-4.1-11.8-6.9-1.4-.8-2.5.1-2.5,2.1s1.1,4.2,2.5,5.1c4.7,2.7,7.1,4.1,11.8,6.9v11.3c-4.7-2.7-7.1-4.1-11.8-6.9-1.4-.8-2.5.1-2.5,2.1s1.1,4.2,2.5,5.1c4.7,2.7,7.1,4.1,11.8,6.9v1.5c0,9.3,5.3,20,11.9,23.9.4.2.6.4,1,.6v16.7c0,2,1.1,4.2,2.5,5.1,1.4.8,2.5-.1,2.5-2.1v-16.7c3.3,1.9,4.9,2.9,8.2,4.8v16.7c0,2,1.1,4.2,2.5,5.1,1.4.8,2.5-.1,2.5-2.1v-16.7c3.2,1.9,4.8,2.8,8,4.7v16.7c0,2,1.1,4.2,2.5,5.1,1.4.8,2.5-.1,2.5-2.1v-16.7c.4.2.6.4,1,.6,6.6,3.8,11.9-.6,11.9-10v-1.5c4.7,2.7,7.1,4.1,11.8,6.9,1.4.8,2.5-.1,2.5-2.1s-1.1-4.2-2.5-5.1c-4.7-2.7-7.1-4.1-11.8-6.9v-11.3Z"/>
    <path class="st9" d="M383.5,226v-28.8c-5.9-8.2-11.7-16.4-17.6-24.6-7,1.7-10.6,2.5-17.6,4.2v28.8c5.9,8.2,11.7,16.4,17.6,24.6,7-1.7,10.6-2.5,17.6-4.2Z"/>
  </g>
  <g>
    <g>
      <path class="st23" d="M65.9,188.3l37.1,14.8c5,2,10.7,1.7,15.4-.9l28.2-15.1c4.6-2.5,10.1-2.8,15.1-1l33.5,12.6"/>
      <polygon class="st17" points="192.1 202.9 201.9 201.3 195.6 193.6 192.1 202.9"/>
    </g>
    <polyline class="st23" points="201.9 201.3 201.9 218.3 65.9 295.3 65.9 188.3"/>
  </g>
  <g>
    <path class="st6" d="M172.9,183.4l-37.4,64.8c-.1.2-.2.2-.3.3,0-.3.1-.4.2-.6l19.8-48s-28.9,12.8-29,12.7l14.4-62.5c.2,0,19.6,4.4,19.6,4.4l-10.3,27.3h0c0,0,.2,0,.2,0,0,0,0,0,0,.1,0,0,12.8-3,13-2.9,0,0,9.5,4.5,9.7,4.5Z"/>
    <path class="st17" d="M155.2,199.9l-7.9,19.1-11.9,28.9c-.1.3-.3.4-.2.6,0,0-.2.1-.4,0l-4.7-2.7-4.3-2.4c-.2-.1-.3-.3-.2-.6l14.9-36.3c.1,0,.2-.2.3-.3l6.2-2.8,8.2-3.7Z"/>
    <path class="st17" d="M130.9,145s9.7,5.1,9.7,5.1l-14.4,62.5c0,.1-.1.2,0,.4l-2.5-1.4-6.8-3.7c-.3-.1-.4-.3-.3-.6"/>
    <polygon class="st17" points="149.8 149.1 160.2 154.5 140.6 150.1 130.9 145 149.8 149.1"/>
    <polygon class="st17" points="146.8 190.2 150.1 181.8 163.3 178.4 172.9 183.4 146.8 190.2"/>
  </g>
  <g>
    <path class="st8" d="M163.6,328.6s-31.5-17.7-47.3-26.6c0,33.9,0,67.7,0,101.6,21.2,11.9,42.4,23.8,63.6,35.8,0-26.9,0-101.2,0-101.2l-16.3-9.6Z"/>
    <g>
      <g>
        <path class="st17" d="M155.2,331.2c-15.8-8.9-31.5-17.7-47.3-26.6,0,33.9,0,67.7,0,101.6,21.2,11.9,42.4,23.8,63.6,35.8,0-26.9,0-53.8,0-80.7-5.4-10-10.9-20-16.3-30Z"/>
        <path class="st19" d="M155.2,352.1c5.2,2.9,10.5,5.9,15.7,8.8-5.1-9.4-10.3-18.8-15.4-28.1,0,6.4-.2,12.9-.3,19.3Z"/>
      </g>
      <g>
        <path class="st7" d="M163.4,394.6c-15.2-8.5-30.3-17.1-45.5-25.6,0-2.8,0-4.1,0-6.9,15.2,8.5,30.3,17.1,45.5,25.6,0,2.8,0,4.1,0,6.9Z"/>
        <path class="st4" d="M163.4,375.3c-15.2-8.5-30.3-17.1-45.5-25.6,0-2.8,0-4.1,0-6.9,15.2,8.5,30.3,17.1,45.5,25.6v6.9Z"/>
        <path class="st13" d="M163.4,414c-15.2-8.5-30.3-17.1-45.5-25.6,0-2.8,0-4.1,0-6.9,15.2,8.5,30.3,17.1,45.5,25.6,0,2.8,0,4.1,0,6.9Z"/>
      </g>
    </g>
  </g>
  <g>
    <g>
      <g id="Generative_Object__x28_-75_x2C__30_x29_">
        <path class="st28" d="M311.5,316.7c-.3-.2-.6-.5-1-.7-1-.7-2.3-1.1-3.4-1.6-1.5-.8-3.1-1.7-4.1-3.2,0,0,0-.1,0-.2,0-.2.3-.2.6-.2,1.1.3,2.3.9,3.5.7.2,0,.5-.2.6-.4,0-.2-.1-.4-.3-.6-1-.8-1.8-1.7-2.7-2.6-.4-.4-1.2-.9-1.2-1.5s.2-.5.5-.5c.7,0,1.5.9,2.1,1.3.5.3,2.8,2.4,3.4,1.5.5-.6-1.5-2.5-1.8-3-.2-.2-1.7-2.1-.4-2,.6,0,1.9,1.2,2.5,1.6,1.1.9,2,2,3.1,2.9.2.1.3.3.6.3,1,0,0-4.9,1.7-3.7.3.2.4.5.4.8.4,1.5.7,3,1.2,4.5.2.6.3,1.2.3,1.8s0,.6.2.9h0c.3.7.3,1.5,0,2.1-.8,1.3-2,2-2.8,2.5-.7.3-1.4.3-2.1,0-.3-.2-.5-.3-.7-.4Z"/>
        <path class="st17" d="M334.5,396.6c-3-1.2-6.5-4.5-6.4-8.1,0-.7.2-1.5.6-2.1.6-.8,1.7-.9,2.7-.9,2.9,0,5.6,1.1,8,2.8.9.7,2.7,1.8,3.1,2.9,1.8,5.5-4.4,6.7-8,5.3Z"/>
        <path class="st17" d="M358.8,386.8c-2.1-2.5-6.3-4.9-9.7-3.7-.7.2-1.4.6-1.8,1.2-.6.8-.4,1.9,0,2.8.9,2.7,2.8,5,5.1,6.8.9.7,2.6,2,3.7,2,5.8.1,5.1-6.2,2.6-9.2Z"/>
        <path class="st27" d="M361.2,323.4c.5,2.2,2.1,13.4,2.3,14.1l1.4,6.7h0c1.9-1.5,3.3-3.4,4.5-5.4,1.2-2.1,2.3-4.4,2.7-6.7.3-1.5.3-3,.3-4.6,0-1.5-.3-2.9-.9-4.2-1.2-3-2.5-5.8-4-8.3-1-1.8-2.3-3.4-3.9-4.8-1.2-1-2.5-1.8-4-2-1.2-.2-1.1.6-1.5.6l.2.3c.5,3.9,2.9,14.3,2.9,14.3Z"/>
        <path class="st32" d="M344.9,360.2c-.1-.5,0-1-.2-1.5,4,.4,8.1.2,11.9-1,2.4-.7,4.7-1.8,6.5-3.6l-1,19.7c-.2,3.4-.4,6.7-.6,10.1-.1,2-.2,4.1-.4,6.1-.2,2.6-2.6,4.6-5.2,4.7-.4,0-.8,0-1.2-.1-.7-.2-1.3-.8-1.8-1.4-1.4-2.1-1.8-4.6-2.4-7-.6-2.6-1.3-5.1-1.9-7.7-.7-2.8-3.5-16.7-3.8-18.3Z"/>
        <path class="st32" d="M350.1,359.7c.1-.5,0-1,.2-1.5-4,.4-8.1.2-11.9-1-2.4-.7-4.7-1.8-6.5-3.6l1,19.7c.2,3.4.4,6.7.6,10.1.1,2,.2,4.1.4,6.1.2,2.6,2.6,4.6,5.2,4.7.4,0,.8,0,1.2-.1.7-.2,1.3-.8,1.8-1.4,1.4-2.1,1.8-4.6,2.4-7,.6-2.6,1.3-5.1,1.9-7.7.7-2.8,3.5-16.7,3.8-18.3Z"/>
        <path class="st17" d="M332.6,316.9c.6-8.1,6.7-13.2,14.7-13.9,4.9-.4,9.9,3.6,12.3,7.6,0,0,2.5,5,4.5,21.2l.5,5.5c-.1.4,0,.8,0,1.2l.3,6.7c0,2,.3,3.9,0,6-.1,1.2-1,2.2-1.8,3-1.8,1.8-4.1,2.8-6.5,3.6-3.9,1.2-7.9,1.4-11.9,1s-8.9-1.9-12-4.7c-1.3-1.3-2.4-2.8-2.7-4.7.1-5.2.6-10.3.9-15.5.3-5.6,1.3-11.1,1.8-16.8Z"/>
        <path class="st27" d="M334.9,309c5,3.3,1.2,9.7-1.4,14.8-7.5,14.4-18.7,7-23.5-3.8-1.6-4.3,1.7-10.5,6.4-11.1,3.1,0,4.4,4.9,6.3,7.1,3.4,6.2,6.1-8.9,12.2-6.9Z"/>
      </g>
      <circle class="st28" cx="346.1" cy="295.5" r="11.2"/>
    </g>
    <path class="st14" d="M357.1,293.5c-.8-4.7-4.4-8.3-9.1-9.1-3.1-.5-6,.3-8.3,1.9.8.3,1.5.8,2.2,1.3,2,1.5,3.5,3.7,4.1,6.2.7-.4,1.4-.4,2.1-.1,1.2.6,1.5,2.5.6,4.3-.7,1.4-1.9,2.2-3,2.2-.2,5.7,6.2,5.1,7.4,4.1,3-2.4,4.8-6.4,4.1-10.7Z"/>
  </g>
  <g>
    <polygon class="st12" points="287.5 459 287.5 416.1 320 434.4 320 478 287.5 459"/>
    <polygon class="st31" points="320 434.4 353.6 416.1 353.6 459 320 478 320 434.4"/>
    <path class="st17" d="M330.1,458.4c0-4.7,0-7.1,0-11.8,3.3-4.2,4.7-6.1,7.5-9.9,2.7.9,4,1.4,7,2.2v11.8c-2.8,3.8-4.2,5.7-7.1,9.5-2.9-.8-4.3-1.2-7.4-1.9Z"/>
    <polygon class="st24" points="353.6 416.2 320.5 397.4 287.5 416.2 320 434.4 353.6 416.2"/>
    <line class="st15" x1="320" y1="434.4" x2="320" y2="478"/>
  </g>
  <g>
    <polygon class="st11" points="217.5 497 217.5 419.1 250 437.4 250 516 217.5 497"/>
    <polygon class="st31" points="250 437.4 283.6 419.1 283.6 497 250 516 250 437.4"/>
    <path class="st17" d="M260.1,477.4c0-4.7,0-7.1,0-11.8,3.3-4.2,4.7-6.1,7.5-9.9,2.7.9,4,1.4,7,2.2v11.8c-2.8,3.8-4.2,5.7-7.1,9.5-2.9-.8-4.3-1.2-7.4-1.9Z"/>
    <polygon class="st24" points="283.6 419.2 250.5 400.4 217.5 419.2 250 437.4 283.6 419.2"/>
    <line class="st15" x1="250" y1="437.4" x2="250" y2="516"/>
  </g>
</svg>