<?xml version="1.0" encoding="UTF-8"?>
<svg id="Layer_12" xmlns="http://www.w3.org/2000/svg" xmlns:xlink="http://www.w3.org/1999/xlink" version="1.1" viewBox="0 0 500 400">
  <!-- Generator: Adobe Illustrator 30.5.1, SVG Export Plug-In . SVG Version: 2.1.4 Build 3)  -->
  <defs>
    <style>
      .st0 {
        stroke: url(#linear-gradient5);
      }

      .st0, .st1, .st2, .st3, .st4, .st5, .st6, .st7, .st8, .st9, .st10, .st11, .st12, .st13, .st14, .st15, .st16, .st17, .st18, .st19, .st20, .st21, .st22, .st23, .st24, .st25, .st26, .st27 {
        stroke-miterlimit: 10;
      }

      .st0, .st1, .st2, .st22, .st23, .st24, .st25, .st26, .st27 {
        fill: none;
      }

      .st0, .st1, .st2, .st25, .st26, .st27 {
        stroke-width: 1.4px;
      }

      .st1 {
        stroke: url(#linear-gradient9);
      }

      .st2 {
        stroke: url(#linear-gradient7);
      }

      .st28 {
        fill: url(#linear-gradient2);
      }

      .st29 {
        fill: url(#linear-gradient1);
      }

      .st30 {
        fill: url(#linear-gradient3);
      }

      .st31 {
        fill: url(#linear-gradient6);
      }

      .st32 {
        fill: url(#linear-gradient8);
      }

      .st33 {
        fill: url(#linear-gradient4);
      }

      .st34 {
        fill: url(#linear-gradient46);
      }

      .st35 {
        fill: url(#linear-gradient48);
      }

      .st36 {
        fill: url(#linear-gradient47);
      }

      .st37 {
        fill: url(#linear-gradient45);
      }

      .st38 {
        fill: url(#linear-gradient49);
      }

      .st39 {
        fill: url(#linear-gradient13);
      }

      .st40 {
        fill: url(#linear-gradient16);
      }

      .st41 {
        fill: url(#linear-gradient11);
      }

      .st42 {
        fill: url(#linear-gradient10);
      }

      .st43 {
        fill: url(#linear-gradient17);
      }

      .st44 {
        fill: url(#linear-gradient14);
      }

      .st45 {
        fill: url(#linear-gradient19);
      }

      .st46 {
        fill: url(#linear-gradient23);
      }

      .st47 {
        fill: url(#linear-gradient22);
      }

      .st48 {
        fill: url(#linear-gradient24);
      }

      .st49 {
        fill: url(#linear-gradient25);
      }

      .st50 {
        fill: url(#linear-gradient21);
      }

      .st51 {
        fill: url(#linear-gradient20);
      }

      .st52 {
        fill: #b7d759;
      }

      .st53 {
        fill: url(#linear-gradient);
      }

      .st3 {
        fill: url(#linear-gradient36);
      }

      .st3, .st4, .st5, .st6, .st7, .st8, .st9, .st10, .st11, .st12, .st13, .st14, .st15, .st16, .st17, .st18, .st19, .st20, .st21 {
        stroke-width: .5px;
      }

      .st3, .st4, .st5, .st6, .st7, .st8, .st9, .st10, .st11, .st12, .st13, .st14, .st15, .st16, .st17, .st18, .st19, .st20, .st21, .st22, .st23, .st24 {
        stroke: #fff;
      }

      .st4 {
        fill: url(#linear-gradient33);
      }

      .st5 {
        fill: url(#linear-gradient35);
      }

      .st6 {
        fill: url(#linear-gradient31);
      }

      .st7 {
        fill: url(#linear-gradient39);
      }

      .st8 {
        fill: url(#linear-gradient34);
      }

      .st9 {
        fill: url(#linear-gradient37);
      }

      .st10 {
        fill: url(#linear-gradient30);
      }

      .st11 {
        fill: url(#linear-gradient32);
      }

      .st12 {
        fill: url(#linear-gradient38);
      }

      .st13 {
        fill: url(#linear-gradient44);
      }

      .st14 {
        fill: url(#linear-gradient43);
      }

      .st15 {
        fill: url(#linear-gradient41);
      }

      .st16 {
        fill: url(#linear-gradient40);
      }

      .st17 {
        fill: url(#linear-gradient42);
      }

      .st18 {
        fill: url(#linear-gradient29);
      }

      .st19 {
        fill: url(#linear-gradient28);
      }

      .st20 {
        fill: url(#linear-gradient27);
      }

      .st21 {
        fill: url(#linear-gradient26);
      }

      .st54 {
        fill: #acca53;
      }

      .st55 {
        fill: #bada58;
      }

      .st22 {
        stroke-width: .5px;
      }

      .st56 {
        fill: #fff;
      }

      .st23 {
        stroke-width: .5px;
      }

      .st57 {
        fill: #338a86;
      }

      .st58 {
        fill: #00524f;
      }

      .st24 {
        stroke-width: 1.3px;
      }

      .st59 {
        opacity: .9;
      }

      .st60 {
        opacity: .8;
      }

      .st61 {
        fill: #006d68;
      }

      .st25 {
        stroke: url(#linear-gradient15);
      }

      .st26 {
        stroke: url(#linear-gradient12);
      }

      .st27 {
        stroke: url(#linear-gradient18);
      }

      .st62 {
        fill: #003834;
      }
    </style>
    <linearGradient id="linear-gradient" x1="6.7" y1="251.9" x2="493.3" y2="251.9" gradientUnits="userSpaceOnUse">
      <stop offset="0" stop-color="#6fafac"/>
      <stop offset=".3" stop-color="#479793"/>
      <stop offset=".8" stop-color="#137874"/>
      <stop offset="1" stop-color="#006d68"/>
    </linearGradient>
    <linearGradient id="linear-gradient1" x1="55.8" y1="377.2" x2="415.7" y2="134.4" gradientUnits="userSpaceOnUse">
      <stop offset="0" stop-color="#cee098"/>
      <stop offset=".1" stop-color="#c5db96"/>
      <stop offset=".3" stop-color="#accd94"/>
      <stop offset=".6" stop-color="#85b78f"/>
      <stop offset=".9" stop-color="#4e9989"/>
      <stop offset="1" stop-color="#338a86"/>
    </linearGradient>
    <linearGradient id="linear-gradient2" x1="132.6" y1="218" x2="132.6" y2="31.2" gradientUnits="userSpaceOnUse">
      <stop offset="0" stop-color="#006d68"/>
      <stop offset=".2" stop-color="#137874"/>
      <stop offset=".7" stop-color="#479793"/>
      <stop offset="1" stop-color="#6fafac"/>
    </linearGradient>
    <linearGradient id="linear-gradient3" x1="145.3" y1="228.2" x2="145.3" y2="41.4" gradientUnits="userSpaceOnUse">
      <stop offset="0" stop-color="#00544f"/>
      <stop offset=".2" stop-color="#005954"/>
      <stop offset="1" stop-color="#006d68"/>
    </linearGradient>
    <linearGradient id="linear-gradient4" x1="161.6" y1="236.9" x2="161.6" y2="50.1" gradientUnits="userSpaceOnUse">
      <stop offset="0" stop-color="#00544f"/>
      <stop offset="0" stop-color="#004d48"/>
      <stop offset=".7" stop-color="#002623"/>
      <stop offset="1" stop-color="#001815"/>
    </linearGradient>
    <linearGradient id="linear-gradient5" x1="127.7" y1="244.8" x2="188.2" y2="244.8" gradientUnits="userSpaceOnUse">
      <stop offset="0" stop-color="#fff"/>
      <stop offset=".2" stop-color="#f0f5e0"/>
      <stop offset=".4" stop-color="#dde9b9"/>
      <stop offset=".6" stop-color="#d2e2a0"/>
      <stop offset=".7" stop-color="#cee098"/>
    </linearGradient>
    <linearGradient id="linear-gradient6" x1="127.7" y1="227.8" x2="188.2" y2="227.8" xlink:href="#linear-gradient5"/>
    <linearGradient id="linear-gradient7" x1="49.1" y1="313" x2="115.3" y2="313" xlink:href="#linear-gradient5"/>
    <linearGradient id="linear-gradient8" x1="49.1" y1="295" x2="115.3" y2="295" xlink:href="#linear-gradient5"/>
    <linearGradient id="linear-gradient9" x1="123.8" y1="276.6" x2="283.4" y2="276.6" gradientUnits="userSpaceOnUse">
      <stop offset=".3" stop-color="#cee098"/>
      <stop offset=".4" stop-color="#d2e2a0"/>
      <stop offset=".6" stop-color="#dde9b9"/>
      <stop offset=".8" stop-color="#f0f5e0"/>
      <stop offset="1" stop-color="#fff"/>
    </linearGradient>
    <linearGradient id="linear-gradient10" y1="246.4" x2="283.4" y2="246.4" xlink:href="#linear-gradient9"/>
    <linearGradient id="linear-gradient11" y1="282.2" x2="283.4" y2="282.2" xlink:href="#linear-gradient9"/>
    <linearGradient id="linear-gradient12" x1="83.4" y1="315.6" x2="324.4" y2="315.6" gradientUnits="userSpaceOnUse">
      <stop offset="0" stop-color="#fff"/>
      <stop offset=".7" stop-color="#d4e3a6"/>
      <stop offset="1" stop-color="#c3d882"/>
    </linearGradient>
    <linearGradient id="linear-gradient13" y1="273" x2="324.4" y2="273" xlink:href="#linear-gradient12"/>
    <linearGradient id="linear-gradient14" y1="313.3" x2="324.4" y2="313.3" xlink:href="#linear-gradient12"/>
    <linearGradient id="linear-gradient15" x1="21" y1="322.7" x2="192.5" y2="322.7" gradientUnits="userSpaceOnUse">
      <stop offset="0" stop-color="#fff"/>
      <stop offset=".2" stop-color="#f0f5e0"/>
      <stop offset=".4" stop-color="#dde9b9"/>
      <stop offset=".6" stop-color="#d2e2a0"/>
      <stop offset=".7" stop-color="#cee098"/>
    </linearGradient>
    <linearGradient id="linear-gradient16" y1="307.5" x2="192.5" y2="307.5" xlink:href="#linear-gradient15"/>
    <linearGradient id="linear-gradient17" y1="305" x2="192.5" y2="305" xlink:href="#linear-gradient15"/>
    <linearGradient id="linear-gradient18" x1="146.3" y1="261.9" x2="233.6" y2="261.9" xlink:href="#linear-gradient5"/>
    <linearGradient id="linear-gradient19" x1="146.3" y1="272.1" x2="233.6" y2="272.1" xlink:href="#linear-gradient5"/>
    <linearGradient id="linear-gradient20" x1="146.3" y1="259" x2="233.6" y2="259" xlink:href="#linear-gradient5"/>
    <linearGradient id="linear-gradient21" x1="92.9" y1="346.6" x2="92.9" y2="258.8" gradientUnits="userSpaceOnUse">
      <stop offset="0" stop-color="#338a86"/>
      <stop offset=".1" stop-color="#388d86"/>
      <stop offset=".3" stop-color="#489588"/>
      <stop offset=".5" stop-color="#62a48b"/>
      <stop offset=".8" stop-color="#86b78f"/>
      <stop offset="1" stop-color="#b2d095"/>
    </linearGradient>
    <linearGradient id="linear-gradient22" x1="79.5" y1="254" x2="153.1" y2="254" gradientUnits="userSpaceOnUse">
      <stop offset="0" stop-color="#338a86"/>
      <stop offset=".3" stop-color="#388d89"/>
      <stop offset=".6" stop-color="#489793"/>
      <stop offset="1" stop-color="#61a7a4"/>
      <stop offset="1" stop-color="#b2d095"/>
    </linearGradient>
    <linearGradient id="linear-gradient23" x1="133.8" y1="328.4" x2="133.8" y2="231.3" gradientUnits="userSpaceOnUse">
      <stop offset="0" stop-color="#fff"/>
      <stop offset=".2" stop-color="#fbfdfc"/>
      <stop offset=".4" stop-color="#f0f7f6"/>
      <stop offset=".5" stop-color="#deecec"/>
      <stop offset=".7" stop-color="#c5dedd"/>
      <stop offset=".8" stop-color="#a4ccca"/>
      <stop offset="1" stop-color="#7cb6b3"/>
      <stop offset="1" stop-color="#6fafac"/>
    </linearGradient>
    <linearGradient id="linear-gradient24" x1="121.9" y1="287.1" x2="141.7" y2="287.1" gradientUnits="userSpaceOnUse">
      <stop offset=".3" stop-color="#338a86"/>
      <stop offset=".4" stop-color="#3a8d86"/>
      <stop offset=".7" stop-color="#4d9889"/>
      <stop offset=".9" stop-color="#6eaa8c"/>
      <stop offset="1" stop-color="#78b08e"/>
    </linearGradient>
    <linearGradient id="linear-gradient25" x1="273.8" y1="303.2" x2="296.5" y2="303.2" xlink:href="#linear-gradient"/>
    <linearGradient id="linear-gradient26" x1="-14628.2" y1="315.8" x2="-14628.2" y2="220" gradientTransform="translate(-14280.0954) scale(-1 1)" gradientUnits="userSpaceOnUse">
      <stop offset="0" stop-color="#338a86"/>
      <stop offset="0" stop-color="#4e9989"/>
      <stop offset=".3" stop-color="#85b78f"/>
      <stop offset=".5" stop-color="#accd94"/>
      <stop offset=".6" stop-color="#c5db96"/>
      <stop offset=".7" stop-color="#cee098"/>
    </linearGradient>
    <linearGradient id="linear-gradient27" x1="-14653.9" y1="331.1" x2="-14653.9" y2="234.3" xlink:href="#linear-gradient26"/>
    <linearGradient id="linear-gradient28" x1="-14679.9" y1="346.2" x2="-14679.9" y2="248.8" xlink:href="#linear-gradient26"/>
    <linearGradient id="linear-gradient29" x1="-14602.7" y1="300.4" x2="-14602.7" y2="205.8" xlink:href="#linear-gradient26"/>
    <linearGradient id="linear-gradient30" x1="-14552" y1="270.7" x2="-14552" y2="178.1" xlink:href="#linear-gradient26"/>
    <linearGradient id="linear-gradient31" x1="-14577.3" y1="285.2" x2="-14577.3" y2="191.9" xlink:href="#linear-gradient26"/>
    <linearGradient id="linear-gradient32" x1="-14526.7" y1="257" x2="-14526.7" y2="164.4" xlink:href="#linear-gradient26"/>
    <linearGradient id="linear-gradient33" x1="-14604.3" y1="306.8" x2="-14604.3" y2="207.6" xlink:href="#linear-gradient26"/>
    <linearGradient id="linear-gradient34" x1="-14630.7" y1="322.1" x2="-14630.7" y2="221.8" xlink:href="#linear-gradient26"/>
    <linearGradient id="linear-gradient35" x1="-14657" y1="337.1" x2="-14657" y2="236.4" xlink:href="#linear-gradient26"/>
    <linearGradient id="linear-gradient36" x1="-14578.2" y1="291.3" x2="-14578.2" y2="193.8" xlink:href="#linear-gradient26"/>
    <linearGradient id="linear-gradient37" x1="-14526.5" y1="261.2" x2="-14526.5" y2="167.3" xlink:href="#linear-gradient26"/>
    <linearGradient id="linear-gradient38" x1="-14552.2" y1="276" x2="-14552.2" y2="180.4" xlink:href="#linear-gradient26"/>
    <linearGradient id="linear-gradient39" x1="-14501.3" y1="247.2" x2="-14501.3" y2="154.6" xlink:href="#linear-gradient26"/>
    <linearGradient id="linear-gradient40" x1="-14552.6" y1="323.4" x2="-14552.6" y2="55.4" xlink:href="#linear-gradient26"/>
    <linearGradient id="linear-gradient41" x1="-14605" y1="313" x2="-14605" y2="207" xlink:href="#linear-gradient26"/>
    <linearGradient id="linear-gradient42" x1="-14631.4" y1="328.5" x2="-14631.4" y2="221.1" xlink:href="#linear-gradient26"/>
    <linearGradient id="linear-gradient43" x1="-14500.2" y1="250.5" x2="-14500.2" y2="157.9" xlink:href="#linear-gradient26"/>
    <linearGradient id="linear-gradient44" x1="-14475.4" y1="236.3" x2="-14475.4" y2="147.5" xlink:href="#linear-gradient26"/>
    <linearGradient id="linear-gradient45" x1="-14538.4" y1="259.2" x2="-14538.4" y2="22.4" gradientTransform="translate(-14184.0954) scale(-1 1)" xlink:href="#linear-gradient15"/>
    <linearGradient id="linear-gradient46" x1="273.3" y1="60.5" x2="435.2" y2="60.5" xlink:href="#linear-gradient"/>
    <linearGradient id="linear-gradient47" x1="318.9" y1="160.6" x2="318.9" y2="84.6" gradientUnits="userSpaceOnUse">
      <stop offset="0" stop-color="#006d68"/>
      <stop offset=".2" stop-color="#046f6a"/>
      <stop offset=".4" stop-color="#127873"/>
      <stop offset=".6" stop-color="#2a8681"/>
      <stop offset=".8" stop-color="#4a9995"/>
      <stop offset="1" stop-color="#6fafac"/>
    </linearGradient>
    <linearGradient id="linear-gradient48" x1="348.3" y1="177.1" x2="348.3" y2="101.1" xlink:href="#linear-gradient47"/>
    <linearGradient id="linear-gradient49" x1="377.7" y1="193.7" x2="377.7" y2="117.7" xlink:href="#linear-gradient47"/>
  </defs>
  <path class="st53" d="M488.9,252.8s-152.6-87.2-155.2-88.7l-91-52c-2.7-1.5-5.9-1.5-8.6,0,0,0-201,116.6-206.9,119.9l-17.7,10.1c-3.7,2.1-3.7,7.4,0,9.5l34.8,20.1c5.8,3.4,5.8,11.8,0,15.1l-31.6,18c-5.8,3.3-5.9,11.7,0,15.1l87.6,50.6c2.7,1.5,5.9,1.6,8.6,0l44.9-25.1c5.8-3.2,12.8-3.2,18.5.1l75.8,43.8c8.1,4.7,18,4.7,26.2.2l214.8-121.6c5.9-3.3,6-11.8,0-15.1Z"/>
  <path class="st29" d="M488.9,244.5s-152.6-87.2-155.2-88.7l-91-52c-2.7-1.5-5.9-1.5-8.6,0,0,0-201,116.6-206.9,119.9l-17.7,10.1c-3.7,2.1-3.7,7.4,0,9.5l34.8,20.1c5.8,3.4,5.8,11.8,0,15.1l-31.6,18c-5.8,3.3-5.9,11.7,0,15.1l87.6,50.6c2.7,1.5,5.9,1.6,8.6,0l44.9-25.1c5.8-3.2,12.8-3.2,18.5.1l75.8,43.8c8.1,4.7,18,4.7,26.2.2l214.8-121.6c5.9-3.3,6-11.8,0-15.1Z"/>
  <g>
    <path class="st28" d="M137.3,41.6v12.1c0,4,2.7,5.8,6,3.9,15.7-8.8,30.3-17,46-25.9,3.3-1.9,7.1.5,7.1,4.6v105c0,4-2.7,8.8-6,10.7-38.6,21.7-77.3,43.4-115.9,65.1-3.3,1.9-6,.1-6-3.9V79.2c0-4,2.7-8.8,6-10.7,18.9-10.6,36.4-20.4,55.3-31.1,3.3-1.9,7.5-.1,7.5,4.2Z"/>
    <path class="st30" d="M150.1,51.9v12.1c0,4,2.7,5.8,6,3.9,15.7-8.8,30.3-17,46-25.9,3.3-1.9,7.1.5,7.1,4.6v105c0,4-2.7,8.8-6,10.7-38.6,21.7-77.3,43.4-115.9,65.1-3.3,1.9-6,.1-6-3.9V89.4c0-4,2.7-8.8,6-10.7,18.9-10.6,36.4-20.4,55.3-31.1,3.3-1.9,7.5-.1,7.5,4.2Z"/>
    <path class="st33" d="M166.4,60.6v12.1c0,4,2.7,5.8,6,3.9,15.7-8.8,30.3-17,46-25.9,3.3-1.9,7.1.5,7.1,4.6v105c0,4-2.7,8.8-6,10.7-38.6,21.7-77.3,43.4-115.9,65.1-3.3,1.9-6,.1-6-3.9V98.1c0-4,2.7-8.8,6-10.7,18.9-10.6,36.4-20.4,55.3-31.1,3.3-1.9,7.5-.1,7.5,4.2Z"/>
  </g>
  <g>
    <g>
      <line class="st0" x1="128" y1="261.9" x2="186.6" y2="227.7"/>
      <path class="st31" d="M187.3,229.1c.8-.4,1-1.4.6-2.2-.4-.8-1.4-1-2.2-.6s-1,1.4-.6,2.2c.4.8,1.4,1,2.2.6Z"/>
    </g>
    <g>
      <line class="st2" x1="50.8" y1="295" x2="114.9" y2="331.1"/>
      <path class="st32" d="M50,296.4c-.8-.4-1-1.4-.6-2.2s1.4-1.1,2.2-.6c.8.4,1,1.4.6,2.2s-1.4,1.1-2.2.6Z"/>
    </g>
    <g>
      <path class="st1" d="M125.5,246.4l104,58.8c3.5,2.1,7.9,2.2,11.5.1l40.8-23.2"/>
      <path class="st42" d="M124.8,247.8c-.8-.4-1-1.4-.6-2.2.4-.8,1.4-1,2.2-.6.8.4,1,1.4.6,2.2s-1.4,1-2.2.6Z"/>
      <path class="st41" d="M282.5,283.6c.8-.4,1-1.4.6-2.2-.4-.8-1.4-1-2.2-.6-.8.4-1,1.4-.6,2.2.4.8,1.4,1,2.2.6Z"/>
    </g>
    <g>
      <path class="st26" d="M85.1,272.9l56.2,31.4c3.4,1.9,7.6,1.9,11,0l13.2-7.3c4.1-2.4,9.2-2.4,13.3,0l36,20.2c2.5,1.4,2.5,4.9,0,6.4l-13.7,7.9c-2.5,1.5-2.4,5,0,6.4l33.2,18.6c4,2.3,9,2.2,13,0l75.3-43.2"/>
      <path class="st39" d="M84.4,274.4c-.8-.4-1.1-1.4-.6-2.2.4-.8,1.4-1.1,2.2-.6.8.4,1.1,1.4.6,2.2-.4.8-1.4,1.1-2.2.6Z"/>
      <path class="st44" d="M323.4,314.7c.8-.4,1-1.4.6-2.2-.4-.8-1.4-1-2.2-.6s-1,1.4-.6,2.2c.4.8,1.4,1,2.2.6Z"/>
    </g>
    <g>
      <path class="st25" d="M22.7,307.5l56.2,31.4c3.4,1.9,7.6,1.9,11,0l13.2-7.3c4.1-2.4,9.2-2.4,13.3,0l7.7,4.9c4,2.3,9,2.2,13,0l53.9-31.4"/>
      <path class="st40" d="M21.9,308.9c-.8-.4-1.1-1.4-.6-2.2.4-.8,1.4-1.1,2.2-.6.8.4,1.1,1.4.6,2.2-.4.8-1.4,1.1-2.2.6Z"/>
      <path class="st43" d="M191.6,306.4c.8-.4,1-1.4.6-2.2-.4-.8-1.4-1-2.2-.6-.8.4-1,1.4-.6,2.2.4.8,1.4,1,2.2.6Z"/>
    </g>
    <g>
      <path class="st27" d="M148,272.1l29.5-19.1c2.3-1.5,5.2-1.5,7.5-.2l25.5,14.7c2.3,1.3,5.1,1.3,7.3,0l14.1-8.5"/>
      <path class="st45" d="M148.9,273.4c-.7.5-1.7.3-2.2-.5s-.3-1.7.5-2.2c.7-.5,1.7-.3,2.2.5.5.7.3,1.7-.5,2.2Z"/>
      <path class="st51" d="M232.7,260.4c.8-.5,1-1.4.5-2.2-.5-.8-1.4-1-2.2-.5-.8.5-1,1.4-.5,2.2s1.4,1,2.2.5Z"/>
    </g>
  </g>
  <g>
    <polygon class="st50" points="105.9 272.8 106 278.6 106.1 326.2 106.2 342.2 106.2 346.6 80 332.1 79.5 258.8 105.9 272.8"/>
    <path class="st47" d="M152.6,250.1c-1.1-.4-1.9-.9-2.9-1.5l-22.3-12c-1.8-1.3-5.3-1.3-5.3-1.3-2.7.4-5.2,1.1-7.6,2.3-1.3.6-2.4,1.2-3.8,2l-31.2,18.9v.3c.5,0,26.4,14,26.4,14,.2-.1,30.1-18.2,30.1-18.2l3.4-1.9c1.4-.8,4.9-2.2,5-2.4,1.8-.6,2.6-.8,4.3-.9h0c1.4.4,2.9.4,4.4,1.3,0-.2-.2-.5-.5-.6Z"/>
    <path class="st52" d="M144.8,249.4c0,.1,0,.3-.1.5.1-.2.2-.3.1-.5Z"/>
    <path class="st46" d="M154.2,300.9l-3.1-4.6-1.2-1.2-4.1-2.4c.2-.6.6-.9,1-1.4,8.1-8.8,12.7-20.5,11.1-32.5-.4-2.9-1.3-5.4-3.5-7.4-2-1.8-4.9-2.4-7.5-2-1.4.2-2.7.7-4,1.2s-7,3.7-7,3.7l-29.3,17.9c-.3.2-.6.3-.8.4v5.8c.1,0,.3,67.9.3,67.9.5-.7,1.3-.7,1.9-1.1l14-8.6v-25.6c0-.6,0-1.3.1-2l5.7-3.4c1.2-.7,2.7-1,4-.4.9.4,1.5,1.3,2,2.1l9.9,15.8c.5-.1.8-.3,1.3-.6l16.5-10.2-7.5-11.5ZM141.7,279.7c-.7,1.6-1.8,2.8-3,4.1-1.8,1.7-3.7,3.1-5.8,4.4l-11,6.7v-15.5c0-.5,0-1,0-1.6l12.4-7.5c1.3-.8,2.5-1.3,3.9-1.7.9-.3,1.9-.4,2.8,0,1,.5,1.5,1.5,1.7,2.5.6,3,.1,5.9-1.1,8.7Z"/>
    <path class="st55" d="M144.8,249.4c0,.1,0,.3-.1.5.1-.2.2-.3.1-.5Z"/>
    <path class="st61" d="M144,323.2l-21.5-11.7c-.1,0-.3-.2-.5-.3,0-.6.1-1.3.2-2.1l5.7-3.4c1.2-.7,2.7-1,4-.4s1.5,1.3,2,2.1l9.9,15.8Z"/>
    <path class="st48" d="M141.7,279.7c-.7,1.6-1.8,2.8-3,4.1-1.8,1.7-3.7,3.1-5.8,4.4l-11,6.7v-15.6s4.2,0,4.2,0c4.7,0,9.3,0,14-.1.5.2,1.1.7,1.6.5Z"/>
    <path class="st61" d="M141.7,279.7c-.5.1-1-.4-1.5-.5-4.7.1-9.3,0-14,.1h-4.3c0-.5,0-1,.1-1.6l12.4-7.5c1.3-.8,2.5-1.3,3.9-1.7.9-.3,1.9-.4,2.8,0,1,.5,1.5,1.5,1.7,2.5.6,3,.1,5.9-1.1,8.7Z"/>
  </g>
  <g>
    <path class="st62" d="M279.3,304l-5.8,8.7s-7.9-9.5-7.9-9.3l-8.3,47.6c0,.2,0,.3,0,.4s-.1,0-.2,0v.2c.1.3.2.3.4.3,0-.2.2-.2.4-.3l34.1-15.7-7.5-9.4c-.2-.2-.2-.4,0-.7l12.1-18.1c.2-.3.2-.5,0-.8l-10-12.4c-.2-.2-.2-.3-.3-.5-.3,0-.3.1-.5.5l-5.5,8.3c-.2.3-.7,1.1-.8,1.3Z"/>
    <polygon class="st57" points="272.1 332.2 279.6 341.6 292 335.9 284.5 326.5 272.1 332.2"/>
    <polygon class="st49" points="296.5 306.9 286.2 293.1 273.8 299.6 284.1 313.4 296.5 306.9"/>
    <polygon class="st57" points="276 316.3 265.7 302.5 253.3 309 263.7 322.8 276 316.3"/>
    <path class="st56" d="M266.9,309.7l-5.8,8.7-7.3-9.1c-.2-.2-.2-.4-.3-.5-.1,0-.2.1-.3.3l-8.3,47.6c0,.2,0,.3,0,.4s-.1,0-.2,0v.2c.1.3.2.3.4.3,0-.2.2-.2.4-.3l34.1-15.7-7.5-9.4c-.2-.2-.2-.4,0-.7l12.1-18.1c.2-.3.2-.5,0-.8l-10-12.4c-.2-.2-.2-.3-.3-.5-.3,0-.3.1-.5.5l-5.5,8.3c-.2.3-.7,1.1-.8,1.3Z"/>
    <path class="st56" d="M261.1,318.4l-7.3-9.1c-.2-.2-.2-.4-.3-.5-.1,0-.2.1-.3.3l-8.3,47.6c0,.2-.1.4-.2.4v.2c.1.3.2.3.4.3,0-.2.2-.2.4-.3l34.1-15.7-7.5-9.4c-.2-.2-.2-.4,0-.7l12.1-18.1c.2-.3.2-.5,0-.8l-10-12.4c-.2-.2-.2-.3-.3-.5-.3,0-.3.1-.5.5l-12.2,18.3Z"/>
    <path class="st23" d="M245.1,357.6c0-.2.2-.2.4-.3l34.1-15.7-7.5-9.4c-.2-.2-.2-.4,0-.7l12.1-18.1c.2-.3.2-.5,0-.8l-10-12.4c-.2-.2-.2-.3-.3-.5-.3,0-.3.1-.5.5l-5.5,8.3c-.2.3-.7,1.1-.8,1.3l-5.8,8.7"/>
  </g>
  <g>
    <g>
      <path class="st61" d="M134.4,157.5c4.7-2.6,7-3.9,11.7-6.6,0,0,0-1.2,0-1.7,1-12.8,8.5-25.5,19.1-32.7,8.5-5.8,19.3,1.9,19.1,11.4,0,.5,0,1.5,0,1.5,4.7-2.6,7-3.9,11.7-6.6,0,0,0-1,0-1.5.3-17.5-15.9-27.8-30.9-19.3-17.9,10.2-30,33.2-30.9,53.6,0,.6,0,1.9,0,1.9Z"/>
      <path class="st54" d="M196.2,122.8c-4.7,2.6-7,3.9-11.7,6.6,0,0,0-.3,0,0,0,13.3-8.2,27.4-19.2,34.4-10.3,6.6-19.5-2.3-19.2-12.9,0-.3,0,0,0,0-4.7,2.6-7,3.9-11.7,6.6h0c-1.3,17.9,14.5,30.6,30.9,20.8,18.3-10.9,30.7-34.3,30.9-55.5h0s0,0,0,0Z"/>
    </g>
    <g>
      <path class="st56" d="M169.7,119.6c-1.3,6.5-2,9.7-3.3,16.1,3.8-2.1,5.7-3.2,9.5-5.3-4.9,10.1-9.7,20.1-14.6,30.2,1.3-.3,2.7-.8,4-1.6,9.2-5.4,15.1-16.8,15.3-27.4.1-8.4-4.6-13.2-10.9-12Z"/>
      <path class="st56" d="M164.9,142c-3.7,2.1-5.6,3.1-9.3,5.2,1.8-8.7,2.7-13.1,4.5-21.8-5.8,5.9-10,15.2-10,23.3s4.6,13.2,11,11.9c1.5-7.5,2.3-11.2,3.8-18.6Z"/>
    </g>
  </g>
  <g>
    <g>
      <path class="st58" d="M334.9,252.4c4.3,2.4,6.5,3.6,10.8,6.1,1.9,1.1,4.8,1.1,6.5.1,4-2.3,5.9-3.4,9.6-5.6,1.6-1,1.4-2.6-.4-3.6-4.2-2.4-6.3-3.6-10.5-6-1.8-1-4.6-1.1-6.3-.2-3.8,2.2-5.8,3.3-9.8,5.5-1.7,1-1.7,2.6.2,3.7Z"/>
      <path class="st58" d="M360.8,267c4.3,2.5,6.5,3.7,10.8,6.1,1.9,1.1,4.8,1.1,6.4.1,3.8-2.3,5.7-3.4,9.3-5.6,1.6-1,1.3-2.6-.5-3.7-4.3-2.4-6.4-3.7-10.7-6.1-1.8-1-4.6-1.1-6.2-.2-3.7,2.2-5.6,3.3-9.5,5.6-1.7,1-1.6,2.6.3,3.7Z"/>
      <path class="st58" d="M386.8,281.7c4.4,2.5,6.5,3.7,10.9,6.1,1.9,1.1,4.8,1.1,6.4.1,3.8-2.3,5.6-3.4,9.2-5.7,1.5-1,1.2-2.6-.7-3.7-4.3-2.5-6.5-3.7-10.8-6.1-1.9-1.1-4.6-1.1-6.1-.2-3.6,2.2-5.4,3.4-9.3,5.7-1.7,1-1.5,2.7.4,3.7Z"/>
      <path class="st58" d="M309.1,237.9c4.3,2.4,6.4,3.6,10.7,6,1.9,1,4.8,1.1,6.6.1,4.1-2.2,6.1-3.3,9.9-5.5,1.7-.9,1.5-2.5-.3-3.6-4.2-2.4-6.3-3.6-10.5-6-1.8-1-4.6-1.1-6.4-.2-4,2.1-6,3.2-10.2,5.5-1.8,1-1.8,2.6,0,3.6Z"/>
      <path class="st58" d="M258,209.8c4.2,2.3,6.3,3.4,10.6,5.7,1.8,1,4.8,1,6.7,0,4.3-2.2,6.4-3.3,10.5-5.4,1.8-.9,1.7-2.5-.1-3.5-4.2-2.3-6.3-3.5-10.5-5.8-1.8-1-4.7-1.1-6.5-.1-4.1,2.2-6.3,3.3-10.6,5.5-1.9,1-1.9,2.5,0,3.5Z"/>
      <path class="st58" d="M283.5,223.7c4.3,2.3,6.4,3.5,10.7,5.9,1.8,1,4.8,1.1,6.7.1,4.2-2.2,6.3-3.3,10.3-5.4,1.7-.9,1.6-2.5-.2-3.5-4.2-2.4-6.3-3.5-10.5-5.9-1.8-1-4.7-1.1-6.4-.2-4.1,2.1-6.2,3.2-10.4,5.4-1.8,1-1.9,2.5,0,3.6Z"/>
      <path class="st58" d="M232.7,196.4c4.2,2.2,6.3,3.3,10.5,5.5,1.8,1,4.8,1,6.7,0,4.3-2.3,6.5-3.4,10.6-5.5,1.8-.9,1.7-2.5-.1-3.5-4.2-2.3-6.3-3.4-10.6-5.7-1.8-1-4.7-1-6.5,0-4.1,2.2-6.2,3.4-10.5,5.7-1.9,1-1.9,2.6,0,3.5Z"/>
      <path class="st58" d="M310,265.8c4.4,2.5,6.6,3.7,11,6.2,1.9,1.1,5,1.1,6.9,0,4.4-2.4,6.5-3.6,10.7-5.9,1.8-1,1.7-2.7-.1-3.7-4.3-2.4-6.5-3.7-10.9-6.1-1.9-1.1-4.9-1.1-6.7-.1-4.3,2.3-6.5,3.5-10.9,5.8-1.9,1-1.9,2.7,0,3.8Z"/>
      <path class="st58" d="M336.4,280.7c4.4,2.5,6.6,3.7,11,6.2,1.9,1.1,5,1.1,6.8,0,4.3-2.4,6.4-3.6,10.5-6,1.8-1,1.7-2.7-.2-3.8-4.4-2.5-6.5-3.7-10.9-6.1-1.9-1.1-4.9-1.1-6.7,0-4.2,2.3-6.3,3.5-10.7,5.9-1.9,1-1.9,2.8,0,3.8Z"/>
      <path class="st58" d="M362.9,295.6c4.4,2.5,6.6,3.7,11,6.2,1.9,1.1,5,1,6.8,0,4.3-2.5,6.4-3.7,10.5-6.1,1.8-1,1.6-2.7-.3-3.8-4.4-2.5-6.6-3.7-10.9-6.1-1.9-1.1-4.8-1.1-6.6,0-4.1,2.4-6.2,3.6-10.5,6-1.9,1.1-1.8,2.8,0,3.9Z"/>
      <path class="st58" d="M283.6,251.1c4.4,2.4,6.6,3.6,11,6.1,1.9,1.1,5,1.1,6.9,0,4.4-2.3,6.6-3.5,11-5.8,1.9-1,1.8-2.6,0-3.7-4.3-2.4-6.5-3.6-10.8-6-1.9-1-4.9-1.1-6.8-.1-4.4,2.3-6.6,3.4-11.1,5.7-1.9,1-2,2.7-.1,3.7Z"/>
      <path class="st58" d="M231.9,223c4.2,2.2,6.4,3.4,10.6,5.7,1.8,1,4.9,1,6.9,0,4.6-2.3,6.8-3.4,11.3-5.7,1.9-1,2-2.6.2-3.6-4.3-2.3-6.4-3.4-10.6-5.7-1.8-1-4.9-1-6.8,0-4.5,2.3-6.8,3.4-11.3,5.7-2,1-2.1,2.6-.3,3.5Z"/>
      <path class="st58" d="M257.6,236.8c4.3,2.3,6.5,3.5,10.8,5.9,1.9,1,5,1.1,6.9,0,4.5-2.3,6.8-3.4,11.2-5.7,1.9-1,1.9-2.6,0-3.6-4.3-2.4-6.4-3.5-10.7-5.9-1.8-1-4.9-1-6.8,0-4.5,2.3-6.7,3.4-11.3,5.7-2,1-2.1,2.6-.2,3.6Z"/>
      <path class="st58" d="M206.9,209.9c4.1,2.1,6.2,3.2,10.4,5.4,1.8.9,4.9.9,6.8,0,4.5-2.3,6.8-3.4,11.3-5.7,1.9-1,2-2.6.2-3.5-4.2-2.2-6.3-3.3-10.5-5.5-1.8-.9-4.8-.9-6.7.1-4.4,2.4-6.7,3.5-11.2,5.9-1.9,1-2.1,2.6-.3,3.5Z"/>
      <path class="st58" d="M231.8,250.4c24.6,13.8,37.4,21.3,62.8,36.1,1.9,1.1,5.1,1.1,7.1,0,4.6-2.6,6.9-3.8,11.5-6.3,2-1.1,2-2.8,0-3.9-25.3-14.3-38.1-21.5-62.8-35-1.9-1-5-1-7,0-4.6,2.3-6.9,3.4-11.5,5.6-2,1-2.1,2.6-.2,3.6Z"/>
      <path class="st58" d="M310.1,295.5c4.4,2.6,6.6,3.9,11,6.4,1.9,1.1,5.1,1.1,7.1-.1,4.7-2.7,7-4,11.5-6.6,2-1.1,2-2.9,0-4-4.4-2.5-6.6-3.8-11-6.3-1.9-1.1-5-1.1-7,0-4.5,2.5-6.8,3.8-11.5,6.4-2,1.1-2.1,3-.2,4.1Z"/>
      <path class="st58" d="M336.4,310.9c4.4,2.6,6.5,3.8,10.8,6.3,1.9,1.1,5.1,1,7.1-.2,4.7-2.8,7.1-4.2,11.6-6.8,2-1.1,2-2.9.1-4-4.4-2.5-6.6-3.7-10.9-6.2-1.9-1.1-5-1.1-7,0-4.5,2.6-6.8,3.9-11.5,6.7-2,1.2-2.2,3.1-.3,4.2Z"/>
      <path class="st58" d="M205.6,235.8c4.2,2.3,6.2,3.4,10.5,5.8,1.8,1,4.9,1.1,6.9.1,4.5-2.2,6.8-3.3,11.4-5.5,2-1,2.1-2.6.2-3.6-4.3-2.3-6.4-3.4-10.6-5.7-1.8-1-4.9-1-6.9,0-4.5,2.2-6.8,3.3-11.3,5.5-1.9.9-2,2.5-.2,3.4Z"/>
      <path class="st58" d="M181.2,222.7c4,2.1,6,3.2,10,5.3,1.7.9,4.7,1,6.6,0,4.4-2.1,6.7-3.2,11.2-5.4,2-1,2.1-2.5.3-3.4-4.1-2.2-6.2-3.2-10.3-5.3-1.8-.9-4.7-.8-6.7.1-4.4,2.2-6.6,3.3-10.9,5.4-1.9.9-2,2.4-.3,3.3Z"/>
    </g>
    <g>
      <path class="st21" d="M334.9,245.7c4.3,2.4,6.5,3.6,10.8,6.1,1.9,1.1,4.8,1.1,6.5.1,4-2.3,5.9-3.4,9.6-5.6,1.6-1,1.4-2.6-.4-3.6-4.2-2.4-6.3-3.6-10.5-6-1.8-1-4.6-1.1-6.3-.2-3.8,2.2-5.8,3.3-9.8,5.5-1.7,1-1.7,2.6.2,3.7Z"/>
      <path class="st20" d="M360.8,260.3c4.3,2.4,6.5,3.7,10.8,6.1,1.9,1.1,4.8,1.1,6.4.1,3.8-2.3,5.7-3.4,9.3-5.6,1.6-1,1.3-2.6-.5-3.7-4.3-2.4-6.4-3.7-10.6-6.1-1.8-1.1-4.6-1.1-6.2-.2-3.7,2.2-5.6,3.3-9.5,5.6-1.7,1-1.6,2.6.3,3.7Z"/>
      <path class="st19" d="M386.8,275.1c4.4,2.5,6.5,3.7,10.9,6.1,1.9,1.1,4.8,1.1,6.4.1,3.8-2.3,5.6-3.4,9.2-5.7,1.5-1,1.2-2.6-.7-3.7-4.3-2.5-6.5-3.7-10.8-6.1-1.9-1.1-4.6-1.1-6.1-.2-3.6,2.2-5.4,3.4-9.3,5.7-1.7,1-1.5,2.7.4,3.7Z"/>
      <path class="st18" d="M309.1,231.2c4.3,2.4,6.4,3.6,10.7,6,1.9,1,4.8,1.1,6.6.1,4.1-2.2,6.1-3.3,10-5.5,1.7-.9,1.5-2.5-.3-3.6-4.2-2.4-6.3-3.6-10.5-6-1.8-1-4.6-1.1-6.4-.2-4,2.1-6,3.2-10.2,5.5-1.8,1-1.8,2.6,0,3.6Z"/>
      <path class="st10" d="M258,203.1c4.2,2.3,6.3,3.4,10.6,5.7,1.8,1,4.8,1,6.7,0,4.3-2.2,6.4-3.3,10.5-5.4,1.8-.9,1.7-2.5-.1-3.5-4.2-2.3-6.3-3.5-10.5-5.8-1.8-1-4.7-1.1-6.5-.1-4.1,2.2-6.3,3.3-10.6,5.5-1.9,1-1.9,2.5,0,3.5Z"/>
      <path class="st6" d="M283.5,217c4.3,2.3,6.4,3.5,10.7,5.9,1.8,1,4.8,1.1,6.7.1,4.2-2.2,6.3-3.3,10.3-5.4,1.7-.9,1.6-2.5-.2-3.5-4.2-2.4-6.3-3.5-10.5-5.9-1.8-1-4.7-1.1-6.4-.2-4.1,2.1-6.2,3.2-10.4,5.4-1.8,1-1.9,2.6,0,3.6Z"/>
      <path class="st11" d="M232.7,189.7c4.2,2.2,6.3,3.3,10.5,5.5,1.8,1,4.8,1,6.7,0,4.3-2.3,6.5-3.4,10.6-5.5,1.8-.9,1.7-2.5-.1-3.5-4.2-2.3-6.3-3.4-10.6-5.7-1.8-1-4.7-1-6.5,0-4.1,2.2-6.2,3.4-10.5,5.7-1.9,1-1.9,2.6,0,3.5Z"/>
      <path class="st4" d="M310,259.2c4.4,2.5,6.6,3.7,11,6.2,1.9,1.1,5,1.1,6.9,0,4.4-2.4,6.5-3.6,10.7-5.9,1.8-1,1.7-2.7-.1-3.7-4.3-2.4-6.5-3.7-10.9-6.1-1.9-1.1-4.9-1.1-6.7-.1-4.3,2.3-6.5,3.5-10.9,5.8-1.9,1-1.9,2.7,0,3.8Z"/>
      <path class="st8" d="M336.4,274c4.4,2.5,6.6,3.7,11,6.2,1.9,1.1,5,1.1,6.8,0,4.3-2.4,6.4-3.6,10.5-6,1.8-1,1.7-2.7-.2-3.8-4.4-2.5-6.5-3.7-10.9-6.1-1.9-1.1-4.9-1.1-6.7,0-4.2,2.3-6.3,3.5-10.7,5.9-1.9,1-1.9,2.8,0,3.8Z"/>
      <path class="st5" d="M362.9,288.9c4.4,2.5,6.6,3.7,11,6.2,1.9,1.1,5,1,6.8,0,4.3-2.5,6.4-3.7,10.5-6.1,1.8-1,1.6-2.7-.3-3.8-4.4-2.5-6.6-3.7-10.9-6.1-1.9-1.1-4.8-1.1-6.6,0-4.1,2.4-6.2,3.6-10.5,6-1.9,1.1-1.8,2.8,0,3.9Z"/>
      <path class="st3" d="M283.6,244.5c4.4,2.4,6.6,3.6,10.9,6.1,1.9,1.1,5,1.1,6.9,0,4.4-2.3,6.6-3.5,11-5.8,1.9-1,1.8-2.6,0-3.7-4.3-2.4-6.5-3.6-10.8-6-1.9-1-4.9-1.1-6.8-.1-4.4,2.3-6.6,3.4-11.1,5.7-1.9,1-2,2.7-.1,3.7Z"/>
      <path class="st9" d="M231.9,216.3c4.2,2.2,6.4,3.4,10.6,5.7,1.8,1,4.9,1,6.9,0,4.6-2.3,6.8-3.4,11.3-5.7,1.9-1,2-2.6.2-3.6-4.3-2.3-6.4-3.4-10.6-5.7-1.8-1-4.9-1-6.8,0-4.5,2.3-6.8,3.4-11.3,5.7-2,1-2.1,2.6-.3,3.5Z"/>
      <path class="st12" d="M257.6,230.1c4.3,2.3,6.5,3.5,10.8,5.9,1.9,1,5,1.1,6.9,0,4.5-2.3,6.8-3.4,11.2-5.7,1.9-1,1.9-2.6,0-3.6-4.3-2.4-6.4-3.5-10.7-5.9-1.8-1-4.9-1-6.8,0-4.5,2.3-6.7,3.4-11.3,5.7-2,1-2.1,2.6-.2,3.6Z"/>
      <path class="st7" d="M206.9,203.2c4.1,2.1,6.2,3.2,10.4,5.4,1.8.9,4.9.9,6.8,0,4.5-2.3,6.8-3.4,11.3-5.7,1.9-1,2-2.6.2-3.5-4.2-2.2-6.3-3.3-10.5-5.5-1.8-.9-4.8-.9-6.7.1-4.4,2.4-6.7,3.5-11.2,5.9-1.9,1-2.1,2.6-.3,3.5Z"/>
      <path class="st16" d="M231.8,243.7c21,11.9,41.9,23.9,62.8,36.1,1.9,1.1,5.1,1.1,7.1,0,4.6-2.6,6.9-3.8,11.5-6.3,2-1.1,2-2.8,0-3.9-20.9-11.8-41.8-23.5-62.8-35-1.9-1-5-1-7,0-4.6,2.3-6.9,3.4-11.5,5.6-2,1-2.1,2.6-.2,3.6Z"/>
      <path class="st15" d="M310.1,288.8c4.4,2.6,6.6,3.9,11,6.4,1.9,1.1,5.1,1.1,7.1-.1,4.7-2.7,7-4,11.5-6.6,2-1.1,2-2.9,0-4-4.4-2.5-6.6-3.8-11-6.3-1.9-1.1-5-1.1-7,0-4.5,2.5-6.8,3.8-11.5,6.4-2,1.1-2.1,3-.2,4.1Z"/>
      <path class="st17" d="M336.4,304.2c4.4,2.6,6.5,3.8,10.8,6.3,1.9,1.1,5.1,1,7.1-.2,4.7-2.8,7.1-4.2,11.6-6.8,2-1.1,2-2.9.1-4-4.4-2.5-6.6-3.7-10.9-6.2-1.9-1.1-5-1.1-7,0-4.5,2.6-6.8,3.9-11.5,6.7-2,1.2-2.2,3.1-.3,4.2Z"/>
      <path class="st14" d="M205.6,229.1c4.2,2.3,6.2,3.4,10.5,5.8,1.8,1,4.9,1.1,6.9.1,4.5-2.2,6.8-3.3,11.4-5.5,2-1,2.1-2.6.2-3.6-4.3-2.3-6.4-3.4-10.6-5.7-1.8-1-4.9-1-6.9,0-4.5,2.2-6.8,3.3-11.3,5.5-1.9.9-2,2.5-.2,3.4Z"/>
      <path class="st13" d="M181.2,216c4,2.1,6,3.2,10,5.3,1.7.9,4.7,1,6.6,0,4.4-2.1,6.7-3.2,11.2-5.4,2-1,2.1-2.5.3-3.4-4.1-2.2-6.2-3.2-10.3-5.3-1.8-.9-4.7-.8-6.7.1-4.4,2.2-6.6,3.3-10.9,5.4-1.9.9-2,2.4-.3,3.3Z"/>
    </g>
  </g>
  <g>
    <g>
      <g>
        <g class="st59">
          <path class="st37" d="M273.3,22.4v143c0,3.3,1.8,6.3,4.7,7.9l149.7,85.2c3.3,1.9,7.3-.5,7.3-4.2V113.9c0,0-161.8-91.5-161.8-91.5Z"/>
        </g>
        <g class="st60">
          <path class="st22" d="M278,173.3l149.7,85.2c3.3,1.9,7.3-.5,7.3-4.2V113.9"/>
        </g>
        <path class="st34" d="M273.3,22.4v-8.7c0-5,5.5-8.2,9.8-5.7l145.5,82.8c4,2.2,6.4,6.4,6.4,11v12.1c0,0-161.8-91.5-161.8-91.5Z"/>
        <path class="st56" d="M296.9,27.8h0c-.4,0-.7,0-1-.3h0c-1-.6-1.3-1.8-.7-2.8h0c.6-1,1.8-1.3,2.8-.7h0c1,.6,1.3,1.8.7,2.8-.4.6-1.1,1-1.7,1ZM289.9,23.6h0c-.4,0-.7,0-1-.3h0c-1-.6-1.3-1.8-.7-2.8h0c.6-1,1.8-1.3,2.8-.7h0c1,.6,1.3,1.8.7,2.8-.4.6-1.1,1-1.7,1ZM282.9,19.4h0c-.4,0-.7,0-1-.3h0c-1-.6-1.3-1.8-.7-2.8h0c.6-1,1.8-1.3,2.8-.7h0c1,.6,1.3,1.8.7,2.8-.4.6-1.1,1-1.7,1Z"/>
      </g>
      <line class="st22" x1="435.2" y1="113.9" x2="273.3" y2="22.4"/>
    </g>
    <g>
      <path class="st56" d="M394.1,201.3c-30.6-17.2-61.1-34.4-91.7-51.6v-72.7c30.6,17.2,61.1,34.4,91.7,51.6v72.7Z"/>
      <g>
        <path class="st36" d="M331.4,160.6c-8.4-4.7-16.7-9.4-25.1-14.1v-61.9c8.4,4.7,16.7,9.4,25.1,14.1v61.9Z"/>
        <path class="st56" d="M325.7,116.1c0,6.3-3.2,9.7-7.2,7.4-4-2.2-7.2-9.2-7.2-15.5s3.2-9.7,7.2-7.4c4,2.2,7.2,9.2,7.2,15.5Z"/>
        <path class="st35" d="M360.8,177.1c-8.4-4.7-16.7-9.4-25.1-14.1v-61.9c8.4,4.7,16.7,9.4,25.1,14.1v61.9Z"/>
        <path class="st24" d="M355.8,150.2c0,6.3-3.2,9.7-7.2,7.4-4-2.2-7.2-9.2-7.2-15.5s3.2-9.7,7.2-7.4c4,2.2,7.2,9.2,7.2,15.5Z"/>
        <path class="st38" d="M390.2,193.7c-8.4-4.7-16.7-9.4-25.1-14.1v-61.9c8.4,4.7,16.7,9.4,25.1,14.1v61.9Z"/>
        <path class="st24" d="M385.2,147.3c0,6.3-3.2,9.7-7.2,7.4-4-2.2-7.2-9.2-7.2-15.5s3.2-9.7,7.2-7.4c4,2.2,7.2,9.2,7.2,15.5Z"/>
      </g>
    </g>
  </g>
</svg>