<?xml version="1.0" encoding="UTF-8"?>
<svg id="Layer_12" xmlns="http://www.w3.org/2000/svg" xmlns:xlink="http://www.w3.org/1999/xlink" version="1.1" viewBox="0 0 500 400">
  <!-- Generator: Adobe Illustrator 30.5.1, SVG Export Plug-In . SVG Version: 2.1.4 Build 3)  -->
  <defs>
    <style>
      .st0 {
        fill: #bed675;
      }

      .st1, .st2, .st3 {
        fill: #cee098;
      }

      .st1, .st4, .st5, .st6, .st7, .st8, .st9, .st10, .st11, .st12, .st13, .st3, .st14 {
        stroke: #fff;
      }

      .st1, .st4, .st5, .st6, .st7, .st8, .st9, .st12, .st3, .st14, .st15, .st16, .st17 {
        stroke-linecap: round;
      }

      .st1, .st4, .st5, .st6, .st7, .st8, .st9, .st12, .st14, .st15, .st16, .st17 {
        stroke-linejoin: round;
      }

      .st18 {
        fill: #6fafac;
      }

      .st19 {
        fill: url(#linear-gradient1);
      }

      .st20 {
        fill: url(#linear-gradient9);
      }

      .st21 {
        fill: url(#linear-gradient3);
      }

      .st22 {
        fill: url(#linear-gradient6);
      }

      .st23 {
        fill: url(#linear-gradient8);
      }

      .st24 {
        fill: url(#linear-gradient5);
      }

      .st25 {
        fill: #ededed;
        opacity: 0;
      }

      .st4 {
        fill: url(#linear-gradient2);
      }

      .st5 {
        fill: url(#linear-gradient4);
      }

      .st26 {
        fill: url(#linear-gradient13);
      }

      .st27 {
        fill: url(#linear-gradient12);
      }

      .st28 {
        fill: url(#linear-gradient15);
      }

      .st29 {
        fill: url(#linear-gradient16);
      }

      .st30 {
        fill: url(#linear-gradient11);
      }

      .st31 {
        fill: url(#linear-gradient10);
      }

      .st32 {
        fill: url(#linear-gradient17);
      }

      .st33 {
        fill: url(#linear-gradient14);
      }

      .st34 {
        fill: #ebf2d4;
      }

      .st6 {
        stroke-width: .6px;
      }

      .st6, .st35 {
        fill: #fff;
      }

      .st36 {
        fill: url(#linear-gradient);
      }

      .st37 {
        fill: #acca53;
      }

      .st38 {
        fill: #c3c3c3;
      }

      .st7 {
        stroke-width: .2px;
      }

      .st7, .st8, .st9, .st11, .st12, .st13, .st14, .st39, .st15, .st16, .st17 {
        fill: none;
      }

      .st8 {
        stroke-width: .2px;
      }

      .st9 {
        stroke-width: .4px;
      }

      .st10 {
        fill: url(#linear-gradient7);
      }

      .st10, .st11, .st13, .st39 {
        stroke-miterlimit: 10;
      }

      .st11 {
        stroke-width: .3px;
      }

      .st12, .st14 {
        stroke-width: 5px;
      }

      .st13 {
        stroke-width: 1.4px;
      }

      .st3 {
        stroke-linejoin: bevel;
        stroke-width: 1.2px;
      }

      .st40 {
        opacity: .9;
      }

      .st41 {
        fill: #006d68;
      }

      .st14 {
        stroke-dasharray: 0 10.5;
      }

      .st39 {
        stroke: #cee098;
      }

      .st15 {
        stroke: #338a86;
        stroke-width: 1.1px;
      }

      .st16 {
        stroke: #ebf2d4;
      }

      .st42 {
        fill: #003834;
      }

      .st17 {
        stroke: #006e69;
        stroke-width: .3px;
      }
    </style>
    <linearGradient id="linear-gradient" x1="-2189.6" y1="327.6" x2="-1769.6" y2="327.6" gradientTransform="translate(-1729.4695) scale(-1 1)" gradientUnits="userSpaceOnUse">
      <stop offset=".3" stop-color="#cee098"/>
      <stop offset=".4" stop-color="#c5db96"/>
      <stop offset=".5" stop-color="#accd94"/>
      <stop offset=".7" stop-color="#85b78f"/>
      <stop offset=".9" stop-color="#4e9989"/>
      <stop offset="1" stop-color="#338a86"/>
    </linearGradient>
    <linearGradient id="linear-gradient1" x1="-1603.8" y1="232.5" x2="-1519.4" y2="232.5" gradientTransform="translate(-1479.4695) scale(-1 1)" gradientUnits="userSpaceOnUse">
      <stop offset="0" stop-color="#006d68"/>
      <stop offset=".6" stop-color="#005954"/>
      <stop offset="1" stop-color="#004a46"/>
    </linearGradient>
    <linearGradient id="linear-gradient2" x1="-126.9" y1="240.7" x2="-126.9" y2="147.4" gradientTransform="translate(250)" xlink:href="#linear-gradient"/>
    <linearGradient id="linear-gradient3" x1="-1603.8" y1="169.5" x2="-1519.4" y2="169.5" xlink:href="#linear-gradient1"/>
    <linearGradient id="linear-gradient4" x1="-126.9" y1="177.7" x2="-126.9" y2="84.4" gradientTransform="translate(250)" xlink:href="#linear-gradient"/>
    <linearGradient id="linear-gradient5" x1="-1603.8" y1="106.6" x2="-1519.4" y2="106.6" xlink:href="#linear-gradient1"/>
    <linearGradient id="linear-gradient6" x1="-1603.8" y1="129.6" x2="-1603.8" y2="129.6" xlink:href="#linear-gradient1"/>
    <linearGradient id="linear-gradient7" x1="360.1" y1="203" x2="360.1" y2="58" gradientUnits="userSpaceOnUse">
      <stop offset="0" stop-color="#338a86"/>
      <stop offset="0" stop-color="#4e9989"/>
      <stop offset=".3" stop-color="#85b78f"/>
      <stop offset=".4" stop-color="#accd94"/>
      <stop offset=".5" stop-color="#c5db96"/>
      <stop offset=".6" stop-color="#cee098"/>
    </linearGradient>
    <linearGradient id="linear-gradient8" x1="260.1" y1="-9312.1" x2="460.1" y2="-9312.1" gradientTransform="translate(0 -1269.931) scale(1 -.1379)" gradientUnits="userSpaceOnUse">
      <stop offset="0" stop-color="#6baca9"/>
      <stop offset="1" stop-color="#afd3d0"/>
    </linearGradient>
    <linearGradient id="linear-gradient9" x1="271.1" y1="209.9" x2="271.1" y2="65.4" gradientUnits="userSpaceOnUse">
      <stop offset="0" stop-color="#fff"/>
      <stop offset=".3" stop-color="#fdfefc"/>
      <stop offset=".5" stop-color="#f9fbf3"/>
      <stop offset=".7" stop-color="#f2f7e5"/>
      <stop offset=".8" stop-color="#e8f1d0"/>
      <stop offset="1" stop-color="#dce9b6"/>
      <stop offset="1" stop-color="#d8e7ae"/>
    </linearGradient>
    <linearGradient id="linear-gradient10" x1="171.1" y1="-9805.1" x2="371.1" y2="-9805.1" gradientTransform="translate(0 -1269.931) scale(1 -.1379)" gradientUnits="userSpaceOnUse">
      <stop offset="0" stop-color="#6fafac"/>
      <stop offset=".3" stop-color="#479793"/>
      <stop offset=".8" stop-color="#137874"/>
      <stop offset="1" stop-color="#006d68"/>
    </linearGradient>
    <linearGradient id="linear-gradient11" x1="387.5" y1="277.2" x2="387.5" y2="175.1" gradientUnits="userSpaceOnUse">
      <stop offset="0" stop-color="#338a86"/>
      <stop offset=".1" stop-color="#3a8e86"/>
      <stop offset=".3" stop-color="#509a89"/>
      <stop offset=".5" stop-color="#74ae8d"/>
      <stop offset=".8" stop-color="#a5c993"/>
      <stop offset="1" stop-color="#cee098"/>
    </linearGradient>
    <linearGradient id="linear-gradient12" x1="329.5" y1="307" x2="329.5" y2="170.4" xlink:href="#linear-gradient11"/>
    <linearGradient id="linear-gradient13" x1="220.5" y1="282" x2="228.7" y2="317.3" gradientUnits="userSpaceOnUse">
      <stop offset="0" stop-color="#338a86"/>
      <stop offset="0" stop-color="#398d86"/>
      <stop offset=".2" stop-color="#66a68b"/>
      <stop offset=".4" stop-color="#8bbb90"/>
      <stop offset=".5" stop-color="#a8cb93"/>
      <stop offset=".7" stop-color="#bdd696"/>
      <stop offset=".8" stop-color="#c9dd97"/>
      <stop offset="1" stop-color="#cee098"/>
    </linearGradient>
    <linearGradient id="linear-gradient14" x1="263.6" y1="322" x2="272.5" y2="283.3" gradientUnits="userSpaceOnUse">
      <stop offset="0" stop-color="#cee098"/>
      <stop offset=".2" stop-color="#c9dd97"/>
      <stop offset=".3" stop-color="#bdd696"/>
      <stop offset=".5" stop-color="#a8cb93"/>
      <stop offset=".6" stop-color="#8bbb90"/>
      <stop offset=".8" stop-color="#66a68b"/>
      <stop offset="1" stop-color="#398d86"/>
      <stop offset="1" stop-color="#338a86"/>
    </linearGradient>
    <linearGradient id="linear-gradient15" x1="235.1" y1="280.1" x2="257.5" y2="280.1" gradientTransform="matrix(1,0,0,1,0,0)" xlink:href="#linear-gradient8"/>
    <linearGradient id="linear-gradient16" x1="226.6" y1="332.6" x2="286.4" y2="332.6" gradientUnits="userSpaceOnUse">
      <stop offset="0" stop-color="#338a86"/>
      <stop offset=".3" stop-color="#5a9f8a"/>
      <stop offset=".9" stop-color="#bdd696"/>
      <stop offset="1" stop-color="#cee098"/>
    </linearGradient>
    <linearGradient id="linear-gradient17" x1="205.1" y1="333.2" x2="265.7" y2="333.2" xlink:href="#linear-gradient13"/>
  </defs>
  <g>
    <polygon class="st36" points="40.1 275.3 40.1 259.7 250.1 379.1 460.1 259.7 460.1 275.3 250.1 395.5 40.1 275.3"/>
    <polygon class="st34" points="460.1 260.3 250.1 140.8 40.1 260.3 249.9 379.1 460.1 260.3"/>
    <g>
      <g>
        <line class="st13" x1="130" y1="255.6" x2="191.9" y2="290.4"/>
        <path class="st35" d="M129.3,257c-.7-.4-1-1.4-.6-2.1.4-.7,1.4-1,2.1-.6.7.4,1,1.4.6,2.1-.4.7-1.4,1-2.1.6Z"/>
      </g>
      <g>
        <path class="st13" d="M193.2,217.3l54.7,30.7c2.8,1.6,6.3,1.6,9.1,0l3.8-2.1c2.9-1.6,6.4-1.6,9.3.1l31.6,18.8c2.5,1.5,2.4,5.2-.2,6.6-2.7,1.4-2.7,5.2,0,6.6l7.2,4c2.6,1.5,5.8,1.5,8.5,0l50.2-28.2"/>
        <path class="st35" d="M192.5,218.7c-.7-.4-1-1.4-.6-2.1.4-.7,1.4-1,2.1-.6.7.4,1,1.4.6,2.1-.4.7-1.4,1-2.1.6Z"/>
        <path class="st35" d="M367.8,255.2c.7-.4,1-1.4.6-2.1-.4-.7-1.4-1-2.1-.6s-1,1.4-.6,2.1,1.4,1,2.1.6Z"/>
      </g>
      <g>
        <path class="st13" d="M163.1,234.3l54.2,30.3c3.3,1.9,7.3,1.8,10.6,0l12.7-7c4-2.3,8.8-2.3,12.8,0l34.7,19.5c2.4,1.3,2.4,4.8,0,6.2l-13.2,7.6c-2.4,1.4-2.3,4.8,0,6.2l32,17.9c3.9,2.2,8.6,2.1,12.5,0l72.6-41.6"/>
        <path class="st35" d="M162.4,235.7c-.7-.4-1-1.4-.6-2.1.4-.7,1.4-1,2.1-.6.7.4,1,1.4.6,2.1-.4.7-1.4,1-2.1.6Z"/>
        <path class="st35" d="M392.8,274.6c.7-.4,1-1.4.6-2.1-.4-.7-1.4-1-2.1-.6-.7.4-1,1.4-.6,2.1.4.7,1.4,1,2.1.6Z"/>
      </g>
      <g>
        <path class="st13" d="M102.9,267.7l54.2,30.3c3.3,1.9,7.3,1.8,10.6,0l12.7-7c4-2.3,8.8-2.3,12.8,0l18.5,10.1c2.4,1.3,2.4,4.8,0,6.2l-13.2,7.6c-2.4,1.4-2.3,4.8,0,6.2l18.2,11.3c3.9,2.2,8.6,2.1,12.5,0l53.8-31.2"/>
        <path class="st35" d="M102.3,269c-.7-.4-1-1.4-.6-2.1.4-.7,1.4-1,2.1-.6s1,1.4.6,2.1-1.4,1-2.1.6Z"/>
        <path class="st35" d="M284,302.2c.7-.4,1-1.4.6-2.1-.4-.7-1.4-1-2.1-.6-.7.4-1,1.4-.6,2.1.4.7,1.4,1,2.1.6Z"/>
      </g>
    </g>
  </g>
  <g>
    <g>
      <polygon class="st19" points="124.3 240.6 39.9 194.5 39.9 222.9 124.4 270.5 124.3 240.6"/>
      <polygon class="st35" points="206.3 222.9 206.3 194.5 124.3 240.6 124.4 270.5 206.3 222.9"/>
      <g>
        <path class="st16" d="M97.5,246.2l15.7,8.7v-8.8s-15.5-8.4-15.5-8.4c0,2.9,0,5.7-.2,8.6Z"/>
        <path class="st18" d="M75.5,225.5l-28.1-15.4v8.4l28.1,15.5c0-2.8,0-5.7,0-8.5Z"/>
        <path class="st16" d="M79.8,227.8c0,2.8,0,5.7,0,8.5l13.6,7.5c.1-2.9.2-5.7,0-8.6l-13.6-7.4Z"/>
      </g>
      <polygon class="st4" points="39.9 194.8 123.1 147.4 206.3 194.8 124.4 240.7 39.9 194.8"/>
      <path class="st16" d="M60.9,190.1l56.9-32.4c3.2-1.8,7.2-1.8,10.4,0l57.1,32.5c3.4,1.9,3.4,6.9,0,8.8l-56.1,31.4c-3.1,1.8-7,1.8-10.1,0l-58-31.5c-3.5-1.9-3.5-6.9,0-8.8Z"/>
      <line class="st39" x1="124.4" y1="240.7" x2="124.4" y2="269.9"/>
    </g>
    <g>
      <polygon class="st35" points="206.3 159.9 206.3 131.5 124.3 177.7 124.4 207.5 206.3 159.9"/>
      <polygon class="st21" points="124.3 177.7 39.9 131.5 39.9 159.9 124.4 207.5 124.3 177.7"/>
      <g>
        <path class="st16" d="M97.5,183.2l15.7,8.7v-8.8s-15.5-8.4-15.5-8.4c0,2.9,0,5.7-.2,8.6Z"/>
        <path class="st18" d="M75.5,162.5l-28.1-15.4v8.4l28.1,15.5c0-2.8,0-5.7,0-8.5Z"/>
        <path class="st16" d="M79.8,164.9c0,2.8,0,5.7,0,8.5l13.6,7.5c.1-2.9.2-5.7,0-8.6l-13.6-7.4Z"/>
      </g>
      <polygon class="st5" points="39.9 131.8 123.1 84.4 206.3 131.8 124.4 177.7 39.9 131.8"/>
      <path class="st16" d="M61,127.2l56.9-32.4c3.2-1.8,7.2-1.8,10.4,0l57.1,32.5c3.4,1.9,3.4,6.9,0,8.8l-56.1,31.4c-3.1,1.8-7,1.8-10.1,0l-58-31.5c-3.5-1.9-3.5-6.9,0-8.8Z"/>
      <line class="st39" x1="124.4" y1="177.7" x2="124.4" y2="207"/>
    </g>
    <g>
      <polygon class="st24" points="124.3 114.7 39.9 68.6 39.9 96.9 124.4 144.6 124.3 114.7"/>
      <polygon class="st35" points="206.3 96.9 206.3 68.6 124.3 114.7 124.4 144.6 206.3 96.9"/>
      <line class="st22" x1="124.3" y1="114.7" x2="124.4" y2="144.6"/>
      <g>
        <path class="st16" d="M97.5,120.3l15.7,8.7v-8.8s-15.5-8.4-15.5-8.4c0,2.9,0,5.7-.2,8.6Z"/>
        <path class="st18" d="M75.5,99.6l-28.1-15.4v8.4s28.1,15.5,28.1,15.5c0-2.8,0-5.7,0-8.5Z"/>
        <path class="st16" d="M79.8,101.9c0,2.8,0,5.7,0,8.5l13.6,7.5c.1-2.9.2-5.7,0-8.6l-13.6-7.4Z"/>
      </g>
      <polygon class="st1" points="39.9 68.8 123.1 21.5 206.3 68.8 124.4 114.7 39.9 68.8"/>
      <line class="st15" x1="124.4" y1="114.7" x2="124.4" y2="144.2"/>
      <path class="st16" d="M60.9,64.2l56.9-32.4c3.2-1.8,7.2-1.8,10.4,0l57.1,32.5c3.4,1.9,3.4,6.9,0,8.8l-56.1,31.4c-3.1,1.8-7,1.8-10.1,0l-58-31.5c-3.5-1.9-3.5-6.9,0-8.8Z"/>
    </g>
  </g>
  <g>
    <path class="st10" d="M260.1,24.5h200v135c0,5.5-4.5,10-10,10h-180c-5.5,0-10-4.5-10-10V24.5h0Z"/>
    <path class="st23" d="M270.1,4.5h180c5.5,0,10,4.5,10,10v10h-200v-10c0-5.5,4.5-10,10-10Z"/>
    <g>
      <line class="st12" x1="272.1" y1="14.5" x2="272.1" y2="14.5"/>
      <line class="st14" x1="282.6" y1="14.5" x2="287.9" y2="14.5"/>
      <line class="st12" x1="293.1" y1="14.5" x2="293.1" y2="14.5"/>
    </g>
    <g>
      <rect class="st35" x="274.1" y="45.5" width="128" height="13.6" rx="6.8" ry="6.8"/>
      <rect class="st35" x="274.1" y="74" width="92" height="13.6" rx="6.4" ry="6.4"/>
      <rect class="st35" x="377.1" y="73.6" width="55" height="13.6" rx="6.8" ry="6.8"/>
      <rect class="st35" x="274.1" y="102.4" width="152" height="13.6" rx="6.5" ry="6.5"/>
      <rect class="st35" x="274.1" y="130.9" width="172" height="13.6" rx="6.8" ry="6.8"/>
    </g>
  </g>
  <g>
    <g class="st40">
      <path class="st20" d="M181.1,237.2c-5.4,0-9.8-4.4-9.8-9.8V92.8h199.5v134.8c0,5.4-4.4,9.8-9.8,9.8h-180Z"/>
      <path class="st18" d="M370.6,93v134.5c0,5.2-4.3,9.5-9.5,9.5h-180c-5.2,0-9.5-4.3-9.5-9.5V93h199M371.1,92.5h-200v135c0,5.5,4.5,10,10,10h180c5.5,0,10-4.5,10-10V92.5h0Z"/>
    </g>
    <path class="st31" d="M181.1,72.5h180c5.5,0,10,4.5,10,10v10h-200v-10c0-5.5,4.5-10,10-10Z"/>
    <g>
      <line class="st12" x1="183.1" y1="82.5" x2="183.1" y2="82.5"/>
      <line class="st14" x1="193.6" y1="82.5" x2="198.9" y2="82.5"/>
      <line class="st12" x1="204.1" y1="82.5" x2="204.1" y2="82.5"/>
    </g>
    <g>
      <g>
        <path class="st41" d="M216.1,163h20.9s0-1.6,0-2.5c1.3-17.7,16-31.7,34-31.7,18.1,0,32.9,14.1,34.1,31.9,0,.7,0,2.2,0,2.2h20.9s0-1.5,0-2.2c-1.2-29.3-25.3-52.8-55-52.8-29.5,0-53.5,23.2-54.9,52.3,0,.9,0,2.7,0,2.7Z"/>
        <path class="st37" d="M326.1,163h-20.9s0-.5,0,0c0,18.9-15.3,34.1-34.1,34.1s-34.1-15.3-34.1-34.1,0,0,0,0h-20.9c0,30.4,24.6,55,55,55s55-24.6,55-55h0s0,0,0,0Z"/>
      </g>
      <g>
        <path class="st42" d="M278.9,137l-5.9,20.6h16.9l-26,31.7c2.3.6,4.7,1,7.2,1,15,0,27.2-12.2,27.2-27.2s-8.2-22.7-19.3-26Z"/>
        <path class="st42" d="M270.3,165.3h-16.6l8-27.8c-10.4,3.8-17.8,13.8-17.8,25.5s8.2,22.8,19.5,26.1l6.8-23.8Z"/>
      </g>
    </g>
  </g>
  <g>
    <polygon class="st30" points="371.2 262.2 371.2 219.2 403.8 237.5 403.8 281.1 371.2 262.2"/>
    <polygon class="st0" points="403.8 237.5 437.3 219.2 437.3 262.2 403.8 281.1 403.8 237.5"/>
    <path class="st35" d="M413.8,261.6v-11.8c3.3-4.2,4.7-6.1,7.5-9.9,2.7.9,4,1.4,7,2.2,0,4.7,0,7.1,0,11.8-2.8,3.8-4.2,5.7-7.1,9.5-2.9-.8-4.3-1.2-7.4-1.9Z"/>
    <polygon class="st3" points="437.3 219.3 404.3 200.5 371.2 219.3 403.8 237.6 437.3 219.3"/>
    <line class="st6" x1="403.8" y1="237.6" x2="403.8" y2="281.1"/>
  </g>
  <g>
    <polygon class="st27" points="313.2 294.2 313.2 216.2 345.8 234.5 345.8 313.1 313.2 294.2"/>
    <polygon class="st0" points="345.8 234.5 379.3 216.2 379.3 294.2 345.8 313.1 345.8 234.5"/>
    <path class="st35" d="M355.8,274.6v-11.8c3.3-4.2,4.7-6.1,7.5-9.9,2.7.9,4,1.4,7,2.2,0,4.7,0,7.1,0,11.8-2.8,3.8-4.2,5.7-7.1,9.5-2.9-.8-4.3-1.2-7.4-1.9Z"/>
    <polygon class="st3" points="379.3 216.3 346.3 197.5 313.2 216.3 345.8 234.6 379.3 216.3"/>
    <line class="st6" x1="345.8" y1="234.6" x2="345.8" y2="313.1"/>
  </g>
  <g>
    <path class="st26" d="M229.9,281.2c1.4-.4,2.9-.6,4.4-.4,2.3.3,4.3,1.6,4.7,4.1.4,3-2.1,4.6-4.4,5.8-1.9,1-3.5,1.9-5,3.4s-.3.3-.4.4c-.8.9-1.6,1.9-2,3.1-.6,1.8-.2,3.6.3,5.3.6,1.8,1.6,2.3,2.4,3.9,1.5,2.8,1.5,6.2,1.3,9.2,0,.9-.7,6-1.9,6-2.3,0-4.6,0-6.9-.4-4.9-.8-8.1-4.8-11.1-8.5-3.4-4.2-3-8.9-.9-13.5,3.8-8.5,10.4-16,19.7-18.5Z"/>
    <path class="st33" d="M263.4,281.2c-1.4-.4-2.9-.6-4.4-.4-2.3.3-4.3,1.6-4.7,4.1-.4,3,2.1,4.6,4.4,5.8,1.9,1,3.5,1.9,5,3.4.1.1.3.3.4.4.8.9,1.6,1.9,2,3.1.6,1.8.2,3.6-.3,5.3-.6,1.8-1.6,2.3-2.4,3.9-1.5,2.8-1.5,6.2-1.3,9.2,0,.9.7,6,1.9,6,2.3,0,4.6,0,6.9-.4,4.9-.8,8.1-4.8,11.1-8.5,3.4-4.2,3-8.9.9-13.5-3.8-8.5-10.4-16-19.7-18.5Z"/>
    <rect class="st41" x="225" y="282.1" width="42.7" height="58.6" rx="21.4" ry="21.4"/>
    <path class="st42" d="M253.4,339.2h-13.1c-8.1,0-14.8-6.7-14.8-14.8v-3.8l13.3.2,8.8-.2h20.5v3.8c0,8.1-6.7,14.8-14.8,14.8Z"/>
    <path class="st41" d="M235.4,279.1h21.9v1.4c0,6-4.9,10.9-10.9,10.9h0c-6,0-10.9-4.9-10.9-10.9v-1.4h0Z"/>
    <ellipse cx="246.3" cy="279.3" rx="10.6" ry="3.4"/>
    <path class="st28" d="M246.3,284.5c-2.9,0-5.6-.4-7.7-1.1-2.3-.8-3.5-2-3.5-3.3s1.2-2.5,3.5-3.3c2.1-.7,4.8-1.1,7.7-1.1s5.6.4,7.7,1.1c2.3.8,3.5,2,3.5,3.3s-1.2,2.5-3.5,3.3c-2.1.7-4.8,1.1-7.7,1.1Z"/>
    <g>
      <path class="st42" d="M260.7,266.4c0,7.9-7.6,16.1-14.3,16.1-7.2,0-14.3-8.2-14.3-16.1s6.4-14.3,14.3-14.3,14.3,6.4,14.3,14.3Z"/>
      <path class="st38" d="M232.1,266.4c-2.3-5.9,3.4-11.7,8.5-13.7,7.3-3.3,17.6.3,20.5,8,.7,1.9.7,4,0,5.7-2.4-5.7-9-7.8-14.5-8.1-5.2.2-12.3,2.8-14.5,8.1h0Z"/>
      <g>
        <ellipse class="st42" cx="260.7" cy="267.5" rx="4.2" ry="3.1" transform="translate(-106.1 337.8) rotate(-56.6)"/>
        <ellipse class="st42" cx="232" cy="267.5" rx="3.1" ry="4.2" transform="translate(-108.9 171.9) rotate(-33.4)"/>
      </g>
      <path class="st11" d="M232.2,263.8c-.9-.3-1.8-.3-2.6.2-1.4,1-1.6,3.3-.3,5.2.9,1.4,2.3,2.2,3.5,2.2,2,5.5,7.3,11.1,13.4,11.1s11.4-5.6,13.4-11.1c1.2,0,2.6-.8,3.5-2.2,1.3-1.9,1.1-4.3-.3-5.2-.7-.5-1.7-.5-2.6-.2"/>
    </g>
    <g>
      <path class="st42" d="M235.4,347.7c.7-.7,1.3-1.4,1.8-2.4.8-1.6,1.3-3.6.6-5.4-1.2-3.1-4.4-3.3-7.2-2.8-3,.4-5.9.9-8.9,1.3-2.2.3-4.6.9-6.3,2.5-2,1.9-2.6,5-1.6,7.5,1.1,2.8,4.1,4.2,7,4.1,4.4-.2,8.9-1,12.7-3.5.7-.4,1.3-.9,1.8-1.4Z"/>
      <path class="st9" d="M235.4,347.7c.7-.7,1.3-1.4,1.8-2.4.8-1.6,1.3-3.6.6-5.4-1.2-3.1-4.4-3.3-7.2-2.8-3,.4-5.9.9-8.9,1.3-2.2.3-4.6.9-6.3,2.5-2,1.9-2.6,5-1.6,7.5,1.1,2.8,4.1,4.2,7,4.1,4.4-.2,8.9-1,12.7-3.5.7-.4,1.3-.9,1.8-1.4Z"/>
      <path class="st35" d="M237.6,340.8s0,0-.1,0c-.9-1.2-2.2-2-3.6-2.3-1.3-.3-2.4,0-3.8,0-3,.1-6.1.7-9.1,1.2-1.4.2-2.6.7-3.9,1.2s-2,1.3-3,2c.2-.1.3-.9.5-1.1s.6-.5.9-.8c2.3-2.2,5.2-2.6,8.2-3.2,2.7-.5,5.4-.6,8.1-.8,2.4-.1,5,.5,5.9,3,.3.7.4,1.4.3,2.1-.1-.4-.3-.8-.5-1.2Z"/>
      <path class="st29" d="M269.7,315.5c.2,0,.4-.2.6-.2,4.6-1.6,10,0,13,3.6,3,3.5,3.7,8.6,2.1,12.8-3.4,9.2-15.9,13.6-24.9,16.3-3.4,1-7.2,2.1-10.7,2.4-4.7.3-9.5.7-14.1-.2-1.9-.4-3.7-1-5.3-2s-4.1-2.5-3.8-4.2c0-.4.2-.8.5-1.1.5-.6,1.2-1.5,1.7-2,1.2-1,2.8-1.5,4.1-2.3,1.8-1,3.9-1.4,5.7-2.3,2.5-1.2,4.9-2.6,7.3-4,4.7-3,9.1-6.4,13.5-9.8,1.7-1.3,3.5-2.7,5.3-4,1.6-1.1,3.2-2.3,5-3.1Z"/>
      <path class="st35" d="M229.3,348.3c.6.1,1.2.2,1.8.4,1.2.4,2.5.7,2.8-1,.1-1.1-.3-2.2-.6-3.2-.2-1-.6-2-1-2.9-.4-.9-.6-2.2-1.9-1.8-.7.2-1.9,1-2.4,1.4-.4.3-.7.6-1,1-.7.8-1.3,1.5-1,2.7.3,1.4,1.2,3,2.7,3.3.3,0,.5.1.8.2Z"/>
    </g>
    <g>
      <path class="st42" d="M256.7,348.8c-.9-.4-1.7-.9-2.5-1.7-1.3-1.3-2.4-3-2.3-4.9.1-3.3,3.1-4.5,5.9-5,2.9-.5,5.9-1.1,8.8-1.6,2.2-.4,4.7-.6,6.7.4,2.4,1.1,4.1,3.8,3.9,6.5-.2,3-2.5,5.3-5.3,6.2-4.2,1.2-8.7,1.9-13.1.8-.8-.2-1.5-.4-2.1-.7Z"/>
      <path class="st9" d="M256.7,348.8c-.9-.4-1.7-.9-2.5-1.7-1.3-1.3-2.4-3-2.3-4.9.1-3.3,3.1-4.5,5.9-5,2.9-.5,5.9-1.1,8.8-1.6,2.2-.4,4.7-.6,6.7.4,2.4,1.1,4.1,3.8,3.9,6.5-.2,3-2.5,5.3-5.3,6.2-4.2,1.2-8.7,1.9-13.1.8-.8-.2-1.5-.4-2.1-.7Z"/>
      <path class="st35" d="M252.4,343s0,0,0,0c.4-1.4,1.5-2.6,2.7-3.4,1.1-.7,2.3-.9,3.5-1.2,2.9-.8,6-1.3,9-1.8,1.4-.2,2.7-.2,4.1-.1s2.3.6,3.5,1c-.2,0-.6-.7-.9-.9s-.8-.3-1.2-.5c-2.9-1.3-5.8-.8-8.8-.4-2.7.4-5.3,1.1-8,1.9-2.4.6-4.6,2.1-4.6,4.7,0,.7.1,1.4.4,2.1,0-.4,0-.8.1-1.3Z"/>
      <path class="st32" d="M240.6,351c.7.1,1.3.2,2,.2,10.1.6,16.7.2,21.8-5.4.8-.9,1.5-2,1.2-3.1-.4-1.6-2.5-2.3-4.2-2.7-13.5-3.4-23.9-13.1-34.7-21-1.6-1.1-3.2-2.3-5-3.1-.2,0-.4-.2-.6-.2-4.6-1.6-10,0-13,3.5-3,3.5-3.7,8.6-2.1,12.8,3.2,8.6,14.4,14,23.2,16.9,1.1.4,2.2.6,3.3.8l8.1,1.3Z"/>
    </g>
    <path class="st17" d="M272.2,296.8c-2.4.5-3.7,3-4.7,4.9,0,0-.1-.1,0-.2.3-1.8.7-3.7,2.1-5,1.3-1.3,3.1-2.2,5-2.4"/>
    <g>
      <path class="st42" d="M272.9,315.3c.1-.9.1-1.8,0-2.8-.1-2-.8-3.8-2.2-5.2-1.1-1.1-2.6-1.3-4.1-1.4s-2.8-1.5-4.1-2.6c0,0-.2-.1-.2-.1-.1,0-.2,0-.4,0-.9.5-1.4,1.5-1.4,2.5,0,1.2.7,1.9,1.6,2.5.6.4.9,1.4.6,2.1-.5.9-1.6.7-2.4.7-.8,0-1.6-.2-2.3-.4-.3,0-.9-.3-1.2,0s-.3.7-.4.9c0,.5,0,.9,0,1.4,0,.1,0,.3,0,.4.2.5.9.8,1.4.9.5.2,1,.2,1.5.3.9,0,2.1,0,2.9.6.2.1.4.4.2.7,0,.2-.2.2-.4.3-1,.5-2.2,1.2-3.3,1.3-.7,0-1.3-.1-2,.1-.7.2-.9.9-.8,1.5,0,.4,0,.8.4,1.1.4.4,1,.5,1.5.7.5.1,1,.1,1.5.1s1.3-.2,1.4,0c.2.4.5.8.8,1.2,0,0,.2.2.3.2,0,0,.2,0,.3.1.3,0,.6,0,.9,0,.4,0,.8,0,1.2-.1.8-.1,1.6-.3,2.4-.6.7-.3,1.4-.6,2-1,.5-.3,1-.6,1.4-1s.9-.9,1.3-1.4c.7-.9,1.4-2.1,1.5-3.3Z"/>
      <path class="st8" d="M272.9,315.3c.1-.9.1-1.8,0-2.8-.1-2-.8-3.8-2.2-5.2-1.1-1.1-2.6-1.3-4.1-1.4s-2.8-1.5-4.1-2.6c0,0-.2-.1-.2-.1-.1,0-.2,0-.4,0-.9.5-1.4,1.5-1.4,2.5,0,1.2.7,1.9,1.6,2.5.6.4.9,1.4.6,2.1-.5.9-1.6.7-2.4.7-.8,0-1.6-.2-2.3-.4-.3,0-.9-.3-1.2,0s-.3.7-.4.9c0,.5,0,.9,0,1.4,0,.1,0,.3,0,.4.2.5.9.8,1.4.9.5.2,1,.2,1.5.3.9,0,2.1,0,2.9.6.2.1.4.4.2.7,0,.2-.2.2-.4.3-1,.5-2.2,1.2-3.3,1.3-.7,0-1.3-.1-2,.1-.7.2-.9.9-.8,1.5,0,.4,0,.8.4,1.1.4.4,1,.5,1.5.7.5.1,1,.1,1.5.1s1.3-.2,1.4,0c.2.4.5.8.8,1.2,0,0,.2.2.3.2,0,0,.2,0,.3.1.3,0,.6,0,.9,0,.4,0,.8,0,1.2-.1.8-.1,1.6-.3,2.4-.6.7-.3,1.4-.6,2-1,.5-.3,1-.6,1.4-1s.9-.9,1.3-1.4c.7-.9,1.4-2.1,1.5-3.3Z"/>
      <path class="st8" d="M256.6,320.4c.6.3,1.2.4,1.8.5,1,.2,2,.1,3-.1,1.6-.4,3-.9,4.4-1.8.1,0,.3-.3.4-.4"/>
      <path class="st8" d="M256.5,313.5c.5.1,1.2.1,1.6-.2.7-.5.5-1.6-.2-2.1-.4-.3-.8-.5-1.2-.6-.5.9-.6,1.8-.3,2.8Z"/>
      <path class="st8" d="M258.2,319.9c-.3.4-.8.5-1.3.6-.5,0-.7-.4-.8-.9,0-.4-.3-1.2.2-1.4s.4,0,.5,0c.4,0,.8.2,1.1.4.4.3.6.8.3,1.3s0,0,0,0Z"/>
      <path class="st8" d="M263.9,304.6c-.4.5-1,.7-1.6.3-.4-.2-.7-.6-.9-1"/>
    </g>
    <g>
      <path class="st42" d="M222.3,313.1c0,1.9.4,3.7,1.4,5.3.8,1.3,2.2,2.9,3.7,3.3s3.9.4,5.7-.1c.6-.2,1.2-.5,1.7-.8.4-.2.8-.4,1-.8s.3-.5.8-.6c.6-.1,1.8-.4,2.2-.8s.5-1.2.4-1.7c0-.4-.2-1.1-.7-1.2-.1,0-.3,0-.4,0-1,.1-2,.2-2.9,0-.4,0-1.6-.2-1.8-.6-.4-.7.9-.3,1-.3.8,0,1.6-.2,2.4-.4.7-.1,1.8-.3,2.1-1.1.3-.8.2-1.7,0-2.5,0,0,0-.1,0-.2,0,0-.2,0-.3,0-.6,0-1.2.2-1.9.3-1.2.3-4.4.1-4.9-1.3-.3-.9.7-1.3,1.3-1.7,1-.7,1.4-1.5,1.2-2.8-.2-1.4-1.1-3.2-2.4-1.7-.4.5-.9,1-1.4,1.4-1.6,1.4-4,1.6-5.7,2.9-1.6,1.3-2.6,3.4-2.7,5.5Z"/>
      <path class="st8" d="M233,321.7c-.3,0-.7.2-1,.2-1.3.2-2.7.2-4-.2-.9-.2-1.8-.7-2.5-1.3-.7-.6-1.3-1.3-1.8-2.1-2.1-3.4-2.1-8.2,1.3-10.8,1.7-1.3,4.1-1.4,5.7-2.9.5-.4.9-.9,1.4-1.4,1.4-1.5,2.2.4,2.4,1.7.2,1.3-.2,2.2-1.2,2.8s-1.6.8-1.3,1.7c.5,1.5,3.7,1.6,4.9,1.3.5-.1,1.4-.5,1.9-.3.8.4.6,2.1.3,2.7-.3.8-1.4,1-2.1,1.1-1,.2-2,.3-3,.3-.3,0-.7,0-.4.4.2.4,1.4.6,1.8.6,1,0,2,0,2.9,0,.1,0,.3,0,.4,0,.5.2.7.9.7,1.4.2,1.8-1.8,2.2-3.2,2.5,0,0-.1,0-.1,0,0,0,0,0,0,.1,0,.1,0,.2-.1.3-.8.9-1.8,1.5-2.9,1.8Z"/>
      <path class="st8" d="M231,304.4c0,.2,0,.2.1.3.1.2.3.6.6.5.4,0,.9-.7,1-1.1.2-.5,0-1-.2-1.4"/>
      <path class="st8" d="M239.1,311.3c-.9,0-2.1.5-2,1.6,0,.7,1,1,1.6.8"/>
      <path class="st8" d="M239.3,316.4c-.5,0-.9.2-1.4.4-.5.2-.9.7-.9,1.2,0,.7.7,1,1.3.9"/>
      <path class="st7" d="M231.7,311.3c.2.6.1,1.3-.3,1.8-.3.4-.6.9-.4,1.5.2.6.2,1.2,0,1.8s-.7,1-1,1.5c-.3.5,0,1-.1,1.6s-.3,1.1-.7,1.5"/>
      <path class="st8" d="M232.7,319.4c.5,0,1,0,1.4,0s1.5.1,2,0"/>
    </g>
    <path class="st17" d="M220.4,297.5c2.3.5,4,3.2,4.8,5.2-.4-.9,0-1.6,0-2.6s-.7-2.2-1.5-3c-.9-1-2.2-1.7-3.4-2.3"/>
    <g>
      <rect class="st34" x="226.7" y="296.9" width="39.5" height="25.8" rx="2.5" ry="2.5" transform="translate(492.9 619.5) rotate(-180)"/>
      <path class="st35" d="M227.7,297.5c-.6.5-.9,1.2-.9,1.9v3.2l30.7,20.1h6.2c.6,0,1.2-.2,1.6-.6l-37.6-24.6Z"/>
      <polygon class="st35" points="226.7 309.9 246.2 322.7 252.6 322.7 226.7 305.8 226.7 309.9"/>
      <polyline class="st25" points="226.7 311.4 226.7 308.2 248.9 322.7 244 322.7"/>
    </g>
    <circle class="st2" cx="246.5" cy="309.8" r="3.5"/>
  </g>
</svg>