<svg xmlns="http://www.w3.org/2000/svg" id="text" viewBox="0 0 50 50"><defs><style>.st0{fill:#a4c352}</style></defs><path d="M25 12.34c6.98 0 12.66 5.68 12.66 12.66S31.98 37.66 25 37.66 12.34 31.98 12.34 25 18.02 12.34 25 12.34m0-2.84C16.44 9.5 9.5 16.44 9.5 25S16.44 40.5 25 40.5 40.5 33.56 40.5 25 33.56 9.5 25 9.5" class="st0"/><path d="M25 4c11.58 0 21 9.42 21 21s-9.42 21-21 21S4 36.58 4 25 13.42 4 25 4m0-3C11.75 1 1 11.75 1 25s10.75 24 24 24 24-10.75 24-24S38.25 1 25 1" class="st0"/><circle cx="25" cy="25" r="7" class="st0"/><path d="m10.87 39.2 9.66-9.65" style="fill:none;stroke:#006d68;stroke-miterlimit:10;stroke-width:1px"/><path d="m11.26 38.19-7.25 1.79-5.49 5.49 6.08.01v6.08l5.49-5.5 1.8-7.25zm11.76-4.09 2.58-9.63-9.63 2.58z" style="fill:#006d68"/></svg>