<svg xmlns="http://www.w3.org/2000/svg" width="590" height="379" fill="none" viewBox="0 0 590 379"><path stroke="#aecc53" stroke-linecap="round" stroke-linejoin="round" stroke-width="1.08" d="M286.76 290.02H149c-10.74 0-19.53-8.79-19.53-19.53 0-10.78-8.74-19.53-19.53-19.53H39.6c-16.59 0-30.17-13.58-30.17-30.17s13.58-30.17 30.17-30.17h146.28m117.36 99.4H441c10.74 0 19.53-8.79 19.53-19.53 0-10.78 8.74-19.53 19.53-19.53h70.35c16.59 0 30.17-13.58 30.17-30.17s-13.58-30.17-30.17-30.17H404.13"/><path fill="#003834" d="M145.74 193.71H47.73l-28.25-45.07h99.39z"/><path stroke="#6fafac" stroke-linecap="round" stroke-linejoin="round" stroke-width=".62" d="M64.82 192.37H49.06c-8.95-14.13-17.91-28.26-26.86-42.4h15.76c8.95 14.13 17.91 28.26 26.86 42.4"/><path stroke="#6fafac" stroke-linecap="round" stroke-linejoin="round" stroke-width=".62" d="M80.59 192.37H64.82c-8.95-14.13-17.91-28.26-26.86-42.4h15.77c8.95 14.13 17.91 28.26 26.86 42.4"/><path stroke="#6fafac" stroke-linecap="round" stroke-linejoin="round" stroke-width=".62" d="M96.35 192.37H80.58c-8.95-14.13-17.91-28.26-26.86-42.4h15.77c8.95 14.13 17.91 28.26 26.86 42.4"/><path stroke="#6fafac" stroke-linecap="round" stroke-linejoin="round" stroke-width=".62" d="M112.12 192.37H96.35c-8.95-14.13-17.91-28.26-26.86-42.4h15.77c8.95 14.13 17.91 28.26 26.86 42.4"/><path stroke="#6fafac" stroke-linecap="round" stroke-linejoin="round" stroke-width=".62" d="M127.89 192.37h-15.77c-8.95-14.13-17.91-28.26-26.86-42.4h15.77c8.95 14.13 17.91 28.26 26.86 42.4"/><path stroke="#6fafac" stroke-linecap="round" stroke-linejoin="round" stroke-width=".62" d="M143.65 192.37h-15.76c-8.95-14.13-17.91-28.26-26.86-42.4h15.76c8.95 14.13 17.91 28.26 26.86 42.4"/><path stroke="#6fafac" stroke-linecap="round" stroke-linejoin="round" stroke-width=".77" d="M29.17 160.99c-2.79-4.41-4.19-6.61-6.98-11.02h94.59c2.79 4.41 4.19 6.61 6.98 11.02z"/><path stroke="#6fafac" stroke-linecap="round" stroke-linejoin="round" stroke-width=".77" d="M36.15 172.01c-2.79-4.41-4.19-6.61-6.98-11.02h94.59c2.79 4.41 4.19 6.61 6.98 11.02zm7.01 11.06c-2.79-4.41-4.19-6.61-6.98-11.02h94.59c2.79 4.41 4.19 6.61 6.98 11.02z"/><path stroke="#6fafac" stroke-linecap="round" stroke-linejoin="round" stroke-width=".8" d="M146.58 193.4H47.43c-9.39-14.81-18.77-29.63-28.16-44.44h99.15c9.39 14.81 18.77 29.63 28.16 44.44"/><path stroke="#6fafac" stroke-linecap="round" stroke-linejoin="round" stroke-width="2.08" d="M28.07 161.23v22.62"/><path fill="#003834" d="M260.18 195.4h-98l-28.26-45.06h99.39z"/><path stroke="#6fafac" stroke-linecap="round" stroke-linejoin="round" stroke-width="2.08" d="M142.52 162.92v22.62"/><path stroke="#6fafac" stroke-linecap="round" stroke-linejoin="round" stroke-width=".62" d="M179.27 194.07h-15.76c-8.95-14.13-17.91-28.26-26.86-42.4h15.76c8.95 14.13 17.91 28.26 26.86 42.4"/><path stroke="#6fafac" stroke-linecap="round" stroke-linejoin="round" stroke-width=".62" d="M195.03 194.07h-15.77c-8.95-14.13-17.91-28.26-26.86-42.4h15.77c8.95 14.13 17.91 28.26 26.86 42.4"/><path stroke="#6fafac" stroke-linecap="round" stroke-linejoin="round" stroke-width=".62" d="M210.8 194.07h-15.77c-8.95-14.13-17.91-28.26-26.86-42.4h15.77c8.95 14.13 17.91 28.26 26.86 42.4"/><path stroke="#6fafac" stroke-linecap="round" stroke-linejoin="round" stroke-width=".62" d="M226.56 194.07h-15.77c-8.95-14.13-17.91-28.26-26.86-42.4h15.77c8.95 14.13 17.91 28.26 26.86 42.4"/><path stroke="#6fafac" stroke-linecap="round" stroke-linejoin="round" stroke-width=".62" d="M242.33 194.07h-15.77c-8.95-14.13-17.91-28.26-26.86-42.4h15.77c8.95 14.13 17.91 28.26 26.86 42.4m15.77 0h-15.76c-8.95-14.13-17.91-28.26-26.86-42.4h15.76c8.95 14.13 17.91 28.26 26.86 42.4"/><path stroke="#6fafac" stroke-linecap="round" stroke-linejoin="round" stroke-width=".77" d="M143.62 162.69c-2.79-4.41-4.19-6.61-6.98-11.02h94.59c2.79 4.41 4.19 6.61 6.98 11.02z"/><path stroke="#6fafac" stroke-linecap="round" stroke-linejoin="round" stroke-width=".77" d="M150.6 173.7c-2.79-4.41-4.19-6.61-6.98-11.02h94.59c2.79 4.41 4.19 6.61 6.98 11.02zm7 11.06c-2.79-4.41-4.19-6.61-6.98-11.02h94.59c2.79 4.41 4.19 6.61 6.98 11.02z"/><path stroke="#6fafac" stroke-linecap="round" stroke-linejoin="round" stroke-width=".8" d="M261.02 195.09h-99.15c-9.39-14.81-18.77-29.63-28.16-44.44h99.15c9.39 14.81 18.77 29.63 28.16 44.44"/><path fill="#6fafac" d="M65.81 78.09h-2.69v119.9h2.69z"/><path fill="#6fafac" d="M64.46 82.79a4.47 4.47 0 1 0 0-8.94 4.47 4.47 0 0 0 0 8.94"/><path fill="#6fafac" d="M64.46 77.64c-1.09-4.23-1.66-8.46-2.06-12.7-.39-4.23-.57-8.46-.57-12.7 0-4.23.18-8.46.56-12.7.41-4.23.97-8.46 2.07-12.7 1.1 4.23 1.67 8.46 2.07 12.7.39 4.23.57 8.46.56 12.7 0 4.23-.18 8.46-.57 12.7-.41 4.23-.97 8.46-2.06 12.7m.5.29c-2.43 2.74-5.13 5.02-7.91 7.17a95 95 0 0 1-8.68 5.89 96 96 0 0 1-9.27 4.93c-3.2 1.45-6.49 2.77-10.05 3.63 2.43-2.74 5.13-5.03 7.91-7.18a94 94 0 0 1 8.69-5.89c2.99-1.8 6.08-3.45 9.27-4.92 3.2-1.45 6.49-2.77 10.04-3.64z"/><path fill="#6fafac" d="M64.76 77.93c3.56.87 6.84 2.19 10.04 3.64 3.19 1.47 6.28 3.12 9.27 4.92s5.89 3.76 8.69 5.89c2.78 2.15 5.48 4.44 7.91 7.18-3.56-.86-6.84-2.18-10.05-3.63A93 93 0 0 1 81.35 91a95 95 0 0 1-8.68-5.89c-2.78-2.15-5.48-4.44-7.91-7.17zM160.69 68h-2.63v129.99h2.63z"/><path fill="#6fafac" d="M159.38 72.98a4.74 4.74 0 1 0 0-9.48 4.74 4.74 0 0 0 0 9.48"/><path fill="#6fafac" d="M159.69 68.59c3.37 1.91 6.33 4.21 9.17 6.62 2.82 2.42 5.49 5 8.01 7.7 2.53 2.7 4.91 5.53 7.14 8.51 2.21 3 4.3 6.11 5.97 9.6-3.37-1.91-6.34-4.2-9.18-6.61-2.82-2.42-5.49-5-8.01-7.7s-4.91-5.54-7.13-8.52c-2.21-3-4.3-6.11-5.98-9.6z"/><path fill="#6fafac" d="M159.73 68.8c.12-3.87.76-7.56 1.56-11.2a100 100 0 0 1 3.06-10.68c1.2-3.5 2.59-6.93 4.19-10.29 1.61-3.36 3.39-6.65 5.7-9.77-.11 3.87-.75 7.57-1.55 11.2a100 100 0 0 1-3.06 10.68c-1.21 3.49-2.6 6.93-4.19 10.29-1.62 3.35-3.39 6.65-5.69 9.77z"/><path fill="#6fafac" d="M159.97 67.54c-2.79 2.69-5.82 4.89-8.94 6.93-3.12 2.02-6.34 3.85-9.65 5.52-3.3 1.66-6.69 3.15-10.18 4.45-3.5 1.28-7.07 2.4-10.9 3.02 2.78-2.7 5.82-4.89 8.93-6.94 3.12-2.02 6.34-3.85 9.65-5.51s6.7-3.15 10.19-4.44c3.5-1.27 7.07-2.4 10.9-3.03"/><path fill="#00524f" stroke="#6fafac" stroke-miterlimit="10" stroke-width="1.63" d="M460.12 189.78v-.04c0-.11.03-.21.06-.32L483.87 30h.44c.61-2.47 12.99-4.44 28.19-4.44s27.58 1.97 28.19 4.44h.17l23.69 159.42c.03.1.06.21.06.32v.09c-.34 3.91-23.59 6.72-52.24 6.72s-51.9-2.82-52.24-6.72h-.02v-.05z"/><path stroke="#6fafac" stroke-miterlimit="10" stroke-width="1.63" d="M465.08 159.42c4.69-3.49 14.02-4.45 19.16-1.15 6.64 4.28 5.39 14.74 5 21.56-.29 5.19-1.43 10.8-4.43 15.23"/><path stroke="#6fafac" stroke-miterlimit="10" stroke-width="1.63" d="M508.27 195.84c-2.06-6.92 1.07-14.21 1.58-21.41.55-7.66-2.2-17.73-7.01-23.75-5.34-6.69-11.55-10.16-16.74-12.12-5.92-2.24-14.06-1.18-18.81 2.88m93.6 24.87c-1.84-5.41-6.03-9.56-11.19-12.38-1.6-.88-3.34-1.61-5.18-1.74-3.9-.26-8.1 2.49-9.73 5.85-1.78 3.68.01 6.65 2.14 9.98 2.15 3.36 11.67 13.74 7.33 27.47"/><path stroke="#6fafac" stroke-miterlimit="10" stroke-width="1.63" d="M557.68 143.76c-1.87-3.26-2.45-5.29-6.29-6.79-3.45-1.34-7.33-1.67-10.98-1.05-6.39 1.09-12.03 4.76-16.55 9.21-1.45 1.42-2.82 2.97-3.6 4.8-.94 2.22-.93 4.72-.49 7.07 1.04 5.66 4.36 10.66 6.82 15.9 2.46 5.25 4.06 11.42 1.57 16.65-1.23 2.6-2.35 4.6-4.34 6.72m-1.88-169.83c-4.75 4.54-8.22 10.67-7.6 17.32.19 2.07.9 4.07 1.09 6.13.36 3.97-1.37 8.09-4.59 10.61s-7.87 3.3-11.75 1.86c-7.9-2.95-9.46-12.79-17.38-16.2"/><path stroke="#6fafac" stroke-miterlimit="10" stroke-width="1.63" d="M540.72 32.55c-4.76 3.23-8.39 7.97-10.17 13.29-2.03 6.06-1.71 12.73-4.17 18.65-2.5 6.03-7.94 10.87-14.4 12.83s-13.82 1-19.5-2.54c-4.16-2.6-9.22-7.03-14.07-8.08m66.75-7.77c-4.72 1-7.32 5.25-9.28 9.66s-3.21 9.24-6.21 13.01c-2.29 2.88-5.46 4.95-7.86 7.74-2.08 2.42-8.35 10.37-8.23 19.08.13 9.08 9.32 13.8 16.81 13.77 4.3-.02 8.64-1.55 11.75-4.53 3.38-3.24 5.3-8.08 9.44-10.25"/><path stroke="#6fafac" stroke-miterlimit="10" stroke-width="1.63" d="M548.06 73.21c-2.59.55-4.01 2.88-5.09 5.3s-1.76 5.07-3.41 7.14c-1.26 1.58-3 2.71-4.31 4.25-1.14 1.33-4.58 5.69-4.51 10.46.07 4.98 5.11 7.57 9.22 7.55 2.36 0 4.74-.85 6.44-2.48 1.85-1.78 2.91-4.43 5.18-5.62m-74.61-20.75c.85 2.01 2.7 3.41 4.55 4.56 5.82 3.61 12.62 5.84 17.51 10.65 6.57 6.46 8.36 17.28 4.2 25.5-1.3 2.58-3.14 4.91-5.5 6.58-1.81 1.28-3.89 2.14-5.99 2.85-3.65 1.22-7.53 2-11.36 1.56-3.83-.43-7.61-2.19-9.92-5.28"/><path stroke="#6fafac" stroke-miterlimit="10" stroke-width="1.63" d="M475.02 91.57c1.94 3.09 6.64 4.32 9.63 6.4 2.66 1.85 4.28 5 4.56 8.23.35 4.06-1.28 9.29-5.39 11.06-4.31 1.86-9.97-1.97-11.82-5.8"/><path fill="#006e69" d="M390.44 196.55h120.47v-41.49H390.44z"/><path fill="#00524f" stroke="#6fafac" stroke-miterlimit="10" stroke-width="1.7" d="M438 174.38h20.67v-45.26H438zm-31.31 0h21.34v-45.26h-21.34z"/><path fill="#003834" d="M390.44 197.99h120.47v-5.97H390.44z"/><path fill="#6fafac" d="M404.49 182.42h56.37V170.6h-56.37z"/><path stroke="#aecc53" stroke-linecap="round" stroke-linejoin="round" stroke-width="1.08" d="M307.51 297.47v22.78c0 12.53-10.25 22.78-22.78 22.78h-77.71m113.5-45.56v22.78c0 12.53 10.25 22.78 22.78 22.78h87.17"/><path fill="#003834" d="M415.44 260.73H212.59c-10.482 0-18.98 8.498-18.98 18.98v.01c0 10.482 8.498 18.98 18.98 18.98h202.85c10.482 0 18.98-8.498 18.98-18.98v-.01c0-10.482-8.498-18.98-18.98-18.98"/><path stroke="#aecc53" stroke-linecap="round" stroke-linejoin="round" stroke-width="2.08" d="M343.53 89.13c0 12.96-13.07 23.47-29.19 23.47s-29.19-10.51-29.19-23.47m58.38 38.73c0 12.96-13.07 23.47-29.19 23.47s-29.19-10.51-29.19-23.47"/><path stroke="#acca53" stroke-linecap="round" stroke-linejoin="round" stroke-width="1.83" d="m237.55 274.36 15.42-120.08V72.01"/><path stroke="#acca53" stroke-linecap="round" stroke-linejoin="round" stroke-width="1.83" d="m240.92 274.36 15.42-120.08V72.01m23.55 202.65-15.42-120.08V72.31"/><path stroke="#acca53" stroke-linecap="round" stroke-linejoin="round" stroke-width="1.83" d="M276.52 274.66 261.1 154.58V72.31"/><path stroke="#acca53" stroke-linecap="round" stroke-linejoin="round" stroke-width="1.83" d="M284.43 79.27h-51.42l-10.89-7.26h73.2zm-51.42 0v10.89m31.46 18.75h-12.1l-19.66 7.86h52.02zm-31.46 7.86v10.89m52.02-10.89v10.89m-20.56 18.76h-12.1l-19.66 7.86h52.02zm-31.46 7.86v10.89m52.02-10.89v10.89m0-85.9v10.89m63.11 184.2 15.42-120.08V72.01"/><path stroke="#acca53" stroke-linecap="round" stroke-linejoin="round" stroke-width="1.83" d="m351.5 274.36 15.43-120.08V72.01m23.55 202.65-15.43-120.08V72.31"/><path stroke="#acca53" stroke-linecap="round" stroke-linejoin="round" stroke-width="1.83" d="m387.11 274.66-15.42-120.08V72.31"/><path stroke="#acca53" stroke-linecap="round" stroke-linejoin="round" stroke-width="1.83" d="M395.02 79.27H343.6l-10.89-7.26h73.2zm-51.42 0v10.89m31.45 18.75h-12.09l-19.66 7.86h52.02zm-31.45 7.86v10.89m52.02-10.89v10.89m-20.57 18.76h-12.09l-19.66 7.86h52.02zm-31.45 7.86v10.89m52.02-10.89v10.89m0-85.9v10.89"/><path fill="#003834" d="M94.59 332.43H57.3v21.01h37.29z"/><path fill="#006e69" stroke="#006e69" stroke-linecap="round" stroke-linejoin="round" stroke-width=".88" d="M114.72 316.43H77.43l-20.13 16h37.29z"/><path stroke="#6fafac" stroke-linecap="round" stroke-linejoin="round" stroke-width=".73" d="m115.55 337.46-21.21 15.98H57.3m58.25-16.01v-21M57.3 353.44v-21.01m37.29 21.01v-21.01m-.25 0H57.3l21.41-15.98h36.84z"/><path fill="#6fafac" d="m66.66 348.33 8.38-13.82c.41-.68 1.4-.68 1.81 0l8.38 13.82c.43.71-.08 1.61-.91 1.61H67.57c-.83 0-1.34-.9-.91-1.61"/><path fill="#003834" d="m77.1 338.96-2.04 4.96-.81-.76 3.01-.14.98-.05c-.23.34-3.32 4.97-3.64 5.46l2.3-5.17.48.71-2.95.61-.8.17c0-.51 1.27-5.29 1.27-5.94l.87.15zm67.18-6.53h-37.29v21.01h37.29zm20.14-16h-37.3l-20.13 16h37.29z"/><path stroke="#6fafac" stroke-linecap="round" stroke-linejoin="round" stroke-width=".73" d="m165.25 337.46-21.22 15.98h-37.04m58.26-16.01v-21m-58.26 37.01v-21.01m37.29 21.01v-21.01"/><path fill="#006e69" stroke="#6fafac" stroke-linecap="round" stroke-linejoin="round" stroke-width=".88" d="M144.03 332.43h-37.04l21.41-15.98h36.85z"/><path fill="#6fafac" d="m116.35 348.33 8.38-13.82c.41-.68 1.4-.68 1.81 0l8.38 13.82c.43.71-.08 1.61-.91 1.61h-16.75c-.83 0-1.34-.9-.91-1.61"/><path fill="#003834" d="m126.8 338.96-2.04 4.96-.81-.76 3.01-.14.98-.05c-.23.34-3.32 4.97-3.64 5.46l2.3-5.17.48.71-2.95.61-.8.17c0-.51 1.27-5.29 1.27-5.94l.87.15zm67.18-6.53h-37.29v21.01h37.29zm20.13-16h-37.29l-20.13 16h37.29z"/><path stroke="#6fafac" stroke-linecap="round" stroke-linejoin="round" stroke-width=".73" d="m214.94 337.46-21.21 15.98h-37.04m58.25-16.01v-21m-58.25 37.01v-21.01m37.29 21.01v-21.01"/><path fill="#006e69" stroke="#6fafac" stroke-linecap="round" stroke-linejoin="round" stroke-width=".88" d="M193.73 332.43h-37.04l21.41-15.98h36.84z"/><path fill="#6fafac" d="m166.05 348.33 8.38-13.82c.41-.68 1.4-.68 1.81 0l8.38 13.82c.43.71-.08 1.61-.91 1.61h-16.75c-.83 0-1.34-.9-.91-1.61"/><path fill="#003834" d="m176.49 338.96-2.04 4.96-.81-.76 3.01-.14.98-.05c-.23.34-3.32 4.97-3.64 5.46l2.3-5.17.48.71-2.95.61-.8.17c0-.51 1.27-5.29 1.27-5.94l.87.15zm273.89-6.53h-37.29v21.01h37.29z"/><path fill="#006e69" stroke="#006e69" stroke-linecap="round" stroke-linejoin="round" stroke-width=".88" d="M470.51 316.43h-37.29l-20.13 16h37.29z"/><path stroke="#6fafac" stroke-linecap="round" stroke-linejoin="round" stroke-width=".73" d="m471.34 337.46-21.21 15.98h-37.04m58.25-16.01v-21m-58.25 37.01v-21.01m37.29 21.01v-21.01m-.25 0h-37.04l21.41-15.98h36.84z"/><path fill="#6fafac" d="m422.45 348.33 8.38-13.82c.41-.68 1.4-.68 1.81 0l8.38 13.82c.43.71-.08 1.61-.91 1.61h-16.75c-.83 0-1.34-.9-.91-1.61"/><path fill="#003834" d="m432.89 338.96-2.04 4.96-.81-.76 3.01-.14.98-.05c-.23.34-3.32 4.97-3.64 5.46l2.3-5.17.48.71-2.95.61-.8.17c0-.51 1.27-5.29 1.27-5.94l.87.15zm67.18-6.53h-37.29v21.01h37.29zm20.14-16h-37.29l-20.14 16h37.29z"/><path stroke="#6fafac" stroke-linecap="round" stroke-linejoin="round" stroke-width=".73" d="m521.04 337.46-21.22 15.98h-37.04m58.26-16.01v-21m-58.26 37.01v-21.01m37.29 21.01v-21.01"/><path fill="#006e69" stroke="#6fafac" stroke-linecap="round" stroke-linejoin="round" stroke-width=".88" d="M499.82 332.43h-37.04l21.41-15.98h36.85z"/><path fill="#6fafac" d="m472.15 348.33 8.38-13.82c.41-.68 1.4-.68 1.81 0l8.38 13.82c.43.71-.08 1.61-.91 1.61h-16.75c-.83 0-1.34-.9-.91-1.61"/><path fill="#003834" d="m482.59 338.96-2.04 4.96-.81-.76 3.01-.14.98-.05c-.23.34-3.32 4.97-3.64 5.46l2.3-5.17.48.71-2.95.61-.8.17c0-.51 1.27-5.29 1.27-5.94l.87.15zm67.18-6.53h-37.29v21.01h37.29zm20.13-16h-37.29l-20.13 16h37.29z"/><path stroke="#6fafac" stroke-linecap="round" stroke-linejoin="round" stroke-width=".73" d="m570.73 337.46-21.21 15.98h-37.04m58.25-16.01v-21m-58.25 37.01v-21.01m37.29 21.01v-21.01"/><path fill="#006e69" stroke="#6fafac" stroke-linecap="round" stroke-linejoin="round" stroke-width=".88" d="M549.52 332.43h-37.04l21.41-15.98h36.84z"/><path fill="#6fafac" d="m521.84 348.33 8.38-13.82c.41-.68 1.4-.68 1.81 0l8.38 13.82c.43.71-.08 1.61-.91 1.61h-16.75c-.83 0-1.34-.9-.91-1.61"/><path fill="#003834" d="m532.28 338.96-2.04 4.96-.81-.76 3.01-.14.98-.05c-.23.34-3.32 4.97-3.64 5.46l2.3-5.17.48.71-2.95.61-.8.17c0-.51 1.27-5.29 1.27-5.94l.87.15z"/></svg>