<svg xmlns="http://www.w3.org/2000/svg" width="322" height="837" fill="none" viewBox="0 0 322 837"><g stroke="#adcb53" stroke-miterlimit="10" clip-path="url(#a)" opacity=".5"><path d="M447.355 60.269c-24.565-6.58-57.346.1-80.413 8.988-32.924 12.733-63.776 40.586-73.095 74.769-11.48 42.509-35.353 55.497-67.707 82.17-25.323 20.935-46.408 46.778-60.115 76.668-51.226 112.135-17.195 228.249 60.311 317.473 25.768 29.66 53.81 57.206 80.258 86.348 19.873 21.939 56.761 51.384 54.784 83.094"/><path d="M517.703 441.453c-21.118-19.769-45.967-35.859-63.923-44.31-41.111-19.342-108.533-25.575-145.563 5.718-47.313 39.949-35.702 101.342-.102 145.803 26.84 33.405 67.972 44.257 110.735 43.495 37.716-.626 77.888-7.977 109.752-29.171 15.618-10.38 30.39-25.427 31.55-44.186 1.7-26.57-17.915-54.37-42.449-77.349Z"/><path d="M408.129 640.224c50.88 3.987 111.586-4.277 155.612-31.292 17.932-11.053 40.816-31.867 42.114-54.791 6.069-111.699-115.273-236.978-224.89-239.967-60.501-1.647-122.64 24.495-149.179 81.753-20.036 43.156-21.63 95.304-1.355 138.401 30.724 65.374 105.547 100.235 177.698 105.896Z"/></g><defs><clipPath id="a"><path fill="#fff" d="m353.388.62 435.27 273.568L435.27 836.456 0 562.888z"/></clipPath></defs></svg>