<svg width="322" height="837" viewBox="0 0 322 837" fill="none" xmlns="http://www.w3.org/2000/svg">
<g opacity="0.5" clip-path="url(#clip0_8058_5306)">
<path d="M447.355 60.269C422.79 53.6882 390.009 60.3686 366.942 69.257C334.018 81.9896 303.166 109.843 293.847 144.026C282.367 186.535 258.494 199.523 226.14 226.196C200.817 247.131 179.732 272.974 166.025 302.864C114.799 414.999 148.83 531.113 226.336 620.337C252.104 649.997 280.146 677.543 306.594 706.685C326.467 728.624 363.355 758.069 361.378 789.779" stroke="#ADCB53" stroke-miterlimit="10"/>
<path d="M517.703 441.453C496.585 421.684 471.736 405.594 453.78 397.143C412.669 377.801 345.247 371.568 308.217 402.861C260.904 442.81 272.515 504.203 308.115 548.664C334.955 582.069 376.087 592.921 418.85 592.159C456.566 591.533 496.738 584.182 528.602 562.988C544.22 552.608 558.992 537.561 560.152 518.802C561.852 492.232 542.237 464.432 517.703 441.453Z" stroke="#ADCB53" stroke-miterlimit="10"/>
<path d="M408.129 640.224C459.009 644.211 519.715 635.947 563.741 608.932C581.673 597.879 604.557 577.065 605.855 554.141C611.924 442.442 490.582 317.163 380.965 314.174C320.464 312.527 258.325 338.669 231.786 395.927C211.75 439.083 210.156 491.231 230.431 534.328C261.155 599.702 335.978 634.563 408.129 640.224Z" stroke="#ADCB53" stroke-miterlimit="10"/>
</g>
<defs>
<clipPath id="clip0_8058_5306">
<rect width="514.1" height="664.1" fill="white" transform="translate(353.388 0.619629) rotate(32.1495)"/>
</clipPath>
</defs>
</svg>
