<svg width="56" height="50" viewBox="0 0 56 50" fill="none" xmlns="http://www.w3.org/2000/svg">
<path d="M51 34.8301H19.73V46.7001H51V34.8301Z" fill="#A4C352"/>
<path d="M48.04 39.03H39.48V42.48H48.04V39.03Z" fill="#006D68"/>
<path d="M51 19.0601H19.73V30.9301H51V19.0601Z" fill="#A4C352"/>
<path d="M48.04 23.27H39.48V26.72H48.04V23.27Z" fill="#006D68"/>
<path d="M51 3.30005H19.73V15.17H51V3.30005Z" fill="#A4C352"/>
<path d="M48.04 7.51001H39.48V10.96H48.04V7.51001Z" fill="#006D68"/>
<path d="M34.45 33.5V16.5L19.73 8L5 16.5V33.5L19.73 42L34.45 33.5Z" fill="#006D68"/>
<path d="M27.05 25.2299C27.08 29.2799 23.83 32.5799 19.78 32.6199C15.73 32.6499 12.43 29.3999 12.39 25.3499C12.36 21.2999 19.63 14.4199 19.63 14.4199C19.63 14.4199 27.01 21.1899 27.05 25.2299Z" fill="#A4C352"/>
<path d="M19.71 23.3899L19.81 35.5899" stroke="white" stroke-width="1.5" stroke-linecap="round" stroke-linejoin="round"/>
</svg>
