<svg xmlns="http://www.w3.org/2000/svg" width="306.91" height="302.63" viewBox="0 0 306.91 302.63"><g data-name="Layer 1" style="isolation:isolate"><path d="M202.36 9c-13.2-4.95-27-9.09-41.07-9-19 .08-37 7.75-54.32 15.64C75.16 30.16 50.08 52.91 24 76 2.9 94.71-.57 133.5.07 159.85c.08 3.18.15 6.37.3 9.56.44 9.83 1.5 19.62 4.94 28.78 5.52 14.69 18.33 27.08 28 39.17 10.47 13.08 20.73 24 34.82 33.34 16 10.58 38.78 28.74 58.47 30.41 24.78 2.1 43.75 3.11 67.57-4.32 25.37-7.91 53.17-19.45 71.43-39.67 9.57-10.61 15.82-25.75 22.95-38.08 13.9-24 19.66-50 16.09-77.65-3.75-28.95-15.12-51.13-27.11-77-15.41-33.23-42.47-43.1-75.17-55.39" style="fill:#aecc53;opacity:.2"/><path d="M96.16 232a3.46 3.46 0 0 0-3.55-.88c-1.59.32-3-.22-4.56-.55-1.34-.29-2.68.56-3.77 1.42a9.71 9.71 0 0 0-3.7 7.59c0 3.77 2.24 6 4.5 8.76a3.8 3.8 0 0 0 1.2 1.07c.89.42 2 .07 2.93.17.63.07 1.23.32 1.87.35 1.48.07 2.7-1.08 3.73-2.14 2.4-2.47 5-4.52 5-8.21a9.66 9.66 0 0 0-3.65-7.58m-9.61 3.55a1.4 1.4 0 0 0-.28.2 4.46 4.46 0 0 0-1.53 2c-.17.43-.8 2-1.4 1.19-.87-1.18.56-3.93 1.57-4.63a1.4 1.4 0 0 1 1-.29 1 1 0 0 1 .87.88c.02.42-.06.49-.23.6Z" style="fill:#aecc53;mix-blend-mode:multiply"/><path d="M96.16 232a3.46 3.46 0 0 0-3.55-.88c-1.59.32-3-.22-4.56-.55-1.34-.29-2.68.56-3.77 1.42a9.71 9.71 0 0 0-3.7 7.59c0 3.77 2.24 6 4.5 8.76a3.8 3.8 0 0 0 1.2 1.07c.89.42 2 .07 2.93.17.63.07 1.23.32 1.87.35 1.48.07 2.7-1.08 3.73-2.14 2.4-2.47 5-4.52 5-8.21a9.66 9.66 0 0 0-3.65-7.58" style="fill:none;stroke:#ededed;stroke-linecap:round;stroke-linejoin:round;stroke-width:.236386938991493px"/><path d="M89.64 225.67c.94.63 1.47 3.14 1.47 3.14s-2.52.47-3.46-.17-1.55-3.19-1.55-3.19 2.59-.45 3.54.22" style="fill:#3c3c3b"/><path d="M90.68 230.86c0-1.25.13-2.9 1.7-3.12" style="fill:none;stroke:#3c3c3b;stroke-linecap:round;stroke-linejoin:round;stroke-width:.514489412307739px"/><path d="M117.16 232a3.46 3.46 0 0 0-3.55-.88c-1.59.32-3-.22-4.56-.55-1.34-.29-2.68.56-3.77 1.42a9.71 9.71 0 0 0-3.7 7.59c0 3.77 2.24 6 4.5 8.76a3.8 3.8 0 0 0 1.2 1.07c.89.42 2 .07 2.93.17.63.07 1.23.32 1.87.35 1.48.07 2.7-1.08 3.73-2.14 2.4-2.47 5-4.52 5-8.21a9.66 9.66 0 0 0-3.65-7.58m-9.61 3.55a1.4 1.4 0 0 0-.28.2 4.46 4.46 0 0 0-1.53 2c-.17.43-.8 2-1.4 1.19-.87-1.18.56-3.93 1.57-4.63a1.4 1.4 0 0 1 1-.29 1 1 0 0 1 .87.88c.02.42-.06.49-.23.6Z" style="fill:#aecc53;mix-blend-mode:multiply"/><path d="M117.16 232a3.46 3.46 0 0 0-3.55-.88c-1.59.32-3-.22-4.56-.55-1.34-.29-2.68.56-3.77 1.42a9.71 9.71 0 0 0-3.7 7.59c0 3.77 2.24 6 4.5 8.76a3.8 3.8 0 0 0 1.2 1.07c.89.42 2 .07 2.93.17.63.07 1.23.32 1.87.35 1.48.07 2.7-1.08 3.73-2.14 2.4-2.47 5-4.52 5-8.21a9.66 9.66 0 0 0-3.65-7.58" style="fill:none;stroke:#ededed;stroke-linecap:round;stroke-linejoin:round;stroke-width:.236386938991493px"/><path d="M110.64 225.67c.94.63 1.47 3.14 1.47 3.14s-2.52.47-3.46-.17-1.55-3.19-1.55-3.19 2.59-.45 3.54.22" style="fill:#3c3c3b"/><path d="M111.68 230.86c0-1.25.13-2.9 1.7-3.12" style="fill:none;stroke:#3c3c3b;stroke-linecap:round;stroke-linejoin:round;stroke-width:.514489412307739px"/><path d="M152.84 241.32s-.12 3.42-.35 5.09a37.5 37.5 0 0 1-74.44-1.08c-.14-1.32-.21-4-.21-4Z" style="fill:#fff"/><path d="M125.34 205.32h55v71h-55z" style="fill:none;stroke:#aecc53;stroke-linecap:round;stroke-linejoin:round;stroke-width:1.5px"/><path d="M138 205.94c3.89 3.83-.7 10.7-4.92 12s-7.32 3-7.93 7.71m.07 11.79a50 50 0 0 1 7.4-4.07c2.53-1.08 5.3-.86 7.9-1.82 10-3.7 13.1-16.69 10.87-25.83M126 244.11c1.65-2.1 6-5.54 9-4.74 5.36 1.48 3.24 9.41 1.27 12.45a55.3 55.3 0 0 1-9.59 11.27c-.59.51-.1.08-.7.59m36.14-56.99a25.18 25.18 0 0 1-8.28 25c-1.62 1.32-3.4 2.44-4.91 3.89-5.93 5.68-4.58 15.27-7.93 22.42a47.74 47.74 0 0 1-15.08 17.9m19.45-.22c1.47-3.79 3-7.64 3.42-11.68.38-3.37 0-6.78.26-10.17s1.12-6.91 3.51-9.32a5 5 0 0 1 3.58-1.69c2.64.1 5.52 3.77 7 5.73a24.15 24.15 0 0 1 4.15 10.79c.84 5.4.52 10.9.52 16.34m2.1-70a39.62 39.62 0 0 1-3.52 24.4c-1 2-2.22 4-2.35 6.3-.25 4.11 3 7.45 5.24 10.92 5.27 8.24 5.27 19 4.39 28.38m6.25-53.05-3.56 7.75a19.8 19.8 0 0 0-1.75 4.88c-.83 4.82 2.1 11.48 5.43 14.91" style="fill:none;stroke:#aecc53;stroke-linecap:round;stroke-linejoin:round;stroke-width:1.5px"/><path d="M153.78 275.45q.21-4.9.86-9.77c.2-1.45.68-3.19 2.11-3.53a2.7 2.7 0 0 1 2.16.61c3.34 2.52 2.94 9 2.77 12.66" style="fill:none;stroke:#aecc53;stroke-linecap:round;stroke-linejoin:round;stroke-width:1.5px"/><g style="mix-blend-mode:multiply"><path d="M93 129.23v.09l-3.27 12.11a22.42 22.42 0 0 1-33.23 13.36l-10.91-6.58a8 8 0 1 1 8.28-13.72l10.91 6.58a6.39 6.39 0 0 0 9.48-3.81l3.27-12.11A8 8 0 0 1 93 129.23" style="fill:#aecc53"/></g><path d="M91 105.89c-2.33 2.67-2.92 5.64-3.51 9a11 11 0 0 1-.38 1.68 13 13 0 0 0-.51 1.43 3.32 3.32 0 0 0 1.4 3.47 4.43 4.43 0 0 0 4.45-.07c2.63-1.42 4-4.07 5.42-6.52a3.8 3.8 0 0 1 1.75-1.64c.15-.06.32-.15.31-.31a.27.27 0 0 0-.08-.16 1.43 1.43 0 0 0-1.35-.28 6 6 0 0 0-2.74 1.63 4 4 0 0 1-3 .6c.46 0 1.62-4.29 1.77-4.73a39 39 0 0 0 4.56-.94c.82-.37 3.12-.9 2.33-2.31a.56.56 0 0 0-.47-.2l-9.15-1a.85.85 0 0 0-.42 0 .77.77 0 0 0-.38.35" style="fill:#fff;stroke:#3c3c3b;stroke-linecap:round;stroke-linejoin:round;stroke-width:.926012262355367px"/><path d="m56.89 267.84 24.57.29-13-9-13.47-67.84-37.94-3.16-10.16 79.71 23.37.29-10.3-7.77 19.22-49.05z" style="fill:#006d68;stroke:#006d68;stroke-linecap:round;stroke-linejoin:round;stroke-width:.697014844844262px"/><path d="M19.85 189.21c10 5.54 22.48 5.71 33.77 3.26a1.26 1.26 0 0 0 1.2-1.53c.31-10.09 1.87-19.88 3.5-29.82a49.76 49.76 0 0 0-2-25.62c-3.11-9-15.85-10.18-22.78-5.16-12.34 8.95-12 25.94-11.68 39.7a16.4 16.4 0 0 1-.22 3.9c-1.05 4.61-3.16 8.87-5 13.23a34 34 0 0 0 3.21 2.04" style="fill:#fff"/><path d="M56.1 176a43 43 0 0 0 .34 6.59c1.28 9.65 3.77 19.09 5.61 28.64 1.2 6.2 3.48 13.22 3.29 19.59 0 .4-45 7-58-6 1.81-4.36 8-83 26.18-94.48 7.43-4.68 17.34-4 22 4 3.56 6 4.37 13.94 3.42 20.81S56.26 168.93 56.1 176" style="fill:#fff"/><path d="M26.3 139.22c2.17-4.1 4.57-7.2 7.22-8.88 7.43-4.68 17.34-4 22 4 3.56 6 4.37 13.94 3.42 20.81S56.26 168.93 56.1 176a43 43 0 0 0 .34 6.59c1.28 9.65 3.77 19.09 5.61 28.64 1.2 6.2 3.48 13.22 3.29 19.59 0 .4-45 7-58-6 1-2.4 3.32-27.32 8.24-51.14" style="fill:none;stroke:#3c3c3b;stroke-linecap:round;stroke-linejoin:round"/><circle cx="48.67" cy="114.9" r="14.77" style="fill:#3c3c3b"/><path d="M52 103.93c2.57-.66 5.37-.8 6.89.58 0-5.35-5-8.85-9.7-10.22a17.52 17.52 0 0 0-14.65 2.34c-1.43 1-3.25 1.86-4.86 1.19-2.39-1-2.81-4.08-5.2-5.16a8.11 8.11 0 0 0-7.94 1c-3 2.47-4.28 7.94-2.45 11.42a6.19 6.19 0 0 0 4.58 3.48c2.56.44 5.22-2 7.41 0 1.94 1.72 1 3.76.83 5.83a10.23 10.23 0 0 0 1.84 6.76c2.64 3.9 7.37 5.85 11.89 6.44-.61-1.61 1-3.35.28-4.7-.37-.73-1.63-1.16-2.2-1.77a7.9 7.9 0 0 1-1.56-2.67c-1.14-3.42 1.69-9 5.54-6.07a9 9 0 0 1 4.88-6.79 20.2 20.2 0 0 1 4.42-1.66" style="fill:#aecc53"/><g style="mix-blend-mode:multiply"><path d="m22 183.32-.06-.09L15 172.78A22.43 22.43 0 0 1 26.91 139l12.15-3.84a8 8 0 0 1 4.83 15.28l-12.15 3.84a6.4 6.4 0 0 0-3.4 9.64l6.93 10.46A8 8 0 0 1 22 183.32" style="fill:#aecc53"/></g><path d="m90.53 111.06 10.62-.48" style="fill:none;stroke:#3c3c3b;stroke-linecap:round;stroke-linejoin:round;stroke-width:3px"/><path d="M30.72 197.17c1.89 2.69 4.83 5 6.55 1.11 1.35-3.07 1.72-7.06.29-10.16C35 182.56 26.72 184 28 190.6a17.9 17.9 0 0 0 2.72 6.57" style="fill:#fff;stroke:#3c3c3b;stroke-linecap:round;stroke-linejoin:round;stroke-width:.926012262355367px"/><path d="M24.34 190.82h17v13.45a7.55 7.55 0 0 1-7.55 7.55h-1.9a7.55 7.55 0 0 1-7.55-7.55z" style="fill:#fff;stroke:#3c3c3b;stroke-linecap:round;stroke-linejoin:round;stroke-width:.926012262355367px"/><path d="M30 97.63c1 3 0 8-4 11" style="fill:none;stroke:#3c3c3b;stroke-linecap:round;stroke-linejoin:round;stroke-width:4px"/><path d="M106.46 54.26h94.9v73.46h-94.9z" style="fill:#fff"/><path d="M200.77 54.85v72.29h-93.72V54.85zm1.23-1.18h-96.13v74.65H202z" style="fill:#3c3c3b"/><path d="M105.87 45.32h96.08v8.35h-96.08z" style="fill:#3c3c3b;stroke:#3c3c3b;stroke-linecap:round;stroke-linejoin:round;stroke-width:.905439286916539px"/><path d="M115.12 62.93h12.86v59.2h-12.86zm12.86 0h12.86v59.2h-12.86zm13.07 0h12.86v59.2h-12.86z" style="fill:none;stroke:#c6c6c6;stroke-linecap:round;stroke-linejoin:round;stroke-width:.933333337306976px"/><path d="M153.91 62.93h12.86v59.2h-12.86zm13.08 0h12.86v59.2h-12.86z" style="fill:none;stroke:#c6c6c6;stroke-linecap:round;stroke-linejoin:round;stroke-width:.933333337306976px"/><path d="M179.85 62.93h12.86v59.2h-12.86z" style="fill:none;stroke:#c6c6c6;stroke-linecap:round;stroke-linejoin:round;stroke-width:.933333337306976px"/><path d="M148.03 30.02h11.76v77.59h-11.76z" style="fill:none;stroke:#c6c6c6;stroke-linecap:round;stroke-linejoin:round;stroke-width:.933333337306976px" transform="rotate(90 153.915 68.815)"/><path d="M148.03 41.78h11.76v77.59h-11.76z" style="fill:none;stroke:#c6c6c6;stroke-linecap:round;stroke-linejoin:round;stroke-width:.933333337306976px" transform="rotate(90 153.915 80.575)"/><path d="M148.03 53.74h11.76v77.59h-11.76z" style="fill:none;stroke:#c6c6c6;stroke-linecap:round;stroke-linejoin:round;stroke-width:.933333337306976px" transform="rotate(90 153.915 92.535)"/><path d="M148.03 65.5h11.76v77.59h-11.76z" style="fill:none;stroke:#c6c6c6;stroke-linecap:round;stroke-linejoin:round;stroke-width:.933333337306976px" transform="rotate(90 153.915 104.295)"/><path d="M148.03 77.46h11.76v77.59h-11.76z" style="fill:none;stroke:#c6c6c6;stroke-linecap:round;stroke-linejoin:round;stroke-width:.933333337306976px" transform="rotate(90 153.915 116.255)"/><circle cx="121.55" cy="68.81" r="2.73" style="fill:#006d68"/><circle cx="134.41" cy="68.81" r="2.73" style="fill:#006d68"/><circle cx="147.48" cy="68.81" r="2.73" style="fill:#006d68"/><circle cx="121.55" cy="80.57" r="2.73" style="fill:#006d68"/><circle cx="134.41" cy="80.57" r="2.73" style="fill:#006d68"/><circle cx="147.48" cy="80.57" r="2.73" style="fill:#006d68"/><circle cx="121.55" cy="92.33" r="2.73" style="fill:#3c3c3c"/><circle cx="160.34" cy="68.81" r="2.73" style="fill:#006d68"/><circle cx="160.34" cy="80.57" r="2.73" style="fill:#006d68"/><circle cx="173.34" cy="68.81" r="2.73" style="fill:#006d68"/><circle cx="173.34" cy="80.57" r="2.73" style="fill:#006d68"/><circle cx="186.34" cy="68.81" r="2.73" style="fill:#006d68"/><circle cx="186.34" cy="80.57" r="2.73" style="fill:#006d68"/><path d="m268.32 267.31-25.6.29 13.55-9.37.03-80.7 39.54-3.29 10.59 93.07-24.36.82 10.74-8.62-15.47-46.38z" style="fill:#fff;stroke:#3c3c3b;stroke-linecap:round;stroke-linejoin:round;stroke-width:.964194979413252px"/><path d="M210.78 119.78c3.85 2.39 8.75 3.28 11.25-.31 3.55-5.1-4.74-10-6.91-13.85a6.55 6.55 0 0 0-.44 3.73c.21 1 1.07 1.93.78 3-.58 2.13-4.1-1.48-4.68-2-1.95-1.91-4-5.25-7-5.32 2.92 5.16 1.52 11.36 7 14.75" style="fill:#fff"/><path d="M210.78 119.78c3.85 2.39 8.75 3.28 11.25-.31 3.55-5.1-4.74-10-6.91-13.85a6.55 6.55 0 0 0-.44 3.73c.21 1 1.07 1.93.78 3-.58 2.13-4.1-1.48-4.68-2-1.95-1.91-4-5.25-7-5.32 2.92 5.16 1.52 11.36 7 14.75" style="fill:none;stroke:#3c3c3b;stroke-linecap:round;stroke-linejoin:round"/><path d="m218.51 130.13.06.08 8.37 10a23.37 23.37 0 0 0 37.28-1.81l7.47-11a8.35 8.35 0 0 0-13.81-9.39l-7.47 11a6.67 6.67 0 0 1-10.64.52l-8.36-10a8.35 8.35 0 0 0-12.9 10.61Z" style="fill:#aecc53"/><path d="M255.3 176.2c-.42-.36-.26-13.74-.35-16a222 222 0 0 1 .14-27.42c.59-7 .81-14.17 5.91-19.64 6.06-6.5 15.12-7.79 22.07-1.81 4.13 3.55 6.69 8.6 8.45 13.76 2.6 7.62 5.88 36.9 5.49 49.46-.01.66-26.51 14.82-41.71 1.65" style="fill:#006d68;stroke:#006d68;stroke-linecap:round;stroke-linejoin:round;stroke-width:.752426474177474px"/><path d="M244.34 157.82h27v19h-27z" style="fill:#3c3c3b" transform="rotate(210 257.837 167.32)"/><circle cx="260.4" cy="96.67" r="14.25" style="fill:#fff;stroke:#3c3c3b;stroke-linecap:round;stroke-linejoin:round"/><path d="M254.39 78.71c.42-.28.84-.55 1.28-.79C266 72.06 279.4 76.46 283 88.21c.92 3 2 6.1 2 9.29 7.5-3.47 12.16 4.35 8.8 11a7.5 7.5 0 0 1-6.69 4.22 6 6 0 0 1-5.66-5.07c-1.44.44-11.25-1.23-11.47 0 .36-2-.25-3.72-.26-5.72 0 .71 1.34-.7 1.33-.7a4.84 4.84 0 0 0 .75-2.61c.33-2.16.14-4.44-1.7-5.91a3.2 3.2 0 0 0-2.07-.78 1.87 1.87 0 0 0-1.72 1.23c.57-2-2.64-4.71-4-5.65-4.2-2.92-9-3.14-12.91.34a10.27 10.27 0 0 1 4.99-9.14" style="fill:#3c3c3b;stroke:#3c3c3b;stroke-linecap:round;stroke-linejoin:round;stroke-width:.970113517566058px"/><g style="mix-blend-mode:multiply"><path d="m284.78 168.66.08-.06 10-8.4a23.34 23.34 0 0 0-1.93-37.2l-11-7.42a8.34 8.34 0 1 0-9.33 13.83l11 7.42a6.67 6.67 0 0 1 .55 10.63l-10 8.39c-3.53 3-3.26 7-.3 10.51s7.4 5.19 10.93 2.3" style="fill:#aecc53"/></g><ellipse cx="276.84" cy="164.32" rx="3.5" ry="7.5" style="fill:#3c3c3b" transform="rotate(-43.06 276.844 164.319)"/><path d="M277.6 168.8a1 1 0 0 1-.16.24c-1.8 2.23-4.95 3.92-7.55 5.06a7.27 7.27 0 0 1-4.3.63c-2-.38-3.52-1.78-5.34-2.55a18.6 18.6 0 0 1-2.5-1.1c-.41-.25-1.85-1.79-2.27-1.71a29.5 29.5 0 0 0 8.15-2.54c1.16-.49 4.06-1.68 1.39-2.77a3.22 3.22 0 0 1-1.87-2.73c0-.51 0-2.4.86-2a40 40 0 0 0 4.49 2.1 10 10 0 0 0 3.08.49c1.21 0 2.13-.29 3.1.49A9 9 0 0 1 277 165c.55 1 1.19 2.72.6 3.8" style="fill:#fff;stroke:#3c3c3b;stroke-linecap:round;stroke-linejoin:round"/><path d="m277.34 212.82-7.86-23.2" style="fill:none;stroke:#3c3c3b;stroke-linecap:round;stroke-linejoin:round;stroke-width:.964194979413252px"/><path d="M214.34 229.32h-5V112.78a3.46 3.46 0 0 1 3.46-3.46h1.54Z" style="fill:#aecc53"/><path d="M209.34 229.32h5v2h-5z" style="fill:#3c3c3b"/><path d="M209.84 128.32h2m-2 16h2m-2 16h2m-2 16h2m-2 16h2m-2 16h2" style="fill:none;stroke:#3c3c3b;stroke-linecap:round;stroke-linejoin:round"/><path d="M171.37 202.34a3.83 3.83 0 0 0-2.52-.54c-1.37.19-2.59.94-4 .57a13.9 13.9 0 0 1-6.9-4.25 88 88 0 0 1-9.67-13.82c-3.94-6.62-2.33-14.34 2.32-20.12a27.9 27.9 0 0 1 8.58-7.08c4.54-2.44 6.84-1.55 11.57-.72 3.57.62 6.79-1.5 10.13.15a25 25 0 0 1 8.27 6.45 24.4 24.4 0 0 1 5 10c1.1 4.73.13 8.1-2.46 12.17-3.22 5.06-6.28 10.63-11.11 14.36-1.89 1.45-5.34 3.69-7.87 3.29a4.7 4.7 0 0 1-1.34-.46" style="fill:#006d68;stroke:#006d68;stroke-linecap:round;stroke-linejoin:round;stroke-width:.25547835303343px"/><path d="M182.14 152.53c-2.8 1.72-10 .09-10 .09s1.81-7.19 4.61-8.91 10.25-.21 10.25-.21-2.06 7.31-4.86 9.03" style="fill:none;stroke:#aecc53;stroke-linecap:round;stroke-linejoin:round;stroke-width:1.10380276098692px;mix-blend-mode:multiply"/><path d="M171.82 156.49c-.06-1.92-.34-4.45-2.77-4.7" style="fill:none;stroke:#3c3c3b;stroke-linecap:round;stroke-linejoin:round;stroke-width:.735868507324611px"/><path d="M134.84 168.2c-2.61-2-3.88-2.32-6.91-1.71s-5.87-.41-8.85-1.06c-2.61-.56-5.21 1.09-7.34 2.77a18.84 18.84 0 0 0-7.18 14.74c0 7.32 4.35 11.72 8.74 17a7.4 7.4 0 0 0 2.33 2.09c1.74.81 3.78.13 5.69.33 1.22.13 2.4.63 3.63.68 2.88.13 5.26-2.09 7.27-4.16 4.66-4.8 9.79-8.79 9.79-16a18.85 18.85 0 0 0-7.17-14.68m-18.69 6.91a3.2 3.2 0 0 0-.55.39 8.7 8.7 0 0 0-3 3.91c-.33.84-1.55 3.91-2.72 2.3-1.69-2.29 1.1-7.64 3-9a2.8 2.8 0 0 1 1.84-.56 1.92 1.92 0 0 1 1.7 1.71c.22.91.07 1.04-.27 1.25" style="fill:#aecc53;mix-blend-mode:multiply"/><path d="M134.84 168.2c-2.61-2-3.88-2.32-6.91-1.71s-5.87-.41-8.85-1.06c-2.61-.56-5.21 1.09-7.34 2.77a18.84 18.84 0 0 0-7.18 14.74c0 7.32 4.35 11.72 8.74 17a7.4 7.4 0 0 0 2.33 2.09c1.74.81 3.78.13 5.69.33 1.22.13 2.4.63 3.63.68 2.88.13 5.26-2.09 7.27-4.16 4.66-4.8 9.79-8.79 9.79-16a18.85 18.85 0 0 0-7.17-14.68" style="fill:none;stroke:#ededed;stroke-linecap:round;stroke-linejoin:round;stroke-width:.459459287862079px"/><path d="M122.16 156c1.84 1.23 2.86 6.11 2.86 6.11s-4.9.9-6.74-.33-3-6.2-3-6.2 5.04-.81 6.88.42" style="fill:#3c3c3b"/><path d="M124.19 166.08c0-2.42.25-5.63 3.31-6.05" style="fill:none;stroke:#3c3c3b;stroke-linecap:round;stroke-linejoin:round"/><ellipse cx="185" cy="177.06" rx="3.13" ry="4.23" style="fill:#3c3c3b;stroke:#3c3c3b;stroke-linecap:round;stroke-linejoin:round;stroke-width:.333142128268167px"/><path d="M191.74 181.26a13.1 13.1 0 0 1-6.77-1.85 2.58 2.58 0 0 1 2.67-4.41 7.86 7.86 0 0 0 11.71-4.91 19 19 0 0 0 .35-3.84 18.7 18.7 0 0 1 .91-6.29 2.58 2.58 0 1 1 4.82 1.82 14.3 14.3 0 0 0-.58 4.6 23.3 23.3 0 0 1-.49 4.9 13.21 13.21 0 0 1-7.63 9 12.9 12.9 0 0 1-4.99.98" style="fill:#fff;stroke:#3c3c3b;stroke-linecap:round;stroke-linejoin:round;stroke-width:.659837826811836px"/><path d="M188.4 179a4.06 4.06 0 0 1 .79-3.28m2.26.6a4.25 4.25 0 0 0 .44 3.23m2.5-3.55a4.8 4.8 0 0 0 1.14 2.37m1.75-4.46a2 2 0 0 0 1.69 1.71m-.06-4.15a2.06 2.06 0 0 0 1.91.88m-1.19-3.89a2.45 2.45 0 0 0 2.26.52m-2.07-3.92a2.57 2.57 0 0 0 2.43.76" style="fill:none;stroke:#3c3c3b;stroke-linecap:round;stroke-linejoin:round;stroke-width:.659837826811836px"/><circle cx="202.7" cy="160.5" r=".56" style="fill:#3c3c3b"/><path d="M108.07 205.32h89.53" style="fill:none;stroke:#3c3c3b;stroke-linecap:round;stroke-linejoin:round;stroke-width:2px"/><path d="M257.68 171.4c3.73.42 6.83-1.7 9.91-3.42.66 2.06 1.71 4.48 4.06 4.85" style="fill:none;stroke:#3c3c3b;stroke-linecap:round;stroke-linejoin:round"/><path d="m243.84 164.32 4-6" style="fill:none;stroke:#aecc53;stroke-linecap:round;stroke-linejoin:round;stroke-width:2px"/><path d="M190.84 238.32h37v9h-37zm0 14h37v9h-37zm0 15h37v9h-37z" style="fill:#fff"/></g></svg>