<svg xmlns="http://www.w3.org/2000/svg" width="310.97" height="305.86" viewBox="0 0 310.97 305.86"><g data-name="Layer 1" style="isolation:isolate"><path d="M303.79 195.56c4.32-13.42 7.81-27.37 7.08-41.44-1-19-9.48-36.64-18.17-53.53-16-31.09-39.9-55.08-64.21-80C208.82.35 169.91-1.29 143.62.58c-3.17.23-6.36.46-9.54.75-9.79.91-19.52 2.42-28.51 6.29-14.41 6.21-26.19 19.58-37.81 29.81-12.58 11.08-23 21.84-31.67 36.36-9.81 16.43-26.88 40.08-27.62 59.83-.93 24.85-1.05 43.85 7.49 67.29 9.09 25 21.92 52.2 43 69.49C70 279.46 85.4 285 98.06 291.53c24.68 12.75 50.86 17.29 78.32 12.42 28.74-5.1 50.36-17.5 75.64-30.7 32.47-16.95 41.06-44.45 51.77-77.69" style="fill:#aecc53;opacity:.2"/><path d="M133.08 27.48a13.8 13.8 0 0 1 4.79.86 13.65 13.65 0 0 1 26.2 0 13.65 13.65 0 1 1 4.78 26.44 13.6 13.6 0 0 1-8.94-3.34 13.65 13.65 0 0 1-17.89 0 13.65 13.65 0 1 1-8.94-24Z" style="fill:#fff"/><path d="M220.57 42.5a18.7 18.7 0 0 0-6.51 1.17 18.56 18.56 0 0 0-35.62 0A18.58 18.58 0 0 0 155 53.51a10.64 10.64 0 1 0 3.83 20.67 18.53 18.53 0 0 0 25.28.89 18.52 18.52 0 0 0 24.32 0 18.56 18.56 0 1 0 12.14-32.57Z" style="fill:none;stroke:#fff;stroke-miterlimit:10;stroke-width:1.19768862566403px"/><path d="M239.32 156.77c-.84-4.36-3.45-8.48-7.7-7.9-6 .82-4.1 10.09-5.4 14.17a6.3 6.3 0 0 0 3-2.16c.57-.8.69-2 1.65-2.54 1.92-1 1.65 3.93 1.62 4.74-.08 2.66-1.15 6.33.78 8.54 1.84-5.54 7.24-8.62 6.05-14.85" style="fill:#fff;stroke:#3c3c3b;stroke-linecap:round;stroke-linejoin:round;stroke-width:.979725135708918px"/><g style="mix-blend-mode:multiply"><path d="m243.53 151.68.07-.07 9.25-8.86a22.88 22.88 0 0 0-4.32-36.31l-11.24-6.55a8.18 8.18 0 1 0-8.23 14.11l11.24 6.55a6.53 6.53 0 0 1 1.23 10.36l-9.25 8.86a8.18 8.18 0 0 0 11.25 11.88Z" style="fill:#aecc53"/></g><path d="m230.74 246.98-25.08.29 13.27-9.19.04-79.05 38.73-3.23 10.37 91.18-23.86.8 10.52-8.44-15.16-45.44z" style="fill:#fff;stroke:#3c3c3b;stroke-linecap:round;stroke-linejoin:round;stroke-width:.964194979413252px"/><path d="m230.74 246.98-25.08.29 13.27-9.19.04-79.05 27.04-3.23-6.44 38.1z" style="fill:#fff;stroke:#3c3c3b;stroke-linecap:round;stroke-linejoin:round;stroke-width:.964194979413252px"/><path d="M210.51 195.78s3.1-77.81 7.12-93.71c2.39-9.43 16.18-10.39 23.25-5.26 12.6 9.14 29.63 99 29.63 99Z" style="fill:#006d68;stroke:#006d68;stroke-linecap:round;stroke-linejoin:round;stroke-width:.452303686340374px"/><circle cx="225.41" cy="81.04" r="15.08" style="fill:#fff;stroke:#3c3c3b;stroke-linecap:round;stroke-linejoin:round;stroke-width:1.0088114420137px"/><path d="M218.37 62.83c9.32-5.37 23.1-4 27.5 7 2.07 5.15 2.64 11-.3 15.91a11.92 11.92 0 0 1-7.49 6.16 3.7 3.7 0 0 1-1.94.26 2.73 2.73 0 0 1-2-2.46 3.72 3.72 0 0 1 1.58-3.38c.38-.26.79-.44 1.14-.72 1.9-1.57 2-5.74.35-7.45a3.51 3.51 0 0 0-3.77-.66c-.83.41-1.69 2-2.81 1.12-.95-.78-.09-2.71-.54-3.79-.57-1.37-2.36-2.57-3.61-3.25a8.33 8.33 0 0 0-4.5-1.06c-.36 0-.72.07-1.11.14-2.68.49-6.11 1.83-8.55 0a7.4 7.4 0 0 1-1.91-2.77c-.63-1.33-1.05-2.89-.16-4.2a.64.64 0 0 1 .27-.27c.32-.15.66.15.92.39 2.14 1.85 4.91.2 6.93-.97" style="fill:#3c3c3b"/><path d="M182.6 107.72c4.43-.28 8.85-2.34 8.82-6.63 0-6.08-9.49-5.35-13.38-7.15a6.37 6.37 0 0 0 1.77 3.23c.72.66 1.95.94 2.32 2 .74 2-4.11 1.14-4.91 1-2.64-.42-6.14-1.95-8.58-.31 5.27 2.5 7.65 8.25 13.96 7.86" style="fill:#fff;stroke:#3c3c3b;stroke-linecap:round;stroke-linejoin:round;stroke-width:.979725135708918px"/><g style="mix-blend-mode:multiply"><path d="m187.12 112.55.06.08 7.62 10.29a22.88 22.88 0 0 0 36.56.32l7.92-10.32a8.18 8.18 0 0 0-13-10l-7.92 10.32a6.52 6.52 0 0 1-10.43-.09l-7.62-10.3a8.18 8.18 0 0 0-13.21 9.66Z" style="fill:#aecc53"/></g><path d="M170.51 89.78v9" style="fill:none;stroke:#006d68;stroke-linecap:round;stroke-linejoin:round"/><path d="m187.29 76.34 4.61 1.09-5.9 3.31" style="fill:#3c3c3b;stroke:#3c3c3b;stroke-linejoin:round"/><path d="M181.53 79.65a12.14 12.14 0 1 1-24.27 0c0-.26 24.27-.26 24.27 0" style="fill:#006d68"/><path d="M179.61 79.9a11.47 11.47 0 0 1-21.86 6.93c-.07-.23 21.78-7.16 21.86-6.93" style="fill:#aecc53;mix-blend-mode:multiply"/><circle cx="181.05" cy="78.42" r="6.5" style="fill:#fff;stroke:#3c3c3b;stroke-linecap:round;stroke-linejoin:round;stroke-width:1.0088114420137px"/><circle cx="182.51" cy="77.78" r="1" style="fill:#3c3c3b"/><path d="M50.69 216.28H37.32v-.66c.27-4.32 3.15-9.84 6.66-9.84s6.38 5.52 6.66 9.84c.04.23.05.66.05.66m43 0H67.6v-1.29c.54-8.43 6.15-19.21 13-19.21s12.47 10.78 13 19.21c.07.44.09 1.29.09 1.29" style="fill:#ccc"/><path d="M64.51 216.28h-21v-1c.43-6.79 5-15.46 10.47-15.46s10 8.68 10.46 15.47c.06.31.07.99.07.99" style="fill:#aecc53;mix-blend-mode:multiply"/><path d="M39.85 156.31H28.31a28.56 28.56 0 0 1-26.54-18.26 23.6 23.6 0 0 1-.6-14.81l18.06-65c4.17-15 25.45-15 29.63 0C56.12 84.33 64 112.37 67 123.22a23.62 23.62 0 0 1-.6 14.84 28.53 28.53 0 0 1-26.55 18.25" style="fill:#006d68;stroke:#006d68;stroke-linecap:round;stroke-linejoin:round;stroke-width:.525761316415583px"/><path d="M47.25 84.28A13.32 13.32 0 0 1 34.08 96h0A13.33 13.33 0 0 1 20.9 84.28" style="fill:none;stroke:#aecc53;stroke-linecap:round;stroke-linejoin:round;stroke-width:1.5px"/><path d="M45.54 84.24a1.69 1.69 0 1 1 1.57 1.81 1.71 1.71 0 0 1-1.57-1.81m-22.93 0a1.69 1.69 0 1 0-1.56 1.81 1.69 1.69 0 0 0 1.56-1.81" style="fill:#aecc53"/><path d="M53.74 102.39a19.79 19.79 0 0 1-19.66 18.13h0a19.81 19.81 0 0 1-19.67-18.13" style="fill:none;stroke:#aecc53;stroke-linecap:round;stroke-linejoin:round;stroke-width:1.5px"/><path d="M52 102.39a1.69 1.69 0 1 1 1.61 1.77 1.7 1.7 0 0 1-1.61-1.77m-35.88 0a1.69 1.69 0 1 0-1.6 1.77 1.68 1.68 0 0 0 1.6-1.77" style="fill:#aecc53"/><path d="M34.09 69.54v146.24" style="fill:none;stroke:#aecc53;stroke-linecap:round;stroke-linejoin:round;stroke-width:1.5px"/><path d="M32.39 69.62a1.7 1.7 0 1 1 1.7 1.7 1.7 1.7 0 0 1-1.7-1.7" style="fill:#aecc53"/><path d="M106.89 152.42h9.89a24.46 24.46 0 0 0 22.74-15.64 20.26 20.26 0 0 0 .51-12.69l-15.47-55.68c-3.57-12.86-21.81-12.86-25.39 0-6.17 22.33-12.93 46.36-15.52 55.66a20.17 20.17 0 0 0 .51 12.71 24.45 24.45 0 0 0 22.73 15.64" style="fill:none;stroke:#aecc53;stroke-linecap:round;stroke-linejoin:round;stroke-width:1.5px"/><path d="M101.88 101.62a10.08 10.08 0 0 0 19.91 0" style="fill:none;stroke:#aecc53;stroke-linecap:round;stroke-linejoin:round;stroke-width:1.5px"/><path d="M100.22 101.85a1.69 1.69 0 1 1 1.84 1.53 1.69 1.69 0 0 1-1.84-1.53m23.23 0a1.69 1.69 0 1 0-1.84 1.53 1.7 1.7 0 0 0 1.84-1.53" style="fill:#aecc53"/><path d="M96.93 116.32a15 15 0 0 0 29.81 0" style="fill:none;stroke:#aecc53;stroke-linecap:round;stroke-linejoin:round;stroke-width:1.5px"/><path d="M95.26 116.5a1.69 1.69 0 1 1 1.79 1.59 1.69 1.69 0 0 1-1.79-1.59m33.15 0a1.69 1.69 0 1 0-1.79 1.59 1.69 1.69 0 0 0 1.79-1.59" style="fill:#aecc53"/><path d="M111.83 88.54v112.24" style="fill:none;stroke:#aecc53;stroke-linecap:round;stroke-linejoin:round;stroke-width:1.5px"/><circle cx="111.83" cy="88.63" r="1.69" style="fill:#aecc53"/><path d="M72.21 174.6a2.85 2.85 0 1 1 0-5.69h14.57a23.3 23.3 0 0 0 .36-4 17 17 0 0 0-.44-3.56H72.21a2.85 2.85 0 1 1 0-5.69H85c-.84-2.38-1.9-4.94-3.09-7.59h-9.7a2.85 2.85 0 1 1 0-5.69h7.05c-1.26-2.56-2.58-5.12-3.89-7.59h-3.16a2.85 2.85 0 1 1 0-5.69h.06c-4.32-7.74-7.89-13.51-7.89-13.51s-3.57 5.77-7.88 13.51h.06a2.85 2.85 0 0 1 0 5.69h-3.17c-1.31 2.47-2.63 5-3.89 7.59h7.06a2.85 2.85 0 0 1 0 5.69h-9.74c-1.18 2.65-2.24 5.21-3.09 7.59h12.83a2.85 2.85 0 0 1 0 5.69h-14.5a17.6 17.6 0 0 0-.44 3.56 23.3 23.3 0 0 0 .36 4h14.58a2.85 2.85 0 0 1 0 5.69H43.8a22.77 22.77 0 0 0 41.17 0Z" style="fill:#aecc53;mix-blend-mode:multiply"/><path d="M64.14 161.17v53.74" style="fill:none;stroke:#006d68;stroke-linecap:round;stroke-linejoin:round;stroke-width:1.5px"/><path d="m111.78 200.58 7.13-15a9.28 9.28 0 0 1 16.75 0l13.85 29" style="fill:none;stroke:#aecc53;stroke-linecap:round;stroke-linejoin:round;stroke-width:1.67339069676543px"/><path d="M114.51 205.73q2.65-6 5.61-11.83c1.55-3.07 3-6.53 5.92-8.57a7.1 7.1 0 0 1 4.85-1.28 8.9 8.9 0 0 1 4.64 1.91" style="fill:none;stroke:#aecc53;stroke-linecap:round;stroke-linejoin:round;stroke-width:1.67339069676543px"/><path d="m117.43 211.66 6.57-14.35a20.5 20.5 0 0 1 3.14-5.33 6.92 6.92 0 0 1 7.7-1.8 14.7 14.7 0 0 1 2.32 1.15l1.7 1m31.65 23.45h25m-97.31-.21 6.49-13.8a4.31 4.31 0 0 1 7.79 0l6.68 14" style="fill:none;stroke:#aecc53;stroke-linecap:round;stroke-linejoin:round;stroke-width:1.67339069676543px"/><path d="M101.85 208.34c1.58-.7 2.43.36 3 1.7a21.5 21.5 0 0 1 1.55 5.62m-3.05-11.16a7.14 7.14 0 0 1 4 1.36 9.55 9.55 0 0 1 2.37 3.57 21.3 21.3 0 0 1 2.24 6.14m-97.45.21h148.78m-125.78 6h113m-91 6h23M146.83 209c-1.51-2.81-3.71-6.37-7.3-6.3a8.26 8.26 0 0 0-5.36 2.42c-3 2.81-4.14 6.4-5.74 10" style="fill:none;stroke:#aecc53;stroke-linecap:round;stroke-linejoin:round;stroke-width:1.67339069676543px"/><path d="M78.51 188.78h117m-103.5 1v38m90-38v38" style="fill:none;stroke:#3c3c3b;stroke-linecap:round;stroke-linejoin:round;stroke-width:4px"/><path d="M167.39 180.05v6.68" style="fill:#fff;stroke:#3c3c3b;stroke-linecap:round;stroke-linejoin:round;stroke-width:.748940041650367px"/><path d="m156.18 169.11-2.91-.59 2.47 3.43" style="fill:#3c3c3b;stroke:#3c3c3b;stroke-linejoin:round;stroke-width:.626933317733538px"/><path d="M160.63 172.71a8.51 8.51 0 0 0 16.23 5.14c.05-.17-16.18-5.31-16.23-5.14" style="fill:#ccc"/><path d="M160.61 174.92a9 9 0 0 0 13.11-12.37c-.13-.14-13.24 12.23-13.11 12.37" style="fill:#aecc53;mix-blend-mode:multiply"/><circle cx="159.18" cy="171.93" r="4.08" style="fill:#fff;stroke:#3c3c3b;stroke-linecap:round;stroke-linejoin:round;stroke-width:.632457504309206px"/><path d="M177.93 248.73v9" style="fill:none;stroke:#006d68;stroke-linecap:round;stroke-linejoin:round"/><path d="m161.14 235.28-4.6 1.1 5.87 3.31" style="fill:#3c3c3b;stroke:#3c3c3b;stroke-linejoin:round"/><path d="M170.9 240.33a8.41 8.41 0 0 0 16.81 0c0-.18-16.81-.18-16.81 0" style="fill:#006d68"/><path d="M168.83 238.84a11.46 11.46 0 1 0 21.85 6.94c.08-.24-21.78-7.17-21.85-6.94" style="fill:#aecc53;mix-blend-mode:multiply"/><circle cx="167.39" cy="237.36" r="6.5" style="fill:#fff;stroke:#006d68;stroke-linecap:round;stroke-linejoin:round"/><circle cx="165.93" cy="236.73" r="1" style="fill:#3c3c3b"/><path d="M104.78 247.73v9" style="fill:none;stroke:#006d68;stroke-linecap:round;stroke-linejoin:round"/><path d="m122.6 242.38 1.88 4.35-6.17-2.73" style="fill:#3c3c3b;stroke:#3c3c3b;stroke-linejoin:round"/><path d="M113.89 237.84A11.47 11.47 0 0 1 92 244.78c0-.24 21.81-7.17 21.89-6.94" style="fill:#ccc"/><path d="M115.81 237.59a12.14 12.14 0 1 1-24.27 0c0-.25 24.27-.25 24.27 0" style="fill:#aecc53;mix-blend-mode:multiply"/><circle cx="117.2" cy="238.62" r="6.5" style="fill:#fff;stroke:#3c3c3b;stroke-linecap:round;stroke-linejoin:round;stroke-width:1.0088114420137px"/><circle cx="118.58" cy="239.41" r="1" style="fill:#3c3c3b"/><path d="M165.29 263.28h-31.43m21.43-3h-31.43m20.43-3h-31.43" style="fill:none;stroke:#3c3c3b;stroke-linecap:round;stroke-linejoin:round;stroke-dasharray:0,5.714285850524902"/><path d="m174.84 231.53-3.83.75 2.16-3.25a1.63 1.63 0 1 1 1.67 2.5m-2.33-3.25-1.5 4-1.5-4a1.6 1.6 0 1 1 3 0" style="fill:#006d68"/><ellipse cx="240.51" cy="195.78" rx="30" ry="4" style="fill:#006d68;stroke:#006d68;stroke-linecap:round;stroke-linejoin:round;stroke-width:.452303686340374px"/></g></svg>