<?xml version="1.0" encoding="UTF-8"?>
<svg id="text" xmlns="http://www.w3.org/2000/svg" xmlns:xlink="http://www.w3.org/1999/xlink" version="1.1" viewBox="0 0 500 500">
  <!-- Generator: Adobe Illustrator 30.2.1, SVG Export Plug-In . SVG Version: 2.1.1 Build 1)  -->
  <defs>
    <style>
      .st0 {
        fill: #bed675;
      }

      .st1 {
        fill: url(#linear-gradient1);
      }

      .st2, .st3 {
        stroke-miterlimit: 10;
      }

      .st2, .st3, .st4 {
        fill: none;
        stroke: #fff;
      }

      .st5 {
        fill: #f2f6e9;
      }

      .st3 {
        stroke-width: 4.51px;
      }

      .st6 {
        fill: url(#linear-gradient);
      }

      .st4 {
        stroke-linecap: round;
        stroke-linejoin: round;
        stroke-width: 2px;
      }

      .st7 {
        fill: #fff;
      }

      .st8 {
        fill: #338a86;
      }

      .st9 {
        fill: #00524f;
      }

      .st10 {
        fill: #849e2a;
      }

      .st11 {
        fill: #003834;
      }
    </style>
    <linearGradient id="linear-gradient" x1="106.45" y1="268.44" x2="369.64" y2="268.44" gradientUnits="userSpaceOnUse">
      <stop offset=".41" stop-color="#003834"/>
      <stop offset="1" stop-color="#338a86"/>
    </linearGradient>
    <linearGradient id="linear-gradient1" x1="258.16" y1="290.16" x2="258.16" y2="215.76" gradientUnits="userSpaceOnUse">
      <stop offset=".05" stop-color="#bed675"/>
      <stop offset=".24" stop-color="#a1c678"/>
      <stop offset=".76" stop-color="#559c82"/>
      <stop offset="1" stop-color="#378c86"/>
    </linearGradient>
  </defs>
  <g>
    <g>
      <path class="st6" d="M352.95,340.45s0,0,0,0l-13.74-12.68s0,0,0,0l-10.55-9.74s0,0,0,0l-10.22-9.43c-15.49,16.78-37.46,26.4-60.28,26.4-29.33,0-56.63-15.83-71.23-41.31h0c-7.07-12.33-10.8-26.42-10.8-40.72,0-11.34,2.27-22.32,6.74-32.62,5.58-12.85,14.44-24.15,25.63-32.68l-42.19-55.45c-20.68,15.76-37.06,36.64-47.38,60.41-8.28,19.08-12.48,39.38-12.48,60.34,0,26.45,6.91,52.5,20,75.33h0c27,47.11,77.47,76.38,131.71,76.38,42.2,0,82.83-17.79,111.48-48.81l-16.68-15.41Z"/>
      <path class="st5" d="M353.48,340.94l16.15,14.92c25.94-28.09,40.23-64.64,40.23-102.9h-21.99s-.72,0-.72,0h-18.7s-13.82,0-13.82,0h-.54s-13.9,0-13.9,0c0,20.69-7.72,40.45-21.75,55.64l10.61,9.8s0,0,0,0l12.01,11.09s0,0,0,0l12.41,11.46s0,0,0,0Z"/>
      <path class="st8" d="M258.16,104.26c81,0,147.08,65.09,148.68,145.71h-63.7c-1.6-45.39-39.3-81.97-85.4-82.17h-.41c-25.35,0-41.05,9.78-48.17,15.64-13.6-17.73-33.07-43.33-38.39-50.86,25.74-18.28,56.66-28.31,87.4-28.31M258.16,101.26c-32.7,0-65.25,11.21-91.44,30.54-.64.47,42,56,42,56,.69-.53,16.43-17,48.6-17,.13,0,.27,0,.4,0,45.23.19,82.47,36.94,82.47,82.17h69.67c0-83.65-68.06-151.71-151.71-151.71h0Z"/>
    </g>
    <polygon class="st11" points="413.72 153.24 384.73 124.25 442.71 124.25 413.72 153.24"/>
    <g>
      <polyline class="st2" points="265.74 121.08 265.65 73.96 337.08 73.96"/>
      <path class="st7" d="M336.89,77.72c2.08,0,3.76-1.68,3.76-3.76s-1.68-3.76-3.76-3.76-3.76,1.68-3.76,3.76,1.68,3.76,3.76,3.76Z"/>
    </g>
    <g>
      <line class="st2" x1="149.88" y1="185.33" x2="48.45" y2="185.33"/>
      <path class="st7" d="M48.64,181.57c-2.08,0-3.76,1.68-3.76,3.76s1.68,3.76,3.76,3.76,3.76-1.68,3.76-3.76-1.68-3.76-3.76-3.76Z"/>
    </g>
    <line class="st3" x1="50.68" y1="172.21" x2="111.55" y2="172.21"/>
    <g>
      <line class="st2" x1="374.06" y1="327.38" x2="475.49" y2="327.38"/>
      <path class="st7" d="M475.3,331.14c2.08,0,3.76-1.68,3.76-3.76s-1.68-3.76-3.76-3.76-3.76,1.68-3.76,3.76,1.68,3.76,3.76,3.76Z"/>
    </g>
    <line class="st3" x1="473.27" y1="314.26" x2="412.39" y2="314.26"/>
    <line class="st3" x1="264.87" y1="61.74" x2="337.02" y2="61.74"/>
    <line class="st3" x1="264.87" y1="48.21" x2="337.02" y2="48.21"/>
    <g>
      <line class="st2" x1="281.21" y1="397.15" x2="282.06" y2="448.22"/>
      <path class="st7" d="M278.29,448.09c.03,2.08,1.75,3.73,3.82,3.7,2.08-.03,3.73-1.75,3.7-3.82-.03-2.08-1.75-3.73-3.82-3.7-2.08.03-3.73,1.75-3.7,3.82Z"/>
    </g>
    <line class="st3" x1="291.92" y1="438.26" x2="368.58" y2="438.26"/>
    <line class="st3" x1="291.92" y1="426.99" x2="368.58" y2="426.99"/>
    <path class="st1" d="M258.16,230.75l19.26,11.12v22.19l-19.26,11.12-19.26-11.12v-22.19l19.26-11.12M258.2,215.76h-.09l-32.22,18.6v37.2l32.22,18.6h.09l32.22-18.6v-37.2l-32.22-18.6h0Z"/>
  </g>
  <polygon class="st4" points="137.04 420.14 110.55 409.41 87.84 418.6 65.12 409.41 38.63 420.14 61.34 429.33 38.63 438.52 65.12 449.25 87.84 440.06 110.55 449.25 137.04 438.52 114.33 429.33 137.04 420.14"/>
  <g>
    <g>
      <path class="st10" d="M147.33,310.59v10.96c-1.01,8.25-3.84,15.82-7.71,23.36l-39.69,77.33-21.39,10.36c.74-.17.59-.91.98-1.67l39.79-77.74c3.53-6.9,5.71-13.89,6.29-21.64,1.5-20.14-6.47-39.82-21.29-53.52-12.26-11.34-28.57-17.35-45.11-14.48-.82.14-1.64.31-2.47.49-.77.18-1.4.43-1.89-.02,3.35-2.2,7.13-3.46,10.83-5.44,8.57-4.59,18.01-7.17,27.74-6.1,9.67,1.07,18.5,4.49,26.34,10.08,16.02,11.42,25.16,28.83,27.58,48.01Z"/>
      <path class="st0" d="M78.54,432.59c-.36-.17-.79-.3-1.12-.89l-48.6-87.29c-4.76-8.55-7.16-17.9-7.76-27.58-1.2-19.46,7.25-38.89,24.66-48.6.03-.02.06-.03.09-.05,3.65-2.04,7.6-3.5,11.7-4.31.09-.02.17-.03.21-.04,17.04-3.51,33.96,2.52,46.58,14.2,14.81,13.7,22.79,33.38,21.29,53.52-.58,7.75-2.76,14.75-6.29,21.64l-39.79,77.74c-.39.76-.24,1.5-.98,1.67Z"/>
      <path class="st2" d="M57.72,263.83c17.04-3.51,33.96,2.52,46.58,14.2,14.81,13.7,22.79,33.38,21.29,53.52-.58,7.75-2.76,14.75-6.29,21.64l-39.79,77.74"/>
    </g>
    <ellipse class="st9" cx="69.29" cy="322.72" rx="24.94" ry="27.82" transform="translate(-166.83 92.07) rotate(-33.55)"/>
  </g>
</svg>