<svg width="500" height="484" viewBox="0 0 500 484" fill="none" xmlns="http://www.w3.org/2000/svg">
<g clip-path="url(#clip0_1_1222)">
<path d="M322.6 15.25C301.57 7.37001 279.62 0.760007 257.16 0.860007C226.89 0.990007 198.12 13.21 170.59 25.78C119.9 48.92 79.9301 85.17 38.3801 121.99C4.74006 151.8 -0.779945 213.6 0.240055 255.59C0.360055 260.66 0.490055 265.75 0.720055 270.83C1.43005 286.49 3.11005 302.09 8.59005 316.69C17.3901 340.09 37.8001 359.85 53.2101 379.11C69.9001 399.96 86.2501 417.36 108.71 432.24C134.14 449.1 170.51 478.04 201.88 480.7C241.37 484.04 271.61 485.65 309.57 473.82C350 461.22 394.3 442.83 423.4 410.59C438.65 393.69 448.61 369.57 459.97 349.92C482.12 311.58 491.31 270.24 485.61 226.17C479.64 180.04 461.52 144.69 442.41 103.46C417.86 50.51 374.73 34.78 322.62 15.24L322.6 15.25Z" fill="#EBF2D4"/>
<path d="M399.92 294.49H446.33V161.37H399.92V294.49Z" stroke="#006E69" stroke-width="2.34" stroke-linecap="round" stroke-linejoin="round"/>
<path d="M423.12 194.69C427.726 194.69 431.46 190.956 431.46 186.35C431.46 181.744 427.726 178.01 423.12 178.01C418.514 178.01 414.78 181.744 414.78 186.35C414.78 190.956 418.514 194.69 423.12 194.69Z" fill="#006E69" stroke="#006E69" stroke-width="2.34" stroke-linecap="round" stroke-linejoin="round"/>
<path d="M347.54 294.49H393.95V161.37H347.54V294.49Z" stroke="#013834" stroke-width="2.34" stroke-linecap="round" stroke-linejoin="round"/>
<path d="M370.75 194.69C375.356 194.69 379.09 190.956 379.09 186.35C379.09 181.744 375.356 178.01 370.75 178.01C366.144 178.01 362.41 181.744 362.41 186.35C362.41 190.956 366.144 194.69 370.75 194.69Z" fill="#013834" stroke="#013834" stroke-width="2.34" stroke-linecap="round" stroke-linejoin="round"/>
<path d="M498.71 161.37H452.3V294.49H498.71V161.37Z" stroke="#ADCB53" stroke-width="2.34" stroke-linecap="round" stroke-linejoin="round"/>
<path d="M475.5 194.69C480.106 194.69 483.84 190.956 483.84 186.35C483.84 181.744 480.106 178.01 475.5 178.01C470.894 178.01 467.16 181.744 467.16 186.35C467.16 190.956 470.894 194.69 475.5 194.69Z" fill="#ADCB53" stroke="#ADCB53" stroke-width="2.34" stroke-linecap="round" stroke-linejoin="round"/>
<path d="M68.3999 208.07C66.0999 212.3 64.7699 217.13 64.7099 222.26C64.5099 239.03 85.1999 257.84 94.8199 257.84C107.82 257.84 125.8 239.66 125.8 222.64C125.8 215.65 123.45 209.22 119.51 204.07C117.63 201.62 117.18 198.38 118.36 195.53C119.59 192.57 120.27 189.33 120.27 185.93C120.27 180.14 118.3 174.81 115 170.57C112.92 167.9 112.56 164.3 114.09 161.28C115.55 158.41 116.37 155.17 116.37 151.73C116.37 140.07 103.55 116.78 95.2499 116.78C87.9599 116.78 74.1299 140.06 74.1299 151.73C74.1299 155.17 74.9499 158.41 76.4099 161.28C77.9399 164.3 77.5799 167.9 75.4999 170.57C72.1999 174.81 70.2299 180.14 70.2299 185.93C70.2299 189.33 70.9099 192.57 72.1399 195.53C73.3199 198.37 72.8799 201.62 70.9999 204.06C70.0299 205.32 69.1599 206.67 68.3899 208.07" fill="#006E69"/>
<path d="M68.3999 208.07C66.0999 212.3 64.7699 217.13 64.7099 222.26C64.5099 239.03 85.1999 257.84 94.8199 257.84C107.82 257.84 125.8 239.66 125.8 222.64C125.8 215.65 123.45 209.22 119.51 204.07C117.63 201.62 117.18 198.38 118.36 195.53C119.59 192.57 120.27 189.33 120.27 185.93C120.27 180.14 118.3 174.81 115 170.57C112.92 167.9 112.56 164.3 114.09 161.28C115.55 158.41 116.37 155.17 116.37 151.73C116.37 140.07 103.55 116.78 95.2499 116.78C87.9599 116.78 74.1299 140.06 74.1299 151.73C74.1299 155.17 74.9499 158.41 76.4099 161.28C77.9399 164.3 77.5799 167.9 75.4999 170.57C72.1999 174.81 70.2299 180.14 70.2299 185.93C70.2299 189.33 70.9099 192.57 72.1399 195.53C73.3199 198.37 72.8799 201.62 70.9999 204.06C70.0299 205.32 69.1599 206.67 68.3899 208.07" stroke="#006E69" stroke-width="2.56" stroke-linecap="round" stroke-linejoin="round"/>
<path d="M95.25 143.69V287.71" stroke="#ADCB53" stroke-width="2.56" stroke-linecap="round" stroke-linejoin="round"/>
<path d="M120.8 287.71H69.71V338.86H120.8V287.71Z" stroke="#ADCB53" stroke-width="3.3" stroke-linecap="round" stroke-linejoin="round"/>
<path d="M380.69 382.55H107.26C104.25 400.35 97.25 437.75 97.25 437.75L97.61 441.43H389.89L390.13 437.75C390.13 437.75 384.04 400.87 380.7 382.55H380.69Z" fill="#A9C753" stroke="#A9C753" stroke-width="4.67" stroke-linecap="round" stroke-linejoin="round"/>
<path d="M380.69 378.87H107.26C103.95 398.48 100.37 418.04 97.61 437.75H389.89C386.68 418.15 384.26 398.42 380.7 378.87H380.69Z" fill="#EBF2D4"/>
<path d="M202.57 394C197.86 394 193.16 394 188.45 394C188.8 390.6 188.97 388.92 189.29 385.63C193.93 385.63 198.58 385.63 203.22 385.63C202.97 388.92 202.84 390.6 202.56 394.01L202.57 394Z" fill="#A7C553"/>
<path d="M219.77 394C215.07 394 210.38 394 205.68 394C205.94 390.6 206.06 388.92 206.29 385.62C210.92 385.62 215.55 385.62 220.18 385.62C220.03 388.91 219.95 390.59 219.77 394Z" fill="#A7C553"/>
<path d="M237 394.01C232.31 394.01 227.62 394.01 222.92 394.01C223.08 390.6 223.15 388.93 223.28 385.63C227.9 385.63 232.52 385.63 237.14 385.63C237.1 388.92 237.07 390.6 236.99 394.01H237Z" fill="#A7C553"/>
<path d="M254.18 394.01C249.49 394.01 244.8 394.01 240.11 394.01C240.16 390.6 240.19 388.92 240.21 385.63C244.83 385.63 249.45 385.63 254.07 385.63C254.13 388.93 254.15 390.61 254.18 394.01Z" fill="#A7C553"/>
<path d="M271.54 394.01C266.85 394.01 262.15 394.01 257.46 394.01C257.41 390.6 257.38 388.92 257.3 385.63C261.92 385.63 266.55 385.63 271.17 385.63C271.34 388.93 271.41 390.61 271.55 394.02L271.54 394.01Z" fill="#A7C553"/>
<path d="M288.8 394.02C284.1 394.02 279.4 394.02 274.7 394.02C274.55 390.61 274.46 388.93 274.28 385.63C278.91 385.63 283.55 385.63 288.18 385.63C288.44 388.93 288.57 390.61 288.8 394.02Z" fill="#A7C553"/>
<path d="M306.05 394.02C301.34 394.02 296.63 394.02 291.92 394.02C291.67 390.61 291.54 388.93 291.26 385.63C295.91 385.63 300.56 385.63 305.21 385.63C305.56 388.93 305.73 390.61 306.05 394.02Z" fill="#A7C553"/>
<path d="M334.51 394.03C329.77 394.03 325.04 394.03 320.3 394.03C319.91 390.62 319.71 388.93 319.29 385.64C323.98 385.64 328.67 385.64 333.36 385.64C333.83 388.94 334.06 390.62 334.5 394.04L334.51 394.03Z" fill="#A7C553"/>
<path d="M351.98 394.03C347.22 394.03 342.46 394.03 337.71 394.03C337.26 390.62 337.03 388.93 336.54 385.63C341.26 385.63 345.99 385.63 350.71 385.63C351.24 388.93 351.49 390.61 351.98 394.03Z" fill="#A7C553"/>
<path d="M369.48 394.03C364.7 394.03 359.91 394.03 355.13 394.03C354.63 390.61 354.37 388.93 353.84 385.63C358.6 385.63 363.37 385.63 368.13 385.63C368.69 388.93 368.95 390.61 369.48 394.03Z" fill="#A7C553"/>
<path d="M335.96 405.75C331.16 405.75 326.36 405.75 321.57 405.75C321.2 402.22 321.01 400.47 320.63 397.02C325.38 397.02 330.14 397.02 334.89 397.02C335.33 400.47 335.54 402.22 335.96 405.75Z" fill="#A7C553"/>
<path d="M353.6 405.76C348.8 405.76 343.99 405.76 339.19 405.76C338.75 402.22 338.54 400.47 338.09 397.02C342.86 397.02 347.63 397.02 352.4 397.02C352.89 400.47 353.12 402.22 353.6 405.76Z" fill="#A7C553"/>
<path d="M371.21 405.76C366.4 405.76 361.59 405.76 356.78 405.76C356.3 402.22 356.05 400.47 355.56 397.02C360.35 397.02 365.14 397.02 369.93 397.02C370.45 400.47 370.7 402.22 371.21 405.76Z" fill="#A7C553"/>
<path d="M337.42 417.83C332.56 417.83 327.7 417.83 322.84 417.83C322.45 414.21 322.27 412.41 321.89 408.85C326.7 408.85 331.52 408.85 336.33 408.85C336.76 412.41 336.97 414.21 337.41 417.83H337.42Z" fill="#A7C553"/>
<path d="M355.23 417.84C350.38 417.84 345.53 417.84 340.68 417.84C340.23 414.22 340.01 412.42 339.57 408.86C344.38 408.86 349.2 408.86 354.01 408.86C354.49 412.42 354.73 414.22 355.22 417.84H355.23Z" fill="#A7C553"/>
<path d="M372.94 417.85C368.1 417.85 363.27 417.85 358.43 417.85C357.93 414.23 357.69 412.43 357.2 408.87C362.02 408.87 366.83 408.87 371.65 408.87C372.16 412.43 372.41 414.23 372.94 417.85Z" fill="#A7C553"/>
<path d="M338.97 430.11C334.05 430.11 329.13 430.11 324.21 430.11C323.78 426.45 323.58 424.62 323.18 420.98C328.06 420.98 332.93 420.98 337.81 420.98C338.26 424.61 338.49 426.44 338.98 430.1L338.97 430.11Z" fill="#A7C553"/>
<path d="M356.96 430.12C352.07 430.12 347.17 430.12 342.28 430.12C341.78 426.46 341.55 424.63 341.09 421C345.95 421 350.81 421 355.67 421C356.17 424.63 356.43 426.46 356.96 430.12Z" fill="#A7C553"/>
<path d="M374.77 430.12C369.91 430.12 365.05 430.12 360.19 430.12C359.65 426.46 359.39 424.63 358.88 421C363.72 421 368.56 421 373.41 421C373.94 424.63 374.21 426.46 374.78 430.12H374.77Z" fill="#A7C553"/>
<path d="M132.81 393.99C128.03 393.99 123.24 393.99 118.46 393.99C119.05 390.59 119.33 388.92 119.89 385.63C124.65 385.63 129.42 385.63 134.18 385.63C133.65 388.92 133.37 390.6 132.81 394V393.99Z" fill="#A7C553"/>
<path d="M150.24 393.99C145.48 393.99 140.72 393.99 135.97 393.99C136.52 390.59 136.8 388.91 137.32 385.62C142.04 385.62 146.77 385.62 151.49 385.62C151 388.91 150.75 390.59 150.24 393.99Z" fill="#A7C553"/>
<path d="M167.65 393.99C162.91 393.99 158.18 393.99 153.44 393.99C153.94 390.59 154.19 388.91 154.67 385.62C159.36 385.62 164.05 385.62 168.74 385.62C168.32 388.91 168.1 390.59 167.65 393.99Z" fill="#A7C553"/>
<path d="M184.93 394C180.21 394 175.49 394 170.77 394C171.2 390.6 171.42 388.92 171.82 385.63C176.48 385.63 181.15 385.63 185.81 385.63C185.47 388.92 185.29 390.6 184.92 394H184.93Z" fill="#A7C553"/>
<path d="M239.4 405.71C233.25 405.71 227.09 405.71 220.94 405.71C221.12 402.18 221.21 400.44 221.38 396.99C227.44 396.99 233.51 396.99 239.57 396.99C239.51 400.43 239.47 402.18 239.4 405.71Z" fill="#A7C553"/>
<path d="M261.94 405.72C255.79 405.72 249.63 405.72 243.48 405.72C243.53 402.19 243.55 400.44 243.59 397C249.65 397 255.72 397 261.78 397C261.85 400.44 261.88 402.19 261.94 405.72Z" fill="#A7C553"/>
<path d="M284.55 405.73C278.39 405.73 272.24 405.73 266.08 405.73C265.99 402.2 265.95 400.45 265.86 397.01C271.93 397.01 278 397.01 284.07 397.01C284.27 400.46 284.36 402.2 284.56 405.74L284.55 405.73Z" fill="#A7C553"/>
<path d="M307.1 405.74C300.94 405.74 294.78 405.74 288.62 405.74C288.41 402.21 288.3 400.46 288.08 397.01C294.16 397.01 300.24 397.01 306.33 397.01C306.65 400.46 306.8 402.21 307.11 405.74H307.1Z" fill="#A7C553"/>
<path d="M148.58 405.67C137.87 405.67 127.17 405.67 116.46 405.66C117.06 402.14 117.36 400.4 117.95 396.96C128.6 396.96 139.24 396.96 149.89 396.96C149.37 400.4 149.11 402.14 148.58 405.66V405.67Z" fill="#A7C553"/>
<path d="M171.17 405.68C165 405.68 158.84 405.68 152.67 405.68C153.18 402.16 153.44 400.41 153.95 396.98C160.06 396.98 166.16 396.98 172.27 396.98C171.84 400.42 171.62 402.16 171.18 405.69L171.17 405.68Z" fill="#A7C553"/>
<path d="M193.8 405.69C187.64 405.69 181.48 405.69 175.32 405.69C175.74 402.16 175.95 400.42 176.37 396.98C182.46 396.98 188.54 396.98 194.63 396.98C194.31 400.42 194.14 402.16 193.81 405.69H193.8Z" fill="#A7C553"/>
<path d="M216.35 405.7C210.19 405.7 204.04 405.7 197.88 405.7C198.19 402.17 198.35 400.43 198.65 396.99C204.72 396.99 210.79 396.99 216.86 396.99C216.66 400.43 216.56 402.18 216.35 405.7Z" fill="#A7C553"/>
<path d="M225.38 417.77C219.11 417.77 212.83 417.77 206.56 417.77C206.8 414.15 206.93 412.35 207.19 408.8C213.38 408.8 219.56 408.8 225.75 408.8C225.6 412.36 225.52 414.15 225.39 417.77H225.38Z" fill="#A7C553"/>
<path d="M248.36 417.78C242.08 417.78 235.8 417.78 229.53 417.78C229.64 414.16 229.71 412.36 229.83 408.81C236.02 408.81 242.2 408.81 248.39 408.81C248.37 412.37 248.37 414.16 248.36 417.78Z" fill="#A7C553"/>
<path d="M271.42 417.8C265.14 417.8 258.87 417.8 252.59 417.8C252.57 414.18 252.56 412.38 252.56 408.83C258.75 408.83 264.93 408.83 271.12 408.83C271.24 412.39 271.29 414.19 271.43 417.8H271.42Z" fill="#A7C553"/>
<path d="M308.16 417.81C297.3 417.81 286.44 417.8 275.57 417.79C275.42 414.17 275.35 412.37 275.21 408.82C285.93 408.82 296.65 408.83 307.37 408.84C307.68 412.4 307.83 414.2 308.15 417.82L308.16 417.81Z" fill="#A7C553"/>
<path d="M133.12 417.72C126.9 417.72 120.68 417.72 114.47 417.72C115.05 414.1 115.35 412.31 115.94 408.76C122.13 408.76 128.32 408.76 134.51 408.76C133.95 412.31 133.67 414.11 133.12 417.73V417.72Z" fill="#A7C553"/>
<path d="M155.96 417.73C149.72 417.73 143.48 417.73 137.24 417.73C137.78 414.11 138.05 412.32 138.61 408.76C144.8 408.76 150.99 408.76 157.18 408.76C156.69 412.31 156.44 414.11 155.96 417.73Z" fill="#A7C553"/>
<path d="M178.93 417.75C172.67 417.75 166.42 417.75 160.16 417.75C160.62 414.13 160.86 412.34 161.34 408.78C167.53 408.78 173.72 408.78 179.9 408.78C179.5 412.33 179.3 414.13 178.92 417.75H178.93Z" fill="#A7C553"/>
<path d="M201.88 417.76C195.61 417.76 189.35 417.76 183.08 417.76C183.44 414.14 183.63 412.34 184.01 408.79C190.2 408.79 196.38 408.79 202.57 408.79C202.29 412.34 202.15 414.14 201.88 417.76Z" fill="#A7C553"/>
<path d="M239.06 430.08C232.66 430.08 226.26 430.08 219.86 430.08C219.98 426.4 220.05 424.57 220.21 420.94C226.52 420.94 232.83 420.94 239.14 420.94C239.09 424.58 239.07 426.41 239.06 430.08Z" fill="#A7C553"/>
<path d="M262.49 430.08C256.09 430.08 249.69 430.08 243.29 430.08C243.28 426.41 243.29 424.58 243.31 420.94C249.62 420.94 255.93 420.94 262.24 420.94C262.33 424.58 262.38 426.41 262.5 430.08H262.49Z" fill="#A7C553"/>
<path d="M285.97 430.09C279.58 430.09 273.19 430.09 266.8 430.09C266.65 426.42 266.59 424.59 266.48 420.95C272.78 420.95 279.09 420.95 285.39 420.95C285.61 424.58 285.72 426.41 285.97 430.08V430.09Z" fill="#A7C553"/>
<path d="M309.31 430.1C302.94 430.1 296.57 430.1 290.2 430.1C289.93 426.43 289.8 424.6 289.57 420.97C295.86 420.97 302.16 420.97 308.45 420.97C308.78 424.6 308.95 426.43 309.32 430.1H309.31Z" fill="#A7C553"/>
<path d="M145.17 430.05C134.3 430.05 123.44 430.05 112.57 430.04C113.11 426.35 113.39 424.52 113.96 420.88C124.77 420.88 135.57 420.89 146.38 420.9C145.88 424.54 145.63 426.37 145.17 430.06V430.05Z" fill="#A7C553"/>
<path d="M168.34 430.05C162.01 430.05 155.68 430.05 149.35 430.05C149.8 426.37 150.04 424.53 150.53 420.89C156.8 420.89 163.07 420.89 169.34 420.89C168.92 424.53 168.72 426.36 168.34 430.04V430.05Z" fill="#A7C553"/>
<path d="M191.71 430.06C185.35 430.06 178.98 430.06 172.62 430.06C172.98 426.38 173.17 424.55 173.57 420.91C179.86 420.91 186.15 420.91 192.44 420.91C192.13 424.55 191.99 426.38 191.72 430.06H191.71Z" fill="#A7C553"/>
<path d="M215.09 430.07C208.7 430.07 202.32 430.07 195.93 430.07C196.18 426.39 196.32 424.56 196.6 420.92C202.9 420.92 209.2 420.92 215.51 420.92C215.33 424.56 215.24 426.39 215.1 430.07H215.09Z" fill="#A7C553"/>
<path d="M381.45 226.56H107.26V378.87H381.45V226.56Z" fill="#003834"/>
<path d="M381.45 217.22H107.26V226.56H381.45V217.22Z" fill="#EBF2D4"/>
<path d="M381.45 217.2H107.26V378.87H381.45V217.2Z" stroke="#ADCB53" stroke-width="1.95" stroke-linecap="round" stroke-linejoin="round"/>
<path d="M107.26 227.02H381.46" stroke="#ADCB53" stroke-width="1.95" stroke-linecap="round" stroke-linejoin="round"/>
<path d="M328.18 44.55V141.35H211.65V44.55H328.18ZM329.15 43.58H210.69V142.31H329.15V43.58Z" fill="#013834"/>
<path d="M224.16 68.39H320.88" stroke="#013834" stroke-width="0.97" stroke-miterlimit="10"/>
<path d="M224.16 77.1H320.88" stroke="#013834" stroke-width="0.97" stroke-miterlimit="10"/>
<path d="M224.16 85.71H320.88" stroke="#013834" stroke-width="0.97" stroke-miterlimit="10"/>
<path d="M224.16 94.42H320.88" stroke="#013834" stroke-width="0.97" stroke-miterlimit="10"/>
<path d="M224.16 103.13H320.88" stroke="#013834" stroke-width="0.97" stroke-miterlimit="10"/>
<path d="M224.16 111.84H320.88" stroke="#013834" stroke-width="0.97" stroke-miterlimit="10"/>
<path d="M224.16 120.44H320.88" stroke="#013834" stroke-width="0.97" stroke-miterlimit="10"/>
<path d="M329.15 38.33H210.69V48.8H329.15V38.33Z" fill="#ACCA53"/>
<path d="M323.057 40.6956L318.383 45.3696L319.479 46.4656L324.153 41.7916L323.057 40.6956Z" fill="black"/>
<path d="M319.479 40.6956L318.383 41.7917L323.057 46.4656L324.153 45.3696L319.479 40.6956Z" fill="black"/>
<path d="M311.73 41.57V45.75H307.03V41.57H311.73ZM312.45 40.85H306.32V46.47H312.45V40.85Z" fill="black"/>
<path d="M300.36 45.23H294.23V46.47H300.36V45.23Z" fill="black"/>
<path d="M193.13 165.54V73.88L297.12 73.61V165.54H193.13Z" fill="#013834"/>
<path d="M296.62 74.11V165.04H193.62V74.38L296.62 74.11ZM297.61 73.11L192.62 73.38V166.03H297.61V73.11Z" fill="#013834"/>
<path d="M297.62 63.47H192.63V75.64H297.62V63.47Z" fill="#A8C653"/>
<path d="M293.529 67.4999L292.249 66.22L286.819 71.6506L288.099 72.9304L293.529 67.4999Z" fill="#181818"/>
<path d="M292.25 72.9295L293.53 71.6496L288.099 66.219L286.819 67.4989L292.25 72.9295Z" fill="#181818"/>
<path d="M279.09 67.24V72.1H273.63V67.24H279.09ZM279.93 66.4H272.8V72.93H279.93V66.4Z" fill="#181818"/>
<path d="M265.87 71.49H258.74V72.93H265.87V71.49Z" fill="#181818"/>
<path d="M235.65 102.17C235.65 107.4 239.89 111.64 245.12 111.64C250.35 111.64 254.59 107.4 254.59 102.17C254.59 98.64 250.28 90.85 247.47 86.15C246.41 84.37 243.83 84.37 242.77 86.15C239.97 90.84 235.65 98.64 235.65 102.17Z" stroke="#ADCB53" stroke-width="1.57" stroke-linecap="round" stroke-linejoin="round"/>
<path d="M245.12 97.21V116.5" stroke="#ADCB53" stroke-width="1.57" stroke-linecap="round" stroke-linejoin="round"/>
<path d="M242.76 97.33C242.76 96.03 243.82 94.97 245.12 94.97C246.42 94.97 247.48 96.03 247.48 97.33C247.48 98.63 246.42 99.69 245.12 99.69C243.82 99.69 242.76 98.63 242.76 97.33Z" fill="#ADCB53"/>
<path d="M228.82 97.07L219.81 103.72L228.82 110.36" stroke="#ADCB53" stroke-width="1.57" stroke-linecap="round" stroke-linejoin="round"/>
<path d="M261.42 97.07L270.43 103.72L261.42 110.36" stroke="#ADCB53" stroke-width="1.57" stroke-linecap="round" stroke-linejoin="round"/>
<path d="M259.43 127.85H270.15" stroke="#ADCB53" stroke-width="1.57" stroke-linecap="round" stroke-linejoin="round"/>
<path d="M234.65 127.85H254.29" stroke="#ADCB53" stroke-width="1.57" stroke-linecap="round" stroke-linejoin="round"/>
<path d="M220.09 127.85H228.8" stroke="#ADCB53" stroke-width="1.57" stroke-linecap="round" stroke-linejoin="round"/>
<path d="M261.68 139.2H270.15" stroke="#ADCB53" stroke-width="1.57" stroke-linecap="round" stroke-linejoin="round"/>
<path d="M220.09 139.2H228.26" stroke="#ADCB53" stroke-width="1.57" stroke-linecap="round" stroke-linejoin="round"/>
<path d="M231.98 139.2H258.26" stroke="#ADCB53" stroke-width="1.57" stroke-linecap="round" stroke-linejoin="round"/>
<path d="M249.42 150.55H270.15" stroke="#ADCB53" stroke-width="1.57" stroke-linecap="round" stroke-linejoin="round"/>
<path d="M220.09 150.55H240.22" stroke="#ADCB53" stroke-width="1.57" stroke-linecap="round" stroke-linejoin="round"/>
<path d="M260.23 188.09L243.69 205.29L227.15 188.09H260.23Z" fill="#ADCB53"/>
<path d="M250.96 176.85H236.41V191.4H250.96V176.85Z" fill="#ADCB53"/>
<path d="M207 263.78V265.73C207 267.57 208.49 269.06 210.33 269.06H236.42C238.26 269.06 239.75 270.55 239.75 272.39V324.83C239.75 326.67 238.26 328.16 236.42 328.16H172.29C170.45 328.16 168.96 326.67 168.96 324.83V270.29V269.06V263.77C168.96 261.93 170.45 260.44 172.29 260.44H203.67C205.51 260.44 207 261.93 207 263.77V263.78Z" stroke="white" stroke-width="1.33" stroke-miterlimit="10"/>
<path d="M199.04 271.14V273.09C199.04 274.93 200.53 276.42 202.37 276.42H228.46C230.3 276.42 231.79 277.91 231.79 279.75V332.19C231.79 334.03 230.3 335.52 228.46 335.52H164.33C162.49 335.52 161 334.03 161 332.19V277.65V276.42V271.13C161 269.29 162.49 267.8 164.33 267.8H195.71C197.55 267.8 199.04 269.29 199.04 271.13V271.14Z" fill="#003834" stroke="#ADCB53" stroke-width="1.33" stroke-linecap="round" stroke-linejoin="round"/>
<path d="M294.35 271.27H325.35V303.34" stroke="white" stroke-width="1.6" stroke-linecap="round" stroke-linejoin="round"/>
<path d="M293.82 271.41H261.76V303.47H293.82V271.41Z" stroke="#A5C352" stroke-width="1.65" stroke-linecap="round" stroke-linejoin="round"/>
<path d="M277.8 294.21C281.539 294.21 284.57 291.179 284.57 287.44C284.57 283.701 281.539 280.67 277.8 280.67C274.061 280.67 271.03 283.701 271.03 287.44C271.03 291.179 274.061 294.21 277.8 294.21Z" fill="white"/>
<path d="M293.82 303.47H261.76V335.53H293.82V303.47Z" fill="#003834" stroke="#A5C352" stroke-width="1.65" stroke-linecap="round" stroke-linejoin="round"/>
<path d="M325.89 303.47H293.83V335.53H325.89V303.47Z" stroke="#A5C352" stroke-width="1.65" stroke-linecap="round" stroke-linejoin="round"/>
<path d="M309.855 309.922L300.281 319.497L309.855 329.071L319.429 319.497L309.855 309.922Z" fill="#A5C352"/>
<path d="M195.01 360.59L183.15 322.28L221.45 334.15L203.44 342.58L195.01 360.59Z" fill="white"/>
<path d="M205.291 335.259L196.112 344.437L212.871 361.195L222.049 352.017L205.291 335.259Z" fill="white"/>
</g>
<defs>
<clipPath id="clip0_1_1222">
<rect width="500" height="484" fill="white"/>
</clipPath>
</defs>
</svg>
