<svg width="522" height="346" viewBox="0 0 522 346" fill="none" xmlns="http://www.w3.org/2000/svg">
<path d="M518.62 344.62C518.59 304.94 515.99 238.38 511.35 221.83C506 202.74 498.4 188.65 488.13 178.76C481.79 172.66 459.36 153.79 437.2 167.21C427.84 172.88 420.27 183.94 414.06 201.02L413.62 202.23C409.58 213.35 405.39 224.84 403.79 236.62C402.68 244.78 405.81 251.37 409.12 258.34C410.39 261.01 411.7 263.77 412.81 266.7C417.24 278.33 414.3 288.84 411.18 299.97C410.36 302.91 408.98 312.48 407.66 321.72C406.29 331.29 404.99 340.32 404.14 343.44L401.02 342.58C401.82 339.66 403.16 330.31 404.46 321.26C405.86 311.48 407.19 302.24 408.07 299.09C411.04 288.49 413.85 278.47 409.8 267.84C408.73 265.03 407.45 262.33 406.21 259.72C402.69 252.3 399.36 245.29 400.6 236.18C402.25 224.06 406.49 212.39 410.59 201.11L411.03 199.9C417.5 182.1 425.51 170.5 435.53 164.43C451.82 154.56 472.32 159.05 490.38 176.42C501.09 186.72 508.97 201.29 514.48 220.95C519.26 238 521.84 303.72 521.87 344.61H518.63L518.62 344.62Z" fill="#ADCB53"/>
<path d="M427.23 150.22H454.77V163.99C454.77 171.59 448.6 177.76 441 177.76C433.4 177.76 427.23 171.59 427.23 163.99V150.22Z" fill="#808080"/>
<path d="M421.98 169.74C446.242 169.74 465.91 150.072 465.91 125.81C465.91 101.548 446.242 81.88 421.98 81.88C397.718 81.88 378.05 101.548 378.05 125.81C378.05 150.072 397.718 169.74 421.98 169.74Z" fill="#808080"/>
<path d="M493.01 103.65C488.19 84.03 473.17 68.55 453.72 63.09C438.69 58.87 420.98 59.09 406.18 63.87C403.33 64.79 400.58 65.9 397.96 67.2C381.92 73.36 370.52 88.9 370.52 107.11V111.35H447.06C448.37 113.38 449.27 115.55 449.89 117.81V174.53H454.36C476.94 174.53 495.24 156.23 495.24 133.65C495.24 133.65 493.87 107.3 492.98 103.67L493.01 103.65Z" fill="white"/>
<path d="M362.36 285.46C358.73 282.54 355.17 279.62 351.52 276.74C347.84 273.84 344.09 270.54 341.87 266.34C341.3 265.25 340.08 264.39 338.88 264.67C337.92 264.9 337.25 265.8 336.88 266.72C336.17 268.48 336.27 270.39 336.59 272.22C336.73 273.03 339.5 279.81 341.26 281.69C341.57 282.02 341.45 282.57 341.02 282.73C339.41 283.34 337.56 283.32 335.88 282.89C332.24 281.97 328.61 279.61 326.13 276.81C323.2 273.51 320.4 270.11 317.3 266.97C314.17 263.8 308.98 262.72 304.68 263.06C303.38 263.16 301.81 263.66 301.58 264.94C301.44 265.74 301.9 266.52 302.35 267.2C305.53 272.08 309.32 276.4 312.59 281.21C314.96 284.7 316.6 289.02 318.44 292.82C319.5 295 320.61 297.26 322.52 298.76C324.27 300.14 326.5 300.73 328.66 301.29C332.85 302.37 337.23 302.39 341.42 303.46C345.47 304.5 349.05 304.57 352.67 306.98" fill="#808080"/>
<path d="M458.239 125.881C463.438 119.143 463.987 110.852 459.466 107.364C454.944 103.876 447.065 106.511 441.866 113.249C436.667 119.987 436.118 128.278 440.64 131.766C445.161 135.254 453.041 132.619 458.239 125.881Z" fill="#808080"/>
<path d="M473.96 301.57C485.73 287.27 491.78 236.53 492.01 228.53C492.33 217.44 490.82 197.65 480.5 190.81C470.96 184.5 457.77 186.67 450.73 195.33C445.5 201.77 441.39 210.87 439.47 218.93C437.32 227.92 437.27 237.22 437.83 246.39C438.33 254.71 440.11 261.73 434.24 268.86C430.1 273.89 424 276.61 417.5 276.33L377.25 274.6C363.06 273.99 351.05 285 350.44 299.2C349.83 313.29 360.68 325.22 374.72 325.99C374.83 325.99 374.93 326 375.04 326.01L415.29 327.74C438.08 328.72 459.47 319.18 473.97 301.56H473.96V301.57Z" fill="#013834"/>
<path d="M418.48 329.02C417.4 329.02 416.32 329 415.24 328.95L374.99 327.22C374.84 327.21 374.79 327.2 374.72 327.2C360 326.39 348.59 313.81 349.23 299.14C349.87 284.3 362.47 272.74 377.31 273.38L417.56 275.11C423.68 275.37 429.42 272.81 433.31 268.08C437.96 262.43 437.48 256.78 436.92 250.24C436.81 249.01 436.71 247.75 436.63 246.46C436.16 238.74 435.92 228.6 438.3 218.64C440.39 209.85 444.69 200.84 449.8 194.56C457.37 185.25 471.15 183.16 481.18 189.79C493.17 197.74 493.44 221.47 493.23 228.56C493 236.47 487.08 287.45 474.94 302.29C474.94 302.3 474.92 302.31 474.91 302.33C460.86 319.41 440.44 329.02 418.48 329.02ZM374.8 324.78C374.87 324.78 374.99 324.78 375.12 324.8L415.34 326.53C437.73 327.49 458.74 318.13 472.99 300.83C472.99 300.82 473.01 300.81 473.02 300.8C484.6 286.73 490.58 235.99 490.79 228.5C490.99 221.73 490.77 199.08 479.82 191.83C470.97 185.98 458.34 187.89 451.66 196.1C446.85 202.03 442.62 210.88 440.64 219.21C438.34 228.85 438.57 238.76 439.03 246.31C439.11 247.58 439.21 248.82 439.32 250.03C439.9 256.81 440.45 263.21 435.17 269.63C430.79 274.95 424.32 277.83 417.44 277.54L377.19 275.81C363.69 275.2 352.23 285.74 351.65 299.25C351.07 312.59 361.45 324.04 374.78 324.78C374.78 324.78 374.79 324.78 374.8 324.78Z" fill="white"/>
<path d="M444.16 281.13H444.13C443.46 281.11 442.93 280.56 442.95 279.88C443.01 277.34 442.12 274.7 440.56 272.8C440.09 272.22 435.54 267.72 434.94 267.2C434.63 266.99 434.43 266.64 434.42 266.24C434.4 265.58 434.9 265.03 435.55 264.99C441.86 264.56 449.82 268.98 453.26 274.86C453.6 275.44 453.4 276.18 452.83 276.52C452.25 276.86 451.51 276.66 451.17 276.09C448.77 272 443.7 268.62 438.99 267.67C440.71 269.36 442.42 271.24 442.45 271.27C444.4 273.63 445.47 276.8 445.39 279.95C445.37 280.61 444.83 281.13 444.18 281.13H444.16Z" fill="white"/>
<path d="M448.71 122.63C448.45 122.63 448.2 122.47 448.11 122.21C447.99 121.88 448.17 121.52 448.5 121.4C449.02 121.21 450.25 120.68 450.35 119.75C450.41 119.26 450.1 118.69 449.59 118.34C449.12 118.02 448.48 117.84 447.68 117.8C447.5 117.8 447.33 117.7 447.21 117.56C447.1 117.42 447.05 117.23 447.09 117.05C447.57 114.53 450.07 112.5 452.32 111.61C454.54 110.74 457.71 110.76 459.45 112.89C459.67 113.16 459.63 113.56 459.36 113.78C459.09 114 458.69 113.96 458.47 113.69C457.14 112.06 454.6 112.08 452.79 112.79C451.13 113.44 449.22 114.88 448.54 116.62C449.23 116.74 449.83 116.96 450.32 117.29C451.23 117.92 451.74 118.94 451.62 119.89C451.5 121.04 450.51 122.03 448.93 122.59C448.86 122.62 448.79 122.63 448.72 122.63H448.71Z" fill="#C3C3C3"/>
<path d="M118.34 345.65C117.71 343.35 116.82 327.01 115.3 298.33C113.21 258.9 110.35 204.89 107.76 197.77C101.5 180.56 93.85 169.4 84.37 163.65C69.16 154.44 49.85 158.79 32.71 175.28C22.36 185.23 14.71 199.41 9.32 218.62C4.67 235.21 2.06 304.05 2.03 345.29H0C0.03 303.93 2.67 234.84 7.37 218.08C12.85 198.51 20.68 184.03 31.3 173.82C49.15 156.65 69.38 152.2 85.42 161.91C95.32 167.9 103.25 179.4 109.67 197.07C112.36 204.48 115.11 256.45 117.33 298.22C118.6 322.2 119.7 342.91 120.3 345.11L118.34 345.65Z" fill="white"/>
<path d="M67.6 150.22H95.14V163.99C95.14 171.59 88.97 177.76 81.37 177.76C73.77 177.76 67.6 171.59 67.6 163.99V150.22Z" fill="white"/>
<path d="M143.059 126.394C145.059 102.214 127.08 80.9914 102.901 78.9908C78.7214 76.9901 57.4985 94.9694 55.4978 119.149C53.4972 143.328 71.4765 164.551 95.6557 166.552C119.835 168.552 141.058 150.573 143.059 126.394Z" fill="white"/>
<path d="M68.52 153.05C55.53 150.51 46.22 139.21 42.76 126.84C39.29 114.4 40.77 100.37 46.41 88.78C48.19 85.12 50.43 81.65 53.24 78.69C73.83 57.07 99.5 59.05 115.06 64.07C123.14 66.68 129.56 71.92 135.49 77.83C138.32 80.65 140.31 83.29 142.37 86.65C144.43 90.01 148.1 93.86 152.3 91.29C151.91 95.36 149.09 99.1 145.29 100.6C140.8 102.38 135.44 101.78 130.85 100.82C126.36 99.88 123.55 97.08 119.77 94.94C113.16 91.21 104.71 91.17 97.43 92.49C89.9 93.86 77.51 99.09 71.87 110.54C64.16 126.18 67.87 152.94 68.51 153.06H68.52V153.05Z" fill="#181818"/>
<path d="M42.17 127.01C38.69 114.52 40.03 100.49 45.86 88.51C47.8 84.51 50.14 81.07 52.8 78.26C75.77 54.14 104.14 59.88 115.26 63.48C124.02 66.31 130.63 72.1 135.94 77.39C138.66 80.11 140.68 82.69 142.91 86.33C144.57 89.04 147.96 93.22 151.98 90.76L153.05 90.11L152.93 91.36C152.52 95.66 149.54 99.61 145.53 101.19L145.07 100.03C148.3 98.76 150.77 95.77 151.51 92.39C148.22 93.64 144.76 91.73 141.85 86.99C139.68 83.45 137.71 80.93 135.06 78.29C129.86 73.1 123.39 67.43 114.88 64.68C103.98 61.16 76.19 55.53 53.7 79.14C51.13 81.85 48.87 85.19 46.98 89.07C41.28 100.78 39.97 114.49 43.37 126.69L42.17 127.03V127.01Z" fill="#757575"/>
<path d="M80.5944 128.771C85.1159 125.283 84.5669 116.993 79.3682 110.254C74.1696 103.516 66.2899 100.881 61.7685 104.369C57.247 107.858 57.796 116.148 62.9947 122.886C68.1933 129.625 76.073 132.259 80.5944 128.771Z" fill="white"/>
<path d="M161.58 312.57C163.87 313.74 165.85 315.05 168.46 315.52C174.52 316.61 180.37 315.31 186.45 315.74C187.5 315.81 189.13 315.81 190.03 316.4C190.79 316.89 191.33 317.99 191.92 318.67C193.61 320.63 195.43 322.51 197.54 324.02C200.29 325.99 203.62 327.32 207 327.16C207.56 327.13 208.29 326.85 208.2 326.3C208.17 326.1 208.03 325.95 207.9 325.8C205.49 323.05 203.83 319.65 203.14 316.05C204.74 318.35 207.12 319.95 209.45 321.5C213.16 323.97 218.46 323.97 222.6 322.76C223.85 322.39 225.29 321.59 225.25 320.29C225.23 319.47 224.62 318.81 224.04 318.24C219.93 314.11 215.34 310.65 211.16 306.6C208.13 303.67 205.64 299.77 203.07 296.43C201.59 294.51 200.04 292.53 197.87 291.44C195.87 290.44 193.57 290.32 191.34 290.22C187.02 290.02 182.72 290.89 178.4 290.69C174.22 290.5 170.7 291.16 166.67 289.53" fill="white"/>
<path d="M205.43 321.57C205.03 320.97 204.59 320.27 204.11 319.51C201.29 315.05 197.03 308.31 192.5 307.76C192.06 307.71 191.6 307.73 191.12 307.75C190.42 307.78 189.69 307.81 188.95 307.63L189.33 306.05C189.86 306.18 190.44 306.15 191.06 306.13C191.59 306.11 192.14 306.09 192.71 306.16C198 306.81 202.51 313.94 205.49 318.65C205.97 319.4 206.4 320.09 206.79 320.68L205.44 321.58L205.43 321.57Z" fill="#003834"/>
<path d="M47.3 298.54C35.53 284.24 29.48 233.5 29.25 225.5C28.93 214.41 30.44 194.62 40.76 187.78C50.3 181.47 63.49 183.64 70.53 192.3C75.76 198.74 79.87 207.84 81.79 215.9C83.94 224.89 83.99 234.19 83.43 243.36C82.93 251.68 81.15 258.7 87.02 265.83C91.16 270.86 97.26 273.58 103.76 273.3L144.01 271.57C158.2 270.96 170.21 281.97 170.82 296.17C171.43 310.26 160.58 322.19 146.54 322.96C146.43 322.96 146.33 322.97 146.22 322.98L105.97 324.71C83.18 325.69 61.79 316.15 47.29 298.53H47.3V298.54Z" fill="#003834"/>
<path d="M102.78 325.99C80.82 325.99 60.41 316.37 46.35 299.3C46.34 299.28 46.32 299.27 46.31 299.25C34.18 284.4 28.26 233.44 28.03 225.53C27.83 218.45 28.09 194.71 40.08 186.76C50.11 180.12 63.9 182.22 71.46 191.53C76.57 197.82 80.86 206.82 82.96 215.61C85.34 225.56 85.1 235.7 84.63 243.43C84.55 244.72 84.44 245.98 84.34 247.21C83.78 253.75 83.29 259.4 87.95 265.05C91.84 269.78 97.58 272.35 103.7 272.08L143.95 270.35C151.14 270.05 158.02 272.55 163.32 277.41C168.62 282.28 171.72 288.92 172.03 296.11C172.66 310.78 161.26 323.36 146.6 324.16C146.47 324.16 146.41 324.16 146.35 324.17L106.02 325.91C104.94 325.96 103.85 325.98 102.78 325.98V325.99ZM48.27 297.81C62.52 315.1 83.53 324.45 105.91 323.49L146.16 321.76C146.27 321.75 146.39 321.74 146.53 321.74C159.8 321.01 170.17 309.56 169.6 296.22C169.32 289.68 166.51 283.64 161.68 279.21C156.85 274.78 150.59 272.5 144.06 272.78L103.81 274.51C96.91 274.8 90.46 271.92 86.08 266.6C80.8 260.18 81.35 253.78 81.93 247C82.03 245.79 82.14 244.55 82.22 243.28C82.68 235.72 82.92 225.81 80.61 216.17C78.63 207.84 74.4 198.98 69.59 193.05C62.92 184.84 50.28 182.92 41.43 188.78C30.48 196.04 30.27 218.68 30.46 225.45C30.68 232.94 36.66 283.69 48.23 297.75C48.24 297.76 48.25 297.78 48.27 297.79V297.81Z" fill="#ADCB53"/>
<path d="M77.1 278.09C76.44 278.09 75.9 277.57 75.89 276.91C75.81 273.76 76.89 270.6 78.84 268.23C78.87 268.2 80.57 266.32 82.29 264.63C77.58 265.59 72.51 268.96 70.11 273.05C69.77 273.63 69.03 273.82 68.45 273.48C67.87 273.14 67.68 272.4 68.02 271.82C71.46 265.94 79.41 261.53 85.73 261.95C86.38 261.99 86.88 262.55 86.86 263.2C86.85 263.6 86.64 263.95 86.33 264.16C85.73 264.68 81.18 269.18 80.71 269.76C79.15 271.66 78.25 274.3 78.31 276.84C78.33 277.51 77.8 278.07 77.13 278.09H77.1Z" fill="#ADCB53"/>
<path d="M72.55 119.92C72.44 119.92 72.34 119.9 72.23 119.86C70.53 119.25 69.47 118.17 69.33 116.88C69.21 115.82 69.77 114.68 70.77 113.99C71.21 113.7 71.71 113.48 72.28 113.34C71.53 111.85 69.84 110.63 68.36 110.04C66.61 109.35 64.22 109.41 63.05 110.85C62.72 111.26 62.11 111.32 61.71 110.99C61.3 110.66 61.24 110.05 61.57 109.65C63.4 107.4 66.74 107.36 69.06 108.27C71.4 109.19 73.98 111.31 74.49 113.95C74.54 114.22 74.47 114.5 74.3 114.72C74.13 114.94 73.87 115.07 73.6 115.08C72.86 115.12 72.27 115.28 71.85 115.57C71.45 115.85 71.19 116.3 71.23 116.67C71.31 117.45 72.51 117.93 72.87 118.06C73.37 118.24 73.63 118.78 73.45 119.28C73.31 119.67 72.94 119.91 72.55 119.91V119.92Z" fill="#3D3D3D"/>
<path d="M119.26 124C118.33 126.04 119.22 128.45 121.26 129.38C123.3 130.31 125.71 129.42 126.64 127.38C127.57 125.34 120.19 121.96 119.26 124Z" fill="#3C3C3C"/>
<path d="M132.93 125.43C128.55 117.44 118.18 115.89 112.67 118.31L110.07 112.38C118.88 108.52 132.77 111.65 138.61 122.32L132.93 125.43Z" fill="#3C3C3C"/>
<path d="M122.51 157.14C122.44 157.14 122.36 157.13 122.29 157.1C118.25 155.42 116.13 153.89 114.24 149.27C114.12 148.98 114.26 148.65 114.55 148.53C114.84 148.41 115.17 148.55 115.29 148.84C116.89 152.74 118.48 154.29 122.72 156.05C123.01 156.17 123.15 156.51 123.03 156.8C122.94 157.02 122.73 157.15 122.5 157.15L122.51 157.14Z" fill="#606060"/>
<path d="M396.8 130.48C397.73 132.52 396.84 134.93 394.8 135.86C392.76 136.79 390.35 135.9 389.42 133.86C388.49 131.82 395.87 128.44 396.8 130.48Z" fill="#181818"/>
<path d="M381 130.74L379.58 129.96C384.8 120.44 397.17 117.64 405.01 121.08L404.36 122.56C397.16 119.4 385.79 121.98 381 130.74Z" fill="white"/>
<path d="M395.17 160.44C394.92 160.44 394.69 160.29 394.58 160.05C394.45 159.73 394.6 159.35 394.92 159.22C399.14 157.47 400.73 155.92 402.32 152.05C402.45 151.73 402.83 151.57 403.15 151.7C403.48 151.83 403.63 152.2 403.5 152.53C401.6 157.18 399.47 158.71 395.42 160.39C395.34 160.42 395.26 160.44 395.18 160.44H395.17Z" fill="#C3C3C3"/>
<path d="M234.97 207.82C229.67 207.82 224.28 207.16 218.93 205.79C206.95 202.71 196.21 196.34 187.81 187.35C179.19 192.18 168.41 191.3 160.68 185.06C160.35 184.8 160.19 184.39 160.24 183.97C160.29 183.55 160.55 183.19 160.93 183.02C163.61 181.75 166.07 179.89 168.22 177.47C168.99 176.6 169.69 175.72 170.31 174.83C173.21 170.62 174.07 165.29 172.68 160.2C169.37 148.05 169.7 135.26 173.63 123.21C184.08 91.17 217.88 72.49 250.57 80.68C251.22 80.84 251.62 81.5 251.45 82.15C251.29 82.8 250.63 83.2 249.98 83.03C218.53 75.15 186 93.13 175.94 123.96C172.16 135.56 171.84 147.87 175.03 159.55C176.61 165.33 175.62 171.4 172.32 176.2C171.65 177.17 170.89 178.14 170.05 179.08C168.15 181.21 166.04 182.95 163.74 184.29C170.8 189.04 180.09 189.29 187.42 184.77C187.92 184.46 188.57 184.55 188.96 184.99C197.13 194.02 207.71 200.4 219.55 203.44C224.7 204.76 229.89 205.4 234.99 205.4C261.4 205.4 285.76 188.42 294.11 162.17C302.48 135.88 292.32 106.85 269.39 91.59C268.83 91.22 268.68 90.46 269.05 89.91C269.42 89.35 270.18 89.2 270.73 89.57C294.56 105.43 305.12 135.59 296.43 162.91C287.75 190.18 262.44 207.83 234.99 207.83L234.97 207.82Z" fill="white"/>
<path d="M286.29 207.83C258.84 207.83 233.54 190.18 224.85 162.91C216.15 135.57 226.17 106.3 249.78 90.08C250.33 89.7 251.09 89.84 251.47 90.39C251.85 90.94 251.71 91.7 251.16 92.08C228.44 107.69 218.79 135.85 227.17 162.17C235.52 188.42 259.88 205.4 286.29 205.4C291.39 205.4 296.57 204.77 301.73 203.44C313.57 200.4 324.15 194.02 332.32 184.99C332.71 184.56 333.36 184.46 333.86 184.77C341.19 189.29 350.49 189.04 357.54 184.29C355.25 182.96 353.13 181.21 351.23 179.09C350.39 178.15 349.62 177.18 348.96 176.21C345.66 171.41 344.67 165.34 346.25 159.56C349.43 147.87 349.12 135.56 345.34 123.97C335.28 93.14 302.76 75.16 271.3 83.04C270.65 83.2 269.99 82.81 269.83 82.16C269.67 81.51 270.06 80.85 270.71 80.69C303.4 72.5 337.19 91.18 347.65 123.22C351.58 135.27 351.91 148.06 348.6 160.21C347.21 165.3 348.07 170.63 350.97 174.84C351.58 175.73 352.28 176.62 353.05 177.48C355.21 179.9 357.66 181.76 360.34 183.03C360.72 183.21 360.98 183.57 361.03 183.98C361.08 184.4 360.91 184.81 360.59 185.07C352.86 191.32 342.07 192.19 333.46 187.36C325.06 196.35 314.33 202.72 302.34 205.8C296.98 207.18 291.6 207.83 286.29 207.83Z" fill="#ADCB53"/>
<path d="M260.63 31.67C254.38 31.67 248.86 27.67 246.9 21.72C246.7 21.1 247.03 20.44 247.65 20.24C248.27 20.04 248.93 20.37 249.13 20.99C250.77 25.97 255.39 29.32 260.62 29.32C265.85 29.32 270.47 25.97 272.12 21C272.32 20.38 272.98 20.05 273.6 20.25C274.22 20.45 274.55 21.12 274.35 21.73C272.38 27.67 266.87 31.67 260.62 31.67H260.63Z" fill="#A9C753"/>
<path d="M268.8 20.83C269.22 18.43 271.5 16.81 273.9 17.23C276.3 17.65 277.92 19.93 277.5 22.33C277.08 24.73 274.8 26.35 272.4 25.93C270 25.51 268.38 23.23 268.8 20.83Z" fill="#A9C753"/>
<path d="M252.46 20.83C252.04 18.43 249.76 16.81 247.36 17.23C244.96 17.65 243.34 19.93 243.76 22.33C244.18 24.73 246.46 26.35 248.86 25.93C251.26 25.51 252.88 23.23 252.46 20.83Z" fill="#A9C753"/>
<path d="M260.63 57.4899C250.87 57.4899 242.27 50.5599 240.19 41.0099C240.05 40.3799 240.45 39.7499 241.09 39.6099C241.73 39.4699 242.35 39.8699 242.49 40.5099C244.34 48.9899 251.97 55.1499 260.63 55.1499C269.29 55.1499 276.93 48.9899 278.77 40.5099C278.91 39.8799 279.54 39.4699 280.17 39.6099C280.8 39.7499 281.21 40.3699 281.07 41.0099C278.99 50.5599 270.4 57.4899 260.63 57.4899Z" fill="#A9C753"/>
<path d="M275.47 40.45C275.75 38.03 277.95 36.29 280.37 36.57C282.79 36.85 284.53 39.05 284.25 41.47C283.97 43.89 281.77 45.63 279.35 45.35C276.93 45.07 275.19 42.87 275.47 40.45Z" fill="#A9C753"/>
<path d="M245.79 40.45C245.51 38.03 243.31 36.29 240.89 36.57C238.47 36.85 236.73 39.05 237.01 41.47C237.29 43.89 239.49 45.63 241.91 45.35C244.33 45.07 246.07 42.87 245.79 40.45Z" fill="#A9C753"/>
<path d="M260.64 160.46C259.99 160.46 259.47 159.93 259.47 159.29V4.20003C259.47 3.55003 260 3.03003 260.64 3.03003C261.28 3.03003 261.81 3.56003 261.81 4.20003V159.29C261.81 159.94 261.28 160.46 260.64 160.46Z" fill="#A9C753"/>
<path d="M256.22 4.42C256.22 1.98 258.2 0 260.64 0C263.08 0 265.06 1.98 265.06 4.42C265.06 6.86 263.08 8.84 260.64 8.84C258.2 8.84 256.22 6.86 256.22 4.42Z" fill="#A9C753"/>
<path d="M282.32 160.23C281.8 160.23 281.38 159.81 281.38 159.29V140.85C281.38 140.33 281.8 139.91 282.32 139.91C282.84 139.91 283.26 140.33 283.26 140.85V159.29C283.26 159.81 282.84 160.23 282.32 160.23Z" fill="#A8C653"/>
<path d="M285.86 141.02C285.86 139.07 284.28 137.48 282.32 137.48C280.36 137.48 278.78 139.06 278.78 141.02C278.78 142.98 280.36 144.56 282.32 144.56C284.28 144.56 285.86 142.98 285.86 141.02Z" fill="#A8C653"/>
<path d="M272.22 160.22C271.7 160.22 271.28 159.8 271.28 159.28V129.08C271.28 128.56 271.7 128.14 272.22 128.14C272.74 128.14 273.16 128.56 273.16 129.08V159.28C273.16 159.8 272.74 160.22 272.22 160.22Z" fill="#A8C653"/>
<path d="M275.76 129.26C275.76 127.31 274.18 125.72 272.22 125.72C270.26 125.72 268.68 127.3 268.68 129.26C268.68 131.22 270.26 132.8 272.22 132.8C274.18 132.8 275.76 131.22 275.76 129.26Z" fill="#A8C653"/>
<path d="M238.94 160.23C238.42 160.23 238 159.81 238 159.29V140.85C238 140.33 238.42 139.91 238.94 139.91C239.46 139.91 239.88 140.33 239.88 140.85V159.29C239.88 159.81 239.46 160.23 238.94 160.23Z" fill="#A8C653"/>
<path d="M242.47 141.02C242.47 139.07 240.89 137.48 238.93 137.48C236.97 137.48 235.39 139.06 235.39 141.02C235.39 142.98 236.97 144.56 238.93 144.56C240.89 144.56 242.47 142.98 242.47 141.02Z" fill="#A8C653"/>
<path d="M249.04 160.22C248.52 160.22 248.1 159.8 248.1 159.28V129.08C248.1 128.56 248.52 128.14 249.04 128.14C249.56 128.14 249.98 128.56 249.98 129.08V159.28C249.98 159.8 249.56 160.22 249.04 160.22Z" fill="#A8C653"/>
<path d="M252.58 129.26C252.58 127.31 251 125.72 249.04 125.72C247.08 125.72 245.5 127.3 245.5 129.26C245.5 131.22 247.08 132.8 249.04 132.8C251 132.8 252.58 131.22 252.58 129.26Z" fill="#A8C653"/>
<path d="M293.98 160.52H227.28C226.96 160.52 226.7 160.26 226.7 159.94C226.7 159.62 226.96 159.36 227.28 159.36H293.98C294.3 159.36 294.56 159.62 294.56 159.94C294.56 160.26 294.3 160.52 293.98 160.52Z" fill="#A9C753"/>
<path d="M268.84 328.42H184.14C183.25 328.42 182.52 327.69 182.52 326.8C182.52 325.91 183.25 325.18 184.14 325.18H267.6L289.49 245.37C289.73 244.51 290.61 244 291.48 244.24C292.34 244.48 292.85 245.37 292.61 246.23L270.39 327.23C270.2 327.93 269.56 328.42 268.83 328.42H268.84Z" fill="#ADCB53"/>
</svg>
