<svg xmlns="http://www.w3.org/2000/svg" xmlns:xlink="http://www.w3.org/1999/xlink" id="text" viewBox="0 0 500 500"><defs><linearGradient id="linear-gradient" x1="162.71" x2="485.07" y1="227.03" y2="227.03" gradientUnits="userSpaceOnUse"><stop offset=".13" stop-color="#003834"/><stop offset=".58" stop-color="#338a86"/><stop offset=".63" stop-color="#398d85"/><stop offset=".7" stop-color="#4b9782"/><stop offset=".78" stop-color="#6aa87f"/><stop offset=".87" stop-color="#93be7a"/><stop offset=".95" stop-color="#bed675"/></linearGradient><linearGradient xlink:href="#linear-gradient" id="linear-gradient1" x1="225.39" x2="422.39"/><linearGradient id="linear-gradient2" x1="417.2" x2="405.51" y1="407.81" y2="378.95" gradientUnits="userSpaceOnUse"><stop offset="0" stop-color="#6fafac"/><stop offset=".09" stop-color="#60a3a0"/><stop offset=".37" stop-color="#37817d"/><stop offset=".63" stop-color="#186863"/><stop offset=".84" stop-color="#065954"/><stop offset="1" stop-color="#00544f"/></linearGradient><linearGradient xlink:href="#linear-gradient2" id="linear-gradient3" x1="388" x2="452.37" y1="329.86" y2="329.86"/><style>.st9{fill:#6fafac}.st14{fill:#fff}.st16{fill:#003834}</style></defs><circle cx="323.89" cy="227.03" r="145.06" style="fill:none;stroke-miterlimit:10;stroke-width:32.24px;stroke:url(#linear-gradient)"/><circle cx="323.89" cy="227.03" r="82.38" style="fill:none;stroke-miterlimit:10;stroke:url(#linear-gradient1);stroke-width:32.24px"/><path d="M246.87 238.43H86.11V113.55l160.76-.37zm-160.76-144h160.76v18.64H86.11z" style="fill:none;stroke-miterlimit:10;stroke-width:2.01px;stroke:#6fafac"/><path d="m230.35 106.966 8.315-8.316 1.959 1.96-8.316 8.315z" class="st9"/><path d="m230.35 100.602 1.958-1.959 8.316 8.316-1.959 1.959zm-10.56-1.682h-10.92v10h10.92zm-32.44 7.8h10.92v2.2h-10.92z" class="st9"/><path d="M116.96 160.22h34.44m-51.79 0h14.16m-14.16 27.6h31.61" style="fill:none;stroke:#c3c3c3;stroke-width:2.01px;stroke-miterlimit:10"/><path d="M32.05 196.49V73.61l158.75-.36v123.24z" style="fill:#00524f"/><path d="M189.8 74.26v121.23H33.05V74.62zm2.01-2.01-160.76.37V197.5h160.76z" class="st14"/><path d="M31.05 56.17h160.76v18.64H31.05z" class="st9"/><path d="m183.609 60.392 1.958 1.959-8.315 8.316-1.959-1.96z" class="st14"/><path d="m185.558 68.709-1.959 1.958-8.316-8.315 1.96-1.959zM164.73 60.66h-10.92v10h10.92zm-32.45 7.8h10.92v2.2h-10.92z" class="st14"/><path d="M48.53 98.85h125.8m-125.8 25.21h125.8m-125.8 25.21h125.8m-125.8 25.21h125.8" style="fill:none;stroke:#6fafac;stroke-linecap:round;stroke-linejoin:round;stroke-width:7.16px"/><path d="M209.75 440.25h-44m170 0h-103m103.5-12.5h-78" style="fill:none;stroke:#003834;stroke-width:3px;stroke-linecap:round;stroke-linejoin:round"/><path d="m372.82 336.76-12.88 19.19-16.15-20.17c-.33-.42-.54-.78-.71-1.13-.28 0-.54.25-.62.76L324.02 440.6c-.07.41.19.67-.07.84-.08.05-.26.02-.37.01v.43c.25.58.45.73.98.75.03-.34.37-.54.85-.76l75.43-34.71-16.55-20.78c-.42-.53-.54-.98-.15-1.62l26.69-39.9c.47-.71.44-1.18-.06-1.81l-22.11-27.5c-.34-.42-.49-.75-.65-1.1-.73.08-.67.31-1.14 1.03l-12.22 18.43c-.45.68-1.53 2.44-1.81 2.86Z" style="fill:#afd3d0"/><path d="m359.94 355.95-16.15-20.17c-.33-.42-.54-.78-.71-1.13-.28 0-.54.25-.62.76L324.02 440.6c-.07.41-.32.85-.44.85v.43c.25.58.45.73.98.75.03-.34.37-.54.85-.76l75.43-34.71-16.55-20.78c-.42-.53-.54-.98-.15-1.62l26.69-39.9c.47-.71.44-1.18-.06-1.81l-22.11-27.5c-.34-.42-.49-.75-.65-1.1-.73.08-.67.31-1.14 1.03l-26.92 40.48Z" style="fill:none"/><path d="m388.65 315.55 22.11 27.5c.5.62.53 1.1.06 1.81l-26.69 39.9c-.39.65-.27 1.09.15 1.62l16.55 20.78-75.43 34.71c-.48.22-.82.42-.85.76l36.04.96c1.53.04 3.26.58 4.73-.09l75.73-34.69c.41-.22.64-.65.33-1.03l-16.75-20.93 15.98-23.92 11.75-17.63-23.02-28.59c-.44-.55-.83-.75-1.53-.78l-32.4-1.26-5.35-.14c-.79-.02-1.75.6-1.41 1.02" class="st16"/><path d="M424.64 386.85s-40.78-1.01-40.35-.48l16.55 20.78 40.22 1.65c.41-.22.64-.65.33-1.03l-16.75-20.93Z" style="fill:url(#linear-gradient2)"/><path d="M410.76 343.05c.5.62 41.61 2.25 41.61 2.25l-23.02-28.59c-.44-.55-.83-.75-1.53-.78l-32.4-1.26-5.35-.14c-.79-.02-1.37-.16-2.06-.09.16.35.32.68.65 1.1l22.11 27.5Z" style="fill:url(#linear-gradient3)"/><path d="M343.08 334.65c.17.35.38.72.71 1.13l16.15 20.17 12.81-18.7c.28-.42-29.67-2.6-29.67-2.6" class="st16"/><path d="M324.56 442.63c.03-.34.37-.54.85-.76l75.43-34.71-16.55-20.78c-.42-.53-.54-.98-.15-1.62l26.69-39.9c.47-.71.44-1.18-.06-1.81l-22.11-27.5c-.34-.42-.49-.75-.65-1.1-.73.08-.67.31-1.14 1.03l-12.22 18.43c-.45.68-1.53 2.44-1.81 2.86l-12.88 19.19" style="fill:none;stroke-miterlimit:10;stroke:#fff"/><path d="M342.85 226.5c.09 10.47-8.33 19.03-18.8 19.11-10.47.09-19.03-8.33-19.11-18.8-.09-10.47 18.73-28.28 18.73-28.28s19.1 17.5 19.19 27.97Z" style="fill:#adcb53"/><path d="m323.85 221.77.27 33.77" style="fill:none;stroke-linecap:round;stroke-linejoin:round;stroke:#adcb53;stroke-width:5.97px"/></svg>