<svg width="371" height="388" viewBox="0 0 371 388" fill="none" xmlns="http://www.w3.org/2000/svg">
<path d="M356.85 258.86C362.82 242.94 367.82 226.32 367.74 209.32C367.64 186.41 358.39 164.63 348.88 143.78C331.36 105.4 303.92 75.14 276.04 43.69C253.48 18.23 206.69 14.05 174.9 14.81C171.07 14.9 167.21 15 163.36 15.17C151.51 15.71 139.69 16.98 128.64 21.13C110.92 27.79 95.97 43.24 81.39 54.91C65.6 67.54 52.43 79.92 41.16 96.92C28.4 116.17 6.49002 143.7 4.48002 167.45C1.95002 197.35 0.730019 220.24 9.69002 248.97C19.23 279.58 33.15 313.12 57.56 335.15C70.35 346.7 88.61 354.24 103.49 362.84C132.51 379.61 163.81 386.56 197.17 382.25C232.09 377.73 258.86 364.01 290.07 349.54C330.15 330.96 342.07 298.3 356.85 258.85V258.86Z" fill="#EBF2D4"/>
<path d="M136.67 344.47C136.67 349.91 115.84 354.32 90.15 354.32C64.46 354.32 43.63 349.91 43.63 344.47" fill="#013834"/>
<path d="M43.62 344.47C43.62 339.03 64.45 341.96 90.14 341.96C115.83 341.96 136.66 339.03 136.66 344.47" stroke="#006D68" stroke-width="0.84" stroke-miterlimit="10"/>
<path d="M136.67 344.47C136.67 349.91 115.84 354.32 90.15 354.32C64.46 354.32 43.63 349.91 43.63 344.47" stroke="#006D68" stroke-width="0.86" stroke-linecap="round" stroke-linejoin="round"/>
<path d="M136.66 337.03H43.62V344.31H136.66V337.03Z" fill="#013834"/>
<path d="M90.15 347.04C115.842 347.04 136.67 342.63 136.67 337.19C136.67 331.75 115.842 327.34 90.15 327.34C64.4577 327.34 43.63 331.75 43.63 337.19C43.63 342.63 64.4577 347.04 90.15 347.04Z" fill="#013834"/>
<path d="M43.62 337.19C43.62 331.75 64.45 327.34 90.14 327.34C115.83 327.34 136.66 331.75 136.66 337.19" stroke="#006D68" stroke-width="0.84" stroke-miterlimit="10"/>
<path d="M136.67 337.19C136.67 342.63 115.84 347.04 90.15 347.04C64.46 347.04 43.63 342.63 43.63 337.19" stroke="#006D68" stroke-width="0.86" stroke-linecap="round" stroke-linejoin="round"/>
<path d="M43.62 337.03V344.31" stroke="#006D68" stroke-width="0.86" stroke-linecap="round" stroke-linejoin="round"/>
<path d="M136.67 337.03V344.31" stroke="#006D68" stroke-width="0.86" stroke-linecap="round" stroke-linejoin="round"/>
<path d="M54.47 327.08V209.94H125.83V327.08" fill="#003834"/>
<path d="M90.1501 334.09C109.878 334.09 125.87 331.001 125.87 327.19C125.87 323.379 109.878 320.29 90.1501 320.29C70.4224 320.29 54.4301 323.379 54.4301 327.19C54.4301 331.001 70.4224 334.09 90.1501 334.09Z" fill="#013834"/>
<path d="M125.86 327.19C125.86 331 109.87 334.09 90.14 334.09C70.41 334.09 54.42 331 54.42 327.19" stroke="#A5C352" stroke-width="0.63" stroke-linecap="round" stroke-linejoin="round"/>
<path d="M61.8899 324.71H61.86C60.53 324.71 59.45 323.39 59.45 321.77V211.12C59.45 209.5 60.54 208.18 61.86 208.18H61.8899C63.2199 208.18 64.3 209.5 64.3 211.12V321.77C64.3 323.39 63.2099 324.71 61.8899 324.71Z" fill="#006D68" stroke="#013834" stroke-miterlimit="10"/>
<path d="M69.94 325.88H69.91C68.58 325.88 67.5 324.56 67.5 322.94V212.29C67.5 210.67 68.59 209.35 69.91 209.35H69.94C71.27 209.35 72.35 210.67 72.35 212.29V322.94C72.35 324.56 71.26 325.88 69.94 325.88Z" fill="#006D68" stroke="#013834" stroke-miterlimit="10"/>
<path d="M77.9999 327.05H77.9699C76.6399 327.05 75.5599 325.73 75.5599 324.11V213.46C75.5599 211.84 76.6499 210.52 77.9699 210.52H77.9999C79.3299 210.52 80.4099 211.84 80.4099 213.46V324.11C80.4099 325.73 79.3199 327.05 77.9999 327.05Z" fill="#006D68" stroke="#013834" stroke-miterlimit="10"/>
<path d="M85.8499 327.54H85.8199C84.4899 327.54 83.4099 326.22 83.4099 324.6V213.95C83.4099 212.33 84.4999 211.01 85.8199 211.01H85.8499C87.1799 211.01 88.2599 212.33 88.2599 213.95V324.6C88.2599 326.22 87.1699 327.54 85.8499 327.54Z" fill="#006D68" stroke="#013834" stroke-miterlimit="10"/>
<path d="M94.07 327.54H94.04C92.71 327.54 91.63 326.22 91.63 324.6V213.95C91.63 212.33 92.72 211.01 94.04 211.01H94.07C95.4 211.01 96.48 212.33 96.48 213.95V324.6C96.48 326.22 95.39 327.54 94.07 327.54Z" fill="#006D68" stroke="#013834" stroke-miterlimit="10"/>
<path d="M102.31 326.88H102.28C100.95 326.88 99.87 325.56 99.87 323.94V213.29C99.87 211.67 100.96 210.35 102.28 210.35H102.31C103.64 210.35 104.72 211.67 104.72 213.29V323.94C104.72 325.56 103.63 326.88 102.31 326.88Z" fill="#006D68" stroke="#013834" stroke-miterlimit="10"/>
<path d="M110.37 325.8H110.34C109.01 325.8 107.93 324.48 107.93 322.86V212.21C107.93 210.59 109.02 209.27 110.34 209.27H110.37C111.7 209.27 112.78 210.59 112.78 212.21V322.86C112.78 324.48 111.69 325.8 110.37 325.8Z" fill="#006D68" stroke="#013834" stroke-miterlimit="10"/>
<path d="M118.44 324.71H118.41C117.08 324.71 116 323.39 116 321.77V211.12C116 209.5 117.09 208.18 118.41 208.18H118.44C119.77 208.18 120.85 209.5 120.85 211.12V321.77C120.85 323.39 119.76 324.71 118.44 324.71Z" fill="#006D68" stroke="#013834" stroke-miterlimit="10"/>
<path d="M54.47 327.08V209.94H125.83V327.08" stroke="#A5C352" stroke-width="0.63" stroke-linecap="round" stroke-linejoin="round"/>
<path d="M90.1501 215.08C109.878 215.08 125.87 212.747 125.87 209.87C125.87 206.993 109.878 204.66 90.1501 204.66C70.4224 204.66 54.4301 206.993 54.4301 209.87C54.4301 212.747 70.4224 215.08 90.1501 215.08Z" fill="#006D68" stroke="white" stroke-width="0.75" stroke-miterlimit="10"/>
<path d="M90.15 212.48C100.014 212.48 108.01 211.311 108.01 209.87C108.01 208.429 100.014 207.26 90.15 207.26C80.2862 207.26 72.29 208.429 72.29 209.87C72.29 211.311 80.2862 212.48 90.15 212.48Z" fill="#ADCB53"/>
<path d="M247.19 344.47C247.19 349.91 226.36 354.32 200.67 354.32C174.98 354.32 154.15 349.91 154.15 344.47" fill="#013834"/>
<path d="M154.14 344.47C154.14 339.03 174.97 341.96 200.66 341.96C226.35 341.96 247.18 339.03 247.18 344.47" stroke="#006D68" stroke-width="0.84" stroke-miterlimit="10"/>
<path d="M247.19 344.47C247.19 349.91 226.36 354.32 200.67 354.32C174.98 354.32 154.15 349.91 154.15 344.47" stroke="#006D68" stroke-width="0.86" stroke-linecap="round" stroke-linejoin="round"/>
<path d="M247.18 337.03H154.14V344.31H247.18V337.03Z" fill="#013834"/>
<path d="M200.66 347.04C226.352 347.04 247.18 342.63 247.18 337.19C247.18 331.75 226.352 327.34 200.66 327.34C174.968 327.34 154.14 331.75 154.14 337.19C154.14 342.63 174.968 347.04 200.66 347.04Z" fill="#013834"/>
<path d="M154.14 337.19C154.14 331.75 174.97 327.34 200.66 327.34C226.35 327.34 247.18 331.75 247.18 337.19" stroke="#006D68" stroke-width="0.84" stroke-miterlimit="10"/>
<path d="M247.19 337.19C247.19 342.63 226.36 347.04 200.67 347.04C174.98 347.04 154.15 342.63 154.15 337.19" stroke="#006D68" stroke-width="0.86" stroke-linecap="round" stroke-linejoin="round"/>
<path d="M154.14 337.03V344.31" stroke="#006D68" stroke-width="0.86" stroke-linecap="round" stroke-linejoin="round"/>
<path d="M247.19 337.03V344.31" stroke="#006D68" stroke-width="0.86" stroke-linecap="round" stroke-linejoin="round"/>
<path d="M164.98 327.08V138.08H236.35V327.08" fill="#003834"/>
<path d="M200.66 334.09C220.388 334.09 236.38 331.001 236.38 327.19C236.38 323.379 220.388 320.29 200.66 320.29C180.932 320.29 164.94 323.379 164.94 327.19C164.94 331.001 180.932 334.09 200.66 334.09Z" fill="#013834"/>
<path d="M236.38 327.19C236.38 331 220.39 334.09 200.66 334.09C180.93 334.09 164.94 331 164.94 327.19" stroke="#A5C352" stroke-width="0.63" stroke-linecap="round" stroke-linejoin="round"/>
<path d="M172.4 324.71H172.37C171.04 324.71 169.96 323.39 169.96 321.77V139.27C169.96 137.65 171.05 136.33 172.37 136.33H172.4C173.73 136.33 174.81 137.65 174.81 139.27V321.77C174.81 323.39 173.72 324.71 172.4 324.71Z" fill="#006D68" stroke="#013834" stroke-miterlimit="10"/>
<path d="M180.46 325.88H180.43C179.1 325.88 178.02 324.56 178.02 322.94V140.44C178.02 138.82 179.11 137.5 180.43 137.5H180.46C181.79 137.5 182.87 138.82 182.87 140.44V322.94C182.87 324.56 181.78 325.88 180.46 325.88Z" fill="#006D68" stroke="#013834" stroke-miterlimit="10"/>
<path d="M188.52 327.05H188.49C187.16 327.05 186.08 325.73 186.08 324.11V141.61C186.08 139.99 187.17 138.67 188.49 138.67H188.52C189.85 138.67 190.93 139.99 190.93 141.61V324.11C190.93 325.73 189.84 327.05 188.52 327.05Z" fill="#006D68" stroke="#013834" stroke-miterlimit="10"/>
<path d="M196.37 327.54H196.34C195.01 327.54 193.93 326.22 193.93 324.6V142.1C193.93 140.48 195.02 139.16 196.34 139.16H196.37C197.7 139.16 198.78 140.48 198.78 142.1V324.6C198.78 326.22 197.69 327.54 196.37 327.54Z" fill="#006D68" stroke="#013834" stroke-miterlimit="10"/>
<path d="M204.59 327.54H204.56C203.23 327.54 202.15 326.22 202.15 324.6V142.1C202.15 140.48 203.24 139.16 204.56 139.16H204.59C205.92 139.16 207 140.48 207 142.1V324.6C207 326.22 205.91 327.54 204.59 327.54Z" fill="#006D68" stroke="#013834" stroke-miterlimit="10"/>
<path d="M212.82 326.88H212.79C211.46 326.88 210.38 325.56 210.38 323.94V141.44C210.38 139.82 211.47 138.5 212.79 138.5H212.82C214.15 138.5 215.23 139.82 215.23 141.44V323.94C215.23 325.56 214.14 326.88 212.82 326.88Z" fill="#006D68" stroke="#013834" stroke-miterlimit="10"/>
<path d="M220.89 325.8H220.86C219.53 325.8 218.45 324.48 218.45 322.86V140.36C218.45 138.74 219.54 137.42 220.86 137.42H220.89C222.22 137.42 223.3 138.74 223.3 140.36V322.86C223.3 324.48 222.21 325.8 220.89 325.8Z" fill="#006D68" stroke="#013834" stroke-miterlimit="10"/>
<path d="M228.95 324.71H228.92C227.59 324.71 226.51 323.39 226.51 321.77V139.27C226.51 137.65 227.6 136.33 228.92 136.33H228.95C230.28 136.33 231.36 137.65 231.36 139.27V321.77C231.36 323.39 230.27 324.71 228.95 324.71Z" fill="#006D68" stroke="#013834" stroke-miterlimit="10"/>
<path d="M164.98 327.08V138.08H236.35V327.08" stroke="#A5C352" stroke-width="0.63" stroke-linecap="round" stroke-linejoin="round"/>
<path d="M200.66 143.22C220.388 143.22 236.38 140.887 236.38 138.01C236.38 135.133 220.388 132.8 200.66 132.8C180.932 132.8 164.94 135.133 164.94 138.01C164.94 140.887 180.932 143.22 200.66 143.22Z" fill="#006D68" stroke="white" stroke-width="0.75" stroke-miterlimit="10"/>
<path d="M200.66 140.62C210.524 140.62 218.52 139.451 218.52 138.01C218.52 136.569 210.524 135.4 200.66 135.4C190.796 135.4 182.8 136.569 182.8 138.01C182.8 139.451 190.796 140.62 200.66 140.62Z" fill="#ADCB53"/>
<path d="M275.95 327.08V63.5H347.31V327.08" fill="#003834"/>
<path d="M358.15 344.47C358.15 349.91 337.32 354.32 311.63 354.32C285.94 354.32 265.11 349.91 265.11 344.47" fill="#013834"/>
<path d="M265.11 344.47C265.11 339.03 285.94 341.96 311.63 341.96C337.32 341.96 358.15 339.03 358.15 344.47" stroke="#006D68" stroke-width="0.84" stroke-miterlimit="10"/>
<path d="M358.15 344.47C358.15 349.91 337.32 354.32 311.63 354.32C285.94 354.32 265.11 349.91 265.11 344.47" stroke="#006D68" stroke-width="0.86" stroke-linecap="round" stroke-linejoin="round"/>
<path d="M358.15 337.03H265.11V344.31H358.15V337.03Z" fill="#013834"/>
<path d="M311.63 347.04C337.322 347.04 358.15 342.63 358.15 337.19C358.15 331.75 337.322 327.34 311.63 327.34C285.938 327.34 265.11 331.75 265.11 337.19C265.11 342.63 285.938 347.04 311.63 347.04Z" fill="#013834"/>
<path d="M265.11 337.19C265.11 331.75 285.94 327.34 311.63 327.34C337.32 327.34 358.15 331.75 358.15 337.19" stroke="#006D68" stroke-width="0.84" stroke-miterlimit="10"/>
<path d="M358.15 337.19C358.15 342.63 337.32 347.04 311.63 347.04C285.94 347.04 265.11 342.63 265.11 337.19" stroke="#006D68" stroke-width="0.86" stroke-linecap="round" stroke-linejoin="round"/>
<path d="M265.11 337.03V344.31" stroke="#006D68" stroke-width="0.86" stroke-linecap="round" stroke-linejoin="round"/>
<path d="M358.15 337.03V344.31" stroke="#006D68" stroke-width="0.86" stroke-linecap="round" stroke-linejoin="round"/>
<path d="M311.63 334.09C331.358 334.09 347.35 331.001 347.35 327.19C347.35 323.379 331.358 320.29 311.63 320.29C291.902 320.29 275.91 323.379 275.91 327.19C275.91 331.001 291.902 334.09 311.63 334.09Z" fill="#013834"/>
<path d="M347.35 327.19C347.35 331 331.36 334.09 311.63 334.09C291.9 334.09 275.91 331 275.91 327.19" stroke="#A5C352" stroke-width="0.63" stroke-linecap="round" stroke-linejoin="round"/>
<path d="M283.37 324.71H283.34C282.01 324.71 280.93 323.39 280.93 321.77V64.69C280.93 63.07 282.02 61.75 283.34 61.75H283.37C284.7 61.75 285.78 63.07 285.78 64.69V321.78C285.78 323.4 284.69 324.72 283.37 324.72V324.71Z" fill="#006D68" stroke="#013834" stroke-miterlimit="10"/>
<path d="M291.43 325.88H291.4C290.07 325.88 288.99 324.56 288.99 322.94V65.85C288.99 64.23 290.08 62.91 291.4 62.91H291.43C292.76 62.91 293.84 64.23 293.84 65.85V322.94C293.84 324.56 292.75 325.88 291.43 325.88Z" fill="#006D68" stroke="#013834" stroke-miterlimit="10"/>
<path d="M299.48 327.05H299.45C298.12 327.05 297.04 325.73 297.04 324.11V67.02C297.04 65.4 298.13 64.08 299.45 64.08H299.48C300.81 64.08 301.89 65.4 301.89 67.02V324.11C301.89 325.73 300.8 327.05 299.48 327.05Z" fill="#006D68" stroke="#013834" stroke-miterlimit="10"/>
<path d="M307.34 327.54H307.31C305.98 327.54 304.9 326.22 304.9 324.6V67.51C304.9 65.89 305.99 64.57 307.31 64.57H307.34C308.67 64.57 309.75 65.89 309.75 67.51V324.6C309.75 326.22 308.66 327.54 307.34 327.54Z" fill="#006D68" stroke="#013834" stroke-miterlimit="10"/>
<path d="M315.55 327.54H315.52C314.19 327.54 313.11 326.22 313.11 324.6V67.51C313.11 65.89 314.2 64.57 315.52 64.57H315.55C316.88 64.57 317.96 65.89 317.96 67.51V324.6C317.96 326.22 316.87 327.54 315.55 327.54Z" fill="#006D68" stroke="#013834" stroke-miterlimit="10"/>
<path d="M323.79 326.88H323.76C322.43 326.88 321.35 325.56 321.35 323.94V66.85C321.35 65.23 322.44 63.91 323.76 63.91H323.79C325.12 63.91 326.2 65.23 326.2 66.85V323.94C326.2 325.56 325.11 326.88 323.79 326.88Z" fill="#006D68" stroke="#013834" stroke-miterlimit="10"/>
<path d="M331.85 325.8H331.82C330.49 325.8 329.41 324.48 329.41 322.86V65.77C329.41 64.15 330.5 62.83 331.82 62.83H331.85C333.18 62.83 334.26 64.15 334.26 65.77V322.86C334.26 324.48 333.17 325.8 331.85 325.8Z" fill="#006D68" stroke="#013834" stroke-miterlimit="10"/>
<path d="M339.92 324.71H339.89C338.56 324.71 337.48 323.39 337.48 321.77V64.69C337.48 63.07 338.57 61.75 339.89 61.75H339.92C341.25 61.75 342.33 63.07 342.33 64.69V321.78C342.33 323.4 341.24 324.72 339.92 324.72V324.71Z" fill="#006D68" stroke="#013834" stroke-miterlimit="10"/>
<path d="M275.95 327.08V63.5H347.31V327.08" stroke="#A5C352" stroke-width="0.63" stroke-linecap="round" stroke-linejoin="round"/>
<path d="M311.63 68.64C331.358 68.64 347.35 66.3074 347.35 63.43C347.35 60.5526 331.358 58.22 311.63 58.22C291.902 58.22 275.91 60.5526 275.91 63.43C275.91 66.3074 291.902 68.64 311.63 68.64Z" fill="#006D68" stroke="white" stroke-width="0.75" stroke-miterlimit="10"/>
<path d="M311.63 66.04C321.494 66.04 329.49 64.8715 329.49 63.43C329.49 61.9885 321.494 60.82 311.63 60.82C301.766 60.82 293.77 61.9885 293.77 63.43C293.77 64.8715 301.766 66.04 311.63 66.04Z" fill="#ADCB53"/>
<path d="M87.5899 206.83C87.5899 206.83 85.5899 174.28 119.59 169.33" stroke="#006D68" stroke-linecap="round" stroke-linejoin="round" stroke-dasharray="4.06 4.06"/>
<path d="M344.89 4.33002H277.08V43.54H344.89V4.33002Z" fill="#006D68" stroke="#006D68" stroke-width="0.81" stroke-miterlimit="10"/>
<path d="M309.78 35.01V32.38C308.07 32.33 306.37 31.84 305.39 31.19L306.12 28.64C307.18 29.26 308.69 29.83 310.35 29.83C312.01 29.83 313.22 28.99 313.22 27.69C313.22 26.47 312.27 25.69 310.27 24.95C307.43 23.92 305.58 22.62 305.58 20.1C305.58 17.77 307.21 15.98 309.94 15.5V12.84H312.16V15.36C313.87 15.41 315.03 15.82 315.9 16.25L315.17 18.74C314.52 18.44 313.33 17.82 311.49 17.82C309.65 17.82 308.92 18.8 308.92 19.72C308.92 20.83 309.89 21.45 312.2 22.38C315.23 23.52 316.59 24.98 316.59 27.39C316.59 29.8 314.99 31.72 312.01 32.21V35H309.79L309.78 35.01Z" fill="white"/>
<path d="M310.99 38.6C319.092 38.6 325.66 32.032 325.66 23.93C325.66 15.828 319.092 9.26001 310.99 9.26001C302.888 9.26001 296.32 15.828 296.32 23.93C296.32 32.032 302.888 38.6 310.99 38.6Z" stroke="white" stroke-width="1.54" stroke-miterlimit="10"/>
<path d="M200.18 121.33C212.882 121.33 223.18 111.033 223.18 98.33C223.18 85.6275 212.882 75.33 200.18 75.33C187.477 75.33 177.18 85.6275 177.18 98.33C177.18 111.033 187.477 121.33 200.18 121.33Z" fill="#ADCB53"/>
<path d="M211.44 99.82C211.49 106.04 206.49 111.13 200.27 111.18C194.05 111.23 188.96 106.23 188.91 100.01C188.86 93.79 200.04 83.2 200.04 83.2C200.04 83.2 211.39 93.6 211.44 99.82Z" stroke="white" stroke-width="1.8" stroke-linecap="round" stroke-linejoin="round"/>
<path d="M200.15 97L200.31 121.33" stroke="white" stroke-width="1.8" stroke-linecap="round" stroke-linejoin="round"/>
<path d="M146.892 47.4864L116.895 55.7714L127.944 95.7737L157.94 87.4886L146.892 47.4864Z" fill="#006D68" stroke="#006D68" stroke-width="0.93" stroke-miterlimit="10"/>
<path d="M125.894 60.2137L111.455 64.2018L118.749 90.6129L133.189 86.6248L125.894 60.2137Z" stroke="#006D68" stroke-width="2.81" stroke-miterlimit="10"/>
<path d="M63.77 109.85V128.96C63.77 140.59 54.34 150.01 42.72 150.01H27.1" stroke="black" stroke-width="20.58" stroke-linecap="round" stroke-linejoin="round"/>
<path d="M12.22 171.08L12.22 139.81H27.1V157.71C27.1 165.09 21.11 171.08 13.73 171.08H12.22Z" fill="#006D68" stroke="#006D68" stroke-width="0.81" stroke-miterlimit="10"/>
<path d="M63.7699 57.58C55.3599 57.96 48.2999 61.56 44.4399 66.84C40.5799 72.12 39.8199 78.96 41.7099 85.73" stroke="#ADCB53" stroke-width="15.44" stroke-linecap="round" stroke-linejoin="round"/>
<path d="M44.64 106.21L44.89 106.08C46.36 105.33 46.95 103.52 46.19 102.05L45.88 101.43C45.88 101.43 45.97 101.4 46.04 101.43L46.33 102C47.08 103.47 48.89 104.06 50.36 103.3L50.61 103.17C52.08 102.42 52.67 100.61 51.91 99.14L51.46 98.26C51.46 98.26 51.46 98.24 51.47 98.24L51.62 98.45C52.61 99.8 54.5 100.09 55.85 99.1C57.2 98.11 57.49 96.22 56.5 94.87L55.83 93.96C59.22 91.89 54.28 87.75 52.43 86.13C46.23 81.63 37.99 86.15 36.25 93.05C36.04 96.31 37.69 99.52 38.95 102.46C39.36 103.32 39.53 103.55 40.78 105.18C41.61 106.44 43.26 106.92 44.64 106.21Z" fill="white"/>
<path d="M38.9501 102.45C39.3601 103.31 39.5301 103.54 40.7801 105.17C41.6101 106.43 43.2601 106.91 44.6401 106.2L44.8901 106.07C46.3601 105.32 46.9501 103.51 46.1901 102.04L45.8801 101.42C45.8801 101.42 45.9701 101.39 46.0401 101.42L46.3301 101.99C47.0801 103.46 48.8901 104.05 50.3601 103.29L50.6101 103.16C52.0801 102.41 52.6701 100.6 51.9101 99.13L51.4601 98.25C51.4601 98.25 51.4601 98.23 51.4701 98.23L51.6201 98.44C52.6101 99.79 54.5001 100.08 55.8501 99.09C57.2001 98.1 57.4901 96.21 56.5001 94.86L54.5301 92.53" stroke="#9D9D9C" stroke-width="0.75" stroke-linecap="round" stroke-linejoin="round"/>
<path d="M55.61 94.17C59.2 92.11 54.65 87.69 52.71 86.04C45.87 80.89 37.05 87.95 36.43 92.59C35.93 96.18 37.49 99.07 38.68 102.24" stroke="#9D9D9C" stroke-width="0.75" stroke-linecap="round" stroke-linejoin="round"/>
<path d="M72.15 45.29C83.21 45.29 92.19 54.27 92.19 65.33V107.15H52.87V64.57C52.87 53.93 61.51 45.29 72.15 45.29Z" fill="black"/>
<path d="M80.09 56.29L67.38 51.75C66.55 51.45 65.87 50.85 65.48 50.06C64.69 48.49 65.23 46.57 66.72 45.64L72.09 42.28L77.09 46.28L80.09 56.28V56.29Z" fill="#ADCB53"/>
<path d="M71.2699 49.48C77.7099 49.81 77.6499 45.04 77.4499 40.12L66.3099 36.67C66.5799 40.94 64.6099 49.37 71.2699 49.48Z" fill="white"/>
<path d="M56.22 24.85C58.09 46.71 95.38 53.67 94.99 24.85C94.56 -0.630009 56.65 -0.630009 56.22 24.85Z" fill="white"/>
<path d="M71.2699 49.48C77.7099 49.81 77.6499 45.04 77.4499 40.12L66.3099 36.67C66.5799 40.94 64.6099 49.37 71.2699 49.48Z" fill="white"/>
<path d="M56.22 24.85C56.81 31.74 60.92 37.14 66.26 40.42C66.13 44.6 66.26 49.39 71.27 49.48C76 49.72 77.22 47.21 77.45 43.91C86.59 44.32 95.18 38.76 94.99 24.85C94.56 -0.630009 56.65 -0.630009 56.22 24.85Z" stroke="#9D9D9C" stroke-linecap="round" stroke-linejoin="round"/>
<path d="M93.13 10.7C87.95 7.89002 86.63 4.69002 79.49 4.33002C72.01 4.31002 62.58 6.78002 59.09 14.06C57.74 18.92 55.61 14.19 53.34 17.74C59.03 17.1 50.89 26.6 56.7 34.09C61.54 39.64 57.94 40.32 60.34 41.26C62.61 41.92 65.32 41.53 67.45 40.6C72.7 38.26 76.21 30.9 74.36 25.43C73.39 23.25 78.41 25.91 79.04 26.35C78.53 24.47 81.16 20.84 82.91 20.04C88.03 19.24 93.65 16.46 95.09 11.07C94.36 11.06 93.72 10.92 93.13 10.71V10.7Z" fill="black"/>
<path d="M76.89 25.77C80.28 31.07 74.45 34.92 70.91 29.71C67.52 24.41 73.35 20.56 76.89 25.77Z" fill="white"/>
<path d="M74.1 29.21C72.6 28.78 72.49 26.16 73.87 27.1C73.76 26.02 72.98 24.55 71.72 24.77" stroke="#9D9D9C" stroke-width="0.51" stroke-linecap="round" stroke-linejoin="round"/>
<path d="M88.87 24.07C88.84 25.93 91.77 25.93 91.74 24.07C91.77 22.21 88.84 22.21 88.87 24.07Z" fill="black"/>
<path d="M92.3799 35.63C91.1099 35.89 89.8699 35.48 88.8199 34.75" stroke="#9D9D9C" stroke-linecap="round" stroke-linejoin="round"/>
<path d="M91.55 14.14C89.51 14.87 88.08 12.79 86.51 11.83C80.72 7.80002 74.63 8.06003 68.47 11.18" stroke="#CCCBCB" stroke-width="0.4" stroke-linecap="round" stroke-linejoin="round"/>
<path d="M79.64 12.06C83.51 11.16 86.96 17.84 90.82 15.72" stroke="#CCCBCB" stroke-width="0.4" stroke-linecap="round" stroke-linejoin="round"/>
<path d="M80.9299 14.4C83.7599 15.71 86.5999 19.6 90.0699 17.43" stroke="#CCCBCB" stroke-width="0.4" stroke-linecap="round" stroke-linejoin="round"/>
<path d="M52.87 107.15H91.64V108.97C91.64 117.83 84.45 125.02 75.59 125.02H68.92C60.06 125.02 52.87 117.83 52.87 108.97V107.15Z" fill="black"/>
<path d="M72.6899 64.42C74.6499 72.61 79.5099 78.87 85.4299 81.66C91.3499 84.45 98.1999 83.91 104.5 80.79" stroke="#ADCB53" stroke-width="15.44" stroke-linecap="round" stroke-linejoin="round"/>
<path d="M122.09 82.32L122.01 82.06C121.5 80.48 119.82 79.61 118.24 80.12L117.58 80.33C117.58 80.33 117.56 80.24 117.61 80.17L118.22 79.98C119.8 79.47 120.67 77.79 120.16 76.21L120.08 75.95C119.57 74.37 117.89 73.5 116.31 74.01L115.37 74.31C115.37 74.31 115.36 74.3 115.35 74.29L115.58 74.17C117.07 73.41 117.67 71.6 116.91 70.11C116.16 68.62 114.34 68.02 112.85 68.78L111.84 69.29C110.35 65.61 105.46 69.81 103.56 71.37C98.12 76.76 101.23 85.62 107.76 88.46C110.94 89.2 114.37 88.09 117.49 87.33C118.41 87.07 118.65 86.94 120.48 85.97C121.86 85.36 122.6 83.8 122.12 82.33L122.09 82.32Z" fill="white"/>
<path d="M117.46 87.33C118.38 87.07 118.62 86.94 120.45 85.97C121.83 85.36 122.57 83.8 122.09 82.33L122.01 82.07C121.5 80.49 119.82 79.62 118.24 80.13L117.58 80.34C117.58 80.34 117.56 80.25 117.61 80.18L118.22 79.99C119.8 79.48 120.67 77.8 120.16 76.22L120.08 75.96C119.57 74.38 117.89 73.51 116.31 74.02L115.37 74.32C115.37 74.32 115.36 74.31 115.35 74.3L115.58 74.18C117.07 73.42 117.67 71.61 116.91 70.12C116.16 68.63 114.34 68.03 112.85 68.79L110.23 70.36" stroke="#9D9D9C" stroke-width="0.75" stroke-linecap="round" stroke-linejoin="round"/>
<path d="M111.99 69.54C110.54 65.67 105.44 69.43 103.49 71.09C97.3 77 102.83 86.85 107.31 88.22C110.77 89.29 113.88 88.22 117.2 87.57" stroke="#9D9D9C" stroke-width="0.75" stroke-linecap="round" stroke-linejoin="round"/>
<path d="M73.63 117.59H92.74C104.37 117.59 113.79 127.02 113.79 138.64V154.26" stroke="black" stroke-width="20.58" stroke-linecap="round" stroke-linejoin="round"/>
<path d="M134.1 169.14H102.83V154.26H120.73C128.11 154.26 134.1 160.25 134.1 167.63V169.14Z" fill="#006D68" stroke="#006D68" stroke-width="0.81" stroke-miterlimit="10"/>
<path d="M102.82 169.15H134.09" stroke="#ADCB53" stroke-width="2" stroke-linecap="round" stroke-linejoin="round"/>
<path d="M12.21 139.81V171.08" stroke="#ADCB53" stroke-width="2" stroke-linecap="round" stroke-linejoin="round"/>
</svg>
