<svg width="386" height="385" viewBox="0 0 386 385" fill="none" xmlns="http://www.w3.org/2000/svg">
<path d="M255.5 12.9099C238.84 6.66995 221.46 1.43995 203.67 1.51995C179.7 1.62995 156.91 11.2999 135.11 21.2499C94.96 39.5799 63.31 68.2899 30.4 97.4499C3.76003 121.06 -0.609976 170.01 0.190024 203.27C0.290024 207.28 0.390024 211.31 0.570024 215.34C1.13002 227.74 2.46002 240.1 6.81002 251.66C13.78 270.19 29.94 285.84 42.15 301.1C55.36 317.61 68.31 331.39 86.1 343.18C106.24 356.53 135.04 379.45 159.89 381.56C191.17 384.21 215.11 385.48 245.18 376.11C277.2 366.13 312.29 351.56 335.33 326.03C347.41 312.65 355.3 293.54 364.29 277.98C381.84 247.62 389.11 214.87 384.59 179.97C379.86 143.44 365.51 115.44 350.37 82.7799C330.93 40.8499 296.77 28.3799 255.5 12.9099Z" fill="#EBF2D4"/>
<path d="M265.74 77.8199C265.74 96.2899 250.77 111.27 232.29 111.27C213.81 111.27 198.84 96.2999 198.84 77.8199C198.84 65.3499 214.08 37.8099 223.99 21.2399C227.74 14.9599 236.84 14.9599 240.59 21.2399C250.5 37.8199 265.74 65.3599 265.74 77.8199Z" fill="#006E69"/>
<path d="M245.44 57.2599C244.71 63.8599 239.08 69.0299 232.3 69.0299C225.52 69.0299 219.89 63.8599 219.16 57.2599" stroke="#ADCB53" stroke-width="1.36" stroke-linecap="round" stroke-linejoin="round"/>
<path d="M243.9 57.2399C243.95 56.3999 244.68 55.7599 245.52 55.8099C246.36 55.8599 247 56.5899 246.95 57.4299C246.9 58.2699 246.17 58.9099 245.33 58.8599C244.49 58.8099 243.85 58.0799 243.9 57.2399Z" fill="#ADCB53"/>
<path d="M220.7 57.2399C220.65 56.3999 219.92 55.7599 219.08 55.8099C218.24 55.8599 217.6 56.5899 217.65 57.4299C217.7 58.2699 218.43 58.9099 219.27 58.8599C220.11 58.8099 220.75 58.0799 220.7 57.2399Z" fill="#ADCB53"/>
<path d="M251.9 75.2999C251.15 85.4399 242.62 93.4999 232.3 93.4999C221.98 93.4999 213.45 85.4399 212.7 75.2999" stroke="#ADCB53" stroke-width="1.36" stroke-linecap="round" stroke-linejoin="round"/>
<path d="M250.35 75.2999C250.39 74.4599 251.11 73.8099 251.96 73.8499C252.8 73.8899 253.45 74.6099 253.41 75.4599C253.37 76.2999 252.65 76.9499 251.8 76.9099C250.96 76.8699 250.31 76.1499 250.35 75.2999Z" fill="#ADCB53"/>
<path d="M214.25 75.2999C214.21 74.4599 213.49 73.8099 212.64 73.8499C211.8 73.8899 211.15 74.6099 211.19 75.4599C211.23 76.2999 211.95 76.9499 212.8 76.9099C213.64 76.8699 214.29 76.1499 214.25 75.2999Z" fill="#ADCB53"/>
<path d="M232.31 42.5698V172.52" stroke="#ADCB53" stroke-width="1.36" stroke-linecap="round" stroke-linejoin="round"/>
<path d="M232.31 44.1799C233.155 44.1799 233.84 43.4949 233.84 42.6499C233.84 41.8049 233.155 41.1199 232.31 41.1199C231.465 41.1199 230.78 41.8049 230.78 42.6499C230.78 43.4949 231.465 44.1799 232.31 44.1799Z" fill="#ADCB53"/>
<path d="M257.96 122.96C260.683 122.96 262.89 120.753 262.89 118.03C262.89 115.307 260.683 113.1 257.96 113.1C255.237 113.1 253.03 115.307 253.03 118.03C253.03 120.753 255.237 122.96 257.96 122.96Z" stroke="#ADCB53" stroke-width="2.55" stroke-miterlimit="10"/>
<path d="M258.22 141.49C260.147 141.49 261.71 139.927 261.71 138C261.71 136.072 260.147 134.51 258.22 134.51C256.293 134.51 254.73 136.072 254.73 138C254.73 139.927 256.293 141.49 258.22 141.49Z" stroke="#ADCB53" stroke-width="2.55" stroke-miterlimit="10"/>
<path d="M257.73 220.38V154.83" stroke="#006E69" stroke-width="1.23" stroke-miterlimit="10"/>
<path d="M257.73 158.71C259.768 158.71 261.42 157.058 261.42 155.02C261.42 152.982 259.768 151.33 257.73 151.33C255.692 151.33 254.04 152.982 254.04 155.02C254.04 157.058 255.692 158.71 257.73 158.71Z" fill="#006E69"/>
<path d="M250.58 220.9V165.65" stroke="#006E69" stroke-width="1.23" stroke-miterlimit="10"/>
<path d="M250.58 169.53C252.618 169.53 254.27 167.878 254.27 165.84C254.27 163.802 252.618 162.15 250.58 162.15C248.542 162.15 246.89 163.802 246.89 165.84C246.89 167.878 248.542 169.53 250.58 169.53Z" fill="#006E69"/>
<path d="M353.03 195.07H274.45V133.21L353.03 133.08V195.07Z" stroke="#ADCB53" stroke-miterlimit="10"/>
<path d="M353.03 127.61H274.45V134.44H353.03V127.61Z" fill="#ADCB53" stroke="#ADCB53" stroke-miterlimit="10"/>
<path d="M347.69 133.24L346.97 132.21L350.02 129.16L350.74 130.19L347.69 133.24Z" fill="#1A3C5B"/>
<path d="M346.97 129.88L347.69 129.16L350.74 132.21L350.02 133.24L346.97 129.88Z" fill="#1A3C5B"/>
<path d="M342.63 130.04V132.77H339.56V130.04H342.63ZM343.1 129.57H339.1V133.24H343.1V129.57Z" fill="#1A3C5B"/>
<path d="M335.21 132.12H331.21V133.24H335.21V132.12Z" fill="#1A3C5B"/>
<path d="M279.4 140.21H348.08" stroke="white" stroke-width="0.74" stroke-miterlimit="10"/>
<path d="M279.4 145.27H348.08" stroke="#ADCB53" stroke-width="1.1" stroke-miterlimit="10"/>
<path d="M300.16 150.32H348.08" stroke="white" stroke-width="0.74" stroke-miterlimit="10"/>
<path d="M285.76 150.32H298.39" stroke="white" stroke-width="0.74" stroke-miterlimit="10"/>
<path d="M279.4 150.32H284.59" stroke="white" stroke-width="0.74" stroke-miterlimit="10"/>
<path d="M279.4 155.38H348.08" stroke="white" stroke-width="0.74" stroke-miterlimit="10"/>
<path d="M292.36 160.44H348.08" stroke="#ADCB53" stroke-width="1.1" stroke-miterlimit="10"/>
<path d="M279.4 160.44H290.99" stroke="white" stroke-width="0.74" stroke-miterlimit="10"/>
<path d="M302.65 165.5H348.08" stroke="white" stroke-width="0.74" stroke-miterlimit="10"/>
<path d="M279.4 165.5H300.16" stroke="white" stroke-width="0.74" stroke-miterlimit="10"/>
<path d="M289.78 170.56H348.08" stroke="white" stroke-width="0.74" stroke-miterlimit="10"/>
<path d="M279.4 170.56H287.39" stroke="white" stroke-width="0.74" stroke-miterlimit="10"/>
<path d="M307.96 175.62H309.16" stroke="white" stroke-width="0.74" stroke-miterlimit="10"/>
<path d="M292.36 175.62H307.96" stroke="white" stroke-width="0.74" stroke-miterlimit="10"/>
<path d="M279.4 175.62H289.78" stroke="white" stroke-width="0.74" stroke-miterlimit="10"/>
<path d="M279.4 180.68H348.08" stroke="#ADCB53" stroke-width="1.1" stroke-miterlimit="10"/>
<path d="M279.4 185.74H348.08" stroke="#ADCB53" stroke-width="1.1" stroke-miterlimit="10"/>
<path d="M230.44 263.52H229.81C223.61 263.52 182.59 274.33 184.82 253.76L216.97 227.22L218.55 156.2C218.55 150 223.62 144.93 229.82 144.93H230.45C236.65 144.93 241.72 150 241.72 156.2V252.26C241.72 258.46 236.65 263.53 230.45 263.53L230.44 263.52Z" fill="#C7CCB4"/>
<path d="M233.24 145.56C237.28 145.56 241.71 150 241.71 156.2V252.26C241.71 258.46 236.64 263.53 230.44 263.53H229.81" stroke="white" stroke-width="0.63" stroke-linecap="round" stroke-linejoin="round"/>
<path d="M124.6 217.01V55.1099" stroke="#338A86" stroke-width="2.21" stroke-linecap="round" stroke-linejoin="round"/>
<path d="M105.68 83.6299H77.3601C71.0801 83.6299 65.9401 88.7699 65.9401 95.0499C65.9401 95.1499 65.9501 95.2499 65.9601 95.3499C65.9601 95.4499 65.9401 95.5499 65.9401 95.6499V109.99C65.9401 112.96 68.0301 115.6 70.9601 116.06C74.6501 116.64 77.8701 113.76 77.8701 110.17V109.47C77.8701 107.82 79.2101 106.48 80.8601 106.48C82.5101 106.48 83.8501 107.82 83.8501 109.47V119.55C83.8501 122.83 86.5301 125.51 89.8101 125.51C93.0901 125.51 95.7701 122.83 95.7701 119.55V109.47C95.7701 107.82 97.1101 106.48 98.7601 106.48H105.67C111.95 106.48 117.09 101.34 117.09 95.0599C117.09 88.7799 111.95 83.6399 105.67 83.6399L105.68 83.6299Z" fill="#003834"/>
<path d="M91.75 73.5199H63.43C57.44 73.5199 52.51 78.1899 52.05 84.0699C52.02 84.2599 52.01 84.4599 52.01 84.6599V84.9399V103.43C52.01 105.67 53.61 107.67 55.82 107.96C58.5 108.32 60.82 106.21 60.82 103.59V98.8499C60.82 97.4399 61.99 96.3499 63.4 96.3499C63.4 96.3499 63.42 96.3499 63.43 96.3499H91.75C98.03 96.3499 103.17 91.2099 103.17 84.9299C103.17 78.6499 98.03 73.5099 91.75 73.5099V73.5199Z" fill="#ADCB53"/>
<path d="M124.6 139.82H119.56C107.23 139.82 97.15 129.73 97.15 117.41V107.34" stroke="#338A86" stroke-width="2.21" stroke-linecap="round" stroke-linejoin="round"/>
<path d="M100.8 131.7H95.13C86.68 131.7 74.88 131.42 72.95 116.03" stroke="#338A86" stroke-width="2.21" stroke-linecap="round" stroke-linejoin="round"/>
<path d="M138.32 63.4298V73.4998C138.32 82.7398 132.65 90.7298 124.61 94.1398" stroke="#338A86" stroke-width="2.21" stroke-linecap="round" stroke-linejoin="round"/>
<path d="M152.05 84.3599V94.4299C152.05 106.76 141.96 116.84 129.64 116.84H124.6" stroke="#338A86" stroke-width="2.21" stroke-linecap="round" stroke-linejoin="round"/>
<path d="M149.75 80.4799H163.91C170.19 80.4799 175.33 85.6199 175.33 91.8999C175.33 91.9999 175.32 92.0999 175.31 92.1999C175.31 92.2999 175.33 92.3999 175.33 92.4999V106.84C175.33 109.81 173.24 112.45 170.31 112.91C166.62 113.49 163.4 110.61 163.4 107.02V106.32C163.4 104.67 162.06 103.33 160.41 103.33C158.76 103.33 149.75 103.33 149.75 103.33C143.47 103.33 138.33 98.1899 138.33 91.9099C138.33 85.6299 143.47 80.4899 149.75 80.4899V80.4799Z" fill="#003834"/>
<path d="M94.11 65.1399H80.93C77.5887 65.1399 74.88 67.8486 74.88 71.1899V71.1999C74.88 74.5412 77.5887 77.2499 80.93 77.2499H94.11C97.4513 77.2499 100.16 74.5412 100.16 71.1999V71.1899C100.16 67.8486 97.4513 65.1399 94.11 65.1399Z" fill="#ADCB53"/>
<path d="M155.38 46.7899H124.47C119.875 46.7899 116.15 50.5149 116.15 55.1099C116.15 59.7049 119.875 63.4299 124.47 63.4299H155.38C159.975 63.4299 163.7 59.7049 163.7 55.1099C163.7 50.5149 159.975 46.7899 155.38 46.7899Z" fill="#003834"/>
<path d="M151.23 31.0999H109.19C101.905 31.0999 96 37.0052 96 44.2899C96 51.5745 101.905 57.4799 109.19 57.4799H151.23C158.515 57.4799 164.42 51.5745 164.42 44.2899C164.42 37.0052 158.515 31.0999 151.23 31.0999Z" fill="#ADCB53"/>
<path d="M141.93 24.8599H116.88C113.566 24.8599 110.88 27.5439 110.88 30.8549C110.88 34.1658 113.566 36.8499 116.88 36.8499H141.93C145.244 36.8499 147.93 34.1658 147.93 30.8549C147.93 27.5439 145.244 24.8599 141.93 24.8599Z" fill="#ADCB53"/>
<path d="M166.18 97.7999C166.18 92.0699 161.49 87.3799 155.76 87.3799H135.95C130.22 87.3799 125.53 92.0699 125.53 97.7999C125.53 103.53 130.22 108.22 135.95 108.22H155.76C155.76 108.22 155.84 108.22 155.88 108.22C156.94 108.21 157.87 108.8 158.38 109.73C159.18 111.19 160.84 112.12 162.67 111.84C164.72 111.53 166.18 109.66 166.18 107.59V99.8399C166.18 99.5699 166.15 99.2999 166.1 99.0399C166.15 98.6399 166.18 98.2299 166.18 97.8099V97.7999Z" fill="#ADCB53"/>
<path d="M140.65 131.84C142.13 131.84 143.33 130.64 143.33 129.16C143.33 127.68 142.13 126.48 140.65 126.48C139.17 126.48 137.97 127.68 137.97 129.16C137.97 130.64 139.17 131.84 140.65 131.84Z" stroke="#ADCB53" stroke-width="2.19" stroke-miterlimit="10"/>
<path d="M178.06 67.4799C181.02 67.4799 183.42 65.0801 183.42 62.1199C183.42 59.1596 181.02 56.7599 178.06 56.7599C175.1 56.7599 172.7 59.1596 172.7 62.1199C172.7 65.0801 175.1 67.4799 178.06 67.4799Z" stroke="#ADCB53" stroke-width="4.38" stroke-miterlimit="10"/>
<g style="mix-blend-mode:multiply" opacity="0.5">
<path d="M54.7 268.48C54.7 261.14 59.98 255.02 66.98 253.65H66.9C66.9 253.65 66.96 253.65 66.99 253.65C67.92 253.47 68.87 253.37 69.85 253.37C76.85 252.01 82.14 245.88 82.14 238.53L82.33 165.79C82.33 157.44 89.15 145.52 97.57 145.52H233.24C224.82 145.52 224.19 157.43 224.19 165.79L224 238.53C224 245.87 218.72 251.99 211.72 253.36H211.8C211.8 253.36 211.74 253.36 211.71 253.36C210.78 253.54 209.83 253.64 208.85 253.64C201.85 255 196.56 261.13 196.56 268.48L196.43 294.06C196.4 305.23 187.26 314.27 176 314.27H54.51L54.7 268.48Z" fill="#878787"/>
</g>
<path d="M75.94 234.11L76.1299 160.8C76.1299 152.38 82.95 145.56 91.37 145.56H233.23C224.81 145.56 217.99 152.38 217.99 160.8L217.8 234.11C217.8 242.53 210.98 249.35 202.56 249.35L60.7 249.59C69.12 249.59 75.94 242.52 75.94 234.11Z" fill="white" stroke="white" stroke-width="0.63" stroke-linecap="round" stroke-linejoin="round"/>
<path d="M75.38 235.1H218.44C218.44 243.2 210.98 250.03 202.56 250.03L58.61 249.98C67.03 249.98 75.11 243.02 75.37 235.1H75.38Z" fill="#EBF2D4"/>
<path d="M48.21 300.04L48.51 263.68C48.51 255.26 55.33 248.75 63.75 248.75L204.08 249.65C196.46 249.65 190.37 255.97 190.37 264.39L190.07 300.03C190.07 308.45 183.25 315.27 174.83 315.27H32.97C41.39 315.27 48.21 308.45 48.21 300.03V300.04Z" fill="white" stroke="white" stroke-width="0.63" stroke-miterlimit="10"/>
<path d="M233.24 145.56H91.38C82.96 145.56 76.14 152.38 76.14 160.8L75.95 234.11C75.95 240.82 71.61 246.66 65.59 248.76H63.75C55.33 248.75 48.51 255.26 48.51 263.67L48.21 300.03C48.21 308.45 41.39 315.27 32.97 315.27" stroke="#ADCB53" stroke-width="1.36" stroke-linecap="round" stroke-linejoin="round"/>
<path d="M173.44 267.22H61.59" stroke="#003834" stroke-width="1.77" stroke-linecap="round" stroke-linejoin="round"/>
<path d="M173.04 276.75H61.1899" stroke="#003834" stroke-width="1.77" stroke-linecap="round" stroke-linejoin="round"/>
<path d="M173.04 286.27H61.1899" stroke="#003834" stroke-width="1.77" stroke-linecap="round" stroke-linejoin="round"/>
<path d="M87.0399 296.16H61.1899" stroke="#003834" stroke-width="1.77" stroke-linecap="round" stroke-linejoin="round"/>
<path d="M173.04 296.16H108.57" stroke="#003834" stroke-width="1.77" stroke-linecap="round" stroke-linejoin="round"/>
<path d="M290.5 196.1V198.78C290.5 201.31 292.55 203.36 295.08 203.36H330.9C333.43 203.36 335.48 205.41 335.48 207.94V279.94C335.48 282.47 333.43 284.52 330.9 284.52H242.84C240.31 284.52 238.26 282.47 238.26 279.94V205.06V203.37V196.11C238.26 193.58 240.31 191.53 242.84 191.53H285.93C288.46 191.53 290.51 193.58 290.51 196.11L290.5 196.1Z" fill="white"/>
<path d="M282.68 204.12V206.8C282.68 209.33 284.73 211.38 287.26 211.38H323.08C325.61 211.38 327.66 213.43 327.66 215.96V287.96C327.66 290.49 325.61 292.54 323.08 292.54H235.02C232.49 292.54 230.44 290.49 230.44 287.96V213.08V211.39V204.13C230.44 201.6 232.49 199.55 235.02 199.55H278.11C280.64 199.55 282.69 201.6 282.69 204.13L282.68 204.12Z" fill="#003834" stroke="#ADCB53" stroke-width="1.56" stroke-linecap="round" stroke-linejoin="round"/>
<path d="M249.17 253.81C249.17 259.91 254.62 264.85 261.34 264.85C268.06 264.85 273.51 259.91 273.51 253.81C273.51 247.71 261.34 227.02 261.34 227.02C261.34 227.02 249.17 247.71 249.17 253.81Z" stroke="#ADCB53" stroke-width="2" stroke-linecap="round" stroke-linejoin="round"/>
<path d="M261.34 246.84V275.17" stroke="#ADCB53" stroke-width="2" stroke-linecap="round" stroke-linejoin="round"/>
<path d="M281.24 253.81C281.24 259.91 286.69 264.85 293.41 264.85C300.13 264.85 305.58 259.91 305.58 253.81C305.58 247.71 293.41 227.02 293.41 227.02C293.41 227.02 281.24 247.71 281.24 253.81Z" stroke="#ADCB53" stroke-width="2" stroke-linecap="round" stroke-linejoin="round"/>
<path d="M293.41 246.84V275.17" stroke="#ADCB53" stroke-width="2" stroke-linecap="round" stroke-linejoin="round"/>
<path d="M249.47 335.36C249.47 351.02 187.25 352.12 187.25 335.36C187.25 311.54 207.59 292.23 218.36 292.23C230.33 292.23 249.47 311.54 249.47 335.36Z" fill="#006E69"/>
<path d="M106.92 212.88H95.58V224.22H106.92V212.88Z" fill="#AECC53"/>
<path d="M162.5 218.55H199.89" stroke="#003834" stroke-width="1.77" stroke-linecap="round" stroke-linejoin="round"/>
<path d="M113.66 218.55H157.94" stroke="#003834" stroke-width="1.77" stroke-linecap="round" stroke-linejoin="round"/>
<path d="M106.92 187.79H95.58V199.13H106.92V187.79Z" fill="#AECC53"/>
<path d="M169.76 193.46H199.89" stroke="#003834" stroke-width="1.77" stroke-linecap="round" stroke-linejoin="round"/>
<path d="M113.66 193.46H161.45" stroke="#003834" stroke-width="1.77" stroke-linecap="round" stroke-linejoin="round"/>
<path d="M106.92 162.7H95.58V174.04H106.92V162.7Z" fill="#AECC53"/>
<path d="M152.77 168.36H199.89" stroke="#003834" stroke-width="1.77" stroke-linecap="round" stroke-linejoin="round"/>
<path d="M113.66 168.36H146.53" stroke="#003834" stroke-width="1.77" stroke-linecap="round" stroke-linejoin="round"/>
<path d="M217.13 349.93V300.85" stroke="#EBF2D4" stroke-width="1.06" stroke-miterlimit="10"/>
<path d="M217.13 304.2C218.892 304.2 220.32 302.772 220.32 301.01C220.32 299.248 218.892 297.82 217.13 297.82C215.368 297.82 213.94 299.248 213.94 301.01C213.94 302.772 215.368 304.2 217.13 304.2Z" fill="#EBF2D4"/>
<path d="M211.06 349.48V310.2" stroke="#EBF2D4" stroke-width="1.06" stroke-miterlimit="10"/>
<path d="M211.06 313.55C212.822 313.55 214.25 312.122 214.25 310.36C214.25 308.598 212.822 307.17 211.06 307.17C209.298 307.17 207.87 308.598 207.87 310.36C207.87 312.122 209.298 313.55 211.06 313.55Z" fill="#EBF2D4"/>
<path d="M223.31 349.12V311.96" stroke="#EBF2D4" stroke-width="1.06" stroke-miterlimit="10"/>
<path d="M226.5 312.12C226.5 310.36 225.07 308.93 223.31 308.93C221.55 308.93 220.12 310.36 220.12 312.12C220.12 313.88 221.55 315.31 223.31 315.31C225.07 315.31 226.5 313.88 226.5 312.12Z" fill="#EBF2D4"/>
<path d="M198.25 272.63C197.46 276.86 193.71 280.08 189.26 280.06C184.81 280.03 181.09 276.77 180.36 272.52" stroke="#006D68" stroke-width="1.5" stroke-linecap="round" stroke-linejoin="round"/>
<path d="M196.54 272.53C196.64 271.6 197.47 270.92 198.4 271.02C199.33 271.12 200.01 271.95 199.91 272.88C199.81 273.81 198.98 274.49 198.05 274.39C197.12 274.29 196.44 273.46 196.54 272.53Z" fill="#006D68"/>
<path d="M182.07 272.45C181.98 271.52 181.16 270.83 180.23 270.92C179.3 271.01 178.61 271.83 178.7 272.76C178.79 273.69 179.61 274.38 180.54 274.29C181.47 274.2 182.16 273.38 182.07 272.45Z" fill="#006D68"/>
<path d="M202.65 285.06C201.81 291.73 196.05 296.92 189.17 296.88C182.28 296.84 176.59 291.59 175.82 284.9" stroke="#006D68" stroke-width="1.5" stroke-linecap="round" stroke-linejoin="round"/>
<path d="M200.93 285.01C201 284.08 201.82 283.38 202.75 283.45C203.68 283.52 204.38 284.34 204.31 285.27C204.24 286.2 203.42 286.9 202.49 286.83C201.56 286.76 200.86 285.94 200.93 285.01Z" fill="#006D68"/>
<path d="M177.53 284.88C177.47 283.95 176.66 283.24 175.73 283.3C174.79 283.36 174.09 284.17 174.15 285.1C174.21 286.03 175.02 286.74 175.95 286.68C176.88 286.62 177.59 285.81 177.53 284.88Z" fill="#006D68"/>
<path d="M189.36 262.48L188.95 334.99" stroke="#006D68" stroke-width="1.5" stroke-linecap="round" stroke-linejoin="round"/>
<path d="M187.67 262.56C187.67 261.62 188.44 260.87 189.38 260.87C190.32 260.87 191.07 261.64 191.07 262.58C191.07 263.52 190.3 264.27 189.36 264.27C188.42 264.27 187.67 263.5 187.67 262.56Z" fill="#006D68"/>
<path d="M191.62 341.94C192.07 338.12 187.91 333.57 186.6 330.47C184.95 326.55 183.32 323.63 179.7 320.48C178.45 319.39 177.17 318.28 175.57 317.59C172.8 316.4 169.67 316.99 167.44 318.66C163.17 321.87 160.63 326.45 158.68 330.89C157.15 334.4 153.37 340.72 156.06 344.25C158.49 347.87 166.23 348.56 170.52 348.82C175.77 349.14 188.05 348.32 190.93 343.83C191.32 343.23 191.53 342.6 191.61 341.94H191.62Z" fill="#ADCB53"/>
<path d="M188.66 335.01C187.16 334.78 185.76 335.6 185 336.63C182.4 340.14 181.15 344.34 181.48 348.47" stroke="#EBF2D4" stroke-linecap="round" stroke-linejoin="round"/>
<path d="M175.97 349.02C175.97 342.09 177.16 337.03 182.1 331.56C182.62 330.99 183.56 330.4 184.36 330.15C185.12 329.91 185.89 329.99 186.64 330.25" stroke="#EBF2D4" stroke-linecap="round" stroke-linejoin="round"/>
</svg>
