<svg xmlns="http://www.w3.org/2000/svg" width="386" height="385" fill="none" viewBox="0 0 386 385"><path fill="#ebf2d4" d="M255.5 12.91c-16.66-6.24-34.04-11.47-51.83-11.39-23.97.11-46.76 9.78-68.56 19.73-40.15 18.33-71.8 47.04-104.71 76.2C3.76 121.06-.61 170.01.19 203.27c.1 4.01.2 8.04.38 12.07.56 12.4 1.89 24.76 6.24 36.32 6.97 18.53 23.13 34.18 35.34 49.44 13.21 16.51 26.16 30.29 43.95 42.08 20.14 13.35 48.94 36.27 73.79 38.38 31.28 2.65 55.22 3.92 85.29-5.45 32.02-9.98 67.11-24.55 90.15-50.08 12.08-13.38 19.97-32.49 28.96-48.05 17.55-30.36 24.82-63.11 20.3-98.01-4.73-36.53-19.08-64.53-34.22-97.19-19.44-41.93-53.6-54.4-94.87-69.87"/><path fill="#006e69" d="M265.74 77.82c0 18.47-14.97 33.45-33.45 33.45s-33.45-14.97-33.45-33.45c0-12.47 15.24-40.01 25.15-56.58 3.75-6.28 12.85-6.28 16.6 0 9.91 16.58 25.15 44.12 25.15 56.58"/><path stroke="#adcb53" stroke-linecap="round" stroke-linejoin="round" stroke-width="1.36" d="M245.44 57.26c-.73 6.6-6.36 11.77-13.14 11.77s-12.41-5.17-13.14-11.77"/><path fill="#adcb53" d="M243.9 57.24c.05-.84.78-1.48 1.62-1.43s1.48.78 1.43 1.62-.78 1.48-1.62 1.43-1.48-.78-1.43-1.62m-23.2 0c-.05-.84-.78-1.48-1.62-1.43s-1.48.78-1.43 1.62.78 1.48 1.62 1.43 1.48-.78 1.43-1.62"/><path stroke="#adcb53" stroke-linecap="round" stroke-linejoin="round" stroke-width="1.36" d="M251.9 75.3c-.75 10.14-9.28 18.2-19.6 18.2s-18.85-8.06-19.6-18.2"/><path fill="#adcb53" d="M250.35 75.3a1.533 1.533 0 1 1 3.061.161 1.533 1.533 0 0 1-3.061-.161m-36.1 0a1.533 1.533 0 1 0-3.061.161 1.533 1.533 0 0 0 3.061-.161"/><path stroke="#adcb53" stroke-linecap="round" stroke-linejoin="round" stroke-width="1.36" d="M232.31 42.57v129.95"/><path fill="#adcb53" d="M232.31 44.18a1.53 1.53 0 1 0 0-3.06 1.53 1.53 0 0 0 0 3.06"/><path stroke="#adcb53" stroke-miterlimit="10" stroke-width="2.55" d="M257.96 122.96a4.93 4.93 0 1 0 0-9.86 4.93 4.93 0 0 0 0 9.86Zm.26 18.53a3.49 3.49 0 1 0-.001-6.981 3.49 3.49 0 0 0 .001 6.981Z"/><path stroke="#006e69" stroke-miterlimit="10" stroke-width="1.23" d="M257.73 220.38v-65.55"/><path fill="#006e69" d="M257.73 158.71a3.69 3.69 0 1 0 0-7.38 3.69 3.69 0 0 0 0 7.38"/><path stroke="#006e69" stroke-miterlimit="10" stroke-width="1.23" d="M250.58 220.9v-55.25"/><path fill="#006e69" d="M250.58 169.53a3.69 3.69 0 1 0 0-7.38 3.69 3.69 0 0 0 0 7.38"/><path stroke="#adcb53" stroke-miterlimit="10" d="M353.03 195.07h-78.58v-61.86l78.58-.13z"/><path fill="#adcb53" stroke="#adcb53" stroke-miterlimit="10" d="M353.03 127.61h-78.58v6.83h78.58z"/><path fill="#1a3c5b" d="m347.69 133.24-.72-1.03 3.05-3.05.72 1.03z"/><path fill="#1a3c5b" d="m346.97 129.88.72-.72 3.05 3.05-.72 1.03zm-4.34.16v2.73h-3.07v-2.73zm.47-.47h-4v3.67h4zm-7.89 2.55h-4v1.12h4z"/><path stroke="#fff" stroke-miterlimit="10" stroke-width=".74" d="M279.4 140.21h68.68"/><path stroke="#adcb53" stroke-miterlimit="10" stroke-width="1.1" d="M279.4 145.27h68.68"/><path stroke="#fff" stroke-miterlimit="10" stroke-width=".74" d="M300.16 150.32h47.92m-62.32 0h12.63m-18.99 0h5.19m-5.19 5.06h68.68"/><path stroke="#adcb53" stroke-miterlimit="10" stroke-width="1.1" d="M292.36 160.44h55.72"/><path stroke="#fff" stroke-miterlimit="10" stroke-width=".74" d="M279.4 160.44h11.59m11.66 5.06h45.43m-68.68 0h20.76m-10.38 5.06h58.3m-68.68 0h7.99m20.57 5.06h1.2m-16.8 0h15.6m-28.56 0h10.38"/><path stroke="#adcb53" stroke-miterlimit="10" stroke-width="1.1" d="M279.4 180.68h68.68m-68.68 5.06h68.68"/><path fill="#c7ccb4" d="M230.44 263.52h-.63c-6.2 0-47.22 10.81-44.99-9.76l32.15-26.54 1.58-71.02c0-6.2 5.07-11.27 11.27-11.27h.63c6.2 0 11.27 5.07 11.27 11.27v96.06c0 6.2-5.07 11.27-11.27 11.27z"/><path stroke="#fff" stroke-linecap="round" stroke-linejoin="round" stroke-width=".63" d="M233.24 145.56c4.04 0 8.47 4.44 8.47 10.64v96.06c0 6.2-5.07 11.27-11.27 11.27h-.63"/><path stroke="#338a86" stroke-linecap="round" stroke-linejoin="round" stroke-width="2.21" d="M124.6 217.01V55.11"/><path fill="#003834" d="M105.68 83.63H77.36c-6.28 0-11.42 5.14-11.42 11.42 0 .1.01.2.02.3 0 .1-.02.2-.02.3v14.34c0 2.97 2.09 5.61 5.02 6.07 3.69.58 6.91-2.3 6.91-5.89v-.7c0-1.65 1.34-2.99 2.99-2.99s2.99 1.34 2.99 2.99v10.08c0 3.28 2.68 5.96 5.96 5.96s5.96-2.68 5.96-5.96v-10.08c0-1.65 1.34-2.99 2.99-2.99h6.91c6.28 0 11.42-5.14 11.42-11.42s-5.14-11.42-11.42-11.42z"/><path fill="#adcb53" d="M91.75 73.52H63.43c-5.99 0-10.92 4.67-11.38 10.55-.03.19-.04.39-.04.59v18.77c0 2.24 1.6 4.24 3.81 4.53 2.68.36 5-1.75 5-4.37v-4.74c0-1.41 1.17-2.5 2.58-2.5h28.35c6.28 0 11.42-5.14 11.42-11.42s-5.14-11.42-11.42-11.42z"/><path stroke="#338a86" stroke-linecap="round" stroke-linejoin="round" stroke-width="2.21" d="M124.6 139.82h-5.04c-12.33 0-22.41-10.09-22.41-22.41v-10.07m3.65 24.36h-5.67c-8.45 0-20.25-.28-22.18-15.67m65.37-52.6V73.5c0 9.24-5.67 17.23-13.71 20.64m27.44-9.78v10.07c0 12.33-10.09 22.41-22.41 22.41h-5.04"/><path fill="#003834" d="M149.75 80.48h14.16c6.28 0 11.42 5.14 11.42 11.42 0 .1-.01.2-.02.3 0 .1.02.2.02.3v14.34c0 2.97-2.09 5.61-5.02 6.07-3.69.58-6.91-2.3-6.91-5.89v-.7c0-1.65-1.34-2.99-2.99-2.99h-10.66c-6.28 0-11.42-5.14-11.42-11.42s5.14-11.42 11.42-11.42z"/><path fill="#adcb53" d="M94.11 65.14H80.93a6.05 6.05 0 0 0-6.05 6.05v.01a6.05 6.05 0 0 0 6.05 6.05h13.18a6.05 6.05 0 0 0 6.05-6.05v-.01a6.05 6.05 0 0 0-6.05-6.05"/><path fill="#003834" d="M155.38 46.79h-30.91a8.32 8.32 0 0 0 0 16.64h30.91a8.32 8.32 0 0 0 0-16.64"/><path fill="#adcb53" d="M151.23 31.1h-42.04C101.905 31.1 96 37.005 96 44.29s5.905 13.19 13.19 13.19h42.04c7.285 0 13.19-5.905 13.19-13.19s-5.905-13.19-13.19-13.19"/><path fill="#adcb53" d="M141.93 24.86h-25.05c-3.314 0-6 2.684-6 5.995a5.997 5.997 0 0 0 6 5.995h25.05c3.314 0 6-2.684 6-5.995a5.997 5.997 0 0 0-6-5.995m24.25 72.94c0-5.73-4.69-10.42-10.42-10.42h-19.81c-5.73 0-10.42 4.69-10.42 10.42s4.69 10.42 10.42 10.42h19.93c1.06-.01 1.99.58 2.5 1.51.8 1.46 2.46 2.39 4.29 2.11 2.05-.31 3.51-2.18 3.51-4.25v-7.75c0-.27-.03-.54-.08-.8.05-.4.08-.81.08-1.23z"/><path stroke="#adcb53" stroke-miterlimit="10" stroke-width="2.19" d="M140.65 131.84a2.68 2.68 0 1 0 0-5.36 2.68 2.68 0 0 0 0 5.36Z"/><path stroke="#adcb53" stroke-miterlimit="10" stroke-width="4.38" d="M178.06 67.48a5.36 5.36 0 1 0 0-10.72 5.36 5.36 0 0 0 0 10.72Z"/><path fill="#878787" d="M54.7 268.48c0-7.34 5.28-13.46 12.28-14.83h-.08.09c.93-.18 1.88-.28 2.86-.28 7-1.36 12.29-7.49 12.29-14.84l.19-72.74c0-8.35 6.82-20.27 15.24-20.27h135.67c-8.42 0-9.05 11.91-9.05 20.27l-.19 72.74c0 7.34-5.28 13.46-12.28 14.83h.08-.09c-.93.18-1.88.28-2.86.28-7 1.36-12.29 7.49-12.29 14.84l-.13 25.58c-.03 11.17-9.17 20.21-20.43 20.21H54.51z" opacity=".5" style="mix-blend-mode:multiply"/><path fill="#fff" stroke="#fff" stroke-linecap="round" stroke-linejoin="round" stroke-width=".63" d="m75.94 234.11.19-73.31c0-8.42 6.82-15.24 15.24-15.24h141.86c-8.42 0-15.24 6.82-15.24 15.24l-.19 73.31c0 8.42-6.82 15.24-15.24 15.24l-141.86.24c8.42 0 15.24-7.07 15.24-15.48"/><path fill="#ebf2d4" d="M75.38 235.1h143.06c0 8.1-7.46 14.93-15.88 14.93l-143.95-.05c8.42 0 16.5-6.96 16.76-14.88z"/><path fill="#fff" stroke="#fff" stroke-miterlimit="10" stroke-width=".63" d="m48.21 300.04.3-36.36c0-8.42 6.82-14.93 15.24-14.93l140.33.9c-7.62 0-13.71 6.32-13.71 14.74l-.3 35.64c0 8.42-6.82 15.24-15.24 15.24H32.97c8.42 0 15.24-6.82 15.24-15.24z"/><path stroke="#adcb53" stroke-linecap="round" stroke-linejoin="round" stroke-width="1.36" d="M233.24 145.56H91.38c-8.42 0-15.24 6.82-15.24 15.24l-.19 73.31c0 6.71-4.34 12.55-10.36 14.65h-1.84c-8.42-.01-15.24 6.5-15.24 14.91l-.3 36.36c0 8.42-6.82 15.24-15.24 15.24"/><path stroke="#003834" stroke-linecap="round" stroke-linejoin="round" stroke-width="1.77" d="M173.44 267.22H61.59m111.45 9.53H61.19m111.85 9.52H61.19m25.85 9.89H61.19m111.85 0h-64.47"/><path fill="#fff" d="M290.5 196.1v2.68a4.58 4.58 0 0 0 4.58 4.58h35.82a4.58 4.58 0 0 1 4.58 4.58v72a4.58 4.58 0 0 1-4.58 4.58h-88.06a4.58 4.58 0 0 1-4.58-4.58v-83.83a4.58 4.58 0 0 1 4.58-4.58h43.09a4.58 4.58 0 0 1 4.58 4.58z"/><path fill="#003834" stroke="#adcb53" stroke-linecap="round" stroke-linejoin="round" stroke-width="1.56" d="M282.68 204.12v2.68a4.58 4.58 0 0 0 4.58 4.58h35.82a4.58 4.58 0 0 1 4.58 4.58v72a4.58 4.58 0 0 1-4.58 4.58h-88.06a4.58 4.58 0 0 1-4.58-4.58v-83.83a4.58 4.58 0 0 1 4.58-4.58h43.09a4.58 4.58 0 0 1 4.58 4.58z"/><path stroke="#adcb53" stroke-linecap="round" stroke-linejoin="round" stroke-width="2" d="M249.17 253.81c0 6.1 5.45 11.04 12.17 11.04s12.17-4.94 12.17-11.04-12.17-26.79-12.17-26.79-12.17 20.69-12.17 26.79m12.17-6.97v28.33m19.9-21.36c0 6.1 5.45 11.04 12.17 11.04s12.17-4.94 12.17-11.04-12.17-26.79-12.17-26.79-12.17 20.69-12.17 26.79m12.17-6.97v28.33"/><path fill="#006e69" d="M249.47 335.36c0 15.66-62.22 16.76-62.22 0 0-23.82 20.34-43.13 31.11-43.13 11.97 0 31.11 19.31 31.11 43.13"/><path fill="#aecc53" d="M106.92 212.88H95.58v11.34h11.34z"/><path stroke="#003834" stroke-linecap="round" stroke-linejoin="round" stroke-width="1.77" d="M162.5 218.55h37.39m-86.23 0h44.28"/><path fill="#aecc53" d="M106.92 187.79H95.58v11.34h11.34z"/><path stroke="#003834" stroke-linecap="round" stroke-linejoin="round" stroke-width="1.77" d="M169.76 193.46h30.13m-86.23 0h47.79"/><path fill="#aecc53" d="M106.92 162.7H95.58v11.34h11.34z"/><path stroke="#003834" stroke-linecap="round" stroke-linejoin="round" stroke-width="1.77" d="M152.77 168.36h47.12m-86.23 0h32.87"/><path stroke="#ebf2d4" stroke-miterlimit="10" stroke-width="1.06" d="M217.13 349.93v-49.08"/><path fill="#ebf2d4" d="M217.13 304.2a3.19 3.19 0 1 0 0-6.38 3.19 3.19 0 0 0 0 6.38"/><path stroke="#ebf2d4" stroke-miterlimit="10" stroke-width="1.06" d="M211.06 349.48V310.2"/><path fill="#ebf2d4" d="M211.06 313.55a3.19 3.19 0 1 0 0-6.38 3.19 3.19 0 0 0 0 6.38"/><path stroke="#ebf2d4" stroke-miterlimit="10" stroke-width="1.06" d="M223.31 349.12v-37.16"/><path fill="#ebf2d4" d="M226.5 312.12c0-1.76-1.43-3.19-3.19-3.19s-3.19 1.43-3.19 3.19 1.43 3.19 3.19 3.19 3.19-1.43 3.19-3.19"/><path stroke="#006d68" stroke-linecap="round" stroke-linejoin="round" stroke-width="1.5" d="M198.25 272.63c-.79 4.23-4.54 7.45-8.99 7.43-4.45-.03-8.17-3.29-8.9-7.54"/><path fill="#006d68" d="M196.54 272.53a1.694 1.694 0 1 1 3.37.35 1.694 1.694 0 0 1-3.37-.35m-14.47-.08a1.692 1.692 0 1 0-3.37.31 1.692 1.692 0 0 0 3.37-.31"/><path stroke="#006d68" stroke-linecap="round" stroke-linejoin="round" stroke-width="1.5" d="M202.65 285.06c-.84 6.67-6.6 11.86-13.48 11.82-6.89-.04-12.58-5.29-13.35-11.98"/><path fill="#006d68" d="M200.93 285.01a1.7 1.7 0 0 1 1.82-1.56 1.7 1.7 0 0 1 1.56 1.82 1.7 1.7 0 0 1-1.82 1.56 1.7 1.7 0 0 1-1.56-1.82m-23.4-.13c-.06-.93-.87-1.64-1.8-1.58-.94.06-1.64.87-1.58 1.8s.87 1.64 1.8 1.58 1.64-.87 1.58-1.8"/><path stroke="#006d68" stroke-linecap="round" stroke-linejoin="round" stroke-width="1.5" d="m189.36 262.48-.41 72.51"/><path fill="#006d68" d="M187.67 262.56c0-.94.77-1.69 1.71-1.69s1.69.77 1.69 1.71-.77 1.69-1.71 1.69-1.69-.77-1.69-1.71"/><path fill="#adcb53" d="M191.62 341.94c.45-3.82-3.71-8.37-5.02-11.47-1.65-3.92-3.28-6.84-6.9-9.99-1.25-1.09-2.53-2.2-4.13-2.89-2.77-1.19-5.9-.6-8.13 1.07-4.27 3.21-6.81 7.79-8.76 12.23-1.53 3.51-5.31 9.83-2.62 13.36 2.43 3.62 10.17 4.31 14.46 4.57 5.25.32 17.53-.5 20.41-4.99.39-.6.6-1.23.68-1.89z"/><path stroke="#ebf2d4" stroke-linecap="round" stroke-linejoin="round" d="M188.66 335.01c-1.5-.23-2.9.59-3.66 1.62-2.6 3.51-3.85 7.71-3.52 11.84m-5.51.55c0-6.93 1.19-11.99 6.13-17.46.52-.57 1.46-1.16 2.26-1.41.76-.24 1.53-.16 2.28.1"/></svg>