<svg xmlns="http://www.w3.org/2000/svg" width="522" height="346" fill="none" viewBox="0 0 522 346"><path fill="#adcb53" d="M518.62 344.62c-.03-39.68-2.63-106.24-7.27-122.79-5.35-19.09-12.95-33.18-23.22-43.07-6.34-6.1-28.77-24.97-50.93-11.55-9.36 5.67-16.93 16.73-23.14 33.81l-.44 1.21c-4.04 11.12-8.23 22.61-9.83 34.39-1.11 8.16 2.02 14.75 5.33 21.72 1.27 2.67 2.58 5.43 3.69 8.36 4.43 11.63 1.49 22.14-1.63 33.27-.82 2.94-2.2 12.51-3.52 21.75-1.37 9.57-2.67 18.6-3.52 21.72l-3.12-.86c.8-2.92 2.14-12.27 3.44-21.32 1.4-9.78 2.73-19.02 3.61-22.17 2.97-10.6 5.78-20.62 1.73-31.25-1.07-2.81-2.35-5.51-3.59-8.12-3.52-7.42-6.85-14.43-5.61-23.54 1.65-12.12 5.89-23.79 9.99-35.07l.44-1.21c6.47-17.8 14.48-29.4 24.5-35.47 16.29-9.87 36.79-5.38 54.85 11.99 10.71 10.3 18.59 24.87 24.1 44.53 4.78 17.05 7.36 82.77 7.39 123.66h-3.24z"/><path fill="gray" d="M427.23 150.22h27.54v13.77c0 7.6-6.17 13.77-13.77 13.77s-13.77-6.17-13.77-13.77z"/><path fill="gray" d="M421.98 169.74c24.262 0 43.93-19.668 43.93-43.93s-19.668-43.93-43.93-43.93-43.93 19.668-43.93 43.93 19.668 43.93 43.93 43.93"/><path fill="#fff" d="M493.01 103.65c-4.82-19.62-19.84-35.1-39.29-40.56-15.03-4.22-32.74-4-47.54.78-2.85.92-5.6 2.03-8.22 3.33-16.04 6.16-27.44 21.7-27.44 39.91v4.24h76.54c1.31 2.03 2.21 4.2 2.83 6.46v56.72h4.47c22.58 0 40.88-18.3 40.88-40.88 0 0-1.37-26.35-2.26-29.98z"/><path fill="gray" d="M362.36 285.46c-3.63-2.92-7.19-5.84-10.84-8.72-3.68-2.9-7.43-6.2-9.65-10.4-.57-1.09-1.79-1.95-2.99-1.67-.96.23-1.63 1.13-2 2.05-.71 1.76-.61 3.67-.29 5.5.14.81 2.91 7.59 4.67 9.47.31.33.19.88-.24 1.04-1.61.61-3.46.59-5.14.16-3.64-.92-7.27-3.28-9.75-6.08-2.93-3.3-5.73-6.7-8.83-9.84-3.13-3.17-8.32-4.25-12.62-3.91-1.3.1-2.87.6-3.1 1.88-.14.8.32 1.58.77 2.26 3.18 4.88 6.97 9.2 10.24 14.01 2.37 3.49 4.01 7.81 5.85 11.61 1.06 2.18 2.17 4.44 4.08 5.94 1.75 1.38 3.98 1.97 6.14 2.53 4.19 1.08 8.57 1.1 12.76 2.17 4.05 1.04 7.63 1.11 11.25 3.52m105.569-181.099c5.199-6.738 5.748-15.029 1.227-18.517-4.522-3.488-12.401-.853-17.6 5.885s-5.748 15.029-1.226 18.517c4.521 3.488 12.401.853 17.599-5.885"/><path fill="#013834" d="M473.96 301.57c11.77-14.3 17.82-65.04 18.05-73.04.32-11.09-1.19-30.88-11.51-37.72-9.54-6.31-22.73-4.14-29.77 4.52-5.23 6.44-9.34 15.54-11.26 23.6-2.15 8.99-2.2 18.29-1.64 27.46.5 8.32 2.28 15.34-3.59 22.47-4.14 5.03-10.24 7.75-16.74 7.47l-40.25-1.73c-14.19-.61-26.2 10.4-26.81 24.6-.61 14.09 10.24 26.02 24.28 26.79.11 0 .21.01.32.02l40.25 1.73c22.79.98 44.18-8.56 58.68-26.18h-.01z"/><path fill="#fff" d="M418.48 329.02c-1.08 0-2.16-.02-3.24-.07l-40.25-1.73c-.15-.01-.2-.02-.27-.02-14.72-.81-26.13-13.39-25.49-28.06.64-14.84 13.24-26.4 28.08-25.76l40.25 1.73c6.12.26 11.86-2.3 15.75-7.03 4.65-5.65 4.17-11.3 3.61-17.84-.11-1.23-.21-2.49-.29-3.78-.47-7.72-.71-17.86 1.67-27.82 2.09-8.79 6.39-17.8 11.5-24.08 7.57-9.31 21.35-11.4 31.38-4.77 11.99 7.95 12.26 31.68 12.05 38.77-.23 7.91-6.15 58.89-18.29 73.73 0 .01-.02.02-.03.04-14.05 17.08-34.47 26.69-56.43 26.69m-43.68-4.24c.07 0 .19 0 .32.02l40.22 1.73c22.39.96 43.4-8.4 57.65-25.7 0-.01.02-.02.03-.03 11.58-14.07 17.56-64.81 17.77-72.3.2-6.77-.02-29.42-10.97-36.67-8.85-5.85-21.48-3.94-28.16 4.27-4.81 5.93-9.04 14.78-11.02 23.11-2.3 9.64-2.07 19.55-1.61 27.1.08 1.27.18 2.51.29 3.72.58 6.78 1.13 13.18-4.15 19.6-4.38 5.32-10.85 8.2-17.73 7.91l-40.25-1.73c-13.5-.61-24.96 9.93-25.54 23.44-.58 13.34 9.8 24.79 23.13 25.53z"/><path fill="#fff" d="M444.16 281.13h-.03a1.21 1.21 0 0 1-1.18-1.25c.06-2.54-.83-5.18-2.39-7.08-.47-.58-5.02-5.08-5.62-5.6-.31-.21-.51-.56-.52-.96-.02-.66.48-1.21 1.13-1.25 6.31-.43 14.27 3.99 17.71 9.87.34.58.14 1.32-.43 1.66-.58.34-1.32.14-1.66-.43-2.4-4.09-7.47-7.47-12.18-8.42 1.72 1.69 3.43 3.57 3.46 3.6 1.95 2.36 3.02 5.53 2.94 8.68-.02.66-.56 1.18-1.21 1.18z"/><path fill="#c3c3c3" d="M448.71 122.63c-.26 0-.51-.16-.6-.42-.12-.33.06-.69.39-.81.52-.19 1.75-.72 1.85-1.65.06-.49-.25-1.06-.76-1.41-.47-.32-1.11-.5-1.91-.54a.64.64 0 0 1-.47-.24.62.62 0 0 1-.12-.51c.48-2.52 2.98-4.55 5.23-5.44 2.22-.87 5.39-.85 7.13 1.28.22.27.18.67-.09.89s-.67.18-.89-.09c-1.33-1.63-3.87-1.61-5.68-.9-1.66.65-3.57 2.09-4.25 3.83.69.12 1.29.34 1.78.67.91.63 1.42 1.65 1.3 2.6-.12 1.15-1.11 2.14-2.69 2.7-.07.03-.14.04-.21.04z"/><path fill="#fff" d="M118.34 345.65c-.63-2.3-1.52-18.64-3.04-47.32-2.09-39.43-4.95-93.44-7.54-100.56-6.26-17.21-13.91-28.37-23.39-34.12-15.21-9.21-34.52-4.86-51.66 11.63-10.35 9.95-18 24.13-23.39 43.34-4.65 16.59-7.26 85.43-7.29 126.67H0c.03-41.36 2.67-110.45 7.37-127.21 5.48-19.57 13.31-34.05 23.93-44.26 17.85-17.17 38.08-21.62 54.12-11.91 9.9 5.99 17.83 17.49 24.25 35.16 2.69 7.41 5.44 59.38 7.66 101.15 1.27 23.98 2.37 44.69 2.97 46.89z"/><path fill="#fff" d="M67.6 150.22h27.54v13.77c0 7.6-6.17 13.77-13.77 13.77s-13.77-6.17-13.77-13.77z"/><path fill="#fff" d="M143.059 126.394c2-24.18-15.979-45.403-40.158-47.403s-45.402 15.978-47.403 40.158c-2 24.179 15.979 45.402 40.158 47.403s45.402-15.979 47.403-40.158"/><path fill="#181818" d="M68.52 153.05c-12.99-2.54-22.3-13.84-25.76-26.21-3.47-12.44-1.99-26.47 3.65-38.06 1.78-3.66 4.02-7.13 6.83-10.09 20.59-21.62 46.26-19.64 61.82-14.62 8.08 2.61 14.5 7.85 20.43 13.76 2.83 2.82 4.82 5.46 6.88 8.82s5.73 7.21 9.93 4.64c-.39 4.07-3.21 7.81-7.01 9.31-4.49 1.78-9.85 1.18-14.44.22-4.49-.94-7.3-3.74-11.08-5.88-6.61-3.73-15.06-3.77-22.34-2.45-7.53 1.37-19.92 6.6-25.56 18.05-7.71 15.64-4 42.4-3.36 42.52h.01z"/><path fill="#757575" d="M42.17 127.01c-3.48-12.49-2.14-26.52 3.69-38.5 1.94-4 4.28-7.44 6.94-10.25 22.97-24.12 51.34-18.38 62.46-14.78 8.76 2.83 15.37 8.62 20.68 13.91 2.72 2.72 4.74 5.3 6.97 8.94 1.66 2.71 5.05 6.89 9.07 4.43l1.07-.65-.12 1.25c-.41 4.3-3.39 8.25-7.4 9.83l-.46-1.16c3.23-1.27 5.7-4.26 6.44-7.64-3.29 1.25-6.75-.66-9.66-5.4-2.17-3.54-4.14-6.06-6.79-8.7-5.2-5.19-11.67-10.86-20.18-13.61-10.9-3.52-38.69-9.15-61.18 14.46-2.57 2.71-4.83 6.05-6.72 9.93-5.7 11.71-7.01 25.42-3.61 37.62l-1.2.34z"/><path fill="#fff" d="M80.594 128.771c4.522-3.488 3.973-11.778-1.226-18.517s-13.078-9.373-17.6-5.885c-4.521 3.489-3.972 11.779 1.227 18.517 5.198 6.739 13.078 9.373 17.6 5.885M161.58 312.57c2.29 1.17 4.27 2.48 6.88 2.95 6.06 1.09 11.91-.21 17.99.22 1.05.07 2.68.07 3.58.66.76.49 1.3 1.59 1.89 2.27 1.69 1.96 3.51 3.84 5.62 5.35 2.75 1.97 6.08 3.3 9.46 3.14.56-.03 1.29-.31 1.2-.86-.03-.2-.17-.35-.3-.5a20.8 20.8 0 0 1-4.76-9.75c1.6 2.3 3.98 3.9 6.31 5.45 3.71 2.47 9.01 2.47 13.15 1.26 1.25-.37 2.69-1.17 2.65-2.47-.02-.82-.63-1.48-1.21-2.05-4.11-4.13-8.7-7.59-12.88-11.64-3.03-2.93-5.52-6.83-8.09-10.17-1.48-1.92-3.03-3.9-5.2-4.99-2-1-4.3-1.12-6.53-1.22-4.32-.2-8.62.67-12.94.47-4.18-.19-7.7.47-11.73-1.16"/><path fill="#003834" d="M205.43 321.57c-.4-.6-.84-1.3-1.32-2.06-2.82-4.46-7.08-11.2-11.61-11.75-.44-.05-.9-.03-1.38-.01-.7.03-1.43.06-2.17-.12l.38-1.58c.53.13 1.11.1 1.73.08.53-.02 1.08-.04 1.65.03 5.29.65 9.8 7.78 12.78 12.49.48.75.91 1.44 1.3 2.03l-1.35.9zM47.3 298.54c-11.77-14.3-17.82-65.04-18.05-73.04-.32-11.09 1.19-30.88 11.51-37.72 9.54-6.31 22.73-4.14 29.77 4.52 5.23 6.44 9.34 15.54 11.26 23.6 2.15 8.99 2.2 18.29 1.64 27.46-.5 8.32-2.28 15.34 3.59 22.47 4.14 5.03 10.24 7.75 16.74 7.47l40.25-1.73c14.19-.61 26.2 10.4 26.81 24.6.61 14.09-10.24 26.02-24.28 26.79-.11 0-.21.01-.32.02l-40.25 1.73c-22.79.98-44.18-8.56-58.68-26.18h.01z"/><path fill="#adcb53" d="M102.78 325.99c-21.96 0-42.37-9.62-56.43-26.69-.01-.02-.03-.03-.04-.05-12.13-14.85-18.05-65.81-18.28-73.72-.2-7.08.06-30.82 12.05-38.77 10.03-6.64 23.82-4.54 31.38 4.77 5.11 6.29 9.4 15.29 11.5 24.08 2.38 9.95 2.14 20.09 1.67 27.82-.08 1.29-.19 2.55-.29 3.78-.56 6.54-1.05 12.19 3.61 17.84 3.89 4.73 9.63 7.3 15.75 7.03l40.25-1.73c7.19-.3 14.07 2.2 19.37 7.06 5.3 4.87 8.4 11.51 8.71 18.7.63 14.67-10.77 27.25-25.43 28.05-.13 0-.19 0-.25.01l-40.33 1.74c-1.08.05-2.17.07-3.24.07zm-54.51-28.18c14.25 17.29 35.26 26.64 57.64 25.68l40.25-1.73c.11-.01.23-.02.37-.02 13.27-.73 23.64-12.18 23.07-25.52-.28-6.54-3.09-12.58-7.92-17.01s-11.09-6.71-17.62-6.43l-40.25 1.73c-6.9.29-13.35-2.59-17.73-7.91-5.28-6.42-4.73-12.82-4.15-19.6.1-1.21.21-2.45.29-3.72.46-7.56.7-17.47-1.61-27.11-1.98-8.33-6.21-17.19-11.02-23.12-6.67-8.21-19.31-10.13-28.16-4.27-10.95 7.26-11.16 29.9-10.97 36.67.22 7.49 6.2 58.24 17.77 72.3.01.01.02.03.04.04z"/><path fill="#adcb53" d="M77.1 278.09c-.66 0-1.2-.52-1.21-1.18-.08-3.15 1-6.31 2.95-8.68.03-.03 1.73-1.91 3.45-3.6-4.71.96-9.78 4.33-12.18 8.42-.34.58-1.08.77-1.66.43a1.21 1.21 0 0 1-.43-1.66c3.44-5.88 11.39-10.29 17.71-9.87.65.04 1.15.6 1.13 1.25-.01.4-.22.75-.53.96-.6.52-5.15 5.02-5.62 5.6-1.56 1.9-2.46 4.54-2.4 7.08.02.67-.51 1.23-1.18 1.25z"/><path fill="#3d3d3d" d="M72.55 119.92c-.11 0-.21-.02-.32-.06-1.7-.61-2.76-1.69-2.9-2.98-.12-1.06.44-2.2 1.44-2.89.44-.29.94-.51 1.51-.65-.75-1.49-2.44-2.71-3.92-3.3-1.75-.69-4.14-.63-5.31.81a.953.953 0 0 1-1.48-1.2c1.83-2.25 5.17-2.29 7.49-1.38 2.34.92 4.92 3.04 5.43 5.68.05.27-.02.55-.19.77s-.43.35-.7.36c-.74.04-1.33.2-1.75.49-.4.28-.66.73-.62 1.1.08.78 1.28 1.26 1.64 1.39.5.18.76.72.58 1.22-.14.39-.51.63-.9.63z"/><path fill="#3c3c3c" d="M119.26 124a4.06 4.06 0 0 0 2 5.38c2.04.93 4.45.04 5.38-2s-6.45-5.42-7.38-3.38m13.67 1.43c-4.38-7.99-14.75-9.54-20.26-7.12l-2.6-5.93c8.81-3.86 22.7-.73 28.54 9.94z"/><path fill="#606060" d="M122.51 157.14a.6.6 0 0 1-.22-.04c-4.04-1.68-6.16-3.21-8.05-7.83a.567.567 0 1 1 1.05-.43c1.6 3.9 3.19 5.45 7.43 7.21.29.12.43.46.31.75-.09.22-.3.35-.53.35z"/><path fill="#181818" d="M396.8 130.48c.93 2.04.04 4.45-2 5.38s-4.45.04-5.38-2 6.45-5.42 7.38-3.38"/><path fill="#fff" d="m381 130.74-1.42-.78c5.22-9.52 17.59-12.32 25.43-8.88l-.65 1.48c-7.2-3.16-18.57-.58-23.36 8.18"/><path fill="#c3c3c3" d="M395.17 160.44c-.25 0-.48-.15-.59-.39a.64.64 0 0 1 .34-.83c4.22-1.75 5.81-3.3 7.4-7.17.13-.32.51-.48.83-.35.33.13.48.5.35.83-1.9 4.65-4.03 6.18-8.08 7.86-.08.03-.16.05-.24.05z"/><path fill="#fff" d="M234.97 207.82c-5.3 0-10.69-.66-16.04-2.03-11.98-3.08-22.72-9.45-31.12-18.44-8.62 4.83-19.4 3.95-27.13-2.29-.33-.26-.49-.67-.44-1.09s.31-.78.69-.95c2.68-1.27 5.14-3.13 7.29-5.55.77-.87 1.47-1.75 2.09-2.64 2.9-4.21 3.76-9.54 2.37-14.63-3.31-12.15-2.98-24.94.95-36.99 10.45-32.04 44.25-50.72 76.94-42.53.65.16 1.05.82.88 1.47-.16.65-.82 1.05-1.47.88-31.45-7.88-63.98 10.1-74.04 40.93-3.78 11.6-4.1 23.91-.91 35.59 1.58 5.78.59 11.85-2.71 16.65-.67.97-1.43 1.94-2.27 2.88-1.9 2.13-4.01 3.87-6.31 5.21 7.06 4.75 16.35 5 23.68.48.5-.31 1.15-.22 1.54.22 8.17 9.03 18.75 15.41 30.59 18.45a62.2 62.2 0 0 0 15.44 1.96c26.41 0 50.77-16.98 59.12-43.23 8.37-26.29-1.79-55.32-24.72-70.58a1.211 1.211 0 1 1 1.34-2.02c23.83 15.86 34.39 46.02 25.7 73.34-8.68 27.27-33.99 44.92-61.44 44.92z"/><path fill="#adcb53" d="M286.29 207.83c-27.45 0-52.75-17.65-61.44-44.92-8.7-27.34 1.32-56.61 24.93-72.83.55-.38 1.31-.24 1.69.31s.24 1.31-.31 1.69c-22.72 15.61-32.37 43.77-23.99 70.09 8.35 26.25 32.71 43.23 59.12 43.23 5.1 0 10.28-.63 15.44-1.96 11.84-3.04 22.42-9.42 30.59-18.45.39-.43 1.04-.53 1.54-.22 7.33 4.52 16.63 4.27 23.68-.48-2.29-1.33-4.41-3.08-6.31-5.2-.84-.94-1.61-1.91-2.27-2.88-3.3-4.8-4.29-10.87-2.71-16.65 3.18-11.69 2.87-24-.91-35.59-10.06-30.83-42.58-48.81-74.04-40.93a1.211 1.211 0 1 1-.59-2.35c32.69-8.19 66.48 10.49 76.94 42.53 3.93 12.05 4.26 24.84.95 36.99-1.39 5.09-.53 10.42 2.37 14.63.61.89 1.31 1.78 2.08 2.64 2.16 2.42 4.61 4.28 7.29 5.55.38.18.64.54.69.95.05.42-.12.83-.44 1.09-7.73 6.25-18.52 7.12-27.13 2.29-8.4 8.99-19.13 15.36-31.12 18.44a64.3 64.3 0 0 1-16.05 2.03"/><path fill="#a9c753" d="M260.63 31.67c-6.25 0-11.77-4-13.73-9.95-.2-.62.13-1.28.75-1.48s1.28.13 1.48.75c1.64 4.98 6.26 8.33 11.49 8.33s9.85-3.35 11.5-8.32c.2-.62.86-.95 1.48-.75s.95.87.75 1.48c-1.97 5.94-7.48 9.94-13.73 9.94z"/><path fill="#a9c753" d="M268.8 20.83c.42-2.4 2.7-4.02 5.1-3.6s4.02 2.7 3.6 5.1-2.7 4.02-5.1 3.6-4.02-2.7-3.6-5.1m-16.34 0c-.42-2.4-2.7-4.02-5.1-3.6s-4.02 2.7-3.6 5.1 2.7 4.02 5.1 3.6 4.02-2.7 3.6-5.1m8.17 36.66c-9.76 0-18.36-6.93-20.44-16.48-.14-.63.26-1.26.9-1.4s1.26.26 1.4.9c1.85 8.48 9.48 14.64 18.14 14.64s16.3-6.16 18.14-14.64c.14-.63.77-1.04 1.4-.9s1.04.76.9 1.4c-2.08 9.55-10.67 16.48-20.44 16.48"/><path fill="#a9c753" d="M275.47 40.45a4.426 4.426 0 0 1 4.9-3.88c2.42.28 4.16 2.48 3.88 4.9a4.426 4.426 0 0 1-4.9 3.88 4.426 4.426 0 0 1-3.88-4.9m-29.68 0a4.426 4.426 0 0 0-4.9-3.88 4.426 4.426 0 0 0-3.88 4.9 4.426 4.426 0 0 0 4.9 3.88 4.426 4.426 0 0 0 3.88-4.9m14.85 120.01c-.65 0-1.17-.53-1.17-1.17V4.2c0-.65.53-1.17 1.17-1.17s1.17.53 1.17 1.17v155.09c0 .65-.53 1.17-1.17 1.17"/><path fill="#a9c753" d="M256.22 4.42c0-2.44 1.98-4.42 4.42-4.42s4.42 1.98 4.42 4.42-1.98 4.42-4.42 4.42-4.42-1.98-4.42-4.42"/><path fill="#a8c653" d="M282.32 160.23c-.52 0-.94-.42-.94-.94v-18.44a.939.939 0 1 1 1.88 0v18.44c0 .52-.42.94-.94.94"/><path fill="#a8c653" d="M285.86 141.02a3.54 3.54 0 1 0-7.08 0 3.54 3.54 0 0 0 7.08 0m-13.64 19.2c-.52 0-.94-.42-.94-.94v-30.2a.939.939 0 1 1 1.88 0v30.2c0 .52-.42.94-.94.94"/><path fill="#a8c653" d="M275.76 129.26a3.54 3.54 0 1 0-7.08 0 3.54 3.54 0 0 0 7.08 0m-36.82 30.97c-.52 0-.94-.42-.94-.94v-18.44a.939.939 0 1 1 1.88 0v18.44c0 .52-.42.94-.94.94"/><path fill="#a8c653" d="M242.47 141.02a3.54 3.54 0 1 0-7.08 0 3.54 3.54 0 0 0 7.08 0m6.57 19.2c-.52 0-.94-.42-.94-.94v-30.2a.939.939 0 1 1 1.88 0v30.2c0 .52-.42.94-.94.94"/><path fill="#a8c653" d="M252.58 129.26a3.54 3.54 0 1 0-7.08 0 3.54 3.54 0 0 0 7.08 0"/><path fill="#a9c753" d="M293.98 160.52h-66.7a.58.58 0 0 1 0-1.16h66.7a.58.58 0 0 1 0 1.16"/><path fill="#adcb53" d="M268.84 328.42h-84.7c-.89 0-1.62-.73-1.62-1.62s.73-1.62 1.62-1.62h83.46l21.89-79.81a1.62 1.62 0 0 1 3.12.86l-22.22 81c-.19.7-.83 1.19-1.56 1.19z"/></svg>