<svg xmlns="http://www.w3.org/2000/svg" id="text" viewBox="0 0 500 500"><defs><linearGradient id="linear-gradient" x1="106.45" x2="369.64" y1="268.44" y2="268.44" gradientUnits="userSpaceOnUse"><stop offset=".41" stop-color="#003834"/><stop offset="1" stop-color="#338a86"/></linearGradient><linearGradient id="linear-gradient1" x1="258.16" x2="258.16" y1="290.16" y2="215.76" gradientUnits="userSpaceOnUse"><stop offset=".05" stop-color="#bed675"/><stop offset=".24" stop-color="#a1c678"/><stop offset=".76" stop-color="#559c82"/><stop offset="1" stop-color="#378c86"/></linearGradient><style>.st2,.st3{stroke-miterlimit:10;fill:none;stroke:#fff}.st3{stroke-width:4.51px}.st7{fill:#fff}</style></defs><path d="m352.95 340.45-13.74-12.68-10.55-9.74-10.22-9.43c-15.49 16.78-37.46 26.4-60.28 26.4-29.33 0-56.63-15.83-71.23-41.31-7.07-12.33-10.8-26.42-10.8-40.72 0-11.34 2.27-22.32 6.74-32.62 5.58-12.85 14.44-24.15 25.63-32.68l-42.19-55.45c-20.68 15.76-37.06 36.64-47.38 60.41-8.28 19.08-12.48 39.38-12.48 60.34 0 26.45 6.91 52.5 20 75.33 27 47.11 77.47 76.38 131.71 76.38 42.2 0 82.83-17.79 111.48-48.81l-16.68-15.41Z" style="fill:url(#linear-gradient)"/><path d="m353.48 340.94 16.15 14.92c25.94-28.09 40.23-64.64 40.23-102.9h-69.67c0 20.69-7.72 40.45-21.75 55.64l10.61 9.8 12.01 11.09 12.41 11.46Z" style="fill:#f2f6e9"/><path d="M258.16 104.26c81 0 147.08 65.09 148.68 145.71h-63.7c-1.6-45.39-39.3-81.97-85.4-82.17h-.41c-25.35 0-41.05 9.78-48.17 15.64-13.6-17.73-33.07-43.33-38.39-50.86 25.74-18.28 56.66-28.31 87.4-28.31m-.01-3.01c-32.7 0-65.25 11.21-91.44 30.54-.64.47 42 56 42 56 .69-.53 16.43-17 48.6-17h.4c45.23.19 82.47 36.94 82.47 82.17h69.67c0-83.65-68.06-151.71-151.71-151.71Z" style="fill:#338a86"/><path d="m413.72 153.24-28.99-28.99h57.98z" style="fill:#003834"/><path d="m265.74 121.08-.09-47.12h71.43" class="st2"/><path d="M336.89 77.72c2.08 0 3.76-1.68 3.76-3.76s-1.68-3.76-3.76-3.76-3.76 1.68-3.76 3.76 1.68 3.76 3.76 3.76" class="st7"/><path d="M149.88 185.33H48.45" class="st2"/><path d="M48.64 181.57c-2.08 0-3.76 1.68-3.76 3.76s1.68 3.76 3.76 3.76 3.76-1.68 3.76-3.76-1.68-3.76-3.76-3.76" class="st7"/><path d="M50.68 172.21h60.87" class="st3"/><path d="M374.06 327.38h101.43" class="st2"/><path d="M475.3 331.14c2.08 0 3.76-1.68 3.76-3.76s-1.68-3.76-3.76-3.76-3.76 1.68-3.76 3.76 1.68 3.76 3.76 3.76" class="st7"/><path d="M473.27 314.26h-60.88M264.87 61.74h72.15m-72.15-13.53h72.15" class="st3"/><path d="m281.21 397.15.85 51.07" class="st2"/><path d="M278.29 448.09a3.76 3.76 0 0 0 3.82 3.7 3.76 3.76 0 0 0 3.7-3.82 3.76 3.76 0 0 0-3.82-3.7 3.76 3.76 0 0 0-3.7 3.82" class="st7"/><path d="M291.92 438.26h76.66m-76.66-11.27h76.66" class="st3"/><path d="m258.16 230.75 19.26 11.12v22.19l-19.26 11.12-19.26-11.12v-22.19zm.04-14.99h-.09l-32.22 18.6v37.2l32.22 18.6h.09l32.22-18.6v-37.2z" style="fill:url(#linear-gradient1)"/><path d="m137.04 420.14-26.49-10.73-22.71 9.19-22.72-9.19-26.49 10.73 22.71 9.19-22.71 9.19 26.49 10.73 22.72-9.19 22.71 9.19 26.49-10.73-22.71-9.19z" style="fill:none;stroke:#fff;stroke-linecap:round;stroke-linejoin:round;stroke-width:2px"/><path d="M147.33 310.59v10.96c-1.01 8.25-3.84 15.82-7.71 23.36l-39.69 77.33-21.39 10.36c.74-.17.59-.91.98-1.67l39.79-77.74c3.53-6.9 5.71-13.89 6.29-21.64 1.5-20.14-6.47-39.82-21.29-53.52-12.26-11.34-28.57-17.35-45.11-14.48-.82.14-1.64.31-2.47.49-.77.18-1.4.43-1.89-.02 3.35-2.2 7.13-3.46 10.83-5.44 8.57-4.59 18.01-7.17 27.74-6.1 9.67 1.07 18.5 4.49 26.34 10.08 16.02 11.42 25.16 28.83 27.58 48.01Z" style="fill:#849e2a"/><path d="M78.54 432.59c-.36-.17-.79-.3-1.12-.89l-48.6-87.29c-4.76-8.55-7.16-17.9-7.76-27.58-1.2-19.46 7.25-38.89 24.66-48.6.03-.02.06-.03.09-.05 3.65-2.04 7.6-3.5 11.7-4.31.09-.02.17-.03.21-.04 17.04-3.51 33.96 2.52 46.58 14.2 14.81 13.7 22.79 33.38 21.29 53.52-.58 7.75-2.76 14.75-6.29 21.64l-39.79 77.74c-.39.76-.24 1.5-.98 1.67Z" style="fill:#bed675"/><path d="M57.72 263.83c17.04-3.51 33.96 2.52 46.58 14.2 14.81 13.7 22.79 33.38 21.29 53.52-.58 7.75-2.76 14.75-6.29 21.64l-39.79 77.74" class="st2"/><ellipse cx="69.29" cy="322.72" rx="24.94" ry="27.82" style="fill:#00524f" transform="rotate(-33.55 69.301 322.755)"/></svg>