<?xml version="1.0" encoding="UTF-8"?>
<svg id="text" xmlns="http://www.w3.org/2000/svg" xmlns:xlink="http://www.w3.org/1999/xlink" version="1.1" viewBox="0 0 500 500">
  <!-- Generator: Adobe Illustrator 30.2.1, SVG Export Plug-In . SVG Version: 2.1.1 Build 1)  -->
  <defs>
    <style>
      .st0, .st1, .st2, .st3, .st4, .st5, .st6, .st7, .st8 {
        fill: none;
      }

      .st1 {
        stroke: #c3c3c3;
        stroke-width: 2.01px;
      }

      .st1, .st2, .st3, .st5, .st7 {
        stroke-miterlimit: 10;
      }

      .st9 {
        fill: #6fafac;
      }

      .st10 {
        fill: url(#linear-gradient2);
      }

      .st11 {
        fill: url(#linear-gradient3);
      }

      .st2 {
        stroke-width: 2.01px;
      }

      .st2, .st6 {
        stroke: #6fafac;
      }

      .st3 {
        stroke: #fff;
      }

      .st4 {
        stroke: #003834;
        stroke-width: 3px;
      }

      .st4, .st6, .st8 {
        stroke-linecap: round;
        stroke-linejoin: round;
      }

      .st12 {
        fill: #afd3d0;
      }

      .st5 {
        stroke: url(#linear-gradient1);
      }

      .st5, .st7 {
        stroke-width: 32.24px;
      }

      .st13 {
        fill: #adcb53;
      }

      .st14 {
        fill: #fff;
      }

      .st6 {
        stroke-width: 7.16px;
      }

      .st15 {
        fill: #00524f;
      }

      .st7 {
        stroke: url(#linear-gradient);
      }

      .st8 {
        stroke: #adcb53;
        stroke-width: 5.97px;
      }

      .st16 {
        fill: #003834;
      }
    </style>
    <linearGradient id="linear-gradient" x1="162.71" y1="227.03" x2="485.07" y2="227.03" gradientUnits="userSpaceOnUse">
      <stop offset=".13" stop-color="#003834"/>
      <stop offset=".58" stop-color="#338a86"/>
      <stop offset=".63" stop-color="#398d85"/>
      <stop offset=".7" stop-color="#4b9782"/>
      <stop offset=".78" stop-color="#6aa87f"/>
      <stop offset=".87" stop-color="#93be7a"/>
      <stop offset=".95" stop-color="#bed675"/>
    </linearGradient>
    <linearGradient id="linear-gradient1" x1="225.39" x2="422.39" xlink:href="#linear-gradient"/>
    <linearGradient id="linear-gradient2" x1="417.2" y1="407.81" x2="405.51" y2="378.95" gradientUnits="userSpaceOnUse">
      <stop offset="0" stop-color="#6fafac"/>
      <stop offset=".09" stop-color="#60a3a0"/>
      <stop offset=".37" stop-color="#37817d"/>
      <stop offset=".63" stop-color="#186863"/>
      <stop offset=".84" stop-color="#065954"/>
      <stop offset="1" stop-color="#00544f"/>
    </linearGradient>
    <linearGradient id="linear-gradient3" x1="388" y1="329.86" x2="452.37" y2="329.86" xlink:href="#linear-gradient2"/>
  </defs>
  <circle class="st7" cx="323.89" cy="227.03" r="145.06"/>
  <circle class="st5" cx="323.89" cy="227.03" r="82.38"/>
  <g>
    <g>
      <polygon class="st2" points="246.87 238.43 86.11 238.43 86.11 113.55 246.87 113.18 246.87 238.43"/>
      <rect class="st2" x="86.11" y="94.43" width="160.76" height="18.64"/>
      <g>
        <g>
          <rect class="st9" x="229.6" y="102.4" width="11.76" height="2.77" transform="translate(-4.41 196.91) rotate(-45)"/>
          <rect class="st9" x="234.1" y="97.9" width="2.77" height="11.76" transform="translate(-4.41 196.91) rotate(-45)"/>
        </g>
        <path class="st9" d="M219.79,98.92h-10.92v10h10.92v-10h0Z"/>
        <rect class="st9" x="187.35" y="106.72" width="10.92" height="2.2"/>
      </g>
    </g>
    <g>
      <line class="st1" x1="116.96" y1="160.22" x2="151.4" y2="160.22"/>
      <line class="st1" x1="99.61" y1="160.22" x2="113.77" y2="160.22"/>
      <line class="st1" x1="99.61" y1="187.82" x2="131.22" y2="187.82"/>
    </g>
  </g>
  <g>
    <g>
      <g>
        <polygon class="st15" points="32.05 196.49 32.05 73.61 190.8 73.25 190.8 196.49 32.05 196.49"/>
        <path class="st14" d="M189.8,74.26v121.23H33.05v-120.87l156.75-.36M191.81,72.25l-160.76.37v124.88h160.76v-125.25h0Z"/>
      </g>
      <rect class="st9" x="31.05" y="56.17" width="160.76" height="18.64"/>
      <g>
        <g>
          <rect class="st14" x="179.04" y="59.64" width="2.77" height="11.76" transform="translate(99.18 -108.38) rotate(45)"/>
          <rect class="st14" x="179.04" y="59.64" width="2.77" height="11.76" transform="translate(354.33 -15.72) rotate(135)"/>
        </g>
        <path class="st14" d="M164.73,60.66h-10.92v10h10.92v-10h0Z"/>
        <rect class="st14" x="132.28" y="68.46" width="10.92" height="2.2"/>
      </g>
    </g>
    <line class="st6" x1="48.53" y1="98.85" x2="174.33" y2="98.85"/>
    <line class="st6" x1="48.53" y1="124.06" x2="174.33" y2="124.06"/>
    <line class="st6" x1="48.53" y1="149.27" x2="174.33" y2="149.27"/>
    <line class="st6" x1="48.53" y1="174.48" x2="174.33" y2="174.48"/>
  </g>
  <line class="st4" x1="209.75" y1="440.25" x2="165.75" y2="440.25"/>
  <line class="st4" x1="335.75" y1="440.25" x2="232.75" y2="440.25"/>
  <line class="st4" x1="336.25" y1="427.75" x2="258.25" y2="427.75"/>
  <g>
    <path class="st12" d="M372.82,336.76l-12.88,19.19-16.15-20.17c-.33-.42-.54-.78-.71-1.13-.28,0-.54.25-.62.76l-18.44,105.19c-.07.41.19.67-.07.84-.08.05-.26.02-.37.01v.43c.25.58.45.73.98.75.03-.34.37-.54.85-.76l75.43-34.71-16.55-20.78c-.42-.53-.54-.98-.15-1.62l26.69-39.9c.47-.71.44-1.18-.06-1.81l-22.11-27.5c-.34-.42-.49-.75-.65-1.1-.73.08-.67.31-1.14,1.03l-12.22,18.43c-.45.68-1.53,2.44-1.81,2.86Z"/>
    <path class="st0" d="M359.94,355.95l-16.15-20.17c-.33-.42-.54-.78-.71-1.13-.28,0-.54.25-.62.76l-18.44,105.19c-.07.41-.32.85-.44.85v.43c.25.58.45.73.98.75.03-.34.37-.54.85-.76l75.43-34.71-16.55-20.78c-.42-.53-.54-.98-.15-1.62l26.69-39.9c.47-.71.44-1.18-.06-1.81l-22.11-27.5c-.34-.42-.49-.75-.65-1.1-.73.08-.67.31-1.14,1.03l-26.92,40.48Z"/>
    <path class="st16" d="M388.65,315.55l22.11,27.5c.5.62.53,1.1.06,1.81l-26.69,39.9c-.39.65-.27,1.09.15,1.62l16.55,20.78-75.43,34.71c-.48.22-.82.42-.85.76l36.04.96c1.53.04,3.26.58,4.73-.09l75.73-34.69c.41-.22.64-.65.33-1.03l-16.75-20.93,15.98-23.92,11.75-17.63-23.02-28.59c-.44-.55-.83-.75-1.53-.78l-32.4-1.26-5.35-.14c-.79-.02-1.75.6-1.41,1.02Z"/>
    <path class="st10" d="M424.64,386.85s-40.78-1.01-40.35-.48l16.55,20.78,40.22,1.65c.41-.22.64-.65.33-1.03l-16.75-20.93Z"/>
    <path class="st11" d="M410.76,343.05c.5.62,41.61,2.25,41.61,2.25l-23.02-28.59c-.44-.55-.83-.75-1.53-.78l-32.4-1.26-5.35-.14c-.79-.02-1.37-.16-2.06-.09.16.35.32.68.65,1.1l22.11,27.5Z"/>
    <path class="st16" d="M343.08,334.65c.17.35.38.72.71,1.13l16.15,20.17,12.81-18.7c.28-.42-29.67-2.6-29.67-2.6Z"/>
    <path class="st3" d="M324.56,442.63c.03-.34.37-.54.85-.76l75.43-34.71-16.55-20.78c-.42-.53-.54-.98-.15-1.62l26.69-39.9c.47-.71.44-1.18-.06-1.81l-22.11-27.5c-.34-.42-.49-.75-.65-1.1-.73.08-.67.31-1.14,1.03l-12.22,18.43c-.45.68-1.53,2.44-1.81,2.86l-12.88,19.19"/>
  </g>
  <g>
    <path class="st13" d="M342.85,226.5c.09,10.47-8.33,19.03-18.8,19.11-10.47.09-19.03-8.33-19.11-18.8-.09-10.47,18.73-28.28,18.73-28.28,0,0,19.1,17.5,19.19,27.97Z"/>
    <line class="st8" x1="323.85" y1="221.77" x2="324.12" y2="255.54"/>
  </g>
</svg>