<svg xmlns="http://www.w3.org/2000/svg" width="400" height="400" fill="none" viewBox="0 0 400 400"><path fill="#ebf2d4" d="M268.38 64.48c-14.86-5.57-30.38-10.24-46.25-10.17-21.39.09-41.73 8.73-61.19 17.61-35.83 16.35-64.08 41.98-93.45 68-23.77 21.07-27.68 64.75-26.96 94.43.09 3.58.18 7.18.34 10.77.5 11.07 1.69 22.1 5.57 32.41 6.22 16.54 20.64 30.5 31.54 44.12 11.79 14.74 23.35 27.03 39.23 37.56 17.98 11.91 43.68 32.37 65.85 34.25 27.91 2.36 49.28 3.5 76.11-4.86 28.57-8.91 59.89-21.91 80.45-44.69 10.78-11.94 17.82-28.99 25.85-42.88 15.66-27.1 22.15-56.32 18.12-87.46-4.22-32.6-17.02-57.59-30.53-86.73-17.35-37.42-47.84-48.54-84.67-62.35z"/><path stroke="gray" stroke-linecap="round" stroke-linejoin="round" stroke-width="2" d="M291.67 27.36c.61-2.89 1.7-5.73 3.3-8.41 7.81-13.08 24.75-17.36 37.84-9.54a27.44 27.44 0 0 1 12.4 16.21c4.75-1.43 10.06-.95 14.65 1.79 8.68 5.18 11.51 16.42 6.33 25.09-3.27 5.48-8.95 8.62-14.88 8.89.63 6.34-.69 12.93-4.2 18.82-8.72 14.6-27.62 19.37-42.22 10.65-9.35-5.58-14.66-15.35-14.98-25.48-3.89.35-7.93-.47-11.54-2.63-9.11-5.44-12.09-17.24-6.65-26.36 4.23-7.08 12.29-10.43 19.95-9.04zm-47.085 23.924c6.747-.145 12.099-5.733 11.955-12.48s-5.733-12.1-12.48-11.955-12.1 5.732-11.955 12.48c.145 6.747 5.732 12.1 12.48 11.955"/><path stroke="#aecc53" stroke-linecap="round" stroke-linejoin="round" stroke-width="2.54" d="M94.74 151.03c0 15.85 15.98 28.69 35.69 28.69s33.69-12.85 33.69-28.69"/><path stroke="#006e69" stroke-linecap="round" stroke-linejoin="round" stroke-width="2.24" d="M89.11 330.15 70.25 183.33V82.73"/><path stroke="#006e69" stroke-linecap="round" stroke-linejoin="round" stroke-width="2.24" d="M84.99 330.15 66.13 183.33V82.73m-28.8 247.79L56.19 183.7V83.1"/><path stroke="#006e69" stroke-linecap="round" stroke-linejoin="round" stroke-width="2.24" d="M41.45 330.52 60.31 183.7V83.1"/><path stroke="#006e69" stroke-linecap="round" stroke-linejoin="round" stroke-width="2.24" d="M31.78 91.6h62.88l13.31-8.87h-89.5zm62.88 0v13.32m-38.47 22.93h14.8l24.04 9.62H31.41zm38.47 9.62v13.31m-63.62-13.31v13.31m25.15 22.93h14.8l24.04 9.62H31.41zm38.47 9.62v13.31m-63.62-13.31v13.31m0-105.04v13.32"/><path stroke="#aecc53" stroke-linecap="round" stroke-linejoin="round" stroke-width="2.54" d="M139.3 320.73v-.05c0-.15.03-.29.08-.44l32.78-220.6h.61c.84-3.42 17.98-6.14 39.01-6.14s38.17 2.73 39.01 6.14h.24l32.78 220.6c.05.14.08.29.08.44v.12h-.01c-.47 5.41-32.64 9.3-72.28 9.3s-71.81-3.9-72.28-9.3h-.02z"/><path stroke="#aecc53" stroke-linecap="round" stroke-linejoin="round" stroke-width="2.54" d="M146.17 278.73c6.49-4.83 19.4-6.16 26.51-1.59 9.19 5.92 7.45 20.4 6.93 29.83-.4 7.18-1.98 14.95-6.13 21.07"/><path stroke="#aecc53" stroke-linecap="round" stroke-linejoin="round" stroke-width="2.54" d="M205.93 329.12c-2.85-9.57 1.48-19.66 2.19-29.62.75-10.6-3.05-24.53-9.7-32.87-7.38-9.26-15.99-14.05-23.16-16.77-8.19-3.1-19.46-1.64-26.02 3.98m129.5 34.42c-2.55-7.49-8.34-13.23-15.48-17.13-2.22-1.21-4.62-2.23-7.17-2.4-5.4-.36-11.21 3.45-13.46 8.1-2.46 5.09.02 9.2 2.96 13.8 2.97 4.65 5.83 9.45 7.35 14.7"/><path stroke="#aecc53" stroke-linecap="round" stroke-linejoin="round" stroke-width="2.54" d="M274.31 257.05c-2.59-4.51-3.39-7.32-8.71-9.39-4.77-1.86-10.14-2.32-15.2-1.45-8.84 1.51-16.64 6.59-22.9 12.74-2 1.97-3.9 4.1-4.98 6.65-1.3 3.07-1.28 6.53-.68 9.79 1.44 7.83 6.03 14.75 9.43 22.01s5.61 15.8 2.18 23.04c-1.7 3.59-3.25 6.37-6 9.3m-2.6-235.03c-6.57 6.28-11.37 14.76-10.51 23.96.27 2.86 1.25 5.63 1.51 8.49.5 5.49-1.89 11.19-6.35 14.68-4.46 3.48-10.89 4.57-16.26 2.57-10.94-4.08-13.08-17.69-24.05-22.42"/><path stroke="#aecc53" stroke-linecap="round" stroke-linejoin="round" stroke-width="2.54" d="M250.83 103.17c-6.59 4.47-11.61 11.03-14.08 18.39-2.81 8.39-2.37 17.61-5.77 25.8-3.47 8.34-10.99 15.04-19.93 17.76-8.94 2.71-19.12 1.39-26.98-3.52-5.76-3.6-12.76-9.73-19.47-11.18"/><path fill="#006e69" d="M250.35 325.16v-.05c0-.15.03-.29.08-.44l32.78-225.91h.61c.84-3.42 17.98-6.14 39.01-6.14s38.17 2.73 39.01 6.14h.24l32.78 225.91c.05.14.08.29.08.44v.12h-.01c-.47 5.41-32.64 9.3-72.28 9.3s-71.81-3.9-72.28-9.3h-.02z"/><path stroke="#fff" stroke-linecap="round" stroke-linejoin="round" stroke-width="2.24" d="M250.35 325.16v-.05c0-.15.03-.29.08-.44l32.78-225.91h.61c.84-3.42 17.98-6.14 39.01-6.14s38.17 2.73 39.01 6.14h.24l32.78 225.91c.05.14.08.29.08.44v.12h-.01c-.47 5.41-32.64 9.3-72.28 9.3s-71.81-3.9-72.28-9.3h-.02z"/><path stroke="#fff" stroke-linecap="round" stroke-linejoin="round" stroke-width="2.24" d="M257.22 283.16c6.49-4.83 19.4-6.16 26.51-1.59 9.19 5.92 7.45 20.4 6.93 29.83-.4 7.18-1.98 14.95-6.13 21.07"/><path stroke="#fff" stroke-linecap="round" stroke-linejoin="round" stroke-width="2.24" d="M296.56 332.61c8.9-16.91 13.61-41.6 5.8-59.74-3.36-7.8-9.66-14.62-17.85-17.72s-18.25-2.01-24.81 3.61"/><path stroke="#fff" stroke-linecap="round" stroke-linejoin="round" stroke-width="2.24" d="M321.06 334.27c6.29-6.52 7.7-16.21 6.51-25.01-1.1-8.11-4.09-15.81-6.28-23.67-1.72-6.18.37-13.46.96-19.82 1.27-13.73.78-27.96-8.33-39.38-9.82-12.31-28.99-23.25-45.7-19.27m121.58 85.57c-2.55-7.49-8.34-13.23-15.48-17.13-2.22-1.21-4.62-2.23-7.17-2.4-5.4-.36-11.21 3.45-13.46 8.1-2.46 5.09.02 9.2 2.96 13.8 2.97 4.65 5.83 9.45 7.35 14.7 2.44 8.42.68 17.77-6.97 23.1"/><path stroke="#fff" stroke-linecap="round" stroke-linejoin="round" stroke-width="2.24" d="M385.36 261.48c-2.59-4.51-3.39-7.32-8.71-9.39-4.77-1.86-10.14-2.32-15.2-1.45-8.84 1.51-16.64 6.59-22.9 12.74-2 1.97-3.9 4.1-4.98 6.65-1.3 3.07-1.28 6.53-.68 9.79 1.44 7.83 6.03 14.75 9.43 22.01s5.61 15.8 2.18 23.04c-1.7 3.59-3.25 6.37-6 9.3m-2.6-240.34c-6.57 6.28-11.37 14.76-10.51 23.96.27 2.86 1.25 5.63 1.51 8.49.5 5.49-1.89 11.19-6.35 14.68-4.46 3.48-10.89 4.57-16.26 2.57-10.94-4.08-13.08-17.69-24.05-22.42"/><path stroke="#fff" stroke-linecap="round" stroke-linejoin="round" stroke-width="2.24" d="M361.88 102.28c-6.59 4.47-11.61 11.03-14.08 18.39-2.81 8.39-2.37 17.61-5.77 25.8-3.47 8.34-10.99 15.04-19.93 17.76-8.94 2.71-19.12 1.39-26.98-3.52-5.76-3.6-10.55-9.09-17.26-10.54"/><path stroke="#fff" stroke-linecap="round" stroke-linejoin="round" stroke-width="2.24" d="M368.05 146.27c-6.62 1.37-11 7.54-13.04 13.73-2.04 6.18-2.46 12.81-4.86 18.87-3.48 8.8-11.25 15.95-20.57 18.93-9.32 2.99-20.02 1.76-28.33-3.26-4.77-2.88-8.7-6.86-13.25-10.04-4.56-3.18-10.18-5.6-15.72-4.61m109.56 54.85c-6.44-1.34-13.34-2.65-19.48-.32-2.02.77-3.88 1.91-5.94 2.59-7.69 2.53-16.74-2.71-19.11-10.16-2.36-7.45 1.3-15.92 7.76-20.65 4.7-3.44 10.55-5.11 15.63-8.03 5.79-3.33 12.7-11.13 12.67-17.89"/><path stroke="#aecc53" stroke-linecap="round" stroke-linejoin="round" stroke-width="2.54" d="M256.98 139.67c-6.53 1.38-10.13 7.27-12.84 13.36s-4.44 12.78-8.6 18c-3.17 3.99-7.56 6.85-10.88 10.71-2.88 3.35-11.56 14.34-11.38 26.4.18 12.56 12.89 19.09 23.26 19.05 5.95-.02 11.96-2.15 16.26-6.26 4.68-4.48 7.33-11.18 13.07-14.18m-103.25-39.22c1.18 2.78 3.74 4.71 6.3 6.31 8.06 5 17.46 8.08 24.23 14.73 9.1 8.94 11.56 23.91 5.81 35.29-1.8 3.56-4.34 6.79-7.6 9.1-2.51 1.77-5.38 2.97-8.3 3.94-5.06 1.69-10.42 2.76-15.72 2.16s-10.54-3.03-13.72-7.31"/><path stroke="#aecc53" stroke-linecap="round" stroke-linejoin="round" stroke-width="2.54" d="M159.92 184.84c2.68 4.27 9.19 5.97 13.33 8.86 3.67 2.56 5.92 6.92 6.3 11.38.48 5.61-1.77 12.85-7.45 15.3-5.96 2.57-13.79-2.73-16.36-8.03"/><path fill="#006e69" d="M42.9 330.1h166.69v-57.41H42.9z"/><path fill="#a9c753" stroke="#a9c753" stroke-linecap="round" stroke-linejoin="round" stroke-width="1.26" d="M108.69 294.19h28.6v-57.4h-28.6zm-43.31 0h29.53v-57.4H65.38z"/><path fill="#003834" d="M42.9 332.1h166.69v-8.26H42.9z"/><path fill="#fff" d="M62.33 310.55h78v-16.36h-78z"/><path fill="#013834" d="M323.44 222.28H175.65v154.45h147.79z"/><path fill="#013834" d="M322.96 222.76v153.5H176.12v-153.5zm.96-.95H175.18v155.4h148.74zm-168.65.47H7.48v154.45h147.79z"/><path fill="#013834" d="M154.79 222.76v153.5H7.95v-153.5zm.95-.95H7v155.4h148.74z"/><path stroke="#afd3d0" stroke-linecap="round" stroke-linejoin="round" d="M135.76 259.19s-9.06 12.92-20.23 12.92-20.23-12.92-20.23-12.92 9.06-12.92 20.23-12.92 20.23 12.92 20.23 12.92"/><path stroke="#fff" stroke-miterlimit="10" d="M115.52 269.98c6.025 0 10.91-4.885 10.91-10.91s-4.885-10.91-10.91-10.91-10.91 4.885-10.91 10.91 4.885 10.91 10.91 10.91Z"/><path fill="#acca53" stroke="#acca53" stroke-linecap="round" stroke-linejoin="round" stroke-width=".39" d="m114.6 257.81 2.85-6.15-2.98.02c-.28.96-2.46 7.33-2.68 8.08.66-.04 2.11.08 3.82-.02l-3.37 6.75 7.04-8.38c-.53-.03-2.98-.19-4.67-.3z"/><path stroke="#acca53" stroke-linecap="round" stroke-linejoin="round" d="M300.98 259.19s-9.23 13.16-20.62 13.16-20.62-13.16-20.62-13.16 9.23-13.16 20.62-13.16 20.62 13.16 20.62 13.16"/><path stroke="#fff" stroke-miterlimit="10" d="M280.36 270.19c6.141 0 11.12-4.979 11.12-11.12s-4.979-11.12-11.12-11.12-11.12 4.979-11.12 11.12 4.979 11.12 11.12 11.12Z"/><path fill="#adcb53" d="M286 258.91a5.64 5.64 0 1 1-11.28 0c0-3.11 5.64-7.96 5.64-7.96s5.64 4.84 5.64 7.96"/><path fill="#fff" d="M280.36 267.19a.68.68 0 0 1-.68-.68v-6.65a.68.68 0 0 1 1.36 0v6.65c0 .37-.3.68-.68.68"/><path stroke="#afd3d0" stroke-linecap="round" stroke-linejoin="round" stroke-width=".41" d="M190.67 363.9h114.86"/><path fill="#afd3d0" d="m304.93 365.95 3.55-2.05-3.55-2.05z"/><path stroke="#afd3d0" stroke-linecap="round" stroke-linejoin="round" stroke-width=".41" d="M190.67 363.9V249.04"/><path fill="#afd3d0" d="m192.72 249.64-2.05-3.55-2.05 3.55z"/><path fill="#acca53" stroke="#acca53" stroke-linecap="round" stroke-linejoin="round" stroke-width=".35" d="m184.5 246.97-2.26 5.48-.89-.84 3.33-.15 1.09-.05c-.25.38-3.67 5.5-4.03 6.04l2.54-5.72.53.78-3.27.68-.88.18c0-.57 1.41-5.86 1.4-6.57l.97.16h1.47z"/><path stroke="#acca53" stroke-linecap="round" stroke-linejoin="round" stroke-width="2.93" d="M194.93 360.71v-21.94m4.81 21.94v-25.55m4.81 25.55v-29.16m4.82 29.16v-32.77m4.81 32.77v-36.38m4.81 36.38v-39.88m4.81 39.88v-42.99m4.82 42.99V315m4.81 45.71v-48.06m4.81 48.06v-50.35m4.82 50.35v-52.63m4.81 52.63v-53.85m53.19 53.85v-21.94m-4.82 21.94v-25.55m-4.81 25.55v-29.16m-4.81 29.16v-32.77m-4.81 32.77v-36.38m-4.82 36.38v-39.88m-4.81 39.88v-42.99m-4.81 42.99V315m-4.82 45.71v-48.06m-4.81 48.06v-50.35m-4.81 50.35v-52.63m-4.82 52.63v-53.85"/><path stroke="#acca53" stroke-miterlimit="10" stroke-width=".33" d="M314.6 357.98c1.1 0 1.99.9 1.99 1.99v3.66h-3.99v-3.66c0-1.1.9-1.99 1.99-1.99z"/><path fill="#fff" stroke="#fff" stroke-miterlimit="10" stroke-width=".33" d="M314.6 361.47c1.1 0 1.99.9 1.99 1.99h-3.99c0-1.1.9-1.99 1.99-1.99z"/><path stroke="#acca53" stroke-linecap="round" stroke-linejoin="round" d="M317.26 363.63h-5.32"/><path fill="#fff" stroke="#fff" stroke-miterlimit="10" stroke-width=".33" d="M314.6 358.65c-1.1 0-1.99-.9-1.99-1.99h3.99c0 1.1-.9 1.99-1.99 1.99z"/><path stroke="#acca53" stroke-miterlimit="10" stroke-width=".33" d="M314.6 358.65c-1.1 0-1.99-.9-1.99-1.99V353h3.99v3.66c0 1.1-.9 1.99-1.99 1.99z"/><path stroke="#acca53" stroke-linecap="round" stroke-linejoin="round" d="M311.94 352.99h5.32"/><path stroke="#afd3d0" stroke-linecap="round" stroke-linejoin="round" stroke-width=".41" d="M25.42 363.9h114.86"/><path fill="#afd3d0" d="m139.68 365.95 3.55-2.05-3.55-2.05z"/><path stroke="#afd3d0" stroke-linecap="round" stroke-linejoin="round" stroke-width=".41" d="M25.42 363.9V249.04"/><path fill="#afd3d0" d="m27.47 249.64-2.05-3.55-2.05 3.55z"/><path fill="#6fafac" d="m19.25 246.97-2.26 5.48-.89-.84 3.33-.15 1.09-.05c-.25.38-3.67 5.5-4.03 6.04l2.54-5.72.53.78-3.27.68-.88.18c0-.57 1.41-5.86 1.4-6.57l.97.16h1.47z"/><path stroke="#acca53" stroke-miterlimit="10" stroke-width=".33" d="M149.08 358.25c1.1 0 1.99.9 1.99 1.99v3.66h-3.99v-3.66c0-1.1.9-1.99 1.99-1.99z"/><path fill="#fff" stroke="#fff" stroke-miterlimit="10" stroke-width=".33" d="M149.08 361.74c1.1 0 1.99.9 1.99 1.99h-3.99c0-1.1.9-1.99 1.99-1.99z"/><path stroke="#acca53" stroke-linecap="round" stroke-linejoin="round" d="M151.74 363.9h-5.32"/><path fill="#fff" stroke="#fff" stroke-miterlimit="10" stroke-width=".33" d="M149.08 358.91c-1.1 0-1.99-.9-1.99-1.99h3.99c0 1.1-.9 1.99-1.99 1.99z"/><path stroke="#acca53" stroke-miterlimit="10" stroke-width=".33" d="M149.08 358.91c-1.1 0-1.99-.9-1.99-1.99v-3.66h3.99v3.66c0 1.1-.9 1.99-1.99 1.99z"/><path stroke="#acca53" stroke-linecap="round" stroke-linejoin="round" d="M146.42 353.26h5.32"/><path stroke="#6fafac" stroke-linecap="round" stroke-linejoin="round" stroke-width="3.19" d="M29.67 359.65v-9.5m5.61 9.62v-22.16m5.61 22.28v-30.42M46.5 360v-27.23m5.61 27.35v-35.93m5.61 36.05v-46.17m5.61 46.29v-54.43m5.61 54.54v-22.86m5.61 22.98v-43.66m5.61 43.78V254.37m55.89 105.28v-9.5m-5.61 9.62v-22.16m-5.61 22.28v-30.42M119.22 360v-27.23m-5.61 27.35v-21.41M108 360.24v-65.17m-5.61 65.29v-28.91m-5.61 29.02v-24.18m-5.61 24.3v-36.18m-5.62 36.3v-78.22"/></svg>