<svg xmlns="http://www.w3.org/2000/svg" xmlns:xlink="http://www.w3.org/1999/xlink" id="text" viewBox="0 0 500 500"><defs><radialGradient id="radial-gradient" cx="127.02" cy="170.31" r="117.05" fx="127.02" fy="170.31" gradientUnits="userSpaceOnUse"><stop offset=".05" stop-color="#cee098"/><stop offset=".11" stop-color="#96ba84"/><stop offset=".18" stop-color="#619671"/><stop offset=".25" stop-color="#377962"/><stop offset=".31" stop-color="#196457"/><stop offset=".36" stop-color="#065851"/><stop offset=".4" stop-color="#00544f"/><stop offset=".64" stop-color="#003834"/><stop offset=".8" stop-color="#002623"/><stop offset=".99" stop-color="#001815"/></radialGradient><radialGradient id="radial-gradient1" cx="81" cy="237.39" r="12.58" fx="81" fy="237.39" gradientUnits="userSpaceOnUse"><stop offset="0" stop-color="#fff"/><stop offset=".03" stop-color="#fff" stop-opacity=".94"/><stop offset=".2" stop-color="#fff" stop-opacity=".66"/><stop offset=".36" stop-color="#fff" stop-opacity=".43"/><stop offset=".5" stop-color="#fff" stop-opacity=".24"/><stop offset=".63" stop-color="#fff" stop-opacity=".11"/><stop offset=".73" stop-color="#fff" stop-opacity=".03"/><stop offset=".8" stop-color="#fff" stop-opacity="0"/></radialGradient><radialGradient xlink:href="#radial-gradient1" id="radial-gradient2" cx="229.42" cy="95.68" r="12.58" fx="229.42" fy="95.68"/><radialGradient xlink:href="#radial-gradient1" id="radial-gradient3" cx="210.24" cy="121.86" r="8.28" fx="210.24" fy="121.86"/><radialGradient xlink:href="#radial-gradient1" id="radial-gradient4" cx="55.11" cy="270.66" r="20.4" fx="55.11" fy="270.66"/><linearGradient id="linear-gradient" x1="283.42" x2="283.42" y1="406.34" y2="93.75" gradientUnits="userSpaceOnUse"><stop offset=".01" stop-color="#001815"/><stop offset=".1" stop-color="#00322e"/><stop offset=".2" stop-color="#004440"/><stop offset=".3" stop-color="#00504b"/><stop offset=".4" stop-color="#00544f"/><stop offset=".46" stop-color="#065851"/><stop offset=".54" stop-color="#196457"/><stop offset=".63" stop-color="#377962"/><stop offset=".74" stop-color="#619671"/><stop offset=".85" stop-color="#96ba84"/><stop offset=".95" stop-color="#cee098"/></linearGradient><linearGradient xlink:href="#linear-gradient" id="linear-gradient1" x1="328.53" x2="328.53" y1="405.45" y2="212.27"/><linearGradient xlink:href="#linear-gradient" id="linear-gradient2" x1="328.53" x2="328.53" y1="405.45" y2="212.27"/><linearGradient xlink:href="#linear-gradient" id="linear-gradient3" x1="363.57" x2="363.57" y1="400.98" y2="271.69"/><style>.st1,.st2{fill:none;stroke-miterlimit:10}.st1{stroke:#6fafac}.st2{stroke:#fff}.st10{fill:#fff}</style></defs><circle cx="127.02" cy="170.31" r="103.14" style="fill:url(#radial-gradient)"/><circle cx="127.02" cy="170.31" r="14.11" class="st10"/><path d="M174.94 170.31s-21.45 35.14-47.92 35.14-47.92-35.14-47.92-35.14 21.45-35.14 47.92-35.14 47.92 35.14 47.92 35.14Z" class="st2"/><circle cx="81" cy="237.39" r="12.58" style="fill:url(#radial-gradient1)"/><circle cx="81" cy="237.39" r="3.77" class="st10"/><circle cx="229.42" cy="95.68" r="12.58" style="fill:url(#radial-gradient2)"/><circle cx="229.42" cy="95.68" r="3.77" class="st10"/><circle cx="210.24" cy="121.86" r="8.28" style="fill:url(#radial-gradient3)"/><circle cx="210.24" cy="121.86" r="2.48" class="st10"/><circle cx="55.11" cy="270.66" r="20.4" style="fill:url(#radial-gradient4)"/><circle cx="55.11" cy="270.66" r="6.12" class="st10"/><path d="M250 358.17 22 390.7l228 44.13 228-44.13z" style="fill:#003834"/><path d="m478 390.7-227.99 44.13" style="fill:none;stroke-linecap:round;stroke-linejoin:round;stroke:#adcb53;stroke-width:1.6px"/><path d="M477.6 390.7V79.52" style="stroke-width:2px;fill:none;stroke-linecap:round;stroke-linejoin:round;stroke:#adcb53"/><path d="m487.57 82.44-9.97-17.27-9.97 17.27z" style="fill:#adcb53"/><path d="m177.07 406.34-.16-96.98 37.39-21.99c13.75-8.09 26.28-16.82 38.36-26.45s24.24-20.27 35.34-32.21c11.95-12.85 23.57-25.44 33.84-39.19l18.41-24.65 48.39-71.13c.27 0 .62-.02.83.14.23.18.45.43.44 1.27l-.05 271.92c-1.75.45-212.81 39.27-212.81 39.27Z" style="fill:url(#linear-gradient)"/><path d="m176.91 309.36.16 96.98-34.08-6.89.16-96.29c3.13.2 6.22.82 9.57 1.47l24.19 4.72Z" class="st1"/><path d="M355.19 94.18s-12.65 16.47-13.4 17.86c0 0-48.87 65.57-51.35 68.62C280.4 193 270.26 204.95 259 216.68c-12.66 13.19-25.14 25.94-39.21 37.16-8.88 7.08-18.03 13.75-28.07 19.69 0 0-33.04 22.51-48.58 29.64 3.13.2 33.76 6.2 33.76 6.2l37.39-21.99c13.75-8.09 26.28-16.82 38.36-26.45 12.4-9.87 24.24-20.27 35.34-32.21 11.95-12.85 23.57-25.44 33.84-39.19l18.41-24.65 48.39-71.13c.35.42-33.46.43-33.46.43ZM214.07 321.04l31.08-17.81c11.23-6.6 21.45-13.73 31.31-21.59s20.33-16.07 28.85-26.29c49.01-58.78 83.18-47.29 83.18-47.29l27.07 5.28-.52 150.57" class="st1"/><path d="m241.74 405.45-.13-79.16 30.52-17.95c11.23-6.6 21.45-13.73 31.31-21.59s20.33-16.07 28.85-26.29c49.01-58.78 83.18-47.29 83.18-47.29l-.03 160.22c-1.43.37-173.7 32.05-173.7 32.05Z" style="fill:url(#linear-gradient1)"/><path d="M287.31 396.96c-21.94 4.04-45.57 8.49-45.57 8.49l-.13-79.16 30.52-17.95c11.23-6.6 21.45-13.73 31.31-21.59s20.33-16.07 28.85-26.29c49.01-58.78 83.18-47.29 83.18-47.29v73.55" style="stroke-miterlimit:10;stroke:#6fafac;fill:url(#linear-gradient2)"/><path d="m241.61 326.29.13 79.16-27.82-5.62.13-78.59c2.55.16 5.08.67 7.81 1.2l19.74 3.85Z" class="st1"/><path d="M287.31 397.41v-53.14l20.46-11.69c7.51-4.42 14.35-9.19 20.96-14.45 6.77-5.39 13.6-10.76 19.31-17.59 32.8-39.34 55.67-31.65 55.67-31.65l18.12 3.53-.52 95.96" class="st2"/><path d="m305.48 400.98-.09-52.98 20.42-12.01c7.51-4.42 14.35-9.19 20.96-14.45 6.77-5.39 13.6-10.76 19.31-17.59 32.8-39.34 55.67-31.65 55.67-31.65l-.02 107.23c-.96.25-116.25 21.45-116.25 21.45" style="stroke-linecap:round;stroke-linejoin:round;fill:url(#linear-gradient3);stroke:#fff"/><path d="m287.31 344.26 17.86 3.58m0 52.69-17.86-3.57m117.9-122.81v108.97m-19.65-98.25v100.48m-19.65-80.83v85.74m-41.09-53.59v60.74m22.33-75.03v71.46" class="st2"/></svg>