<svg xmlns="http://www.w3.org/2000/svg" width="500" height="484" fill="none" viewBox="0 0 500 484"><g clip-path="url(#a)"><path fill="#ebf2d4" d="M322.6 15.25C301.57 7.37 279.62.76 257.16.86c-30.27.13-59.04 12.35-86.57 24.92-50.69 23.14-90.66 59.39-132.21 96.21C4.74 151.8-.78 213.6.24 255.59c.12 5.07.25 10.16.48 15.24.71 15.66 2.39 31.26 7.87 45.86 8.8 23.4 29.21 43.16 44.62 62.42 16.69 20.85 33.04 38.25 55.5 53.13 25.43 16.86 61.8 45.8 93.17 48.46 39.49 3.34 69.73 4.95 107.69-6.88 40.43-12.6 84.73-30.99 113.83-63.23 15.25-16.9 25.21-41.02 36.57-60.67 22.15-38.34 31.34-79.68 25.64-123.75-5.97-46.13-24.09-81.48-43.2-122.71-24.55-52.95-67.68-68.68-119.79-88.22z"/><path stroke="#006e69" stroke-linecap="round" stroke-linejoin="round" stroke-width="2.34" d="M399.92 294.49h46.41V161.37h-46.41z"/><path fill="#006e69" stroke="#006e69" stroke-linecap="round" stroke-linejoin="round" stroke-width="2.34" d="M423.12 194.69a8.34 8.34 0 1 0 0-16.68 8.34 8.34 0 0 0 0 16.68"/><path stroke="#013834" stroke-linecap="round" stroke-linejoin="round" stroke-width="2.34" d="M347.54 294.49h46.41V161.37h-46.41z"/><path fill="#013834" stroke="#013834" stroke-linecap="round" stroke-linejoin="round" stroke-width="2.34" d="M370.75 194.69a8.34 8.34 0 1 0 0-16.68 8.34 8.34 0 0 0 0 16.68"/><path stroke="#adcb53" stroke-linecap="round" stroke-linejoin="round" stroke-width="2.34" d="M498.71 161.37H452.3v133.12h46.41z"/><path fill="#adcb53" stroke="#adcb53" stroke-linecap="round" stroke-linejoin="round" stroke-width="2.34" d="M475.5 194.69a8.34 8.34 0 1 0 0-16.68 8.34 8.34 0 0 0 0 16.68"/><path fill="#006e69" d="M68.4 208.07c-2.3 4.23-3.63 9.06-3.69 14.19-.2 16.77 20.49 35.58 30.11 35.58 13 0 30.98-18.18 30.98-35.2 0-6.99-2.35-13.42-6.29-18.57-1.88-2.45-2.33-5.69-1.15-8.54 1.23-2.96 1.91-6.2 1.91-9.6 0-5.79-1.97-11.12-5.27-15.36a8.69 8.69 0 0 1-.91-9.29c1.46-2.87 2.28-6.11 2.28-9.55 0-11.66-12.82-34.95-21.12-34.95-7.29 0-21.12 23.28-21.12 34.95 0 3.44.82 6.68 2.28 9.55a8.69 8.69 0 0 1-.91 9.29c-3.3 4.24-5.27 9.57-5.27 15.36 0 3.4.68 6.64 1.91 9.6 1.18 2.84.74 6.09-1.14 8.53a31 31 0 0 0-2.61 4.01"/><path stroke="#006e69" stroke-linecap="round" stroke-linejoin="round" stroke-width="2.56" d="M68.4 208.07c-2.3 4.23-3.63 9.06-3.69 14.19-.2 16.77 20.49 35.58 30.11 35.58 13 0 30.98-18.18 30.98-35.2 0-6.99-2.35-13.42-6.29-18.57-1.88-2.45-2.33-5.69-1.15-8.54 1.23-2.96 1.91-6.2 1.91-9.6 0-5.79-1.97-11.12-5.27-15.36a8.69 8.69 0 0 1-.91-9.29c1.46-2.87 2.28-6.11 2.28-9.55 0-11.66-12.82-34.95-21.12-34.95-7.29 0-21.12 23.28-21.12 34.95 0 3.44.82 6.68 2.28 9.55a8.69 8.69 0 0 1-.91 9.29c-3.3 4.24-5.27 9.57-5.27 15.36 0 3.4.68 6.64 1.91 9.6 1.18 2.84.74 6.09-1.14 8.53a31 31 0 0 0-2.61 4.01"/><path stroke="#adcb53" stroke-linecap="round" stroke-linejoin="round" stroke-width="2.56" d="M95.25 143.69v144.02"/><path stroke="#adcb53" stroke-linecap="round" stroke-linejoin="round" stroke-width="3.3" d="M120.8 287.71H69.71v51.15h51.09z"/><path fill="#a9c753" stroke="#a9c753" stroke-linecap="round" stroke-linejoin="round" stroke-width="4.67" d="M380.69 382.55H107.26c-3.01 17.8-10.01 55.2-10.01 55.2l.36 3.68h292.28l.24-3.68s-6.09-36.88-9.43-55.2z"/><path fill="#ebf2d4" d="M380.69 378.87H107.26c-3.31 19.61-6.89 39.17-9.65 58.88h292.28c-3.21-19.6-5.63-39.33-9.19-58.88z"/><path fill="#a7c553" d="M202.57 394h-14.12c.35-3.4.52-5.08.84-8.37h13.93c-.25 3.29-.38 4.97-.66 8.38zm17.2 0h-14.09c.26-3.4.38-5.08.61-8.38h13.89c-.15 3.29-.23 4.97-.41 8.38m17.23.01h-14.08c.16-3.41.23-5.08.36-8.38h13.86c-.04 3.29-.07 4.97-.15 8.38zm17.18 0h-14.07c.05-3.41.08-5.09.1-8.38h13.86c.06 3.3.08 4.98.11 8.38m17.36 0h-14.08c-.05-3.41-.08-5.09-.16-8.38h13.87c.17 3.3.24 4.98.38 8.39zm17.26.01h-14.1c-.15-3.41-.24-5.09-.42-8.39h13.9c.26 3.3.39 4.98.62 8.39m17.25 0h-14.13c-.25-3.41-.38-5.09-.66-8.39h13.95c.35 3.3.52 4.98.84 8.39m28.46.01H320.3c-.39-3.41-.59-5.1-1.01-8.39h14.07c.47 3.3.7 4.98 1.14 8.4zm17.47 0h-14.27c-.45-3.41-.68-5.1-1.17-8.4h14.17c.53 3.3.78 4.98 1.27 8.4m17.5 0h-14.35c-.5-3.42-.76-5.1-1.29-8.4h14.29c.56 3.3.82 4.98 1.35 8.4m-33.52 11.72h-14.39c-.37-3.53-.56-5.28-.94-8.73h14.26c.44 3.45.65 5.2 1.07 8.73m17.64.01h-14.41c-.44-3.54-.65-5.29-1.1-8.74h14.31c.49 3.45.72 5.2 1.2 8.74m17.61 0h-14.43c-.48-3.54-.73-5.29-1.22-8.74h14.37c.52 3.45.77 5.2 1.28 8.74m-33.79 12.07h-14.58c-.39-3.62-.57-5.42-.95-8.98h14.44c.43 3.56.64 5.36 1.08 8.98zm17.81.01h-14.55c-.45-3.62-.67-5.42-1.11-8.98h14.44c.48 3.56.72 5.36 1.21 8.98zm17.71.01h-14.51c-.5-3.62-.74-5.42-1.23-8.98h14.45c.51 3.56.76 5.36 1.29 8.98m-33.97 12.26h-14.76c-.43-3.66-.63-5.49-1.03-9.13h14.63c.45 3.63.68 5.46 1.17 9.12zm17.99.01h-14.68c-.5-3.66-.73-5.49-1.19-9.12h14.58c.5 3.63.76 5.46 1.29 9.12m17.81 0h-14.58c-.54-3.66-.8-5.49-1.31-9.12h14.53c.53 3.63.8 5.46 1.37 9.12zm-241.96-36.13h-14.35c.59-3.4.87-5.07 1.43-8.36h14.29c-.53 3.29-.81 4.97-1.37 8.37zm17.43 0h-14.27c.55-3.4.83-5.08 1.35-8.37h14.17c-.49 3.29-.74 4.97-1.25 8.37m17.41 0h-14.21c.5-3.4.75-5.08 1.23-8.37h14.07c-.42 3.29-.64 4.97-1.09 8.37m17.28.01h-14.16c.43-3.4.65-5.08 1.05-8.37h13.99c-.34 3.29-.52 4.97-.89 8.37zm54.47 11.71h-18.46c.18-3.53.27-5.27.44-8.72h18.19c-.06 3.44-.1 5.19-.17 8.72m22.54.01h-18.46c.05-3.53.07-5.28.11-8.72h18.19c.07 3.44.1 5.19.16 8.72m22.61.01h-18.47c-.09-3.53-.13-5.28-.22-8.72h18.21c.2 3.45.29 5.19.49 8.73zm22.55.01h-18.48c-.21-3.53-.32-5.28-.54-8.73h18.25c.32 3.45.47 5.2.78 8.73zm-158.52-.07c-10.71 0-21.41 0-32.12-.01.6-3.52.9-5.26 1.49-8.7h31.94c-.52 3.44-.78 5.18-1.31 8.7zm22.59.01h-18.5c.51-3.52.77-5.27 1.28-8.7h18.32c-.43 3.44-.65 5.18-1.09 8.71zm22.63.01h-18.48c.42-3.53.63-5.27 1.05-8.71h18.26c-.32 3.44-.49 5.18-.82 8.71zm22.55.01h-18.47c.31-3.53.47-5.27.77-8.71h18.21c-.2 3.44-.3 5.19-.51 8.71m9.03 12.07h-18.82c.24-3.62.37-5.42.63-8.97h18.56c-.15 3.56-.23 5.35-.36 8.97zm22.98.01h-18.83c.11-3.62.18-5.42.3-8.97h18.56c-.02 3.56-.02 5.35-.03 8.97m23.06.02h-18.83c-.02-3.62-.03-5.42-.03-8.97h18.56c.12 3.56.17 5.36.31 8.97zm36.74.01c-10.86 0-21.72-.01-32.59-.02-.15-3.62-.22-5.42-.36-8.97 10.72 0 21.44.01 32.16.02.31 3.56.46 5.36.78 8.98zm-175.04-.09h-18.65c.58-3.62.88-5.41 1.47-8.96h18.57c-.56 3.55-.84 5.35-1.39 8.97zm22.84.01h-18.72c.54-3.62.81-5.41 1.37-8.97h18.57c-.49 3.55-.74 5.35-1.22 8.97m22.97.02h-18.77c.46-3.62.7-5.41 1.18-8.97h18.56c-.4 3.55-.6 5.35-.98 8.97zm22.95.01h-18.8c.36-3.62.55-5.42.93-8.97h18.56c-.28 3.55-.42 5.35-.69 8.97m37.18 12.32h-19.2c.12-3.68.19-5.51.35-9.14h18.93c-.05 3.64-.07 5.47-.08 9.14m23.43 0h-19.2c-.01-3.67 0-5.5.02-9.14h18.93c.09 3.64.14 5.47.26 9.14zm23.48.01H266.8c-.15-3.67-.21-5.5-.32-9.14h18.91c.22 3.63.33 5.46.58 9.13zm23.34.01H290.2c-.27-3.67-.4-5.5-.63-9.13h18.88c.33 3.63.5 5.46.87 9.13zm-164.14-.05c-10.87 0-21.73 0-32.6-.01.54-3.69.82-5.52 1.39-9.16 10.81 0 21.61.01 32.42.02-.5 3.64-.75 5.47-1.21 9.16zm23.17 0h-18.99c.45-3.68.69-5.52 1.18-9.16h18.81c-.42 3.64-.62 5.47-1 9.15zm23.37.01h-19.09c.36-3.68.55-5.51.95-9.15h18.87c-.31 3.64-.45 5.47-.72 9.15zm23.38.01h-19.16c.25-3.68.39-5.51.67-9.15h18.91c-.18 3.64-.27 5.47-.41 9.15z"/><path fill="#003834" d="M381.45 226.56H107.26v152.31h274.19z"/><path fill="#ebf2d4" d="M381.45 217.22H107.26v9.34h274.19z"/><path stroke="#adcb53" stroke-linecap="round" stroke-linejoin="round" stroke-width="1.95" d="M381.45 217.2H107.26v161.67h274.19zm-274.19 9.82h274.2"/><path fill="#013834" d="M328.18 44.55v96.8H211.65v-96.8zm.97-.97H210.69v98.73h118.46z"/><path stroke="#013834" stroke-miterlimit="10" stroke-width=".97" d="M224.16 68.39h96.72m-96.72 8.71h96.72m-96.72 8.61h96.72m-96.72 8.71h96.72m-96.72 8.71h96.72m-96.72 8.71h96.72m-96.72 8.6h96.72"/><path fill="#acca53" d="M329.15 38.33H210.69V48.8h118.46z"/><path fill="#000" d="m323.057 40.696-4.674 4.674 1.096 1.096 4.674-4.674z"/><path fill="#000" d="m319.479 40.696-1.096 1.096 4.674 4.674 1.096-1.096zm-7.749.874v4.18h-4.7v-4.18zm.72-.72h-6.13v5.62h6.13zm-12.09 4.38h-6.13v1.24h6.13z"/><path fill="#013834" d="M193.13 165.54V73.88l103.99-.27v91.93z"/><path fill="#013834" d="M296.62 74.11v90.93h-103V74.38zm.99-1-104.99.27v92.65h104.99z"/><path fill="#a8c653" d="M297.62 63.47H192.63v12.17h104.99z"/><path fill="#181818" d="m293.529 67.5-1.28-1.28-5.43 5.43 1.28 1.28z"/><path fill="#181818" d="m292.25 72.93 1.28-1.28-5.431-5.431-1.28 1.28zm-13.16-5.69v4.86h-5.46v-4.86zm.84-.84h-7.13v6.53h7.13zm-14.06 5.09h-7.13v1.44h7.13z"/><path stroke="#adcb53" stroke-linecap="round" stroke-linejoin="round" stroke-width="1.57" d="M235.65 102.17a9.47 9.47 0 0 0 18.94 0c0-3.53-4.31-11.32-7.12-16.02-1.06-1.78-3.64-1.78-4.7 0-2.8 4.69-7.12 12.49-7.12 16.02m9.47-4.96v19.29"/><path fill="#adcb53" d="M242.76 97.33c0-1.3 1.06-2.36 2.36-2.36s2.36 1.06 2.36 2.36-1.06 2.36-2.36 2.36-2.36-1.06-2.36-2.36"/><path stroke="#adcb53" stroke-linecap="round" stroke-linejoin="round" stroke-width="1.57" d="m228.82 97.07-9.01 6.65 9.01 6.64m32.6-13.29 9.01 6.65-9.01 6.64m-1.99 17.49h10.72m-35.5 0h19.64m-34.2 0h8.71m32.88 11.35h8.47m-50.06 0h8.17m3.72 0h26.28m-8.84 11.35h20.73m-50.06 0h20.13"/><path fill="#adcb53" d="m260.23 188.09-16.54 17.2-16.54-17.2z"/><path fill="#adcb53" d="M250.96 176.85h-14.55v14.55h14.55z"/><path stroke="#fff" stroke-miterlimit="10" stroke-width="1.33" d="M207 263.78v1.95c0 1.84 1.49 3.33 3.33 3.33h26.09c1.84 0 3.33 1.49 3.33 3.33v52.44c0 1.84-1.49 3.33-3.33 3.33h-64.13c-1.84 0-3.33-1.49-3.33-3.33v-61.06c0-1.84 1.49-3.33 3.33-3.33h31.38c1.84 0 3.33 1.49 3.33 3.33z"/><path fill="#003834" stroke="#adcb53" stroke-linecap="round" stroke-linejoin="round" stroke-width="1.33" d="M199.04 271.14v1.95c0 1.84 1.49 3.33 3.33 3.33h26.09c1.84 0 3.33 1.49 3.33 3.33v52.44c0 1.84-1.49 3.33-3.33 3.33h-64.13c-1.84 0-3.33-1.49-3.33-3.33v-61.06c0-1.84 1.49-3.33 3.33-3.33h31.38c1.84 0 3.33 1.49 3.33 3.33z"/><path stroke="#fff" stroke-linecap="round" stroke-linejoin="round" stroke-width="1.6" d="M294.35 271.27h31v32.07"/><path stroke="#a5c352" stroke-linecap="round" stroke-linejoin="round" stroke-width="1.65" d="M293.82 271.41h-32.06v32.06h32.06z"/><path fill="#fff" d="M277.8 294.21a6.77 6.77 0 1 0 0-13.54 6.77 6.77 0 0 0 0 13.54"/><path fill="#003834" stroke="#a5c352" stroke-linecap="round" stroke-linejoin="round" stroke-width="1.65" d="M293.82 303.47h-32.06v32.06h32.06z"/><path stroke="#a5c352" stroke-linecap="round" stroke-linejoin="round" stroke-width="1.65" d="M325.89 303.47h-32.06v32.06h32.06z"/><path fill="#a5c352" d="m309.855 309.922-9.574 9.575 9.574 9.574 9.574-9.574z"/><path fill="#fff" d="m195.01 360.59-11.86-38.31 38.3 11.87-18.01 8.43z"/><path fill="#fff" d="m205.291 335.259-9.179 9.178 16.759 16.758 9.178-9.178z"/></g><defs><clipPath id="a"><path fill="#fff" d="M0 0h500v484H0z"/></clipPath></defs></svg>