<svg xmlns="http://www.w3.org/2000/svg" id="text" viewBox="0 0 500 500"><defs><linearGradient id="linear-gradient" x1="-242.63" x2="-242.63" y1="312.14" y2="45.22" gradientTransform="matrix(-1 0 0 1 103 0)" gradientUnits="userSpaceOnUse"><stop offset=".01" stop-color="#001815"/><stop offset=".1" stop-color="#00322e"/><stop offset=".2" stop-color="#004440"/><stop offset=".3" stop-color="#00504b"/><stop offset=".4" stop-color="#00544f"/><stop offset=".46" stop-color="#065851"/><stop offset=".54" stop-color="#196457"/><stop offset=".63" stop-color="#377962"/><stop offset=".74" stop-color="#619671"/><stop offset=".85" stop-color="#96ba84"/><stop offset=".95" stop-color="#cee098"/></linearGradient><linearGradient id="linear-gradient1" x1="160.29" x2="160.29" y1="346.23" y2="39.94" gradientUnits="userSpaceOnUse"><stop offset=".13" stop-color="#003834"/><stop offset=".58" stop-color="#338a86"/><stop offset=".63" stop-color="#398d85"/><stop offset=".7" stop-color="#4b9782"/><stop offset=".78" stop-color="#6aa87f"/><stop offset=".87" stop-color="#93be7a"/><stop offset=".95" stop-color="#bed675"/></linearGradient><style>.st0{fill:#bed675}.st4{stroke-miterlimit:10;fill:none;stroke:#003834;stroke-width:10px}.st8{fill:#fff}</style></defs><path d="M478 417.75H22m456-53.25H22m456-53.25H22M478 258H22m456-53.25H22m456-53.25H22m456-53.25H22M409.75 30v456M356.5 30v456M303.25 30v456M250 30v456M196.75 30v456M143.5 30v456M90.25 30v456" style="stroke-miterlimit:10;fill:none;stroke:#6fafac;stroke-width:2px;stroke-linecap:round"/><path d="M66.504 110.152 81.354 125l-14.85 14.85L51.655 125z" class="st0"/><path d="M355.5 99h53v53m-265 265h-53v-53" style="stroke:#fff;stroke-width:7px;stroke-miterlimit:10;fill:none"/><path d="m332.004 375.655 14.85 14.85-14.85 14.849-14.849-14.85z" class="st0"/><circle cx="439" cy="124.5" r="12" class="st4"/><circle cx="56" cy="447.5" r="12" class="st4"/><path d="m390.49 449.69-18.48-71.45 70.7 21.16z" class="st8"/><path d="m396.305 424.691 21.199-20.414 35.452 36.815-21.199 20.414z" class="st8"/><path d="M282.71 312.14H438.3L252.96 45.22z" style="fill:url(#linear-gradient)"/><path d="M223.22 312.14H67.63L252.96 45.22z" style="fill:url(#linear-gradient1)"/><path d="m223.22 312.14 29.74 42.64V45.22z" style="fill:#003834"/><path d="m282.71 312.14-29.75 42.64V45.22z" style="fill:#001c19"/><path d="M68.2 312.56h155.59l29.17-265.23 30.32 264.38 155.6.85" style="fill:none;stroke-linecap:round;stroke:#cee098;stroke-linejoin:bevel;stroke-width:2.11px"/></svg>