<svg width="84" height="82" viewBox="0 0 84 82" fill="none" xmlns="http://www.w3.org/2000/svg">
<path d="M19.8064 78.0198C23.1014 65.9752 37.4798 49.5428 26.696 37.068C16.8965 25.7546 -3.4301 39.0468 -8.99316 48.3384" stroke="#AECC53" stroke-miterlimit="10"/>
<path d="M-18.5303 7.38338C-9.3396 -0.667774 0.800357 -8.33352 12.7526 -11.0743C24.7047 -13.8152 38.8575 -10.3891 45.4161 -0.0682298C49.3858 6.14144 50.0762 13.85 52.924 20.6592C54.9951 25.4985 58.145 29.9523 59.1806 35.0913C61.5106 46.7398 52.3631 57.2748 43.9059 65.6686C39.0301 70.5078 36.1392 75.604 31.9106 81" stroke="#AECC53" stroke-miterlimit="10"/>
<path d="M63.8633 77.4238C77.5378 70.1712 84.9341 51.6318 82.698 36.7403C81.2359 26.9985 75.1727 18.7159 71.0445 9.78957C65.4543 -2.35542 63.4333 -15.8308 58.1871 -28.1474C52.9839 -40.4641 43.0935 -52.2228 29.806 -53.8107C22.4097 -54.7119 14.9704 -52.2657 8.17617 -49.2188C-3.34827 -43.9831 -13.9267 -36.7734 -23 -27.9329" stroke="#AECC53" stroke-miterlimit="10"/>
</svg>
