<?xml version="1.0" encoding="UTF-8"?>
<svg id="Layer_1" xmlns="http://www.w3.org/2000/svg" version="1.1" viewBox="0 0 153 153">
  <!-- Generator: Adobe Illustrator 29.0.1, SVG Export Plug-In . SVG Version: 2.1.0 Build 192)  -->
  <defs>
    <style>
      .st0 {
        fill: #fff;
      }

      .st1 {
        fill: #acca53;
      }
    </style>
  </defs>
  <path class="st1" d="M76.5,5.1h-.9v142.9h.9c39.5,0,71.5-32,71.5-71.5S116,4.9,76.5,4.9h0Z"/>
  <g>
    <path class="st0" d="M92,28.8h-16.3V5.1h-.1C36.5,5.6,5,37.3,5,76.6s31.4,70.8,70.3,71.5h.4V61.5h16.3c9,0,16.3-7.3,16.3-16.3s-7.3-16.3-16.3-16.3Z"/>
    <path class="st1" d="M59.4,91.8h32.6c9,0,16.3,7.3,16.3,16.3h0c0,9-7.3,16.3-16.3,16.3h-32.6c-9,0-16.3-7.3-16.3-16.3h0c0-9,7.3-16.3,16.3-16.3Z"/>
  </g>
</svg>
