<svg xmlns="http://www.w3.org/2000/svg" width="400" height="277" fill="none" viewBox="0 0 400 277"><g clip-path="url(#a)"><path fill="#003834" d="M400 .628H0v276h400z"/><path stroke="#adcb53" stroke-miterlimit="10" stroke-width="2.252" d="M380.067 257.701c-.022-28.318-1.842-73.791-5.078-85.336-3.146-11.197-8.011-22.271-16.416-30.338-9.843-9.458-23.865-15.898-36.685-8.156-8.371 5.06-13.337 15.247-16.517 23.987-2.944 8.101-6.011 16.313-7.18 24.896-1.112 8.202 3.506 14.025 6.315 21.373 2.921 7.652.988 14.687-1.158 22.339-1.168 4.184-3.73 25.894-4.887 30.113"/><path fill="gray" d="M315.552 123.066h19.101v9.537c0 5.262-4.281 9.537-9.551 9.537-5.269 0-9.55-4.275-9.55-9.537z"/><path fill="gray" d="M311.91 136.586c16.83 0 30.472-13.623 30.472-30.427S328.74 75.731 311.91 75.731c-16.829 0-30.472 13.623-30.472 30.428 0 16.804 13.643 30.427 30.472 30.427"/><path fill="#fff" d="M361.181 90.81c-3.348-13.586-13.764-24.312-27.247-28.093-10.427-2.928-22.708-2.771-32.966.538a44 44 0 0 0-5.697 2.3c-11.124 4.264-19.034 15.023-19.034 27.634v2.94h53.09c.91 1.402 1.54 2.905 1.966 4.476v39.28h3.102c15.663 0 28.359-12.678 28.359-28.318 0 0-.944-18.254-1.562-20.768z"/><path fill="gray" d="M270.551 216.727c-2.517-2.019-4.989-4.039-7.517-6.036-2.551-2.008-5.146-4.297-6.697-7.203-.393-.751-1.247-1.357-2.067-1.155-.663.157-1.124.785-1.382 1.413-.495 1.212-.427 2.547-.203 3.815.102.561 2.012 5.251 3.236 6.563a.448.448 0 0 1-.168.719c-1.113.426-2.393.403-3.562.112-2.528-.64-5.045-2.278-6.764-4.208-2.034-2.288-3.978-4.633-6.124-6.821-2.168-2.199-5.775-2.94-8.752-2.704-.899.067-1.989.415-2.146 1.301-.102.561.224 1.089.528 1.56 2.213 3.377 4.831 6.373 7.101 9.705 1.64 2.412 2.786 5.408 4.056 8.033.73 1.515 1.506 3.074 2.831 4.118 1.214.953 2.764 1.368 4.259 1.75 2.899.752 5.944.763 8.854 1.503 2.809.718 5.292.763 7.809 2.435m73.234-125.419c3.609-4.67 3.989-10.417.849-12.835-3.139-2.42-8.61-.594-12.218 4.077s-3.989 10.417-.85 12.836c3.14 2.419 8.61.593 12.219-4.078"/><path fill="#013834" stroke="#fff" stroke-linecap="round" stroke-linejoin="round" stroke-width="1.689" d="M347.955 227.891c8.169-9.907 12.36-45.047 12.517-50.589.225-7.674-.82-21.396-7.989-26.119-6.618-4.376-15.764-2.872-20.651 3.13-3.63 4.454-6.483 10.76-7.809 16.347-1.495 6.227-1.528 12.667-1.135 19.017.348 5.756 1.573 10.625-2.495 15.561-2.865 3.478-7.101 5.363-11.618 5.173l-27.921-1.201c-9.843-.426-18.168 7.203-18.595 17.043-.416 9.761 7.101 18.018 16.842 18.557h.225l27.921 1.2c15.809.673 30.652-5.935 40.708-18.131z"/><path stroke="#fff" stroke-linecap="round" stroke-linejoin="round" stroke-width="1.689" d="M332.877 209.816c-2.09-3.579-7.258-6.709-11.494-6.418.078 0 3.696 3.579 4.067 4.039 1.236 1.504 1.899 3.523 1.854 5.453"/><path stroke="#c3c3c3" stroke-linecap="round" stroke-linejoin="round" stroke-width=".89" d="M330.449 103.511c.719-.258 1.483-.751 1.573-1.514.056-.539-.258-1.077-.708-1.38s-1.011-.415-1.55-.449c.303-1.56 1.876-2.861 3.359-3.445 1.495-.583 3.427-.493 4.438.752"/><path fill="#003834" d="M101.989 258.228c-1.157-4.219-4.404-94.379-7.348-102.468-3.18-8.74-8.146-18.927-16.517-23.987-12.82-7.753-26.843-1.302-36.685 8.156-8.394 8.067-13.27 19.141-16.416 30.338-3.236 11.545-5.056 59.598-5.079 87.916"/><path stroke="#fff" stroke-miterlimit="10" stroke-width="1.408" d="M101.989 258.228c-1.157-4.219-4.404-94.379-7.348-102.468-3.18-8.74-8.146-18.927-16.517-23.987-12.82-7.753-26.843-1.302-36.685 8.156-8.394 8.067-13.27 19.141-16.416 30.338-3.236 11.545-5.056 59.598-5.079 87.916"/><path fill="#fff" d="M66.112 123.067h19.101v9.536c0 5.262-4.28 9.537-9.55 9.537s-9.55-4.275-9.55-9.537z"/><path fill="#fff" d="M88.09 134.488c16.829 0 30.472-13.623 30.472-30.427S104.919 73.633 88.09 73.633s-30.472 13.623-30.472 30.428c0 16.804 13.643 30.427 30.472 30.427"/><path fill="#181818" d="M66.753 125.03c-9.012-1.761-15.472-9.581-17.866-18.153-2.404-8.617-1.382-18.333 2.528-26.366 1.236-2.536 2.787-4.936 4.742-6.99 14.28-14.978 32.09-13.609 42.876-10.12 5.607 1.807 10.057 5.442 14.169 9.537 1.966 1.952 3.348 3.78 4.775 6.103s3.978 4.993 6.888 3.21c-.27 2.815-2.225 5.407-4.865 6.45-3.113 1.234-6.832.82-10.023.146-3.112-.65-5.056-2.592-7.685-4.072-4.585-2.592-10.45-2.615-15.495-1.695-5.224.943-13.82 4.578-17.73 12.499-5.348 10.838-2.775 29.361-2.326 29.451z"/><path stroke="#757575" stroke-miterlimit="10" stroke-width=".867" d="M48.887 106.877c-2.404-8.617-1.382-18.333 2.528-26.366 1.236-2.536 2.787-4.936 4.742-6.99 14.28-14.978 32.09-13.609 42.876-10.12 5.607 1.807 10.057 5.442 14.169 9.537 1.966 1.952 3.348 3.78 4.775 6.103s3.978 4.993 6.888 3.21c-.27 2.815-2.225 5.407-4.865 6.45"/><path fill="#fff" d="M75.123 108.221c3.14-2.419 2.759-8.166-.85-12.836s-9.079-6.496-12.218-4.078c-3.14 2.419-2.76 8.166.849 12.836 3.609 4.671 9.079 6.496 12.218 4.078m56.182 127.277c1.584.807 2.966 1.716 4.764 2.042 4.202.762 8.258-.146 12.472.157.73.056 1.854.045 2.483.46.528.336.899 1.099 1.314 1.57 1.169 1.358 2.427 2.659 3.899 3.703 1.91 1.369 4.214 2.289 6.562 2.176.393-.022.899-.213.832-.594-.023-.135-.124-.247-.214-.348a14.45 14.45 0 0 1-3.303-6.754c1.112 1.593 2.764 2.704 4.382 3.781 2.573 1.716 6.247 1.705 9.123.875.865-.258 1.865-.808 1.843-1.717-.011-.561-.438-1.021-.843-1.425-2.854-2.861-6.033-5.262-8.932-8.055-2.101-2.031-3.832-4.724-5.607-7.046-1.022-1.335-2.101-2.704-3.607-3.456-1.382-.695-2.977-.774-4.528-.852-3-.146-5.977.46-8.977.325-2.899-.135-5.337.325-8.135-.797"/><path stroke="#003834" stroke-miterlimit="10" stroke-width="1.126" d="M150.405 231.526c.787.179 1.607 0 2.405.09 3.966.482 7.427 6.888 9.371 9.817"/><path fill="#003834" stroke="#adcb53" stroke-linecap="round" stroke-linejoin="round" stroke-width="1.689" d="M52.046 225.781c-8.169-9.907-12.36-45.046-12.517-50.589-.225-7.674.82-21.395 7.989-26.119 6.618-4.375 15.764-2.872 20.652 3.131 3.629 4.454 6.483 10.759 7.808 16.346 1.495 6.227 1.529 12.667 1.135 19.018-.348 5.755-1.573 10.624 2.495 15.561 2.865 3.478 7.1 5.363 11.618 5.172l27.921-1.2c9.843-.427 18.169 7.203 18.596 17.042.415 9.761-7.102 18.019-16.843 18.557h-.225l-27.921 1.201c-15.81.673-30.652-5.935-40.708-18.131z"/><path stroke="#adcb53" stroke-linecap="round" stroke-linejoin="round" stroke-width="1.689" d="M67.124 207.707c2.09-3.579 7.258-6.709 11.494-6.418-.078 0-3.696 3.579-4.067 4.039-1.236 1.504-1.899 3.523-1.854 5.453"/><path stroke="#3d3d3d" stroke-linecap="round" stroke-linejoin="round" stroke-width="1.329" d="M69.55 101.413c-.718-.258-1.482-.752-1.572-1.514-.056-.539.258-1.078.708-1.38.45-.303 1.01-.416 1.55-.45-.303-1.559-1.876-2.86-3.36-3.444-1.494-.583-3.426-.493-4.438.752"/><path fill="#3c3c3c" d="M101.944 104.902a2.8 2.8 0 0 0 1.393 3.724 2.81 2.81 0 0 0 3.731-1.391c.651-1.413-4.472-3.758-5.124-2.345z"/><path stroke="#3c3c3c" stroke-linejoin="round" stroke-width="4.504" d="M113.393 104.812c-3.528-6.44-11.831-8.134-16.921-5.901"/><path stroke="#606060" stroke-linecap="round" stroke-linejoin="round" stroke-width=".788" d="M104.202 127.453c-2.888-1.201-4.169-2.266-5.37-5.206"/><path fill="#181818" d="M294.449 109.389a2.8 2.8 0 0 1-1.393 3.725 2.81 2.81 0 0 1-3.73-1.391c-.652-1.414 4.472-3.758 5.123-2.345z"/><path stroke="#fff" stroke-miterlimit="10" stroke-width="1.126" d="M283 109.3c3.528-6.44 11.831-8.134 16.921-5.902"/><path stroke="#c3c3c3" stroke-linecap="round" stroke-linejoin="round" stroke-width=".89" d="M293.314 129.697c2.888-1.2 4.169-2.266 5.371-5.206"/><path stroke="#fff" stroke-linecap="round" stroke-linejoin="round" stroke-width="1.689" d="M206.528 81.756c15.832 10.524 23.607 30.63 17.484 49.837-7.012 22.002-30.326 34.882-52.731 29.149a43.7 43.7 0 0 1-21.64-13.026c-5.641 3.467-13.056 3.175-18.45-1.167 1.989-.931 3.776-2.311 5.326-4.05a19 19 0 0 0 1.506-1.908c2.18-3.164 2.775-7.135 1.764-10.826-2.169-7.955-2.124-16.639.652-25.132 7.101-21.732 30.146-34.455 52.359-28.902"/><path stroke="#adcb53" stroke-linecap="round" stroke-linejoin="round" stroke-width="1.689" d="M192.956 82.104c-15.483 10.614-23.022 30.495-16.966 49.489 7.011 22.002 30.326 34.882 52.73 29.149a43.7 43.7 0 0 0 21.641-13.026c5.64 3.467 13.056 3.175 18.449-1.167-1.989-.931-3.775-2.311-5.326-4.05a19 19 0 0 1-1.505-1.908c-2.18-3.164-2.776-7.135-1.764-10.826 2.168-7.955 2.123-16.639-.652-25.132-7.101-21.732-30.146-34.455-52.36-28.902"/><path stroke="#a9c753" stroke-linecap="round" stroke-linejoin="round" stroke-width="1.633" d="M208.753 33.826c-1.213 3.658-4.685 6.328-8.741 6.328-4.057 0-7.528-2.659-8.753-6.328"/><path fill="#a9c753" d="M205.674 33.445a3.065 3.065 0 0 1 3.539-2.491c1.663.292 2.787 1.874 2.495 3.534a3.065 3.065 0 0 1-3.539 2.49c-1.663-.291-2.787-1.873-2.495-3.533m-11.337 0a3.065 3.065 0 0 0-3.54-2.491c-1.662.292-2.786 1.874-2.494 3.534a3.064 3.064 0 0 0 3.539 2.49c1.663-.291 2.787-1.873 2.495-3.533"/><path stroke="#a9c753" stroke-linecap="round" stroke-linejoin="round" stroke-width="1.633" d="M213.381 47.256c-1.337 6.137-6.842 10.782-13.382 10.782-6.539 0-12.045-4.645-13.382-10.793"/><path fill="#a9c753" d="M210.293 47.043a3.05 3.05 0 0 1 3.393-2.681 3.046 3.046 0 0 1 2.685 3.388 3.05 3.05 0 0 1-3.393 2.681 3.046 3.046 0 0 1-2.685-3.388m-20.585 0a3.05 3.05 0 0 0-3.393-2.681 3.046 3.046 0 0 0-2.685 3.388 3.05 3.05 0 0 0 3.393 2.681 3.046 3.046 0 0 0 2.685-3.388"/><path stroke="#a9c753" stroke-linecap="round" stroke-linejoin="round" stroke-width="1.633" d="M200.012 21.934v107.404"/><path fill="#a9c753" d="M196.943 22.09a3.06 3.06 0 0 1 3.068-3.062 3.062 3.062 0 1 1 0 6.126 3.06 3.06 0 0 1-3.068-3.063"/><path stroke="#a8c653" stroke-linecap="round" stroke-linejoin="round" stroke-width="1.306" d="M215.045 129.338V116.57"/><path fill="#a8c653" d="M215.045 119.139a2.45 2.45 0 0 0 2.45-2.446 2.45 2.45 0 0 0-2.45-2.445 2.447 2.447 0 0 0-2.449 2.445 2.447 2.447 0 0 0 2.449 2.446"/><path stroke="#a8c653" stroke-linecap="round" stroke-linejoin="round" stroke-width="1.306" d="M208.045 129.338v-20.913"/><path fill="#a8c653" d="M210.495 108.548a2.446 2.446 0 0 0-2.45-2.445 2.453 2.453 0 0 0-2.449 2.445 2.453 2.453 0 0 0 2.449 2.446 2.454 2.454 0 0 0 2.45-2.446"/><path stroke="#a8c653" stroke-linecap="round" stroke-linejoin="round" stroke-width="1.306" d="M184.955 129.338V116.57"/><path fill="#a8c653" d="M184.955 119.139a2.45 2.45 0 0 0 2.45-2.446 2.45 2.45 0 0 0-2.45-2.445 2.45 2.45 0 0 0-2.449 2.445 2.45 2.45 0 0 0 2.449 2.446"/><path stroke="#a8c653" stroke-linecap="round" stroke-linejoin="round" stroke-width="1.306" d="M191.956 129.338v-20.913"/><path fill="#a8c653" d="M194.416 108.548a2.446 2.446 0 0 0-2.449-2.445 2.453 2.453 0 0 0-2.449 2.445 2.453 2.453 0 0 0 2.449 2.446 2.453 2.453 0 0 0 2.449-2.446"/><path stroke="#a9c753" stroke-linecap="round" stroke-linejoin="round" stroke-width=".822" d="M176.866 129.798h46.27"/><path stroke="#adcb53" stroke-linecap="round" stroke-linejoin="round" stroke-width="2.252" d="M146.955 245.359h58.742l15.415-56.098"/></g><defs><clipPath id="a"><rect width="400" height="276" y=".628" fill="#fff" rx="6"/></clipPath></defs></svg>