<svg xmlns="http://www.w3.org/2000/svg" width="400" height="280" fill="none" viewBox="0 0 400 280"><g clip-path="url(#a)"><path fill="#003834" d="M400 .628H0v278.744h400z"/><path stroke="#c3c3c3" stroke-miterlimit="10" stroke-width=".846" d="M129.787 137.246H62.36V84.432l67.427-.147z"/><path stroke="#adcb53" stroke-miterlimit="10" stroke-width=".846" d="M129.776 76.342H62.36v7.886h67.416z"/><path fill="#a8c653" d="m126.335 78.138-3.488 3.517.818.826 3.488-3.518z"/><path fill="#a8c653" d="m123.665 78.138-.818.825 3.488 3.518.818-.825zm-5.776.652v3.15h-3.506v-3.15zm.539-.544h-4.584v4.226h4.584z"/><path fill="#181818" d="M109.405 81.544h-4.585v.929h4.585z"/><path stroke="#c3c3c3" stroke-miterlimit="10" stroke-width=".846" d="M75.305 104.171h14.438m-21.72 0h5.944m-5.944 11.671h13.259"/><path fill="#003834" d="M43.696 119.514V67.549l66.573-.158v52.123z"/><path fill="#fff" d="M109.854 67.821v51.273H44.113V67.98l65.741-.148m.843-.86-67.416.158v52.814h67.416z"/><path fill="#a8c653" d="M110.697 60.172H43.281v7.887h67.416z"/><path fill="#003834" d="m108.077 62.779-.818-.825-3.488 3.517.818.825z"/><path fill="#003834" d="m107.258 66.301.818-.825-3.488-3.517-.818.825zm-8.46-3.693v3.15h-3.506v-3.15zm.54-.543h-4.585v4.226h4.584zm-9.023 3.297H85.73v.93h4.584z"/><path stroke="#adcb53" stroke-miterlimit="10" stroke-width="1.264" d="M48.933 75.186h56.101m-56.101 5.836h56.101"/><path stroke="#fff" stroke-miterlimit="10" stroke-width=".846" d="M72.674 86.857h32.359m-48.819 0h14.438m-21.719 0h5.943m-5.943 5.836h56.101"/><path stroke="#adcb53" stroke-miterlimit="10" stroke-width="1.264" d="M63.754 98.528h41.281"/><path stroke="#fff" stroke-miterlimit="10" stroke-width=".846" d="M48.933 98.528H62.19m13.338 5.836h29.506"/><path stroke="#adcb53" stroke-miterlimit="10" stroke-width="1.264" d="M48.933 104.364h23.741M60.81 110.21h44.224"/><path stroke="#fff" stroke-miterlimit="10" stroke-width=".846" d="M48.933 110.21h9.134"/><path stroke="#adcb53" stroke-linecap="round" stroke-linejoin="round" stroke-width=".711" d="M112.909 40.355c.023 3.207-2.528 5.824-5.707 5.858-3.18.034-5.776-2.55-5.809-5.756-.023-3.207 5.685-8.668 5.685-8.668s5.798 5.36 5.831 8.566m-5.763-1.451.078 12.543M96.82 40.355c.023 3.207-2.527 5.824-5.707 5.858s-5.775-2.55-5.81-5.756c-.022-3.207 5.686-8.668 5.686-8.668s5.798 5.36 5.832 8.566m-5.764-1.451.078 12.543"/><path fill="#013834" stroke="#fff" stroke-linecap="round" stroke-linejoin="round" stroke-width="1.128" d="M252.697 207.919c-.809-9.915-1.955-19.807-1.955-29.756 0-8.271.214-18.231 8.562-21.71 9.551-3.977 20.663 1.892 22.169 3.479 6.82 7.218 9.573 16.951 11.707 26.39 1.607 7.116 2.528 14.345 3.158 21.608h-43.641z"/><path fill="#000" d="M151.854 65.475v52.35h106.213v-52.35c0-1.994-1.606-3.614-3.584-3.614h-99.056c-1.977 0-3.584 1.62-3.584 3.614z"/><path stroke="#fff" stroke-miterlimit="10" stroke-width=".711" d="M258.067 117.814v-52.35c0-1.994-1.606-3.614-3.584-3.614h-99.056c-1.977 0-3.584 1.62-3.584 3.615v52.349"/><path fill="#013834" stroke="#fff" stroke-linecap="round" stroke-linejoin="round" stroke-width="1.128" d="M116.775 210.184c9.63-40.338 45.809-70.536 88.641-70.536 42.843 0 79.022 30.209 88.64 70.536z"/><path fill="#013834" stroke="#fff" stroke-linecap="round" stroke-linejoin="round" stroke-width="1.128" d="M108.292 210.185c.629-7.263 1.551-14.492 3.157-21.608 2.135-9.439 4.888-19.172 11.708-26.39 5.079-5.371 15.798-7.49 22.169-3.479 7.651 4.827 8.562 13.439 8.562 21.71 0 9.949-1.147 19.852-1.956 29.756h-43.64z"/><path stroke="#aecc53" stroke-linecap="round" stroke-linejoin="round" stroke-width="1.343" d="M56.742 210.252h288.764"/><path fill="#cccbcb" d="M205.415 155.773c-9.471 0-17.168-7.762-17.168-17.314v-11.127c0-6.243 5.034-11.32 11.225-11.32h11.887c6.191 0 11.225 5.077 11.225 11.32v11.127c0 9.552-7.697 17.314-17.169 17.314"/><path stroke="#adcb53" stroke-linecap="round" stroke-linejoin="round" stroke-width="5.551" d="M186.731 138.459c0 8.226 8.405 14.957 18.686 14.957s18.685-6.731 18.685-14.957"/><path fill="#fff" d="M205.416 133.541c28.614 0 51.809-23.392 51.809-52.247 0-28.856-23.195-52.248-51.809-52.248s-51.809 23.392-51.809 52.248 23.196 52.247 51.809 52.247"/><path fill="#fff" d="M161.951 97.972c5.238-3.483 5.748-12.02 1.14-19.067s-12.59-9.938-17.827-6.455-5.748 12.02-1.14 19.067 12.59 9.938 17.827 6.455m104.752-6.478c4.609-7.048 4.098-15.585-1.139-19.068-5.238-3.482-13.219-.592-17.828 6.455-4.608 7.048-4.098 15.585 1.14 19.068s13.219.593 17.827-6.455"/><path fill="#adcb53" d="M149.945 103.219c2.693 0 4.876-2.202 4.876-4.917 0-2.717-2.183-4.918-4.876-4.918s-4.877 2.201-4.877 4.918c0 2.715 2.184 4.917 4.877 4.917m110.944 0c2.693 0 4.876-2.202 4.876-4.917 0-2.717-2.183-4.918-4.876-4.918s-4.876 2.201-4.876 4.918c0 2.715 2.183 4.917 4.876 4.917"/><path stroke="#9d9d9c" stroke-linecap="round" stroke-linejoin="round" stroke-width="1.636" d="M195.63 109.452c1.955 2.492 5.607 4.181 9.786 4.181 4.18 0 7.832-1.677 9.787-4.181M154.27 89.905c-1.607-.634-2.933-1.972-3.573-3.603-.393-1.009-.495-2.244.146-3.116.652-.873 2.225-.986 2.708 0-.18-1.847-.967-3.807-2.045-5.303-1.09-1.496-2.978-2.527-4.776-2.142m109.832 14.164c1.607-.634 2.933-1.972 3.574-3.603.393-1.009.494-2.244-.147-3.116-.64-.873-2.224-.986-2.707 0 .179-1.847.966-3.807 2.045-5.303 1.089-1.496 2.977-2.527 4.775-2.142"/><path fill="#000" d="M185.203 76.603s-.023.51-.079.759c-.348 1.745-1.876 3.06-3.708 3.06-1.831 0-3.449-1.394-3.741-3.219a6 6 0 0 1-.045-.612h7.573z"/><path stroke="#000" stroke-linecap="round" stroke-linejoin="round" stroke-width="4.254" d="M194.742 73.612c-9.54-10.482-22.135-5.96-26.652 0"/><path fill="#adcb53" d="m185.203 77.317-11.753-.714 11.753-.714c.978-.045.978 1.473 0 1.428"/><path fill="#000" d="M225.629 76.603s.022.51.079.759c.348 1.745 1.876 3.06 3.707 3.06 1.888 0 3.45-1.394 3.742-3.219.034-.192.045-.612.045-.612h-7.573z"/><path stroke="#000" stroke-linecap="round" stroke-linejoin="round" stroke-width="4.254" d="M216.091 73.612c9.539-10.482 22.135-5.96 26.651 0"/><path fill="#adcb53" d="m225.63 75.89 11.752.713-11.752.714c-.978.045-.978-1.473 0-1.428"/><path fill="#006e69" d="m300.844 248.223-39.214-32.067a7.87 7.87 0 0 0-4.966-1.779H138.72c-4.213 0-6.022 5.394-2.674 7.978l38.742 29.982c1.415 1.427 3.876 1.427 5.292 1.427l118.786.114c.933 0 1.821-.397 2.416-1.122.023-.023.034-.046.056-.068 1.09-1.337.843-3.377-.494-4.465"/><path fill="#000" d="m303.237 245.515-42.101-34.435a4.73 4.73 0 0 0-2.966-1.054H139.967c-4.494 0-6.427 5.756-2.854 8.51l39.832 30.741c.236.17.517.26.798.26h122.854c1.213-1.121 2.202-2.447 2.64-4.011z"/><path fill="#fff" d="M187.811 195.33c1.056-3.717 3.865-10.606-1.034-12.804-2.202-.986-5-.759-7.112.362-2.483 1.326-3.742 3.082-4.888 5.496-.989 2.073-2.483 5.008-4.786 5.756-1.663.544-3.484-.306-5.012-1.167-.033 2.787.023 5.564.158 8.351.078 1.541.123 6.878.696 8.306 0 0 14.719.714 15.472.657 0 0 1.214-1.79 2.888-4.646 1.865-3.184 2.618-6.765 3.629-10.311z"/><path stroke="#bcbcbc" stroke-linecap="round" stroke-linejoin="round" stroke-width="1.162" d="M166.495 193.562c1.618 1.689 2.798 1.247 4.247.238 1.45-1.008 2.101-2.81 2.877-4.419a20.7 20.7 0 0 1 2.966-4.521c2-2.312 5.135-3.422 8.18-2.991 5.798.815 7.292 8.826-3.528 28.905"/><path fill="#fff" d="M149.259 215.635c-2.595-5.847-5.921-11.773-7.91-17.858-1.595-4.895-6.112-13.925-12.696-11.421-3.416 1.303-5.349 5.813-4.989 9.291.775 7.694 3.719 14.923 7.146 21.767 1.191 2.391 2.775 7.433 5.281 8.079 3.123.805 6.326-2.13 8.899-3.456 2.663-1.371 5.91-2.753 4.281-6.402z"/><path fill="#fff" d="M164.338 211.953c-2.595-5.847-5.921-11.773-7.91-17.858-1.595-4.895-6.112-13.926-12.696-11.422-3.27 1.246-3.607 6.187-7.158 6.209 1.922 3.694 2.787 7.944 3.978 11.909 1.348 4.476 3.247 8.771 5.337 12.941 1.191 2.39 2.775 7.433 5.281 8.079 3.123.804 6.326-2.131 8.899-3.456 2.663-1.371 5.91-2.754 4.281-6.402z"/><path fill="#fff" d="M180.799 210.354c-2.595-5.846-5.921-11.773-7.91-17.857-1.595-4.895-6.112-13.926-12.696-11.422-3.416 1.303-5.349 5.813-4.989 9.291.775 7.694 3.719 14.923 7.146 21.767 1.191 2.391 2.775 7.434 5.281 8.079 3.123.805 6.326-2.13 8.899-3.456 2.663-1.371 5.91-2.753 4.281-6.402z"/><path stroke="#bcbcbc" stroke-linecap="round" stroke-linejoin="round" stroke-width="1.162" d="M146.158 213.074c-1.607-3.445-6.36-2.901-9.191-1.586-5.652 2.64-5.281 7.727-3.023 12.271m27.495-13.45c-1.45-1.96-5.09-3.15-7.349-2.753-4.033.713-7.809 6.141-6.09 10.186m30.934-11.399c-2.393-3.467-7.865-2.64-10.933-.838-3.179 1.869-4.685 5.643-4.224 9.337"/><path stroke="#bcbcbc" stroke-linecap="round" stroke-linejoin="round" stroke-width="1.162" d="M155.349 194.944c2.37 5.677 4.281 11.762 6.988 17.189 1.191 2.391 2.776 7.434 5.281 8.079 3.124.805 6.326-2.13 8.899-3.456 2.663-1.371 5.91-2.753 4.281-6.402-2.595-5.846-5.921-11.773-7.91-17.857-1.595-4.895-6.112-13.926-12.697-11.422-3.269 1.246-5.876 5.994-4.831 9.405-.45-1.949-3.258-4.952-4.742-6.244-1.955-1.699-4.393-2.515-6.887-1.563-2.483.951-2.809 2.889-4.236 4.725-1.506 1.949-3.371 1.031-5.09-.261-1.73-1.303-3.719-1.53-5.742-.759-3.415 1.303-5.348 5.813-4.988 9.291.775 7.694 3.719 14.923 7.146 21.767 1.191 2.391 2.775 7.433 5.28 8.079 3.124.805 6.326-2.13 8.899-3.456 1.439-.736 2.618-1.416 3.955-2.402.562 1.065 1.551 2.028 2.708 2.3.697.159 1.427-.045 2.113-.283 1.708-.578 3.427-1.258 5.022-2.13 1.787-.986 3.315-2.391 5.157-3.286"/><path stroke="#bcbcbc" stroke-linecap="round" stroke-linejoin="round" stroke-width="1.162" d="M139.979 195.658c3.359 8.011 5.483 16.646 9.078 24.521"/><path fill="#003834" d="M297.731 159.931H179.675c-3.903 0-7.068 3.191-7.068 7.127v76.666c0 3.937 3.165 7.128 7.068 7.128h118.056c3.903 0 7.067-3.191 7.067-7.128v-76.666c0-3.936-3.164-7.127-7.067-7.127"/><path stroke="#adcb53" stroke-linecap="round" stroke-linejoin="round" stroke-width=".688" d="M297.731 159.931H179.675c-3.903 0-7.068 3.191-7.068 7.127v76.666c0 3.937 3.165 7.128 7.068 7.128h118.056c3.903 0 7.067-3.191 7.067-7.128v-76.666c0-3.936-3.164-7.127-7.067-7.127"/><path fill="#cee098" d="m219.922 225.301 6.101 1.291 1.281 6.153 18.82-18.979-3.202-3.241-8.641.227z"/><path fill="#006d68" d="M265.461 205.04h-10.696l-16.057 16.192-16.056-16.192h-10.73l26.786 27.013 26.787-27.013z"/><path fill="#aac853" d="m211.922 205.041 2.708-2.697 24.101-24.317 24.101 24.317 2.652 2.697h-10.697l-16.056-16.192-16.056 16.192zm45.573 20.259-6.101 1.292-1.281 6.153-18.82-18.98 4.607-4.668h5.606z"/><path fill="#fff" d="M248.349 206.196a.578.578 0 0 0 0-1.156h-3.247v-2.243h3.247a.578.578 0 0 0 0-1.156h-3.247v-.385c0-1.077-.82-1.961-1.854-2.063v-3.286a.58.58 0 0 0-.573-.577.577.577 0 0 0-.573.577v3.275h-2.809v-3.275a.58.58 0 0 0-.573-.577.577.577 0 0 0-.573.577v3.275h-2.809v-3.275a.58.58 0 0 0-.573-.577.577.577 0 0 0-.573.577v3.286a2.06 2.06 0 0 0-1.854 2.063v.385h-3.247a.578.578 0 0 0 0 1.156h3.247v2.243h-3.247a.578.578 0 0 0 0 1.156h3.247v2.244h-3.247a.577.577 0 0 0 0 1.155h3.247v.386c0 1.076.82 1.96 1.854 2.062v3.286c0 .317.258.578.573.578a.58.58 0 0 0 .573-.578v-3.275h2.809v3.275c0 .317.258.578.573.578a.58.58 0 0 0 .573-.578v-3.275h2.809v3.275c0 .317.258.578.573.578a.58.58 0 0 0 .573-.578v-3.286a2.06 2.06 0 0 0 1.854-2.062v-.386h3.247a.577.577 0 0 0 0-1.155h-3.247v-2.244zm-6.843 1.337a.905.905 0 0 1-.899.907h-3.809a.905.905 0 0 1-.898-.907v-3.841c0-.499.404-.907.898-.907h3.809c.495 0 .899.408.899.907z"/><path fill="#000" d="M152.022 64.195c7.607-22.163 28.484-38.072 53.045-38.072 24.562 0 45.439 15.909 53.045 38.072z"/><path stroke="#fff" stroke-miterlimit="10" stroke-width=".711" d="M152.022 64.195c7.607-22.163 28.484-38.072 53.045-38.072 24.562 0 45.439 15.909 53.045 38.072"/><path fill="#fff" d="M202.518 26.18c15.179 6.549 28.269 20.769 29.202 38.015h-3.528c.191-16.487-11.663-30.696-25.674-38.016"/><path fill="#adcb53" d="M202.518 26.18c13.202 7.93 23.033 22.321 23.82 38.015.022.952-1.438.963-1.416 0-.326-15.399-9.685-29.846-22.404-38.016"/><path stroke="#adcb53" stroke-linecap="round" stroke-linejoin="round" stroke-width="1.693" d="M318.292 141.201a17.5 17.5 0 0 0-2.472 8.713c-.135 10.3 13.719 21.847 20.158 21.847 8.707 0 20.741-11.173 20.741-21.62 0-4.295-1.573-8.249-4.213-11.399-1.259-1.507-1.562-3.501-.764-5.246a14.3 14.3 0 0 0 1.281-5.893c0-3.557-1.315-6.832-3.529-9.427-1.393-1.643-1.64-3.853-.606-5.699a12 12 0 0 0 1.528-5.87c0-7.161-8.584-21.461-14.146-21.461-4.877 0-14.146 14.3-14.146 21.461 0 2.108.55 4.102 1.528 5.87 1.022 1.846.786 4.067-.607 5.699-2.213 2.606-3.528 5.881-3.528 9.427 0 2.085.449 4.08 1.281 5.893.786 1.745.494 3.739-.764 5.235a18 18 0 0 0-1.753 2.47m17.99-35.693v91.431"/><path fill="#003834" d="M336.269 227.385c-5.652 0-10.258-4.634-10.258-10.334v-21.665h20.505v21.665c0 5.7-4.595 10.334-10.258 10.334z"/><path fill="#fff" d="M346.1 195.805v21.246c0 5.473-4.415 9.915-9.831 9.915s-9.832-4.453-9.832-9.915v-21.246zm.843-.849h-21.348v22.095c0 5.949 4.775 10.765 10.674 10.765s10.674-4.816 10.674-10.765z"/></g><defs><clipPath id="a"><rect width="400" height="278.744" y=".628" fill="#fff" rx="6"/></clipPath></defs></svg>