<svg xmlns="http://www.w3.org/2000/svg" width="75" height="75" fill="none" viewBox="0 0 75 75"><g clip-path="url(#a)"><path fill="#006d68" d="M38.88.04V0H0v40.06h.13c1.5 19.12 17.48 34.17 36.98 34.17 20.5 0 37.11-16.62 37.11-37.11S58.55.97 38.88.04"/><path fill="#fff" d="M54.59 58.16a.55.55 0 0 0-.35-.16c-2.05-.21-3.65-1.98-3.65-4.04l.03-26.7a6.56 6.56 0 0 0-6.55-6.55H15.62c-.23 0-.42.15-.51.36s-.03.47.13.63c.09.09.21.15.34.16 1.88.2 3.4 1.72 3.6 3.54l.04 27.2c0 3.61 2.94 6.54 6.55 6.54h28.44c.23 0 .42-.15.51-.36s.03-.47-.13-.63z"/><path fill="#fff" d="M54.21 59.61H25.77c-3.86 0-7.01-3.14-7.01-7l-.04-27.2c-.17-1.56-1.55-2.91-3.19-3.08-.23-.03-.45-.13-.62-.3-.3-.3-.39-.76-.23-1.13.16-.39.53-.64.93-.64h28.46c3.86 0 7.01 3.14 7.01 7.01l-.03 26.7c0 1.82 1.42 3.4 3.24 3.58.23.02.46.13.62.3.29.3.39.75.23 1.13-.16.39-.53.64-.94.64zM15.62 21.17s-.07.04-.08.08c-.01.03 0 .09.04.13 2.16.26 3.84 1.91 4.07 3.98l.04 27.25c0 3.36 2.73 6.09 6.09 6.09h28.44s.07-.04.09-.08c.01-.03 0-.09-.03-.13 0 0-.04-.03-.06-.03-2.28-.23-4.07-2.21-4.07-4.5l.03-26.7c0-3.36-2.73-6.09-6.09-6.09z"/><path fill="#a5c352" d="M58.97 52.54c-.1-.1-.23-.16-.37-.18-2.03-.2-3.62-1.96-3.62-4l.03-26.7c0-3.63-2.95-6.58-6.58-6.58H19.97c-.24 0-.45.16-.54.38s-.03.5.14.67c.1.1.22.16.36.17 1.87.2 3.37 1.7 3.57 3.51l.04 27.2c0 3.63 2.96 6.58 6.58 6.58h28.44c.24 0 .45-.16.54-.38s.03-.49-.14-.67z"/><path fill="#a5c352" d="M58.57 54.04H30.13c-3.88 0-7.04-3.16-7.04-7.04l-.04-27.2c-.17-1.54-1.53-2.87-3.16-3.05a1.05 1.05 0 0 1-.64-.31c-.31-.31-.4-.78-.24-1.17.17-.41.55-.67.97-.67h28.46c3.88 0 7.04 3.16 7.04 7.04l-.03 26.7c0 1.81 1.41 3.36 3.21 3.55a1.083 1.083 0 0 1 .89 1.48c-.17.4-.55.67-.97.67zm-38.6-38.51c-.05 0-.1.05-.12.1s0 .13.04.17c.02.02.05.04.09.04 2.08.22 3.75 1.87 3.97 3.91L23.99 47c0 3.38 2.75 6.12 6.13 6.12h28.44c.06 0 .1-.05.12-.1s0-.12-.04-.16c0 0-.05-.04-.09-.04-2.26-.23-4.03-2.19-4.03-4.46l.03-26.7c0-3.38-2.75-6.12-6.13-6.12H19.96z"/><path fill="#fff" d="M38.33 44.43c-.5 0-.98-.2-1.33-.57l-7.02-7.35c-.7-.73-.67-1.9.06-2.6s1.9-.67 2.6.06l5.28 5.52 7.7-14.3c.48-.89 1.59-1.23 2.49-.75.89.48 1.23 1.59.75 2.49l-8.89 16.53c-.28.52-.79.87-1.37.95-.08.01-.16.02-.25.02z"/></g><defs><clipPath id="a"><path fill="#fff" d="M0 0h75v75H0z"/></clipPath></defs></svg>