<svg width="48" height="48" viewBox="0 0 48 48" fill="none" xmlns="http://www.w3.org/2000/svg">
<path d="M32.6599 37.59C40.1655 37.59 46.2499 31.5056 46.2499 24C46.2499 16.4945 40.1655 10.41 32.6599 10.41C25.1544 10.41 19.0699 16.4945 19.0699 24C19.0699 31.5056 25.1544 37.59 32.6599 37.59Z" fill="#FBFCF6"/>
<path d="M32.6599 9.66C24.7399 9.66 18.3199 16.08 18.3199 24C18.3199 31.92 24.7399 38.34 32.6599 38.34C40.5799 38.34 46.9999 31.92 46.9999 24C46.9999 16.08 40.5799 9.66 32.6599 9.66Z" fill="#006D68"/>
<path d="M32.06 31.25V29.47C31.04 29.45 29.98 29.13 29.36 28.69L29.78 27.51C30.42 27.93 31.34 28.27 32.32 28.27C33.57 28.27 34.42 27.55 34.42 26.54C34.42 25.53 33.73 24.97 32.42 24.44C30.62 23.73 29.5 22.92 29.5 21.38C29.5 19.84 30.54 18.8 32.17 18.54V16.76H33.27V18.47C34.33 18.51 35.05 18.79 35.57 19.09L35.13 20.26C34.76 20.05 34.03 19.66 32.9 19.66C31.54 19.66 31.03 20.47 31.03 21.18C31.03 22.1 31.68 22.56 33.22 23.19C35.04 23.93 35.96 24.85 35.96 26.42C35.96 27.82 34.99 29.12 33.17 29.42V31.26H32.06V31.25Z" fill="white"/>
<path d="M25.15 30.97V17.03L13.08 10.05L1 17.03V30.97L13.08 37.95L25.15 30.97Z" fill="white" stroke="#A5C352" stroke-width="1.05" stroke-linecap="round" stroke-linejoin="round"/>
<path d="M20.51 28.29V19.71L13.08 15.41L5.64001 19.71V28.29L13.08 32.59L20.51 28.29Z" fill="#A5C352"/>
</svg>
