<svg xmlns="http://www.w3.org/2000/svg" width="48" height="48" fill="none" viewBox="0 0 48 48"><path fill="#fbfcf6" d="M32.66 37.59c7.506 0 13.59-6.084 13.59-13.59s-6.084-13.59-13.59-13.59S19.07 16.494 19.07 24s6.084 13.59 13.59 13.59"/><path fill="#006d68" d="M32.66 9.66c-7.92 0-14.34 6.42-14.34 14.34s6.42 14.34 14.34 14.34S47 31.92 47 24 40.58 9.66 32.66 9.66"/><path fill="#fff" d="M32.06 31.25v-1.78c-1.02-.02-2.08-.34-2.7-.78l.42-1.18c.64.42 1.56.76 2.54.76 1.25 0 2.1-.72 2.1-1.73s-.69-1.57-2-2.1c-1.8-.71-2.92-1.52-2.92-3.06s1.04-2.58 2.67-2.84v-1.78h1.1v1.71c1.06.04 1.78.32 2.3.62l-.44 1.17c-.37-.21-1.1-.6-2.23-.6-1.36 0-1.87.81-1.87 1.52 0 .92.65 1.38 2.19 2.01 1.82.74 2.74 1.66 2.74 3.23 0 1.4-.97 2.7-2.79 3v1.84h-1.11z"/><path fill="#fff" stroke="#a5c352" stroke-linecap="round" stroke-linejoin="round" stroke-width="1.05" d="M25.15 30.97V17.03l-12.07-6.98L1 17.03v13.94l12.08 6.98z"/><path fill="#a5c352" d="M20.51 28.29v-8.58l-7.43-4.3-7.44 4.3v8.58l7.44 4.3z"/></svg>