<svg xmlns="http://www.w3.org/2000/svg" width="48" height="48" fill="none" viewBox="0 0 48 48"><g clip-path="url(#a)"><path fill="#a5c352" d="M22.43 3.96c9.76 0 17.71 7.94 17.71 17.71S32.2 39.38 22.43 39.38 4.72 31.43 4.72 21.66s7.94-17.7 17.71-17.7m0-3.96C10.46 0 .76 9.7.76 21.66s9.7 21.66 21.66 21.66 21.66-9.7 21.66-21.66S34.39 0 22.43 0"/><path fill="#006d68" d="M31.11 23.65c0 4.8-3.89 8.69-8.69 8.69a8.69 8.69 0 0 1-8.69-8.69c0-3.74 5.27-12.33 7.6-15.95.51-.79 1.67-.79 2.18 0 2.33 3.62 7.6 12.21 7.6 15.95"/><path stroke="#a5c352" stroke-linecap="round" stroke-linejoin="round" stroke-width="1.5" d="M22.42 20.36v15.86"/><path fill="#a5c352" d="M37.01 34.65c-.8 0-1.6.31-2.22.92a3.14 3.14 0 0 0 0 4.43l7.09 7.09c.61.61 1.41.92 2.21.92s1.6-.31 2.21-.92a3.14 3.14 0 0 0 0-4.43l-7.09-7.09a3.12 3.12 0 0 0-2.21-.92z"/></g><defs><clipPath id="a"><path fill="#fff" d="M0 0h48v48H0z"/></clipPath></defs></svg>