<svg xmlns="http://www.w3.org/2000/svg" width="54" height="111" fill="none" viewBox="0 0 54 111"><path fill="#006d69" d="M26.378 74.044h7.665a18.75 18.75 0 0 0 10.698-3.397 19.24 19.24 0 0 0 6.945-8.943 16.2 16.2 0 0 0 .402-10.01L40.086 7.785c-2.775-10.143-16.924-10.147-19.702 0A59742 59742 0 0 1 8.339 51.692a16.2 16.2 0 0 0 .399 10.027 19.23 19.23 0 0 0 6.946 8.934 18.75 18.75 0 0 0 10.694 3.392"/><path fill="#006d69" fill-rule="evenodd" d="m40.078 8.054 12.294 43.608v.002a15.37 15.37 0 0 1-.404 9.781 18.95 18.95 0 0 1-7.02 8.764 19.37 19.37 0 0 1-10.813 3.329h-7.85a19.37 19.37 0 0 1-10.808-3.324 18.95 18.95 0 0 1-7.021-8.755 15.38 15.38 0 0 1-.401-9.798v-.002c2.066-7.283 7.393-26.106 12.337-43.605 2.776-9.832 16.913-9.828 19.686 0m.495-.136c-2.912-10.322-17.76-10.325-20.676 0A58106 58106 0 0 1 7.561 51.522a15.88 15.88 0 0 0 .415 10.117v.002a19.45 19.45 0 0 0 7.21 8.99 19.9 19.9 0 0 0 11.098 3.413h7.852a19.9 19.9 0 0 0 11.104-3.418 19.45 19.45 0 0 0 7.207-9v-.002a15.87 15.87 0 0 0 .42-10.099z" clip-rule="evenodd"/><path fill="#aecc53" fill-rule="evenodd" d="M39.797 28.29c-.554-.093-1.076.297-1.166.872a8.96 8.96 0 0 1-2.893 5.326 8.37 8.37 0 0 1-5.526 2.118 8.37 8.37 0 0 1-5.525-2.118 8.96 8.96 0 0 1-2.893-5.326c-.09-.575-.613-.965-1.166-.871-.554.093-.93.635-.84 1.21.403 2.569 1.672 4.905 3.581 6.593a10.35 10.35 0 0 0 6.842 2.62h.003a10.36 10.36 0 0 0 6.842-2.62c1.909-1.688 3.178-4.024 3.581-6.593.09-.575-.286-1.117-.84-1.21" clip-rule="evenodd"/><path fill="#aecc53" d="M22.175 29.737a1.606 1.606 0 1 0-3.199.291 1.606 1.606 0 0 0 3.199-.29m16.073-.001a1.606 1.606 0 1 1 3.199.291 1.606 1.606 0 0 1-3.199-.29"/><path fill="#aecc53" fill-rule="evenodd" d="M44.554 41.934a1.033 1.033 0 0 0-1.132.932c-.36 3.349-1.907 6.444-4.344 8.695-2.437 2.25-5.593 3.5-8.867 3.512-3.274-.01-6.43-1.26-8.867-3.51-2.437-2.252-3.983-5.348-4.344-8.697-.062-.579-.569-.996-1.132-.932s-.968.585-.906 1.164c.416 3.864 2.2 7.436 5.012 10.034s6.455 4.04 10.234 4.05l.003-1.054.004 1.055c3.779-.012 7.421-1.455 10.233-4.052 2.812-2.598 4.596-6.169 5.013-10.033.062-.579-.344-1.1-.907-1.164" clip-rule="evenodd"/><path fill="#aecc53" d="M17.362 43.434a1.606 1.606 0 1 0-3.205.198 1.606 1.606 0 0 0 3.205-.198m24.896 0a1.605 1.605 0 1 1 3.204.198 1.605 1.605 0 0 1-3.204-.198"/><path fill="#aecc53" fill-rule="evenodd" d="M30.213 16.234c-.444 0-.803.45-.803 1.007v91.927c0 .557.36 1.007.803 1.007s.803-.45.803-1.007V17.241c0-.556-.36-1.007-.803-1.007" clip-rule="evenodd"/><path fill="#aecc53" d="M30.213 18.643a1.606 1.606 0 1 1 0-3.212 1.606 1.606 0 0 1 0 3.212"/><path fill="#aecc53" d="M8.932 85.905a1.6 1.6 0 0 0 1.136-.473 1.62 1.62 0 0 0 0-2.286 1.6 1.6 0 0 0-1.136-.473H.71a13 13 0 0 1-.205-2.29c.013-.68.096-1.356.247-2.019h8.181c.414-.02.804-.198 1.09-.5a1.625 1.625 0 0 0 0-2.236 1.6 1.6 0 0 0-1.09-.5H1.695a60 60 0 0 1 1.741-4.308h5.496a1.6 1.6 0 0 0 1.136-.474 1.62 1.62 0 0 0 0-2.285 1.6 1.6 0 0 0-1.136-.474h-3.98a122 122 0 0 1 2.197-4.312h1.783a1.6 1.6 0 0 0 1.136-.473 1.62 1.62 0 0 0 0-2.286 1.6 1.6 0 0 0-1.136-.474h-.034c2.438-4.4 4.45-7.677 4.45-7.677s2.017 3.278 4.452 7.677h-.035a1.6 1.6 0 0 0-1.135.474 1.62 1.62 0 0 0 0 2.286 1.6 1.6 0 0 0 1.135.473h1.787a142 142 0 0 1 2.194 4.312h-3.98a1.6 1.6 0 0 0-1.136.474 1.62 1.62 0 0 0 0 2.285 1.6 1.6 0 0 0 1.135.474h5.5a59 59 0 0 1 1.741 4.308h-7.24c-.414.02-.804.198-1.09.5a1.625 1.625 0 0 0 0 2.237c.286.3.676.48 1.09.5h8.184c.15.662.233 1.339.247 2.018 0 .768-.07 1.534-.205 2.29h-8.227a1.6 1.6 0 0 0-1.135.473 1.62 1.62 0 0 0 0 2.286 1.6 1.6 0 0 0 1.135.473h7.203a12.9 12.9 0 0 1-4.741 5.4 12.8 12.8 0 0 1-6.876 2.009c-2.435 0-4.82-.697-6.877-2.008a12.9 12.9 0 0 1-4.74-5.4z" style="mix-blend-mode:multiply"/><path fill="#006d69" fill-rule="evenodd" d="M13.753 54.774a.39.39 0 0 0-.402.38v53.839c0 .209.18.379.402.379s.401-.17.401-.379v-53.84c0-.21-.18-.38-.401-.38" clip-rule="evenodd"/></svg>