<svg xmlns="http://www.w3.org/2000/svg" width="55" height="55" fill="none" viewBox="0 0 55 55"><g clip-path="url(#a)"><path fill="#006d68" d="M48.87 53.23a.72.72 0 0 0-.42-.2c-2.5-.25-4.46-2.42-4.46-4.94l.04-32.64c0-4.41-3.59-8-8-8H1.23c-.28 0-.51.18-.62.44s-.03.57.16.77c.11.11.26.18.42.2 2.3.25 4.15 2.1 4.4 4.33l.05 33.25c0 4.41 3.59 8 8 8H48.4c.28 0 .52-.18.62-.44.11-.26.03-.57-.16-.77z"/><path fill="#006d68" d="M48.4 55H13.64c-4.72 0-8.56-3.84-8.57-8.56l-.05-33.25c-.21-1.91-1.89-3.55-3.9-3.77-.29-.03-.55-.16-.75-.36-.36-.37-.48-.92-.28-1.38.2-.48.65-.79 1.14-.79h34.78c4.72 0 8.57 3.84 8.57 8.57l-.03 32.64c0 2.23 1.74 4.15 3.96 4.38.29.03.56.16.76.36.36.36.47.91.28 1.38-.2.48-.65.79-1.14.79zM1.23 8.02s-.08.05-.1.1c-.02.04 0 .11.05.16 2.64.31 4.69 2.34 4.97 4.86l.05 33.31c0 4.1 3.34 7.44 7.44 7.44H48.4s.09-.05.11-.09 0-.11-.04-.15c0 0-.05-.04-.08-.04-2.79-.28-4.97-2.7-4.97-5.5l.03-32.64c0-4.1-3.34-7.44-7.44-7.44H1.23z"/><path fill="#a5c352" d="M54.22 46.35a.7.7 0 0 0-.45-.21c-2.48-.25-4.42-2.4-4.43-4.89l.04-32.64c0-4.44-3.61-8.05-8.05-8.05H6.55c-.3 0-.55.2-.66.47s-.03.61.17.82c.12.12.27.19.44.21 2.28.25 4.12 2.08 4.36 4.28l.05 33.25c0 4.43 3.61 8.04 8.05 8.04h34.76c.3 0 .55-.19.66-.47.11-.27.04-.6-.17-.81z"/><path fill="#a5c352" d="M53.72 48.19H18.96c-4.74 0-8.61-3.86-8.61-8.6L10.3 6.34c-.21-1.89-1.87-3.51-3.86-3.73-.3-.03-.57-.16-.78-.38-.37-.38-.49-.95-.29-1.43.21-.48.67-.8 1.18-.8h34.78c4.75 0 8.61 3.86 8.61 8.61l-.04 32.64c0 2.21 1.72 4.11 3.92 4.33.3.03.58.16.79.38.37.37.49.95.29 1.42-.21.49-.67.81-1.18.81M6.55 1.12c-.06 0-.12.06-.14.12s0 .15.05.21c.03.03.06.04.1.05 2.54.27 4.58 2.28 4.85 4.78l.05 33.31c0 4.13 3.36 7.48 7.49 7.48h34.76c.07 0 .12-.07.15-.12.02-.06 0-.15-.05-.2 0 0-.06-.05-.1-.05-2.76-.28-4.93-2.67-4.93-5.45l.04-32.64c0-4.13-3.36-7.49-7.49-7.49z"/><path fill="#fff" d="M46.73 24.1S39.3 34.69 30.14 34.69 13.55 24.1 13.55 24.1s7.43-10.59 16.59-10.59S46.73 24.1 46.73 24.1"/><path fill="#006d68" d="M30.14 29.82a5.82 5.82 0 1 0 0-11.64 5.82 5.82 0 0 0 0 11.64"/></g><defs><clipPath id="a"><path fill="#fff" d="M0 0h55v55H0z"/></clipPath></defs></svg>