<svg width="55" height="55" viewBox="0 0 55 55" fill="none" xmlns="http://www.w3.org/2000/svg">
<g clip-path="url(#clip0_80_7829)">
<path d="M55 27.5H44.57C44.57 27.5 44.56 28.32 44.53 28.73C43.9 37.58 36.52 44.57 27.51 44.57C18.46 44.57 11.06 37.53 10.48 28.62C10.46 28.25 10.44 27.5 10.44 27.5H0C0 27.5 0 28.24 0.02 28.61C0.6 43.28 12.68 55 27.5 55C42.24 55 54.27 43.41 54.97 28.84C54.99 28.39 55 27.5 55 27.5Z" fill="#003834"/>
<path d="M0 27.5H10.43C10.43 18.07 18.07 10.43 27.5 10.43C36.93 10.43 44.57 18.07 44.57 27.5H55C55 12.31 42.69 0 27.5 0C12.31 0 0 12.31 0 27.5Z" fill="#006D68"/>
<path d="M27.5001 40.4401C34.6466 40.4401 40.4401 34.6466 40.4401 27.5001C40.4401 20.3535 34.6466 14.5601 27.5001 14.5601C20.3535 14.5601 14.5601 20.3535 14.5601 27.5001C14.5601 34.6466 20.3535 40.4401 27.5001 40.4401Z" fill="#ACCA53"/>
<path d="M28.8202 27.5L27.5002 40.44L26.1802 27.5H28.8202Z" fill="white"/>
<path d="M26.1802 27.5001L27.5002 14.5601L28.8202 27.5001H26.1802Z" fill="#003834"/>
</g>
<defs>
<clipPath id="clip0_80_7829">
<rect width="55" height="55" fill="white"/>
</clipPath>
</defs>
</svg>
