<svg xmlns="http://www.w3.org/2000/svg" width="55" height="55" fill="none" viewBox="0 0 55 55"><path fill="#acca53" d="M25.73 4.95c10.98 0 19.92 8.94 19.92 19.92s-8.94 19.92-19.92 19.92S5.81 35.86 5.81 24.87 14.75 4.95 25.73 4.95m0-4.45C12.27.5 1.36 11.41 1.36 24.87s10.91 24.37 24.37 24.37S50.1 38.33 50.1 24.87 39.19.5 25.73.5"/><path fill="#006d68" d="M44.77 24.87s-8.52 12.15-19.04 12.15S6.69 24.87 6.69 24.87s8.52-12.15 19.04-12.15 19.04 12.15 19.04 12.15"/><path fill="#fff" d="M25.73 31.44a6.68 6.68 0 1 0 0-13.36 6.68 6.68 0 0 0 0 13.36"/><path fill="#acca53" d="M42.14 39.48c-.9 0-1.8.34-2.49 1.03a3.513 3.513 0 0 0 0 4.98l7.97 7.97c.69.69 1.59 1.03 2.49 1.03s1.8-.34 2.49-1.03a3.513 3.513 0 0 0 0-4.98l-7.97-7.97a3.5 3.5 0 0 0-2.49-1.03"/></svg>