<svg xmlns="http://www.w3.org/2000/svg" width="55" height="55" fill="none" viewBox="0 0 55 55"><g clip-path="url(#a)"><path fill="#003834" d="M55 27.5H44.57s-.01.82-.04 1.23c-.63 8.85-8.01 15.84-17.02 15.84-9.05 0-16.45-7.04-17.03-15.95-.02-.37-.04-1.12-.04-1.12H0s0 .74.02 1.11C.6 43.28 12.68 55 27.5 55c14.74 0 26.77-11.59 27.47-26.16.02-.45.03-1.34.03-1.34"/><path fill="#006d68" d="M0 27.5h10.43c0-9.43 7.64-17.07 17.07-17.07s17.07 7.64 17.07 17.07H55C55 12.31 42.69 0 27.5 0S0 12.31 0 27.5"/><path fill="#acca53" d="M27.5 40.44c7.147 0 12.94-5.793 12.94-12.94S34.647 14.56 27.5 14.56 14.56 20.354 14.56 27.5c0 7.147 5.794 12.94 12.94 12.94"/><path fill="#fff" d="M28.82 27.5 27.5 40.44 26.18 27.5z"/><path fill="#003834" d="m26.18 27.5 1.32-12.94 1.32 12.94z"/></g><defs><clipPath id="a"><path fill="#fff" d="M0 0h55v55H0z"/></clipPath></defs></svg>