<svg xmlns="http://www.w3.org/2000/svg" width="48" height="48" fill="none" viewBox="0 0 48 48"><path fill="#a5c352" d="M8.16 32.19H48V7.24H8.16z"/><path fill="#006d68" d="M0 40.75h39.84V15.8H0z"/><path fill="#fff" d="M20.64 27.19c-1.75-.73-2.26-1.17-2.26-2 0-.67.48-1.45 1.83-1.45 1.23 0 2 .44 2.32.63l.22.12.63-1.67-.16-.09c-.7-.41-1.49-.64-2.4-.69v-1.88H19.2v1.98c-1.78.36-2.91 1.63-2.91 3.28 0 1.96 1.59 2.86 3.31 3.53 1.45.59 2.05 1.2 2.05 2.1 0 .99-.86 1.68-2.08 1.68-.93 0-1.9-.29-2.66-.79l-.23-.15-.61 1.7.13.09c.68.49 1.79.83 2.86.88v1.95h1.64v-2.04c2.1-.42 3.05-2.02 3.05-3.46 0-1.72-.93-2.83-3.12-3.73z"/></svg>