<svg width="48" height="48" viewBox="0 0 48 48" fill="none" xmlns="http://www.w3.org/2000/svg">
<path d="M33.55 10.05C25.85 10.05 19.6 16.29 19.6 24C19.6 31.71 25.84 37.95 33.55 37.95C41.26 37.95 47.5 31.71 47.5 24C47.5 16.29 41.26 10.05 33.55 10.05Z" fill="#006D68"/>
<path d="M32.97 31.05V29.31C31.97 29.29 30.94 28.98 30.34 28.55L30.75 27.4C31.37 27.81 32.26 28.14 33.22 28.14C34.44 28.14 35.26 27.44 35.26 26.46C35.26 25.48 34.59 24.93 33.32 24.42C31.57 23.73 30.49 22.94 30.49 21.45C30.49 19.96 31.5 18.94 33.08 18.68V16.94H34.15V18.61C35.18 18.64 35.89 18.92 36.38 19.21L35.95 20.34C35.59 20.13 34.88 19.76 33.78 19.76C32.46 19.76 31.96 20.55 31.96 21.24C31.96 22.13 32.6 22.58 34.09 23.2C35.86 23.92 36.75 24.82 36.75 26.34C36.75 27.7 35.8 28.97 34.03 29.26V31.05H32.95H32.97Z" fill="white"/>
<path d="M14.51 36.73C7.49003 36.73 1.78003 31.02 1.78003 24C1.78003 16.98 7.49003 11.27 14.51 11.27C21.53 11.27 27.24 16.98 27.24 24C27.24 31.02 21.53 36.73 14.51 36.73Z" fill="#A5C352"/>
<path d="M14.51 12.55C20.82 12.55 25.96 17.69 25.96 24C25.96 30.31 20.82 35.45 14.51 35.45C8.2 35.45 3.06 30.31 3.06 24C3.06 17.69 8.2 12.55 14.51 12.55ZM14.51 9.98999C6.77 9.98999 0.5 16.26 0.5 24C0.5 31.74 6.77 38.01 14.51 38.01C22.25 38.01 28.52 31.74 28.52 24C28.52 16.26 22.25 9.98999 14.51 9.98999Z" fill="#A5C352"/>
<path d="M26.57 24C26.57 24 21.17 31.7 14.51 31.7C7.84995 31.7 2.44995 24 2.44995 24C2.44995 24 7.84995 16.3 14.51 16.3C21.17 16.3 26.57 24 26.57 24Z" fill="white"/>
<path d="M14.5099 28.16C16.8461 28.16 18.7399 26.2661 18.7399 23.93C18.7399 21.5938 16.8461 19.7 14.5099 19.7C12.1737 19.7 10.2799 21.5938 10.2799 23.93C10.2799 26.2661 12.1737 28.16 14.5099 28.16Z" fill="#006D68"/>
</svg>
