<svg xmlns="http://www.w3.org/2000/svg" width="48" height="48" fill="none" viewBox="0 0 48 48"><path fill="#006d68" d="M33.55 10.05c-7.7 0-13.95 6.24-13.95 13.95s6.24 13.95 13.95 13.95S47.5 31.71 47.5 24s-6.24-13.95-13.95-13.95"/><path fill="#fff" d="M32.97 31.05v-1.74c-1-.02-2.03-.33-2.63-.76l.41-1.15c.62.41 1.51.74 2.47.74 1.22 0 2.04-.7 2.04-1.68s-.67-1.53-1.94-2.04c-1.75-.69-2.83-1.48-2.83-2.97s1.01-2.51 2.59-2.77v-1.74h1.07v1.67c1.03.03 1.74.31 2.23.6l-.43 1.13c-.36-.21-1.07-.58-2.17-.58-1.32 0-1.82.79-1.82 1.48 0 .89.64 1.34 2.13 1.96 1.77.72 2.66 1.62 2.66 3.14 0 1.36-.95 2.63-2.72 2.92v1.79h-1.08z"/><path fill="#a5c352" d="M14.51 36.73C7.49 36.73 1.78 31.02 1.78 24s5.71-12.73 12.73-12.73S27.24 16.98 27.24 24s-5.71 12.73-12.73 12.73"/><path fill="#a5c352" d="M14.51 12.55c6.31 0 11.45 5.14 11.45 11.45s-5.14 11.45-11.45 11.45S3.06 30.31 3.06 24 8.2 12.55 14.51 12.55m0-2.56C6.77 9.99.5 16.26.5 24s6.27 14.01 14.01 14.01S28.52 31.74 28.52 24 22.25 9.99 14.51 9.99"/><path fill="#fff" d="M26.57 24s-5.4 7.7-12.06 7.7S2.45 24 2.45 24s5.4-7.7 12.06-7.7S26.57 24 26.57 24"/><path fill="#006d68" d="M14.51 28.16a4.23 4.23 0 1 0 0-8.46 4.23 4.23 0 0 0 0 8.46"/></svg>