<svg xmlns="http://www.w3.org/2000/svg" width="420" height="400" fill="none" viewBox="0 0 420 400"><path fill="#ebf2d4" d="M274.28 22.61c-16.24-6.09-33.18-11.18-50.52-11.11-23.37.1-45.58 9.53-66.84 19.24-39.13 17.86-69.99 45.85-102.07 74.28-25.97 23.01-30.23 70.73-29.45 103.15.09 3.91.19 7.84.37 11.77.55 12.09 1.84 24.14 6.08 35.41 6.79 18.07 22.55 33.32 34.45 48.19 12.88 16.1 25.51 29.53 42.85 41.02 19.63 13.01 47.71 35.36 71.93 37.41 30.49 2.58 53.83 3.82 83.14-5.31 31.21-9.73 65.42-23.93 87.88-48.81 11.78-13.05 19.47-31.67 28.23-46.84 17.1-29.6 24.19-61.52 19.79-95.54-4.61-35.61-18.6-62.91-33.35-94.74-18.95-40.88-52.25-53.03-92.48-68.11z"/><path fill="#00544f" d="M3.05 184.95V28.28l177.68-.46v157.13z"/><path fill="#a8c653" d="M180.17 28.37v156.02H3.61V28.83l176.57-.46m1.1-1.11L2.5 27.72v157.77h178.78z"/><path fill="#a8c653" d="M181.28 10.83H2.5v20.72h178.78z"/><path fill="#003834" d="m174.32 17.699-2.178-2.178-9.249 9.249 2.178 2.178z"/><path fill="#003834" d="m172.151 26.95 2.178-2.178-9.249-9.25-2.178 2.179zm-22.411-9.69v8.27h-9.3v-8.27zm1.42-1.43h-12.15v11.12h12.15zm-23.93 8.67h-12.15v2.45h12.15z"/><path stroke="#adcb53" stroke-linecap="round" stroke-linejoin="round" stroke-width="2.67" d="M75.77 76.74c0 8.9 7.22 16.12 16.12 16.12s16.12-7.22 16.12-16.12c0-6.01-7.35-19.28-12.12-27.28-1.81-3.03-6.19-3.03-8.01 0-4.78 7.99-12.12 21.27-12.12 27.28zm16.11-8.44v32.84"/><path fill="#adcb53" d="M87.86 68.5a4.02 4.02 0 1 1 8.04 0 4.02 4.02 0 0 1-8.04 0"/><path stroke="#adcb53" stroke-linecap="round" stroke-linejoin="round" stroke-width="2.67" d="M64.13 68.06 48.79 79.38l15.34 11.31m55.52-22.63 15.34 11.32-15.34 11.31m-3.4 29.78h18.26m-60.46 0h33.45m-58.23 0H64.1m55.99 19.33h14.42m-85.24 0h13.91m6.33 0h44.76m-15.05 19.33h35.29m-85.24 0h34.27"/><path fill="#007872" d="m417.5 30.93-203.77.57v155.93H417.5z"/><path fill="#fff" d="M271.25 88.19h-22.62v86.18h22.62z"/><path fill="#a8c653" d="M345.48 115.81h-22.62v58.55h22.62z"/><path fill="#fff" d="M382.6 88.19h-22.62v86.18h22.62zm-96.86 86.17h22.62v-72.94h-22.62z"/><path stroke="#adcb53" stroke-linecap="round" stroke-linejoin="round" stroke-width="1.1" d="M318.01 80.45V61.96l16.01-9.24 16.01 9.24v18.49l-16.01 9.25z"/><path fill="#a8c653" d="M324.16 76.9V65.52l9.86-5.69 9.86 5.69V76.9l-9.86 5.69z"/><path fill="#003834" d="M417.5 10.83H213.73v25.35H417.5z"/><path fill="#a8c653" d="m409.001 19.236-2.666-2.666-11.314 11.314 2.666 2.666z"/><path fill="#a8c653" d="M406.334 30.55 409 27.886 397.686 16.57l-2.666 2.666zM378.92 18.69v10.12h-11.38V18.69zm1.74-1.74H365.8v13.61h14.86zm-29.28 10.61h-14.86v3h14.86zM96.44 265.35H13.22v13.51h83.22zm0-23.46H13.22v13.51h83.22zm0-23.8H13.22v13.51h83.22z"/><path fill="#007872" d="M58.79 304.16a3.93 3.93 0 0 1-5.55 0l-6.94-6.94a2.75 2.75 0 0 1 0-3.9l1.65-1.65a2.75 2.75 0 0 1 3.9 0l3.09 3.09 3.85 3.85a3.93 3.93 0 0 1 0 5.55"/><path fill="#007872" d="M48.86 259.57c-9.57-9.57-25.09-9.57-34.66 0s-9.57 25.09 0 34.66 25.09 9.57 34.66 0 9.57-25.09 0-34.66m-3.67 31c-7.55 7.55-19.78 7.55-27.33 0s-7.55-19.78 0-27.33 19.78-7.55 27.33 0 7.55 19.78 0 27.33"/><path fill="#000" d="M285.43 318.96H102.05v21.17h183.38z"/><path fill="#00544f" d="M219 259.94h-50.52a8.17 8.17 0 0 0-8.17 8.17v2.02a8.17 8.17 0 0 0 8.17 8.17H219a8.17 8.17 0 0 0 8.17-8.17v-2.02a8.17 8.17 0 0 0-8.17-8.17"/><path fill="#003834" d="M193.74 266.82c49.706 0 90-33.995 90-75.93s-40.294-75.93-90-75.93-90 33.995-90 75.93 40.294 75.93 90 75.93"/><path fill="#00544f" d="M193.74 266.7c-43.32 2.29-90.74-33.41-90.74-73.86 0-34.41 26.74-63 58.25-72.76 46.42-15.79 107.66 4.46 120.59 55.12 7.04 27.57-5.86 56.13-28.43 72.38-17.38 12.79-38.27 19.98-59.68 19.13 20.86-.88 41.9-7.77 58.08-21.05 24.86-19.77 34.52-53.19 18.62-81.59-20.3-36.24-68.65-48.82-106.77-36.46-34.27 10.34-61.78 43.33-52.76 80.23 8.87 36.37 47.12 57.8 82.82 58.87z"/><path stroke="#aecc53" stroke-miterlimit="10" stroke-width="2" d="M193.74 266.82c20.86-.88 41.9-7.78 58.08-21.07 24.86-19.78 34.52-53.23 18.62-81.66-20.3-36.27-68.65-48.86-106.77-36.49-34.27 10.35-61.78 43.37-52.76 80.29 8.87 36.4 44.49 57.81 80.2 58.89l2.62.03"/><path fill="#003834" d="M193.74 257.47c40.494 0 73.32-27.696 73.32-61.86s-32.826-61.86-73.32-61.86-73.32 27.696-73.32 61.86 32.827 61.86 73.32 61.86m0 131.7c50.639 0 91.69-21.253 91.69-47.47s-41.051-47.47-91.69-47.47-91.69 21.253-91.69 47.47 41.051 47.47 91.69 47.47"/><path fill="#fff" d="M193.74 366.43c50.639 0 91.69-21.253 91.69-47.47s-41.051-47.47-91.69-47.47-91.69 21.253-91.69 47.47 41.051 47.47 91.69 47.47"/><path stroke="#006e69" stroke-miterlimit="10" stroke-width="1.56" d="M193.74 366.43c50.639 0 91.69-21.253 91.69-47.47s-41.051-47.47-91.69-47.47-91.69 21.253-91.69 47.47 41.051 47.47 91.69 47.47Z"/><path fill="#aecc53" d="M193.74 361.28c45.144 0 81.74-18.947 81.74-42.32s-36.596-42.32-81.74-42.32S112 295.587 112 318.96s36.596 42.32 81.74 42.32"/><path stroke="#fff" stroke-miterlimit="10" stroke-width=".78" d="M193.74 351.58c34.794 0 63-14.605 63-32.62 0-18.016-28.206-32.62-63-32.62s-63 14.604-63 32.62 28.206 32.62 63 32.62Z"/><path fill="#000" d="M193.74 361.3c-45.1 0-81.79-18.99-81.79-42.34h4.99c0 21.92 34.45 39.76 76.8 39.76s76.8-17.84 76.8-39.76h4.99c0 23.35-36.69 42.34-81.79 42.34"/><path stroke="#006e69" stroke-miterlimit="10" stroke-width="3.59" d="M114.45 318.96c0-22.67 35.5-41.05 79.29-41.05s79.29 18.38 79.29 41.05"/><path fill="#fff" d="m192.43 322.55-50.82-3.59 50.82-3.59zm2.63-7.18 50.82 3.59-50.82 3.59z"/><path fill="#fff" d="m197.33 319.64-3.59 26.31-3.59-26.31zm-7.18-1.36 3.59-26.31 3.59 26.31z"/><path fill="#fff" d="m191.87 320.93-24.97-15.87 27.37 11.23zm3.75-3.94 24.97 15.87-27.37-11.23z"/><path fill="#fff" d="m194.27 321.63-27.37 11.23 24.97-15.87zm-1.05-5.34 27.37-11.23-24.97 15.87z"/><path fill="#000" d="m197.59 322.02-51.66 24.27 41.56-29.01z"/><path fill="#006e69" d="m189.89 315.9 51.67-24.28L200 320.64z"/><path fill="#878787" d="M193.74 323.58c4.926 0 8.92-2.068 8.92-4.62s-3.994-4.62-8.92-4.62-8.92 2.068-8.92 4.62 3.994 4.62 8.92 4.62"/><path fill="#006d68" d="M201.12 287.26c0 2.11-3.3 3.82-7.38 3.82s-7.38-1.71-7.38-3.82 7.38-6.79 7.38-6.79 7.38 4.68 7.38 6.79"/><path stroke="#aecc53" stroke-linecap="round" stroke-linejoin="round" stroke-width=".78" d="M193.74 291.08v-6.74"/><path stroke="#fff" stroke-linecap="round" stroke-linejoin="round" stroke-width="1.17" d="M119.7 318.96h10.54m127.01 0h10.54"/><path fill="#aecc53" d="M193.74 205.58a9.07 9.07 0 1 0 0-18.14 9.07 9.07 0 0 0 0 18.14"/><path fill="#fff" d="M239.28 194.74c-.69-1.42-17.2-34.53-45.54-34.53s-44.85 33.12-45.54 34.53c-.29.59-.42 1.22-.41 1.86-.01.63.12 1.27.41 1.86.69 1.41 17.21 34.53 45.54 34.53s44.85-33.12 45.54-34.53c.28-.59.42-1.22.41-1.86.01-.63-.12-1.27-.41-1.85zm-45.53 30.16c-19.4 0-32.94-20.59-37.02-27.65-.08-.2-.17-.42-.3-.65.13-.23.22-.45.3-.65 4.07-7.06 17.62-27.65 37.02-27.65s32.99 20.67 37.04 27.69c.07.19.17.4.28.62-.12.22-.21.42-.28.62-4.05 7.02-17.61 27.69-37.04 27.69z"/><path fill="#003834" d="m349.35 211.17-18.22-54.48 54.48 18.22z"/><path fill="#003834" d="m364.942 178.838-11.667 11.667 22.882 22.882 11.667-11.667z"/><path fill="#007872" d="M357.12 295.79h-46.83v32.43h46.83z"/><path fill="#007872" d="M333.71 332.12c12.935 0 23.42-1.746 23.42-3.9s-10.485-3.9-23.42-3.9c-12.934 0-23.42 1.746-23.42 3.9s10.486 3.9 23.42 3.9"/><path fill="#003834" d="M333.71 298.73c12.935 0 23.42-1.746 23.42-3.9s-10.485-3.9-23.42-3.9c-12.934 0-23.42 1.746-23.42 3.9s10.486 3.9 23.42 3.9"/><path fill="#aecc53" d="M356.7 259.36c1.99-.34 3.59-1.94 3.8-4.04a4.584 4.584 0 0 0-4.1-5.03 4.584 4.584 0 0 0-5.03 4.1c-.15 1.47.42 2.83 1.42 3.78-2.89 6.98-9.43 11.91-17.04 12.67v-19.5c5.22-.63 9.87-3.65 12.63-8.05a4.58 4.58 0 0 0 4.44-3.89 4.59 4.59 0 0 0-3.85-5.23 4.59 4.59 0 0 0-5.23 3.85c-.2 1.3.18 2.55.93 3.52-2.05 3.02-5.28 5.12-8.92 5.7v-19.05c1.51-.75 2.56-2.3 2.56-4.1a4.59 4.59 0 0 0-4.59-4.59c-2.53 0-4.59 2.06-4.59 4.59 0 1.8 1.05 3.34 2.56 4.1v19.06c-3.64-.58-6.89-2.68-8.94-5.71.75-.96 1.13-2.21.93-3.52a4.594 4.594 0 0 0-5.23-3.85c-2.5.38-4.23 2.73-3.85 5.23.34 2.24 2.25 3.84 4.44 3.89 2.76 4.41 7.42 7.42 12.64 8.05v19.5c-7.61-.75-14.16-5.69-17.05-12.67.99-.95 1.57-2.31 1.42-3.78a4.59 4.59 0 0 0-9.13.93c.21 2.1 1.82 3.71 3.8 4.04 3.43 8.67 11.55 14.79 20.97 15.57v19.82h4.07v-19.82c9.41-.78 17.52-6.9 20.95-15.57z"/></svg>