<svg width="420" height="400" viewBox="0 0 420 400" fill="none" xmlns="http://www.w3.org/2000/svg">
<path d="M274.28 22.61C258.04 16.52 241.1 11.43 223.76 11.5C200.39 11.6 178.18 21.03 156.92 30.74C117.79 48.6 86.93 76.59 54.85 105.02C28.88 128.03 24.62 175.75 25.4 208.17C25.49 212.08 25.59 216.01 25.77 219.94C26.32 232.03 27.61 244.08 31.85 255.35C38.64 273.42 54.4 288.67 66.3 303.54C79.18 319.64 91.81 333.07 109.15 344.56C128.78 357.57 156.86 379.92 181.08 381.97C211.57 384.55 234.91 385.79 264.22 376.66C295.43 366.93 329.64 352.73 352.1 327.85C363.88 314.8 371.57 296.18 380.33 281.01C397.43 251.41 404.52 219.49 400.12 185.47C395.51 149.86 381.52 122.56 366.77 90.73C347.82 49.85 314.52 37.7 274.29 22.62L274.28 22.61Z" fill="#EBF2D4"/>
<path d="M3.05005 184.95V28.2801L180.73 27.8201V184.95H3.05005Z" fill="#00544F"/>
<path d="M180.17 28.37V184.39H3.61V28.83L180.18 28.37M181.28 27.26L2.5 27.72V185.49H181.28V27.26Z" fill="#A8C653"/>
<path d="M181.28 10.83H2.5V31.55H181.28V10.83Z" fill="#A8C653"/>
<path d="M174.32 17.6986L172.142 15.5208L162.893 24.7697L165.071 26.9476L174.32 17.6986Z" fill="#003834"/>
<path d="M172.151 26.9497L174.329 24.7719L165.08 15.5229L162.902 17.7008L172.151 26.9497Z" fill="#003834"/>
<path d="M149.74 17.26V25.53H140.44V17.26H149.74ZM151.16 15.83H139.01V26.95H151.16V15.83Z" fill="#003834"/>
<path d="M127.23 24.5H115.08V26.95H127.23V24.5Z" fill="#003834"/>
<path d="M75.77 76.74C75.77 85.64 82.99 92.86 91.89 92.86C100.79 92.86 108.01 85.64 108.01 76.74C108.01 70.73 100.66 57.46 95.89 49.46C94.08 46.43 89.7 46.43 87.88 49.46C83.1 57.45 75.76 70.73 75.76 76.74H75.77Z" stroke="#ADCB53" stroke-width="2.67" stroke-linecap="round" stroke-linejoin="round"/>
<path d="M91.88 68.2999V101.14" stroke="#ADCB53" stroke-width="2.67" stroke-linecap="round" stroke-linejoin="round"/>
<path d="M87.86 68.5C87.86 66.28 89.66 64.48 91.88 64.48C94.1 64.48 95.9 66.28 95.9 68.5C95.9 70.72 94.1 72.52 91.88 72.52C89.66 72.52 87.86 70.72 87.86 68.5Z" fill="#ADCB53"/>
<path d="M64.13 68.0601L48.79 79.3801L64.13 90.6901" stroke="#ADCB53" stroke-width="2.67" stroke-linecap="round" stroke-linejoin="round"/>
<path d="M119.65 68.0601L134.99 79.3801L119.65 90.6901" stroke="#ADCB53" stroke-width="2.67" stroke-linecap="round" stroke-linejoin="round"/>
<path d="M116.25 120.47H134.51" stroke="#ADCB53" stroke-width="2.67" stroke-linecap="round" stroke-linejoin="round"/>
<path d="M74.05 120.47H107.5" stroke="#ADCB53" stroke-width="2.67" stroke-linecap="round" stroke-linejoin="round"/>
<path d="M49.27 120.47H64.1" stroke="#ADCB53" stroke-width="2.67" stroke-linecap="round" stroke-linejoin="round"/>
<path d="M120.09 139.8H134.51" stroke="#ADCB53" stroke-width="2.67" stroke-linecap="round" stroke-linejoin="round"/>
<path d="M49.27 139.8H63.18" stroke="#ADCB53" stroke-width="2.67" stroke-linecap="round" stroke-linejoin="round"/>
<path d="M69.51 139.8H114.27" stroke="#ADCB53" stroke-width="2.67" stroke-linecap="round" stroke-linejoin="round"/>
<path d="M99.22 159.13H134.51" stroke="#ADCB53" stroke-width="2.67" stroke-linecap="round" stroke-linejoin="round"/>
<path d="M49.27 159.13H83.54" stroke="#ADCB53" stroke-width="2.67" stroke-linecap="round" stroke-linejoin="round"/>
<path d="M417.5 30.9299L213.73 31.4999V187.43H297.52H333.7H417.5V30.9299Z" fill="#007872"/>
<path d="M271.25 88.1899H248.63V174.37H271.25V88.1899Z" fill="white"/>
<path d="M345.48 115.81H322.86V174.36H345.48V115.81Z" fill="#A8C653"/>
<path d="M382.6 88.1899H359.98V174.37H382.6V88.1899Z" fill="white"/>
<path d="M285.74 174.36H308.36V101.42H285.74V174.36Z" fill="white"/>
<path d="M318.01 80.45V61.96L334.02 52.72L350.03 61.96V80.45L334.02 89.7L318.01 80.45Z" stroke="#ADCB53" stroke-width="1.1" stroke-linecap="round" stroke-linejoin="round"/>
<path d="M324.16 76.9V65.52L334.02 59.83L343.88 65.52V76.9L334.02 82.59L324.16 76.9Z" fill="#A8C653"/>
<path d="M417.5 10.83H213.73V36.18H417.5V10.83Z" fill="#003834"/>
<path d="M409.001 19.2359L406.335 16.5701L395.021 27.8838L397.687 30.5496L409.001 19.2359Z" fill="#A8C653"/>
<path d="M406.334 30.5507L409 27.8849L397.686 16.5712L395.02 19.237L406.334 30.5507Z" fill="#A8C653"/>
<path d="M378.92 18.69V28.8099H367.54V18.69H378.92ZM380.66 16.95H365.8V30.5599H380.66V16.95Z" fill="#A8C653"/>
<path d="M351.38 27.5599H336.52V30.5599H351.38V27.5599Z" fill="#A8C653"/>
<path d="M96.44 265.35H13.22V278.86H96.44V265.35Z" fill="#A8C653"/>
<path d="M96.44 241.89H13.22V255.4H96.44V241.89Z" fill="#A8C653"/>
<path d="M96.44 218.09H13.22V231.6H96.44V218.09Z" fill="#A8C653"/>
<path d="M58.79 304.16C57.26 305.69 54.78 305.69 53.24 304.16L46.3 297.22C45.22 296.14 45.22 294.4 46.3 293.32L47.95 291.67C49.03 290.59 50.77 290.59 51.85 291.67L54.94 294.76L58.79 298.61C60.32 300.14 60.32 302.62 58.79 304.16Z" fill="#007872"/>
<path d="M48.86 259.57C39.29 250 23.77 250 14.2 259.57C4.62996 269.14 4.62996 284.66 14.2 294.23C23.77 303.8 39.29 303.8 48.86 294.23C58.43 284.66 58.43 269.14 48.86 259.57ZM45.19 290.57C37.64 298.12 25.41 298.12 17.86 290.57C10.31 283.02 10.31 270.79 17.86 263.24C25.41 255.69 37.64 255.69 45.19 263.24C52.74 270.79 52.74 283.02 45.19 290.57Z" fill="#007872"/>
<path d="M285.43 318.96H102.05V340.13H285.43V318.96Z" fill="black"/>
<path d="M219 259.94H168.48C163.968 259.94 160.31 263.598 160.31 268.11V270.13C160.31 274.642 163.968 278.3 168.48 278.3H219C223.512 278.3 227.17 274.642 227.17 270.13V268.11C227.17 263.598 223.512 259.94 219 259.94Z" fill="#00544F"/>
<path d="M193.74 266.82C243.446 266.82 283.74 232.825 283.74 190.89C283.74 148.955 243.446 114.96 193.74 114.96C144.034 114.96 103.74 148.955 103.74 190.89C103.74 232.825 144.034 266.82 193.74 266.82Z" fill="#003834"/>
<path d="M193.74 266.7C150.42 268.99 103 233.29 103 192.84C103 158.43 129.74 129.84 161.25 120.08C207.67 104.29 268.91 124.54 281.84 175.2C288.88 202.77 275.98 231.33 253.41 247.58C236.03 260.37 215.14 267.56 193.73 266.71C214.59 265.83 235.63 258.94 251.81 245.66C276.67 225.89 286.33 192.47 270.43 164.07C250.13 127.83 201.78 115.25 163.66 127.61C129.39 137.95 101.88 170.94 110.9 207.84C119.77 244.21 158.02 265.64 193.72 266.71L193.74 266.7Z" fill="#00544F"/>
<path d="M193.74 266.82C214.6 265.94 235.64 259.04 251.82 245.75C276.68 225.97 286.34 192.52 270.44 164.09C250.14 127.82 201.79 115.23 163.67 127.6C129.4 137.95 101.89 170.97 110.91 207.89C119.78 244.29 155.4 265.7 191.11 266.78L193.73 266.81" stroke="#AECC53" stroke-width="2" stroke-miterlimit="10"/>
<path d="M193.74 257.47C234.234 257.47 267.06 229.774 267.06 195.61C267.06 161.446 234.234 133.75 193.74 133.75C153.247 133.75 120.42 161.446 120.42 195.61C120.42 229.774 153.247 257.47 193.74 257.47Z" fill="#003834"/>
<path d="M193.74 389.17C244.379 389.17 285.43 367.917 285.43 341.7C285.43 315.483 244.379 294.23 193.74 294.23C143.101 294.23 102.05 315.483 102.05 341.7C102.05 367.917 143.101 389.17 193.74 389.17Z" fill="#003834"/>
<path d="M193.74 366.43C244.379 366.43 285.43 345.177 285.43 318.96C285.43 292.743 244.379 271.49 193.74 271.49C143.101 271.49 102.05 292.743 102.05 318.96C102.05 345.177 143.101 366.43 193.74 366.43Z" fill="white"/>
<path d="M193.74 366.43C244.379 366.43 285.43 345.177 285.43 318.96C285.43 292.743 244.379 271.49 193.74 271.49C143.101 271.49 102.05 292.743 102.05 318.96C102.05 345.177 143.101 366.43 193.74 366.43Z" stroke="#006E69" stroke-width="1.56" stroke-miterlimit="10"/>
<path d="M193.74 361.28C238.884 361.28 275.48 342.333 275.48 318.96C275.48 295.587 238.884 276.64 193.74 276.64C148.596 276.64 112 295.587 112 318.96C112 342.333 148.596 361.28 193.74 361.28Z" fill="#AECC53"/>
<path d="M193.74 351.58C228.534 351.58 256.74 336.975 256.74 318.96C256.74 300.944 228.534 286.34 193.74 286.34C158.946 286.34 130.74 300.944 130.74 318.96C130.74 336.975 158.946 351.58 193.74 351.58Z" stroke="white" stroke-width="0.78" stroke-miterlimit="10"/>
<path d="M193.74 361.3C148.64 361.3 111.95 342.31 111.95 318.96H116.94C116.94 340.88 151.39 358.72 193.74 358.72C236.09 358.72 270.54 340.88 270.54 318.96H275.53C275.53 342.31 238.84 361.3 193.74 361.3Z" fill="black"/>
<path d="M114.45 318.96C114.45 296.29 149.95 277.91 193.74 277.91C237.53 277.91 273.03 296.29 273.03 318.96" stroke="#006E69" stroke-width="3.59" stroke-miterlimit="10"/>
<path d="M192.43 322.55L141.61 318.96L192.43 315.37V322.55Z" fill="white"/>
<path d="M195.06 315.37L245.88 318.96L195.06 322.55V315.37Z" fill="white"/>
<path d="M197.33 319.64L193.74 345.95L190.15 319.64H197.33Z" fill="white"/>
<path d="M190.15 318.28L193.74 291.97L197.33 318.28H190.15Z" fill="white"/>
<path d="M191.87 320.93L166.9 305.06L194.27 316.29L191.87 320.93Z" fill="white"/>
<path d="M195.62 316.99L220.59 332.86L193.22 321.63L195.62 316.99Z" fill="white"/>
<path d="M194.27 321.63L166.9 332.86L191.87 316.99L194.27 321.63Z" fill="white"/>
<path d="M193.22 316.29L220.59 305.06L195.62 320.93L193.22 316.29Z" fill="white"/>
<path d="M197.59 322.02L145.93 346.29L187.49 317.28L197.59 322.02Z" fill="black"/>
<path d="M189.89 315.9L241.56 291.62L200 320.64L189.89 315.9Z" fill="#006E69"/>
<path d="M193.74 323.58C198.666 323.58 202.66 321.512 202.66 318.96C202.66 316.408 198.666 314.34 193.74 314.34C188.814 314.34 184.82 316.408 184.82 318.96C184.82 321.512 188.814 323.58 193.74 323.58Z" fill="#878787"/>
<path d="M201.12 287.26C201.12 289.37 197.82 291.08 193.74 291.08C189.66 291.08 186.36 289.37 186.36 287.26C186.36 285.15 193.74 280.47 193.74 280.47C193.74 280.47 201.12 285.15 201.12 287.26Z" fill="#006D68"/>
<path d="M193.74 291.08V284.34" stroke="#AECC53" stroke-width="0.78" stroke-linecap="round" stroke-linejoin="round"/>
<path d="M119.7 318.96H130.24" stroke="white" stroke-width="1.17" stroke-linecap="round" stroke-linejoin="round"/>
<path d="M257.25 318.96H267.79" stroke="white" stroke-width="1.17" stroke-linecap="round" stroke-linejoin="round"/>
<path d="M193.74 205.58C198.749 205.58 202.81 201.519 202.81 196.51C202.81 191.501 198.749 187.44 193.74 187.44C188.731 187.44 184.67 191.501 184.67 196.51C184.67 201.519 188.731 205.58 193.74 205.58Z" fill="#AECC53"/>
<path d="M239.28 194.74C238.59 193.32 222.08 160.21 193.74 160.21C165.4 160.21 148.89 193.33 148.2 194.74C147.91 195.33 147.78 195.96 147.79 196.6C147.78 197.23 147.91 197.87 148.2 198.46C148.89 199.87 165.41 232.99 193.74 232.99C222.07 232.99 238.59 199.87 239.28 198.46C239.56 197.87 239.7 197.24 239.69 196.6C239.7 195.97 239.57 195.33 239.28 194.75V194.74ZM193.75 224.9C174.35 224.9 160.81 204.31 156.73 197.25C156.65 197.05 156.56 196.83 156.43 196.6C156.56 196.37 156.65 196.15 156.73 195.95C160.8 188.89 174.35 168.3 193.75 168.3C213.15 168.3 226.74 188.97 230.79 195.99C230.86 196.18 230.96 196.39 231.07 196.61C230.95 196.83 230.86 197.03 230.79 197.23C226.74 204.25 213.18 224.92 193.75 224.92V224.9Z" fill="white"/>
<path d="M349.35 211.17L331.13 156.69L385.61 174.91L349.35 211.17Z" fill="#003834"/>
<path d="M364.942 178.838L353.275 190.505L376.157 213.387L387.824 201.72L364.942 178.838Z" fill="#003834"/>
<path d="M357.12 295.79H310.29V328.22H357.12V295.79Z" fill="#007872"/>
<path d="M333.71 332.12C346.645 332.12 357.13 330.374 357.13 328.22C357.13 326.066 346.645 324.32 333.71 324.32C320.776 324.32 310.29 326.066 310.29 328.22C310.29 330.374 320.776 332.12 333.71 332.12Z" fill="#007872"/>
<path d="M333.71 298.73C346.645 298.73 357.13 296.984 357.13 294.83C357.13 292.676 346.645 290.93 333.71 290.93C320.776 290.93 310.29 292.676 310.29 294.83C310.29 296.984 320.776 298.73 333.71 298.73Z" fill="#003834"/>
<path d="M356.7 259.36C358.69 259.02 360.29 257.42 360.5 255.32C360.76 252.8 358.92 250.54 356.4 250.29C353.88 250.03 351.62 251.87 351.37 254.39C351.22 255.86 351.79 257.22 352.79 258.17C349.9 265.15 343.36 270.08 335.75 270.84V251.34C340.97 250.71 345.62 247.69 348.38 243.29C350.57 243.25 352.48 241.64 352.82 239.4C353.2 236.89 351.48 234.55 348.97 234.17C346.46 233.79 344.12 235.51 343.74 238.02C343.54 239.32 343.92 240.57 344.67 241.54C342.62 244.56 339.39 246.66 335.75 247.24V228.19C337.26 227.44 338.31 225.89 338.31 224.09C338.31 221.55 336.25 219.5 333.72 219.5C331.19 219.5 329.13 221.56 329.13 224.09C329.13 225.89 330.18 227.43 331.69 228.19V247.25C328.05 246.67 324.8 244.57 322.75 241.54C323.5 240.58 323.88 239.33 323.68 238.02C323.3 235.51 320.95 233.79 318.45 234.17C315.95 234.55 314.22 236.9 314.6 239.4C314.94 241.64 316.85 243.24 319.04 243.29C321.8 247.7 326.46 250.71 331.68 251.34V270.84C324.07 270.09 317.52 265.15 314.63 258.17C315.62 257.22 316.2 255.86 316.05 254.39C315.79 251.87 313.54 250.03 311.02 250.29C308.5 250.55 306.66 252.8 306.92 255.32C307.13 257.42 308.74 259.03 310.72 259.36C314.15 268.03 322.27 274.15 331.69 274.93V294.75H335.76V274.93C345.17 274.15 353.28 268.03 356.71 259.36H356.7Z" fill="#AECC53"/>
</svg>
