<svg xmlns="http://www.w3.org/2000/svg" width="26" height="24" fill="none" viewBox="0 0 26 24"><path fill="#a5c352" d="M14.903 23.4H1.3v-4.18c0-3.813 3.051-6.895 6.827-6.895s6.827 3.082 6.827 6.895v4.18z"/><path stroke="#003834" stroke-linecap="round" stroke-miterlimit="10" stroke-width=".529" d="M11.851 8.93c.776-.521 1.448-1.2 1.862-2.036.517-1.097.414-2.56-.517-3.395a3.3 3.3 0 0 0-.724-.418 1.13 1.13 0 0 0-.724-.105c-.362.052-1.035.366-1.138.784-.052.313.258.783.569.522.517-.47.362-1.358 0-1.88-.362-.523-1.035-.94-1.655-1.097-.983-.262-2.328-.053-2.897.835-.362.47-.569.993-.517 1.62.052.47.569.783.88.26.258-.521-.57-.835-.932-.887-1.706-.261-2.69 1.776-2.586 3.238.104 1.097.776 2.09 1.604 2.717"/><path fill="#006d68" d="M8.489 11.595c2 0 3.62-1.637 3.62-3.657s-1.62-3.656-3.62-3.656-3.62 1.637-3.62 3.656 1.62 3.657 3.62 3.657"/><path stroke="#003834" stroke-linecap="round" stroke-miterlimit="10" stroke-width=".529" d="M13.506 7.207h11.43v13.53H14.902"/><path stroke="#003834" stroke-linecap="round" stroke-miterlimit="10" stroke-width=".529" d="m10.35 17.236 3.104-4.074 4.241 4.492 3.362-5.328"/><path fill="#003834" d="m21.47 13.214.88-2.977-2.224 2.141z"/></svg>