<svg xmlns="http://www.w3.org/2000/svg" width="105" height="33" fill="none" viewBox="0 0 105 33"><path fill="#828282" d="M16.442 23.6c-2.162-.803-4.387-.927-6.426-.371-1.421.37-2.78 1.112-4.017 2.04l-.865.74-.247.248.556.494c.062 0 .062.062.124.124.123.123.247.185.432.309l.371.247.37-.309c.063-.062.186-.185.31-.247 1.112-.927 2.348-1.545 3.646-1.854 1.668-.433 3.46-.37 5.252.309 1.483.556 4.511 1.236 8.157-.309l.123-.062.186-.185c0-.062.062-.062.123-.124.31-.37.618-.741.866-1.174l1.235-1.915-1.977 1.112c-2.904 1.607-5.561 1.916-8.219.927m-8.465-6.674c1.668-.432 3.46-.37 5.252.31 1.978.74 7.045 1.791 12.73-3.338l1.236-1.235-.124-.31a7 7 0 0 0-.309-.864l-.309-.866-.618.618c-.062.124-.185.186-.309.31-2.719 2.78-6.92 5.623-11.74 3.892-2.163-.803-4.388-.927-6.427-.37-1.977.556-3.708 1.606-5.314 3.09V18.1l-.927.99c0 .06-.062.06-.124.123l-.185.185.062.247c.062.31.185.618.247.927l.37.989.619-.803c.061-.124.185-.186.247-.31 1.297-1.174 3.09-2.842 5.623-3.522"/><path fill="#828282" d="M1.983 15.814c1.421-1.483 3.028-2.41 4.758-2.904 1.669-.433 3.46-.371 5.253.309 5.561 2.039 10.38-1.298 12.482-3.09l.803-.803.31-.248-.248-.37c-.185-.186-.309-.433-.494-.68l-.371-.494-.433.432-.247.247c-2.595 2.472-6.612 5.006-11.184 3.275-2.163-.803-4.388-.927-6.427-.37-1.298.37-2.534.988-3.77 1.792l-1.297 1.05-.309.309-.124.124v.185c-.061.433-.061.865-.123 1.236L.5 17.359l1.05-1.113c.124-.123.248-.309.433-.432m16.252 11.988c-.186-.062-.309-.124-.494-.186-2.163-.803-4.388-.927-6.427-.37-.432.123-.865.247-1.298.432l-1.483.68-.37.185 1.235.433 1.113.37.185.062.186-.061c.185-.062.37-.186.556-.186.123 0 .247-.062.37-.123 1.483-.371 3.09-.371 4.82.185.186.062.31.124.495.185l.309.124.185-.062c.432-.123.927-.247 1.298-.432l1.73-.618-1.792-.433c-.186-.062-.433-.123-.618-.185M27.69 15.01l-.927.928-.371.37c-2.534 2.41-6.612 5.006-11.185 3.275-2.163-.803-4.387-.927-6.426-.37-1.916.556-3.646 1.544-5.19 3.027l-.804.866-.247.308.247.371c.185.247.309.433.432.68l.371.556.433-.556.247-.247c1.483-1.607 3.09-2.596 4.943-3.09 1.669-.432 3.46-.37 5.253.31 1.545.555 3.151.74 4.758.555 2.842-.309 5.685-1.915 7.786-3.707.123-.124.247-.186.37-.31l.186-.185v-.185c0-.37.062-.803.062-1.174z"/><path fill="#828282" d="M4.207 9.326c.37-.186.803-.31 1.174-.433 1.669-.432 3.46-.37 5.253.31 1.174.432 2.348.617 3.645.617 2.596 0 5.191-.927 7.601-2.719l1.236-.989-.556-.432a2.7 2.7 0 0 0-.68-.494l-.37-.248-.31.248c-.123.061-.185.185-.309.247-3.275 2.471-6.55 3.151-9.64 1.977-2.224-.803-4.449-.989-6.673-.309-.186.062-.37.124-.618.186l-.124.061-.185.186c0 .062-.062.062-.124.123-.247.371-.556.68-.803 1.05L1.55 10.5l1.916-.989c.309 0 .556-.123.741-.185m5.068-4.202.185.061c.803.31 2.04.618 3.584.618 1.607 0 3.151-.37 4.696-.988l1.916-.927-1.298-.433c-.37-.123-.741-.247-1.174-.309H17l-.185.062c-.186.062-.371.185-.557.247-1.854.68-3.707.804-5.5.31l-.555-.186-.186-.062-.185.062a8 8 0 0 0-1.112.432l-1.422.618 1.483.433c.124-.062.31 0 .495.062"/><path fill="#0e0e0e" d="M90.734 9.493q-.422-.423-1.065-.423-.642 0-1.082.423-.423.403-.423 1.027t.423 1.046q.44.423 1.082.423t1.065-.423a1.42 1.42 0 0 0 .422-1.046q0-.624-.422-1.027M69.961 19.789q-.698-.588-.77-1.542l-2.698-.037q.018 1.23.697 2.22.68.993 1.872 1.56 1.21.552 2.753.552 1.43 0 2.57-.533 1.155-.532 1.798-1.45a3.64 3.64 0 0 0 .642-2.11q0-1.212-.55-1.927a3.1 3.1 0 0 0-1.414-1.083q-.88-.367-2.165-.606a26 26 0 0 1-1.872-.403q-.606-.184-.936-.46-.33-.293-.33-.807 0-.715.55-1.101.55-.385 1.468-.385.991 0 1.597.513.606.495.697 1.322h2.698a3.56 3.56 0 0 0-.679-2.074q-.642-.918-1.78-1.432-1.119-.531-2.533-.532-1.376 0-2.477.514-1.083.496-1.707 1.377a3.45 3.45 0 0 0-.606 2q0 1.23.532 1.982.55.735 1.413 1.12.863.366 2.13.605 1.284.258 1.89.44.624.166.954.478.35.294.349.808 0 .733-.624 1.156-.606.404-1.579.404-1.174 0-1.89-.57"/><path fill="#0e0e0e" fill-rule="evenodd" d="m39.185 9.584-4.698 12.847h2.844l.992-2.808h4.882l.99 2.808h2.955L42.49 9.584zm-.128 7.819 1.688-4.882 1.707 4.882z" clip-rule="evenodd"/><path fill="#0e0e0e" d="M83.285 12.888q1.67 0 2.735 1.028 1.083 1.028 1.083 3.395v5.12h-2.588v-5.01q0-1.174-.477-1.78-.477-.624-1.432-.624-.99 0-1.56.679-.55.68-.55 1.89v4.845h-2.588V9.584h2.588v4.57q1.046-1.266 2.79-1.266m12.298-.33q0-.404.183-.588.184-.183.588-.183h1.596V9.584h-2.11q-1.413 0-2.13.68-.715.66-.715 1.908v.826h-1.56v2.184h1.56v7.25h2.588v-7.25h4.089v7.25h2.587v-7.25h2.038v-2.184h-2.038V9.584h-2.587v3.414h-4.09zm-4.63.44h-2.588v9.433h2.588zM50.348 9.584H47.76v12.847h2.588zm2.042 3.414h-1.56v2.184h1.56v7.25h2.588v-7.25h2.037v-2.184h-2.037V9.584H52.39zm7.98 8.259h2.348v-2.863h2.862v-2.35h-2.862v-2.863h-2.35v2.864h-2.863v2.349h2.863v2.863z"/></svg>