<svg xmlns="http://www.w3.org/2000/svg" width="145" height="33" fill="none" viewBox="0 0 145 33"><path fill="#d1d1d1" fill-rule="evenodd" d="M3.4 19.337c.614.61.614 1.598 0 2.208l-.03.031c-.614.61-1.608.61-2.221 0a1.555 1.555 0 0 1 0-2.208l.031-.031a1.577 1.577 0 0 1 2.22 0" clip-rule="evenodd"/><path fill="#aaa" fill-rule="evenodd" d="M10.784 19.807c.612.611.61 1.6-.004 2.208l-4.35 4.31a1.577 1.577 0 0 1-2.221-.005 1.555 1.555 0 0 1 .004-2.208l4.35-4.309a1.577 1.577 0 0 1 2.22.004" clip-rule="evenodd"/><path fill="#d1d1d1" fill-rule="evenodd" d="M16.687 27.225a1.576 1.576 0 0 1 2.177-.433l.095.063c.721.478.916 1.447.435 2.165a1.576 1.576 0 0 1-2.177.433l-.095-.063a1.556 1.556 0 0 1-.435-2.165" clip-rule="evenodd"/><path fill="#aaa" fill-rule="evenodd" d="M27.05 19.243c.614.61.614 1.598 0 2.208l-2.135 2.124c-.613.61-1.608.61-2.22 0a1.555 1.555 0 0 1 0-2.209l2.135-2.123a1.577 1.577 0 0 1 2.22 0" clip-rule="evenodd"/><path fill="#969696" fill-rule="evenodd" d="M27.082 11.39c.613.61.613 1.598 0 2.208L11.3 29.288c-.613.61-1.608.61-2.22 0a1.555 1.555 0 0 1 0-2.207L24.86 11.39a1.577 1.577 0 0 1 2.221 0m-2.983-4.825c.613.61.613 1.599 0 2.208l-9.077 9.025c-.613.61-1.607.61-2.22 0a1.555 1.555 0 0 1 0-2.208l9.076-9.025a1.577 1.577 0 0 1 2.22 0m-4.79-3.061c.614.61.614 1.598.001 2.208L7.641 17.328a1.577 1.577 0 0 1-2.221.002 1.555 1.555 0 0 1-.002-2.208L17.086 3.506a1.577 1.577 0 0 1 2.22-.002" clip-rule="evenodd"/><path fill="#aaa" fill-rule="evenodd" d="M7.752 7.223c.613.61.611 1.6-.003 2.208l-4.57 4.528a1.577 1.577 0 0 1-2.221-.004c-.612-.61-.61-1.6.004-2.208l4.57-4.528a1.577 1.577 0 0 1 2.22.004" clip-rule="evenodd"/><path fill="#d1d1d1" fill-rule="evenodd" d="M10.551 2.704c.868 0 1.57.7 1.57 1.562v.156c0 .862-.702 1.561-1.57 1.561-.867 0-1.57-.699-1.57-1.561v-.156c0-.863.703-1.562 1.57-1.562" clip-rule="evenodd"/><path fill="#0e0e0e" d="M45.291 16.067c.457.62.694 1.387.694 2.264 0 .766-.2 1.442-.584 2.044a3.85 3.85 0 0 1-1.625 1.424c-.693.346-1.478.51-2.354.51h-7.12V7.89h6.645c1.369 0 2.446.347 3.25 1.041.784.694 1.186 1.606 1.186 2.756 0 .767-.183 1.442-.548 1.99-.365.547-.876.95-1.515 1.168.84.183 1.497.603 1.971 1.223m-8.14-2.245h2.865c.84 0 1.46-.11 1.862-.365.401-.256.602-.639.602-1.168 0-.548-.219-.968-.639-1.242-.42-.255-1.058-.401-1.916-.401H37.15zm5.256 5.312c.42-.274.64-.694.64-1.278 0-.53-.22-.931-.621-1.187-.402-.255-1.04-.383-1.899-.383H37.15v3.267h3.304c.876 0 1.515-.127 1.953-.42m5.081-7.959c-.328-.328-.493-.73-.493-1.241q0-.712.493-1.205c.329-.31.73-.474 1.241-.474.493 0 .895.164 1.223.474q.493.493.493 1.205c0 .493-.164.894-.493 1.223s-.73.493-1.223.493c-.51 0-.912-.146-1.24-.475m-.128 1.643h2.72v9.492h-2.72zm6.266 9.145a4.6 4.6 0 0 1-1.79-1.807c-.437-.767-.638-1.625-.638-2.61 0-.968.2-1.826.639-2.592.42-.767 1.022-1.351 1.789-1.79.766-.419 1.642-.638 2.628-.638s1.862.219 2.629.639a4.7 4.7 0 0 1 1.788 1.789c.439.766.658 1.624.658 2.592 0 .985-.22 1.843-.657 2.61a4.77 4.77 0 0 1-1.808 1.807c-.766.438-1.642.639-2.61.639-.986 0-1.862-.2-2.628-.639m4.326-2.464c.438-.511.657-1.15.657-1.953 0-.785-.22-1.424-.657-1.935-.438-.493-1.004-.749-1.698-.749s-1.241.256-1.68.749c-.437.51-.656 1.15-.656 1.935 0 .803.219 1.442.657 1.953.438.51.986.766 1.68.766q1.04 0 1.697-.766m5.411 2.227c-.821-.584-1.241-1.406-1.26-2.446h2.684c0 .456.2.803.566 1.058q.548.384 1.424.384c.492 0 .894-.091 1.186-.31.292-.22.456-.475.456-.767 0-.347-.182-.584-.547-.73-.365-.128-.913-.256-1.68-.365q-1.205-.165-1.97-.384a2.83 2.83 0 0 1-1.333-.821q-.548-.603-.548-1.698c0-.949.383-1.716 1.187-2.281.803-.548 1.898-.84 3.285-.84 1.26 0 2.264.31 3.03.913.767.602 1.187 1.423 1.278 2.464h-2.665c-.037-.457-.2-.822-.511-1.095-.329-.256-.749-.402-1.296-.402-.511 0-.895.11-1.168.31a.97.97 0 0 0-.42.822c0 .328.164.566.51.693.348.146.895.256 1.625.329.804.11 1.479.256 2.008.402.511.146.968.438 1.351.84.365.4.566.985.566 1.752 0 .949-.402 1.679-1.186 2.227q-1.177.82-3.231.82-2.137 0-3.34-.875"/><path fill="#0e0e0e" d="M71.847 23.57h.931q.876.027 1.424-.22c.347-.164.675-.456.986-.894l-4.29-9.638h2.848l2.847 6.334 2.373-6.334h2.83l-3.87 10.185c-.475 1.114-1.096 1.88-1.88 2.319-.785.438-1.79.639-3.03.639h-1.169zM82.25 12.818h2.7v1.369c.33-.511.75-.93 1.297-1.223q.82-.438 1.916-.438c2.337 0 3.523 1.479 3.523 4.417v5.367h-2.738v-5.22c0-.694-.164-1.224-.493-1.625q-.492-.603-1.369-.603c-.657 0-1.186.238-1.57.712-.383.475-.565 1.095-.565 1.88v4.856h-2.702zm14.818 9.565q-1.095 0-1.698-.22c-.42-.145-.73-.4-.913-.784-.2-.383-.292-.931-.273-1.625v-4.472h-2.027l.172-2.464h1.855v-2.556h2.701v2.556h2.483l-.17 2.464h-2.313v3.085c0 .475.018.803.055 1.004a.64.64 0 0 0 .292.456c.146.092.383.128.73.128.256 0 .985-.018 1.404-.055l-.169 2.392a26 26 0 0 1-2.13.09m3.322-14.492h2.701v6.279a3.44 3.44 0 0 1 1.296-1.205q.822-.438 1.917-.438c2.336 0 3.523 1.479 3.523 4.399v5.385h-2.738v-5.257c0-.694-.165-1.223-.493-1.607-.329-.383-.785-.584-1.369-.584-.657 0-1.187.238-1.57.694-.383.475-.566 1.095-.566 1.862v4.892h-2.701zm12.842 14.073a4.56 4.56 0 0 1-1.77-1.807c-.42-.767-.621-1.625-.621-2.61 0-.968.201-1.826.621-2.592a4.5 4.5 0 0 1 1.77-1.79c.749-.419 1.607-.638 2.574-.638.84 0 1.588.219 2.264.62.675.402 1.204.986 1.606 1.735.383.766.584 1.624.584 2.61v.876h-6.663c.055.639.274 1.132.639 1.497s.895.53 1.588.53c.457 0 .84-.11 1.132-.33a1.37 1.37 0 0 0 .548-.839h2.701c-.146 1.022-.639 1.844-1.442 2.464s-1.789.913-2.957.913c-.967 0-1.825-.2-2.574-.639m4.308-5.257c-.036-.548-.201-.986-.529-1.332-.329-.33-.767-.512-1.314-.512-.621 0-1.096.165-1.442.493-.347.329-.566.785-.639 1.351zm4.753 5.02c-.821-.584-1.241-1.406-1.259-2.446h2.683c0 .456.201.803.566 1.058q.548.384 1.424.384c.493 0 .894-.091 1.186-.31.292-.22.457-.475.457-.767 0-.347-.183-.584-.548-.73-.365-.128-.913-.256-1.679-.365q-1.205-.165-1.972-.384a2.83 2.83 0 0 1-1.332-.821q-.548-.603-.548-1.698c0-.949.384-1.716 1.187-2.281.803-.548 1.898-.84 3.285-.84 1.26 0 2.264.31 3.03.913.767.602 1.187 1.423 1.278 2.464h-2.665c-.036-.457-.201-.822-.511-1.095-.329-.256-.748-.402-1.296-.402-.511 0-.894.11-1.168.31a.97.97 0 0 0-.42.822c0 .328.164.566.511.693.347.146.895.256 1.625.329a16 16 0 0 1 2.008.402 3 3 0 0 1 1.35.84c.365.4.566.985.566 1.752 0 .949-.401 1.679-1.186 2.227q-1.177.82-3.231.82-2.136 0-3.341-.875m8.998-10.551c-.328-.328-.493-.73-.493-1.241q0-.712.493-1.205c.329-.31.73-.474 1.242-.474.492 0 .894.164 1.222.474q.493.493.493 1.205c0 .493-.164.894-.493 1.223s-.73.493-1.222.493c-.512 0-.913-.146-1.242-.475m-.128 1.643h2.72v9.492h-2.72zm11.597 8.908c.821-.584 1.241-1.406 1.259-2.446h-2.683c0 .456-.201.803-.566 1.058q-.547.384-1.424.384c-.492 0-.894-.091-1.186-.31-.292-.22-.456-.475-.456-.767 0-.347.182-.584.547-.73.365-.128.913-.256 1.68-.365q1.204-.165 1.971-.384c.511-.146.967-.42 1.332-.821q.548-.603.548-1.698c0-.949-.383-1.716-1.186-2.281-.804-.548-1.899-.84-3.286-.84-1.26 0-2.263.31-3.03.913-.767.602-1.187 1.423-1.278 2.464h2.665c.037-.457.201-.822.511-1.095.329-.256.749-.402 1.296-.402.511 0 .895.11 1.168.31a.97.97 0 0 1 .42.822c0 .328-.164.566-.511.693-.347.146-.894.256-1.624.329a16 16 0 0 0-2.008.402 3 3 0 0 0-1.351.84c-.365.4-.566.985-.566 1.752 0 .949.402 1.679 1.187 2.227q1.177.82 3.23.82 2.136 0 3.341-.875"/></svg>