<svg xmlns="http://www.w3.org/2000/svg" width="106" height="33" fill="none" viewBox="0 0 106 33"><path fill="#828282" fill-rule="evenodd" d="M14.048 29.806c7.483 0 13.549-6.065 13.549-13.548S21.53 2.71 14.048 2.71.5 8.775.5 16.258s6.066 13.548 13.548 13.548m4.227-20.785c.206-.73-.503-1.163-1.151-.701l-9.042 6.44c-.702.501-.592 1.498.166 1.498h2.381v-.018h4.64l-3.78 1.334-1.667 5.921c-.206.73.503 1.163 1.15.701l9.042-6.44c.703-.5.592-1.498-.166-1.498h-3.61z" clip-rule="evenodd"/><path fill="#0e0e0e" d="M87.885 11.43q.455.416 1.1.417.663 0 1.1-.418.436-.417.436-1.1t-.436-1.1-1.1-.417q-.645 0-1.1.417-.437.417-.437 1.1t.437 1.1"/><path fill="#0e0e0e" fill-rule="evenodd" d="M42.489 21.937q-.892.418-2.086.418H34.37V9.077h5.956q1.213 0 2.105.418.91.397 1.404 1.157.512.74.512 1.783v.19q0 .91-.341 1.498-.342.57-.816.891a3.5 3.5 0 0 1-.873.437v.34q.418.115.91.437.495.304.835.892.36.588.36 1.536v.19q0 1.1-.511 1.896a3.3 3.3 0 0 1-1.423 1.195m-1.062-4.722q-.493-.399-1.328-.399h-3.224v3.263h3.224q.816 0 1.309-.399.512-.398.512-1.138v-.19q0-.74-.493-1.137m-.076-5.463q-.493-.399-1.29-.399h-3.186v3.187h3.186q.778 0 1.271-.398.512-.4.512-1.1v-.19q0-.72-.493-1.1m8.72 10.868q-1.403 0-2.522-.569a4.27 4.27 0 0 1-1.764-1.65q-.645-1.08-.645-2.599V17.5q0-1.518.645-2.599a4.27 4.27 0 0 1 1.764-1.65q1.12-.57 2.522-.569 1.404 0 2.523.57 1.119.569 1.764 1.65t.645 2.598v.303q0 1.518-.645 2.6a4.27 4.27 0 0 1-1.764 1.65q-1.119.568-2.523.568m0-2.124q1.1 0 1.821-.702.72-.72.721-2.048v-.19q0-1.328-.72-2.03-.703-.72-1.822-.72-1.1 0-1.82.72-.721.702-.721 2.03v.19q0 1.328.72 2.048.721.702 1.821.702" clip-rule="evenodd"/><path fill="#0e0e0e" d="M63.953 22.355q-.93 0-1.517-.57-.57-.587-.569-1.555v-5.31h-2.352v-1.973h2.352v-2.921h2.39v2.92h2.58v1.973h-2.58v4.894q0 .57.531.57h1.82v1.972zm4.99-.531q1.177.796 3.016.796 1.802 0 2.864-.796 1.08-.816 1.081-2.296 0-.985-.512-1.555-.493-.588-1.366-.891a11 11 0 0 0-1.915-.512l-.532-.095q-.644-.114-1.024-.323a.75.75 0 0 1-.38-.683q0-.417.361-.644.36-.247 1.043-.247t1.139.303q.474.304.626 1.025l2.219-.683q-.322-1.138-1.366-1.84-1.043-.702-2.618-.702-1.668 0-2.693.759-1.024.74-1.024 2.143 0 .93.493 1.518.493.587 1.309.93.815.321 1.802.511l.53.095q.836.152 1.215.398a.73.73 0 0 1 .38.664q0 .437-.4.74-.398.285-1.232.285-.55 0-1.024-.152a1.87 1.87 0 0 1-.778-.55q-.303-.379-.436-1.043l-2.2.569q.246 1.48 1.422 2.276m11.104-6.279q-.607.72-.607 2.03v4.78h-2.39V9.077h2.39v5.027h.341a2.2 2.2 0 0 1 .475-.607q.323-.304.853-.493.55-.21 1.385-.209 1.1 0 1.915.512.835.493 1.29 1.385.456.872.456 2.048v5.615h-2.39V16.93q0-1.063-.531-1.593-.513-.531-1.48-.531-1.1 0-1.707.74m21.047 6.24q-.569-.587-.569-1.556v-5.31h-4.7v7.435h-2.39v-7.436h-2.39v-1.972h2.39v-1.745q0-.967.57-1.537.587-.588 1.517-.588h2.465v1.973h-1.63q-.532 0-.532.569v1.328h4.7v-2.921h2.39v2.92h2.579v1.973h-2.579v4.894q0 .57.531.57h1.821v1.972h-2.656q-.929 0-1.517-.57M87.79 12.947v9.408h2.39v-9.408zm-31.53-3.87v13.278h2.39V9.077z"/></svg>