<svg xmlns="http://www.w3.org/2000/svg" width="128" height="33" fill="none" viewBox="0 0 128 33"><path fill="#a9a9a9" d="M17.368 4.751a5.404 5.404 0 0 0-7.642 0l-7.643 7.643a5.404 5.404 0 0 0 0 7.643l7.643 7.642a5.404 5.404 0 0 0 7.642 0l3.647-3.646a8.11 8.11 0 0 1 .367-15.263l-.192-.198z"/><path fill="#9a9a9a" d="M21.015 24.035a8.1 8.1 0 0 0 2.917.54 8.106 8.106 0 1 0-2.55-15.803c4.028 4.234 3.964 10.933-.192 15.088z"/><path fill="#0e0e0e" d="m47.522 22.293-.985-2.81h-5.089l-1.003 2.81h-2.79l4.924-13.096h3.028l4.888 13.096zM44.02 12.225l-1.788 5.052h3.539zm9.675 10.068h-2.553V9.197h2.553zm11.265-4.87c0 2.882-1.695 5.052-4.322 5.052-1.149 0-2.134-.492-2.863-1.44v4.778h-2.536v-13.26h2.335v1.422c.748-1.04 1.824-1.605 3.064-1.605 2.627 0 4.323 2.19 4.323 5.053m-2.607 0c0-1.824-1.04-2.81-2.28-2.81s-2.28.968-2.28 2.81 1.04 2.79 2.28 2.79 2.28-.93 2.28-2.79m6.037-.438v5.308h-2.535V9.197h2.535v4.633c.675-.894 1.514-1.46 2.79-1.46 1.952 0 3.302 1.277 3.302 3.63v6.293h-2.517v-5.436c0-1.44-.566-2.243-1.715-2.243-1.003 0-1.86.802-1.86 2.37m13.347 5.309v-1.204c-.638.912-1.605 1.386-2.936 1.386-2.025 0-3.375-1.186-3.375-3.01 0-1.896 1.532-2.918 4.378-2.918.547 0 1.021.037 1.623.11v-.584c0-1.094-.62-1.733-1.678-1.733-1.094 0-1.75.639-1.842 1.733h-2.28c.146-2.244 1.77-3.703 4.122-3.703 2.553 0 4.05 1.405 4.05 3.794v6.129zm-3.921-2.9c0 .82.583 1.331 1.532 1.331 1.295 0 2.08-.711 2.08-1.842v-.693a9 9 0 0 0-1.46-.128c-1.441 0-2.152.456-2.152 1.331m16.688 2.901-2.444-9.157-2.444 9.157h-2.809L83.452 9.197h2.7l2.115 8.882 2.408-8.882h2.827l2.335 8.919 2.134-8.92h2.717l-3.374 13.097zm11.868 0v-1.204c-.638.912-1.605 1.386-2.936 1.386-2.025 0-3.374-1.186-3.374-3.01 0-1.896 1.532-2.918 4.377-2.918.547 0 1.021.037 1.623.11v-.584c0-1.094-.62-1.733-1.678-1.733-1.094 0-1.751.639-1.842 1.733h-2.28c.146-2.244 1.769-3.703 4.122-3.703 2.554 0 4.049 1.405 4.049 3.794v6.129zm-3.921-2.9c0 .82.584 1.331 1.532 1.331 1.295 0 2.079-.711 2.079-1.842v-.693a9 9 0 0 0-1.459-.128c-1.441 0-2.152.456-2.152 1.331m15.872-6.839-3.575 9.74h-2.772l-3.593-9.74h2.736l2.316 6.858 2.335-6.858zm4.276 9.904c-2.918 0-4.87-2.025-4.87-5.07 0-2.9 2.025-5.017 4.834-5.017 3.082 0 5.125 2.5 4.669 5.673h-6.913c.165 1.587.931 2.462 2.226 2.462 1.112 0 1.86-.547 2.152-1.514h2.517c-.547 2.207-2.244 3.466-4.615 3.466m-.091-8.226c-1.185 0-1.933.766-2.152 2.207h4.195c-.073-1.35-.839-2.207-2.043-2.207"/></svg>