<svg xmlns="http://www.w3.org/2000/svg" width="53" height="50" fill="none" viewBox="0 0 53 50"><path fill="#006d68" d="M18.81 1.914v1.117a1.92 1.92 0 0 1-1.915 1.915H1.915A1.92 1.92 0 0 0 0 6.86v30.121a1.92 1.92 0 0 0 1.914 1.915h36.838a1.92 1.92 0 0 0 1.915-1.915V1.914A1.92 1.92 0 0 0 38.752 0H20.724a1.92 1.92 0 0 0-1.914 1.914"/><path fill="#a7c553" d="M30.791 13.019v1.116a1.92 1.92 0 0 1-1.914 1.915H13.896a1.92 1.92 0 0 0-1.915 1.914v30.122A1.92 1.92 0 0 0 13.897 50h36.838a1.92 1.92 0 0 0 1.914-1.914V13.019a1.92 1.92 0 0 0-1.914-1.915H32.706a1.92 1.92 0 0 0-1.915 1.915"/><path fill="#fff" d="M47.32 32.753s-6.717 9.573-15.013 9.573-15.013-9.573-15.013-9.573 6.717-9.572 15.013-9.572 15.012 9.572 15.012 9.572"/><path fill="#006d68" d="M32.307 37.923a5.265 5.265 0 1 0 0-10.53 5.265 5.265 0 0 0 0 10.53"/></svg>