<svg xmlns="http://www.w3.org/2000/svg" width="39" height="108" fill="none" viewBox="0 0 39 108"><path fill="#a8c653" d="M37.815 108.003H1.312a.815.815 0 0 1-.808-.808c0-.441.367-.808.808-.808h36.503c.44 0 .808.367.808.808 0 .44-.367.808-.808.808"/><path fill="#a8c653" d="M30.91 107.489a.736.736 0 0 1-.734-.735v-15.13c0-.44.367-.734.734-.734s.735.367.735.734v15.13c0 .368-.367.735-.735.735"/><path fill="#a8c653" d="M30.91 94.488a2.79 2.79 0 1 0 0-5.581 2.79 2.79 0 0 0 0 5.581M8.216 107.341a.736.736 0 0 1-.735-.734v-15.13c0-.441.368-.735.735-.735s.734.367.734.735v15.13c.074.367-.293.734-.734.734"/><path fill="#a8c653" d="M11.08 91.55a2.79 2.79 0 0 0-2.791-2.79 2.79 2.79 0 0 0-2.79 2.79 2.79 2.79 0 0 0 2.79 2.791 2.79 2.79 0 0 0 2.791-2.79m8.226-12.781c-2.644 0-6.61-2.277-10.135-5.876-2.13-2.13-7.051-7.858-6.978-14.248 0-2.791.735-5.582 2.13-8.08.44-.808.955-1.542 1.47-2.276.807-1.102 1.027-2.571.513-3.82a14.2 14.2 0 0 1-1.101-5.508c0-3.232 1.028-6.317 3.011-8.814.955-1.249 1.101-2.791.44-4.186a12.25 12.25 0 0 1-1.321-5.582C7.335 13.916 14.9.622 19.6.622c5.289 0 12.266 13.588 12.266 19.758 0 1.983-.44 3.819-1.322 5.582-.661 1.395-.514 2.937.44 4.186 1.984 2.57 3.012 5.582 3.012 8.814q0 2.865-1.102 5.508c-.514 1.249-.294 2.718.514 3.82 2.35 3.084 3.6 6.683 3.6 10.576-.074 9.842-10.284 19.904-17.702 19.904M5.72 51.3c-1.25 2.204-1.836 4.775-1.91 7.346-.073 4.04 2.424 8.887 6.537 13.073 3.158 3.232 6.83 5.362 9.034 5.362 6.61 0 16.012-9.475 16.012-18.288 0-3.526-1.102-6.831-3.232-9.549-1.175-1.542-1.47-3.672-.735-5.435.661-1.542.955-3.231.955-4.92 0-2.865-.955-5.583-2.718-7.86-1.322-1.689-1.542-4.04-.587-5.875.735-1.47 1.175-3.085 1.175-4.848 0-6.243-6.977-18.142-10.65-18.142-3.158 0-10.65 11.752-10.65 18.142 0 1.69.367 3.305 1.175 4.848a5.51 5.51 0 0 1-.587 5.875c-1.763 2.277-2.718 4.995-2.718 7.86 0 1.689.294 3.378.955 4.92.735 1.763.441 3.893-.734 5.435-.514.661-.955 1.396-1.322 2.057"/><path fill="#a8c653" d="M19.601 107.855a.815.815 0 0 1-.808-.808V15.973c0-.441.367-.808.808-.808.44 0 .808.367.808.808v91.001c0 .514-.367.881-.808.881"/></svg>