<svg xmlns="http://www.w3.org/2000/svg" width="498" height="307" fill="none" viewBox="0 0 498 307"><path fill="#00524f" stroke="#a9c753" stroke-miterlimit="10" stroke-width="2.4" d="M249.81 14.05H2v164.86h247.81z"/><path fill="#fff" stroke="#fff" stroke-miterlimit="10" stroke-width=".71" d="M137.22 129.48c-16.55 6.25-35.04-2.11-41.29-18.66-1.44-3.81-2.1-7.73-2.06-11.58-8.31-2.63-16.91-4.34-25.59-5.63-.89 8.66.15 17.65 3.43 26.36 11.2 29.67 44.14 44.77 73.87 34.03.26-.09 1.31-.49 1.31-.49l-9.15-24.23s-.34.14-.52.21z"/><path fill="#adcb53" stroke="#adcb53" stroke-miterlimit="10" stroke-width=".71" d="M72.1 78.03s-.31.78-.45 1.17c-4.37 11.67-5.02 24.78-1.08 37.45.34 1.11 1.14 3.32 1.14 3.32l24.22-9.14a31.9 31.9 0 0 1-.17-22.16c.12-.33.38-.99.38-.99l-24.03-9.64z"/><path stroke="#c8d3dd" stroke-miterlimit="10" stroke-width="1.42" d="M137.22 129.48c-16.55 6.25-35.04-2.11-41.29-18.66s2.11-35.04 18.66-41.29 35.04 2.11 41.29 18.66-2.11 35.04-18.66 41.29Zm9.14 24.23c-29.81 11.25-63.1-3.79-74.35-33.6s3.79-63.1 33.6-74.35 63.1 3.79 74.35 33.6-3.79 63.1-33.6 74.35Z"/><path fill="#a9c753" d="M144.65 0h-37.5v24.57h37.5z"/><path stroke="#adcb53" stroke-miterlimit="10" stroke-width="2.47" d="M20.72 152.74h47.56m-47.56 9.32h47.56m0-9.32 27.85-17.96"/><path fill="#00524f" d="M331.9 168.83c-5.04-8.28-11.32-16.06-19.06-21.97-1.49-1.13-2.82-1.63-4.01-1.65.13-.33.24-.66.38-.99a41.7 41.7 0 0 0-6.94-5.9c-6.64-4.49-14.66-7.11-23.28-7.11h-61.25c-6.7 0-13.04 1.58-18.65 4.4-4.37 2.19-8.28 5.16-11.6 8.68.18.3.34.61.51.91-2.96 1.11-5.79 3.35-9.08 6.52-3.67 3.53-7.01 7.4-9.89 11.59-27.42 39.97-29.3 94.73-28.41 141.68l35.51-.94v.94h144.51l-.02-1.81 36.14 1.81c.85-44.87-.86-96.73-24.85-136.17z"/><path stroke="#007872" stroke-linecap="round" stroke-linejoin="round" stroke-width="2.14" d="m320.62 305-.82-84.69c-.05-5.2-1.28-10.32-3.62-14.97-5.97-11.83-16.4-38.09-6.98-61.11a41.7 41.7 0 0 0-6.94-5.9 41.46 41.46 0 0 0-23.28-7.11h-61.25c-6.7 0-13.04 1.58-18.65 4.4-4.37 2.19-8.28 5.16-11.6 8.68 10.65 17.54.71 48.32-6.25 61.35-2.57 4.81-3.86 10.2-3.94 15.66l-1.2 83.7"/><path stroke="#007872" stroke-miterlimit="10" stroke-width="2.14" d="M188.15 144.23c-44.5 29.98-48.44 113.25-47.54 160.77M309.2 144.23c44.5 29.98 48.44 113.25 47.54 160.77"/><path fill="gray" d="M243.68 109.5h11.86c6.18 0 11.2 5.02 11.2 11.2v11.01c0 9.46-7.68 17.13-17.13 17.13-9.46 0-17.13-7.68-17.13-17.13V120.7c0-6.18 5.02-11.2 11.2-11.2"/><path stroke="#fff" stroke-linecap="round" stroke-linejoin="round" stroke-width="3.66" d="M266.75 131.71c0 9.42-7.71 17.13-17.13 17.13s-17.13-7.71-17.13-17.13"/><path fill="gray" d="M241 94.96h17.93c4.7 0 8.52 3.82 8.52 8.52v15.82c0 8.28-6.72 15-15 15h-4.95c-8.28 0-15-6.72-15-15v-15.82c0-4.7 3.82-8.52 8.52-8.52z" opacity=".5" style="mix-blend-mode:multiply"/><path fill="gray" d="M249.61 126.84c28.553 0 51.7-23.147 51.7-51.7s-23.147-51.7-51.7-51.7-51.7 23.147-51.7 51.7 23.147 51.7 51.7 51.7"/><path fill="gray" d="M310.761 85.23c4.6-6.977 4.094-15.424-1.13-18.869-5.224-3.444-13.187-.582-17.787 6.394-4.6 6.977-4.094 15.424 1.13 18.869 5.224 3.444 13.187.581 17.787-6.395m-104.507 6.425c5.224-3.444 5.73-11.892 1.13-18.868s-12.564-9.839-17.788-6.394c-5.224 3.444-5.73 11.892-1.13 18.868s12.564 9.839 17.788 6.394"/><path stroke="#545454" stroke-linecap="round" stroke-linejoin="round" stroke-width="1.62" d="M300.65 83.66a6.36 6.36 0 0 0 3.56-3.56c.39-1 .5-2.22-.15-3.09s-2.21-.97-2.7-.01c.18-1.83.96-3.77 2.04-5.25 1.09-1.48 2.97-2.5 4.77-2.12M198.58 83.66a6.36 6.36 0 0 1-3.56-3.56c-.39-1-.5-2.22.15-3.09s2.21-.97 2.7-.01c-.18-1.83-.96-3.77-2.04-5.25-1.09-1.48-2.97-2.5-4.77-2.12"/><path fill="#fff" d="M215.43 32.57c-4.22 2.72-7.54 6.37-10.07 10.28-4.21 6.51-7.28 14.15-6.62 22.06.07.77.31 1.71 1.06 1.89 1.85-3.16 2.11-7.13 3.74-10.45 1.75-3.55 4.02-6.87 6.67-9.82 2.66-2.97 5.77-5.38 9.13-6.84l-3.92-7.11z"/><path fill="#fff" d="M294.83 28.71c2.59 1 5.29 1.26 7.29 3.94.7.94 1.78 2.64 1.97 3.81.08.51.1 3.21-1.06 2.46-.63-.4-.98-1.11-1.53-1.61-1.63-1.51-2.13.2-1.72 1.59 1.03 3.49 2.12 6.96 2.46 10.6.57 6 .9 12.18-2.02 17.75-.14.27-.38.49-.67.58-.92.28-1.4-.79-1.58-1.63-1.71-7.9-4.04-15.07-11.06-19.63-9.2-5.97-20.76-5.96-31.26-4.97-11.14 1.05-22.61 6.25-33.91 4.24-9.3-1.65-18.14-6.87-22.69-15.37-1.17-2.18-2.81-5.7-2.14-8.3 1.14-4.39 5.22.26 7.58 1.39 2.11 1.01 4.88 1.1 7.11.5 1.23-.33 2.39-.83 3.51-1.42 1.14-.59 2.25-1.27 3.35-1.94 3.85-2.35 8.25-5.88 12.91-5.97-1.54.03-3.27-6.72-2.61-7.83 1.02-1.72 2.94.28 4.45.78 2.24.75 4.6 1.23 6.92 1.71 3.39.69 5.95.26 9.32.16 6.1-.18 12.06.74 18.04 1.85-1-2.61.57-5.95 2.84-7.44.18-.12.42-.13.6 0 .3.21.15.64.06.98-.3 1.06.21 2.16.74 3.13 1.91 3.5 5.87 9.56 9.89 10.75.82-3.26 2.66-6.15 6.1-7.2.25-.07.52-.03.71.14.38.34.14.81-.06 1.19-.85 1.62-.97 3.55-.69 5.36.59 3.75 1.63 6.82 4.73 9.11.78.58 1.61.98 2.44 1.3z"/><path fill="#000" d="M234.38 74.28a3.78 3.78 0 1 0 0-7.56 3.78 3.78 0 0 0 0 7.56m47.89 0a3.78 3.78 0 1 0 0-7.56 3.78 3.78 0 0 0 0 7.56"/><path stroke="#003834" stroke-linecap="round" stroke-linejoin="round" stroke-width="1.09" d="M228.82 7.87c.43 3.61 1.98 7.82 5.11 9.91 2.33 1.56 5.14 2.24 7.9 2.77m46.4-9.28c-4.54.83-7.22 7.87-6.11 11.87M270.01 4.27c-1.74 1.47-2.59 3.83-2.56 6.11s.85 4.49 2 6.46m-58.81 11.73c4.99-.53 8.14-2.85 12.01-5.59 3.82-2.71 9.33-3.79 13.92-3.59m-37.11 3.78c1.36 2.84 4.27 4.87 7.41 5.17m40.36-6.45c8.18 1.06 15.11 1.98 22.19 6.64"/><path stroke="#fff" stroke-miterlimit="10" stroke-width="4.1" d="m214.06 62.04 25.1.29m21.85 0 25.1-.29"/><path fill="#fff" d="M267.21 96c-.35.12-.68.2-.77.22-.73.09-1.59-.05-2.15-.56-1.35-1.23-1.93-3.25-3.23-4.57a13.5 13.5 0 0 0-2.48-1.98c-1.87-1.37-4.18-2.01-6.5-2.01h-4.93c-2.32 0-4.62.65-6.5 2.01-.9.56-1.73 1.22-2.48 1.98-1.3 1.32-1.88 3.34-3.23 4.57-.56.5-1.42.65-2.15.56-.1-.01-.42-.09-.77-.22a.968.968 0 0 0-1.28 1.02c.22 1.99 1.61 4.02 3.07 5.09.14.1.28.19.44.28 1.33.75 3.25 1.07 4.68 1.22 2.1.23 9.46-3.44 11.03-3.44 1.34 0 8.24 3.66 10.33 3.44 1.43-.15 3.35-.47 4.68-1.22.16-.09.3-.18.44-.28 1.46-1.07 2.85-3.1 3.07-5.09A.968.968 0 0 0 267.2 96z"/><path stroke="#545454" stroke-linecap="round" stroke-linejoin="round" stroke-width="1.06" d="M201.62 93.69c4.86 9.95 9.35 15.82 15.83 21.5 5.39 4.72 12.3 8.4 19.15 10.55 4.03 1.26 11.19 2.23 15.22.49 4.38-1.89 5.63-8.9.78-10.55-2.46-.84-9-.26-7.99 3.92"/><path stroke="#c3c3c3" stroke-linecap="round" stroke-linejoin="round" stroke-width="2.2" d="M4.4 305h490.43"/><path stroke="#fff" stroke-linecap="round" stroke-linejoin="round" stroke-width="2.22" d="M123 277.49H26.7m96.3 12.92H26.7m96.3-25.5H26.7m96.3-12.57H26.7"/><path fill="#fff" stroke="#fff" stroke-linejoin="round" stroke-width="2.22" d="m33.37 252.34 13.42 15.34 25.99-15.34z"/><path fill="#00524f" stroke="#fff" stroke-linecap="round" stroke-linejoin="round" stroke-width="2.22" d="M355.36 223.15c0 27.36-22.18 49.55-49.55 49.55s-49.55-22.18-49.55-49.55zm141.46 0c0 27.36-22.18 49.55-49.55 49.55s-49.55-22.18-49.55-49.55z"/><path fill="#a9c753" d="M389.51 267.03h-26.52v36.79h26.52z"/><path stroke="#adcb53" stroke-linecap="round" stroke-linejoin="round" stroke-width="2.62" d="M305.03 272.7h142.44"/><path fill="#adcb53" d="M305.52 282.54c-5.44 0-9.84-4.41-9.84-9.84s4.41-9.84 9.84-9.84 9.84 4.41 9.84 9.84-4.41 9.84-9.84 9.84m141.46 0c5.435 0 9.84-4.406 9.84-9.84a9.84 9.84 0 0 0-9.84-9.84c-5.434 0-9.84 4.405-9.84 9.84s4.406 9.84 9.84 9.84"/><path fill="#adcb53" stroke="#adcb53" stroke-linecap="round" stroke-linejoin="round" stroke-width="1.79" d="M344.3 167.33h-76.97v44.51h76.97z"/><path fill="#fff" d="M304.45 202.16v-2.98c-1.94-.06-3.87-.61-4.98-1.35l.83-2.89c1.2.71 2.92 1.35 4.8 1.35s3.26-.95 3.26-2.43c0-1.38-1.08-2.27-3.35-3.11-3.23-1.17-5.32-2.64-5.32-5.5 0-2.64 1.85-4.67 4.95-5.23v-3.01h2.52v2.86c1.94.06 3.26.52 4.24 1.02l-.83 2.83c-.74-.34-2.09-1.05-4.18-1.05s-2.92 1.11-2.92 2.15c0 1.26 1.11 1.97 3.72 3.01 3.44 1.29 4.98 2.95 4.98 5.69s-1.81 4.92-5.2 5.47v3.17z"/><path stroke="#fff" stroke-miterlimit="10" stroke-width="1.75" d="M305.81 206.24c9.201 0 16.66-7.459 16.66-16.66s-7.459-16.66-16.66-16.66-16.66 7.459-16.66 16.66 7.459 16.66 16.66 16.66Z"/><path stroke="#adcb53" stroke-linecap="round" stroke-linejoin="round" stroke-width="1.79" d="m494.86 132.69-92.39.3v78.37h92.39z"/><path fill="#a8c653" stroke="#a8c653" stroke-miterlimit="10" stroke-width="1.96" d="M494.86 125.63h-92.39v9.92h92.39z"/><path stroke="#adcb53" stroke-linecap="round" stroke-linejoin="round" stroke-width="1.79" d="M437.9 165.72c0 5.95 4.82 10.77 10.77 10.77s10.77-4.82 10.77-10.77c0-4.01-4.9-12.88-8.09-18.21-1.21-2.02-4.14-2.02-5.34 0-3.19 5.34-8.09 14.2-8.09 18.21zm10.76-5.64v21.94"/><path fill="#adcb53" d="M445.98 160.22a2.69 2.69 0 1 1 5.382.002 2.69 2.69 0 0 1-5.382-.002"/><path stroke="#adcb53" stroke-linecap="round" stroke-linejoin="round" stroke-width="1.79" d="m430.13 159.93-10.24 7.55 10.24 7.55m37.07-15.1 10.24 7.55-10.24 7.55m-2.27 19.89h12.19m-40.36 0h22.33m-38.88 0h9.9"/></svg>