<svg width="483" height="283" viewBox="0 0 483 283" fill="none" xmlns="http://www.w3.org/2000/svg">
<path d="M406.86 104.208H375.74V135.328H406.86V104.208Z" fill="#006D68" stroke="#006D68" stroke-width="2.32" stroke-linecap="round" stroke-linejoin="round"/>
<path d="M406.86 73.0884H375.74V104.208H406.86V73.0884Z" stroke="#A5C352" stroke-width="1.86" stroke-linecap="round" stroke-linejoin="round"/>
<path d="M391.3 95.2184C394.928 95.2184 397.87 92.2769 397.87 88.6484C397.87 85.0199 394.928 82.0784 391.3 82.0784C387.671 82.0784 384.73 85.0199 384.73 88.6484C384.73 92.2769 387.671 95.2184 391.3 95.2184Z" fill="white"/>
<path d="M458.294 72.9424L433.401 54.266L414.724 79.1587L439.617 97.8351L458.294 72.9424Z" stroke="white" stroke-width="2.19" stroke-linecap="round" stroke-linejoin="round"/>
<path d="M437.98 104.208H406.86V135.328H437.98V104.208Z" stroke="#A5C352" stroke-width="1.86" stroke-linecap="round" stroke-linejoin="round"/>
<path d="M422.404 110.473L413.113 119.764L422.404 129.056L431.695 119.764L422.404 110.473Z" fill="#A5C352"/>
<path d="M178.74 254.578H45.26V189.438C45.26 152.578 75.14 122.698 112 122.698C148.86 122.698 178.74 152.578 178.74 189.438V254.578Z" stroke="white" stroke-width="0.92" stroke-miterlimit="10"/>
<path d="M50.3099 252.008H56.0599C66.7411 252.008 75.3999 243.349 75.3999 232.668L75.3999 160.588C75.3999 149.907 66.7411 141.248 56.0599 141.248H50.3099C39.6287 141.248 30.9699 149.907 30.9699 160.588L30.9699 232.668C30.9699 243.349 39.6287 252.008 50.3099 252.008Z" fill="#01524F" stroke="white" stroke-width="0.92" stroke-miterlimit="10"/>
<path d="M133.19 152.258L109.83 208.028L86.47 152.258C81.07 139.358 87.15 124.528 100.05 119.118C120.91 110.338 141.89 131.688 133.19 152.258Z" fill="#ACCA53"/>
<path d="M97.8501 112.468H121.82V124.448C121.82 131.058 116.45 136.428 109.84 136.428C103.23 136.428 97.8601 131.058 97.8601 124.448V112.468H97.8501Z" fill="#777777"/>
<path d="M109.84 115.098C139.531 115.098 163.6 91.0291 163.6 61.3382C163.6 31.6474 139.531 7.57825 109.84 7.57825C80.1493 7.57825 56.0801 31.6474 56.0801 61.3382C56.0801 91.0291 80.1493 115.098 109.84 115.098Z" fill="#999999"/>
<path d="M109.84 7.56836C106.26 7.56836 102.77 7.91836 99.39 8.58836C83.31 17.8784 72.48 35.2584 72.48 55.1684C72.48 84.8584 96.55 108.928 126.24 108.928C129.82 108.928 133.31 108.578 136.69 107.908C152.77 98.6184 163.6 81.2384 163.6 61.3284C163.6 31.6384 139.53 7.56836 109.84 7.56836Z" fill="#999999"/>
<path d="M56.07 61.3383C50.77 38.5783 65.32 14.1883 86.48 4.9783C108.67 -5.1317 136.22 0.448303 152.11 19.0683C162.07 30.5083 167.03 46.6983 163.6 61.3483C161.91 54.3183 159.44 47.8883 156.03 42.2183C128.37 -2.29169 67.07 11.1283 56.08 61.3483L56.07 61.3383Z" fill="white"/>
<path d="M88.9799 59.4583C88.9799 61.6283 87.2199 63.3883 85.0499 63.3883C82.8799 63.3883 81.1199 61.6283 81.1199 59.4583C81.1199 57.2883 82.8799 55.5283 85.0499 55.5283C87.2199 55.5283 88.9799 57.2883 88.9799 59.4583Z" fill="black"/>
<path d="M142.88 59.4583C142.88 61.6283 141.12 63.3883 138.95 63.3883C136.78 63.3883 135.02 61.6283 135.02 59.4583C135.02 57.2883 136.78 55.5283 138.95 55.5283C141.12 55.5283 142.88 57.2883 142.88 59.4583Z" fill="black"/>
<path d="M56.0699 61.3382C56.0699 57.9782 56.3799 54.6982 56.9699 51.5082C53.5999 50.2782 50.1499 50.4182 47.4099 52.2282C41.9799 55.8082 41.4499 64.5982 46.2299 71.8482C49.6199 76.9882 54.7599 79.9682 59.3999 80.0082C57.2499 74.1882 56.0699 67.9082 56.0699 61.3382Z" fill="#7C7C7C"/>
<path d="M172.26 52.2282C169.53 50.4282 166.07 50.2882 162.7 51.5082C163.29 54.6982 163.6 57.9782 163.6 61.3382C163.6 67.8982 162.42 74.1882 160.27 80.0082C164.91 79.9682 170.05 76.9882 173.44 71.8482C178.22 64.5982 177.7 55.8082 172.26 52.2282Z" fill="#999999"/>
<path d="M163.27 70.1984C164.94 69.5384 166.32 68.1684 166.98 66.4984C167.39 65.4584 167.5 64.1884 166.83 63.2884C166.16 62.3884 164.53 62.2784 164.02 63.2784C164.21 61.3784 165.02 59.3584 166.15 57.8184C167.28 56.2784 169.24 55.2183 171.11 55.6183" stroke="black" stroke-width="0.85" stroke-linecap="round" stroke-linejoin="bevel"/>
<path d="M56.4001 70.1984C54.7301 69.5384 53.3501 68.1684 52.6901 66.4984C52.2801 65.4584 52.1701 64.1884 52.8401 63.2884C53.5101 62.3884 55.1401 62.2784 55.6501 63.2784C55.4601 61.3784 54.6501 59.3584 53.5201 57.8184C52.3901 56.2784 50.4301 55.2183 48.5601 55.6183" stroke="black" stroke-width="0.85" stroke-linecap="round" stroke-linejoin="bevel"/>
<path d="M116.36 85.6783C115.48 87.5283 113.29 88.8283 110.73 88.8283C108.17 88.8283 106.11 87.5983 105.19 85.8483" stroke="black" stroke-width="1.27" stroke-linecap="round" stroke-linejoin="bevel"/>
<path d="M127.03 74.5883H147.93C153.873 74.5883 158.69 69.7708 158.69 63.8283V55.6583C158.69 49.7157 153.873 44.8983 147.93 44.8983H127.03C121.087 44.8983 116.27 49.7157 116.27 55.6583V63.8283C116.27 69.7708 121.087 74.5883 127.03 74.5883Z" stroke="#AECC53" stroke-width="2.16" stroke-linecap="round" stroke-linejoin="round"/>
<path d="M74.6198 74.5883H95.5198C101.462 74.5883 106.28 69.7708 106.28 63.8283V55.6583C106.28 49.7157 101.462 44.8983 95.5198 44.8983H74.6198C68.6772 44.8983 63.8598 49.7157 63.8598 55.6583V63.8283C63.8598 69.7708 68.6772 74.5883 74.6198 74.5883Z" stroke="#AECC53" stroke-width="2.16" stroke-linecap="round" stroke-linejoin="round"/>
<path d="M106.28 60.9183H115.67" stroke="#AECC53" stroke-width="2.16" stroke-linecap="round" stroke-linejoin="round"/>
<path d="M123.42 123.218C122.55 128.978 115.84 134.838 109.84 134.838C104.05 134.838 97.4799 129.288 96.3599 123.828" stroke="white" stroke-width="5.2" stroke-linecap="round" stroke-linejoin="round"/>
<path d="M478.36 205.658H8.25L8.39 272.718H478.36V205.658Z" fill="#00524F"/>
<path d="M467.89 190.748L368.61 189.908C366.04 189.888 363.94 191.968 363.94 194.538V222.138C363.94 223.578 364.43 224.978 365.32 226.108L371.3 235.218L371.58 204.908C371.6 202.578 373.51 200.708 375.84 200.728L478.85 201.598L471.81 192.668C470.86 191.468 469.41 190.758 467.88 190.738L467.89 190.748Z" fill="#849E2A"/>
<path d="M472.95 200.278H377.39C373.44 200.278 370.21 203.508 370.21 207.458V231.208C370.21 233.368 371.87 237.578 374.03 237.578L476.53 235.128C478.69 235.128 480.46 233.358 480.46 231.198V207.778C480.46 203.648 477.08 200.278 472.96 200.278H472.95Z" fill="#849E2A"/>
<path d="M466.76 153.958L370.99 153.148C367.11 153.118 363.95 156.248 363.95 160.128V185.358C363.95 186.798 364.44 188.198 365.33 189.328L371.37 196.978L372.17 173.528C372.35 168.188 376.76 163.958 382.11 164.008L478.87 164.828L472.53 156.788C471.14 155.018 469.02 153.988 466.77 153.968L466.76 153.958Z" fill="#849E2A"/>
<path d="M476.52 163.558H377.38C373.43 163.558 370.2 166.788 370.2 170.738V191.238C370.2 195.188 373.43 198.418 377.38 198.418H473.27C477.22 198.418 480.45 195.188 480.45 191.238V167.488C480.45 166.198 478.68 163.558 476.52 163.558Z" fill="#849E2A"/>
<path d="M474.99 203.548H380.25C375.97 203.548 372.5 207.018 372.5 211.298V230.648C372.5 234.929 375.97 238.398 380.25 238.398H474.99C479.27 238.398 482.74 234.929 482.74 230.648V211.298C482.74 207.018 479.27 203.548 474.99 203.548Z" fill="#ADCB53"/>
<path d="M395.15 214.248L404.57 229.078H385.74L395.16 214.248M395.15 211.288L382.86 230.658H407.45L395.16 211.288H395.15Z" fill="#006D68"/>
<path d="M431.68 217.648H411.64V224.298H431.68V217.648Z" stroke="white" stroke-width="0.98" stroke-linecap="round" stroke-linejoin="round"/>
<path d="M450.34 213.928C454.23 213.928 457.39 217.088 457.39 220.978C457.39 224.868 454.23 228.028 450.34 228.028H448.45C444.56 228.028 441.4 224.868 441.4 220.978C441.4 217.088 444.56 213.928 448.45 213.928H450.34ZM450.34 211.288H448.45C443.1 211.288 438.77 215.628 438.77 220.968C438.77 226.308 443.11 230.648 448.45 230.648H450.34C455.69 230.648 460.02 226.308 460.02 220.968C460.02 215.628 455.69 211.288 450.34 211.288Z" fill="#849E2A"/>
<path d="M474.99 166.828H380.25C375.97 166.828 372.5 170.298 372.5 174.578V193.928C372.5 198.209 375.97 201.678 380.25 201.678H474.99C479.27 201.678 482.74 198.209 482.74 193.928V174.578C482.74 170.298 479.27 166.828 474.99 166.828Z" fill="#ADCB53"/>
<path d="M395.15 177.518L404.57 192.348H385.74L395.16 177.518M395.15 174.568L382.86 193.938H407.45L395.16 174.568H395.15Z" fill="#006D68"/>
<path d="M431.68 180.928H411.64V187.578H431.68V180.928Z" stroke="white" stroke-width="0.98" stroke-linecap="round" stroke-linejoin="round"/>
<path d="M450.34 177.208C454.23 177.208 457.39 180.368 457.39 184.258C457.39 188.148 454.23 191.308 450.34 191.308H448.45C444.56 191.308 441.4 188.148 441.4 184.258C441.4 180.368 444.56 177.208 448.45 177.208H450.34ZM450.34 174.568H448.45C443.1 174.568 438.77 178.908 438.77 184.248C438.77 189.598 443.11 193.928 448.45 193.928H450.34C455.69 193.928 460.02 189.588 460.02 184.248C460.02 178.898 455.69 174.568 450.34 174.568Z" fill="#849E2A"/>
<path d="M2 206.738H293.56" stroke="#007872" stroke-width="2.31" stroke-linecap="round" stroke-linejoin="round"/>
<path d="M351.39 233.948H130.98C128.56 248.298 122.91 278.448 122.91 278.448L123.2 281.408H358.8L358.99 278.448C358.99 278.448 354.08 248.718 351.39 233.948Z" fill="#A9C753" stroke="#A9C753" stroke-width="1.5" stroke-linecap="round" stroke-linejoin="round"/>
<path d="M351.39 230.978H130.98C128.31 246.788 125.42 262.558 123.2 278.438H358.8C356.21 262.638 354.26 246.738 351.39 230.978Z" fill="#00524F" stroke="#A9C753" stroke-width="1.5" stroke-linecap="round" stroke-linejoin="round"/>
<path d="M207.81 243.168C204.02 243.168 200.22 243.168 196.43 243.168C196.71 240.428 196.85 239.068 197.11 236.418C200.85 236.418 204.6 236.418 208.34 236.418C208.14 239.068 208.03 240.428 207.81 243.168Z" fill="#003834"/>
<path d="M221.67 243.178C217.88 243.178 214.1 243.178 210.31 243.178C210.52 240.438 210.62 239.078 210.8 236.428C214.53 236.428 218.26 236.428 221.99 236.428C221.87 239.088 221.8 240.438 221.66 243.178H221.67Z" fill="#003834"/>
<path d="M235.57 243.178C231.79 243.178 228.01 243.178 224.22 243.178C224.35 240.428 224.41 239.078 224.51 236.428C228.24 236.428 231.96 236.428 235.69 236.428C235.66 239.088 235.63 240.438 235.57 243.188V243.178Z" fill="#003834"/>
<path d="M249.41 243.178C245.63 243.178 241.85 243.178 238.07 243.178C238.11 240.428 238.13 239.078 238.15 236.418C241.87 236.418 245.6 236.418 249.32 236.418C249.37 239.078 249.39 240.428 249.41 243.178Z" fill="#003834"/>
<path d="M263.41 243.188C259.63 243.188 255.84 243.188 252.06 243.188C252.02 240.438 251.99 239.088 251.93 236.428C255.66 236.428 259.38 236.428 263.11 236.428C263.24 239.088 263.3 240.438 263.41 243.188Z" fill="#003834"/>
<path d="M277.32 243.188C273.53 243.188 269.74 243.188 265.95 243.188C265.83 240.438 265.76 239.088 265.61 236.428C269.35 236.428 273.08 236.428 276.82 236.428C277.03 239.088 277.13 240.438 277.32 243.188Z" fill="#003834"/>
<path d="M291.22 243.188C287.42 243.188 283.63 243.188 279.83 243.188C279.63 240.438 279.52 239.088 279.3 236.428C283.05 236.428 286.8 236.428 290.55 236.428C290.84 239.088 290.97 240.438 291.23 243.188H291.22Z" fill="#003834"/>
<path d="M314.16 243.198C310.34 243.198 306.52 243.198 302.71 243.198C302.4 240.448 302.24 239.088 301.9 236.428C305.68 236.428 309.46 236.428 313.24 236.428C313.62 239.088 313.8 240.448 314.16 243.198Z" fill="#003834"/>
<path d="M328.24 243.198C324.4 243.198 320.57 243.198 316.73 243.198C316.36 240.448 316.18 239.088 315.79 236.428C319.6 236.428 323.41 236.428 327.21 236.428C327.63 239.088 327.84 240.448 328.24 243.198Z" fill="#003834"/>
<path d="M342.35 243.198C338.49 243.198 334.64 243.198 330.78 243.198C330.38 240.448 330.17 239.088 329.74 236.428C333.58 236.428 337.42 236.428 341.26 236.428C341.71 239.088 341.92 240.448 342.35 243.198Z" fill="#003834"/>
<path d="M315.34 252.648C311.47 252.648 307.6 252.648 303.74 252.648C303.44 249.798 303.29 248.388 302.98 245.608C306.81 245.608 310.64 245.608 314.47 245.608C314.82 248.388 314.99 249.798 315.34 252.648Z" fill="#003834"/>
<path d="M329.56 252.648C325.69 252.648 321.82 252.648 317.94 252.648C317.59 249.798 317.41 248.388 317.05 245.608C320.89 245.608 324.74 245.608 328.58 245.608C328.97 248.388 329.16 249.798 329.55 252.648H329.56Z" fill="#003834"/>
<path d="M343.75 252.658C339.87 252.658 336 252.658 332.12 252.658C331.73 249.808 331.53 248.398 331.14 245.618C335 245.618 338.86 245.618 342.72 245.618C343.14 248.398 343.34 249.808 343.75 252.668V252.658Z" fill="#003834"/>
<path d="M316.51 262.378C312.59 262.378 308.68 262.378 304.76 262.378C304.45 259.458 304.3 258.008 304 255.138C307.88 255.138 311.76 255.138 315.64 255.138C315.98 258.008 316.16 259.458 316.51 262.378Z" fill="#003834"/>
<path d="M330.87 262.388C326.96 262.388 323.05 262.388 319.15 262.388C318.79 259.468 318.61 258.018 318.26 255.148C322.14 255.148 326.02 255.148 329.9 255.148C330.29 258.018 330.48 259.468 330.87 262.388Z" fill="#003834"/>
<path d="M345.14 262.398C341.24 262.398 337.34 262.398 333.45 262.398C333.05 259.478 332.85 258.028 332.46 255.158C336.34 255.158 340.22 255.158 344.11 255.158C344.52 258.028 344.73 259.478 345.15 262.398H345.14Z" fill="#003834"/>
<path d="M317.76 272.278C313.79 272.278 309.83 272.278 305.86 272.278C305.51 269.328 305.35 267.848 305.03 264.918C308.96 264.918 312.89 264.918 316.82 264.918C317.18 267.848 317.37 269.318 317.76 272.268V272.278Z" fill="#003834"/>
<path d="M332.26 272.288C328.32 272.288 324.37 272.288 320.43 272.288C320.03 269.338 319.84 267.858 319.47 264.938C323.39 264.938 327.31 264.938 331.22 264.938C331.62 267.868 331.83 269.338 332.26 272.288Z" fill="#003834"/>
<path d="M346.62 272.288C342.7 272.288 338.78 272.288 334.86 272.288C334.42 269.338 334.21 267.868 333.8 264.938C337.7 264.938 341.61 264.938 345.51 264.938C345.94 267.868 346.16 269.338 346.61 272.288H346.62Z" fill="#003834"/>
<path d="M151.58 243.158C147.72 243.158 143.87 243.158 140.01 243.158C140.48 240.418 140.71 239.068 141.16 236.418C145 236.418 148.84 236.418 152.68 236.418C152.25 239.068 152.03 240.418 151.57 243.158H151.58Z" fill="#003834"/>
<path d="M165.63 243.168C161.79 243.168 157.96 243.168 154.12 243.168C154.57 240.428 154.79 239.078 155.21 236.428C159.02 236.428 162.83 236.428 166.63 236.428C166.24 239.078 166.03 240.428 165.62 243.178L165.63 243.168Z" fill="#003834"/>
<path d="M179.66 243.168C175.84 243.168 172.02 243.168 168.21 243.168C168.62 240.428 168.82 239.078 169.2 236.418C172.98 236.418 176.76 236.418 180.54 236.418C180.2 239.068 180.02 240.428 179.66 243.168Z" fill="#003834"/>
<path d="M193.59 243.168C189.79 243.168 185.98 243.168 182.18 243.168C182.53 240.428 182.7 239.078 183.03 236.418C186.79 236.418 190.55 236.418 194.31 236.418C194.04 239.068 193.89 240.428 193.59 243.168Z" fill="#003834"/>
<path d="M237.5 252.608C232.54 252.608 227.58 252.608 222.62 252.608C222.77 249.768 222.84 248.358 222.98 245.578C227.87 245.578 232.76 245.578 237.64 245.578C237.59 248.348 237.56 249.758 237.5 252.608Z" fill="#003834"/>
<path d="M255.66 252.618C250.7 252.618 245.74 252.618 240.78 252.618C240.82 249.768 240.84 248.368 240.87 245.588C245.76 245.588 250.64 245.588 255.53 245.588C255.59 248.368 255.61 249.768 255.66 252.618Z" fill="#003834"/>
<path d="M273.89 252.628C268.93 252.628 263.96 252.628 259 252.628C258.93 249.778 258.9 248.368 258.82 245.598C263.71 245.598 268.6 245.598 273.5 245.598C273.66 248.378 273.74 249.788 273.89 252.628Z" fill="#003834"/>
<path d="M292.07 252.638C287.1 252.638 282.14 252.638 277.17 252.638C277 249.788 276.91 248.378 276.73 245.608C281.63 245.608 286.53 245.608 291.44 245.608C291.69 248.388 291.82 249.798 292.07 252.648V252.638Z" fill="#003834"/>
<path d="M164.29 252.578C155.66 252.578 147.03 252.578 138.4 252.568C138.88 249.728 139.12 248.328 139.6 245.558C148.18 245.558 156.76 245.558 165.35 245.558C164.93 248.328 164.72 249.728 164.29 252.578Z" fill="#003834"/>
<path d="M182.5 252.588C177.53 252.588 172.56 252.588 167.59 252.588C168 249.748 168.21 248.338 168.62 245.568C173.54 245.568 178.47 245.568 183.39 245.568C183.04 248.338 182.86 249.748 182.51 252.588H182.5Z" fill="#003834"/>
<path d="M200.74 252.598C195.77 252.598 190.81 252.598 185.84 252.598C186.18 249.758 186.35 248.348 186.68 245.578C191.59 245.578 196.49 245.578 201.4 245.578C201.14 248.348 201 249.758 200.74 252.598Z" fill="#003834"/>
<path d="M218.91 252.598C213.95 252.598 208.98 252.598 204.02 252.598C204.27 249.758 204.4 248.348 204.64 245.578C209.53 245.578 214.43 245.578 219.32 245.578C219.16 248.348 219.08 249.758 218.91 252.598Z" fill="#003834"/>
<path d="M226.19 262.338C221.13 262.338 216.07 262.338 211.02 262.338C211.21 259.418 211.32 257.968 211.52 255.108C216.51 255.108 221.49 255.108 226.48 255.108C226.36 257.978 226.3 259.418 226.19 262.338Z" fill="#003834"/>
<path d="M244.72 262.348C239.66 262.348 234.6 262.348 229.54 262.348C229.63 259.428 229.68 257.978 229.78 255.118C234.77 255.118 239.75 255.118 244.74 255.118C244.73 257.988 244.72 259.438 244.72 262.348Z" fill="#003834"/>
<path d="M263.31 262.358C258.25 262.358 253.19 262.358 248.13 262.358C248.11 259.438 248.11 257.988 248.1 255.128C253.09 255.128 258.07 255.128 263.06 255.128C263.15 257.998 263.2 259.448 263.31 262.358Z" fill="#003834"/>
<path d="M292.92 262.368C284.16 262.368 275.41 262.368 266.65 262.358C266.53 259.438 266.47 257.988 266.36 255.128C275 255.128 283.64 255.128 292.29 255.138C292.54 258.008 292.66 259.458 292.92 262.378V262.368Z" fill="#003834"/>
<path d="M151.83 262.298C146.82 262.298 141.81 262.298 136.79 262.298C137.26 259.378 137.5 257.938 137.98 255.068C142.97 255.068 147.96 255.068 152.95 255.068C152.5 257.928 152.27 259.378 151.83 262.298Z" fill="#003834"/>
<path d="M170.24 262.308C165.21 262.308 160.18 262.308 155.15 262.308C155.58 259.388 155.81 257.948 156.25 255.078C161.24 255.078 166.23 255.078 171.22 255.078C170.82 257.938 170.62 259.388 170.24 262.308Z" fill="#003834"/>
<path d="M188.75 262.318C183.71 262.318 178.67 262.318 173.62 262.318C173.99 259.398 174.19 257.958 174.57 255.088C179.56 255.088 184.55 255.088 189.53 255.088C189.21 257.948 189.05 259.398 188.74 262.318H188.75Z" fill="#003834"/>
<path d="M207.25 262.328C202.2 262.328 197.15 262.328 192.09 262.328C192.38 259.408 192.53 257.958 192.84 255.098C197.83 255.098 202.82 255.098 207.8 255.098C207.57 257.958 207.46 259.408 207.24 262.328H207.25Z" fill="#003834"/>
<path d="M237.22 272.258C232.06 272.258 226.9 272.258 221.74 272.258C221.84 269.298 221.9 267.818 222.02 264.888C227.11 264.888 232.19 264.888 237.28 264.888C237.24 267.818 237.23 269.298 237.22 272.258Z" fill="#003834"/>
<path d="M256.11 272.258C250.95 272.258 245.79 272.258 240.63 272.258C240.62 269.298 240.63 267.818 240.64 264.888C245.73 264.888 250.81 264.888 255.9 264.888C255.97 267.818 256.01 269.298 256.11 272.258Z" fill="#003834"/>
<path d="M275.04 272.268C269.89 272.268 264.74 272.268 259.58 272.268C259.46 269.308 259.41 267.838 259.32 264.908C264.4 264.908 269.48 264.908 274.57 264.908C274.74 267.838 274.83 269.308 275.04 272.268Z" fill="#003834"/>
<path d="M293.85 272.278C288.71 272.278 283.58 272.278 278.44 272.278C278.22 269.318 278.12 267.848 277.93 264.918C283 264.918 288.08 264.918 293.15 264.918C293.42 267.848 293.55 269.318 293.85 272.278Z" fill="#003834"/>
<path d="M161.54 272.228C152.78 272.228 144.02 272.228 135.26 272.228C135.69 269.258 135.92 267.778 136.38 264.838C145.09 264.838 153.8 264.838 162.51 264.848C162.11 267.778 161.91 269.258 161.53 272.228H161.54Z" fill="#003834"/>
<path d="M180.22 272.238C175.12 272.238 170.01 272.238 164.91 272.238C165.27 269.268 165.47 267.788 165.86 264.858C170.91 264.858 175.97 264.858 181.02 264.858C180.69 267.788 180.52 269.268 180.22 272.238Z" fill="#003834"/>
<path d="M199.05 272.238C193.92 272.238 188.79 272.238 183.66 272.238C183.95 269.268 184.11 267.788 184.43 264.858C189.5 264.858 194.57 264.858 199.64 264.858C199.39 267.788 199.27 269.268 199.06 272.228L199.05 272.238Z" fill="#003834"/>
<path d="M217.9 272.248C212.75 272.248 207.6 272.248 202.45 272.248C202.65 269.278 202.76 267.808 202.99 264.878C208.07 264.878 213.15 264.878 218.23 264.878C218.08 267.808 218.01 269.288 217.9 272.248Z" fill="#003834"/>
<path d="M352.01 100.658H130.98V230.978H352.01V100.658Z" fill="#003834" stroke="#ADCB53" stroke-width="1.58" stroke-linecap="round" stroke-linejoin="round"/>
<path d="M132.98 108.568H350.01" stroke="#006D68" stroke-width="2.32" stroke-miterlimit="10"/>
<path d="M297.86 135.088H203.28V193.638H297.86V135.088Z" stroke="#006D68" stroke-width="2.32" stroke-miterlimit="10"/>
<path d="M297.86 128.488H203.28V135.088H297.86V128.488Z" fill="#006D68" stroke="#006D68" stroke-width="2.32" stroke-linecap="round" stroke-linejoin="round"/>
<path d="M279.71 153.248H185.13V211.798H279.71V153.248Z" fill="#003834" stroke="white" stroke-width="1.07" stroke-miterlimit="10"/>
<path d="M279.71 146.648H185.13V153.248H279.71V146.648Z" fill="white" stroke="white" stroke-width="1.6" stroke-miterlimit="10"/>
<path d="M264.22 182.518C264.22 182.518 249.98 202.828 232.41 202.828C214.84 202.828 200.6 182.518 200.6 182.518C200.6 182.518 214.84 162.208 232.41 162.208C249.98 162.208 264.22 182.518 264.22 182.518Z" stroke="white" stroke-width="1.08" stroke-linecap="round" stroke-linejoin="round"/>
<path d="M232.42 185.748C234.309 185.748 235.84 184.217 235.84 182.328C235.84 180.439 234.309 178.908 232.42 178.908C230.531 178.908 229 180.439 229 182.328C229 184.217 230.531 185.748 232.42 185.748Z" fill="white"/>
<path d="M232.42 198.048C241.102 198.048 248.14 191.01 248.14 182.328C248.14 173.646 241.102 166.608 232.42 166.608C223.738 166.608 216.7 173.646 216.7 182.328C216.7 191.01 223.738 198.048 232.42 198.048Z" stroke="white" stroke-width="0.72" stroke-linecap="round" stroke-linejoin="round"/>
</svg>
