<svg xmlns="http://www.w3.org/2000/svg" width="483" height="283" fill="none" viewBox="0 0 483 283"><path fill="#006d68" stroke="#006d68" stroke-linecap="round" stroke-linejoin="round" stroke-width="2.32" d="M406.86 104.208h-31.12v31.12h31.12z"/><path stroke="#a5c352" stroke-linecap="round" stroke-linejoin="round" stroke-width="1.86" d="M406.86 73.088h-31.12v31.12h31.12z"/><path fill="#fff" d="M391.3 95.218a6.57 6.57 0 1 0 0-13.14 6.57 6.57 0 0 0 0 13.14"/><path stroke="#fff" stroke-linecap="round" stroke-linejoin="round" stroke-width="2.19" d="m458.294 72.942-24.893-18.676-18.677 24.893 24.893 18.676z"/><path stroke="#a5c352" stroke-linecap="round" stroke-linejoin="round" stroke-width="1.86" d="M437.98 104.208h-31.12v31.12h31.12z"/><path fill="#a5c352" d="m422.404 110.473-9.291 9.291 9.291 9.292 9.291-9.292z"/><path stroke="#fff" stroke-miterlimit="10" stroke-width=".92" d="M178.74 254.578H45.26v-65.14c0-36.86 29.88-66.74 66.74-66.74s66.74 29.88 66.74 66.74z"/><path fill="#01524f" stroke="#fff" stroke-miterlimit="10" stroke-width=".92" d="M50.31 252.008h5.75c10.681 0 19.34-8.659 19.34-19.34v-72.08c0-10.681-8.659-19.34-19.34-19.34h-5.75c-10.681 0-19.34 8.659-19.34 19.34v72.08c0 10.681 8.659 19.34 19.34 19.34Z"/><path fill="#acca53" d="m133.19 152.258-23.36 55.77-23.36-55.77c-5.4-12.9.68-27.73 13.58-33.14 20.86-8.78 41.84 12.57 33.14 33.14"/><path fill="#777" d="M97.85 112.468h23.97v11.98c0 6.61-5.37 11.98-11.98 11.98s-11.98-5.37-11.98-11.98v-11.98z"/><path fill="#999" d="M109.84 115.098c29.691 0 53.76-24.069 53.76-53.76s-24.069-53.76-53.76-53.76-53.76 24.07-53.76 53.76c0 29.691 24.07 53.76 53.76 53.76"/><path fill="#999" d="M109.84 7.568c-3.58 0-7.07.35-10.45 1.02-16.08 9.29-26.91 26.67-26.91 46.58 0 29.69 24.07 53.76 53.76 53.76 3.58 0 7.07-.35 10.45-1.02 16.08-9.29 26.91-26.67 26.91-46.58 0-29.69-24.07-53.76-53.76-53.76"/><path fill="#fff" d="M56.07 61.338c-5.3-22.76 9.25-47.15 30.41-56.36 22.19-10.11 49.74-4.53 65.63 14.09 9.96 11.44 14.92 27.63 11.49 42.28-1.69-7.03-4.16-13.46-7.57-19.13-27.66-44.51-88.96-31.09-99.95 19.13z"/><path fill="#000" d="M88.98 59.458a3.93 3.93 0 1 1-7.861 0 3.93 3.93 0 0 1 7.86 0m53.901 0a3.93 3.93 0 1 1-7.861 0 3.93 3.93 0 0 1 7.861 0"/><path fill="#7c7c7c" d="M56.07 61.338c0-3.36.31-6.64.9-9.83-3.37-1.23-6.82-1.09-9.56.72-5.43 3.58-5.96 12.37-1.18 19.62 3.39 5.14 8.53 8.12 13.17 8.16a53.7 53.7 0 0 1-3.33-18.67"/><path fill="#999" d="M172.26 52.228c-2.73-1.8-6.19-1.94-9.56-.72.59 3.19.9 6.47.9 9.83 0 6.56-1.18 12.85-3.33 18.67 4.64-.04 9.78-3.02 13.17-8.16 4.78-7.25 4.26-16.04-1.18-19.62"/><path stroke="#000" stroke-linecap="round" stroke-linejoin="bevel" stroke-width=".85" d="M163.27 70.198a6.68 6.68 0 0 0 3.71-3.7c.41-1.04.52-2.31-.15-3.21s-2.3-1.01-2.81-.01c.19-1.9 1-3.92 2.13-5.46s3.09-2.6 4.96-2.2M56.4 70.198a6.68 6.68 0 0 1-3.71-3.7c-.41-1.04-.52-2.31.15-3.21s2.3-1.01 2.81-.01c-.19-1.9-1-3.92-2.13-5.46s-3.09-2.6-4.96-2.2"/><path stroke="#000" stroke-linecap="round" stroke-linejoin="bevel" stroke-width="1.27" d="M116.36 85.678c-.88 1.85-3.07 3.15-5.63 3.15s-4.62-1.23-5.54-2.98"/><path stroke="#aecc53" stroke-linecap="round" stroke-linejoin="round" stroke-width="2.16" d="M127.03 74.588h20.9c5.943 0 10.76-4.817 10.76-10.76v-8.17c0-5.942-4.817-10.76-10.76-10.76h-20.9c-5.943 0-10.76 4.818-10.76 10.76v8.17c0 5.943 4.817 10.76 10.76 10.76m-52.41 0h20.9c5.942 0 10.76-4.817 10.76-10.76v-8.17c0-5.942-4.818-10.76-10.76-10.76h-20.9c-5.943 0-10.76 4.818-10.76 10.76v8.17c0 5.943 4.817 10.76 10.76 10.76m31.66-13.67h9.39"/><path stroke="#fff" stroke-linecap="round" stroke-linejoin="round" stroke-width="5.2" d="M123.42 123.218c-.87 5.76-7.58 11.62-13.58 11.62-5.79 0-12.36-5.55-13.48-11.01"/><path fill="#00524f" d="M478.36 205.658H8.25l.14 67.06h469.97z"/><path fill="#849e2a" d="m467.89 190.748-99.28-.84a4.635 4.635 0 0 0-4.67 4.63v27.6c0 1.44.49 2.84 1.38 3.97l5.98 9.11.28-30.31c.02-2.33 1.93-4.2 4.26-4.18l103.01.87-7.04-8.93c-.95-1.2-2.4-1.91-3.93-1.93z"/><path fill="#849e2a" d="M472.95 200.278h-95.56c-3.95 0-7.18 3.23-7.18 7.18v23.75c0 2.16 1.66 6.37 3.82 6.37l102.5-2.45c2.16 0 3.93-1.77 3.93-3.93v-23.42c0-4.13-3.38-7.5-7.5-7.5zm-6.19-46.32-95.77-.81a6.98 6.98 0 0 0-7.04 6.98v25.23c0 1.44.49 2.84 1.38 3.97l6.04 7.65.8-23.45a9.855 9.855 0 0 1 9.94-9.52l96.76.82-6.34-8.04a7.4 7.4 0 0 0-5.76-2.82z"/><path fill="#849e2a" d="M476.52 163.558h-99.14c-3.95 0-7.18 3.23-7.18 7.18v20.5c0 3.95 3.23 7.18 7.18 7.18h95.89c3.95 0 7.18-3.23 7.18-7.18v-23.75c0-1.29-1.77-3.93-3.93-3.93"/><path fill="#adcb53" d="M474.99 203.548h-94.74a7.75 7.75 0 0 0-7.75 7.75v19.35a7.75 7.75 0 0 0 7.75 7.75h94.74a7.75 7.75 0 0 0 7.75-7.75v-19.35a7.75 7.75 0 0 0-7.75-7.75"/><path fill="#006d68" d="m395.15 214.248 9.42 14.83h-18.83l9.42-14.83m-.01-2.96-12.29 19.37h24.59l-12.29-19.37z"/><path stroke="#fff" stroke-linecap="round" stroke-linejoin="round" stroke-width=".98" d="M431.68 217.648h-20.04v6.65h20.04z"/><path fill="#849e2a" d="M450.34 213.928c3.89 0 7.05 3.16 7.05 7.05s-3.16 7.05-7.05 7.05h-1.89c-3.89 0-7.05-3.16-7.05-7.05s3.16-7.05 7.05-7.05zm0-2.64h-1.89c-5.35 0-9.68 4.34-9.68 9.68s4.34 9.68 9.68 9.68h1.89c5.35 0 9.68-4.34 9.68-9.68s-4.33-9.68-9.68-9.68"/><path fill="#adcb53" d="M474.99 166.828h-94.74a7.75 7.75 0 0 0-7.75 7.75v19.35a7.75 7.75 0 0 0 7.75 7.75h94.74a7.75 7.75 0 0 0 7.75-7.75v-19.35a7.75 7.75 0 0 0-7.75-7.75"/><path fill="#006d68" d="m395.15 177.518 9.42 14.83h-18.83l9.42-14.83m-.01-2.95-12.29 19.37h24.59l-12.29-19.37z"/><path stroke="#fff" stroke-linecap="round" stroke-linejoin="round" stroke-width=".98" d="M431.68 180.928h-20.04v6.65h20.04z"/><path fill="#849e2a" d="M450.34 177.208c3.89 0 7.05 3.16 7.05 7.05s-3.16 7.05-7.05 7.05h-1.89c-3.89 0-7.05-3.16-7.05-7.05s3.16-7.05 7.05-7.05zm0-2.64h-1.89c-5.35 0-9.68 4.34-9.68 9.68 0 5.35 4.34 9.68 9.68 9.68h1.89c5.35 0 9.68-4.34 9.68-9.68 0-5.35-4.33-9.68-9.68-9.68"/><path stroke="#007872" stroke-linecap="round" stroke-linejoin="round" stroke-width="2.31" d="M2 206.738h291.56"/><path fill="#a9c753" stroke="#a9c753" stroke-linecap="round" stroke-linejoin="round" stroke-width="1.5" d="M351.39 233.948H130.98c-2.42 14.35-8.07 44.5-8.07 44.5l.29 2.96h235.6l.19-2.96s-4.91-29.73-7.6-44.5"/><path fill="#00524f" stroke="#a9c753" stroke-linecap="round" stroke-linejoin="round" stroke-width="1.5" d="M351.39 230.978H130.98c-2.67 15.81-5.56 31.58-7.78 47.46h235.6c-2.59-15.8-4.54-31.7-7.41-47.46"/><path fill="#003834" d="M207.81 243.168h-11.38c.28-2.74.42-4.1.68-6.75h11.23c-.2 2.65-.31 4.01-.53 6.75m13.86.01h-11.36c.21-2.74.31-4.1.49-6.75h11.19c-.12 2.66-.19 4.01-.33 6.75zm13.9 0h-11.35c.13-2.75.19-4.1.29-6.75h11.18c-.03 2.66-.06 4.01-.12 6.76zm13.84 0h-11.34c.04-2.75.06-4.1.08-6.76h11.17c.05 2.66.07 4.01.09 6.76m14 .01h-11.35c-.04-2.75-.07-4.1-.13-6.76h11.18c.13 2.66.19 4.01.3 6.76m13.91 0h-11.37c-.12-2.75-.19-4.1-.34-6.76h11.21c.21 2.66.31 4.01.5 6.76m13.9 0h-11.39c-.2-2.75-.31-4.1-.53-6.76h11.25c.29 2.66.42 4.01.68 6.76zm22.94.01h-11.45c-.31-2.75-.47-4.11-.81-6.77h11.34c.38 2.66.56 4.02.92 6.77m14.08 0h-11.51c-.37-2.75-.55-4.11-.94-6.77h11.42c.42 2.66.63 4.02 1.03 6.77m14.11 0h-11.57c-.4-2.75-.61-4.11-1.04-6.77h11.52c.45 2.66.66 4.02 1.09 6.77m-27.01 9.45h-11.6c-.3-2.85-.45-4.26-.76-7.04h11.49c.35 2.78.52 4.19.87 7.04m14.22 0h-11.62a898 898 0 0 0-.89-7.04h11.53c.39 2.78.58 4.19.97 7.04zm14.19.01h-11.63c-.39-2.85-.59-4.26-.98-7.04h11.58c.42 2.78.62 4.19 1.03 7.05zm-27.24 9.72h-11.75c-.31-2.92-.46-4.37-.76-7.24h11.64c.34 2.87.52 4.32.87 7.24m14.36.01h-11.72c-.36-2.92-.54-4.37-.89-7.24h11.64c.39 2.87.58 4.32.97 7.24m14.27.01h-11.69c-.4-2.92-.6-4.37-.99-7.24h11.65c.41 2.87.62 4.32 1.04 7.24zm-27.38 9.88h-11.9c-.35-2.95-.51-4.43-.83-7.36h11.79c.36 2.93.55 4.4.94 7.35zm14.5.01h-11.83c-.4-2.95-.59-4.43-.96-7.35h11.75c.4 2.93.61 4.4 1.04 7.35m14.36 0h-11.76c-.44-2.95-.65-4.42-1.06-7.35h11.71c.43 2.93.65 4.4 1.1 7.35zm-195.04-29.13h-11.57c.47-2.74.7-4.09 1.15-6.74h11.52c-.43 2.65-.65 4-1.11 6.74zm14.05.01h-11.51c.45-2.74.67-4.09 1.09-6.74h11.42c-.39 2.65-.6 4-1.01 6.75zm14.03 0h-11.45c.41-2.74.61-4.09.99-6.75h11.34c-.34 2.65-.52 4.01-.88 6.75m13.93 0h-11.41c.35-2.74.52-4.09.85-6.75h11.28c-.27 2.65-.42 4.01-.72 6.75m43.91 9.44h-14.88c.15-2.84.22-4.25.36-7.03h14.66c-.05 2.77-.08 4.18-.14 7.03m18.16.01h-14.88c.04-2.85.06-4.25.09-7.03h14.66c.06 2.78.08 4.18.13 7.03m18.23.01H259c-.07-2.85-.1-4.26-.18-7.03h14.68c.16 2.78.24 4.19.39 7.03m18.18.01h-14.9c-.17-2.85-.26-4.26-.44-7.03h14.71c.25 2.78.38 4.19.63 7.04zm-127.78-.06c-8.63 0-17.26 0-25.89-.01.48-2.84.72-4.24 1.2-7.01h25.75c-.42 2.77-.63 4.17-1.06 7.02m18.21.01h-14.91c.41-2.84.62-4.25 1.03-7.02h14.77c-.35 2.77-.53 4.18-.88 7.02zm18.24.01h-14.9c.34-2.84.51-4.25.84-7.02h14.72c-.26 2.77-.4 4.18-.66 7.02m18.17 0h-14.89c.25-2.84.38-4.25.62-7.02h14.68c-.16 2.77-.24 4.18-.41 7.02m7.28 9.74h-15.17c.19-2.92.3-4.37.5-7.23h14.96c-.12 2.87-.18 4.31-.29 7.23m18.53.01h-15.18c.09-2.92.14-4.37.24-7.23h14.96c-.01 2.87-.02 4.32-.02 7.23m18.59.01h-15.18c-.02-2.92-.02-4.37-.03-7.23h14.96c.09 2.87.14 4.32.25 7.23m29.61.01c-8.76 0-17.51 0-26.27-.01-.12-2.92-.18-4.37-.29-7.23 8.64 0 17.28 0 25.93.01.25 2.87.37 4.32.63 7.24zm-141.09-.07h-15.04c.47-2.92.71-4.36 1.19-7.23h14.97c-.45 2.86-.68 4.31-1.12 7.23m18.41.01h-15.09c.43-2.92.66-4.36 1.1-7.23h14.97c-.4 2.86-.6 4.31-.98 7.23m18.51.01h-15.13c.37-2.92.57-4.36.95-7.23h14.96c-.32 2.86-.48 4.31-.79 7.23zm18.5.01h-15.16c.29-2.92.44-4.37.75-7.23h14.96c-.23 2.86-.34 4.31-.56 7.23zm29.97 9.93h-15.48c.1-2.96.16-4.44.28-7.37h15.26c-.04 2.93-.05 4.41-.06 7.37m18.89 0h-15.48c-.01-2.96 0-4.44.01-7.37h15.26c.07 2.93.11 4.41.21 7.37m18.93.01h-15.46c-.12-2.96-.17-4.43-.26-7.36h15.25c.17 2.93.26 4.4.47 7.36m18.81.01h-15.41c-.22-2.96-.32-4.43-.51-7.36h15.22c.27 2.93.4 4.4.7 7.36m-132.31-.05h-26.28c.43-2.97.66-4.45 1.12-7.39 8.71 0 17.42 0 26.13.01-.4 2.93-.6 4.41-.98 7.38zm18.68.01h-15.31c.36-2.97.56-4.45.95-7.38h15.16c-.33 2.93-.5 4.41-.8 7.38m18.83 0h-15.39c.29-2.97.45-4.45.77-7.38h15.21c-.25 2.93-.37 4.41-.58 7.37zm18.85.01h-15.45c.2-2.97.31-4.44.54-7.37h15.24c-.15 2.93-.22 4.41-.33 7.37"/><path fill="#003834" stroke="#adcb53" stroke-linecap="round" stroke-linejoin="round" stroke-width="1.58" d="M352.01 100.658H130.98v130.32h221.03z"/><path stroke="#006d68" stroke-miterlimit="10" stroke-width="2.32" d="M132.98 108.568h217.03m-52.15 26.52h-94.58v58.55h94.58z"/><path fill="#006d68" stroke="#006d68" stroke-linecap="round" stroke-linejoin="round" stroke-width="2.32" d="M297.86 128.488h-94.58v6.6h94.58z"/><path fill="#003834" stroke="#fff" stroke-miterlimit="10" stroke-width="1.07" d="M279.71 153.248h-94.58v58.55h94.58z"/><path fill="#fff" stroke="#fff" stroke-miterlimit="10" stroke-width="1.6" d="M279.71 146.648h-94.58v6.6h94.58z"/><path stroke="#fff" stroke-linecap="round" stroke-linejoin="round" stroke-width="1.08" d="M264.22 182.518s-14.24 20.31-31.81 20.31-31.81-20.31-31.81-20.31 14.24-20.31 31.81-20.31 31.81 20.31 31.81 20.31"/><path fill="#fff" d="M232.42 185.748a3.42 3.42 0 1 0 0-6.84 3.42 3.42 0 0 0 0 6.84"/><path stroke="#fff" stroke-linecap="round" stroke-linejoin="round" stroke-width=".72" d="M232.42 198.048c8.682 0 15.72-7.038 15.72-15.72s-7.038-15.72-15.72-15.72-15.72 7.038-15.72 15.72 7.038 15.72 15.72 15.72"/></svg>