<svg xmlns="http://www.w3.org/2000/svg" width="590" height="379" fill="none" viewBox="0 0 590 379"><path fill="#00544f" stroke="#00544f" stroke-miterlimit="10" stroke-width=".35" d="m434.59 370 150.6-117.66v-7.12l-150.6 117.66z"/><path fill="#00544f" stroke="#00544f" stroke-miterlimit="10" stroke-width=".35" d="M434.59 362.88H4.81V370h429.78z"/><path fill="#003834" d="M387.15 173.96h-304l25.17-16.44 118.01-77.08h280.52z"/><path stroke="#6fafac" stroke-linecap="round" stroke-linejoin="round" stroke-width=".7" d="M226.33 80.38V9"/><path fill="#6fafac" stroke="#6fafac" stroke-linecap="round" stroke-linejoin="round" stroke-width=".7" d="M387.16 174.25H83.15v3.8h304.01z"/><path fill="#6fafac" stroke="#6fafac" stroke-linecap="round" stroke-linejoin="round" stroke-width="1.39" d="m387.15 178.05 119.7-94.57v-2.75l-119.7 93.52z"/><path stroke="#6fafac" stroke-linecap="round" stroke-linejoin="round" stroke-width=".7" d="M226.33 9.27 83.15 98.68M226.33 9h280.52m0 71.38V9M83.15 174.25V98.68"/><path fill="#003834" d="M434.59 362.88H4.81l150.27-117.66h430.11z"/><path stroke="#aecc53" stroke-linecap="round" stroke-linejoin="round" stroke-width="1.05" d="m218.67 157.17-110.35.68-.06-9.22 118.79-77.46h234.21m-216.15-42V45.8"/><path fill="#aecc53" d="m241.96 30.09 3.15-5.44 3.14 5.44z"/><path stroke="#aecc53" stroke-linecap="round" stroke-linejoin="round" stroke-width="1.05" d="M335.36 30.63v19.08"/><path fill="#aecc53" d="m332.21 31.55 3.15-5.45 3.14 5.45z"/><path stroke="#006e69" stroke-linecap="round" stroke-linejoin="round" stroke-width=".82" d="m168.69 59.01 34.19-22.33m-34.19 28.24 34.19-22.33m-34.19 40.07 34.19-22.32m-34.19 10.5 34.19-22.33m-34.19 28.24 34.19-22.33m-34.19 4.59v23.65m-2.36-25.87 33.84-21.98m-33.84 21.98v23.82m36.55-43.93v23.66m0-23.66-2.6-2.02m-31.59 24.35-2.36-2.22m2.36 26.04-2.36-2.22"/><path fill="#6fafac" d="M335.36 26.86a2.58 2.58 0 1 0 0-5.16 2.58 2.58 0 0 0 0 5.16"/><path stroke="#6fafac" stroke-linecap="round" stroke-linejoin="round" stroke-width=".79" d="M328.88 29.54a5.71 5.71 0 0 1-3.49-5.26c0-2.37 1.44-4.39 3.48-5.26"/><path stroke="#6fafac" stroke-linecap="round" stroke-linejoin="round" stroke-width=".79" d="M330.96 27.72a3.73 3.73 0 0 1-2.28-3.44c0-1.55.94-2.87 2.28-3.43m10.92 8.69a5.71 5.71 0 0 0 3.49-5.26c0-2.36-1.44-4.39-3.48-5.26"/><path stroke="#6fafac" stroke-linecap="round" stroke-linejoin="round" stroke-width=".79" d="M339.79 27.72a3.73 3.73 0 0 0 2.28-3.44c0-1.54-.94-2.87-2.28-3.43"/><path fill="#6fafac" d="M245.11 27.23a2.58 2.58 0 1 0 0-5.16 2.58 2.58 0 0 0 0 5.16"/><path stroke="#6fafac" stroke-linecap="round" stroke-linejoin="round" stroke-width=".79" d="M238.63 29.9a5.71 5.71 0 0 1-3.49-5.26c0-2.37 1.44-4.39 3.48-5.26"/><path stroke="#6fafac" stroke-linecap="round" stroke-linejoin="round" stroke-width=".79" d="M240.71 28.08a3.73 3.73 0 0 1-2.28-3.44c0-1.55.94-2.87 2.28-3.43m10.92 8.69a5.71 5.71 0 0 0 3.49-5.26c0-2.36-1.44-4.39-3.48-5.26"/><path stroke="#6fafac" stroke-linecap="round" stroke-linejoin="round" stroke-width=".79" d="M249.54 28.08a3.73 3.73 0 0 0 2.28-3.44c0-1.54-.94-2.87-2.28-3.43"/><path fill="#003834" stroke="#afd3d0" stroke-linecap="round" stroke-linejoin="round" stroke-width=".18" d="M258.3 280.22h-19.23v33.41h19.23z"/><path fill="#afd3d0" stroke="#afd3d0" stroke-linecap="round" stroke-linejoin="round" stroke-width=".22" d="M258.3 278.97h-19.23v1.38h19.23z"/><path fill="#003834" stroke="#afd3d0" stroke-linecap="round" stroke-linejoin="round" stroke-width=".18" d="M261.87 276.62h-19.25l-3.55 2.29h19.25zm.13 0-.09 34.66-3.57 2.3.09-34.67z"/><path fill="#006e69" d="M256.92 282.63h-16.47a.33.33 0 0 0-.33.33v2.11c0 .182.148.33.33.33h16.47a.33.33 0 0 0 .33-.33v-2.11a.33.33 0 0 0-.33-.33m0 4.11h-16.47a.33.33 0 0 0-.33.33v2.11c0 .182.148.33.33.33h16.47a.33.33 0 0 0 .33-.33v-2.11a.33.33 0 0 0-.33-.33m0 4.12h-16.47a.33.33 0 0 0-.33.33v2.11c0 .182.148.33.33.33h16.47a.33.33 0 0 0 .33-.33v-2.11a.33.33 0 0 0-.33-.33m0 4.11h-16.47a.33.33 0 0 0-.33.33v2.11c0 .182.148.33.33.33h16.47a.33.33 0 0 0 .33-.33v-2.11a.33.33 0 0 0-.33-.33m0 4.12h-16.47a.33.33 0 0 0-.33.33v2.11c0 .182.148.33.33.33h16.47a.33.33 0 0 0 .33-.33v-2.11a.33.33 0 0 0-.33-.33m0 4.12h-16.47a.33.33 0 0 0-.33.33v2.11c0 .182.148.33.33.33h16.47a.33.33 0 0 0 .33-.33v-2.11a.33.33 0 0 0-.33-.33m0 4.11h-16.47a.33.33 0 0 0-.33.33v2.11c0 .182.148.33.33.33h16.47a.33.33 0 0 0 .33-.33v-2.11a.33.33 0 0 0-.33-.33"/><path fill="#003834" stroke="#afd3d0" stroke-linecap="round" stroke-linejoin="round" stroke-width=".18" d="M280.45 280.22h-19.23v33.41h19.23z"/><path fill="#afd3d0" stroke="#afd3d0" stroke-linecap="round" stroke-linejoin="round" stroke-width=".22" d="M280.45 278.97h-19.23v1.38h19.23z"/><path fill="#003834" stroke="#afd3d0" stroke-linecap="round" stroke-linejoin="round" stroke-width=".18" d="M284.02 276.62h-19.25l-3.55 2.29h19.25zm.13 0-.09 34.66-3.57 2.3.09-34.67z"/><path fill="#006e69" d="M279.07 282.63H262.6a.33.33 0 0 0-.33.33v2.11c0 .182.148.33.33.33h16.47a.33.33 0 0 0 .33-.33v-2.11a.33.33 0 0 0-.33-.33m0 4.11H262.6a.33.33 0 0 0-.33.33v2.11c0 .182.148.33.33.33h16.47a.33.33 0 0 0 .33-.33v-2.11a.33.33 0 0 0-.33-.33m0 4.12H262.6a.33.33 0 0 0-.33.33v2.11c0 .182.148.33.33.33h16.47a.33.33 0 0 0 .33-.33v-2.11a.33.33 0 0 0-.33-.33m0 4.11H262.6a.33.33 0 0 0-.33.33v2.11c0 .182.148.33.33.33h16.47a.33.33 0 0 0 .33-.33v-2.11a.33.33 0 0 0-.33-.33m0 4.12H262.6a.33.33 0 0 0-.33.33v2.11c0 .182.148.33.33.33h16.47a.33.33 0 0 0 .33-.33v-2.11a.33.33 0 0 0-.33-.33m0 4.12H262.6a.33.33 0 0 0-.33.33v2.11c0 .182.148.33.33.33h16.47a.33.33 0 0 0 .33-.33v-2.11a.33.33 0 0 0-.33-.33m0 4.11H262.6a.33.33 0 0 0-.33.33v2.11c0 .182.148.33.33.33h16.47a.33.33 0 0 0 .33-.33v-2.11a.33.33 0 0 0-.33-.33"/><path fill="#003834" stroke="#afd3d0" stroke-linecap="round" stroke-linejoin="round" stroke-width=".18" d="M302.77 280.22h-19.23v33.41h19.23z"/><path fill="#afd3d0" stroke="#afd3d0" stroke-linecap="round" stroke-linejoin="round" stroke-width=".22" d="M302.77 278.97h-19.23v1.38h19.23z"/><path fill="#003834" stroke="#afd3d0" stroke-linecap="round" stroke-linejoin="round" stroke-width=".18" d="M306.33 276.62h-19.24l-3.55 2.29h19.24zm.13 0-.09 34.66-3.56 2.3.09-34.67z"/><path fill="#006e69" d="M301.38 282.63h-16.47a.33.33 0 0 0-.33.33v2.11c0 .182.148.33.33.33h16.47a.33.33 0 0 0 .33-.33v-2.11a.33.33 0 0 0-.33-.33m0 4.11h-16.47a.33.33 0 0 0-.33.33v2.11c0 .182.148.33.33.33h16.47a.33.33 0 0 0 .33-.33v-2.11a.33.33 0 0 0-.33-.33m0 4.12h-16.47a.33.33 0 0 0-.33.33v2.11c0 .182.148.33.33.33h16.47a.33.33 0 0 0 .33-.33v-2.11a.33.33 0 0 0-.33-.33m0 4.11h-16.47a.33.33 0 0 0-.33.33v2.11c0 .182.148.33.33.33h16.47a.33.33 0 0 0 .33-.33v-2.11a.33.33 0 0 0-.33-.33m0 4.12h-16.47a.33.33 0 0 0-.33.33v2.11c0 .182.148.33.33.33h16.47a.33.33 0 0 0 .33-.33v-2.11a.33.33 0 0 0-.33-.33m0 4.12h-16.47a.33.33 0 0 0-.33.33v2.11c0 .182.148.33.33.33h16.47a.33.33 0 0 0 .33-.33v-2.11a.33.33 0 0 0-.33-.33m0 4.11h-16.47a.33.33 0 0 0-.33.33v2.11c0 .182.148.33.33.33h16.47a.33.33 0 0 0 .33-.33v-2.11a.33.33 0 0 0-.33-.33"/><path fill="#003834" stroke="#afd3d0" stroke-linecap="round" stroke-linejoin="round" stroke-width=".18" d="M324.99 280.22h-19.23v33.41h19.23z"/><path fill="#afd3d0" stroke="#afd3d0" stroke-linecap="round" stroke-linejoin="round" stroke-width=".22" d="M324.99 278.97h-19.23v1.38h19.23z"/><path fill="#003834" stroke="#afd3d0" stroke-linecap="round" stroke-linejoin="round" stroke-width=".18" d="M328.56 276.62h-19.25l-3.55 2.29H325zm.12 0-.09 34.66-3.56 2.3.09-34.67z"/><path fill="#006e69" d="M323.61 282.63h-16.47a.33.33 0 0 0-.33.33v2.11c0 .182.148.33.33.33h16.47a.33.33 0 0 0 .33-.33v-2.11a.33.33 0 0 0-.33-.33m0 4.11h-16.47a.33.33 0 0 0-.33.33v2.11c0 .182.148.33.33.33h16.47a.33.33 0 0 0 .33-.33v-2.11a.33.33 0 0 0-.33-.33m0 4.12h-16.47a.33.33 0 0 0-.33.33v2.11c0 .182.148.33.33.33h16.47a.33.33 0 0 0 .33-.33v-2.11a.33.33 0 0 0-.33-.33m0 4.11h-16.47a.33.33 0 0 0-.33.33v2.11c0 .182.148.33.33.33h16.47a.33.33 0 0 0 .33-.33v-2.11a.33.33 0 0 0-.33-.33m0 4.12h-16.47a.33.33 0 0 0-.33.33v2.11c0 .182.148.33.33.33h16.47a.33.33 0 0 0 .33-.33v-2.11a.33.33 0 0 0-.33-.33m0 4.12h-16.47a.33.33 0 0 0-.33.33v2.11c0 .182.148.33.33.33h16.47a.33.33 0 0 0 .33-.33v-2.11a.33.33 0 0 0-.33-.33m0 4.11h-16.47a.33.33 0 0 0-.33.33v2.11c0 .182.148.33.33.33h16.47a.33.33 0 0 0 .33-.33v-2.11a.33.33 0 0 0-.33-.33"/><path fill="#003834" stroke="#afd3d0" stroke-linecap="round" stroke-linejoin="round" stroke-width=".18" d="M347.1 280.22h-19.23v33.41h19.23z"/><path fill="#afd3d0" stroke="#afd3d0" stroke-linecap="round" stroke-linejoin="round" stroke-width=".22" d="M347.1 278.97h-19.23v1.38h19.23z"/><path fill="#003834" stroke="#afd3d0" stroke-linecap="round" stroke-linejoin="round" stroke-width=".18" d="M350.66 276.62h-19.24l-3.55 2.29h19.24zm.13 0-.09 34.66-3.56 2.3.09-34.67z"/><path fill="#006e69" d="M345.71 282.63h-16.47a.33.33 0 0 0-.33.33v2.11c0 .182.148.33.33.33h16.47a.33.33 0 0 0 .33-.33v-2.11a.33.33 0 0 0-.33-.33m0 4.11h-16.47a.33.33 0 0 0-.33.33v2.11c0 .182.148.33.33.33h16.47a.33.33 0 0 0 .33-.33v-2.11a.33.33 0 0 0-.33-.33m0 4.12h-16.47a.33.33 0 0 0-.33.33v2.11c0 .182.148.33.33.33h16.47a.33.33 0 0 0 .33-.33v-2.11a.33.33 0 0 0-.33-.33m0 4.11h-16.47a.33.33 0 0 0-.33.33v2.11c0 .182.148.33.33.33h16.47a.33.33 0 0 0 .33-.33v-2.11a.33.33 0 0 0-.33-.33m0 4.12h-16.47a.33.33 0 0 0-.33.33v2.11c0 .182.148.33.33.33h16.47a.33.33 0 0 0 .33-.33v-2.11a.33.33 0 0 0-.33-.33m0 4.12h-16.47a.33.33 0 0 0-.33.33v2.11c0 .182.148.33.33.33h16.47a.33.33 0 0 0 .33-.33v-2.11a.33.33 0 0 0-.33-.33m0 4.11h-16.47a.33.33 0 0 0-.33.33v2.11c0 .182.148.33.33.33h16.47a.33.33 0 0 0 .33-.33v-2.11a.33.33 0 0 0-.33-.33"/><path fill="#003834" stroke="#afd3d0" stroke-linecap="round" stroke-linejoin="round" stroke-width=".18" d="M369.37 280.22h-19.23v33.41h19.23z"/><path fill="#afd3d0" stroke="#afd3d0" stroke-linecap="round" stroke-linejoin="round" stroke-width=".22" d="M369.37 278.97h-19.23v1.38h19.23z"/><path fill="#003834" stroke="#afd3d0" stroke-linecap="round" stroke-linejoin="round" stroke-width=".18" d="M372.94 276.62h-19.25l-3.55 2.29h19.25zm.13 0-.09 34.66-3.57 2.3.09-34.67z"/><path fill="#006e69" d="M367.99 282.63h-16.47a.33.33 0 0 0-.33.33v2.11c0 .182.148.33.33.33h16.47a.33.33 0 0 0 .33-.33v-2.11a.33.33 0 0 0-.33-.33m0 4.11h-16.47a.33.33 0 0 0-.33.33v2.11c0 .182.148.33.33.33h16.47a.33.33 0 0 0 .33-.33v-2.11a.33.33 0 0 0-.33-.33m0 4.12h-16.47a.33.33 0 0 0-.33.33v2.11c0 .182.148.33.33.33h16.47a.33.33 0 0 0 .33-.33v-2.11a.33.33 0 0 0-.33-.33m0 4.11h-16.47a.33.33 0 0 0-.33.33v2.11c0 .182.148.33.33.33h16.47a.33.33 0 0 0 .33-.33v-2.11a.33.33 0 0 0-.33-.33m0 4.12h-16.47a.33.33 0 0 0-.33.33v2.11c0 .182.148.33.33.33h16.47a.33.33 0 0 0 .33-.33v-2.11a.33.33 0 0 0-.33-.33m0 4.12h-16.47a.33.33 0 0 0-.33.33v2.11c0 .182.148.33.33.33h16.47a.33.33 0 0 0 .33-.33v-2.11a.33.33 0 0 0-.33-.33m0 4.11h-16.47a.33.33 0 0 0-.33.33v2.11c0 .182.148.33.33.33h16.47a.33.33 0 0 0 .33-.33v-2.11a.33.33 0 0 0-.33-.33"/><path stroke="#aecc53" stroke-linecap="round" stroke-linejoin="round" stroke-width="1.05" d="m265.94 317.76 4.94-3.88m16.98 3.88 4.95-3.88m17.74 3.88 4.94-3.88m17.41 3.88 4.95-3.88m-88.26 0-4.94 3.88h109.12l4.94-3.88"/><path stroke="#afd3d0" stroke-linecap="round" stroke-linejoin="round" stroke-width=".7" d="M347.22 340.01H187.21l61.05-41.37h153.88z"/><path stroke="#aecc53" stroke-linecap="round" stroke-linejoin="round" stroke-width="1.05" d="m240.5 333.67 4.95-3.87m16.98 3.87 4.94-3.87m17.74 3.87 4.94-3.87m17.42 3.87 4.94-3.87m-88.25 0-4.95 3.87h109.12l4.95-3.87"/><path fill="#003834" stroke="#afd3d0" stroke-linecap="round" stroke-linejoin="round" stroke-width=".18" d="M232.53 296.7H213.3v33.41h19.23z"/><path fill="#afd3d0" stroke="#afd3d0" stroke-linecap="round" stroke-linejoin="round" stroke-width=".22" d="M232.53 295.45H213.3v1.38h19.23z"/><path fill="#003834" stroke="#afd3d0" stroke-linecap="round" stroke-linejoin="round" stroke-width=".18" d="M236.09 293.1h-19.24l-3.55 2.3h19.24zm.13 0-.09 34.66-3.56 2.3.09-34.66z"/><path fill="#006e69" d="M231.14 299.11h-16.47a.33.33 0 0 0-.33.33v2.11c0 .182.148.33.33.33h16.47a.33.33 0 0 0 .33-.33v-2.11a.33.33 0 0 0-.33-.33m0 4.12h-16.47a.33.33 0 0 0-.33.33v2.11c0 .182.148.33.33.33h16.47a.33.33 0 0 0 .33-.33v-2.11a.33.33 0 0 0-.33-.33m0 4.11h-16.47a.33.33 0 0 0-.33.33v2.11c0 .182.148.33.33.33h16.47a.33.33 0 0 0 .33-.33v-2.11a.33.33 0 0 0-.33-.33m0 4.12h-16.47a.33.33 0 0 0-.33.33v2.11c0 .182.148.33.33.33h16.47a.33.33 0 0 0 .33-.33v-2.11a.33.33 0 0 0-.33-.33m0 4.11h-16.47a.33.33 0 0 0-.33.33v2.11c0 .182.148.33.33.33h16.47a.33.33 0 0 0 .33-.33v-2.11a.33.33 0 0 0-.33-.33m0 4.12h-16.47a.33.33 0 0 0-.33.33v2.11c0 .182.148.33.33.33h16.47a.33.33 0 0 0 .33-.33v-2.11a.33.33 0 0 0-.33-.33m0 4.11h-16.47a.33.33 0 0 0-.33.33v2.11c0 .182.148.33.33.33h16.47a.33.33 0 0 0 .33-.33v-2.11a.33.33 0 0 0-.33-.33"/><path fill="#003834" stroke="#afd3d0" stroke-linecap="round" stroke-linejoin="round" stroke-width=".18" d="M254.68 296.7h-19.23v33.41h19.23z"/><path fill="#afd3d0" stroke="#afd3d0" stroke-linecap="round" stroke-linejoin="round" stroke-width=".22" d="M254.68 295.45h-19.23v1.38h19.23z"/><path fill="#003834" stroke="#afd3d0" stroke-linecap="round" stroke-linejoin="round" stroke-width=".18" d="M258.24 293.1H239l-3.55 2.3h19.24zm.13 0-.09 34.66-3.56 2.3.09-34.66z"/><path fill="#006e69" d="M253.29 299.11h-16.47a.33.33 0 0 0-.33.33v2.11c0 .182.148.33.33.33h16.47a.33.33 0 0 0 .33-.33v-2.11a.33.33 0 0 0-.33-.33m0 4.12h-16.47a.33.33 0 0 0-.33.33v2.11c0 .182.148.33.33.33h16.47a.33.33 0 0 0 .33-.33v-2.11a.33.33 0 0 0-.33-.33m0 4.11h-16.47a.33.33 0 0 0-.33.33v2.11c0 .182.148.33.33.33h16.47a.33.33 0 0 0 .33-.33v-2.11a.33.33 0 0 0-.33-.33m0 4.12h-16.47a.33.33 0 0 0-.33.33v2.11c0 .182.148.33.33.33h16.47a.33.33 0 0 0 .33-.33v-2.11a.33.33 0 0 0-.33-.33m0 4.11h-16.47a.33.33 0 0 0-.33.33v2.11c0 .182.148.33.33.33h16.47a.33.33 0 0 0 .33-.33v-2.11a.33.33 0 0 0-.33-.33m0 4.12h-16.47a.33.33 0 0 0-.33.33v2.11c0 .182.148.33.33.33h16.47a.33.33 0 0 0 .33-.33v-2.11a.33.33 0 0 0-.33-.33m0 4.11h-16.47a.33.33 0 0 0-.33.33v2.11c0 .182.148.33.33.33h16.47a.33.33 0 0 0 .33-.33v-2.11a.33.33 0 0 0-.33-.33"/><path fill="#003834" stroke="#afd3d0" stroke-linecap="round" stroke-linejoin="round" stroke-width=".18" d="M276.99 296.7h-19.23v33.41h19.23z"/><path fill="#afd3d0" stroke="#afd3d0" stroke-linecap="round" stroke-linejoin="round" stroke-width=".22" d="M276.99 295.45h-19.23v1.38h19.23z"/><path fill="#003834" stroke="#afd3d0" stroke-linecap="round" stroke-linejoin="round" stroke-width=".18" d="M280.56 293.1h-19.25l-3.55 2.3H277zm.12 0-.09 34.66-3.56 2.3.09-34.66z"/><path fill="#006e69" d="M275.61 299.11h-16.47a.33.33 0 0 0-.33.33v2.11c0 .182.148.33.33.33h16.47a.33.33 0 0 0 .33-.33v-2.11a.33.33 0 0 0-.33-.33m0 4.12h-16.47a.33.33 0 0 0-.33.33v2.11c0 .182.148.33.33.33h16.47a.33.33 0 0 0 .33-.33v-2.11a.33.33 0 0 0-.33-.33m0 4.11h-16.47a.33.33 0 0 0-.33.33v2.11c0 .182.148.33.33.33h16.47a.33.33 0 0 0 .33-.33v-2.11a.33.33 0 0 0-.33-.33m0 4.12h-16.47a.33.33 0 0 0-.33.33v2.11c0 .182.148.33.33.33h16.47a.33.33 0 0 0 .33-.33v-2.11a.33.33 0 0 0-.33-.33m0 4.11h-16.47a.33.33 0 0 0-.33.33v2.11c0 .182.148.33.33.33h16.47a.33.33 0 0 0 .33-.33v-2.11a.33.33 0 0 0-.33-.33m0 4.12h-16.47a.33.33 0 0 0-.33.33v2.11c0 .182.148.33.33.33h16.47a.33.33 0 0 0 .33-.33v-2.11a.33.33 0 0 0-.33-.33m0 4.11h-16.47a.33.33 0 0 0-.33.33v2.11c0 .182.148.33.33.33h16.47a.33.33 0 0 0 .33-.33v-2.11a.33.33 0 0 0-.33-.33"/><path fill="#003834" stroke="#afd3d0" stroke-linecap="round" stroke-linejoin="round" stroke-width=".18" d="M299.21 296.7h-19.23v33.41h19.23z"/><path fill="#afd3d0" stroke="#afd3d0" stroke-linecap="round" stroke-linejoin="round" stroke-width=".22" d="M299.21 295.45h-19.23v1.38h19.23z"/><path fill="#003834" stroke="#afd3d0" stroke-linecap="round" stroke-linejoin="round" stroke-width=".18" d="M302.78 293.1h-19.25l-3.55 2.3h19.25zm.12 0-.09 34.66-3.56 2.3.09-34.66z"/><path fill="#006e69" d="M297.83 299.11h-16.47a.33.33 0 0 0-.33.33v2.11c0 .182.148.33.33.33h16.47a.33.33 0 0 0 .33-.33v-2.11a.33.33 0 0 0-.33-.33m0 4.12h-16.47a.33.33 0 0 0-.33.33v2.11c0 .182.148.33.33.33h16.47a.33.33 0 0 0 .33-.33v-2.11a.33.33 0 0 0-.33-.33m0 4.11h-16.47a.33.33 0 0 0-.33.33v2.11c0 .182.148.33.33.33h16.47a.33.33 0 0 0 .33-.33v-2.11a.33.33 0 0 0-.33-.33m0 4.12h-16.47a.33.33 0 0 0-.33.33v2.11c0 .182.148.33.33.33h16.47a.33.33 0 0 0 .33-.33v-2.11a.33.33 0 0 0-.33-.33m0 4.11h-16.47a.33.33 0 0 0-.33.33v2.11c0 .182.148.33.33.33h16.47a.33.33 0 0 0 .33-.33v-2.11a.33.33 0 0 0-.33-.33m0 4.12h-16.47a.33.33 0 0 0-.33.33v2.11c0 .182.148.33.33.33h16.47a.33.33 0 0 0 .33-.33v-2.11a.33.33 0 0 0-.33-.33m0 4.11h-16.47a.33.33 0 0 0-.33.33v2.11c0 .182.148.33.33.33h16.47a.33.33 0 0 0 .33-.33v-2.11a.33.33 0 0 0-.33-.33"/><path fill="#003834" stroke="#afd3d0" stroke-linecap="round" stroke-linejoin="round" stroke-width=".18" d="M321.32 296.7h-19.23v33.41h19.23z"/><path fill="#afd3d0" stroke="#afd3d0" stroke-linecap="round" stroke-linejoin="round" stroke-width=".22" d="M321.32 295.45h-19.23v1.38h19.23z"/><path fill="#003834" stroke="#afd3d0" stroke-linecap="round" stroke-linejoin="round" stroke-width=".18" d="M324.88 293.1h-19.24l-3.55 2.3h19.24zm.13 0-.09 34.66-3.56 2.3.09-34.66z"/><path fill="#006e69" d="M319.93 299.11h-16.47a.33.33 0 0 0-.33.33v2.11c0 .182.148.33.33.33h16.47a.33.33 0 0 0 .33-.33v-2.11a.33.33 0 0 0-.33-.33m0 4.12h-16.47a.33.33 0 0 0-.33.33v2.11c0 .182.148.33.33.33h16.47a.33.33 0 0 0 .33-.33v-2.11a.33.33 0 0 0-.33-.33m0 4.11h-16.47a.33.33 0 0 0-.33.33v2.11c0 .182.148.33.33.33h16.47a.33.33 0 0 0 .33-.33v-2.11a.33.33 0 0 0-.33-.33m0 4.12h-16.47a.33.33 0 0 0-.33.33v2.11c0 .182.148.33.33.33h16.47a.33.33 0 0 0 .33-.33v-2.11a.33.33 0 0 0-.33-.33m0 4.11h-16.47a.33.33 0 0 0-.33.33v2.11c0 .182.148.33.33.33h16.47a.33.33 0 0 0 .33-.33v-2.11a.33.33 0 0 0-.33-.33m0 4.12h-16.47a.33.33 0 0 0-.33.33v2.11c0 .182.148.33.33.33h16.47a.33.33 0 0 0 .33-.33v-2.11a.33.33 0 0 0-.33-.33m0 4.11h-16.47a.33.33 0 0 0-.33.33v2.11c0 .182.148.33.33.33h16.47a.33.33 0 0 0 .33-.33v-2.11a.33.33 0 0 0-.33-.33"/><path fill="#003834" stroke="#afd3d0" stroke-linecap="round" stroke-linejoin="round" stroke-width=".18" d="M343.6 296.7h-19.23v33.41h19.23z"/><path fill="#afd3d0" stroke="#afd3d0" stroke-linecap="round" stroke-linejoin="round" stroke-width=".22" d="M343.6 295.45h-19.23v1.38h19.23z"/><path fill="#003834" stroke="#afd3d0" stroke-linecap="round" stroke-linejoin="round" stroke-width=".18" d="M347.16 293.1h-19.24l-3.55 2.3h19.24zm.13 0-.09 34.66-3.56 2.3.09-34.66z"/><path fill="#006e69" d="M342.21 299.11h-16.47a.33.33 0 0 0-.33.33v2.11c0 .182.148.33.33.33h16.47a.33.33 0 0 0 .33-.33v-2.11a.33.33 0 0 0-.33-.33m0 4.12h-16.47a.33.33 0 0 0-.33.33v2.11c0 .182.148.33.33.33h16.47a.33.33 0 0 0 .33-.33v-2.11a.33.33 0 0 0-.33-.33m0 4.11h-16.47a.33.33 0 0 0-.33.33v2.11c0 .182.148.33.33.33h16.47a.33.33 0 0 0 .33-.33v-2.11a.33.33 0 0 0-.33-.33m0 4.12h-16.47a.33.33 0 0 0-.33.33v2.11c0 .182.148.33.33.33h16.47a.33.33 0 0 0 .33-.33v-2.11a.33.33 0 0 0-.33-.33m0 4.11h-16.47a.33.33 0 0 0-.33.33v2.11c0 .182.148.33.33.33h16.47a.33.33 0 0 0 .33-.33v-2.11a.33.33 0 0 0-.33-.33m0 4.12h-16.47a.33.33 0 0 0-.33.33v2.11c0 .182.148.33.33.33h16.47a.33.33 0 0 0 .33-.33v-2.11a.33.33 0 0 0-.33-.33m0 4.11h-16.47a.33.33 0 0 0-.33.33v2.11c0 .182.148.33.33.33h16.47a.33.33 0 0 0 .33-.33v-2.11a.33.33 0 0 0-.33-.33"/><path stroke="#afd3d0" stroke-linecap="round" stroke-linejoin="round" stroke-width=".7" d="M248.27 259.87v-28.2"/><path fill="#013834" stroke="#afd3d0" stroke-linecap="round" stroke-linejoin="round" stroke-width=".7" d="M347.22 301.14H187.21l61.05-41.37h153.88z"/><path fill="#006d68" d="M283.74 298.93h-88.55l18.11-12.73h85.72z"/><path stroke="#aecc53" stroke-linecap="round" stroke-linejoin="round" stroke-width="1.05" d="m265.94 284.53 4.94-3.88m16.98 3.88 4.95-3.88m17.74 3.88 4.94-3.88m17.41 3.88 4.95-3.88m-88.26 0-4.94 3.88h109.12l4.94-3.88m-118.97 17.53 4.95-3.87m16.27 3.87 4.95-3.87m-43.21 0-5.65 3.87h43.91"/><path fill="#003834" stroke="#afd3d0" stroke-linecap="round" stroke-linejoin="round" stroke-width=".18" d="M258.3 247.17h-19.23v33.41h19.23z"/><path fill="#6fafac" d="M258.3 245.92h-19.23v1.38h19.23z"/><path fill="#003834" stroke="#afd3d0" stroke-linecap="round" stroke-linejoin="round" stroke-width=".18" d="M261.87 243.58h-19.25l-3.55 2.29h19.25zm.13 0-.09 34.66-3.57 2.3.09-34.67z"/><path fill="#006e69" d="M256.92 249.59h-16.47a.33.33 0 0 0-.33.33v2.11c0 .182.148.33.33.33h16.47a.33.33 0 0 0 .33-.33v-2.11a.33.33 0 0 0-.33-.33m0 4.11h-16.47a.33.33 0 0 0-.33.33v2.11c0 .182.148.33.33.33h16.47a.33.33 0 0 0 .33-.33v-2.11a.33.33 0 0 0-.33-.33m0 4.12h-16.47a.33.33 0 0 0-.33.33v2.11c0 .182.148.33.33.33h16.47a.33.33 0 0 0 .33-.33v-2.11a.33.33 0 0 0-.33-.33m0 4.11h-16.47a.33.33 0 0 0-.33.33v2.11c0 .182.148.33.33.33h16.47a.33.33 0 0 0 .33-.33v-2.11a.33.33 0 0 0-.33-.33m0 4.12h-16.47a.33.33 0 0 0-.33.33v2.11c0 .182.148.33.33.33h16.47a.33.33 0 0 0 .33-.33v-2.11a.33.33 0 0 0-.33-.33m0 4.11h-16.47a.33.33 0 0 0-.33.33v2.11c0 .182.148.33.33.33h16.47a.33.33 0 0 0 .33-.33v-2.11a.33.33 0 0 0-.33-.33m0 4.12h-16.47a.33.33 0 0 0-.33.33v2.11c0 .182.148.33.33.33h16.47a.33.33 0 0 0 .33-.33v-2.11a.33.33 0 0 0-.33-.33"/><path fill="#003834" stroke="#afd3d0" stroke-linecap="round" stroke-linejoin="round" stroke-width=".18" d="M280.45 247.17h-19.23v33.41h19.23z"/><path fill="#6fafac" d="M280.45 245.92h-19.23v1.38h19.23z"/><path fill="#003834" stroke="#afd3d0" stroke-linecap="round" stroke-linejoin="round" stroke-width=".18" d="M284.02 243.58h-19.25l-3.55 2.29h19.25zm.13 0-.09 34.66-3.57 2.3.09-34.67z"/><path fill="#006e69" d="M279.07 249.59H262.6a.33.33 0 0 0-.33.33v2.11c0 .182.148.33.33.33h16.47a.33.33 0 0 0 .33-.33v-2.11a.33.33 0 0 0-.33-.33m0 4.11H262.6a.33.33 0 0 0-.33.33v2.11c0 .182.148.33.33.33h16.47a.33.33 0 0 0 .33-.33v-2.11a.33.33 0 0 0-.33-.33m0 4.12H262.6a.33.33 0 0 0-.33.33v2.11c0 .182.148.33.33.33h16.47a.33.33 0 0 0 .33-.33v-2.11a.33.33 0 0 0-.33-.33m0 4.11H262.6a.33.33 0 0 0-.33.33v2.11c0 .182.148.33.33.33h16.47a.33.33 0 0 0 .33-.33v-2.11a.33.33 0 0 0-.33-.33m0 4.12H262.6a.33.33 0 0 0-.33.33v2.11c0 .182.148.33.33.33h16.47a.33.33 0 0 0 .33-.33v-2.11a.33.33 0 0 0-.33-.33m0 4.11H262.6a.33.33 0 0 0-.33.33v2.11c0 .182.148.33.33.33h16.47a.33.33 0 0 0 .33-.33v-2.11a.33.33 0 0 0-.33-.33m0 4.12H262.6a.33.33 0 0 0-.33.33v2.11c0 .182.148.33.33.33h16.47a.33.33 0 0 0 .33-.33v-2.11a.33.33 0 0 0-.33-.33"/><path fill="#003834" stroke="#afd3d0" stroke-linecap="round" stroke-linejoin="round" stroke-width=".18" d="M302.77 247.17h-19.23v33.41h19.23z"/><path fill="#6fafac" d="M302.77 245.92h-19.23v1.38h19.23z"/><path fill="#003834" stroke="#afd3d0" stroke-linecap="round" stroke-linejoin="round" stroke-width=".18" d="M306.33 243.58h-19.24l-3.55 2.29h19.24zm.13 0-.09 34.66-3.56 2.3.09-34.67z"/><path fill="#006e69" d="M301.38 249.59h-16.47a.33.33 0 0 0-.33.33v2.11c0 .182.148.33.33.33h16.47a.33.33 0 0 0 .33-.33v-2.11a.33.33 0 0 0-.33-.33m0 4.11h-16.47a.33.33 0 0 0-.33.33v2.11c0 .182.148.33.33.33h16.47a.33.33 0 0 0 .33-.33v-2.11a.33.33 0 0 0-.33-.33m0 4.12h-16.47a.33.33 0 0 0-.33.33v2.11c0 .182.148.33.33.33h16.47a.33.33 0 0 0 .33-.33v-2.11a.33.33 0 0 0-.33-.33m0 4.11h-16.47a.33.33 0 0 0-.33.33v2.11c0 .182.148.33.33.33h16.47a.33.33 0 0 0 .33-.33v-2.11a.33.33 0 0 0-.33-.33m0 4.12h-16.47a.33.33 0 0 0-.33.33v2.11c0 .182.148.33.33.33h16.47a.33.33 0 0 0 .33-.33v-2.11a.33.33 0 0 0-.33-.33m0 4.11h-16.47a.33.33 0 0 0-.33.33v2.11c0 .182.148.33.33.33h16.47a.33.33 0 0 0 .33-.33v-2.11a.33.33 0 0 0-.33-.33m0 4.12h-16.47a.33.33 0 0 0-.33.33v2.11c0 .182.148.33.33.33h16.47a.33.33 0 0 0 .33-.33v-2.11a.33.33 0 0 0-.33-.33"/><path fill="#003834" stroke="#afd3d0" stroke-linecap="round" stroke-linejoin="round" stroke-width=".18" d="M324.99 247.17h-19.23v33.41h19.23z"/><path fill="#6fafac" d="M324.99 245.92h-19.23v1.38h19.23z"/><path fill="#003834" stroke="#afd3d0" stroke-linecap="round" stroke-linejoin="round" stroke-width=".18" d="M328.56 243.58h-19.25l-3.55 2.29H325zm.12 0-.09 34.66-3.56 2.3.09-34.67z"/><path fill="#006e69" d="M323.61 249.59h-16.47a.33.33 0 0 0-.33.33v2.11c0 .182.148.33.33.33h16.47a.33.33 0 0 0 .33-.33v-2.11a.33.33 0 0 0-.33-.33m0 4.11h-16.47a.33.33 0 0 0-.33.33v2.11c0 .182.148.33.33.33h16.47a.33.33 0 0 0 .33-.33v-2.11a.33.33 0 0 0-.33-.33m0 4.12h-16.47a.33.33 0 0 0-.33.33v2.11c0 .182.148.33.33.33h16.47a.33.33 0 0 0 .33-.33v-2.11a.33.33 0 0 0-.33-.33m0 4.11h-16.47a.33.33 0 0 0-.33.33v2.11c0 .182.148.33.33.33h16.47a.33.33 0 0 0 .33-.33v-2.11a.33.33 0 0 0-.33-.33m0 4.12h-16.47a.33.33 0 0 0-.33.33v2.11c0 .182.148.33.33.33h16.47a.33.33 0 0 0 .33-.33v-2.11a.33.33 0 0 0-.33-.33m0 4.11h-16.47a.33.33 0 0 0-.33.33v2.11c0 .182.148.33.33.33h16.47a.33.33 0 0 0 .33-.33v-2.11a.33.33 0 0 0-.33-.33m0 4.12h-16.47a.33.33 0 0 0-.33.33v2.11c0 .182.148.33.33.33h16.47a.33.33 0 0 0 .33-.33v-2.11a.33.33 0 0 0-.33-.33"/><path fill="#003834" stroke="#afd3d0" stroke-linecap="round" stroke-linejoin="round" stroke-width=".18" d="M347.1 247.17h-19.23v33.41h19.23z"/><path fill="#6fafac" d="M347.1 245.92h-19.23v1.38h19.23z"/><path fill="#003834" stroke="#afd3d0" stroke-linecap="round" stroke-linejoin="round" stroke-width=".18" d="M350.66 243.58h-19.24l-3.55 2.29h19.24zm.13 0-.09 34.66-3.56 2.3.09-34.67z"/><path fill="#006e69" d="M345.71 249.59h-16.47a.33.33 0 0 0-.33.33v2.11c0 .182.148.33.33.33h16.47a.33.33 0 0 0 .33-.33v-2.11a.33.33 0 0 0-.33-.33m0 4.11h-16.47a.33.33 0 0 0-.33.33v2.11c0 .182.148.33.33.33h16.47a.33.33 0 0 0 .33-.33v-2.11a.33.33 0 0 0-.33-.33m0 4.12h-16.47a.33.33 0 0 0-.33.33v2.11c0 .182.148.33.33.33h16.47a.33.33 0 0 0 .33-.33v-2.11a.33.33 0 0 0-.33-.33m0 4.11h-16.47a.33.33 0 0 0-.33.33v2.11c0 .182.148.33.33.33h16.47a.33.33 0 0 0 .33-.33v-2.11a.33.33 0 0 0-.33-.33m0 4.12h-16.47a.33.33 0 0 0-.33.33v2.11c0 .182.148.33.33.33h16.47a.33.33 0 0 0 .33-.33v-2.11a.33.33 0 0 0-.33-.33m0 4.11h-16.47a.33.33 0 0 0-.33.33v2.11c0 .182.148.33.33.33h16.47a.33.33 0 0 0 .33-.33v-2.11a.33.33 0 0 0-.33-.33m0 4.12h-16.47a.33.33 0 0 0-.33.33v2.11c0 .182.148.33.33.33h16.47a.33.33 0 0 0 .33-.33v-2.11a.33.33 0 0 0-.33-.33"/><path fill="#003834" stroke="#afd3d0" stroke-linecap="round" stroke-linejoin="round" stroke-width=".18" d="M369.37 247.17h-19.23v33.41h19.23z"/><path fill="#6fafac" d="M369.37 245.92h-19.23v1.38h19.23z"/><path fill="#003834" stroke="#afd3d0" stroke-linecap="round" stroke-linejoin="round" stroke-width=".18" d="M372.94 243.58h-19.25l-3.55 2.29h19.25zm.13 0-.09 34.66-3.57 2.3.09-34.67z"/><path fill="#006e69" d="M367.99 249.59h-16.47a.33.33 0 0 0-.33.33v2.11c0 .182.148.33.33.33h16.47a.33.33 0 0 0 .33-.33v-2.11a.33.33 0 0 0-.33-.33m0 4.11h-16.47a.33.33 0 0 0-.33.33v2.11c0 .182.148.33.33.33h16.47a.33.33 0 0 0 .33-.33v-2.11a.33.33 0 0 0-.33-.33m0 4.12h-16.47a.33.33 0 0 0-.33.33v2.11c0 .182.148.33.33.33h16.47a.33.33 0 0 0 .33-.33v-2.11a.33.33 0 0 0-.33-.33m0 4.11h-16.47a.33.33 0 0 0-.33.33v2.11c0 .182.148.33.33.33h16.47a.33.33 0 0 0 .33-.33v-2.11a.33.33 0 0 0-.33-.33m0 4.12h-16.47a.33.33 0 0 0-.33.33v2.11c0 .182.148.33.33.33h16.47a.33.33 0 0 0 .33-.33v-2.11a.33.33 0 0 0-.33-.33m0 4.11h-16.47a.33.33 0 0 0-.33.33v2.11c0 .182.148.33.33.33h16.47a.33.33 0 0 0 .33-.33v-2.11a.33.33 0 0 0-.33-.33m0 4.12h-16.47a.33.33 0 0 0-.33.33v2.11c0 .182.148.33.33.33h16.47a.33.33 0 0 0 .33-.33v-2.11a.33.33 0 0 0-.33-.33"/><path fill="#003834" stroke="#afd3d0" stroke-linecap="round" stroke-linejoin="round" stroke-width=".19" d="M232.56 259.13h-19.23v34.72h19.23z"/><path fill="#6fafac" d="M232.56 259.18h-19.23v1.38h19.23z"/><path fill="#003834" stroke="#afd3d0" stroke-linecap="round" stroke-linejoin="round" stroke-width=".18" d="M236.13 256.84h-19.25l-3.55 2.29h19.25zm.13 0-.09 34.66-3.56 2.3.09-34.67z"/><path fill="#006e69" d="M231.18 262.85h-16.47a.33.33 0 0 0-.33.33v2.11c0 .182.148.33.33.33h16.47a.33.33 0 0 0 .33-.33v-2.11a.33.33 0 0 0-.33-.33m0 4.11h-16.47a.33.33 0 0 0-.33.33v2.11c0 .182.148.33.33.33h16.47a.33.33 0 0 0 .33-.33v-2.11a.33.33 0 0 0-.33-.33m0 4.12h-16.47a.33.33 0 0 0-.33.33v2.11c0 .182.148.33.33.33h16.47a.33.33 0 0 0 .33-.33v-2.11a.33.33 0 0 0-.33-.33m0 4.11h-16.47a.33.33 0 0 0-.33.33v2.11c0 .182.148.33.33.33h16.47a.33.33 0 0 0 .33-.33v-2.11a.33.33 0 0 0-.33-.33m0 4.12h-16.47a.33.33 0 0 0-.33.33v2.11c0 .182.148.33.33.33h16.47a.33.33 0 0 0 .33-.33v-2.11a.33.33 0 0 0-.33-.33m0 4.11h-16.47a.33.33 0 0 0-.33.33v2.11c0 .182.148.33.33.33h16.47a.33.33 0 0 0 .33-.33v-2.11a.33.33 0 0 0-.33-.33m0 4.12h-16.47a.33.33 0 0 0-.33.33v2.11c0 .182.148.33.33.33h16.47a.33.33 0 0 0 .33-.33v-2.11a.33.33 0 0 0-.33-.33"/><path fill="#003834" stroke="#afd3d0" stroke-linecap="round" stroke-linejoin="round" stroke-width=".19" d="M254.78 259.13h-19.23v34.72h19.23z"/><path fill="#6fafac" d="M254.78 259.18h-19.23v1.38h19.23z"/><path fill="#003834" stroke="#afd3d0" stroke-linecap="round" stroke-linejoin="round" stroke-width=".18" d="M258.34 256.84H239.1l-3.55 2.29h19.24zm.13 0-.09 34.66-3.56 2.3.09-34.67z"/><path fill="#006e69" d="M253.4 262.85h-16.47a.33.33 0 0 0-.33.33v2.11c0 .182.148.33.33.33h16.47a.33.33 0 0 0 .33-.33v-2.11a.33.33 0 0 0-.33-.33m0 4.11h-16.47a.33.33 0 0 0-.33.33v2.11c0 .182.148.33.33.33h16.47a.33.33 0 0 0 .33-.33v-2.11a.33.33 0 0 0-.33-.33m0 4.12h-16.47a.33.33 0 0 0-.33.33v2.11c0 .182.148.33.33.33h16.47a.33.33 0 0 0 .33-.33v-2.11a.33.33 0 0 0-.33-.33m0 4.11h-16.47a.33.33 0 0 0-.33.33v2.11c0 .182.148.33.33.33h16.47a.33.33 0 0 0 .33-.33v-2.11a.33.33 0 0 0-.33-.33m0 4.12h-16.47a.33.33 0 0 0-.33.33v2.11c0 .182.148.33.33.33h16.47a.33.33 0 0 0 .33-.33v-2.11a.33.33 0 0 0-.33-.33m0 4.11h-16.47a.33.33 0 0 0-.33.33v2.11c0 .182.148.33.33.33h16.47a.33.33 0 0 0 .33-.33v-2.11a.33.33 0 0 0-.33-.33m0 4.12h-16.47a.33.33 0 0 0-.33.33v2.11c0 .182.148.33.33.33h16.47a.33.33 0 0 0 .33-.33v-2.11a.33.33 0 0 0-.33-.33"/><path fill="#003834" stroke="#afd3d0" stroke-linecap="round" stroke-linejoin="round" stroke-width=".19" d="M276.99 259.2h-19.23v34.65h19.23z"/><path fill="#6fafac" d="M276.99 259.18h-19.23v1.38h19.23z"/><path fill="#003834" stroke="#afd3d0" stroke-linecap="round" stroke-linejoin="round" stroke-width=".18" d="M280.56 256.84h-19.25l-3.55 2.29h19.25zm.13 0-.09 34.66-3.57 2.3.09-34.67z"/><path fill="#006e69" d="M275.61 262.85h-16.47a.33.33 0 0 0-.33.33v2.11c0 .182.148.33.33.33h16.47a.33.33 0 0 0 .33-.33v-2.11a.33.33 0 0 0-.33-.33m0 4.11h-16.47a.33.33 0 0 0-.33.33v2.11c0 .182.148.33.33.33h16.47a.33.33 0 0 0 .33-.33v-2.11a.33.33 0 0 0-.33-.33m0 4.12h-16.47a.33.33 0 0 0-.33.33v2.11c0 .182.148.33.33.33h16.47a.33.33 0 0 0 .33-.33v-2.11a.33.33 0 0 0-.33-.33m0 4.11h-16.47a.33.33 0 0 0-.33.33v2.11c0 .182.148.33.33.33h16.47a.33.33 0 0 0 .33-.33v-2.11a.33.33 0 0 0-.33-.33m0 4.12h-16.47a.33.33 0 0 0-.33.33v2.11c0 .182.148.33.33.33h16.47a.33.33 0 0 0 .33-.33v-2.11a.33.33 0 0 0-.33-.33m0 4.11h-16.47a.33.33 0 0 0-.33.33v2.11c0 .182.148.33.33.33h16.47a.33.33 0 0 0 .33-.33v-2.11a.33.33 0 0 0-.33-.33m0 4.12h-16.47a.33.33 0 0 0-.33.33v2.11c0 .182.148.33.33.33h16.47a.33.33 0 0 0 .33-.33v-2.11a.33.33 0 0 0-.33-.33"/><path stroke="#afd3d0" stroke-linecap="round" stroke-linejoin="round" stroke-width=".7" d="M347.22 273.1H187.21l61.05-41.38h153.88zm54.92 25.54v-66.97m-214.93 108.4V273.1m160.66 66.97V273.1"/><path fill="#003834" d="M72.44 320.89H38.06v19.37h34.38z"/><path fill="#006e69" stroke="#006e69" stroke-miterlimit="10" stroke-width=".82" d="M91 306.14H56.62l-18.56 14.75h34.38z"/><path stroke="#6fafac" stroke-linecap="round" stroke-linejoin="round" stroke-width=".68" d="m91.76 325.52-19.55 14.74H38.06m53.7-14.76v-19.36m-53.7 34.12v-19.37m34.38 19.37v-19.37m-.23 0H38.06l19.74-14.73h33.96z"/><path fill="#6fafac" d="m46.69 335.55 7.72-12.74a.974.974 0 0 1 1.67 0l7.72 12.74c.4.65-.07 1.48-.84 1.48H47.52a.978.978 0 0 1-.84-1.48z"/><path fill="#003834" d="m56.32 326.91-1.88 4.57-.75-.7 2.78-.13.91-.04c-.21.32-3.06 4.58-3.36 5.03l2.12-4.76.44.65-2.72.57-.74.15c0-.47 1.17-4.88 1.17-5.47l.8.13zm61.93-6.02H83.87v19.37h34.38zm18.56-14.75h-34.38l-18.56 14.75h34.38z"/><path stroke="#6fafac" stroke-linecap="round" stroke-linejoin="round" stroke-width=".68" d="m137.58 325.52-19.56 14.74H83.87m53.71-14.76v-19.36m-53.71 34.12v-19.37m34.38 19.37v-19.37"/><path fill="#006e69" stroke="#6fafac" stroke-linecap="round" stroke-linejoin="round" stroke-width=".82" d="M118.02 320.89H83.87l19.74-14.73h33.97z"/><path fill="#6fafac" d="m92.51 335.55 7.72-12.74a.974.974 0 0 1 1.67 0l7.72 12.74c.4.65-.07 1.48-.84 1.48H93.34a.978.978 0 0 1-.84-1.48z"/><path fill="#003834" d="m102.13 326.91-1.88 4.57-.75-.7 2.78-.13.91-.04c-.21.32-3.06 4.58-3.36 5.03l2.12-4.76.44.65-2.72.57-.74.15c0-.47 1.17-4.88 1.17-5.47l.8.13zm61.94-6.02h-34.38v19.37h34.38zm18.56-14.75h-34.38l-18.56 14.75h34.38z"/><path stroke="#6fafac" stroke-linecap="round" stroke-linejoin="round" stroke-width=".68" d="m183.39 325.52-19.56 14.74h-34.14m53.7-14.76v-19.36m-53.7 34.12v-19.37m34.38 19.37v-19.37"/><path fill="#006e69" stroke="#6fafac" stroke-linecap="round" stroke-miterlimit="10" stroke-width=".82" d="M163.83 320.89h-34.14l19.73-14.73h33.97z"/><path fill="#6fafac" d="m138.32 335.55 7.72-12.74a.974.974 0 0 1 1.67 0l7.72 12.74c.4.65-.07 1.48-.84 1.48h-15.44a.978.978 0 0 1-.84-1.48z"/><path fill="#003834" d="m147.95 326.91-1.88 4.57-.75-.7 2.78-.13.91-.04c-.21.32-3.06 4.58-3.36 5.03l2.12-4.76.44.65-2.72.57-.74.15c0-.47 1.17-4.88 1.17-5.47l.8.13z"/><path fill="#6fafac" stroke="#6fafac" stroke-linecap="round" stroke-linejoin="round" stroke-width=".71" d="m402.69 333.87-9.6-24.8h19.19zm19.18 0-9.59-24.8h19.18z"/><path fill="#6fafac" stroke="#6fafac" stroke-linecap="round" stroke-linejoin="round" stroke-width=".71" d="m441.06 333.87-9.6-24.8h19.19z"/><path fill="#003834" d="M407.05 318.24c0 2.45-1.99 4.44-4.44 4.44s-4.44-1.99-4.44-4.44 4.44-7.91 4.44-7.91 4.44 5.45 4.44 7.91"/><path fill="#afd3d0" d="M399.97 318.71c.02-.07.08-.11.14-.11h.04l1.08.28 1.09-.65h.57l1.09.65 1.08-.28h.04c.06 0 .12.04.14.11.02.08-.03.16-.1.18l-.8.21.8.48a.146.146 0 1 1-.15.25l-.8-.48.21.8c.02.08-.03.16-.1.18a.15.15 0 0 1-.18-.1l-.28-1.08-1.08-.64v1.26l.79.79c.06.06.06.15 0 .21s-.15.06-.21 0l-.59-.59v.94c0 .08-.07.15-.15.15s-.15-.07-.15-.15v-.94l-.59.59c-.06.06-.15.06-.21 0a.145.145 0 0 1 0-.21l.79-.79v-1.26l-1.08.64-.28 1.08c-.02.08-.1.12-.18.1s-.12-.1-.1-.18l.21-.8-.8.48a.146.146 0 1 1-.15-.25l.8-.48-.8-.21c-.08-.02-.12-.1-.1-.18z"/><path fill="#afd3d0" d="M399.97 317.76c.02.07.08.11.14.11h.04l1.08-.28 1.09.65h.57l1.09-.65 1.08.28h.04c.06 0 .12-.04.14-.11a.15.15 0 0 0-.1-.18l-.8-.21.8-.48a.146.146 0 1 0-.15-.25l-.8.48.21-.8a.15.15 0 0 0-.1-.18.15.15 0 0 0-.18.1l-.28 1.08-1.08.64v-1.26l.79-.79c.06-.06.06-.15 0-.21a.145.145 0 0 0-.21 0l-.59.59v-.94c0-.08-.07-.15-.15-.15s-.15.07-.15.15v.94l-.59-.59a.145.145 0 0 0-.21 0c-.06.06-.06.15 0 .21l.79.79v1.26l-1.08-.64-.28-1.08c-.02-.08-.1-.12-.18-.1s-.12.1-.1.18l.21.8-.8-.48a.146.146 0 1 0-.15.25l.8.48-.8.21c-.08.02-.12.1-.1.18z"/><path fill="#003834" d="M426.32 318.24c0 2.45-1.99 4.44-4.44 4.44s-4.44-1.99-4.44-4.44 4.44-7.91 4.44-7.91 4.44 5.45 4.44 7.91"/><path fill="#afd3d0" d="M419.23 318.71c.02-.07.08-.11.14-.11h.04l1.08.28 1.09-.65h.57l1.09.65 1.08-.28h.04c.06 0 .12.04.14.11.02.08-.03.16-.1.18l-.8.21.8.48a.146.146 0 1 1-.15.25l-.8-.48.21.8c.02.08-.03.16-.1.18a.15.15 0 0 1-.18-.1l-.28-1.08-1.08-.64v1.26l.79.79c.06.06.06.15 0 .21s-.15.06-.21 0l-.59-.59v.94c0 .08-.07.15-.15.15s-.15-.07-.15-.15v-.94l-.59.59c-.06.06-.15.06-.21 0a.145.145 0 0 1 0-.21l.79-.79v-1.26l-1.08.64-.28 1.08c-.02.08-.1.12-.18.1s-.12-.1-.1-.18l.21-.8-.8.48a.146.146 0 1 1-.15-.25l.8-.48-.8-.21c-.08-.02-.12-.1-.1-.18z"/><path fill="#afd3d0" d="M419.23 317.76c.02.07.08.11.14.11h.04l1.08-.28 1.09.65h.57l1.09-.65 1.08.28h.04c.06 0 .12-.04.14-.11a.15.15 0 0 0-.1-.18l-.8-.21.8-.48a.146.146 0 1 0-.15-.25l-.8.48.21-.8a.15.15 0 0 0-.1-.18.15.15 0 0 0-.18.1l-.28 1.08-1.08.64v-1.26l.79-.79c.06-.06.06-.15 0-.21a.145.145 0 0 0-.21 0l-.59.59v-.94c0-.08-.07-.15-.15-.15s-.15.07-.15.15v.94l-.59-.59a.145.145 0 0 0-.21 0c-.06.06-.06.15 0 .21l.79.79v1.26l-1.08-.64-.28-1.08c-.02-.08-.1-.12-.18-.1s-.12.1-.1.18l.21.8-.8-.48a.146.146 0 1 0-.15.25l.8.48-.8.21c-.08.02-.12.1-.1.18z"/><path fill="#003834" d="M445.5 318.24c0 2.45-1.99 4.44-4.44 4.44s-4.44-1.99-4.44-4.44 4.44-7.91 4.44-7.91 4.44 5.45 4.44 7.91"/><path fill="#afd3d0" d="M438.42 318.71c.02-.07.08-.11.14-.11h.04l1.08.28 1.09-.65h.57l1.09.65 1.08-.28h.04c.06 0 .12.04.14.11.02.08-.03.16-.1.18l-.8.21.8.48a.146.146 0 1 1-.15.25l-.8-.48.21.8c.02.08-.03.16-.1.18a.15.15 0 0 1-.18-.1l-.28-1.08-1.08-.64v1.26l.79.79c.06.06.06.15 0 .21s-.15.06-.21 0l-.59-.59v.94c0 .08-.07.15-.15.15s-.15-.07-.15-.15v-.94l-.59.59c-.06.06-.15.06-.21 0a.145.145 0 0 1 0-.21l.79-.79v-1.26l-1.08.64-.28 1.08c-.02.08-.1.12-.18.1s-.12-.1-.1-.18l.21-.8-.8.48a.146.146 0 1 1-.15-.25l.8-.48-.8-.21c-.08-.02-.12-.1-.1-.18z"/><path fill="#afd3d0" d="M438.42 317.76c.02.07.08.11.14.11h.04l1.08-.28 1.09.65h.57l1.09-.65 1.08.28h.04c.06 0 .12-.04.14-.11a.15.15 0 0 0-.1-.18l-.8-.21.8-.48a.146.146 0 1 0-.15-.25l-.8.48.21-.8a.15.15 0 0 0-.1-.18.15.15 0 0 0-.18.1l-.28 1.08-1.08.64v-1.26l.79-.79c.06-.06.06-.15 0-.21a.145.145 0 0 0-.21 0l-.59.59v-.94c0-.08-.07-.15-.15-.15s-.15.07-.15.15v.94l-.59-.59a.145.145 0 0 0-.21 0c-.06.06-.06.15 0 .21l.79.79v1.26l-1.08-.64-.28-1.08c-.02-.08-.1-.12-.18-.1s-.12.1-.1.18l.21.8-.8-.48a.146.146 0 1 0-.15.25l.8.48-.8.21c-.08.02-.12.1-.1.18z"/><path stroke="#6fafac" stroke-linecap="round" stroke-linejoin="round" stroke-width=".68" d="M450.65 309.07h-57.56v24.8h57.56z"/><path fill="#6fafac" stroke="#6fafac" stroke-miterlimit="10" stroke-width=".7" d="M450.65 333.87h-57.56v6.33h57.56z"/><path fill="#013834" stroke="#6fafac" stroke-linecap="round" stroke-linejoin="round" stroke-width=".73" d="M470.8 326.11v-31.3l-20.15 14.74v30.94z"/><path fill="#006e69" stroke="#6fafac" stroke-linecap="round" stroke-linejoin="round" stroke-width=".82" d="M470.8 294.11h-57.14l-20.15 14.38h57.14z"/><path fill="#6fafac" d="M411.85 303.74h-5.8l-2.81 2.01h5.81zm37.04 0h-5.81l-2.81 2.01h5.81zm-18.52 0h-5.81l-2.8 2.01h5.8zm-9.91-6.69h-5.8l-2.81 2h5.81zm37.04 0h-5.81l-2.8 2h5.8zm-18.52 0h-5.8l-2.81 2h5.81z"/><path fill="#003834" stroke="#6fafac" stroke-miterlimit="10" stroke-width=".7" d="M199.39 227.27h-38.54v28.13h38.54z"/><path fill="#003834" stroke="#6fafac" stroke-miterlimit="10" stroke-width=".7" d="M180.12 258.86c10.642 0 19.27-1.804 19.27-4.03s-8.628-4.03-19.27-4.03c-10.643 0-19.27 1.804-19.27 4.03s8.627 4.03 19.27 4.03Z"/><path fill="#6fafac" d="m159.63 227.11 20.49-10.78 20.49 10.78"/><path stroke="#6fafac" stroke-linecap="round" stroke-linejoin="round" stroke-width="1.15" d="m159.63 227.11 20.49-10.78 20.49 10.78"/><path fill="#6fafac" stroke="#6fafac" stroke-miterlimit="10" stroke-width=".7" d="M180.12 254.33a9.41 9.41 0 1 0 0-18.82 9.41 9.41 0 0 0 0 18.82Z"/><path fill="#003834" d="M184.57 246.65c0 2.45-1.99 4.44-4.44 4.44s-4.44-1.99-4.44-4.44 4.44-7.91 4.44-7.91 4.44 5.45 4.44 7.91"/><path fill="#afd3d0" d="M176.84 245.46c.78-1.76 1.87-3.34 2.94-4.92-.48.82-.93 1.66-1.36 2.5-.42.84-.85 1.7-1.14 2.58-.11.3-.55.14-.43-.16zm1.29 4.07s-.09-.01-.12-.04a3.14 3.14 0 0 1-1.44-2.87c0-.13.12-.22.25-.21.13 0 .22.12.21.25-.07.98.4 1.92 1.23 2.45.11.07.14.21.07.32-.04.07-.12.11-.19.11z"/><path fill="#6fafac" stroke="#6fafac" stroke-linecap="round" stroke-linejoin="round" stroke-width="1.26" d="M180.12 231.71c11.316 0 20.49-1.804 20.49-4.03s-9.174-4.03-20.49-4.03-20.49 1.804-20.49 4.03 9.174 4.03 20.49 4.03"/><path fill="#003834" stroke="#6fafac" stroke-miterlimit="10" stroke-width=".7" d="M169.49 250.86h-38.54v28.13h38.54z"/><path fill="#003834" stroke="#6fafac" stroke-miterlimit="10" stroke-width=".7" d="M150.22 282.44c10.642 0 19.27-1.804 19.27-4.03s-8.628-4.03-19.27-4.03c-10.643 0-19.27 1.804-19.27 4.03s8.627 4.03 19.27 4.03Z"/><path fill="#6fafac" d="m129.73 250.69 20.49-10.78 20.49 10.78"/><path stroke="#6fafac" stroke-linecap="round" stroke-linejoin="round" stroke-width="1.15" d="m129.73 250.69 20.49-10.78 20.49 10.78"/><path fill="#6fafac" stroke="#6fafac" stroke-miterlimit="10" stroke-width=".7" d="M150.22 277.92a9.41 9.41 0 1 0 0-18.82 9.41 9.41 0 0 0 0 18.82Z"/><path fill="#003834" d="M154.67 270.24c0 2.45-1.99 4.44-4.44 4.44s-4.44-1.99-4.44-4.44 4.44-7.91 4.44-7.91 4.44 5.45 4.44 7.91"/><path fill="#afd3d0" d="M146.94 269.04c.78-1.76 1.87-3.34 2.94-4.92-.48.82-.93 1.66-1.36 2.5-.42.84-.85 1.7-1.14 2.58-.11.3-.55.14-.43-.16zm1.29 4.07s-.09-.01-.12-.04a3.14 3.14 0 0 1-1.44-2.87c0-.13.12-.22.25-.21.13 0 .22.12.21.25-.07.98.4 1.92 1.23 2.45.11.07.14.21.07.32-.04.07-.12.11-.19.11z"/><path fill="#6fafac" stroke="#6fafac" stroke-linecap="round" stroke-linejoin="round" stroke-width="1.26" d="M150.22 255.29c11.316 0 20.49-1.804 20.49-4.03s-9.174-4.03-20.49-4.03-20.49 1.804-20.49 4.03 9.174 4.03 20.49 4.03"/><path fill="#013834" stroke="#6fafac" stroke-linecap="round" stroke-linejoin="round" stroke-width=".73" d="M458.91 231.68h-34.45v31.78h34.45z"/><path fill="#013834" stroke="#6fafac" stroke-linecap="round" stroke-linejoin="round" stroke-width=".77" d="M458.91 263.47v-31.79l-16.92 11.97v31.78z"/><path fill="#013834" stroke="#6fafac" stroke-linecap="round" stroke-linejoin="round" stroke-width=".73" d="M442 243.65h-34.45v31.78H442z"/><path fill="#6fafac" stroke="#6fafac" stroke-miterlimit="10" stroke-width=".7" d="M431.3 262.09c0 3.61-2.92 6.53-6.53 6.53s-6.53-2.92-6.53-6.53 6.53-11.61 6.53-11.61 6.53 8.01 6.53 11.61Z"/><path fill="#003834" d="M420.89 262.78c.02-.1.11-.16.21-.16h.05l1.59.41 1.6-.95h.84l1.6.95 1.59-.41h.05a.213.213 0 0 1 .06.42l-1.18.3 1.18.7c.1.06.14.19.07.29-.06.1-.19.14-.29.08l-1.18-.7.3 1.18c.03.11-.04.23-.15.26a.21.21 0 0 1-.26-.15l-.41-1.59-1.59-.94v1.85l1.16 1.16c.08.08.08.22 0 .3s-.22.08-.3 0l-.86-.86v1.37c0 .12-.1.21-.21.21s-.21-.1-.21-.21v-1.37l-.86.86c-.08.08-.22.08-.3 0a.217.217 0 0 1 0-.3l1.16-1.16v-1.85l-1.59.94-.41 1.59c-.03.11-.15.18-.26.15a.216.216 0 0 1-.15-.26l.3-1.18-1.18.7c-.1.06-.23.03-.29-.08a.21.21 0 0 1 .07-.29l1.18-.7-1.18-.3a.216.216 0 0 1-.15-.26"/><path fill="#003834" d="M420.89 261.39c.02.1.11.16.21.16h.05l1.59-.41 1.6.95h.84l1.6-.95 1.59.41h.05a.213.213 0 0 0 .06-.42l-1.18-.3 1.18-.7c.1-.06.14-.19.07-.29-.06-.1-.19-.14-.29-.08l-1.18.7.3-1.18a.216.216 0 0 0-.15-.26.21.21 0 0 0-.26.15l-.41 1.59-1.59.94v-1.85l1.16-1.16c.08-.08.08-.22 0-.3a.22.22 0 0 0-.3 0l-.86.86v-1.37c0-.12-.1-.21-.21-.21s-.21.1-.21.21v1.37l-.86-.86a.22.22 0 0 0-.3 0c-.08.08-.08.22 0 .3l1.16 1.16v1.85l-1.59-.94-.41-1.59a.216.216 0 0 0-.26-.15c-.11.03-.18.15-.15.26l.3 1.18-1.18-.7a.206.206 0 0 0-.29.08c-.06.1-.03.23.07.29l1.18.7-1.18.3c-.11.03-.18.15-.15.26"/><path fill="#013834" stroke="#6fafac" stroke-linecap="round" stroke-linejoin="round" stroke-width=".77" d="M458.91 231.68h-34.45l-16.91 12.15h34.44z"/><path fill="#006e69" stroke="#006e69" stroke-miterlimit="10" stroke-width="1.04" d="m450.925 227.071-18.651.603.162 4.997 18.65-.602z"/><path fill="#006e69" stroke="#006e69" stroke-miterlimit="10" stroke-width=".82" d="M441.856 235.305c5.15-.166 9.288-1.442 9.242-2.849s-4.257-2.414-9.407-2.248-9.288 1.442-9.243 2.85c.046 1.408 4.257 2.414 9.408 2.247Z"/><path fill="#003834" stroke="#006e69" stroke-miterlimit="10" stroke-width=".82" d="M441.668 229.484c5.15-.166 9.288-1.442 9.243-2.849-.046-1.408-4.258-2.414-9.408-2.248s-9.288 1.442-9.243 2.85c.046 1.407 4.258 2.414 9.408 2.247Z"/><path stroke="#6fafac" stroke-linecap="round" stroke-linejoin="round" stroke-width=".77" d="M451.74 236.75h-33.8"/><path fill="#006e69" stroke="#006e69" stroke-miterlimit="10" stroke-width="1.04" d="m437.221 234.18-18.65.602.162 4.998 18.65-.603z"/><path fill="#006e69" stroke="#006e69" stroke-miterlimit="10" stroke-width=".82" d="M428.142 242.414c5.15-.166 9.289-1.442 9.243-2.85-.045-1.407-4.257-2.414-9.407-2.247-5.151.166-9.289 1.442-9.243 2.85.045 1.407 4.257 2.413 9.407 2.247Z"/><path fill="#003834" stroke="#006e69" stroke-miterlimit="10" stroke-width=".82" d="M427.954 236.583c5.15-.166 9.288-1.442 9.243-2.85-.046-1.407-4.257-2.413-9.407-2.247s-9.289 1.442-9.243 2.85c.045 1.407 4.257 2.414 9.407 2.247Z"/><path fill="#013834" stroke="#6fafac" stroke-linecap="round" stroke-linejoin="round" stroke-width=".73" d="M503.98 231.68h-34.45v31.78h34.45z"/><path fill="#013834" stroke="#6fafac" stroke-linecap="round" stroke-linejoin="round" stroke-width=".77" d="M503.98 263.47v-31.79l-16.91 11.97v31.78z"/><path fill="#013834" stroke="#6fafac" stroke-linecap="round" stroke-linejoin="round" stroke-width=".73" d="M487.07 243.65h-34.45v31.78h34.45z"/><path fill="#6fafac" stroke="#6fafac" stroke-miterlimit="10" stroke-width=".7" d="M476.37 262.09c0 3.61-2.92 6.53-6.53 6.53s-6.53-2.92-6.53-6.53 6.53-11.61 6.53-11.61 6.53 8.01 6.53 11.61Z"/><path fill="#003834" d="M465.97 262.78c.02-.1.11-.16.21-.16h.05l1.59.41 1.6-.95h.84l1.6.95 1.59-.41h.05a.213.213 0 0 1 .06.42l-1.18.3 1.18.7c.1.06.14.19.07.29-.06.1-.19.14-.29.08l-1.18-.7.3 1.18c.03.11-.04.23-.15.26a.21.21 0 0 1-.26-.15l-.41-1.59-1.59-.94v1.85l1.16 1.16c.08.08.08.22 0 .3s-.22.08-.3 0l-.86-.86v1.37c0 .12-.1.21-.21.21s-.21-.1-.21-.21v-1.37l-.86.86c-.08.08-.22.08-.3 0a.217.217 0 0 1 0-.3l1.16-1.16v-1.85l-1.59.94-.41 1.59c-.03.11-.15.18-.26.15a.216.216 0 0 1-.15-.26l.3-1.18-1.18.7c-.1.06-.23.03-.29-.08a.21.21 0 0 1 .07-.29l1.18-.7-1.18-.3a.216.216 0 0 1-.15-.26"/><path fill="#003834" d="M465.97 261.39c.02.1.11.16.21.16h.05l1.59-.41 1.6.95h.84l1.6-.95 1.59.41h.05a.213.213 0 0 0 .06-.42l-1.18-.3 1.18-.7c.1-.06.14-.19.07-.29-.06-.1-.19-.14-.29-.08l-1.18.7.3-1.18a.216.216 0 0 0-.15-.26.21.21 0 0 0-.26.15l-.41 1.59-1.59.94v-1.85l1.16-1.16c.08-.08.08-.22 0-.3a.217.217 0 0 0-.3 0l-.86.86v-1.37c0-.12-.1-.21-.21-.21s-.21.1-.21.21v1.37l-.86-.86a.217.217 0 0 0-.3 0c-.08.08-.08.22 0 .3l1.16 1.16v1.85l-1.59-.94-.41-1.59a.216.216 0 0 0-.26-.15c-.11.03-.18.15-.15.26l.3 1.18-1.18-.7a.206.206 0 0 0-.29.08c-.06.1-.03.23.07.29l1.18.7-1.18.3c-.11.03-.18.15-.15.26"/><path fill="#013834" stroke="#6fafac" stroke-linecap="round" stroke-linejoin="round" stroke-width=".77" d="M503.98 231.68h-34.45l-16.91 12.15h34.45z"/><path fill="#006e69" stroke="#006e69" stroke-miterlimit="10" stroke-width="1.04" d="m496.001 227.076-18.65.603.161 4.997 18.651-.602z"/><path fill="#006e69" stroke="#006e69" stroke-miterlimit="10" stroke-width=".82" d="M486.922 235.301c5.15-.167 9.288-1.443 9.243-2.85-.046-1.408-4.257-2.414-9.408-2.248-5.15.167-9.288 1.442-9.242 2.85s4.257 2.414 9.407 2.248Z"/><path fill="#003834" stroke="#006e69" stroke-miterlimit="10" stroke-width=".82" d="M486.734 229.49c5.15-.167 9.289-1.443 9.243-2.85s-4.257-2.414-9.407-2.248c-5.15.167-9.289 1.442-9.243 2.85s4.257 2.414 9.407 2.248Z"/><path stroke="#6fafac" stroke-linecap="round" stroke-linejoin="round" stroke-width=".77" d="M496.82 236.75h-33.8"/><path fill="#006e69" stroke="#006e69" stroke-miterlimit="10" stroke-width="1.04" d="m482.288 234.185-18.65.603.161 4.997 18.65-.602z"/><path fill="#006e69" stroke="#006e69" stroke-miterlimit="10" stroke-width=".82" d="M473.219 242.419c5.15-.166 9.288-1.442 9.243-2.85-.046-1.407-4.258-2.414-9.408-2.247-5.15.166-9.288 1.442-9.243 2.85.046 1.407 4.258 2.414 9.408 2.247Z"/><path fill="#003834" stroke="#006e69" stroke-miterlimit="10" stroke-width=".82" d="M473.021 236.588c5.15-.166 9.288-1.442 9.242-2.849s-4.257-2.414-9.407-2.248-9.288 1.442-9.243 2.85c.046 1.408 4.258 2.414 9.408 2.247Z"/><path fill="#013834" stroke="#6fafac" stroke-linecap="round" stroke-linejoin="round" stroke-width=".73" d="M549.06 231.68h-34.45v31.78h34.45z"/><path fill="#013834" stroke="#6fafac" stroke-linecap="round" stroke-linejoin="round" stroke-width=".77" d="M549.05 263.47v-31.79l-16.91 11.97v31.78z"/><path fill="#013834" stroke="#6fafac" stroke-linecap="round" stroke-linejoin="round" stroke-width=".73" d="M532.14 243.65h-34.45v31.78h34.45z"/><path fill="#6fafac" stroke="#6fafac" stroke-miterlimit="10" stroke-width=".7" d="M521.44 262.09c0 3.61-2.92 6.53-6.53 6.53s-6.53-2.92-6.53-6.53 6.53-11.61 6.53-11.61 6.53 8.01 6.53 11.61Z"/><path fill="#003834" d="M511.04 262.78c.02-.1.11-.16.21-.16h.05l1.59.41 1.6-.95h.84l1.6.95 1.59-.41h.05a.213.213 0 0 1 .06.42l-1.18.3 1.18.7c.1.06.14.19.07.29-.06.1-.19.14-.29.08l-1.18-.7.3 1.18c.03.11-.04.23-.15.26a.21.21 0 0 1-.26-.15l-.41-1.59-1.59-.94v1.85l1.16 1.16c.08.08.08.22 0 .3s-.22.08-.3 0l-.86-.86v1.37c0 .12-.1.21-.21.21s-.21-.1-.21-.21v-1.37l-.86.86c-.08.08-.22.08-.3 0a.22.22 0 0 1 0-.3l1.16-1.16v-1.85l-1.59.94-.41 1.59c-.03.11-.15.18-.26.15a.216.216 0 0 1-.15-.26l.3-1.18-1.18.7c-.1.06-.23.03-.29-.08a.21.21 0 0 1 .07-.29l1.18-.7-1.18-.3a.216.216 0 0 1-.15-.26"/><path fill="#003834" d="M511.04 261.39c.02.1.11.16.21.16h.05l1.59-.41 1.6.95h.84l1.6-.95 1.59.41h.05a.213.213 0 0 0 .06-.42l-1.18-.3 1.18-.7c.1-.06.14-.19.07-.29-.06-.1-.19-.14-.29-.08l-1.18.7.3-1.18a.216.216 0 0 0-.15-.26.21.21 0 0 0-.26.15l-.41 1.59-1.59.94v-1.85l1.16-1.16c.08-.08.08-.22 0-.3a.217.217 0 0 0-.3 0l-.86.86v-1.37c0-.12-.1-.21-.21-.21s-.21.1-.21.21v1.37l-.86-.86a.22.22 0 0 0-.3 0c-.08.08-.08.22 0 .3l1.16 1.16v1.85l-1.59-.94-.41-1.59a.216.216 0 0 0-.26-.15c-.11.03-.18.15-.15.26l.3 1.18-1.18-.7a.206.206 0 0 0-.29.08c-.06.1-.03.23.07.29l1.18.7-1.18.3c-.11.03-.18.15-.15.26"/><path fill="#013834" stroke="#6fafac" stroke-linecap="round" stroke-linejoin="round" stroke-width=".77" d="M549.05 231.68h-34.44l-16.92 12.15h34.45z"/><path fill="#006e69" stroke="#006e69" stroke-miterlimit="10" stroke-width="1.04" d="m541.078 227.081-18.651.602.162 4.998 18.65-.603z"/><path fill="#006e69" stroke="#006e69" stroke-miterlimit="10" stroke-width=".82" d="M532.009 235.305c5.15-.166 9.288-1.442 9.242-2.85-.045-1.407-4.257-2.414-9.407-2.247-5.15.166-9.288 1.442-9.243 2.85.046 1.407 4.257 2.414 9.408 2.247Z"/><path fill="#003834" stroke="#006e69" stroke-miterlimit="10" stroke-width=".82" d="M531.811 229.484c5.15-.166 9.288-1.442 9.243-2.85-.046-1.407-4.258-2.414-9.408-2.247-5.15.166-9.288 1.442-9.243 2.85.046 1.407 4.258 2.413 9.408 2.247Z"/><path stroke="#6fafac" stroke-linecap="round" stroke-linejoin="round" stroke-width=".77" d="M541.89 236.75h-33.8"/><path fill="#006e69" stroke="#006e69" stroke-miterlimit="10" stroke-width="1.04" d="m527.365 234.19-18.651.602.162 4.998 18.65-.603z"/><path fill="#006e69" stroke="#006e69" stroke-miterlimit="10" stroke-width=".82" d="M518.295 242.414c5.15-.167 9.289-1.442 9.243-2.85s-4.257-2.414-9.407-2.248c-5.15.167-9.289 1.443-9.243 2.85s4.257 2.414 9.407 2.248Z"/><path fill="#003834" stroke="#006e69" stroke-miterlimit="10" stroke-width=".82" d="M518.107 236.583c5.15-.166 9.288-1.442 9.243-2.85-.045-1.407-4.257-2.414-9.407-2.247-5.151.166-9.289 1.442-9.243 2.85.045 1.407 4.257 2.413 9.407 2.247Z"/><path stroke="#aecc53" stroke-linecap="round" stroke-linejoin="round" stroke-width="1.05" d="M403.24 287.23h97.17m-123.99 31.01h15.53m-222.46-39.47h17.72m11.83-23.26h13.26M86.2 350.14l12.32-9.65m33.49 9.65 12.33-9.65m108.36 9.65 22.04-16.27m-218.77 6.62-12.33 9.65H410l12.32-9.65m-8.02-53.23 15.23-11.85m17.03 18.36 23.42-18.34m-353.47 29.92 29.31-22.95m23.62-16.97 8.25-6.46m322.7 28.29 14.54-11.39m-417.5-91.33v46.66c0 5.98-4.85 11.65-10.83 11.65H73.15c-5.98 0-10.83 4.85-10.83 10.83v53.35"/><path fill="#aecc53" d="m94.29 185.46 3.14-5.45 3.15 5.45zM59.17 306.12l3.14 5.45 3.15-5.45z"/><path stroke="#aecc53" stroke-linecap="round" stroke-linejoin="round" stroke-width="1.05" d="M184.6 184.06v16.03c0 4.2-3.41 7.61-7.61 7.61h-20.72a6.79 6.79 0 0 0-6.79 6.79v19.82"/><path fill="#aecc53" d="m181.46 184.98 3.14-5.45 3.15 5.45zm-35.12 48.41 3.15 5.45 3.14-5.45z"/><path stroke="#aecc53" stroke-linecap="round" stroke-linejoin="round" stroke-width="1.05" d="M495.98 98.04v52.28c0 5.98 4.85 11.65 10.83 11.65h13.45c5.98 0 10.83 4.85 10.83 10.83v48.44"/><path fill="#aecc53" d="m492.83 98.96 3.15-5.44 3.14 5.44zm35.12 121.36 3.14 5.45 3.15-5.45z"/><path stroke="#aecc53" stroke-linecap="round" stroke-linejoin="round" stroke-width="1.05" d="M410.64 164.8v41.75c0 5.98 4.85 11.65 10.83 11.65h13.45c5.98 0 10.83 4.85 10.83 10.83v65.46"/><path fill="#aecc53" d="m407.5 165.72 3.14-5.45 3.15 5.45zm35.12 127.85 3.14 5.45 3.15-5.45z"/><path stroke="#aecc53" stroke-linecap="round" stroke-linejoin="round" stroke-width="1.05" d="m282.13 157.17 12.4-9.71m-33.68 26.79 21.46-16.73m-48.43-10.06-15.21 9.71h120.96c3.32 0 6.55-1.09 9.2-3.1l8.67-6.6m-96.63 109.37v-82.59M461.26 71.17V47.3"/><path fill="#aecc53" d="m464.41 48.22-3.15-5.45-3.14 5.45z"/><path stroke="#006e69" stroke-miterlimit="10" stroke-width=".82" d="M465.63 18.05h-50.61v24.72h50.61z"/><path stroke="#006e69" stroke-miterlimit="10" stroke-width=".73" d="M465.63 20.56h-50.61v19.71h50.61z"/><path stroke="#006e69" stroke-miterlimit="10" stroke-width=".82" d="M415.02 35.76h50.61m-50.61-5.35h50.61m-50.61-5.34h50.61"/><path fill="#006e69" d="M440.33 38.3a7.89 7.89 0 0 0 7.89-7.89 7.89 7.89 0 0 0-7.89-7.89 7.89 7.89 0 0 0-7.89 7.89 7.89 7.89 0 0 0 7.89 7.89"/><path fill="#afd3d0" d="M435.59 31.27c.03-.12.14-.2.25-.2h.07l1.95.5 1.96-1.16h1.03l1.96 1.16 1.95-.5h.07c.12 0 .22.08.25.2.04.14-.05.28-.19.32l-1.44.37 1.45.86c.12.07.17.23.09.36a.26.26 0 0 1-.36.09l-1.45-.86.37 1.44c.04.14-.05.28-.19.32s-.28-.05-.32-.19l-.5-1.95-1.95-1.15v2.26l1.42 1.42c.1.1.1.27 0 .37s-.27.1-.37 0l-1.05-1.05v1.68c0 .14-.12.26-.26.26s-.26-.12-.26-.26v-1.68l-1.05 1.05c-.1.1-.27.1-.37 0s-.1-.27 0-.37l1.42-1.42v-2.26l-1.95 1.15-.5 1.95c-.04.14-.18.22-.32.19a.27.27 0 0 1-.19-.32l.37-1.44-1.45.86c-.12.07-.28.03-.36-.09a.273.273 0 0 1 .09-.36l1.45-.86-1.44-.37a.27.27 0 0 1-.19-.32z"/><path fill="#afd3d0" d="M435.59 29.56c.03.12.14.2.25.2h.07l1.95-.5 1.96 1.16h1.03l1.96-1.16 1.95.5h.07c.12 0 .22-.08.25-.2.04-.14-.05-.28-.19-.32l-1.44-.37 1.45-.86a.26.26 0 0 0 .09-.36.26.26 0 0 0-.36-.09l-1.45.86.37-1.44c.04-.14-.05-.28-.19-.32s-.28.05-.32.19l-.5 1.95-1.95 1.15v-2.26l1.42-1.42c.1-.1.1-.27 0-.37s-.27-.1-.37 0l-1.05 1.05v-1.68c0-.14-.12-.26-.26-.26s-.26.12-.26.26v1.68l-1.05-1.05c-.1-.1-.27-.1-.37 0s-.1.27 0 .37l1.42 1.42v2.26l-1.95-1.15-.5-1.95a.27.27 0 0 0-.32-.19c-.14.04-.22.18-.19.32l.37 1.44-1.45-.86a.273.273 0 0 0-.36.09c-.07.12-.03.28.09.36l1.45.86-1.44.37c-.14.04-.22.18-.19.32z"/><path stroke="#afd3d0" stroke-linecap="round" stroke-linejoin="round" stroke-width=".35" d="M439.46 42.12v9.61c.02 1.31-1.05 2.38-2.36 2.39a2.4 2.4 0 0 1-2.39-2.38m6.48-9.62v9.61c-.02 1.31 1.05 2.38 2.36 2.39a2.4 2.4 0 0 0 2.39-2.38"/><path stroke="#afd3d0" stroke-linecap="round" stroke-linejoin="round" stroke-width=".35" d="m437.93 42.16.02 5.97c0 1.31-.9 2.38-2.21 2.39a2.4 2.4 0 0 1-2.39-2.38v.13c0-1.24 1-2.26 2.25-2.26m7.09-3.87.02 5.97c0 1.31.92 2.38 2.23 2.38s2.38-1.08 2.38-2.39v.13c0-1.24-1.01-2.25-2.26-2.25"/><path fill="#006e69" d="M191.87 56.62c-.07 4.16-2.23 8.63-5.65 11-3 2.07-5.72.39-5.65-3.57.07-4.16 2.23-8.63 5.65-11 3-2.07 5.72-.39 5.65 3.57"/><path fill="#afd3d0" d="M182.82 63.36c.02-.12.1-.25.18-.3.02-.01.03-.02.05-.02l1.4-.46c.56-.8.84-1.2 1.41-2 .29-.19.44-.29.74-.48l1.41.15c.56-.55.84-.83 1.4-1.38.02-.02.03-.03.05-.04.08-.05.16-.03.18.06.03.11-.03.28-.14.38-.41.41-.62.61-1.03 1.02.41.04.62.07 1.04.11.09 0 .12.14.07.29s-.17.26-.26.25c-.41-.04-.62-.07-1.04-.11.11.46.16.7.27 1.16.03.11-.03.28-.14.38-.1.1-.2.09-.23-.02-.14-.63-.22-.94-.36-1.57l-1.39-.15v2.09c.41.26.61.39 1.02.64.07.05.07.2 0 .34s-.19.22-.27.17c-.3-.19-.45-.29-.76-.48v1.55c0 .13-.08.3-.19.37-.1.07-.19.02-.19-.12v-1.55c-.3.59-.45.88-.76 1.47-.07.14-.19.22-.27.17-.07-.05-.07-.2 0-.34.41-.79.61-1.19 1.02-1.99v-2.09c-.56.79-.84 1.19-1.4 1.98-.14.81-.21 1.22-.36 2.04-.03.15-.13.29-.23.32s-.16-.06-.14-.21c.11-.6.16-.9.27-1.51-.41.59-.62.88-1.04 1.47-.09.13-.2.16-.26.08-.05-.08-.02-.25.07-.37.41-.59.62-.88 1.04-1.47-.41.14-.62.2-1.03.34-.1.03-.16-.06-.14-.21zm0-1.58c.02.09.1.12.18.06.02-.01.03-.02.05-.04.56-.55.84-.83 1.4-1.38l1.41.15c.29-.19.44-.29.74-.48.56-.8.84-1.2 1.41-2 .56-.18.84-.27 1.4-.46.02 0 .03-.01.05-.02.08-.05.16-.18.18-.3.03-.15-.03-.24-.14-.21-.41.14-.62.2-1.03.34.41-.59.62-.88 1.04-1.47.09-.13.12-.29.07-.37s-.17-.04-.26.08c-.41.59-.62.88-1.04 1.47.11-.6.16-.9.27-1.51.03-.15-.03-.24-.14-.21-.1.03-.2.18-.23.32-.14.82-.22 1.22-.36 2.04-.56.79-.84 1.19-1.39 1.98v-2.09c.41-.79.61-1.19 1.02-1.99.07-.14.07-.3 0-.34-.07-.05-.19.03-.27.17-.3.59-.45.88-.76 1.47v-1.55c0-.13-.08-.19-.19-.12a.5.5 0 0 0-.19.37v1.55c-.3-.19-.45-.29-.76-.48-.07-.05-.19.03-.27.17-.07.14-.07.3 0 .34.41.26.61.39 1.02.64V60l-1.4-.15c-.14-.63-.21-.94-.36-1.57-.03-.11-.13-.12-.23-.02s-.16.27-.14.38c.11.46.16.7.27 1.16-.41-.04-.62-.07-1.04-.11-.09 0-.2.1-.26.25-.05.15-.02.28.07.29.41.04.62.07 1.04.11-.41.41-.62.61-1.03 1.02-.1.1-.16.27-.14.38zm1.92 24.11c-.2 0-.38-.05-.55-.14-.48-.26-.76-.88-.76-1.69 0-.1.08-.18.18-.18s.18.08.18.17c0 .68.21 1.18.58 1.38.32.17.74.11 1.18-.18 1.07-.7 1.94-2.42 1.94-3.83V70.69c0-.1.07-.18.17-.18s.18.08.18.18v10.73c.01 1.52-.93 3.37-2.09 4.12-.34.22-.68.34-.99.34zm5.5-3.56c-.2 0-.38-.05-.55-.14-.48-.26-.76-.88-.76-1.7V69.74c0-.1.09-.18.19-.18s.18.08.18.18v10.75c-.01.68.2 1.19.57 1.39.31.17.73.11 1.18-.18 1.07-.69 1.95-2.4 1.95-3.82 0-.1.08-.17.18-.17s.18.08.17.18c0 1.52-.95 3.37-2.11 4.12-.34.22-.67.33-.98.33z"/><path fill="#afd3d0" d="M183.58 82.61c-.2 0-.38-.05-.55-.14-.44-.24-.72-.78-.76-1.5v-.22c.07-1.4.93-3.04 1.99-3.72.08-.05.19-.03.24.05s.03.19-.05.24c-1 .65-1.81 2.22-1.83 3.54.02.64.22 1.12.58 1.31.32.17.74.11 1.18-.18 1.03-.67 1.81-2.28 1.8-3.74l-.02-6.66c0-.1.08-.18.18-.18s.18.08.18.17l.02 6.66c0 1.57-.84 3.3-1.96 4.03-.34.22-.68.34-.99.34zm7.9-5.11c-.21 0-.37-.06-.5-.12-.48-.26-.75-.89-.75-1.77l-.02-6.66c0-.1.08-.18.17-.18.1 0 .18.08.18.17l.02 6.66c0 .74.21 1.27.57 1.46.35.19.77 0 1.06-.18 1.06-.69 1.91-2.36 1.94-3.76-.02-.6-.21-1.05-.54-1.23-.3-.16-.69-.1-1.11.18-.08.05-.19.03-.24-.05a.175.175 0 0 1 .05-.24c.53-.35 1.06-.42 1.47-.19.42.23.68.74.72 1.42v.22c-.07 1.48-.98 3.21-2.1 3.94-.37.24-.67.32-.92.32z"/><path fill="#013834" stroke="#6fafac" stroke-linecap="round" stroke-linejoin="round" stroke-width=".73" d="m153.78 94.1-25.98 16.75v-29.9l25.98-16.74z"/><path fill="#6fafac" d="M150.08 87.68c-2.34-3.04-5.1-5.66-7.87-8.29-.43-.39-1.44.2-1.84 1.07-2.69 5.95-5.13 11.96-7.45 18.07-.33.88.05 1.48.73 1.06 5.26-3.28 10.49-6.61 15.7-9.96.68-.43 1.06-1.51.73-1.95"/><path fill="#003834" stroke="#003834" stroke-linecap="round" stroke-linejoin="round" stroke-width=".35" d="M140.16 94.08c.73-2.08 1.09-3.15 1.83-5.27-.83.68-1.25 1.02-2.07 1.7-.32.26-.47.39-.79.65-.01-.49 1.17-5.93 1.16-6.54.35-.15.53-.23.88-.38.54-.32.81-.48 1.34-.79-.67 1.99-1 3.01-1.66 5.03.75-.49 1.13-.74 1.87-1.23.39-.26.59-.39.98-.65-.22.47-3.25 6.82-3.56 7.48z"/><path fill="#6fafac" stroke="#6fafac" stroke-linecap="round" stroke-linejoin="round" stroke-width=".14" d="m133.39 118.17-5.18 3.34v-5.96l5.18-3.33zm6.83-4.15-5.18 3.34v-5.96l5.18-3.33zm13.56-8.57-5.17 3.34v-5.96l5.17-3.34zm-6.73 4.28-5.17 3.33v-5.95l5.17-3.34z"/><path stroke="#006e69" stroke-linecap="round" stroke-linejoin="round" stroke-width=".82" d="M151.19 104.14h16.32v29.74h39.15"/><path stroke="#006e69" stroke-linecap="round" stroke-linejoin="round" stroke-width="3.51" d="M154.52 104.14h-2.39"/><path stroke="#006e69" stroke-linecap="round" stroke-linejoin="round" stroke-width=".82" d="M144.11 108.52h16.32v29.74h46.23"/><path stroke="#006e69" stroke-linecap="round" stroke-linejoin="round" stroke-width="3.51" d="M147.44 108.52h-2.39"/><path stroke="#006e69" stroke-linecap="round" stroke-linejoin="round" stroke-width=".82" d="M137.28 112.84h16.32v29.74h53.06"/><path stroke="#006e69" stroke-linecap="round" stroke-linejoin="round" stroke-width="3.51" d="M140.6 112.84h-2.38"/><path stroke="#006e69" stroke-linecap="round" stroke-linejoin="round" stroke-width=".82" d="M130.8 117.36h16.32v29.74h59.54"/><path stroke="#006e69" stroke-linecap="round" stroke-linejoin="round" stroke-width="3.51" d="M134.12 117.36h-2.38"/><path fill="#013834" stroke="#afd3d0" stroke-linecap="round" stroke-linejoin="round" stroke-width=".51" d="M259.59 52.36h-52.57v94.92h52.57z"/><path stroke="#6fafac" stroke-linecap="round" stroke-linejoin="round" stroke-width=".51" d="M223.09 90.67V80.52c0-7.49 6.09-6.28 13.53-6.28h6.81c1.59.01 3.24-.29 3.4-2.27V56.7"/><path fill="#6fafac" d="M223.09 91.21a.57.57 0 1 0 0-1.14.57.57 0 0 0 0 1.14m23.74-33.92a.57.57 0 1 0 0-1.14.57.57 0 0 0 0 1.14"/><path stroke="#6fafac" stroke-linecap="round" stroke-linejoin="round" stroke-width=".51" d="M224.59 90.67V80.52c0-7.49 6.09-6.28 13.53-6.28h5.72"/><path fill="#6fafac" d="M224.59 91.21a.57.57 0 1 0 0-1.14.57.57 0 0 0 0 1.14m19.23-16.4a.57.57 0 1 0 0-1.14.57.57 0 0 0 0 1.14"/><path stroke="#6fafac" stroke-linecap="round" stroke-linejoin="round" stroke-width=".51" d="M221.6 90.67V80.52c0-7.49 6.09-6.28 13.53-6.28h8.72"/><path fill="#6fafac" d="M222.17 90.64c0 .31-.26.57-.57.57s-.57-.26-.57-.57.26-.57.57-.57.57.26.57.57m21.65-15.83a.57.57 0 1 0 0-1.14.57.57 0 0 0 0 1.14"/><path stroke="#6fafac" stroke-linecap="round" stroke-linejoin="round" stroke-width=".51" d="M223.09 111.92v-10.15c0-7.49 6.09-6.28 13.53-6.28h6.81c1.59.01 3.24-.29 3.4-2.27V75.21"/><path fill="#6fafac" d="M223.09 112.46a.57.57 0 1 0 0-1.14.57.57 0 0 0 0 1.14m23.74-36.66a.57.57 0 1 0 0-1.14.57.57 0 0 0 0 1.14"/><path stroke="#6fafac" stroke-linecap="round" stroke-linejoin="round" stroke-width=".51" d="M224.59 111.92v-10.15c0-7.49 6.09-6.28 13.53-6.28h5.72"/><path fill="#6fafac" d="M224.59 112.46a.57.57 0 1 0 0-1.14.57.57 0 0 0 0 1.14m19.23-16.41a.57.57 0 1 0 0-1.14.57.57 0 0 0 0 1.14"/><path stroke="#6fafac" stroke-linecap="round" stroke-linejoin="round" stroke-width=".51" d="M221.6 111.92v-10.15c0-7.49 6.09-6.28 13.53-6.28h8.72"/><path fill="#6fafac" d="M222.17 111.89c0 .31-.26.57-.57.57s-.57-.26-.57-.57.26-.57.57-.57.57.26.57.57m21.65-15.84a.57.57 0 1 0 0-1.14.57.57 0 0 0 0 1.14"/><path fill="#338a86" d="M259.33 52.69h-52.06v5.67h52.06z"/><path fill="#003834" stroke="#afd3d0" stroke-linecap="round" stroke-linejoin="round" stroke-width=".7" d="M269.35 46.08h-52.62l-9.71 6.28h52.63z"/><path stroke="#afd3d0" stroke-linecap="round" stroke-linejoin="round" stroke-width=".51" d="m269.7 46.08-.24 94.78-9.75 6.28.25-94.78z"/><path stroke="#6fafac" stroke-linecap="round" stroke-linejoin="round" stroke-width=".51" d="M223.09 133.16v-10.15c0-7.49 6.09-6.28 13.53-6.28h6.81c1.59.01 3.24-.29 3.4-2.27V96.45"/><path fill="#6fafac" d="M223.09 133.7a.57.57 0 1 0 0-1.14.57.57 0 0 0 0 1.14m23.74-36.66a.57.57 0 1 0 0-1.14.57.57 0 0 0 0 1.14"/><path stroke="#6fafac" stroke-linecap="round" stroke-linejoin="round" stroke-width=".51" d="M224.59 133.16v-10.15c0-7.49 6.09-6.28 13.53-6.28h5.72"/><path fill="#6fafac" d="M224.59 133.7a.57.57 0 1 0 0-1.14.57.57 0 0 0 0 1.14m19.23-16.41a.57.57 0 1 0 0-1.14.57.57 0 0 0 0 1.14"/><path stroke="#6fafac" stroke-linecap="round" stroke-linejoin="round" stroke-width=".51" d="M221.6 133.16v-10.15c0-7.49 6.09-6.28 13.53-6.28h8.72"/><path fill="#6fafac" d="M222.17 133.13c0 .31-.26.57-.57.57s-.57-.26-.57-.57.26-.57.57-.57.57.26.57.57m21.65-15.84a.57.57 0 1 0 0-1.14.57.57 0 0 0 0 1.14"/><path fill="#003834" d="M255.49 64.33h-44.36a1.24 1.24 0 0 0-1.24 1.24v11.89c0 .685.555 1.24 1.24 1.24h44.36a1.24 1.24 0 0 0 1.24-1.24V65.57a1.24 1.24 0 0 0-1.24-1.24m0 21.24h-44.36a1.24 1.24 0 0 0-1.24 1.24V98.7c0 .685.555 1.24 1.24 1.24h44.36a1.24 1.24 0 0 0 1.24-1.24V86.81a1.24 1.24 0 0 0-1.24-1.24m0 21.25h-44.36a1.24 1.24 0 0 0-1.24 1.24v11.89c0 .685.555 1.24 1.24 1.24h44.36a1.24 1.24 0 0 0 1.24-1.24v-11.89a1.24 1.24 0 0 0-1.24-1.24m0 21.24h-44.36a1.24 1.24 0 0 0-1.24 1.24v11.89c0 .685.555 1.24 1.24 1.24h44.36a1.24 1.24 0 0 0 1.24-1.24V129.3a1.24 1.24 0 0 0-1.24-1.24"/><path fill="#006e69" d="M255.49 62.52h-44.36a1.24 1.24 0 0 0-1.24 1.24v11.89c0 .685.555 1.24 1.24 1.24h44.36a1.24 1.24 0 0 0 1.24-1.24V63.76a1.24 1.24 0 0 0-1.24-1.24"/><path fill="#6fafac" d="M224.81 71.43h-10.36a1.73 1.73 0 0 1 0-3.46h10.36a1.73 1.73 0 0 1 0 3.46"/><path stroke="#6fafac" stroke-linecap="round" stroke-linejoin="round" stroke-width=".5" d="M233.44 71.46h-2.88a1.73 1.73 0 0 1 0-3.46h2.88a1.73 1.73 0 0 1 0 3.46"/><path stroke="#6fafac" stroke-linecap="round" stroke-linejoin="round" stroke-width=".45" d="M232.05 70.08v-9.45c0-5.87 6.09-4.81 13.53-4.81h10.21"/><path fill="#6fafac" d="M232.56 70.06c0 .28-.23.5-.5.5s-.5-.23-.5-.5.23-.5.5-.5.5.23.5.5"/><path stroke="#6fafac" stroke-linecap="round" stroke-linejoin="round" stroke-width=".45" d="M233.55 70.08v-9.45c0-5.87 6.09-4.48 13.53-4.48h8.71"/><path fill="#6fafac" d="M233.55 70.56a.5.5 0 1 0 0-1 .5.5 0 0 0 0 1"/><path stroke="#6fafac" stroke-linecap="round" stroke-linejoin="round" stroke-width=".45" d="M230.56 70.08v-9.45c0-5.87 6.09-4.81 13.53-4.81h11.71"/><path fill="#6fafac" d="M230.56 70.56a.5.5 0 1 0 0-1 .5.5 0 0 0 0 1"/><path fill="#003834" d="M254.61 67.14h-14.38v5.12h14.38z"/><path stroke="#6fafac" stroke-linecap="round" stroke-linejoin="round" stroke-width=".45" d="M242.37 69.7h10.11"/><circle cx="215.01" cy="69.7" r=".495" fill="#afd3d0"/><path stroke="#afd3d0" stroke-linecap="round" stroke-linejoin="round" stroke-width=".99" d="M218.18 69.7h4.76"/><circle cx="224.53" cy="69.7" r=".495" fill="#afd3d0"/><path fill="#006e69" d="M255.49 83.76h-44.36a1.24 1.24 0 0 0-1.24 1.24v11.89c0 .685.555 1.24 1.24 1.24h44.36a1.24 1.24 0 0 0 1.24-1.24V85a1.24 1.24 0 0 0-1.24-1.24"/><path fill="#003834" d="M254.61 88.39h-14.38v5.12h14.38z"/><path stroke="#6fafac" stroke-linecap="round" stroke-linejoin="round" stroke-width=".45" d="M242.37 90.94h10.11"/><path fill="#6fafac" d="M224.81 92.67h-10.36a1.73 1.73 0 0 1 0-3.46h10.36a1.73 1.73 0 0 1 0 3.46"/><path stroke="#6fafac" stroke-linecap="round" stroke-linejoin="round" stroke-width=".5" d="M233.44 92.67h-2.88a1.73 1.73 0 0 1 0-3.46h2.88a1.73 1.73 0 0 1 0 3.46"/><circle cx="215.01" cy="90.94" r=".495" fill="#afd3d0"/><path stroke="#afd3d0" stroke-linecap="round" stroke-linejoin="round" stroke-width=".99" d="M218.18 90.94h4.76"/><circle cx="224.53" cy="90.94" r=".495" fill="#afd3d0"/><path stroke="#6fafac" stroke-linecap="round" stroke-linejoin="round" stroke-width=".45" d="M232.05 90.73V80.51c0-7.49 6.09-6.28 13.53-6.28h6.81c1.59.01 3.24-.29 3.4-2.27v-16"/><path fill="#6fafac" d="M232.56 90.71c0 .28-.23.5-.5.5s-.5-.23-.5-.5.23-.5.5-.5.5.23.5.5m23.74-34.72c0-.28-.23-.5-.5-.5s-.5.23-.5.5.23.5.5.5.5-.23.5-.5"/><path stroke="#6fafac" stroke-linecap="round" stroke-linejoin="round" stroke-width=".45" d="M233.55 90.73V80.51c0-7.49 6.09-6.28 13.53-6.28h5.78"/><path fill="#6fafac" d="M233.55 91.21a.5.5 0 1 0 0-1 .5.5 0 0 0 0 1m19.29-16.47a.5.5 0 1 0 0-1 .5.5 0 0 0 0 1"/><path stroke="#6fafac" stroke-linecap="round" stroke-linejoin="round" stroke-width=".45" d="M230.56 90.73V80.51c0-7.49 6.09-6.28 13.53-6.28h8.78"/><path fill="#6fafac" d="M230.56 91.21a.5.5 0 1 0 0-1 .5.5 0 0 0 0 1m22.28-16.47a.5.5 0 1 0 0-1 .5.5 0 0 0 0 1"/><path fill="#006e69" d="M255.49 105h-44.36a1.24 1.24 0 0 0-1.24 1.24v11.89c0 .685.555 1.24 1.24 1.24h44.36a1.24 1.24 0 0 0 1.24-1.24v-11.89a1.24 1.24 0 0 0-1.24-1.24"/><path fill="#003834" d="M254.61 109.63h-14.38v5.12h14.38z"/><path stroke="#6fafac" stroke-linecap="round" stroke-linejoin="round" stroke-width=".45" d="M242.37 112.19h10.11"/><path fill="#6fafac" d="M224.81 113.91h-10.36a1.73 1.73 0 0 1 0-3.46h10.36a1.73 1.73 0 0 1 0 3.46"/><path stroke="#6fafac" stroke-linecap="round" stroke-linejoin="round" stroke-width=".5" d="M233.44 113.91h-2.88a1.73 1.73 0 0 1 0-3.46h2.88a1.73 1.73 0 0 1 0 3.46"/><circle cx="215.01" cy="112.19" r=".495" fill="#afd3d0"/><path stroke="#afd3d0" stroke-linecap="round" stroke-linejoin="round" stroke-width=".99" d="M218.18 112.19h4.76"/><circle cx="224.53" cy="112.19" r=".495" fill="#afd3d0"/><path fill="#006e69" d="M255.49 126.24h-44.36a1.24 1.24 0 0 0-1.24 1.24v11.89c0 .685.555 1.24 1.24 1.24h44.36a1.24 1.24 0 0 0 1.24-1.24v-11.89a1.24 1.24 0 0 0-1.24-1.24"/><path fill="#003834" d="M254.61 130.87h-14.38v5.12h14.38z"/><path stroke="#6fafac" stroke-linecap="round" stroke-linejoin="round" stroke-width=".45" d="M242.37 133.43h10.11"/><path fill="#6fafac" d="M224.81 135.16h-10.36a1.73 1.73 0 0 1 0-3.46h10.36a1.73 1.73 0 0 1 0 3.46"/><path stroke="#6fafac" stroke-linecap="round" stroke-linejoin="round" stroke-width=".5" d="M233.44 135.16h-2.88a1.73 1.73 0 0 1 0-3.46h2.88a1.73 1.73 0 0 1 0 3.46"/><path fill="#afd3d0" d="M215.01 133.92a.47.47 0 0 1-.35-.15c-.02-.02-.04-.05-.06-.08a.3.3 0 0 1-.04-.08l-.03-.09v-.1c0-.13.05-.26.15-.35.11-.12.29-.17.45-.14q.045 0 .09.03c.03.01.06.03.09.04.03.02.05.04.08.06.09.09.15.22.15.35v.1c0 .04-.02.06-.03.09s-.03.06-.05.08c-.02.03-.04.05-.06.08-.02.02-.05.04-.08.06s-.06.03-.09.05l-.09.03c-.03.01-.06 0-.1 0zm5.85-.49c0-.27.22-.5.5-.5.27 0 .49.22.49.5a.5.5 0 0 1-.49.5c-.27 0-.5-.22-.5-.5m-3.17 0c0-.27.22-.5.5-.5.27 0 .5.22.5.5 0 .27-.22.5-.5.5-.27 0-.5-.22-.5-.5m6.84.49a.47.47 0 0 1-.41-.23.3.3 0 0 1-.04-.08l-.03-.09c-.01-.03 0-.06 0-.1 0-.13.05-.26.15-.35.02-.02.05-.04.07-.06.03-.02.06-.03.09-.04l.09-.03c.06-.01.13-.01.19 0q.045 0 .09.03c.03.01.06.03.08.04.03.02.05.04.08.06.09.09.15.22.15.35s-.05.26-.15.35c-.02.02-.05.04-.08.06s-.05.03-.08.05l-.09.03h-.1z"/><path stroke="#6fafac" stroke-linecap="round" stroke-linejoin="round" stroke-width=".51" d="M232.05 111.92v-10.15c0-7.49 6.09-6.28 13.53-6.28h6.81c1.59.01 3.24-.29 3.4-2.27V78.44"/><path fill="#6fafac" d="M232.63 111.89c0 .31-.26.57-.57.57s-.57-.26-.57-.57.26-.57.57-.57.57.26.57.57m23.73-33.43c0-.31-.26-.57-.57-.57s-.57.26-.57.57.26.57.57.57.57-.26.57-.57"/><path stroke="#6fafac" stroke-linecap="round" stroke-linejoin="round" stroke-width=".51" d="M233.55 111.92v-10.15c0-7.49 6.09-6.28 13.53-6.28h5.72"/><path fill="#6fafac" d="M233.55 112.46a.57.57 0 1 0 0-1.14.57.57 0 0 0 0 1.14m19.23-16.41c.31 0 .57-.26.57-.57s-.26-.57-.57-.57-.57.26-.57.57.26.57.57.57"/><path stroke="#6fafac" stroke-linecap="round" stroke-linejoin="round" stroke-width=".51" d="M230.56 111.92v-10.15c0-7.49 6.09-6.28 13.53-6.28h8.72"/><path fill="#6fafac" d="M230.56 112.46a.57.57 0 1 0 0-1.14.57.57 0 0 0 0 1.14m22.22-16.41c.31 0 .57-.26.57-.57s-.26-.57-.57-.57-.57.26-.57.57.26.57.57.57"/><path stroke="#6fafac" stroke-linecap="round" stroke-linejoin="round" stroke-width=".45" d="M232.05 133.22V123c0-7.49 6.09-6.28 13.53-6.28h6.81c1.59.01 3.24-.29 3.4-2.27V99.61"/><path fill="#6fafac" d="M232.56 133.19c0 .28-.23.5-.5.5s-.5-.23-.5-.5.23-.5.5-.5.5.23.5.5m23.74-33.56c0-.28-.23-.5-.5-.5s-.5.23-.5.5.23.5.5.5.5-.23.5-.5"/><path stroke="#6fafac" stroke-linecap="round" stroke-linejoin="round" stroke-width=".45" d="M233.55 133.22V123c0-7.49 6.09-6.28 13.53-6.28h5.78"/><path fill="#6fafac" d="M233.55 133.69a.5.5 0 1 0 0-1 .5.5 0 0 0 0 1m19.29-16.47a.5.5 0 1 0 0-1 .5.5 0 0 0 0 1"/><path stroke="#6fafac" stroke-linecap="round" stroke-linejoin="round" stroke-width=".45" d="M230.56 133.22V123c0-7.49 6.09-6.28 13.53-6.28h8.78"/><path fill="#6fafac" d="M230.56 133.69a.5.5 0 1 0 0-1 .5.5 0 0 0 0 1m22.28-16.47a.5.5 0 1 0 0-1 .5.5 0 0 0 0 1"/><path stroke="#6fafac" stroke-linecap="round" stroke-linejoin="round" stroke-width=".51" d="M246.13 137.97h6.26c1.59.01 3.24-.29 3.4-2.27v-14.78"/><path fill="#6fafac" d="M246.16 138.54a.57.57 0 1 0 0-1.14.57.57 0 0 0 0 1.14m10.2-17.6c0-.31-.26-.57-.57-.57s-.57.26-.57.57.26.57.57.57.57-.26.57-.57"/><path stroke="#6fafac" stroke-linecap="round" stroke-linejoin="round" stroke-width=".51" d="M247.63 137.97h5.18"/><path fill="#6fafac" d="M247.66 138.54c-.31 0-.57-.26-.57-.57s.26-.57.57-.57.57.26.57.57-.26.57-.57.57m5.12 0c.31 0 .57-.26.57-.57s-.26-.57-.57-.57-.57.26-.57.57.26.57.57.57"/><path stroke="#6fafac" stroke-linecap="round" stroke-linejoin="round" stroke-width=".51" d="M244.63 137.97h8.18"/><path fill="#6fafac" d="M244.66 138.54a.57.57 0 1 0 0-1.14.57.57 0 0 0 0 1.14m8.12 0c.31 0 .57-.26.57-.57s-.26-.57-.57-.57-.57.26-.57.57.26.57.57.57"/><path fill="#013834" stroke="#afd3d0" stroke-linecap="round" stroke-linejoin="round" stroke-width=".51" d="M321.64 52.36h-52.57v94.92h52.57z"/><path stroke="#6fafac" stroke-linecap="round" stroke-linejoin="round" stroke-width=".51" d="M285.14 90.67V80.52c0-7.49 6.09-6.28 13.53-6.28h6.81c1.59.01 3.24-.29 3.4-2.27V56.7"/><path fill="#6fafac" d="M285.71 90.64c0 .31-.26.57-.57.57s-.57-.26-.57-.57.26-.57.57-.57.57.26.57.57m23.17-33.35a.57.57 0 1 0 0-1.14.57.57 0 0 0 0 1.14"/><path stroke="#6fafac" stroke-linecap="round" stroke-linejoin="round" stroke-width=".51" d="M286.64 90.67V80.52c0-7.49 6.09-6.28 13.53-6.28h5.72"/><path fill="#6fafac" d="M286.64 91.21a.57.57 0 1 0 0-1.14.57.57 0 0 0 0 1.14m19.22-16.4c.31 0 .57-.26.57-.57s-.26-.57-.57-.57-.57.26-.57.57.26.57.57.57"/><path stroke="#6fafac" stroke-linecap="round" stroke-linejoin="round" stroke-width=".51" d="M283.64 90.67V80.52c0-7.49 6.09-6.28 13.53-6.28h8.72"/><path fill="#6fafac" d="M283.64 91.21a.57.57 0 1 0 0-1.14.57.57 0 0 0 0 1.14m22.22-16.4c.31 0 .57-.26.57-.57s-.26-.57-.57-.57-.57.26-.57.57.26.57.57.57"/><path stroke="#6fafac" stroke-linecap="round" stroke-linejoin="round" stroke-width=".51" d="M285.14 111.92v-10.15c0-7.49 6.09-6.28 13.53-6.28h6.81c1.59.01 3.24-.29 3.4-2.27V75.21"/><path fill="#6fafac" d="M285.71 111.89c0 .31-.26.57-.57.57s-.57-.26-.57-.57.26-.57.57-.57.57.26.57.57m23.17-36.09a.57.57 0 1 0 0-1.14.57.57 0 0 0 0 1.14"/><path stroke="#6fafac" stroke-linecap="round" stroke-linejoin="round" stroke-width=".51" d="M286.64 111.92v-10.15c0-7.49 6.09-6.28 13.53-6.28h5.72"/><path fill="#6fafac" d="M286.64 112.46a.57.57 0 1 0 0-1.14.57.57 0 0 0 0 1.14m19.22-16.41c.31 0 .57-.26.57-.57s-.26-.57-.57-.57-.57.26-.57.57.26.57.57.57"/><path stroke="#6fafac" stroke-linecap="round" stroke-linejoin="round" stroke-width=".51" d="M283.64 111.92v-10.15c0-7.49 6.09-6.28 13.53-6.28h8.72"/><path fill="#6fafac" d="M283.64 112.46a.57.57 0 1 0 0-1.14.57.57 0 0 0 0 1.14m22.22-16.41c.31 0 .57-.26.57-.57s-.26-.57-.57-.57-.57.26-.57.57.26.57.57.57"/><path fill="#338a86" d="M321.23 52.5h-51.88v5.86h51.88z"/><path stroke="#afd3d0" stroke-linecap="round" stroke-linejoin="round" stroke-width=".5" d="M331.4 46.08h-52.63l-9.7 6.28h52.62z"/><path stroke="#afd3d0" stroke-linecap="round" stroke-linejoin="round" stroke-width=".51" d="m331.75 46.08-.25 94.78-9.74 6.28.24-94.78z"/><path stroke="#6fafac" stroke-linecap="round" stroke-linejoin="round" stroke-width=".51" d="M285.14 133.16v-10.15c0-7.49 6.09-6.28 13.53-6.28h6.81c1.59.01 3.24-.29 3.4-2.27V96.45"/><path fill="#6fafac" d="M285.71 133.13c0 .31-.26.57-.57.57s-.57-.26-.57-.57.26-.57.57-.57.57.26.57.57m23.17-36.09a.57.57 0 1 0 0-1.14.57.57 0 0 0 0 1.14"/><path stroke="#6fafac" stroke-linecap="round" stroke-linejoin="round" stroke-width=".51" d="M286.64 133.16v-10.15c0-7.49 6.09-6.28 13.53-6.28h5.72"/><path fill="#6fafac" d="M286.64 133.7a.57.57 0 1 0 0-1.14.57.57 0 0 0 0 1.14m19.22-16.41c.31 0 .57-.26.57-.57s-.26-.57-.57-.57-.57.26-.57.57.26.57.57.57"/><path stroke="#6fafac" stroke-linecap="round" stroke-linejoin="round" stroke-width=".51" d="M283.64 133.16v-10.15c0-7.49 6.09-6.28 13.53-6.28h8.72"/><path fill="#6fafac" d="M283.64 133.7a.57.57 0 1 0 0-1.14.57.57 0 0 0 0 1.14m22.22-16.41c.31 0 .57-.26.57-.57s-.26-.57-.57-.57-.57.26-.57.57.26.57.57.57"/><path fill="#003834" d="M317.53 64.33h-44.36a1.24 1.24 0 0 0-1.24 1.24v11.89c0 .685.555 1.24 1.24 1.24h44.36a1.24 1.24 0 0 0 1.24-1.24V65.57a1.24 1.24 0 0 0-1.24-1.24m0 21.24h-44.36a1.24 1.24 0 0 0-1.24 1.24V98.7c0 .685.555 1.24 1.24 1.24h44.36a1.24 1.24 0 0 0 1.24-1.24V86.81a1.24 1.24 0 0 0-1.24-1.24m0 21.25h-44.36a1.24 1.24 0 0 0-1.24 1.24v11.89c0 .685.555 1.24 1.24 1.24h44.36a1.24 1.24 0 0 0 1.24-1.24v-11.89a1.24 1.24 0 0 0-1.24-1.24m0 21.24h-44.36a1.24 1.24 0 0 0-1.24 1.24v11.89c0 .685.555 1.24 1.24 1.24h44.36a1.24 1.24 0 0 0 1.24-1.24V129.3a1.24 1.24 0 0 0-1.24-1.24"/><path fill="#006e69" d="M317.53 62.52h-44.36a1.24 1.24 0 0 0-1.24 1.24v11.89c0 .685.555 1.24 1.24 1.24h44.36a1.24 1.24 0 0 0 1.24-1.24V63.76a1.24 1.24 0 0 0-1.24-1.24"/><path fill="#6fafac" d="M286.85 71.43h-10.36a1.73 1.73 0 0 1 0-3.46h10.36a1.73 1.73 0 0 1 0 3.46"/><path stroke="#6fafac" stroke-linecap="round" stroke-linejoin="round" stroke-width=".5" d="M295.49 71.46h-2.88a1.73 1.73 0 0 1 0-3.46h2.88a1.73 1.73 0 0 1 0 3.46"/><path stroke="#6fafac" stroke-linecap="round" stroke-linejoin="round" stroke-width=".45" d="M294.1 70.08v-9.45c0-5.87 6.09-4.81 13.53-4.81h10.21"/><path fill="#6fafac" d="M294.1 70.56a.5.5 0 1 0 0-1 .5.5 0 0 0 0 1"/><path stroke="#6fafac" stroke-linecap="round" stroke-linejoin="round" stroke-width=".45" d="M295.6 70.08v-9.45c0-5.87 6.09-4.48 13.53-4.48h8.71"/><path fill="#6fafac" d="M296.1 70.06c0 .28-.23.5-.5.5s-.5-.23-.5-.5.23-.5.5-.5.5.23.5.5"/><path stroke="#6fafac" stroke-linecap="round" stroke-linejoin="round" stroke-width=".45" d="M292.6 70.08v-9.45c0-5.87 6.09-4.81 13.53-4.81h11.71"/><path fill="#6fafac" d="M292.6 70.56a.5.5 0 1 0 0-1 .5.5 0 0 0 0 1"/><path fill="#003834" d="M316.65 67.14h-14.38v5.12h14.38z"/><path stroke="#6fafac" stroke-linecap="round" stroke-linejoin="round" stroke-width=".45" d="M304.41 69.7h10.11"/><circle cx="277.05" cy="69.7" r=".495" fill="#afd3d0"/><path stroke="#afd3d0" stroke-linecap="round" stroke-linejoin="round" stroke-width=".99" d="M280.22 69.7h4.76"/><circle cx="286.57" cy="69.7" r=".495" fill="#afd3d0"/><path fill="#006e69" d="M317.53 83.76h-44.36a1.24 1.24 0 0 0-1.24 1.24v11.89c0 .685.555 1.24 1.24 1.24h44.36a1.24 1.24 0 0 0 1.24-1.24V85a1.24 1.24 0 0 0-1.24-1.24"/><path fill="#003834" d="M316.65 88.39h-14.38v5.12h14.38z"/><path stroke="#6fafac" stroke-linecap="round" stroke-linejoin="round" stroke-width=".45" d="M304.41 90.94h10.11"/><path fill="#6fafac" d="M286.85 92.67h-10.36a1.73 1.73 0 0 1 0-3.46h10.36a1.73 1.73 0 0 1 0 3.46"/><path stroke="#6fafac" stroke-linecap="round" stroke-linejoin="round" stroke-width=".5" d="M295.49 92.67h-2.88a1.73 1.73 0 0 1 0-3.46h2.88a1.73 1.73 0 0 1 0 3.46"/><circle cx="277.05" cy="90.94" r=".495" fill="#afd3d0"/><path stroke="#afd3d0" stroke-linecap="round" stroke-linejoin="round" stroke-width=".99" d="M280.22 90.94h4.76"/><circle cx="286.57" cy="90.94" r=".495" fill="#afd3d0"/><path stroke="#6fafac" stroke-linecap="round" stroke-linejoin="round" stroke-width=".45" d="M294.1 90.73V80.51c0-7.49 6.09-6.28 13.53-6.28h6.8c1.59.01 3.24-.29 3.4-2.27v-16"/><path fill="#6fafac" d="M294.1 91.21a.5.5 0 1 0 0-1 .5.5 0 0 0 0 1m24.24-35.22c0-.28-.23-.5-.5-.5s-.5.23-.5.5.23.5.5.5.5-.23.5-.5"/><path stroke="#6fafac" stroke-linecap="round" stroke-linejoin="round" stroke-width=".45" d="M295.6 90.73V80.51c0-7.49 6.09-6.28 13.53-6.28h5.78"/><path fill="#6fafac" d="M296.1 90.71c0 .28-.23.5-.5.5s-.5-.23-.5-.5.23-.5.5-.5.5.23.5.5m18.79-15.97c.28 0 .5-.23.5-.5s-.23-.5-.5-.5-.5.23-.5.5.23.5.5.5"/><path stroke="#6fafac" stroke-linecap="round" stroke-linejoin="round" stroke-width=".45" d="M292.6 90.73V80.51c0-7.49 6.09-6.28 13.53-6.28h8.78"/><path fill="#6fafac" d="M292.6 91.21a.5.5 0 1 0 0-1 .5.5 0 0 0 0 1m22.29-16.47c.28 0 .5-.23.5-.5s-.23-.5-.5-.5-.5.23-.5.5.23.5.5.5"/><path fill="#006e69" d="M317.53 105h-44.36a1.24 1.24 0 0 0-1.24 1.24v11.89c0 .685.555 1.24 1.24 1.24h44.36a1.24 1.24 0 0 0 1.24-1.24v-11.89a1.24 1.24 0 0 0-1.24-1.24"/><path fill="#003834" d="M316.65 109.63h-14.38v5.12h14.38z"/><path stroke="#6fafac" stroke-linecap="round" stroke-linejoin="round" stroke-width=".45" d="M304.41 112.19h10.11"/><path fill="#6fafac" d="M286.85 113.91h-10.36a1.73 1.73 0 0 1 0-3.46h10.36a1.73 1.73 0 0 1 0 3.46"/><path stroke="#6fafac" stroke-linecap="round" stroke-linejoin="round" stroke-width=".5" d="M295.49 113.91h-2.88a1.73 1.73 0 0 1 0-3.46h2.88a1.73 1.73 0 0 1 0 3.46"/><circle cx="277.05" cy="112.19" r=".495" fill="#afd3d0"/><path stroke="#afd3d0" stroke-linecap="round" stroke-linejoin="round" stroke-width=".99" d="M280.22 112.19h4.76"/><circle cx="286.57" cy="112.19" r=".495" fill="#afd3d0"/><path fill="#006e69" d="M317.53 126.24h-44.36a1.24 1.24 0 0 0-1.24 1.24v11.89c0 .685.555 1.24 1.24 1.24h44.36a1.24 1.24 0 0 0 1.24-1.24v-11.89a1.24 1.24 0 0 0-1.24-1.24"/><path fill="#003834" d="M316.65 130.87h-14.38v5.12h14.38z"/><path stroke="#6fafac" stroke-linecap="round" stroke-linejoin="round" stroke-width=".45" d="M304.41 133.43h10.11"/><path fill="#6fafac" d="M286.85 135.16h-10.36a1.73 1.73 0 0 1 0-3.46h10.36a1.73 1.73 0 0 1 0 3.46"/><path stroke="#6fafac" stroke-linecap="round" stroke-linejoin="round" stroke-width=".5" d="M295.49 135.16h-2.88a1.73 1.73 0 0 1 0-3.46h2.88a1.73 1.73 0 0 1 0 3.46"/><path fill="#afd3d0" d="M277.05 133.92a.47.47 0 0 1-.35-.15c-.02-.02-.04-.05-.06-.08a.3.3 0 0 1-.04-.08l-.03-.09v-.1c0-.13.05-.26.15-.35.11-.12.29-.17.45-.14q.045 0 .09.03c.03.01.06.03.09.04.03.02.05.04.08.06.09.09.15.22.15.35v.1c0 .04-.02.06-.03.09s-.03.06-.05.08c-.02.03-.04.05-.06.08-.02.02-.05.04-.08.06s-.06.03-.09.05l-.09.03c-.03.01-.06 0-.1 0zm5.85-.49c0-.27.22-.5.5-.5.27 0 .49.22.49.5a.5.5 0 0 1-.49.5c-.27 0-.5-.22-.5-.5m-3.17 0c0-.27.22-.5.5-.5.27 0 .5.22.5.5 0 .27-.22.5-.5.5-.27 0-.5-.22-.5-.5m6.84.49a.47.47 0 0 1-.35-.15c-.02-.02-.04-.05-.06-.08a.3.3 0 0 1-.04-.08l-.03-.09c-.01-.03 0-.06 0-.1 0-.13.05-.26.15-.35.02-.02.05-.04.07-.06.03-.02.06-.03.09-.04l.09-.03c.06-.01.13-.01.19 0q.045 0 .09.03c.03.01.06.03.08.04.03.02.05.04.08.06.09.09.15.22.15.35s-.05.26-.15.35c-.02.02-.05.04-.08.06s-.05.03-.08.05l-.09.03h-.1z"/><path stroke="#6fafac" stroke-linecap="round" stroke-linejoin="round" stroke-width=".51" d="M294.1 111.92v-10.15c0-7.49 6.09-6.28 13.53-6.28h6.8c1.59.01 3.24-.29 3.4-2.27V78.44"/><path fill="#6fafac" d="M294.1 112.46a.57.57 0 1 0 0-1.14.57.57 0 0 0 0 1.14m23.74-33.43a.57.57 0 1 0 0-1.14.57.57 0 0 0 0 1.14"/><path stroke="#6fafac" stroke-linecap="round" stroke-linejoin="round" stroke-width=".51" d="M295.6 111.92v-10.15c0-7.49 6.09-6.28 13.53-6.28h5.72"/><path fill="#6fafac" d="M296.17 111.89c0 .31-.26.57-.57.57s-.57-.26-.57-.57.26-.57.57-.57.57.26.57.57m18.65-15.84a.57.57 0 1 0 0-1.14.57.57 0 0 0 0 1.14"/><path stroke="#6fafac" stroke-linecap="round" stroke-linejoin="round" stroke-width=".51" d="M292.6 111.92v-10.15c0-7.49 6.09-6.28 13.53-6.28h8.72"/><path fill="#6fafac" d="M292.6 112.46a.57.57 0 1 0 0-1.14.57.57 0 0 0 0 1.14m22.22-16.41a.57.57 0 1 0 0-1.14.57.57 0 0 0 0 1.14"/><path stroke="#6fafac" stroke-linecap="round" stroke-linejoin="round" stroke-width=".45" d="M294.1 133.22V123c0-7.49 6.09-6.28 13.53-6.28h6.8c1.59.01 3.24-.29 3.4-2.27V99.61"/><path fill="#6fafac" d="M294.1 133.69a.5.5 0 1 0 0-1 .5.5 0 0 0 0 1m24.24-34.06c0-.28-.23-.5-.5-.5s-.5.23-.5.5.23.5.5.5.5-.23.5-.5"/><path stroke="#6fafac" stroke-linecap="round" stroke-linejoin="round" stroke-width=".45" d="M295.6 133.22V123c0-7.49 6.09-6.28 13.53-6.28h5.78"/><path fill="#6fafac" d="M296.1 133.19c0 .28-.23.5-.5.5s-.5-.23-.5-.5.23-.5.5-.5.5.23.5.5m18.79-15.96c.28 0 .5-.23.5-.5s-.23-.5-.5-.5-.5.23-.5.5.23.5.5.5"/><path stroke="#6fafac" stroke-linecap="round" stroke-linejoin="round" stroke-width=".45" d="M292.6 133.22V123c0-7.49 6.09-6.28 13.53-6.28h8.78"/><path fill="#6fafac" d="M292.6 133.69a.5.5 0 1 0 0-1 .5.5 0 0 0 0 1m22.29-16.46c.28 0 .5-.23.5-.5s-.23-.5-.5-.5-.5.23-.5.5.23.5.5.5"/><path stroke="#6fafac" stroke-linecap="round" stroke-linejoin="round" stroke-width=".51" d="M308.17 137.97h6.26c1.59.01 3.24-.29 3.4-2.27v-14.78"/><path fill="#6fafac" d="M308.2 138.54a.57.57 0 1 0 0-1.14.57.57 0 0 0 0 1.14m9.64-17.03a.57.57 0 1 0 0-1.14.57.57 0 0 0 0 1.14"/><path stroke="#6fafac" stroke-linecap="round" stroke-linejoin="round" stroke-width=".51" d="M309.67 137.97h5.18"/><path fill="#6fafac" d="M309.7 138.54a.57.57 0 1 0 0-1.14.57.57 0 0 0 0 1.14m5.12 0a.57.57 0 1 0 0-1.14.57.57 0 0 0 0 1.14"/><path stroke="#6fafac" stroke-linecap="round" stroke-linejoin="round" stroke-width=".51" d="M306.67 137.97h8.18"/><path fill="#6fafac" d="M306.7 138.54a.57.57 0 1 0 0-1.14.57.57 0 0 0 0 1.14m8.12 0a.57.57 0 1 0 0-1.14.57.57 0 0 0 0 1.14"/><path stroke="#6fafac" stroke-linecap="round" stroke-linejoin="round" stroke-width=".45" d="m394.4 97.79 10.07-7.82a9.32 9.32 0 0 1 5.68-1.93l86.17.35"/><path stroke="#6fafac" stroke-linecap="round" stroke-linejoin="round" stroke-width=".45" d="m394.4 102.35 11.54-8.87a9.32 9.32 0 0 1 5.68-1.93h80.91"/><path stroke="#6fafac" stroke-linecap="round" stroke-linejoin="round" stroke-width=".45" d="m394.4 106.97 12.75-9.8a9.32 9.32 0 0 1 5.68-1.93h74.95"/><path fill="#013834" stroke="#afd3d0" stroke-linecap="round" stroke-linejoin="round" stroke-width=".51" d="M384.42 52.36h-52.57v94.92h52.57z"/><path stroke="#6fafac" stroke-linecap="round" stroke-linejoin="round" stroke-width=".51" d="M347.92 90.67V80.52c0-7.49 6.09-6.28 13.53-6.28h6.8c1.59.01 3.24-.29 3.4-2.27V56.7"/><path fill="#6fafac" d="M347.92 91.21a.57.57 0 1 0 0-1.14.57.57 0 0 0 0 1.14m24.31-34.49c0-.31-.26-.57-.57-.57s-.57.26-.57.57.26.57.57.57.57-.26.57-.57"/><path stroke="#6fafac" stroke-linecap="round" stroke-linejoin="round" stroke-width=".51" d="M349.42 90.67V80.52c0-7.49 6.09-6.28 13.53-6.28h5.72"/><path fill="#6fafac" d="M349.99 90.64c0 .31-.26.57-.57.57s-.57-.26-.57-.57.26-.57.57-.57.57.26.57.57m18.66-15.83a.57.57 0 1 0 0-1.14.57.57 0 0 0 0 1.14"/><path stroke="#6fafac" stroke-linecap="round" stroke-linejoin="round" stroke-width=".51" d="M346.43 90.67V80.52c0-7.49 6.09-6.28 13.53-6.28h8.72"/><path fill="#6fafac" d="M346.43 91.21a.57.57 0 1 0 0-1.14.57.57 0 0 0 0 1.14m22.22-16.4a.57.57 0 1 0 0-1.14.57.57 0 0 0 0 1.14"/><path stroke="#6fafac" stroke-linecap="round" stroke-linejoin="round" stroke-width=".51" d="M347.92 111.92v-10.15c0-7.49 6.09-6.28 13.53-6.28h6.8c1.59.01 3.24-.29 3.4-2.27V75.21"/><path fill="#6fafac" d="M347.92 112.46a.57.57 0 1 0 0-1.14.57.57 0 0 0 0 1.14m24.31-37.23c0-.31-.26-.57-.57-.57s-.57.26-.57.57.26.57.57.57.57-.26.57-.57"/><path stroke="#6fafac" stroke-linecap="round" stroke-linejoin="round" stroke-width=".51" d="M349.42 111.92v-10.15c0-7.49 6.09-6.28 13.53-6.28h5.72"/><path fill="#6fafac" d="M349.99 111.89c0 .31-.26.57-.57.57s-.57-.26-.57-.57.26-.57.57-.57.57.26.57.57m18.66-15.84a.57.57 0 1 0 0-1.14.57.57 0 0 0 0 1.14"/><path stroke="#6fafac" stroke-linecap="round" stroke-linejoin="round" stroke-width=".51" d="M346.43 111.92v-10.15c0-7.49 6.09-6.28 13.53-6.28h8.72"/><path fill="#6fafac" d="M346.43 112.46a.57.57 0 1 0 0-1.14.57.57 0 0 0 0 1.14m22.22-16.41a.57.57 0 1 0 0-1.14.57.57 0 0 0 0 1.14"/><path fill="#338a86" d="M384.78 52.5h-52.57v5.86h52.57z"/><path stroke="#afd3d0" stroke-linecap="round" stroke-linejoin="round" stroke-width=".5" d="M394.18 46.08h-52.62l-9.71 6.28h52.63z"/><path fill="#003834" stroke="#afd3d0" stroke-linecap="round" stroke-linejoin="round" stroke-width=".7" d="m394.53 46.08-.24 94.78-9.75 6.28.25-94.78z"/><path stroke="#6fafac" stroke-linecap="round" stroke-linejoin="round" stroke-width=".51" d="M347.92 133.16v-10.15c0-7.49 6.09-6.28 13.53-6.28h6.8c1.59.01 3.24-.29 3.4-2.27V96.45"/><path fill="#6fafac" d="M347.92 133.7a.57.57 0 1 0 0-1.14.57.57 0 0 0 0 1.14m24.31-37.23c0-.31-.26-.57-.57-.57s-.57.26-.57.57.26.57.57.57.57-.26.57-.57"/><path stroke="#6fafac" stroke-linecap="round" stroke-linejoin="round" stroke-width=".51" d="M349.42 133.16v-10.15c0-7.49 6.09-6.28 13.53-6.28h5.72"/><path fill="#6fafac" d="M349.99 133.13c0 .31-.26.57-.57.57s-.57-.26-.57-.57.26-.57.57-.57.57.26.57.57m18.66-15.84a.57.57 0 1 0 0-1.14.57.57 0 0 0 0 1.14"/><path stroke="#6fafac" stroke-linecap="round" stroke-linejoin="round" stroke-width=".51" d="M346.43 133.16v-10.15c0-7.49 6.09-6.28 13.53-6.28h8.72"/><path fill="#6fafac" d="M346.43 133.7a.57.57 0 1 0 0-1.14.57.57 0 0 0 0 1.14m22.22-16.41a.57.57 0 1 0 0-1.14.57.57 0 0 0 0 1.14"/><path fill="#003834" d="M380.32 64.33h-44.36a1.24 1.24 0 0 0-1.24 1.24v11.89c0 .685.555 1.24 1.24 1.24h44.36a1.24 1.24 0 0 0 1.24-1.24V65.57a1.24 1.24 0 0 0-1.24-1.24m0 21.24h-44.36a1.24 1.24 0 0 0-1.24 1.24V98.7c0 .685.555 1.24 1.24 1.24h44.36a1.24 1.24 0 0 0 1.24-1.24V86.81a1.24 1.24 0 0 0-1.24-1.24m0 21.25h-44.36a1.24 1.24 0 0 0-1.24 1.24v11.89c0 .685.555 1.24 1.24 1.24h44.36a1.24 1.24 0 0 0 1.24-1.24v-11.89a1.24 1.24 0 0 0-1.24-1.24m0 21.24h-44.36a1.24 1.24 0 0 0-1.24 1.24v11.89c0 .685.555 1.24 1.24 1.24h44.36a1.24 1.24 0 0 0 1.24-1.24V129.3a1.24 1.24 0 0 0-1.24-1.24"/><path fill="#006e69" d="M380.32 62.52h-44.36a1.24 1.24 0 0 0-1.24 1.24v11.89c0 .685.555 1.24 1.24 1.24h44.36a1.24 1.24 0 0 0 1.24-1.24V63.76a1.24 1.24 0 0 0-1.24-1.24"/><path fill="#6fafac" d="M349.64 71.43h-10.36a1.73 1.73 0 0 1 0-3.46h10.36a1.73 1.73 0 0 1 0 3.46"/><path stroke="#6fafac" stroke-linecap="round" stroke-linejoin="round" stroke-width=".5" d="M358.27 71.46h-2.88a1.73 1.73 0 0 1 0-3.46h2.88a1.73 1.73 0 0 1 0 3.46"/><path stroke="#6fafac" stroke-linecap="round" stroke-linejoin="round" stroke-width=".45" d="M356.88 70.08v-9.45c0-5.87 6.09-4.81 13.53-4.81h10.21"/><path fill="#6fafac" d="M356.88 70.56a.5.5 0 1 0 0-1 .5.5 0 0 0 0 1"/><path stroke="#6fafac" stroke-linecap="round" stroke-linejoin="round" stroke-width=".45" d="M358.38 70.08v-9.45c0-5.87 6.09-4.48 13.53-4.48h8.71"/><path fill="#6fafac" d="M358.38 70.56a.5.5 0 1 0 0-1 .5.5 0 0 0 0 1"/><path stroke="#6fafac" stroke-linecap="round" stroke-linejoin="round" stroke-width=".45" d="M355.39 70.08v-9.45c0-5.87 6.09-4.81 13.53-4.81h11.71"/><path fill="#6fafac" d="M355.89 70.06c0 .28-.23.5-.5.5s-.5-.23-.5-.5.23-.5.5-.5.5.23.5.5"/><path fill="#003834" d="M379.44 67.14h-14.38v5.12h14.38z"/><path stroke="#6fafac" stroke-linecap="round" stroke-linejoin="round" stroke-width=".45" d="M367.2 69.7h10.11"/><circle cx="339.84" cy="69.7" r=".495" fill="#afd3d0"/><path stroke="#afd3d0" stroke-linecap="round" stroke-linejoin="round" stroke-width=".99" d="M343.01 69.7h4.76"/><circle cx="349.36" cy="69.7" r=".495" fill="#afd3d0"/><path fill="#006e69" d="M380.32 83.76h-44.36a1.24 1.24 0 0 0-1.24 1.24v11.89c0 .685.555 1.24 1.24 1.24h44.36a1.24 1.24 0 0 0 1.24-1.24V85a1.24 1.24 0 0 0-1.24-1.24"/><path fill="#003834" d="M379.44 88.39h-14.38v5.12h14.38z"/><path stroke="#6fafac" stroke-linecap="round" stroke-linejoin="round" stroke-width=".45" d="M367.2 90.94h10.11"/><path fill="#6fafac" d="M349.64 92.67h-10.36a1.73 1.73 0 0 1 0-3.46h10.36a1.73 1.73 0 0 1 0 3.46"/><path stroke="#6fafac" stroke-linecap="round" stroke-linejoin="round" stroke-width=".5" d="M358.27 92.67h-2.88a1.73 1.73 0 0 1 0-3.46h2.88a1.73 1.73 0 0 1 0 3.46"/><circle cx="339.84" cy="90.94" r=".495" fill="#afd3d0"/><path stroke="#afd3d0" stroke-linecap="round" stroke-linejoin="round" stroke-width=".99" d="M343.01 90.94h4.76"/><circle cx="349.36" cy="90.94" r=".495" fill="#afd3d0"/><path stroke="#6fafac" stroke-linecap="round" stroke-linejoin="round" stroke-width=".45" d="M356.88 90.73V80.51c0-7.49 6.09-6.28 13.53-6.28h6.81c1.59.01 3.24-.29 3.4-2.27v-16"/><path fill="#6fafac" d="M356.88 91.21a.5.5 0 1 0 0-1 .5.5 0 0 0 0 1m24.25-35.22c0-.28-.23-.5-.5-.5s-.5.23-.5.5.23.5.5.5.5-.23.5-.5"/><path stroke="#6fafac" stroke-linecap="round" stroke-linejoin="round" stroke-width=".45" d="M358.38 90.73V80.51c0-7.49 6.09-6.28 13.53-6.28h5.78"/><path fill="#6fafac" d="M358.38 91.21a.5.5 0 1 0 0-1 .5.5 0 0 0 0 1m19.29-16.47a.5.5 0 1 0 0-1 .5.5 0 0 0 0 1"/><path stroke="#6fafac" stroke-linecap="round" stroke-linejoin="round" stroke-width=".45" d="M355.39 90.73V80.51c0-7.49 6.09-6.28 13.53-6.28h8.78"/><path fill="#6fafac" d="M355.89 90.71c0 .28-.23.5-.5.5s-.5-.23-.5-.5.23-.5.5-.5.5.23.5.5m21.78-15.97a.5.5 0 1 0 0-1 .5.5 0 0 0 0 1"/><path fill="#006e69" d="M380.32 105h-44.36a1.24 1.24 0 0 0-1.24 1.24v11.89c0 .685.555 1.24 1.24 1.24h44.36a1.24 1.24 0 0 0 1.24-1.24v-11.89a1.24 1.24 0 0 0-1.24-1.24"/><path fill="#003834" d="M379.44 109.63h-14.38v5.12h14.38z"/><path stroke="#6fafac" stroke-linecap="round" stroke-linejoin="round" stroke-width=".45" d="M367.2 112.19h10.11"/><path fill="#6fafac" d="M349.64 113.91h-10.36a1.73 1.73 0 0 1 0-3.46h10.36a1.73 1.73 0 0 1 0 3.46"/><path stroke="#6fafac" stroke-linecap="round" stroke-linejoin="round" stroke-width=".5" d="M358.27 113.91h-2.88a1.73 1.73 0 0 1 0-3.46h2.88a1.73 1.73 0 0 1 0 3.46"/><circle cx="339.84" cy="112.19" r=".495" fill="#afd3d0"/><path stroke="#afd3d0" stroke-linecap="round" stroke-linejoin="round" stroke-width=".99" d="M343.01 112.19h4.76"/><circle cx="349.36" cy="112.19" r=".495" fill="#afd3d0"/><path fill="#006e69" d="M380.32 126.24h-44.36a1.24 1.24 0 0 0-1.24 1.24v11.89c0 .685.555 1.24 1.24 1.24h44.36a1.24 1.24 0 0 0 1.24-1.24v-11.89a1.24 1.24 0 0 0-1.24-1.24"/><path fill="#003834" d="M379.44 130.87h-14.38v5.12h14.38z"/><path stroke="#6fafac" stroke-linecap="round" stroke-linejoin="round" stroke-width=".45" d="M367.2 133.43h10.11"/><path fill="#6fafac" d="M349.64 135.16h-10.36a1.73 1.73 0 0 1 0-3.46h10.36a1.73 1.73 0 0 1 0 3.46"/><path stroke="#6fafac" stroke-linecap="round" stroke-linejoin="round" stroke-width=".5" d="M358.27 135.16h-2.88a1.73 1.73 0 0 1 0-3.46h2.88a1.73 1.73 0 0 1 0 3.46"/><path fill="#afd3d0" d="M339.84 133.92a.47.47 0 0 1-.41-.23.3.3 0 0 1-.04-.08l-.03-.09v-.1c0-.13.05-.26.15-.35.11-.12.29-.17.45-.14q.045 0 .09.03c.03.01.06.03.09.04.03.02.05.04.08.06.09.09.15.22.15.35v.1c0 .04-.02.06-.03.09s-.03.06-.05.08c-.02.03-.04.05-.06.08-.02.02-.05.04-.08.06s-.06.03-.09.05l-.09.03c-.03.01-.06 0-.1 0zm5.85-.49c0-.27.22-.5.5-.5.27 0 .49.22.49.5a.5.5 0 0 1-.49.5c-.27 0-.5-.22-.5-.5m-3.18 0c0-.27.22-.5.5-.5.27 0 .5.22.5.5 0 .27-.22.5-.5.5-.27 0-.5-.22-.5-.5m6.85.49a.47.47 0 0 1-.35-.15c-.02-.02-.04-.05-.06-.08a.3.3 0 0 1-.04-.08l-.03-.09c-.01-.03 0-.06 0-.1 0-.13.05-.26.15-.35.02-.02.05-.04.07-.06.03-.02.06-.03.09-.04l.09-.03c.06-.01.13-.01.19 0q.045 0 .09.03c.03.01.06.03.08.04.03.02.05.04.08.06.09.09.15.22.15.35a.47.47 0 0 1-.23.41c-.03.02-.05.03-.08.05l-.09.03h-.1z"/><path stroke="#6fafac" stroke-linecap="round" stroke-linejoin="round" stroke-width=".51" d="M356.88 111.92v-10.15c0-7.49 6.09-6.28 13.53-6.28h6.81c1.59.01 3.24-.29 3.4-2.27V78.44"/><path fill="#6fafac" d="M356.88 112.46a.57.57 0 1 0 0-1.14.57.57 0 0 0 0 1.14m23.74-33.43a.57.57 0 1 0 0-1.14.57.57 0 0 0 0 1.14"/><path stroke="#6fafac" stroke-linecap="round" stroke-linejoin="round" stroke-width=".51" d="M358.38 111.92v-10.15c0-7.49 6.09-6.28 13.53-6.28h5.72"/><path fill="#6fafac" d="M358.38 112.46a.57.57 0 1 0 0-1.14.57.57 0 0 0 0 1.14m19.23-16.41a.57.57 0 1 0 0-1.14.57.57 0 0 0 0 1.14"/><path stroke="#6fafac" stroke-linecap="round" stroke-linejoin="round" stroke-width=".51" d="M355.39 111.92v-10.15c0-7.49 6.09-6.28 13.53-6.28h8.72"/><path fill="#6fafac" d="M355.96 111.89c0 .31-.26.57-.57.57s-.57-.26-.57-.57.26-.57.57-.57.57.26.57.57m21.65-15.84a.57.57 0 1 0 0-1.14.57.57 0 0 0 0 1.14"/><path stroke="#6fafac" stroke-linecap="round" stroke-linejoin="round" stroke-width=".45" d="M356.88 133.22V123c0-7.49 6.09-6.28 13.53-6.28h6.81c1.59.01 3.24-.29 3.4-2.27V99.61"/><path fill="#6fafac" d="M356.88 133.69a.5.5 0 1 0 0-1 .5.5 0 0 0 0 1m24.25-34.06c0-.28-.23-.5-.5-.5s-.5.23-.5.5.23.5.5.5.5-.23.5-.5"/><path stroke="#6fafac" stroke-linecap="round" stroke-linejoin="round" stroke-width=".45" d="M358.38 133.22V123c0-7.49 6.09-6.28 13.53-6.28h5.78"/><path fill="#6fafac" d="M358.38 133.69a.5.5 0 1 0 0-1 .5.5 0 0 0 0 1m19.29-16.47a.5.5 0 1 0 0-1 .5.5 0 0 0 0 1"/><path stroke="#6fafac" stroke-linecap="round" stroke-linejoin="round" stroke-width=".45" d="M355.39 133.22V123c0-7.49 6.09-6.28 13.53-6.28h8.78"/><path fill="#6fafac" d="M355.89 133.19c0 .28-.23.5-.5.5s-.5-.23-.5-.5.23-.5.5-.5.5.23.5.5m21.78-15.97a.5.5 0 1 0 0-1 .5.5 0 0 0 0 1"/><path stroke="#6fafac" stroke-linecap="round" stroke-linejoin="round" stroke-width=".51" d="M370.96 137.97h6.26c1.59.01 3.24-.29 3.4-2.27v-14.78"/><path fill="#6fafac" d="M370.99 138.54c-.31 0-.57-.26-.57-.57s.26-.57.57-.57.57.26.57.57-.26.57-.57.57m9.63-17.03a.57.57 0 1 0 0-1.14.57.57 0 0 0 0 1.14"/><path stroke="#6fafac" stroke-linecap="round" stroke-linejoin="round" stroke-width=".51" d="M372.46 137.97h5.18"/><path fill="#6fafac" d="M372.48 138.54a.57.57 0 1 0 0-1.14.57.57 0 0 0 0 1.14m5.13 0a.57.57 0 1 0 0-1.14.57.57 0 0 0 0 1.14"/><path stroke="#6fafac" stroke-linecap="round" stroke-linejoin="round" stroke-width=".51" d="M369.46 137.97h8.18"/><path fill="#6fafac" d="M369.49 138.54c-.31 0-.57-.26-.57-.57s.26-.57.57-.57.57.26.57.57-.26.57-.57.57m8.12 0a.57.57 0 1 0 0-1.14.57.57 0 0 0 0 1.14"/><path fill="#006e69" d="M418.6 88.37a1.1 1.1 0 1 0-2.2 0v6.37a1.1 1.1 0 0 0 2.2 0zm44.86 0a1.1 1.1 0 0 0-2.2 0v6.37a1.1 1.1 0 1 0 2.2 0z"/><path stroke="#aecc53" stroke-linecap="round" stroke-linejoin="round" stroke-width="1.05" d="M176.55 83.23v20.91"/><path fill="#aecc53" d="m173.41 84.15 3.14-5.45 3.15 5.45z"/><path stroke="#aecc53" stroke-linecap="round" stroke-linejoin="round" stroke-width="1.05" d="M133.28 126.53v5.86"/><path fill="#aecc53" d="m130.13 127.45 3.15-5.44 3.14 5.44z"/></svg>