<svg xmlns="http://www.w3.org/2000/svg" width="341" height="836" fill="none" viewBox="0 0 341 836"><path stroke="#adcb53" stroke-miterlimit="10" d="M-106.698 59.825c24.565-6.581 57.346.1 80.413 8.988C6.64 81.545 37.491 109.399 46.81 143.582c11.48 42.508 35.353 55.497 67.708 82.17 25.323 20.935 46.407 46.778 60.114 76.667 51.226 112.136 17.195 228.249-60.31 317.474-25.769 29.66-53.81 57.206-80.258 86.348-19.873 21.939-56.762 51.383-54.784 83.094"/><path stroke="#adcb53" stroke-miterlimit="10" d="M-177.045 441.008c21.118-19.769 45.967-35.858 63.923-44.309 41.111-19.343 108.533-25.576 145.563 5.718 47.313 39.949 35.701 101.342.102 145.803-26.84 33.404-67.973 44.256-110.735 43.495-37.717-.626-77.888-7.977-109.752-29.171-15.619-10.381-30.39-25.427-31.551-44.186-1.699-26.57 17.915-54.371 42.45-77.35Z"/><path stroke="#adcb53" stroke-miterlimit="10" d="M-67.472 639.78c-50.881 3.986-111.586-4.277-155.613-31.292-17.931-11.053-40.816-31.867-42.113-54.792-6.069-111.698 115.272-236.977 224.89-239.967 60.5-1.646 122.64 24.496 149.178 81.754 20.037 43.155 21.631 95.303 1.355 138.401C79.501 599.257 4.679 634.118-67.472 639.78Z"/></svg>