<svg width="341" height="836" viewBox="0 0 341 836" fill="none" xmlns="http://www.w3.org/2000/svg">
<path d="M-106.698 59.8247C-82.1332 53.2439 -49.3517 59.9243 -26.2849 68.8127C6.63892 81.5453 37.4914 109.399 46.81 143.582C58.2907 186.09 82.1628 199.079 114.518 225.752C139.841 246.687 160.925 272.53 174.632 302.419C225.858 414.555 191.827 530.668 114.322 619.893C88.5534 649.553 60.5115 677.099 34.0635 706.241C14.1907 728.18 -22.6975 757.624 -20.7204 789.335" stroke="#ADCB53" stroke-miterlimit="10"/>
<path d="M-177.045 441.008C-155.927 421.239 -131.078 405.15 -113.122 396.699C-72.0109 377.356 -4.58924 371.123 32.4411 402.417C79.754 442.366 68.1424 503.759 32.5428 548.22C5.7028 581.624 -35.4298 592.476 -78.1921 591.715C-115.909 591.089 -156.08 583.738 -187.944 562.544C-203.563 552.163 -218.334 537.117 -219.495 518.358C-221.194 491.788 -201.58 463.987 -177.045 441.008Z" stroke="#ADCB53" stroke-miterlimit="10"/>
<path d="M-67.4719 639.78C-118.353 643.766 -179.058 635.503 -223.085 608.488C-241.016 597.435 -263.901 576.621 -265.198 553.696C-271.267 441.998 -149.926 316.719 -40.3079 313.729C20.1928 312.083 82.3322 338.225 108.87 395.483C128.907 438.638 130.501 490.786 110.225 533.884C79.5013 599.257 4.67873 634.118 -67.4719 639.78Z" stroke="#ADCB53" stroke-miterlimit="10"/>
</svg>
