<svg xmlns="http://www.w3.org/2000/svg" width="36" height="36" fill="none" viewBox="0 0 36 36"><path fill="#a5c352" d="M28.08 32.31h-4.33a1.44 1.44 0 0 1 0-2.88h4.33c1.28 0 2.43-.66 3.07-1.78.64-1.11.63-2.44-.02-3.55l-2.61-4.47c-.4-.68-.17-1.56.51-1.96s1.56-.17 1.96.51l2.61 4.47a6.38 6.38 0 0 1 .03 6.43 6.34 6.34 0 0 1-5.56 3.22z"/><path fill="#a5c352" d="m24.59 28.01-4.96 2.87 4.96 2.86zM8.69 15.8a1.433 1.433 0 0 1-1.23-2.18l5-8.19a6.35 6.35 0 0 1 5.53-3.16c2.3 0 4.37 1.19 5.53 3.17L27 11.32c.4.68.18 1.56-.5 1.97-.68.4-1.56.18-1.97-.5l-3.49-5.88a3.53 3.53 0 0 0-3.06-1.76c-1.27 0-2.41.66-3.06 1.75 0 0 0 .02-.01.02L9.9 15.13c-.27.44-.74.69-1.23.69z"/><path fill="#a5c352" d="m22.89 12.78 4.99 2.81-.06-5.72zm-8.16 19.53H7.92c-2.33 0-4.4-1.2-5.56-3.22a6.33 6.33 0 0 1 .03-6.43l1.49-2.55c.4-.68 1.28-.91 1.96-.51s.91 1.28.51 1.96l-1.49 2.55a3.52 3.52 0 0 0-.02 3.55 3.52 3.52 0 0 0 3.07 1.78h6.81a1.44 1.44 0 0 1 0 2.88z"/><path fill="#a5c352" d="m7.16 23.01.04-5.72-4.98 2.83z"/><path fill="#006d68" d="M26.42 20s-3.77 5.38-8.42 5.38S9.58 20 9.58 20s3.77-5.38 8.42-5.38S26.42 20 26.42 20"/><path fill="#a5c352" d="M18 22.91a2.96 2.96 0 1 0 0-5.92 2.96 2.96 0 0 0 0 5.92"/></svg>