<svg xmlns="http://www.w3.org/2000/svg" width="66" height="68" fill="none" viewBox="0 0 66 68"><path fill="#006d68" d="M30.806 6.02c13.63 0 24.72 11.09 24.72 24.72s-11.09 24.72-24.72 24.72-24.72-11.09-24.72-24.72 11.09-24.72 24.72-24.72m0-5.52C14.106.5.566 14.04.566 30.74s13.54 30.24 30.24 30.24 30.24-13.54 30.24-30.24S47.506.5 30.806.5"/><path fill="#a5c352" d="M52.616 34.28V27.2h-6.91c-.38-1.61-1.02-3.13-1.87-4.5l4.89-4.89-5-5-4.89 4.89c-1.37-.85-2.88-1.48-4.5-1.87V8.92h-7.08v6.91c-1.61.38-3.13 1.02-4.5 1.87l-4.89-4.89-5 5 4.89 4.89c-.85 1.37-1.48 2.88-1.87 4.5h-6.91v7.08h6.91c.38 1.61 1.02 3.13 1.87 4.5l-4.89 4.89 5 5 4.89-4.89c1.37.85 2.88 1.48 4.5 1.87v6.91h7.08v-6.91c1.61-.38 3.13-1.02 4.5-1.87l4.89 4.89 5-5-4.89-4.89c.85-1.37 1.48-2.88 1.87-4.5zm-21.81 5.89c-5.21 0-9.43-4.22-9.43-9.43s4.22-9.43 9.43-9.43 9.43 4.22 9.43 9.43-4.22 9.43-9.43 9.43"/><path fill="#006d68" d="M51.166 48.86c-1.12 0-2.24.43-3.09 1.28a4.364 4.364 0 0 0 0 6.18l9.89 9.89c.85.85 1.97 1.28 3.09 1.28s2.24-.43 3.09-1.28a4.364 4.364 0 0 0 0-6.18l-9.89-9.89a4.36 4.36 0 0 0-3.09-1.28"/></svg>