<svg xmlns="http://www.w3.org/2000/svg" width="34" height="32" fill="none" viewBox="0 0 34 32"><path fill="#006d68" d="M12.29 1.53v.7c0 .66-.54 1.2-1.2 1.2H1.7c-.66 0-1.2.54-1.2 1.2v18.88c0 .66.54 1.2 1.2 1.2h23.09c.66 0 1.2-.54 1.2-1.2V1.53c0-.66-.54-1.2-1.2-1.2h-11.3c-.66 0-1.2.54-1.2 1.2"/><path fill="#a7c553" d="M19.8 8.49v.7c0 .66-.54 1.2-1.2 1.2H9.21c-.66 0-1.2.54-1.2 1.2v18.88c0 .66.54 1.2 1.2 1.2H32.3c.66 0 1.2-.54 1.2-1.2V8.49c0-.66-.54-1.2-1.2-1.2H21c-.66 0-1.2.54-1.2 1.2"/><path fill="#fff" d="M30.16 20.86s-4.21 6-9.41 6-9.41-6-9.41-6 4.21-6 9.41-6 9.41 6 9.41 6"/><path fill="#006d68" d="M20.75 24.1a3.3 3.3 0 1 0 0-6.6 3.3 3.3 0 0 0 0 6.6"/></svg>