<svg width="36" height="36" viewBox="0 0 36 36" fill="none" xmlns="http://www.w3.org/2000/svg">
<path d="M26.9701 4.60999L1.18005 4.67999V27.37H26.9701V4.60999Z" fill="#A5C352"/>
<path d="M26.9701 1.5H1.18005V4.61H26.9701V1.5Z" fill="#006D68"/>
<path d="M34.82 11.74L9.03003 11.81V34.5H34.82V11.74Z" fill="#006D68"/>
<path d="M34.82 8.63H9.03003V11.74H34.82V8.63Z" fill="white"/>
<path d="M30.86 23.12C30.86 23.12 26.86 28.83 21.92 28.83C16.98 28.83 12.98 23.12 12.98 23.12C12.98 23.12 16.98 17.41 21.92 17.41C26.86 17.41 30.86 23.12 30.86 23.12Z" fill="white"/>
<path d="M21.92 26.2101C23.6542 26.2101 25.06 24.8042 25.06 23.0701C25.06 21.3359 23.6542 19.9301 21.92 19.9301C20.1859 19.9301 18.78 21.3359 18.78 23.0701C18.78 24.8042 20.1859 26.2101 21.92 26.2101Z" fill="#006D68"/>
</svg>
