<svg xmlns="http://www.w3.org/2000/svg" width="36" height="36" fill="none" viewBox="0 0 36 36"><path fill="#a5c352" d="M29.98 22.22V8.41L18.02 1.5 6.05 8.41v13.81l11.97 6.91z"/><path stroke="#006d68" stroke-linecap="round" stroke-linejoin="round" stroke-width="1.52" d="m3.52 6.94 14.5 8.38 14.5-8.38"/><path fill="#006d68" d="M2.21 9.48a2.856 2.856 0 0 1-1.04-3.9 2.856 2.856 0 0 1 3.9-1.04c1.37.79 1.83 2.53 1.04 3.9a2.856 2.856 0 0 1-3.9 1.04m31.61 0a2.856 2.856 0 0 0 1.04-3.9 2.856 2.856 0 0 0-3.9-1.04 2.847 2.847 0 0 0-1.04 3.9 2.856 2.856 0 0 0 3.9 1.04"/><path stroke="#006d68" stroke-linecap="round" stroke-linejoin="round" stroke-width="1.52" d="M18.02 31.64V15.32"/><path fill="#006d68" d="M20.87 31.5c0 1.57-1.28 2.85-2.85 2.85s-2.85-1.28-2.85-2.85 1.28-2.85 2.85-2.85 2.85 1.28 2.85 2.85"/><path fill="#fff" d="M28.38 16.48S23.73 23.1 18 23.1 7.62 16.48 7.62 16.48 12.27 9.86 18 9.86s10.38 6.62 10.38 6.62"/><path fill="#006d68" d="M18 20.06a3.64 3.64 0 1 0 0-7.28 3.64 3.64 0 0 0 0 7.28"/></svg>