<svg xmlns="http://www.w3.org/2000/svg" width="36" height="36" fill="none" viewBox="0 0 36 36"><path fill="#a4c352" d="M35.72 25.47H11.94v9.03h23.78z"/><path fill="#006d68" d="M33.47 28.67h-6.51v2.63h6.51z"/><path fill="#a4c352" d="M35.72 13.49H11.94v9.03h23.78z"/><path fill="#006d68" d="M33.47 16.69h-6.51v2.63h6.51z"/><path fill="#a4c352" d="M35.72 1.5H11.94v9.03h23.78z"/><path fill="#006d68" d="M33.47 4.7h-6.51v2.63h6.51zM11.94 29.66c6.44 0 11.66-5.22 11.66-11.66S18.38 6.34 11.94 6.34.28 11.56.28 18 5.5 29.66 11.94 29.66"/><path fill="#006d68" d="M23.6 18c0 6.23-4.89 11.32-11.04 11.64-.2.01-.62.02-.62.02V6.34s.67.01 1.01.04c5.97.51 10.65 5.52 10.65 11.61z"/><path fill="#fff" d="M22.06 18s-4.53 6.46-10.12 6.46S1.81 18 1.81 18s4.53-6.46 10.12-6.46S22.05 18 22.05 18z"/><path fill="#006d68" d="M11.94 21.49a3.55 3.55 0 1 0 0-7.1 3.55 3.55 0 0 0 0 7.1"/></svg>