<svg xmlns="http://www.w3.org/2000/svg" width="400" height="400" fill="none" viewBox="0 0 400 400"><path fill="#003834" d="M303.05 143.78H116.27v162.9h186.78z"/><path stroke="#a6c453" stroke-linecap="round" stroke-linejoin="round" stroke-width="1.85" d="M159.76 180.25c22.09-24.74 53.85-26.46 82.44-14.13 4.47 1.93 8.75 5.55 12.35 8.76 8.49 7.58 14.99 17.28 18.72 28.05 1.76 5.07 2.9 9.85 2.44 15.17-.42 4.82.59 8.72.9 13.57.27 4.25-1.43 9.36-2.68 13.37-2.84 9.1-7.65 17.53-14 24.64-5.57 6.24-12.2 11.18-19.56 15.11-5.73 3.06-12.65 3.49-18.72 5.45-6.37 2.06-12.66 2.15-19.38 1.34-13.65-1.64-26.85-7.35-37.12-16.53-12.18-10.88-20.07-26.04-21.97-42.27-.94-8.02-.42-16.19 1.52-24.02 1.36-5.47 4.23-10.11 7.1-14.88 2.83-4.7 4.3-9.5 7.98-13.62z"/><path stroke="#a6c453" stroke-linecap="round" stroke-linejoin="round" stroke-width="1.85" d="M256.53 273.04c-3.12.74-7.37-.41-10.04-2.03-1.39-.84-2.8-1.7-3.96-2.83-2.68-2.63-3.79-6.64-3.28-10.36 1.1-7.98 9.17-13.24 14.95-17.96 11.67-9.52 19.7-23.35 18.54-38.77"/><path stroke="#a6c453" stroke-linecap="round" stroke-linejoin="round" stroke-width="1.85" d="M238.72 285.07c-6.93-1.48-13.35-6.02-16.67-12.33-3.27-6.2-1.9-14.08 1.01-20.2 5.32-11.2 15.25-17.99 23.54-26.82 6.5-6.93 10.24-14.31 12.63-23.43 1.69-6.45 3.36-14.92 1.48-21.46m-56.22-22.04c18.72-2.89 39.01 11.43 32.99 33.08-2.86 10.29-10.66 18.15-19.64 23.54-8.16 4.9-20.29 3.82-29.67 6.65-5.22 1.58-9.44 6.47-13.9 9.6-1.87 1.31-3.75 2.64-5.85 3.53-5.1 2.16-11.31 1.46-15.8-1.78-8.17-5.9-9.5-15.96-7.55-26.04"/><path stroke="#a6c453" stroke-linecap="round" stroke-linejoin="round" stroke-width="1.85" d="M222.56 190.09c1.08-4.71-.21-10.14-3.96-13.19-1.87-1.52-4.19-2.36-6.53-2.93-13.93-3.35-29.03 3.14-38.36 14.01-3.28 3.83-6.01 8.26-7.07 13.19s-.3 10.39 2.78 14.38c4.77 6.16 9.35 2.62 13.92-1.24 4.14-3.49 6.93-4.57 12.18-5.03 11.2-.98 24.25-7.05 27.04-19.2z"/><path stroke="#a6c453" stroke-linecap="round" stroke-linejoin="round" stroke-width="1.85" d="M199.67 197.17c1.69-.81 3.4-1.74 4.54-3.23s1.55-3.69.51-5.24c-1.22-1.82-3.79-2.06-5.98-1.93-4.5.27-8.96 1.35-13.09 3.16-2.19.96-4.47 2.33-5.25 4.59-4.09 11.91 16.28 4.07 19.27 2.64zm-52.43 52.12c9.15 10.92 26.48 5.52 35.16-2.78 4.61-4.41 7.31-9.92 13.58-12.51 5.04-2.09 10.71-1.75 16.08-2.7 24.27-4.27 44.12-37.67 36.16-61.38m-27.38 120.7c-5.04-.65-9.12-4.11-11.19-8.75-1.83-4.09-2.71-8.55-2.73-13.02-.02-4.15-.31-8.02-2.61-11.64-3.75-5.9-12.85-2.07-16.61 1.94-2.43 2.6-4.86 5.22-7.6 7.5-5.62 4.67-12.22 6.92-19.37 4.47"/><path stroke="#a6c453" stroke-linecap="round" stroke-linejoin="round" stroke-width="1.85" d="M205.62 291.72c-3.5.32-6.96-3.36-8.37-6.21-1.93-3.89.93-6.84.62-10.79-.14-1.83-1.23-3.56-2.82-4.48s-3.63-1-5.28-.21c-1.64.78-2.8 2.29-3.86 3.77-1.32 1.84-2.62 3.75-4.37 5.2-2.15 1.78-5.71 2.95-8.43 1.78"/><path fill="#a9c753" d="M164.64 242.28a5.84 5.84 0 1 0 0-11.68 5.84 5.84 0 0 0 0 11.68m91.35 3.91a5.84 5.84 0 1 0 0-11.68 5.84 5.84 0 0 0 0 11.68m-82.88-53.44a3.97 3.97 0 1 0 .001-7.939 3.97 3.97 0 0 0-.001 7.939m65.45-6.07a5.84 5.84 0 1 0 0-11.68 5.84 5.84 0 0 0 0 11.68m-41.27 80.15a3.97 3.97 0 1 0 .001-7.939 3.97 3.97 0 0 0-.001 7.939"/><path fill="#006d68" stroke="#acca53" stroke-miterlimit="10" stroke-width="1.66" d="M90.97 206.41H2.1v174.13h119.48V242.18z"/><path fill="#acca53" d="M90.97 242.18h29.5l-28.95-33.37z"/><path fill="#003834" d="M106.27 284.19H20.78v11.82h85.49zm0-33.11H20.78v11.82h85.49zm0 66.22H20.78v11.82h85.49z"/><path fill="#acca53" d="M156.57 316.71H55.97v47.28h100.6z"/><path fill="#003834" d="M78.346 347.126v2.184h-2.22v-2.184zm1.157-3.72h2.136v5.904h-2.135zm2.185-2.952v1.932h-2.233v-1.932zm8.727 2.808q1.031 0 1.523.624.505.624.504 1.92v3.504h-2.135v-3.444q0-.516-.157-.744-.156-.228-.516-.228-.444 0-.683.312-.228.312-.228.888v3.216h-2.136v-3.444q0-.516-.157-.744-.156-.228-.516-.228-.444 0-.671.312t-.228.888v3.216h-2.136v-5.904h2.075v.744q.59-.888 1.8-.888 1.273 0 1.716 1.044a2.2 2.2 0 0 1 .817-.768q.516-.276 1.127-.276m7.145 0q.756 0 1.344.396.6.384.924 1.092.336.708.336 1.62t-.336 1.608a2.46 2.46 0 0 1-.912 1.056 2.5 2.5 0 0 1-1.356.372q-.564 0-1.044-.228a1.85 1.85 0 0 1-.732-.612v2.904h-2.136v-8.064h2.1v.756q.252-.42.732-.66a2.4 2.4 0 0 1 1.08-.24m-.648 4.548q.552 0 .84-.372.3-.372.3-1.068 0-.732-.3-1.116-.3-.396-.852-.396t-.852.384-.3 1.104q0 .708.3 1.092.3.372.864.372m71.119-173.39c16.132 0 29.21-13.078 29.21-29.21S184.162 116 168.03 116s-29.21 13.078-29.21 29.21 13.078 29.21 29.21 29.21"/><path fill="#fff" d="M203.78 145.21h-13.56s-.02 1.07-.06 1.59c-.82 11.51-10.41 20.59-22.13 20.59s-21.39-9.16-22.14-20.73c-.03-.48-.05-1.46-.05-1.46h-13.56s0 .97.03 1.45c.76 19.07 16.46 34.3 35.72 34.3 19.16 0 34.79-15.07 35.7-34 .03-.58.04-1.75.04-1.75z"/><path fill="#006d68" d="M132.29 145.21h13.56c0-12.25 9.93-22.19 22.19-22.19s22.19 9.93 22.19 22.19h13.56c0-19.74-16-35.75-35.75-35.75s-35.75 16-35.75 35.75"/><path fill="#acca53" d="M168.03 162.02c9.284 0 16.81-7.526 16.81-16.81s-7.526-16.81-16.81-16.81-16.81 7.526-16.81 16.81 7.526 16.81 16.81 16.81"/><path fill="#fff" d="m169.75 145.2-1.72 16.82-1.71-16.82z"/><path fill="#3c3c3c" d="m166.32 145.2 1.71-16.81 1.72 16.81z"/><path fill="#003834" d="m89.554 121.825-10.536 10.536 10.536 10.536 10.536-10.536z"/><path fill="#aecc53" d="m89.55 124.95 7.4 7.4-7.4 7.4-7.4-7.4zm0-6.26-13.67 13.67 13.67 13.67 13.67-13.67z"/><path fill="#003834" d="M41.42 172.89c3.96 0 7.19 3.22 7.19 7.18s-3.22 7.18-7.19 7.18a7.18 7.18 0 0 1-7.18-7.18c0-3.96 3.22-7.18 7.18-7.18m0-5.4c-6.95 0-12.58 5.63-12.58 12.58s5.63 12.58 12.58 12.58S54 187.02 54 180.07s-5.63-12.58-12.58-12.58"/><path stroke="#006d68" stroke-miterlimit="10" stroke-width="4.42" d="M373.08 195.72v-18.78l-16.26-9.38-16.25 9.38v18.78l16.25 9.39z"/><path fill="#006d68" stroke="#003834" stroke-miterlimit="10" stroke-width="1.66" d="M254.31 328.81h137.01a6.57 6.57 0 0 0 6.57-6.57v-38.47a6.57 6.57 0 0 0-6.57-6.57H254.31a6.57 6.57 0 0 0-6.57 6.57v38.47a6.57 6.57 0 0 0 6.57 6.57Zm0 51.73h137.01a6.57 6.57 0 0 0 6.57-6.57V335.5a6.57 6.57 0 0 0-6.57-6.57H254.31a6.57 6.57 0 0 0-6.57 6.57v38.47a6.57 6.57 0 0 0 6.57 6.57Zm0-103.37h137.01a6.57 6.57 0 0 0 6.57-6.57v-38.47a6.57 6.57 0 0 0-6.57-6.57H254.31a6.57 6.57 0 0 0-6.57 6.57v38.47a6.57 6.57 0 0 0 6.57 6.57Z"/><path fill="#a9c753" stroke="#006d68" stroke-miterlimit="10" d="m353.53 360.04 8.26 8.26 5.31-5.31 5.3 5.31 8.26-8.26-5.31-5.3 5.31-5.31-8.26-8.26-5.3 5.31-5.31-5.31-8.26 8.26 5.31 5.31z"/><path fill="#003834" d="M296.86 359.62h19.66a5.96 5.96 0 1 0 0-11.92h-19.66a5.96 5.96 0 1 0 0 11.92"/><path fill="#a9c753" stroke="#006d68" stroke-miterlimit="10" d="m353.53 308.32 8.26 8.25 5.31-5.3 5.3 5.3 8.26-8.25-5.31-5.31 5.31-5.31-8.26-8.25-5.3 5.31-5.31-5.31-8.26 8.25 5.31 5.31z"/><path fill="#003834" d="M296.86 308.97h19.66a5.96 5.96 0 1 0 0-11.92h-19.66a5.96 5.96 0 1 0 0 11.92"/><path fill="#a9c753" stroke="#006d68" stroke-miterlimit="10" d="m353.53 256.67 8.26 8.25 5.31-5.31 5.3 5.31 8.26-8.25-5.31-5.31 5.31-5.31-8.26-8.25-5.3 5.3-5.31-5.3-8.26 8.25 5.31 5.31z"/><path fill="#003834" d="M296.86 257.32h19.66a5.96 5.96 0 1 0 0-11.92h-19.66a5.96 5.96 0 1 0 0 11.92m-22 102.3h3.66a5.96 5.96 0 1 0 0-11.92h-3.66a5.96 5.96 0 1 0 0 11.92m0-50.65h3.66a5.96 5.96 0 1 0 0-11.92h-3.66a5.96 5.96 0 1 0 0 11.92m0-51.65h3.66a5.96 5.96 0 1 0 0-11.92h-3.66a5.96 5.96 0 1 0 0 11.92"/><path fill="#006d68" d="M352.03 74.96h21.05c0-30.65-24.85-55.5-55.5-55.5s-55.5 24.85-55.5 55.5h21.05c0-19.02 15.42-34.45 34.45-34.45s34.45 15.42 34.45 34.45"/><path fill="#aecc53" d="M352.03 74.96v1.29-.02c0 .24-.02.47-.03.7v.03c0 .07 0 .14-.01.2 0 .1-.01.2-.02.29-.01.19-.04.38-.06.57-1.54 17.6-16.31 31.4-34.3 31.4S284.4 95.2 283.24 77.23c0-.11-.01-.24-.02-.38-.03-.79-.05-1.88-.05-1.88h-21.05s.01 1.5.04 2.24c1.18 29.61 25.55 53.25 55.46 53.25s54.02-23.39 55.43-52.79c.04-.9.06-2.71.06-2.71z"/><path fill="#006d68" d="M322.48 70.06h-9.8v9.8h9.8z"/><path fill="#fff" d="M283.26 70.06h-9.8v9.8h9.8zm78.44 0h-9.8v9.8h9.8zm-49.02 39.13v9.8h9.8v-9.8zm0-78.26v9.8h9.8v-9.8z"/><path fill="#3c3c3c" d="M293.07 60.25v9.81h-9.8v9.8h9.8v9.81h9.81V60.25zm49.03 9.81v-9.81h-9.81v29.42h9.81v-9.81h9.8v-9.8zm-19.61-19.61v-9.81h-9.81v9.81h-9.8v9.8h29.41v-9.8zm4.9 39.22h-24.51v9.8h9.8v9.81h9.81v-9.81h9.8v-9.8z"/></svg>