<svg xmlns="http://www.w3.org/2000/svg" width="420" height="426" fill="none" viewBox="0 0 420 426"><path fill="#ebf2d4" d="M271.26 38.01c-16.24-6.09-33.18-11.18-50.52-11.11-23.37.1-45.58 9.53-66.84 19.24C114.77 64 83.91 91.99 51.83 120.42c-25.97 23.01-30.23 70.73-29.45 103.15.09 3.91.19 7.84.37 11.77.55 12.09 1.84 24.14 6.08 35.41 6.79 18.07 22.55 33.32 34.45 48.19 12.88 16.1 25.51 29.53 42.85 41.02 19.63 13.01 47.71 35.36 71.93 37.41 30.49 2.58 53.83 3.82 83.14-5.31 31.21-9.73 65.42-23.93 87.88-48.81 11.78-13.05 19.47-31.67 28.23-46.84 17.1-29.6 24.19-61.52 19.79-95.54-4.61-35.61-18.6-62.91-33.35-94.74-18.95-40.88-52.25-53.03-92.48-68.11z"/><path fill="#849e2a" d="m22.62 370.93 110.88-.94c2.87-.02 5.21 2.3 5.21 5.17v30.83c0 1.61-.54 3.17-1.54 4.43l-6.68 10.18-.32-33.85c-.02-2.6-2.15-4.69-4.76-4.67l-104.17.88c-4.38.04-6.85-5.01-4.14-8.45l1.13-1.43a5.63 5.63 0 0 1 4.39-2.15"/><path fill="#849e2a" d="M16.98 381.58h106.73c4.41 0 8.01 3.61 8.01 8.01v26.53c0 2.41-1.85 7.12-4.26 7.12l-114.48-2.73c-2.41 0-4.38-1.97-4.38-4.38v-26.16c0-4.61 3.77-8.38 8.38-8.38z"/><path fill="#adcb53" d="M14.7 424.16h105.82a8.65 8.65 0 0 0 8.65-8.65v-21.62a8.65 8.65 0 0 0-8.65-8.65H14.7a8.65 8.65 0 0 0-8.65 8.65v21.62a8.65 8.65 0 0 0 8.65 8.65"/><path stroke="#f2f6e9" stroke-linecap="round" stroke-linejoin="round" d="M83.98 404.7s-8.67 12.37-19.37 12.37-19.37-12.37-19.37-12.37 8.67-12.37 19.37-12.37 19.37 12.37 19.37 12.37"/><path fill="#f2f6e9" d="M64.61 411.38a6.8 6.8 0 1 0 0-13.6 6.8 6.8 0 0 0 0 13.6"/><path fill="#849e2a" d="M100.61 411.38a6.8 6.8 0 0 0 6.8-6.8 6.8 6.8 0 1 0-6.8 6.8m-64.9-10.18h-21v7h21zm-11.82-71.36 106.97-.91c4.33-.04 7.86 3.46 7.86 7.8v28.17c0 1.61-.54 3.17-1.54 4.43l-6.74 8.54-.9-26.19c-.2-5.97-5.13-10.68-11.1-10.63l-108.07.92 7.08-8.98a8.29 8.29 0 0 1 6.43-3.15z"/><path fill="#849e2a" d="M12.99 340.56h110.73c4.41 0 8.01 3.61 8.01 8.01v22.9c0 4.41-3.61 8.01-8.01 8.01H16.62c-4.41 0-8.01-3.61-8.01-8.01v-26.53c0-1.44 1.97-4.38 4.38-4.38"/><path fill="#adcb53" d="M14.7 383.14h105.82a8.65 8.65 0 0 0 8.65-8.65v-21.62a8.65 8.65 0 0 0-8.65-8.65H14.7a8.65 8.65 0 0 0-8.65 8.65v21.62a8.65 8.65 0 0 0 8.65 8.65"/><path stroke="#f2f6e9" stroke-linecap="round" stroke-linejoin="round" d="M83.98 363.68s-8.67 12.37-19.37 12.37-19.37-12.37-19.37-12.37 8.67-12.37 19.37-12.37 19.37 12.37 19.37 12.37"/><path fill="#f2f6e9" d="M64.61 370.36a6.8 6.8 0 1 0 0-13.6 6.8 6.8 0 0 0 0 13.6"/><path fill="#849e2a" d="M101.61 370.36a6.8 6.8 0 0 0 6.8-6.8 6.8 6.8 0 1 0-6.8 6.8m-65.9-10.18h-21v7h21z"/><path stroke="#006d68" stroke-linecap="round" stroke-linejoin="round" stroke-width="1.26" d="M166.85 193.31h-50.3c-23.03 0-41.7-18.67-41.7-41.7v-66.8"/><path fill="#ebf2d4" stroke="#006d68" stroke-linecap="round" stroke-linejoin="round" stroke-width="1.26" d="M89.56 141.8v-16.74l-14.49-8.37-14.49 8.37v16.74l14.49 8.36z"/><path fill="#006d68" d="M83.99 138.58v-10.3l-8.92-5.16-8.92 5.16v10.3l8.92 5.15z"/><path stroke="#006d68" stroke-linecap="round" stroke-linejoin="round" stroke-width="1.26" d="M262.58 193.31h50.3c23.03 0 41.7-18.67 41.7-41.7v-66.8"/><path fill="#ebf2d4" stroke="#006d68" stroke-linecap="round" stroke-linejoin="round" stroke-width="1.26" d="M339.87 141.8v-16.74l14.49-8.37 14.49 8.37v16.74l-14.49 8.36z"/><path fill="#006d68" d="M345.44 138.58v-10.3l8.92-5.16 8.92 5.16v10.3l-8.92 5.15z"/><path stroke="#006d68" stroke-linecap="round" stroke-linejoin="round" stroke-width="1.26" d="M262.58 225.81h50.3c23.03 0 41.7 18.67 41.7 41.7v66.8"/><path fill="#ebf2d4" stroke="#006d68" stroke-linecap="round" stroke-linejoin="round" stroke-width="1.26" d="M339.87 277.33v16.74l14.49 8.37 14.49-8.37v-16.74l-14.49-8.36z"/><path fill="#006d68" d="M345.44 280.55v10.3l8.92 5.15 8.92-5.15v-10.3l-8.92-5.15z"/><path stroke="#006d68" stroke-linecap="round" stroke-linejoin="round" stroke-width="1.26" d="M166.85 225.81h-50.3c-23.03 0-41.7 18.67-41.7 41.7v66.8"/><path fill="#ebf2d4" stroke="#006d68" stroke-linecap="round" stroke-linejoin="round" stroke-width="1.26" d="M89.56 277.33v16.74l-14.49 8.37-14.49-8.37v-16.74l14.49-8.36z"/><path fill="#006d68" d="M83.99 280.55v10.3L75.07 296l-8.92-5.15v-10.3l8.92-5.15z"/><path fill="#d6d6d6" d="M119.96 22.15c-3.9 0-7.64.71-11.09 2C105.03 11.02 92.9 1.43 78.54 1.43c-14.37 0-26.49 9.59-30.33 22.72-3.45-1.29-7.19-2-11.09-2-17.46 0-31.61 14.15-31.61 31.61s14.15 31.61 31.61 31.61h82.84c17.46 0 31.61-14.15 31.61-31.61s-14.15-31.61-31.61-31.61"/><path fill="#338a86" d="M119.96 22.15c-3.9 0-7.64.71-11.09 2C105.03 11.02 92.9 1.43 78.54 1.43c-14.37 0-26.49 9.59-30.33 22.72-3.45-1.29-7.19-2-11.09-2-17.46 0-31.61 14.15-31.61 31.61s14.15 31.61 31.61 31.61h82.84c17.46 0 31.61-14.15 31.61-31.61s-14.15-31.61-31.61-31.61"/><path stroke="#adcb53" stroke-linecap="round" stroke-linejoin="round" stroke-width="2.08" d="M38.19 29.08c-11.25 0-20.47 5.49-23.47 16.49"/><path fill="#003834" d="M108.25 51.4s-13.3 18.97-29.71 18.97S48.83 51.4 48.83 51.4s13.3-18.97 29.71-18.97 29.71 18.97 29.71 18.97"/><path fill="#fff" d="M78.54 57.4a6.18 6.18 0 1 0 0-12.36 6.18 6.18 0 0 0 0 12.36"/><path fill="#fff" d="M78.54 40.25c6.05 0 10.98 4.92 10.98 10.98S84.6 62.21 78.54 62.21s-10.98-4.92-10.98-10.98 4.92-10.98 10.98-10.98m0-2.24c-7.29 0-13.21 5.91-13.21 13.21s5.91 13.21 13.21 13.21 13.21-5.91 13.21-13.21-5.91-13.21-13.21-13.21"/><path stroke="#adcb53" stroke-linecap="round" stroke-linejoin="round" stroke-width="1.52" d="M108.87 24.15C105.03 11.02 92.9 1.43 78.54 1.43c-14.37 0-26.49 9.59-30.33 22.72-3.45-1.29-7.19-2-11.09-2-17.46 0-31.61 14.15-31.61 31.61m146.06 0c0-17.46-14.15-31.61-31.61-31.61"/><path stroke="#adcb53" stroke-linecap="round" stroke-linejoin="round" stroke-width="2.08" d="M56.08 20.47c-.83 1.72-1.53 3.5-2.1 5.31m21.87-17.9c-3.27-.33-7.4.77-10.29 2.31-2.73 1.46-5.15 3.48-6.98 5.97"/><path fill="#a8c653" d="m409.71 12.19-109 .3V95.9h109z"/><path fill="#a8c653" d="m409.71 12.19-109 .3V95.9h109z"/><path fill="#00544f" d="M409.71 1.44h-109V15h109z"/><path fill="#a8c653" d="M405.161 5.921 403.74 4.5l-6.053 6.053 1.421 1.421z"/><path fill="#a8c653" d="m403.749 11.98 1.421-1.42-6.053-6.053-1.421 1.421zM389.07 5.64v5.41h-6.08V5.64zm.94-.93h-7.95v7.28h7.95zm-15.66 5.67h-7.95v1.6h7.95z"/><path stroke="#f2f6e9" stroke-linecap="round" stroke-linejoin="round" stroke-width="1.75" d="M393.67 54.04s-17.22 24.55-38.46 24.55-38.46-24.55-38.46-24.55 17.22-24.55 38.46-24.55 38.46 24.55 38.46 24.55"/><path fill="#849e2a" d="M355.21 74.55c11.454 0 20.74-9.286 20.74-20.74s-9.286-20.74-20.74-20.74-20.74 9.286-20.74 20.74 9.286 20.74 20.74 20.74"/><path fill="#f2f6e9" d="M355.21 61.81a8 8 0 1 0 0-16 8 8 0 0 0 0 16"/><path fill="#a8c653" d="M355.21 39.6c7.83 0 14.2 6.37 14.2 14.2S363.04 68 355.21 68s-14.2-6.37-14.2-14.2 6.37-14.2 14.2-14.2m0-2.89c-9.44 0-17.1 7.65-17.1 17.1s7.65 17.1 17.1 17.1 17.1-7.65 17.1-17.1-7.65-17.1-17.1-17.1"/><path fill="#338a86" d="M214.71 96.06c12.979 0 23.5-10.521 23.5-23.5s-10.521-23.5-23.5-23.5-23.5 10.521-23.5 23.5 10.521 23.5 23.5 23.5"/><path stroke="#006d68" stroke-linecap="round" stroke-linejoin="round" stroke-width="1.26" d="M214.71 96.5v227"/><path stroke="#6fafac" stroke-miterlimit="10" stroke-width="2" d="M345.5 207.25h-267"/><path fill="#003834" d="M214.71 289.06c43.907 0 79.5-35.593 79.5-79.5s-35.593-79.5-79.5-79.5-79.5 35.593-79.5 79.5 35.593 79.5 79.5 79.5"/><path fill="#006d68" d="M249.63 209.56h21.34c0-31.07-25.19-56.26-56.26-56.26s-56.26 25.19-56.26 56.26h21.34c0-19.28 15.63-34.92 34.92-34.92s34.92 15.63 34.92 34.92"/><path fill="#aecc53" d="M249.63 209.56v1.3-.02c0 .24-.02.48-.03.71v.03c0 .07 0 .14-.01.21 0 .1-.01.2-.02.29-.01.2-.04.39-.06.58-1.56 17.84-16.53 31.83-34.77 31.83s-33.66-14.41-34.84-32.63c0-.11-.01-.25-.02-.39-.04-.8-.05-1.9-.05-1.9h-21.34s.02 1.52.05 2.28c1.19 30.02 25.9 53.98 56.21 53.98s54.76-23.71 56.19-53.51c.04-.91.07-2.75.07-2.75h-21.34z"/><path fill="#aecc53" d="M219.68 204.59h-9.94v9.94h9.94z"/><path fill="#003834" d="M179.93 204.59h-9.94v9.94h9.94zm79.51 0h-9.94v9.94h9.94zm-49.69 39.67v9.94h9.94v-9.94zm-.01-79.32v9.94h9.94v-9.94z"/><path fill="#fff" d="M189.87 194.66v9.93h-9.94v9.94h9.94v9.94h9.94v-29.81zm49.69 9.93v-9.93h-9.94v29.81h9.94v-9.94h9.94v-9.94zm-19.88-19.87v-9.94h-9.94v9.94h-9.93v9.94h29.81v-9.94zm4.97 39.75h-24.84v9.94h9.93v9.94h9.94v-9.94h9.94v-9.94z"/><path fill="#338a86" d="M347.72 330.14v2.1c0 1.98-1.6 3.58-3.58 3.58h-28.01c-1.98 0-3.58 1.6-3.58 3.58v56.31c0 1.98 1.6 3.58 3.58 3.58H385c1.98 0 3.58-1.6 3.58-3.58v-65.57c0-1.98-1.6-3.58-3.58-3.58h-33.7c-1.98 0-3.58 1.6-3.58 3.58"/><path fill="#006d68" d="M356.92 338.83v2.1c0 1.98-1.6 3.58-3.58 3.58h-28.01c-1.98 0-3.58 1.6-3.58 3.58v56.31c0 1.98 1.6 3.58 3.58 3.58h68.87c1.98 0 3.58-1.6 3.58-3.58v-65.57c0-1.98-1.6-3.58-3.58-3.58h-33.7c-1.98 0-3.58 1.6-3.58 3.58"/><path fill="#a8c653" d="M364.43 346.36v2.1c0 1.98-1.6 3.58-3.58 3.58h-28.01c-1.98 0-3.58 1.6-3.58 3.58v56.31c0 1.98 1.6 3.58 3.58 3.58h68.87c1.98 0 3.58-1.6 3.58-3.58v-65.57c0-1.98-1.6-3.58-3.58-3.58h-33.7c-1.98 0-3.58 1.6-3.58 3.58"/><path fill="#003834" d="M373.64 355.42v2.1c0 1.98-1.6 3.58-3.58 3.58h-28.01c-1.98 0-3.58 1.6-3.58 3.58v56.31c0 1.98 1.6 3.58 3.58 3.58h68.87c1.98 0 3.58-1.6 3.58-3.58v-65.57c0-1.98-1.6-3.58-3.58-3.58h-33.7c-1.98 0-3.58 1.6-3.58 3.58"/><path fill="#006d68" d="M398.7 391.38s-9.95 14.19-22.22 14.19-22.22-14.19-22.22-14.19 9.95-14.19 22.22-14.19 22.22 14.19 22.22 14.19"/><path fill="#003834" d="M376.48 381.36c5.45 0 9.88 4.43 9.88 9.88s-4.43 9.88-9.88 9.88-9.88-4.43-9.88-9.88 4.43-9.88 9.88-9.88m0-2.11c-6.62 0-11.99 5.37-11.99 11.99s5.37 11.99 11.99 11.99 11.99-5.37 11.99-11.99-5.37-11.99-11.99-11.99"/><path fill="#6fafac" d="M376.48 395.33a4.09 4.09 0 1 0 0-8.18 4.09 4.09 0 0 0 0 8.18"/><path fill="#fff" d="m218.71 59.8-6.69 15.4-2.83-3.23 10.42-1.27 3.73-.46c-.96 1.39-12.54 18.42-13.85 20.32l9.01-19.07 1.76 2.44-10.1 2.88-3.96 1.13c.74-2.84 4.51-17.47 5.33-20.62l7.17 2.47z"/><path fill="#338a86" d="M214.71 370.06c12.979 0 23.5-10.521 23.5-23.5s-10.521-23.5-23.5-23.5-23.5 10.521-23.5 23.5 10.521 23.5 23.5 23.5"/><path stroke="#fff" stroke-miterlimit="10" d="M225.43 346.69c0 5.92-4.8 10.72-10.72 10.72s-10.72-4.8-10.72-10.72 10.72-15.12 10.72-15.12 10.72 9.2 10.72 15.12Z"/><path stroke="#fff" stroke-linecap="round" stroke-linejoin="round" stroke-width="1.78" d="m214.9 344.63-.19 16.93"/></svg>