<svg xmlns="http://www.w3.org/2000/svg" width="420" height="420" fill="none" viewBox="0 0 420 420"><path fill="#ebf2d4" d="M272.15 57.85c-16.24-6.09-33.18-11.18-50.52-11.11-23.37.1-45.58 9.53-66.84 19.24-39.13 17.86-69.99 45.85-102.07 74.28-25.97 23.01-30.23 70.73-29.45 103.15.09 3.91.19 7.84.37 11.77.55 12.09 1.84 24.14 6.08 35.41 6.79 18.07 22.55 33.32 34.45 48.19 12.88 16.1 25.51 29.53 42.85 41.02 19.63 13.01 47.71 35.36 71.93 37.41 30.49 2.58 53.83 3.82 83.14-5.31 31.21-9.73 65.42-23.93 87.88-48.81 11.78-13.05 19.47-31.67 28.23-46.84 17.1-29.6 24.19-61.52 19.79-95.54-4.61-35.61-18.6-62.91-33.35-94.74-18.95-40.88-52.25-53.03-92.48-68.11z"/><path fill="#adcb53" d="M408.75 216.51c2.68 0 4.85 2.18 4.85 4.85v44.75c0 2.68-2.18 4.85-4.85 4.85H249.38c-2.68 0-4.85-2.18-4.85-4.85v-44.75c0-2.68 2.18-4.85 4.85-4.85zm0-2.79H249.38c-4.2 0-7.64 3.44-7.64 7.64v44.75c0 4.2 3.44 7.64 7.64 7.64h159.37c4.2 0 7.64-3.44 7.64-7.64v-44.75c0-4.2-3.44-7.64-7.64-7.64"/><path fill="#adcb53" d="M408.75 274.67c2.68 0 4.85 2.18 4.85 4.85v44.75c0 2.68-2.18 4.85-4.85 4.85H249.38c-2.68 0-4.85-2.18-4.85-4.85v-44.75c0-2.68 2.18-4.85 4.85-4.85zm0-2.79H249.38c-4.2 0-7.64 3.44-7.64 7.64v44.75c0 4.2 3.44 7.64 7.64 7.64h159.37c4.2 0 7.64-3.44 7.64-7.64v-44.75c0-4.2-3.44-7.64-7.64-7.64"/><path fill="#a9c753" d="m364.79 308.07 9.6 9.61 6.17-6.18 6.18 6.18 9.6-9.61-6.17-6.17 6.17-6.17-9.6-9.61-6.18 6.18-6.17-6.18-9.6 9.61 6.17 6.17z"/><path fill="#00544f" d="M314.05 307.59h36.73v-13.87h-36.73z"/><path fill="#a9c753" d="m364.79 249.91 9.6 9.6 6.17-6.17 6.18 6.17 9.6-9.6-6.17-6.18 6.17-6.17-9.6-9.6-6.18 6.17-6.17-6.17-9.6 9.6 6.17 6.17z"/><path fill="#00544f" d="M314.05 250.67h36.73V236.8h-36.73z"/><path fill="#adcb53" d="M228.51 104.46v127.83H47.64V104.93zm2.79-2.8-186.45.48v132.93H231.3z"/><path fill="#a8c653" d="M231.3 84.52H44.85v21.61H231.3z"/><path fill="#00544f" d="m224.043 91.686-2.27-2.27-9.645 9.645 2.27 2.27z"/><path fill="#00544f" d="m221.774 101.333 2.27-2.27-9.645-9.645-2.27 2.27zM198.4 91.22v8.63h-9.7v-8.63zm1.49-1.48h-12.67v11.6h12.67zm-24.96 9.04h-12.67v2.56h12.67z"/><path stroke="#adcb53" stroke-linecap="round" stroke-linejoin="round" stroke-width="2.79" d="M174.24 170.95h19.05m-87.51 0h59.34m-85.19 0h15.46m-15.46 20.16h14.51m11.49 0h90.29m-21.98-64.18h19.05m-87.51 0h59.34m-85.19 0h15.46m82.85 20.16h15.05m-113.36 0h14.51m6.6 0h71.13"/><path fill="#003834" d="M113.72 293.14V162.36l184.29-.48v131.26z"/><path fill="#003834" d="M296.94 162.96v129.1H114.8V163.43zm2.15-2.16-186.45.48v132.93h186.45z"/><path fill="#a8c653" d="M299.09 143.67H112.64v21.61h186.45z"/><path fill="#003834" d="m291.846 150.836-2.269-2.27-9.645 9.645 2.27 2.27z"/><path fill="#003834" d="m289.574 160.476 2.27-2.269-9.645-9.645-2.27 2.27zM266.2 150.37V159h-9.7v-8.63zm1.48-1.49h-12.67v11.6h12.67zm-24.95 9.04h-12.67v2.56h12.67z"/><path stroke="#fff" stroke-miterlimit="10" stroke-width="3.02" d="M205.87 254.16c14.768 0 26.74-11.972 26.74-26.74s-11.972-26.74-26.74-26.74-26.74 11.972-26.74 26.74 11.972 26.74 26.74 26.74Z"/><path fill="#adcb53" d="M205.87 191.98c10.81 0 21.48 5.07 31.73 15.06 7.53 7.35 12.91 15.5 15.84 20.47-2.93 4.97-8.31 13.12-15.84 20.47-10.24 9.99-20.92 15.06-31.73 15.06s-21.48-5.07-31.73-15.07c-7.53-7.34-12.91-15.49-15.84-20.46 2.93-4.97 8.31-13.12 15.84-20.46 10.24-10 20.92-15.07 31.73-15.07m0-2.97c-27.18 0-45.96 29.59-51 38.5 5.04 8.91 23.82 38.5 51 38.5s45.96-29.58 51-38.5c-5.04-8.92-23.82-38.5-51-38.5"/><path fill="#adcb53" d="M221.25 230.67c0 8.49-6.88 15.38-15.38 15.38s-15.38-6.88-15.38-15.38 15.38-21.7 15.38-21.7 15.38 13.2 15.38 21.7"/><path stroke="#fff" stroke-linecap="round" stroke-linejoin="round" stroke-width="2.56" d="m206.13 227.72-.26 24.3"/><path fill="#adcb53" d="M88.73 269.98v127.63c-.08.3-.09.62-.03.93-.5.96-3.97 3.48-12.32 5.91-8.74 2.55-19.2 3.95-29.45 3.95s-20.72-1.4-29.45-3.95c-8.35-2.44-11.82-4.96-12.32-5.91.06-.31.05-.63-.03-.93V269.98h83.61m1.99-2H3.12v130.15h.07c-.04.14-.07.28-.07.43 0 4.27 19.61 11.85 43.8 11.85s43.8-7.58 43.8-11.85c0-.14-.03-.29-.07-.43h.07V267.98z"/><path fill="#006d68" d="M10.93 366.68v23.8c0 4.42 16.11 8.9 35.99 8.9s35.99-4.48 35.99-8.9v-23.8z"/><path fill="#6fafac" d="M47.26 374.69c19.69 0 35.65-3.586 35.65-8.01s-15.96-8.01-35.65-8.01-35.65 3.586-35.65 8.01 15.961 8.01 35.65 8.01"/><path fill="#006d68" d="M10.93 330.31v23.8c0 4.42 16.11 8.01 35.99 8.01s35.99-3.58 35.99-8.01v-23.8z"/><path fill="#6fafac" d="M47.26 338.32c19.69 0 35.65-3.586 35.65-8.01s-15.96-8.01-35.65-8.01-35.65 3.586-35.65 8.01 15.961 8.01 35.65 8.01"/><path fill="#006d68" d="M10.93 292.6v23.8c0 4.42 16.11 8.01 35.99 8.01s35.99-3.58 35.99-8.01v-23.8z"/><path fill="#6fafac" d="M47.26 300.61c19.69 0 35.65-3.586 35.65-8.01s-15.96-8.01-35.65-8.01-35.65 3.586-35.65 8.01 15.961 8.01 35.65 8.01"/><path fill="#a8c653" stroke="#fff" stroke-linecap="round" stroke-linejoin="round" stroke-width=".89" d="M46.92 281.58c24.19 0 43.8-5.493 43.8-12.27s-19.61-12.27-43.8-12.27-43.8 5.493-43.8 12.27 19.61 12.27 43.8 12.27"/><path fill="#338a86" d="M64.45 250.29H28.43v15.57h.04c-.03.09-.04.18-.04.27 0 2.27 8.06 4.11 18.01 4.11s18.01-1.84 18.01-4.11c0-.09-.02-.18-.04-.27h.04z"/><path fill="#a8c653" stroke="#fff" stroke-linecap="round" stroke-linejoin="round" stroke-width=".89" d="M64.45 250.29c0 2.27-8.06 5-18.01 5s-18.01-2.73-18.01-5 8.06-4.11 18.01-4.11 18.01 1.84 18.01 4.11"/><path stroke="#00544f" stroke-linecap="round" stroke-linejoin="round" stroke-width="4" d="M66.6 155.05c-2.02 8.96-10.09 15.68-19.63 15.63s-17.54-6.87-19.45-15.85"/><path fill="#00544f" d="M62.05 154.71a4.51 4.51 0 0 1 5.03-3.92 4.51 4.51 0 0 1 3.92 5.03 4.51 4.51 0 0 1-5.03 3.92 4.51 4.51 0 0 1-3.92-5.03m-29.99-.17a4.51 4.51 0 0 0-4.99-3.98 4.51 4.51 0 0 0-3.98 4.99 4.51 4.51 0 0 0 4.99 3.98 4.51 4.51 0 0 0 3.98-4.99"/><path stroke="#00544f" stroke-linecap="round" stroke-linejoin="round" stroke-width="4" d="M76.33 182.42c-2.17 14.34-14.67 25.38-29.57 25.29-14.9-.08-27.27-11.26-29.28-25.62"/><path fill="#00544f" d="M71.76 182.23c.22-2.48 2.42-4.31 4.9-4.09s4.31 2.42 4.09 4.9-2.42 4.31-4.9 4.09-4.31-2.42-4.09-4.9m-49.72-.28c-.2-2.48-2.37-4.34-4.85-4.14s-4.34 2.37-4.14 4.85 2.37 4.34 4.85 4.14 4.34-2.37 4.14-4.85"/><path stroke="#00544f" stroke-linecap="round" stroke-linejoin="round" stroke-width="4" d="m47.18 132.74-.89 116.86"/><path fill="#00544f" d="M42.67 132.93c.02-2.49 2.05-4.5 4.55-4.48 2.49.02 4.5 2.05 4.48 4.55a4.513 4.513 0 0 1-4.55 4.48c-2.5-.02-4.5-2.05-4.48-4.55"/><path fill="#338a86" d="M348.46 94.99c-2.74 4.36-4.32 9.33-4.4 14.63-.24 17.28 24.42 36.67 35.89 36.67 15.5 0 36.93-18.74 36.93-36.28 0-7.2-2.8-13.83-7.5-19.14-2.24-2.52-2.78-5.87-1.37-8.8 1.47-3.05 2.27-6.39 2.27-9.89 0-5.97-2.34-11.46-6.28-15.83-2.48-2.75-2.91-6.46-1.08-9.57 1.74-2.96 2.72-6.3 2.72-9.84 0-12.02-15.28-36.02-25.17-36.02-8.69 0-25.17 24-25.17 36.02 0 3.54.98 6.89 2.72 9.84 1.83 3.11 1.39 6.82-1.08 9.57-3.94 4.37-6.28 9.86-6.28 15.83 0 3.5.81 6.85 2.27 9.89 1.41 2.93.88 6.27-1.36 8.79-1.16 1.3-2.2 2.69-3.11 4.14"/><path stroke="#00544f" stroke-miterlimit="10" stroke-width="2.14" d="M380.47 28.31v177.78m31.92-.92h-79.91m14.93 0v-30.44"/><path fill="#00544f" d="M352.23 174.97c0-2.66-2.16-4.82-4.82-4.82s-4.82 2.16-4.82 4.82 2.16 4.82 4.82 4.82 4.82-2.16 4.82-4.82"/><path stroke="#00544f" stroke-miterlimit="10" stroke-width="2.14" d="M364.5 205.17V158.9"/><path fill="#00544f" d="M369.32 159.14c0-2.66-2.16-4.82-4.82-4.82s-4.82 2.16-4.82 4.82 2.16 4.82 4.82 4.82 4.82-2.16 4.82-4.82"/></svg>