<svg width="420" height="426" viewBox="0 0 420 426" fill="none" xmlns="http://www.w3.org/2000/svg">
<path d="M271.26 38.01C255.02 31.92 238.08 26.83 220.74 26.9C197.37 27 175.16 36.43 153.9 46.14C114.77 64 83.91 91.99 51.83 120.42C25.86 143.43 21.6 191.15 22.38 223.57C22.47 227.48 22.57 231.41 22.75 235.34C23.3 247.43 24.59 259.48 28.83 270.75C35.62 288.82 51.38 304.07 63.28 318.94C76.16 335.04 88.79 348.47 106.13 359.96C125.76 372.97 153.84 395.32 178.06 397.37C208.55 399.95 231.89 401.19 261.2 392.06C292.41 382.33 326.62 368.13 349.08 343.25C360.86 330.2 368.55 311.58 377.31 296.41C394.41 266.81 401.5 234.89 397.1 200.87C392.49 165.26 378.5 137.96 363.75 106.13C344.8 65.25 311.5 53.1 271.27 38.02L271.26 38.01Z" fill="#EBF2D4"/>
<path d="M22.6201 370.93L133.5 369.99C136.37 369.97 138.71 372.29 138.71 375.16V405.99C138.71 407.6 138.17 409.16 137.17 410.42L130.49 420.6L130.17 386.75C130.15 384.15 128.02 382.06 125.41 382.08L21.2401 382.96C16.8601 383 14.3901 377.95 17.1001 374.51L18.2301 373.08C19.2901 371.73 20.9101 370.94 22.6201 370.93Z" fill="#849E2A"/>
<path d="M16.9801 381.58H123.71C128.12 381.58 131.72 385.19 131.72 389.59V416.12C131.72 418.53 129.87 423.24 127.46 423.24L12.9801 420.51C10.5701 420.51 8.6001 418.54 8.6001 416.13V389.97C8.6001 385.36 12.3701 381.59 16.9801 381.59V381.58Z" fill="#849E2A"/>
<path d="M14.7 424.16H120.52C125.297 424.16 129.17 420.287 129.17 415.51V393.89C129.17 389.113 125.297 385.24 120.52 385.24H14.7C9.92278 385.24 6.05004 389.113 6.05004 393.89V415.51C6.05004 420.287 9.92278 424.16 14.7 424.16Z" fill="#ADCB53"/>
<path d="M83.9801 404.7C83.9801 404.7 75.3101 417.07 64.6101 417.07C53.9101 417.07 45.2401 404.7 45.2401 404.7C45.2401 404.7 53.9101 392.33 64.6101 392.33C75.3101 392.33 83.9801 404.7 83.9801 404.7Z" stroke="#F2F6E9" stroke-linecap="round" stroke-linejoin="round"/>
<path d="M64.6101 411.38C68.3656 411.38 71.4101 408.336 71.4101 404.58C71.4101 400.824 68.3656 397.78 64.6101 397.78C60.8545 397.78 57.8101 400.824 57.8101 404.58C57.8101 408.336 60.8545 411.38 64.6101 411.38Z" fill="#F2F6E9"/>
<path d="M100.61 411.38C104.366 411.38 107.41 408.336 107.41 404.58C107.41 400.824 104.366 397.78 100.61 397.78C96.8545 397.78 93.8101 400.824 93.8101 404.58C93.8101 408.336 96.8545 411.38 100.61 411.38Z" fill="#849E2A"/>
<path d="M35.7101 401.2H14.7101V408.2H35.7101V401.2Z" fill="#849E2A"/>
<path d="M23.89 329.84L130.86 328.93C135.19 328.89 138.72 332.39 138.72 336.73V364.9C138.72 366.51 138.18 368.07 137.18 369.33L130.44 377.87L129.54 351.68C129.34 345.71 124.41 341 118.44 341.05L10.37 341.97L17.45 332.99C19.01 331.02 21.37 329.86 23.88 329.84H23.89Z" fill="#849E2A"/>
<path d="M12.9901 340.56H123.72C128.13 340.56 131.73 344.17 131.73 348.57V371.47C131.73 375.88 128.12 379.48 123.72 379.48H16.6201C12.2101 379.48 8.61011 375.87 8.61011 371.47V344.94C8.61011 343.5 10.5801 340.56 12.9901 340.56Z" fill="#849E2A"/>
<path d="M14.7 383.14H120.52C125.297 383.14 129.17 379.267 129.17 374.49V352.87C129.17 348.093 125.297 344.22 120.52 344.22H14.7C9.92278 344.22 6.05004 348.093 6.05004 352.87V374.49C6.05004 379.267 9.92278 383.14 14.7 383.14Z" fill="#ADCB53"/>
<path d="M83.9801 363.68C83.9801 363.68 75.3101 376.05 64.6101 376.05C53.9101 376.05 45.2401 363.68 45.2401 363.68C45.2401 363.68 53.9101 351.31 64.6101 351.31C75.3101 351.31 83.9801 363.68 83.9801 363.68Z" stroke="#F2F6E9" stroke-linecap="round" stroke-linejoin="round"/>
<path d="M64.6101 370.36C68.3656 370.36 71.4101 367.316 71.4101 363.56C71.4101 359.804 68.3656 356.76 64.6101 356.76C60.8545 356.76 57.8101 359.804 57.8101 363.56C57.8101 367.316 60.8545 370.36 64.6101 370.36Z" fill="#F2F6E9"/>
<path d="M101.61 370.36C105.366 370.36 108.41 367.316 108.41 363.56C108.41 359.804 105.366 356.76 101.61 356.76C97.8545 356.76 94.8101 359.804 94.8101 363.56C94.8101 367.316 97.8545 370.36 101.61 370.36Z" fill="#849E2A"/>
<path d="M35.7101 360.18H14.7101V367.18H35.7101V360.18Z" fill="#849E2A"/>
<path d="M166.85 193.31H116.55C93.52 193.31 74.85 174.64 74.85 151.61V84.81" stroke="#006D68" stroke-width="1.26" stroke-linecap="round" stroke-linejoin="round"/>
<path d="M89.56 141.8V125.06L75.07 116.69L60.58 125.06V141.8L75.07 150.16L89.56 141.8Z" fill="#EBF2D4" stroke="#006D68" stroke-width="1.26" stroke-linecap="round" stroke-linejoin="round"/>
<path d="M83.9899 138.58V128.28L75.0699 123.12L66.1499 128.28V138.58L75.0699 143.73L83.9899 138.58Z" fill="#006D68"/>
<path d="M262.58 193.31H312.88C335.91 193.31 354.58 174.64 354.58 151.61V84.81" stroke="#006D68" stroke-width="1.26" stroke-linecap="round" stroke-linejoin="round"/>
<path d="M339.87 141.8V125.06L354.36 116.69L368.85 125.06V141.8L354.36 150.16L339.87 141.8Z" fill="#EBF2D4" stroke="#006D68" stroke-width="1.26" stroke-linecap="round" stroke-linejoin="round"/>
<path d="M345.44 138.58V128.28L354.36 123.12L363.28 128.28V138.58L354.36 143.73L345.44 138.58Z" fill="#006D68"/>
<path d="M262.58 225.81H312.88C335.91 225.81 354.58 244.48 354.58 267.51V334.31" stroke="#006D68" stroke-width="1.26" stroke-linecap="round" stroke-linejoin="round"/>
<path d="M339.87 277.33V294.07L354.36 302.44L368.85 294.07V277.33L354.36 268.97L339.87 277.33Z" fill="#EBF2D4" stroke="#006D68" stroke-width="1.26" stroke-linecap="round" stroke-linejoin="round"/>
<path d="M345.44 280.55V290.85L354.36 296L363.28 290.85V280.55L354.36 275.4L345.44 280.55Z" fill="#006D68"/>
<path d="M166.85 225.81H116.55C93.52 225.81 74.85 244.48 74.85 267.51V334.31" stroke="#006D68" stroke-width="1.26" stroke-linecap="round" stroke-linejoin="round"/>
<path d="M89.56 277.33V294.07L75.07 302.44L60.58 294.07V277.33L75.07 268.97L89.56 277.33Z" fill="#EBF2D4" stroke="#006D68" stroke-width="1.26" stroke-linecap="round" stroke-linejoin="round"/>
<path d="M83.9899 280.55V290.85L75.0699 296L66.1499 290.85V280.55L75.0699 275.4L83.9899 280.55Z" fill="#006D68"/>
<path d="M119.96 22.15C116.06 22.15 112.32 22.86 108.87 24.15C105.03 11.02 92.9 1.42999 78.54 1.42999C64.17 1.42999 52.05 11.02 48.21 24.15C44.76 22.86 41.02 22.15 37.12 22.15C19.66 22.15 5.51001 36.3 5.51001 53.76C5.51001 71.22 19.66 85.37 37.12 85.37C45.05 85.37 70.62 85.37 78.54 85.37C86.47 85.37 112.04 85.37 119.96 85.37C137.42 85.37 151.57 71.22 151.57 53.76C151.57 36.3 137.42 22.15 119.96 22.15Z" fill="#D6D6D6"/>
<path d="M119.96 22.15C116.06 22.15 112.32 22.86 108.87 24.15C105.03 11.02 92.9 1.42999 78.54 1.42999C64.17 1.42999 52.05 11.02 48.21 24.15C44.76 22.86 41.02 22.15 37.12 22.15C19.66 22.15 5.51001 36.3 5.51001 53.76C5.51001 71.22 19.66 85.37 37.12 85.37C45.05 85.37 70.62 85.37 78.54 85.37C86.47 85.37 112.04 85.37 119.96 85.37C137.42 85.37 151.57 71.22 151.57 53.76C151.57 36.3 137.42 22.15 119.96 22.15Z" fill="#338A86"/>
<path d="M38.19 29.08C26.94 29.08 17.72 34.57 14.72 45.57" stroke="#ADCB53" stroke-width="2.08" stroke-linecap="round" stroke-linejoin="round"/>
<path d="M108.25 51.4C108.25 51.4 94.95 70.37 78.54 70.37C62.13 70.37 48.83 51.4 48.83 51.4C48.83 51.4 62.13 32.43 78.54 32.43C94.95 32.43 108.25 51.4 108.25 51.4Z" fill="#003834"/>
<path d="M78.54 57.4C81.9531 57.4 84.72 54.6331 84.72 51.22C84.72 47.8069 81.9531 45.04 78.54 45.04C75.1269 45.04 72.36 47.8069 72.36 51.22C72.36 54.6331 75.1269 57.4 78.54 57.4Z" fill="white"/>
<path d="M78.54 40.25C84.59 40.25 89.52 45.17 89.52 51.23C89.52 57.29 84.6 62.21 78.54 62.21C72.48 62.21 67.56 57.29 67.56 51.23C67.56 45.17 72.48 40.25 78.54 40.25ZM78.54 38.01C71.25 38.01 65.33 43.92 65.33 51.22C65.33 58.52 71.24 64.43 78.54 64.43C85.84 64.43 91.75 58.52 91.75 51.22C91.75 43.92 85.84 38.01 78.54 38.01Z" fill="white"/>
<path d="M108.87 24.15C105.03 11.02 92.9 1.42999 78.54 1.42999C64.17 1.42999 52.05 11.02 48.21 24.15C44.76 22.86 41.02 22.15 37.12 22.15C19.66 22.15 5.51001 36.3 5.51001 53.76" stroke="#ADCB53" stroke-width="1.52" stroke-linecap="round" stroke-linejoin="round"/>
<path d="M151.57 53.76C151.57 36.3 137.42 22.15 119.96 22.15" stroke="#ADCB53" stroke-width="1.52" stroke-linecap="round" stroke-linejoin="round"/>
<path d="M56.08 20.47C55.25 22.19 54.55 23.97 53.98 25.78" stroke="#ADCB53" stroke-width="2.08" stroke-linecap="round" stroke-linejoin="round"/>
<path d="M75.85 7.87999C72.58 7.54999 68.45 8.64999 65.56 10.19C62.83 11.65 60.41 13.67 58.58 16.16" stroke="#ADCB53" stroke-width="2.08" stroke-linecap="round" stroke-linejoin="round"/>
<path d="M409.71 12.19L300.71 12.49V95.9H345.54H364.89H409.71V12.19Z" fill="#A8C653"/>
<path d="M409.71 12.19L300.71 12.49V95.9H345.54H364.89H409.71V12.19Z" fill="#A8C653"/>
<path d="M409.71 1.44H300.71V15H409.71V1.44Z" fill="#00544F"/>
<path d="M405.161 5.92112L403.74 4.49985L397.687 10.5527L399.108 11.974L405.161 5.92112Z" fill="#A8C653"/>
<path d="M403.749 11.9808L405.17 10.5596L399.117 4.50674L397.696 5.92801L403.749 11.9808Z" fill="#A8C653"/>
<path d="M389.07 5.63999V11.05H382.99V5.63999H389.07ZM390.01 4.70999H382.06V11.99H390.01V4.70999Z" fill="#A8C653"/>
<path d="M374.35 10.38H366.4V11.98H374.35V10.38Z" fill="#A8C653"/>
<path d="M393.67 54.04C393.67 54.04 376.45 78.59 355.21 78.59C333.97 78.59 316.75 54.04 316.75 54.04C316.75 54.04 333.97 29.49 355.21 29.49C376.45 29.49 393.67 54.04 393.67 54.04Z" stroke="#F2F6E9" stroke-width="1.75" stroke-linecap="round" stroke-linejoin="round"/>
<path d="M355.21 74.55C366.664 74.55 375.95 65.2644 375.95 53.81C375.95 42.3556 366.664 33.07 355.21 33.07C343.756 33.07 334.47 42.3556 334.47 53.81C334.47 65.2644 343.756 74.55 355.21 74.55Z" fill="#849E2A"/>
<path d="M355.21 61.81C359.628 61.81 363.21 58.2282 363.21 53.81C363.21 49.3917 359.628 45.81 355.21 45.81C350.792 45.81 347.21 49.3917 347.21 53.81C347.21 58.2282 350.792 61.81 355.21 61.81Z" fill="#F2F6E9"/>
<path d="M355.21 39.6C363.04 39.6 369.41 45.97 369.41 53.8C369.41 61.63 363.04 68 355.21 68C347.38 68 341.01 61.63 341.01 53.8C341.01 45.97 347.38 39.6 355.21 39.6ZM355.21 36.71C345.77 36.71 338.11 44.36 338.11 53.81C338.11 63.26 345.76 70.91 355.21 70.91C364.66 70.91 372.31 63.26 372.31 53.81C372.31 44.36 364.66 36.71 355.21 36.71Z" fill="#A8C653"/>
<path d="M214.71 96.06C227.689 96.06 238.21 85.5387 238.21 72.56C238.21 59.5813 227.689 49.06 214.71 49.06C201.731 49.06 191.21 59.5813 191.21 72.56C191.21 85.5387 201.731 96.06 214.71 96.06Z" fill="#338A86"/>
<path d="M214.71 96.5V323.5" stroke="#006D68" stroke-width="1.26" stroke-linecap="round" stroke-linejoin="round"/>
<path d="M345.5 207.25H78.5" stroke="#6FAFAC" stroke-width="2" stroke-miterlimit="10"/>
<path d="M214.71 289.06C258.617 289.06 294.21 253.467 294.21 209.56C294.21 165.653 258.617 130.06 214.71 130.06C170.803 130.06 135.21 165.653 135.21 209.56C135.21 253.467 170.803 289.06 214.71 289.06Z" fill="#003834"/>
<path d="M249.63 209.56H270.97C270.97 178.49 245.78 153.3 214.71 153.3C183.64 153.3 158.45 178.49 158.45 209.56H179.79C179.79 190.28 195.42 174.64 214.71 174.64C234 174.64 249.63 190.27 249.63 209.56Z" fill="#006D68"/>
<path d="M249.63 209.56C249.63 209.56 249.63 209.72 249.63 209.94C249.63 209.94 249.63 209.96 249.63 209.97C249.63 210.06 249.63 210.16 249.63 210.27C249.63 210.31 249.63 210.36 249.63 210.41C249.63 210.46 249.63 210.51 249.63 210.57C249.63 210.66 249.63 210.76 249.63 210.86V210.84C249.63 211.08 249.61 211.32 249.6 211.55C249.6 211.55 249.6 211.57 249.6 211.58C249.6 211.65 249.6 211.72 249.59 211.79C249.59 211.89 249.58 211.99 249.57 212.08C249.56 212.28 249.53 212.47 249.51 212.66C247.95 230.5 232.98 244.49 214.74 244.49C196.5 244.49 181.08 230.08 179.9 211.86C179.9 211.75 179.89 211.61 179.88 211.47C179.84 210.67 179.83 209.57 179.83 209.57H158.49C158.49 209.57 158.51 211.09 158.54 211.85C159.73 241.87 184.44 265.83 214.75 265.83C245.06 265.83 269.51 242.12 270.94 212.32C270.98 211.41 271.01 209.57 271.01 209.57H249.67L249.63 209.56Z" fill="#AECC53"/>
<path d="M219.68 204.59H209.74V214.53H219.68V204.59Z" fill="#AECC53"/>
<path d="M179.93 204.59H169.99V214.53H179.93V204.59Z" fill="#003834"/>
<path d="M259.44 204.59H249.5V214.53H259.44V204.59Z" fill="#003834"/>
<path d="M209.75 244.26V254.2H219.69V244.26H209.75Z" fill="#003834"/>
<path d="M209.74 164.94V174.88H219.68V164.94H209.74Z" fill="#003834"/>
<path d="M189.87 194.66V204.59H179.93V214.53H189.87V218.74V224.47H199.81V218.74V214.53V204.59V194.66H189.87Z" fill="white"/>
<path d="M239.56 204.59V201.68V194.66H229.62V201.68V204.59V214.53V224.47H239.56V214.53H249.5V204.59H239.56Z" fill="white"/>
<path d="M219.68 184.72V174.78H209.74V184.72H199.81V194.66H209.74H219.68H229.62V184.72H219.68Z" fill="white"/>
<path d="M224.65 224.47H219.68H209.74H207.19H199.81V234.41H207.19H209.74V244.35H219.68V234.41H224.65H229.62V224.47H224.65Z" fill="white"/>
<path d="M347.72 330.14V332.24C347.72 334.22 346.12 335.82 344.14 335.82H316.13C314.15 335.82 312.55 337.42 312.55 339.4V395.71C312.55 397.69 314.15 399.29 316.13 399.29H385C386.98 399.29 388.58 397.69 388.58 395.71V330.14C388.58 328.16 386.98 326.56 385 326.56H351.3C349.32 326.56 347.72 328.16 347.72 330.14Z" fill="#338A86"/>
<path d="M356.92 338.83V340.93C356.92 342.91 355.32 344.51 353.34 344.51H325.33C323.35 344.51 321.75 346.11 321.75 348.09V404.4C321.75 406.38 323.35 407.98 325.33 407.98H394.2C396.18 407.98 397.78 406.38 397.78 404.4V338.83C397.78 336.85 396.18 335.25 394.2 335.25H360.5C358.52 335.25 356.92 336.85 356.92 338.83Z" fill="#006D68"/>
<path d="M364.43 346.36V348.46C364.43 350.44 362.83 352.04 360.85 352.04H332.84C330.86 352.04 329.26 353.64 329.26 355.62V411.93C329.26 413.91 330.86 415.51 332.84 415.51H401.71C403.69 415.51 405.29 413.91 405.29 411.93V346.36C405.29 344.38 403.69 342.78 401.71 342.78H368.01C366.03 342.78 364.43 344.38 364.43 346.36Z" fill="#A8C653"/>
<path d="M373.64 355.42V357.52C373.64 359.5 372.04 361.1 370.06 361.1H342.05C340.07 361.1 338.47 362.7 338.47 364.68V420.99C338.47 422.97 340.07 424.57 342.05 424.57H410.92C412.9 424.57 414.5 422.97 414.5 420.99V355.42C414.5 353.44 412.9 351.84 410.92 351.84H377.22C375.24 351.84 373.64 353.44 373.64 355.42Z" fill="#003834"/>
<path d="M398.7 391.38C398.7 391.38 388.75 405.57 376.48 405.57C364.21 405.57 354.26 391.38 354.26 391.38C354.26 391.38 364.21 377.19 376.48 377.19C388.75 377.19 398.7 391.38 398.7 391.38Z" fill="#006D68"/>
<path d="M376.48 381.36C381.93 381.36 386.36 385.79 386.36 391.24C386.36 396.69 381.93 401.12 376.48 401.12C371.03 401.12 366.6 396.69 366.6 391.24C366.6 385.79 371.03 381.36 376.48 381.36ZM376.48 379.25C369.86 379.25 364.49 384.62 364.49 391.24C364.49 397.86 369.86 403.23 376.48 403.23C383.1 403.23 388.47 397.86 388.47 391.24C388.47 384.62 383.1 379.25 376.48 379.25Z" fill="#003834"/>
<path d="M376.48 395.33C378.739 395.33 380.57 393.499 380.57 391.24C380.57 388.981 378.739 387.15 376.48 387.15C374.221 387.15 372.39 388.981 372.39 391.24C372.39 393.499 374.221 395.33 376.48 395.33Z" fill="#6FAFAC"/>
<path d="M218.71 59.8L212.02 75.2L209.19 71.97L219.61 70.7L223.34 70.24C222.38 71.63 210.8 88.66 209.49 90.56L218.5 71.49L220.26 73.93L210.16 76.81L206.2 77.94C206.94 75.1 210.71 60.47 211.53 57.32L218.7 59.79L218.71 59.8Z" fill="white"/>
<path d="M214.71 370.06C227.689 370.06 238.21 359.539 238.21 346.56C238.21 333.581 227.689 323.06 214.71 323.06C201.731 323.06 191.21 333.581 191.21 346.56C191.21 359.539 201.731 370.06 214.71 370.06Z" fill="#338A86"/>
<path d="M225.43 346.69C225.43 352.61 220.63 357.41 214.71 357.41C208.79 357.41 203.99 352.61 203.99 346.69C203.99 340.77 214.71 331.57 214.71 331.57C214.71 331.57 225.43 340.77 225.43 346.69Z" stroke="white" stroke-miterlimit="10"/>
<path d="M214.9 344.63L214.71 361.56" stroke="white" stroke-width="1.78" stroke-linecap="round" stroke-linejoin="round"/>
</svg>
