<svg xmlns="http://www.w3.org/2000/svg" width="400" height="390" fill="none" viewBox="0 0 400 390"><path fill="#ebf2d4" d="M260.58 12.79C244.34 6.7 227.4 1.61 210.06 1.68c-23.37.1-45.58 9.53-66.84 19.24C104.09 38.78 73.23 66.77 41.15 95.2c-25.97 23.01-30.23 70.73-29.45 103.15.09 3.91.19 7.84.37 11.77.55 12.09 1.84 24.14 6.08 35.41 6.79 18.07 22.55 33.32 34.45 48.19 12.88 16.1 25.51 29.53 42.85 41.02 19.63 13.01 47.71 35.36 71.93 37.41 30.49 2.58 53.83 3.82 83.14-5.31 31.21-9.73 65.42-23.93 87.88-48.81 11.78-13.05 19.47-31.67 28.23-46.84 17.1-29.6 24.19-61.52 19.79-95.54-4.61-35.61-18.6-62.91-33.35-94.74-18.95-40.88-52.25-53.03-92.48-68.11z"/><path fill="#a8c653" d="m276.86 105.83-6.69 15.4-2.83-3.23 10.42-1.27 3.73-.46c-.96 1.39-12.54 18.42-13.85 20.32l9.01-19.07 1.76 2.44-10.1 2.88-3.96 1.13c.74-2.84 4.51-17.47 5.33-20.62l7.17 2.47z"/><path stroke="#a8c653" stroke-linecap="round" stroke-linejoin="round" stroke-width="1.44" d="M210.65 167.47H12.3v83.44h198.35z"/><path fill="#a8c653" d="M72.66 183.38H32.43v12.19h40.23zm118.42 0H78.33v12.19h112.75zm-83.59 20.24H32.43v12.19h75.06zm83.59 0h-75.06v12.19h75.06z"/><path fill="#007872" d="M53.98 223.78H31.87v12.19h22.11zm27.58 0H59.45v12.19h22.11z"/><path fill="#fff" d="M109.09 223.78H86.98v12.19h22.11zm27.85 0h-22.11v12.19h22.11zm27.03 0h-22.11v12.19h22.11zm27.85 0h-22.11v12.19h22.11z"/><path fill="#006d68" d="M211.34 153.68H11.61v14.92h199.73z"/><path fill="#fff" d="m206.332 158.62-1.57-1.57-6.661 6.661 1.57 1.57z"/><path fill="#fff" d="m204.77 165.282 1.57-1.57-6.661-6.661-1.57 1.57zm-16.14-6.982v5.96h-6.69v-5.96zm1.03-1.02h-8.74v8.01h8.74zm-17.23 6.24h-8.74v1.76h8.74z"/><path fill="#00544f" d="M118.29 201.87h260.36V349.1c0 13.52-10.98 24.5-24.5 24.5H142.79c-13.52 0-24.5-10.98-24.5-24.5z"/><path stroke="#006d68" stroke-miterlimit="10" stroke-width="7.41" d="M194.57 216.69v-26.68c0-15.97 12.95-28.92 28.92-28.92h52.12c15.97 0 28.92 12.95 28.92 28.92v26.68"/><path fill="#003834" d="M118.29 201.87h260.36v81.37c0 10.32-8.38 18.7-18.7 18.7H137c-10.32 0-18.7-8.38-18.7-18.7v-81.37z"/><path fill="#006d68" d="M275.91 302.91h16.77c0-24.42-19.79-44.21-44.21-44.21s-44.21 19.79-44.21 44.21h16.77c0-15.15 12.28-27.44 27.44-27.44s27.44 12.28 27.44 27.44"/><path fill="#aecc53" d="M275.91 302.91v1.02-.02c0 .19-.01.38-.02.56v.18c0 .08 0 .16-.01.23-.01.15-.03.3-.04.46-1.23 14.02-12.99 25.01-27.33 25.01s-26.45-11.32-27.38-25.64c0-.09-.01-.19-.02-.3-.03-.63-.04-1.5-.04-1.5H204.3s.01 1.2.04 1.79c.94 23.59 20.36 42.42 44.17 42.42s43.03-18.64 44.16-42.05c.03-.72.05-2.16.05-2.16z"/><path fill="#aecc53" d="M252.37 299h-7.81v7.81h7.81z"/><path fill="#003834" d="M221.13 299h-7.81v7.81h7.81zm62.48 0h-7.81v7.81h7.81zm-39.05 31.18v7.81h7.81v-7.81zm.01-62.34v7.81h7.81v-7.81z"/><path fill="#fff" d="M228.94 291.19V299h-7.81v7.81h7.81v7.81h7.81v-23.43zm39.05 7.81v-7.81h-7.81v23.43h7.81v-7.81h7.81V299zm-15.62-15.62v-7.81h-7.81v7.81h-7.81v7.81h23.43v-7.81zm3.91 31.24h-19.53v7.81h7.81v7.82h7.81v-7.82h7.81v-7.81z"/><path fill="#006d68" d="M161.99 278.47h-.01a7.41 7.41 0 0 0-7.41 7.41v24.71a7.41 7.41 0 0 0 7.41 7.41h.01a7.41 7.41 0 0 0 7.41-7.41v-24.71a7.41 7.41 0 0 0-7.41-7.41m172.97 0h-.01a7.41 7.41 0 0 0-7.41 7.41v24.71a7.41 7.41 0 0 0 7.41 7.41h.01a7.41 7.41 0 0 0 7.41-7.41v-24.71a7.41 7.41 0 0 0-7.41-7.41"/><circle cx="338.09" cy="270.68" r=".955" fill="#a8c653"/><path stroke="#a8c653" stroke-linecap="round" stroke-linejoin="round" stroke-width="1.91" d="M338.09 265.66v-97.84"/><circle cx="338.09" cy="165.32" r=".955" fill="#a8c653"/><path fill="#a8c653" d="M341.69 270.5c0 1.99-1.61 3.6-3.6 3.6s-3.6-1.61-3.6-3.6 1.61-3.6 3.6-3.6 3.6 1.61 3.6 3.6"/><path fill="#fff" d="M79.19 184.46V70.94l146.42-.33v113.85z"/><path fill="#acca53" d="M225.11 71.11v112.85H79.69V71.44zm1-1-147.42.34v114.52h147.42z"/><path fill="#006d68" d="M204.04 127.53s-23.12 32.97-51.64 32.97-51.64-32.97-51.64-32.97 23.12-32.97 51.64-32.97 51.64 32.97 51.64 32.97"/><path fill="#006d68" d="M204.04 127.53s-23.12 32.97-51.64 32.97-51.64-32.97-51.64-32.97 23.12-32.97 51.64-32.97 51.64 32.97 51.64 32.97"/><path fill="#003834" d="M152.4 152.8c14.111 0 25.55-11.439 25.55-25.55s-11.439-25.55-25.55-25.55-25.55 11.439-25.55 25.55 11.439 25.55 25.55 25.55"/><path fill="#fff" d="M152.4 137.1c5.44 0 9.85-4.41 9.85-9.85s-4.41-9.85-9.85-9.85-9.85 4.41-9.85 9.85 4.41 9.85 9.85 9.85"/><path fill="#a8c653" d="M152.4 109.75c9.65 0 17.5 7.85 17.5 17.5s-7.85 17.5-17.5 17.5-17.5-7.85-17.5-17.5 7.85-17.5 17.5-17.5m0-3.56c-11.63 0-21.06 9.43-21.06 21.06s9.43 21.06 21.06 21.06 21.06-9.43 21.06-21.06-9.43-21.06-21.06-21.06"/><path fill="#003834" d="M226.11 55.36H78.69v17.09h147.42z"/><path fill="#a8c653" d="m220.378 61.03-1.796-1.795-7.629 7.63 1.796 1.796z"/><path fill="#a8c653" d="m218.579 68.659 1.796-1.797-7.63-7.63-1.796 1.797zM200.1 60.66v6.82h-7.67v-6.82zm1.18-1.17h-10.02v9.17h10.02zm-19.73 7.15h-10.02v2.02h10.02z"/><path stroke="#006d68" stroke-miterlimit="10" stroke-width="7.41" d="M194.57 190.02c0-15.97 12.95-28.92 28.92-28.92h52.12c15.97 0 28.92 12.95 28.92 28.92"/><path stroke="#006d68" stroke-miterlimit="10" stroke-width="1.18" d="M356.88 55.36h-63.23v108.37h85V80.82z"/><path fill="#00544f" d="M356.65 80.1h21.6l-21.6-25z"/><path fill="#a8c653" d="M367.76 95.08h-60.82v6.27h60.82zm0 20.8h-60.82v6.27h60.82zm0 20.79h-60.82v6.27h60.82z"/><path fill="#acca53" d="M277.17 49.68h-8.49c-4.98 0-9.03-4.05-9.03-9.03s4.05-9.03 9.03-9.03h8.49c4.98 0 9.03 4.05 9.03 9.03s-4.05 9.03-9.03 9.03m-8.49-14.45c-2.99 0-5.42 2.43-5.42 5.42s2.43 5.42 5.42 5.42h8.49c2.99 0 5.42-2.43 5.42-5.42s-2.43-5.42-5.42-5.42z"/><path fill="#acca53" d="M274.73 47.87h-3.61V69.1h3.61z"/><path fill="#acca53" d="M272.92 61.65h-6.31v3.61h6.31z"/></svg>