<svg width="400" height="390" viewBox="0 0 400 390" fill="none" xmlns="http://www.w3.org/2000/svg">
<path d="M260.58 12.79C244.34 6.7 227.4 1.61 210.06 1.68C186.69 1.78 164.48 11.21 143.22 20.92C104.09 38.78 73.23 66.77 41.15 95.2C15.18 118.21 10.92 165.93 11.7 198.35C11.79 202.26 11.89 206.19 12.07 210.12C12.62 222.21 13.91 234.26 18.15 245.53C24.94 263.6 40.7 278.85 52.6 293.72C65.48 309.82 78.11 323.25 95.45 334.74C115.08 347.75 143.16 370.1 167.38 372.15C197.87 374.73 221.21 375.97 250.52 366.84C281.73 357.11 315.94 342.91 338.4 318.03C350.18 304.98 357.87 286.36 366.63 271.19C383.73 241.59 390.82 209.67 386.42 175.65C381.81 140.04 367.82 112.74 353.07 80.91C334.12 40.03 300.82 27.88 260.59 12.8L260.58 12.79Z" fill="#EBF2D4"/>
<path d="M276.86 105.83L270.17 121.23L267.34 118L277.76 116.73L281.49 116.27C280.53 117.66 268.95 134.69 267.64 136.59L276.65 117.52L278.41 119.96L268.31 122.84L264.35 123.97C265.09 121.13 268.86 106.5 269.68 103.35L276.85 105.82L276.86 105.83Z" fill="#A8C653"/>
<path d="M210.65 167.47H12.2999V250.91H210.65V167.47Z" stroke="#A8C653" stroke-width="1.44" stroke-linecap="round" stroke-linejoin="round"/>
<path d="M72.6601 183.38H32.4301V195.57H72.6601V183.38Z" fill="#A8C653"/>
<path d="M191.08 183.38H78.33V195.57H191.08V183.38Z" fill="#A8C653"/>
<path d="M107.49 203.62H32.4301V215.81H107.49V203.62Z" fill="#A8C653"/>
<path d="M191.08 203.62H116.02V215.81H191.08V203.62Z" fill="#A8C653"/>
<path d="M53.98 223.78H31.87V235.97H53.98V223.78Z" fill="#007872"/>
<path d="M81.5599 223.78H59.45V235.97H81.5599V223.78Z" fill="#007872"/>
<path d="M109.09 223.78H86.98V235.97H109.09V223.78Z" fill="white"/>
<path d="M136.94 223.78H114.83V235.97H136.94V223.78Z" fill="white"/>
<path d="M163.97 223.78H141.86V235.97H163.97V223.78Z" fill="white"/>
<path d="M191.82 223.78H169.71V235.97H191.82V223.78Z" fill="white"/>
<path d="M211.34 153.68H11.61V168.6H211.34V153.68Z" fill="#006D68"/>
<path d="M206.332 158.62L204.762 157.05L198.101 163.711L199.671 165.281L206.332 158.62Z" fill="white"/>
<path d="M204.77 165.282L206.34 163.712L199.679 157.051L198.109 158.621L204.77 165.282Z" fill="white"/>
<path d="M188.63 158.3V164.26H181.94V158.3H188.63ZM189.66 157.28H180.92V165.29H189.66V157.28Z" fill="white"/>
<path d="M172.43 163.52H163.69V165.28H172.43V163.52Z" fill="white"/>
<path d="M118.29 201.87H378.65V349.1C378.65 362.62 367.67 373.6 354.15 373.6H142.79C129.27 373.6 118.29 362.62 118.29 349.1V201.87Z" fill="#00544F"/>
<path d="M194.57 216.69V190.01C194.57 174.04 207.52 161.09 223.49 161.09H275.61C291.58 161.09 304.53 174.04 304.53 190.01V216.69" stroke="#006D68" stroke-width="7.41" stroke-miterlimit="10"/>
<path d="M118.29 201.87H378.65V283.24C378.65 293.56 370.27 301.94 359.95 301.94H137C126.68 301.94 118.3 293.56 118.3 283.24V201.87H118.29Z" fill="#003834"/>
<path d="M275.91 302.91H292.68C292.68 278.49 272.89 258.7 248.47 258.7C224.05 258.7 204.26 278.49 204.26 302.91H221.03C221.03 287.76 233.31 275.47 248.47 275.47C263.63 275.47 275.91 287.75 275.91 302.91Z" fill="#006D68"/>
<path d="M275.91 302.91C275.91 302.91 275.91 303.04 275.91 303.21C275.91 303.21 275.91 303.22 275.91 303.23C275.91 303.3 275.91 303.38 275.91 303.47C275.91 303.51 275.91 303.54 275.91 303.58C275.91 303.62 275.91 303.66 275.91 303.7C275.91 303.77 275.91 303.85 275.91 303.93C275.91 303.93 275.91 303.92 275.91 303.91C275.91 304.1 275.9 304.29 275.89 304.47C275.89 304.47 275.89 304.48 275.89 304.49C275.89 304.55 275.89 304.6 275.89 304.65C275.89 304.73 275.89 304.81 275.88 304.88C275.87 305.03 275.85 305.18 275.84 305.34C274.61 319.36 262.85 330.35 248.51 330.35C234.17 330.35 222.06 319.03 221.13 304.71C221.13 304.62 221.12 304.52 221.11 304.41C221.08 303.78 221.07 302.91 221.07 302.91H204.3C204.3 302.91 204.31 304.11 204.34 304.7C205.28 328.29 224.7 347.12 248.51 347.12C272.32 347.12 291.54 328.48 292.67 305.07C292.7 304.35 292.72 302.91 292.72 302.91H275.95H275.91Z" fill="#AECC53"/>
<path d="M252.37 299H244.56V306.81H252.37V299Z" fill="#AECC53"/>
<path d="M221.13 299H213.32V306.81H221.13V299Z" fill="#003834"/>
<path d="M283.61 299H275.8V306.81H283.61V299Z" fill="#003834"/>
<path d="M244.56 330.18V337.99H252.37V330.18H244.56Z" fill="#003834"/>
<path d="M244.57 267.84V275.65H252.38V267.84H244.57Z" fill="#003834"/>
<path d="M228.94 291.19V299H221.13V306.81H228.94V310.12V314.62H236.75V310.12V306.81V299V291.19H228.94Z" fill="white"/>
<path d="M267.99 299V296.71V291.19H260.18V296.71V299V306.81V314.62H267.99V306.81H275.8V299H267.99Z" fill="white"/>
<path d="M252.37 283.38V275.57H244.56V283.38H236.75V291.19H244.56H252.37H260.18V283.38H252.37Z" fill="white"/>
<path d="M256.28 314.62H252.37H244.56H242.55H236.75V322.43H242.55H244.56V330.25H252.37V322.43H256.28H260.18V314.62H256.28Z" fill="white"/>
<path d="M161.99 278.47H161.98C157.888 278.47 154.57 281.788 154.57 285.88V310.59C154.57 314.682 157.888 318 161.98 318H161.99C166.082 318 169.4 314.682 169.4 310.59V285.88C169.4 281.788 166.082 278.47 161.99 278.47Z" fill="#006D68"/>
<path d="M334.96 278.47H334.95C330.858 278.47 327.54 281.788 327.54 285.88V310.59C327.54 314.682 330.858 318 334.95 318H334.96C339.052 318 342.37 314.682 342.37 310.59V285.88C342.37 281.788 339.052 278.47 334.96 278.47Z" fill="#006D68"/>
<circle cx="338.09" cy="270.68" r="0.955" fill="#A8C653"/>
<path d="M338.09 265.66V167.82" stroke="#A8C653" stroke-width="1.91" stroke-linecap="round" stroke-linejoin="round"/>
<circle cx="338.09" cy="165.32" r="0.955" fill="#A8C653"/>
<path d="M341.69 270.5C341.69 272.49 340.08 274.1 338.09 274.1C336.1 274.1 334.49 272.49 334.49 270.5C334.49 268.51 336.1 266.9 338.09 266.9C340.08 266.9 341.69 268.51 341.69 270.5Z" fill="#A8C653"/>
<path d="M79.1899 184.46V70.94L225.61 70.61V184.46H79.1899Z" fill="white"/>
<path d="M225.11 71.11V183.96H79.6899V71.44L225.11 71.11ZM226.11 70.11L78.6899 70.45V184.97H226.11V70.11Z" fill="#ACCA53"/>
<path d="M204.04 127.53C204.04 127.53 180.92 160.5 152.4 160.5C123.88 160.5 100.76 127.53 100.76 127.53C100.76 127.53 123.88 94.56 152.4 94.56C180.92 94.56 204.04 127.53 204.04 127.53Z" fill="#006D68"/>
<path d="M204.04 127.53C204.04 127.53 180.92 160.5 152.4 160.5C123.88 160.5 100.76 127.53 100.76 127.53C100.76 127.53 123.88 94.56 152.4 94.56C180.92 94.56 204.04 127.53 204.04 127.53Z" fill="#006D68"/>
<path d="M152.4 152.8C166.511 152.8 177.95 141.361 177.95 127.25C177.95 113.139 166.511 101.7 152.4 101.7C138.289 101.7 126.85 113.139 126.85 127.25C126.85 141.361 138.289 152.8 152.4 152.8Z" fill="#003834"/>
<path d="M152.4 137.1C157.84 137.1 162.25 132.69 162.25 127.25C162.25 121.81 157.84 117.4 152.4 117.4C146.96 117.4 142.55 121.81 142.55 127.25C142.55 132.69 146.96 137.1 152.4 137.1Z" fill="white"/>
<path d="M152.4 109.75C162.05 109.75 169.9 117.6 169.9 127.25C169.9 136.9 162.05 144.75 152.4 144.75C142.75 144.75 134.9 136.9 134.9 127.25C134.9 117.6 142.75 109.75 152.4 109.75ZM152.4 106.19C140.77 106.19 131.34 115.62 131.34 127.25C131.34 138.88 140.77 148.31 152.4 148.31C164.03 148.31 173.46 138.88 173.46 127.25C173.46 115.62 164.03 106.19 152.4 106.19Z" fill="#A8C653"/>
<path d="M226.11 55.36H78.6899V72.45H226.11V55.36Z" fill="#003834"/>
<path d="M220.378 61.0308L218.582 59.2348L210.953 66.8645L212.749 68.6605L220.378 61.0308Z" fill="#A8C653"/>
<path d="M218.579 68.6586L220.375 66.8625L212.745 59.2329L210.949 61.0289L218.579 68.6586Z" fill="#A8C653"/>
<path d="M200.1 60.66V67.48H192.43V60.66H200.1ZM201.28 59.49H191.26V68.66H201.28V59.49Z" fill="#A8C653"/>
<path d="M181.55 66.64H171.53V68.66H181.55V66.64Z" fill="#A8C653"/>
<path d="M194.57 190.02C194.57 174.05 207.52 161.1 223.49 161.1H275.61C291.58 161.1 304.53 174.05 304.53 190.02" stroke="#006D68" stroke-width="7.41" stroke-miterlimit="10"/>
<path d="M356.88 55.36H293.65V163.73H378.65V80.82L356.88 55.36Z" stroke="#006D68" stroke-width="1.18" stroke-miterlimit="10"/>
<path d="M356.65 80.1H378.25L356.65 55.1V80.1Z" fill="#00544F"/>
<path d="M367.76 95.08H306.94V101.35H367.76V95.08Z" fill="#A8C653"/>
<path d="M367.76 115.88H306.94V122.15H367.76V115.88Z" fill="#A8C653"/>
<path d="M367.76 136.67H306.94V142.94H367.76V136.67Z" fill="#A8C653"/>
<path d="M277.17 49.68H268.68C263.7 49.68 259.65 45.63 259.65 40.65C259.65 35.67 263.7 31.62 268.68 31.62H277.17C282.15 31.62 286.2 35.67 286.2 40.65C286.2 45.63 282.15 49.68 277.17 49.68ZM268.68 35.23C265.69 35.23 263.26 37.66 263.26 40.65C263.26 43.64 265.69 46.07 268.68 46.07H277.17C280.16 46.07 282.59 43.64 282.59 40.65C282.59 37.66 280.16 35.23 277.17 35.23H268.68Z" fill="#ACCA53"/>
<path d="M274.73 47.87H271.12V69.1H274.73V47.87Z" fill="#ACCA53"/>
<path d="M272.92 61.65H266.61V65.26H272.92V61.65Z" fill="#ACCA53"/>
</svg>
