<?xml version="1.0" encoding="utf-8"?>
<!-- Generator: Adobe Illustrator 23.0.6, SVG Export Plug-In . SVG Version: 6.00 Build 0)  -->
<svg version="1.1" id="Calque_1" xmlns="http://www.w3.org/2000/svg" xmlns:xlink="http://www.w3.org/1999/xlink" x="0px" y="0px"
	 viewBox="0 0 1000 1000" style="enable-background:new 0 0 1000 1000;" xml:space="preserve">
<style type="text/css">
	.st0{fill:#0096A2;}
	.st1{fill:#00A1AC;}
	.st2{fill:#89E5D3;}
</style>
<g>
	<g>
		<path class="st0" d="M659.34,452.6c-8.01,10.45-25.93,18.23-65.7,19.4c-49.84,1.47-91.88-20.47-126.62-38.63
			c0.15,0.04,0.29,0.07,0.45,0.11c-76.22-37.14-131.79-33.45-132.94-3.02c-0.55,14.59,0.94,23.2,7.11,37.86
			c24.39,57.98,84.54,97.14,153,99.69c72.11,2.68,135.2-39.91,160.24-101.64c2.24-5.53,3.87-9.55,5.05-12.45
			C662.23,448.2,660.73,450.79,659.34,452.6z"/>
		<path class="st0" d="M424.35,384.12c87.37,15.9,133.31-1.17,150.19-5.75c-0.22,0.05-0.43,0.11-0.68,0.16
			c-12.06,2.81-55.04,10.49-86.53-0.06c-3.24-1.09-6.37-2.35-9.33-3.85c-27.69-14.06-55.96-37.94-94-48.93
			c-29.48-8.52-45.21,7.45-42.45,18.96C344.93,358.73,367.79,373.83,424.35,384.12z"/>
		<path class="st1" d="M574.54,378.37c0.98-0.24,1.73-0.44,2.15-0.57C576.06,377.96,575.29,378.17,574.54,378.37z"/>
		<path class="st0" d="M440.04,313.69c18.45,1.71,39.18,1.41,56.24,0.6c0.06,0,0.12,0,0.18-0.01c1.83-0.08,3.74-0.19,5.65-0.29
			c1.63-0.09,3.22-0.19,4.76-0.29c0.43-0.03,0.86-0.06,1.29-0.08c2.19-0.14,4.26-0.29,6.2-0.44c1.33-0.1,2.65-0.2,3.99-0.31
			c1.04-0.08,2.02-0.17,2.95-0.25c1.93-0.17,3.64-0.32,5.06-0.46c1.19-0.11,2.12-0.21,2.91-0.29c1.37-0.14,2.19-0.23,2.19-0.23
			c-16.6,1.66-30.6,1.15-47.67-3.11c-5.39-1.34-11.07-3.04-17.25-5.19c-21.09-7.32-36.61-25.57-59.95-29.24
			c-23.35-3.67-28.68,11.98-22.3,21.39C390.68,304.9,399.81,309.97,440.04,313.69z"/>
	</g>
	<g>
		<path class="st2" d="M483.8,301.45c17.07,4.26,31.07,4.77,47.67,3.11c0,0-0.82,0.09-2.19,0.23c32.68-3.22,66.39-8.95,76-15.94
			c12.98-9.43,7.6-22.28-10.89-23.43c-18.49-1.14-46.97,11.2-65.05,21.1C519.24,292.05,503.66,298.06,483.8,301.45z"/>
		<path class="st2" d="M555.14,241.32c-10.61-12.04-44.45,4.34-67.89,8.19c-15.72,2.58-30.01-2.79-41.97-6.77
			c-14.82-4.93-20.07,13.85-0.52,13.12c16.2-0.61,36.76,1.46,56.85,3.91C536.99,264.08,565.75,253.36,555.14,241.32z"/>
		<path class="st2" d="M487.33,371.38c31.49,10.55,74.47,2.88,86.53,0.06c5.09-1.34,10.11-2.83,15.04-4.52
			c55.46-19.04,71.47-38.83,56.81-51.65c-18.33-16.03-60.48,17.81-93.47,35.62C532,361.83,509.85,368.26,487.33,371.38z"/>
		<path class="st2" d="M586.46,390.45c-64.44,11.27-63.25,50.45-118.99,35.93c-0.15-0.04-0.29-0.07-0.45-0.11
			c34.74,18.16,76.78,40.1,126.62,38.63c46.64-1.37,63.23-11.84,69.02-25.04c1.71-3.89,2.52-8,2.84-12.2
			C667.11,406.49,639.08,381.25,586.46,390.45z"/>
	</g>
</g>
<g>
	<path d="M184.91,674.51h-18.18v53.72h-4.46v-53.72h-18.18v-4.13h40.83V674.51z"/>
	<path d="M191.94,673.6c0-1.74,1.49-3.22,3.31-3.22c1.82,0,3.31,1.49,3.31,3.22c0,1.82-1.49,3.31-3.31,3.31
		C193.42,676.9,191.94,675.42,191.94,673.6z M193.18,686.9h4.13v41.32h-4.13V686.9z"/>
	<path d="M269.21,702.03v26.2h-4.13v-26.2c0-7.85-4.55-12.07-10.99-12.07c-6.94,0-12.4,4.63-12.4,15.21v23.06h-4.13v-26.2
		c0-7.85-4.21-12.07-10.58-12.07c-6.78,0-12.81,4.63-12.81,15.21v23.06h-4.13V686.9h4.13v7.11c3.06-5.7,8.02-8.02,13.31-8.02
		c6.03,0,10.74,2.98,12.89,8.43c2.98-5.79,8.26-8.43,13.8-8.43C262.93,685.99,269.21,691.7,269.21,702.03z"/>
	<path d="M319.87,707.73c0,0.66-0.08,1.32-0.08,1.98h-37.44c0.99,9.34,8.1,15.45,17.52,15.45c6.78,0,11.9-3.14,14.3-7.52l3.64,2.15
		c-3.39,5.62-9.84,9.34-18.02,9.34c-12.73,0-21.74-9.09-21.74-21.57c0-12.15,8.76-21.57,21.41-21.57
		C312.02,685.99,319.87,696.41,319.87,707.73z M282.35,705.66h33.22c-0.91-10.08-8.02-15.7-16.12-15.7
		C290.04,689.96,283.18,696.49,282.35,705.66z"/>
	<path d="M358.8,684.67v2.23h12.31v4.05H358.8v37.27h-4.21v-37.27h-7.11v-4.05h7.11v-2.23c0-10.17,5.7-16.03,16.53-15.21v3.97
		C362.68,672.77,358.8,676.66,358.8,684.67z"/>
	<path d="M371.94,707.57c0-12.23,9.67-21.57,21.74-21.57c11.98,0,21.65,9.34,21.65,21.57s-9.67,21.57-21.65,21.57
		C381.61,729.14,371.94,719.8,371.94,707.57z M411.11,707.57c0-9.84-7.6-17.6-17.44-17.6c-9.84,0-17.52,7.77-17.52,17.6
		s7.69,17.6,17.52,17.6C403.51,725.17,411.11,717.4,411.11,707.57z"/>
	<path d="M443.18,686.33v3.97c-7.11,0-13.8,4.38-13.8,14.96v22.98h-4.13V686.9h4.13v8.1C432.19,688.47,437.56,686.33,443.18,686.33z
		"/>
	<path d="M482.44,690.95v26.86c0,7.27,3.88,7.44,12.31,6.69v3.72c-10.83,1.65-16.53-0.99-16.53-10.41v-26.86h-9.09v-4.05h9.09
		v-10.33l4.22-1.24v11.57h12.31v4.05H482.44z"/>
	<path d="M539.63,702.52v25.7h-4.21v-25.7c0-7.6-4.38-12.56-12.15-12.56c-8.1,0-14.46,5.29-14.46,16.45v21.82h-4.13v-57.85h4.13
		v24.38c3.14-6.12,8.43-8.76,14.79-8.76C533.43,685.99,539.63,692.52,539.63,702.52z"/>
	<path d="M590.29,707.73c0,0.66-0.08,1.32-0.08,1.98h-37.44c0.99,9.34,8.1,15.45,17.52,15.45c6.78,0,11.9-3.14,14.3-7.52l3.64,2.15
		c-3.39,5.62-9.84,9.34-18.02,9.34c-12.73,0-21.74-9.09-21.74-21.57c0-12.15,8.76-21.57,21.41-21.57
		C582.44,685.99,590.29,696.41,590.29,707.73z M552.77,705.66h33.22c-0.91-10.08-8.02-15.7-16.12-15.7
		C560.46,689.96,553.6,696.49,552.77,705.66z"/>
	<path d="M660.54,688.31c0,10.17-7.6,17.85-18.02,17.85h-15.29v22.07h-4.38v-57.85h19.67C652.94,670.37,660.54,678.06,660.54,688.31
		z M656.16,688.31c0-8.02-5.7-13.8-13.64-13.8h-15.29v27.52h15.29C650.46,702.03,656.16,696.24,656.16,688.31z"/>
	<path d="M670.54,667.89h4.13v60.33h-4.13V667.89z"/>
	<path d="M727.98,686.9v41.32h-4.22v-9.34c-3.47,6.2-9.84,10.25-17.77,10.25c-11.74,0-21.41-9.34-21.41-21.57
		s9.67-21.57,21.41-21.57c7.93,0,14.3,4.05,17.77,10.25v-9.34H727.98z M723.77,707.57c0-9.84-7.6-17.6-17.44-17.6
		c-9.83,0-17.52,7.77-17.52,17.6s7.69,17.6,17.52,17.6C716.16,725.17,723.77,717.4,723.77,707.57z"/>
	<path d="M775.67,702.52v25.7h-4.21v-25.7c0-7.6-4.38-12.56-12.15-12.56c-8.1,0-14.46,5.29-14.46,16.45v21.82h-4.13V686.9h4.13v7.85
		c3.14-6.12,8.43-8.76,14.79-8.76C769.47,685.99,775.67,692.52,775.67,702.52z"/>
	<path d="M826.33,707.73c0,0.66-0.08,1.32-0.08,1.98h-37.44c0.99,9.34,8.1,15.45,17.52,15.45c6.78,0,11.9-3.14,14.3-7.52l3.64,2.15
		c-3.39,5.62-9.84,9.34-18.02,9.34c-12.73,0-21.74-9.09-21.74-21.57c0-12.15,8.76-21.57,21.41-21.57
		C818.48,685.99,826.33,696.41,826.33,707.73z M788.81,705.66h33.22c-0.91-10.08-8.02-15.7-16.12-15.7
		C796.49,689.96,789.63,696.49,788.81,705.66z"/>
	<path d="M843.6,690.95v26.86c0,7.27,3.88,7.44,12.31,6.69v3.72c-10.83,1.65-16.53-0.99-16.53-10.41v-26.86h-9.09v-4.05h9.09v-10.33
		l4.22-1.24v11.57h12.31v4.05H843.6z"/>
</g>
</svg>
