<?xml version="1.0" encoding="utf-8"?>
<!-- Generator: Adobe Illustrator 23.0.6, SVG Export Plug-In . SVG Version: 6.00 Build 0)  -->
<svg version="1.1" id="Calque_1" xmlns="http://www.w3.org/2000/svg" xmlns:xlink="http://www.w3.org/1999/xlink" x="0px" y="0px"
	 viewBox="0 0 1000 1000" style="enable-background:new 0 0 1000 1000;" xml:space="preserve">
<style type="text/css">
	.st0{fill:#0096A2;}
	.st1{fill:#00A1AC;}
	.st2{fill:#89E5D3;}
</style>
<g>
	<g>
		<path class="st0" d="M767.95,584.17c-13.47,17.57-43.6,30.65-110.47,32.62c-83.81,2.47-154.5-34.43-212.93-64.96
			c0.26,0.07,0.49,0.11,0.75,0.18c-128.17-62.45-221.62-56.25-223.56-5.09c-0.93,24.53,1.58,39.01,11.95,63.67
			c41.01,97.5,142.16,163.36,257.28,167.64c121.26,4.51,227.35-67.11,269.46-170.92c3.77-9.3,6.51-16.06,8.48-20.93
			C772.82,576.78,770.28,581.13,767.95,584.17z"/>
		<path class="st0" d="M372.8,469.02c146.92,26.74,224.17-1.97,252.56-9.67c-0.37,0.09-0.73,0.18-1.14,0.27
			c-20.29,4.73-92.55,17.64-145.51-0.11c-5.45-1.83-10.72-3.95-15.68-6.47c-46.57-23.64-94.1-63.8-158.06-82.28
			c-49.58-14.32-76.02,12.53-71.38,31.88C239.25,426.32,277.69,451.71,372.8,469.02z"/>
		<path class="st1" d="M625.35,459.35c1.65-0.4,2.91-0.73,3.62-0.95C627.91,458.65,626.61,459.01,625.35,459.35z"/>
		<path class="st0" d="M399.17,350.58c31.03,2.87,65.88,2.38,94.58,1.01c0.1,0,0.2-0.01,0.31-0.01c3.08-0.14,6.29-0.32,9.5-0.49
			c2.74-0.16,5.42-0.32,8-0.48c0.72-0.05,1.45-0.09,2.17-0.14c3.68-0.24,7.16-0.49,10.43-0.74c2.23-0.17,4.46-0.34,6.72-0.52
			c1.75-0.14,3.39-0.28,4.96-0.42c3.25-0.28,6.12-0.54,8.52-0.77c2-0.19,3.56-0.35,4.89-0.48c2.31-0.24,3.68-0.39,3.68-0.39
			c-27.92,2.8-51.46,1.94-80.16-5.22c-9.06-2.26-18.61-5.12-29.01-8.73c-35.46-12.32-61.56-43-100.82-49.16
			c-39.26-6.17-48.23,20.15-37.5,35.96C316.17,335.8,331.52,344.32,399.17,350.58z"/>
	</g>
	<g>
		<path class="st2" d="M472.77,329.99c28.7,7.16,52.25,8.02,80.16,5.22c0,0-1.37,0.15-3.68,0.39
			c54.95-5.41,111.64-15.05,127.81-26.81c21.82-15.86,12.78-37.47-18.31-39.39c-31.09-1.92-78.99,18.83-109.39,35.48
			C532.36,314.19,506.16,324.29,472.77,329.99z"/>
		<path class="st2" d="M592.73,228.88c-17.84-20.24-74.74,7.3-114.16,13.78c-26.43,4.35-50.46-4.69-70.58-11.38
			c-24.93-8.29-33.75,23.29-0.87,22.05c27.25-1.02,61.82,2.45,95.61,6.57C562.21,267.15,610.57,249.12,592.73,228.88z"/>
		<path class="st2" d="M478.7,447.59c52.96,17.75,125.22,4.84,145.51,0.11c8.55-2.26,17.01-4.76,25.29-7.6
			c93.26-32.02,120.18-65.3,95.54-86.85c-30.82-26.95-101.7,29.95-157.18,59.9C553.82,431.53,516.58,442.35,478.7,447.59z"/>
		<path class="st2" d="M645.4,479.66c-108.37,18.95-106.36,84.84-200.1,60.42c-0.26-0.07-0.49-0.11-0.75-0.18
			c58.42,30.53,129.11,67.43,212.93,64.96c78.44-2.31,106.32-19.9,116.07-42.1c2.87-6.54,4.24-13.45,4.77-20.52
			C781.01,506.63,733.88,464.19,645.4,479.66z"/>
	</g>
</g>
</svg>
