<?xml version="1.0" encoding="utf-8"?>
<!-- Generator: Adobe Illustrator 25.0.1, SVG Export Plug-In . SVG Version: 6.00 Build 0)  -->
<svg version="1.1" id="a21a2426-dbe6-4073-aefc-aa26d5d90da8"
	 xmlns="http://www.w3.org/2000/svg" xmlns:xlink="http://www.w3.org/1999/xlink" x="0px" y="0px" viewBox="0 0 415.5 75.1"
	 style="enable-background:new 0 0 415.5 75.1;" xml:space="preserve">
<style type="text/css">
	.st0{fill:#EFEFEF;}
	.st1{fill:#FFFFFF;}
	.st2{fill:#ACCA53;}
	.st3{fill:#0D4B76;}
	.st4{fill:#FBFCF6;}
</style>
<g>
	<polygon class="st0" points="25,29.6 33.3,34.4 33.3,44.1 25,48.9 16.6,44.1 16.6,34.4 	"/>
	<path class="st1" d="M25,22.2l-14.8,8.5v17.1L25,56.3l14.8-8.5V30.7L25,22.2z M34.8,44.9L25,50.6l-9.8-5.7V33.6l9.8-5.7l9.8,5.7
		V44.9z"/>
	<polygon class="st2" points="13.3,59.7 1.1,59.7 1.1,18.8 13.3,18.8 13.3,21.1 3.3,21.1 3.3,57.5 13.3,57.5 	"/>
	<polygon class="st2" points="48.9,59.7 36.6,59.7 36.6,57.5 46.6,57.5 46.6,21.1 36.6,21.1 36.6,18.8 48.9,18.8 	"/>
</g>
<path class="st1" d="M274.3,51.9v-14c0-0.2,0-0.3-0.1-0.5l-1.5-2.5l1.5-2.5c0.1-0.1,0.1-0.3,0.1-0.5V18c0-1,0.8-1.8,1.8-1.8h7.4
	v-1.8h-7.4c-2,0-3.6,1.6-3.6,3.6c0,0,0,0,0,0v13.7l-1.6,2.7c-0.2,0.3-0.2,0.6,0,0.9l1.6,2.7v13.8c0,2,1.6,3.6,3.6,3.6h7.4v-1.8h-7.4
	C275.1,53.7,274.3,52.9,274.3,51.9z"/>
<path class="st1" d="M316.8,31.7V18c0-2-1.6-3.6-3.6-3.6h-7.4v1.8h7.4c1,0,1.8,0.8,1.8,1.8v14c0,0.2,0,0.3,0.1,0.5l1.5,2.5l-1.5,2.5
	c-0.1,0.1-0.1,0.3-0.1,0.5v14c0,1-0.8,1.8-1.8,1.8h-7.4v1.8h7.4c2,0,3.6-1.6,3.6-3.6V38.1l1.6-2.7c0.2-0.3,0.2-0.6,0-0.9L316.8,31.7
	z"/>
<path class="st2" d="M308.1,41.8c1.5-0.2,2.5-1.6,2.2-3.1s-1.6-2.5-3.1-2.2c-1.2,0.2-2.1,1.2-2.2,2.4c-0.1,0.8,0.2,1.6,0.8,2.2
	c-1.7,4.1-5.5,6.9-9.9,7.4V37.1c3-0.4,5.7-2.1,7.4-4.7c1.5,0,2.7-1.2,2.6-2.7s-1.2-2.7-2.7-2.6c-1.3,0-2.4,1-2.6,2.3
	c-0.1,0.7,0.1,1.5,0.5,2c-1.2,1.8-3.1,3-5.2,3.3V23.6c1.3-0.7,1.9-2.3,1.2-3.6c-0.7-1.3-2.3-1.9-3.6-1.2s-1.9,2.3-1.2,3.6
	c0.3,0.5,0.7,1,1.2,1.2v11.1c-2.1-0.3-4-1.5-5.2-3.3c0.5-0.6,0.7-1.3,0.5-2c-0.2-1.5-1.6-2.5-3.1-2.2c-1.5,0.2-2.5,1.6-2.2,3.1
	c0.2,1.3,1.3,2.3,2.6,2.3c1.6,2.6,4.3,4.3,7.4,4.7v11.4c-4.4-0.4-8.2-3.3-9.9-7.4c1.1-1,1.1-2.7,0.1-3.8c-1-1.1-2.7-1.1-3.8-0.1
	c-1.1,1-1.1,2.7-0.1,3.8c0.4,0.4,0.9,0.7,1.5,0.8c2,5.1,6.8,8.6,12.2,9.1v11.6h2.4V50.8C301.4,50.4,306.1,46.9,308.1,41.8z"/>
<path class="st2" d="M336,24.5c2.4,0,4.5-1.6,5.1-4v-1.9h-5.6v1.6h3.5c-0.2,1.4-1.5,2.5-2.9,2.4c-1.7,0.1-3.2-1.3-3.2-3
	c0-0.1,0-0.3,0-0.4c-0.2-1.7,1.1-3.2,2.8-3.4c0.1,0,0.3,0,0.4,0c1-0.1,1.9,0.5,2.4,1.3h2.4c-0.7-2.1-2.7-3.4-4.8-3.3
	c-2.8-0.1-5.2,2.1-5.3,5c0,0.1,0,0.2,0,0.3c-0.1,2.8,2.2,5.2,5,5.3C335.8,24.5,335.9,24.5,336,24.5z"/>
<path class="st2" d="M344.7,20.3c0-1.6,0.7-2.1,2-2.1h0.5v-2.2c-1,0-2,0.5-2.5,1.4v-1.3h-2.1v8.2h2.1V20.3z"/>
<path class="st2" d="M352.2,24.6c1.7,0.1,3.3-1,3.8-2.7h-2.2c-0.3,0.6-0.9,1-1.6,1c-1.1,0-2-0.8-2-1.8c0,0,0,0,0-0.1h6
	c0-0.3,0.1-0.5,0.1-0.8c0.1-2.1-1.5-4-3.6-4.1c-0.1,0-0.3,0-0.4,0c-2.2-0.1-4.1,1.7-4.1,3.9c0,0.1,0,0.2,0,0.4
	c-0.1,2.2,1.5,4.1,3.7,4.2C351.9,24.6,352,24.6,352.2,24.6z M352.1,17.8c1-0.1,1.9,0.6,2,1.7c0,0,0,0.1,0,0.1h-3.9
	C350.3,18.6,351.1,17.8,352.1,17.8z"/>
<path class="st2" d="M361.4,24.6c1.8,0.1,3.3-1,3.8-2.7H363c-0.3,0.6-0.9,1-1.6,1c-1.1,0-2-0.8-2-1.8c0,0,0,0,0-0.1h6
	c0-0.3,0.1-0.5,0.1-0.8c0.1-2.1-1.5-3.9-3.6-4.1c-0.1,0-0.2,0-0.4,0c-2.2-0.1-4.1,1.7-4.1,3.9c0,0.1,0,0.2,0,0.4
	c-0.1,2.2,1.5,4.1,3.7,4.2C361.1,24.6,361.2,24.6,361.4,24.6z M361.3,17.8c1-0.1,1.9,0.6,2,1.7c0,0,0,0.1,0,0.1h-3.9
	C359.5,18.6,360.3,17.8,361.3,17.8z"/>
<path class="st2" d="M369,19.9c-0.1-1,0.6-1.9,1.5-2c0.1,0,0.2,0,0.3,0c1.1,0,1.8,0.7,1.8,2v4.5h2.1v-4.8c0-2.3-1.4-3.5-3.3-3.5
	c-1,0-1.9,0.4-2.5,1.1v-1h-2.1v8.2h2.1V19.9z"/>
<path class="st2" d="M333.1,35.8c0-0.8,0.6-1.2,1.4-1.2c0.7,0,1.4,0.5,1.4,1.2h2.3c-0.1-1.9-1.6-3-3.7-3s-3.6,1.1-3.6,3
	c0,3.8,5.3,2.4,5.3,4.6c0,0.7-0.6,1.3-1.6,1.3c-0.8,0.1-1.5-0.5-1.6-1.3c0,0,0-0.1,0-0.1H331c0,2,1.7,3.1,3.8,3.1
	c2.4,0,3.7-1.5,3.7-3.1C338.5,36.8,333.1,37.9,333.1,35.8z"/>
<path class="st2" d="M344,35.1c-2.2-0.1-4.1,1.7-4.2,3.9c0,0.1,0,0.2,0,0.3c-0.1,2.2,1.5,4.1,3.7,4.2c0.1,0,0.3,0,0.4,0
	c2.3,0.1,4.2-1.7,4.3-3.9c0-0.1,0-0.2,0-0.3c0.1-2.2-1.6-4.1-3.9-4.2C344.3,35.1,344.1,35.1,344,35.1z M343.9,41.7
	c-1.1,0-2.1-0.8-2.1-2.4c-0.2-1.2,0.6-2.2,1.8-2.4c0.1,0,0.2,0,0.3,0c1.2,0.1,2.1,1.1,2,2.3c0,0.1,0,0.1,0,0.2
	c0.1,1.2-0.7,2.3-1.9,2.4C344,41.7,344,41.7,343.9,41.7L343.9,41.7z"/>
<path class="st2" d="M352,43.4v-6.5h1.4v-1.7H352v-0.3c0-0.9,0.3-1.2,1.4-1.2v-1.8c-2.3-0.1-3.5,0.9-3.5,2.9v0.4H349v1.7h0.9v6.5
	H352z"/>
<path class="st2" d="M359.1,41.7h-1c-0.6,0-0.9-0.2-0.9-0.8v-4h1.8v-1.7h-1.8v-2h-2.1v2h-1v1.7h1v4c0,1.9,1,2.5,2.6,2.5h1.3
	L359.1,41.7L359.1,41.7z"/>
<polygon class="st2" points="372,35.2 370,35.2 368.5,41.5 367,35.2 364.8,35.2 363.2,41.5 361.8,35.2 359.7,35.2 362.1,43.4 
	364.3,43.4 365.8,37.7 367.3,43.4 369.6,43.4 "/>
<path class="st2" d="M379,42.2v1.2h2.1v-8.2H379v1.2c-0.6-0.9-1.6-1.3-2.7-1.3c-2.1,0-3.8,1.7-3.8,4.2s1.7,4.3,3.7,4.3
	C377.4,43.6,378.4,43.1,379,42.2z M376.9,41.7c-1.2,0-2.2-1.1-2.2-2.3c0,0,0-0.1,0-0.1c-0.1-1.2,0.8-2.3,2-2.4c0.1,0,0.1,0,0.2,0
	c1.2,0,2.2,1,2.2,2.2c0,0.1,0,0.1,0,0.2c0.1,1.2-0.8,2.3-2,2.4C377,41.7,376.9,41.7,376.9,41.7z"/>
<path class="st2" d="M387.8,35.1c-1,0-2,0.5-2.5,1.4v-1.3h-2.1v8.2h2.1v-4.1c0-1.6,0.7-2.1,2-2.1h0.5L387.8,35.1z"/>
<path class="st2" d="M392.8,35.1c-2.2-0.1-4.1,1.7-4.1,3.9c0,0.1,0,0.2,0,0.4c-0.1,2.2,1.5,4.1,3.8,4.2c0.1,0,0.2,0,0.4,0
	c1.8,0.1,3.3-1,3.8-2.7h-2.2c-0.3,0.6-0.9,1-1.6,1c-1.1,0-2-0.8-2-1.8c0,0,0,0,0-0.1h6c0-0.3,0.1-0.5,0.1-0.8
	c0.1-2.1-1.5-3.9-3.6-4.1C393,35.1,392.9,35.1,392.8,35.1z M390.8,38.5c0.1-1,0.9-1.8,1.9-1.8c1-0.1,1.9,0.6,2,1.7c0,0,0,0.1,0,0.1
	H390.8z"/>
<polygon class="st2" points="331.2,62.4 333.3,62.4 333.3,58 336.6,58 336.6,56.4 333.3,56.4 333.3,53.7 337.6,53.7 337.6,52.1 
	331.2,52.1 "/>
<path class="st2" d="M342.8,54.1c-2.2-0.1-4.1,1.7-4.2,3.9c0,0.1,0,0.2,0,0.3c-0.1,2.2,1.5,4.1,3.7,4.2c0.1,0,0.3,0,0.4,0
	c2.3,0.1,4.2-1.7,4.3-3.9c0-0.1,0-0.2,0-0.3c0.1-2.2-1.6-4.1-3.9-4.2C343,54.1,342.9,54.1,342.8,54.1z M342.7,60.7
	c-1.1,0-2.1-0.8-2.1-2.4c-0.2-1.2,0.6-2.2,1.8-2.4c0.1,0,0.2,0,0.3,0c1.2,0,2.1,1,2.1,2.2c0,0.1,0,0.2,0,0.2
	c0.1,1.2-0.7,2.3-1.9,2.4C342.9,60.7,342.8,60.7,342.7,60.7z"/>
<path class="st2" d="M354.2,58.7c0,1.3-0.7,2-1.8,2s-1.8-0.7-1.8-2v-4.5h-2.1V59c-0.2,1.7,1.1,3.3,2.8,3.5c0.2,0,0.3,0,0.5,0
	c1,0,1.9-0.4,2.5-1.1v1h2.1v-8.2h-2.1L354.2,58.7L354.2,58.7z"/>
<path class="st2" d="M362.9,54.1c-1,0-1.9,0.4-2.5,1.1v-1h-2.1v8.2h2.1v-4.6c-0.1-1,0.6-1.9,1.5-2c0.1,0,0.2,0,0.3,0
	c1.1,0,1.8,0.7,1.8,2v4.5h2.1v-4.8C366.2,55.3,364.8,54.1,362.9,54.1z"/>
<path class="st2" d="M374.1,55.3c-0.6-0.8-1.6-1.3-2.7-1.3c-2.1,0-3.8,1.7-3.8,4.2s1.7,4.3,3.8,4.3c1.1,0,2.1-0.5,2.7-1.3v1.2h2.1
	v-11h-2.1L374.1,55.3L374.1,55.3z M371.9,60.7c-1.2,0-2.2-1.1-2.2-2.3c0,0,0-0.1,0-0.1c-0.1-1.2,0.8-2.3,2-2.4c0.1,0,0.1,0,0.2,0
	c1.3,0.1,2.3,1.3,2.2,2.6C374,59.7,373.1,60.6,371.9,60.7z"/>
<path class="st2" d="M384.1,55.4c-0.6-0.9-1.6-1.3-2.7-1.3c-2.1,0-3.8,1.7-3.8,4.2s1.7,4.3,3.7,4.3c1.1,0,2.1-0.5,2.7-1.3v1.2h2.1
	v-8.2h-2.1L384.1,55.4L384.1,55.4z M382,60.7c-1.2,0-2.2-1.1-2.2-2.3c0,0,0-0.1,0-0.1c-0.1-1.2,0.8-2.3,2-2.4c0.1,0,0.1,0,0.2,0
	c1.3,0.1,2.3,1.3,2.2,2.6C384.1,59.7,383.2,60.6,382,60.7z"/>
<path class="st2" d="M390.7,52.2h-2.1v2h-1v1.7h1v4c0,1.9,1,2.5,2.6,2.5h1.3v-1.8h-1c-0.6,0-0.9-0.2-0.9-0.8v-4h1.8v-1.7h-1.8
	L390.7,52.2L390.7,52.2z"/>
<path class="st2" d="M395.1,50.8c-0.7,0-1.2,0.6-1.2,1.3c0,0.7,0.6,1.2,1.3,1.2c0.6,0,1.2-0.6,1.2-1.2
	C396.4,51.3,395.8,50.8,395.1,50.8C395.1,50.8,395.1,50.8,395.1,50.8z"/>
<rect x="394" y="54.2" class="st2" width="2.1" height="8.2"/>
<path class="st2" d="M401.9,54.1c-2.2-0.1-4.1,1.7-4.2,3.9c0,0.1,0,0.2,0,0.3c-0.1,2.2,1.5,4.1,3.7,4.2c0.1,0,0.3,0,0.4,0
	c2.3,0.1,4.2-1.7,4.3-3.9c0-0.1,0-0.2,0-0.3c0.1-2.2-1.6-4.1-3.9-4.2C402.1,54.1,402,54.1,401.9,54.1z M401.8,60.7
	c-1.1,0-2.1-0.8-2.1-2.4c-0.2-1.2,0.6-2.2,1.8-2.4c0.1,0,0.2,0,0.3,0c1.2,0,2.2,1,2.2,2.1c0,0.1,0,0.2,0,0.3
	c0.1,1.2-0.7,2.3-1.9,2.4C402,60.7,401.9,60.7,401.8,60.7z"/>
<path class="st2" d="M412.2,54.1c-1,0-1.9,0.4-2.5,1.1v-1h-2.1v8.2h2.1v-4.6c-0.1-1,0.6-1.9,1.5-2c0.1,0,0.2,0,0.3,0
	c1.1,0,1.8,0.7,1.8,2v4.5h2.1v-4.8C415.5,55.3,414.1,54.1,412.2,54.1z"/>
<path class="st1" d="M238.6,48.4h-16.5c-6,0-10.8-4.9-10.9-10.9l0,0c0-6,4.9-10.8,10.9-10.8h16.5c6,0,10.8,4.9,10.9,10.8l0,0
	C249.5,43.5,244.6,48.4,238.6,48.4z"/>
<g>
	<path class="st3" d="M223.8,42.3h-1.2V31.4h1.3v3.9c0.5-0.7,1.3-1.1,2.2-1.1c0.5,0,0.9,0.1,1.4,0.3c0.4,0.2,0.8,0.5,1.1,0.8
		c0.3,0.4,0.5,0.8,0.7,1.3c0.2,0.5,0.2,1.1,0.2,1.6c0.1,1.1-0.3,2.3-1,3.1c-0.6,0.7-1.5,1.1-2.5,1.1c-0.9,0-1.7-0.4-2.2-1.2
		L223.8,42.3z M223.8,38.3c-0.1,0.7,0.1,1.4,0.4,2.1c0.5,0.9,1.7,1.3,2.6,0.8c0.2-0.1,0.5-0.3,0.6-0.5c0.5-0.7,0.7-1.5,0.6-2.3
		c0.1-0.8-0.1-1.6-0.6-2.3c-0.4-0.5-0.9-0.7-1.5-0.7c-0.6,0-1.2,0.3-1.5,0.8C224,36.8,223.8,37.5,223.8,38.3L223.8,38.3z"/>
	<path class="st3" d="M231,45.4l-0.1-1.3c0.3,0.1,0.5,0.1,0.8,0.1c0.2,0,0.5,0,0.7-0.2c0.2-0.1,0.3-0.2,0.4-0.4
		c0.2-0.3,0.3-0.7,0.4-1c0-0.1,0.1-0.2,0.1-0.3l-3-7.9h1.4l1.7,4.6c0.2,0.6,0.4,1.2,0.6,1.8c0.2-0.6,0.3-1.2,0.6-1.8l1.7-4.6h1.3
		l-3,8c-0.2,0.6-0.5,1.2-0.8,1.8c-0.2,0.4-0.5,0.7-0.8,1c-0.3,0.2-0.7,0.3-1.1,0.3C231.6,45.5,231.3,45.5,231,45.4z"/>
</g>
<g>
	<g>
		<path class="st4" d="M56.6,37.7v-11h4.6c1.9,0,3.4,0.5,4.4,1.4c1.1,1,1.6,2.3,1.6,4.1c0,1.7-0.5,3.1-1.6,4.1
			c-1.1,1-2.5,1.4-4.4,1.4H56.6z M59.4,35.4h1.5c1.1,0,1.9-0.3,2.4-0.8c0.5-0.5,0.8-1.3,0.8-2.4c0-1.1-0.3-1.9-0.8-2.4
			C62.8,29.3,62,29,60.9,29h-1.5V35.4z"/>
		<path class="st4" d="M71.6,37.7v-11h7.8v2.2h-5V31H79v2.2h-4.7v2.3h5v2.2H71.6z"/>
		<path class="st4" d="M89.5,37.9c-1.2,0-2.3-0.2-3.1-0.7c-0.9-0.5-1.5-1.1-2-2c-0.5-0.9-0.7-1.9-0.7-3c0-1.1,0.2-2.1,0.7-3
			c0.5-0.9,1.1-1.5,2-2c0.9-0.5,1.9-0.7,3.1-0.7c0.7,0,1.4,0.1,2.1,0.3c0.7,0.2,1.2,0.5,1.6,0.9L92.4,30c-0.5-0.3-0.9-0.6-1.4-0.7
			c-0.5-0.2-0.9-0.2-1.4-0.2c-1,0-1.7,0.3-2.2,0.8c-0.5,0.5-0.7,1.3-0.7,2.3c0,1,0.2,1.8,0.7,2.4c0.5,0.5,1.2,0.8,2.2,0.8
			c0.5,0,0.9-0.1,1.4-0.2c0.5-0.2,0.9-0.4,1.4-0.7l0.9,2.3c-0.4,0.4-1,0.7-1.6,0.9C90.9,37.8,90.2,37.9,89.5,37.9z"/>
		<path class="st4" d="M95.8,37.7l5.1-11h2.3l5.1,11h-2.9l-1-2.2h-4.9l-1,2.2H95.8z M102.1,29.7l-1.5,3.6h3L102.1,29.7L102.1,29.7z"
			/>
		<path class="st4" d="M111.8,37.7v-11h5.3c1.2,0,2.2,0.3,2.9,0.9c0.7,0.6,1,1.4,1,2.5c0,0.8-0.2,1.5-0.6,2.1
			c-0.4,0.6-1,0.9-1.8,1.2c0.6,0.2,1.1,0.6,1.4,1.2l1.7,3.1h-3.2l-1.9-3.5c-0.1-0.2-0.3-0.4-0.5-0.5c-0.2-0.1-0.4-0.1-0.7-0.1h-0.9
			v4.1H111.8z M114.7,31.6h1.9c1.1,0,1.7-0.4,1.7-1.3c0-0.9-0.6-1.3-1.7-1.3h-1.9V31.6z"/>
		<path class="st4" d="M125.6,37.7v-11h5.3c1.2,0,2.1,0.3,2.7,0.8c0.7,0.5,1,1.2,1,2.1c0,0.6-0.1,1.1-0.4,1.5
			c-0.3,0.4-0.7,0.7-1.2,1c0.6,0.2,1.1,0.5,1.4,1c0.3,0.4,0.5,1,0.5,1.6c0,1-0.3,1.7-1,2.3c-0.7,0.6-1.6,0.8-2.8,0.8H125.6z
			 M128.3,31.1h2c0.5,0,0.9-0.1,1.1-0.3c0.2-0.2,0.4-0.5,0.4-0.9c0-0.4-0.1-0.7-0.4-0.8c-0.2-0.2-0.6-0.3-1.1-0.3h-2V31.1z
			 M128.3,35.6h2.3c0.5,0,0.9-0.1,1.2-0.3c0.2-0.2,0.4-0.5,0.4-0.9c0-0.4-0.1-0.7-0.4-0.9c-0.2-0.2-0.6-0.3-1.2-0.3h-2.3V35.6z"/>
		<path class="st4" d="M144.5,37.9c-1.1,0-2.1-0.2-2.9-0.7c-0.8-0.5-1.5-1.1-2-2c-0.5-0.9-0.7-1.8-0.7-3c0-1.1,0.2-2.1,0.7-3
			c0.5-0.9,1.1-1.5,2-2c0.8-0.5,1.8-0.7,2.9-0.7s2.1,0.2,2.9,0.7c0.8,0.5,1.5,1.1,2,2c0.5,0.8,0.7,1.8,0.7,3c0,1.1-0.2,2.1-0.7,3
			c-0.5,0.9-1.1,1.5-2,2C146.6,37.6,145.7,37.9,144.5,37.9z M144.5,35.5c0.8,0,1.4-0.3,1.9-0.9c0.5-0.6,0.7-1.4,0.7-2.4
			c0-1-0.2-1.8-0.7-2.4c-0.5-0.6-1.1-0.9-1.9-0.9c-0.8,0-1.5,0.3-1.9,0.9c-0.5,0.6-0.7,1.4-0.7,2.4c0,1,0.2,1.8,0.7,2.4
			C143.1,35.2,143.7,35.5,144.5,35.5z"/>
		<path class="st4" d="M154.6,37.7v-11h2.1l5.1,6.3v-6.3h2.7v11h-2.1l-5.1-6.3v6.3H154.6z"/>
		<path class="st4" d="M169.1,37.7v-11h2.9v11H169.1z"/>
		<path class="st4" d="M176.4,37.7v-2.1l5.2-6.5h-5.2v-2.4h8.5v2.1l-5.2,6.5h5.4v2.4H176.4z"/>
		<path class="st4" d="M189.2,37.7v-11h7.8v2.2h-5V31h4.7v2.2h-4.7v2.3h5v2.2H189.2z"/>
	</g>
	<g>
		<path class="st4" d="M61,52c-0.9,0-1.7-0.1-2.5-0.3c-0.8-0.2-1.4-0.5-2-0.9l0.8-2.2c0.5,0.3,1,0.6,1.7,0.8c0.6,0.2,1.3,0.3,2,0.3
			c0.7,0,1.2-0.1,1.4-0.3c0.3-0.2,0.4-0.4,0.4-0.7c0-0.2-0.1-0.4-0.3-0.6c-0.2-0.1-0.5-0.3-1-0.4l-1.8-0.4c-2-0.4-3-1.5-3-3.1
			c0-0.7,0.2-1.3,0.6-1.9c0.4-0.5,0.9-1,1.6-1.2c0.7-0.3,1.5-0.5,2.4-0.5c0.8,0,1.5,0.1,2.2,0.3c0.7,0.2,1.2,0.5,1.7,0.9l-0.8,2.1
			c-0.4-0.3-0.9-0.5-1.4-0.7C62.5,43.1,62,43,61.4,43c-0.6,0-1,0.1-1.3,0.3c-0.3,0.2-0.5,0.5-0.5,0.8c0,0.2,0.1,0.4,0.3,0.6
			s0.5,0.3,1,0.4l1.8,0.4c2,0.4,3,1.4,3,3c0,0.7-0.2,1.3-0.6,1.9c-0.4,0.5-0.9,0.9-1.6,1.2C62.8,51.8,61.9,52,61,52z"/>
		<path class="st4" d="M75.1,52c-1.1,0-2.1-0.2-2.9-0.7c-0.8-0.5-1.5-1.1-2-2c-0.5-0.9-0.7-1.8-0.7-3c0-1.1,0.2-2.1,0.7-3
			c0.5-0.9,1.1-1.5,2-2c0.8-0.5,1.8-0.7,2.9-0.7s2.1,0.2,2.9,0.7c0.8,0.5,1.5,1.1,2,2c0.5,0.8,0.7,1.8,0.7,3c0,1.1-0.2,2.1-0.7,3
			c-0.5,0.9-1.1,1.5-2,2C77.2,51.7,76.2,52,75.1,52z M75.1,49.6c0.8,0,1.4-0.3,1.9-0.9c0.5-0.6,0.7-1.4,0.7-2.4c0-1-0.2-1.8-0.7-2.4
			c-0.5-0.6-1.1-0.9-1.9-0.9c-0.8,0-1.5,0.3-1.9,0.9c-0.5,0.6-0.7,1.4-0.7,2.4c0,1,0.2,1.8,0.7,2.4C73.7,49.3,74.3,49.6,75.1,49.6z"
			/>
		<path class="st4" d="M85.1,51.8v-11h7.7V43H88v2.2h4.5v2.2H88v4.4H85.1z"/>
		<path class="st4" d="M99.7,51.8v-8.7h-3.5v-2.3h9.9v2.3h-3.5v8.7H99.7z"/>
		<path class="st4" d="M113.3,51.8l-3.9-11h2.9l2.3,6.9l2.5-6.9h2l2.4,7l2.4-7h2.8l-4,11h-2.3l-2.4-6.6l-2.4,6.6H113.3z"/>
		<path class="st4" d="M128.1,51.8l5.1-11h2.3l5.1,11h-2.9l-1-2.2H132l-1,2.2H128.1z M134.4,43.8l-1.5,3.6h3L134.4,43.8L134.4,43.8z
			"/>
		<path class="st4" d="M144.1,51.8v-11h5.3c1.2,0,2.2,0.3,2.9,0.9c0.7,0.6,1,1.4,1,2.5c0,0.8-0.2,1.5-0.6,2.1
			c-0.4,0.6-1,0.9-1.8,1.2c0.6,0.2,1.1,0.6,1.4,1.2l1.7,3.1h-3.2l-1.9-3.5c-0.1-0.2-0.3-0.4-0.5-0.5c-0.2-0.1-0.4-0.1-0.7-0.1H147
			v4.1H144.1z M147,45.7h1.9c1.1,0,1.7-0.4,1.7-1.3c0-0.9-0.6-1.3-1.7-1.3H147V45.7z"/>
		<path class="st4" d="M157.9,51.8v-11h7.8V43h-5v2.1h4.7v2.2h-4.7v2.3h5v2.2H157.9z"/>
	</g>
</g>
</svg>
