<svg width="411" height="103" viewBox="0 0 411 103" fill="none" xmlns="http://www.w3.org/2000/svg">
<g clip-path="url(#clip0_811_507)">
<path d="M245.251 4.38892H172.892V9.90453H245.251V4.38892Z" fill="#ADCB53" stroke="#ADCB53" stroke-width="0.3666" stroke-miterlimit="10"/>
<path d="M195.189 56.4712V42.6264C195.189 32.4132 203.494 34.0617 213.645 34.0617C215.12 34.0617 216.607 34.0617 218.082 34.0617C219.694 34.0617 221.317 34.0493 222.929 34.0617C225.098 34.0741 227.341 33.6775 227.564 30.9631V21.7415" stroke="#706F6F" stroke-width="0.5562" stroke-linecap="round" stroke-linejoin="round"/>
<path d="M195.97 56.4337C195.97 56.8675 195.623 57.2146 195.19 57.2146C194.756 57.2146 194.409 56.8675 194.409 56.4337C194.409 55.9999 194.756 55.6528 195.19 55.6528C195.623 55.6652 195.97 56.0123 195.97 56.4337Z" fill="#706F6F"/>
<path d="M228.357 21.766C228.357 21.3322 228.01 20.9851 227.576 20.9851C227.142 20.9851 226.795 21.3322 226.795 21.766C226.795 22.1998 227.142 22.5468 227.576 22.5468C228.01 22.5468 228.357 22.1998 228.357 21.766Z" fill="#706F6F"/>
<path d="M197.234 56.4713V42.6265C197.234 32.4133 205.538 34.0618 215.702 34.0618H223.51" stroke="#706F6F" stroke-width="0.5562" stroke-linecap="round" stroke-linejoin="round"/>
<path d="M198.015 56.4339C198.015 56.8678 197.668 57.2148 197.234 57.2148C196.801 57.2148 196.454 56.8678 196.454 56.4339C196.454 56.0001 196.801 55.6531 197.234 55.6531C197.668 55.6655 198.015 56.0125 198.015 56.4339Z" fill="#706F6F"/>
<path d="M223.474 34.83C223.905 34.83 224.255 34.4804 224.255 34.0492C224.255 33.6179 223.905 33.2683 223.474 33.2683C223.042 33.2683 222.693 33.6179 222.693 34.0492C222.693 34.4804 223.042 34.83 223.474 34.83Z" fill="#706F6F"/>
<path d="M193.144 56.4713V42.6265C193.144 32.4133 201.448 34.0618 211.612 34.0618H223.511" stroke="#706F6F" stroke-width="0.5562" stroke-linecap="round" stroke-linejoin="round"/>
<path d="M193.925 56.4339C193.925 56.8678 193.578 57.2148 193.144 57.2148C192.71 57.2148 192.363 56.8678 192.363 56.4339C192.363 56.0001 192.71 55.6531 193.144 55.6531C193.578 55.6655 193.925 56.0125 193.925 56.4339Z" fill="#706F6F"/>
<path d="M223.474 34.83C223.905 34.83 224.255 34.4804 224.255 34.0492C224.255 33.6179 223.905 33.2683 223.474 33.2683C223.043 33.2683 222.693 33.6179 222.693 34.0492C222.693 34.4804 223.043 34.83 223.474 34.83Z" fill="#706F6F"/>
<path d="M195.189 85.4621V71.6049C195.189 61.3917 203.494 63.0402 213.645 63.0402C215.12 63.0402 216.607 63.0402 218.082 63.0402C219.694 63.0402 221.317 63.0278 222.929 63.0402C224.887 63.0526 226.907 62.7303 227.453 60.6604" stroke="#706F6F" stroke-width="0.5562" stroke-linecap="round" stroke-linejoin="round"/>
<path d="M195.97 85.4249C195.97 85.8587 195.623 86.2058 195.19 86.2058C194.756 86.2058 194.409 85.8587 194.409 85.4249C194.409 84.9911 194.756 84.644 195.19 84.644C195.623 84.644 195.97 84.9911 195.97 85.4249Z" fill="#706F6F"/>
<path d="M228.196 60.846C228.271 60.4246 227.998 60.0155 227.577 59.9412C227.155 59.8668 226.746 60.1395 226.672 60.5609C226.598 60.9823 226.87 61.3913 227.292 61.4657C227.713 61.5401 228.122 61.2674 228.196 60.846Z" fill="#706F6F"/>
<path d="M197.234 85.4622V71.605C197.234 61.3918 205.538 63.0403 215.702 63.0403H223.51" stroke="#706F6F" stroke-width="0.5562" stroke-linecap="round" stroke-linejoin="round"/>
<path d="M198.015 85.4249C198.015 85.8587 197.668 86.2058 197.234 86.2058C196.801 86.2058 196.454 85.8587 196.454 85.4249C196.454 84.9911 196.801 84.644 197.234 84.644C197.668 84.644 198.015 84.9911 198.015 85.4249Z" fill="#706F6F"/>
<path d="M223.474 63.821C223.905 63.821 224.255 63.4714 224.255 63.0401C224.255 62.6089 223.905 62.2593 223.474 62.2593C223.042 62.2593 222.693 62.6089 222.693 63.0401C222.693 63.4714 223.042 63.821 223.474 63.821Z" fill="#706F6F"/>
<path d="M193.144 85.4622V71.605C193.144 61.3918 201.448 63.0403 211.612 63.0403H223.511" stroke="#706F6F" stroke-width="0.5562" stroke-linecap="round" stroke-linejoin="round"/>
<path d="M193.925 85.4249C193.925 85.8587 193.578 86.2058 193.144 86.2058C192.71 86.2058 192.363 85.8587 192.363 85.4249C192.363 84.9911 192.71 84.644 193.144 84.644C193.578 84.644 193.925 84.9911 193.925 85.4249Z" fill="#706F6F"/>
<path d="M223.474 63.821C223.905 63.821 224.255 63.4714 224.255 63.0401C224.255 62.6089 223.905 62.2593 223.474 62.2593C223.043 62.2593 222.693 62.6089 222.693 63.0401C222.693 63.4714 223.043 63.821 223.474 63.821Z" fill="#706F6F"/>
<path d="M245.063 10.1689H173.742V103H245.063V10.1689Z" stroke="#CCCBCB" stroke-width="0.8189" stroke-miterlimit="10"/>
<path d="M238.051 37.6684H180.205C178.532 37.6684 177.168 36.305 177.168 34.6317V21.0967C177.168 19.4235 178.532 18.0601 180.205 18.0601H238.051C239.724 18.0601 241.088 19.4235 241.088 21.0967V34.6441C241.088 36.305 239.724 37.6684 238.051 37.6684Z" fill="#C8D3DD"/>
<path d="M197.532 30.2192H183.39C182.088 30.2192 181.035 29.1657 181.035 27.8643C181.035 26.5628 182.088 25.5093 183.39 25.5093H197.532C198.833 25.5093 199.887 26.5628 199.887 27.8643C199.887 29.1657 198.833 30.2192 197.532 30.2192Z" fill="black"/>
<path d="M209.308 30.2688H205.378C204.077 30.2688 203.023 29.2153 203.023 27.9138C203.023 26.6124 204.077 25.5588 205.378 25.5588H209.308C210.609 25.5588 211.662 26.6124 211.662 27.9138C211.662 29.2153 210.609 30.2688 209.308 30.2688Z" stroke="white" stroke-width="0.3633" stroke-miterlimit="10"/>
<path d="M207.423 28.3848V15.482C207.423 7.46268 215.727 8.91285 225.891 8.91285H239.822" stroke="white" stroke-width="0.4927" stroke-linecap="round" stroke-linejoin="round"/>
<path d="M207.423 29.0418C207.806 29.0418 208.117 28.731 208.117 28.3477C208.117 27.9643 207.806 27.6536 207.423 27.6536C207.039 27.6536 206.729 27.9643 206.729 28.3477C206.729 28.731 207.039 29.0418 207.423 29.0418Z" fill="white"/>
<path d="M209.468 28.3848V15.4819C209.468 7.46262 217.773 9.37139 227.936 9.37139H239.823" stroke="white" stroke-width="0.4927" stroke-linecap="round" stroke-linejoin="round"/>
<path d="M209.468 29.0418C209.851 29.0418 210.162 28.731 210.162 28.3477C210.162 27.9643 209.851 27.6536 209.468 27.6536C209.085 27.6536 208.774 27.9643 208.774 28.3477C208.774 28.731 209.085 29.0418 209.468 29.0418Z" fill="white"/>
<path d="M205.378 28.3848V15.482C205.378 7.46268 213.682 8.91285 223.846 8.91285H239.823" stroke="white" stroke-width="0.4927" stroke-linecap="round" stroke-linejoin="round"/>
<path d="M205.378 29.0418C205.761 29.0418 206.072 28.731 206.072 28.3477C206.072 27.9643 205.761 27.6536 205.378 27.6536C204.994 27.6536 204.684 27.9643 204.684 28.3477C204.684 28.731 204.994 29.0418 205.378 29.0418Z" fill="white"/>
<path d="M238.198 24.3689H218.578V31.3471H238.198V24.3689Z" fill="black"/>
<path d="M235.286 28.4219H221.49C221.181 28.4219 220.933 28.174 220.933 27.8642C220.933 27.5543 221.181 27.3064 221.49 27.3064H235.286C235.595 27.3064 235.843 27.5543 235.843 27.8642C235.843 28.174 235.595 28.4219 235.286 28.4219Z" fill="#ADCB53"/>
<path d="M184.158 28.5335C183.985 28.5335 183.811 28.4591 183.675 28.3351C183.638 28.298 183.613 28.2732 183.588 28.236C183.563 28.1988 183.539 28.1616 183.526 28.1244C183.514 28.0873 183.501 28.0377 183.489 28.0005C183.477 27.9633 183.477 27.9137 183.477 27.8641C183.477 27.6782 183.551 27.5047 183.675 27.3808C183.712 27.356 183.737 27.3188 183.774 27.294C183.811 27.2692 183.848 27.2444 183.886 27.232C183.923 27.2196 183.972 27.2072 184.01 27.1948C184.096 27.1824 184.183 27.1824 184.27 27.1948C184.307 27.2072 184.357 27.2196 184.394 27.232C184.431 27.2444 184.468 27.2692 184.505 27.294C184.543 27.3188 184.58 27.3436 184.604 27.3808C184.728 27.5047 184.803 27.6782 184.803 27.8641C184.803 27.9013 184.803 27.9509 184.79 28.0005C184.778 28.0377 184.766 28.0873 184.753 28.1244C184.741 28.1616 184.716 28.2112 184.691 28.236C184.666 28.2732 184.642 28.3104 184.604 28.3351C184.567 28.3723 184.543 28.3971 184.505 28.4219C184.468 28.4467 184.431 28.4715 184.394 28.4839C184.357 28.4963 184.307 28.5087 184.27 28.5211C184.245 28.5335 184.195 28.5335 184.158 28.5335Z" fill="#ADCB53"/>
<path d="M192.141 27.8644C192.141 27.4925 192.438 27.1951 192.81 27.1951C193.182 27.1951 193.479 27.4925 193.479 27.8644C193.479 28.2362 193.182 28.5337 192.81 28.5337C192.451 28.5337 192.141 28.2362 192.141 27.8644ZM187.815 27.8644C187.815 27.4925 188.112 27.1951 188.484 27.1951C188.856 27.1951 189.154 27.4925 189.154 27.8644C189.154 28.2362 188.844 28.5337 188.484 28.5337C188.112 28.5337 187.815 28.2362 187.815 27.8644Z" fill="#ADCB53"/>
<path d="M197.148 28.5336C196.974 28.5336 196.801 28.4593 196.665 28.3353C196.627 28.2981 196.603 28.2734 196.578 28.2362C196.553 28.199 196.528 28.1618 196.516 28.1246C196.504 28.0874 196.491 28.0379 196.479 28.0007C196.466 27.9635 196.466 27.9139 196.466 27.8643C196.466 27.6908 196.541 27.5049 196.665 27.3809C196.826 27.2198 197.049 27.1578 197.272 27.195C197.309 27.2074 197.359 27.2198 197.396 27.2322C197.433 27.2446 197.483 27.2694 197.507 27.2942C197.545 27.319 197.582 27.3438 197.607 27.3809C197.731 27.5049 197.805 27.6784 197.805 27.8643C197.805 27.9015 197.805 27.9511 197.793 28.0007C197.78 28.0379 197.768 28.0874 197.755 28.1246C197.743 28.1618 197.718 28.2114 197.693 28.2362C197.669 28.2734 197.644 28.3105 197.607 28.3353C197.569 28.3725 197.545 28.3973 197.507 28.4221C197.47 28.4469 197.433 28.4717 197.396 28.4841C197.359 28.4965 197.309 28.5089 197.272 28.5213C197.235 28.5336 197.198 28.5336 197.148 28.5336Z" fill="#ADCB53"/>
<path d="M238.051 66.6469H180.205C178.532 66.6469 177.168 65.2835 177.168 63.6102V50.0753C177.168 48.402 178.532 47.0386 180.205 47.0386H238.051C239.724 47.0386 241.088 48.402 241.088 50.0753V63.6226C241.088 65.2959 239.724 66.6469 238.051 66.6469Z" fill="#C8D3DD"/>
<path d="M238.198 53.3599H218.578V60.338H238.198V53.3599Z" fill="black"/>
<path d="M235.286 57.4129H221.49C221.181 57.4129 220.933 57.165 220.933 56.8551C220.933 56.5453 221.181 56.2974 221.49 56.2974H235.286C235.595 56.2974 235.843 56.5453 235.843 56.8551C235.843 57.1526 235.595 57.4129 235.286 57.4129Z" fill="#ADCB53"/>
<path d="M197.532 59.1978H183.39C182.088 59.1978 181.035 58.1442 181.035 56.8428C181.035 55.5413 182.088 54.4878 183.39 54.4878H197.532C198.833 54.4878 199.887 55.5413 199.887 56.8428C199.887 58.1442 198.833 59.1978 197.532 59.1978Z" fill="black"/>
<path d="M209.308 59.1978H205.378C204.077 59.1978 203.023 58.1442 203.023 56.8428C203.023 55.5413 204.077 54.4878 205.378 54.4878H209.308C210.609 54.4878 211.662 55.5413 211.662 56.8428C211.662 58.1442 210.609 59.1978 209.308 59.1978Z" stroke="white" stroke-width="0.3633" stroke-miterlimit="10"/>
<path d="M184.158 57.5246C183.985 57.5246 183.811 57.4502 183.675 57.3263C183.551 57.2023 183.477 57.0288 183.477 56.8429C183.477 56.657 183.551 56.4834 183.675 56.3595C183.923 56.1116 184.381 56.1116 184.629 56.3595C184.753 56.4834 184.828 56.657 184.828 56.8429C184.828 57.0288 184.753 57.1899 184.629 57.3263C184.505 57.4502 184.332 57.5246 184.158 57.5246Z" fill="#ADCB53"/>
<path d="M192.141 56.8429C192.141 56.4711 192.438 56.1736 192.81 56.1736C193.182 56.1736 193.479 56.4711 193.479 56.8429C193.479 57.2147 193.182 57.5122 192.81 57.5122C192.451 57.5246 192.141 57.2147 192.141 56.8429ZM187.815 56.8429C187.815 56.4711 188.125 56.1736 188.497 56.1736C188.868 56.1736 189.166 56.4711 189.166 56.8429C189.166 57.2147 188.856 57.5122 188.497 57.5122C188.112 57.5246 187.815 57.2147 187.815 56.8429Z" fill="#ADCB53"/>
<path d="M197.148 57.5246C196.974 57.5246 196.801 57.4502 196.665 57.3262C196.541 57.2023 196.466 57.0288 196.466 56.8429C196.466 56.6569 196.541 56.4834 196.665 56.3595C196.826 56.1983 197.049 56.1364 197.272 56.1735C197.309 56.1859 197.359 56.1983 197.396 56.2107C197.433 56.2231 197.483 56.2479 197.507 56.2727C197.545 56.2975 197.582 56.3223 197.607 56.3595C197.731 56.4834 197.805 56.6569 197.805 56.8429C197.805 57.0288 197.731 57.1899 197.607 57.3262C197.582 57.351 197.545 57.3882 197.507 57.413C197.47 57.4378 197.433 57.4626 197.396 57.475C197.359 57.4874 197.309 57.4998 197.272 57.5122C197.235 57.5122 197.198 57.5246 197.148 57.5246Z" fill="#ADCB53"/>
<path d="M207.423 56.4712V42.6264C207.423 32.4132 215.727 34.0617 225.878 34.0617C227.353 34.0617 228.841 34.0617 230.316 34.0617C231.927 34.0617 233.551 34.0493 235.162 34.0617C237.331 34.0741 239.575 33.6775 239.798 30.963V9.21045" stroke="white" stroke-width="0.5562" stroke-linecap="round" stroke-linejoin="round"/>
<path d="M208.191 56.4339C208.191 56.8678 207.844 57.2148 207.41 57.2148C206.976 57.2148 206.629 56.8678 206.629 56.4339C206.629 56.0001 206.976 55.6531 207.41 55.6531C207.844 55.6655 208.191 56.0125 208.191 56.4339Z" fill="white"/>
<path d="M240.578 9.24766C240.578 8.81385 240.231 8.4668 239.797 8.4668C239.364 8.4668 239.017 8.81385 239.017 9.24766C239.017 9.68147 239.364 10.0285 239.797 10.0285C240.231 10.0285 240.578 9.68147 240.578 9.24766Z" fill="white"/>
<path d="M209.468 56.4713V42.6265C209.468 32.4133 217.773 34.0618 227.936 34.0618H235.745" stroke="white" stroke-width="0.5562" stroke-linecap="round" stroke-linejoin="round"/>
<path d="M210.236 56.4339C210.236 56.8678 209.889 57.2148 209.455 57.2148C209.021 57.2148 208.674 56.8678 208.674 56.4339C208.674 56.0001 209.021 55.6531 209.455 55.6531C209.889 55.6655 210.236 56.0125 210.236 56.4339Z" fill="white"/>
<path d="M235.695 34.83C236.129 34.83 236.476 34.483 236.476 34.0492C236.476 33.6154 236.129 33.2683 235.695 33.2683C235.261 33.2683 234.914 33.6154 234.914 34.0492C234.914 34.483 235.261 34.83 235.695 34.83Z" fill="white"/>
<path d="M205.378 56.4713V42.6265C205.378 32.4133 213.682 34.0618 223.846 34.0618H235.745" stroke="white" stroke-width="0.5562" stroke-linecap="round" stroke-linejoin="round"/>
<path d="M206.146 56.4339C206.146 56.8678 205.799 57.2148 205.365 57.2148C204.932 57.2148 204.584 56.8678 204.584 56.4339C204.584 56.0001 204.932 55.6531 205.365 55.6531C205.799 55.6655 206.146 56.0125 206.146 56.4339Z" fill="white"/>
<path d="M235.695 34.83C236.129 34.83 236.476 34.483 236.476 34.0492C236.476 33.6154 236.129 33.2683 235.695 33.2683C235.262 33.2683 234.915 33.6154 234.915 34.0492C234.915 34.483 235.262 34.83 235.695 34.83Z" fill="white"/>
<path d="M238.051 95.6381H180.205C178.532 95.6381 177.168 94.2746 177.168 92.6014V79.054C177.168 77.3807 178.532 76.0173 180.205 76.0173H238.051C239.724 76.0173 241.088 77.3807 241.088 79.054V92.6014C241.088 94.2746 239.724 95.6381 238.051 95.6381Z" fill="#C8D3DD"/>
<path d="M238.199 82.3389H218.579V89.317H238.199V82.3389Z" fill="black"/>
<path d="M235.287 86.3916H221.491C221.182 86.3916 220.934 86.1437 220.934 85.8339C220.934 85.524 221.182 85.2761 221.491 85.2761H235.287C235.596 85.2761 235.844 85.524 235.844 85.8339C235.844 86.1437 235.596 86.3916 235.287 86.3916Z" fill="#ADCB53"/>
<path d="M197.533 88.189H183.391C182.089 88.189 181.036 87.1354 181.036 85.834C181.036 84.5326 182.089 83.479 183.391 83.479H197.533C198.834 83.479 199.888 84.5326 199.888 85.834C199.888 87.1354 198.834 88.189 197.533 88.189Z" fill="black"/>
<path d="M184.159 86.5031C184.121 86.5031 184.072 86.5031 184.022 86.4907C183.973 86.4783 183.935 86.4659 183.898 86.4535C183.861 86.4412 183.824 86.4164 183.787 86.3916C183.75 86.3668 183.712 86.342 183.688 86.3048C183.564 86.1809 183.489 86.0073 183.489 85.8214C183.489 85.6355 183.564 85.462 183.688 85.338C183.725 85.3008 183.75 85.2761 183.787 85.2513C183.824 85.2265 183.861 85.2017 183.898 85.1893C183.935 85.1769 183.985 85.1521 184.022 85.1521C184.109 85.1397 184.196 85.1397 184.283 85.1521C184.32 85.1645 184.369 85.1769 184.406 85.1893C184.444 85.2017 184.481 85.2265 184.518 85.2513C184.555 85.2761 184.592 85.3008 184.617 85.338C184.741 85.462 184.815 85.6355 184.815 85.8214C184.815 86.0073 184.741 86.1685 184.617 86.3048C184.58 86.342 184.555 86.3668 184.518 86.3916C184.481 86.4164 184.444 86.4412 184.406 86.4535C184.369 86.4659 184.32 86.4783 184.283 86.4907C184.245 86.5031 184.196 86.5031 184.159 86.5031Z" fill="#ADCB53"/>
<path d="M192.141 85.8341C192.141 85.4623 192.439 85.1648 192.81 85.1648C193.182 85.1648 193.48 85.4623 193.48 85.8341C193.48 86.2059 193.182 86.5034 192.81 86.5034C192.451 86.5034 192.141 86.2059 192.141 85.8341ZM187.815 85.8341C187.815 85.4623 188.113 85.1648 188.485 85.1648C188.857 85.1648 189.154 85.4623 189.154 85.8341C189.154 86.2059 188.844 86.5034 188.485 86.5034C188.113 86.5034 187.815 86.2059 187.815 85.8341Z" fill="#ADCB53"/>
<path d="M197.149 86.5034C196.975 86.5034 196.801 86.4291 196.665 86.3051C196.541 86.1812 196.467 86.0076 196.467 85.8217C196.467 85.7721 196.467 85.735 196.479 85.6854C196.492 85.6482 196.504 85.5986 196.516 85.5614C196.529 85.5242 196.554 85.4747 196.578 85.4499C196.603 85.4127 196.628 85.3755 196.665 85.3507C196.913 85.1028 197.372 85.1028 197.62 85.3507C197.743 85.4747 197.818 85.6482 197.818 85.8341C197.818 86.02 197.743 86.1812 197.62 86.3175C197.508 86.429 197.322 86.5034 197.149 86.5034Z" fill="#ADCB53"/>
<path d="M209.308 88.189H205.378C204.077 88.189 203.023 87.1354 203.023 85.834C203.023 84.5326 204.077 83.479 205.378 83.479H209.308C210.609 83.479 211.662 84.5326 211.662 85.834C211.675 87.1354 210.609 88.189 209.308 88.189Z" stroke="white" stroke-width="0.3633" stroke-miterlimit="10"/>
<path d="M207.423 85.462V71.6048C207.423 61.3916 215.728 63.0401 225.879 63.0401C227.354 63.0401 228.841 63.0401 230.316 63.0401C231.928 63.0401 233.551 63.0277 235.163 63.0401C237.332 63.0525 239.575 62.6559 239.798 59.9415V39.7754" stroke="white" stroke-width="0.5562" stroke-linecap="round" stroke-linejoin="round"/>
<path d="M208.192 85.4249C208.192 85.8587 207.845 86.2058 207.411 86.2058C206.977 86.2058 206.63 85.8587 206.63 85.4249C206.63 84.9911 206.977 84.644 207.411 84.644C207.845 84.644 208.192 84.9911 208.192 85.4249Z" fill="white"/>
<path d="M240.579 39.8126C240.579 39.3788 240.232 39.0317 239.798 39.0317C239.364 39.0317 239.017 39.3788 239.017 39.8126C239.017 40.2464 239.364 40.5935 239.798 40.5935C240.232 40.5811 240.579 40.234 240.579 39.8126Z" fill="white"/>
<path d="M209.469 85.4622V71.605C209.469 61.3918 217.773 63.0403 227.937 63.0403H235.745" stroke="white" stroke-width="0.5562" stroke-linecap="round" stroke-linejoin="round"/>
<path d="M210.237 85.4249C210.237 85.8587 209.889 86.2058 209.456 86.2058C209.022 86.2058 208.675 85.8587 208.675 85.4249C208.675 84.9911 209.022 84.644 209.456 84.644C209.889 84.644 210.237 84.9911 210.237 85.4249Z" fill="white"/>
<path d="M235.695 63.821C236.129 63.821 236.476 63.474 236.476 63.0401C236.476 62.6063 236.129 62.2593 235.695 62.2593C235.262 62.2593 234.915 62.6063 234.915 63.0401C234.915 63.4616 235.262 63.821 235.695 63.821Z" fill="white"/>
<path d="M205.378 85.4622V71.605C205.378 61.3918 213.682 63.0403 223.846 63.0403H235.745" stroke="white" stroke-width="0.5562" stroke-linecap="round" stroke-linejoin="round"/>
<path d="M206.146 85.4249C206.146 85.8587 205.799 86.2058 205.365 86.2058C204.932 86.2058 204.584 85.8587 204.584 85.4249C204.584 84.9911 204.932 84.644 205.365 84.644C205.799 84.644 206.146 84.9911 206.146 85.4249Z" fill="white"/>
<path d="M235.695 63.821C236.129 63.821 236.476 63.474 236.476 63.0401C236.476 62.6063 236.129 62.2593 235.695 62.2593C235.262 62.2593 234.915 62.6063 234.915 63.0401C234.915 63.4616 235.262 63.821 235.695 63.821Z" fill="white"/>
<path d="M45.3008 101V82.2893" stroke="#ADCB53" stroke-width="1.3625" stroke-linecap="round" stroke-linejoin="round"/>
<path d="M48.4862 82.4379C48.4862 80.6903 47.0608 79.2649 45.3132 79.2649C43.5655 79.2649 42.1401 80.6903 42.1401 82.4379C42.1401 84.1856 43.5655 85.6109 45.3132 85.6109C47.0608 85.6233 48.4862 84.198 48.4862 82.4379Z" fill="#ADCB53"/>
<path d="M141.645 103.253C141.645 91.3666 128.259 65.908 125.148 62.7969C124.801 62.4499 124.454 62.1152 124.094 61.793C121.169 59.1405 117.029 58.1861 113.361 60.0453C111.241 61.1112 109.543 62.8465 107.882 64.557C102.577 70.0106 99.3794 77.3482 96.1692 84.1281C93.6159 89.5074 91.7071 95.4072 90.7031 101.381" stroke="#ADCB53" stroke-width="1.3625" stroke-miterlimit="10" stroke-linecap="round" stroke-linejoin="round"/>
<path d="M95.0405 87.6357C95.3132 87.5118 95.6107 87.4126 95.9577 87.3506C97.9409 87.0036 99.7877 88.305 100.792 89.9287C102.651 92.9654 104.002 97.2664 104.758 101.617" stroke="#ADCB53" stroke-width="1.3625" stroke-miterlimit="10" stroke-linecap="round" stroke-linejoin="round"/>
<path d="M113.026 101.394C111.538 94.3785 108.526 87.7597 104.176 81.9467C103.494 81.0418 102.726 80.137 101.672 79.728C100.668 79.3438 99.6517 79.4677 98.6602 79.8644" stroke="#ADCB53" stroke-width="1.3625" stroke-miterlimit="10" stroke-linecap="round" stroke-linejoin="round"/>
<path d="M121.119 100.836C119.149 91.8253 115.257 83.2978 109.592 75.9106C107.907 73.7167 104.982 71.5229 102.267 71.9939" stroke="#ADCB53" stroke-width="1.3625" stroke-miterlimit="10" stroke-linecap="round" stroke-linejoin="round"/>
<path d="M33.8604 101.394H90.8137" stroke="#ADCB53" stroke-width="1.3625" stroke-miterlimit="10" stroke-linecap="round" stroke-linejoin="round"/>
<path d="M304.101 102.261H361.042" stroke="#ADCB53" stroke-width="1.3625" stroke-miterlimit="10" stroke-linecap="round" stroke-linejoin="round"/>
<path d="M63 101L63 79" stroke="#ADCB53" stroke-width="1.3625" stroke-miterlimit="10" stroke-linecap="round" stroke-linejoin="round"/>
<path d="M69.6809 71.1588C69.8049 71.0472 69.9164 70.9356 70.028 70.7993C70.5361 70.1796 70.4989 69.2624 69.9288 68.6798L68.7513 67.5023C65.4171 64.1682 59.9635 64.1682 56.6169 67.5023L55.4395 68.6798C54.8693 69.25 54.8321 70.1796 55.3403 70.7993C55.4518 70.9356 55.551 71.072 55.6502 71.2083C56.4434 72.3486 57.7325 72.8444 58.7364 73.7988C60.0751 75.0631 60.6452 77.0958 62.3185 78.013C64.376 79.1409 65.5535 77.5668 66.5079 75.8191C67.1276 74.6788 67.611 73.4765 68.3423 72.4106C68.7141 71.8776 69.2223 71.5678 69.6809 71.1588Z" fill="white"/>
<path d="M63.0005 80.3555C61.5627 79.9589 60.063 79.773 58.5632 79.7978C57.1626 79.8225 55.8116 80.2192 54.411 80.1944C54.2747 80.1944 54.1508 80.1944 54.0144 80.2068C53.3947 80.244 52.8369 79.7978 52.7378 79.178L52.5394 77.9014C51.9693 74.2821 54.473 70.8488 58.0922 70.2787L59.3689 70.0804C59.9886 69.9812 60.5836 70.3778 60.7447 70.9852C60.7819 71.1091 60.8191 71.2455 60.8563 71.3694C61.352 72.8072 61.9098 74.2326 62.3312 75.6951C62.7526 77.1825 62.9014 78.6698 63.0377 80.2068" fill="#C8D3DD"/>
<path d="M62.9265 80.3555C63.4719 80.3803 64.1536 79.9465 64.6989 79.8225C65.393 79.649 66.0995 79.5623 66.8184 79.5375C68.0083 79.5003 69.2106 79.6614 70.3385 80.0333C71.1937 80.3183 72.458 80.3555 72.6439 79.178L72.8422 77.9014C73.4124 74.2821 70.9087 70.8488 67.2894 70.2787L66.0128 70.0804C65.393 69.9812 64.7981 70.3778 64.637 70.9852C64.5998 71.1091 64.5626 71.2455 64.5254 71.3694L62.691 76.6991C62.5051 77.2569 62.3192 77.8022 62.2448 78.3848C62.1704 78.9673 62.22 79.5747 62.4803 80.1076C62.5299 80.2068 62.5918 80.3059 62.6786 80.3803C62.7654 80.4423 62.8274 80.4051 62.9265 80.3555Z" fill="#C8D3DD"/>
<path d="M64.5496 80.1823C64.5496 79.1907 63.744 79.2899 62.7648 79.2899C61.7856 79.2899 60.98 79.1907 60.98 80.1823C60.98 81.1739 61.7856 82.8595 62.7648 82.8595C63.744 82.8595 64.5496 81.1739 64.5496 80.1823Z" fill="#ADCB53"/>
<path d="M90.8141 101.629C90.8141 96.3615 86.6247 82.6406 81.4561 82.6406C76.2875 82.6406 72.0981 96.3615 72.0981 101.629H90.8141Z" fill="#ADCB53"/>
<path d="M33.2757 40.135C34.6763 40.4697 36.0645 40.8043 37.4651 41.1266C35.6803 42.1305 33.9079 43.1345 32.123 44.1385" fill="#374151"/>
<path d="M33.2757 40.135C34.6763 40.4697 36.0645 40.8043 37.4651 41.1266C35.6803 42.1305 33.9079 43.1345 32.123 44.1385" fill="#ADCB53"/>
<path d="M21.7734 42.0686C15.2538 42.019 5.97021 42.081 5.97021 42.2297C5.97021 48.3279 10.9157 53.2609 17.0014 53.2609C21.3891 53.2609 25.1819 50.6952 26.9543 46.9768C24.3143 46.7042 22.1948 44.6714 21.7734 42.0686Z" fill="white"/>
<path d="M21.6872 41.1139C21.6872 40.1843 21.9103 39.3043 22.2945 38.5235C18.4894 34.1605 14.0645 29.2027 13.9653 29.2895C9.6396 33.0946 9.21819 39.6762 13.011 44.0019C16.1468 47.5715 21.1666 48.4764 25.2692 46.5552C23.1622 45.638 21.6872 43.5557 21.6872 41.1139Z" fill="#AECC53"/>
<path d="M27.5988 47.0266C30.8586 47.0266 33.511 44.3866 33.511 41.1144C33.511 37.8546 30.8709 35.2021 27.5988 35.2021C24.339 35.2021 21.6865 37.8422 21.6865 41.1144C21.6865 44.3742 24.339 47.0266 27.5988 47.0266Z" stroke="#ADCB53" stroke-width="1.1578" stroke-miterlimit="10" stroke-linecap="round" stroke-linejoin="round"/>
<path d="M95.623 29.5374V41.6841" stroke="#C8D3DD" stroke-linecap="round" stroke-linejoin="round"/>
<path d="M95.6227 43.0229C96.3963 43.0229 97.0233 42.3958 97.0233 41.6223C97.0233 40.8487 96.3963 40.2217 95.6227 40.2217C94.8492 40.2217 94.2222 40.8487 94.2222 41.6223C94.2222 42.3958 94.8492 43.0229 95.6227 43.0229Z" fill="#C8D3DD"/>
<path d="M83.9844 29.5374V49.9885" stroke="#C8D3DD" stroke-linecap="round" stroke-linejoin="round"/>
<path d="M83.9841 51.3273C84.7576 51.3273 85.3847 50.7002 85.3847 49.9267C85.3847 49.1532 84.7576 48.5261 83.9841 48.5261C83.2106 48.5261 82.5835 49.1532 82.5835 49.9267C82.5835 50.7002 83.2106 51.3273 83.9841 51.3273Z" fill="#C8D3DD"/>
<path d="M72.2837 29.5374V41.6841" stroke="#C8D3DD" stroke-linecap="round" stroke-linejoin="round"/>
<path d="M72.2839 43.0229C73.0574 43.0229 73.6845 42.3958 73.6845 41.6223C73.6845 40.8487 73.0574 40.2217 72.2839 40.2217C71.5104 40.2217 70.8833 40.8487 70.8833 41.6223C70.8833 42.3958 71.5104 43.0229 72.2839 43.0229Z" fill="#C8D3DD"/>
<path d="M69.5078 7.37598C70.8712 7.37598 72.1726 7.62387 73.3749 8.07008C74.7135 3.49646 78.9401 0.149902 83.96 0.149902C88.9674 0.149902 93.2063 3.49646 94.545 8.07008C95.7473 7.62387 97.0487 7.37598 98.4121 7.37598C104.498 7.37598 109.443 12.309 109.443 18.4072C109.443 24.493 104.51 29.4384 98.4121 29.4384C95.6481 29.4384 86.724 29.4384 83.96 29.4384C81.196 29.4384 72.2718 29.4384 69.5078 29.4384C63.422 29.4384 58.4766 24.5054 58.4766 18.4072C58.4766 12.3214 63.4096 7.37598 69.5078 7.37598Z" stroke="white" stroke-miterlimit="10" stroke-linecap="round" stroke-linejoin="round"/>
<path d="M73.375 8.08247C73.9452 6.12412 75.0483 4.38887 76.5232 3.03785C78.4816 1.24063 81.0969 0.149902 83.96 0.149902C88.9675 0.149902 93.2064 3.49646 94.545 8.07008C95.7473 7.62387 97.0488 7.37598 98.4122 7.37598C104.498 7.37598 109.443 12.309 109.443 18.4072" stroke="white" stroke-width="0.933" stroke-miterlimit="10" stroke-linecap="round" stroke-linejoin="round"/>
<path d="M58.4766 18.4072C58.4766 12.3214 63.4096 7.37598 69.5078 7.37598" stroke="white" stroke-width="0.933" stroke-miterlimit="10" stroke-linecap="round" stroke-linejoin="round"/>
<path d="M374.28 87.8714L381.035 73.6919C384.22 67.0112 393.715 67.0112 396.9 73.6919L410.014 101.134" stroke="#ADCB53" stroke-width="1.3625" stroke-miterlimit="10" stroke-linecap="round" stroke-linejoin="round"/>
<path d="M379.634 98.357C381.716 93.833 383.798 89.2966 385.868 84.7725C386.686 82.9877 387.529 81.1781 388.843 79.7279C390.752 77.6332 393.491 77.063 396.131 78.0174C396.9 78.3025 397.618 78.6991 398.325 79.1082C398.858 79.418 399.403 79.7155 399.936 80.0254" stroke="#ADCB53" stroke-width="1.3625" stroke-miterlimit="10" stroke-linecap="round" stroke-linejoin="round"/>
<path d="M361.426 102.063L367.574 88.9991C369.049 85.888 373.474 85.888 374.961 88.9991L381.282 102.261" stroke="#ADCB53" stroke-width="1.3625" stroke-miterlimit="10" stroke-linecap="round" stroke-linejoin="round"/>
<path d="M407.485 95.7913C406.047 93.1388 403.965 89.7675 400.569 89.8295C398.672 89.8666 396.863 90.821 395.487 92.1225C392.673 94.7749 391.57 98.171 390.058 101.592" stroke="#ADCB53" stroke-width="1.3625" stroke-miterlimit="10" stroke-linecap="round" stroke-linejoin="round"/>
<path d="M310.447 43.2461H289.686C285.076 43.2461 281.308 47.0141 281.308 51.6249C281.308 51.6992 281.32 51.7736 281.32 51.848C281.32 51.9223 281.308 51.9967 281.308 52.0711V62.5817C281.308 64.7508 282.845 66.6968 284.989 67.0314C287.691 67.4528 290.058 65.3457 290.058 62.7181V62.1851C290.058 60.9704 291.037 59.9913 292.252 59.9913C293.467 59.9913 294.446 60.9704 294.446 62.1851V69.5847C294.446 71.9893 296.417 73.96 298.821 73.96C301.226 73.96 303.197 71.9893 303.197 69.5847V62.1851C303.197 60.9704 304.176 59.9913 305.39 59.9913H310.46C315.071 59.9913 318.839 56.2233 318.839 51.6125C318.814 47.0141 315.046 43.2461 310.447 43.2461Z" fill="white"/>
<path d="M300.234 35.8342H279.473C275.085 35.8342 271.466 39.2552 271.131 43.5685C271.107 43.7048 271.094 43.8536 271.094 44.0023V44.213V57.7727C271.094 59.4088 272.259 60.8838 273.895 61.0945C275.866 61.3548 277.564 59.8179 277.564 57.8967V54.4262C277.564 53.385 278.419 52.5918 279.461 52.5918C279.473 52.5918 279.473 52.5918 279.485 52.5918H300.246C304.857 52.5918 308.625 48.8238 308.625 44.213C308.6 39.6022 304.832 35.8342 300.234 35.8342Z" fill="#ADCB53"/>
<path d="M324.317 84.4458H320.623C311.588 84.4458 304.188 77.0462 304.188 68.0105V60.6233" stroke="#C8D3DD" stroke-width="1.2648" stroke-miterlimit="10" stroke-linecap="round" stroke-linejoin="round"/>
<path d="M306.407 78.484H302.713C296.516 78.484 287.865 78.2733 286.452 66.9941" stroke="#C8D3DD" stroke-width="1.2648" stroke-miterlimit="10" stroke-linecap="round" stroke-linejoin="round"/>
<path d="M341.087 61.4163H344.781C350.978 61.4163 359.629 61.2056 361.042 49.9265" stroke="#C8D3DD" stroke-width="1.2648" stroke-miterlimit="10" stroke-linecap="round" stroke-linejoin="round"/>
<path d="M334.382 28.4346V35.8218C334.382 42.6016 330.217 48.4519 324.33 50.9556" stroke="#C8D3DD" stroke-width="1.2648" stroke-miterlimit="10" stroke-linecap="round" stroke-linejoin="round"/>
<path d="M344.446 43.7788V51.166C344.446 60.2017 337.046 67.6013 328.01 67.6013H324.317" stroke="#C8D3DD" stroke-width="1.2648" stroke-miterlimit="10" stroke-linecap="round" stroke-linejoin="round"/>
<path d="M355.911 34.074H366.297C370.908 34.074 374.676 37.8419 374.676 42.4527C374.676 42.5271 374.664 42.6015 374.664 42.6759C374.664 42.7502 374.676 42.8246 374.676 42.899V53.4096C374.676 55.5787 373.139 57.5246 370.995 57.8593C368.293 58.2807 365.925 56.1736 365.925 53.546V53.0254C365.925 51.8107 364.946 50.8315 363.732 50.8315C362.517 50.8315 355.911 50.8315 355.911 50.8315C351.3 50.8315 347.532 47.0636 347.532 42.4527C347.532 37.8419 351.3 34.074 355.911 34.074Z" fill="white"/>
<path d="M302.663 38.5611H291.595C289.537 38.5611 287.864 36.8754 287.864 34.8303V33.4173C287.864 31.3598 289.549 29.6865 291.595 29.6865H302.663C304.72 29.6865 306.394 31.3722 306.394 33.4173V34.8303C306.406 36.8878 304.72 38.5611 302.663 38.5611Z" fill="#ADCB53"/>
<path d="M324 102L324 28" stroke="#C8D3DD" stroke-width="1.2648" stroke-miterlimit="10" stroke-linecap="round" stroke-linejoin="round"/>
<path d="M347.854 28.4346H323.251C320.425 28.4346 318.12 26.1292 318.12 23.3032V21.3697C318.12 18.5437 320.425 16.2383 323.251 16.2383H347.854C350.68 16.2383 352.986 18.5437 352.986 21.3697V23.3032C352.986 26.1292 350.68 28.4346 347.854 28.4346Z" fill="white"/>
<path d="M345.35 4.72352H341.409V3.8559C341.409 1.82318 339.736 0.149902 337.703 0.149902H317.946C315.913 0.149902 314.24 1.82318 314.24 3.8559V4.72352H311.488C307.001 4.72352 303.333 8.39234 303.333 12.8792V15.9159C303.333 20.4027 307.001 24.0716 311.488 24.0716H345.35C349.837 24.0716 353.506 20.4027 353.506 15.9159V12.8792C353.506 8.39234 349.837 4.72352 345.35 4.72352Z" fill="#ADCB53"/>
<path d="M367.958 46.7784C367.958 42.5766 364.525 39.1433 360.323 39.1433H345.797C341.595 39.1433 338.162 42.5766 338.162 46.7784C338.162 50.9802 341.595 54.4135 345.797 54.4135H360.323C360.348 54.4135 360.385 54.4135 360.41 54.4135C361.191 54.4011 361.873 54.8349 362.244 55.5166C362.839 56.5826 364.042 57.2767 365.393 57.066C366.892 56.8305 367.971 55.4671 367.971 53.9549V48.2658C367.971 48.0675 367.946 47.8691 367.909 47.6708C367.934 47.3857 367.958 47.0883 367.958 46.7784Z" fill="#ADCB53"/>
<path d="M286.476 11.9865C287.558 11.9865 288.435 11.1097 288.435 10.0282C288.435 8.94661 287.558 8.06982 286.476 8.06982C285.395 8.06982 284.518 8.94661 284.518 10.0282C284.518 11.1097 285.395 11.9865 286.476 11.9865Z" stroke="#ADCB53" stroke-width="1.2965" stroke-miterlimit="10"/>
<path d="M367.351 18.2461C369.521 18.2461 371.281 16.487 371.281 14.317C371.281 12.1471 369.521 10.3879 367.351 10.3879C365.181 10.3879 363.422 12.1471 363.422 14.317C363.422 16.487 365.181 18.2461 367.351 18.2461Z" stroke="#ADCB53" stroke-width="2.593" stroke-miterlimit="10"/>
<path d="M297.135 102.261H284.517" stroke="#ADCB53" stroke-width="1.3625" stroke-miterlimit="10" stroke-linecap="round" stroke-linejoin="round"/>
</g>
<defs>
<clipPath id="clip0_811_507">
<rect width="410.94" height="102.83" fill="white"/>
</clipPath>
</defs>
</svg>
