<svg id="aec5ebc9-9c5e-4043-b936-cd4bc7e4a170" data-name="Layer 1" xmlns="http://www.w3.org/2000/svg" width="410.94" height="102.83" viewBox="0 0 410.94 102.83"><line x1="220.05" y1="38.89" x2="220.05" y2="29.27" style="fill:none;stroke:#00e7ff;stroke-linecap:round;stroke-linejoin:round;stroke-width:1.3164000511169434px"/><path d="M146.26,46.59a7.81,7.81,0,1,1,.13,15.61c-4.31,0-11.65-7.71-11.65-7.71S142,46.63,146.26,46.59Z" style="fill:#acca53;stroke:#acca53;stroke-linecap:round;stroke-linejoin:round;stroke-width:1.2999999523162842px"/><line x1="144.31" y1="54.42" x2="161.17" y2="54.31" style="fill:none;stroke:#fff;stroke-linecap:round;stroke-linejoin:round"/><path d="M146.26,68.05a7.81,7.81,0,1,1,.13,15.61c-4.31,0-11.65-7.71-11.65-7.71S142,68.08,146.26,68.05Z" style="fill:#acca53;stroke:#acca53;stroke-linecap:round;stroke-linejoin:round;stroke-width:1.2999999523162842px"/><line x1="144.31" y1="75.87" x2="161.17" y2="75.76" style="fill:none;stroke:#fff;stroke-linecap:round;stroke-linejoin:round"/><path d="M146.26,25.79a7.81,7.81,0,1,1,.13,15.61c-4.31,0-11.65-7.71-11.65-7.71S142,25.82,146.26,25.79Z" style="fill:none;stroke:#acca53;stroke-linecap:round;stroke-linejoin:round;stroke-width:1.2999999523162842px"/><line x1="144.31" y1="33.61" x2="161.17" y2="33.5" style="fill:none;stroke:#fff;stroke-linecap:round;stroke-linejoin:round"/><path d="M36.92,33.87a7.81,7.81,0,0,1,0,15.62c-4.31,0-11.58-7.81-11.58-7.81S32.61,33.87,36.92,33.87Z" style="fill:none;stroke:#acca53;stroke-linecap:round;stroke-linejoin:round;stroke-width:1.2999999523162842px"/><path d="M36.92,52.88a7.81,7.81,0,0,1,0,15.62c-4.31,0-11.58-7.81-11.58-7.81S32.61,52.88,36.92,52.88Z" style="fill:none;stroke:#acca53;stroke-linecap:round;stroke-linejoin:round;stroke-width:1.2999999523162842px"/><line x1="34.69" y1="60.56" x2="51.8" y2="60.56" style="fill:none;stroke:#00e5ff;stroke-linecap:round;stroke-linejoin:round;stroke-width:1.2999999523162842px"/><circle cx="34.77" cy="60.56" r="1.47" style="fill:#00e5ff"/><line x1="34.69" y1="41.84" x2="51.8" y2="41.84" style="fill:none;stroke:#00e5ff;stroke-linecap:round;stroke-linejoin:round;stroke-width:1.2999999523162842px"/><circle cx="34.77" cy="41.84" r="1.47" style="fill:#00e5ff"/><line x1="115.28" y1="36.11" x2="127.38" y2="36.11" style="fill:none;stroke:#00e5ff;stroke-linecap:round;stroke-linejoin:round;stroke-width:1.2999999523162842px"/><circle cx="127.3" cy="36.11" r="1.47" style="fill:#00e5ff"/><line x1="115.28" y1="54.5" x2="127.38" y2="54.5" style="fill:none;stroke:#00e5ff;stroke-linecap:round;stroke-linejoin:round;stroke-width:1.2999999523162842px"/><circle cx="127.3" cy="54.5" r="1.47" style="fill:#00e5ff"/><path d="M115,73.22h6.5a6,6,0,0,1,6,6V84a6,6,0,0,0,6.05,6l27.82-.32a6.36,6.36,0,0,0,6.36-6.36V20a5.9,5.9,0,0,1,5.9-5.9h0a5.9,5.9,0,0,1,5.9,5.9l.06,63.91a5.9,5.9,0,1,0,11.8,0V20a5.9,5.9,0,0,1,5.91-5.9h0a5.9,5.9,0,0,1,5.9,5.9V88.37" style="fill:none;stroke:#00e5ff;stroke-linecap:round;stroke-linejoin:round;stroke-width:1.2999999523162842px"/><circle cx="203.33" cy="88.29" r="1.47" style="fill:#00e5ff"/><line x1="67.95" y1="93.78" x2="67.95" y2="82.72" style="fill:none;stroke:#acca53;stroke-linecap:round;stroke-linejoin:round;stroke-width:1.2999999523162842px"/><circle cx="67.95" cy="93.71" r="1.47" style="fill:#acca53"/><line x1="83.39" y1="93.78" x2="83.39" y2="82.72" style="fill:none;stroke:#acca53;stroke-linecap:round;stroke-linejoin:round;stroke-width:1.2999999523162842px"/><circle cx="83.39" cy="93.71" r="1.47" style="fill:#acca53"/><line x1="99.11" y1="93.78" x2="99.11" y2="82.57" style="fill:none;stroke:#acca53;stroke-linecap:round;stroke-linejoin:round;stroke-width:1.2999999523162842px"/><circle cx="99.11" cy="93.71" r="1.47" style="fill:#acca53"/><path d="M115,34.27V68.48a14.21,14.21,0,0,1-14.21,14.21H66.56A14.21,14.21,0,0,1,52.35,68.48V34.27A14.21,14.21,0,0,1,66.56,20.06h34.21A14.21,14.21,0,0,1,115,34.27Z" style="fill:none;stroke:#00e5ff;stroke-linecap:round;stroke-linejoin:round;stroke-width:1.2999999523162842px"/><path d="M111.44,34.57V68.18a11,11,0,0,1-11,11H66.87a11,11,0,0,1-11-11V34.58a11,11,0,0,1,11-11h33.6A11,11,0,0,1,111.44,34.57Z" style="fill:none;stroke:#00e5ff;stroke-linecap:round;stroke-linejoin:round;stroke-width:1.2999999523162842px"/><polygon points="104.87 63.62 104.87 39.13 83.66 26.89 62.46 39.13 62.46 63.62 83.66 75.86 104.87 63.62" style="fill:none;stroke:#acca53;stroke-linecap:round;stroke-linejoin:round;stroke-width:1.2999999523162842px"/><path d="M95.89,51.75a12.23,12.23,0,0,1-24.46.2c-.06-6.76,12.08-18.24,12.08-18.24S95.84,45,95.89,51.75Z" style="fill:none;stroke:#acca53;stroke-linecap:round;stroke-linejoin:round;stroke-width:1.2999999523162842px"/><line x1="83.64" y1="48.7" x2="83.81" y2="69.04" style="fill:none;stroke:#fff;stroke-linecap:round;stroke-linejoin:round"/><line x1="99.11" y1="8.58" x2="99.11" y2="20.06" style="fill:none;stroke:#00e5ff;stroke-linecap:round;stroke-linejoin:round;stroke-width:1.2999999523162842px"/><circle cx="99.11" cy="8.65" r="1.47" style="fill:#00e5ff"/><line x1="67.95" y1="8.58" x2="67.95" y2="20.06" style="fill:none;stroke:#00e5ff;stroke-linecap:round;stroke-linejoin:round;stroke-width:1.2999999523162842px"/><circle cx="67.95" cy="8.65" r="1.47" style="fill:#00e5ff"/><line x1="83.66" y1="8.58" x2="83.66" y2="20.06" style="fill:none;stroke:#00e5ff;stroke-linecap:round;stroke-linejoin:round;stroke-width:1.2999999523162842px"/><circle cx="83.66" cy="8.65" r="1.47" style="fill:#00e5ff"/><rect x="251.91" y="45.48" width="14.37" height="4.68" style="fill:#00e5ff;stroke:#00e5ff;stroke-linecap:round;stroke-linejoin:round;stroke-width:1.2999999523162842px"/><polyline points="241.47 101.18 241.47 50.17 276.72 50.17 276.72 101.45" style="fill:none;stroke:#fff;stroke-linecap:round;stroke-linejoin:round"/><path d="M272.53,70.18v8.63H245.66V70.18h26.87m1.3-1.3H244.36V80.11h29.47V68.88Z" style="fill:#acca53"/><path d="M272.53,56.17V64.8H245.66V56.17h26.87m1.3-1.3H244.36V66.1h29.47V54.87Z" style="fill:#acca53"/><path d="M272.53,84.19v8.63H245.66V84.19h26.87m1.3-1.3H244.36V94.12h29.47V82.89Z" style="fill:#acca53"/><path d="M259.09,44.78V30a8.12,8.12,0,0,0-8.15-8.12l-30.89,0" style="fill:none;stroke:#00e5ff;stroke-linecap:round;stroke-linejoin:round;stroke-width:1.2999999523162842px"/><line x1="10.3" y1="101" x2="10.3" y2="71.68" style="fill:none;stroke:#acca53;stroke-miterlimit:10;stroke-width:0.9987999796867371px"/><path d="M13.3,71.83a3,3,0,1,0-3,3A3,3,0,0,0,13.3,71.83Z" style="fill:#acca53"/><line x1="17.49" y1="101" x2="17.49" y2="80.71" style="fill:none;stroke:#acca53;stroke-miterlimit:10;stroke-width:0.9987999796867371px"/><path d="M20.5,80.86a3,3,0,1,0-3,3A3,3,0,0,0,20.5,80.86Z" style="fill:#acca53"/><line x1="3" y1="101" x2="3" y2="80.57" style="fill:none;stroke:#acca53;stroke-miterlimit:10;stroke-width:0.9987999796867371px"/><path d="M6,80.72a3,3,0,1,0-3,3A3,3,0,0,0,6,80.72Z" style="fill:#acca53"/><path d="M287.59,50.18a19.82,19.82,0,1,0,39.64,0c0-7.39-9-23.7-14.9-33.53a5.73,5.73,0,0,0-9.84,0C296.62,26.48,287.59,42.8,287.59,50.18Z" style="fill:none;stroke:#acca53;stroke-linecap:round;stroke-linejoin:round;stroke-width:1.2999999523162842px"/><path d="M299.64,38.21a7.83,7.83,0,0,0,15.52,0" style="fill:none;stroke:#fff;stroke-linecap:round;stroke-linejoin:round"/><path d="M298.54,38.36a1.13,1.13,0,1,1,2.25-.19,1.13,1.13,0,0,1-2.25.19Z" style="fill:#fff"/><path d="M316.27,38.36a1.13,1.13,0,0,0-2.25-.19,1.13,1.13,0,0,0,2.25.19Z" style="fill:#fff"/><path d="M295.81,48.9a11.65,11.65,0,0,0,23.2,0" style="fill:none;stroke:#fff;stroke-linecap:round;stroke-linejoin:round"/><path d="M294.69,49a1.13,1.13,0,1,1,1.18,1.07A1.13,1.13,0,0,1,294.69,49Z" style="fill:#fff"/><path d="M320.12,49a1.13,1.13,0,1,0-1.18,1.07A1.13,1.13,0,0,0,320.12,49Z" style="fill:#fff"/><line x1="307.4" y1="29.51" x2="307.4" y2="101.18" style="fill:none;stroke:#fff;stroke-linecap:round;stroke-linejoin:round"/><circle cx="307.4" cy="29.57" r="1.13" style="fill:#fff"/><path d="M389.19,100.91l-6.76-12.56a6.68,6.68,0,0,0-12.07,0l-6,12.56" style="fill:none;stroke:#00e7ff;stroke-linecap:round;stroke-linejoin:round;stroke-width:1.3164000511169434px"/><path d="M351.44,101,340.19,80.11a6.69,6.69,0,0,0-12.08,0l-10,20.89" style="fill:none;stroke:#00e7ff;stroke-linecap:round;stroke-linejoin:round;stroke-width:1.3164000511169434px"/><path d="M342.71,101.18c-1.58-3.45-4.63-9.19-6.21-12.64a14.65,14.65,0,0,0-2.26-3.84,5,5,0,0,0-5.55-1.3,10.39,10.39,0,0,0-1.67.83l-1.23.7" style="fill:none;stroke:#00e7ff;stroke-linecap:round;stroke-linejoin:round;stroke-width:1.3164000511169434px"/><line x1="365.89" y1="44.61" x2="365.89" y2="54.41" style="fill:none;stroke:#00e5ff;stroke-linecap:round;stroke-linejoin:round"/><circle cx="365.89" cy="54.36" r="1.13" style="fill:#00e5ff"/><line x1="356.49" y1="44.61" x2="356.49" y2="61.11" style="fill:none;stroke:#00e5ff;stroke-linecap:round;stroke-linejoin:round"/><circle cx="356.49" cy="61.06" r="1.13" style="fill:#00e5ff"/><line x1="347.05" y1="44.61" x2="347.05" y2="54.41" style="fill:none;stroke:#00e5ff;stroke-linecap:round;stroke-linejoin:round"/><circle cx="347.05" cy="54.36" r="1.13" style="fill:#00e5ff"/><path d="M344.81,26.73a9,9,0,0,1,3.12.56,8.9,8.9,0,0,1,17.08,0,8.9,8.9,0,1,1,3.12,17.24H344.81a8.9,8.9,0,1,1,0-17.8Z" style="fill:none;stroke:#fff;stroke-linecap:round;stroke-linejoin:round"/><path d="M347.93,27.3a8.9,8.9,0,0,1,17.08,0,8.91,8.91,0,0,1,12,8.34" style="fill:none;stroke:#fff;stroke-linecap:round;stroke-linejoin:round;stroke-width:0.9330000281333923px"/><path d="M335.91,35.63a8.9,8.9,0,0,1,8.9-8.9" style="fill:none;stroke:#fff;stroke-linecap:round;stroke-linejoin:round;stroke-width:0.9330000281333923px"/><circle cx="220.05" cy="46.05" r="6.61" style="fill:none;stroke:#fff;stroke-linecap:round;stroke-linejoin:round"/><circle cx="219.89" cy="69.81" r="6.61" style="fill:none;stroke:#fff;stroke-linecap:round;stroke-linejoin:round"/><circle cx="220.05" cy="22.28" r="6.61" style="fill:#00e5ff;stroke:#00e5ff;stroke-linecap:round;stroke-linejoin:round;stroke-width:1.2999999523162842px"/><line x1="220.05" y1="52.65" x2="220.05" y2="63.2" style="fill:none;stroke:#fff;stroke-linecap:round;stroke-linejoin:round"/><path d="M405.9,51.55v4.12A13.17,13.17,0,0,1,392.77,68.8" style="fill:none;stroke:#fff;stroke-linecap:round;stroke-linejoin:round"/><circle cx="405.9" cy="51.62" r="1.41" style="fill:#fff"/><path d="M396.5,101.39l.1-29.21a17,17,0,0,0,13.13-16.52V50.2a3.84,3.84,0,0,0-7.67,0v5.46a9.3,9.3,0,0,1-5.45,8.46V39.33a3.84,3.84,0,1,0-7.67,0l-.1,40.17A9.3,9.3,0,0,1,383.39,71V65.58a3.84,3.84,0,0,0-7.67,0V71a17,17,0,0,0,13.13,16.52v13.83" style="fill:none;stroke:#acca53;stroke-linecap:round;stroke-linejoin:round;stroke-width:1.2999999523162842px"/><path d="M379.54,66.92V71a13.17,13.17,0,0,0,13.13,13.13" style="fill:none;stroke:#fff;stroke-linecap:round;stroke-linejoin:round"/><circle cx="379.54" cy="67" r="1.41" style="fill:#fff"/><line x1="392.77" y1="40.67" x2="392.77" y2="101.79" style="fill:none;stroke:#fff;stroke-linecap:round;stroke-linejoin:round"/><circle cx="392.77" cy="40.74" r="1.41" style="fill:#fff"/></svg>