<svg id="a21a2426-dbe6-4073-aefc-aa26d5d90da8" data-name="Layer 1" xmlns="http://www.w3.org/2000/svg" width="415.45" height="75.12" viewBox="0 0 415.45 75.12"><path d="M100,30.6a7.31,7.31,0,0,1-2.93-3.12,10.34,10.34,0,0,1-1-4.71,10.27,10.27,0,0,1,1-4.7A7.39,7.39,0,0,1,100,15a8.82,8.82,0,0,1,4.47-1.1,9.93,9.93,0,0,1,3.3.54,7.16,7.16,0,0,1,2.61,1.53l-1.06,2.32A9,9,0,0,0,107,16.88a6.93,6.93,0,0,0-2.47-.43,4.76,4.76,0,0,0-3.88,1.63,7.1,7.1,0,0,0-1.37,4.68,7.17,7.17,0,0,0,1.37,4.71,4.81,4.81,0,0,0,3.88,1.63,7,7,0,0,0,2.47-.43,8.68,8.68,0,0,0,2.34-1.37l1.06,2.32a7.33,7.33,0,0,1-2.61,1.53,10,10,0,0,1-3.3.54A8.76,8.76,0,0,1,100,30.6Z" style="fill:#fff"/><path d="M121.75,20.36a5.18,5.18,0,0,1,1.23,3.8v7.32h-2.93V29.63a3.21,3.21,0,0,1-1.32,1.5,4,4,0,0,1-2.08.54,4.77,4.77,0,0,1-2.19-.49,3.87,3.87,0,0,1-1.55-1.36,3.43,3.43,0,0,1-.57-1.92,3.07,3.07,0,0,1,.68-2.1,4.07,4.07,0,0,1,2.21-1.11,20,20,0,0,1,4.22-.35h.62v-.57a2.48,2.48,0,0,0-.53-1.77,2.39,2.39,0,0,0-1.76-.54,6.7,6.7,0,0,0-2,.33,10.41,10.41,0,0,0-2.06.92l-.86-2.12a9.49,9.49,0,0,1,2.44-1.06,9.63,9.63,0,0,1,2.71-.42A5.19,5.19,0,0,1,121.75,20.36Zm-2.47,8.27a3,3,0,0,0,.78-2.13V26h-.44a16.65,16.65,0,0,0-2.56.15,2.5,2.5,0,0,0-1.31.52,1.33,1.33,0,0,0-.39,1A1.67,1.67,0,0,0,115.9,29a1.93,1.93,0,0,0,1.38.51A2.68,2.68,0,0,0,119.28,28.63Z" style="fill:#fff"/><path d="M134.05,21.69l-1.8.17q-3.06.32-3.06,3.11v6.51h-3.08V19.42H129v2.12c.62-1.45,1.91-2.23,3.87-2.37l.94-.07Z" style="fill:#fff"/><path d="M145.27,19.89a5.22,5.22,0,0,1,1.89,2.17,7.51,7.51,0,0,1,.68,3.28,7.78,7.78,0,0,1-.68,3.32,5.21,5.21,0,0,1-1.9,2.23,5,5,0,0,1-2.77.79,4.7,4.7,0,0,1-2.33-.57,3.91,3.91,0,0,1-1.57-1.58v1.95h-3V14.1h3.08v7.07a3.72,3.72,0,0,1,1.55-1.52,4.89,4.89,0,0,1,2.29-.53A5.17,5.17,0,0,1,145.27,19.89Zm-1.33,8.36a4.62,4.62,0,0,0,.81-2.91,4.4,4.4,0,0,0-.8-2.83,3.11,3.11,0,0,0-4.56,0,4.52,4.52,0,0,0-.8,2.87,4.55,4.55,0,0,0,.8,2.88,3,3,0,0,0,4.55,0Z" style="fill:#fff"/><path d="M152.63,30.91a5.3,5.3,0,0,1-2.16-2.19,6.94,6.94,0,0,1-.76-3.33,6.9,6.9,0,0,1,.76-3.32,5.34,5.34,0,0,1,2.16-2.18,6.63,6.63,0,0,1,3.24-.76,6.74,6.74,0,0,1,3.24.76,5.23,5.23,0,0,1,2.14,2.18,7,7,0,0,1,.75,3.32,7.05,7.05,0,0,1-.75,3.33,5.25,5.25,0,0,1-2.14,2.19,7.29,7.29,0,0,1-6.48,0Zm5.51-2.61a4.57,4.57,0,0,0,.79-2.91,4.58,4.58,0,0,0-.79-2.9,3.09,3.09,0,0,0-4.55,0,4.57,4.57,0,0,0-.8,2.9,4.57,4.57,0,0,0,.79,2.91,2.73,2.73,0,0,0,2.27,1A2.82,2.82,0,0,0,158.14,28.3Z" style="fill:#fff"/><path d="M174.78,20.36a5.56,5.56,0,0,1,1.06,3.72v7.4h-3.08V24.26a3.23,3.23,0,0,0-.53-2.05,2,2,0,0,0-1.66-.64,2.79,2.79,0,0,0-2.13.84,3.13,3.13,0,0,0-.8,2.24v6.83h-3.08V19.42h3v1.8a4.17,4.17,0,0,1,1.65-1.55,5,5,0,0,1,2.34-.54A4,4,0,0,1,174.78,20.36Z" style="fill:#fff"/><path d="M111.75,43.68V61.06h-3.11V53.51h-8.9v7.54H96.61V43.68h3.13V51h8.9V43.68Z" style="fill:#fff"/><path d="M124.17,49.94a5.18,5.18,0,0,1,1.23,3.8v7.32h-2.93V59.21a3.21,3.21,0,0,1-1.32,1.5,4,4,0,0,1-2.08.54,4.77,4.77,0,0,1-2.19-.49,3.87,3.87,0,0,1-1.55-1.36,3.43,3.43,0,0,1-.57-1.92,3.07,3.07,0,0,1,.68-2.1,4.07,4.07,0,0,1,2.21-1.11,20,20,0,0,1,4.22-.35h.62v-.57a2.48,2.48,0,0,0-.53-1.77A2.39,2.39,0,0,0,120.2,51a6.7,6.7,0,0,0-2,.33,10.41,10.41,0,0,0-2.06.92l-.86-2.12a9.49,9.49,0,0,1,2.44-1.06,9.63,9.63,0,0,1,2.71-.42A5.21,5.21,0,0,1,124.17,49.94Zm-2.48,8.27a3,3,0,0,0,.78-2.13v-.52H122a16.65,16.65,0,0,0-2.56.15,2.5,2.5,0,0,0-1.31.52,1.33,1.33,0,0,0-.39,1,1.67,1.67,0,0,0,.54,1.29,1.93,1.93,0,0,0,1.38.51A2.68,2.68,0,0,0,121.69,58.21Z" style="fill:#fff"/><path d="M130.74,60.49a5.12,5.12,0,0,1-2.13-2.17,7,7,0,0,1-.74-3.28,6.9,6.9,0,0,1,.78-3.32,5.46,5.46,0,0,1,2.21-2.23,6.66,6.66,0,0,1,3.3-.79,7.89,7.89,0,0,1,2.5.41,5.27,5.27,0,0,1,2,1.1l-.89,2.17a6.15,6.15,0,0,0-1.61-.94,4.86,4.86,0,0,0-1.69-.32,3.14,3.14,0,0,0-2.49,1,5,5,0,0,0,0,5.72,3.14,3.14,0,0,0,2.49,1,4.86,4.86,0,0,0,1.69-.32,5.74,5.74,0,0,0,1.61-.94l.89,2.14a5.53,5.53,0,0,1-2,1.12,8.17,8.17,0,0,1-2.56.41A6.73,6.73,0,0,1,130.74,60.49Z" style="fill:#fff"/><path d="M148.82,61.06l-5.18-5.5v5.5h-3.08V43.68h3.08v10.6L148.5,49h3.75l-5.42,5.77,5.82,6.26Z" style="fill:#fff"/><path d="M172.34,58.49v2.56H160.66V58.71l5.92-6.36a10.29,10.29,0,0,0,1.52-2.08,4.14,4.14,0,0,0,.48-1.89,2.29,2.29,0,0,0-.68-1.79,2.89,2.89,0,0,0-2-.6,7.79,7.79,0,0,0-4.71,1.8l-1.06-2.32A7.72,7.72,0,0,1,162.8,44a9.94,9.94,0,0,1,3.24-.55,6.27,6.27,0,0,1,4.14,1.28,4.27,4.27,0,0,1,1.53,3.45,6.33,6.33,0,0,1-.64,2.82,12.67,12.67,0,0,1-2.17,3l-4.26,4.54Z" style="fill:#fff"/><path d="M187.15,58.49v2.56H175.47V58.71l5.92-6.36a10.29,10.29,0,0,0,1.52-2.08,4.14,4.14,0,0,0,.48-1.89,2.29,2.29,0,0,0-.68-1.79,2.89,2.89,0,0,0-2-.6,7.79,7.79,0,0,0-4.71,1.8L175,45.47A7.72,7.72,0,0,1,177.61,44a9.94,9.94,0,0,1,3.24-.55A6.27,6.27,0,0,1,185,44.73a4.27,4.27,0,0,1,1.53,3.45,6.33,6.33,0,0,1-.64,2.82,12.67,12.67,0,0,1-2.17,3l-4.26,4.54Z" style="fill:#fff"/><path d="M75.12,37.56A37.56,37.56,0,1,0,37.56,75.12L75,74.94S75.12,38.52,75.12,37.56Z" style="fill:#fff"/><polygon points="53.14 46.45 53.14 30.13 39.01 21.98 24.88 30.13 24.88 46.45 39.01 54.6 53.14 46.45" style="fill:#acca53"/><path d="M39,49.13l-9.39-5.42V32.87L39,27.45l9.39,5.42V43.71Zm-8-6.22,8,4.62,8-4.62V33.66L39,29l-8,4.62Z" style="fill:#fff"/><polygon points="27.87 57.86 16.14 57.86 16.14 18.72 27.87 18.72 27.87 20.9 18.32 20.9 18.32 55.68 27.87 55.68 27.87 57.86" style="fill:#0d4b76"/><polygon points="61.87 57.86 50.15 57.86 50.15 55.68 59.7 55.68 59.7 20.9 50.15 20.9 50.15 18.72 61.87 18.72 61.87 57.86" style="fill:#0d4b76"/><path d="M274.34,51.86v-14a.84.84,0,0,0-.13-.46l-1.48-2.48,1.48-2.48a.94.94,0,0,0,.13-.46V18a1.81,1.81,0,0,1,1.81-1.81h7.44V14.37h-7.44A3.59,3.59,0,0,0,272.56,18V31.73l-1.62,2.73a.88.88,0,0,0,0,.91l1.62,2.73V51.87a3.59,3.59,0,0,0,3.59,3.59h7.44V53.68h-7.44A1.82,1.82,0,0,1,274.34,51.86Z" style="fill:#fff"/><path d="M316.81,31.73V18a3.59,3.59,0,0,0-3.59-3.59h-7.44v1.78h7.44A1.81,1.81,0,0,1,315,18V32a.84.84,0,0,0,.13.46l1.48,2.48-1.48,2.48a.94.94,0,0,0-.13.46v14a1.81,1.81,0,0,1-1.81,1.81h-7.44v1.78h7.44a3.59,3.59,0,0,0,3.59-3.59V38.09l1.63-2.73a.88.88,0,0,0,0-.91Z" style="fill:#fff"/><path d="M308.1,41.76A2.68,2.68,0,1,0,305,38.85a2.64,2.64,0,0,0,.83,2.2,12.08,12.08,0,0,1-9.93,7.39V37.08a10.2,10.2,0,0,0,7.36-4.69,2.68,2.68,0,1,0-2.7-3.08,2.64,2.64,0,0,0,.54,2.05,7.81,7.81,0,0,1-5.2,3.33V23.58a2.68,2.68,0,1,0-2.38,0V34.69a7.77,7.77,0,0,1-5.21-3.33,2.64,2.64,0,0,0,.54-2.05,2.68,2.68,0,1,0-2.7,3.08,10.16,10.16,0,0,0,7.37,4.69V48.45a12.07,12.07,0,0,1-9.94-7.39,2.67,2.67,0,1,0-2.28.71,14.46,14.46,0,0,0,12.23,9.08V62.41h2.37V50.84A14.48,14.48,0,0,0,308.1,41.76Z" style="fill:#acca53"/><path d="M336,24.51a5.07,5.07,0,0,0,5.06-4V18.66h-5.61v1.59H339a2.81,2.81,0,0,1-2.94,2.39,3.12,3.12,0,0,1-3.23-3.41A3.09,3.09,0,0,1,336,15.85a2.59,2.59,0,0,1,2.43,1.34h2.39A4.76,4.76,0,0,0,336,13.94a5.13,5.13,0,0,0-5.28,5.3A5.13,5.13,0,0,0,336,24.51Z" style="fill:#acca53"/><path d="M344.68,20.33c0-1.59.74-2.06,2-2.06h.55V16.09a2.86,2.86,0,0,0-2.52,1.39V16.2H342.6v8.22h2.08Z" style="fill:#acca53"/><path d="M352.19,24.56A3.81,3.81,0,0,0,356,21.84h-2.24a1.7,1.7,0,0,1-1.65,1,1.92,1.92,0,0,1-2-1.9h6a5.39,5.39,0,0,0,.06-.8,3.86,3.86,0,0,0-4.05-4.07,4,4,0,0,0-4.12,4.24A4,4,0,0,0,352.19,24.56Zm-.06-6.78a1.83,1.83,0,0,1,2,1.77h-3.9A1.91,1.91,0,0,1,352.13,17.78Z" style="fill:#acca53"/><path d="M361.35,24.56a3.81,3.81,0,0,0,3.84-2.72H363a1.7,1.7,0,0,1-1.65,1,1.92,1.92,0,0,1-2-1.9h6a5.39,5.39,0,0,0,.06-.8,3.86,3.86,0,0,0-4-4.07,4,4,0,0,0-4.12,4.24A4,4,0,0,0,361.35,24.56Zm-.06-6.78a1.83,1.83,0,0,1,2,1.77h-3.9A1.9,1.9,0,0,1,361.29,17.78Z" style="fill:#acca53"/><path d="M369,19.88a1.78,1.78,0,0,1,1.85-2c1.1,0,1.82.71,1.82,2v4.54h2.08V19.6c0-2.27-1.36-3.52-3.28-3.52A3.08,3.08,0,0,0,369,17.22v-1H366.9v8.22H369V19.88Z" style="fill:#acca53"/><path d="M333.14,35.85c0-.85.61-1.25,1.42-1.22A1.36,1.36,0,0,1,336,35.86h2.28c-.13-1.87-1.59-3-3.71-3S331,34,331,35.91c0,3.75,5.33,2.4,5.33,4.64,0,.74-.58,1.26-1.56,1.26a1.42,1.42,0,0,1-1.57-1.38h-2.23c0,2,1.69,3.09,3.84,3.09,2.36,0,3.66-1.47,3.66-3.1C338.45,36.77,333.14,37.93,333.14,35.85Z" style="fill:#acca53"/><path d="M344,35.07a4.07,4.07,0,0,0-4.23,4.24,4,4,0,0,0,4.17,4.24,4.11,4.11,0,0,0,4.29-4.24A4.05,4.05,0,0,0,344,35.07Zm-.06,6.67c-1.11,0-2.06-.8-2.06-2.43a2.13,2.13,0,0,1,2.09-2.43A2.16,2.16,0,0,1,346,39.31,2.18,2.18,0,0,1,343.89,41.74Z" style="fill:#acca53"/><path d="M352,43.42V36.91h1.44V35.2H352v-.34c0-.92.34-1.25,1.35-1.22V31.89c-2.31-.06-3.46.88-3.46,2.89v.42H349v1.71h.93v6.51Z" style="fill:#acca53"/><path d="M359.09,41.67h-1c-.65,0-.88-.24-.88-.79v-4h1.84V35.2h-1.84v-2h-2.09v2h-1v1.71h1v4c0,1.88,1,2.55,2.63,2.55h1.31V41.67Z" style="fill:#acca53"/><polygon points="371.98 35.2 370 35.2 368.54 41.45 367 35.2 364.8 35.2 363.23 41.46 361.78 35.2 359.67 35.2 362.09 43.42 364.34 43.42 365.84 37.68 367.34 43.42 369.58 43.42 371.98 35.2" style="fill:#acca53"/><path d="M379.05,42.22v1.2h2.09V35.2h-2.09v1.17a3.25,3.25,0,0,0-2.71-1.31c-2.09,0-3.75,1.65-3.75,4.21s1.66,4.27,3.74,4.27A3.22,3.22,0,0,0,379.05,42.22Zm-2.18-.49a2.25,2.25,0,0,1-2.17-2.45,2.19,2.19,0,0,1,2.17-2.39,2.21,2.21,0,0,1,2.18,2.42A2.21,2.21,0,0,1,376.87,41.73Z" style="fill:#acca53"/><path d="M387.77,35.08a2.86,2.86,0,0,0-2.52,1.39V35.19h-2.08v8.22h2.08V39.32c0-1.59.74-2.06,2-2.06h.55Z" style="fill:#acca53"/><path d="M392.76,35.07a4,4,0,0,0-4.12,4.24,4,4,0,0,0,4.12,4.24,3.81,3.81,0,0,0,3.84-2.72h-2.24a1.7,1.7,0,0,1-1.65,1,1.92,1.92,0,0,1-2-1.9h6a5.39,5.39,0,0,0,.06-.8A3.85,3.85,0,0,0,392.76,35.07Zm-2,3.47a1.91,1.91,0,0,1,1.94-1.77,1.83,1.83,0,0,1,2,1.77Z" style="fill:#acca53"/><polygon points="331.21 62.41 333.29 62.41 333.29 58.04 336.59 58.04 336.59 56.39 333.29 56.39 333.29 53.73 337.6 53.73 337.6 52.06 331.21 52.06 331.21 62.41" style="fill:#acca53"/><path d="M342.78,54.06a4.07,4.07,0,0,0-4.23,4.24,4,4,0,0,0,4.17,4.24A4.11,4.11,0,0,0,347,58.3,4.06,4.06,0,0,0,342.78,54.06Zm-.06,6.68c-1.11,0-2.06-.8-2.06-2.43a2.13,2.13,0,0,1,2.09-2.43,2.16,2.16,0,0,1,2.12,2.43A2.18,2.18,0,0,1,342.72,60.74Z" style="fill:#acca53"/><path d="M354.21,58.72c0,1.32-.71,2-1.84,2s-1.82-.71-1.82-2V54.2h-2.08V59a3.16,3.16,0,0,0,3.29,3.5,3,3,0,0,0,2.45-1.14v1h2.09V54.2h-2.09v4.52Z" style="fill:#acca53"/><path d="M362.9,54.07a3.08,3.08,0,0,0-2.48,1.14v-1h-2.08v8.22h2.08V57.87a1.78,1.78,0,0,1,1.85-2c1.1,0,1.82.71,1.82,2v4.54h2.08V57.59C366.18,55.32,364.82,54.07,362.9,54.07Z" style="fill:#acca53"/><path d="M374.08,55.34a3.37,3.37,0,0,0-2.69-1.28c-2.11,0-3.77,1.65-3.77,4.21s1.66,4.27,3.75,4.27a3.1,3.1,0,0,0,2.7-1.35v1.22h2.11v-11h-2.11v3.91Zm-2.17,5.38a2.25,2.25,0,0,1-2.17-2.45,2.19,2.19,0,0,1,2.17-2.39,2.43,2.43,0,0,1,0,4.84Z" style="fill:#acca53"/><path d="M384.15,55.37a3.25,3.25,0,0,0-2.71-1.31c-2.09,0-3.75,1.65-3.75,4.21s1.66,4.27,3.74,4.27a3.22,3.22,0,0,0,2.73-1.34v1.2h2.09V54.18h-2.09v1.19ZM382,60.72a2.25,2.25,0,0,1-2.17-2.45A2.19,2.19,0,0,1,382,55.88a2.43,2.43,0,0,1,0,4.84Z" style="fill:#acca53"/><path d="M390.7,52.16h-2.09v2h-1V55.9h1v4c0,1.88,1.05,2.55,2.63,2.55h1.31V60.66h-1c-.65,0-.88-.24-.88-.79v-4h1.84V54.18h-1.84v-2Z" style="fill:#acca53"/><path d="M395.09,50.78A1.22,1.22,0,1,0,396.37,52,1.22,1.22,0,0,0,395.09,50.78Z" style="fill:#acca53"/><rect x="394.04" y="54.19" width="2.08" height="8.22" style="fill:#acca53"/><path d="M401.87,54.06a4.07,4.07,0,0,0-4.23,4.24,4,4,0,0,0,4.17,4.24,4.11,4.11,0,0,0,4.29-4.24A4.06,4.06,0,0,0,401.87,54.06Zm-.06,6.68c-1.11,0-2.06-.8-2.06-2.43a2.13,2.13,0,0,1,2.09-2.43A2.16,2.16,0,0,1,404,58.31,2.18,2.18,0,0,1,401.81,60.74Z" style="fill:#acca53"/><path d="M412.18,54.07a3.08,3.08,0,0,0-2.48,1.14v-1h-2.08v8.22h2.08V57.87a1.78,1.78,0,0,1,1.85-2c1.1,0,1.82.71,1.82,2v4.54h2.08V57.59C415.46,55.32,414.1,54.07,412.18,54.07Z" style="fill:#acca53"/><path d="M238.62,48.41H222.1a10.88,10.88,0,0,1-10.85-10.85h0A10.88,10.88,0,0,1,222.1,26.71h16.52a10.88,10.88,0,0,1,10.85,10.85h0A10.88,10.88,0,0,1,238.62,48.41Z" style="fill:#fff"/><g style="isolation:isolate"><path d="M223.84,42.33H222.6V31.43h1.34v3.89a2.63,2.63,0,0,1,2.16-1.06,3.22,3.22,0,0,1,1.38.29,2.76,2.76,0,0,1,1.07.83,4,4,0,0,1,.66,1.28,5.2,5.2,0,0,1,.24,1.6,4.53,4.53,0,0,1-1,3.14A3.15,3.15,0,0,1,226,42.51a2.51,2.51,0,0,1-2.2-1.17Zm0-4a4.11,4.11,0,0,0,.38,2.06,1.92,1.92,0,0,0,3.23.27,3.45,3.45,0,0,0,.64-2.27,3.52,3.52,0,0,0-.61-2.29,1.88,1.88,0,0,0-1.49-.73,1.9,1.9,0,0,0-1.51.76A3.32,3.32,0,0,0,223.83,38.32Z" style="fill:#0d4b76"/><path d="M231,45.38l-.15-1.26a3,3,0,0,0,.77.12,1.47,1.47,0,0,0,.71-.15,1.18,1.18,0,0,0,.44-.42,6.84,6.84,0,0,0,.41-1,2.35,2.35,0,0,1,.12-.33l-3-7.92h1.44L233.41,39q.32.87.57,1.83a17.11,17.11,0,0,1,.55-1.8l1.69-4.61h1.34l-3,8a15.08,15.08,0,0,1-.75,1.79,2.6,2.6,0,0,1-.82,1,1.87,1.87,0,0,1-1.1.31A2.63,2.63,0,0,1,231,45.38Z" style="fill:#0d4b76"/></g></svg>