<svg width="68" height="57" viewBox="0 0 68 57" fill="none" xmlns="http://www.w3.org/2000/svg">
<path d="M28.6099 25.42H0.709961V56.63H28.6099V25.42Z" fill="white"/>
<path d="M46.8698 10.17H18.9697V55.63H46.8698V10.17Z" fill="#006D68"/>
<path d="M67.3502 0.119995H39.4502V55.63H67.3502V0.119995Z" fill="#AECC53"/>
<path d="M67.3499 53.72H0.709961V56.63H67.3499V53.72Z" fill="white"/>
<path d="M53.3999 34.23C49.6599 34.23 46.6099 31.19 46.6099 27.44C46.6099 23.94 52.1899 16.69 52.8299 15.87C53.0999 15.52 53.6898 15.52 53.9698 15.87C54.6098 16.69 60.1899 23.94 60.1899 27.44C60.1899 31.18 57.1399 34.23 53.3999 34.23ZM53.3999 17.51C51.5099 20.05 48.0599 25.15 48.0599 27.44C48.0599 30.39 50.4599 32.78 53.3999 32.78C56.3499 32.78 58.7399 30.38 58.7399 27.44C58.7399 25.15 55.2899 20.05 53.3999 17.51Z" fill="white"/>
<path d="M53.3997 38.24C52.9997 38.24 52.6797 37.92 52.6797 37.52V26.86C52.6797 26.46 52.9997 26.14 53.3997 26.14C53.7997 26.14 54.1197 26.46 54.1197 26.86V37.52C54.1197 37.91 53.7997 38.24 53.3997 38.24Z" fill="white"/>
</svg>
