<svg width="411" height="103" viewBox="0 0 411 103" fill="none" xmlns="http://www.w3.org/2000/svg">
<g clip-path="url(#clip0_811_1071)">
<path d="M183.804 16.4602C185.088 16.7625 186.373 17.0774 187.658 17.3796C186.02 18.2991 184.396 19.2185 182.746 20.1379" fill="#374151"/>
<path d="M183.804 16.4602C185.088 16.7625 186.373 17.0774 187.658 17.3796C186.02 18.2991 184.396 19.2185 182.746 20.1379" fill="#ADCB53"/>
<path d="M173.236 18.2487C167.241 18.2109 158.714 18.2613 158.714 18.3999C158.714 23.992 163.248 28.5388 168.853 28.5388C172.884 28.5388 176.372 26.1835 177.997 22.7703C175.579 22.5058 173.627 20.6418 173.236 18.2487Z" fill="white"/>
<path d="M173.161 17.367C173.161 16.5106 173.363 15.7045 173.715 14.9866C170.214 10.9814 166.146 6.43464 166.07 6.51021C162.103 9.999 161.7 16.0446 165.201 20.0246C168.085 23.2993 172.695 24.1305 176.461 22.3672C174.521 21.5234 173.161 19.6089 173.161 17.367Z" fill="#AECC53"/>
<path d="M178.589 22.7956C181.587 22.7956 184.018 20.3647 184.018 17.3671C184.018 14.3695 181.587 11.9387 178.589 11.9387C175.592 11.9387 173.161 14.3695 173.161 17.3671C173.161 20.3647 175.592 22.7956 178.589 22.7956Z" stroke="#ADCB53" stroke-width="1.0466" stroke-miterlimit="10" stroke-linecap="round" stroke-linejoin="round"/>
<path d="M172.077 103H93.3208" stroke="#ADCB53" stroke-width="1.0466" stroke-miterlimit="10" stroke-linecap="round" stroke-linejoin="round"/>
<path d="M109.732 102.61V88.5789" stroke="#ADCB53" stroke-width="1.0466" stroke-linecap="round" stroke-linejoin="round"/>
<path d="M112.213 88.6921C112.213 87.3193 111.105 86.2109 109.732 86.2109C108.359 86.2109 107.251 87.3193 107.251 88.6921C107.251 90.065 108.359 91.1733 109.732 91.1733C111.105 91.1733 112.213 90.065 112.213 88.6921Z" fill="#ADCB53"/>
<path d="M131.157 102.61V88.5789" stroke="#ADCB53" stroke-width="1.0466" stroke-linecap="round" stroke-linejoin="round"/>
<path d="M131.157 91.1733C132.527 91.1733 133.638 90.0625 133.638 88.6921C133.638 87.3218 132.527 86.2109 131.157 86.2109C129.786 86.2109 128.675 87.3218 128.675 88.6921C128.675 90.0625 129.786 91.1733 131.157 91.1733Z" fill="#ADCB53"/>
<path d="M374.515 101.35V88.5789" stroke="white" stroke-width="1.0466" stroke-linecap="round" stroke-linejoin="round"/>
<path d="M374.515 91.1733C375.886 91.1733 376.997 90.0625 376.997 88.6921C376.997 87.3218 375.886 86.2109 374.515 86.2109C373.145 86.2109 372.034 87.3218 372.034 88.6921C372.034 90.0625 373.145 91.1733 374.515 91.1733Z" fill="white"/>
<path d="M84.9836 103H54.3149" stroke="#ADCB53" stroke-width="1.0466" stroke-miterlimit="10" stroke-linecap="round" stroke-linejoin="round"/>
<path d="M394.453 59.3586H410.814C411.078 57.8849 411.217 56.3861 411.217 54.837C411.217 53.6782 411.041 52.3306 410.726 50.8444H394.453C392.69 50.8444 391.267 49.4086 391.267 47.6579C391.267 45.9072 392.702 44.4713 394.453 44.4713H408.849C407.905 41.8012 406.708 38.9296 405.386 35.9572H394.453C392.69 35.9572 391.267 34.5213 391.267 32.7706C391.267 31.0074 392.702 29.5841 394.453 29.5841H395.221C395.448 29.6975 395.587 29.7101 395.624 29.5841H402.375C400.965 26.7125 399.479 23.8408 398.005 21.07H397.803H394.453C392.69 21.07 391.254 19.6341 391.254 17.8834C391.254 16.1201 392.69 14.6843 394.453 14.6843H394.529C389.692 5.99381 385.674 -0.47998 385.674 -0.47998C385.674 -0.47998 385.637 -0.417007 385.574 -0.316247C385.511 -0.429602 385.473 -0.47998 385.473 -0.47998C385.473 -0.47998 381.468 5.99381 376.619 14.6843H376.682C378.445 14.6843 379.881 16.1201 379.881 17.8834C379.881 19.6467 378.445 21.07 376.682 21.07H373.331H373.13C371.656 23.8282 370.17 26.7125 368.759 29.5841H376.682C378.445 29.5841 379.868 31.0199 379.868 32.7706C379.868 34.5339 378.432 35.9572 376.682 35.9572H365.749C364.414 38.917 363.23 41.8012 362.273 44.4713H376.669C378.432 44.4713 379.856 45.9072 379.856 47.6579C379.856 49.4086 378.42 50.8444 376.669 50.8444H360.396C360.082 52.3306 359.905 53.6782 359.905 54.837C359.905 56.3861 360.056 57.8975 360.308 59.3586H376.669C378.432 59.3586 379.856 60.7944 379.856 62.5451C379.856 64.3084 378.42 65.7442 376.669 65.7442H362.361C365.963 73.3515 373.218 78.9059 381.858 80.1276C382.967 80.1276 387.211 80.3291 389.251 80.1276C397.892 78.9059 405.146 73.3641 408.748 65.7442H394.44C392.677 65.7442 391.254 64.3084 391.254 62.5451C391.254 60.7944 392.69 59.3586 394.453 59.3586Z" fill="#ADCB53"/>
<path d="M385.562 48.1741V102.219" stroke="white" stroke-width="1.0466" stroke-miterlimit="10" stroke-linecap="round" stroke-linejoin="round"/>
<path d="M85.16 43.8792C85.7394 39.8615 85.5882 35.6673 84.6058 31.4858C80.3865 13.5884 62.4514 2.49229 44.554 6.71159C26.6566 10.9309 15.5604 28.8661 19.7797 46.7635C23.9612 64.5097 41.6194 75.5555 59.3656 71.6385C59.5168 71.6007 59.6805 71.5629 59.8317 71.5251C67.6279 69.6863 74.1394 65.2402 78.6484 59.3332M56.4183 57.0409C46.5187 59.371 36.6065 53.2373 34.2639 43.3377C31.9338 33.438 38.0676 23.5258 47.9672 21.1832C57.8668 18.8531 67.779 24.9868 70.1216 34.8865C72.4643 44.7861 66.3179 54.7109 56.4183 57.0409Z" stroke="#C8D3DD" stroke-width="1.0466" stroke-miterlimit="10"/>
<path d="M56.4184 57.0409C46.5188 59.3709 36.6066 53.2372 34.2639 43.3376C33.7224 41.0579 33.6468 38.7782 33.9491 36.5867C29.4023 34.4707 24.6288 32.8586 19.7798 31.4731C18.6336 36.3474 18.5581 41.5491 19.7798 46.7508C23.9613 64.4971 41.6195 75.5428 59.3657 71.6258C59.5169 71.588 60.1466 71.4369 60.1466 71.4369L56.7333 56.9401C56.7333 56.9653 56.5191 57.0157 56.4184 57.0409Z" fill="white" stroke="white" stroke-width="0.3249" stroke-miterlimit="10"/>
<path d="M23.1173 22.8838C23.1173 22.8838 22.8906 23.2994 22.7772 23.5135C19.4144 29.8362 18.0794 37.2672 19.3767 44.7738C19.49 45.4287 19.7796 46.7512 19.7796 46.7512L34.2638 43.338C33.2184 38.892 33.8733 34.4585 35.813 30.6926C35.9011 30.5163 36.1026 30.1511 36.1026 30.1511L23.1173 22.8838Z" fill="#ADCB53" stroke="#ADCB53" stroke-width="1.0466" stroke-miterlimit="10"/>
<path d="M237.684 22.4175L241.689 27.1028V102.761L238.062 98.0752L237.684 22.4175Z" fill="white"/>
<path d="M288.266 5.20044L291.906 9.89835V103L288.266 98.3148V5.20044Z" fill="white"/>
<path d="M288.266 5.20044L291.906 9.89835L322.562 9.60867L317.435 5.20044H288.266Z" fill="#ADCB53"/>
<path d="M271.817 102.484L271.514 27.0149H241.324L241.626 102.748L271.817 102.484Z" stroke="#ADCB53" stroke-width="1.0466" stroke-miterlimit="10" stroke-linecap="round" stroke-linejoin="round"/>
<path d="M257.169 27.0149C257.748 29.1308 258.177 31.3601 257.522 33.4635C256.867 35.5669 254.877 37.5065 252.295 37.7332C245.771 38.3 244.284 31.7758 242.03 27.2668" stroke="#ADCB53" stroke-width="1.0466" stroke-miterlimit="10"/>
<path d="M264.222 27.0652C264.448 31.7757 264.411 39.2193 258.579 41.8516C256.942 42.5947 255.053 42.494 253.415 43.1867C252.433 43.6023 252.962 43.2749 252.181 44.0306C251.551 44.6477 251.425 45.3656 250.493 45.8064C249.65 46.2095 248.692 46.3228 247.748 46.411C246.992 46.474 246.211 46.5244 245.468 46.348C243.969 45.9828 242.533 44.421 241.513 43.2749" stroke="#ADCB53" stroke-width="1.0466" stroke-miterlimit="10"/>
<path d="M271.603 49.2073C271.187 52.6205 268.379 56.0211 264.915 56.462C264.172 56.5501 263.303 56.4871 262.849 55.8826C262.648 55.6181 262.56 55.278 262.434 54.9506C261.338 52.1419 258.303 51.9278 256.224 53.6533C254.209 55.3158 252.559 57.2932 251.388 59.447C250.229 61.5881 249.537 63.893 248.189 65.9459C246.841 67.9989 244.637 69.863 241.866 70.14" stroke="#ADCB53" stroke-width="1.0466" stroke-miterlimit="10" stroke-linecap="round" stroke-linejoin="round"/>
<path d="M271.426 67.8854C270.356 69.422 269.021 71.5505 266.791 71.0089C266.187 70.8578 265.557 70.6689 265.129 70.2281C264.285 69.3842 264.474 67.9988 264.146 66.8526C263.567 64.8374 261.25 63.6535 259.159 63.9306C257.081 64.2077 255.305 65.6561 254.133 67.3942C250.393 72.9864 250.594 84.1832 241.652 84.221" stroke="#ADCB53" stroke-width="1.0466" stroke-miterlimit="10" stroke-linecap="round" stroke-linejoin="round"/>
<path d="M271.275 83.5662C268.063 86.4252 266.211 81.2361 263.768 80.3671C258.818 78.5786 254.234 84.4856 252.924 87.6469C252.067 89.6999 252.319 92.1811 250.228 93.7303C248.05 95.355 243.767 95.544 241.538 94.0074" stroke="#ADCB53" stroke-width="1.0466" stroke-miterlimit="10" stroke-linecap="round" stroke-linejoin="round"/>
<path d="M241.538 50.0008C242.546 49.8749 244.51 49.7741 245.505 49.9252C247.243 50.1897 249.108 50.9958 249.775 52.6206C250.392 54.0942 249.838 55.8323 248.956 57.1547C246.752 60.4546 245.191 62.8854 241.664 64.9384" stroke="#ADCB53" stroke-width="1.0466" stroke-miterlimit="10"/>
<path d="M252.836 102.496C253.693 101.64 254.272 100.532 254.663 99.3855C255.758 96.136 255.444 92.4205 257.207 89.4859C257.963 88.2264 259.096 87.181 260.469 86.6646C261.842 86.1482 263.454 86.2238 264.701 86.9921C266.993 88.4027 267.434 91.4759 267.648 94.1586C267.837 96.5139 267.346 100.469 268.794 102.459" stroke="#ADCB53" stroke-width="1.0466" stroke-miterlimit="10"/>
<path d="M271.539 33.8538C271.224 35.7178 269.373 36.9269 268.038 38.262C266.703 39.597 265.242 40.8691 264.398 42.5569C263.995 43.3755 263.743 44.2572 263.655 45.164C263.579 46.0079 263.705 46.9651 264.348 47.5193C264.889 47.9979 265.683 48.0734 266.375 47.9097C267.068 47.746 267.698 47.3681 268.302 46.9903C269.348 46.3479 270.393 45.7056 271.439 45.0758" stroke="#ADCB53" stroke-width="1.0466" stroke-miterlimit="10"/>
<path d="M322.562 102.421L322.259 9.98657H292.069L292.384 102.748L322.562 102.421Z" stroke="#ADCB53" stroke-width="1.0466" stroke-miterlimit="10"/>
<path d="M307.914 9.98657C308.493 12.1025 308.921 14.3318 308.266 16.4352C307.611 18.5385 305.609 20.4782 303.039 20.7049C301.667 20.8308 299.991 20.0499 298.795 20.7049C297.75 21.2842 297.284 22.3548 297.057 23.3876C296.818 24.4204 296.742 25.4909 296.2 26.4356C295.47 27.6825 293.644 28.4885 292.183 27.5565" stroke="#ADCB53" stroke-width="1.0466" stroke-miterlimit="10"/>
<path d="M314.979 10.0369C315.206 14.7474 315.168 22.191 309.337 24.8233C307.649 25.5916 305.596 25.5664 303.883 26.2843C301.037 27.4683 299.878 30.2895 298.581 32.7203C297.334 35.0504 295.822 37.456 292.396 36.8515" stroke="#ADCB53" stroke-width="1.0466" stroke-miterlimit="10"/>
<path d="M322.259 23.249C321.579 28.3752 321 31.6247 315.949 34.5593C312.347 36.6626 309.249 34.3326 305.659 35.7558C301.755 37.305 298.77 41.1212 299.022 45.2902C299.261 49.245 296.578 52.7086 292.598 53.1116" stroke="#ADCB53" stroke-width="1.0466" stroke-miterlimit="10"/>
<path d="M322.259 49.4087C321.239 51.1593 318.228 52.0914 315.987 51.6002C311.742 50.6807 310.571 44.6604 304.676 48.2247C302.082 49.7865 301.024 52.6833 301.188 55.3661C301.263 56.4744 301.502 57.5702 301.452 58.6785C301.288 62.2681 296.918 67.1675 292.371 67.1927" stroke="#ADCB53" stroke-width="1.0466" stroke-miterlimit="10"/>
<path d="M322.448 65.7822C319.236 68.6412 316.957 64.2204 314.513 63.3387C309.563 61.5503 304.979 67.4573 303.669 70.6186C302.813 72.6716 303.064 75.1528 300.974 76.702C298.795 78.3267 294.513 78.5156 292.283 76.979" stroke="#ADCB53" stroke-width="1.0466" stroke-miterlimit="10"/>
<path d="M322.272 76.8278C321.226 76.8026 320.206 76.3995 319.413 75.732C318.732 75.1526 318.216 74.3592 317.41 73.9687C316.717 73.6412 315.911 73.6538 315.168 73.8302C312.032 74.5859 310.269 77.9361 309.538 81.0723C308.971 83.4527 308.77 85.9213 308.921 88.3647C309.022 89.9013 309.274 91.4883 310.13 92.7729C311.327 94.5866 313.531 95.5187 315.697 95.6824C317.863 95.8461 320.005 95.3297 322.108 94.7755" stroke="#ADCB53" stroke-width="1.0466" stroke-miterlimit="10"/>
<path d="M292.51 85.1152C294.538 85.1782 296.314 85.2538 298.14 86.148C302.813 88.4277 302.926 95.9469 304.967 100.078C305.282 100.708 305.596 101.338 306.088 101.829C306.579 102.32 307.284 102.66 307.964 102.534" stroke="#ADCB53" stroke-width="1.0466" stroke-miterlimit="10"/>
<path d="M292.51 92.6848C294.74 92.6974 296.679 94.234 298.014 95.8587C299.463 97.6346 300.495 99.9143 300.571 102.232" stroke="#ADCB53" stroke-width="1.0466" stroke-miterlimit="10"/>
<path d="M221.071 44.3203H190.944V102.736H221.071V44.3203Z" stroke="#C8D3DD" stroke-width="1.0466" stroke-miterlimit="10" stroke-linecap="round" stroke-linejoin="round"/>
<path d="M196.927 75.543C196.222 75.1525 195.68 74.5984 195.303 73.893C194.925 73.1877 194.736 72.3565 194.736 71.4244C194.736 70.4924 194.925 69.6737 195.303 68.9684C195.68 68.2631 196.222 67.7215 196.927 67.3311C197.633 66.9406 198.464 66.7517 199.409 66.7517C200 66.7517 200.58 66.8399 201.147 67.0288C201.701 67.2051 202.167 67.457 202.519 67.7593L201.776 69.447C201.021 68.918 200.252 68.6535 199.472 68.6535C198.728 68.6535 198.162 68.8928 197.771 69.3589C197.381 69.8249 197.179 70.5176 197.179 71.4496C197.179 72.3816 197.381 73.0744 197.771 73.5404C198.162 74.0064 198.728 74.2457 199.472 74.2457C200.252 74.2457 201.033 73.9812 201.776 73.4522L202.519 75.1399C202.167 75.4422 201.713 75.6815 201.147 75.8704C200.58 76.0594 200.013 76.1475 199.409 76.1475C198.464 76.1223 197.633 75.9208 196.927 75.543Z" fill="#C8D3DD"/>
<path d="M205.48 75.543C204.787 75.1525 204.258 74.6109 203.893 73.9056C203.515 73.2003 203.338 72.369 203.338 71.4244C203.338 70.4672 203.527 69.6485 203.893 68.9432C204.27 68.2379 204.799 67.6963 205.48 67.3185C206.172 66.9406 206.978 66.7517 207.91 66.7517C208.842 66.7517 209.661 66.9406 210.341 67.3185C211.034 67.6963 211.55 68.2379 211.928 68.9432C212.293 69.6485 212.482 70.4798 212.482 71.4244C212.482 72.3816 212.293 73.2003 211.928 73.9056C211.55 74.6109 211.021 75.1525 210.341 75.543C209.649 75.9334 208.842 76.1223 207.923 76.1223C206.978 76.1223 206.172 75.9334 205.48 75.543ZM209.535 73.553C209.926 73.0618 210.114 72.3565 210.114 71.4244C210.114 70.4924 209.913 69.7871 209.523 69.2959C209.132 68.8173 208.59 68.5654 207.91 68.5654C207.218 68.5654 206.676 68.8047 206.286 69.2833C205.895 69.7619 205.706 70.4798 205.706 71.4118C205.706 72.3565 205.895 73.0744 206.286 73.553C206.676 74.0316 207.218 74.2835 207.91 74.2835C208.603 74.2961 209.145 74.0442 209.535 73.553Z" fill="#C8D3DD"/>
<path d="M217.268 79.2207V80.329H213.515V79.2962L215.253 77.4826C215.581 77.1299 215.757 76.815 215.757 76.5253C215.757 76.1727 215.543 75.9963 215.127 75.9963C214.926 75.9963 214.712 76.0341 214.472 76.1223C214.233 76.2105 214.006 76.3238 213.767 76.475L213.339 75.4925C213.553 75.3162 213.83 75.1777 214.17 75.0769C214.51 74.9762 214.863 74.9258 215.215 74.9258C215.593 74.9258 215.933 74.9888 216.223 75.1147C216.513 75.2407 216.739 75.417 216.891 75.6437C217.042 75.8704 217.13 76.1349 217.13 76.4372C217.13 76.7394 217.067 77.0291 216.941 77.281C216.815 77.5329 216.601 77.8226 216.311 78.1375L215.241 79.2332H217.268V79.2207Z" fill="#C8D3DD"/>
<path d="M221.072 44.3203H190.945L187.317 39.635H217.432L221.072 44.3203Z" stroke="#C8D3DD" stroke-width="1.0466" stroke-miterlimit="10" stroke-linecap="round" stroke-linejoin="round"/>
<path d="M187.317 39.635L190.945 44.3203V102.748L187.317 98.0503V39.635Z" stroke="#C8D3DD" stroke-width="1.0466" stroke-miterlimit="10" stroke-linecap="round" stroke-linejoin="round"/>
<path d="M271.515 27.1028H241.325L237.697 22.4175H266.615L271.704 26.599C271.905 26.7627 271.792 27.1028 271.515 27.1028Z" fill="#ADCB53"/>
<path d="M106.533 51.3986C105.387 53.5145 104.72 55.9202 104.695 58.4895C104.594 66.8652 114.922 76.261 119.733 76.261C126.232 76.261 135.212 67.18 135.212 58.6785C135.212 55.1897 134.041 51.978 132.076 49.4086C131.144 48.1869 130.905 46.5621 131.496 45.1389C132.114 43.6653 132.454 42.0406 132.454 40.3402C132.454 37.4434 131.471 34.7859 129.821 32.6699C128.789 31.3349 128.6 29.5338 129.368 28.035C130.099 26.5992 130.502 24.987 130.502 23.2615C130.502 17.4301 124.103 5.80493 119.96 5.80493C116.32 5.80493 109.418 17.4301 109.418 23.2615C109.418 24.9744 109.833 26.5992 110.551 28.035C111.32 29.5464 111.13 31.3349 110.098 32.6699C108.448 34.7859 107.465 37.4434 107.465 40.3402C107.465 42.0406 107.805 43.6527 108.423 45.1389C109.015 46.5621 108.788 48.1743 107.856 49.396C107.352 50.0257 106.924 50.6933 106.533 51.3986Z" stroke="#ADCB53" stroke-width="1.0466" stroke-miterlimit="10" stroke-linecap="round" stroke-linejoin="round"/>
<path d="M119.947 19.2437V103" stroke="#ADCB53" stroke-width="1.0466" stroke-miterlimit="10" stroke-linecap="round" stroke-linejoin="round"/>
<path d="M349.464 102.257H405.033" stroke="white" stroke-width="1.0466" stroke-miterlimit="10" stroke-linecap="round" stroke-linejoin="round"/>
</g>
<defs>
<clipPath id="clip0_811_1071">
<rect width="410.94" height="102.83" fill="white"/>
</clipPath>
</defs>
</svg>
