<svg id="faa3fc5b-d557-4313-945f-32b362592e89" data-name="Layer 1" xmlns="http://www.w3.org/2000/svg" width="410.94" height="102.83" viewBox="0 0 410.94 102.83"><line x1="211.84" y1="100.66" x2="211.84" y2="0.66" style="fill:none;stroke:#aecc53;stroke-linecap:round;stroke-linejoin:round;stroke-width:1.2999999523162842px"/><path d="M375.18,82.17H341.25A14.65,14.65,0,0,1,326.6,67.52V33.59a14.65,14.65,0,0,1,14.65-14.65h33.93a14.65,14.65,0,0,1,14.65,14.65V67.52A14.65,14.65,0,0,1,375.18,82.17Z" style="fill:none;stroke:#00e5ff;stroke-linecap:round;stroke-linejoin:round;stroke-width:1.2999999523162842px"/><path d="M375,78.41H341.44a11.07,11.07,0,0,1-11.07-11.07V33.78a11.07,11.07,0,0,1,11.07-11.07H375a11.07,11.07,0,0,1,11.07,11.07V67.34A11.07,11.07,0,0,1,375,78.41Z" style="fill:none;stroke:#aecc53;stroke-linecap:round;stroke-linejoin:round;stroke-width:1.2999999523162842px"/><path d="M358.15,31.26c0-1.57-1.25-4.52-4.26-3.76a26,26,0,0,0-5,1.81,8.33,8.33,0,0,0-2.85,2l-.29,0a3.5,3.5,0,0,0-1,.39,2.43,2.43,0,0,0-1.27,2.43l-.74.56-.7.53a6.63,6.63,0,0,0-1.5,1.8,6.86,6.86,0,0,0-.81,4.29.06.06,0,0,0,0,0A3.61,3.61,0,0,0,338.16,44a7.86,7.86,0,0,0,.16,1.87,4,4,0,0,1,.07.5,2.24,2.24,0,0,1-.39.61,3.46,3.46,0,0,0-.36.51,6.92,6.92,0,0,0-.55,1.43,5.62,5.62,0,0,0,0,3,6.44,6.44,0,0,0,.7,1.52,3.11,3.11,0,0,0,.22.33c.17.24.18.25.12.47s-.12.37-.18.55a3.8,3.8,0,0,0-.29,1.68c.07.85.52,2.81,1.73,3.35a4.06,4.06,0,0,0-.42,1.05,3.28,3.28,0,0,0,.19,1.81,6.18,6.18,0,0,0,2,2.83.38.38,0,0,1,.09.09s0,.1,0,.15h0a3.83,3.83,0,0,0,1.82,4,3.74,3.74,0,0,0,2.45.59c.19,1.05,1.43,1.79,2.25,2.09a5.47,5.47,0,0,0,3.59.4,2.27,2.27,0,0,0,1.73.87,5.63,5.63,0,0,0,.8,0,3.7,3.7,0,0,0,2.52-.85c1.66-1.44,1.71-4.39,1.75-6.54v-.12C358.2,65.22,358.15,31.26,358.15,31.26Z" style="fill:none;stroke:#aecc53;stroke-linecap:round;stroke-linejoin:round"/><path d="M343.88,61.94a13.59,13.59,0,0,0,2.72,3.85,15.28,15.28,0,0,0,6.15,4.31,2.1,2.1,0,0,0,2.15-3.5,26.17,26.17,0,0,0-2.9-2.44,11,11,0,0,1-2.79-3.36,3.35,3.35,0,0,1-.3-1" style="fill:none;stroke:#aecc53;stroke-linecap:round;stroke-linejoin:round"/><path d="M342.17,62.63a1.88,1.88,0,1,1,2.39,1.16A1.88,1.88,0,0,1,342.17,62.63Z" style="fill:#aecc53"/><path d="M350.8,59.65a1.88,1.88,0,1,0-1.62,2.11A1.89,1.89,0,0,0,350.8,59.65Z" style="fill:#aecc53"/><path d="M347.84,45.39a11.34,11.34,0,0,0-1.23,3.76A10.62,10.62,0,0,0,346.4,53c.26,1.29,1.91,2.53,3.21,1.64s1-3.47,1.23-4.87c.17-1,.88-2.74,2.07-2.89,2.1-.26,2.11,2,2,3.47-.27,3.29-2,5.82.27,8.62a4.48,4.48,0,0,0,2.9,1.58" style="fill:none;stroke:#aecc53;stroke-linecap:round;stroke-linejoin:round"/><path d="M346.44,44.18a1.88,1.88,0,1,1,.06,2.66A1.88,1.88,0,0,1,346.44,44.18Z" style="fill:#aecc53"/><path d="M358,41.32a3,3,0,0,1-3.23-3.47,6.52,6.52,0,0,1,.42-1.27A2.29,2.29,0,1,0,351,34.83c-.18.4-.36.82-.55,1.23l-.07.15c-.63,1.35-1.58,4-3.49,3.8-1.6-.13-1.7-2.34-1-3.35.12-.17.25-.35.36-.52a3.59,3.59,0,0,0,.53-1.5" style="fill:none;stroke:#aecc53;stroke-linecap:round;stroke-linejoin:round"/><path d="M348.56,34.36a1.88,1.88,0,1,0-1.46,2.22A1.87,1.87,0,0,0,348.56,34.36Z" style="fill:#aecc53"/><path d="M339.59,41.31a3.73,3.73,0,0,1,2.17.1,1.82,1.82,0,0,1,1.16,1.15,6.31,6.31,0,0,1-.45,3.53,12.86,12.86,0,0,0-.36,1.28,26.66,26.66,0,0,0-.59,5,27.19,27.19,0,0,0,.15,3.91" style="fill:none;stroke:#aecc53;stroke-linecap:round;stroke-linejoin:round"/><path d="M339.82,56.53a1.88,1.88,0,1,0,1.51-2.19A1.89,1.89,0,0,0,339.82,56.53Z" style="fill:#aecc53"/><path d="M358.28,31.26c0-1.57,1.25-4.52,4.26-3.76a26,26,0,0,1,5,1.81,8.33,8.33,0,0,1,2.85,2l.29,0a3.5,3.5,0,0,1,1,.39A2.43,2.43,0,0,1,373,34.13l.74.56.7.53a6.63,6.63,0,0,1,1.5,1.8,6.86,6.86,0,0,1,.81,4.29.06.06,0,0,1,0,0A3.61,3.61,0,0,1,378.27,44a7.86,7.86,0,0,1-.16,1.87,4,4,0,0,0-.07.5,2.24,2.24,0,0,0,.39.61,3.46,3.46,0,0,1,.36.51,6.92,6.92,0,0,1,.55,1.43,5.62,5.62,0,0,1,0,3,6.44,6.44,0,0,1-.7,1.52,3.11,3.11,0,0,1-.22.33c-.17.24-.18.25-.12.47s.12.37.18.55a3.8,3.8,0,0,1,.29,1.68c-.07.85-.52,2.81-1.73,3.35a4.06,4.06,0,0,1,.42,1.05,3.28,3.28,0,0,1-.19,1.81,6.18,6.18,0,0,1-2,2.83.38.38,0,0,0-.09.09s0,.1,0,.15h0a3.83,3.83,0,0,1-1.82,4,3.74,3.74,0,0,1-2.45.59c-.19,1.05-1.43,1.79-2.25,2.09a5.47,5.47,0,0,1-3.59.4,2.27,2.27,0,0,1-1.73.87,5.63,5.63,0,0,1-.8,0,3.7,3.7,0,0,1-2.52-.85c-1.66-1.44-1.71-4.39-1.75-6.54v-.12C358.24,65.22,358.28,31.26,358.28,31.26Z" style="fill:none;stroke:#aecc53;stroke-linecap:round;stroke-linejoin:round"/><path d="M372.55,61.94a13.59,13.59,0,0,1-2.72,3.85,15.28,15.28,0,0,1-6.15,4.31,2.1,2.1,0,0,1-2.15-3.5,26.17,26.17,0,0,1,2.9-2.44,11,11,0,0,0,2.79-3.36,3.35,3.35,0,0,0,.3-1" style="fill:none;stroke:#aecc53;stroke-linecap:round;stroke-linejoin:round"/><path d="M370.71,61.41a1.88,1.88,0,1,1,1.16,2.39A1.88,1.88,0,0,1,370.71,61.41Z" style="fill:#aecc53"/><path d="M369.36,60.15a1.88,1.88,0,1,0-2.11,1.62A1.88,1.88,0,0,0,369.36,60.15Z" style="fill:#aecc53"/><path d="M368.6,45.39a11.34,11.34,0,0,1,1.23,3.76A10.62,10.62,0,0,1,370,53c-.26,1.29-1.91,2.53-3.21,1.64s-1-3.47-1.23-4.87c-.17-1-.88-2.74-2.07-2.89-2.1-.26-2.11,2-2,3.47.27,3.29,2,5.82-.27,8.62a4.48,4.48,0,0,1-2.9,1.58" style="fill:none;stroke:#aecc53;stroke-linecap:round;stroke-linejoin:round"/><path d="M367.28,46.77a1.88,1.88,0,1,1,2.66.06A1.88,1.88,0,0,1,367.28,46.77Z" style="fill:#aecc53"/><path d="M358.46,41.32a3,3,0,0,0,3.23-3.47,6.52,6.52,0,0,0-.42-1.27,2.29,2.29,0,1,1,4.21-1.75c.18.4.36.82.55,1.23l.07.15c.63,1.35,1.58,4,3.49,3.8,1.6-.13,1.7-2.34,1-3.35-.12-.17-.25-.35-.36-.52a3.59,3.59,0,0,1-.53-1.5" style="fill:none;stroke:#aecc53;stroke-linecap:round;stroke-linejoin:round"/><path d="M371.55,35.12a1.88,1.88,0,1,0-2.22,1.46A1.87,1.87,0,0,0,371.55,35.12Z" style="fill:#aecc53"/><path d="M376.84,41.31a3.73,3.73,0,0,0-2.17.1,1.82,1.82,0,0,0-1.16,1.15,6.31,6.31,0,0,0,.45,3.53,12.86,12.86,0,0,1,.36,1.28,26.66,26.66,0,0,1,.59,5,27.19,27.19,0,0,1-.15,3.91" style="fill:none;stroke:#aecc53;stroke-linecap:round;stroke-linejoin:round"/><path d="M372.91,55.85a1.88,1.88,0,1,0,2.19-1.51A1.88,1.88,0,0,0,372.91,55.85Z" style="fill:#aecc53"/><path d="M401.48,48.1a5.94,5.94,0,1,1,0-11.88c3.28,0,8.81,5.94,8.81,5.94S404.76,48.1,401.48,48.1Z" style="fill:none;stroke:#aecc53;stroke-linecap:round;stroke-linejoin:round;stroke-width:1.2999999523162842px"/><path d="M401.48,64.89a5.94,5.94,0,1,1,0-11.88c3.28,0,8.81,5.94,8.81,5.94S404.76,64.89,401.48,64.89Z" style="fill:none;stroke:#aecc53;stroke-linecap:round;stroke-linejoin:round;stroke-width:1.2999999523162842px"/><line x1="402.84" y1="59.05" x2="389.83" y2="59.05" style="fill:none;stroke:#00e5ff;stroke-linecap:round;stroke-linejoin:round;stroke-width:1.2999999523162842px"/><path d="M402.77,57.58a1.47,1.47,0,1,1-1.47,1.47A1.47,1.47,0,0,1,402.77,57.58Z" style="fill:#00e5ff"/><line x1="402.84" y1="42.04" x2="389.83" y2="42.04" style="fill:none;stroke:#00e5ff;stroke-linecap:round;stroke-linejoin:round;stroke-width:1.2999999523162842px"/><path d="M402.77,40.57A1.47,1.47,0,1,1,401.3,42,1.47,1.47,0,0,1,402.77,40.57Z" style="fill:#00e5ff"/><line x1="326.6" y1="62.99" x2="311.96" y2="62.99" style="fill:none;stroke:#00e5ff;stroke-linecap:round;stroke-linejoin:round;stroke-width:1.2999999523162842px"/><circle cx="312.03" cy="62.99" r="1.47" style="fill:#00e5ff"/><line x1="326.6" y1="38.13" x2="311.96" y2="38.13" style="fill:none;stroke:#00e5ff;stroke-linecap:round;stroke-linejoin:round;stroke-width:1.2999999523162842px"/><circle cx="312.03" cy="38.13" r="1.47" style="fill:#00e5ff"/><line x1="326.6" y1="50.56" x2="311.96" y2="50.56" style="fill:none;stroke:#00e5ff;stroke-linecap:round;stroke-linejoin:round;stroke-width:1.2999999523162842px"/><circle cx="312.03" cy="50.56" r="1.47" style="fill:#00e5ff"/><circle cx="288.83" cy="31.19" r="15.88" style="fill:none;stroke:#00e5ff;stroke-linecap:round;stroke-linejoin:round;stroke-width:1.2999999523162842px"/><circle cx="288.83" cy="31.19" r="12.82" style="fill:#acca53"/><path d="M290.47,22.21,289,32.62l-1.7-1.6,6.32-.29,2.07-.1L288,42.09l4.82-10.85,1,1.49L287.65,34l-1.68.35c0-1.07-.12-11.12-.13-12.46,0,0,4.63.3,4.63.3Z" style="fill:#0d4b76"/><path d="M295.89.66a7.56,7.56,0,0,0,7.49,6.54h0a9,9,0,0,1,8.95,9V79.3A14.53,14.53,0,0,1,297.8,93.83H279.61a7.56,7.56,0,0,0-7.56,7.56" style="fill:none;stroke:#00e5ff;stroke-linecap:round;stroke-linejoin:round;stroke-width:1.2999999523162842px"/><path d="M264,100.66V16.15A9,9,0,0,1,272.9,7.2h0A7.56,7.56,0,0,0,280.39.66" style="fill:none;stroke:#00e5ff;stroke-linecap:round;stroke-linejoin:round;stroke-width:1.2999999523162842px"/><path d="M255.85,100.66V12.17a9,9,0,0,1,9-8.95h0A7.5,7.5,0,0,0,270.47.65" style="fill:none;stroke:#00e5ff;stroke-linecap:round;stroke-linejoin:round;stroke-width:1.2999999523162842px"/><path d="M247.28,100.66V8.3a8.45,8.45,0,0,1,4-7.64" style="fill:none;stroke:#00e5ff;stroke-linecap:round;stroke-linejoin:round;stroke-width:1.2999999523162842px"/><circle cx="288.83" cy="68.96" r="15.88" style="fill:none;stroke:#00e5ff;stroke-linecap:round;stroke-linejoin:round;stroke-width:1.2999999523162842px"/><circle cx="288.83" cy="68.96" r="12.82" style="fill:#acca53"/><path d="M295.41,69.17a6.59,6.59,0,0,1-13.17.11c0-3.63,6.51-9.83,6.51-9.83S295.38,65.53,295.41,69.17Z" style="fill:#0d4b76"/><line x1="288.81" y1="67.52" x2="288.91" y2="78.48" style="fill:none;stroke:#fff;stroke-linecap:round;stroke-linejoin:round;stroke-width:1.048699975013733px"/><circle cx="247.43" cy="78.51" r="1.77" style="fill:#00e5ff"/><circle cx="247.43" cy="56.71" r="1.77" style="fill:#00e5ff"/><line x1="179.35" y1="26.74" x2="189.34" y2="26.74" style="fill:none;stroke:#00e5ff;stroke-linecap:round;stroke-linejoin:round;stroke-width:1.2999999523162842px"/><line x1="179.35" y1="50.58" x2="189.34" y2="50.58" style="fill:none;stroke:#00e5ff;stroke-linecap:round;stroke-linejoin:round;stroke-width:1.2999999523162842px"/><line x1="179.35" y1="74.42" x2="189.34" y2="74.42" style="fill:none;stroke:#00e5ff;stroke-linecap:round;stroke-linejoin:round;stroke-width:1.2999999523162842px"/><circle cx="172.75" cy="50.66" r="6.6" style="fill:none;stroke:#fff;stroke-linecap:round;stroke-linejoin:round;stroke-width:1.6252000331878662px"/><circle cx="172.59" cy="74.42" r="6.6" style="fill:none;stroke:#fff;stroke-linecap:round;stroke-linejoin:round;stroke-width:1.6252000331878662px"/><circle cx="172.75" cy="26.9" r="6.6" style="fill:none;stroke:#fff;stroke-linecap:round;stroke-linejoin:round;stroke-width:1.6252000331878662px"/><line x1="200.43" y1="100.66" x2="200.43" y2="0.66" style="fill:none;stroke:#aecc53;stroke-linecap:round;stroke-linejoin:round;stroke-width:1.2999999523162842px"/><path d="M228,43.13c-1.16,7-7.38,15.19-16.14,15.19" style="fill:none;stroke:#aecc53;stroke-linecap:round;stroke-linejoin:round;stroke-width:1.2999999523162842px"/><path d="M225.56,43a2.45,2.45,0,1,1,2.2,2.67A2.45,2.45,0,0,1,225.56,43Z" style="fill:#aecc53"/><path d="M220.9,26.34c-.79,6.13-4.75,8.78-9,8.78" style="fill:none;stroke:#aecc53;stroke-linecap:round;stroke-linejoin:round;stroke-width:1.2999999523162842px"/><path d="M218.44,26.29a2.44,2.44,0,1,1,2.27,2.6A2.44,2.44,0,0,1,218.44,26.29Z" style="fill:#aecc53"/><path d="M234,65.3c-1.41,9.83-11.64,16.78-21.88,16.78" style="fill:none;stroke:#aecc53;stroke-linecap:round;stroke-linejoin:round;stroke-width:1.2999999523162842px"/><path d="M231.56,65.22a2.44,2.44,0,1,1,2.23,2.64A2.44,2.44,0,0,1,231.56,65.22Z" style="fill:#aecc53"/><circle cx="221.05" cy="24.02" r="4.39" style="fill:#acca53"/><circle cx="228.23" cy="41.6" r="4.39" style="fill:#acca53"/><circle cx="234.2" cy="64.52" r="4.39" style="fill:#acca53"/><line x1="189.88" y1="100.66" x2="189.88" y2="0.66" style="fill:none;stroke:#00e5ff;stroke-linecap:round;stroke-linejoin:round;stroke-width:1.2999999523162842px"/><path d="M119.61,100.94v-28a5.8,5.8,0,0,1,5.8-5.8h0a5.8,5.8,0,0,1,5.8,5.8l0,17a5.8,5.8,0,0,0,5.8,5.8h0a5.8,5.8,0,0,0,5.8-5.8v-17a5.8,5.8,0,0,1,5.8-5.8h.2a5.8,5.8,0,0,1,5.8,5.8v28.6" style="fill:none;stroke:#aecc53;stroke-linecap:round;stroke-linejoin:round;stroke-width:1.2999999523162842px"/><line x1="9.87" y1="100.66" x2="9.87" y2="68.15" style="fill:none;stroke:#fff;stroke-linecap:round;stroke-linejoin:round;stroke-width:1.3950999975204468px"/><circle cx="9.87" cy="68.28" r="2.62" style="fill:#fff"/><line x1="17.12" y1="100.66" x2="17.12" y2="79.02" style="fill:none;stroke:#fff;stroke-linecap:round;stroke-linejoin:round;stroke-width:1.3950999975204468px"/><circle cx="17.12" cy="79.15" r="2.62" style="fill:#fff"/><line x1="2.62" y1="100.66" x2="2.62" y2="79.02" style="fill:none;stroke:#fff;stroke-linecap:round;stroke-linejoin:round;stroke-width:1.3950999975204468px"/><circle cx="2.62" cy="79.15" r="2.62" style="fill:#fff"/><path d="M90.67,72.78h6.59a16.33,16.33,0,0,0,15.17-10.43,13.53,13.53,0,0,0,.35-8.46L102.46,16.76c-2.38-8.58-14.55-8.58-16.93,0-4.15,14.9-8.62,30.92-10.35,37.12a13.52,13.52,0,0,0,.34,8.48A16.29,16.29,0,0,0,90.67,72.78Z" style="fill:none;stroke:#aecc53;stroke-linecap:round;stroke-linejoin:round;stroke-width:1.2999999523162842px"/><path d="M87.36,39.09a6.73,6.73,0,0,0,13.21,0" style="fill:none;stroke:#fff;stroke-linecap:round;stroke-linejoin:round;stroke-width:1.1828999519348145px"/><path d="M86,39.29a1.33,1.33,0,1,1,1.46,1.19A1.33,1.33,0,0,1,86,39.29Z" style="fill:#fff"/><path d="M101.88,39.29a1.33,1.33,0,1,0-1.46,1.19A1.33,1.33,0,0,0,101.88,39.29Z" style="fill:#fff"/><path d="M84,48.9A10,10,0,0,0,94,57.63h0a10,10,0,0,0,9.92-8.74" style="fill:none;stroke:#fff;stroke-linecap:round;stroke-linejoin:round;stroke-width:1.1828999519348145px"/><path d="M82.73,49.06a1.33,1.33,0,1,1,1.43,1.23A1.33,1.33,0,0,1,82.73,49.06Z" style="fill:#fff"/><path d="M105.19,49.06a1.33,1.33,0,1,0-1.43,1.23A1.33,1.33,0,0,0,105.19,49.06Z" style="fill:#fff"/><line x1="93.96" y1="30.37" x2="93.96" y2="100.66" style="fill:none;stroke:#fff;stroke-linecap:round;stroke-linejoin:round;stroke-width:1.1828999519348145px"/><path d="M92.62,30.44A1.33,1.33,0,1,1,94,31.77,1.33,1.33,0,0,1,92.62,30.44Z" style="fill:#fff"/><path d="M56.32,90.53l5.45-11.44a7.09,7.09,0,0,1,12.8,0l10.58,22.14" style="fill:none;stroke:#00e7ff;stroke-linecap:round;stroke-linejoin:round;stroke-width:1.2999999523162842px"/><path d="M60.64,99q2.52-5.48,5-11A15.54,15.54,0,0,1,68.07,84,5.28,5.28,0,0,1,74,82.57a11.67,11.67,0,0,1,1.77.88l1.3.74" style="fill:none;stroke:#00e7ff;stroke-linecap:round;stroke-linejoin:round;stroke-width:1.2999999523162842px"/><path d="M45.94,102l5-10.54a3.3,3.3,0,0,1,6,0l5.1,10.7" style="fill:none;stroke:#00e7ff;stroke-linecap:round;stroke-linejoin:round;stroke-width:1.2999999523162842px"/><path d="M83.1,96.92c-1.16-2.14-2.84-4.86-5.58-4.81A6.32,6.32,0,0,0,73.42,94c-2.27,2.14-3.16,4.88-4.38,7.64" style="fill:none;stroke:#00e7ff;stroke-linecap:round;stroke-linejoin:round;stroke-width:1.2999999523162842px"/><path d="M36.81,67.68h0a15.65,15.65,0,0,1-15.6-15.6V32.71a15.65,15.65,0,0,1,15.6-15.6h0a15.65,15.65,0,0,1,15.6,15.6V52.08A15.65,15.65,0,0,1,36.81,67.68Z" style="fill:none;stroke:#fff;stroke-linecap:round;stroke-linejoin:round;stroke-width:1.3551000356674194px"/><path d="M44.24,34.64a7.59,7.59,0,0,1-7.43,6.17h0a7.59,7.59,0,0,1-7.43-6.17" style="fill:none;stroke:#aecc53;stroke-linecap:round;stroke-linejoin:round;stroke-width:1.2999999523162842px"/><path d="M42.76,34.56a1.46,1.46,0,1,1,1.31,1.6A1.46,1.46,0,0,1,42.76,34.56Z" style="fill:#aecc53"/><path d="M30.85,34.56a1.46,1.46,0,1,0-1.31,1.6A1.46,1.46,0,0,0,30.85,34.56Z" style="fill:#aecc53"/><path d="M48,44a11.28,11.28,0,0,1-11.15,9.85h0A11.28,11.28,0,0,1,25.66,44" style="fill:none;stroke:#aecc53;stroke-linecap:round;stroke-linejoin:round;stroke-width:1.2999999523162842px"/><path d="M46.48,43.94a1.46,1.46,0,0,1,1.57-1.35,1.47,1.47,0,0,1,1.36,1.57,1.47,1.47,0,0,1-2.93-.22Z" style="fill:#aecc53"/><path d="M27.14,43.94a1.46,1.46,0,0,0-1.57-1.35,1.47,1.47,0,0,0-1.36,1.57,1.47,1.47,0,0,0,2.93-.22Z" style="fill:#aecc53"/><line x1="36.81" y1="27.64" x2="36.81" y2="102.18" style="fill:none;stroke:#aecc53;stroke-linecap:round;stroke-linejoin:round;stroke-width:1.2999999523162842px"/><circle cx="36.81" cy="27.72" r="1.47" style="fill:#aecc53"/><path d="M148.15,30.91l4,.95-5.1,2.87" style="fill:#374151"/><path d="M148.15,30.91l4,.95-5.1,2.87" style="fill:#adcb53"/><path d="M143.15,32.91a10.53,10.53,0,1,1-21.06,0C122.1,32.69,143.15,32.69,143.15,32.91Z" style="fill:none;stroke:#00e7ff;stroke-linecap:round;stroke-linejoin:round"/><path d="M142.86,35.5a9.94,9.94,0,0,1-13.12-14.94C129.89,20.42,143,35.36,142.86,35.5Z" style="fill:#004b76;stroke:#adcb53;stroke-linecap:round;stroke-linejoin:round;stroke-width:0.9376999735832214px"/><path d="M142.74,37.48a5.64,5.64,0,1,0-5.64-5.64A5.64,5.64,0,0,0,142.74,37.48Z" style="fill:#004b76;stroke:#adcb53;stroke-linecap:round;stroke-linejoin:round;stroke-width:0.9376999735832214px"/><polygon points="148.26 33.65 150.86 37.02 146.8 35.76 148.26 33.65" style="fill:#adcb53"/><path d="M142.72,31.1a1.15,1.15,0,0,1,2.16,0" style="fill:none;stroke:#00e7ff;stroke-linecap:round;stroke-linejoin:round"/></svg>