<svg width="321" height="321" viewBox="0 0 321 321" fill="none" xmlns="http://www.w3.org/2000/svg">
<path d="M316.308 197.153C310.625 220.339 299.941 240.797 284.257 258.527C268.572 276.257 250.501 291.033 230.043 302.853C209.585 314.673 187.308 320.697 163.213 320.924C139.118 321.151 117.069 314.787 97.0653 301.83C77.0618 288.873 58.7632 274.098 42.1695 257.504C25.5757 240.91 15.6876 220.907 12.5053 197.494C9.32291 174.081 8.86828 150.44 11.1414 126.572C13.4145 102.705 23.1889 82.474 40.4646 65.8802C57.7403 49.2864 76.4936 34.9658 96.7243 22.9183C116.955 10.8708 139.459 3.48312 164.236 0.755375C189.013 -1.97237 212.312 2.68753 234.134 14.7351C255.956 26.7826 273.459 42.9217 286.643 63.1525C299.827 83.3832 309.488 104.978 315.626 127.936C321.763 150.895 321.99 173.967 316.308 197.153Z" fill="#AECC53"/>
<path d="M316.308 197.153C310.625 220.339 299.941 240.797 284.257 258.527C268.572 276.257 250.501 291.033 230.043 302.853C209.585 314.673 187.308 320.697 163.213 320.924C139.118 321.151 117.069 314.787 97.0653 301.83C77.0618 288.873 58.7632 274.098 42.1695 257.504C25.5757 240.91 15.6876 220.907 12.5053 197.494C9.32291 174.081 8.86828 150.44 11.1414 126.572C13.4145 102.705 23.1889 82.474 40.4646 65.8802C57.7403 49.2864 76.4936 34.9658 96.7243 22.9183C116.955 10.8708 139.459 3.48312 164.236 0.755375C189.013 -1.97237 212.312 2.68753 234.134 14.7351C255.956 26.7826 273.459 42.9217 286.643 63.1525C299.827 83.3832 309.488 104.978 315.626 127.936C321.763 150.895 321.99 173.967 316.308 197.153Z" fill="white" fill-opacity="0.75"/>
<path d="M236.344 247.214L216.513 205.568C207.171 185.962 179.266 185.962 169.923 205.568L130.05 289.296" stroke="#AECC53" stroke-width="3" stroke-linecap="round" stroke-linejoin="round"/>
<path d="M274.614 289.48L256.058 250.514C255.083 248.465 253.546 246.734 251.627 245.522C249.708 244.311 247.485 243.668 245.216 243.668C242.946 243.668 240.723 244.311 238.804 245.522C236.885 246.734 235.348 248.465 234.373 250.514L215.817 289.48" stroke="#AECC53" stroke-width="3" stroke-linecap="round" stroke-linejoin="round"/>
<path d="M56.6059 220.059H71.5608C79.0166 220.038 86.2924 217.766 92.435 213.54C98.5775 209.314 103.3 203.331 105.985 196.375C108.303 190.222 108.578 183.487 106.769 177.165L83.3514 92.8916C77.9369 73.4224 50.3321 73.4156 44.9107 92.8916C35.4932 126.709 25.346 163.083 21.4112 177.158C19.5931 183.49 19.8657 190.239 22.1886 196.403C24.877 203.352 29.6007 209.329 35.7416 213.549C41.8824 217.77 49.1544 220.039 56.6059 220.059Z" fill="#006D68" stroke="#006D68" stroke-linecap="round" stroke-linejoin="round"/>
<path d="M45.92 134.34C46.6215 138.647 48.8305 142.566 52.1529 145.396C55.4753 148.226 59.695 149.784 64.0595 149.792C68.424 149.784 72.6437 148.226 75.9661 145.396C79.2885 142.566 81.4974 138.647 82.199 134.34" stroke="#AECC53" stroke-width="4" stroke-linecap="round" stroke-linejoin="round"/>
<path d="M49.0568 134.21C49.0017 133.604 48.7681 133.028 48.3856 132.555C48.0031 132.082 47.4889 131.733 46.9081 131.552C46.3272 131.372 45.7058 131.367 45.1223 131.539C44.5389 131.712 44.0197 132.053 43.6305 132.521C43.2412 132.988 42.9993 133.561 42.9354 134.166C42.8715 134.771 42.9885 135.381 43.2715 135.92C43.5546 136.458 43.9909 136.901 44.5255 137.191C45.06 137.482 45.6687 137.607 46.2745 137.552C46.6769 137.516 47.0682 137.401 47.426 137.213C47.7838 137.025 48.1011 136.769 48.3596 136.459C48.6181 136.148 48.8128 135.79 48.9324 135.404C49.052 135.018 49.0943 134.612 49.0568 134.21Z" fill="#AECC53"/>
<path d="M79.1167 134.21C79.1719 133.604 79.4055 133.028 79.7879 132.555C80.1704 132.082 80.6846 131.733 81.2655 131.552C81.8463 131.372 82.4678 131.367 83.0512 131.539C83.6346 131.712 84.1538 132.053 84.5431 132.521C84.9323 132.988 85.1742 133.561 85.2381 134.166C85.302 134.771 85.185 135.381 84.902 135.92C84.619 136.458 84.1826 136.901 83.6481 137.191C83.1135 137.482 82.5049 137.607 81.899 137.552C81.4966 137.516 81.1053 137.401 80.7475 137.213C80.3897 137.025 80.0724 136.769 79.8139 136.459C79.5554 136.148 79.3608 135.79 79.2411 135.404C79.1215 135.018 79.0792 134.612 79.1167 134.21Z" fill="#AECC53"/>
<path d="M36.9321 161.126C37.6726 167.817 40.85 174.001 45.8583 178.498C50.8667 182.996 57.3554 185.493 64.0868 185.512V185.512C70.8178 185.491 77.3057 182.994 82.3137 178.497C87.3217 173.999 90.4996 167.816 91.2415 161.126" stroke="#AECC53" stroke-width="4" stroke-linecap="round" stroke-linejoin="round"/>
<path d="M40.0348 161.085C39.9974 160.479 39.7811 159.897 39.4132 159.413C39.0452 158.929 38.5422 158.565 37.9676 158.367C37.393 158.169 36.7725 158.145 36.1846 158.3C35.5967 158.454 35.0677 158.779 34.6644 159.234C34.261 159.688 34.0015 160.252 33.9184 160.854C33.8354 161.457 33.9327 162.07 34.1979 162.617C34.4632 163.164 34.8845 163.62 35.4088 163.927C35.933 164.235 36.5367 164.38 37.1434 164.345C37.959 164.296 38.7217 163.925 39.2638 163.313C39.806 162.702 40.0833 161.901 40.0348 161.085Z" fill="#AECC53"/>
<path d="M88.1386 161.085C88.1761 160.478 88.3927 159.896 88.761 159.412C89.1293 158.928 89.6327 158.564 90.2077 158.367C90.7827 158.169 91.4035 158.146 91.9915 158.301C92.5796 158.456 93.1085 158.781 93.5115 159.237C93.9145 159.692 94.1734 160.257 94.2556 160.859C94.3378 161.462 94.2395 162.075 93.9732 162.622C93.7069 163.168 93.2845 163.624 92.7595 163.931C92.2344 164.237 91.6302 164.381 91.0232 164.345C90.2089 164.294 89.4479 163.922 88.9072 163.311C88.3665 162.7 88.0901 161.9 88.1386 161.085Z" fill="#AECC53"/>
<path d="M64.0731 110.526V289.091" stroke="#AECC53" stroke-width="4" stroke-linecap="round" stroke-linejoin="round"/>
<path d="M64.0731 113.752C62.3746 113.752 60.9976 112.375 60.9976 110.677C60.9976 108.978 62.3746 107.601 64.0731 107.601C65.7717 107.601 67.1487 108.978 67.1487 110.677C67.1487 112.375 65.7717 113.752 64.0731 113.752Z" fill="#AECC53"/>
<path d="M1.59417 289.214H215.722" stroke="#AECC53" stroke-width="3" stroke-linecap="round" stroke-linejoin="round"/>
<path d="M235.498 289.296H281.188" stroke="#AECC53" stroke-width="3" stroke-linecap="round" stroke-linejoin="round"/>
<path d="M136.536 23.9412H181.707C184.859 23.9412 187.883 25.1934 190.112 27.4225C192.341 29.6516 193.593 32.6749 193.593 35.8273V74.0157C193.593 75.5763 193.286 77.1216 192.688 78.5633C192.091 80.005 191.215 81.3149 190.111 82.418C189.008 83.5212 187.697 84.3961 186.255 84.9927C184.813 85.5893 183.268 85.8959 181.707 85.895H168.996L159.121 95.7762L149.247 85.9018H136.536C134.975 85.9027 133.43 85.5961 131.987 84.9995C130.545 84.4029 129.235 83.5281 128.131 82.4249C127.027 81.3217 126.152 80.0118 125.554 78.5701C124.957 77.1284 124.649 75.5831 124.649 74.0225V35.8341C124.649 34.2726 124.955 32.7263 125.552 31.2834C126.149 29.8405 127.025 28.5294 128.128 27.4249C129.232 26.3205 130.543 25.4444 131.985 24.8466C133.428 24.2488 134.974 23.9412 136.536 23.9412V23.9412Z" stroke="#006D69" stroke-width="1.5" stroke-linecap="round" stroke-linejoin="round"/>
<path d="M159.346 47.0945C158.848 45.8261 158.889 44.3872 158.016 43.3438C156.434 41.448 154.048 40.2342 151.381 40.2342C146.615 40.2342 142.755 44.094 142.755 48.8607C142.755 48.9289 142.762 49.0039 142.768 49.0857C143.034 57.5826 158.385 70.9895 159.271 71.2145C159.292 71.2213 159.305 71.2282 159.312 71.2213C159.319 71.2282 159.339 71.2213 159.353 71.2145C160.178 71.0031 162.824 55.9733 159.346 47.0945Z" fill="#006D68"/>
<g style="mix-blend-mode:multiply">
<path d="M175.856 49.0857C175.863 49.0107 175.87 48.9357 175.87 48.8607C175.87 44.094 172.01 40.2342 167.243 40.2342C163.683 40.2342 160.635 42.3891 159.312 45.4578C153.959 55.9733 158.385 70.9895 159.271 71.2145C159.292 71.2213 159.305 71.2282 159.312 71.2213C159.319 71.2282 159.339 71.2213 159.353 71.2145C160.24 70.9895 175.59 57.5826 175.856 49.0857Z" fill="#AECC53"/>
</g>
<g style="mix-blend-mode:multiply">
<path d="M23.3139 243.661C24.1477 243.661 24.9473 243.33 25.5368 242.74C26.1264 242.15 26.4576 241.351 26.4576 240.517C26.4576 239.683 26.1264 238.884 25.5368 238.294C24.9473 237.705 24.1477 237.373 23.3139 237.373H7.21338C6.94775 235.904 6.81311 234.414 6.81104 232.92C6.83633 231.598 6.99858 230.281 7.2952 228.992H23.3139C24.1232 228.955 24.8869 228.607 25.4463 228.021C26.0057 227.435 26.3179 226.655 26.3179 225.845C26.3179 225.035 26.0057 224.256 25.4463 223.67C24.8869 223.084 24.1232 222.736 23.3139 222.698H9.14326C10.0775 220.073 11.2436 217.243 12.5529 214.317H23.3139C24.1477 214.317 24.9473 213.986 25.5368 213.396C26.1264 212.807 26.4576 212.007 26.4576 211.173C26.4576 210.34 26.1264 209.54 25.5368 208.95C24.9473 208.361 24.1477 208.03 23.3139 208.03H15.5194C16.8832 205.2 18.3699 202.37 19.8224 199.642H23.3139C24.1477 199.642 24.9473 199.311 25.5368 198.721C26.1264 198.132 26.4576 197.332 26.4576 196.498C26.4576 195.664 26.1264 194.865 25.5368 194.275C24.9473 193.686 24.1477 193.354 23.3139 193.354H23.2457C28.0192 184.796 31.9608 178.42 31.9608 178.42C31.9608 178.42 35.9092 184.796 40.676 193.354H40.6078C39.774 193.354 38.9744 193.686 38.3848 194.275C37.7952 194.865 37.464 195.664 37.464 196.498C37.464 197.332 37.7952 198.132 38.3848 198.721C38.9744 199.311 39.774 199.642 40.6078 199.642H44.1061C45.5586 202.37 47.018 205.2 48.4023 208.03H40.6078C39.774 208.03 38.9744 208.361 38.3848 208.95C37.7952 209.54 37.464 210.34 37.464 211.173C37.464 212.007 37.7952 212.807 38.3848 213.396C38.9744 213.986 39.774 214.317 40.6078 214.317H51.3755C52.6848 217.236 53.851 220.073 54.7852 222.698H40.6078C39.7984 222.736 39.0347 223.084 38.4753 223.67C37.9159 224.256 37.6038 225.035 37.6038 225.845C37.6038 226.655 37.9159 227.435 38.4753 228.021C39.0347 228.607 39.7984 228.955 40.6078 228.992H56.6332C56.9265 230.282 57.0887 231.598 57.1174 232.92C57.1154 234.414 56.9807 235.904 56.7151 237.373H40.6078C39.774 237.373 38.9744 237.705 38.3848 238.294C37.7952 238.884 37.464 239.683 37.464 240.517C37.464 241.351 37.7952 242.15 38.3848 242.74C38.9744 243.33 39.774 243.661 40.6078 243.661H54.7102C52.6738 247.971 49.4546 251.614 45.4276 254.166C41.4005 256.717 36.7314 258.071 31.9642 258.071C27.197 258.071 22.5279 256.717 18.5009 254.166C14.4739 251.614 11.2546 247.971 9.21827 243.661H23.3139Z" fill="#AECC53"/>
</g>
<path d="M32.2267 184.182V288.212" stroke="#006D69" stroke-width="1.5" stroke-linecap="round" stroke-linejoin="round"/>
<path d="M139.482 119.755L176.306 118.732V289.216H119.364L119.705 147.714L139.482 119.755Z" fill="#EDEDED"/>
<path d="M152.779 148.055L176.136 118.732L199.492 148.055V288.97H152.779V148.055Z" fill="white" stroke="#3C3C3B" stroke-width="1.5" stroke-miterlimit="10" stroke-linecap="round" stroke-linejoin="round"/>
<path d="M152.779 289.216V148.055L176.135 118.732" fill="white"/>
<path d="M152.779 289.216V148.055L176.135 118.732" stroke="#3C3C3B" stroke-width="1.5" stroke-miterlimit="10" stroke-linecap="round" stroke-linejoin="round"/>
<path d="M165.054 225.796H187.558V287.927H165.054V225.796Z" fill="#006D68" stroke="#006D68" stroke-miterlimit="10" stroke-linecap="round" stroke-linejoin="round"/>
<path d="M136.726 289.209C137.361 286.447 137.831 283.549 137.115 280.807C136.399 278.066 134.21 275.536 131.394 275.243C129.887 275.086 128.052 276.102 126.743 275.243C125.604 274.493 125.093 273.088 124.833 271.751C124.574 270.408 124.492 269.01 123.892 267.782C123.095 266.153 121.09 265.102 119.487 266.323" stroke="#3C3C3B" stroke-width="1.5092" stroke-miterlimit="10" stroke-linecap="round" stroke-linejoin="round"/>
<path d="M144.46 289.154C144.712 283.017 144.671 273.313 138.281 269.876C136.433 268.88 134.176 268.914 132.301 267.973C129.184 266.425 127.916 262.75 126.484 259.572C125.12 256.537 123.463 253.394 119.705 254.185" stroke="#3C3C3B" stroke-width="1.5092" stroke-miterlimit="10" stroke-linecap="round" stroke-linejoin="round"/>
<path d="M152.445 271.922C151.709 265.232 151.068 261.004 145.537 257.172C144.153 256.21 142.482 255.542 140.804 255.705C139.897 255.794 138.997 256.121 138.097 255.978C137.149 255.821 136.365 255.16 135.683 254.485C133.474 252.323 131.666 249.745 130.384 246.929C129.116 244.147 128.352 241.132 126.879 238.452C125.406 235.772 122.985 233.345 119.951 232.976" stroke="#3C3C3B" stroke-width="1.5092" stroke-miterlimit="10" stroke-linecap="round" stroke-linejoin="round"/>
<path d="M152.445 237.825C151.32 235.547 148.026 234.327 145.571 234.961C140.927 236.161 139.638 244.01 133.187 239.366C130.344 237.327 129.184 233.549 129.368 230.058C129.443 228.612 129.716 227.18 129.662 225.734C129.484 221.056 124.69 214.66 119.712 214.632" stroke="#3C3C3B" stroke-width="1.5092" stroke-miterlimit="10" stroke-linecap="round" stroke-linejoin="round"/>
<path d="M152.466 166.12C151.531 172.373 143.266 173.641 140.941 167.422C139.741 164.224 140.811 159.341 137.088 157.595C135.615 156.907 132.867 157.5 131.162 157.057C128.591 156.388 124.356 155.031 122.638 152.931C121.478 151.512 120.844 149.746 120.224 148.021" stroke="#3C3C3B" stroke-width="1.5092" stroke-miterlimit="10" stroke-linecap="round" stroke-linejoin="round"/>
<path d="M152.547 179.008C151.988 178.224 150.754 178.278 149.942 178.79C149.131 179.301 148.579 180.133 147.897 180.808C145.483 183.195 141.357 183.332 138.493 181.518C135.629 179.704 134.012 176.267 133.897 172.877C133.869 172.202 133.897 171.507 133.665 170.866C132.921 168.861 130.262 168.609 128.141 168.309C122.999 167.565 120.64 165.635 119.712 160.766" stroke="#3C3C3B" stroke-width="1.5092" stroke-miterlimit="10" stroke-linecap="round" stroke-linejoin="round"/>
<path d="M152.827 191.979C150.038 191.767 148.429 194.972 146.294 196.779C143.866 198.832 140.184 199.105 137.333 197.7C134.483 196.295 132.505 193.39 131.926 190.267C131.796 189.571 131.721 188.835 131.346 188.235C130.432 186.748 128.332 186.769 126.6 186.53C121.444 185.814 119.978 183.325 119.712 178.503" stroke="#3C3C3B" stroke-width="1.5092" stroke-miterlimit="10" stroke-linecap="round" stroke-linejoin="round"/>
<path d="M152.179 215.485C148.654 211.761 146.628 218.513 143.955 219.665C138.534 221.99 133.515 214.305 132.076 210.172C131.141 207.486 131.414 204.26 129.123 202.235C126.736 200.121 122.038 199.875 119.603 201.88" stroke="#3C3C3B" stroke-width="1.5092" stroke-miterlimit="10" stroke-linecap="round" stroke-linejoin="round"/>
<path d="M139.481 119.755L175.631 118.486L152.445 147.81L119.705 147.714L139.481 119.755Z" fill="#006D68" stroke="#006D68" stroke-width="1.5" stroke-miterlimit="10" stroke-linecap="round" stroke-linejoin="round"/>
<path d="M199.499 288.97L119.399 289.216L119.705 147.714" stroke="#3C3C3B" stroke-width="1.5" stroke-miterlimit="10" stroke-linecap="round" stroke-linejoin="round"/>
<path d="M152.779 287.606V148.055L176.136 118.732" fill="white"/>
<path d="M152.779 287.606V148.055L176.136 118.732" stroke="#3C3C3B" stroke-width="1.5" stroke-miterlimit="10" stroke-linecap="round" stroke-linejoin="round"/>
<path d="M152.547 147.789H119.814" stroke="#3C3C3B" stroke-width="1.5092" stroke-miterlimit="10" stroke-linecap="round" stroke-linejoin="round"/>
<path d="M263.935 268.79C259.543 266.84 257.197 269.779 255.588 273.516C253.435 278.502 251.98 283.762 251.264 289.146" stroke="#AECC53" stroke-width="3" stroke-linecap="round" stroke-linejoin="round"/>
<path d="M259.775 258.097C255.772 258.397 251.667 259.366 248.564 261.896C245.461 264.426 243.681 268.17 241.977 271.825C238.921 278.385 235.935 283.8 235.157 289.555" stroke="#AECC53" stroke-width="3" stroke-linecap="round" stroke-linejoin="round"/>
</svg>
