<svg width="119" height="103" viewBox="0 0 119 103" fill="none" xmlns="http://www.w3.org/2000/svg">
<path d="M117.358 62.9621C115.572 70.2572 112.215 76.6942 107.286 82.2728C102.357 87.8515 96.6782 92.5004 90.2492 96.2195C83.8202 99.9386 76.8197 101.834 69.2478 101.905C61.6758 101.977 54.7468 99.9744 48.4606 95.8977C42.1745 91.8209 36.4241 87.1721 31.2095 81.951C25.9948 76.7299 22.8875 70.4361 21.8874 63.0693C20.8873 55.7026 20.7445 48.2644 21.4588 40.7547C22.1731 33.2449 25.2448 26.8795 30.6737 21.6585C36.1026 16.4374 41.9959 11.9316 48.3535 8.14094C54.7111 4.3503 61.783 2.02586 69.5692 1.1676C77.3555 0.309346 84.6774 1.77553 91.535 5.56617C98.3926 9.3568 103.893 14.4348 108.036 20.8002C112.179 27.1656 115.215 33.9602 117.144 41.1838C119.073 48.4075 119.144 55.6669 117.358 62.9621Z" fill="#AECC53"/>
<path d="M117.358 62.9621C115.572 70.2572 112.215 76.6942 107.286 82.2728C102.357 87.8515 96.6782 92.5004 90.2492 96.2195C83.8202 99.9386 76.8197 101.834 69.2478 101.905C61.6758 101.977 54.7468 99.9744 48.4606 95.8977C42.1745 91.8209 36.4241 87.1721 31.2095 81.951C25.9948 76.7299 22.8875 70.4361 21.8874 63.0693C20.8873 55.7026 20.7445 48.2644 21.4588 40.7547C22.1731 33.2449 25.2448 26.8795 30.6737 21.6585C36.1026 16.4374 41.9959 11.9316 48.3535 8.14094C54.7111 4.3503 61.783 2.02586 69.5692 1.1676C77.3555 0.309346 84.6774 1.77553 91.535 5.56617C98.3926 9.3568 103.893 14.4348 108.036 20.8002C112.179 27.1656 115.215 33.9602 117.144 41.1838C119.073 48.4075 119.144 55.6669 117.358 62.9621Z" fill="white" fill-opacity="0.75"/>
<path d="M24.9327 74.1845C25.0692 72.9992 25.485 71.8683 26.1425 70.8942C26.8 69.9201 27.6785 69.1334 28.6984 68.6053C30.8843 67.5798 34.2638 68.0058 36.9494 70.3816C38.3858 71.6496 39.4755 73.9124 41.1145 74.5955C41.7155 74.8295 42.3602 74.9135 42.9976 74.8408C43.6349 74.7681 44.2474 74.5408 44.7866 74.1768C45.7695 73.5917 46.6306 72.8054 47.8613 72.5979C52.652 71.7801 53.2226 77.6028 50.4414 80.2683C48.973 81.5232 47.2648 82.4317 45.4325 82.9324C41.3185 84.308 36.8355 85.1447 32.7115 83.7997C29.2582 82.6751 25.4864 80.3899 24.9281 76.3443C24.8303 75.6279 24.8319 74.9004 24.9327 74.1845Z" stroke="#AECC53" stroke-width="0.85" stroke-linecap="round" stroke-linejoin="round"/>
<path d="M17.2621 66.9504C17.8941 65.7142 18.7505 64.6198 19.7829 63.7289C23.3179 60.6268 29.4372 58.7157 33.8254 60.8251C36.0387 61.8944 38.0423 63.9507 40.2471 65.0797C43.9123 66.9549 47.1089 65.8502 50.1763 65.1999C54.6241 64.2498 59.5313 66.2895 60.7471 71.1465C62.7173 78.8337 53.0882 89.0397 46.312 89.9059C40.4938 90.4556 34.6291 89.8363 29.0317 88.0813C24.7216 86.6456 20.7373 83.8333 18.4053 79.7775C16.0733 75.7217 15.2742 70.8963 17.2621 66.9504Z" stroke="#AECC53" stroke-width="0.85" stroke-linecap="round" stroke-linejoin="round"/>
<path d="M71.8197 74.4319C69.2925 81.0595 64.4118 86.4368 58.8228 90.5321C54.7324 93.5209 50.0832 95.9247 45.1146 96.309C41.0957 96.6402 37.0714 95.5912 33.1469 94.5651C28.3577 93.3174 23.5066 92.0461 19.1361 89.5938C14.7655 87.1415 10.8971 83.3935 9.24104 78.5103C7.38553 73.0451 8.5582 66.8509 11.1306 61.7219C13.703 56.5929 15.5449 52.6845 19.9962 49.2418C22.511 47.2915 25.1211 45.379 28.3342 45.2174C32.7388 45.0327 37.4748 46.7531 39.1025 51.3637C39.8941 53.6174 39.5902 56.2348 40.6587 58.3689C42.0459 61.1372 45.4564 62.2478 48.3849 61.769C50.2126 61.3926 51.9649 60.6885 53.5648 59.6875C55.0821 58.8339 56.24 57.4411 57.8605 56.8089C59.0868 56.3774 60.3671 56.1385 61.6599 56.0997C63.0652 55.9415 64.4865 56.0828 65.8386 56.5152C68.3452 57.5985 70.5874 59.2605 72.3987 61.3777C75.6727 65.4799 73.4608 70.1352 71.8197 74.4319Z" stroke="#AECC53" stroke-width="0.85" stroke-linecap="round" stroke-linejoin="round"/>
<path d="M26.6439 33.0167C30.3496 31.5497 34.6755 30.6615 38.6153 31.4788C42.5551 32.2961 43.3185 38.0505 42.9827 41.5424C42.7438 43.826 42.1483 46.2654 43.0086 48.3936C44.162 51.3154 47.5634 52.446 50.5736 52.5763C52.9452 52.6865 55.3185 52.4025 57.6056 51.7349C61.0075 50.7405 63.8436 50.1195 67.2598 51.2845C70.5393 52.3855 73.4897 54.3626 75.8217 57.0218C77.801 59.242 79.2319 61.9375 79.9893 64.8725C80.7466 67.8075 80.8074 70.8927 80.1663 73.8581C78.4875 81.1196 72.4156 84.9213 67.385 89.5717C61.0704 95.4386 53.8175 101.195 45.3673 101.537C36 101.898 26.2995 101.063 17.88 96.4252C6.78577 90.3001 -1.02323 76.5497 1.01099 63.1446C2.16096 55.66 6.46764 49.1072 11.4408 43.6089C15.7409 38.993 20.9219 35.3834 26.6439 33.0167V33.0167Z" stroke="#AECC53" stroke-width="0.85" stroke-linecap="round" stroke-linejoin="round"/>
</svg>
