<svg xmlns="http://www.w3.org/2000/svg" width="305.67" height="302.63" viewBox="0 0 305.67 302.63"><g style="isolation:isolate"><g id="b7583f0a-e732-4329-b135-63b6262fbb25" data-name="text"><path d="M202.36,9c-13.2-4.95-27-9.09-41.07-9-19,.08-37,7.75-54.32,15.64C75.16,30.16,50.08,52.91,24,76,2.9,94.71-.57,133.5.07,159.85c.08,3.18.15,6.37.3,9.56.44,9.83,1.5,19.62,4.94,28.78,5.52,14.69,18.33,27.08,28,39.17,10.47,13.08,20.73,24,34.82,33.34,16,10.58,38.78,28.74,58.47,30.41,24.78,2.1,43.75,3.11,67.57-4.32,25.37-7.91,53.17-19.45,71.43-39.67,9.57-10.61,15.82-25.75,22.95-38.08,13.9-24,19.66-50,16.09-77.65-3.75-28.95-15.12-51.13-27.11-77C262.12,31.16,235.06,21.29,202.36,9Z" style="fill:#aecc53;opacity:0.2"/><path d="M239.59,100.32c0,36.92-25.11,61.91-58,72.87-5.14,1.71-11.39,1.88-16.75,1.88a74.82,74.82,0,0,1-36.35-9.42c-5.22-2.91-9.71-6-13.27-10.79-3.22-4.32-7-6.8-10.8-10.6-3.38-3.33-5.76-8.83-7.69-13.09a74.78,74.78,0,0,1-6.64-30.85,78.12,78.12,0,0,1,5-27c2.49-6.79,7.92-12.28,11.51-18.42,3.76-6.42,8.92-11.17,15.11-15.48a76,76,0,0,1,43.09-13.8A74.76,74.76,0,0,1,231,65.47c2.93,5.54,4,11.53,5.13,17.62S239.59,94.16,239.59,100.32Z" style="fill:none;stroke:#aecc53;stroke-miterlimit:10;stroke-width:1.5px"/><path d="M90.39,95c2-2.92,6.43-5.12,9.85-5.75a23.37,23.37,0,0,1,5.39-.59A13.73,13.73,0,0,1,116,94.84c5,7.44,2.21,17.8.9,26-2.63,16.56,1,34,13.35,45.95" style="fill:none;stroke:#aecc53;stroke-linecap:round;stroke-linejoin:round;stroke-width:1.5px"/><path d="M96.26,71.81a27.72,27.72,0,0,1,23-2.13c7.31,2.73,12,10.29,14.14,17.53,3.89,13.25.68,26.25.34,39.73-.26,10.57,2.11,19.48,6.89,28.82,3.37,6.61,8.27,14.88,14.68,18.92" style="fill:none;stroke:#aecc53;stroke-linecap:round;stroke-linejoin:round;stroke-width:1.5px"/><path d="M218.34,151.32c-13.41,16.28-40.88,19.43-51.94-3-5.25-10.67-4.6-23-1.14-34.11,3.15-10.13,14-18.22,19.72-27.52,3.17-5.19,3-12.38,4.42-18.29a36.26,36.26,0,0,1,2.25-7.27,18.37,18.37,0,0,1,14.44-10.24C217.25,49.72,227.26,57,231.4,67" style="fill:none;stroke:#aecc53;stroke-linecap:round;stroke-linejoin:round;stroke-width:1.5px"/><path d="M180.13,138.72c2.59,4.72,7.69,8.27,13.06,8a18,18,0,0,0,7.6-2.41c14.05-7.54,21.79-24.13,21.47-40.08-.11-5.61-1.14-11.31-3.91-16.19s-7.45-8.86-13-9.88c-8.53-1.59-9.71,4.75-10.64,11.34-.85,6-2.37,8.94-6.39,13.22C179.77,111.85,173.43,126.56,180.13,138.72Z" style="fill:none;stroke:#aecc53;stroke-miterlimit:10;stroke-width:1.5px"/><path d="M193.88,115.86a13.42,13.42,0,0,0-1.38,6c.16,2.09,1.44,4.22,3.47,4.74,2.37.6,4.67-1.1,6.4-2.84a42.55,42.55,0,0,0,8.52-12.34c1.11-2.42,2-5.24,1-7.7C206.41,90.84,195.31,112.46,193.88,115.86Z" style="fill:none;stroke:#aecc53;stroke-miterlimit:10;stroke-width:1.5px"/><path d="M198.79,33.7c-15.71-2.29-26.09,15-27.15,28.38-.56,7.08,1.28,13.65-2,20.46C167,88,162,91.94,158.29,96.7c-17,21.55-8.85,63.74,15.35,77.52" style="fill:none;stroke:#aecc53;stroke-linecap:round;stroke-linejoin:round;stroke-width:1.5px"/><path d="M107,53.94a16.11,16.11,0,0,1,15.78-1,35.72,35.72,0,0,1,15.09,12.93c2.78,4.28,1.5,13.1,6.12,15.87a6.48,6.48,0,0,0,6.88-.59,13.23,13.23,0,0,0,4.27-5.81c6.67-15.52-4-41.22,16.24-49.74" style="fill:none;stroke:#aecc53;stroke-linecap:round;stroke-linejoin:round;stroke-width:1.5px"/><path d="M118.83,41.74c2.67-2.86,8.28-2.37,11.56-1.05,4.49,1.8,4.3,6.37,7.49,9.43A6.32,6.32,0,0,0,148.08,48a12.15,12.15,0,0,0,.41-6,29.94,29.94,0,0,1-.23-7.56c.47-3.06,2.56-6.68,5.68-7.72" style="fill:none;stroke:#aecc53;stroke-linecap:round;stroke-linejoin:round;stroke-width:1.5px"/><path d="M100.11,167.79l-9.08-.5a1.33,1.33,0,0,1-1.19-1.77l8.39-23.79a1.33,1.33,0,0,1,1.33-.89l9.08.5a1.34,1.34,0,0,1,1.19,1.78l-8.38,23.78A1.34,1.34,0,0,1,100.11,167.79Z" style="fill:#3c3c3b"/><line x1="103.34" y1="141.32" x2="107.34" y2="141.32" style="fill:none;stroke:#fff;stroke-linecap:round;stroke-miterlimit:10;stroke-width:2px"/><circle cx="257.34" cy="37.32" r="7.5" style="fill:none;stroke:#aecc53;stroke-miterlimit:10;stroke-width:4.73684210526339px;mix-blend-mode:multiply"/><circle cx="120.84" cy="185.82" r="5.5" style="fill:none;stroke:#aecc53;stroke-linecap:round;stroke-linejoin:round;stroke-width:1.5px"/><polygon points="64.27 276.53 88.84 276.82 75.84 267.82 62.37 199.98 24.42 196.82 14.27 276.53 37.64 276.82 27.33 269.05 46.56 220 64.27 276.53" style="fill:#006d68;stroke:#006d68;stroke-linecap:round;stroke-linejoin:round;stroke-width:0.697014844844262px"/><path d="M27.23,197.9c10,5.54,22.48,5.71,33.76,3.26a1.62,1.62,0,0,0,.89-.4,1.64,1.64,0,0,0,.32-1.13c.31-10.09,1.87-19.88,3.5-29.81a49.69,49.69,0,0,0-2-25.63c-3.1-9-15.84-10.18-22.77-5.16-12.35,9-12,25.94-11.69,39.7a16.37,16.37,0,0,1-.21,3.9c-1.05,4.62-3.17,8.87-5,13.23A32.1,32.1,0,0,0,27.23,197.9Z" style="fill:#fff"/><path d="M66,167.85a49.1,49.1,0,0,0-2.32-23.66c-3.1-9-15.84-10.18-22.77-5.16-12.35,9-12,25.94-11.69,39.7a16.37,16.37,0,0,1-.21,3.9c-1.05,4.62-3.17,8.87-5,13.23a32.1,32.1,0,0,0,3.21,2c10,5.54,22.48,5.71,33.76,3.26a1.62,1.62,0,0,0,.89-.4,1.64,1.64,0,0,0,.32-1.13c.15-5,.62-10,1.25-15" style="fill:#fff;stroke:#3c3c3b;stroke-linecap:round;stroke-linejoin:round"/><line x1="28.84" y1="268.82" x2="49.72" y2="211.57" style="fill:none;stroke:#fff;stroke-linecap:round;stroke-linejoin:round"/><circle cx="56.05" cy="123.59" r="14.77" style="fill:#3c3c3b"/><path d="M82.94,165.21c.56-.58,1.45-.68,2.09-1.16a4.17,4.17,0,0,0,.77-.8c1.39-1.72,2.93-3.46,4.46-5.05a4.87,4.87,0,0,1,3.37-1.6c-.23,2.43-2.28,3.75-1.86,6.41,1.35-.67,2.74-1.25,4.09-1.92a3,3,0,0,0,.89-.59,3.26,3.26,0,0,0,.6-1.34,8.12,8.12,0,0,1,1.75-3.61c.64-.65,2.85-1.88,3.43-.65.29.61-1.16,3.29-1.37,3.93-.61,1.88-1.32,3.71-2,5.57a4.93,4.93,0,0,1-1,2,5,5,0,0,1-1.81,1c-3.08,1.19-7.23,1.59-9.71,3.92" style="fill:#fff;stroke:#3c3c3b;stroke-linecap:round;stroke-linejoin:round;stroke-width:0.926012262355367px"/><path d="M59.39,112.62c2.58-.65,5.37-.8,6.9.58,0-5.35-5-8.85-9.7-10.22a17.52,17.52,0,0,0-14.65,2.34c-1.43,1-3.25,1.86-4.87,1.19-2.39-1-2.8-4.08-5.19-5.16a8.11,8.11,0,0,0-7.94,1c-3,2.47-4.28,7.94-2.45,11.42a6.19,6.19,0,0,0,4.58,3.49c2.56.43,5.22-2,7.41,0,1.94,1.72,1,3.76.83,5.83a10.22,10.22,0,0,0,1.83,6.76c2.64,3.9,7.37,5.85,11.9,6.44-.62-1.61,1-3.35.27-4.7-.37-.73-1.62-1.16-2.19-1.77a7.89,7.89,0,0,1-1.56-2.67c-1.14-3.42,1.69-9,5.54-6.06A8.92,8.92,0,0,1,55,114.3,19.79,19.79,0,0,1,59.39,112.62Z" style="fill:#ccc"/><g style="mix-blend-mode:multiply"><path d="M81.57,179.65l-.09,0-12,3.83a22.42,22.42,0,0,1-29.25-20.67l-.39-12.74a8,8,0,0,1,16-.49l.39,12.74a6.4,6.4,0,0,0,8.34,5.9l12-3.83a8,8,0,0,1,5,15.23Z" style="fill:#aecc53"/></g><polygon points="250.32 291.5 224.72 291.8 238.27 282.42 238.3 201.73 277.84 198.43 288.43 291.5 264.07 292.32 274.81 283.7 259.34 237.32 250.32 291.5" style="fill:#aecc53;mix-blend-mode:multiply"/><path d="M186.78,144c3.85,2.39,8.75,3.28,11.25-.31,3.55-5.09-4.74-10-6.91-13.85a6.55,6.55,0,0,0-.44,3.73c.21,1,1.07,1.94.78,3-.58,2.13-4.1-1.47-4.68-2.05-1.95-1.91-4-5.24-7-5.32C182.7,134.38,181.3,140.58,186.78,144Z" style="fill:#fff;stroke:#3c3c3b;stroke-linecap:round;stroke-linejoin:round"/><path d="M194.51,154.32l.06.08,8.37,10a23.37,23.37,0,0,0,37.28-1.81l7.47-11a8.35,8.35,0,1,0-13.81-9.38l-7.47,11a6.66,6.66,0,0,1-10.64.51l-8.36-10a8.35,8.35,0,0,0-12.9,10.61Z" style="fill:#006d68;stroke:#006d68;stroke-linecap:round;stroke-linejoin:round;stroke-width:0.697014844844262px"/><path d="M274.92,199.56c-10.39,5.77-23.43,5.95-35.19,3.39a1.75,1.75,0,0,1-.93-.41,1.82,1.82,0,0,1-.33-1.18c-.31-10.52-5.63-41.54-1.53-57.77,2.43-9.62,16.51-10.61,23.73-5.37,12.87,9.33,12.48,27,12.18,41.37a16.62,16.62,0,0,0,.23,4c1.09,4.82,3.29,9.25,5.18,13.8A35.45,35.45,0,0,1,274.92,199.56Z" style="fill:#fff;stroke:#3c3c3b;stroke-linecap:round;stroke-linejoin:round"/><path d="M273.9,185.26a4.42,4.42,0,0,0-4.41-1.13c-2.67.79-4,3.53-4.51,6.08-.63,3.26,1.24,6.39.55,9.43a1.05,1.05,0,0,0,0,.31c.07.36.6.39.95.25a2.63,2.63,0,0,0,1.41-1.41,8.84,8.84,0,0,0,.36-1.62,2.46,2.46,0,0,1,.73-1.46c1.66-1.37,3.83,1.67,4.28,2.94.65,1.85.2,3.95.63,5.86a4.64,4.64,0,0,0,1.48,2.73c.77-3.54,3.15-6.47,5.45-9.26.65-.8-5.23-10-5.7-11A5.88,5.88,0,0,0,273.9,185.26Z" style="fill:#fff;stroke:#3c3c3b;stroke-linecap:round;stroke-linejoin:round"/><line x1="273.24" y1="283.46" x2="251.48" y2="213.81" style="fill:none;stroke:#fff;stroke-linecap:round;stroke-linejoin:round;stroke-width:1.04206526279449px"/><circle cx="244.88" cy="122.12" r="15.39" style="fill:#fff;stroke:#3c3c3b;stroke-linecap:round;stroke-linejoin:round;stroke-width:1.02968823116265px"/><path d="M237.7,103.54c9.51-5.49,23.57-4.08,28.07,7.13,2.1,5.25,2.69,11.17-.31,16.23a12.16,12.16,0,0,1-7.64,6.29,3.91,3.91,0,0,1-2,.27,2.79,2.79,0,0,1-2-2.52,3.82,3.82,0,0,1,1.62-3.45c.38-.26.8-.45,1.15-.74,1.94-1.6,2.05-5.85.37-7.59a3.57,3.57,0,0,0-3.85-.68c-.85.42-1.73,2.08-2.87,1.14-1-.79-.1-2.77-.55-3.86-.59-1.41-2.41-2.63-3.69-3.32a8.4,8.4,0,0,0-4.6-1.08,9.26,9.26,0,0,0-1.12.14c-2.74.5-6.24,1.86-8.73-.06a7.37,7.37,0,0,1-2-2.82c-.64-1.35-1.08-3-.17-4.29a.72.72,0,0,1,.28-.27c.33-.15.67.16.94.4C232.8,106.42,235.64,104.72,237.7,103.54Z" style="fill:#3c3c3b"/><path d="M279.58,189.34a.46.46,0,0,0,.07-.07l8.45-10a23.37,23.37,0,0,0-8.22-36.41l-12.11-5.45a8.35,8.35,0,1,0-6.86,15.22L273,158.11a6.67,6.67,0,0,1,2.34,10.39l-8.45,10a8.35,8.35,0,0,0,12.67,10.87Z" style="fill:#006d68;stroke:#006d68;stroke-linecap:round;stroke-linejoin:round;stroke-width:0.697014844844262px"/><path d="M275.13,195.25a6.75,6.75,0,0,0,.91,2.44c.62,1,.83,1.26.62,2.42a25.23,25.23,0,0,0-.37,4.16" style="fill:none;stroke:#3c3c3b;stroke-linecap:round;stroke-linejoin:round;stroke-width:1.04187217356122px"/><path d="M119.69,15.32H96.09a6.21,6.21,0,0,0-6.21,6.21V41.48a6.21,6.21,0,0,0,6.21,6.21h6.64l5.16,5.16,5.16-5.16h6.64a6.21,6.21,0,0,0,6.21-6.21V21.53A6.21,6.21,0,0,0,119.69,15.32Z" style="fill:#aecc53;mix-blend-mode:multiply"/><path d="M179.75,54.23H150a8.87,8.87,0,0,0-8.87,8.87V95.61a8.87,8.87,0,0,0,8.87,8.87h7.49l7.37,7.37,7.37-7.37h7.49a8.87,8.87,0,0,0,8.87-8.87V63.1A8.87,8.87,0,0,0,179.75,54.23Z" style="fill:#006d68"/><path d="M175.42,82.11a2.1,2.1,0,1,0-1.79-.54,9.51,9.51,0,0,1-7.81,5.8V78.44a8,8,0,0,0,5.79-3.68,2.12,2.12,0,1,0-1.7-.81,6.09,6.09,0,0,1-4.09,2.61V67.84a2.1,2.1,0,1,0-1.86,0v8.72A6.09,6.09,0,0,1,159.87,74a2.07,2.07,0,0,0,.42-1.61,2.1,2.1,0,1,0-2.12,2.42A8,8,0,0,0,164,78.44v8.93a9.49,9.49,0,0,1-7.81-5.8,2.08,2.08,0,0,0,.65-1.73,2.1,2.1,0,1,0-2.44,2.27,11.35,11.35,0,0,0,9.6,7.13v9.08h1.86V89.24A11.37,11.37,0,0,0,175.42,82.11Z" style="fill:#fff"/><path d="M37.34,106.32c1,3,0,8-4,11" style="fill:none;stroke:#3c3c3b;stroke-linecap:round;stroke-linejoin:round;stroke-width:4px"/><rect x="112.59" y="229.32" width="25" height="47.5" style="fill:#aecc53;mix-blend-mode:multiply"/><rect x="193.09" y="210.32" width="25" height="67" style="fill:#ccc"/><rect x="152.84" y="198.82" width="25" height="78" style="fill:#fff"/><line x1="152.84" y1="198.82" x2="177.84" y2="198.82" style="fill:#fff;stroke:#3c3c3b;stroke-linecap:round;stroke-linejoin:round"/><line x1="14.34" y1="276.82" x2="217.84" y2="276.82" style="fill:none;stroke:#006d68;stroke-linecap:round;stroke-linejoin:round;stroke-width:0.903907060623169px"/><path d="M167.82,267.88a2.62,2.62,0,0,1-.19.95,2.22,2.22,0,0,1-.23.43,2.79,2.79,0,0,1-.3.38,2.54,2.54,0,0,1-1.76.73,2.51,2.51,0,0,1-1.76-.73,2.24,2.24,0,0,1-.31-.38,2.22,2.22,0,0,1-.23-.43,2.54,2.54,0,0,1-.14-.47,2.47,2.47,0,0,1,.68-2.24,2.51,2.51,0,0,1,1.76-.73,2.61,2.61,0,0,1,.48.05,2.43,2.43,0,0,1,.9.37,2.72,2.72,0,0,1,.38.31A2.5,2.5,0,0,1,167.82,267.88Z" style="fill:#ccc"/><path d="M165.34,234.24a2.48,2.48,0,0,1-2.49-2.48h0a2.48,2.48,0,0,1,2.49-2.49h0a2.48,2.48,0,0,1,2.48,2.49h0A2.48,2.48,0,0,1,165.34,234.24Zm0,12a2.48,2.48,0,0,1-2.49-2.48h0a2.48,2.48,0,0,1,2.49-2.49h0a2.48,2.48,0,0,1,2.48,2.49h0A2.48,2.48,0,0,1,165.34,246.28Zm0-12a2.48,2.48,0,0,1-2.49-2.48h0a2.48,2.48,0,0,1,2.49-2.49h0a2.48,2.48,0,0,1,2.48,2.49h0A2.48,2.48,0,0,1,165.34,234.24Zm0,12a2.48,2.48,0,0,1-2.49-2.48h0a2.48,2.48,0,0,1,2.49-2.49h0a2.48,2.48,0,0,1,2.48,2.49h0A2.48,2.48,0,0,1,165.34,246.28Zm0,12a2.49,2.49,0,0,1-2.49-2.49h0a2.48,2.48,0,0,1,2.49-2.49h0a2.48,2.48,0,0,1,2.48,2.49h0A2.49,2.49,0,0,1,165.34,258.33Z" style="fill:#ccc"/><path d="M165.34,210.24a2.48,2.48,0,0,1-2.49-2.48h0a2.48,2.48,0,0,1,2.49-2.49h0a2.48,2.48,0,0,1,2.48,2.49h0A2.48,2.48,0,0,1,165.34,210.24Zm0,12a2.48,2.48,0,0,1-2.49-2.48h0a2.48,2.48,0,0,1,2.49-2.49h0a2.48,2.48,0,0,1,2.48,2.49h0A2.48,2.48,0,0,1,165.34,222.28Zm0-12a2.48,2.48,0,0,1-2.49-2.48h0a2.48,2.48,0,0,1,2.49-2.49h0a2.48,2.48,0,0,1,2.48,2.49h0A2.48,2.48,0,0,1,165.34,210.24Zm0,12a2.48,2.48,0,0,1-2.49-2.48h0a2.48,2.48,0,0,1,2.49-2.49h0a2.48,2.48,0,0,1,2.48,2.49h0A2.48,2.48,0,0,1,165.34,222.28Z" style="fill:#ccc"/><path d="M103.89,29.85l-5.77,2.21,5.77,2.21v2.26l-8.5-3.32V30.89l8.5-3.31Z" style="fill:#fff"/><path d="M104.49,24.34l2.27-.67,4.52,14.15L109,38.5Z" style="fill:#fff"/><path d="M120.39,30.89v2.32l-8.5,3.32V34.27l5.77-2.21-5.77-2.21V27.58Z" style="fill:#fff"/></g></g></svg>