<svg xmlns="http://www.w3.org/2000/svg" width="814" height="698" viewBox="0 0 814 698"><g style="isolation:isolate"><g id="b275032f-fcb5-4384-aa0d-e6810814e845" data-name="Layer 1"><path d="M473.81,691.44c74.46-8.52,145.72-41.93,199.39-92.86,29.23-27.73,42.63-54.4,58.89-89.63,17.34-37.56,38.27-74.71,43.75-116.12,7.35-55.58,20.67-110.72,28-166.53,4.71-35.89,9.42-72.34,3.8-108.07S784.58,46.93,753.5,27.1C705.94-3.23,643.64,2.75,590.29,11.42c-12.27,2-25.49,3.16-36.6,8.73-10.45,5.23-16.79,14.47-29,18.49-25.23,8.36-52.59.67-78.51,3.59-47,5.29-97.8,27.15-142.25,42.47C230.32,110.1,156.91,141.13,98.82,192,32.9,249.73-11.41,339.66,8.67,426.67A209.36,209.36,0,0,0,32,485.33C50.47,516.84,77,543,106.4,565c13.61,10.15,26.54,20.27,42.71,23.3,20.3,3.82,36.5,2.49,55.49,13.51,13.91,8.08,21.18,23.17,33.09,33.25C295.71,684.15,400.24,699.86,473.81,691.44Z" style="fill:#aecc53;opacity:0.2"/><path d="M306.93,564.56H222.41s0-2.77.13-4.19c1.75-27.32,19.94-50.81,42.13-50.81s40.39,23.51,42.12,50.82C306.88,561.8,306.93,564.56,306.93,564.56Z" style="fill:#3c3c3b;stroke:#3c3c3b;stroke-linecap:round;stroke-linejoin:round;stroke-width:0.935433796678561px"/><rect x="354.94" y="627.93" width="100.88" height="12.92" rx="6.46" style="fill:#fff"/><rect x="385.08" y="624.75" width="97.62" height="12.92" rx="6.46" style="fill:#fff"/><path d="M303,292h-36.8v47.6h-71.6V292H81v-54.4l126.4-180h58.8V236H303Zm-108.4-56v-69.2l-48,69.2Z" style="fill:#fff"/><path d="M349,306q-27.6-37.2-27.6-107.6,0-69.19,27.8-106.4T429,54.75q52,0,79.8,37.2t27.8,106.4q0,70.41-27.6,107.6t-80,37.2Q376.62,343.15,349,306Zm107.6-39.2Q465,246,465,198.35q0-46.8-8.4-67.4T429,110.35q-19.2,0-27.6,20.6t-8.4,67.4q0,47.61,8.4,68.4t27.6,20.8Q448.23,287.55,456.63,266.75Z" style="fill:#fff"/><path d="M783,292h-36.8v47.6h-71.6V292H561v-54.4l126.4-180h58.8V236H783Zm-108.4-56v-69.2l-48,69.2Z" style="fill:#fff"/><path d="M266.24,292v47.6h-71.6V292H81v-54.4l126.4-180m-12.8,109.2-48,69.2" style="fill:none;stroke:#aecc53;stroke-linecap:round;stroke-linejoin:round;stroke-width:1.76180255413055px"/><path d="M321.43,198.35q0-69.19,27.8-106.4T429,54.75q52,0,79.8,37.2m-52.2,174.8Q465,246,465,198.35q0-46.8-8.4-67.4T429,110.35q-19.2,0-27.6,20.6t-8.4,67.4q0,47.61,8.4,68.4t27.6,20.8Q448.23,287.55,456.63,266.75Z" style="fill:none;stroke:#aecc53;stroke-linecap:round;stroke-linejoin:round;stroke-width:1.76180255413055px"/><path d="M561,237.55l126.4-180m-12.8,109.2-48,69.2" style="fill:none;stroke:#aecc53;stroke-linecap:round;stroke-linejoin:round;stroke-width:1.76180255413055px"/><rect x="392.91" y="488.03" width="82.14" height="33.02" rx="10.41" style="fill:none;stroke:#006d68;stroke-linecap:round;stroke-linejoin:round;stroke-width:1.76180255413055px"/><rect x="412.36" y="440.48" width="43.23" height="47.55" style="fill:none;stroke:#006d68;stroke-linecap:round;stroke-linejoin:round;stroke-width:1.76180255413055px"/><line x1="455.59" y1="522.62" x2="455.59" y2="573.7" style="fill:none;stroke:#006d68;stroke-linecap:round;stroke-linejoin:round;stroke-width:1.76180255413055px"/><line x1="412.36" y1="573.7" x2="412.36" y2="522.62" style="fill:none;stroke:#006d68;stroke-linecap:round;stroke-linejoin:round;stroke-width:1.76180255413055px"/><path d="M294.23,442.52,574,442a75.39,75.39,0,0,0,75.26-75.39h0l-430.53.78,0,1.39A75.38,75.38,0,0,0,294.23,442.52Z" style="fill:#fff"/><path d="M294.23,442.52,574,442a75.39,75.39,0,0,0,75.26-75.39h0l-430.53.78,0,1.39A75.38,75.38,0,0,0,294.23,442.52Z" style="fill:none;stroke:#006d68;stroke-linecap:round;stroke-linejoin:round;stroke-width:1.76180255413055px"/><path d="M621.22,423.88c-13.67,0-27.3-3.81-27.05-20.06.14-9.73,3.75-14.42-9.54-17-5-.94-10.14-1.26-14.67-3.47-6-2.95-9.92-10.36-5.39-16.3" style="fill:none;stroke:#006d68;stroke-linecap:round;stroke-linejoin:round;stroke-width:1.76180255413055px"/><path d="M586.06,440.48c-7.92-2.46-14.19-6.83-18-14.4s.66-18.32-4.16-26.34c-5.14-8.52-16.54-3.31-24.22-6.76-11.21-5.05-22.85-11.17-19.91-25.07" style="fill:none;stroke:#006d68;stroke-linecap:round;stroke-linejoin:round;stroke-width:1.76180255413055px"/><path d="M441.27,368.79c2,16.37,19,22.34,17,40.52-1.2,10.89-8.71,22.88-14.4,32.24" style="fill:none;stroke:#006d68;stroke-linecap:round;stroke-linejoin:round;stroke-width:1.76180255413055px"/><path d="M419.2,441.55c13.36-12.82,21.07-49.53-4.84-52.24-5.85-.61-11.59,1.64-17.43,2.3-14.27,1.62-23.42-10.32-23.49-23.7" style="fill:none;stroke:#006d68;stroke-linecap:round;stroke-linejoin:round;stroke-width:1.76180255413055px"/><path d="M340.51,441.55c3.42-5.81,4.32-10.76,5.88-17.33,4.79-20.24-6.48-21.58-20.51-28-10.93-5-5.2-21.93.37-28.71" style="fill:none;stroke:#006d68;stroke-linecap:round;stroke-linejoin:round;stroke-width:1.76180255413055px"/><path d="M280.94,367.19c6.89,7,12.54,13.75,14.63,23.64.7,3.28,1,6.67,2.17,9.79a17.67,17.67,0,0,0,4.4,6.54c1.35,1.25,3.07,2.34,4.9,2.15,9.69-1,4.29-21.34,2.78-26.44-1.67-5.61-5.17-10-8-15.12" style="fill:none;stroke:#006d68;stroke-linecap:round;stroke-linejoin:round;stroke-width:1.76180255413055px"/><path d="M229.47,404.85c3-5.79,11.34-6.37,17.35-3.85,11.86,5,17.77,21.2,14,33.5" style="fill:none;stroke:#006d68;stroke-linecap:round;stroke-linejoin:round;stroke-width:1.76180255413055px"/><path d="M237.56,367.86c1.74,3.44,5.58,6.49,8.67,8.54a47.59,47.59,0,0,0,12.66,6c6.42,1.92,13.48,2.58,18.79,6.66,5.52,4.24,8,11.34,9.23,18.18,2.19,12,2.89,21.61-.7,33.29" style="fill:none;stroke:#006d68;stroke-linecap:round;stroke-linejoin:round;stroke-width:1.76180255413055px"/><path d="M359.3,441.55c7.91-11.55,19.52-23.77,31.19-31.51,4.19-2.78,9.49-5.32,14-3.19,12.17,5.72,1.07,27.12-2.94,34.7" style="fill:none;stroke:#006d68;stroke-linecap:round;stroke-linejoin:round;stroke-width:1.76180255413055px"/><path d="M616.34,368.4c-2.58,6.92.19,17.08,5.53,22,5.87,5.45,14.34,5.27,21.48,2.71" style="fill:none;stroke:#006d68;stroke-linecap:round;stroke-linejoin:round;stroke-width:1.76180255413055px"/><path d="M494.36,441.77c-2.51-10.94-.94-33.13,14.87-30.48,6.17,1,11.25,5.69,14.34,11.12s4.66,13,6,19.14" style="fill:none;stroke:#006d68;stroke-linecap:round;stroke-linejoin:round;stroke-width:1.76180255413055px"/><path d="M472.73,441.24c3.7-7.36,2.94-16.11,1.51-24.22s-3.45-16.37-2-24.47,7.68-16.08,15.9-16.41c4.22-.17,8.25,1.65,12,3.64,21.59,11.56,46.88,35.64,48.24,61.76" style="fill:none;stroke:#006d68;stroke-linecap:round;stroke-linejoin:round;stroke-width:1.76180255413055px"/><path d="M297.83,441.55c2.92-7.93,11.59-26.92,23.35-17.38,4.91,4,5.92,11.15,5,17.4" style="fill:none;stroke:#006d68;stroke-linecap:round;stroke-linejoin:round;stroke-width:1.76180255413055px"/><path d="M488,616.56H379.94s.08-3.53.25-5.26c2.64-27.38,25.72-40.14,53.79-40.14s51.37,13,53.82,40.54C487.94,613.3,488,616.56,488,616.56Z" style="fill:none;stroke:#006d68;stroke-linecap:round;stroke-linejoin:round;stroke-width:1.76180255413055px"/><path d="M452.28,366.06H407.35c-30.42,0-50.24-32-36.7-59.23l22.46-45.21c15.07-30.33,58.34-30.33,73.41,0L489,306.83C502.53,334.08,482.71,366.06,452.28,366.06Z" style="fill:#3c3c3b;stroke:#3c3c3b;stroke-linecap:round;stroke-linejoin:round;stroke-width:0.905439286916539px"/><path d="M454,269.57c0-.22,0-.43,0-.64.12-4.66-.61-9.64-3.59-12.92a10.4,10.4,0,0,0-3.88-2.7,48.86,48.86,0,0,0-34.94,0,10.4,10.4,0,0,0-3.88,2.7c-3,3.28-3.71,8.26-3.58,12.92,0,.21,0,.42,0,.64a18.26,18.26,0,0,0,.89,6.84,11.11,11.11,0,0,0,.54,1.41c.26.92.53,1.83.82,2.74s.78,1.8,1.63,1.69a1.92,1.92,0,0,0,1.13-.88c.78-1,1.65-2.2,2.4-3.22.77,4.86,4.76,14.84,5.63,16.13a49.65,49.65,0,0,0,5.3,6.9c2.73,2.83,6,8,10.06,3.62q1.6-1.74,3.06-3.62a49.65,49.65,0,0,0,5.3-6.9c.87-1.29,4.87-11.27,5.63-16.13.75,1,1.62,2.18,2.41,3.22a1.9,1.9,0,0,0,1.12.88c.85.11,1.37-.88,1.63-1.69s.56-1.82.82-2.74a11.11,11.11,0,0,0,.54-1.41A18.06,18.06,0,0,0,454,269.57Z" style="fill:#fff"/><circle cx="429.82" cy="232.56" r="31" style="fill:#3c3c3b;stroke:#3c3c3b;stroke-linecap:round;stroke-linejoin:round;stroke-width:0.905439286916539px"/><path d="M403.89,221.46a8.1,8.1,0,0,1-4.92,1.07,10.05,10.05,0,0,1-4.9-1.78,10.2,10.2,0,0,1-3.4-3.95c-.19-.39-.33-.8-.48-1.2s-.22-.82-.3-1.27a9.65,9.65,0,0,1,0-2.52c.51.67.91,1.4,1.34,2l.67.88.71.83a18.44,18.44,0,0,0,3.12,2.77,17.51,17.51,0,0,0,3.69,1.94A27.49,27.49,0,0,0,403.89,221.46Z" style="fill:#fff"/><path d="M446.67,206.91a21.85,21.85,0,0,0-.54,2.12,12,12,0,0,0,22.09,8.13,22.65,22.65,0,0,0,1.08-2.27Z" style="fill:#3c3c3b"/><path d="M455.34,221.46a27.2,27.2,0,0,0,4.43-1.23,17,17,0,0,0,3.69-1.94,17.7,17.7,0,0,0,3.12-2.77l.71-.83.67-.88c.44-.6.83-1.33,1.34-2a9.23,9.23,0,0,1,0,2.52c-.08.45-.18.84-.29,1.27s-.3.81-.48,1.2a10.29,10.29,0,0,1-3.4,3.95,10.09,10.09,0,0,1-4.9,1.78A8.14,8.14,0,0,1,455.34,221.46Z" style="fill:#fff"/><path d="M413.54,207.5s.2,1.47.2,2.19a12,12,0,0,1-23.1,4.53,24,24,0,0,1-.71-2.41Z" style="fill:#3c3c3b"/><path d="M412.32,236.85a10.33,10.33,0,0,0,8,2.22,1.4,1.4,0,0,1,1.6,1.16,1.38,1.38,0,0,1-1.15,1.59,1.19,1.19,0,0,1-.42,0h-.06A11.73,11.73,0,0,1,412.32,236.85Z" style="fill:#00e7ff"/><path d="M447.31,236.85a11.71,11.71,0,0,1-8,5h-.06a1.4,1.4,0,0,1-.41-2.76,1.55,1.55,0,0,1,.43,0A10.33,10.33,0,0,0,447.31,236.85Z" style="fill:#00e7ff"/><path d="M381.09,351.09c-11.68-1.39-32.75.93-35.23,15.43-1.1,6.44,2.81,15.29,9.7,16.93,9.54,2.26,18-2.28,24.74,6.21a27.83,27.83,0,0,1,5,24.58" style="fill:none;stroke:#3c3c3b;stroke-linecap:round;stroke-linejoin:round;stroke-width:14.0944204330444px"/><rect x="400.32" y="351.06" width="6.8" height="12" rx="3.4" style="fill:#fff"/><rect x="407.12" y="351.06" width="6.8" height="12" rx="3.4" style="fill:#fff"/><rect x="413.52" y="351.06" width="6.8" height="12" rx="3.4" style="fill:#fff"/><rect x="439.32" y="351.06" width="6.8" height="12" rx="3.4" style="fill:#fff"/><rect x="446.12" y="351.06" width="6.8" height="12" rx="3.4" style="fill:#fff"/><rect x="452.52" y="351.06" width="6.8" height="12" rx="3.4" style="fill:#fff"/><polygon points="373.73 515.7 366.35 566.02 256.65 564.23 268.13 485.94 373.73 515.7" style="fill:#006d68"/><path d="M230.12,611.24H192.35s0-1.24.06-1.87c.78-12.21,8.91-27.8,18.83-27.8s18,15.6,18.82,27.81C230.1,610,230.12,611.24,230.12,611.24Z" style="fill:#ccc;mix-blend-mode:multiply"/><path d="M240.78,611.24H215.6s0-.83,0-1.25c.52-8.14,5.94-18.53,12.55-18.53s12,10.4,12.55,18.54C240.77,610.42,240.78,611.24,240.78,611.24Z" style="fill:#ccc;mix-blend-mode:multiply"/><path d="M234.66,565.06H196.9s0-1.24.06-1.88c.78-12.2,8.9-27.8,18.82-27.8s18,15.61,18.82,27.81C234.64,563.82,234.66,565.06,234.66,565.06Z" style="fill:#ccc;mix-blend-mode:multiply"/><path d="M158.53,539.68l2.23,16.14a40.32,40.32,0,0,1-20.42,40.68,33.34,33.34,0,0,1-20.61,3.72L25.3,587.53c-21.82-2.94-25.95-32.72-5.76-41.48,35.09-15.21,72.82-31.6,87.42-37.94a33.4,33.4,0,0,1,20.88-2A40.34,40.34,0,0,1,158.53,539.68Z" style="fill:#006d68;stroke:#006d68;stroke-linecap:round;stroke-linejoin:round;stroke-width:0.742881102237553px"/><path d="M56.27,543.26a18.82,18.82,0,0,1,18.88,16.18h0a18.82,18.82,0,0,1-13.77,20.7" style="fill:none;stroke:#aecc53;stroke-linecap:round;stroke-linejoin:round;stroke-width:2.11944397308136px"/><path d="M56.55,545.66a2.39,2.39,0,1,1,2.23-2.54A2.38,2.38,0,0,1,56.55,545.66Z" style="fill:#aecc53"/><path d="M61,577.75a2.39,2.39,0,1,0,2.84,1.85A2.39,2.39,0,0,0,61,577.75Z" style="fill:#aecc53"/><path d="M80.37,530.67a28,28,0,0,1,29.17,24h0a28,28,0,0,1-21.56,31" style="fill:none;stroke:#aecc53;stroke-linecap:round;stroke-linejoin:round;stroke-width:2.11944397308136px"/><path d="M80.69,533.06a2.39,2.39,0,0,1-.41-4.76,2.39,2.39,0,1,1,.41,4.76Z" style="fill:#aecc53"/><path d="M87.65,583.32a2.39,2.39,0,1,0,2.79,1.9A2.39,2.39,0,0,0,87.65,583.32Z" style="fill:#aecc53"/><path d="M38.19,564.55l103-14.26c22.28-3.08,52.26-10.15,70.67,7.21" style="fill:none;stroke:#aecc53;stroke-linecap:round;stroke-linejoin:round;stroke-width:2.11944397308136px"/><path d="M38.64,566.9a2.39,2.39,0,1,1,2-2.7A2.39,2.39,0,0,1,38.64,566.9Z" style="fill:#aecc53"/><path d="M135.62,590.14a4,4,0,1,1-7.85,1.72l-4.43-20.11a32.61,32.61,0,0,0-5.67.73,24.4,24.4,0,0,0-4.78,1.68l4.41,20a4,4,0,0,1-7.85,1.73l-3.9-17.7c-3,1.89-6.24,4.13-9.53,6.57l3,13.44a4,4,0,1,1-7.86,1.72L89,590.2c-3.15,2.51-6.28,5.11-9.29,7.67l1,4.37A4,4,0,0,1,72.8,604l0-.09c-9.37,8.31-16.25,15-16.25,15s9,3.18,21,6.78l0-.09a4,4,0,1,1,7.85-1.73l1,4.37c3.81,1.06,7.74,2.11,11.65,3.06l-2.14-9.73a4,4,0,0,1,7.85-1.73l3,13.43c4,.84,7.87,1.52,11.41,2l-3.9-17.7a4,4,0,0,1,7.85-1.73l4.41,20a24,24,0,0,0,5-.48,31.46,31.46,0,0,0,5.45-1.72l-4.43-20.11a4,4,0,0,1,7.86-1.73l3.87,17.6a32.16,32.16,0,0,0-12.51-56.8Z" style="fill:#aecc53;mix-blend-mode:multiply"/><path d="M119.54,605.34l11.51-2.53c12.64-2.79,23.88-6,37-4.22A127.5,127.5,0,0,1,198,606.45" style="fill:none;stroke:#006d68;stroke-linecap:round;stroke-linejoin:round;stroke-width:2.11944397308136px"/><path d="M199.72,631.43a2.4,2.4,0,0,1-4.68,1l-2.64-12a19.68,19.68,0,0,0-3.37.43,14.49,14.49,0,0,0-2.85,1l2.63,11.91a2.4,2.4,0,1,1-4.68,1l-2.32-10.54c-1.8,1.13-3.72,2.46-5.68,3.91l1.76,8a2.39,2.39,0,1,1-4.67,1l-1.28-5.8c-1.88,1.49-3.74,3-5.53,4.57l.57,2.6a2.4,2.4,0,0,1-4.68,1v0c-5.58,5-9.68,8.93-9.68,8.93s5.39,1.89,12.54,4v-.05a2.39,2.39,0,0,1,4.67-1l.58,2.6c2.26.63,4.6,1.25,6.94,1.82l-1.28-5.79a2.4,2.4,0,1,1,4.68-1l1.76,8c2.39.49,4.69.9,6.79,1.17L187,647.72a2.4,2.4,0,0,1,4.68-1l2.62,11.92a15.5,15.5,0,0,0,3-.28,19.13,19.13,0,0,0,3.24-1l-2.64-12a2.4,2.4,0,0,1,4.68-1l2.31,10.49a19.16,19.16,0,0,0-7.45-33.84Z" style="fill:#aecc53;mix-blend-mode:multiply"/><rect x="565.53" y="622.43" width="115.1" height="17.62" style="fill:#006d68"/><rect x="525.59" y="601.29" width="115.1" height="21.14" style="fill:#ccc"/><rect x="545.56" y="576.62" width="115.1" height="24.67" style="fill:#fff"/><rect x="645.64" y="502.99" width="147.59" height="88.63" transform="translate(394.09 -296.07) rotate(31.64)" style="fill:none"/><polygon points="759.03 623.72 633.38 546.29 603.53 568.06 753 660.17 759.03 623.72" style="fill:#cccbcb"/><line x1="632.58" y1="553.7" x2="752.77" y2="627.76" style="fill:none;stroke:#fff;stroke-linecap:round;stroke-linejoin:round;stroke-width:0.522389583363782px"/><line x1="627.09" y1="557.4" x2="751.93" y2="634.33" style="fill:none;stroke:#fff;stroke-linecap:round;stroke-linejoin:round;stroke-width:0.522389583363782px"/><line x1="621.6" y1="561.11" x2="751.09" y2="640.9" style="fill:none;stroke:#fff;stroke-linecap:round;stroke-linejoin:round;stroke-width:0.522389583363782px"/><rect x="645.64" y="502.99" width="147.59" height="88.63" transform="translate(394.09 -296.07) rotate(31.64)" style="fill:none;stroke:#3c3c3b;stroke-linecap:round;stroke-linejoin:round;stroke-width:0.905439286916539px"/><polygon points="713.06 630.22 647.76 589.98 652.67 586.63 713.85 624.33 713.06 630.22" style="fill:none;stroke:#fff;stroke-linecap:round;stroke-linejoin:round;stroke-width:0.522389583363782px"/><rect x="648.75" y="508.9" width="140.67" height="77.94" transform="translate(394.33 -295.8) rotate(31.64)" style="fill:#3c3c3b;stroke:#3c3c3b;stroke-linecap:round;stroke-linejoin:round;stroke-width:0.935433796678561px"/><rect x="589.83" y="613.16" width="175.64" height="3.89" transform="matrix(0.85, 0.52, -0.52, 0.85, 423.45, -264.07)" style="fill:#3c3c3b;stroke:#3c3c3b;stroke-linecap:round;stroke-linejoin:round;stroke-width:0.935433796678561px"/><circle cx="741.19" cy="512.03" r="1.57" style="fill:#3c3c3b"/><rect x="525.59" y="606.57" width="22.32" height="10.57" style="fill:#fff"/><rect x="493.76" y="627.72" width="21.53" height="7.18" rx="2.5" style="fill:#fff"/><path d="M292.07,648.34c0,15.67-10.65,26.27-24.61,30.92a23.59,23.59,0,0,1-7.1.8,31.76,31.76,0,0,1-15.42-4,16.75,16.75,0,0,1-5.63-4.58c-1.37-1.83-2.95-2.88-4.59-4.49a19.28,19.28,0,0,1-3.26-5.56,31.74,31.74,0,0,1-2.82-13.09,33.31,33.31,0,0,1,2.14-11.47c1.06-2.88,3.36-5.21,4.89-7.81a20.71,20.71,0,0,1,6.41-6.57,31.66,31.66,0,0,1,46.34,11.07A25.88,25.88,0,0,1,290.6,641C291.08,643.58,292.07,645.73,292.07,648.34Z" style="fill:none;stroke:#aecc53;stroke-miterlimit:10;stroke-width:1.76180255413055px"/><path d="M228.77,646.09a7.12,7.12,0,0,1,4.18-2.44,9.86,9.86,0,0,1,2.29-.25,5.84,5.84,0,0,1,4.42,2.62c2.12,3.16.93,7.55.38,11-1.12,7,.4,14.43,5.66,19.5" style="fill:none;stroke:#aecc53;stroke-linecap:round;stroke-linejoin:round;stroke-width:1.76180255413055px"/><path d="M231.26,636.25a11.77,11.77,0,0,1,9.76-.9c3.1,1.15,5.1,4.36,6,7.43,1.65,5.62.28,11.14.14,16.86a24.41,24.41,0,0,0,2.92,12.22c1.44,2.81,3.51,6.32,6.23,8" style="fill:none;stroke:#aecc53;stroke-linecap:round;stroke-linejoin:round;stroke-width:1.76180255413055px"/><path d="M283.05,670c-5.68,6.91-17.34,8.25-22-1.28-2.23-4.53-1.95-9.75-.48-14.47,1.33-4.3,5.95-7.73,8.36-11.68,1.35-2.2,1.29-5.25,1.88-7.76a14.85,14.85,0,0,1,1-3.08,7.8,7.8,0,0,1,6.13-4.34c4.73-.49,9,2.61,10.74,6.85" style="fill:none;stroke:#aecc53;stroke-linecap:round;stroke-linejoin:round;stroke-width:1.76180255413055px"/><path d="M266.84,664.64a6.32,6.32,0,0,0,5.55,3.4,7.76,7.76,0,0,0,3.22-1c6-3.2,9.24-10.24,9.11-17a14.44,14.44,0,0,0-1.66-6.87,8.29,8.29,0,0,0-5.5-4.19c-3.62-.68-4.12,2-4.52,4.81a8.77,8.77,0,0,1-2.71,5.61C266.69,653.23,264,659.48,266.84,664.64Z" style="fill:none;stroke:#aecc53;stroke-miterlimit:10;stroke-width:1.76180255413055px"/><path d="M272.68,654.94a5.79,5.79,0,0,0-.59,2.57,2.2,2.2,0,0,0,1.47,2,3.06,3.06,0,0,0,2.72-1.2,18.21,18.21,0,0,0,3.62-5.23,4.17,4.17,0,0,0,.4-3.27C278,644.32,273.28,653.49,272.68,654.94Z" style="fill:none;stroke:#aecc53;stroke-miterlimit:10;stroke-width:1.76180255413055px"/><path d="M274.76,620.08c-6.66-1-11.07,6.38-11.51,12-.24,3,.54,5.79-.85,8.68-1.12,2.32-3.23,4-4.82,6-7.21,9.14-3.75,27,6.51,32.89" style="fill:none;stroke:#aecc53;stroke-linecap:round;stroke-linejoin:round;stroke-width:1.76180255413055px"/><path d="M235.82,628.67a6.84,6.84,0,0,1,6.7-.44,15.21,15.21,0,0,1,6.4,5.49c1.18,1.81.64,5.56,2.59,6.73a2.77,2.77,0,0,0,2.92-.25,5.54,5.54,0,0,0,1.81-2.47c2.83-6.58-1.71-17.48,6.89-21.1" style="fill:none;stroke:#aecc53;stroke-linecap:round;stroke-linejoin:round;stroke-width:1.76180255413055px"/><path d="M240.84,623.49c1.13-1.21,3.51-1,4.9-.44,1.91.76,1.83,2.7,3.18,4a2.68,2.68,0,0,0,4.33-.9,5.23,5.23,0,0,0,.17-2.55,12.71,12.71,0,0,1-.09-3.2,4.14,4.14,0,0,1,2.41-3.28" style="fill:none;stroke:#aecc53;stroke-linecap:round;stroke-linejoin:round;stroke-width:1.76180255413055px"/><path d="M276.45,675.36c5.71.48,11.41.91,17.15,1,5.53.08,11,.51,16.56.07,7-.55,18.14-4.65,14-13.56-4.27-9.21-23.42-1-24.09-12.83-.43-7.6,8.07-6.65,12.82-6.73,5.88-.11,11.59,2.29,16.89-1.16a7,7,0,0,0,2.89-3.21c.91-2.43-.53-5.27-2.72-6.67s-4.93-1.6-7.52-1.45a72.26,72.26,0,0,1-7.76.54" style="fill:none;stroke:#aecc53;stroke-miterlimit:10;stroke-width:1.76180255413055px"/><path d="M426.44,632.06a35.88,35.88,0,0,0-61.11-25.52,1.43,1.43,0,0,0-1-.42c-10,0-19.44,10.57-19.44,16.94a6.51,6.51,0,0,0,1.71,4.87c1.85,1.85,4.75,2.05,8.14,2.06,0,.69-.07,1.37-.07,2.07Zm-77.83-6.16a3.88,3.88,0,0,1-.86-2.84c0-4.77,7.48-13.09,15.24-14a35.73,35.73,0,0,0-8,18C352.15,627.12,349.73,627,348.61,625.9Z" style="fill:#aecc53;mix-blend-mode:multiply"/><polygon points="625.82 366.06 625.82 454.06 492.79 366.06 625.82 366.06" style="fill:#aecc53;mix-blend-mode:multiply"/><line x1="782.82" y1="236.06" x2="725.82" y2="236.06" style="fill:none;stroke:#aecc53;stroke-linecap:round;stroke-linejoin:round;stroke-width:1.76180255413055px"/><circle cx="188.82" cy="486.06" r="6" style="fill:none;stroke:#aecc53;stroke-linecap:round;stroke-linejoin:round;stroke-width:1.76180255413055px"/><path d="M34.82,486.43a6.88,6.88,0,1,1-6.88,6.88,6.88,6.88,0,0,1,6.88-6.88m0-1.87a8.75,8.75,0,1,0,8.75,8.75,8.74,8.74,0,0,0-8.75-8.75Z" style="fill:#aecc53"/><rect x="682.53" y="507.27" width="53.93" height="40.05" transform="translate(382.11 -293.83) rotate(31.64)" style="fill:#006d68;stroke:#006d68;stroke-linecap:round;stroke-linejoin:round;stroke-width:0.184315067482116px"/><rect x="693.04" y="507.9" width="53.93" height="4.69" transform="translate(374.73 -301.88) rotate(31.64)" style="fill:#aecc53"/><rect x="740.17" y="521.41" width="0.7" height="2.96" transform="translate(1078.19 -318.39) rotate(76.64)" style="fill:#fff"/><rect x="740.17" y="521.41" width="0.7" height="2.96" transform="translate(1581.8 860.57) rotate(166.64)" style="fill:#fff"/><path d="M737.35,519.89l-1,1.59-1.79-1.1,1-1.6,1.79,1.11m.45-.11-2.34-1.44-1.32,2.14,2.34,1.44,1.32-2.14Z" style="fill:#fff"/><polygon points="732.16 518.61 729.82 517.17 729.53 517.64 731.87 519.08 732.16 518.61 732.16 518.61" style="fill:#fff"/><rect x="691.68" y="528.85" width="53.93" height="40.05" transform="translate(394.79 -295.42) rotate(31.64)" style="fill:#ccc"/><rect x="702.19" y="529.48" width="53.93" height="4.69" transform="translate(387.41 -303.47) rotate(31.64)" style="fill:#aecc53"/><rect x="749.32" y="542.99" width="0.7" height="2.96" transform="translate(1106.22 -310.7) rotate(76.64)" style="fill:#fff"/><rect x="749.32" y="542.99" width="0.7" height="2.96" transform="translate(1604.83 901.03) rotate(166.64)" style="fill:#fff"/><path d="M746.5,541.46l-1,1.6L743.73,542l1-1.59,1.79,1.1m.44-.1-2.34-1.44-1.32,2.14,2.34,1.44,1.32-2.14Z" style="fill:#fff"/><polygon points="741.3 540.19 738.97 538.75 738.67 539.22 741.01 540.66 741.3 540.19 741.3 540.19" style="fill:#fff"/><rect x="700.58" y="550.84" width="53.93" height="40.05" transform="translate(407.65 -296.82) rotate(31.64)" style="fill:#006d68;stroke:#006d68;stroke-linecap:round;stroke-linejoin:round;stroke-width:0.184315067482116px"/><rect x="711.09" y="551.46" width="53.93" height="4.69" transform="translate(400.26 -304.87) rotate(31.64)" style="fill:#aecc53"/><rect x="758.21" y="564.98" width="0.7" height="2.96" transform="translate(1134.45 -302.45) rotate(76.64)" style="fill:#fff"/><rect x="758.21" y="564.98" width="0.7" height="2.96" transform="translate(1627.46 942.35) rotate(166.64)" style="fill:#fff"/><path d="M755.4,563.45l-1,1.59-1.8-1.1,1-1.6,1.79,1.11m.44-.11-2.34-1.44L752.18,564l2.34,1.45,1.32-2.15Z" style="fill:#fff"/><polygon points="750.2 562.17 747.86 560.73 747.57 561.2 749.91 562.64 750.2 562.17 750.2 562.17" style="fill:#fff"/></g></g></svg>