<svg xmlns="http://www.w3.org/2000/svg" width="70" height="70" viewBox="0 0 70 70"><g style="isolation:isolate"><g id="fb978d10-f4a4-40a9-999d-efe412c28234" data-name="Layer 1"><path d="M44.65,7.26a22.87,22.87,0,0,0-8-1.76C33,5.52,29.43,7,26.06,8.55,19.86,11.38,15,15.81,9.88,20.32,5.77,24,5.09,31.53,5.22,36.66c0,.62,0,1.25.06,1.87a18.06,18.06,0,0,0,1,5.61C7.32,47,9.81,49.42,11.7,51.77a28.91,28.91,0,0,0,6.79,6.5c3.11,2.07,7.56,5.61,11.39,5.93,4.84.41,8.53.61,13.18-.84C48,61.82,53.42,59.57,57,55.63c1.87-2.07,3.09-5,4.48-7.43a23.53,23.53,0,0,0,3.13-15.14c-.73-5.64-2.94-10-5.28-15C56.31,11.57,51,9.65,44.65,7.26Z" style="fill:#aecc53;opacity:0.2"/><path d="M30,19.65v.75a1.27,1.27,0,0,1-1.28,1.27h-10a1.27,1.27,0,0,0-1.27,1.27V43a1.27,1.27,0,0,0,1.27,1.28H43.26A1.28,1.28,0,0,0,44.54,43V19.65a1.27,1.27,0,0,0-1.28-1.27h-12A1.27,1.27,0,0,0,30,19.65Z" style="fill:#006d68"/><path d="M38,27v.74a1.27,1.27,0,0,1-1.27,1.27h-10a1.28,1.28,0,0,0-1.28,1.28v20a1.27,1.27,0,0,0,1.28,1.27H51.23a1.27,1.27,0,0,0,1.27-1.27V27a1.27,1.27,0,0,0-1.27-1.28h-12A1.27,1.27,0,0,0,38,27Z" style="fill:#aecc53;mix-blend-mode:multiply"/></g></g></svg>