<svg width="18" height="18" viewBox="0 0 18 18" fill="none" xmlns="http://www.w3.org/2000/svg"> <path fill-rule="evenodd" clip-rule="evenodd" d="M18 9C18 13.9706 13.9706 18 9 18C4.02944 18 0 13.9706 0 9C0 4.02944 4.02944 0 9 0C13.9706 0 18 4.02944 18 9ZM13.5341 5.59088C13.2046 5.26137 12.6704 5.26137 12.3409 5.59088C12.3329 5.59884 12.3254 5.60726 12.3185 5.61612L8.41207 10.5938L6.05686 8.23863C5.72736 7.90912 5.19312 7.90912 4.86362 8.23863C4.53411 8.56813 4.53411 9.10236 4.86362 9.43187L7.84087 12.4091C8.17038 12.7386 8.70461 12.7386 9.03411 12.4091C9.04145 12.4018 9.04838 12.394 9.05486 12.3859L13.5461 6.77191C13.8636 6.44154 13.8596 5.91634 13.5341 5.59088Z" fill="currentColor"/> </svg>