<svg xmlns="http://www.w3.org/2000/svg" width="70" height="70" viewBox="0 0 70 70"><g style="isolation:isolate"><g id="a762c39a-235a-4e05-b339-b5940dd4185b" data-name="Layer 1"><path d="M44.65,7.26a22.87,22.87,0,0,0-8-1.76C33,5.52,29.43,7,26.06,8.55,19.86,11.38,15,15.81,9.88,20.32,5.77,24,5.09,31.53,5.22,36.66c0,.62,0,1.25.06,1.87a18.06,18.06,0,0,0,1,5.61C7.32,47,9.81,49.42,11.7,51.77a28.91,28.91,0,0,0,6.79,6.5c3.11,2.07,7.56,5.61,11.39,5.93,4.84.41,8.53.61,13.18-.84C48,61.82,53.42,59.57,57,55.63c1.87-2.07,3.09-5,4.48-7.43a23.53,23.53,0,0,0,3.13-15.14c-.73-5.64-2.94-10-5.28-15C56.31,11.57,51,9.65,44.65,7.26Z" style="fill:#aecc53;opacity:0.2"/><path d="M55.4,33.79H52.31a11.79,11.79,0,0,0-2.59-6.23l2.19-2.19a1.21,1.21,0,0,0,0-1.71,1.2,1.2,0,0,0-1.71,0L48,25.85a11.74,11.74,0,0,0-6.23-2.59V20.17a1.21,1.21,0,1,0-2.42,0v3.09a11.68,11.68,0,0,0-6.23,2.59l-2.19-2.19a1.21,1.21,0,1,0-1.72,1.71l2.19,2.19a11.79,11.79,0,0,0-2.59,6.23H25.74a1.21,1.21,0,1,0,0,2.42h3.08a11.79,11.79,0,0,0,2.59,6.23l-2.19,2.19a1.21,1.21,0,1,0,1.72,1.71l2.19-2.19a11.68,11.68,0,0,0,6.23,2.59v3.09a1.21,1.21,0,1,0,2.42,0V46.74A11.74,11.74,0,0,0,48,44.15l2.19,2.19a1.17,1.17,0,0,0,.85.36,1.22,1.22,0,0,0,.86-2.07l-2.19-2.19a11.79,11.79,0,0,0,2.59-6.23H55.4a1.21,1.21,0,0,0,0-2.42Zm-5.54,0H43.49l4.5-4.5A9.32,9.32,0,0,1,49.86,33.79Zm-3.58-6.21-4.5,4.5V25.71A9.22,9.22,0,0,1,46.28,27.58Zm-6.92-1.87v6.37l-4.51-4.5A9.22,9.22,0,0,1,39.36,25.71Zm-6.22,3.58,4.5,4.5H31.27A9.32,9.32,0,0,1,33.14,29.29Zm-1.87,6.92h6.37l-4.5,4.5A9.32,9.32,0,0,1,31.27,36.21Zm3.58,6.22,4.51-4.51v6.37A9.3,9.3,0,0,1,34.85,42.43Zm6.93,1.86V37.92l4.5,4.51A9.3,9.3,0,0,1,41.78,44.29ZM48,40.71l-4.5-4.5h6.37A9.32,9.32,0,0,1,48,40.71Z" style="fill:#006d68"/><path d="M41.59,37.73V32.27H37.82a10.6,10.6,0,0,0-1.1-2.64L39.39,27,35.53,23.1l-2.67,2.67a10.07,10.07,0,0,0-2.64-1.09V20.9H24.76v3.78a10.36,10.36,0,0,0-2.64,1.09L19.45,23.1,15.59,27l2.67,2.67a11,11,0,0,0-1.09,2.64H13.39v5.46h3.78a11,11,0,0,0,1.09,2.64L15.59,43l3.86,3.86,2.67-2.67a10.36,10.36,0,0,0,2.64,1.09V49.1h5.46V45.32a10.07,10.07,0,0,0,2.64-1.09l2.67,2.67L39.39,43l-2.67-2.67a10.6,10.6,0,0,0,1.1-2.64Z" style="fill:#aecc53;mix-blend-mode:multiply"/></g></g></svg>