<svg width="17" height="16" viewBox="0 0 17 16" fill="none" xmlns="http://www.w3.org/2000/svg">
<path fill-rule="evenodd" clip-rule="evenodd" d="M0.25 8C0.25 3.58172 3.83172 0 8.25 0C12.6683 0 16.25 3.58172 16.25 8C16.25 12.4183 12.6683 16 8.25 16C3.83172 16 0.25 12.4183 0.25 8ZM7.75 1.07655C7.08057 1.28128 6.41462 1.89722 5.86275 2.93199C5.68997 3.25594 5.533 3.61363 5.39499 3.99999H7.75V1.07655ZM4.33954 3.99999H2.50469C3.26629 2.90813 4.33119 2.04354 5.57726 1.52835C5.35862 1.81241 5.15911 2.1263 4.98039 2.4614C4.73325 2.92479 4.51796 3.44139 4.33954 3.99999ZM3.75845 7.49999H1.26758C1.33035 6.61049 1.55933 5.76687 1.92363 4.99999H4.07001C3.8957 5.7817 3.78819 6.62317 3.75845 7.49999ZM5.09686 4.99999H7.75V7.49999H4.75906C4.79152 6.60778 4.91006 5.76497 5.09686 4.99999ZM8.75 4.99999V7.49999H11.7409C11.7085 6.60778 11.5899 5.76497 11.4031 4.99999H8.75ZM4.75906 8.49999H7.75V11H5.09686C4.91006 10.235 4.79152 9.39221 4.75906 8.49999ZM8.75 8.49999V11H11.4031C11.5899 10.235 11.7085 9.39221 11.7409 8.49999H8.75ZM5.39499 12H7.75V14.9234C7.08057 14.7187 6.41462 14.1028 5.86275 13.068C5.68997 12.744 5.533 12.3864 5.39499 12ZM5.57726 14.4716C5.35863 14.1876 5.15911 13.8737 4.98039 13.5386C4.73325 13.0752 4.51796 12.5586 4.33954 12H2.50469C3.26629 13.0919 4.33119 13.9565 5.57726 14.4716ZM4.07001 11H1.92363C1.55933 10.2331 1.33035 9.3895 1.26758 8.49999H3.75845C3.78819 9.37682 3.8957 10.2183 4.07001 11ZM10.9227 14.4716C12.1688 13.9565 13.2337 13.0919 13.9953 12H12.1604C11.982 12.5586 11.7667 13.0752 11.5196 13.5386C11.3409 13.8737 11.1414 14.1876 10.9227 14.4716ZM8.75 12H11.105C10.967 12.3864 10.81 12.744 10.6372 13.068C10.0854 14.1028 9.41942 14.7187 8.75 14.9234V12ZM12.43 11H14.5764C14.9407 10.2331 15.1696 9.3895 15.2324 8.49999H12.7415C12.7118 9.37682 12.6043 10.2183 12.43 11ZM15.2324 7.49999H12.7415C12.7118 6.62317 12.6043 5.7817 12.43 4.99999H14.5764C14.9407 5.76687 15.1696 6.61049 15.2324 7.49999ZM11.5196 2.4614C11.7667 2.92479 11.982 3.44139 12.1604 3.99999H13.9953C13.2337 2.90812 12.1688 2.04353 10.9227 1.52835C11.1414 1.81241 11.3409 2.1263 11.5196 2.4614ZM11.105 3.99999H8.75V1.07655C9.41942 1.28128 10.0854 1.89722 10.6372 2.93199C10.81 3.25594 10.967 3.61363 11.105 3.99999Z" fill="currentColor"/>
</svg>
