<svg xmlns="http://www.w3.org/2000/svg" width="70" height="70" viewBox="0 0 70 70"><g style="isolation:isolate"><g id="ad0c8f3a-0f65-434c-970f-b3783c6286d5" data-name="text"><path d="M44.65,7.26c-13-5.74-25.52,4.79-34.77,13.06-5.6,5.85-5.46,16.43-3.64,23.82C11.2,53,19.88,61.57,29.88,64.2,48.23,67.49,66.76,52,64.59,33.06,62.57,21.39,57.05,10.12,44.65,7.26Z" style="fill:#aecc53;opacity:0.2"/><rect x="24.23" y="19.48" width="29.41" height="35.7" style="fill:#006d68"/><rect x="32.73" y="14.25" width="12.09" height="6.46" style="fill:#aecc53;mix-blend-mode:multiply"/><path d="M36.92,36.81a12.34,12.34,0,0,1-24.68,0c0-6.81,12.34-22.4,12.34-22.4S36.92,30,36.92,36.81Z" style="fill:#aecc53;mix-blend-mode:multiply"/><line x1="24.06" y1="56.01" x2="24.06" y2="27.69" style="fill:none;stroke:#fff;stroke-linecap:round;stroke-miterlimit:10"/></g></g></svg>