<svg xmlns="http://www.w3.org/2000/svg" width="70" height="70" viewBox="0 0 70 70"><g style="isolation:isolate"><g id="bd6cffcf-eee2-4f80-9dd8-5e096b7417d9" data-name="text"><path d="M44.65,7.26a22.87,22.87,0,0,0-8-1.76C33,5.52,29.43,7,26.06,8.55,19.86,11.38,15,15.81,9.88,20.32,5.77,24,5.09,31.53,5.22,36.66c0,.62,0,1.25.06,1.87a18.06,18.06,0,0,0,1,5.61C7.32,47,9.81,49.42,11.7,51.77a28.91,28.91,0,0,0,6.79,6.5c3.11,2.07,7.56,5.61,11.39,5.93,4.84.41,8.53.61,13.18-.84C48,61.82,53.42,59.57,57,55.63c1.87-2.07,3.09-5,4.48-7.43a23.53,23.53,0,0,0,3.13-15.14c-.73-5.64-2.94-10-5.28-15C56.31,11.57,51,9.65,44.65,7.26Z" style="fill:#aecc53;opacity:0.2"/><line x1="23" y1="46.5" x2="23" y2="49.5" style="fill:none;stroke:#fff;stroke-miterlimit:10;stroke-width:0.5px"/><line x1="27.5" y1="46.5" x2="27.5" y2="49.5" style="fill:none;stroke:#fff;stroke-miterlimit:10;stroke-width:0.5px"/><line x1="32" y1="46.5" x2="32" y2="49.5" style="fill:none;stroke:#fff;stroke-miterlimit:10;stroke-width:0.5px"/><path d="M40,27a12.5,12.5,0,1,0-21.57,8.6A15.11,15.11,0,0,1,22.5,46v.47h10V46a16.11,16.11,0,0,1,4.31-10.7A12.45,12.45,0,0,0,40,27Z" style="fill:#006d68"/><path d="M55,26.82a12.5,12.5,0,1,0-21.57,8.6A15.11,15.11,0,0,1,37.5,45.85v.47h10v-.47a16.11,16.11,0,0,1,4.31-10.7A12.45,12.45,0,0,0,55,26.82Z" style="fill:#aecc53;mix-blend-mode:multiply"/><path d="M30.05,49.5V46a26.1,26.1,0,0,1,2.2-10.7A20.46,20.46,0,0,0,33.87,27c0-7.07-3-12.77-6.63-12.49-3.34.26-6.08,5.78-6.11,12.34a20.28,20.28,0,0,0,1.75,8.75A24.81,24.81,0,0,1,25,46V49.5" style="fill:none;stroke:#fff;stroke-linecap:round;stroke-miterlimit:10;stroke-width:0.5px"/><path d="M32.5,50h-10a.5.5,0,0,1,0-1h10a.5.5,0,0,1,0,1Z" style="fill:#006d68"/><polygon points="30.5 55.5 24.5 55.5 22.5 49.5 32.5 49.5 30.5 55.5" style="fill:#aecc53;mix-blend-mode:multiply"/><line x1="38" y1="46.5" x2="38" y2="49.5" style="fill:none;stroke:#fff;stroke-miterlimit:10;stroke-width:0.5px"/><line x1="42.5" y1="46.5" x2="42.5" y2="49.5" style="fill:none;stroke:#fff;stroke-miterlimit:10;stroke-width:0.5px"/><line x1="47" y1="46.5" x2="47" y2="49.5" style="fill:none;stroke:#fff;stroke-miterlimit:10;stroke-width:0.5px"/><line x1="39.95" y1="46.5" x2="39.95" y2="49.5" style="fill:none;stroke:#fff;stroke-miterlimit:10;stroke-width:0.5px"/><line x1="45.05" y1="49.5" x2="45.05" y2="46.5" style="fill:none;stroke:#fff;stroke-miterlimit:10;stroke-width:0.5px"/><polygon points="45.5 55.5 39.5 55.5 37.5 49.5 47.5 49.5 45.5 55.5" style="fill:#006d68"/><g style="mix-blend-mode:multiply"><path d="M47.5,50h-10a.5.5,0,0,1,0-1h10a.5.5,0,0,1,0,1Z" style="fill:#aecc53"/></g></g></g></svg>