<svg width="124" height="31" viewBox="0 0 124 31" fill="none" xmlns="http://www.w3.org/2000/svg">
<path d="M8.63012 25.5578C7.02103 25.5578 5.5943 25.195 4.34993 24.4694C3.10556 23.7437 2.12938 22.7233 1.42138 21.408C0.713376 20.0928 0.359375 18.5735 0.359375 16.85C0.359375 15.1039 0.702648 13.5506 1.3892 12.19C2.0972 10.8294 3.06265 9.77493 4.28557 9.0266C5.52993 8.2556 6.98884 7.8701 8.6623 7.8701C10.2285 7.8701 11.6123 8.23292 12.8138 8.95857C14.0152 9.68422 14.9485 10.682 15.6136 11.9519C16.3001 13.1991 16.6434 14.5937 16.6434 16.1357C16.6434 16.3852 16.6327 16.6459 16.6112 16.9181C16.6112 17.1902 16.6005 17.4736 16.579 17.7684H4.44648C4.53229 19.0837 4.96138 20.1155 5.73375 20.8638C6.52757 21.6121 7.4823 21.9863 8.59794 21.9863C9.43467 21.9863 10.1319 21.7935 10.6898 21.408C11.269 20.9999 11.6981 20.4783 11.977 19.8433H16.1607C15.8603 20.9091 15.3561 21.8842 14.6481 22.7686C13.9616 23.6303 13.1034 24.3106 12.0736 24.8095C11.0652 25.3084 9.9174 25.5578 8.63012 25.5578ZM8.6623 11.4076C7.65394 11.4076 6.76357 11.7138 5.9912 12.326C5.21884 12.9156 4.72538 13.8227 4.51084 15.0472H12.4598C12.3954 13.9361 12.0092 13.0517 11.3012 12.3941C10.5932 11.7365 9.71358 11.4076 8.6623 11.4076Z" fill="#1F1F1F"/>
<path d="M19.4644 25.1497V8.27827H23.1009L23.4227 11.1355C23.9162 10.1378 24.6242 9.34408 25.5467 8.75448C26.4907 8.16489 27.5956 7.8701 28.8615 7.8701C30.8353 7.8701 32.3693 8.52772 33.4635 9.84296C34.5577 11.1582 35.1047 13.0857 35.1047 15.6255V25.1497H30.9855V16.0337C30.9855 14.5824 30.7066 13.4712 30.1487 12.7002C29.5909 11.9292 28.722 11.5437 27.542 11.5437C26.3835 11.5437 25.4287 11.9746 24.6778 12.8363C23.9484 13.698 23.5836 14.8998 23.5836 16.4419V25.1497H19.4644Z" fill="#1F1F1F"/>
<path d="M42.5554 25.1497L36.6983 8.27827H41.0106L45.0655 21.0339L49.1205 8.27827H53.4328L47.5435 25.1497H42.5554Z" fill="#1F1F1F"/>
<path d="M57.6079 5.65913C56.857 5.65913 56.2348 5.42102 55.7414 4.94481C55.2694 4.46861 55.0334 3.86768 55.0334 3.14202C55.0334 2.41637 55.2694 1.82678 55.7414 1.37325C56.2348 0.897039 56.857 0.658936 57.6079 0.658936C58.3588 0.658936 58.9703 0.897039 59.4423 1.37325C59.9358 1.82678 60.1825 2.41637 60.1825 3.14202C60.1825 3.86768 59.9358 4.46861 59.4423 4.94481C58.9703 5.42102 58.3588 5.65913 57.6079 5.65913ZM55.5483 25.1497V8.27827H59.6676V25.1497H55.5483Z" fill="#1F1F1F"/>
<path d="M70.4357 25.1497C68.7622 25.1497 67.4213 24.7188 66.4129 23.8571C65.4046 22.9954 64.9004 21.4647 64.9004 19.2651V11.9179H62.1649V8.27827H64.9004L65.3831 3.75429H69.0197V8.27827H73.3321V11.9179H69.0197V19.2991C69.0197 20.1155 69.1806 20.6824 69.5024 20.9999C69.8457 21.2946 70.4249 21.442 71.2402 21.442H73.2355V25.1497H70.4357Z" fill="#1F1F1F"/>
<path d="M83.5724 25.5578C81.9633 25.5578 80.5366 25.195 79.2922 24.4694C78.0479 23.7437 77.0717 22.7233 76.3637 21.408C75.6557 20.0928 75.3017 18.5735 75.3017 16.85C75.3017 15.1039 75.645 13.5506 76.3315 12.19C77.0395 10.8294 78.005 9.77493 79.2279 9.0266C80.4722 8.2556 81.9311 7.8701 83.6046 7.8701C85.1708 7.8701 86.5546 8.23292 87.7561 8.95857C88.9575 9.68422 89.8908 10.682 90.5559 11.9519C91.2424 13.1991 91.5857 14.5937 91.5857 16.1357C91.5857 16.3852 91.575 16.6459 91.5535 16.9181C91.5535 17.1902 91.5428 17.4736 91.5213 17.7684H79.3888C79.4746 19.0837 79.9037 20.1155 80.6761 20.8638C81.4699 21.6121 82.4246 21.9863 83.5402 21.9863C84.377 21.9863 85.0742 21.7935 85.6321 21.408C86.2113 20.9999 86.6404 20.4783 86.9193 19.8433H91.103C90.8026 20.9091 90.2984 21.8842 89.5904 22.7686C88.9039 23.6303 88.0457 24.3106 87.0159 24.8095C86.0075 25.3084 84.8597 25.5578 83.5724 25.5578ZM83.6046 11.4076C82.5962 11.4076 81.7059 11.7138 80.9335 12.326C80.1611 12.9156 79.6677 13.8227 79.4531 15.0472H87.4021C87.3377 13.9361 86.9515 13.0517 86.2435 12.3941C85.5355 11.7365 84.6559 11.4076 83.6046 11.4076Z" fill="#1F1F1F"/>
<path d="M123.251 14.912L123.251 18.594L114.299 18.594L120.629 25.2845L118.166 27.8879L111.836 21.1979L111.836 30.6589L108.353 30.6589L108.353 2.84626L111.836 2.84626L111.836 12.308L118.166 5.61789L120.629 8.22171L114.299 14.912L123.251 14.912Z" fill="#6CCBB2"/>
<path d="M99.0891 8.43798L106.959 16.7536L99.0891 25.0691L96.6465 22.4878L102.072 16.7536L96.6465 11.0197L99.0891 8.43798Z" fill="#6CCBB2"/>
</svg>
