<?xml version="1.0" encoding="UTF-8"?>
<svg id="LOGO" xmlns="http://www.w3.org/2000/svg" version="1.1" viewBox="0 0 695 152">
  <!-- Generator: Adobe Illustrator 29.8.2, SVG Export Plug-In . SVG Version: 2.1.1 Build 3)  -->
  <defs>
    <style>
      .st0 {
        fill: #fca326;
      }

      .st1 {
        fill: #fc6d26;
      }

      .st2 {
        fill: #e24329;
      }

      .st3 {
        fill: #171321;
      }
    </style>
  </defs>
  <g>
    <path class="st3" d="M279.98,57.51h22.78c-3.8-24.22-24.76-41.09-52.06-41.09-32.3,0-56.52,23.74-56.52,63.51s23.14,63.27,57.18,63.27c30.55,0,52.42-19.64,52.42-51.46v-14.82h-50.07v17.47h28.44c-.36,17.59-12.11,28.74-30.67,28.74-20.67,0-34.83-15.48-34.83-43.44s14.4-43.2,34.34-43.2c14.88,0,25,7.95,28.98,21.03h0Z"/>
    <path class="st3" d="M318.83,141.5h21.81V48.95h-21.81v92.55ZM329.79,34.3c6.93,0,12.59-5.3,12.59-11.81s-5.66-11.87-12.59-11.87-12.65,5.3-12.65,11.87,5.66,11.81,12.65,11.81Z"/>
    <path class="st3" d="M405.95,48.95h-18.26v-22.17h-21.81v22.17h-13.14v16.87h13.14v51.46c-.12,17.41,12.53,25.97,28.92,25.49,6.21-.18,10.48-1.39,12.83-2.17l-3.67-17.05c-1.21.3-3.68.84-6.39.84-5.48,0-9.88-1.93-9.88-10.72v-47.84h18.26v-16.87h0Z"/>
    <path class="st3" d="M422.83,141.5h76.7v-18.74h-54.35V18.1h-22.35v123.4h0Z"/>
    <path class="st3" d="M541.31,143.37c14.52,0,23.2-6.81,27.17-14.58h.72v12.71h20.97v-61.94c0-24.46-19.94-31.81-37.6-31.81-19.46,0-34.4,8.68-39.22,25.55l20.37,2.89c2.17-6.33,8.31-11.75,18.98-11.75s15.67,5.18,15.67,14.28v.36c0,6.27-6.57,6.57-22.9,8.31-17.96,1.93-35.13,7.29-35.13,28.14,0,18.2,13.32,27.84,30.97,27.84ZM548.48,127.34c-9.1,0-15.61-4.16-15.61-12.17s7.29-11.87,17.05-13.26c5.72-.78,17.17-2.23,20-4.52v10.91c0,10.3-8.32,19.04-21.45,19.04h0Z"/>
    <path class="st3" d="M606.26,141.5h21.45v-14.58h1.27c3.44,6.75,10.6,16.21,26.51,16.21,21.81,0,38.14-17.29,38.14-47.78s-16.81-47.6-38.2-47.6c-16.33,0-23.14,9.82-26.45,16.51h-.9V18.1h-21.81v123.4h0ZM627.65,95.23c0-17.96,7.71-29.58,21.75-29.58s21.99,12.35,21.99,29.58-7.59,30.01-21.99,30.01-21.75-12.05-21.75-30.01Z"/>
  </g>
  <g>
    <path class="st2" d="M154.41,60.37l-.21-.56-21.2-55.31c-.42-1.08-1.19-2-2.18-2.63-.99-.63-2.15-.93-3.32-.87-1.17.06-2.29.49-3.21,1.22-.91.74-1.57,1.73-1.87,2.85l-14.31,43.81h-57.91L35.88,5.08c-.31-1.12-.97-2.12-1.87-2.85-.92-.73-2.04-1.16-3.21-1.22-1.18-.06-2.33.24-3.32.87-.99.63-1.75,1.54-2.18,2.63L4.1,59.82l-.21.55c-6.28,16.39-.93,34.91,13.06,45.49.03.02.05.04.08.06l.19.14,32.29,24.17,15.97,12.09,9.72,7.35c2.34,1.77,5.58,1.77,7.92,0l9.72-7.35,15.97-12.09,32.48-24.32s.06-.04.09-.07c13.98-10.58,19.33-29.1,13.05-45.48h0Z"/>
    <path class="st1" d="M154.41,60.37l-.21-.56c-10.52,2.16-20.2,6.61-28.5,12.82-.13.1-25.2,19.06-46.55,35.2,15.85,11.99,29.65,22.4,29.65,22.4l32.48-24.32s.06-.04.09-.07c13.98-10.58,19.33-29.1,13.05-45.48h0Z"/>
    <path class="st0" d="M49.5,130.23l15.97,12.09,9.72,7.35c2.34,1.77,5.58,1.77,7.92,0l9.72-7.35,15.97-12.09s-13.8-10.42-29.65-22.4c-15.85,11.99-29.65,22.4-29.65,22.4Z"/>
    <path class="st1" d="M32.6,72.63c-8.29-6.2-17.97-10.66-28.5-12.81l-.21.55c-6.28,16.39-.93,34.91,13.06,45.49.03.02.05.04.08.06l.19.14,32.29,24.17s13.8-10.42,29.65-22.4c-21.35-16.14-46.42-35.1-46.55-35.2Z"/>
  </g>
</svg>