<?xml version="1.0" encoding="utf-8"?>
<svg xmlns="http://www.w3.org/2000/svg" width="208" height="41" viewBox="0 0 208 41" fill="none">
<path d="M17.2832 37.2969C7.1775 37.2969 0.887207 28.6693 0.887207 19.4229C0.887207 9.66091 6.52441 1.7207 17.2832 1.7207C25.2234 1.7207 31.3418 6.36109 31.8574 13.1326H24.8797C24.536 9.97027 21.2361 7.4954 17.4207 7.4954C11.7835 7.4954 8.13995 11.792 8.13995 19.7322C8.13995 25.1976 10.9585 31.316 17.4207 31.316C23.3673 31.316 25.5328 28.3255 25.5328 23.6852H18.1082V18.2198H32.0293V23.857C31.8574 31.6597 28.3514 37.2969 17.2832 37.2969Z" fill="black"/>
<path d="M35.8103 36.1282V2.51123H42.2725V36.1282H35.8103Z" fill="black"/>
<path d="M45.4348 21.8977C45.9161 16.4324 50.9002 11.4483 56.3655 10.967C64.9932 10.1421 70.596 15.4356 70.596 23.8914C70.596 31.6597 65.7838 36.8157 58.0154 36.8157C49.3877 36.7813 44.6099 30.491 45.4348 21.8977ZM63.962 23.857C63.962 18.8729 61.9683 16.398 58.0154 16.398C54.0281 16.398 52.0689 18.8729 52.0689 23.857C52.0689 28.8411 54.0625 31.316 58.0154 31.316C61.9683 31.316 63.962 28.8411 63.962 23.857Z" fill="black"/>
<path d="M73.5865 36.1282V2.51123H80.0487V14.7481C81.8705 12.1013 84.3453 10.9327 87.3358 10.9327C93.6261 10.9327 97.4415 16.2261 97.4415 23.6851C97.4415 31.969 92.973 36.9188 86.8546 36.9188C83.8641 36.9188 81.5611 35.7501 80.0487 33.2752V36.2657H73.5865V36.1282ZM90.8075 24.0288C90.8075 19.0447 88.9857 16.398 85.1703 16.398C81.5268 16.398 79.705 19.0447 79.705 24.3382C79.705 28.463 82.1798 31.4534 85.1703 31.4534C88.4701 31.4878 90.8075 28.3599 90.8075 24.0288Z" fill="black"/>
<path d="M116.622 36.1283C116.45 35.4752 116.278 34.6502 116.278 33.9628C114.8 35.6127 112.153 36.7814 108.819 36.7814C103.182 36.7814 100.535 33.9628 100.535 29.9755C100.535 22.8602 105.347 22.0353 111.809 21.2103C115.109 20.7291 115.934 20.0416 115.934 18.3917C115.934 16.7418 114.284 15.9168 111.809 15.9168C108.819 15.9168 107.685 17.3949 107.341 19.5604H101.222C101.394 14.4388 104.213 10.9327 111.981 10.9327C119.75 10.9327 122.431 14.4044 122.431 20.6947V36.3001H116.622V36.1283ZM116.312 24.0289C115.659 24.682 114.491 25.0257 112.188 25.507C108.544 26.1601 107.203 27.3287 107.203 29.3224C107.203 31.1442 108.372 32.141 110.366 32.141C113.666 32.141 116.175 29.6661 116.312 26.8475V24.0289Z" fill="black"/>
<path d="M142.952 36.1283V21.2103C142.952 17.3949 141.783 16.3981 138.827 16.3981C135.355 16.3981 133.843 18.2198 133.843 22.0353V36.0939H127.38V11.414H133.327V15.0575C134.805 12.2389 137.314 10.7609 141.267 10.7609C145.908 10.7609 149.379 13.5795 149.379 19.0448V36.0939H142.952V36.1283Z" fill="black"/>
<path d="M168.285 26.8477C168.113 29.4944 166.944 31.1443 164.469 31.1443C161.823 31.1443 160.654 29.3225 160.654 26.1602V16.0545H170.76V10.9329H160.654V4.81445H154.192V26.8477C154.192 32.1411 157.01 36.7815 164.297 36.7815C171.241 36.7815 174.231 32.1411 174.231 26.8477H168.285Z" fill="black"/>
<path d="M182.206 0.689587C181.553 0.208362 180.556 0.517719 180.04 1.17081C179.868 1.51454 179.696 1.99577 179.868 2.33951L182.859 6.63615C188.496 15.092 188.496 26.1601 182.859 34.6159L179.868 38.9126C179.696 39.7375 180.04 40.5625 180.865 40.7343C181.209 40.9062 181.69 40.7343 182.034 40.5625L206.37 22.001C207.195 21.3479 207.367 20.1792 206.714 19.3542C206.542 19.1824 206.542 19.0105 206.37 19.0105L182.206 0.689587Z" fill="#BFD732"/>
</svg>