<?xml version="1.0" encoding="UTF-8"?>
<svg id="Layer_1" xmlns="http://www.w3.org/2000/svg" version="1.1" viewBox="0 0 155.57 59.6">
  <!-- Generator: Adobe Illustrator 29.8.2, SVG Export Plug-In . SVG Version: 2.1.1 Build 3)  -->
  <path d="M58.27,15.7h1.4v-7.6h-1.4v-1.6h4.9l1.7,5.9c.3,1.1.4,1.4.6,2.5h.1c.2-1,.3-1.3.6-2.4l1.7-5.9h4.9v1.6h-1.4v7.6h1.4v1.6h-4.5v-1.6h1.2v-4.5c0-1.4,0-1.9.1-3.4h-.1c-.3,1.4-.4,1.9-.9,3.3l-1.8,6.1h-2.6l-1.8-6.1c-.5-1.4-.6-1.9-1-3.4h0c.1,1.5.1,2,.1,3.4v4.5h1.2v1.6h-4.3v-1.6h-.1ZM78.67,16.2c-.9.9-1.6,1.2-2.6,1.2-1.7,0-2.8-1-2.8-2.4,0-1.7,1.3-2.5,3.8-2.5h1.5v-.3c0-.5,0-.7-.2-.9-.2-.3-.7-.4-1.2-.4-.9,0-1.3.3-1.4,1.1h-2.1c0-1.7,1.2-2.5,3.5-2.5,1.1,0,2.1.3,2.7.8.4.4.7,1,.7,1.9v3.6h1v1.5h-2.8v-.5c-.1-.2-.1-.3-.1-.6h0ZM77.47,13.9c-1.3,0-2,.4-2,1.2,0,.6.5,1,1.2,1s1.3-.3,1.6-.9c.2-.4.3-.6.3-1.2l-1.1-.1ZM82.37,15.8h1v-4.6h-1v-1.5h3.1v.5c0,.3,0,.4-.1.8h.1c.7-1.1,1.4-1.5,2.6-1.5,1.7,0,2.7,1,2.7,2.7v3.6h.9v1.5h-4.1v-1.5h1v-3.2c0-1-.4-1.4-1.3-1.4-1.1,0-1.7.7-1.7,2v2.7h1v1.5h-4.2v-1.6ZM99.37,14.7c-.1,1.8-1.3,2.8-3.4,2.8-1.2,0-2.2-.4-2.9-1.1-.7-.7-1-1.8-1-2.9,0-2.4,1.4-4,3.4-4,1,0,1.7.4,2.2,1.3h0c-.1-.3-.1-.5-.1-.7v-.4h1.6v3h-1.8c-.1-1.1-.5-1.6-1.4-1.6-1.1,0-1.8.9-1.8,2.4s.6,2.4,1.7,2.4c.8,0,1.3-.4,1.4-1.2,0,0,2.1,0,2.1,0ZM100.27,15.8h1.1v-7.9h-1.1v-1.5h3.2v2.4c0,.9,0,1.2-.1,2h0c.8-1,1.4-1.4,2.4-1.4,1.7,0,2.8,1,2.8,2.5v3.8h1v1.5h-4.2v-1.4h1v-3.2c0-.9-.4-1.4-1.3-1.4-1.1,0-1.7.7-1.7,2v2.7h1v1.5h-4.2v-1.6h.1ZM117.57,14.9c-.2,1.5-1.6,2.5-3.6,2.5-2.4,0-4-1.5-4-4,0-1.3.3-2.2,1.1-2.9.7-.7,1.7-1,2.8-1,2.3,0,3.7,1.5,3.7,3.9v.6h-5.1q-.2,0-.4-.1c.1,1.3.8,2,1.9,2,.8,0,1.3-.4,1.5-1h2.1ZM115.07,12.8h.5c-.1-1.2-.7-1.8-1.6-1.8-1,0-1.6.7-1.7,1.8h2.8ZM120.37,14.6c.1.9.7,1.4,1.6,1.4.7,0,1.1-.3,1.1-.8s-.3-.8-1.3-1c-1.6-.3-2.1-.5-2.5-.8-.4-.4-.6-.9-.6-1.5,0-1.6,1-2.5,2.8-2.5.9,0,1.5.3,2.1,1.1h0c-.1-.2-.1-.3-.1-.5v-.3h1.6v2.5h-1.7c-.1-.9-.6-1.4-1.5-1.4-.7,0-1.1.3-1.1.8,0,.2.1.4.3.5s.4.2.6.2l1,.2c1.3.3,1.7.5,2.1,1,.3.4.4.8.4,1.4,0,1.5-1,2.4-2.8,2.4-1,0-1.5-.3-2.2-1.2h-.1c.1.2.1.4.1.5v.4h-1.6v-2.6h1.8v.2ZM125.77,9.7h1.3v-1.5l2.2-.7v2.2h2.2v1.5h-2.2v3.9c0,.7.2.9.6.9.5,0,.6-.3.7-1.1h1.3v.3c0,1.5-.7,2.3-2.3,2.3s-2.4-.7-2.4-2.1v-4.1h-1.3v-1.6h-.1ZM139.87,14.9c-.2,1.5-1.6,2.5-3.6,2.5-2.4,0-4-1.5-4-4,0-1.3.3-2.2,1.1-2.9.7-.7,1.7-1,2.8-1,2.3,0,3.7,1.5,3.7,3.9v.6h-5.1q-.2,0-.4-.1c.1,1.3.8,2,1.9,2,.8,0,1.3-.4,1.5-1h2.1ZM137.47,12.8h.5c-.1-1.2-.7-1.8-1.6-1.8-1,0-1.6.7-1.7,1.8h2.8ZM140.87,15.8h1.1v-4.6h-1.1v-1.5h3v.7c0,.3,0,.6-.2,1.2h.1c.6-1.5,1.3-2.1,2.4-2.1.3,0,.4,0,.8.1v1.8c-.3,0-.4-.1-.7-.1-1.5,0-2.4.8-2.4,2.3v2.1h1.3v1.5h-4.4v-1.4h.1ZM58.27,30.8h1.4v-7.6h-1.4v-1.4h4.9l1.7,5.9c.3,1.1.4,1.4.6,2.5h.1c.2-1,.3-1.3.6-2.4l1.7-5.9h4.9v1.6h-1.4v7.6h1.4v1.6h-4.5v-1.9h1.2v-4.5c0-1.4,0-1.9.1-3.4h-.1c-.3,1.4-.4,1.9-.9,3.3l-1.8,6.1h-2.6l-1.8-6.1c-.4-1.3-.5-1.8-.8-3.3h-.1c.1,1.5.1,2,.1,3.4v4.5h1.2v1.6h-4.3v-1.6h-.2ZM80.67,30.1c-.2,1.5-1.6,2.5-3.6,2.5-2.4,0-4-1.5-4-4,0-1.3.3-2.2,1.1-2.9.7-.7,1.7-1,2.8-1,2.3,0,3.7,1.5,3.7,3.9v.6h-5.1q-.2,0-.4-.1c.1,1.3.8,2,1.9,2,.8,0,1.3-.4,1.5-1h2.1ZM78.27,27.9h.5c-.1-1.2-.7-1.8-1.6-1.8-1,0-1.6.7-1.7,1.8h2.8ZM81.37,24.9h1.3v-1.5l2.2-.7v2.2h2.1v1.5h-2.1v3.9c0,.7.2.9.6.9.5,0,.6-.3.7-1.1h1.3v.3c0,1.5-.7,2.3-2.3,2.3s-2.4-.7-2.4-2.1v-4.1h-1.4v-1.6ZM88.07,30.9h1.1v-4.6h-1.1v-1.5h3v.7c0,.3,0,.6-.2,1.2h.1c.6-1.5,1.3-2.1,2.4-2.1.3,0,.4,0,.8.1v1.8c-.3,0-.4-.1-.7-.1-1.5,0-2.4.8-2.4,2.3v2.1h1.3v1.5h-4.4v-1.4h.1ZM102.67,28.6c0,2.4-1.6,4-4.1,4-1,0-2.1-.4-2.8-1-.8-.7-1.2-1.8-1.2-3,0-1.1.4-2.2,1-2.8.7-.7,1.8-1.1,3-1.1,2.5,0,4.1,1.5,4.1,3.9ZM96.87,28.6c0,1.5.7,2.4,1.8,2.4s1.8-.9,1.8-2.4-.7-2.4-1.8-2.4-1.8.9-1.8,2.4ZM103.27,33.7h1.1v-7.5h-1.1v-1.5h3v.6c0,.3,0,.4-.1.8h.1c.6-1.1,1.4-1.6,2.6-1.6,2.1,0,3.4,1.5,3.4,4s-1.3,3.9-3.3,3.9c-1.1,0-2-.5-2.5-1.5h-.1c.1.6.1.8.1,1.4v1.3h1.1v1.5h-4.3v-1.4h0ZM106.27,28.7c0,1.4.7,2.4,1.8,2.4s1.8-.9,1.8-2.4-.7-2.4-1.7-2.4c-1.1-.1-1.9.8-1.9,2.4ZM120.87,28.6c0,2.4-1.6,4-4.1,4-1,0-2.1-.4-2.8-1-.8-.7-1.2-1.8-1.2-3,0-1.1.4-2.2,1-2.8.7-.7,1.8-1.1,3-1.1,2.5,0,4.1,1.5,4.1,3.9ZM115.07,28.6c0,1.5.7,2.4,1.8,2.4s1.8-.9,1.8-2.4-.7-2.4-1.8-2.4-1.8.9-1.8,2.4ZM121.47,30.9h1.1v-7.9h-1.1v-1.5h3.2v9.3h.9v1.5h-4.1v-1.4ZM126.57,30.9h1.1v-4.6h-1.1v-1.5h3.2v6.1h1v1.5h-4.1v-1.5h-.1ZM127.47,21.6h2.2v2.2h-2.2v-2.2ZM130.87,24.9h1.3v-1.5l2.2-.7v2.2h2.1v1.5h-2.1v3.9c0,.7.2.9.6.9.5,0,.6-.3.7-1.1h1.3v.3c0,1.5-.7,2.3-2.3,2.3s-2.4-.7-2.4-2.1v-4.1h-1.3v-1.6h-.1ZM142.67,31.4c-.9.9-1.6,1.2-2.6,1.2-1.7,0-2.8-1-2.8-2.4,0-1.7,1.3-2.5,3.8-2.5h1.5v-.3c0-.5,0-.7-.2-.9-.2-.3-.7-.4-1.2-.4-.9,0-1.3.3-1.4,1.1h-2.1c0-1.7,1.2-2.5,3.5-2.5,1.1,0,2.1.3,2.7.8.4.4.7,1,.7,1.9v3.6h1v1.5h-2.8v-.4c-.1-.4-.1-.5-.1-.7h0ZM141.47,29c-1.3,0-2,.4-2,1.2,0,.6.5,1,1.2,1s1.3-.3,1.6-.9c.2-.4.3-.6.3-1.2l-1.1-.1ZM146.27,30.9h1v-4.6h-1v-1.5h3.1v.5c0,.3,0,.4-.1.8h.1c.7-1.1,1.4-1.5,2.6-1.5,1.7,0,2.7,1,2.7,2.7v3.6h.9v1.5h-4.2v-1.5h1v-3.2c0-1-.4-1.4-1.3-1.4-1.1,0-1.7.7-1.7,2v2.7h1v1.5h-4.2v-1.6h.1ZM59.67,38.3v-.3h-1.5v-1h4.5v1h-1.6v5.7c0,.8.2,1.3.5,1.8.5.7,1.3,1.1,2.3,1.1,1.8,0,2.8-1.2,2.8-3.2v-5.4h-1.7v-1h4.3v1h-1.4v5.2c0,1.5-.2,2.2-.7,3-.7,1-1.9,1.6-3.3,1.6-1.5,0-2.7-.5-3.4-1.4-.6-.7-.8-1.5-.8-2.7,0,0,0-5.4,0-5.4ZM72.17,41.6c.4-1.2,1.3-1.7,2.6-1.7,1.6,0,2.6.9,2.6,2.3v4.4h1.3v1h-3.8v-1h1.3v-3.9c0-1.1-.5-1.7-1.6-1.7-1.3-.1-2.2.9-2.2,2.4v3.3h1.4v1h-4v-1h1.4v-5.6h-1.4v-1h2.6v.7c-.2.2-.3.4-.2.8h0ZM81.77,46.2v.4h1.4v1h-4v-1h1.3v-5.6h-1.4v-1h2.7v6.2ZM81.77,36.9v1.4h-1.5v-1.4h1.5ZM88.77,41.9c.2-.4.2-.5.4-.9h-1.4v-1h3.5v1h-.9l-2.6,6.5h-1.7l-2.6-6.5h-.9v-1h3.6v1h-1.4c.2.4.2.5.4.9l1,2.8c.3.9.4,1,.6,1.8h.1c.2-.8.3-1,.6-1.8l1.3-2.8ZM98.67,45.2c-.2,1.5-1.6,2.5-3.4,2.5-2.3,0-3.8-1.5-3.8-3.8s1.4-4,3.8-4c1.7,0,2.9.9,3.3,2.4.2.6.2.9.2,1.8h-6c0,1.5,1,2.6,2.4,2.6,1.2,0,2-.5,2.2-1.4h1.3v-.1ZM96.97,43.1h.4c-.1-1.4-.9-2.2-2.2-2.2s-2.2.9-2.4,2.2h4.2ZM102.07,41.8c.3-1.3,1.1-1.9,2.4-1.9.2,0,.4,0,.6.1v1.2c-.3-.1-.4-.2-.7-.2-1.4,0-2.2,1-2.2,2.7v2.9h1.7v1h-4.3v-1h1.4v-5.6h-1.4v-1h2.6v1.3c-.1.2-.2.3-.1.5h0ZM111.77,40.1v2.4h-1.1c0-1-.7-1.6-2-1.6-1.1,0-1.8.4-1.8,1.1,0,.2.1.5.3.6.2.2.4.3,1,.3l.9.1c1,.1,1.6.3,1.9.6.4.3.7.9.7,1.5,0,1.5-1.1,2.4-3,2.4-1.1,0-1.9-.4-2.3-1.2h-.1c.1.3.1.4.1.6v.5h-1.1v-2.6h1.1c.1,1,.9,1.7,2.2,1.7.3,0,.8-.1,1.1-.2.4-.2.6-.5.6-.9s-.2-.7-.5-.9c-.2-.1-.5-.2-1.2-.3l-.8-.1c-1.7-.3-2.4-.8-2.4-2.1,0-.7.3-1.3,1-1.7.6-.4,1.4-.6,2.2-.5,1,.1,1.6.4,2,1.1h.1c-.1-.3-.1-.4-.1-.5v-.4h1.2v.1ZM115.37,46.2v.4h1.4v1h-4v-1h1.4v-5.6h-1.4v-1h2.7v6.2h-.1ZM115.37,36.9v1.4h-1.5v-1.4h1.5ZM121.97,45.2c0,.9-.1,1.3-.3,1.7-.4.6-.8.8-1.7.8-.6,0-1-.1-1.4-.4-.5-.4-.6-.8-.6-1.8v-4.4h-1.5v-1h1.5v-1.7l1.4-.5v2.3h2.5v1h-2.5v4.5c0,.5,0,.7.2.9.1.2.4.3.7.3s.6-.2.7-.5c.1-.2.1-.4.1-.9h.9v-.3ZM122.87,41.1h-.8v-1h3.6v1h-1.5q.2.4.4,1l1.1,2.6c.3.8.4,1,.7,1.7h.1c.2-.7.3-.9.6-1.7l1.1-2.6c.2-.5.2-.6.4-.9h-1.5v-1h3.5v1h-.8l-3.1,7.2c-.5,1.1-.7,1.5-1,1.8-.3.2-.8.4-1.4.4-.4,0-.7,0-1-.1v-1h.7c.8,0,.9-.1,1.3-1l.4-.8-2.8-6.6Z"/>
  <path d="M51.67,44.7h0c-4.8,3.4-16.9,6.9-19,.8-3.7,2.8-5.9,10.3-6.8,14.1h0c-.9-3.8-3.1-11.3-6.8-14.1-2,6.1-14.1,2.6-19-.8H.07c-.6-5.9,2.5-18.1,8.8-16.9C8.27,23.2,2.87,17.5.07,14.9H.07c3.7,1.1,11.4,2.9,15.6,1.1C11.37,11.2,20.47,2.5,25.87,0h0c5.3,2.5,14.4,11.2,10.2,16,4.2,1.8,11.9-.1,15.6-1.1h0c-2.8,2.7-8.2,8.4-8.8,12.9,6.2-1.2,9.3,11,8.8,16.9ZM25.87,2.6h0c-4.2,2.2-8.6,6-9.3,10.7h0c5.3-1.8,8.3,5.5,9.3,9.6,1-4.1,4-11.4,9.3-9.6h0c-.8-4.7-5.1-8.5-9.3-10.7ZM49.37,43.3h0c.2-4.7-.9-10.4-4.6-13.4h0c-1.1,5.5-8.9,4.4-13,3.2,3,2.9,7.9,9.2,3.7,12.9h0c4.4,1.7,9.9-.1,13.9-2.7ZM2.37,43.3h0c4,2.6,9.5,4.4,13.9,2.7h0c-4.2-3.7.7-9.9,3.7-12.9-4.1,1.2-11.9,2.3-13-3.2h0c-3.7,3-4.9,8.7-4.6,13.4ZM25.87,30.9h0c-4.2,2.4-8.6,6.6-9.3,11.8h0c5.3-2,8.3,6.1,9.3,10.6,1-4.5,4-12.6,9.3-10.6h0c-.8-5.2-5.1-9.4-9.3-11.8ZM24.87,29.2h0c.1-4.9-1.5-10.8-5.6-14h0c-.9,5.6-9.4,4.1-13.9,2.7,3.4,3.1,8.9,9.8,4.6,13.4h0c4.8,2,10.7.3,14.9-2.1ZM26.87,29.2h0c4.2,2.5,10,4.1,14.9,2.1h0c-4.4-3.6,1.2-10.2,4.6-13.4-4.5,1.4-13,2.9-14-2.7h0c-4.1,3.2-5.6,9.1-5.5,14Z"/>
</svg>