<?xml version="1.0" encoding="utf-8"?>
<svg xmlns="http://www.w3.org/2000/svg" xmlns:xlink="http://www.w3.org/1999/xlink" version="1.1" id="Shell_x5F_2012_x5F_PECTEN_x5F_RGB" x="0px" y="0px" viewBox="0 0 72.6 67.3" style="enable-background:new 0 0 72.6 67.3;">
<style type="text/css">
	.st0{fill:none;}
	.st1{fill:none;stroke:#FFFFFF;stroke-width:1.75;stroke-miterlimit:40;}
	.st2{fill:#FBCE07;}
	.st3{fill-rule:evenodd;clip-rule:evenodd;fill:#DD1D21;}
</style>
<rect x="-34.5" y="-37.3" class="st0" width="141.7" height="141.7"/>
<g>
	<path class="st1" d="M32.2,64.6h-18l-1.7-13.3L1.6,43.4c-0.5-2.3-0.7-4.7-0.7-7.1c0-19.6,15.9-35.4,35.4-35.4&#xA;		c19.6,0,35.4,15.9,35.4,35.4c0,2.4-0.2,4.8-0.7,7.1l-10.9,7.9l-1.6,13.3h-18l-1,0.8c-0.9,0.7-2,1-3.1,1s-2.2-0.4-3.1-1L32.2,64.6z"/>
	<path class="st2" d="M32.2,64.6h-18l-1.7-13.3L1.6,43.4c-0.5-2.3-0.7-4.7-0.7-7.1c0-19.6,15.9-35.4,35.4-35.4&#xA;		c19.6,0,35.4,15.9,35.4,35.4c0,2.4-0.2,4.8-0.7,7.1l-10.9,7.9l-1.6,13.3h-18l-1,0.8c-0.9,0.7-2,1-3.1,1s-2.2-0.4-3.1-1L32.2,64.6z"/>
	<path class="st3" d="M32.2,64.6h-18l-1.7-13.3L1.6,43.4c-0.5-2.3-0.7-4.7-0.7-7.1c0-19.6,15.9-35.4,35.4-35.4s35.4,15.9,35.4,35.4&#xA;		c0,2.4-0.2,4.8-0.7,7.1l-10.9,7.9l-1.6,13.3h-18l-1,0.8c-0.9,0.7-2,1-3.1,1s-2.2-0.4-3.1-1L32.2,64.6z M32.8,58.4H19.7l-1.3-10.6&#xA;		L7.6,40c-0.3-1.2-0.5-2.5-0.5-3.8c0-2.1,0.4-4.2,1.3-6.1l19.1,19.3L9,26.5c0.7-3,2.3-5.6,4.6-7.7l16.6,28.7L15.5,16.1&#xA;		c1.9-2.5,4.6-4.4,7.6-5.3l10.2,35.6L25.9,9.3c2.3-1.3,4.8-1.9,7.4-1.9c0.5,0,1.1,0,1.6,0.1L36.4,46l1.5-38.5&#xA;		c0.5-0.1,1.1-0.1,1.6-0.1c2.6,0,5.1,0.7,7.4,1.9l-7.4,37l10.2-35.6c3,0.9,5.7,2.8,7.6,5.3L42.5,47.5l16.6-28.7&#xA;		c2.3,2,3.9,4.7,4.6,7.7L45.2,49.4l19.1-19.3c0.9,1.9,1.3,4,1.3,6.1c0,1.3-0.2,2.5-0.5,3.8l-10.8,7.8L53,58.4H40l-1.9,1.4&#xA;		c-0.5,0.4-1.1,0.5-1.7,0.5s-1.2-0.2-1.7-0.5L32.8,58.4z"/>
</g>
</svg>