<?xml version="1.0" encoding="utf-8"?>
<svg xmlns="http://www.w3.org/2000/svg" width="218" height="36" viewBox="0 0 218 36" fill="none">
<path d="M0.5 28.7968C0.882111 28.1616 1.18932 27.4871 1.5253 26.8279C4.26521 21.4532 6.99752 16.0746 9.73255 10.6977C11.4667 7.28857 13.2019 3.8789 14.9372 0.469238C17.1625 0.469238 19.3879 0.469238 21.6127 0.469238C21.6366 0.579649 21.5617 0.657425 21.5183 0.74336C18.2372 7.19393 14.9562 13.644 11.6735 20.0934C10.2248 22.9391 8.77293 25.7831 7.32807 28.6309C7.24231 28.8001 7.14461 28.8561 6.95681 28.8556C4.80472 28.8485 2.65209 28.8512 0.5 28.8512C0.5 28.8333 0.5 28.8153 0.5 28.7968Z" fill="#F06079"/>
<path d="M107.827 14.1867C107.942 14.1693 107.96 14.0774 108.001 14.0149C109.215 12.1825 110.956 11.371 113.111 11.3802C114.11 11.3846 115.091 11.5146 116.02 11.922C117.169 12.4256 117.984 13.2507 118.453 14.4168C118.471 14.4636 118.496 14.5076 118.534 14.5881C118.743 14.1829 118.937 13.8082 119.129 13.4318C119.367 12.9651 119.612 12.5017 119.837 12.0286C119.911 11.8725 120 11.8273 120.166 11.83C120.799 11.8398 121.432 11.8251 122.065 11.8393C122.263 11.8436 122.298 11.78 122.297 11.5967C122.289 10.0657 122.297 8.53405 122.288 7.00299C122.287 6.78815 122.322 6.71418 122.559 6.7169C123.934 6.7305 125.309 6.72887 126.684 6.71799C126.902 6.71636 126.969 6.75932 126.966 6.99265C126.954 8.52371 126.964 10.0553 126.955 11.5864C126.954 11.7865 126.998 11.8415 127.204 11.8393C128.434 11.8284 129.664 11.8338 130.892 11.8338C130.943 11.922 130.872 11.9758 130.843 12.0329C130.387 12.9358 129.922 13.8348 129.472 14.741C129.395 14.896 129.307 14.94 129.142 14.9373C128.491 14.9275 127.839 14.9373 127.188 14.9302C127.028 14.9286 126.954 14.9471 126.955 15.1424C126.962 17.9875 126.958 20.8326 126.963 23.6777C126.963 23.8843 126.992 24.0943 127.035 24.2966C127.176 24.9613 127.512 25.2316 128.252 25.3191C128.886 25.3942 129.516 25.3627 130.143 25.2609C130.328 25.2305 130.386 25.2664 130.384 25.4676C130.374 26.5005 130.37 27.5339 130.386 28.5662C130.39 28.799 130.321 28.8762 130.101 28.8985C128.983 29.01 127.864 29.0519 126.742 28.9861C126.11 28.9491 125.481 28.8898 124.87 28.7092C123.184 28.2116 122.294 27.0237 122.293 25.2653C122.291 21.922 122.289 18.5781 122.298 15.2348C122.299 14.9906 122.242 14.9232 121.993 14.927C120.971 14.9427 119.949 14.9335 118.927 14.9335C118.839 14.9335 118.752 14.9335 118.636 14.9335C119.057 16.2987 119.042 17.6747 119.038 19.0519C119.029 22.2233 119.032 25.3947 119.041 28.5656C119.042 28.8044 118.986 28.861 118.748 28.8588C117.373 28.8457 115.999 28.8468 114.624 28.8583C114.406 28.8599 114.362 28.7968 114.363 28.5901C114.369 25.2555 114.37 21.9214 114.365 18.5868C114.364 17.9124 114.24 17.2565 114 16.6234C113.684 15.7907 113.094 15.2963 112.219 15.1364C111.457 14.9977 110.704 15.0325 109.969 15.2696C108.831 15.6362 108.286 16.513 108.024 17.6138C107.873 18.2502 107.801 18.8974 107.801 19.5522C107.8 22.5605 107.798 25.5688 107.805 28.5771C107.806 28.799 107.759 28.861 107.529 28.8588C106.146 28.8463 104.762 28.8479 103.378 28.8577C103.174 28.8593 103.127 28.8088 103.127 28.6064C103.133 20.9408 103.133 13.2752 103.127 5.61008C103.127 5.40612 103.176 5.35771 103.378 5.35934C104.771 5.36913 106.164 5.36968 107.557 5.3588C107.765 5.35717 107.805 5.41536 107.804 5.61334C107.797 8.37686 107.8 11.1404 107.801 13.9039C107.802 13.9964 107.781 14.0959 107.827 14.1867Z" fill="#003C4F"/>
<path d="M96.8816 14.1454C97.2539 13.4133 97.6051 12.7422 97.9362 12.0612C98.0247 11.879 98.1289 11.8251 98.3265 11.8273C99.2579 11.8393 100.19 11.8366 101.121 11.829C101.293 11.8273 101.347 11.8659 101.347 12.0487C101.342 17.4131 101.363 22.7775 101.332 28.1419C101.321 30.0412 100.743 31.7626 99.3306 33.1159C98.2727 34.1291 96.9766 34.6855 95.5643 34.9705C93.6847 35.3496 91.7975 35.4241 89.9189 34.9417C88.9311 34.6882 88.0073 34.2896 87.1806 33.682C87.1041 33.626 86.9793 33.595 87.0612 33.4357C87.6116 32.368 88.1533 31.2965 88.7096 30.2028C89.2882 30.8848 89.9716 31.3879 90.7841 31.7039C91.8707 32.126 92.9948 32.2445 94.1401 32.0498C95.5431 31.8116 96.4935 30.7896 96.7861 29.2803C96.899 28.6962 96.8925 28.1099 96.8914 27.5214C96.8908 26.9367 96.8914 26.352 96.8914 25.7613C96.8507 25.7706 96.8268 25.7689 96.8214 25.7782C96.0414 27.12 94.8294 27.8591 93.3563 28.1648C91.1836 28.6157 89.1249 28.3475 87.3098 26.9655C86.0674 26.0191 85.3282 24.7268 84.9325 23.2366C84.2871 20.8059 84.2546 18.3818 85.1757 16.0088C86.0056 13.8696 87.451 12.3293 89.6915 11.6565C91.037 11.253 92.4048 11.2671 93.7612 11.6272C95.0259 11.9628 95.9839 12.7215 96.6759 13.8267C96.734 13.917 96.7926 14.0067 96.8816 14.1454ZM96.9011 19.8644C96.9087 19.4146 96.8463 18.812 96.7253 18.2164C96.5337 17.276 96.1793 16.4118 95.4433 15.7608C93.568 14.1024 90.5779 14.7964 89.6302 17.1537C88.9045 18.9583 88.9631 20.8124 89.6752 22.6095C90.1843 23.8947 91.1391 24.7089 92.5704 24.816C94.0587 24.9275 95.2636 24.4005 96.094 23.1267C96.7074 22.1858 96.9131 21.1317 96.9011 19.8644Z" fill="#003C4F"/>
<path d="M141.686 17.4219C141.532 18.0294 141.382 18.619 141.233 19.2091C140.436 22.3545 139.638 25.4992 138.846 28.6457C138.806 28.8023 138.745 28.8572 138.576 28.8562C137.102 28.8485 135.627 28.8496 134.153 28.8551C134.002 28.8556 133.938 28.8132 133.891 28.6625C132.769 25.1044 131.64 21.549 130.51 17.993C130.473 17.876 130.466 17.7749 130.526 17.6569C131.496 15.7581 132.461 13.8572 133.429 11.9574C133.44 11.9351 133.463 11.9193 133.506 11.872C134.547 15.7222 135.582 19.5485 136.617 23.3748C136.638 23.3737 136.659 23.3732 136.68 23.3721C136.823 22.795 136.966 22.2185 137.107 21.6414C137.889 18.4455 138.671 15.2496 139.447 12.0526C139.489 11.8834 139.554 11.8274 139.732 11.829C141.098 11.8377 142.464 11.8383 143.83 11.8285C144.013 11.8274 144.07 11.8905 144.111 12.0569C145.029 15.7309 145.952 19.4038 146.874 23.0762C146.896 23.1632 146.92 23.2502 146.944 23.3384C147.048 23.3161 147.031 23.2307 147.049 23.1681C148.042 19.5142 149.038 15.8615 150.017 12.2038C150.099 11.8997 150.214 11.8198 150.522 11.8241C151.905 11.8443 153.289 11.8367 154.673 11.8285C154.881 11.8274 154.93 11.8535 154.861 12.0732C153.117 17.5948 151.378 23.1186 149.644 28.643C149.591 28.811 149.515 28.8567 149.343 28.8556C147.896 28.8475 146.448 28.8453 145.001 28.8578C144.797 28.8594 144.748 28.7811 144.704 28.613C143.746 24.9777 142.784 21.3439 141.818 17.7107C141.795 17.622 141.805 17.5105 141.686 17.4219Z" fill="#003C4F"/>
<path d="M35.8735 14.1862C35.9804 14.1601 36.001 14.0611 36.0482 13.9904C37.2494 12.1901 38.9683 11.3879 41.0895 11.3792C42.0437 11.3754 42.9843 11.4912 43.8799 11.8464C45.493 12.4866 46.4076 13.7136 46.7897 15.373C46.9748 16.1774 47.0714 16.9933 47.0703 17.8222C47.0643 21.4015 47.0654 24.9809 47.073 28.5602C47.0736 28.7887 47.0339 28.8615 46.7853 28.8588C45.4105 28.8441 44.0357 28.8469 42.6608 28.8567C42.4519 28.8583 42.3943 28.8093 42.3949 28.5934C42.4025 25.2588 42.4019 21.9242 42.3981 18.5896C42.3976 17.9608 42.2814 17.3501 42.0817 16.7523C41.7674 15.8108 41.1237 15.2626 40.1489 15.113C39.4243 15.0021 38.704 15.0396 38.0044 15.2669C36.8553 15.6406 36.3115 16.5244 36.052 17.6367C35.9055 18.2649 35.8333 18.9034 35.8333 19.5485C35.8322 22.5567 35.8306 25.5656 35.8382 28.5738C35.8387 28.7925 35.7975 28.8599 35.5641 28.8577C34.18 28.8447 32.7959 28.8469 31.4124 28.8567C31.2121 28.8583 31.16 28.8126 31.16 28.607C31.166 20.9408 31.166 13.2747 31.16 5.60849C31.16 5.40398 31.2094 5.35667 31.4113 5.35775C32.8041 5.36754 34.1974 5.36809 35.5901 5.35721C35.8002 5.35558 35.8376 5.41595 35.8371 5.6123C35.8306 8.37582 35.8322 11.1399 35.8344 13.9039C35.8349 13.9964 35.7953 14.1003 35.8735 14.1862Z" fill="#003C4F"/>
<path d="M190.95 17.9082C191.779 17.0466 192.562 16.2335 193.344 15.4198C194.442 14.2777 195.54 13.136 196.636 11.9928C196.724 11.9003 196.804 11.8285 196.953 11.8291C198.69 11.8356 200.426 11.8334 202.163 11.8334C202.196 11.8334 202.228 11.8372 202.322 11.8427C202.201 11.9574 202.118 12.0341 202.037 12.113C200.067 14.034 198.099 15.9567 196.124 17.8728C195.961 18.0311 195.934 18.1322 196.069 18.3351C198.334 21.7372 200.59 25.1457 202.848 28.5532C202.902 28.6354 202.955 28.718 203.011 28.8034C202.933 28.8926 202.837 28.8497 202.755 28.8497C201.046 28.8529 199.337 28.848 197.627 28.8573C197.435 28.8584 197.342 28.7866 197.249 28.6354C195.791 26.2526 194.325 23.8741 192.87 21.4897C192.754 21.2982 192.695 21.2526 192.517 21.4348C192.068 21.8944 191.601 22.3365 191.13 22.7733C190.991 22.9027 190.946 23.0349 190.946 23.2209C190.953 25.0147 190.947 26.809 190.955 28.6027C190.956 28.7996 190.917 28.8595 190.708 28.8578C189.315 28.8469 187.922 28.8475 186.53 28.8573C186.329 28.8589 186.277 28.8132 186.278 28.6076C186.284 20.9425 186.284 13.278 186.278 5.61291C186.278 5.41602 186.316 5.35619 186.525 5.35783C187.909 5.3687 189.293 5.36925 190.676 5.35783C190.9 5.35619 190.956 5.40786 190.956 5.63575C190.948 9.604 190.95 13.5722 190.95 17.5405C190.95 17.6384 190.95 17.7374 190.95 17.9082Z" fill="#003C4F"/>
<path d="M57.2332 11.3738C58.7551 11.3689 60.2147 11.6518 61.5803 12.3447C63.4794 13.3085 64.7734 14.8189 65.4481 16.8258C66.2454 19.1988 66.2638 21.6028 65.4095 23.9633C64.3848 26.7943 62.3163 28.463 59.3972 29.0607C57.4487 29.4599 55.5039 29.3843 53.6325 28.6653C50.8638 27.6014 49.2534 25.5227 48.6558 22.6596C48.2183 20.5635 48.3187 18.4755 49.1275 16.4679C50.2271 13.7376 52.2913 12.1663 55.1316 11.5626C55.8236 11.4152 56.5271 11.3744 57.2332 11.3738ZM61.3409 20.6875C61.348 19.6454 61.2698 18.9361 61.1222 18.2345C60.6288 15.8876 58.8762 14.6203 56.5173 14.9445C54.9921 15.1544 54.0189 16.0954 53.5413 17.5057C52.9051 19.3843 52.8976 21.3048 53.5402 23.1834C54.0895 24.7895 55.2266 25.6929 56.9705 25.7854C58.7627 25.8806 60.1359 25.0517 60.8264 23.3923C61.2296 22.4236 61.3252 21.3994 61.3409 20.6875Z" fill="#003C4F"/>
<path d="M162.851 11.3739C164.194 11.369 165.497 11.5843 166.734 12.1228C168.728 12.9909 170.159 14.4278 170.935 16.4642C171.9 18.9965 171.933 21.5691 170.98 24.1059C169.944 26.8639 167.884 28.4695 165.034 29.0613C163.254 29.4311 161.469 29.3838 159.728 28.8296C157.171 28.0148 155.429 26.3184 154.587 23.7654C153.787 21.3391 153.816 18.8921 154.745 16.5044C155.816 13.7501 157.9 12.175 160.749 11.5642C161.441 11.4157 162.145 11.3744 162.851 11.3739ZM166.969 20.3715C166.981 19.6345 166.895 18.9073 166.74 18.1888C166.214 15.7576 164.253 14.4686 161.833 15.0011C160.447 15.3062 159.58 16.2395 159.153 17.5487C158.545 19.4055 158.539 21.2939 159.154 23.1508C159.721 24.863 160.964 25.7375 162.753 25.7865C164.51 25.8343 165.816 24.9826 166.472 23.3498C166.856 22.3948 166.957 21.3897 166.969 20.3715Z" fill="#003C4F"/>
<path d="M78.7643 26.4614C78.6286 26.4891 78.6015 26.5734 78.5603 26.6398C77.5751 28.216 76.0874 28.9747 74.3066 29.2205C73.2036 29.3728 72.1002 29.2842 71.0255 28.9975C69.0623 28.4732 67.9474 27.145 67.5295 25.1881C67.3455 24.3266 67.2565 23.4547 67.257 22.5731C67.2592 19.0851 67.2603 15.5971 67.2527 12.1091C67.2521 11.8883 67.2972 11.8247 67.5279 11.8268C68.9022 11.8393 70.277 11.8388 71.6513 11.8274C71.8755 11.8257 71.9314 11.8774 71.9308 12.1053C71.9222 15.3034 71.9238 18.5015 71.926 21.6996C71.9265 22.4453 72.0171 23.179 72.2494 23.892C72.5632 24.8536 73.2107 25.4236 74.211 25.5694C74.9351 25.6749 75.6559 25.6401 76.3555 25.41C77.4454 25.0516 77.9974 24.2227 78.2655 23.1632C78.4148 22.5742 78.4946 21.9748 78.494 21.364C78.4902 18.2747 78.4946 15.1854 78.4881 12.0961C78.4875 11.8899 78.5304 11.8257 78.7491 11.8274C80.1419 11.8388 81.5346 11.8372 82.9268 11.8285C83.1152 11.8274 83.1651 11.8714 83.1651 12.0645C83.1597 17.5818 83.1597 23.099 83.1646 28.6163C83.1646 28.8023 83.126 28.8583 82.9312 28.8567C81.6199 28.8474 80.3085 28.8474 78.9972 28.8561C78.8088 28.8572 78.7556 28.8132 78.7589 28.6201C78.7719 27.907 78.7643 27.194 78.7643 26.4614Z" fill="#003C4F"/>
<path d="M214.801 16.7805C214.132 16.7805 213.462 16.7794 212.793 16.7816C212.681 16.7821 212.581 16.793 212.567 16.6315C212.469 15.442 211.726 14.878 210.642 14.6397C209.754 14.445 208.863 14.4276 207.985 14.668C207.082 14.9155 206.662 15.5899 206.849 16.4139C206.918 16.719 207.089 16.9546 207.329 17.1471C207.903 17.6051 208.591 17.7998 209.283 17.9749C210.594 18.3072 211.933 18.5286 213.234 18.9039C213.955 19.1116 214.664 19.3455 215.32 19.7224C216.988 20.6813 217.658 22.1324 217.469 24.0241C217.226 26.464 215.825 27.9945 213.586 28.7097C210.944 29.5533 208.254 29.5218 205.619 28.6205C203.982 28.0609 202.76 26.9899 202.113 25.3381C201.883 24.7518 201.793 24.135 201.747 23.5096C201.734 23.335 201.789 23.3007 201.953 23.3018C203.291 23.3083 204.63 23.3067 205.968 23.304C206.096 23.304 206.186 23.3029 206.195 23.4796C206.265 24.7649 207.002 25.5328 208.163 25.9266C209.26 26.2986 210.369 26.2894 211.452 25.8581C212.139 25.5845 212.659 25.1347 212.793 24.3531C212.902 23.72 212.7 23.2126 212.184 22.8324C211.717 22.4881 211.165 22.3375 210.625 22.1618C209.284 21.7256 207.891 21.4944 206.532 21.1295C205.704 20.907 204.887 20.6547 204.137 20.2185C202.609 19.3292 202.002 17.9972 202.15 16.2551C202.338 14.0431 203.558 12.6377 205.586 11.9698C208.152 11.1246 210.771 11.1023 213.338 11.9643C215.261 12.6099 216.513 13.9485 216.923 15.993C217.082 16.7816 217.086 16.7805 216.292 16.7805C215.796 16.7805 215.298 16.7805 214.801 16.7805Z" fill="#003C4F"/>
<path d="M30.2661 11.8328C29.7483 12.8526 29.2506 13.8245 28.7627 14.8008C28.6997 14.9265 28.615 14.9335 28.5027 14.933C27.8427 14.9308 27.1821 14.9422 26.5221 14.9259C26.3099 14.9205 26.2757 14.9874 26.2762 15.1821C26.2827 17.9907 26.2811 20.7994 26.2789 23.6081C26.2789 23.8365 26.3061 24.0611 26.3511 24.282C26.4874 24.9477 26.825 25.2267 27.5577 25.3159C28.1917 25.3931 28.8224 25.3659 29.4487 25.2593C29.6517 25.2251 29.7076 25.2621 29.7049 25.4785C29.6924 26.5021 29.6903 27.5263 29.706 28.5499C29.7098 28.7897 29.6382 28.8757 29.4086 28.898C28.2725 29.0084 27.1354 29.0525 25.9956 28.979C25.264 28.9317 24.5383 28.8539 23.8441 28.5929C22.4036 28.0517 21.6149 26.9003 21.6133 25.305C21.61 21.9438 21.6095 18.582 21.6176 15.2207C21.6182 14.9885 21.5731 14.921 21.3283 14.9243C20.1272 14.9395 18.9255 14.9313 17.6847 14.9313C17.8068 14.6904 17.9148 14.4756 18.0239 14.2613C18.4012 13.5205 18.7854 12.7835 19.1502 12.0367C19.2321 11.8681 19.3266 11.8246 19.5008 11.8279C20.1065 11.8382 20.7134 11.8165 21.3185 11.8393C21.5802 11.8491 21.6192 11.7583 21.6176 11.5249C21.6078 10.0118 21.616 8.49872 21.6078 6.98561C21.6068 6.78382 21.6437 6.71312 21.8667 6.71475C23.2503 6.72671 24.6343 6.72508 26.0179 6.71584C26.2241 6.71421 26.2871 6.7588 26.2855 6.97745C26.2746 8.50851 26.2844 10.0401 26.2746 11.5712C26.2735 11.7822 26.3251 11.8388 26.5384 11.8371C27.7672 11.8273 28.9961 11.8328 30.2661 11.8328Z" fill="#003C4F"/>
<path d="M177.11 14.9645C177.482 14.3439 177.874 13.763 178.355 13.2425C180.154 11.2926 183.017 10.801 185.238 12.0508C185.456 12.1738 185.499 12.2613 185.375 12.4974C184.775 13.6406 184.195 14.7948 183.616 15.9495C183.534 16.1132 183.471 16.136 183.295 16.0664C181.918 15.5209 180.547 15.603 179.224 16.2268C178.313 16.6565 177.899 17.4963 177.655 18.4285C177.408 19.3722 177.342 20.3419 177.334 21.3095C177.314 23.7375 177.325 26.1654 177.333 28.5933C177.333 28.8071 177.279 28.8593 177.068 28.8577C175.675 28.8479 174.282 28.8484 172.89 28.8577C172.696 28.8588 172.656 28.8049 172.656 28.6178C172.661 23.1006 172.661 17.5839 172.656 12.0666C172.656 11.8757 172.702 11.8284 172.892 11.8295C174.222 11.8382 175.551 11.8387 176.88 11.8295C177.073 11.8284 177.117 11.8806 177.115 12.0688C177.105 13.0326 177.11 13.9985 177.11 14.9645Z" fill="#003C4F"/>
</svg>