<svg id="Camada_1" data-name="Camada 1" xmlns="http://www.w3.org/2000/svg" viewBox="0 0 104.34 27.86"><defs><style>.cls-1{fill:#0c24fb;}.cls-2{fill:#818991;}.cls-3{fill:none;stroke:#0c24fb;stroke-linecap:round;stroke-linejoin:round;stroke-width:0.73px;}</style></defs><path class="cls-1" d="M44,16H41.13V14.3h7.66V16H45.93v8.55H44Z" transform="translate(-2.57 -5.5)"/><path class="cls-1" d="M58,24.56l-2.36-3.39H53.81v3.39H51.87V14.3h4.21c2.38,0,3.26,1,3.26,2.78v1.34a2.32,2.32,0,0,1-1.54,2.47l2.54,3.67ZM56,16H53.81v3.48H56c1.06,0,1.4-.38,1.4-1.24v-1C57.4,16.37,57,16,56,16Z" transform="translate(-2.57 -5.5)"/><path class="cls-1" d="M70.76,14.3v7.29c0,1.61-.9,3.12-3.78,3.12s-3.79-1.51-3.79-3.12V14.3h1.94v7.13c0,1,.48,1.57,1.85,1.57s1.84-.57,1.84-1.57V14.3Z" transform="translate(-2.57 -5.5)"/><path class="cls-1" d="M77.32,24.71a8.71,8.71,0,0,1-3.2-.61l.34-1.53a9.72,9.72,0,0,0,2.89.48c1.4,0,1.63-.29,1.63-1.28s0-1.23-1.87-1.63c-2.48-.55-2.82-1-2.82-3.2,0-1.87.85-2.79,3.45-2.79a14,14,0,0,1,3,.34l-.21,1.63a13.86,13.86,0,0,0-2.74-.31c-1.31,0-1.54.28-1.54,1.17,0,1.17,0,1.2,1.8,1.64,2.76.66,2.89,1.1,2.89,3.15S80.36,24.71,77.32,24.71Z" transform="translate(-2.57 -5.5)"/><path class="cls-1" d="M86.48,16H83.62V14.3h7.67V16H88.42v8.55H86.48Z" transform="translate(-2.57 -5.5)"/><path class="cls-2" d="M99.12,22.43h-3.8l-.65,2.13h-2L95.87,14.3h2.71l3.24,10.26h-2ZM95.8,20.76h2.83l-1.4-4.85Z" transform="translate(-2.57 -5.5)"/><path class="cls-2" d="M106.91,24.56H105V14.3h1.94Z" transform="translate(-2.57 -5.5)"/><path class="cls-3" d="M17.21,16.81V8.52A1.71,1.71,0,0,1,18.06,7l1.61-.94a1.68,1.68,0,0,1,1.73,0l5.2,3a1.72,1.72,0,0,1,.84,1.48v1.52a1.7,1.7,0,0,0,.85,1.47L30.75,15a1.52,1.52,0,0,1,.73,1.31v6.17a1.53,1.53,0,0,1-.75,1.32l-2.44,1.46a1.71,1.71,0,0,0-.85,1.48v1.51a1.72,1.72,0,0,1-.84,1.48l-5.2,3.05a1.7,1.7,0,0,1-1.73,0l-1.61-.94a1.71,1.71,0,0,1-.85-1.48V21.92" transform="translate(-2.57 -5.5)"/><line class="cls-3" x1="24.53" y1="13.9" x2="21.56" y2="13.9"/><line class="cls-3" x1="17.61" y1="13.9" x2="14.64" y2="13.9"/><line class="cls-3" x1="22.62" y1="18.88" x2="24.84" y2="20.25"/><path class="cls-3" d="M22.58,10.67l-1.1,1.06a.85.85,0,0,0-.27.62v3.13a.86.86,0,0,0,.5.77l1.93.89a.86.86,0,0,1,.5.78v3a.86.86,0,0,1-.5.78l-1.93.89a.86.86,0,0,0-.5.78v3.13a.84.84,0,0,0,.27.61l1.1,1.06" transform="translate(-2.57 -5.5)"/><line class="cls-3" x1="4.74" y1="13.9" x2="7.71" y2="13.9"/><line class="cls-3" x1="11.67" y1="13.9" x2="14.64" y2="13.9"/><path class="cls-3" d="M11.84,10.67,13,11.73a.88.88,0,0,1,.26.62v3.13a.84.84,0,0,1-.5.77l-1.93.89a.86.86,0,0,0-.5.78v3a.86.86,0,0,0,.5.78l1.93.89a.84.84,0,0,1,.5.78v3.13a.87.87,0,0,1-.26.61l-1.11,1.06" transform="translate(-2.57 -5.5)"/><line class="cls-3" x1="6.54" y1="9.01" x2="4.32" y2="7.64"/><line class="cls-3" x1="6.54" y1="18.88" x2="4.32" y2="20.25"/><line class="cls-3" x1="22.62" y1="9.01" x2="24.84" y2="7.64"/><path class="cls-3" d="M17.21,16.81V8.52A1.72,1.72,0,0,0,16.37,7L14.76,6.1A1.68,1.68,0,0,0,13,6.1l-5.21,3A1.72,1.72,0,0,0,7,10.62v1.52a1.72,1.72,0,0,1-.84,1.47L3.67,15a1.54,1.54,0,0,0-.73,1.31v6.17a1.53,1.53,0,0,0,.75,1.32l2.45,1.46A1.72,1.72,0,0,1,7,26.73v1.51a1.72,1.72,0,0,0,.84,1.48L13,32.77a1.7,1.7,0,0,0,1.73,0l1.61-.94a1.72,1.72,0,0,0,.84-1.48V21.92" transform="translate(-2.57 -5.5)"/><circle class="cls-1" cx="24.58" cy="13.93" r="0.91"/><circle class="cls-1" cx="17.65" cy="13.93" r="0.91"/><circle class="cls-1" cx="22.91" cy="19.06" r="0.91"/><circle class="cls-1" cx="20.01" cy="22.66" r="0.91"/><circle class="cls-1" cx="20.01" cy="5.2" r="0.91"/><circle class="cls-1" cx="4.7" cy="13.93" r="0.91"/><circle class="cls-1" cx="11.63" cy="13.93" r="0.91"/><circle class="cls-1" cx="9.27" cy="22.66" r="0.82"/><circle class="cls-1" cx="9.27" cy="5.2" r="0.91"/><circle class="cls-1" cx="6.31" cy="8.86" r="0.91"/><circle class="cls-1" cx="6.25" cy="19.06" r="0.91"/><circle class="cls-1" cx="22.86" cy="8.86" r="0.91"/></svg>