<?xml version="1.0" encoding="utf-8"?>
<svg xmlns="http://www.w3.org/2000/svg" xmlns:xlink="http://www.w3.org/1999/xlink" version="1.1" id="Layer_1" x="0px" y="0px" viewBox="0 0 226.8 155.9" style="enable-background:new 0 0 226.8 155.9;">
<g>
	<path d="M93.9,63.9h1c0.2,0,0.2,0,0.4,0c0-0.2,0-0.2,0-0.4v-6.8c0-0.2,0-0.2,0-0.4c-0.2,0-0.2,0-0.4,0h-1v-1.6h4.9l1.7,5.9&#xA;		c0.3,1.1,0.4,1.4,0.6,2.5h0.1c0.2-1,0.3-1.3,0.6-2.4l1.7-5.9h4.9v1.6h-1c-0.2,0-0.2,0-0.4,0c0,0.2,0,0.2,0,0.4v6.8&#xA;		c0,0.2,0,0.2,0,0.4c0.2,0,0.2,0,0.4,0h1v1.6h-4.5v-1.6h0.8c0.2,0,0.2,0,0.4,0c0-0.2,0-0.2,0-0.4v-4.1c0-1.4,0-1.9,0.1-3.4l-0.1,0&#xA;		c-0.3,1.4-0.4,1.9-0.9,3.3l-1.8,6.1h-2.6l-1.8-6.1C97.5,58,97.4,57.5,97,56L97,56c0.1,1.5,0.1,2,0.1,3.4v4.1c0,0.2,0,0.2,0,0.4&#xA;		c0.2,0,0.2,0,0.4,0h0.8v1.6h-4.3V63.9z M114.3,64.4c-0.9,0.9-1.6,1.2-2.6,1.2c-1.7,0-2.8-1-2.8-2.4c0-1.7,1.3-2.5,3.8-2.5&#xA;		c0.2,0,0.5,0,0.9,0h0.2l0.2,0l0.2,0c0-0.1,0-0.1,0-0.2v-0.1c0-0.5,0-0.7-0.2-0.9c-0.2-0.3-0.7-0.4-1.2-0.4c-0.9,0-1.3,0.3-1.4,1.1&#xA;		h-2.1c0-1.7,1.2-2.5,3.5-2.5c1.1,0,2.1,0.3,2.7,0.8c0.4,0.4,0.7,1,0.7,1.9v3.3c0,0.1,0,0.2,0,0.3c0.1,0,0.1,0,0.2,0l0.8,0v1.5h-2.8&#xA;		V65C114.3,64.8,114.3,64.7,114.3,64.4L114.3,64.4z M113.1,62.1c-1.3,0-2,0.4-2,1.2c0,0.6,0.5,1,1.2,1c0.7,0,1.3-0.3,1.6-0.9&#xA;		c0.2-0.4,0.3-0.6,0.3-1.2L113.1,62.1z M118,64l0.8,0c0.1,0,0.1,0,0.2,0c0-0.1,0-0.1,0-0.2v-4.2c0-0.1,0-0.1,0-0.2&#xA;		c-0.1,0-0.1,0-0.2,0l-0.8,0v-1.5h3.1v0.5c0,0.3,0,0.4-0.1,0.8l0.1,0c0.7-1.1,1.4-1.5,2.6-1.5c1.7,0,2.7,1,2.7,2.7v3.4&#xA;		c0,0.1,0,0.1,0,0.2c0.1,0,0.1,0,0.2,0l0.7,0v1.5h-4.1V64l0.8,0c0.1,0,0.1,0,0.2,0c0-0.1,0-0.1,0-0.2v-3c0-1-0.4-1.4-1.3-1.4&#xA;		c-1.1,0-1.7,0.7-1.7,2v2.5c0,0.1,0,0.1,0,0.2c0.1,0,0.1,0,0.2,0l0.8,0v1.5H118V64z M135,62.9c-0.1,1.8-1.3,2.8-3.4,2.8&#xA;		c-1.2,0-2.2-0.4-2.9-1.1c-0.7-0.7-1-1.8-1-2.9c0-2.4,1.4-4,3.4-4c1,0,1.7,0.4,2.2,1.3l0,0c-0.1-0.3-0.1-0.5-0.1-0.7v-0.4h1.6v3&#xA;		h-1.8c-0.1-1.1-0.5-1.6-1.4-1.6c-1.1,0-1.8,0.9-1.8,2.4c0,1.5,0.6,2.4,1.7,2.4c0.8,0,1.3-0.4,1.4-1.2H135z M135.9,64l0.8,0&#xA;		c0.1,0,0.1,0,0.3,0c0-0.1,0-0.1,0-0.2v-7.3c0-0.2,0-0.2,0-0.4c-0.2,0-0.2,0-0.4,0h-0.7v-1.5h3.2v2.4c0,0.9,0,1.2-0.1,2l0,0&#xA;		c0.8-1,1.4-1.4,2.4-1.4c1.7,0,2.8,1,2.8,2.5v3.6c0,0.1,0,0.1,0,0.2c0.1,0,0.1,0,0.3,0l0.7,0v1.5H141V64l0.8,0c0.1,0,0.1,0,0.2,0&#xA;		c0-0.1,0-0.1,0-0.2v-3c0-0.9-0.4-1.4-1.3-1.4c-1.1,0-1.7,0.7-1.7,2v2.5c0,0.1,0,0.1,0,0.2c0.1,0,0.1,0,0.2,0l0.8,0v1.5h-4.2V64z&#xA;		 M153.2,63.1c-0.2,1.5-1.6,2.5-3.6,2.5c-2.4,0-4-1.5-4-4c0-1.3,0.3-2.2,1.1-2.9c0.7-0.7,1.7-1,2.8-1c2.3,0,3.7,1.5,3.7,3.9v0.6&#xA;		h-5.1c-0.2,0-0.2,0-0.4-0.1c0.1,1.3,0.8,2,1.9,2c0.8,0,1.3-0.4,1.5-1H153.2z M150.7,61c0.2,0,0.3,0,0.5,0c-0.1-1.2-0.7-1.8-1.6-1.8&#xA;		c-1,0-1.6,0.7-1.7,1.8c0.2,0,0.2,0,0.5,0H150.7z M156,62.8c0.1,0.9,0.7,1.4,1.6,1.4c0.7,0,1.1-0.3,1.1-0.8c0-0.5-0.3-0.8-1.3-1&#xA;		c-1.6-0.3-2.1-0.5-2.5-0.8c-0.4-0.4-0.6-0.9-0.6-1.5c0-1.6,1-2.5,2.8-2.5c0.9,0,1.5,0.3,2.1,1.1l0,0c-0.1-0.2-0.1-0.3-0.1-0.5v-0.3&#xA;		h1.6v2.5h-1.7c-0.1-0.9-0.6-1.4-1.5-1.4c-0.7,0-1.1,0.3-1.1,0.8c0,0.2,0.1,0.4,0.3,0.5c0.2,0.1,0.4,0.2,0.6,0.2l1,0.2&#xA;		c1.3,0.3,1.7,0.5,2.1,1c0.3,0.4,0.4,0.8,0.4,1.4c0,1.5-1,2.4-2.8,2.4c-1,0-1.5-0.3-2.2-1.2l-0.1,0c0.1,0.2,0.1,0.4,0.1,0.5v0.4&#xA;		h-1.6v-2.6H156z M161.4,57.9h0.9c0.2,0,0.2,0,0.4,0c0-0.2,0-0.2,0-0.4v-1.1l2.2-0.7v1.8c0,0.2,0,0.2,0,0.4c0.2,0,0.2,0,0.4,0h1.8&#xA;		v1.5h-1.8c-0.2,0-0.2,0-0.4,0c0,0.2,0,0.2,0,0.4v3.5c0,0.7,0.2,0.9,0.6,0.9c0.5,0,0.6-0.3,0.7-1.1h1.3v0.3c0,1.5-0.7,2.3-2.3,2.3&#xA;		c-1.6,0-2.4-0.7-2.4-2.1v-3.7c0-0.2,0-0.2,0-0.4c-0.2,0-0.2,0-0.4,0h-0.9V57.9z M175.5,63.1c-0.2,1.5-1.6,2.5-3.6,2.5&#xA;		c-2.4,0-4-1.5-4-4c0-1.3,0.3-2.2,1.1-2.9c0.7-0.7,1.7-1,2.8-1c2.3,0,3.7,1.5,3.7,3.9v0.6h-5.1c-0.2,0-0.2,0-0.4-0.1&#xA;		c0.1,1.3,0.8,2,1.9,2c0.8,0,1.3-0.4,1.5-1H175.5z M173.1,61c0.2,0,0.3,0,0.5,0c-0.1-1.2-0.7-1.8-1.6-1.8c-1,0-1.6,0.7-1.7,1.8&#xA;		c0.2,0,0.2,0,0.5,0H173.1z M176.5,64l0.8,0c0.1,0,0.1,0,0.3,0c0-0.1,0-0.1,0-0.2v-4.2c0-0.1,0-0.1,0-0.2c-0.1,0-0.1,0-0.3,0l-0.8,0&#xA;		v-1.5h3v0.7c0,0.3,0,0.6-0.2,1.2l0.1,0c0.6-1.5,1.3-2.1,2.4-2.1c0.3,0,0.4,0,0.8,0.1v1.8c-0.3,0-0.4-0.1-0.7-0.1&#xA;		c-1.5,0-2.4,0.8-2.4,2.3v1.7c0,0.2,0,0.2,0,0.4c0.2,0,0.2,0,0.4,0l0.9,0v1.5h-4.4V64z M93.9,79h1c0.2,0,0.2,0,0.4,0&#xA;		c0-0.2,0-0.2,0-0.4v-6.8c0-0.2,0-0.2,0-0.4c-0.2,0-0.2,0-0.4,0h-1V70h4.9l1.7,5.9c0.3,1.1,0.4,1.4,0.6,2.5h0.1&#xA;		c0.2-1,0.3-1.3,0.6-2.4l1.7-5.9h4.9v1.6h-1c-0.2,0-0.2,0-0.4,0c0,0.2,0,0.2,0,0.4v6.8c0,0.2,0,0.2,0,0.4c0.2,0,0.2,0,0.4,0h1v1.6&#xA;		h-4.5V79h0.8c0.2,0,0.2,0,0.4,0c0-0.2,0-0.2,0-0.4v-4.1c0-1.4,0-1.9,0.1-3.4l-0.1,0c-0.3,1.4-0.4,1.9-0.9,3.3l-1.8,6.1h-2.6&#xA;		l-1.8-6.1c-0.4-1.3-0.5-1.8-0.8-3.3l-0.1,0c0.1,1.5,0.1,2,0.1,3.4v4.1c0,0.2,0,0.2,0,0.4c0.2,0,0.2,0,0.4,0h0.8v1.6h-4.3V79z&#xA;		 M116.3,78.3c-0.2,1.5-1.6,2.5-3.6,2.5c-2.4,0-4-1.5-4-4c0-1.3,0.3-2.2,1.1-2.9c0.7-0.7,1.7-1,2.8-1c2.3,0,3.7,1.5,3.7,3.9v0.6&#xA;		h-5.1c-0.2,0-0.2,0-0.4-0.1c0.1,1.3,0.8,2,1.9,2c0.8,0,1.3-0.4,1.5-1H116.3z M113.9,76.1c0.2,0,0.3,0,0.5,0&#xA;		c-0.1-1.2-0.7-1.8-1.6-1.8c-1,0-1.6,0.7-1.7,1.8c0.2,0,0.2,0,0.5,0H113.9z M117,73.1h0.9c0.2,0,0.2,0,0.4,0c0-0.2,0-0.2,0-0.4v-1.1&#xA;		l2.2-0.7v1.8c0,0.2,0,0.2,0,0.4c0.2,0,0.2,0,0.4,0h1.7v1.5h-1.7c-0.2,0-0.2,0-0.4,0c0,0.2,0,0.2,0,0.4v3.5c0,0.7,0.2,0.9,0.6,0.9&#xA;		c0.5,0,0.6-0.3,0.7-1.1h1.3v0.3c0,1.5-0.7,2.3-2.3,2.3c-1.6,0-2.4-0.7-2.4-2.1v-3.7c0-0.2,0-0.2,0-0.4c-0.2,0-0.2,0-0.4,0H117V73.1&#xA;		z M123.7,79.1l0.8,0c0.1,0,0.1,0,0.3,0c0-0.1,0-0.1,0-0.2v-4.2c0-0.1,0-0.1,0-0.2c-0.1,0-0.1,0-0.3,0l-0.8,0v-1.5h3v0.7&#xA;		c0,0.3,0,0.6-0.2,1.2l0.1,0c0.6-1.5,1.3-2.1,2.4-2.1c0.3,0,0.4,0,0.8,0.1v1.8c-0.3,0-0.4-0.1-0.7-0.1c-1.5,0-2.4,0.8-2.4,2.3v1.7&#xA;		c0,0.2,0,0.2,0,0.4c0.2,0,0.2,0,0.4,0l0.9,0v1.5h-4.4V79.1z M138.3,76.8c0,2.4-1.6,4-4.1,4c-1,0-2.1-0.4-2.8-1&#xA;		c-0.8-0.7-1.2-1.8-1.2-3c0-1.1,0.4-2.2,1-2.8c0.7-0.7,1.8-1.1,3-1.1C136.7,72.9,138.3,74.4,138.3,76.8z M132.5,76.8&#xA;		c0,1.5,0.7,2.4,1.8,2.4c1.1,0,1.8-0.9,1.8-2.4c0-1.5-0.7-2.4-1.8-2.4C133.2,74.4,132.5,75.3,132.5,76.8z M138.9,81.9h0.7&#xA;		c0.2,0,0.2,0,0.4,0c0-0.2,0-0.2,0-0.4v-6.9c0-0.1,0-0.1,0-0.2c-0.1,0-0.1,0-0.3,0l-0.8,0v-1.5h3v0.6c0,0.3,0,0.4-0.1,0.8l0.1,0&#xA;		c0.6-1.1,1.4-1.6,2.6-1.6c2.1,0,3.4,1.5,3.4,4c0,2.4-1.3,3.9-3.3,3.9c-1.1,0-2-0.5-2.5-1.5l-0.1,0c0.1,0.6,0.1,0.8,0.1,1.4v0.9&#xA;		c0,0.2,0,0.2,0,0.4c0.2,0,0.2,0,0.3,0h0.8v1.5h-4.3V81.9z M141.9,76.9c0,1.4,0.7,2.4,1.8,2.4c1.1,0,1.8-0.9,1.8-2.4&#xA;		c0-1.5-0.7-2.4-1.7-2.4C142.7,74.4,141.9,75.3,141.9,76.9z M156.5,76.8c0,2.4-1.6,4-4.1,4c-1,0-2.1-0.4-2.8-1&#xA;		c-0.8-0.7-1.2-1.8-1.2-3c0-1.1,0.4-2.2,1-2.8c0.7-0.7,1.8-1.1,3-1.1C154.9,72.9,156.5,74.4,156.5,76.8z M150.7,76.8&#xA;		c0,1.5,0.7,2.4,1.8,2.4c1.1,0,1.8-0.9,1.8-2.4c0-1.5-0.7-2.4-1.8-2.4C151.4,74.4,150.7,75.3,150.7,76.8z M157.1,79.1l0.8,0&#xA;		c0.1,0,0.1,0,0.3,0c0-0.1,0-0.1,0-0.2v-7.3c0-0.2,0-0.2,0-0.4c-0.2,0-0.2,0-0.4,0h-0.7v-1.5h3.2v9.1c0,0.1,0,0.1,0,0.2&#xA;		c0.1,0,0.1,0,0.2,0l0.7,0v1.5h-4.1V79.1z M162.2,79.1l0.8,0c0.1,0,0.1,0,0.3,0c0-0.1,0-0.1,0-0.2v-4.2c0-0.1,0-0.1,0-0.2&#xA;		c-0.1,0-0.1,0-0.3,0l-0.8,0v-1.5h3.2v5.9c0,0.1,0,0.1,0,0.2c0.1,0,0.1,0,0.3,0l0.7,0v1.5h-4.1V79.1z M163.1,69.8h2.2V72h-2.2V69.8z&#xA;		 M166.5,73.1h0.9c0.2,0,0.2,0,0.4,0c0-0.2,0-0.2,0-0.4v-1.1l2.2-0.7v1.8c0,0.2,0,0.2,0,0.4c0.2,0,0.2,0,0.4,0h1.7v1.5h-1.7&#xA;		c-0.2,0-0.2,0-0.4,0c0,0.2,0,0.2,0,0.4v3.5c0,0.7,0.2,0.9,0.6,0.9c0.5,0,0.6-0.3,0.7-1.1h1.3v0.3c0,1.5-0.7,2.3-2.3,2.3&#xA;		c-1.6,0-2.4-0.7-2.4-2.1v-3.7c0-0.2,0-0.2,0-0.4c-0.2,0-0.2,0-0.4,0h-0.9V73.1z M178.3,79.6c-0.9,0.9-1.6,1.2-2.6,1.2&#xA;		c-1.7,0-2.8-1-2.8-2.4c0-1.7,1.3-2.5,3.8-2.5c0.2,0,0.5,0,0.9,0h0.2l0.2,0l0.2,0c0-0.1,0-0.1,0-0.2v-0.1c0-0.5,0-0.7-0.2-0.9&#xA;		c-0.2-0.3-0.7-0.4-1.2-0.4c-0.9,0-1.3,0.3-1.4,1.1h-2.1c0-1.7,1.2-2.5,3.5-2.5c1.1,0,2.1,0.3,2.7,0.8c0.4,0.4,0.7,1,0.7,1.9v3.3&#xA;		c0,0.1,0,0.2,0,0.3c0.1,0,0.1,0,0.2,0l0.8,0v1.5h-2.8v-0.4C178.3,79.9,178.3,79.8,178.3,79.6L178.3,79.6z M177.1,77.2&#xA;		c-1.3,0-2,0.4-2,1.2c0,0.6,0.5,1,1.2,1c0.7,0,1.3-0.3,1.6-0.9c0.2-0.4,0.3-0.6,0.3-1.2L177.1,77.2z M181.9,79.1l0.8,0&#xA;		c0.1,0,0.1,0,0.2,0c0-0.1,0-0.1,0-0.2v-4.2c0-0.1,0-0.1,0-0.2c-0.1,0-0.1,0-0.2,0l-0.8,0v-1.5h3.1v0.5c0,0.3,0,0.4-0.1,0.8l0.1,0&#xA;		c0.7-1.1,1.4-1.5,2.6-1.5c1.7,0,2.7,1,2.7,2.7v3.4c0,0.1,0,0.1,0,0.2c0.1,0,0.1,0,0.2,0l0.7,0v1.5H187v-1.5l0.8,0&#xA;		c0.1,0,0.1,0,0.2,0c0-0.1,0-0.1,0-0.2v-3c0-1-0.4-1.4-1.3-1.4c-1.1,0-1.7,0.7-1.7,2v2.5c0,0.1,0,0.1,0,0.2c0.1,0,0.1,0,0.2,0l0.8,0&#xA;		v1.5h-4.2V79.1z M95.3,86.5c0-0.2,0-0.2,0-0.3c-0.2,0-0.2,0-0.4,0h-1.1v-1h4.5v1H97c-0.2,0-0.2,0-0.3,0c0,0.2,0,0.2,0,0.3v5.4&#xA;		c0,0.8,0.2,1.3,0.5,1.8c0.5,0.7,1.3,1.1,2.3,1.1c1.8,0,2.8-1.2,2.8-3.2v-5.1c0-0.2,0-0.2,0-0.3c-0.2,0-0.2,0-0.3,0h-1.4v-1h4.3v1&#xA;		h-1.1c-0.2,0-0.2,0-0.3,0c0,0.2,0,0.2,0,0.3v4.9c0,1.5-0.2,2.2-0.7,3c-0.7,1-1.9,1.6-3.3,1.6c-1.5,0-2.7-0.5-3.4-1.4&#xA;		c-0.6-0.7-0.8-1.5-0.8-2.7V86.5z M107.8,89.8c0.4-1.2,1.3-1.7,2.6-1.7c1.6,0,2.6,0.9,2.6,2.3v4c0,0.2,0,0.2,0,0.4&#xA;		c0.2,0,0.2,0,0.4,0h0.9v1h-3.8v-1h1c0.2,0,0.2,0,0.3,0c0-0.2,0-0.2,0-0.4v-3.5c0-1.1-0.5-1.7-1.6-1.7c-1.3-0.1-2.2,0.9-2.2,2.4v2.9&#xA;		c0,0.2,0,0.2,0,0.4c0.2,0,0.2,0,0.4,0h1v1h-4v-1h1.1c0.2,0,0.2,0,0.3,0c0-0.2,0-0.2,0-0.4v-4.8c0-0.2,0-0.2,0-0.4&#xA;		c-0.2,0-0.2,0-0.4,0l-1,0v-1h2.6V89C107.8,89.2,107.7,89.4,107.8,89.8L107.8,89.8z M117.4,94.4c0,0.2,0,0.2,0,0.4&#xA;		c0.2,0,0.2,0,0.4,0h1v1h-4v-1h1c0.2,0,0.2,0,0.3,0c0-0.2,0-0.2,0-0.4v-4.8c0-0.2,0-0.2,0-0.4c-0.2,0-0.2,0-0.4,0l-1,0v-1h2.7V94.4z&#xA;		 M117.4,85.1v1.4h-1.5v-1.4H117.4z M124.4,90.1c0.2-0.4,0.2-0.5,0.4-0.9c-0.3,0-0.4,0-0.7,0l-0.7,0v-1h3.5v1l-0.9,0l-2.6,6.5h-1.7&#xA;		l-2.6-6.5l-0.9,0v-1h3.6v1l-0.7,0c-0.3,0-0.4,0-0.7,0c0.2,0.4,0.2,0.5,0.4,0.9l1,2.8c0.3,0.9,0.4,1,0.6,1.8h0.1&#xA;		c0.2-0.8,0.3-1,0.6-1.8L124.4,90.1z M134.3,93.4c-0.2,1.5-1.6,2.5-3.4,2.5c-2.3,0-3.8-1.5-3.8-3.8c0-2.4,1.4-4,3.8-4&#xA;		c1.7,0,2.9,0.9,3.3,2.4c0.2,0.6,0.2,0.9,0.2,1.8h-5.7c-0.1,0-0.2,0-0.3,0c0,1.5,1,2.6,2.4,2.6c1.2,0,2-0.5,2.2-1.4H134.3z&#xA;		 M132.6,91.3c0.2,0,0.2,0,0.4,0c-0.1-1.4-0.9-2.2-2.2-2.2c-1.3,0-2.2,0.9-2.4,2.2c0.2,0,0.3,0,0.5,0H132.6z M137.7,90&#xA;		c0.3-1.3,1.1-1.9,2.4-1.9c0.2,0,0.4,0,0.6,0.1v1.2c-0.3-0.1-0.4-0.2-0.7-0.2c-1.4,0-2.2,1-2.2,2.7v2.5c0,0.2,0,0.2,0,0.4&#xA;		c0.1,0,0.2,0,0.4,0h1.3v1h-4.3v-1h1c0.2,0,0.2,0,0.4,0c0-0.2,0-0.2,0-0.4v-4.8c0-0.2,0-0.2,0-0.4c-0.2,0-0.2,0-0.4,0l-1,0v-1h2.6&#xA;		v0.8c0,0.1,0,0.2,0,0.5C137.7,89.7,137.6,89.8,137.7,90L137.7,90z M147.4,88.3v2.4h-1.1c0-1-0.7-1.6-2-1.6c-1.1,0-1.8,0.4-1.8,1.1&#xA;		c0,0.2,0.1,0.5,0.3,0.6c0.2,0.2,0.4,0.3,1,0.3l0.9,0.1c1,0.1,1.6,0.3,1.9,0.6c0.4,0.3,0.7,0.9,0.7,1.5c0,1.5-1.1,2.4-3,2.4&#xA;		c-1.1,0-1.9-0.4-2.3-1.2l-0.1,0c0.1,0.3,0.1,0.4,0.1,0.6v0.5h-1.1v-2.6h1.1c0.1,1,0.9,1.7,2.2,1.7c0.3,0,0.8-0.1,1.1-0.2&#xA;		c0.4-0.2,0.6-0.5,0.6-0.9c0-0.4-0.2-0.7-0.5-0.9c-0.2-0.1-0.5-0.2-1.2-0.3l-0.8-0.1c-1.7-0.3-2.4-0.8-2.4-2.1c0-0.7,0.3-1.3,1-1.7&#xA;		c0.6-0.4,1.4-0.6,2.2-0.5c1,0.1,1.6,0.4,2,1.1l0.1,0c-0.1-0.3-0.1-0.4-0.1-0.5v-0.4H147.4z M151,94.4c0,0.2,0,0.2,0,0.4&#xA;		c0.2,0,0.2,0,0.4,0h1v1h-4v-1h1c0.2,0,0.2,0,0.4,0c0-0.2,0-0.2,0-0.4v-4.8c0-0.2,0-0.2,0-0.4c-0.2,0-0.2,0-0.4,0l-1,0v-1h2.7V94.4z&#xA;		 M151,85.1v1.4h-1.5v-1.4H151z M157.6,93.4c0,0.9-0.1,1.3-0.3,1.7c-0.4,0.6-0.8,0.8-1.7,0.8c-0.6,0-1-0.1-1.4-0.4&#xA;		c-0.5-0.4-0.6-0.8-0.6-1.8v-4c0-0.2,0-0.2,0-0.4c-0.2,0-0.2,0-0.4,0l-1.1,0v-1h1.1c0.2,0,0.2,0,0.4,0c0-0.2,0-0.2,0-0.4v-1.3&#xA;		l1.4-0.5V88c0,0.2,0,0.2,0,0.4c0.2,0,0.2,0,0.4,0h2.1v1l-2.1,0c-0.2,0-0.2,0-0.4,0c0,0.2,0,0.2,0,0.4v4.1c0,0.5,0,0.7,0.2,0.9&#xA;		c0.1,0.2,0.4,0.3,0.7,0.3c0.3,0,0.6-0.2,0.7-0.5c0.1-0.2,0.1-0.4,0.1-0.9H157.6z M158.5,89.3l-0.8,0v-1h3.6v1l-0.7,0&#xA;		c-0.4,0-0.4,0-0.8,0c0.2,0.4,0.2,0.4,0.4,1l1.1,2.6c0.3,0.8,0.4,1,0.7,1.7h0.1c0.2-0.7,0.3-0.9,0.6-1.7l1.1-2.6&#xA;		c0.2-0.5,0.2-0.6,0.4-0.9c-0.3,0-0.4,0-0.8,0l-0.7,0v-1h3.5v1l-0.8,0l-3.1,7.2c-0.5,1.1-0.7,1.5-1,1.8c-0.3,0.2-0.8,0.4-1.4,0.4&#xA;		c-0.4,0-0.7,0-1-0.1v-1c0.2,0,0.5,0,0.7,0c0.8,0,0.9-0.1,1.3-1l0.4-0.8L158.5,89.3z"/>
	<path d="M87.3,92.9L87.3,92.9c-4.8,3.4-16.9,6.9-19,0.8c-3.7,2.8-5.9,10.3-6.8,14.1l0,0c-0.9-3.8-3.1-11.3-6.8-14.1&#xA;		c-2,6.1-14.1,2.6-19-0.8h0C35.1,87,38.2,74.8,44.5,76c-0.6-4.6-6-10.3-8.8-12.9v0c3.7,1.1,11.4,2.9,15.6,1.1&#xA;		c-4.3-4.8,4.8-13.5,10.2-16l0,0c5.3,2.5,14.4,11.2,10.2,16c4.2,1.8,11.9-0.1,15.6-1.1l0,0c-2.8,2.7-8.2,8.4-8.8,12.9&#xA;		C84.7,74.8,87.8,87,87.3,92.9z M61.5,50.8L61.5,50.8c-4.2,2.2-8.6,6-9.3,10.7l0,0c5.3-1.8,8.3,5.5,9.3,9.6c1-4.1,4-11.4,9.3-9.6&#xA;		l0,0C70,56.8,65.7,53,61.5,50.8z M85,91.5L85,91.5c0.2-4.7-0.9-10.4-4.6-13.4l0,0c-1.1,5.5-8.9,4.4-13,3.2c3,2.9,7.9,9.2,3.7,12.9&#xA;		l0,0C75.5,95.9,81,94.1,85,91.5z M38,91.5L38,91.5c4,2.6,9.5,4.4,13.9,2.7l0,0c-4.2-3.7,0.7-9.9,3.7-12.9c-4.1,1.2-11.9,2.3-13-3.2&#xA;		l0,0C38.9,81.1,37.7,86.8,38,91.5z M61.5,79.1L61.5,79.1c-4.2,2.4-8.6,6.6-9.3,11.8h0c5.3-2,8.3,6.1,9.3,10.6&#xA;		c1-4.5,4-12.6,9.3-10.6h0C70,85.7,65.7,81.5,61.5,79.1z M60.5,77.4L60.5,77.4c0.1-4.9-1.5-10.8-5.6-14l0,0&#xA;		c-0.9,5.6-9.4,4.1-13.9,2.7c3.4,3.1,8.9,9.8,4.6,13.4l0,0C50.4,81.5,56.3,79.8,60.5,77.4z M62.5,77.4L62.5,77.4&#xA;		c4.2,2.5,10,4.1,14.9,2.1l0,0c-4.4-3.6,1.2-10.2,4.6-13.4C77.5,67.5,69,69,68,63.4l0,0C63.9,66.6,62.4,72.5,62.5,77.4z"/>
</g>
</svg>