<?xml version="1.0" encoding="utf-8"?>
<svg xmlns="http://www.w3.org/2000/svg" preserveAspectRatio="xMinYMin" viewBox="0 0 380.55 42.02">
  <path d="M55.52 4.03c0-2.23-1.36-2.23-2.92-2.23l-.14-.12V1.2c0-.31.2-.34.5-.34.75 0 2.56.14 3.89.14 1.41 0 2.86-.14 4.27-.14l.09.08v.74l-.14.12h-.34c-1.84 0-2.66.2-2.66 2.32v8.2c0 4.09.8 7.29 5.66 7.29 5.07 0 6.7-2.44 6.7-7.22V5.02c0-3.22 0-3-2.48-3.22l-.12-.23v-.54l.1-.17c.5 0 1.07.14 3.19.14 1.2 0 2.7-.14 3.6-.14l.11.17v.6l-.17.17c-2.06 0-2.8.11-2.8 1.52v10.11c0 5.19-3.03 7.82-8.19 7.82-4.1 0-8.15-1.45-8.15-6.18V4.03Z"/>
  <path d="M76.45 8.45c0-.43-.02-.54-.1-.7-.2-.37-1.13-1.13-1.5-1.15l-1.12-.06c-.08 0-.1-.22-.1-.38 0-.11 0-.28.1-.28.66 0 1.17-.04 1.7-.04.97 0 2.52.08 2.9.12l6.43 7.77a48.73 48.73 0 0 0 3.46 3.82h.09V8.21c0-1.4-.51-1.61-1.2-1.63l-.9-.04c-.09 0-.13-.22-.13-.36 0-.13.06-.34.2-.34.46 0 1.56.1 2.6.1.96 0 1.97-.1 2.57-.1.1 0 .13.08.13.17v.4c0 .1-.05.13-.2.13h-.55c-1.46 0-1.46.74-1.46 2.54v12.29h-.51L77.4 8.27v9.75c0 1.82.26 2.03 2.08 2.1.08 0 .15.19.15.36 0 .17-.02.34-.09.34-.4 0-1.76-.11-2.65-.11-1.04 0-1.5.1-2.48.1-.13 0-.15-.14-.15-.42 0-.19.02-.27.28-.27.89 0 1.9-.21 1.9-1.3V8.45zm20.7 8.44c0 3.1.05 3.12 2.13 3.23l.11.15v.4c0 .12-.32.15-.5.15-.3 0-1.73-.11-2.6-.11-1.01 0-2.06.1-3.16.1-.08-.04-.1-.16-.1-.38.02-.27.06-.31.67-.31 1.47 0 1.53-.32 1.53-1.94V8.04c0-1.2-.36-1.5-2.14-1.5l-.06-.1-.04-.35c.02-.23.2-.26.34-.26.57 0 1.25.11 2.69.11 1.06 0 2.33-.1 3.18-.1l.1.15v.38l-.08.12-.57.04c-.85.07-1.5.16-1.5 1.13v9.23zm5.09-9.63c-.24-.57-1.08-.72-1.68-.72l-.13-.1v-.56l.24-.05c.89 0 2.18.11 2.65.11.98 0 1.93-.1 2.9-.1l.07.06-.07.6-1 .08c-.33.02-.71.15-.71.46 0 .17.1.45.19.64l2.44 6.37 1.38 3.16c.15.32.17.38.23.38.05 0 .1-.09.2-.34l3.03-8.04c.34-.91.6-1.7.57-1.95-.02-.36-.13-.55-.74-.61l-1.1-.11-.13-.07v-.65c.83 0 1.65.12 2.48.12.66 0 2.06-.12 2.2-.12l.17.08v.49l-.19.15-.66.04c-.42.02-.59.23-.88.98-2.02 4.85-2.5 6.38-4.12 10.48l-1.08 2.75c-.1.3-.15.32-.3.32-.2 0-.23-.06-.27-.15l-5.7-13.7zm16.6.74c0-1.38-1.04-1.53-2.27-1.53-.09 0-.09-.1-.09-.19v-.23c0-.2.36-.21 1.1-.21.85 0 1.8.1 2.7.1.85 0 1.7-.1 2.55-.1h4.47c.17 0 .2.19.2.42v2.59c0 .09-.05.17-.15.17-.17 0-.51.02-.54-.23l-.06-.66c-.13-1.36-1.06-1.6-2.25-1.6h-2.18c-1.2 0-1.57.26-1.57 1.88v3.83c0 .07.12.18.17.18l2.5-.09c1.27-.04 1.63-.45 1.95-1.57.04-.12.1-.17.34-.17.15 0 .26.02.26.13 0 .44-.13 1.42-.13 2.12 0 1.14.13 1.76.13 2.12 0 .13-.22.26-.34.26-.17 0-.32-.07-.36-.28-.11-.57-.11-.98-.21-1.27-.11-.32-.37-.47-1-.49l-3.02-.07c-.3 0-.3.11-.3.26v5.05c0 1.53 1.13 1.57 2.6 1.57h1.14c1.12 0 1.91-.02 2.44-.34.47-.28 1.12-1.57 1.36-2.1.27 0 .64.06.64.21 0 .07-.07.24-.11.34l-.6 2.14c-.17.58-.27.58-.55.58-2.29 0-4.54-.1-7.61-.1-.7 0-2.49.1-3.57.1-.06 0-.13-.22-.13-.34 0-.17.05-.36.13-.36 1.85-.09 2.36-.28 2.36-2.23V8zm15.9 4.65c.27.02.52.04.8.04 1.7 0 3.82-.6 3.82-3.1 0-1.87-1.27-3.08-3.14-3.08-1.44 0-1.48.35-1.48.98v5.16zm-1.91-4.52c0-1.06-.05-1.6-1.38-1.6h-.87c-.13 0-.15-.23-.15-.4 0-.1.06-.3.15-.3 1.23 0 2.48.07 3.71.07.97 0 1.93-.07 2.9-.07 2.17 0 4.3 1.45 4.3 3.68 0 1.93-1.77 3.22-3.42 3.48v.04c.82.2 1.7 1.74 1.9 2.08l2.34 3.57c.74 1.12 1.23 1.33 2.5 1.4l.13.12v.4c0 .2-.15.22-.23.22-.45 0-1.1-.07-1.42-.07-.51 0-1.02.07-1.53.07-.49 0-1.45-1.43-2.7-3.65-1.38-2.45-2.18-3.78-3.58-3.78-.17 0-.42 0-.74.04v5.2c0 .76 0 1.49 1.06 1.49.8 0 1.16 0 1.16.17 0 .4-.06.53-.38.53-1.1 0-2.01-.11-2.93-.11-.36 0-2.71.1-3 .1-.14 0-.18-.27-.18-.44 0-.19.09-.23.51-.25 1.46-.07 1.85-.28 1.85-1.74V8.13zm15.47 4.96c-1.53-.9-2.14-1.76-2.14-3.41 0-2.65 2.16-4.14 5.02-4.14.81 0 1.96.28 2.68.6l.15 2.65v.1c0 .1-.21.15-.51.15-.28 0-.32-.13-.34-.34-.15-1.42-1.17-2.33-2.68-2.33-1.44 0-2.56 1.01-2.56 2.38 0 1.52.93 2.12 3.05 3.24 2.1 1.1 3.93 2.08 3.93 4.73 0 2.89-2.61 4.4-5.26 4.4-.87 0-2.32-.28-3.12-.62-.17-.09-.23-.36-.3-.83l-.25-2c0-.12.42-.12.55-.12.06 0 .12.04.17.19.49 1.61 1.59 2.55 3.29 2.55 1.48 0 2.9-1.3 2.9-2.74 0-1.38-.78-2.21-1.89-2.87l-2.69-1.59zm12.52 3.8c0 3.1.07 3.12 2.15 3.23l.1.15v.4c0 .12-.32.15-.5.15-.3 0-1.72-.11-2.6-.11-1.02 0-2.05.1-3.16.1-.08-.04-.1-.16-.1-.38.02-.27.06-.31.68-.31 1.46 0 1.53-.32 1.53-1.94V8.04c0-1.2-.36-1.5-2.15-1.5l-.06-.1-.04-.35c.02-.23.2-.26.34-.26.57 0 1.25.11 2.69.11 1.06 0 2.33-.1 3.18-.1l.11.15v.38l-.08.12-.58.04c-.85.07-1.5.16-1.5 1.13v9.23zm11.27 1.66c0 1.57 1.06 1.57 2.38 1.57l.13.1v.34c0 .26-.1.26-.45.26-.43 0-1.46-.1-2.95-.1-1.16 0-2.99.1-3.5.1-.04-.15-.08-.26-.08-.39 0-.06.02-.19.08-.23l.22-.08h.25c1.93 0 2.02-.66 2.02-2.42V7.64l-.07-.97h-2.84c-1.61 0-1.87 1.01-2.27 2.37-.05.13-.13.2-.26.2-.3 0-.49-.1-.49-.22 0-.36.26-2.33.26-4.01 0-.09.3-.09.6-.09.67.92.88.92 1.8.92h7.89c1.48 0 1.9-.45 2.44-1.1.15 0 .63 0 .63.18 0 .17-.42 1.91-.46 3.44 0 .24-.07.68-.17.68-.19 0-.68-.1-.68-.21l-.08-1.06c-.09-1.08-.6-1.1-1.47-1.1h-2.93v11.88zm13.07-4.48c0-.21-.02-.5-.26-.83l-4.78-6.48c-.13-.19-.32-.3-.82-.32l-.8-.04-.13-.06v-.56l.12-.06h.26c.36 0 2.65.1 3.05.1.54 0 1.4-.1 2.1-.1.47 0 .68 0 .68.13v.25c0 .21-.06.32-.13.32l-1.24.04c-.3 0-.49.13-.49.37 0 .08.13.3.35.57l3.05 4.26c.17.23.36.44.58.64.4-.39 2.29-2.98 3.2-4.32.34-.5.54-.9.54-1.07 0-.3-.18-.42-.8-.45l-1.06-.04c.02 0 0-.32 0-.4 0-.11.02-.24.13-.3.83.08 1.85.1 2.77.1.62 0 1.56-.1 1.84-.1l.13.08v.5l-.09.08-.79.04c-.68.04-1.54 1.5-1.94 2.05l-3.55 4.85v5.02c0 .45.02.84.07.96.17.51.72.8 1.51.8h.58l.2.08v.6l-.12.02H189c-.94 0-1.85-.1-2.8-.1-.95 0-1.94.1-2.9.1h-.3l-.17-.04v-.37c0-.12.04-.27.21-.3l1-.1c.63-.07 1.12-.28 1.12-1.35v-4.57zm30.32-.66c0-3.57-2.43-7.2-6.25-7.2-3.92 0-5.81 3.08-5.81 6.66 0 3.63 2.2 7.39 6.15 7.39 3.9 0 5.91-3.2 5.91-6.85m-14.33.17c0-4.44 3.8-8.06 8.19-8.06 4.45 0 8.42 3.05 8.42 7.46 0 4.27-4.12 8.1-8.34 8.1-4.43 0-8.27-2.88-8.27-7.5m19.2-5.39c0-1.29-.2-1.57-1.46-1.57h-.36c-.38.03-.55-.04-.55-.17 0-.17 0-.53.24-.53h8.69c.72 0 1.44-.1 2.18-.1.13 0 .3.02.3.19l.08 2.4.03.44c0 .08-.17.12-.39.12h-.31c-.05-.25-.09-.5-.15-.74l-.2-.65c-.22-.83-.84-.96-1.5-.96h-2.97c-1.57 0-1.72.49-1.72 2.04v3.73h3.14c1.82 0 2.27-.5 2.27-1.67.21-.05.43-.11.57-.11.09 0 .13.04.13.15 0 .16-.08.48-.08 2.03 0 .62.08 1.72.08 2.19 0 .19-.14.27-.38.27-.17 0-.23-.19-.32-.53-.15-.87-.57-1.63-2.37-1.63h-3.04v5.56c0 .82.11 1.27 1.2 1.35l1.1.09c.1 0 .14.13.14.27 0 .17 0 .43-.23.43-1.6 0-2.27-.1-3.27-.1-.87 0-2.43.1-3 .1-.18 0-.18-.21-.18-.38 0-.13.02-.32.11-.32l.93-.06c1.12-.09 1.3-.34 1.3-1.6V8.2zm28.45 3.67-3.15-8.12h-.06l-2.7 8.12h5.9zm-6.28 1.11L241.28 17a6.67 6.67 0 0 0-.34 1.85c0 .93 1.33 1.13 2.1 1.13.25 0 .31.17.31.54 0 .28-.03.4-.23.4-.65 0-2.72-.15-3.49-.15-.76 0-1.95.15-2.8.15-.57 0-.57-.1-.57-.46v-.31c0-.14.25-.2.93-.26 1.48-.14 1.68-.42 2.22-1.98l5.62-16.35c.56-.48 1.16-1.14 1.86-1.36l7.13 17.96c.48 1.2 1 1.79 2.64 1.79.31 0 .37.34.37.65 0 .32-.2.32-.54.32-.46 0-2.27-.15-3.38-.15-1.13 0-2.27.06-3.4.15-.43 0-.46-.1-.46-.49 0-.3.17-.45.57-.45.43 0 1.82-.09 1.82-.77 0-.22-.11-.68-.51-1.67l-1.82-4.57h-6.79zm29.83-7.1c.66 0 1.33.07 2.02.07.53 0 1.08-.07 1.61-.07.32 0 .39.09.39.15v.34c0 .15-.07.26-.15.26-.15 0-.38-.05-.64-.05-1.24 0-1.24.62-1.24 2 0 1.22.24 9.18.24 10.35 0 .6.3 1.28 1.21 1.28.85 0 .96.04.96.23 0 .26-.13.47-.2.47-1.12 0-2.01-.1-2.9-.1-.9 0-1.82.1-2.73.1-.15 0-.17-.08-.17-.21v-.22c0-.2.19-.27 1.17-.27.43 0 .8-.51.8-1.26 0-2.3-.08-7.26-.16-10.9l-.07-.02c-1.19 2.45-2.74 6-3.46 7.9l-2.01 5.26c-.02.06-.08.12-.2.12-.1 0-.18-.1-.24-.4a9.57 9.57 0 0 0-.54-1.55l-4.02-9.8c-.15-.36-.28-.61-.36-.61-.09 0-.09.42-.09.66 0 1.68-.25 8.1-.25 9.15 0 .92 0 1.45 1.87 1.45.13 0 .15.1.15.36 0 .08-.02.34-.1.34-.3 0-1.35-.1-2.5-.1-1.2 0-2.4.1-2.7.1-.06 0-.13-.06-.13-.17v-.32c0-.2.17-.21.43-.21 1.74 0 2-.53 2-2.39 0-1.04.36-8.87.36-9.64 0-1.13-.55-1.6-2.47-1.6-.06 0-.1-.1-.1-.23v-.28c0-.1.06-.19.17-.19.8 0 1.57.1 2.42.1.53 0 1.09-.1 1.62-.1.15 0 .3.34.4.62l4.6 11h.1l4.9-11.62zm7.7 7.28c-1.54-.91-2.16-1.77-2.16-3.42 0-2.67 2.17-4.16 5.04-4.16.81 0 1.96.28 2.69.6l.15 2.66v.1c0 .11-.22.16-.52.16-.27 0-.31-.13-.33-.34-.15-1.43-1.17-2.35-2.69-2.35-1.44 0-2.57 1.02-2.57 2.39 0 1.53.94 2.13 3.06 3.25 2.11 1.11 3.94 2.09 3.94 4.75 0 2.9-2.62 4.4-5.28 4.4-.87 0-2.32-.27-3.13-.61-.17-.08-.23-.36-.3-.83l-.25-2c0-.13.43-.13.55-.13.07 0 .13.04.17.2.5 1.61 1.6 2.55 3.3 2.55 1.5 0 2.92-1.3 2.92-2.75 0-1.38-.79-2.21-1.9-2.87l-2.7-1.6zm15.5 5.86c0 1.57 1.06 1.57 2.38 1.57l.13.1v.35c0 .26-.1.26-.45.26-.42 0-1.47-.11-2.96-.11-1.17 0-3 .1-3.5.1-.05-.14-.1-.25-.1-.38 0-.06.03-.19.1-.23l.2-.09h.26c1.94 0 2.02-.66 2.02-2.42V8.06l-.06-.97h-2.85c-1.62 0-1.88 1.02-2.28 2.38-.04.13-.13.2-.26.2-.3 0-.48-.1-.48-.22 0-.36.25-2.34.25-4.03 0-.08.3-.08.6-.08.68.92.89.92 1.8.92h7.92c1.49 0 1.92-.45 2.45-1.11.15 0 .64 0 .64.2 0 .16-.43 1.9-.47 3.44 0 .23-.07.68-.17.68-.2 0-.68-.1-.68-.21l-.08-1.07c-.1-1.08-.6-1.1-1.47-1.1h-2.94V19zm8.93-10.97c0-1.38-1.04-1.53-2.28-1.53-.08 0-.08-.1-.08-.2v-.23c0-.19.36-.2 1.1-.2.86 0 1.82.1 2.71.1.85 0 1.7-.1 2.55-.1h4.5c.16 0 .19.18.19.42v2.6c0 .08-.05.16-.15.16-.17 0-.51.02-.54-.23l-.06-.66c-.13-1.36-1.06-1.6-2.25-1.6h-2.2c-1.19 0-1.57.26-1.57 1.88v3.85c0 .06.13.17.17.17l2.5-.08c1.28-.05 1.65-.45 1.97-1.58.04-.13.1-.17.34-.17.15 0 .25.02.25.13 0 .45-.12 1.43-.12 2.13 0 1.15.12 1.76.12 2.12 0 .13-.2.26-.34.26-.17 0-.32-.06-.36-.28-.1-.57-.1-.97-.2-1.27-.12-.32-.38-.47-1.01-.5l-3.02-.06c-.3 0-.3.1-.3.26v5.07c0 1.53 1.13 1.57 2.6 1.57h1.14c1.13 0 1.92-.02 2.45-.34.47-.28 1.13-1.57 1.36-2.1.28 0 .64.06.64.2 0 .07-.06.24-.1.35l-.6 2.15c-.17.57-.27.57-.55.57-2.3 0-4.56-.1-7.64-.1-.7 0-2.5.1-3.58.1-.07 0-.13-.21-.13-.34 0-.17.04-.36.13-.36 1.85-.09 2.36-.28 2.36-2.24V8.04zm15.28 4.66c.28.03.53.05.8.05 1.7 0 3.84-.6 3.84-3.11 0-1.87-1.28-3.09-3.15-3.09-1.45 0-1.49.34-1.49.98v5.17zm-1.92-4.53c0-1.06-.04-1.6-1.38-1.6h-.88c-.12 0-.14-.23-.14-.4 0-.1.06-.3.14-.3 1.24 0 2.5.07 3.73.07.98 0 1.94-.07 2.92-.07 2.17 0 4.3 1.45 4.3 3.68 0 1.94-1.77 3.24-3.43 3.5v.04c.83.19 1.7 1.74 1.92 2.08l2.34 3.58c.74 1.13 1.23 1.34 2.51 1.4l.13.13v.4c0 .2-.15.22-.24.22-.45 0-1.1-.06-1.42-.06-.52 0-1.02.06-1.53.06-.5 0-1.45-1.43-2.7-3.66-1.4-2.45-2.2-3.8-3.6-3.8-.18 0-.43 0-.75.05v5.22c0 .76 0 1.49 1.07 1.49.8 0 1.17 0 1.17.17 0 .4-.07.53-.4.53-1.1 0-2.01-.1-2.93-.1-.36 0-2.72.1-3.02.1-.13 0-.17-.27-.17-.45 0-.19.08-.23.51-.25 1.47-.07 1.85-.28 1.85-1.75V8.17zm17.2 9.54c0 2.35 2.4 2.35 3.33 2.35 2.92 0 6.03-2.4 6.03-6.86 0-3.79-2.05-5.66-3.52-6.51a8.77 8.77 0 0 0-3.27-.56c-1.75 0-2.58.13-2.58 1.5V17.7zm-1.93-9.5c0-.8-.16-1.63-.96-1.63-.25 0-.93.09-1.33.09-.1 0-.1-.32-.1-.43 0-.13 0-.2.37-.27a44.9 44.9 0 0 1 6.66-.54c1.18 0 2.28.1 3.33.38 2.89.8 5.6 3.37 5.6 7.28 0 5.28-4.42 7.67-8.46 7.67-2.02 0-3.09-.09-4.15-.09-1.06 0-2.13.06-3.2.09-.08 0-.1-.2-.1-.34 0-.15.1-.36.2-.36.68-.09 1.23-.13 1.61-.39.32-.21.53-.55.53-1.23V8.22zm22.05 5.9-2.36-6.09h-.05l-2.01 6.1h4.42zm-4.7.83-.94 3.02a4.95 4.95 0 0 0-.25 1.39c0 .7 1 .85 1.57.85.2 0 .24.13.24.4 0 .22-.03.3-.17.3-.5 0-2.05-.1-2.62-.1-.58 0-1.47.1-2.11.1-.42 0-.42-.06-.42-.34v-.23c0-.11.19-.15.7-.2 1.1-.1 1.25-.32 1.66-1.49l4.21-12.26c.43-.36.87-.85 1.4-1.02l5.35 13.48c.36.89.75 1.34 1.98 1.34.24 0 .28.25.28.49 0 .23-.15.23-.4.23-.35 0-1.71-.1-2.54-.1-.85 0-1.7.04-2.56.1-.31 0-.34-.06-.34-.36 0-.24.13-.34.43-.34.32 0 1.36-.07 1.36-.58 0-.17-.08-.5-.38-1.25l-1.36-3.43h-5.1zm25.66-9.07c.66 0 1.34.06 2.02.06.53 0 1.09-.06 1.62-.06.32 0 .38.09.38.15v.34c0 .15-.06.26-.15.26-.15 0-.38-.05-.64-.05-1.23 0-1.23.62-1.23 2 0 1.22.23 9.18.23 10.35 0 .6.3 1.28 1.22 1.28.85 0 .96.04.96.23 0 .26-.13.47-.2.47-1.13 0-2.02-.1-2.91-.1-.9 0-1.81.1-2.73.1-.15 0-.17-.08-.17-.21v-.22c0-.2.2-.27 1.17-.27.43 0 .8-.51.8-1.26 0-2.3-.07-7.26-.16-10.9l-.06-.02c-1.2 2.45-2.75 6-3.47 7.9l-2 5.26a.2.2 0 0 1-.2.12c-.1 0-.18-.1-.25-.4a10.07 10.07 0 0 0-.53-1.55l-4.03-9.8c-.15-.36-.27-.61-.36-.61-.08 0-.08.42-.08.66 0 1.68-.26 8.1-.26 9.15 0 .92 0 1.45 1.87 1.45.13 0 .15.1.15.36 0 .08-.02.34-.1.34-.3 0-1.34-.1-2.5-.1-1.2 0-2.4.1-2.7.1-.06 0-.12-.06-.12-.17v-.32c0-.2.16-.21.42-.21 1.75 0 2-.53 2-2.39 0-1.04.36-8.87.36-9.64 0-1.13-.55-1.6-2.47-1.6-.06 0-.1-.1-.1-.23v-.28c0-.1.06-.19.17-.19.8 0 1.57.1 2.43.1.53 0 1.08-.1 1.61-.1.15 0 .3.34.4.62l4.6 11h.11l4.9-11.62zM0 42h42V0H0v42zM16.07 3.86l1.76-1.76L21 5.27l3.17-3.17 1.76 1.76-3.17 3.17 3.17 3.17-1.76 1.76L21 8.79l-3.17 3.17-1.76-1.76 3.17-3.17-3.17-3.17zm3.17 14.82-3.17-3.17 1.76-1.76L21 16.93l3.17-3.18 1.76 1.76-3.17 3.17 3.17 3.17-1.76 1.76L21 20.44l-3.17 3.17-1.76-1.76 3.17-3.17zm6.69 19.44-1.76 1.76L21 36.7l-3.18 3.18-1.75-1.76 3.17-3.17-3.17-3.18 1.75-1.75L21 33.19l3.17-3.17 1.76 1.75-3.18 3.18 3.18 3.17zm1.22-9.04v-3.82l-1.71 1.62s-1 1.03-3.28 1.61a11.4 11.4 0 0 1-7.57-.49 5.7 5.7 0 0 1-2.55-2.24c-.55-.86-.55-3-.55-3l.04-4-.3-6.74s1.02.04 1.72.04c.86 0 1.6-.19 1.62-.07.03.2.06 9.4.06 9.4s.1 1.96.58 2.96c.85 1.75 4.61 1.9 4.61 1.9s.59.07 1.9-.03c1.3-.1 3.86-.48 4.68-2.03 0 0 .59-.65.8-4.37.22-3.9-.3-7.75-.3-7.75l3.65-.17s-.25 2.76-.25 7.92c0 5.17.47 8.2.47 8.2l-3.62 1.06z"/>
</svg>