<?xml version="1.0" encoding="utf-8"?>
<svg xmlns="http://www.w3.org/2000/svg" width="130" height="28" viewBox="0 0 130 28" fill="none">
<path d="M45.8268 18.7879L49.6872 9.96009H51.8132C50.1627 13.7274 48.5123 17.4947 46.8898 21.262H44.7358C43.0854 17.4947 41.4349 13.7274 39.8124 9.96009H42.0783L45.8268 18.7879ZM55.3379 7.57037C55.0861 7.8234 54.7225 7.96398 54.3028 7.96398C53.8833 7.96398 53.5476 7.8234 53.2678 7.57037C53.016 7.31734 52.8482 6.97997 52.8482 6.58638C52.8482 6.19277 53.016 5.82729 53.2678 5.57426C53.5196 5.32123 53.8833 5.18066 54.2749 5.18066C54.6665 5.18066 55.0302 5.32123 55.282 5.57426C55.5338 5.82729 55.7016 6.16466 55.7016 6.53015C55.7575 6.95186 55.6176 7.31734 55.3379 7.57037ZM55.3379 21.2902H53.2398V9.96009H55.3938V21.262H55.3379V21.2902ZM60.0655 10.0445V11.6469C60.4292 11.0847 60.9047 10.6629 61.5201 10.3818C62.2195 10.0445 63.0587 9.87572 64.0378 9.87572H64.1217V11.9843H64.0378C63.8699 11.9562 63.7301 11.9562 63.5902 11.9562C62.5272 11.9562 61.66 12.2936 61.0725 12.9121C60.4851 13.5306 60.1774 14.4584 60.1774 15.6392V21.262H58.0234V9.96009H60.0935V10.0445H60.0655ZM72.0383 19.4065C72.2901 19.3221 72.5418 19.1816 72.7376 19.041L72.8216 18.9848L73.5209 20.5873L73.4649 20.6154C73.1573 20.8684 72.7936 21.0652 72.3739 21.2058C71.9264 21.3464 71.4508 21.4026 70.9753 21.4026C69.8283 21.4026 68.9332 21.0934 68.3178 20.4748C67.7024 19.8563 67.3947 18.9848 67.3947 17.8321V11.7875H65.5204V9.96009H67.3947V7.51415H69.5486V9.96009H72.7376V11.7875H69.5486V17.7477C69.5486 18.3381 69.6885 18.7879 69.9683 19.0691C70.248 19.3784 70.6676 19.5189 71.1991 19.5189C71.4788 19.5471 71.7586 19.4908 72.0383 19.4065ZM77.1295 10.2413C77.9128 9.98824 78.78 9.87572 79.7031 9.87572C81.2697 9.87572 82.4726 10.2693 83.3117 11.0565C84.123 11.8156 84.5427 12.9683 84.5427 14.4865V21.2902H82.4726V19.9688C82.1369 20.3905 81.6893 20.756 81.1298 21.009C80.5144 21.2902 79.7591 21.4307 78.8919 21.4307C77.6331 21.4307 76.598 21.0934 75.8707 20.503C75.1154 19.9125 74.7238 19.0691 74.7238 18.057C74.7238 17.073 75.0595 16.1733 75.8987 15.5548C76.626 15.0206 77.717 14.7114 79.2556 14.7114H82.3607V14.374C82.3607 13.5306 82.1089 12.884 81.6334 12.4341C81.1578 11.9843 80.4304 11.7594 79.4793 11.7594C78.836 11.7594 78.1646 11.8719 77.5771 12.0687C76.9897 12.2655 76.4302 12.5747 76.0106 12.9402L75.9267 12.9964L75.0035 11.3377L75.0595 11.3096C75.619 10.8317 76.3463 10.4661 77.1295 10.2413ZM77.4652 19.2378C77.8848 19.5471 78.4723 19.7157 79.2276 19.7157C79.9829 19.7157 80.6543 19.5471 81.1857 19.2097C81.7172 18.8723 82.1089 18.4225 82.3607 17.8039V16.342H79.3395C78.3604 16.342 77.745 16.5388 77.3533 16.82C76.9897 17.1292 76.8498 17.5229 76.8498 17.9727C76.8498 18.5069 77.0736 18.9285 77.4652 19.2378ZM94.6409 20.503C93.8022 21.0934 92.5991 21.4026 91.0886 21.4026C90.193 21.4026 89.2705 21.262 88.4872 21.0371C87.6477 20.8122 86.9205 20.4467 86.4446 20.0812L86.3893 20.0531L87.2841 18.3101L87.3678 18.3663C87.8437 18.7037 88.4587 18.9848 89.1583 19.2097C89.8017 19.4065 90.5289 19.5189 91.2285 19.5189C92.1233 19.5189 92.7667 19.3784 93.1588 19.1535C93.5786 18.9005 93.7738 18.5349 93.7738 18.0851C93.7738 17.073 92.5154 16.8762 91.0609 16.6232C89.0745 16.2858 86.7529 15.8922 86.7529 13.3057C86.7529 12.2655 87.2279 11.3939 88.0389 10.8035C88.8508 10.2131 90.0254 9.87572 91.4522 9.87572C92.2071 9.87572 92.9904 9.98824 93.7185 10.1569C94.4172 10.3255 95.0606 10.5786 95.5365 10.8879L95.5927 10.9159C95.2843 11.5064 94.9769 12.0687 94.6694 12.659L94.6133 12.6028C94.1097 12.2936 93.6062 12.0687 93.075 11.9281C92.543 11.7875 92.0118 11.7313 91.4522 11.7313C90.6127 11.7313 89.9977 11.8719 89.578 12.1249C89.1306 12.3779 88.9069 12.7715 88.9069 13.1932C88.9069 14.2897 90.2214 14.5146 91.7035 14.7676C93.69 15.105 95.9278 15.4986 95.9278 18.0007C95.9563 19.0691 95.4804 19.9125 94.6409 20.503ZM99.9845 10.2413C100.768 9.98824 101.635 9.87572 102.557 9.87572C104.124 9.87572 105.327 10.2693 106.167 11.0565C106.978 11.8156 107.397 12.9683 107.397 14.4865V21.2902H105.327V19.9688C104.991 20.3905 104.544 20.756 103.984 21.009C103.369 21.2902 102.614 21.4307 101.746 21.4307C100.488 21.4307 99.4524 21.0934 98.7252 20.503C97.9704 19.9125 97.5783 19.0691 97.5783 18.057C97.5783 17.073 97.9142 16.1733 98.7537 15.5548C99.4809 15.0206 100.572 14.7114 102.11 14.7114H105.215V14.374C105.215 13.5306 104.964 12.884 104.488 12.4341C104.013 11.9843 103.285 11.7594 102.334 11.7594C101.69 11.7594 101.019 11.8719 100.432 12.0687C99.8445 12.2655 99.2849 12.5747 98.8651 12.9402L98.7814 12.9964L97.8581 11.3377L97.9142 11.3096C98.5015 10.8317 99.2011 10.4661 99.9845 10.2413ZM100.348 19.2378C100.768 19.5471 101.355 19.7157 102.11 19.7157C102.866 19.7157 103.537 19.5471 104.069 19.2097C104.6 18.8723 104.991 18.4225 105.243 17.8039V16.342H102.222C101.243 16.342 100.628 16.5388 100.236 16.82C99.8722 17.1292 99.7323 17.5229 99.7323 17.9727C99.7323 18.5069 99.956 18.9285 100.348 19.2378ZM113.496 10.3255C114.195 10.0163 114.978 9.84766 115.874 9.84766C117.3 9.84766 118.503 10.2693 119.342 11.1409C120.125 11.9562 120.573 13.1651 120.573 14.7676V21.262H118.419V15.0206C118.419 13.9523 118.168 13.1651 117.664 12.631C117.16 12.0968 116.433 11.8156 115.481 11.8156C114.419 11.8156 113.551 12.153 112.936 12.7715C112.349 13.39 112.041 14.2897 112.041 15.4424V21.262H109.887V9.96009H111.957V11.5064C112.349 11.0003 112.88 10.6067 113.496 10.3255ZM128.518 19.4065C128.769 19.3221 129.021 19.1816 129.217 19.041L129.301 18.9848L130 20.5873L129.945 20.6154C129.636 20.8684 129.273 21.0652 128.853 21.2058C128.406 21.3464 127.93 21.4026 127.455 21.4026C126.308 21.4026 125.412 21.0934 124.797 20.4748C124.181 19.8563 123.846 18.9848 123.846 17.8321V11.7875H121.972V9.96009H123.846V7.51415H126V9.96009H129.189V11.7875H126V17.7477C126 18.3381 126.14 18.7879 126.419 19.0691C126.699 19.3784 127.119 19.5189 127.651 19.5189C127.986 19.5471 128.266 19.4908 128.518 19.4065Z" fill="#636C74"/>
<path d="M17.6472 20.7319L19.0693 18.2574C20.249 20.3437 21.4611 22.4138 22.657 24.484L22.8347 24.387L22.6892 25.0015H22.1722C20.6692 23.5783 19.1502 22.1713 17.6472 20.7319ZM26.9234 10.1709L28.7818 2.52107C31.012 2.52107 33.2583 2.53724 35.4884 2.55342C32.628 5.10875 29.7838 7.68025 26.9234 10.2356V10.1709ZM23.772 23.2063L26.6648 11.2707C29.4767 8.78004 32.2563 6.25704 35.0521 3.75022C31.2867 10.2841 27.5052 16.8018 23.7397 23.3357L23.772 23.2063ZM25.8406 12.0308L22.9801 23.8209C21.8005 21.7831 20.6369 19.7453 19.4572 17.7075L25.8568 11.9822L25.8406 12.0308ZM28.103 2.66663L26.0991 10.931C24.1599 12.6615 22.2207 14.4082 20.2814 16.1387C22.8994 11.6103 25.5174 7.08185 28.1192 2.53724L28.103 2.66663ZM17.3402 21.314L21.2995 25.0015H15.4494L15.3201 24.4031L15.4817 24.5002L17.3402 21.314ZM13.1707 17.4325L14.4798 23.449L8.50031 13.0659L13.1707 17.4325ZM17.1624 20.3114L13.7364 17.1091C12.7667 12.7586 11.8294 8.40804 10.8759 4.05751C13.4939 8.58594 16.0958 13.1305 18.7138 17.6428C18.2128 18.5323 17.6957 19.438 17.1624 20.3114ZM6.83582 11.4162L15.0292 25.6161H23.1095L36.7812 1.93884L27.796 1.90649L19.0693 17.0444L10.5527 2.27847L9.9225 2.53724L12.9283 16.3652L7.59536 11.4L6.83582 11.4162ZM15.1747 23.74L13.9626 18.1604C14.9322 19.066 15.9019 19.9717 16.8715 20.8774C16.3059 21.8478 15.7564 22.8182 15.1908 23.7885L15.1747 23.74Z" fill="#7A828A"/>
<path d="M29.0568 2.39209L32.6444 10.6565L32.0949 10.899L28.5073 2.63469L29.0568 2.39209Z" fill="#7A828A"/>
<path d="M17.0496 20.91L28.7821 15.7832L28.9922 16.3817L17.2435 21.5085L17.0496 20.91Z" fill="#7A828A"/>
<path d="M26.3095 11.4971L31.9818 10.1871L31.8364 9.58875L26.1641 10.8987L26.3095 11.4971Z" fill="#7A828A"/>
<path d="M24.9355 7.03349L27.9575 16.7696L28.5393 16.5756L25.5173 6.85559L24.9355 7.03349Z" fill="#7A828A"/>
<path fill-rule="evenodd" clip-rule="evenodd" d="M1.87462 0.321777C0.840351 0.321777 0 1.16277 0 2.19784C0 3.23291 0.840351 4.07391 1.87462 4.07391C2.90889 4.07391 3.74924 3.23291 3.74924 2.19784C3.7654 1.16277 2.92505 0.321777 1.87462 0.321777Z" fill="#944A9B"/>
<path fill-rule="evenodd" clip-rule="evenodd" d="M10.1654 0.483276C9.21189 0.483276 8.43616 1.25958 8.43616 2.21378C8.43616 3.16799 9.21189 3.92812 10.1654 3.92812C11.1188 3.92812 11.8946 3.15181 11.8946 2.19761C11.8946 1.2434 11.1188 0.483276 10.1654 0.483276Z" fill="#CD4039"/>
<path fill-rule="evenodd" clip-rule="evenodd" d="M4.54114 5.90112C4.04017 5.90112 3.62 6.32162 3.62 6.82298C3.62 7.32435 4.04017 7.74485 4.54114 7.74485C5.04212 7.74485 5.46229 7.32435 5.46229 6.82298C5.46229 6.32162 5.05828 5.90112 4.54114 5.90112Z" fill="#C33B90"/>
<path fill-rule="evenodd" clip-rule="evenodd" d="M8.41925 5.54529C7.70819 5.54529 7.14258 6.11134 7.14258 6.82295C7.14258 7.53456 7.70819 8.10062 8.41925 8.10062C9.1303 8.10062 9.69599 7.53456 9.69599 6.82295C9.69599 6.11134 9.11413 5.54529 8.41925 5.54529Z" fill="#CD4039"/>
<path fill-rule="evenodd" clip-rule="evenodd" d="M7.48179 10.0575C6.56064 10.0575 5.81726 10.8015 5.81726 11.7233C5.81726 12.6452 6.56064 13.3891 7.48179 13.3891C8.40295 13.3891 9.14634 12.6452 9.14634 11.7233C9.14634 10.8015 8.40295 10.0575 7.48179 10.0575Z" fill="#E05644"/>
<path fill-rule="evenodd" clip-rule="evenodd" d="M15.2071 23.6757C16.096 23.6757 16.8232 24.4035 16.8232 25.293C16.8232 26.1825 16.096 26.9103 15.2071 26.9103C14.3183 26.9103 13.5911 26.1825 13.5911 25.293C13.5911 24.4035 14.3183 23.6757 15.2071 23.6757Z" fill="#F58A23"/>
<path fill-rule="evenodd" clip-rule="evenodd" d="M36.2641 0.305664C35.1974 0.305664 34.3409 1.16283 34.3409 2.23025C34.3409 3.29767 35.1974 4.15483 36.2641 4.15483C37.3306 4.15483 38.1871 3.29767 38.1871 2.23025C38.2033 1.16283 37.3306 0.305664 36.2641 0.305664Z" fill="#1B70BB"/>
<path fill-rule="evenodd" clip-rule="evenodd" d="M22.9484 27.2011C23.9988 27.2011 24.8391 26.3439 24.8391 25.3088C24.8391 24.2576 23.9827 23.4166 22.9484 23.4166C21.8979 23.4166 21.0576 24.2738 21.0576 25.3088C21.0414 26.3601 21.8979 27.2011 22.9484 27.2011Z" fill="#CADE4E"/>
<path fill-rule="evenodd" clip-rule="evenodd" d="M13.4293 15.2169C12.5566 15.2169 11.8456 15.9285 11.8456 16.8018C11.8456 17.6751 12.5566 18.3868 13.4293 18.3868C14.302 18.3868 15.013 17.6751 15.013 16.8018C15.013 15.9285 14.302 15.2169 13.4293 15.2169Z" fill="#F26D2F"/>
<path fill-rule="evenodd" clip-rule="evenodd" d="M17.2116 19.8748C16.5814 19.8748 16.0642 20.3923 16.0642 21.0231C16.0642 21.6538 16.5814 22.1714 17.2116 22.1714C17.8419 22.1714 18.3591 21.6538 18.3591 21.0231C18.3591 20.3923 17.8419 19.8748 17.2116 19.8748Z" fill="#E7B62D"/>
<path fill-rule="evenodd" clip-rule="evenodd" d="M15.7894 10.3818C16.6459 10.3818 17.3408 11.0772 17.3408 11.9344C17.3408 12.7916 16.6459 13.487 15.7894 13.487C14.9329 13.487 14.2379 12.7916 14.2379 11.9344C14.2379 11.0934 14.9329 10.3818 15.7894 10.3818Z" fill="#E9614A"/>
<path fill-rule="evenodd" clip-rule="evenodd" d="M11.8299 8.73193C11.1996 8.73193 10.6825 9.24945 10.6825 9.88024C10.6825 10.5109 11.1996 11.0285 11.8299 11.0285C12.4602 11.0285 12.9773 10.5109 12.9773 9.88024C12.9934 9.24945 12.4763 8.73193 11.8299 8.73193Z" fill="#E05644"/>
<path fill-rule="evenodd" clip-rule="evenodd" d="M19.0691 18.6302C19.9418 18.6302 20.6366 17.9186 20.6366 17.0614C20.6366 16.1881 19.9256 15.4927 19.0691 15.4927C18.1964 15.4927 17.5015 16.2042 17.5015 17.0614C17.5015 17.9186 18.2126 18.6302 19.0691 18.6302Z" fill="#E7B62D"/>
<path fill-rule="evenodd" clip-rule="evenodd" d="M24.7902 16.7217C24.16 16.7217 23.6428 17.2392 23.6428 17.8699C23.6428 18.5007 24.16 19.0182 24.7902 19.0182C25.4205 19.0182 25.9377 18.5007 25.9377 17.8699C25.9377 17.2392 25.4205 16.7217 24.7902 16.7217Z" fill="#B1DB5F"/>
<path fill-rule="evenodd" clip-rule="evenodd" d="M28.3129 0.499634C27.3917 0.499634 26.6483 1.24359 26.6483 2.16545C26.6483 3.08731 27.3917 3.83127 28.3129 3.83127C29.2341 3.83127 29.9774 3.08731 29.9774 2.16545C29.9613 1.24359 29.2179 0.499634 28.3129 0.499634Z" fill="#0990CB"/>
<path fill-rule="evenodd" clip-rule="evenodd" d="M22.2206 10.9314C21.558 10.9314 21.0247 11.4651 21.0247 12.1282C21.0247 12.7913 21.558 13.325 22.2206 13.325C22.8832 13.325 23.4164 12.7913 23.4164 12.1282C23.4003 11.4651 22.867 10.9314 22.2206 10.9314Z" fill="#B1DB5F"/>
<path fill-rule="evenodd" clip-rule="evenodd" d="M20.2653 18.9363C19.7805 18.9363 19.4088 19.3244 19.4088 19.7934C19.4088 20.2786 19.7967 20.6506 20.2653 20.6506C20.7501 20.6506 21.1218 20.2625 21.1218 19.7934C21.1218 19.3244 20.734 18.9363 20.2653 18.9363Z" fill="#FFD602"/>
<path fill-rule="evenodd" clip-rule="evenodd" d="M12.0553 18.7592C11.4251 18.7592 10.908 19.2767 10.908 19.9074C10.908 20.5382 11.4251 21.0557 12.0553 21.0557C12.6856 21.0557 13.2028 20.5382 13.2028 19.9074C13.2189 19.2767 12.7018 18.7592 12.0553 18.7592Z" fill="#EF7B2E"/>
<path fill-rule="evenodd" clip-rule="evenodd" d="M31.8523 8.78076C31.222 8.78076 30.7048 9.29828 30.7048 9.92907C30.7048 10.5598 31.222 11.0774 31.8523 11.0774C32.4825 11.0774 32.9997 10.5598 32.9997 9.92907C32.9997 9.29828 32.4825 8.78076 31.8523 8.78076Z" fill="#5FC498"/>
<path fill-rule="evenodd" clip-rule="evenodd" d="M26.4711 9.44348C27.3275 9.44348 28.0224 10.1389 28.0224 10.9961C28.0224 11.8533 27.3275 12.5487 26.4711 12.5487C25.6146 12.5487 24.9197 11.8533 24.9197 10.9961C24.9197 10.1551 25.6146 9.44348 26.4711 9.44348Z" fill="#4FB563"/>
<path fill-rule="evenodd" clip-rule="evenodd" d="M28.3778 14.6511C29.3635 14.6511 30.1554 15.4435 30.1554 16.4301C30.1554 17.4167 29.3635 18.2091 28.3778 18.2091C27.392 18.2091 26.6001 17.4167 26.6001 16.4301C26.6001 15.4435 27.392 14.6511 28.3778 14.6511Z" fill="#82CD80"/>
<path fill-rule="evenodd" clip-rule="evenodd" d="M25.2263 5.59399C24.483 5.59399 23.885 6.19239 23.885 6.93635C23.885 7.68031 24.483 8.27871 25.2263 8.27871C25.9697 8.27871 26.5677 7.68031 26.5677 6.93635C26.5838 6.20857 25.9697 5.59399 25.2263 5.59399Z" fill="#5FC498"/>
<path fill-rule="evenodd" clip-rule="evenodd" d="M30.7696 5.59399C30.0424 5.59399 29.4445 6.17622 29.4445 6.92018C29.4445 7.64797 30.0262 8.24637 30.7696 8.24637C31.4968 8.24637 32.0948 7.66414 32.0948 6.92018C32.0786 6.19239 31.4968 5.59399 30.7696 5.59399Z" fill="#1AB3C6"/>
</svg>