<?xml version="1.0" encoding="utf-8"?>
<svg xmlns="http://www.w3.org/2000/svg" xmlns:xlink="http://www.w3.org/1999/xlink" version="1.1" id="layer" x="0px" y="0px" viewBox="0 0 652 652" style="enable-background:new 0 0 652 652;">
<style type="text/css">
	.st0{fill:#005BAC;}
</style>
<path class="st0" d="M429.3,330.6c27,40.9,64.2,89.1,105.1,141.2h-93c-31.1-49.1-73.1-107.2-107.1-149.4&#xD;&#xA;	c45.5-10.1,82.5-29.2,82.5-65.9c0-26.5-19.1-47.3-64.7-47.3c-18.1,0-33.2,1.2-45.5,1.2c-1.2,36.3-1.7,73.9-1.7,111.4&#xD;&#xA;	c0,51.2,2.8,102.3,4.8,150h-67.1C192.3,401.4,138,334,79.9,269.9c-0.9,52.4,0.5,130.1,6.3,201.7H22c2.1-47.6,4.9-98.7,4.9-150&#xD;&#xA;	S24.1,219.5,22,171.8h77.5c46.3,65.1,96.2,127.6,149.4,187.2c0-51.7-1.1-122-6.4-187.2c36.8,0.8,91.1-2.4,135.4-2.4&#xD;&#xA;	s80.8,3.5,104.7,27.3c12.8,13.2,19.6,31.1,18.8,49.5C501.4,281.3,474.6,314,429.3,330.6z M622,171.8c-2.1,47.6-4.9,98.8-4.9,150&#xD;&#xA;	s2.8,102.3,4.9,150h-80.8c2-47.6,4.9-98.7,4.9-150s-2.9-102.3-4.9-150H622z"/>
</svg>