<?xml version="1.0" encoding="utf-8"?>
<svg xmlns="http://www.w3.org/2000/svg" width="83" height="60" viewBox="0 0 83 60" fill="none">
<path fill-rule="evenodd" clip-rule="evenodd" d="M80.6116 23.6807H80.8555C81.0538 23.6807 81.0911 23.5398 81.0911 23.4593C81.0911 23.2465 80.9446 23.2465 80.8628 23.2465H80.6116V23.6807ZM80.3177 22.9952H80.8555C81.0401 22.9952 81.4006 22.9952 81.4006 23.4086C81.4006 23.6953 81.2157 23.7546 81.1062 23.7908C81.319 23.8053 81.3345 23.9459 81.3636 24.1455C81.3793 24.2708 81.4006 24.4839 81.4452 24.5581H81.1128C81.1063 24.4839 81.0538 24.0859 81.0538 24.0644C81.0325 23.9757 81.0034 23.9304 80.8922 23.9304H80.6194V24.5581H80.3177V22.9952ZM79.6721 23.7731C79.6721 24.4208 80.1961 24.9441 80.8367 24.9441C81.4852 24.9441 82.0077 24.4109 82.0077 23.7731C82.0077 23.1244 81.4778 22.6082 80.8367 22.6082C80.2035 22.6082 79.6721 23.1168 79.6721 23.7731ZM82.2329 23.7777C82.2329 24.5424 81.607 25.1698 80.8398 25.1698C80.0817 25.1698 79.4471 24.5502 79.4471 23.7777C79.4471 22.9884 80.0956 22.3845 80.8398 22.3845C81.5931 22.3845 82.2329 22.9884 82.2329 23.7777Z" fill="#1A1919"/>
<path fill-rule="evenodd" clip-rule="evenodd" d="M0.821034 0.809326H14.832L14.9645 5.0189H14.3713C14.0815 3.69693 13.7127 2.83622 13.2649 2.43601C12.8173 2.03757 11.875 1.83671 10.4398 1.83671H9.06009V14.5163C9.06009 15.471 9.21004 16.0627 9.50767 16.2915C9.8058 16.5204 10.4598 16.6709 11.4682 16.7423V17.2028H4.24488V16.7423C5.29328 16.662 5.94679 16.4906 6.20566 16.2251C6.46377 15.9604 6.5922 15.2942 6.5922 14.2261V1.83671H5.20159C3.82947 1.83671 2.89657 2.03428 2.39959 2.42993C1.90414 2.82559 1.53052 3.68908 1.28179 5.0189H0.676147L0.821034 0.809326Z" fill="#1A1919"/>
<path fill-rule="evenodd" clip-rule="evenodd" d="M16.6925 16.7423C17.6041 16.6468 18.1951 16.4845 18.4653 16.2563C18.7351 16.0273 18.8706 15.447 18.8706 14.5163V3.49505C18.8706 2.61509 18.7374 2.04163 18.4714 1.77034C18.205 1.50083 17.6125 1.33315 16.6925 1.2683V0.809326H29.8554L29.9393 4.35323H29.3106C29.1011 3.26126 28.7868 2.55532 28.3668 2.23388C27.9486 1.91422 27.0117 1.75362 25.5602 1.75362H22.1873C21.8236 1.75362 21.5994 1.81214 21.5141 1.92789C21.43 2.04542 21.3869 2.26453 21.3869 2.58748V8.11649H25.2089C26.2659 8.11649 26.9395 7.96046 27.2305 7.64688C27.5203 7.33481 27.7543 6.70005 27.9316 5.74486H28.5127V11.4687H27.9316C27.746 10.5079 27.5079 9.87287 27.2183 9.56258C26.9286 9.25203 26.2576 9.09777 25.2089 9.09777H21.3869V15.2312C21.3869 15.7228 21.5424 16.0136 21.8537 16.1015C22.1643 16.1909 23.0949 16.2345 24.6451 16.2345C26.326 16.2345 27.5649 16.0518 28.3655 15.6846C29.1652 15.3175 29.8841 14.4287 30.5219 13.0166H31.2106L30.0859 17.2028H16.6925V16.7423Z" fill="#1A1919"/>
<path fill-rule="evenodd" clip-rule="evenodd" d="M31.4819 16.7423C32.1443 16.6717 32.6484 16.4954 32.9918 16.2175C33.3356 15.9396 34.0197 15.165 35.0443 13.897L38.8702 9.1654L36.1553 5.1876C34.9734 3.45427 34.1428 2.37598 33.6621 1.95272C33.1831 1.5292 32.5435 1.30149 31.7454 1.2683V0.809326H39.2V1.2683C38.4818 1.29313 38.0135 1.341 37.7962 1.41344C37.4681 1.51856 37.304 1.74729 37.304 2.1009C37.304 2.32608 37.3833 2.5961 37.5444 2.90867C37.6237 3.07053 37.7361 3.25493 37.881 3.46365L40.4371 7.16814L43.2178 3.78458C43.6256 3.29368 43.9019 2.89778 44.0461 2.5999C44.1345 2.42208 44.1785 2.26098 44.1785 2.11635C44.1785 1.75362 44.003 1.51096 43.6502 1.39014C43.4346 1.31694 43.0397 1.27793 42.4683 1.2683V0.809326H48.3372V1.2683C47.6743 1.28553 47.1627 1.39014 46.8007 1.58366C46.2277 1.89876 45.5172 2.57685 44.6704 3.6179L41.0891 8.11016L45.7839 14.9074C46.2847 15.6405 46.7022 16.1048 47.0365 16.3021C47.3711 16.4997 47.8592 16.6468 48.5034 16.7423V17.2028H41.2203V16.7423C41.9211 16.7271 42.408 16.6651 42.6841 16.5605C42.9597 16.4536 43.0972 16.2507 43.0972 15.9503C43.0972 15.6906 42.9136 15.2588 42.547 14.6569C42.1785 14.0561 41.1628 12.5345 39.5004 10.0948L36.5927 13.7463C36.1692 14.2841 35.8734 14.6769 35.7054 14.9259C35.441 15.319 35.3093 15.6121 35.3093 15.8041C35.3093 16.157 35.5165 16.4057 35.9334 16.5511C36.1814 16.639 36.6021 16.7023 37.1969 16.7423V17.2028H31.4819V16.7423Z" fill="#1A1919"/>
<path fill-rule="evenodd" clip-rule="evenodd" d="M59.0181 10.8387L56.1784 4.01532L53.3263 10.8387H59.0181ZM48.3474 17.2031V16.7426C48.9842 16.6711 49.4617 16.4323 49.7806 16.0237C50.0997 15.6169 50.6451 14.5014 51.4187 12.6786L56.5806 0.519287H57.0733L63.2475 14.566C63.6591 15.4963 63.9871 16.0718 64.2341 16.2925C64.479 16.5128 64.8934 16.6623 65.4742 16.7426V17.2031H59.1721V16.7426C59.8963 16.6795 60.3634 16.6005 60.5726 16.5083C60.7824 16.4153 60.8872 16.1896 60.8872 15.8282C60.8872 15.7078 60.8472 15.4948 60.7669 15.1906C60.6869 14.8846 60.5726 14.5637 60.4283 14.2263L59.4358 11.8425H52.9053C52.2627 13.4646 51.8779 14.4533 51.7533 14.8104C51.6279 15.1686 51.5666 15.4513 51.5666 15.66C51.5666 16.0772 51.7343 16.3657 52.0732 16.5268C52.2829 16.6223 52.6773 16.695 53.2566 16.7426V17.2031H48.3474Z" fill="#1A1919"/>
<path fill-rule="evenodd" clip-rule="evenodd" d="M67.2001 12.2179C67.6191 13.3316 68.111 14.2184 68.6733 14.8796C69.6564 16.0333 70.877 16.6096 72.3342 16.6096C73.1235 16.6096 73.8056 16.3593 74.3819 15.8596C74.9584 15.3598 75.2449 14.6617 75.2449 13.7671C75.2449 12.9601 74.9569 12.2579 74.3776 11.6619C73.9987 11.2822 73.2015 10.7135 71.9859 9.95542L69.8722 8.637C69.2359 8.234 68.7288 7.82594 68.3483 7.41534C67.6469 6.63239 67.2971 5.77017 67.2971 4.82612C67.2971 3.57533 67.7115 2.53528 68.5439 1.70446C69.3744 0.874404 70.4748 0.45874 71.8461 0.45874C72.41 0.45874 73.0893 0.597801 73.8844 0.875924C74.6793 1.1543 75.1324 1.29311 75.2449 1.29311C75.5531 1.29311 75.7641 1.22041 75.8814 1.07502C75.9982 0.929876 76.0879 0.724451 76.1542 0.45874H76.6613L77.2064 5.73293H76.6132C76.2094 4.14475 75.5625 3.0353 74.6719 2.4061C73.7796 1.7764 72.8983 1.46206 72.0277 1.46206C71.3499 1.46206 70.7597 1.66216 70.2554 2.06162C69.7503 2.46081 69.4991 3.01529 69.4991 3.72452C69.4991 4.36233 69.6916 4.90642 70.0783 5.35754C70.4639 5.81804 71.065 6.29829 71.8783 6.7978L74.0541 8.1413C75.4174 8.98022 76.3776 9.74949 76.9367 10.4521C77.4868 11.1611 77.7629 11.9998 77.7629 12.9679C77.7629 14.2661 77.2728 15.3522 76.2925 16.2238C75.3125 17.0939 74.06 17.5288 72.5346 17.5288C71.7689 17.5288 70.9689 17.3837 70.1338 17.0939C69.2987 16.8039 68.8212 16.6575 68.7012 16.6575C68.4096 16.6575 68.2143 16.7471 68.1138 16.9247C68.0124 17.1012 67.9461 17.2912 67.9134 17.4933H67.3698L66.6317 12.2179H67.2001Z" fill="#1A1919"/>
<path fill-rule="evenodd" clip-rule="evenodd" d="M2.96747 41.9656C3.37731 43.0535 3.85731 43.9208 4.40798 44.5665C5.36875 45.6942 6.56052 46.2583 7.98532 46.2583C8.75637 46.2583 9.42356 46.0133 9.98588 45.5234C10.5485 45.0366 10.8304 44.3545 10.8304 43.4786C10.8304 42.6913 10.5469 42.0049 9.98132 41.4208C9.6115 41.0517 8.83185 40.4955 7.64388 39.7543L5.57898 38.466C4.95663 38.0719 4.46194 37.6742 4.09136 37.272C3.40492 36.507 3.06297 35.6633 3.06297 34.741C3.06297 33.5193 3.46799 32.5026 4.28032 31.6898C5.09138 30.879 6.1679 30.4724 7.50836 30.4724C8.05979 30.4724 8.72394 30.6087 9.50056 30.8805C10.2772 31.1525 10.7202 31.288 10.8304 31.288C11.1293 31.288 11.3365 31.2171 11.4515 31.075C11.5662 30.9337 11.6539 30.7323 11.7179 30.4724H12.2141L12.7463 35.6278H12.167C11.7719 34.0751 11.1402 32.9907 10.2696 32.3767C9.39746 31.7612 8.536 31.4537 7.68542 31.4537C7.02304 31.4537 6.44501 31.6497 5.95361 32.0391C5.46044 32.4299 5.21398 32.9722 5.21398 33.6647C5.21398 34.2889 5.40345 34.8198 5.78086 35.2613C6.15853 35.7094 6.74416 36.1795 7.54078 36.6681L9.66698 37.9807C10.9983 38.8006 11.9368 39.5532 12.4829 40.2389C13.0214 40.9329 13.2897 41.7528 13.2897 42.6989C13.2897 43.9669 12.8112 45.0285 11.8535 45.8793C10.8952 46.7296 9.67179 47.1567 8.18315 47.1567C7.43364 47.1567 6.65145 47.0149 5.83482 46.7296C5.0197 46.4459 4.55287 46.3046 4.43433 46.3046C4.14987 46.3046 3.95812 46.3923 3.86035 46.565C3.76106 46.7375 3.69621 46.9239 3.66531 47.1195H3.13237L2.41199 41.9656H2.96747Z" fill="#1A1919"/>
<path fill-rule="evenodd" clip-rule="evenodd" d="M16.6071 30.8157H30.2984L30.4278 34.93H29.8485C29.5648 33.6382 29.2044 32.7962 28.7667 32.4061C28.329 32.0158 27.4085 31.82 26.0055 31.82H24.6571V44.2124C24.6571 45.1461 24.8028 45.7241 25.0949 45.947C25.3869 46.1691 26.0255 46.3186 27.01 46.388V46.8378H19.9524V46.388C20.977 46.3095 21.6148 46.14 21.8691 45.8811C22.1193 45.6238 22.2457 44.9705 22.2457 43.929V31.82H20.8868C19.5471 31.82 18.6347 32.0138 18.1494 32.3998C17.6656 32.7863 17.2996 33.6303 17.0554 34.93H16.4652L16.6071 30.8157Z" fill="#1A1919"/>
<path fill-rule="evenodd" clip-rule="evenodd" d="M41.3463 40.6173L38.5714 33.9492L35.7839 40.6173H41.3463ZM30.9177 46.8379V46.388C31.5403 46.3186 32.0087 46.083 32.32 45.6853C32.6313 45.2864 33.1642 44.197 33.9208 42.4158L38.964 30.5317H39.4478L45.4801 44.2608C45.8824 45.1691 46.2043 45.7317 46.4434 45.947C46.6838 46.1613 47.0888 46.3095 47.656 46.388V46.8379H41.498V46.388C42.206 46.3249 42.6622 46.2494 42.8674 46.157C43.0723 46.0676 43.1736 45.8472 43.1736 45.4926C43.1736 45.3758 43.1351 45.1691 43.0556 44.869C42.9773 44.5713 42.8674 44.2578 42.7255 43.929L41.7554 41.5989H35.3738C34.7453 43.1838 34.3694 44.1509 34.2476 44.5004C34.1242 44.8472 34.0642 45.1245 34.0642 45.3295C34.0642 45.7378 34.2291 46.0184 34.5604 46.1755C34.7653 46.271 35.1506 46.3419 35.716 46.388V46.8379H30.9177Z" fill="#1A1919"/>
<path fill-rule="evenodd" clip-rule="evenodd" d="M48.1581 30.8157H61.8517L61.9812 34.93H61.4019C61.1169 33.6382 60.7562 32.7962 60.3185 32.4061C59.8811 32.0158 58.9616 31.82 57.5588 31.82H56.2108V44.2124C56.2108 45.1461 56.3572 45.7241 56.6487 45.947C56.9395 46.1691 57.5778 46.3186 58.5637 46.388V46.8378H51.505V46.388C52.5296 46.3095 53.1679 46.14 53.4207 45.8811C53.673 45.6238 53.7981 44.9705 53.7981 43.929V31.82H52.4391C51.0984 31.82 50.1861 32.0138 49.7007 32.3998C49.2169 32.7863 48.8517 33.6303 48.6085 34.93H48.0181L48.1581 30.8157Z" fill="#1A1919"/>
<path fill-rule="evenodd" clip-rule="evenodd" d="M63.5713 46.388C64.4621 46.2943 65.0402 46.1339 65.3033 45.912C65.5685 45.6884 65.6995 45.1215 65.6995 44.2124V33.4404C65.6995 32.5817 65.5698 32.0204 65.3097 31.7552C65.0505 31.4917 64.4697 31.3286 63.5713 31.2653V30.8157H76.4361L76.5192 34.2816H75.9042C75.6995 33.2137 75.3912 32.5229 74.9832 32.2093C74.5716 31.896 73.6576 31.7384 72.2389 31.7384H68.943C68.5869 31.7384 68.3665 31.7952 68.2834 31.9097C68.2018 32.0242 68.1603 32.2387 68.1603 32.5536V37.9579H71.8949C72.9289 37.9579 73.587 37.8047 73.8704 37.4987C74.1539 37.193 74.3833 36.5737 74.5561 35.6405H75.1245V41.2323H74.5561C74.376 40.2954 74.143 39.6746 73.8595 39.3696C73.5746 39.0674 72.9216 38.9157 71.8949 38.9157H68.1603V44.9087C68.1603 45.391 68.3113 45.6744 68.6145 45.7608C68.9197 45.8487 69.829 45.892 71.3448 45.892C72.9879 45.892 74.1989 45.7132 74.9801 45.3525C75.7628 44.9936 76.4652 44.126 77.0876 42.7471H77.7613L76.6613 46.8378H63.5713V46.388Z" fill="#1A1919"/>
<path fill-rule="evenodd" clip-rule="evenodd" d="M9.06321 52.1877V52.3911C8.64096 52.4188 8.36739 52.4894 8.24176 52.6039C8.11713 52.7164 8.05381 52.9737 8.05381 53.3788V56.8948C8.05381 57.4728 8.13259 57.9214 8.28963 58.2434C8.5832 58.8305 9.14021 59.1248 9.95988 59.1248C10.8583 59.1248 11.4622 58.8227 11.7705 58.2216C11.9414 57.8842 12.0276 57.3664 12.0276 56.664V53.804C12.0276 53.2047 11.9554 52.8304 11.812 52.6779C11.6679 52.5251 11.3976 52.4296 10.9961 52.3911V52.1877H13.5408V52.3911C13.1142 52.4372 12.8366 52.5408 12.7056 52.7007C12.5747 52.8595 12.5101 53.228 12.5101 53.804V56.664C12.5101 57.4237 12.3946 58.0169 12.1611 58.4407C11.732 59.2264 10.9153 59.6162 9.7119 59.6162C8.52368 59.6162 7.71642 59.231 7.28657 58.4577C7.05379 58.043 6.93676 57.4959 6.93676 56.815V53.3788C6.93676 52.9783 6.87597 52.7209 6.75185 52.6085C6.6285 52.4945 6.35899 52.422 5.94434 52.3911V52.1877H9.06321Z" fill="#1A1919"/>
<path fill-rule="evenodd" clip-rule="evenodd" d="M14.3397 59.2588C14.7936 59.2125 15.0849 59.1091 15.2144 58.9491C15.3438 58.7902 15.4084 58.4207 15.4084 57.8411V52.9965L15.2567 52.8195C15.0956 52.6315 14.9593 52.5127 14.8468 52.4684C14.7336 52.4236 14.5649 52.3972 14.3397 52.3911V52.1877H16.2159L20.4594 57.4483V53.7949C20.4594 53.1941 20.37 52.801 20.1914 52.6204C20.0742 52.5021 19.8122 52.4266 19.407 52.3911V52.1877H21.9911V52.3911C21.5719 52.4329 21.293 52.5345 21.1527 52.6979C21.0141 52.858 20.9432 53.228 20.9432 53.804V59.5902H20.7553L15.8907 53.5606V57.8411C15.8907 58.4419 15.9786 58.8333 16.1536 59.0169C16.2683 59.1355 16.5239 59.2155 16.9224 59.2588V59.4622H14.3397V59.2588Z" fill="#1A1919"/>
<path fill-rule="evenodd" clip-rule="evenodd" d="M22.804 59.2588C23.2523 59.2264 23.5418 59.1601 23.6745 59.057C23.8068 58.9569 23.8731 58.6935 23.8731 58.2697V53.3788C23.8731 52.9737 23.8068 52.7146 23.6745 52.5976C23.5418 52.4806 23.2523 52.4112 22.804 52.3911V52.1877H26.0581V52.3911C25.6105 52.4112 25.32 52.4806 25.1875 52.5976C25.0558 52.7146 24.9894 52.9737 24.9894 53.3788V58.2697C24.9894 58.6935 25.0558 58.9569 25.1875 59.057C25.32 59.1601 25.6105 59.2264 26.0581 59.2588V59.4622H22.804V59.2588Z" fill="#1A1919"/>
<path fill-rule="evenodd" clip-rule="evenodd" d="M29.8348 52.1877V52.3742C29.5589 52.3787 29.3725 52.3957 29.2725 52.4281C29.0967 52.4869 29.0103 52.6054 29.0103 52.7843C29.0103 52.8749 29.0412 53.0013 29.1028 53.166C29.1661 53.3296 29.2831 53.6006 29.4526 53.9798L31.1737 57.8074L32.7361 53.664C32.8062 53.4806 32.8579 53.3263 32.8949 53.1984C32.9304 53.0705 32.9488 52.9674 32.9488 52.8874C32.9488 52.6731 32.8564 52.5269 32.6745 52.4497C32.5674 52.4066 32.3896 52.382 32.1439 52.3742V52.1877H34.3926V52.3742C34.1599 52.4066 33.9889 52.4684 33.8764 52.5636C33.7092 52.7024 33.5421 52.9828 33.3787 53.4066L30.9425 59.5902H30.7771L28.0597 53.5467C27.8317 53.0338 27.6468 52.7164 27.511 52.59C27.3725 52.4636 27.1698 52.3929 26.9056 52.3742V52.1877H29.8348Z" fill="#1A1919"/>
<path fill-rule="evenodd" clip-rule="evenodd" d="M35.2329 59.2588C35.6374 59.2155 35.8993 59.1428 36.0179 59.0415C36.139 58.9397 36.1982 58.6838 36.1982 58.2697V53.3788C36.1982 52.9874 36.139 52.7331 36.0212 52.6148C35.9024 52.4927 35.6405 52.4188 35.2329 52.3911V52.1877H41.0735L41.1122 53.761H40.8321C40.7391 53.2757 40.5996 52.9613 40.4141 52.8195C40.2277 52.6779 39.8115 52.6054 39.1674 52.6054H37.6696C37.5096 52.6054 37.4095 52.6315 37.3725 52.6837C37.334 52.7364 37.3148 52.8334 37.3148 52.975V55.4297H39.0126C39.4802 55.4297 39.7809 55.3603 39.9086 55.2218C40.0382 55.0832 40.1411 54.8008 40.2196 54.3788H40.477V56.9166H40.2196C40.1365 56.4913 40.0317 56.2094 39.903 56.0706C39.7746 55.9335 39.4772 55.8644 39.0126 55.8644H37.3148V58.5871C37.3148 58.8057 37.3847 58.9336 37.5227 58.9736C37.6605 59.0119 38.0737 59.0321 38.7621 59.0321C39.5068 59.0321 40.058 58.9506 40.4126 58.7872C40.7667 58.6253 41.0874 58.2309 41.3693 57.604H41.6761L41.1761 59.4622H35.2329V59.2588Z" fill="#1A1919"/>
<path fill-rule="evenodd" clip-rule="evenodd" d="M46.192 55.4452C46.7758 55.2063 47.0658 54.7565 47.0658 54.0953C47.0658 53.4591 46.8054 53.0262 46.2831 52.7934C46.004 52.6688 45.6324 52.6054 45.1709 52.6054C44.8598 52.6054 44.6684 52.6285 44.599 52.6731C44.5298 52.7179 44.4951 52.8228 44.4951 52.9859V55.6931C45.2862 55.664 45.8503 55.5822 46.192 55.4452ZM42.4327 59.2588C42.8552 59.2188 43.1184 59.1373 43.2223 59.0119C43.3266 58.8872 43.3791 58.5977 43.3791 58.1413V53.3788C43.3791 52.992 43.3203 52.7394 43.2035 52.6191C43.0863 52.499 42.8304 52.422 42.4327 52.3911V52.1877H45.4771C46.1104 52.1877 46.6388 52.2665 47.0613 52.4281C47.8622 52.7318 48.2644 53.2924 48.2644 54.106C48.2644 54.6531 48.0859 55.0738 47.7297 55.3651C47.3738 55.6592 46.89 55.852 46.2781 55.9444L48.5436 58.7365C48.6821 58.906 48.8225 59.0309 48.961 59.1091C49.1011 59.1879 49.2802 59.2371 49.4988 59.2588V59.4622H47.7282L44.9776 56.0739L44.4951 56.0999V58.2679C44.4951 58.6747 44.5559 58.9321 44.6803 59.04C44.8024 59.1509 45.0729 59.2231 45.488 59.2588V59.4622H42.4327V59.2588Z" fill="#1A1919"/>
<path fill-rule="evenodd" clip-rule="evenodd" d="M50.2217 57.2492C50.4061 57.7439 50.6239 58.1383 50.8747 58.4296C51.3109 58.9427 51.8516 59.1986 52.4988 59.1986C52.8501 59.1986 53.1523 59.0874 53.4082 58.8655C53.6637 58.6433 53.7914 58.3341 53.7914 57.9379C53.7914 57.579 53.6637 57.2662 53.4061 57.0027C53.2369 56.8348 52.8841 56.5822 52.3448 56.2464L51.4063 55.6607C51.1244 55.4804 50.8992 55.3 50.7316 55.1182C50.42 54.7699 50.2632 54.3879 50.2632 53.9702C50.2632 53.414 50.4481 52.952 50.8162 52.5849C51.1857 52.2151 51.6746 52.032 52.2815 52.032C52.533 52.032 52.8347 52.0935 53.1875 52.2166C53.5386 52.3387 53.7405 52.4018 53.7914 52.4018C53.9272 52.4018 54.0211 52.3679 54.0736 52.3045C54.1245 52.2399 54.1645 52.149 54.1936 52.032H54.4188L54.6607 54.3725H54.397C54.2185 53.6668 53.932 53.1754 53.5358 52.8947C53.1399 52.6174 52.7501 52.4758 52.3633 52.4758C52.0629 52.4758 51.8007 52.5649 51.5771 52.7425C51.3524 52.9195 51.2397 53.1657 51.2397 53.4803C51.2397 53.764 51.3263 54.0057 51.4975 54.2045C51.6695 54.4097 51.9362 54.622 52.2969 54.8439L53.2618 55.4404C53.8671 55.8132 54.2937 56.1552 54.5419 56.465C54.7853 56.7808 54.9087 57.1522 54.9087 57.582C54.9087 58.1598 54.6899 58.6408 54.2555 59.0258C53.8208 59.4141 53.2645 59.6051 52.5882 59.6051C52.2475 59.6051 51.8932 59.542 51.5216 59.4141C51.152 59.2849 50.9395 59.2201 50.8856 59.2201C50.7579 59.2201 50.6698 59.2601 50.6252 59.3389C50.5803 59.4172 50.551 59.5005 50.5373 59.5899H50.2954L49.9689 57.2492H50.2217Z" fill="#1A1919"/>
<path fill-rule="evenodd" clip-rule="evenodd" d="M55.6838 59.2588C56.1307 59.2264 56.4204 59.1601 56.5527 59.057C56.6851 58.9569 56.7515 58.6935 56.7515 58.2697V53.3788C56.7515 52.9737 56.6851 52.7146 56.5527 52.5976C56.4204 52.4806 56.1307 52.4112 55.6838 52.3911V52.1877H58.9367V52.3911C58.4879 52.4112 58.1986 52.4806 58.0659 52.5976C57.9334 52.7146 57.8685 52.9737 57.8685 53.3788V58.2697C57.8685 58.6935 57.9334 58.9569 58.0659 59.057C58.1986 59.1601 58.4879 59.2264 58.9367 59.2588V59.4622H55.6838V59.2588Z" fill="#1A1919"/>
<path fill-rule="evenodd" clip-rule="evenodd" d="M59.8068 52.1877H66.0261L66.0846 54.0553H65.8214C65.6933 53.4684 65.5284 53.0844 65.3295 52.9089C65.1322 52.7318 64.7132 52.6437 64.077 52.6437H63.465V58.2697C63.465 58.6935 63.5298 58.9569 63.6623 59.057C63.795 59.1601 64.0848 59.2264 64.5331 59.2588V59.4622H61.3281V59.2588C61.7932 59.2231 62.0832 59.1464 62.197 59.0276C62.3112 58.9106 62.3697 58.6162 62.3697 58.1413V52.6437H61.7517C61.1432 52.6437 60.7286 52.7318 60.5085 52.9058C60.2894 53.0814 60.123 53.4651 60.0123 54.0553H59.744L59.8068 52.1877Z" fill="#1A1919"/>
<path fill-rule="evenodd" clip-rule="evenodd" d="M69.8364 52.1877V52.3911C69.5793 52.3835 69.3868 52.4036 69.2571 52.4497C69.1279 52.496 69.0646 52.5976 69.0646 52.7503C69.0646 52.7964 69.0755 52.8549 69.0952 52.9243C69.1186 52.9953 69.1647 53.0862 69.2404 53.2017L70.8595 55.5761L72.4378 53.1647C72.5021 53.0599 72.5442 52.9737 72.5639 52.9058C72.5857 52.8377 72.5946 52.7886 72.5946 52.7564C72.5946 52.5991 72.51 52.4945 72.3423 52.4436C72.2417 52.4112 72.0705 52.3944 71.8258 52.3911V52.1877H74.2281V52.3911C74.006 52.402 73.8091 52.4669 73.6349 52.59C73.3618 52.7795 73.0571 53.1308 72.7177 53.647L71.0925 56.1278V58.2664C71.0925 58.6917 71.1619 58.9569 71.3002 59.0615C71.4372 59.1679 71.747 59.234 72.2265 59.2588V59.4622H68.8703V59.2588C69.3681 59.2295 69.6776 59.1555 69.7964 59.0352C69.9167 58.9154 69.977 58.6162 69.977 58.1385V56.2309L68.5377 54.1184C68.04 53.3927 67.6917 52.9274 67.4898 52.7209C67.291 52.5145 67.0463 52.4051 66.7614 52.3911V52.1877H69.8364Z" fill="#1A1919"/>
<path fill-rule="evenodd" clip-rule="evenodd" d="M0.679199 23.3677V24.1876H33.6547L32.6572 23.3677H0.679199Z" fill="#1A1919"/>
<path fill-rule="evenodd" clip-rule="evenodd" d="M45.7776 23.3677L44.7877 24.1876H77.7629V23.3677H45.7776Z" fill="#1A1919"/>
<path fill-rule="evenodd" clip-rule="evenodd" d="M48.8313 20.9573H41.4897L39.2198 13.9753L36.9518 20.9573H29.6112L35.5495 25.2745L35.5442 25.2915L33.28 32.2569L33.3046 32.24L39.2198 27.9407L45.1367 32.24L45.1615 32.2569L42.8972 25.2915L42.8917 25.2745L48.7928 20.9862L48.8313 20.9573Z" fill="#A18A53"/>
<path fill-rule="evenodd" clip-rule="evenodd" d="M42.5808 25.261L39.22 24.1875L44.653 31.6487L39.22 27.7018V24.1875L33.7855 31.6517L35.8595 25.2648L39.22 24.1875L30.4257 21.3128H37.1429L39.22 24.1875V14.9224L41.2968 21.3128L39.22 24.1875L48.0087 21.3128L42.5808 25.261ZM41.7094 20.7612H41.697L39.22 13.1396L36.744 20.7612H28.7299L35.213 25.4713L32.736 33.0933L39.22 28.3829L45.6791 33.0743V33.075L45.7055 33.0933L43.2348 25.4908L43.2287 25.4713L49.6686 20.791H49.6701L49.7116 20.7612H41.7094Z" fill="#431D1E"/>
</svg>