<?xml version="1.0" encoding="utf-8"?>
<svg xmlns="http://www.w3.org/2000/svg" width="278" height="97">
  <path d="M66.1 4.6c.4-2.1 1-3 3.4-3l.1-.6h-7.4l-.1.6c1.2 0 2.4.2 2.4 1.7 0 .4-.1.9-.2 1.3l-2.2 11.2c-.5 2.5-1.3 5.5-6 5.5-2.3 0-4.1-1.4-4.1-3.6 0-1 .1-2 .4-3l2-10c.4-2.1 1-3 3.4-3l.2-.8h-8.5l-.2.6c1.3 0 2.5.2 2.5 1.7 0 .4-.1.9-.2 1.3l-2 10c-.2 1-.4 2.1-.4 3.1 0 3.3 3 4.7 6.3 4.7 7.1 0 7.7-3.7 8.4-6.7l2.2-11zm4.2 17.5h2.5c.6-3.6 4.6-13 7.1-13 .4 0 .7.4.7.9s-.1.9-.2 1.3L78.6 19c-.2.7-.3 1.3-.3 2-.1.7.5 1.4 1.2 1.5h.1c1.6 0 3.9-2.8 4.9-3.8l-.5-.4c-.8.8-2.1 2.2-2.8 2.2-.2 0-.3-.3-.3-.5 0-.3.1-.7.2-1l1.8-8c.1-.6.2-1.2.2-1.8 0-1.3-.7-2.1-1.8-2.1-3.2 0-6.1 5.7-7.2 8.6H74l1-5.1c.2-.7.3-1.3.3-2 .1-.7-.4-1.4-1.1-1.5h-.1c-1.6 0-4 2.8-4.9 3.8l.4.4c.8-.8 2.2-2.2 2.8-2.2.2 0 .3.3.3.5 0 .3-.1.7-.1 1l-2.3 11.5zm24.1-3.8c-.8.8-2.2 2.2-2.8 2.2-.2 0-.3-.3-.3-.5 0-.3.1-.7.1-1l1.7-8.4.3-1.8c0-.9-.4-1.7-1.2-1.7-1.6 0-3.9 2.8-4.9 3.8l.4.4c.8-.8 2.2-2.2 2.8-2.2.2 0 .3.3.3.5 0 .3-.1.7-.1 1L89 19c-.2.7-.2 1.3-.3 2-.1.7.4 1.4 1.2 1.5h.1c1.6 0 3.9-2.8 4.9-3.8l-.5-.4zM93.1 4.2c1 0 1.8-.8 1.8-1.8S94.1.6 93.1.6c-1-.1-1.9.7-1.9 1.7s.7 1.9 1.7 1.9c0 .1.1.1.2 0m10.4 7.1c.2-.8.3-1.5.4-2.3 0-1-.5-1.8-1.4-1.8-1.5 0-3.5 2.6-4.7 3.8l.4.4c.8-.8 2.2-2.2 2.8-2.2.2 0 .3.3.3.5 0 .3 0 .7-.1 1l-1.9 9.1c-.1.5-.2 1-.2 1.5 0 .9.5 1.2 1.1 1.2 4.2 0 10.7-7.4 10.7-13.3 0-.8-.2-2-1.5-2-.8 0-1.5.6-1.5 1.5 0 1 .9 1.5.9 3.1 0 4.3-5.2 9.2-6.7 9.2-.3 0-.4-.2-.4-.5 0-.4.1-.8.2-1.2l1.6-8zm20.2 9.5c-.7.3-1.4.4-2.1.4-3.9 0-4.8-2.2-4.8-4.9 0-1.1.2-2.1.4-3.2h3.4c2.4 0 5.1-.2 5.1-3 0-2.1-1.9-3-4-3-5.8 0-7.8 5.4-7.8 9.7 0 3.7 2 5.5 5.2 5.5 1.5 0 3-.3 4.4-.7l.2-.8zm-6.2-8.6c.3-1.4 1.4-4 3.8-4 1-.1 1.9.6 2 1.6v.1c0 2-1.8 2.3-3.1 2.3h-2.7zm11.8 9.9h2.5c1.7-8.5 4.4-12.4 5.3-12.4.4 0 .7.5 1.4.5.9 0 1.5-.7 1.5-1.6 0-.8-.6-1.5-1.4-1.5h-.2c-2.4 0-4.2 4.3-4.8 5.8l-.1-.1.5-2.3c.1-.7.2-1.3.2-2 .1-.7-.4-1.4-1.2-1.5h-.1c-1.6 0-3.9 2.8-4.9 3.8l.4.4c.8-.8 2.2-2.2 2.8-2.2.2 0 .4.3.4.5 0 .3-.1.7-.1 1l-2.2 11.6zm21.9-11 .5-3.3c-1.1-.4-2.3-.6-3.5-.6-2.9 0-5.6 1.4-5.6 4.4 0 3.8 5.5 3.8 5.5 6.9-.1 1.8-1.7 3.1-3.5 3-2.5 0-2.9-1.7-2.9-3.1h-.7l-.4 3.5c1.1.4 2.3.6 3.6.6 3.7 0 6.6-1.4 6.6-4.9 0-4.1-5.5-4.1-5.5-7 0-1.3 1-2.3 2.3-2.4h.2c1.5-.1 2.7 1.1 2.8 2.6v.3h.6zm10.8 7.2c-.8.8-2.2 2.2-2.8 2.2-.2 0-.4-.3-.4-.5 0-.3.1-.7.1-1l1.7-8.4c.1-.6.2-1.2.3-1.7 0-.9-.4-1.7-1.2-1.7-1.6 0-3.9 2.8-4.9 3.8l.4.4c.8-.8 2.2-2.2 2.8-2.2.2 0 .3.3.3.5 0 .3-.1.7-.1 1l-1.8 8.4c-.2.7-.2 1.3-.3 2-.1.7.4 1.4 1.2 1.5h.1c1.6 0 3.9-2.8 4.9-3.8l-.3-.5zm-1.4-14.1c1 0 1.8-.8 1.8-1.8s-.8-1.8-1.8-1.8c-1-.1-1.9.7-1.9 1.7s.7 1.9 1.7 1.9c0 .1.1.1.2 0m11.8 14.1c-.9.9-2.3 2.2-3 2.2-.3 0-.5-.2-.5-.5s.1-.7.2-1l2.1-10.6h4.2l.2-1h-4.2l1-4.8h-.8c-.8 3.2-2.3 4.8-5.3 4.8l-.2 1h2.6L166.6 19c-.1.7-.2 1.3-.2 2-.1.8.5 1.4 1.3 1.5h.1c1.7 0 4.1-2.7 5.1-3.8l-.5-.4zm9.4-8.7c-.2-1.3-.6-2.4-1.7-2.4s-4 2.7-4.7 3.4l.4.4c.7-.6 2-1.8 2.8-1.8.5 0 .8.6 1 2l2.1 12.2c-.7.8-2.9 3.3-4.1 3.3-.7 0-1-.9-2-.9-.8 0-1.5.7-1.5 1.5s.7 1.5 1.6 1.5h.1c4.1 0 14.1-13.2 14.1-19.8 0-1.2-.6-1.9-1.6-1.9-.8 0-1.5.6-1.6 1.5 0 1 .9 1.6.9 3.1 0 3-2.9 7.6-3.9 9.2l-1.9-11.3zm26.8 12.9c4.9 0 7.5-5.5 7.5-9.8 0-3.1-1.5-5.5-4.9-5.5-5 0-7.6 5.6-7.6 9.9 0 2.9 1.5 5.4 5 5.4m-2.2-4.6c0-3.1 1.3-9.7 4.6-9.7 1.6 0 2.2 1.5 2.2 3.3 0 3-1.2 9.9-4.6 9.9-1.2 0-2.2-1-2.2-3.5M226 8.5h4.4l.2-1h-4.3l.4-2.3c.4-2.2 1-4.2 2.5-4.2 1.8 0 1.1 2.6 3 2.6.8 0 1.5-.7 1.6-1.5 0-1.3-1.7-2.1-3.5-2.1-4 0-5.6 2.5-6.2 5.9l-.3 1.6h-2.5l-.2 1h2.5l-3.1 15.2c-.4 2.6-1.1 4.1-2.4 4.1-1.7 0-1.1-2.5-3-2.5-.8 0-1.5.6-1.6 1.5 0 1.5 2 2.1 3.6 2.1 4.5 0 5.6-3.5 6.3-7.1L226 8.5zM0 76h1c.2 0 .3.1.5.2l.4.4c0 .3.1.5.1.8v13.8H0V76zm5.5 4.5h.3c.3 0 .7.1.9.3.3.2.5.5.5.9 1-.9 2.2-1.4 3.5-1.3.8-.1 1.7.2 2.4.7.5.4.9 1 1.1 1.7.1.3.1.7.1 1v7.5h-1.9v-7.2c0-.3 0-.5-.1-.7-.1-.4-.3-.7-.7-.9-.4-.3-1-.4-1.5-.3-.4 0-.8 0-1.2.1-.3.1-.6.2-.9.4-.2.1-.4.3-.6.5-.1.2-.2.4-.2.6v7.6H5.5V80.5zM23.7 83c-.3-.4-.7-.6-1.1-.8-.5-.2-1-.3-1.5-.3-.2 0-.4 0-.6.1-.2 0-.5.1-.7.2-.2.1-.4.2-.5.4-.3.1-.3.4-.3.6 0 .2.1.4.2.6.1.2.3.3.5.4.2.1.5.2.7.3.3.1.6.2.9.2.4.1.9.2 1.3.4.4.1.8.4 1.1.6.3.3.6.6.8.9.4.9.4 2 0 2.9-.2.4-.5.7-.9 1-.4.3-.9.5-1.3.6-.5.1-1 .2-1.6.2-.5 0-1 0-1.4-.1-.4-.1-.7-.2-1.1-.3-.3-.1-.6-.3-.8-.5-.1-.1-.2-.3-.2-.5s.1-.4.2-.6c.1-.2.2-.4.4-.7.1.1.2.2.4.3.2.1.4.3.7.4l.9.3c.3.1.7.1 1 .1.3 0 .5 0 .8-.1.2-.1.5-.1.7-.3.2-.1.4-.3.5-.5.1-.2.2-.5.2-.8 0-.3-.1-.5-.2-.8-.2-.2-.4-.4-.6-.5-.2-.1-.5-.3-.8-.3-.3-.1-.6-.2-.9-.2-.4-.1-.8-.2-1.3-.3-.4-.1-.7-.3-1.1-.6-1-.9-1.3-2.3-.7-3.5.2-.4.5-.7.9-1 .4-.3.8-.4 1.2-.6.5-.1 1-.2 1.4-.2.5 0 1.1.1 1.6.2.4.1.8.2 1.1.4.2.1.4.3.6.5.1.1.1.3.1.4 0 .2 0 .4-.1.6-.1.2-.2.5-.3.7h-.2zm3.7-2.5h.4c.3 0 .7.1.9.2.3.2.5.5.5.8.3-.4.7-.7 1.2-.9.6-.3 1.3-.4 1.9-.4.6 0 1.1.1 1.7.3.5.2 1 .5 1.4.9.4.5.8 1.1 1 1.7.3.8.4 1.7.3 2.5 0 1-.1 1.9-.4 2.8-.2.7-.6 1.3-1.1 1.8-.4.4-.9.7-1.5.9-.5.2-1 .3-1.6.3-.7 0-1.3-.1-1.9-.4-.4-.2-.7-.4-1-.8V96h-2V80.5zm2 8.1c.1.1.2.3.4.4.2.2.4.3.6.4.2.1.5.2.8.3.3.1.6.1.9.1.8.1 1.6-.3 2.1-1 .5-.9.8-2 .7-3 0-.5 0-1-.1-1.6-.1-.4-.2-.9-.5-1.2-.2-.3-.5-.6-.9-.8-.4-.2-.9-.3-1.4-.3-.6 0-1.3.1-1.8.4-.4.2-.7.6-.7 1.1l-.1 5.2zm10-11.6c0-.3.1-.7.3-.9.2-.2.5-.4.9-.4.3 0 .6.1.9.4.2.2.4.6.3.9 0 .3-.1.6-.3.9-.2.2-.5.4-.9.3-.7 0-1.2-.5-1.2-1.2zm.3 3.4h.5c.4 0 .8.1 1.1.3.3.3.5.8.4 1.2v7.2c0 .3 0 .6.2.9.1.2.4.3.9.3v.8c-.2.1-.4.1-.6.1h-.7c-.3 0-.7-.1-1-.2-.2-.1-.4-.3-.5-.6-.1-.2-.2-.5-.2-.8v-.8l-.1-8.4zm5.5.1h.4c.3 0 .7.1.9.3.3.2.5.5.5.9.3-.4.6-.7 1-.9.4-.3 1-.4 1.5-.4h.5c.2 0 .4.1.5.2.2.1.3.2.4.3.1.1.2.3.2.5 0 .3-.1.5-.2.8-.1.2-.2.5-.4.7-.2-.2-.4-.3-.6-.4-.5-.2-1.1-.2-1.6 0l-.6.3c-.2.1-.3.3-.4.5-.1.2-.2.4-.2.6v7.5h-2V80.5zm7.6-3.5c0-.3.1-.7.4-.9.5-.5 1.2-.5 1.7 0 .2.2.4.6.3.9.1.7-.4 1.3-1.1 1.3-.7.1-1.3-.4-1.3-1.1V77zm.4 3.4h.4c.4 0 .8.1 1.1.3.3.3.5.8.4 1.2v7.2c0 .3 0 .6.2.9.1.2.4.3.9.3v.8c-.2.1-.4.1-.5.1H55c-.3 0-.7-.1-1-.2-.2-.1-.4-.3-.5-.6-.1-.2-.2-.5-.2-.8v-.8l-.1-8.4zm5.6.1h.3c.3 0 .7.1.9.3.3.2.5.5.5.9.4-.4.9-.7 1.4-.9.7-.3 1.4-.4 2.1-.4.8-.1 1.7.2 2.4.7.5.4.9 1 1.1 1.7.1.3.1.7.1 1v7.5h-1.9v-7.2c0-.3 0-.5-.1-.7-.1-.4-.3-.7-.7-.9-.5-.3-1-.4-1.5-.3-.4 0-.8 0-1.2.1-.3.1-.6.2-.9.4-.2.1-.4.3-.6.5-.1.2-.2.4-.2.6v7.6h-1.9l.2-10.9zm19.3 9.8-.5.4c-.2.2-.4.3-.6.4l-.9.3c-.3.1-.7.1-1 .1-.6 0-1.2-.1-1.7-.3-.5-.2-1-.5-1.4-.9-.5-.5-.8-1.1-1-1.7-.3-.8-.4-1.7-.4-2.6 0-.9.1-1.7.4-2.6.2-.7.5-1.3 1-1.8.4-.4.9-.8 1.4-1 .5-.2 1.1-.4 1.7-.3.6 0 1.2.1 1.8.3.4.2.9.5 1.2.8.1-.3.2-.6.5-.7.2-.1.5-.2.8-.2h.5v9.9c0 .8-.1 1.7-.2 2.5-.1.7-.4 1.3-.8 1.8s-1 .9-1.6 1.2c-.8.3-1.7.4-2.5.4-.6 0-1.3-.1-1.9-.2-.5-.1-.9-.3-1.3-.5-.2-.1-.4-.3-.6-.5-.1-.1-.2-.3-.2-.5s.1-.5.3-.7c.2-.2.3-.4.5-.6l.3.3c.2.2.4.3.7.4.3.2.7.3 1 .4.4.1.8.2 1.2.2.6 0 1.2-.1 1.7-.3.4-.2.8-.5 1-.9.2-.4.4-.8.4-1.3.1-.6.1-1.1.1-1.7l.1-.1zm0-7.2-.3-.3c-.2-.1-.3-.3-.5-.4-.2-.1-.5-.2-.8-.3-.3-.1-.7-.1-1-.1-.8 0-1.5.4-2 1-.6.9-.8 1.9-.8 2.9 0 .5 0 1.1.1 1.6s.2.9.5 1.3c.2.4.5.7.9.9.4.2.9.3 1.4.3.3 0 .7 0 1-.1.3-.1.6-.2.8-.3.2-.1.4-.3.5-.5.1-.2.2-.4.2-.6v-5.4zM95 90.3c-.1.1-.3.2-.4.4-.2.2-.4.3-.7.4-.3.1-.6.2-.8.3-.3.1-.7.1-1 .1-.6 0-1.2-.1-1.7-.3-.5-.2-1-.5-1.4-.9-.5-.5-.8-1.1-1-1.7-.3-.8-.4-1.7-.4-2.6 0-.9.1-1.8.4-2.6.2-.7.5-1.3 1-1.8.4-.4.9-.8 1.4-1 1.1-.5 2.4-.5 3.5 0 .4.2.9.5 1.2.8.1-.3.3-.6.5-.7.2-.1.5-.2.8-.2h.5v9.9c0 .8-.1 1.7-.2 2.5-.1.7-.4 1.3-.8 1.8s-1 .9-1.6 1.2c-.8.3-1.7.4-2.5.4-.6 0-1.3-.1-1.9-.2-.5-.1-.9-.3-1.3-.5-.2-.1-.4-.3-.6-.5-.1-.1-.2-.3-.2-.5s.1-.4.2-.6c.2-.2.3-.4.5-.6l.3.3c.2.2.4.3.7.4.3.2.7.3 1 .4.4.1.8.2 1.2.2.6 0 1.2-.1 1.7-.3.4-.2.8-.5 1-.9.2-.4.4-.8.4-1.3.1-.6.1-1.1.1-1.7l.1-.2zm0-7.2-.3-.3c-.2-.1-.3-.3-.5-.4-.2-.1-.5-.2-.8-.3-.3-.1-.7-.1-1-.1-.8 0-1.5.4-2 1-.6.9-.8 1.9-.8 2.9 0 .5 0 1.1.1 1.6s.2.9.5 1.3c.2.4.5.7.9.9.4.2.9.3 1.4.3.3 0 .7 0 1-.1.3-.1.6-.2.8-.3.2-.1.4-.3.5-.5.1-.2.2-.4.2-.6v-5.4zm5.3-8h.4c.4 0 .8.1 1.1.3.3.3.5.8.4 1.2v13c0 .1 0 .3.1.4.1.1.2.2.3.2.2.1.4.1.6.1v.8c-.2.1-.4.1-.6.1h-.7c-.3 0-.7-.1-1-.2-.2-.1-.4-.3-.5-.6-.1-.2-.2-.5-.2-.8v-.8l.1-13.7zm14.9 10.7c0 .7-.1 1.4-.3 2.2-.2.7-.5 1.3-.9 1.8s-.9 1-1.6 1.3c-.7.3-1.5.5-2.3.5-.8 0-1.6-.1-2.3-.4-.6-.3-1.1-.7-1.5-1.2-.4-.5-.7-1.1-.9-1.8-.2-.7-.3-1.5-.3-2.2 0-.7.1-1.5.3-2.2.2-.7.6-1.3 1-1.8s1-.9 1.6-1.2c1.4-.6 3-.6 4.5 0 .6.3 1.1.7 1.5 1.3.4.5.7 1.1.9 1.8.2.5.3 1.2.3 1.9zm-2 0c0-.5 0-.9-.1-1.4-.1-.4-.2-.9-.4-1.2-.2-.4-.5-.7-.9-.9-.5-.2-1-.4-1.5-.3-.5 0-1 .1-1.4.3-.4.2-.7.5-.9.9-.2.4-.4.8-.5 1.2-.1.5-.2.9-.2 1.4 0 .5 0 1 .1 1.4.1.5.2.9.5 1.3.2.4.5.7.9 1 .4.3.9.4 1.4.4.5 0 1-.1 1.5-.4.4-.2.7-.6.9-1 .2-.4.4-.8.4-1.3.1-.4.2-.9.2-1.4zm4.8-10.7h.5c.4 0 .8.1 1.1.3.3.3.5.8.4 1.2v4.8c.3-.3.8-.6 1.2-.8.6-.3 1.3-.4 1.9-.4.6 0 1.1.1 1.7.3.5.2 1 .5 1.4.9.5.5.8 1.1 1 1.7.3.8.4 1.7.4 2.5 0 1-.1 1.9-.4 2.8-.2.7-.6 1.3-1.1 1.8-.4.4-.9.7-1.5.9-.5.2-1 .3-1.6.3-.4 0-.8 0-1.2-.1-.3-.1-.6-.2-.8-.3-.2-.1-.4-.2-.6-.4-.1-.1-.2-.2-.3-.4v.9H118v-16zm2 13.5c.1.1.2.3.4.4.2.2.4.3.6.4.2.1.5.2.8.3.3.1.6.1.9.1.8.1 1.7-.3 2.1-1 .5-.9.8-2 .7-3 0-.5 0-1-.2-1.6-.1-.4-.2-.9-.5-1.2-.2-.3-.5-.6-.9-.8-.4-.2-.9-.3-1.4-.3-.6 0-1.3.1-1.8.5-.4.2-.7.7-.7 1.1v5.1zm10.7-5.7-.3-.6c-.1-.2-.1-.4-.1-.5 0-.2.2-.4.4-.6.3-.2.6-.4.9-.5.4-.1.8-.3 1.3-.3.5-.1.9-.1 1.4-.1.7 0 1.3.1 1.9.2.5.1.9.4 1.2.8.3.4.6.8.7 1.2.1.6.2 1.1.2 1.7v5.3c0 .2.1.3.2.4.1.1.2.2.4.2h.6v.9c-.2.1-.3.1-.5.1h-.6c-.4 0-.8-.1-1.2-.3-.4-.2-.6-.6-.6-1-.4.4-.9.7-1.4 1-.7.3-1.4.4-2.1.4-.4 0-.8 0-1.2-.1-.4-.1-.8-.3-1.1-.5-.3-.3-.6-.6-.8-1-.2-.5-.3-1-.3-1.6 0-.7.2-1.4.6-1.9.4-.5.9-.9 1.5-1.2.6-.3 1.2-.5 1.9-.6.6-.1 1.2-.2 1.9-.2h1V84c0-.6-.1-1.1-.5-1.6-.5-.4-1.2-.6-1.9-.5-.6 0-1.2.1-1.7.3-.5.2-.9.4-1.4.7h-.4zm5.7 2.9h-.6c-.5 0-1 0-1.5.1s-.9.2-1.4.3c-.4.2-.7.4-1 .7-.3.3-.4.7-.4 1.2 0 .4.1.9.4 1.2.4.4 1 .6 1.5.5.4 0 .8-.1 1.1-.2.3-.1.6-.2.9-.4.2-.1.5-.3.6-.5.1-.2.2-.4.2-.6l.2-2.3zm5.4-10.7h.4c.4 0 .8.1 1.1.3.3.3.5.8.4 1.2v13c0 .1 0 .3.1.4.1.1.2.2.3.2.2.1.4.1.6.1v.8c-.2.1-.4.1-.6.1h-.7c-.3 0-.7-.1-1-.2-.2-.1-.4-.3-.5-.6-.1-.2-.2-.5-.2-.8v-.8l.1-13.7zm10.2 5.4h.4c.3 0 .7.1.9.2.3.2.5.5.5.8.3-.4.7-.7 1.2-.9.6-.3 1.3-.4 1.9-.4.6 0 1.1.1 1.7.3.5.2 1 .5 1.4.9.5.5.8 1.1 1 1.7.3.8.4 1.7.4 2.5 0 1-.1 1.9-.4 2.8-.2.7-.6 1.3-1.1 1.8-.4.4-.9.7-1.5.9-.5.2-1 .3-1.6.3-.7 0-1.3-.1-1.9-.4-.4-.2-.7-.4-1-.8V96H152V80.5zm1.9 8.1c.1.1.2.3.4.4.2.2.4.3.6.4.2.1.5.2.8.3.3.1.6.1.9.1.8.1 1.6-.3 2.1-1 .5-.9.8-2 .7-3 0-.5 0-1-.1-1.6-.1-.4-.2-.9-.5-1.2-.2-.3-.5-.6-.9-.8-.4-.2-.9-.3-1.4-.3-.6 0-1.3.1-1.8.4-.4.2-.7.6-.7 1.1v5.2zm10.3-8.1h.4c.4 0 .7.1 1 .3.3.2.5.5.5.9.3-.4.6-.7.9-.9.4-.3.9-.4 1.5-.4h.5c.2 0 .4.1.5.2.2.1.3.2.4.3.1.1.2.3.2.5 0 .3-.1.5-.2.8-.1.2-.2.5-.4.7-.2-.2-.4-.3-.6-.4-.3-.1-.6-.1-.9-.1-.5 0-1 .2-1.4.5-.2.1-.3.3-.4.5-.1.2-.2.4-.2.6v7.6h-1.9V80.5zm16.8 5.3c0 .7-.1 1.4-.3 2.2-.2.7-.5 1.3-.9 1.8s-.9 1-1.6 1.3c-.7.3-1.5.5-2.3.5-.8 0-1.6-.1-2.3-.4-.6-.3-1.1-.7-1.5-1.2-.4-.5-.7-1.1-.9-1.8-.2-.7-.3-1.5-.3-2.2 0-.7.1-1.5.3-2.2.2-.7.6-1.3 1-1.8s1-.9 1.6-1.2c.7-.3 1.4-.5 2.2-.5.8 0 1.6.1 2.3.5.6.3 1.1.7 1.4 1.3.4.5.7 1.1.9 1.8.3.5.4 1.2.4 1.9zm-2 0c0-.5 0-.9-.1-1.4-.1-.4-.2-.9-.4-1.2-.2-.4-.5-.7-.9-.9-.9-.5-2-.5-2.9 0-.4.2-.7.5-.9.9-.2.4-.4.8-.5 1.2-.1.5-.1.9-.1 1.4 0 .5 0 1 .1 1.4.1.5.2.9.5 1.3.2.4.5.7.9 1 .4.3.9.4 1.5.4.5 0 1-.1 1.5-.4.4-.2.7-.6.9-1 .2-.4.4-.8.4-1.3-.1-.4-.1-.9 0-1.4zm4.3-6.5c-.1-1.2.3-2.4 1-3.3.8-.8 1.9-1.2 3-1.1.4 0 .9 0 1.3.2.3.1.7.2 1 .4.2.1.5.3.6.5.1.1.2.3.2.5s-.1.4-.2.6c-.1.2-.2.4-.4.6h-.3c-.3-.3-.6-.6-.9-.8-.4-.2-.8-.3-1.3-.3-.6 0-1.2.2-1.6.6-.4.5-.6 1.2-.6 1.9v1.5h3.8v1.7h-3.8v9h-1.9l.1-12zm9.2 6.9c0 1 .3 1.9.9 2.7.6.7 1.5 1.1 2.5 1 .4 0 .8 0 1.1-.1l.9-.3c.2-.1.4-.2.6-.4l.4-.4c.2.2.3.4.4.7.1.2.2.4.2.6 0 .1 0 .3-.1.4-.1.2-.2.3-.4.4-.4.3-.9.5-1.3.6-.6.2-1.3.3-2 .3s-1.4-.1-2-.3c-.6-.2-1.2-.5-1.6-1-.5-.5-.9-1.1-1.1-1.8-.3-.9-.4-1.8-.4-2.7 0-.8.1-1.7.4-2.5.2-.6.6-1.2 1.1-1.7.4-.4 1-.8 1.6-1 .6-.2 1.2-.3 1.8-.3.7 0 1.4.1 2 .4.5.2 1 .6 1.4 1 .4.4.6 1 .8 1.5.2.6.3 1.2.2 1.8v1.3l-7.4-.2zm5.3-1.4c0-.4 0-.8-.1-1.1-.1-.3-.2-.6-.4-.9-.2-.3-.5-.5-.8-.6-.4-.2-.8-.2-1.2-.2-.7 0-1.5.2-2 .8-.5.6-.8 1.3-.9 2.1l5.4-.1zm10.5-1.8c-.3-.4-.7-.6-1.1-.8-.5-.2-1-.4-1.6-.3-.2 0-.4 0-.6.1-.2 0-.4.1-.6.2-.2.1-.4.2-.5.4-.1.2-.2.4-.2.7 0 .2.1.4.2.6.1.2.3.3.5.4.2.1.5.2.7.3.3.1.6.2.9.2.4.1.9.2 1.3.4.4.1.8.4 1.1.6.3.3.6.6.8.9.2.4.3.9.3 1.4 0 .5-.1 1-.3 1.5-.2.4-.5.7-.9 1-.4.3-.8.5-1.3.6-.5.1-1 .2-1.6.2-.5 0-1 0-1.4-.1-.4-.1-.7-.2-1.1-.3-.3-.1-.6-.3-.8-.5-.1-.1-.2-.3-.2-.5s.1-.4.2-.6c.1-.2.3-.5.4-.7.1.1.3.2.4.3.2.1.4.3.7.4l.9.3c.3.1.7.1 1 .1.3 0 .5 0 .8-.1.2 0 .5-.1.7-.3.2-.1.4-.3.5-.5.1-.2.2-.5.2-.8 0-.3-.1-.5-.2-.8-.1-.2-.3-.4-.5-.5-.2-.1-.5-.3-.8-.3-.3-.1-.6-.2-.9-.2-.4-.1-.8-.2-1.3-.3-.4-.1-.7-.3-1.1-.6-1-.9-1.3-2.3-.7-3.5.2-.4.5-.7.9-1 .4-.3.8-.4 1.2-.6.5-.1 1-.2 1.4-.2.5 0 1.1.1 1.6.2.4.1.8.2 1.1.4.2.1.4.3.6.5.1.1.2.3.2.4 0 .2 0 .4-.1.6-.1.2-.2.4-.3.7l-.5.1zm9.6 0c-.3-.4-.7-.6-1.1-.8-.5-.2-1-.4-1.6-.3-.2 0-.4 0-.6.1-.2 0-.5.1-.7.2-.2.1-.4.2-.5.4-.1.2-.2.4-.2.7 0 .2.1.4.2.6.1.2.3.3.5.4.2.1.5.2.7.3.3.1.6.2.9.2.4.1.9.2 1.3.4.4.1.8.4 1.1.6.3.3.6.6.8.9.2.4.3.9.3 1.4 0 .5-.1 1-.3 1.5-.2.4-.5.7-.9 1-.4.3-.8.5-1.3.6-.5.1-1 .2-1.6.2-.5 0-1 0-1.4-.1-.4-.1-.7-.2-1.1-.3-.3-.1-.6-.3-.8-.5-.1-.1-.2-.3-.2-.5s.1-.4.2-.6c.1-.2.3-.5.4-.7.1.1.3.2.4.3.2.1.4.3.7.4l.9.3c.3.1.7.1 1 .1.3 0 .5 0 .8-.1.2 0 .5-.1.7-.3.2-.1.4-.3.5-.5.1-.2.2-.5.2-.8 0-.3-.1-.5-.2-.8-.1-.2-.3-.4-.5-.5-.2-.1-.5-.3-.8-.3-.3-.1-.6-.2-.9-.2-.4-.1-.8-.2-1.3-.3-.4-.1-.7-.3-1.1-.6-1-.9-1.3-2.3-.7-3.6.2-.4.5-.7.9-1 .4-.3.8-.4 1.2-.6.5-.1 1-.2 1.4-.2.5 0 1.1.1 1.6.2.4.1.8.2 1.1.4.2.1.4.3.6.5.1.1.2.3.2.4 0 .2 0 .4-.1.6-.1.2-.2.4-.3.7l-.4.2zm3.3-6c0-.3.1-.7.4-.9.2-.2.5-.4.9-.4.3 0 .6.1.9.4.2.2.4.6.4.9 0 .7-.5 1.2-1.2 1.2-.8 0-1.4-.5-1.4-1.2zm.4 3.4h.5c.4 0 .8.1 1.1.3.3.3.5.8.4 1.2v7.2c0 .3 0 .6.2.9.1.2.4.3.9.3v.8c-.2.1-.4.1-.6.1h-.7c-.3 0-.7-.1-1-.2-.2-.1-.4-.3-.5-.6-.1-.2-.2-.5-.2-.8v-.8l-.1-8.4zm14.9 5.4c0 .7-.1 1.4-.3 2.2-.2.7-.5 1.3-.9 1.8s-.9 1-1.6 1.3c-.7.3-1.5.5-2.3.5-.8 0-1.6-.1-2.3-.4-.6-.3-1.1-.7-1.5-1.2-.4-.5-.7-1.1-.9-1.8-.2-.7-.3-1.5-.3-2.2 0-.7.1-1.5.3-2.2.2-.7.5-1.3.9-1.8s1-.9 1.6-1.2c.7-.3 1.4-.5 2.2-.5.8 0 1.6.1 2.3.5.6.3 1.1.7 1.5 1.3.4.5.7 1.1.9 1.8.3.5.4 1.2.4 1.9zm-2 0c0-.5 0-.9-.1-1.4-.1-.4-.2-.9-.4-1.2-.2-.4-.5-.7-.9-.9-.4-.3-1-.4-1.5-.3-.5 0-1 .1-1.4.3-.4.2-.7.5-.9.9-.2.4-.4.8-.5 1.2-.1.5-.2.9-.1 1.4 0 .5 0 1 .1 1.4.1.5.2.9.5 1.3.2.4.5.7.9 1 .4.3.9.4 1.4.4.5 0 1-.1 1.5-.4.4-.2.7-.6.9-1 .2-.4.4-.8.4-1.3.1-.4.1-.9.1-1.4zm4.9-5.3h.3c.4 0 .7.1 1 .3.3.2.5.5.5.9.4-.4.9-.7 1.4-.9.7-.3 1.4-.4 2.1-.4.8-.1 1.7.2 2.4.7.5.4.9 1 1.1 1.7.1.3.1.7.1 1v7.5h-1.9v-7.2c0-.3 0-.5-.1-.7-.1-.4-.3-.7-.7-.9-.5-.2-1-.4-1.5-.3-.4 0-.8 0-1.2.1-.3.1-.6.2-.9.4-.2.1-.4.3-.6.5-.1.2-.2.4-.2.6v7.6h-1.9l.1-10.9zm12.7 2.4-.3-.6c-.1-.2-.1-.4-.1-.5 0-.2.2-.4.4-.6.3-.2.6-.4.9-.5.4-.1.8-.3 1.3-.3.5-.1.9-.1 1.4-.1.7 0 1.3.1 1.9.2.5.1.9.4 1.2.8.3.4.6.8.7 1.2.1.6.2 1.1.2 1.7v5.3c0 .2.1.3.2.4.1.1.2.2.3.2h.5v.9c-.2.1-.3.1-.5.1h-.6c-.4 0-.8-.1-1.2-.3-.4-.2-.6-.6-.6-1-.4.4-.9.7-1.4 1-.7.3-1.4.4-2.1.4-.4 0-.8 0-1.2-.1-.4-.1-.8-.3-1.1-.5-.3-.3-.6-.6-.8-1-.2-.5-.3-1-.3-1.6 0-.7.2-1.4.6-1.9.4-.5.9-.9 1.5-1.2.6-.3 1.2-.5 1.9-.6.6-.1 1.2-.2 1.8-.2h1V84c0-.6-.1-1.1-.5-1.6-.5-.4-1.2-.6-1.9-.5-.6 0-1.2.1-1.7.3-.5.2-.9.4-1.4.7h-.1zm5.7 2.9h-.7c-.5 0-1 0-1.5.1s-.9.2-1.4.3c-.4.2-.7.4-1 .7-.3.3-.4.7-.4 1.2 0 .4.1.9.4 1.2.4.4 1 .6 1.5.5.4 0 .8-.1 1.1-.2.3-.1.6-.2.9-.4.2-.1.5-.3.6-.5.1-.2.2-.4.2-.6l.3-2.3zm5.4-10.7h.4c.4 0 .8.1 1.1.3.3.3.5.8.4 1.2v13c0 .1 0 .3.1.4.1.1.2.2.3.2.2.1.4.1.6.1v.8c-.2.1-.4.1-.5.1h-.7c-.3 0-.7-.1-1-.2-.2-.1-.4-.3-.5-.6-.1-.2-.2-.5-.2-.8V75.1zm11.4 7.9c-.3-.4-.7-.6-1.1-.8-.5-.2-1-.4-1.6-.3-.2 0-.4 0-.6.1-.2 0-.5.1-.7.2-.2.1-.4.2-.5.4-.1.2-.2.4-.2.7 0 .2 0 .4.2.6.1.2.3.3.5.4.2.1.5.2.7.3.3.1.6.2.9.2.4.1.9.2 1.3.4.4.1.8.4 1.1.6.3.3.6.6.8.9.2.4.3.9.3 1.4 0 .5-.1 1-.3 1.5-.2.4-.5.7-.9 1-.4.3-.9.5-1.3.6-.5.1-1 .2-1.6.2-.5 0-1 0-1.5-.1-.4-.1-.7-.2-1.1-.3-.3-.1-.6-.3-.8-.5-.1-.1-.2-.3-.2-.5s.1-.4.2-.6c.1-.2.2-.4.4-.7l.5.3c.2.1.4.3.7.4l.9.3c.6.1 1.2.1 1.8 0 .2-.1.5-.1.7-.3.2-.1.4-.3.5-.5.1-.2.2-.5.2-.8 0-.3-.1-.5-.2-.8-.1-.2-.3-.4-.5-.5-.2-.1-.5-.3-.8-.3-.3-.1-.6-.2-.9-.2-.4-.1-.8-.2-1.3-.3-.4-.1-.7-.3-1.1-.6-.3-.2-.6-.5-.7-.9-.4-.8-.4-1.8 0-2.7.2-.4.5-.7.9-1 .4-.3.8-.4 1.2-.6.5-.1 1-.2 1.4-.2.5 0 1.1.1 1.6.2.4.1.8.2 1.1.4.2.1.4.3.6.5.1.1.1.3.2.4 0 .2 0 .4-.1.6-.1.2-.2.4-.3.7l-.4.2zM.1 29.7c.2 0 .5-.1.7-.1h.6c.4 0 .7 0 1.1.1.4.1.7.3 1 .5.3.3.6.6.8 1 .2.5.3 1.1.3 1.7v11.5h16.6V29.7c.2 0 .5-.1.7-.1h.6c.4 0 .7 0 1.1.1.4.1.7.3 1 .5.3.3.6.6.8 1 .2.5.3 1.1.3 1.7v31.6h-4.5V48.4H4.6v16.1H.1V29.7zm31.6 6.7.5-.1h.5c.3 0 .6 0 .9.1.3.1.6.2.8.4.3.2.5.5.6.8.2.4.3.9.2 1.4v14.9c0 1.1.1 2.2.3 3.2.2.9.5 1.8 1 2.5s1.2 1.3 2 1.7c1 .4 2.1.6 3.1.6 1.6.1 3.1-.3 4.5-1.1 1.1-.9 1.8-2.2 2-3.6.2-1.1.3-2.2.2-3.3V36.4l.5-.1h.5c.3 0 .6 0 .9.1.3.1.6.2.8.4.3.2.5.5.6.8.2.4.3.9.3 1.4v16.1s0 1.1-.1 1.7c-.1 1.1-.4 2.2-.8 3.3-.4 1-1.1 1.9-1.9 2.7-.9.8-2 1.4-3.1 1.8-1.5.5-3 .7-4.5.7-3 0-5.3-.7-6.8-2-1.6-1.5-2.7-3.4-3-5.6-.1-.6-.2-1.3-.2-1.9v-2.1l.2-17.3zm26.7.2c1.5-.2 2.8-.3 4-.3s2.2-.1 3.1-.1c2.3-.1 4.6.3 6.7 1.1 1.7.6 3.1 1.7 4.3 3 1.1 1.3 1.9 2.8 2.3 4.4.4 1.7.6 3.5.6 5.3 0 2.4-.4 4.8-1.3 7-1.3 3.5-4.3 6.1-7.9 7-1.8.4-3.6.6-5.4.6h-6.6l.2-28zm7.1 24.8c1.6 0 3.3-.3 4.8-.9 1.2-.5 2.3-1.4 3.2-2.4.8-1 1.4-2.3 1.7-3.5.4-1.4.5-2.9.5-4.4 0-1.5-.1-2.9-.5-4.3-.3-1.3-.8-2.4-1.6-3.5-.8-1-1.9-1.8-3.1-2.2-1.6-.6-3.2-.8-4.9-.8h-1.8c-.6 0-1.2.1-1.8.2v21.9l3.5-.1zm18.7-24.8c1.5-.2 2.8-.3 3.9-.3s2.2-.1 3.2-.1c2.3-.1 4.6.3 6.7 1.1 1.7.6 3.1 1.7 4.3 3 1.1 1.3 1.9 2.8 2.3 4.4.5 1.8.7 3.6.7 5.4 0 2.4-.4 4.8-1.3 7-1.3 3.5-4.3 6.1-7.9 7-1.8.4-3.6.6-5.4.6h-6.6l.1-28.1zm7.2 24.8c1.6 0 3.3-.3 4.8-.9 1.2-.5 2.3-1.4 3.2-2.4.8-1.1 1.4-2.3 1.7-3.5.4-1.4.5-2.9.5-4.4 0-1.5-.1-2.9-.5-4.3-.3-1.3-.8-2.4-1.6-3.5-.8-1-1.9-1.8-3.1-2.2-1.6-.6-3.2-.8-4.9-.8h-1.7c-.6 0-1.2.1-1.8.2v21.9l3.4-.1zm19.5-25h16.2c0 .1.1.2.1.4v.5c0 .6-.2 1.2-.5 1.6-.5.5-1.3.7-2 .7h-10.1v8.6h9.5v3.2h-9.5v9.9h10.7c.7-.1 1.5.2 2 .7.4.4.6 1 .6 1.6v.9h-17V36.4zm22.6.1c1-.1 2.1-.2 3.3-.3s2.3-.1 3.3-.1c3.8 0 6.6.7 8.3 2s2.5 3.3 2.5 6.1c0 1.1-.2 2.1-.5 3.2-.3.9-.8 1.7-1.4 2.4-.6.7-1.2 1.2-2 1.7-.7.5-1.5.8-2.4 1l7.7 12.2c-.3.1-.7.2-1 .3-.3.1-.7.1-1 .1-1.2 0-2.4-.6-3-1.6L140.9 53h-3.7v11.5h-3.7v-28zm6.6 13.4c.9 0 1.9-.1 2.8-.3.8-.2 1.5-.5 2.2-1 .6-.4 1.1-1 1.4-1.7.7-1.6.7-3.5 0-5.1-.3-.6-.8-1.2-1.4-1.6-.7-.4-1.4-.7-2.2-.8-.9-.1-1.9-.2-2.8-.2h-1.7c-.5 0-.9.1-1.3.1v10.5l3 .1zm31.1-8.9c-.7-.5-1.5-.9-2.3-1.3-1.1-.4-2.2-.6-3.4-.6-.8 0-1.7.1-2.5.3-.6.2-1.1.5-1.6.9-.4.4-.7.8-.9 1.3-.2.5-.3 1-.3 1.6 0 .6.1 1.2.4 1.8.3.5.8 1 1.3 1.3.6.4 1.3.7 1.9 1 .8.3 1.6.6 2.6.9.9.3 1.9.7 2.8 1.1.9.4 1.7 1 2.4 1.6.7.7 1.2 1.4 1.6 2.3.4 1 .6 2.1.6 3.2 0 1.3-.2 2.5-.7 3.7-.4 1.1-1.1 2-2 2.7-.9.7-1.9 1.3-3 1.6-1.2.4-2.5.6-3.8.6-1.5 0-2.9-.2-4.3-.5-1.1-.2-2.2-.7-3.1-1.3-.6-.3-1-.9-1-1.5 0-.4.2-.8.4-1.2.3-.5.6-.9.9-1.3 1 .8 2.1 1.4 3.2 1.9 1.3.5 2.6.8 4 .8.9 0 1.9-.1 2.7-.4.7-.2 1.2-.6 1.7-1.1.4-.4.8-1 .9-1.5.2-.6.3-1.2.3-1.8 0-.7-.1-1.4-.4-2.1-.2-.6-.6-1.1-1.1-1.5-.5-.5-1.1-.8-1.7-1.1l-2.4-.9c-1-.3-2-.7-3-1-.9-.4-1.8-.9-2.6-1.5-1.6-1.3-2.6-3.3-2.4-5.4 0-1.2.2-2.3.7-3.3.4-.9 1.1-1.8 1.9-2.4.8-.7 1.8-1.2 2.9-1.5 1.2-.3 2.4-.5 3.6-.5 1.1 0 2.2.1 3.3.4 1.1.2 2.1.6 3.1 1.2.4.3.8.6 1.1.9.3.3.5.7.5 1.1 0 .4-.2.8-.4 1.1-.3.4-.6.8-1 1.2l-.4-.4-.5-.4zm7.8-4.6h16.2c0 .1.1.3.1.4v.5c0 .6-.2 1.2-.5 1.6-.6.5-1.3.7-2.1.7h-10V48h9.5v3.2h-9.5v13.4H179V36.4zm20.4 0 .5-.1h.5c.3 0 .6 0 .9.1.3.1.6.2.8.4.3.2.5.5.6.8.2.4.3.9.3 1.4v25.6h-3.7l.1-28.2zm10.7 0h16.2c0 .1.1.2.1.4v.5c0 .6-.2 1.2-.5 1.6-.5.5-1.3.7-2 .7h-10.1v8.6h9.5v3.2h-9.5v9.9h10.7c.7-.1 1.5.2 2 .7.4.4.6 1 .6 1.6v.9h-16.9l-.1-28.1zm21.7 0 .6-.1h.5c.3 0 .6 0 .9.1.3.1.6.2.8.4.3.2.5.5.6.8.2.4.3.9.2 1.4v22.4h9.8c.7-.1 1.4.2 1.9.7.4.4.6 1 .6 1.6v.9h-15.9V36.4zm20-6.5c1.9-.2 3.5-.3 4.9-.4s2.7-.1 3.9-.1c2.8-.1 5.7.4 8.3 1.4 2 .8 3.9 2 5.3 3.7 1.3 1.6 2.3 3.4 2.8 5.5.6 2.2.8 4.4.8 6.7 0 3-.5 5.9-1.6 8.6-1.6 4.3-5.3 7.6-9.8 8.6-2.2.5-4.4.8-6.6.8h-8.1l.1-34.8zm8.9 30.8c2 .1 4-.3 5.9-1.1 1.5-.7 2.9-1.7 3.9-3s1.7-2.8 2.1-4.4c.4-1.8.7-3.6.6-5.4 0-1.8-.2-3.6-.6-5.4-.3-1.6-1-3-2-4.3-1-1.2-2.4-2.2-3.9-2.8-1.9-.7-4-1.1-6.1-1h-2.2c-.8 0-1.5.1-2.2.2v27l4.5.2z" fill="#003976"/>
</svg>