<?xml version="1.0" encoding="utf-8"?>
<svg xmlns="http://www.w3.org/2000/svg" width="112" height="34" viewBox="0 0 112 34" fill="none">
<path fill-rule="evenodd" clip-rule="evenodd" d="M40.051 26.2749H42.1149C44.3511 26.2749 45.4787 27.7853 45.4787 29.2568C45.4787 30.7473 44.7524 32.3141 42.2296 32.3141C40.624 32.3141 40.051 31.7978 40.051 30.3457V26.2749ZM38.4652 30.8995C38.4652 32.1046 38.1592 32.4672 36.5926 32.4672H36.1522V32.8299H43.1468C46.2243 32.8299 47.275 30.7089 47.275 29.1992C47.275 27.7088 46.2243 26.5425 44.4282 26.0076V25.9689C45.7086 25.7398 46.6064 24.7273 46.6064 23.6381C46.6064 22.7201 46.2243 22.0699 45.4406 21.5169C44.7524 21.0196 43.2809 20.7707 41.5994 20.7707C41.2358 20.7707 39.7835 20.7897 38.732 20.8285C38.1784 20.8477 36.8594 20.9241 36.3243 20.9426V21.306H36.9933C38.3308 21.306 38.4652 21.8792 38.4652 22.9683V30.8995ZM40.051 21.1913C40.5287 21.1721 41.313 21.1339 41.7327 21.1339C44.0836 21.1339 44.8861 22.3571 44.8861 23.6951C44.8861 25.1858 43.9689 25.9117 42.1343 25.9117H40.051V21.1913ZM52.5123 27.4791C52.072 27.4791 51.7854 27.4979 51.3269 27.4409V21.1721C51.6706 21.1339 51.9191 21.1339 52.2823 21.1339C55.2277 21.1339 56.0289 22.5105 56.0289 24.2871C56.0289 26.5807 54.6352 27.4793 52.5123 27.4793V27.4791ZM66.6342 21.306V20.9428H61.9897V21.306C63.0596 21.363 63.4236 21.6496 63.4236 22.6819V30.8238C63.4236 32.0654 63.1869 32.3892 62.0933 32.4604C60.6354 32.384 60.0164 31.812 58.9706 30.7669L57.462 29.2568C56.565 28.3584 55.9916 27.8229 55.2842 27.2688C56.8514 26.8103 57.8252 25.6061 57.8252 24.173C57.8252 22.2234 56.2394 20.7707 52.7032 20.7707C51.4602 20.7707 51.078 20.7897 50.2945 20.8287C49.5112 20.8663 48.3451 20.9426 47.8864 20.9426V21.306H48.3072C49.4157 21.306 49.7407 21.6496 49.7407 22.8352V30.881C49.7407 32.1618 49.3389 32.4672 48.2116 32.4672H47.8866V32.8299H53.2962V32.4672H52.8559C51.7854 32.4672 51.3269 32.1803 51.3269 31.0337V27.8035C51.6329 27.8229 51.8811 27.8427 52.3016 27.8427C52.8183 27.8427 53.1242 27.8229 53.6023 27.8035C54.0612 28.1097 54.7308 28.6636 55.5714 29.5044L56.8322 30.7669C58.4845 32.4205 59.1893 32.9428 62.3015 32.8299H66.6342V32.4672C65.3154 32.4672 65.0098 32.0848 65.0098 30.9573V22.8544C65.0098 21.574 65.4303 21.3062 66.6342 21.3062V21.306ZM67.9333 29.9254C68.3351 31.6265 69.6724 32.6203 71.1631 32.6203C72.4439 32.6203 73.8002 31.8747 73.8002 30.3653C73.8002 27.6124 67.6657 26.7724 67.6657 23.4279C67.6657 21.8409 69.1184 20.656 71.068 20.656C72.6725 20.656 72.9982 21.1341 73.6671 21.1341C73.8194 21.1341 73.8958 21.0957 74.0109 20.9428H74.3165L74.6413 23.3699H74.3165C73.7813 21.994 72.5584 21.1155 71.2393 21.1155C69.9778 21.1155 69.0984 21.8409 69.0984 22.9114C69.0984 25.6249 75.2337 26.3525 75.2337 29.868C75.2337 31.7408 73.5706 33.1366 71.3348 33.1366C70.2839 33.1366 68.9465 32.6203 68.6791 32.6203C68.5068 32.6203 68.3727 32.7152 68.2965 32.8299H67.9717L67.571 29.9254H67.9333ZM82.5921 31.0725C82.5921 32.1046 82.9351 32.4674 84.1009 32.4674H84.8091V32.8299H78.7883V32.4672H79.4961C80.6619 32.4672 81.0051 32.1046 81.0051 31.0725V21.6314H77.6798C76.9163 21.6314 76.5719 22.0699 76.2843 23.7516H75.9409L76.2467 20.656H76.6095C76.6297 20.7707 76.7058 20.8479 76.8201 20.8855C76.9347 20.9241 77.0688 20.9426 77.2023 20.9426H86.3951C86.663 20.9426 86.9494 20.8855 86.9882 20.656H87.3505L87.6567 23.7516H87.3121C87.0259 22.0699 86.6817 21.6314 85.9176 21.6314H82.5923V31.0725H82.5921ZM101.65 26.5617C101.65 23.1219 98.5536 20.656 94.9416 20.656C90.8712 20.656 87.946 23.3507 87.946 27.1537C87.946 30.7283 91.1005 33.1364 94.8461 33.1364C98.5536 33.1364 101.649 30.4223 101.649 26.5617H101.65ZM99.8525 27.1921C99.8525 29.9056 98.3625 32.6574 95.2477 32.6574C92.1702 32.6574 89.7435 30.1358 89.7435 26.5617C89.7435 24.2681 91.0802 21.1339 94.4441 21.1339C97.598 21.1339 99.8525 23.6381 99.8525 27.1921Z" fill="#231F20"/>
<mask id="mask0" style="mask-type:alpha" maskUnits="userSpaceOnUse" x="101" y="20" width="11" height="13">
<path d="M112 20.9426V32.8295H101.986V20.9426H112Z" fill="white"/>
</mask>
<g mask="url(#mask0)">
<path fill-rule="evenodd" clip-rule="evenodd" d="M110.529 32.8295H101.986V32.467H102.616C103.496 32.467 103.82 32.1801 103.82 31.2051V22.7387C103.82 21.7263 103.515 21.3058 102.311 21.3058H102.044V20.9426H107.681V21.3058H106.974C105.732 21.3058 105.406 21.4395 105.406 22.6244V31.4346C105.406 31.9505 105.617 32.1422 106.171 32.1422H108.98C110.108 32.1422 110.451 31.7024 111.656 30.0401H112L110.529 32.8295Z" fill="#231F20"/>
</g>
<mask id="mask1" style="mask-type:alpha" maskUnits="userSpaceOnUse" x="16" y="0" width="16" height="17">
<path d="M16.6637 0.981445H31.834V16.7644H16.6637V0.981445Z" fill="white"/>
</mask>
<g mask="url(#mask1)">
<path fill-rule="evenodd" clip-rule="evenodd" d="M21.251 15.4793C21.2371 14.3668 20.8595 12.0931 18.1982 10.803C20.9006 11.6614 22.2004 13.9447 22.3332 15.6481C25.1703 16.2134 27.688 17.5485 31.7762 16.139L31.7902 16.1301C31.7902 16.1301 26.4107 16.179 24.1611 14.5515C25.3228 14.5955 26.6604 14.3324 27.0987 13.6745C27.5658 12.974 27.6141 12.2503 28.7649 12.2132C29.4114 12.1923 31.6041 12.356 31.8339 9.13653C31.1323 10.3206 30.3726 10.81 29.2251 10.5178C28.4925 10.3311 27.1554 9.77064 26.1998 10.9124C25.4107 11.855 24.5633 12.3444 23.2111 12.1985C23.7521 11.4679 31.8123 1.00332 31.8123 1.00332C31.8123 1.00332 21.4866 9.29026 20.9167 9.7725C20.8071 8.25976 21.26 7.70448 21.8665 7.03942C22.3628 6.49548 23.2255 5.75861 22.5388 4.20398C21.9835 2.94712 22.0565 2.18693 23.5691 0.981445C22.3632 1.06914 20.5232 1.88009 20.7409 4.09441C20.8725 5.43155 19.9252 5.5471 19.5789 5.7386C18.6803 6.23548 18.5631 7.6824 18.534 8.80782C18.432 8.44238 17.1242 2.81898 16.6638 0.999398C16.6634 1.00043 16.6636 16.1299 16.6636 16.1299H16.6983C18.4506 15.4396 19.9085 15.3342 21.251 15.4791" fill="#BE2F37"/>
</g>
<path fill-rule="evenodd" clip-rule="evenodd" d="M46.9344 7.31219V7.58127C45.9852 7.5953 45.6449 7.97808 45.6449 8.88539V12.7115C45.6449 14.4688 44.525 16.3535 41.4498 16.3535C38.7432 16.3535 37.3542 14.8086 37.3542 12.7823V8.64417C37.3542 7.73706 37.0992 7.5953 36.1357 7.58148V7.31199H39.7778V7.58127H39.6501C38.8709 7.58127 38.5306 7.79402 38.5306 8.6159V12.5555C38.5306 14.4688 39.6501 15.6167 41.7616 15.6167C43.3631 15.6167 44.993 14.9504 44.993 12.5413V9.23949C44.993 7.87903 44.7805 7.63822 43.6043 7.58148V7.31219H46.9344ZM48.7969 14.8938C48.7969 15.6732 48.9809 15.8575 49.7461 15.8575V16.1268H46.8976V15.8575C47.5212 15.8575 47.8472 15.5174 47.8472 14.9646V11.9887C47.8472 11.4643 47.7905 11.3651 47.4222 11.2941L46.9401 11.195V10.9681L48.5699 10.3732H48.7969V11.4784C49.7461 10.8833 50.5397 10.3587 51.2342 10.3587C52.1981 10.3587 52.7505 11.0675 52.7505 12.4847C52.7505 14.3695 52.6514 14.7378 52.6372 15.2906C52.6232 15.6732 52.8499 15.8575 53.4308 15.8575H53.7426V16.1268H50.6957V15.8575C51.1065 15.843 51.3477 15.744 51.5033 15.5882C51.7726 15.3189 51.8011 14.2841 51.8011 12.3995C51.8011 11.2658 51.2483 10.9115 50.6814 10.9115C50.2279 10.9115 49.5337 11.3083 48.7969 11.8186V14.8938ZM55.8719 7.09924C56.2118 7.09924 56.4953 7.34026 56.4953 7.63802C56.4953 7.93557 56.2118 8.17659 55.8721 8.17659C55.5318 8.17659 55.2626 7.93557 55.2626 7.63802C55.2626 7.34026 55.5319 7.09924 55.8719 7.09924ZM56.4528 15.0496C56.4528 15.5457 56.7225 15.8575 57.473 15.8575V16.1268H54.3274V15.8575C55.192 15.8575 55.5038 15.5742 55.5038 14.8231V11.9746C55.5038 11.4218 55.4328 11.3508 55.0645 11.2801L54.3984 11.1523V10.9258L56.2407 10.2881H56.4532V15.0496H56.4528ZM60.7097 16.2543L58.6545 11.5496C58.442 11.0533 58.2577 10.8833 58.0313 10.8407L57.591 10.77V10.5149H60.4826V10.77C59.618 10.7982 59.3489 10.9115 59.6887 11.5778L61.1912 15.1064L62.6368 11.8329C62.8921 11.2516 62.7644 10.8407 61.7297 10.7702V10.5147H64.1956V10.7698C63.6574 10.8688 63.345 11.1806 63.0764 11.8042L61.1208 16.2541H60.7097V16.2543ZM69.4822 12.5272V12.2012C69.0146 11.7334 69.0571 10.3587 67.1439 10.3587C65.4149 10.3587 64.4089 11.8894 64.4089 13.3916C64.4089 15.0354 65.4855 16.297 66.8748 16.297C67.9092 16.297 68.8021 15.5882 69.3972 14.8371L69.2412 14.6671C68.7028 15.3047 68.1502 15.5882 67.4419 15.5882C66.3218 15.5882 65.2872 14.5961 65.2872 13.1225C65.2872 12.9381 65.3161 12.74 65.3439 12.5272H69.4822ZM65.3862 12.1585C65.7127 10.8407 66.4213 10.6282 66.8893 10.6282C67.5692 10.6282 68.1358 11.2376 68.2916 12.1585H65.3862ZM72.2151 15.0923C72.2151 15.6732 72.4276 15.8575 73.136 15.8575H73.6748V16.1268H70.3157V15.8575C71.0387 15.843 71.2655 15.5457 71.2655 14.7946V11.5211L70.3157 11.1806V10.94L71.9314 10.3732H72.2151V11.8752H72.2434C72.9518 10.7132 73.122 10.4439 73.5894 10.4439C73.7598 10.4439 73.8021 10.4582 74.0714 10.5717C74.213 10.6282 74.4684 10.6847 74.8085 10.784L74.4684 11.6342C74.2081 11.597 73.9548 11.5206 73.7173 11.4076C73.5615 11.3368 73.3915 11.2658 73.2215 11.2658C72.966 11.2658 72.81 11.4361 72.6684 11.6342C72.4844 11.8894 72.3284 12.1302 72.2151 12.343V15.0923ZM75.7872 14.6953C75.9568 15.5457 76.4954 16.0275 77.1336 16.0275C77.7 16.0275 78.1396 15.6022 78.1396 15.0923C78.1396 14.7946 78.0688 14.6103 77.6856 14.2277C76.6794 13.2216 75.5602 13.1225 75.5602 11.9459C75.5602 11.0108 76.2975 10.3587 77.374 10.3587C77.7568 10.3587 78.154 10.4439 78.5081 10.5857L78.5362 11.8752H78.2956C78.1961 11.1523 77.7281 10.699 77.1615 10.699C76.6937 10.699 76.2975 11.0248 76.2975 11.4926C76.2975 12.74 78.9326 12.9523 78.9326 14.6813C78.9326 15.6022 78.1678 16.2968 77.1759 16.2968C76.9068 16.2968 76.7081 16.2543 76.5521 16.1975C76.3961 16.1552 76.2832 16.1125 76.1698 16.1125C76.0845 16.1125 75.9999 16.1693 75.9287 16.2828H75.7162L75.5602 14.6953H75.7872ZM81.3456 7.09924C81.6861 7.09924 81.9694 7.34026 81.9694 7.63802C81.9694 7.93557 81.6861 8.17659 81.3456 8.17659C81.0061 8.17659 80.7369 7.93557 80.7369 7.63802C80.7369 7.34026 81.0061 7.09924 81.3456 7.09924ZM81.9271 15.0496C81.9271 15.5457 82.1964 15.8575 82.9473 15.8575V16.1268H79.8013V15.8575C80.6661 15.8575 80.9775 15.5742 80.9775 14.8231V11.9746C80.9775 11.4218 80.9067 11.3508 80.5379 11.2801L79.8721 11.1523V10.9258L81.7143 10.2881H81.9271V15.0496ZM86.9861 10.5149L86.7591 11.1383H84.96V14.4405C84.96 15.3329 85.5976 15.6307 85.8949 15.6307C86.2065 15.6307 86.4903 15.3899 86.7589 14.9221L86.9859 15.1346C86.6459 15.8715 86.0932 16.2968 85.4412 16.2968C84.6049 16.2968 84.01 15.6022 84.01 14.653V11.1383H83.3583V10.9115C83.9109 10.6422 84.3929 9.99039 84.7186 9.11176H84.96V10.5149H86.9859H86.9861ZM92.592 12.0879C93.0171 11.0108 92.7476 10.7982 91.9112 10.77V10.5149H94.2638V10.77C93.6829 10.8407 93.3573 11.2376 93.088 11.9034L90.6789 17.9125C90.2532 18.9612 89.9278 19.4285 89.432 19.4285C89.0915 19.4285 88.8507 19.2162 88.8507 18.9327C88.8507 18.3514 89.6722 18.4932 90.0269 18.1393C90.1822 17.9829 90.3952 17.6147 90.5083 17.3314L90.9336 16.2683L88.737 11.6059C88.4683 11.0248 88.2129 10.784 87.6175 10.7702V10.5147H90.466V10.7698C89.6016 10.7838 89.5027 11.039 89.7861 11.634L91.3873 15.0923L92.592 12.0879ZM97.4445 13.3634C97.4445 15.0214 98.7905 16.2968 100.548 16.2968C102.234 16.2968 103.552 15.0071 103.552 13.3351C103.552 11.6484 102.234 10.3587 100.505 10.3587C99.0315 10.3587 97.4445 11.4076 97.4445 13.3631V13.3634ZM98.5072 12.8813C98.5072 11.6626 99.3718 10.699 100.307 10.699C101.497 10.699 102.489 12.0737 102.489 13.6894C102.489 15.1062 101.54 15.9567 100.704 15.9567C99.485 15.9567 98.5072 14.5961 98.5072 12.8813Z" fill="#231F20"/>
<path fill-rule="evenodd" clip-rule="evenodd" d="M107.662 11.1382H106.131V15.0212C106.131 15.6733 106.386 15.8574 107.18 15.8574H107.718V16.1267H104.219V15.8574C105.04 15.8574 105.182 15.6731 105.182 14.8795V11.1384H104.133V10.8972C104.53 10.8126 104.87 10.6846 105.182 10.5148C105.182 9.33862 105.437 8.44555 106.273 7.60942C106.968 6.91506 107.633 6.60327 108.285 6.60327C109.079 6.60327 109.745 7.05682 109.745 7.26936C109.745 7.38285 109.476 7.94949 109.363 7.94949C109.164 7.94949 108.64 7.25533 107.704 7.25533C106.684 7.25533 106.131 8.06298 106.131 9.43767V10.5148H107.563L107.662 11.1382Z" fill="#231F20"/>
<mask id="mask2" style="mask-type:alpha" maskUnits="userSpaceOnUse" x="0" y="0" width="16" height="17">
<path d="M0 16.7645V0.999268H15.0925V16.7643L0 16.7645Z" fill="white"/>
</mask>
<g mask="url(#mask2)">
<path fill-rule="evenodd" clip-rule="evenodd" d="M11.1173 9.18324C11.0005 8.55471 11.0589 7.31249 11.6728 6.08492C9.40727 7.79493 9.37817 9.18324 9.37817 9.18324C9.37817 9.18324 9.81666 8.8471 11.1173 9.18324ZM10.0651 5.44174C10.0651 5.44174 7.31737 5.83648 6.5283 5.90953C5.98374 6.23102 5.35913 7.12987 5.35913 7.12987C5.35913 7.12987 4.71594 7.22479 3.42998 7.45879C2.53567 8.04214 1.99751 9.40238 3.10828 10.5132C2.75749 10.4401 2.75749 10.4401 2.24595 10.3524C1.14983 11.054 1.66137 12.3548 3.94131 11.9017C3.29833 11.8798 2.97663 11.5655 2.98406 11.1561C2.96941 10.7104 3.83917 10.1551 4.89877 10.4401C3.89014 8.53283 5.00813 7.78007 5.00813 7.78007C5.00813 7.78007 4.41653 9.35492 5.70992 10.6446C5.82671 10.4548 6.21403 9.92135 7.30293 9.89948C8.3877 9.8776 9.06927 10.4104 9.08578 11.0247C9.10043 11.5655 8.41349 12.1355 7.52207 12.1355L7.50742 10.8433C7.50742 10.8433 7.21709 10.9479 7.13475 11.0625C7.13599 11.1219 7.12753 12.1501 7.12753 12.1501C6.77653 12.1501 6.06071 12.004 5.68062 11.3974C5.38822 11.3683 3.75869 11.127 3.75869 11.127L3.84639 11.5581C3.84639 11.5581 4.41653 11.6532 4.52589 12.2232C4.65858 12.9128 5.05208 13.5459 5.40287 13.8017C6.08238 13.7213 7.2078 12.8664 9.27603 12.8954C7.37598 13.1585 5.44683 15.1898 2.66979 14.4154C7.08358 15.9209 7.53672 12.574 13.0611 13.6263C12.199 13.1001 10.9128 12.9394 10.9128 12.9394C10.9128 12.9394 11.5995 12.1939 11.6288 11.054C11.7165 11.0484 11.8335 11.0393 12.0529 11.0175C12.1259 10.652 12.1769 10.2812 12.1769 10.2812C12.1769 10.2812 10.9712 10.2794 9.95925 10.2794C7.49648 7.7875 10.0651 5.44174 10.0651 5.44174ZM3.89756 5.39799C4.59172 5.43431 5.43548 5.00304 5.49057 4.96672C5.49057 4.96672 5.19818 5.70483 5.85581 5.66109C6.56977 5.61342 7.39166 5.24736 7.50742 5.1935V4.24327C7.44386 4.29011 6.74806 4.78184 5.95836 4.9595C5.66989 5.0243 5.76832 4.76945 5.79741 4.62336C5.82671 4.47727 5.84632 4.35779 5.32983 4.57219C3.21785 5.44917 3.10828 4.84993 3.10828 4.77668C3.02079 4.87923 3.05773 5.35363 3.89756 5.39799ZM15.092 0.999268V16.1297C9.00468 13.7328 6.46887 18.3806 -0.0129395 16.1297V0.999268H3.07093V2.63251H4.83954L4.83934 0.999268H6.57865L6.57885 2.63272L8.3324 2.63251V0.999268H10.0864V2.63251L11.9934 2.63272V0.999268H15.092Z" fill="#BE2F37"/>
</g>
<path fill-rule="evenodd" clip-rule="evenodd" d="M20.9015 21.58C20.9015 21.58 20.8292 21.5441 20.9667 21.4296C20.9836 21.4153 21.01 21.4467 21.0899 21.4475C21.1974 21.449 21.2537 21.4118 21.3428 21.3045C21.4778 21.1415 21.1965 21.0786 21.1055 21.1572C21.0051 21.2426 20.9332 21.332 20.8476 21.4104C20.8476 21.4104 20.7032 21.5387 20.9015 21.58ZM26.1122 29.2233C25.8712 29.4204 25.1258 29.7966 24.9393 29.8843C24.7532 29.9722 24.6933 30.0252 24.5559 30.2974C24.3877 30.63 24.227 31.2332 24.2707 31.2763C24.7311 31.2037 25.06 30.8163 25.06 30.8163C25.06 30.8163 25.0672 30.7214 24.9651 30.5601C24.8805 30.4272 25.0456 30.2829 25.1477 30.3667C25.2255 30.4307 25.334 30.4437 25.3999 30.3884C25.4655 30.3337 26.9015 29.4206 26.9673 29.3141C26.7837 29.1315 26.6116 28.9377 26.452 28.7337C26.452 28.7337 26.3534 29.0259 26.1122 29.2233ZM20.5001 25.2187C19.8862 24.9697 19.749 24.804 19.6341 24.7545C19.5317 24.7111 19.1091 24.8906 19.0386 25.0722C18.8487 25.5619 18.4249 26.3619 18.3628 26.4754C18.3291 26.5363 18.2932 26.607 18.3005 26.6875C18.3079 26.7676 18.3316 27.0821 18.3244 27.1549C18.317 27.2284 18.3279 27.3235 18.357 27.3963C18.3863 27.4694 18.4251 27.7832 18.5854 28.0979C18.9436 27.7397 18.996 27.2114 18.9727 27.3159C18.9721 27.3185 19.0862 27.1225 18.8011 27.0344C18.72 27.0096 18.7319 26.7983 18.8192 26.7713C18.9253 26.7387 18.9802 26.709 19.0313 26.5196C19.0825 26.3291 19.2752 25.6467 19.3382 25.5146C19.3479 25.4944 19.3656 25.4602 19.4011 25.4437C19.4569 25.4188 19.5156 25.4014 19.5759 25.3917C19.6027 25.3875 19.6543 25.4166 19.6698 25.4325C19.7672 25.5309 20.2736 25.9418 20.2736 25.9418C20.2736 25.9418 20.5001 25.9201 20.639 25.8617C20.5511 25.7226 20.5148 25.3863 20.5001 25.2187ZM19.8807 22.3319C19.8807 22.3319 19.6669 22.5952 19.9081 22.6611C19.9137 22.7374 19.9438 22.8887 19.9741 22.9679C20.0142 23.0737 20.0835 23.0391 20.1603 22.9514C20.237 22.8637 20.3604 22.6972 20.4508 22.6006C20.5329 22.5131 20.8191 22.5445 20.703 22.7209C20.6262 22.8379 20.5659 22.8695 20.4673 22.8911C20.3893 22.9083 20.3658 22.8416 20.281 22.9572C20.1916 23.0781 20.0961 23.1627 20.2535 23.1627C20.3357 23.1627 20.4919 23.2392 20.5961 23.2225C20.6941 23.2073 20.705 23.1433 20.7158 23.0554C20.7265 22.9642 20.7087 22.9111 20.8109 22.8546C20.9421 22.7811 21.1359 22.6062 21.1947 22.5441C21.2615 22.4727 21.3478 22.4892 21.4355 22.4892C21.5232 22.4892 21.9468 22.5403 22.1992 22.1621C22.3769 21.8955 22.3965 21.5321 22.3306 21.2032C22.4511 21.3237 22.6133 21.7028 22.5279 22.0579C22.376 22.6908 22.0647 22.7261 21.7496 22.7925C21.6181 22.9784 21.282 23.4571 21.1031 24.3271C21.0263 24.3781 20.3906 24.992 20.9221 25.9991C20.7851 26.0441 20.3811 26.2171 20.1421 26.2705C19.9814 26.3076 19.847 26.3159 19.7822 26.3933C19.7092 26.4808 19.541 26.7661 19.6287 26.9081C19.6908 27.0094 20.0891 27.9002 20.1219 28.1747C20.1549 28.4483 20.2539 28.5135 20.352 28.6022C20.4617 28.7007 20.5329 28.6951 20.6865 28.8106C20.8416 28.9266 20.9706 29.1363 21.114 29.2487C21.2673 29.3692 21.4392 29.4241 21.5597 29.4128C21.5304 28.9675 21.4353 28.529 21.2966 28.3831C21.1524 28.2308 20.9714 28.4483 20.9277 28.4596C20.8839 28.4704 20.8226 28.4281 20.796 28.3059C20.7686 28.1796 20.8839 28.0756 20.7742 27.9114C20.6243 27.6849 20.4834 27.4526 20.352 27.215C20.2096 26.9364 20.4514 26.8615 20.5111 26.8757C20.6536 26.9081 21.5085 27.0237 21.64 27.0346C21.7714 27.0451 21.8443 27.0676 21.9033 27.0012C22.0841 26.799 22.1881 26.6508 22.2923 26.4422C22.4842 26.5852 22.3525 26.8592 22.2978 27.184C22.3525 27.2319 23.5912 27.8567 25.294 27.4036C26.0049 27.2145 25.924 27.3635 25.9917 27.4948C26.4046 28.2954 26.697 28.6049 27.1866 28.9966C27.3327 29.1136 27.4349 29.3034 27.5007 29.4128C27.5667 29.5227 27.5832 29.7177 27.53 29.8444C27.4642 30.0013 27.0839 30.6835 27.0185 30.7794C26.8942 30.9622 26.732 31.1158 26.5944 31.1886C26.1633 31.4189 26.0558 31.6256 26.0084 31.7866H27.1152C27.1152 31.7866 27.141 31.7288 27.128 31.5906C27.1097 31.3972 27.2851 31.3646 27.3399 31.3533C27.3946 31.3423 27.4935 31.3859 27.581 31.1779C27.746 30.7862 28.3886 29.6944 28.4435 29.5956C28.4982 29.497 28.699 29.2334 28.5019 29.1171C28.129 28.8983 27.9103 28.5376 27.8368 28.1338C27.8075 27.9733 27.8251 27.7087 28.1876 27.2573C28.9623 26.293 28.3849 24.3052 26.6606 24.3418C25.6826 24.3624 25.1382 24.279 24.501 24.1519C24.268 24.1047 24.2282 23.9796 24.2782 23.837C24.3293 23.6911 24.3786 23.4008 24.3803 23.282C24.2123 23.1286 23.9567 23.0337 23.8322 22.99C23.6985 22.9427 23.6312 22.836 23.7666 22.8255C23.9018 22.8144 24.4133 22.8693 24.4133 22.8693C24.4133 22.8693 24.4315 22.5952 24.3584 22.1933C24.1065 22.0863 23.8409 22.0149 23.5693 21.9811C23.4924 21.9716 23.4249 21.8852 23.6203 21.8573C23.8762 21.8208 24.11 21.8608 24.293 21.8497C24.3037 21.828 24.2051 21.3165 24.0241 21.1099C23.8983 21.0718 23.8314 21.0542 23.3939 21.0022C23.2404 20.9839 23.233 20.9399 23.3353 20.9067C23.4544 20.8691 23.6515 20.8305 23.8983 20.8464C23.8033 20.7154 23.1674 19.5553 21.8484 19.9044C21.9961 20.085 22.0675 20.169 22.1113 20.2934C22.1507 20.4048 22.0331 20.4401 21.9252 20.3266C21.5085 19.8877 21.2892 19.8987 21.0207 19.8491C21.1961 20.0194 21.2729 20.1896 21.3331 20.359C21.0319 20.5728 20.6043 21.0825 20.5439 21.1811C20.4291 21.3689 20.5878 21.47 20.5878 21.47L19.8807 22.3319ZM28.4031 19.3946C27.055 19.8657 27.2537 21.319 27.6177 21.8792C28.0927 22.6099 28.4947 22.6245 28.798 23.4829C29.0343 24.1527 28.6115 24.5023 28.1948 24.6558C28.9074 25.0947 29.6418 24.6414 29.9049 24.2029C30.3894 23.5572 29.8405 22.7186 30.358 22.281C30.4965 22.164 30.7307 22.0837 31.0451 22.069C30.7305 21.6233 29.9928 21.6745 29.6967 22.0911C29.4884 21.6087 28.9037 21.1869 29.1158 20.4395C29.2547 19.9498 30.0291 19.7672 30.3213 20.1692C30.4812 20.389 30.5041 20.8194 30.0365 21.0387C30.3287 21.0169 30.884 20.5126 30.5041 19.8258C30.2373 19.3432 29.7881 19.3064 29.4228 19.3064C28.7576 19.3064 27.6544 20.067 28.3595 21.7073C27.9538 21.3458 27.2962 20.085 28.4031 19.3946ZM31.7667 17.6866V32.8353C23.3925 34.8742 23.1509 30.4237 16.662 32.8353C16.6627 33.0319 16.6592 17.6852 16.662 17.6866C22.6249 15.1873 24.949 19.9226 31.7667 17.6866Z" fill="#BE2F37"/>
<mask id="mask3" style="mask-type:alpha" maskUnits="userSpaceOnUse" x="0" y="16" width="16" height="18">
<path d="M0 16.9363V33.3868H15.0935V16.9363H0Z" fill="white"/>
</mask>
<g mask="url(#mask3)">
<path fill-rule="evenodd" clip-rule="evenodd" d="M5.48191 26.3287C5.48191 26.3287 5.21695 26.5016 5.54897 27.23C5.88057 27.9576 6.29265 28.6352 5.57559 29.4348C5.98209 29.4398 6.86939 28.9037 5.91998 27.3057C5.70167 26.9378 5.46602 26.683 5.48191 26.3287ZM4.58367 26.6718C4.80323 26.6568 4.83108 26.3881 4.79126 26.2468C4.74442 26.0796 4.46585 26.059 4.39878 26.2715C4.33234 26.482 4.39032 26.6863 4.39032 26.6863C4.44542 26.8889 4.67364 26.9469 4.69324 26.9265C4.56655 26.8128 4.6008 26.7476 4.58367 26.6718ZM4.79477 27.639C4.74173 28.2822 4.37278 28.3769 4.37278 28.3769C3.72898 28.0812 3.38355 28.8915 3.92398 29.1301C4.60864 29.4328 5.02773 28.5478 5.06838 28.3841C5.18373 27.9202 5.19467 27.5922 5.14267 26.839C5.09892 26.197 5.2574 26.0998 5.36305 26.0825C5.46829 26.0644 5.68867 26.0557 5.90843 26.7249C6.1286 27.3934 6.6032 27.4902 6.6032 27.4902C6.6032 27.4902 5.91586 26.3718 6.87187 25.3392C7.31634 24.8593 8.22283 24.5865 8.05507 23.9142C8.05507 23.9142 7.91475 24.1552 7.64196 24.2258C7.36917 24.2959 6.84112 24.3754 6.84112 24.3754C6.84112 24.3754 8.10851 23.7768 8.33715 23.0907C8.33715 23.0907 8.73313 23.7506 8.20508 24.7183C8.20508 24.7183 8.70795 24.5386 9.249 24.7827C10.628 25.3941 10.4817 27.3579 8.73664 27.8268C6.25324 28.4931 7.15498 30.4142 8.57713 30.532C8.42443 30.435 8.38997 29.856 8.63965 29.5118C8.76449 29.401 8.98735 29.1769 9.1287 29.648C9.37838 30.4804 10.1072 30.5481 10.4452 30.4441C10.3565 30.369 10.1904 30.116 10.211 29.9701C10.2527 29.6787 10.6167 29.9815 10.7489 30.0188C11.727 30.2966 12.247 30.0539 12.3027 29.9074C12.0844 29.8624 12.1226 29.8874 11.9837 29.8525C11.8546 29.8195 11.6034 29.6412 12.0741 29.5333C12.9379 29.3352 13.4131 28.4438 12.8442 27.7574C12.3011 27.1013 11.6164 27.2017 11.3942 27.2919C12.3308 27.4937 12.3779 28.2473 11.9006 28.6311C11.4844 28.9435 10.4506 29.0682 10.0967 28.3744C9.87299 28.5362 9.79479 28.7945 9.83317 29.1169C9.73928 29.0818 9.34722 28.524 9.92995 28.0624C12.6323 26.3202 12.1963 23.3926 9.90911 22.1877L9.88084 22.1753C7.80601 20.9834 5.99076 22.0713 5.99076 22.0713C7.27363 20.7864 9.49043 21.5507 9.80944 21.7102C9.80944 21.7102 9.55439 21.4884 9.41862 21.2847C9.24281 21.0212 9.24941 20.7693 9.24941 20.7693C8.36954 21.2604 8.14235 20.5057 8.14235 20.5057C8.14235 20.5057 7.38031 21.1927 6.88569 20.6341C6.45319 20.145 7.15333 19.4821 7.15333 19.4821C2.68919 20.9471 3.53522 23.4681 3.53522 23.4681C3.53522 23.4681 2.88873 24.0617 2.74408 25.493C2.57962 27.1184 3.38933 28.2741 4.40105 27.9566C4.63278 27.8841 4.74772 27.7735 4.7925 27.6516L4.79456 27.639H4.79477ZM15.0922 17.6866C15.0946 17.6852 15.0911 33.0319 15.0922 32.8353C8.60251 30.4239 8.36149 34.874 -0.0129395 32.8353V17.6866C6.8048 19.9226 9.1289 15.1873 15.0922 17.6866Z" fill="#BE2F37"/>
</g>
</svg>