<svg width="420" height="400" viewBox="0 0 420 400" fill="none" xmlns="http://www.w3.org/2000/svg">
<path d="M273.62 17.19C256.66 10.83 238.97 5.51 220.86 5.59C196.46 5.7 173.26 15.55 151.07 25.68C110.2 44.33 77.98 73.56 44.48 103.25C17.36 127.28 12.91 177.11 13.73 210.96C13.83 215.04 13.93 219.15 14.12 223.25C14.69 235.87 16.04 248.45 20.47 260.22C27.56 279.09 44.02 295.01 56.44 310.54C69.89 327.35 83.07 341.38 101.18 353.38C121.68 366.97 151 390.31 176.29 392.45C208.13 395.14 232.5 396.44 263.11 386.9C295.7 376.74 331.42 361.91 354.88 335.93C367.18 322.31 375.21 302.86 384.36 287.01C402.22 256.1 409.62 222.77 405.03 187.24C400.22 150.05 385.61 121.55 370.2 88.31C350.41 45.62 315.64 32.94 273.62 17.19Z" fill="#EBF2D4"/>
<path d="M288.66 55.38V200.23H124.34V55.8L288.66 55.38ZM291.2 52.84L121.81 53.28V202.77H291.2V52.84Z" fill="#ADCB53"/>
<path d="M291.2 37.27H121.81V56.91H291.2V37.27Z" fill="#A8C653"/>
<path d="M282.552 41.7153L273.791 50.4764L275.856 52.5411L284.617 43.7801L282.552 41.7153Z" fill="#006D68"/>
<path d="M275.848 41.7195L273.784 43.7842L282.545 52.5453L284.61 50.4806L275.848 41.7195Z" fill="#006D68"/>
<path d="M261.31 43.35V51.19H252.5V43.35H261.31ZM262.66 42.01H251.15V52.55H262.66V42.01Z" fill="#006D68"/>
<path d="M239.99 50.22H228.48V52.54H239.99V50.22Z" fill="#006D68"/>
<path d="M206.5 116.26C197.38 116.26 189.96 108.84 189.96 99.71C189.96 99.63 189.96 99.54 189.98 99.46C190.15 93.62 196.39 82 201.64 73.22C202.67 71.49 204.49 70.45 206.5 70.45C208.52 70.45 210.34 71.48 211.38 73.22C216.7 82.13 223.04 93.95 223.04 99.71C223.04 108.83 215.62 116.26 206.5 116.26ZM192.49 99.93C192.61 107.56 198.85 113.73 206.5 113.73C214.15 113.73 220.52 107.44 220.52 99.71C220.52 95.67 216.51 86.72 209.22 74.52C208.64 73.56 207.63 72.98 206.51 72.98C205.39 72.98 204.39 73.56 203.81 74.52C196.63 86.55 192.51 95.73 192.51 99.71C192.51 99.78 192.51 99.86 192.49 99.93Z" fill="#ADCB53"/>
<path d="M206.49 124.1C205.79 124.1 205.22 123.53 205.22 122.83V91.7101C205.22 91.0101 205.79 90.4401 206.49 90.4401C207.19 90.4401 207.76 91.0101 207.76 91.7101V122.83C207.76 123.53 207.19 124.1 206.49 124.1Z" fill="#ADCB53"/>
<path d="M202.68 91.91C202.68 89.81 204.39 88.1 206.49 88.1C208.59 88.1 210.3 89.81 210.3 91.91C210.3 94.01 208.59 95.72 206.49 95.72C204.39 95.72 202.68 94.01 202.68 91.91Z" fill="#ADCB53"/>
<path d="M180.2 114.2C179.94 114.2 179.68 114.12 179.45 113.95L164.92 103.23C164.6 102.99 164.41 102.61 164.41 102.21C164.41 101.81 164.6 101.43 164.92 101.19L179.45 90.47C180.01 90.06 180.8 90.17 181.22 90.74C181.63 91.3 181.51 92.09 180.95 92.51L167.8 102.21L180.95 111.91C181.51 112.33 181.63 113.12 181.22 113.68C180.97 114.02 180.59 114.19 180.2 114.19V114.2Z" fill="#ADCB53"/>
<path d="M232.81 114.2C232.42 114.2 232.04 114.02 231.79 113.69C231.37 113.13 231.49 112.34 232.06 111.92L245.2 102.22L232.06 92.52C231.5 92.1 231.38 91.31 231.79 90.75C232.2 90.19 233 90.07 233.56 90.48L248.08 101.2C248.4 101.44 248.59 101.82 248.59 102.22C248.59 102.62 248.4 103 248.08 103.24L233.56 113.96C233.33 114.13 233.07 114.21 232.81 114.21V114.2Z" fill="#ADCB53"/>
<path d="M246.88 135.1H229.58C228.88 135.1 228.32 134.53 228.32 133.83C228.32 133.13 228.89 132.56 229.58 132.56H246.88C247.58 132.56 248.14 133.13 248.14 133.83C248.14 134.53 247.57 135.1 246.88 135.1Z" fill="#ADCB53"/>
<path d="M221.3 135.1H189.6C188.9 135.1 188.33 134.53 188.33 133.83C188.33 133.13 188.9 132.56 189.6 132.56H221.3C222 132.56 222.56 133.13 222.56 133.83C222.56 134.53 221.99 135.1 221.3 135.1Z" fill="#ADCB53"/>
<path d="M180.17 135.1H166.12C165.42 135.1 164.85 134.53 164.85 133.83C164.85 133.13 165.42 132.56 166.12 132.56H180.17C180.87 132.56 181.44 133.13 181.44 133.83C181.44 134.53 180.87 135.1 180.17 135.1Z" fill="#ADCB53"/>
<path d="M246.88 153.43H233.22C232.52 153.43 231.96 152.86 231.96 152.16C231.96 151.46 232.53 150.89 233.22 150.89H246.88C247.58 150.89 248.14 151.46 248.14 152.16C248.14 152.86 247.57 153.43 246.88 153.43Z" fill="#ADCB53"/>
<path d="M179.3 153.43H166.12C165.42 153.43 164.85 152.86 164.85 152.16C164.85 151.46 165.42 150.89 166.12 150.89H179.3C180 150.89 180.57 151.46 180.57 152.16C180.57 152.86 180 153.43 179.3 153.43Z" fill="#ADCB53"/>
<path d="M227.7 153.43H185.3C184.6 153.43 184.03 152.86 184.03 152.16C184.03 151.46 184.6 150.89 185.3 150.89H227.7C228.4 150.89 228.96 151.46 228.96 152.16C228.96 152.86 228.39 153.43 227.7 153.43Z" fill="#ADCB53"/>
<path d="M246.88 171.74H213.44C212.74 171.74 212.18 171.17 212.18 170.47C212.18 169.77 212.75 169.2 213.44 169.2H246.88C247.58 169.2 248.14 169.77 248.14 170.47C248.14 171.17 247.57 171.74 246.88 171.74Z" fill="#ADCB53"/>
<path d="M198.59 171.74H166.12C165.42 171.74 164.85 171.17 164.85 170.47C164.85 169.77 165.42 169.2 166.12 169.2H198.59C199.29 169.2 199.86 169.77 199.86 170.47C199.86 171.17 199.29 171.74 198.59 171.74Z" fill="#ADCB53"/>
<path d="M230.95 342.14H182.05V376.01H230.95V342.14Z" fill="#007872"/>
<path d="M206.5 380.08C220.003 380.08 230.95 378.258 230.95 376.01C230.95 373.762 220.003 371.94 206.5 371.94C192.997 371.94 182.05 373.762 182.05 376.01C182.05 378.258 192.997 380.08 206.5 380.08Z" fill="#007872"/>
<path d="M206.5 345.22C220.003 345.22 230.95 343.398 230.95 341.15C230.95 338.902 220.003 337.08 206.5 337.08C192.997 337.08 182.05 338.902 182.05 341.15C182.05 343.398 192.997 345.22 206.5 345.22Z" fill="#003834"/>
<path d="M230.52 304.11C232.59 303.76 234.27 302.08 234.49 299.89C234.76 297.26 232.84 294.9 230.21 294.63C227.58 294.36 225.22 296.28 224.95 298.91C224.79 300.44 225.39 301.87 226.43 302.86C223.41 310.14 216.58 315.3 208.64 316.09V295.73C214.09 295.07 218.94 291.92 221.83 287.33C224.12 287.28 226.11 285.61 226.47 283.27C226.87 280.65 225.07 278.21 222.45 277.8C219.83 277.39 217.39 279.2 216.98 281.82C216.77 283.18 217.17 284.49 217.95 285.49C215.81 288.65 212.43 290.84 208.63 291.45V271.55C210.21 270.76 211.3 269.15 211.3 267.27C211.3 264.62 209.15 262.47 206.5 262.47C203.85 262.47 201.7 264.62 201.7 267.27C201.7 269.15 202.79 270.76 204.37 271.55V291.45C200.56 290.85 197.18 288.65 195.04 285.49C195.83 284.49 196.22 283.18 196.01 281.82C195.61 279.2 193.16 277.4 190.55 277.8C187.94 278.2 186.13 280.65 186.53 283.27C186.89 285.61 188.88 287.28 191.17 287.33C194.05 291.93 198.92 295.08 204.37 295.73V316.09C196.42 315.3 189.58 310.14 186.56 302.86C187.6 301.87 188.19 300.45 188.04 298.91C187.77 296.28 185.42 294.36 182.78 294.63C180.15 294.9 178.23 297.25 178.5 299.89C178.72 302.08 180.4 303.76 182.47 304.11C186.05 313.16 194.54 319.56 204.37 320.37V341.06H208.62V320.37C218.45 319.55 226.92 313.16 230.5 304.12H230.52V304.11Z" fill="#AECC53"/>
<path d="M296.87 295.33C341.831 295.33 378.28 258.882 378.28 213.92C378.28 168.959 341.831 132.51 296.87 132.51C251.908 132.51 215.46 168.959 215.46 213.92C215.46 258.882 251.908 295.33 296.87 295.33Z" fill="#006D68"/>
<path d="M310.06 214.83C310.13 211.33 310.47 208.06 311.42 204.9C313.13 199.24 316.86 195.42 322.32 193.23C327.28 191.24 332.42 190.72 337.69 191.36C341.11 191.77 344.38 192.7 347.44 194.3C352.02 196.71 355.16 200.3 356.48 205.38C358.18 211.96 358.12 218.46 355.71 224.88C354.07 229.23 351.09 232.41 346.92 234.28C338.42 238.11 329.83 238.23 321.3 234.32C314.88 231.38 311.45 226.21 310.42 219.32C310.19 217.77 310.09 216.2 310.07 214.83H310.06ZM341.02 213.82C340.96 211.95 341.05 209.93 340.86 207.91C340.58 204.88 339.32 203.23 336.55 202.55C334.66 202.08 332.76 202.11 330.88 202.66C328.85 203.25 327.58 204.52 327.15 206.66C326.64 209.21 326.48 211.77 326.58 214.35C326.67 216.73 326.61 219.13 327.18 221.46C327.63 223.28 328.57 224.66 330.43 225.32C332.23 225.96 334.07 226.16 335.95 225.81C338.87 225.28 340.37 223.65 340.75 220.72C341.04 218.47 341.03 216.22 341.02 213.82Z" fill="white"/>
<path d="M267.2 227.96C267.2 225.45 267.21 222.93 267.2 220.42C267.2 219.93 267.36 219.8 267.83 219.8C270.34 219.8 272.86 219.8 275.37 219.76C275.73 219.76 275.97 219.84 276.17 220.16C278.83 224.52 283.01 226.2 287.83 226.69C289.83 226.89 291.82 226.65 293.77 226.15C293.89 226.12 294.03 226.1 294.14 226.05C294.64 225.8 295.15 225.54 295.21 224.88C295.26 224.25 294.89 223.86 294.4 223.59C293.32 223 292.12 222.72 290.96 222.35C286.4 220.9 281.77 219.66 277.26 218.08C273.79 216.87 270.81 214.97 268.69 211.89C267.15 209.65 266.74 207.1 266.8 204.46C266.88 200.9 268.04 197.75 270.76 195.33C273 193.34 275.7 192.25 278.61 191.66C284.09 190.54 289.42 191.16 294.59 193.23C295.56 193.62 296.46 194.19 297.38 194.7C297.78 194.92 297.97 194.88 297.99 194.4C298.01 193.86 298.03 193.33 298.03 192.79C298.03 192.44 298.16 192.3 298.52 192.29C301.31 192.23 304.1 192.15 306.9 192.25C307.27 192.25 307.37 192.4 307.38 192.75C307.47 197.48 307.58 202.2 307.51 206.93C307.51 207.39 307.35 207.51 306.91 207.51C304.2 207.51 301.5 207.53 298.79 207.54C298.53 207.54 298.3 207.54 298.12 207.26C296.04 204.17 292.95 202.64 289.48 201.74C287.56 201.24 285.59 201.05 283.61 201.05C282.71 201.05 281.85 201.2 281.12 201.76C280.06 202.57 280.19 203.81 281.36 204.46C282.35 205 283.45 205.24 284.51 205.56C289.1 206.92 293.73 208.15 298.28 209.63C303.29 211.26 306.96 214.51 308.48 219.65C310.27 225.73 307.31 232.58 300.92 235.31C297.2 236.9 293.3 237.29 289.3 236.95C286.39 236.7 283.59 236.01 280.87 234.95C279.72 234.5 278.7 233.83 277.61 233.27C277.13 233.02 276.93 233.06 276.94 233.65C276.95 234.27 276.9 234.9 276.89 235.52C276.89 235.88 276.77 236.06 276.37 236.06C273.49 236.06 270.61 236.09 267.73 236.13C267.25 236.13 267.23 235.91 267.21 235.54C267.07 233.01 267.14 230.47 267.22 227.94L267.2 227.96Z" fill="white"/>
<path d="M250.33 236.14C245.84 236.14 241.35 236.14 236.86 236.14C236.29 236.14 236.15 235.98 236.14 235.42C236.07 232.35 236.07 229.28 236.14 226.2C236.14 225.67 236.3 225.5 236.83 225.5C238.51 225.5 240.18 225.42 241.86 225.43C242.44 225.43 242.61 225.22 242.6 224.69C242.58 223.66 242.6 222.63 242.6 221.6V203.49C242.6 202.64 242.6 202.63 241.72 202.6C240.09 202.55 238.46 202.5 236.82 202.49C236.38 202.49 236.23 202.36 236.22 201.91C236.16 198.69 236.16 195.47 236.22 192.24C236.22 191.7 236.44 191.61 236.91 191.6C241.4 191.48 245.89 191.57 250.38 191.57C254.87 191.57 259.23 191.61 263.66 191.6C264.27 191.6 264.48 191.75 264.5 192.37C264.59 195.59 264.54 198.81 264.53 202.04C264.53 202.46 264.35 202.54 263.99 202.54C262.23 202.54 260.47 202.59 258.71 202.59C258.21 202.59 258.03 202.73 258.03 203.24C258.02 210.44 258 217.63 257.95 224.83C257.95 225.36 258.24 225.39 258.59 225.39C260.16 225.42 261.73 225.44 263.29 225.47C264.12 225.48 264.53 225.9 264.53 226.72C264.53 229.64 264.52 232.56 264.54 235.49C264.54 236 264.39 236.14 263.89 236.14C259.38 236.12 254.87 236.14 250.35 236.14H250.33Z" fill="white"/>
<path d="M252.65 186.71C253.51 185.34 254.39 184.13 255.32 182.95C262.89 173.42 272.62 167.34 284.51 164.77C289.34 163.72 294.24 163.38 299.18 163.83C315.28 165.3 327.86 172.81 337.14 185.96C337.27 186.14 337.55 186.33 337.39 186.56C337.27 186.74 336.96 186.72 336.72 186.71C335.95 186.71 335.37 186.53 334.86 185.79C332.32 182.13 329.23 178.98 325.75 176.2C325.4 175.92 325.11 175.92 324.77 176.12C323.34 176.95 321.91 177.78 320.48 178.61C319.98 178.9 320.28 179.16 320.51 179.43C322.16 181.28 323.64 183.25 325.01 185.31C325.2 185.59 325.35 185.91 325.55 186.19C325.84 186.59 325.63 186.69 325.26 186.74C324.42 186.85 323.76 186.74 323.22 185.89C321.92 183.84 320.38 181.95 318.77 180.14C318.47 179.8 318.23 179.71 317.79 179.9C315.3 180.94 312.79 181.97 310.17 182.66C309.75 182.77 309.67 182.95 309.86 183.35C310.28 184.27 310.65 185.21 311.07 186.12C311.3 186.62 311.13 186.74 310.64 186.79C309.87 186.86 309.3 186.73 308.99 185.88C308.74 185.18 308.29 184.55 307.98 183.87C307.78 183.42 307.49 183.33 307.05 183.44C304.88 183.97 302.67 184.3 300.44 184.52C299.2 184.64 297.96 184.76 296.71 184.81C296.19 184.83 296.06 185.05 296.05 185.51C296.02 187 296.25 186.74 294.64 186.78C294.26 186.78 294.18 186.6 294.17 186.27C294.11 184.77 294.1 184.79 292.6 184.72C289.36 184.57 286.14 184.19 282.96 183.5C282.45 183.39 282.17 183.46 281.95 183.96C281.62 184.73 281.24 185.48 280.88 186.23C280.64 186.73 279.38 187.08 278.93 186.77C278.7 186.62 278.89 186.46 278.94 186.32C279.33 185.39 279.7 184.45 280.14 183.54C280.39 183.02 280.23 182.8 279.73 182.66C277.22 181.97 274.81 181.01 272.38 180.08C271.95 179.91 271.69 179.98 271.39 180.32C269.69 182.15 268.2 184.15 266.8 186.21C266.41 186.78 265.39 187.07 264.76 186.83C264.49 186.72 264.59 186.58 264.68 186.44C265.06 185.82 265.43 185.19 265.83 184.58C266.99 182.84 268.27 181.21 269.6 179.6C269.94 179.19 269.96 178.98 269.46 178.7C268.03 177.91 266.63 177.08 265.23 176.24C264.89 176.03 264.68 176.17 264.43 176.35C262.14 178.01 260.14 179.99 258.28 182.11C257.16 183.39 256.05 184.68 255.13 186.11C254.63 186.88 253.99 186.82 253.28 186.78C253.11 186.78 252.94 186.76 252.64 186.73V186.71H252.65ZM294.13 177.41C294.16 175.78 294.17 174.15 294.08 172.52C294.06 172.14 293.92 171.99 293.56 171.95C292.56 171.83 291.56 171.7 290.57 171.54C290.12 171.47 289.83 171.58 289.53 171.95C287.26 174.76 285.31 177.79 283.57 180.95C283.27 181.5 283.44 181.61 283.94 181.74C285.32 182.1 286.72 182.29 288.12 182.45C289.86 182.66 291.61 182.9 293.38 182.83C293.92 182.81 294.16 182.64 294.14 182.04C294.1 180.5 294.13 178.95 294.13 177.4V177.41ZM296.11 177.42C296.11 178.99 296.13 180.55 296.1 182.12C296.09 182.7 296.28 182.83 296.84 182.82C299.94 182.76 303 182.36 306.03 181.72C306.61 181.6 306.7 181.44 306.42 180.9C304.75 177.63 302.58 174.71 300.34 171.82C300.15 171.58 299.95 171.54 299.67 171.58C298.67 171.74 297.68 171.91 296.68 172.02C296.25 172.07 296.11 172.22 296.11 172.66C296.13 174.25 296.11 175.84 296.11 177.42ZM309.04 180.96C309.04 180.96 309.16 180.94 309.25 180.92C311.71 180.35 314.04 179.43 316.35 178.44C316.75 178.27 316.68 178.08 316.43 177.83C313.18 174.6 309.55 171.87 305.49 169.73C305.27 169.62 305.08 169.54 304.83 169.66C304.1 170.02 303.36 170.37 302.61 170.7C302.26 170.86 302.15 171.01 302.44 171.35C302.76 171.73 303.03 172.14 303.32 172.54C305.15 175.11 306.84 177.78 308.46 180.49C308.58 180.7 308.65 181 309.04 180.95V180.96ZM281.01 181.07C281.4 181.07 281.48 180.77 281.61 180.54C283.19 177.86 284.77 175.18 286.61 172.67C286.94 172.22 287.29 171.78 287.6 171.32C287.81 171.02 287.79 170.78 287.39 170.63C286.75 170.39 286.11 170.14 285.48 169.87C285.09 169.7 284.77 169.74 284.4 169.95C280.52 172.08 277.05 174.77 273.84 177.8C273.33 178.28 273.35 178.43 273.97 178.69C276.18 179.63 278.47 180.37 280.78 181.01C280.86 181.03 280.94 181.06 281 181.07H281.01ZM305.88 166.75C305.59 166.66 305.45 166.61 305.31 166.58C298.46 165.02 291.61 165.14 284.76 166.58C284.61 166.61 284.36 166.58 284.33 166.78C284.3 167.03 284.55 167.12 284.73 167.23C290.36 170.71 296.27 170.99 302.38 168.72C303.6 168.27 304.75 167.64 305.89 166.75H305.88ZM281.62 167.44C280.73 167.51 280.08 167.8 279.4 168.03C277.27 168.77 275.19 169.62 273.17 170.63C271.02 171.71 268.97 172.96 267.01 174.37C266.68 174.61 266.55 174.76 266.98 175.05C268.25 175.9 269.55 176.68 270.96 177.28C271.35 177.45 271.6 177.42 271.91 177.11C273.7 175.31 275.64 173.68 277.65 172.14C279.22 170.94 280.84 169.82 282.5 168.75C282.65 168.65 283.04 168.56 282.81 168.33C282.43 167.94 282.01 167.56 281.61 167.44H281.62ZM308.54 167.4C308.11 167.4 307.85 167.73 307.54 167.95C307.14 168.24 307.16 168.46 307.62 168.73C311.49 171.05 315.05 173.76 318.23 176.96C318.59 177.32 318.88 177.34 319.3 177.09C320.5 176.39 321.73 175.71 322.94 175.03C323.57 174.67 323.57 174.61 322.97 174.18C318.78 171.25 314.26 169.03 309.34 167.61C309.07 167.53 308.8 167.46 308.53 167.39H308.54V167.4Z" fill="white"/>
<path d="M264.63 240.95C265.07 240.9 265.45 240.83 265.83 240.81C266.29 240.79 266.61 240.97 266.87 241.4C268.25 243.64 269.92 245.66 271.66 247.62C271.89 247.88 272.12 247.93 272.45 247.8C274.99 246.74 277.57 245.8 280.21 245.04C280.69 244.9 280.75 244.69 280.55 244.25C280.12 243.31 279.75 242.35 279.33 241.41C279.15 241 279.26 240.89 279.67 240.85C280.75 240.75 280.92 240.83 281.41 241.8C281.76 242.49 282.12 243.17 282.45 243.87C282.6 244.2 282.78 244.29 283.15 244.22C286.54 243.52 289.97 243.12 293.43 242.93C294.38 242.88 294.44 242.8 294.42 241.86C294.42 241.67 294.42 241.47 294.41 241.28C294.4 241.02 294.51 240.87 294.79 240.9H294.85C296.2 240.81 296.22 240.81 296.21 242.15C296.21 242.68 296.39 242.83 296.91 242.87C300.47 243.12 304.01 243.48 307.51 244.24C307.96 244.34 308.21 244.24 308.4 243.8C308.79 242.94 309.23 242.1 309.66 241.26C309.82 240.95 311.25 240.71 311.47 240.95C311.61 241.1 311.47 241.28 311.43 241.43C311.14 242.38 310.66 243.25 310.24 244.14C310 244.66 310.17 244.88 310.67 245.01C313.25 245.7 315.72 246.69 318.18 247.7C318.55 247.85 318.75 247.78 319 247.51C320.79 245.63 322.25 243.51 323.7 241.38C323.97 240.97 325.4 240.66 325.79 240.92C326.02 241.08 325.83 241.23 325.75 241.35C325.19 242.24 324.63 243.14 324.04 244C323.04 245.45 321.94 246.83 320.81 248.18C320.47 248.59 320.56 248.76 320.96 248.99C322.34 249.78 323.71 250.59 325.08 251.39C325.53 251.66 325.93 251.65 326.37 251.28C329.8 248.44 332.78 245.18 335.36 241.56C335.77 240.99 336.95 240.65 337.58 240.92C337.88 241.04 337.68 241.2 337.6 241.32C337.1 242.05 336.61 242.78 336.09 243.49C328.89 253.17 319.52 259.69 307.79 262.61C295.63 265.63 283.84 264.36 272.62 258.78C264.62 254.8 258.1 249.03 253.15 241.56C253.04 241.39 252.79 241.21 252.9 241.01C253.01 240.82 253.29 240.93 253.5 240.9C254.33 240.77 254.89 241.02 255.41 241.79C257.93 245.46 261 248.64 264.46 251.44C264.81 251.72 265.08 251.77 265.49 251.55C266.97 250.77 268.38 249.86 269.83 249.02C270.27 248.77 270.05 248.57 269.86 248.33C268.5 246.64 267.14 244.95 265.94 243.14C265.48 242.45 265.02 241.75 264.63 240.95ZM296.36 250.28V255.18C296.36 255.39 296.25 255.69 296.61 255.74C297.82 255.92 299.03 256.09 300.24 256.25C300.52 256.29 300.72 256.17 300.89 255.94C303.12 253.02 305.17 249.97 306.91 246.73C307.17 246.25 307.07 246.07 306.55 245.95C303.37 245.24 300.15 244.93 296.91 244.79C296.44 244.77 296.35 244.95 296.33 245.37C296.24 247 296.24 248.63 296.35 250.27H296.36V250.28ZM294.44 250.28H294.39C294.39 248.65 294.38 247.02 294.39 245.38C294.39 244.94 294.25 244.76 293.8 244.8C293.01 244.86 292.21 244.86 291.42 244.92C289.02 245.09 286.64 245.44 284.28 245.91C283.92 245.98 283.57 246.05 283.84 246.57C285.63 249.91 287.67 253.08 290.09 256C290.24 256.18 290.39 256.28 290.64 256.24C291.72 256.07 292.8 255.9 293.89 255.77C294.32 255.72 294.46 255.54 294.45 255.11C294.43 253.5 294.45 251.89 294.45 250.28H294.44ZM281.37 246.62C281.37 246.62 281.29 246.64 281.25 246.65C278.76 247.32 276.32 248.15 273.99 249.25C273.62 249.42 273.61 249.59 273.88 249.86C277.16 253.2 280.89 255.92 285.05 258.07C285.21 258.15 285.35 258.19 285.53 258.11C286.29 257.75 287.05 257.41 287.82 257.08C288.15 256.94 288.16 256.78 287.97 256.5C285.82 253.39 283.67 250.28 281.88 246.94C281.77 246.74 281.64 246.58 281.38 246.62H281.37ZM317.02 249.37C316.78 249.25 316.6 249.14 316.41 249.05C314.3 248.07 312.11 247.33 309.86 246.74C309.31 246.6 309.02 246.7 308.75 247.22C307.52 249.56 306.13 251.8 304.63 253.98C304.08 254.78 303.52 255.56 302.95 256.34C302.66 256.74 302.66 256.99 303.2 257.18C303.79 257.38 304.35 257.65 304.91 257.93C305.28 258.12 305.58 258.08 305.93 257.89C308.91 256.28 311.69 254.4 314.23 252.16C315.21 251.3 316.15 250.4 317.02 249.36V249.37ZM295.2 262.35C297.78 262.38 300.35 262.16 302.9 261.77C303.87 261.62 304.84 261.41 305.81 261.21C305.94 261.18 306.14 261.19 306.17 261C306.19 260.82 306.02 260.75 305.91 260.67C305.75 260.56 305.59 260.45 305.43 260.35C303 258.82 300.33 258 297.49 257.75C293.07 257.36 288.89 258.13 285.09 260.54C284.9 260.66 284.56 260.75 284.6 260.99C284.65 261.28 285.02 261.22 285.25 261.28C288.53 262.02 291.85 262.37 295.22 262.35H295.2ZM308.96 260.38C309.12 260.33 309.24 260.29 309.37 260.25C311.25 259.7 313.08 259.03 314.87 258.25C317.91 256.93 320.84 255.4 323.48 253.38C323.82 253.12 323.89 252.98 323.48 252.71C322.24 251.89 320.96 251.16 319.62 250.52C319.16 250.3 318.88 250.34 318.51 250.71C315.73 253.48 312.7 255.93 309.41 258.07C308.91 258.4 308.39 258.7 307.88 259.03C307.73 259.13 307.45 259.25 307.64 259.46C308.01 259.87 308.44 260.23 308.97 260.39H308.96V260.38ZM281.75 260.36C281.99 260.39 282.15 260.3 282.67 259.88C283.23 259.42 283.23 259.4 282.61 259C278.82 256.55 275.21 253.86 272 250.66C271.72 250.38 271.51 250.36 271.17 250.52C269.85 251.15 268.61 251.92 267.38 252.7C266.76 253.1 266.76 253.11 267.38 253.55C270.67 255.88 274.2 257.76 277.99 259.16C279.22 259.61 280.46 260.01 281.76 260.35H281.75V260.36Z" fill="white"/>
<path d="M116.13 140.66C156.59 140.66 189.4 173.46 189.4 213.93C189.4 254.4 156.6 287.2 116.13 287.2C75.66 287.2 42.86 254.4 42.86 213.93C42.86 173.46 75.66 140.66 116.13 140.66ZM116.13 132.51C105.14 132.51 94.48 134.66 84.44 138.91C74.74 143.01 66.04 148.88 58.56 156.35C51.09 163.82 45.22 172.53 41.12 182.23C36.87 192.27 34.72 202.93 34.72 213.92C34.72 224.91 36.87 235.57 41.12 245.61C45.22 255.31 51.09 264.01 58.56 271.49C66.03 278.96 74.74 284.83 84.44 288.93C94.48 293.18 105.14 295.33 116.13 295.33C127.12 295.33 137.78 293.18 147.82 288.93C157.52 284.83 166.22 278.96 173.7 271.49C181.17 264.02 187.04 255.31 191.14 245.61C195.39 235.57 197.54 224.91 197.54 213.92C197.54 202.93 195.39 192.27 191.14 182.23C187.04 172.53 181.17 163.83 173.7 156.35C166.23 148.88 157.52 143.01 147.82 138.91C137.78 134.66 127.12 132.51 116.13 132.51Z" fill="#006D68"/>
<path d="M116.13 287.19C156.596 287.19 189.4 254.386 189.4 213.92C189.4 173.454 156.596 140.65 116.13 140.65C75.6641 140.65 42.86 173.454 42.86 213.92C42.86 254.386 75.6641 287.19 116.13 287.19Z" fill="white"/>
<path d="M116.13 279.23C152.2 279.23 181.44 249.99 181.44 213.92C181.44 177.85 152.2 148.61 116.13 148.61C80.0602 148.61 50.8199 177.85 50.8199 213.92C50.8199 249.99 80.0602 279.23 116.13 279.23Z" fill="#AECC53"/>
<g opacity="0.3">
<path d="M115.09 217.91L74.47 213.92L115.09 209.93V217.91Z" fill="white"/>
<path d="M117.18 209.93L157.8 213.92L117.18 217.91V209.93Z" fill="white"/>
<path d="M120.12 214.97L116.13 255.58L112.15 214.97H120.12Z" fill="white"/>
<path d="M112.15 212.87L116.13 172.26L120.12 212.87H112.15Z" fill="white"/>
<path d="M113.54 215.44L94.6899 192.47L117.65 211.33L113.54 215.44Z" fill="white"/>
<path d="M118.73 212.41L137.58 235.37L114.62 216.52L118.73 212.41Z" fill="white"/>
<path d="M117.65 216.52L94.6899 235.37L113.54 212.41L117.65 216.52Z" fill="white"/>
<path d="M114.62 211.33L137.58 192.47L118.73 215.44L114.62 211.33Z" fill="white"/>
</g>
<path d="M88.45 227.94C86.25 227.34 84.47 226.54 83.1 225.54L85.54 219.97C87 220.88 88.55 221.58 90.21 222.07C91.87 222.56 93.54 222.8 95.22 222.8C96.9 222.8 98.24 222.56 99.14 222.09C100.04 221.62 100.49 220.96 100.49 220.1C100.49 219.33 100.08 218.7 99.27 218.22C98.46 217.73 96.91 217.25 94.62 216.76C91.79 216.16 89.58 215.45 87.98 214.62C86.38 213.79 85.26 212.82 84.62 211.71C83.98 210.6 83.66 209.23 83.66 207.6C83.66 205.74 84.18 204.08 85.22 202.61C86.26 201.14 87.73 199.98 89.63 199.14C91.53 198.3 93.7 197.88 96.16 197.88C98.33 197.88 100.43 198.19 102.48 198.8C104.52 199.41 106.11 200.21 107.25 201.18L104.85 206.75C102.11 204.87 99.23 203.92 96.2 203.92C94.74 203.92 93.57 204.2 92.69 204.76C91.8 205.32 91.36 206.05 91.36 206.97C91.36 207.51 91.52 207.95 91.83 208.3C92.14 208.64 92.73 208.98 93.59 209.31C94.45 209.64 95.72 209.97 97.4 210.32C100.14 210.92 102.3 211.64 103.87 212.48C105.44 213.32 106.55 214.3 107.21 215.41C107.87 216.52 108.19 217.85 108.19 219.39C108.19 222.36 107.05 224.68 104.76 226.35C102.48 228.02 99.26 228.85 95.13 228.85C92.87 228.85 90.65 228.55 88.45 227.95V227.94Z" fill="white"/>
<path d="M117.65 226.91C115.32 225.63 113.54 223.81 112.3 221.47C111.06 219.13 110.44 216.42 110.44 213.33C110.44 210.24 111.06 207.54 112.3 205.22C113.54 202.89 115.33 201.09 117.65 199.8C119.98 198.52 122.71 197.87 125.85 197.87C127.82 197.87 129.73 198.17 131.57 198.77C133.41 199.37 134.92 200.17 136.09 201.17L133.65 206.74C131.17 205 128.63 204.13 126.03 204.13C123.57 204.13 121.7 204.9 120.4 206.44C119.1 207.98 118.45 210.28 118.45 213.33C118.45 216.38 119.1 218.69 120.4 220.25C121.7 221.81 123.58 222.58 126.03 222.58C128.63 222.58 131.17 221.71 133.65 219.97L136.09 225.54C134.92 226.54 133.41 227.34 131.57 227.94C129.73 228.54 127.82 228.84 125.85 228.84C122.71 228.84 119.98 228.2 117.65 226.91Z" fill="white"/>
<path d="M141.3 198.27H149.18V228.46H141.3V198.27Z" fill="white"/>
<path d="M116.13 264.69C88.13 264.69 65.36 241.91 65.36 213.92C65.36 185.93 88.14 163.15 116.13 163.15C144.12 163.15 166.91 185.93 166.91 213.92C166.91 241.91 144.13 264.69 116.13 264.69ZM116.13 164.02C88.61 164.02 66.23 186.41 66.23 213.92C66.23 241.43 88.62 263.83 116.13 263.83C143.64 263.83 166.04 241.44 166.04 213.92C166.04 186.4 143.65 164.02 116.13 164.02Z" fill="white"/>
<path d="M116.13 279.28C80.09 279.28 50.78 249.96 50.78 213.93H54.77C54.77 247.77 82.3 275.3 116.14 275.3C149.98 275.3 177.51 247.77 177.51 213.93H181.5C181.5 249.97 152.18 279.28 116.15 279.28H116.13Z" fill="black"/>
<path d="M181.49 213.92H177.5C177.5 180.08 149.97 152.56 116.13 152.56C82.29 152.56 54.77 180.09 54.77 213.92H50.78C50.78 177.88 80.1 148.57 116.13 148.57C152.16 148.57 181.49 177.89 181.49 213.92Z" fill="#006E69"/>
<path d="M120.92 216.6L89.6799 262.79L111.34 211.41L120.92 216.6Z" fill="black"/>
<path d="M111.35 211.38L142.58 165.19L120.93 216.57L111.35 211.38Z" fill="#006E69"/>
<g opacity="0.3">
<path d="M117.47 226.91C115.14 225.63 113.36 223.81 112.12 221.47C110.88 219.13 110.26 216.42 110.26 213.33C110.26 210.24 110.88 207.54 112.12 205.22C113.36 202.89 115.15 201.09 117.47 199.8C119.8 198.52 122.53 197.87 125.67 197.87C127.64 197.87 129.55 198.17 131.39 198.77C133.23 199.37 134.74 200.17 135.91 201.17L133.47 206.74C130.99 205 128.45 204.13 125.85 204.13C123.39 204.13 121.52 204.9 120.22 206.44C118.92 207.98 118.27 210.28 118.27 213.33C118.27 216.38 118.92 218.69 120.22 220.25C121.52 221.81 123.4 222.58 125.85 222.58C128.45 222.58 130.99 221.71 133.47 219.97L135.91 225.54C134.74 226.54 133.23 227.34 131.39 227.94C129.55 228.54 127.64 228.84 125.67 228.84C122.53 228.84 119.8 228.2 117.47 226.91Z" fill="white"/>
</g>
<path d="M119.61 258.28H112.66L109.19 264.29L112.66 270.3H119.61L123.08 264.29L119.61 258.28Z" fill="#3C3C3C"/>
<path d="M122.03 165C122.03 168.26 119.39 170.9 116.13 170.9C112.87 170.9 110.23 168.26 110.23 165C110.23 161.74 116.13 154.52 116.13 154.52C116.13 154.52 122.03 161.75 122.03 165Z" fill="#006D68"/>
<path d="M116.13 171.33C115.89 171.33 115.69 171.14 115.69 170.89V160.48C115.69 160.24 115.88 160.04 116.13 160.04C116.38 160.04 116.57 160.23 116.57 160.48V170.89C116.57 171.13 116.38 171.33 116.13 171.33Z" fill="#AECC53"/>
<path d="M65.3899 214.57H56.9699C56.6099 214.57 56.3199 214.28 56.3199 213.92C56.3199 213.56 56.6099 213.27 56.9699 213.27H65.3899C65.7499 213.27 66.0399 213.56 66.0399 213.92C66.0399 214.28 65.7499 214.57 65.3899 214.57Z" fill="white"/>
<path d="M175.3 214.57H166.88C166.52 214.57 166.23 214.28 166.23 213.92C166.23 213.56 166.52 213.27 166.88 213.27H175.3C175.66 213.27 175.95 213.56 175.95 213.92C175.95 214.28 175.66 214.57 175.3 214.57Z" fill="white"/>
</svg>
