<svg xmlns="http://www.w3.org/2000/svg" width="420" height="400" fill="none" viewBox="0 0 420 400"><path fill="#ebf2d4" d="M273.62 17.19c-16.96-6.36-34.65-11.68-52.76-11.6-24.4.11-47.6 9.96-69.79 20.09-40.87 18.65-73.09 47.88-106.59 77.57-27.12 24.03-31.57 73.86-30.75 107.71.1 4.08.2 8.19.39 12.29.57 12.62 1.92 25.2 6.35 36.97 7.09 18.87 23.55 34.79 35.97 50.32 13.45 16.81 26.63 30.84 44.74 42.84 20.5 13.59 49.82 36.93 75.11 39.07 31.84 2.69 56.21 3.99 86.82-5.55 32.59-10.16 68.31-24.99 91.77-50.97 12.3-13.62 20.33-33.07 29.48-48.92 17.86-30.91 25.26-64.24 20.67-99.77-4.81-37.19-19.42-65.69-34.83-98.93-19.79-42.69-54.56-55.37-96.58-71.12"/><path fill="#adcb53" d="M288.66 55.38v144.85H124.34V55.8zm2.54-2.54-169.39.44v149.49H291.2z"/><path fill="#a8c653" d="M291.2 37.27H121.81v19.64H291.2z"/><path fill="#006d68" d="m282.552 41.715-8.761 8.761 2.065 2.065 8.761-8.76z"/><path fill="#006d68" d="m275.848 41.72-2.064 2.064 8.761 8.761 2.065-2.064zm-14.538 1.63v7.84h-8.81v-7.84zm1.35-1.34h-11.51v10.54h11.51zm-22.67 8.21h-11.51v2.32h11.51z"/><path fill="#adcb53" d="M206.5 116.26c-9.12 0-16.54-7.42-16.54-16.55 0-.08 0-.17.02-.25.17-5.84 6.41-17.46 11.66-26.24a5.62 5.62 0 0 1 4.86-2.77 5.63 5.63 0 0 1 4.88 2.77c5.32 8.91 11.66 20.73 11.66 26.49 0 9.12-7.42 16.55-16.54 16.55m-14.01-16.33c.12 7.63 6.36 13.8 14.01 13.8s14.02-6.29 14.02-14.02c0-4.04-4.01-12.99-11.3-25.19a3.147 3.147 0 0 0-5.41 0c-7.18 12.03-11.3 21.21-11.3 25.19 0 .07 0 .15-.02.22"/><path fill="#adcb53" d="M206.49 124.1c-.7 0-1.27-.57-1.27-1.27V91.71c0-.7.57-1.27 1.27-1.27s1.27.57 1.27 1.27v31.12c0 .7-.57 1.27-1.27 1.27"/><path fill="#adcb53" d="M202.68 91.91c0-2.1 1.71-3.81 3.81-3.81s3.81 1.71 3.81 3.81-1.71 3.81-3.81 3.81-3.81-1.71-3.81-3.81M180.2 114.2c-.26 0-.52-.08-.75-.25l-14.53-10.72c-.32-.24-.51-.62-.51-1.02s.19-.78.51-1.02l14.53-10.72a1.265 1.265 0 1 1 1.5 2.04l-13.15 9.7 13.15 9.7c.56.42.68 1.21.27 1.77-.25.34-.63.51-1.02.51zm52.61 0c-.39 0-.77-.18-1.02-.51-.42-.56-.3-1.35.27-1.77l13.14-9.7-13.14-9.7c-.56-.42-.68-1.21-.27-1.77s1.21-.68 1.77-.27l14.52 10.72c.32.24.51.62.51 1.02s-.19.78-.51 1.02l-14.52 10.72c-.23.17-.49.25-.75.25zm14.07 20.9h-17.3c-.7 0-1.26-.57-1.26-1.27s.57-1.27 1.26-1.27h17.3c.7 0 1.26.57 1.26 1.27s-.57 1.27-1.26 1.27m-25.58 0h-31.7c-.7 0-1.27-.57-1.27-1.27s.57-1.27 1.27-1.27h31.7c.7 0 1.26.57 1.26 1.27s-.57 1.27-1.26 1.27m-41.13 0h-14.05c-.7 0-1.27-.57-1.27-1.27s.57-1.27 1.27-1.27h14.05c.7 0 1.27.57 1.27 1.27s-.57 1.27-1.27 1.27m66.71 18.33h-13.66c-.7 0-1.26-.57-1.26-1.27s.57-1.27 1.26-1.27h13.66c.7 0 1.26.57 1.26 1.27s-.57 1.27-1.26 1.27m-67.58 0h-13.18c-.7 0-1.27-.57-1.27-1.27s.57-1.27 1.27-1.27h13.18c.7 0 1.27.57 1.27 1.27s-.57 1.27-1.27 1.27m48.4 0h-42.4c-.7 0-1.27-.57-1.27-1.27s.57-1.27 1.27-1.27h42.4c.7 0 1.26.57 1.26 1.27s-.57 1.27-1.26 1.27m19.18 18.31h-33.44c-.7 0-1.26-.57-1.26-1.27s.57-1.27 1.26-1.27h33.44c.7 0 1.26.57 1.26 1.27s-.57 1.27-1.26 1.27m-48.29 0h-32.47c-.7 0-1.27-.57-1.27-1.27s.57-1.27 1.27-1.27h32.47c.7 0 1.27.57 1.27 1.27s-.57 1.27-1.27 1.27"/><path fill="#007872" d="M230.95 342.14h-48.9v33.87h48.9z"/><path fill="#007872" d="M206.5 380.08c13.503 0 24.45-1.822 24.45-4.07s-10.947-4.07-24.45-4.07-24.45 1.822-24.45 4.07 10.947 4.07 24.45 4.07"/><path fill="#003834" d="M206.5 345.22c13.503 0 24.45-1.822 24.45-4.07s-10.947-4.07-24.45-4.07-24.45 1.822-24.45 4.07 10.947 4.07 24.45 4.07"/><path fill="#aecc53" d="M230.52 304.11c2.07-.35 3.75-2.03 3.97-4.22a4.8 4.8 0 0 0-4.28-5.26 4.8 4.8 0 0 0-5.26 4.28c-.16 1.53.44 2.96 1.48 3.95-3.02 7.28-9.85 12.44-17.79 13.23v-20.36c5.45-.66 10.3-3.81 13.19-8.4a4.79 4.79 0 0 0 4.64-4.06c.4-2.62-1.4-5.06-4.02-5.47s-5.06 1.4-5.47 4.02c-.21 1.36.19 2.67.97 3.67-2.14 3.16-5.52 5.35-9.32 5.96v-19.9c1.58-.79 2.67-2.4 2.67-4.28a4.801 4.801 0 0 0-9.6 0c0 1.88 1.09 3.49 2.67 4.28v19.9c-3.81-.6-7.19-2.8-9.33-5.96.79-1 1.18-2.31.97-3.67a4.797 4.797 0 0 0-5.46-4.02c-2.61.4-4.42 2.85-4.02 5.47a4.79 4.79 0 0 0 4.64 4.06c2.88 4.6 7.75 7.75 13.2 8.4v20.36c-7.95-.79-14.79-5.95-17.81-13.23a4.78 4.78 0 0 0 1.48-3.95 4.795 4.795 0 1 0-9.54.98c.22 2.19 1.9 3.87 3.97 4.22 3.58 9.05 12.07 15.45 21.9 16.26v20.69h4.25v-20.69c9.83-.82 18.3-7.21 21.88-16.25h.02z"/><path fill="#006d68" d="M296.87 295.33c44.961 0 81.41-36.448 81.41-81.41s-36.449-81.41-81.41-81.41c-44.962 0-81.41 36.449-81.41 81.41 0 44.962 36.448 81.41 81.41 81.41"/><path fill="#fff" d="M310.06 214.83c.07-3.5.41-6.77 1.36-9.93 1.71-5.66 5.44-9.48 10.9-11.67 4.96-1.99 10.1-2.51 15.37-1.87 3.42.41 6.69 1.34 9.75 2.94 4.58 2.41 7.72 6 9.04 11.08 1.7 6.58 1.64 13.08-.77 19.5-1.64 4.35-4.62 7.53-8.79 9.4-8.5 3.83-17.09 3.95-25.62.04-6.42-2.94-9.85-8.11-10.88-15-.23-1.55-.33-3.12-.35-4.49zm30.96-1.01c-.06-1.87.03-3.89-.16-5.91-.28-3.03-1.54-4.68-4.31-5.36-1.89-.47-3.79-.44-5.67.11-2.03.59-3.3 1.86-3.73 4-.51 2.55-.67 5.11-.57 7.69.09 2.38.03 4.78.6 7.11.45 1.82 1.39 3.2 3.25 3.86 1.8.64 3.64.84 5.52.49 2.92-.53 4.42-2.16 4.8-5.09.29-2.25.28-4.5.27-6.9m-73.82 14.14c0-2.51.01-5.03 0-7.54 0-.49.16-.62.63-.62 2.51 0 5.03 0 7.54-.04.36 0 .6.08.8.4 2.66 4.36 6.84 6.04 11.66 6.53 2 .2 3.99-.04 5.94-.54.12-.03.26-.05.37-.1.5-.25 1.01-.51 1.07-1.17.05-.63-.32-1.02-.81-1.29-1.08-.59-2.28-.87-3.44-1.24-4.56-1.45-9.19-2.69-13.7-4.27-3.47-1.21-6.45-3.11-8.57-6.19-1.54-2.24-1.95-4.79-1.89-7.43.08-3.56 1.24-6.71 3.96-9.13 2.24-1.99 4.94-3.08 7.85-3.67 5.48-1.12 10.81-.5 15.98 1.57.97.39 1.87.96 2.79 1.47.4.22.59.18.61-.3.02-.54.04-1.07.04-1.61 0-.35.13-.49.49-.5 2.79-.06 5.58-.14 8.38-.04.37 0 .47.15.48.5.09 4.73.2 9.45.13 14.18 0 .46-.16.58-.6.58-2.71 0-5.41.02-8.12.03-.26 0-.49 0-.67-.28-2.08-3.09-5.17-4.62-8.64-5.52-1.92-.5-3.89-.69-5.87-.69-.9 0-1.76.15-2.49.71-1.06.81-.93 2.05.24 2.7.99.54 2.09.78 3.15 1.1 4.59 1.36 9.22 2.59 13.77 4.07 5.01 1.63 8.68 4.88 10.2 10.02 1.79 6.08-1.17 12.93-7.56 15.66-3.72 1.59-7.62 1.98-11.62 1.64-2.91-.25-5.71-.94-8.43-2-1.15-.45-2.17-1.12-3.26-1.68-.48-.25-.68-.21-.67.38.01.62-.04 1.25-.05 1.87 0 .36-.12.54-.52.54-2.88 0-5.76.03-8.64.07-.48 0-.5-.22-.52-.59-.14-2.53-.07-5.07.01-7.6zm-16.87 8.18h-13.47c-.57 0-.71-.16-.72-.72-.07-3.07-.07-6.14 0-9.22 0-.53.16-.7.69-.7 1.68 0 3.35-.08 5.03-.07.58 0 .75-.21.74-.74-.02-1.03 0-2.06 0-3.09v-18.11c0-.85 0-.86-.88-.89-1.63-.05-3.26-.1-4.9-.11-.44 0-.59-.13-.6-.58-.06-3.22-.06-6.44 0-9.67 0-.54.22-.63.69-.64 4.49-.12 8.98-.03 13.47-.03s8.85.04 13.28.03c.61 0 .82.15.84.77.09 3.22.04 6.44.03 9.67 0 .42-.18.5-.54.5-1.76 0-3.52.05-5.28.05-.5 0-.68.14-.68.65-.01 7.2-.03 14.39-.08 21.59 0 .53.29.56.64.56 1.57.03 3.14.05 4.7.08.83.01 1.24.43 1.24 1.25 0 2.92-.01 5.84.01 8.77 0 .51-.15.65-.65.65-4.51-.02-9.02 0-13.54 0zm2.32-49.43c.86-1.37 1.74-2.58 2.67-3.76 7.57-9.53 17.3-15.61 29.19-18.18 4.83-1.05 9.73-1.39 14.67-.94 16.1 1.47 28.68 8.98 37.96 22.13.13.18.41.37.25.6-.12.18-.43.16-.67.15-.77 0-1.35-.18-1.86-.92-2.54-3.66-5.63-6.81-9.11-9.59-.35-.28-.64-.28-.98-.08l-4.29 2.49c-.5.29-.2.55.03.82 1.65 1.85 3.13 3.82 4.5 5.88.19.28.34.6.54.88.29.4.08.5-.29.55-.84.11-1.5 0-2.04-.85-1.3-2.05-2.84-3.94-4.45-5.75-.3-.34-.54-.43-.98-.24-2.49 1.04-5 2.07-7.62 2.76-.42.11-.5.29-.31.69.42.92.79 1.86 1.21 2.77.23.5.06.62-.43.67-.77.07-1.34-.06-1.65-.91-.25-.7-.7-1.33-1.01-2.01-.2-.45-.49-.54-.93-.43-2.17.53-4.38.86-6.61 1.08-1.24.12-2.48.24-3.73.29-.52.02-.65.24-.66.7-.03 1.49.2 1.23-1.41 1.27-.38 0-.46-.18-.47-.51-.06-1.5-.07-1.48-1.57-1.55-3.24-.15-6.46-.53-9.64-1.22-.51-.11-.79-.04-1.01.46-.33.77-.71 1.52-1.07 2.27-.24.5-1.5.85-1.95.54-.23-.15-.04-.31.01-.45.39-.93.76-1.87 1.2-2.78.25-.52.09-.74-.41-.88-2.51-.69-4.92-1.65-7.35-2.58-.43-.17-.69-.1-.99.24-1.7 1.83-3.19 3.83-4.59 5.89-.39.57-1.41.86-2.04.62-.27-.11-.17-.25-.08-.39.38-.62.75-1.25 1.15-1.86 1.16-1.74 2.44-3.37 3.77-4.98.34-.41.36-.62-.14-.9-1.43-.79-2.83-1.62-4.23-2.46-.34-.21-.55-.07-.8.11-2.29 1.66-4.29 3.64-6.15 5.76-1.12 1.28-2.23 2.57-3.15 4-.5.77-1.14.71-1.85.67-.17 0-.34-.02-.64-.05v-.02zm41.48-9.3c.03-1.63.04-3.26-.05-4.89-.02-.38-.16-.53-.52-.57-1-.12-2-.25-2.99-.41-.45-.07-.74.04-1.04.41-2.27 2.81-4.22 5.84-5.96 9-.3.55-.13.66.37.79 1.38.36 2.78.55 4.18.71 1.74.21 3.49.45 5.26.38.54-.02.78-.19.76-.79-.04-1.54-.01-3.09-.01-4.64zm1.98.01c0 1.57.02 3.13-.01 4.7-.01.58.18.71.74.7 3.1-.06 6.16-.46 9.19-1.1.58-.12.67-.28.39-.82-1.67-3.27-3.84-6.19-6.08-9.08-.19-.24-.39-.28-.67-.24-1 .16-1.99.33-2.99.44-.43.05-.57.2-.57.64.02 1.59 0 3.18 0 4.76m12.93 3.54s.12-.02.21-.04c2.46-.57 4.79-1.49 7.1-2.48.4-.17.33-.36.08-.61-3.25-3.23-6.88-5.96-10.94-8.1-.22-.11-.41-.19-.66-.07-.73.36-1.47.71-2.22 1.04-.35.16-.46.31-.17.65.32.38.59.79.88 1.19 1.83 2.57 3.52 5.24 5.14 7.95.12.21.19.51.58.46zm-28.03.11c.39 0 .47-.3.6-.53 1.58-2.68 3.16-5.36 5-7.87.33-.45.68-.89.99-1.35.21-.3.19-.54-.21-.69-.64-.24-1.28-.49-1.91-.76-.39-.17-.71-.13-1.08.08-3.88 2.13-7.35 4.82-10.56 7.85-.51.48-.49.63.13.89 2.21.94 4.5 1.68 6.81 2.32.08.02.16.05.22.06zm24.87-14.32c-.29-.09-.43-.14-.57-.17-6.85-1.56-13.7-1.44-20.55 0-.15.03-.4 0-.43.2-.03.25.22.34.4.45 5.63 3.48 11.54 3.76 17.65 1.49 1.22-.45 2.37-1.08 3.51-1.97zm-24.26.69c-.89.07-1.54.36-2.22.59-2.13.74-4.21 1.59-6.23 2.6-2.15 1.08-4.2 2.33-6.16 3.74-.33.24-.46.39-.03.68 1.27.85 2.57 1.63 3.98 2.23.39.17.64.14.95-.17 1.79-1.8 3.73-3.43 5.74-4.97 1.57-1.2 3.19-2.32 4.85-3.39.15-.1.54-.19.31-.42-.38-.39-.8-.77-1.2-.89zm26.92-.04c-.43 0-.69.33-1 .55-.4.29-.38.51.08.78 3.87 2.32 7.43 5.03 10.61 8.23.36.36.65.38 1.07.13 1.2-.7 2.43-1.38 3.64-2.06.63-.36.63-.42.03-.85-4.19-2.93-8.71-5.15-13.63-6.57-.27-.08-.54-.15-.81-.22h.01zm-43.91 73.55c.44-.05.82-.12 1.2-.14.46-.02.78.16 1.04.59 1.38 2.24 3.05 4.26 4.79 6.22.23.26.46.31.79.18 2.54-1.06 5.12-2 7.76-2.76.48-.14.54-.35.34-.79-.43-.94-.8-1.9-1.22-2.84-.18-.41-.07-.52.34-.56 1.08-.1 1.25-.02 1.74.95.35.69.71 1.37 1.04 2.07.15.33.33.42.7.35 3.39-.7 6.82-1.1 10.28-1.29.95-.05 1.01-.13.99-1.07 0-.19 0-.39-.01-.58-.01-.26.1-.41.38-.38h.06c1.35-.09 1.37-.09 1.36 1.25 0 .53.18.68.7.72 3.56.25 7.1.61 10.6 1.37.45.1.7 0 .89-.44.39-.86.83-1.7 1.26-2.54.16-.31 1.59-.55 1.81-.31.14.15 0 .33-.04.48-.29.95-.77 1.82-1.19 2.71-.24.52-.07.74.43.87 2.58.69 5.05 1.68 7.51 2.69.37.15.57.08.82-.19 1.79-1.88 3.25-4 4.7-6.13.27-.41 1.7-.72 2.09-.46.23.16.04.31-.04.43-.56.89-1.12 1.79-1.71 2.65-1 1.45-2.1 2.83-3.23 4.18-.34.41-.25.58.15.81 1.38.79 2.75 1.6 4.12 2.4.45.27.85.26 1.29-.11 3.43-2.84 6.41-6.1 8.99-9.72.41-.57 1.59-.91 2.22-.64.3.12.1.28.02.4-.5.73-.99 1.46-1.51 2.17-7.2 9.68-16.57 16.2-28.3 19.12-12.16 3.02-23.95 1.75-35.17-3.83-8-3.98-14.52-9.75-19.47-17.22-.11-.17-.36-.35-.25-.55.11-.19.39-.08.6-.11.83-.13 1.39.12 1.91.89 2.52 3.67 5.59 6.85 9.05 9.65.35.28.62.33 1.03.11 1.48-.78 2.89-1.69 4.34-2.53.44-.25.22-.45.03-.69-1.36-1.69-2.72-3.38-3.92-5.19-.46-.69-.92-1.39-1.31-2.19m31.73 9.33v4.9c0 .21-.11.51.25.56q1.815.27 3.63.51c.28.04.48-.08.65-.31 2.23-2.92 4.28-5.97 6.02-9.21.26-.48.16-.66-.36-.78-3.18-.71-6.4-1.02-9.64-1.16-.47-.02-.56.16-.58.58-.09 1.63-.09 3.26.02 4.9h.01zm-1.92 0h-.05c0-1.63-.01-3.26 0-4.9 0-.44-.14-.62-.59-.58-.79.06-1.59.06-2.38.12-2.4.17-4.78.52-7.14.99-.36.07-.71.14-.44.66 1.79 3.34 3.83 6.51 6.25 9.43.15.18.3.28.55.24 1.08-.17 2.16-.34 3.25-.47.43-.05.57-.23.56-.66-.02-1.61 0-3.22 0-4.83zm-13.07-3.66-.12.03c-2.49.67-4.93 1.5-7.26 2.6-.37.17-.38.34-.11.61 3.28 3.34 7.01 6.06 11.17 8.21.16.08.3.12.48.04.76-.36 1.52-.7 2.29-1.03.33-.14.34-.3.15-.58-2.15-3.11-4.3-6.22-6.09-9.56-.11-.2-.24-.36-.5-.32zm35.65 2.75c-.24-.12-.42-.23-.61-.32-2.11-.98-4.3-1.72-6.55-2.31-.55-.14-.84-.04-1.11.48-1.23 2.34-2.62 4.58-4.12 6.76-.55.8-1.11 1.58-1.68 2.36-.29.4-.29.65.25.84.59.2 1.15.47 1.71.75.37.19.67.15 1.02-.04 2.98-1.61 5.76-3.49 8.3-5.73.98-.86 1.92-1.76 2.79-2.8zm-21.82 12.98c2.58.03 5.15-.19 7.7-.58.97-.15 1.94-.36 2.91-.56.13-.03.33-.02.36-.21.02-.18-.15-.25-.26-.33-.16-.11-.32-.22-.48-.32-2.43-1.53-5.1-2.35-7.94-2.6-4.42-.39-8.6.38-12.4 2.79-.19.12-.53.21-.49.45.05.29.42.23.65.29 3.28.74 6.6 1.09 9.97 1.07zm13.76-1.97c.16-.05.28-.09.41-.13 1.88-.55 3.71-1.22 5.5-2 3.04-1.32 5.97-2.85 8.61-4.87.34-.26.41-.4 0-.67-1.24-.82-2.52-1.55-3.86-2.19-.46-.22-.74-.18-1.11.19a56.5 56.5 0 0 1-9.1 7.36c-.5.33-1.02.63-1.53.96-.15.1-.43.22-.24.43.37.41.8.77 1.33.93h-.01zm-27.21-.02c.24.03.4-.06.92-.48.56-.46.56-.48-.06-.88-3.79-2.45-7.4-5.14-10.61-8.34-.28-.28-.49-.3-.83-.14-1.32.63-2.56 1.4-3.79 2.18-.62.4-.62.41 0 .85 3.29 2.33 6.82 4.21 10.61 5.61 1.23.45 2.47.85 3.77 1.19h-.01z"/><path fill="#006d68" d="M116.13 140.66c40.46 0 73.27 32.8 73.27 73.27s-32.8 73.27-73.27 73.27-73.27-32.8-73.27-73.27 32.8-73.27 73.27-73.27m0-8.15c-10.99 0-21.65 2.15-31.69 6.4-9.7 4.1-18.4 9.97-25.88 17.44a81.1 81.1 0 0 0-17.44 25.88c-4.25 10.04-6.4 20.7-6.4 31.69s2.15 21.65 6.4 31.69c4.1 9.7 9.97 18.4 17.44 25.88a81.1 81.1 0 0 0 25.88 17.44c10.04 4.25 20.7 6.4 31.69 6.4s21.65-2.15 31.69-6.4c9.7-4.1 18.4-9.97 25.88-17.44a81.1 81.1 0 0 0 17.44-25.88c4.25-10.04 6.4-20.7 6.4-31.69s-2.15-21.65-6.4-31.69c-4.1-9.7-9.97-18.4-17.44-25.88a81.1 81.1 0 0 0-25.88-17.44c-10.04-4.25-20.7-6.4-31.69-6.4"/><path fill="#fff" d="M116.13 287.19c40.466 0 73.27-32.804 73.27-73.27s-32.804-73.27-73.27-73.27-73.27 32.804-73.27 73.27 32.804 73.27 73.27 73.27"/><path fill="#aecc53" d="M116.13 279.23c36.07 0 65.31-29.24 65.31-65.31s-29.24-65.31-65.31-65.31-65.31 29.24-65.31 65.31 29.24 65.31 65.31 65.31"/><g fill="#fff" opacity=".3"><path d="m115.09 217.91-40.62-3.99 40.62-3.99zm2.09-7.98 40.62 3.99-40.62 3.99z"/><path d="m120.12 214.97-3.99 40.61-3.98-40.61zm-7.97-2.1 3.98-40.61 3.99 40.61z"/><path d="m113.54 215.44-18.85-22.97 22.96 18.86zm5.19-3.03 18.85 22.96-22.96-18.85z"/><path d="m117.65 216.52-22.96 18.85 18.85-22.96zm-3.03-5.19 22.96-18.86-18.85 22.97z"/></g><path fill="#fff" d="M88.45 227.94c-2.2-.6-3.98-1.4-5.35-2.4l2.44-5.57c1.46.91 3.01 1.61 4.67 2.1s3.33.73 5.01.73 3.02-.24 3.92-.71 1.35-1.13 1.35-1.99c0-.77-.41-1.4-1.22-1.88-.81-.49-2.36-.97-4.65-1.46-2.83-.6-5.04-1.31-6.64-2.14q-2.4-1.245-3.36-2.91t-.96-4.11c0-1.86.52-3.52 1.56-4.99s2.51-2.63 4.41-3.47 4.07-1.26 6.53-1.26c2.17 0 4.27.31 6.32.92 2.04.61 3.63 1.41 4.77 2.38l-2.4 5.57c-2.74-1.88-5.62-2.83-8.65-2.83q-2.19 0-3.51.84c-.89.56-1.33 1.29-1.33 2.21 0 .54.16.98.47 1.33.31.34.9.68 1.76 1.01s2.13.66 3.81 1.01c2.74.6 4.9 1.32 6.47 2.16s2.68 1.82 3.34 2.93.98 2.44.98 3.98c0 2.97-1.14 5.29-3.43 6.96-2.28 1.67-5.5 2.5-9.63 2.5-2.26 0-4.48-.3-6.68-.9zm29.2-1.03c-2.33-1.28-4.11-3.1-5.35-5.44s-1.86-5.05-1.86-8.14.62-5.79 1.86-8.11c1.24-2.33 3.03-4.13 5.35-5.42 2.33-1.28 5.06-1.93 8.2-1.93 1.97 0 3.88.3 5.72.9s3.35 1.4 4.52 2.4l-2.44 5.57q-3.72-2.61-7.62-2.61c-2.46 0-4.33.77-5.63 2.31s-1.95 3.84-1.95 6.89.65 5.36 1.95 6.92 3.18 2.33 5.63 2.33q3.9 0 7.62-2.61l2.44 5.57c-1.17 1-2.68 1.8-4.52 2.4s-3.75.9-5.72.9c-3.14 0-5.87-.64-8.2-1.93m23.65-28.64h7.88v30.19h-7.88z"/><path fill="#fff" d="M116.13 264.69c-28 0-50.77-22.78-50.77-50.77s22.78-50.77 50.77-50.77 50.78 22.78 50.78 50.77-22.78 50.77-50.78 50.77m0-100.67c-27.52 0-49.9 22.39-49.9 49.9s22.39 49.91 49.9 49.91 49.91-22.39 49.91-49.91-22.39-49.9-49.91-49.9"/><path fill="#000" d="M116.13 279.28c-36.04 0-65.35-29.32-65.35-65.35h3.99c0 33.84 27.53 61.37 61.37 61.37s61.37-27.53 61.37-61.37h3.99c0 36.04-29.32 65.35-65.35 65.35z"/><path fill="#006e69" d="M181.49 213.92h-3.99c0-33.84-27.53-61.36-61.37-61.36s-61.36 27.53-61.36 61.36h-3.99c0-36.04 29.32-65.35 65.35-65.35s65.36 29.32 65.36 65.35"/><path fill="#000" d="m120.92 216.6-31.24 46.19 21.66-51.38z"/><path fill="#006e69" d="m111.35 211.38 31.23-46.19-21.65 51.38z"/><path fill="#fff" d="M117.47 226.91c-2.33-1.28-4.11-3.1-5.35-5.44s-1.86-5.05-1.86-8.14.62-5.79 1.86-8.11c1.24-2.33 3.03-4.13 5.35-5.42 2.33-1.28 5.06-1.93 8.2-1.93 1.97 0 3.88.3 5.72.9s3.35 1.4 4.52 2.4l-2.44 5.57q-3.72-2.61-7.62-2.61c-2.46 0-4.33.77-5.63 2.31s-1.95 3.84-1.95 6.89.65 5.36 1.95 6.92 3.18 2.33 5.63 2.33q3.9 0 7.62-2.61l2.44 5.57c-1.17 1-2.68 1.8-4.52 2.4s-3.75.9-5.72.9c-3.14 0-5.87-.64-8.2-1.93" opacity=".3"/><path fill="#3c3c3c" d="M119.61 258.28h-6.95l-3.47 6.01 3.47 6.01h6.95l3.47-6.01z"/><path fill="#006d68" d="M122.03 165c0 3.26-2.64 5.9-5.9 5.9s-5.9-2.64-5.9-5.9 5.9-10.48 5.9-10.48 5.9 7.23 5.9 10.48"/><path fill="#aecc53" d="M116.13 171.33c-.24 0-.44-.19-.44-.44v-10.41c0-.24.19-.44.44-.44s.44.19.44.44v10.41c0 .24-.19.44-.44.44"/><path fill="#fff" d="M65.39 214.57h-8.42c-.36 0-.65-.29-.65-.65s.29-.65.65-.65h8.42c.36 0 .65.29.65.65s-.29.65-.65.65m109.91 0h-8.42c-.36 0-.65-.29-.65-.65s.29-.65.65-.65h8.42c.36 0 .65.29.65.65s-.29.65-.65.65"/></svg>