<svg width="1026" height="390" viewBox="0 0 1026 390" fill="none" xmlns="http://www.w3.org/2000/svg">
<path d="M1013.83 281.44H873.72C838.28 281.44 809.54 310.17 809.54 345.62L1024.3 345.15L1024.5 282.33C1024.5 282.33 1023.31 282.14 1022.72 282.06C1019.82 281.65 1016.85 281.44 1013.83 281.44Z" fill="#CCCCCC"/>
<path d="M897.64 152.77H881.63C864.89 152.77 850.49 142.21 844.78 127.42C842.25 120.86 842.06 113.63 843.94 106.86L869.01 16.64C874.8 -4.19999 904.35 -4.20999 910.16 16.63C920.24 52.83 931.11 91.76 935.32 106.83C937.21 113.61 937.03 120.86 934.49 127.43C928.76 142.21 914.37 152.77 897.64 152.77Z" stroke="#AECC53" stroke-width="2" stroke-miterlimit="10" stroke-linecap="round" stroke-linejoin="round"/>
<path d="M905.71 70.7401C904.33 78.3601 897.63 84.1801 889.63 84.1801C881.63 84.1801 874.93 78.3501 873.55 70.7401" stroke="#AECC53" stroke-width="2.7117" stroke-linecap="round" stroke-linejoin="round"/>
<path d="M905.67 73.9501C907.36 73.9501 908.73 72.5801 908.73 70.8901C908.73 69.2001 907.36 67.8301 905.67 67.8301C903.98 67.8301 902.61 69.2001 902.61 70.8901C902.61 72.5801 903.98 73.9501 905.67 73.9501Z" fill="#AECC53"/>
<path d="M873.58 73.9501C875.27 73.9501 876.64 72.5801 876.64 70.8901C876.64 69.2001 875.27 67.8301 873.58 67.8301C871.89 67.8301 870.52 69.2001 870.52 70.8901C870.52 72.5801 871.89 73.9501 873.58 73.9501Z" fill="#AECC53"/>
<path d="M913.75 94.5701C912.3 106.58 902.01 115.96 889.63 115.96C877.25 115.96 866.96 106.58 865.51 94.5701" stroke="#AECC53" stroke-width="2.7117" stroke-linecap="round" stroke-linejoin="round"/>
<path d="M914.186 97.7463C915.856 97.4841 916.997 95.9182 916.734 94.2487C916.472 92.5791 914.906 91.4382 913.237 91.7003C911.567 91.9624 910.426 93.5284 910.688 95.1979C910.951 96.8674 912.517 98.0084 914.186 97.7463Z" fill="#AECC53"/>
<path d="M868.558 95.1822C868.82 93.5127 867.679 91.9468 866.01 91.6846C864.34 91.4225 862.774 92.5635 862.512 94.233C862.25 95.9026 863.391 97.4685 865.06 97.7306C866.73 97.9927 868.296 96.8518 868.558 95.1822Z" fill="#AECC53"/>
<path d="M889.64 49.5601V198.16" stroke="#AECC53" stroke-width="2.7117" stroke-linecap="round" stroke-linejoin="round"/>
<path d="M886.58 49.71C886.58 48.02 887.95 46.65 889.64 46.65C891.33 46.65 892.7 48.02 892.7 49.71C892.7 51.4 891.33 52.77 889.64 52.77C887.95 52.77 886.58 51.4 886.58 49.71Z" fill="#AECC53"/>
<path d="M924.68 245.42C927.22 245.42 929.29 243.35 929.29 240.81C929.29 238.27 927.22 236.2 924.68 236.2H901.06C900.68 234.08 900.47 231.9 900.47 229.67C900.47 228 900.72 226.05 901.18 223.91H924.68C927.22 223.91 929.29 221.84 929.29 219.3C929.29 216.76 927.22 214.69 924.68 214.69H903.89C905.26 210.84 906.98 206.68 908.9 202.4H924.68C927.22 202.4 929.29 200.33 929.29 197.79C929.29 195.25 927.22 193.18 924.68 193.18H913.25C915.29 189.03 917.43 184.88 919.56 180.89H924.69C927.23 180.89 929.3 178.82 929.3 176.28C929.3 173.74 927.23 171.67 924.69 171.67H924.59C931.58 159.12 937.37 149.77 937.37 149.77C937.37 149.77 943.16 159.12 950.15 171.67H950.05C947.51 171.67 945.44 173.74 945.44 176.28C945.44 178.82 947.51 180.89 950.05 180.89H955.18C957.31 184.89 959.45 189.04 961.49 193.18H950.06C947.52 193.18 945.45 195.25 945.45 197.79C945.45 200.33 947.52 202.4 950.06 202.4H965.84C967.76 206.69 969.48 210.84 970.85 214.69H950.06C947.52 214.69 945.45 216.76 945.45 219.3C945.45 221.84 947.52 223.91 950.06 223.91H973.56C974.02 226.06 974.27 228 974.27 229.67C974.27 231.9 974.06 234.08 973.68 236.2H950.06C947.52 236.2 945.45 238.27 945.45 240.81C945.45 243.35 947.52 245.42 950.06 245.42H970.74C964.83 257.91 952.12 266.55 937.39 266.55C922.66 266.55 909.94 257.91 904.04 245.42H924.68V245.42Z" fill="#AECC53"/>
<path d="M937.74 223.66V310.75" stroke="#006D68" stroke-width="2" stroke-miterlimit="10" stroke-linecap="round" stroke-linejoin="round"/>
<path d="M258.35 177V312.66" stroke="#CCCCCC" stroke-width="2.7117" stroke-miterlimit="10"/>
<path d="M135.53 218.5H112.85C88.51 218.5 68.6 198.59 68.6 174.25V93.87C68.6 63.3 93.62 38.28 124.19 38.28C154.76 38.28 179.78 63.3 179.78 93.87V174.25C179.78 198.59 159.87 218.5 135.53 218.5Z" fill="#CCCCCC"/>
<path d="M150.97 110.02C149.51 123.48 138.02 134.06 124.19 134.06C110.35 134.06 98.87 123.49 97.41 110.03" stroke="white" stroke-width="2.7117" stroke-linecap="round" stroke-linejoin="round"/>
<path d="M147.89 109.98C147.99 108.29 149.44 107.01 151.13 107.11C152.82 107.21 154.1 108.66 154 110.35C153.9 112.04 152.45 113.32 150.76 113.22C149.07 113.12 147.79 111.67 147.89 109.98Z" fill="white"/>
<path d="M100.49 109.98C100.39 108.29 98.94 107.01 97.25 107.11C95.56 107.21 94.28 108.66 94.38 110.35C94.48 112.04 95.93 113.32 97.62 113.22C99.31 113.12 100.6 111.67 100.49 109.98Z" fill="white"/>
<path d="M164.14 143.29C162.64 163.98 145.25 180.44 124.2 180.44C103.15 180.44 85.76 163.98 84.26 143.3" stroke="white" stroke-width="2.7117" stroke-linecap="round" stroke-linejoin="round"/>
<path d="M161.03 143.28C161.12 141.59 162.55 140.29 164.24 140.38C165.93 140.47 167.23 141.9 167.14 143.59C167.05 145.28 165.62 146.57 163.93 146.49C162.24 146.41 160.94 144.97 161.03 143.28Z" fill="white"/>
<path d="M87.35 143.28C87.26 141.59 85.83 140.29 84.14 140.38C82.45 140.47 81.16 141.9 81.24 143.59C81.33 145.28 82.76 146.57 84.45 146.49C86.14 146.41 87.44 144.97 87.35 143.28Z" fill="white"/>
<path d="M124.2 85.0801V311.16" stroke="white" stroke-width="2.7117" stroke-linecap="round" stroke-linejoin="round"/>
<path d="M124.2 88.3001C125.89 88.3001 127.26 86.93 127.26 85.2401C127.26 83.5501 125.89 82.1801 124.2 82.1801C122.51 82.1801 121.14 83.5501 121.14 85.2401C121.14 86.93 122.51 88.3001 124.2 88.3001Z" fill="white"/>
<path d="M124.2 218.66V311.16" stroke="#CCCCCC" stroke-width="2" stroke-miterlimit="10"/>
<path d="M94.93 256.67C92.39 256.67 90.32 254.6 90.32 252.06C90.32 249.52 92.39 247.45 94.93 247.45H118.55C118.93 245.33 119.14 243.15 119.14 240.92C119.14 239.25 118.89 237.3 118.43 235.16H94.93C92.39 235.16 90.32 233.09 90.32 230.55C90.32 228.01 92.39 225.94 94.93 225.94H115.72C114.35 222.09 112.63 217.93 110.71 213.65H94.93C92.39 213.65 90.32 211.58 90.32 209.04C90.32 206.5 92.39 204.43 94.93 204.43H106.36C104.32 200.28 102.18 196.13 100.05 192.14H94.92C92.38 192.14 90.31 190.07 90.31 187.53C90.31 184.99 92.38 182.92 94.92 182.92H95.02C88.04 170.35 82.26 161 82.26 161C82.26 161 76.47 170.35 69.48 182.9H69.58C72.12 182.9 74.19 184.97 74.19 187.51C74.19 190.05 72.12 192.12 69.58 192.12H64.45C62.32 196.12 60.18 200.27 58.14 204.41H69.57C72.11 204.41 74.18 206.48 74.18 209.02C74.18 211.56 72.11 213.63 69.57 213.63H53.8C51.88 217.92 50.16 222.07 48.79 225.92H69.58C72.12 225.92 74.19 227.99 74.19 230.53C74.19 233.07 72.12 235.14 69.58 235.14H46.08C45.62 237.29 45.37 239.23 45.37 240.9C45.37 243.13 45.58 245.31 45.96 247.43H69.58C72.12 247.43 74.19 249.5 74.19 252.04C74.19 254.58 72.12 256.65 69.58 256.65H48.9C54.81 269.14 67.52 277.78 82.25 277.78C96.98 277.78 109.7 269.14 115.6 256.65H94.93V256.67Z" fill="#AECC53"/>
<path d="M81.87 169.45V312.66" stroke="white" stroke-width="2.0838" stroke-miterlimit="10" stroke-linecap="round" stroke-linejoin="round"/>
<path d="M81.87 277.65V310.66" stroke="#AECC53" stroke-width="1.8851" stroke-miterlimit="10" stroke-linecap="round" stroke-linejoin="round"/>
<path d="M229.23 137.8C227.04 137.8 225.24 136 225.24 133.81C225.24 131.62 227.04 129.82 229.23 129.82H249.67C250 127.98 250.18 126.1 250.18 124.17C250.18 122.72 249.96 121.04 249.57 119.18H229.24C227.05 119.18 225.25 117.38 225.25 115.19C225.25 113 227.05 111.2 229.24 111.2H247.23C246.04 107.87 244.56 104.27 242.9 100.56H229.25C227.06 100.56 225.26 98.76 225.26 96.57C225.26 94.38 227.06 92.58 229.25 92.58H239.14C237.38 88.99 235.53 85.4 233.68 81.94H229.24C227.05 81.94 225.25 80.14 225.25 77.95C225.25 75.76 227.05 73.96 229.24 73.96H229.33C223.27 63.09 218.26 55 218.26 55C218.26 55 213.25 63.09 207.2 73.95H207.29C209.48 73.95 211.28 75.75 211.28 77.94C211.28 80.13 209.48 81.93 207.29 81.93H202.85C201.01 85.39 199.16 88.98 197.39 92.57H207.28C209.47 92.57 211.27 94.37 211.27 96.56C211.27 98.75 209.47 100.55 207.28 100.55H193.63C191.97 104.26 190.48 107.86 189.3 111.19H207.29C209.48 111.19 211.28 112.99 211.28 115.18C211.28 117.37 209.48 119.17 207.29 119.17H186.96C186.56 121.03 186.35 122.71 186.35 124.16C186.35 126.09 186.53 127.98 186.86 129.81H207.3C209.49 129.81 211.29 131.61 211.29 133.8C211.29 135.99 209.49 137.79 207.3 137.79H189.41C194.52 148.6 205.53 156.08 218.28 156.08C231.03 156.08 242.03 148.6 247.15 137.79H229.23V137.8Z" fill="#006D68"/>
<path d="M218.26 68.97V191" stroke="white" stroke-width="1.8034" stroke-miterlimit="10" stroke-linecap="round" stroke-linejoin="round"/>
<path d="M197.26 174.5V203" stroke="#AECC53" stroke-width="2" stroke-miterlimit="10" stroke-linecap="round" stroke-linejoin="round"/>
<path d="M218.26 156.5V191" stroke="#AECC53" stroke-width="2" stroke-miterlimit="10" stroke-linecap="round" stroke-linejoin="round"/>
<path d="M233.03 192H190.55V313.66H233.03V192Z" fill="#CCCCCC"/>
<path d="M223.47 148.79C223.47 163.27 211.74 175 197.26 175C182.78 175 171.05 163.27 171.05 148.79C171.05 134.31 197.26 92 197.26 92C197.26 92 223.47 134.31 223.47 148.79Z" fill="#AECC53"/>
<path d="M197.26 157.66V174.66" stroke="white" stroke-width="2" stroke-miterlimit="10" stroke-linecap="round" stroke-linejoin="round"/>
<path d="M306.49 208.75C301.5 208.75 297.45 204.7 297.45 199.71H315.53C315.53 204.7 311.49 208.75 306.49 208.75Z" fill="#006D68" stroke="#006D68" stroke-width="1.5" stroke-miterlimit="10" stroke-linecap="round" stroke-linejoin="round"/>
<path d="M306.49 209.39C301.15 209.39 296.81 205.05 296.81 199.71V199.07H316.17V199.71C316.17 205.04 311.83 209.39 306.49 209.39ZM298.12 200.35C298.45 204.68 302.08 208.11 306.5 208.11C310.92 208.11 314.55 204.68 314.88 200.35H298.12Z" fill="#006D68"/>
<path d="M303.71 194.28H301.14V202.41H303.71V194.28Z" fill="#006D68" stroke="#006D68" stroke-width="1.5" stroke-miterlimit="10" stroke-linecap="round" stroke-linejoin="round"/>
<path d="M311.85 194.28H309.28V202.41H311.85V194.28Z" fill="#006D68" stroke="#006D68" stroke-width="1.5" stroke-miterlimit="10" stroke-linecap="round" stroke-linejoin="round"/>
<path d="M306.95 209.58L306.26 208.5C306.26 216.5 302.1 220.43 296.1 220.43H210.69C204.7 220.43 199.84 225.29 199.84 231.28V231.73" stroke="#006D68" stroke-width="3" stroke-miterlimit="10" stroke-linecap="round" stroke-linejoin="round"/>
<path d="M190.58 218.54H157.14V233.16H190.58V218.54Z" fill="white" stroke="#3C3C3B" stroke-width="1.2963" stroke-miterlimit="10" stroke-linecap="round" stroke-linejoin="round"/>
<path d="M214.99 233.01H133.64V311.17H214.99V233.01Z" fill="white" stroke="#3C3C3B" stroke-width="0.9568" stroke-miterlimit="10" stroke-linecap="round" stroke-linejoin="round"/>
<path d="M208.33 276.19H140.31V302.12H208.33V276.19Z" fill="#006D68" stroke="#006D68" stroke-width="1.5" stroke-miterlimit="10" stroke-linecap="round" stroke-linejoin="round"/>
<path d="M208.33 243.85H140.31V269.78H208.33V243.85Z" fill="#006D68" stroke="#006D68" stroke-width="1.5" stroke-miterlimit="10" stroke-linecap="round" stroke-linejoin="round"/>
<path d="M395.3 309.46C387.81 309.46 381.74 303.39 381.74 295.9V232.7C381.74 202.45 400.7 199.18 408.86 199.18C416.35 199.18 422.42 205.25 422.42 212.74C422.42 220.03 416.66 225.98 409.44 226.29C409.17 227.35 408.86 229.32 408.86 232.71V295.91C408.85 303.39 402.78 309.46 395.3 309.46Z" fill="#CCCCCC"/>
<path d="M360.04 309.46C352.55 309.46 346.48 303.39 346.48 295.9V232.7C346.48 214.22 361.52 199.18 380 199.18H410.58C418.07 199.18 424.14 205.25 424.14 212.74C424.14 220.23 418.07 226.3 410.58 226.3H380C376.53 226.3 373.6 229.23 373.6 232.7V295.9C373.6 303.39 367.53 309.46 360.04 309.46Z" fill="white" stroke="#3C3C3B" stroke-width="1.2814" stroke-miterlimit="10" stroke-linecap="round" stroke-linejoin="round"/>
<path d="M372.89 299.51H355.72C348.73 299.51 343.07 305.18 343.07 312.16H372.9V299.51H372.89Z" fill="#006D68"/>
<path d="M408.66 299.51H391.49C384.5 299.51 378.84 305.18 378.84 312.16H408.67V299.51H408.66Z" fill="#006D68"/>
<path d="M457.66 203.11V312.62" stroke="#CCCCCC" stroke-width="2.7117" stroke-miterlimit="10"/>
<path d="M1024.32 312.17H0.319946V389H1024.82L1024.32 312.17Z" fill="#EDEDED" stroke="#EDEDED" stroke-width="0.6497" stroke-miterlimit="10"/>
<path d="M293.61 195.11V312.62" stroke="#CCCCCC" stroke-width="2.7117" stroke-miterlimit="10"/>
<path d="M423.89 175.61H256.11L291.68 203.11H459.46L423.89 175.61Z" fill="#CCCCCC" stroke="#CCCCCC" stroke-width="2" stroke-miterlimit="10" stroke-linecap="round" stroke-linejoin="round"/>
<path d="M395.79 106.46H276.4V176.51H395.79V106.46Z" fill="#CCCCCC"/>
<path d="M284.57 116.86H389.42" stroke="white" stroke-width="1.8078" stroke-miterlimit="10" stroke-linecap="round" stroke-linejoin="round"/>
<path d="M284.57 124.09H389.42" stroke="white" stroke-width="1.8078" stroke-miterlimit="10" stroke-linecap="round" stroke-linejoin="round"/>
<path d="M285.02 132.67H346.48" stroke="white" stroke-width="1.8078" stroke-miterlimit="10" stroke-linecap="round" stroke-linejoin="round"/>
<path d="M285.02 139.91H327.5" stroke="white" stroke-width="1.8078" stroke-miterlimit="10" stroke-linecap="round" stroke-linejoin="round"/>
<path d="M276.43 106.01H393.94" stroke="#006D68" stroke-width="2.7117" stroke-miterlimit="10" stroke-linecap="round" stroke-linejoin="round"/>
<path d="M395.28 175.61H277.79L302.7 192.33H420.19L395.28 175.61Z" fill="white"/>
<path d="M277.79 175.61L302.7 192.33H420.19L395.28 175.61" stroke="#3C3C3B" stroke-miterlimit="10" stroke-linecap="round" stroke-linejoin="round"/>
<path d="M424.22 208.22H396.34C391.27 208.22 387.16 204.11 387.16 199.04V148.08C387.16 137.86 395.44 129.58 405.66 129.58H405.72C415.94 129.58 424.22 137.86 424.22 148.08V208.22Z" fill="#006D68"/>
<path d="M472.59 202.08V311.52" stroke="#CCCCCC" stroke-width="2.7117" stroke-miterlimit="10"/>
<path d="M667.82 200.08V313.52" stroke="#CCCCCC" stroke-width="2.7117" stroke-miterlimit="10"/>
<path d="M782.16 120.09H690.87V311.72H782.16V120.09Z" fill="#CCCCCC" stroke="#3C3C3B" stroke-width="1.2893" stroke-miterlimit="10" stroke-linecap="round" stroke-linejoin="round"/>
<path d="M777.19 130.46H695.84V155.42H777.19V130.46Z" fill="white" stroke="#3C3C3B" stroke-width="1.2893" stroke-miterlimit="10" stroke-linecap="round" stroke-linejoin="round"/>
<path d="M777.19 167.35H695.84V192.31H777.19V167.35Z" fill="white" stroke="#3C3C3B" stroke-width="1.2893" stroke-miterlimit="10" stroke-linecap="round" stroke-linejoin="round"/>
<path d="M777.19 204.24H695.84V229.2H777.19V204.24Z" fill="white" stroke="#3C3C3B" stroke-width="1.2893" stroke-miterlimit="10" stroke-linecap="round" stroke-linejoin="round"/>
<path d="M777.19 241.14H695.84V266.1H777.19V241.14Z" fill="white" stroke="#3C3C3B" stroke-width="1.2893" stroke-miterlimit="10" stroke-linecap="round" stroke-linejoin="round"/>
<path d="M777.19 278.03H695.84V302.99H777.19V278.03Z" fill="white" stroke="#3C3C3B" stroke-width="1.2893" stroke-miterlimit="10" stroke-linecap="round" stroke-linejoin="round"/>
<path d="M764.39 350.13C756.49 350.13 750.08 343.72 750.08 335.82V181.75" stroke="#AECC53" stroke-width="2.7117" stroke-linecap="round" stroke-linejoin="round"/>
<path d="M753.14 181.9C753.14 180.21 751.77 178.84 750.08 178.84C748.39 178.84 747.02 180.21 747.02 181.9C747.02 183.59 748.39 184.96 750.08 184.96C751.77 184.96 753.14 183.59 753.14 181.9Z" fill="#AECC53"/>
<path d="M767.7 335.37V145.59" stroke="#AECC53" stroke-width="2.7117" stroke-linecap="round" stroke-linejoin="round"/>
<path d="M770.76 145.74C770.76 144.05 769.39 142.68 767.7 142.68C766.01 142.68 764.64 144.05 764.64 145.74C764.64 147.43 766.01 148.8 767.7 148.8C769.39 148.8 770.76 147.43 770.76 145.74Z" fill="#AECC53"/>
<path d="M782.01 349.68C774.11 349.68 767.7 343.27 767.7 335.37" stroke="#AECC53" stroke-width="2.7117" stroke-miterlimit="10" stroke-linecap="round" stroke-linejoin="round"/>
<path d="M746.31 350.13C738.41 350.13 732 343.72 732 335.82V219.71" stroke="#AECC53" stroke-width="2.7117" stroke-linecap="round" stroke-linejoin="round"/>
<path d="M735.06 219.86C735.06 218.17 733.69 216.8 732 216.8C730.31 216.8 728.94 218.17 728.94 219.86C728.94 221.55 730.31 222.92 732 222.92C733.69 222.92 735.06 221.55 735.06 219.86Z" fill="#AECC53"/>
<path d="M200 321.16V258.71" stroke="#AECC53" stroke-width="2.7117" stroke-linecap="round" stroke-linejoin="round"/>
<path d="M203.06 258.86C203.06 257.17 201.69 255.8 200 255.8C198.31 255.8 196.94 257.17 196.94 258.86C196.94 260.55 198.31 261.92 200 261.92C201.69 261.92 203.06 260.55 203.06 258.86Z" fill="#AECC53"/>
<path d="M654.69 178.39H486.61L470.6 202.77H670.7L654.69 178.39Z" fill="#CCCCCC" stroke="#CCCCCC" stroke-miterlimit="10" stroke-linecap="round" stroke-linejoin="round"/>
<path d="M753.38 51.6801H719.66C714.76 51.6801 710.79 55.6501 710.79 60.5501V89.0601C710.79 93.9601 714.76 97.9301 719.66 97.9301H729.15L736.52 105.3L743.89 97.9301H753.38C758.28 97.9301 762.25 93.9601 762.25 89.0601V60.5501C762.25 55.6501 758.28 51.6801 753.38 51.6801Z" stroke="#006D68" stroke-width="1.5" stroke-miterlimit="10" stroke-linecap="round" stroke-linejoin="round"/>
<path d="M731.53 73.33L724.35 76.08L731.53 78.83V81.65L720.94 77.51V74.63L731.53 70.51V73.33Z" fill="#006D68"/>
<path d="M732.29 66.48L735.11 65.63L740.75 83.27L737.93 84.12L732.29 66.48Z" fill="#006D68"/>
<path d="M752.1 74.63V77.51L741.51 81.65V78.83L748.69 76.08L741.51 73.33V70.51L752.1 74.63Z" fill="#006D68"/>
<path d="M352.95 18.9301H319.23C314.33 18.9301 310.36 22.9001 310.36 27.8001V56.3001C310.36 61.2001 314.33 65.1701 319.23 65.1701H328.72L336.09 72.5401L343.46 65.1701H352.95C357.85 65.1701 361.82 61.2001 361.82 56.3001V27.8001C361.82 22.9001 357.85 18.9301 352.95 18.9301Z" fill="white" stroke="#AECC53" stroke-width="2" stroke-miterlimit="10" stroke-linecap="round" stroke-linejoin="round"/>
<path d="M331.1 40.58L323.92 43.33L331.1 46.08V48.9L320.51 44.76V41.88L331.1 37.76V40.58Z" fill="#AECC53"/>
<path d="M331.86 33.73L334.68 32.88L340.32 50.52L337.5 51.37L331.86 33.73Z" fill="#AECC53"/>
<path d="M351.67 41.89V44.77L341.08 48.91V46.09L348.26 43.34L341.08 40.59V37.77L351.67 41.89Z" fill="#AECC53"/>
<path d="M859.61 350.13H726.42C718.52 350.13 712.11 343.72 712.11 335.82V255.1" stroke="#006D68" stroke-width="2" stroke-linecap="round" stroke-linejoin="round"/>
<path d="M714.37 255.22C714.37 253.97 713.36 252.96 712.11 252.96C710.86 252.96 709.85 253.97 709.85 255.22C709.85 256.47 710.86 257.48 712.11 257.48C713.36 257.47 714.37 256.46 714.37 255.22Z" fill="#006D68"/>
<path d="M580.95 18.9301H547.23C542.33 18.9301 538.36 22.9001 538.36 27.8001V56.3001C538.36 61.2001 542.33 65.1701 547.23 65.1701H556.72L564.09 72.5401L571.46 65.1701H580.95C585.85 65.1701 589.82 61.2001 589.82 56.3001V27.8001C589.82 22.9001 585.85 18.9301 580.95 18.9301Z" fill="white" stroke="#AECC53" stroke-width="2" stroke-miterlimit="10" stroke-linecap="round" stroke-linejoin="round"/>
<path d="M559.74 29.03L568.87 29.07L566.53 48.37H562.05L559.74 29.03ZM568.15 50.97V58.59H560.4V50.97H568.15Z" fill="#AECC53"/>
<path d="M81.3199 320.66V321.66" stroke="#AECC53" stroke-width="2" stroke-linecap="round" stroke-linejoin="round"/>
<path d="M81.3199 328.53V329.43C81.3199 340.86 90.4499 350.13 101.71 350.13H143.32H179.36C190.62 350.13 199.75 340.86 199.75 329.43V325.1" stroke="#AECC53" stroke-width="2" stroke-linecap="round" stroke-linejoin="round" stroke-dasharray="2 2"/>
<path d="M199.76 321.66V320.66" stroke="#AECC53" stroke-width="2" stroke-linecap="round" stroke-linejoin="round"/>
<path d="M343.47 177.89C342.81 177.81 342.15 177.74 341.55 177.6C341.05 177.48 337.54 176.07 335.09 174.94C333.61 174.25 331.89 174.5 330.63 175.53C329.16 176.72 327.53 177.69 325.78 178.41C325.53 178.51 325.26 178.62 325.12 178.85C325 179.05 324.99 179.29 324.99 179.53C324.99 180.52 325.99 181.19 326.9 180.81L331.97 178.71C332.16 178.63 332.38 178.55 332.58 178.61C332.75 178.66 332.88 178.79 332.98 178.93C333.73 179.86 334.04 181.06 334.52 182.16C335.63 184.69 338.68 185.74 341.23 185.98C342.17 186.07 343.34 185.79 344.43 185.25" fill="white"/>
<path d="M343.47 177.89C342.81 177.81 342.15 177.74 341.55 177.6C341.05 177.48 337.54 176.07 335.09 174.94C333.61 174.25 331.89 174.5 330.63 175.53C329.16 176.72 327.53 177.69 325.78 178.41C325.53 178.51 325.26 178.62 325.12 178.85C325 179.05 324.99 179.29 324.99 179.53C324.99 180.52 325.99 181.19 326.9 180.81L331.97 178.71C332.16 178.63 332.38 178.55 332.58 178.61C332.75 178.66 332.88 178.79 332.98 178.93C333.73 179.86 334.04 181.06 334.52 182.16C335.63 184.69 338.68 185.74 341.23 185.98C342.17 186.07 343.34 185.79 344.43 185.25" stroke="#3C3C3B" stroke-width="1.2814" stroke-miterlimit="10" stroke-linecap="round" stroke-linejoin="round"/>
<path d="M332.84 174.43C330.05 174.63 327.66 176.25 324.79 176.49" stroke="#3C3C3B" stroke-width="1.2814" stroke-miterlimit="10" stroke-linecap="round" stroke-linejoin="round"/>
<path d="M404.79 128.23C413.279 128.23 420.16 121.349 420.16 112.86C420.16 104.371 413.279 97.49 404.79 97.49C396.301 97.49 389.42 104.371 389.42 112.86C389.42 121.349 396.301 128.23 404.79 128.23Z" fill="white" stroke="#3C3C3B" stroke-width="1.2814" stroke-miterlimit="10" stroke-linecap="round" stroke-linejoin="round"/>
<path d="M347.62 188.62C342.17 188.62 342.04 168.78 347.53 168.73L373.91 168.5C376.86 168.47 379.25 166.06 379.25 163.11V143.42C379.25 137.93 383.7 133.48 389.19 133.48C394.68 133.48 399.13 137.93 399.13 143.42V163.11C399.13 176.93 387.89 188.26 374.08 188.38L347.7 188.61C347.68 188.62 347.65 188.62 347.62 188.62Z" fill="#AECC53"/>
<path d="M421.13 121.27C422.93 119.3 424.51 117.11 425.48 115.73C428.4 111.53 430.44 106.71 431.33 101.67C431.33 101.49 435.01 100.53 435.42 100.34C443.59 96.62 441.39 83.67 431.71 85.94C430.16 86.3 428.69 87.05 427.48 88.09C427.2 88.33 424.65 91.52 424.92 91.59C422.22 91.59 419.72 90.92 416.89 91.08C414.91 91.19 412.93 91.31 411 91.76C409.17 92.19 407.42 92.93 405.69 93.67C400.93 95.68 394.49 100.37 398.36 106.27C398.87 107.04 399.6 107.65 400.45 108.03C401.9 105.91 404.35 104.24 406.16 107.27C407.85 110.07 406.42 113.83 403.84 115.53C404.41 120.24 408.72 123.67 413.15 125.36C413.69 125.57 414.27 125.76 414.84 125.68C416.86 125.38 419.13 123.46 421.13 121.27Z" fill="#3C3C3B" stroke="#3C3C3B" stroke-width="1.2893" stroke-miterlimit="10" stroke-linecap="round" stroke-linejoin="round"/>
<path d="M426.54 226.41L426.76 311.52" stroke="#3C3C3B" stroke-width="2" stroke-miterlimit="10" stroke-linecap="round" stroke-linejoin="round"/>
<path d="M386.71 226.75L385.76 312.09" stroke="#3C3C3B" stroke-width="2" stroke-miterlimit="10" stroke-linecap="round" stroke-linejoin="round"/>
<path d="M426.21 236.24H386.08C383.18 236.24 380.84 233.89 380.84 231V226.3H431.46V231C431.45 233.89 429.1 236.24 426.21 236.24Z" fill="#AECC53"/>
<path d="M426.93 226.3H431.75C425.78 226.3 381.28 226.75 381.28 226.75" stroke="#3C3C3B" stroke-width="2" stroke-miterlimit="10" stroke-linecap="round" stroke-linejoin="round"/>
<path d="M637.09 97.9399H504.22V178.39H637.09V97.9399Z" fill="#CCCCCC"/>
<path d="M518.23 109.24H623.08" stroke="#006D68" stroke-width="0.9039" stroke-miterlimit="10" stroke-linecap="round" stroke-linejoin="round"/>
<path d="M518.23 116.47H623.08" stroke="#006D68" stroke-width="0.9039" stroke-miterlimit="10" stroke-linecap="round" stroke-linejoin="round"/>
<path d="M518.68 125.06H540.26" stroke="#006D68" stroke-width="0.9039" stroke-miterlimit="10" stroke-linecap="round" stroke-linejoin="round"/>
<path d="M504.22 178.39L491.56 191.95H649.74L637.09 178.39H504.22Z" fill="white"/>
<path d="M605.26 191.95H649.74L637.09 178.39" stroke="#3C3C3B" stroke-miterlimit="10" stroke-linecap="round" stroke-linejoin="round"/>
<path d="M504.22 178.39L491.56 191.95H529.26" stroke="#3C3C3B" stroke-miterlimit="10" stroke-linecap="round" stroke-linejoin="round"/>
<path d="M503.76 97.9399H636.64" stroke="#006D68" stroke-width="2.7117" stroke-miterlimit="10" stroke-linecap="round" stroke-linejoin="round"/>
<path d="M564.48 125.96C572.748 125.96 579.45 119.258 579.45 110.99C579.45 102.722 572.748 96.02 564.48 96.02C556.212 96.02 549.51 102.722 549.51 110.99C549.51 119.258 556.212 125.96 564.48 125.96Z" fill="#3C3C3B" stroke="#3C3C3B" stroke-width="1.2893" stroke-miterlimit="10" stroke-linecap="round" stroke-linejoin="round"/>
<path d="M546.56 103.38C543.53 111.83 547.58 121.01 555.6 123.89C563.62 126.77 572.42 121.94 575.45 113.5C578.48 105.06 574.59 96.18 566.57 93.3C558.55 90.41 549.59 94.93 546.56 103.38Z" fill="white"/>
<path d="M575.95 115.98C577.601 115.98 578.94 114.417 578.94 112.49C578.94 110.563 577.601 109 575.95 109C574.299 109 572.96 110.563 572.96 112.49C572.96 114.417 574.299 115.98 575.95 115.98Z" fill="#3C3C3B" stroke="#3C3C3B" stroke-width="1.2893" stroke-miterlimit="10" stroke-linecap="round" stroke-linejoin="round"/>
<path d="M568.81 299.51H585.98C592.97 299.51 598.63 305.18 598.63 312.16H568.8V299.51H568.81Z" fill="#006D68"/>
<path d="M560.67 299.51H543.5C536.51 299.51 530.85 305.18 530.85 312.16H560.68V299.51H560.67Z" fill="#006D68"/>
<path d="M549.82 307.2C556.06 307.2 561.12 302.14 561.12 295.9V219.97C561.12 213.73 556.06 208.67 549.82 208.67C543.58 208.67 538.52 213.73 538.52 219.97V295.9C538.53 302.14 543.58 307.2 549.82 307.2Z" fill="#CCCCCC"/>
<path d="M579.65 307.2C585.89 307.2 590.95 302.14 590.95 295.9V224.91C590.95 211.97 580.42 201.44 567.48 201.44H546.21C539.97 201.44 534.91 206.5 534.91 212.74C534.91 218.98 539.97 224.04 546.21 224.04H567.48C567.94 224.04 568.36 224.46 568.36 224.92V295.91C568.35 302.14 573.41 307.2 579.65 307.2Z" fill="white" stroke="#3C3C3B" stroke-width="1.2814" stroke-miterlimit="10" stroke-linecap="round" stroke-linejoin="round"/>
<path d="M593.09 191.27C587.74 191.27 582.59 188.68 579.38 184.01C577.44 181.19 576.53 177.79 576.53 174.37V140.28C576.53 135.68 580 131.65 584.59 131.37C589.57 131.07 593.71 135.02 593.71 139.94V170.01C593.71 172.1 595.58 173.7 597.65 173.38L608.34 171.73C612.88 171.03 617.4 173.84 618.37 178.33C619.43 183.21 616.15 187.9 611.29 188.65L595.63 191.07C594.78 191.21 593.94 191.27 593.09 191.27Z" fill="#AECC53"/>
<path d="M538.56 192.05C533.82 192.05 529.97 188.21 529.97 183.46V139.4C529.97 134.66 533.81 130.81 538.56 130.81C543.31 130.81 547.15 134.65 547.15 139.4V183.47C547.15 188.21 543.31 192.05 538.56 192.05Z" fill="#AECC53"/>
<path d="M562.65 123.25H559.54C548.75 123.25 539.92 132.08 539.92 142.87V202.32C539.92 206.36 543.22 209.66 547.26 209.66H574.16C578.2 209.66 581.5 206.36 581.5 202.32V142.1C581.5 131.73 573.02 123.25 562.65 123.25Z" fill="#006D68"/>
<path d="M579.97 222.01L597.26 312.54" stroke="#3C3C3B" stroke-width="2" stroke-miterlimit="10" stroke-linecap="round" stroke-linejoin="round"/>
<path d="M539.47 217.71L521.45 312.54" stroke="#3C3C3B" stroke-width="2" stroke-miterlimit="10" stroke-linecap="round" stroke-linejoin="round"/>
<path d="M578.97 227.2H538.84C535.94 227.2 533.6 224.85 533.6 221.96V217.26H584.22V221.96C584.21 224.85 581.86 227.2 578.97 227.2Z" fill="#AECC53"/>
<path d="M583.76 217.71H534.04" stroke="#3C3C3B" stroke-width="2" stroke-miterlimit="10" stroke-linecap="round" stroke-linejoin="round"/>
<path d="M792.11 219.07C792.11 224.06 788.06 228.11 783.07 228.11V210.03C788.06 210.03 792.11 214.07 792.11 219.07Z" fill="#006D68" stroke="#006D68" stroke-width="1.5" stroke-miterlimit="10" stroke-linecap="round" stroke-linejoin="round"/>
<path d="M788.95 218.61C794.94 218.61 799.8 223.47 799.8 229.46V300.87C799.8 306.86 804.66 311.72 810.65 311.72H811.1" stroke="#006D68" stroke-width="3" stroke-miterlimit="10" stroke-linecap="round" stroke-linejoin="round"/>
<path d="M721.76 145.94H703.76C702.1 145.94 700.76 144.6 700.76 142.94C700.76 141.28 702.1 139.94 703.76 139.94H721.76C723.42 139.94 724.76 141.28 724.76 142.94C724.76 144.6 723.41 145.94 721.76 145.94Z" fill="#006D68" stroke="#006D68" stroke-miterlimit="10" stroke-linecap="round" stroke-linejoin="round"/>
<path d="M731.76 143H736.76" stroke="#AECC53" stroke-width="6" stroke-miterlimit="10" stroke-linecap="round" stroke-linejoin="round"/>
<path d="M721.76 182.83H703.76C702.1 182.83 700.76 181.49 700.76 179.83C700.76 178.17 702.1 176.83 703.76 176.83H721.76C723.42 176.83 724.76 178.17 724.76 179.83C724.76 181.49 723.41 182.83 721.76 182.83Z" fill="#006D68" stroke="#006D68" stroke-miterlimit="10" stroke-linecap="round" stroke-linejoin="round"/>
<path d="M731.76 179.83H736.76" stroke="#AECC53" stroke-width="6" stroke-miterlimit="10" stroke-linecap="round" stroke-linejoin="round"/>
<path d="M270.32 365.16H313.32" stroke="white" stroke-width="1.8851" stroke-miterlimit="10" stroke-linecap="round" stroke-linejoin="round"/>
<path d="M66.3199 365.16H253.32" stroke="white" stroke-width="1.8851" stroke-miterlimit="10" stroke-linecap="round" stroke-linejoin="round"/>
<path d="M143.32 375.16H231.32" stroke="white" stroke-width="1.8851" stroke-miterlimit="10" stroke-linecap="round" stroke-linejoin="round"/>
<path d="M753.76 364.66H710.76" stroke="white" stroke-width="1.8851" stroke-miterlimit="10" stroke-linecap="round" stroke-linejoin="round"/>
<path d="M891.99 364.66H770.76" stroke="white" stroke-width="1.8851" stroke-miterlimit="10" stroke-linecap="round" stroke-linejoin="round"/>
<path d="M957.76 364.66H924.87" stroke="white" stroke-width="1.8851" stroke-miterlimit="10" stroke-linecap="round" stroke-linejoin="round"/>
<path d="M880.76 374.66H792.76" stroke="white" stroke-width="1.8851" stroke-miterlimit="10" stroke-linecap="round" stroke-linejoin="round"/>
<path d="M634.4 176.78C633.99 176.61 633.59 176.43 633.19 176.23C633.27 176.23 633.35 176.23 633.43 176.22L634.31 176.19C635.14 176.16 635.79 175.47 635.76 174.65C635.73 173.82 635.04 173.18 634.22 173.2L633.31 173.23C632.43 173.26 627.49 173.01 627.34 173.01C626.35 172.86 625.34 172.98 624.4 173.41C624.34 173.44 624.27 173.47 624.21 173.5C623.69 173.66 618.54 175.88 618.25 175.95C618.19 175.96 618.13 175.97 618.07 175.98C619.43 178.89 619.22 182.57 617.46 185.25C617.67 185.25 617.87 185.24 618.09 185.23C620.32 185.12 622.43 184.4 624.02 183.19C624.56 182.79 625.31 182.16 625.85 181.47C625.91 181.39 625.97 181.31 626.03 181.23C626.37 180.74 626.57 180.22 626.76 179.71C626.96 179.19 627.14 178.7 627.46 178.3C627.5 178.25 627.53 178.22 627.53 178.21C627.59 178.22 627.68 178.26 627.72 178.28L632.79 180.38C633.42 180.64 634.13 180.57 634.69 180.19C635.25 179.81 635.59 179.18 635.59 178.5C635.59 178.24 635.59 177.84 635.36 177.48C635.1 177.06 634.69 176.9 634.4 176.78Z" fill="#3C3C3B"/>
<path d="M891.99 182.01H810.64V323.92H891.99V182.01Z" fill="white" stroke="#3C3C3B" stroke-width="1.2893" stroke-miterlimit="10" stroke-linecap="round" stroke-linejoin="round"/>
<path d="M885.33 225.19H817.31V251.12H885.33V225.19Z" fill="#006D68" stroke="#006D68" stroke-width="1.5" stroke-miterlimit="10" stroke-linecap="round" stroke-linejoin="round"/>
<path d="M885.33 192.85H817.31V218.78H885.33V192.85Z" fill="white" stroke="#3C3C3B" stroke-width="1.2893" stroke-miterlimit="10" stroke-linecap="round" stroke-linejoin="round"/>
<path d="M885.33 257.52H817.31V283.45H885.33V257.52Z" fill="#006D68" stroke="#006D68" stroke-width="1.5" stroke-miterlimit="10" stroke-linecap="round" stroke-linejoin="round"/>
<path d="M885.33 289.86H817.31V315.79H885.33V289.86Z" fill="#006D68" stroke="#006D68" stroke-width="1.5" stroke-miterlimit="10" stroke-linecap="round" stroke-linejoin="round"/>
<path d="M867.58 167.54H834.14V182H867.58V167.54Z" fill="white" stroke="#3C3C3B" stroke-width="1.2893" stroke-miterlimit="10" stroke-linecap="round" stroke-linejoin="round"/>
<path d="M937.76 309.66L937.61 341.37C937.61 349.27 931.2 349.68 923.3 349.68H859.26" stroke="#006D68" stroke-width="2" stroke-miterlimit="10" stroke-linecap="round" stroke-linejoin="round" stroke-dasharray="2 2"/>
</svg>
