<svg width="1913" height="444" viewBox="0 0 1913 444" fill="none" xmlns="http://www.w3.org/2000/svg">
<path d="M1772 183.243C1789.12 183.243 1803 169.364 1803 152.243C1803 135.122 1789.12 121.243 1772 121.243C1754.88 121.243 1741 135.122 1741 152.243C1741 169.364 1754.88 183.243 1772 183.243Z" stroke="#EDEDED" stroke-width="1.81" stroke-miterlimit="10"/>
<path d="M1772 195.993C1796.16 195.993 1815.75 176.405 1815.75 152.243C1815.75 128.08 1796.16 108.493 1772 108.493C1747.84 108.493 1728.25 128.08 1728.25 152.243C1728.25 176.405 1747.84 195.993 1772 195.993Z" stroke="#EDEDED" stroke-width="2.55" stroke-miterlimit="10"/>
<path d="M1317.46 335.183H1457.57C1474.59 335.183 1490.92 341.945 1502.95 353.981C1514.99 366.017 1521.75 382.341 1521.75 399.363H1253.29C1253.29 382.341 1260.05 366.017 1272.09 353.981C1284.12 341.945 1300.45 335.183 1317.47 335.183H1317.46Z" fill="#CCCCCC"/>
<path d="M1420.86 269.533H1439.55C1448.86 269.502 1457.95 266.661 1465.62 261.382C1473.29 256.103 1479.19 248.63 1482.55 239.943C1485.45 232.258 1485.8 223.843 1483.55 215.943L1454.29 110.653C1447.53 86.3329 1413.04 86.3229 1406.29 110.653C1394.53 152.903 1381.84 198.343 1376.93 215.923C1374.67 223.839 1375.02 232.272 1377.93 239.973C1381.29 248.644 1387.18 256.103 1394.83 261.376C1402.49 266.65 1411.56 269.492 1420.86 269.533Z" fill="#006D68" stroke="#006D68" stroke-width="0.85" stroke-linecap="round" stroke-linejoin="round"/>
<path d="M1408.88 152.943C1409.55 158.129 1412.09 162.894 1416.01 166.352C1419.93 169.81 1424.98 171.726 1430.21 171.743V171.743C1435.43 171.716 1440.47 169.796 1444.38 166.339C1448.3 162.882 1450.83 158.122 1451.5 152.943" stroke="#AECC53" stroke-width="2.56" stroke-linecap="round" stroke-linejoin="round"/>
<path d="M1406.04 153.293C1406 152.726 1406.13 152.159 1406.41 151.663C1406.69 151.168 1407.11 150.767 1407.61 150.511C1408.12 150.255 1408.69 150.154 1409.26 150.223C1409.82 150.291 1410.36 150.526 1410.79 150.896C1411.22 151.267 1411.53 151.757 1411.69 152.304C1411.84 152.852 1411.83 153.433 1411.65 153.974C1411.47 154.515 1411.14 154.992 1410.69 155.344C1410.25 155.696 1409.71 155.908 1409.14 155.953C1408.38 156.011 1407.62 155.763 1407.04 155.264C1406.46 154.766 1406.1 154.057 1406.04 153.293Z" fill="#AECC53"/>
<path d="M1454.37 153.293C1454.41 152.725 1454.28 152.158 1454 151.662C1453.72 151.167 1453.3 150.766 1452.79 150.509C1452.29 150.253 1451.71 150.153 1451.15 150.223C1450.58 150.292 1450.05 150.527 1449.62 150.899C1449.19 151.27 1448.88 151.761 1448.72 152.309C1448.57 152.858 1448.58 153.439 1448.76 153.98C1448.94 154.521 1449.27 154.997 1449.72 155.348C1450.17 155.7 1450.71 155.91 1451.28 155.953C1452.04 156.008 1452.79 155.759 1453.37 155.261C1453.95 154.762 1454.31 154.055 1454.37 153.293Z" fill="#AECC53"/>
<path d="M1398.35 182.293C1399.06 190.26 1402.72 197.674 1408.62 203.082C1414.51 208.489 1422.21 211.5 1430.21 211.523V211.523C1438.21 211.499 1445.91 208.489 1451.8 203.081C1457.69 197.673 1461.35 190.259 1462.06 182.293" stroke="#AECC53" stroke-width="2.56" stroke-linecap="round" stroke-linejoin="round"/>
<path d="M1395.5 182.583C1395.47 182.013 1395.61 181.447 1395.9 180.958C1396.2 180.468 1396.63 180.076 1397.14 179.832C1397.66 179.588 1398.24 179.503 1398.8 179.587C1399.37 179.671 1399.89 179.921 1400.31 180.305C1400.74 180.69 1401.04 181.19 1401.17 181.744C1401.31 182.298 1401.28 182.88 1401.08 183.417C1400.89 183.953 1400.54 184.42 1400.08 184.757C1399.62 185.095 1399.07 185.288 1398.5 185.313C1397.74 185.343 1397 185.073 1396.44 184.563C1395.88 184.052 1395.54 183.341 1395.5 182.583Z" fill="#AECC53"/>
<path d="M1464.91 182.583C1464.94 182.013 1464.8 181.447 1464.51 180.958C1464.21 180.468 1463.78 180.076 1463.27 179.832C1462.75 179.588 1462.17 179.503 1461.61 179.587C1461.04 179.671 1460.52 179.921 1460.1 180.305C1459.67 180.69 1459.38 181.19 1459.24 181.744C1459.1 182.298 1459.13 182.88 1459.33 183.417C1459.52 183.953 1459.87 184.42 1460.33 184.757C1460.79 185.095 1461.34 185.288 1461.91 185.313C1462.67 185.346 1463.41 185.077 1463.97 184.566C1464.53 184.054 1464.87 183.342 1464.91 182.583Z" fill="#AECC53"/>
<path d="M1430.19 129.053V365.913" stroke="#AECC53" stroke-width="2.56" stroke-linecap="round" stroke-linejoin="round"/>
<path d="M1427.31 129.203C1427.31 128.631 1427.48 128.071 1427.79 127.595C1428.11 127.118 1428.56 126.746 1429.09 126.526C1429.62 126.305 1430.2 126.247 1430.76 126.357C1431.32 126.468 1431.83 126.742 1432.24 127.146C1432.65 127.55 1432.92 128.064 1433.03 128.625C1433.15 129.186 1433.09 129.768 1432.87 130.296C1432.65 130.825 1432.28 131.277 1431.81 131.595C1431.33 131.913 1430.77 132.083 1430.2 132.083C1429.44 132.083 1428.7 131.78 1428.16 131.24C1427.62 130.7 1427.31 129.968 1427.31 129.203Z" fill="#AECC53"/>
<g style="mix-blend-mode:multiply">
<path d="M1341.38 206.513H1325.38C1317.39 206.498 1309.6 204.069 1303.02 199.545C1296.44 195.021 1291.38 188.614 1288.5 181.163C1286.02 174.575 1285.72 167.362 1287.66 160.593L1312.73 70.3829C1318.52 49.5329 1348.07 49.5329 1353.88 70.3829C1363.96 106.573 1374.83 145.513 1379.03 160.583C1380.98 167.358 1380.7 174.584 1378.21 181.183C1375.33 188.62 1370.28 195.015 1363.71 199.534C1357.14 204.053 1349.35 206.485 1341.38 206.513V206.513Z" stroke="#AECC53" stroke-width="2" stroke-linecap="round" stroke-linejoin="round"/>
</g>
<path d="M1349.5 124.483C1348.81 128.249 1346.83 131.654 1343.89 134.106C1340.95 136.558 1337.24 137.901 1333.42 137.901C1329.59 137.901 1325.88 136.558 1322.94 134.106C1320 131.654 1318.02 128.249 1317.33 124.483" stroke="#AECC53" stroke-width="2.71" stroke-linecap="round" stroke-linejoin="round"/>
<path d="M1349.41 127.693C1351.1 127.693 1352.47 126.323 1352.47 124.633C1352.47 122.943 1351.1 121.573 1349.41 121.573C1347.72 121.573 1346.35 122.943 1346.35 124.633C1346.35 126.323 1347.72 127.693 1349.41 127.693Z" fill="#AECC53"/>
<path d="M1317.33 127.693C1319.02 127.693 1320.39 126.323 1320.39 124.633C1320.39 122.943 1319.02 121.573 1317.33 121.573C1315.64 121.573 1314.27 122.943 1314.27 124.633C1314.27 126.323 1315.64 127.693 1317.33 127.693Z" fill="#AECC53"/>
<path d="M1357.5 148.313C1356.78 154.202 1353.93 159.625 1349.49 163.557C1345.04 167.49 1339.31 169.661 1333.38 169.661C1327.45 169.661 1321.72 167.49 1317.27 163.557C1312.83 159.625 1309.98 154.202 1309.26 148.313" stroke="#AECC53" stroke-width="2.71" stroke-linecap="round" stroke-linejoin="round"/>
<path d="M1357.92 151.566C1359.59 151.304 1360.73 149.738 1360.47 148.068C1360.21 146.399 1358.64 145.258 1356.97 145.52C1355.3 145.782 1354.16 147.347 1354.42 149.017C1354.69 150.687 1356.25 151.828 1357.92 151.566Z" fill="#AECC53"/>
<path d="M1312.24 148.911C1312.5 147.241 1311.36 145.676 1309.69 145.413C1308.02 145.151 1306.46 146.292 1306.19 147.962C1305.93 149.631 1307.07 151.197 1308.74 151.459C1310.41 151.721 1311.98 150.58 1312.24 148.911Z" fill="#AECC53"/>
<path d="M1333.38 103.303V251.913" stroke="#AECC53" stroke-width="2.71" stroke-linecap="round" stroke-linejoin="round"/>
<path d="M1330.32 103.453C1330.32 102.848 1330.5 102.256 1330.84 101.753C1331.17 101.25 1331.65 100.857 1332.21 100.626C1332.77 100.394 1333.38 100.334 1333.98 100.452C1334.57 100.57 1335.12 100.861 1335.54 101.289C1335.97 101.717 1336.26 102.262 1336.38 102.856C1336.5 103.449 1336.44 104.065 1336.21 104.624C1335.98 105.183 1335.58 105.661 1335.08 105.997C1334.58 106.333 1333.99 106.513 1333.38 106.513C1332.57 106.513 1331.79 106.19 1331.22 105.617C1330.64 105.043 1330.32 104.264 1330.32 103.453Z" fill="#AECC53"/>
<g style="mix-blend-mode:multiply">
<path d="M1368.42 299.163C1369.64 299.163 1370.82 298.677 1371.68 297.813C1372.54 296.948 1373.03 295.776 1373.03 294.553C1373.03 293.33 1372.54 292.158 1371.68 291.293C1370.82 290.429 1369.64 289.943 1368.42 289.943H1344.81C1344.42 287.788 1344.22 285.603 1344.22 283.413C1344.26 281.474 1344.5 279.543 1344.93 277.653H1368.42C1369.61 277.598 1370.73 277.087 1371.55 276.228C1372.37 275.368 1372.83 274.226 1372.83 273.038C1372.83 271.85 1372.37 270.707 1371.55 269.848C1370.73 268.989 1369.61 268.478 1368.42 268.423H1347.64C1349.01 264.573 1350.72 260.423 1352.64 256.133H1368.41C1369.63 256.133 1370.81 255.647 1371.67 254.783C1372.53 253.918 1373.02 252.746 1373.02 251.523C1373.02 250.3 1372.53 249.128 1371.67 248.263C1370.81 247.399 1369.63 246.913 1368.41 246.913H1356.98C1358.98 242.763 1361.16 238.613 1363.29 234.613H1368.41C1369.63 234.613 1370.81 234.127 1371.67 233.263C1372.53 232.398 1373.02 231.226 1373.02 230.003C1373.02 228.78 1372.53 227.608 1371.67 226.743C1370.81 225.879 1369.63 225.393 1368.41 225.393H1368.31C1375.31 212.843 1381.09 203.493 1381.09 203.493C1381.09 203.493 1386.88 212.843 1393.87 225.393H1393.77C1392.55 225.393 1391.37 225.879 1390.51 226.743C1389.65 227.608 1389.16 228.78 1389.16 230.003C1389.16 231.226 1389.65 232.398 1390.51 233.263C1391.37 234.127 1392.55 234.613 1393.77 234.613H1398.9C1401.03 238.613 1403.17 242.763 1405.2 246.913H1393.77C1392.55 246.913 1391.37 247.399 1390.51 248.263C1389.65 249.128 1389.16 250.3 1389.16 251.523C1389.16 252.746 1389.65 253.918 1390.51 254.783C1391.37 255.647 1392.55 256.133 1393.77 256.133H1409.55C1411.47 260.413 1413.18 264.573 1414.55 268.423H1393.76C1392.57 268.478 1391.45 268.989 1390.63 269.848C1389.81 270.707 1389.35 271.85 1389.35 273.038C1389.35 274.226 1389.81 275.368 1390.63 276.228C1391.45 277.087 1392.57 277.598 1393.76 277.653H1417.26C1417.69 279.544 1417.93 281.474 1417.97 283.413C1417.97 285.603 1417.77 287.788 1417.38 289.943H1393.76C1392.54 289.943 1391.36 290.429 1390.5 291.293C1389.64 292.158 1389.15 293.33 1389.15 294.553C1389.15 295.776 1389.64 296.948 1390.5 297.813C1391.36 298.677 1392.54 299.163 1393.76 299.163H1414.5C1411.51 305.484 1406.79 310.826 1400.89 314.567C1394.98 318.309 1388.14 320.295 1381.15 320.295C1374.15 320.295 1367.31 318.309 1361.4 314.567C1355.5 310.826 1350.78 305.484 1347.79 299.163H1368.42Z" fill="#AECC53"/>
</g>
<path d="M1381.48 277.413V364.493" stroke="#006D68" stroke-width="2" stroke-linecap="round" stroke-linejoin="round"/>
<path d="M702.1 230.743V366.413" stroke="#CCCCCC" stroke-width="2.71" stroke-miterlimit="10"/>
<path d="M567.93 92.0328C575.233 92.0328 582.464 93.4717 589.21 96.2672C595.957 99.0628 602.086 103.16 607.249 108.325C612.411 113.491 616.505 119.622 619.297 126.37C622.089 133.118 623.524 140.35 623.52 147.653V228.033C623.52 239.769 618.858 251.024 610.559 259.322C602.261 267.621 591.006 272.283 579.27 272.283H556.59C544.854 272.283 533.599 267.621 525.3 259.322C517.002 251.024 512.34 239.769 512.34 228.033V147.653C512.336 140.35 513.771 133.118 516.563 126.37C519.355 119.622 523.449 113.491 528.611 108.325C533.774 103.16 539.903 99.0628 546.65 96.2672C553.396 93.4717 560.627 92.0328 567.93 92.0328Z" fill="#CCCCCC"/>
<path d="M594.72 163.743C594.008 170.35 590.879 176.461 585.935 180.901C580.991 185.341 574.58 187.797 567.935 187.797C561.29 187.797 554.879 185.341 549.935 180.901C544.99 176.461 541.862 170.35 541.15 163.743" stroke="white" stroke-width="2.71" stroke-linecap="round" stroke-linejoin="round"/>
<path d="M591.63 163.743C591.667 163.139 591.882 162.559 592.248 162.077C592.614 161.595 593.115 161.233 593.687 161.036C594.259 160.838 594.876 160.815 595.462 160.969C596.047 161.123 596.574 161.446 596.975 161.899C597.376 162.352 597.634 162.914 597.716 163.514C597.798 164.113 597.701 164.724 597.436 165.268C597.171 165.812 596.75 166.265 596.228 166.571C595.705 166.876 595.104 167.019 594.5 166.983C593.691 166.931 592.935 166.562 592.397 165.955C591.859 165.348 591.583 164.552 591.63 163.743Z" fill="white"/>
<path d="M544.24 163.743C544.203 163.139 543.988 162.559 543.622 162.077C543.256 161.595 542.755 161.233 542.183 161.036C541.611 160.838 540.994 160.815 540.408 160.969C539.823 161.123 539.296 161.446 538.895 161.899C538.494 162.352 538.236 162.914 538.154 163.514C538.072 164.113 538.17 164.724 538.434 165.268C538.699 165.812 539.12 166.265 539.642 166.571C540.165 166.876 540.766 167.019 541.37 166.983C542.179 166.931 542.935 166.562 543.473 165.955C544.011 165.348 544.287 164.552 544.24 163.743Z" fill="white"/>
<path d="M607.88 197.033C607.148 207.127 602.621 216.569 595.211 223.461C587.8 230.353 578.055 234.185 567.935 234.185C557.815 234.185 548.07 230.353 540.659 223.461C533.249 216.569 528.722 207.127 527.99 197.033" stroke="white" stroke-width="2.71" stroke-linecap="round" stroke-linejoin="round"/>
<path d="M604.78 197.023C604.812 196.421 605.022 195.842 605.384 195.359C605.745 194.877 606.241 194.512 606.81 194.311C607.378 194.11 607.993 194.082 608.578 194.231C609.162 194.38 609.689 194.698 610.092 195.146C610.496 195.594 610.757 196.152 610.844 196.748C610.931 197.345 610.838 197.954 610.579 198.498C610.32 199.042 609.905 199.498 609.388 199.806C608.87 200.115 608.272 200.264 607.67 200.233C606.862 200.189 606.104 199.826 605.562 199.225C605.02 198.623 604.739 197.831 604.78 197.023Z" fill="white"/>
<path d="M531.1 197.023C531.07 196.418 530.861 195.837 530.499 195.351C530.138 194.865 529.641 194.497 529.071 194.294C528.5 194.091 527.883 194.062 527.296 194.21C526.709 194.358 526.179 194.676 525.773 195.126C525.367 195.575 525.104 196.134 525.016 196.733C524.928 197.332 525.02 197.943 525.28 198.49C525.54 199.037 525.956 199.494 526.476 199.805C526.995 200.115 527.596 200.264 528.2 200.233C529.009 200.189 529.768 199.827 530.311 199.225C530.855 198.624 531.138 197.832 531.1 197.023Z" fill="white"/>
<path d="M567.95 138.833V364.913" stroke="white" stroke-width="2.71" stroke-linecap="round" stroke-linejoin="round"/>
<path d="M567.95 142.043C569.64 142.043 571.01 140.673 571.01 138.983C571.01 137.293 569.64 135.923 567.95 135.923C566.26 135.923 564.89 137.293 564.89 138.983C564.89 140.673 566.26 142.043 567.95 142.043Z" fill="white"/>
<path d="M567.95 272.413V364.913" stroke="#CCCCCC" stroke-width="2" stroke-miterlimit="10"/>
<g style="mix-blend-mode:multiply">
<path d="M538.68 310.413C537.457 310.413 536.285 309.927 535.42 309.063C534.556 308.198 534.07 307.026 534.07 305.803C534.07 304.58 534.556 303.408 535.42 302.543C536.285 301.679 537.457 301.193 538.68 301.193H562.3C562.686 299.038 562.88 296.852 562.88 294.663C562.843 292.72 562.605 290.787 562.17 288.893H538.68C537.457 288.893 536.285 288.407 535.42 287.543C534.556 286.678 534.07 285.506 534.07 284.283C534.07 283.06 534.556 281.888 535.42 281.023C536.285 280.159 537.457 279.673 538.68 279.673H559.5C558.13 275.823 556.42 271.673 554.5 267.383H538.68C537.457 267.383 536.285 266.897 535.42 266.033C534.556 265.168 534.07 263.996 534.07 262.773C534.07 261.55 534.556 260.378 535.42 259.513C536.285 258.649 537.457 258.163 538.68 258.163H550.11C548.11 254.013 545.93 249.863 543.81 245.863H538.68C537.457 245.863 536.285 245.377 535.42 244.513C534.556 243.648 534.07 242.476 534.07 241.253C534.07 240.03 534.556 238.858 535.42 237.993C536.285 237.129 537.457 236.643 538.68 236.643H538.78C531.78 224.093 526 214.743 526 214.743C526 214.743 520.21 224.093 513.22 236.643H513.32C514.543 236.643 515.715 237.129 516.58 237.993C517.444 238.858 517.93 240.03 517.93 241.253C517.93 242.476 517.444 243.648 516.58 244.513C515.715 245.377 514.543 245.863 513.32 245.863H508.19C506.07 249.863 503.93 254.013 501.89 258.163H513.32C514.543 258.163 515.715 258.649 516.58 259.513C517.444 260.378 517.93 261.55 517.93 262.773C517.93 263.996 517.444 265.168 516.58 266.033C515.715 266.897 514.543 267.383 513.32 267.383H497.5C495.58 271.663 493.87 275.823 492.5 279.673H513.28C514.503 279.673 515.675 280.159 516.54 281.023C517.404 281.888 517.89 283.06 517.89 284.283C517.89 285.506 517.404 286.678 516.54 287.543C515.675 288.407 514.503 288.893 513.28 288.893H489.83C489.395 290.787 489.157 292.72 489.12 294.663C489.12 296.852 489.314 299.038 489.7 301.193H513.32C514.543 301.193 515.715 301.679 516.58 302.543C517.444 303.408 517.93 304.58 517.93 305.803C517.93 307.026 517.444 308.198 516.58 309.063C515.715 309.927 514.543 310.413 513.32 310.413H492.65C495.634 316.734 500.354 322.077 506.259 325.819C512.163 329.561 519.01 331.548 526 331.548C532.99 331.548 539.837 329.561 545.741 325.819C551.646 322.077 556.366 316.734 559.35 310.413H538.68Z" fill="#AECC53"/>
</g>
<path d="M525.61 223.203V366.413" stroke="white" stroke-width="2.08" stroke-linecap="round" stroke-linejoin="round"/>
<path d="M525.61 331.403V364.413" stroke="#AECC53" stroke-width="1.89" stroke-linecap="round" stroke-linejoin="round"/>
<path d="M672.97 191.543C671.909 191.543 670.892 191.121 670.142 190.371C669.391 189.621 668.97 188.604 668.97 187.543C668.97 186.482 669.391 185.465 670.142 184.714C670.892 183.964 671.909 183.543 672.97 183.543H693.41C693.747 181.675 693.918 179.781 693.92 177.883C693.887 176.2 693.682 174.525 693.31 172.883H672.97C671.909 172.883 670.892 172.461 670.142 171.711C669.391 170.961 668.97 169.944 668.97 168.883C668.97 167.822 669.391 166.805 670.142 166.054C670.892 165.304 671.909 164.883 672.97 164.883H690.97C689.78 161.543 688.3 157.943 686.64 154.243H672.97C671.909 154.243 670.892 153.821 670.142 153.071C669.391 152.321 668.97 151.304 668.97 150.243C668.97 149.182 669.391 148.165 670.142 147.414C670.892 146.664 671.909 146.243 672.97 146.243H682.87C681.1 142.653 679.25 139.063 677.41 135.603H672.97C671.909 135.603 670.892 135.181 670.142 134.431C669.391 133.681 668.97 132.664 668.97 131.603C668.97 130.542 669.391 129.525 670.142 128.774C670.892 128.024 671.909 127.603 672.97 127.603H673.06C667.06 116.743 662 108.653 662 108.653C662 108.653 657 116.743 650.94 127.603H651.03C652.091 127.603 653.108 128.024 653.858 128.774C654.609 129.525 655.03 130.542 655.03 131.603C655.03 132.664 654.609 133.681 653.858 134.431C653.108 135.181 652.091 135.603 651.03 135.603H646.59C644.75 139.063 642.9 142.603 641.13 146.243H651.03C652.091 146.243 653.108 146.664 653.858 147.414C654.609 148.165 655.03 149.182 655.03 150.243C655.03 151.304 654.609 152.321 653.858 153.071C653.108 153.821 652.091 154.243 651.03 154.243H637.37C635.71 157.943 634.23 161.543 633.04 164.883H651.04C652.101 164.883 653.118 165.304 653.868 166.054C654.619 166.805 655.04 167.822 655.04 168.883C655.04 169.944 654.619 170.961 653.868 171.711C653.118 172.461 652.101 172.883 651.04 172.883H630.69C630.318 174.525 630.113 176.2 630.08 177.883C630.082 179.781 630.253 181.675 630.59 183.543H651.03C652.091 183.543 653.108 183.964 653.858 184.714C654.609 185.465 655.03 186.482 655.03 187.543C655.03 188.604 654.609 189.621 653.858 190.371C653.108 191.121 652.091 191.543 651.03 191.543H633.13C635.715 197.014 639.801 201.637 644.912 204.876C650.023 208.114 655.949 209.833 662 209.833C668.051 209.833 673.977 208.114 679.088 204.876C684.199 201.637 688.285 197.014 690.87 191.543H672.97Z" fill="#006D68"/>
<path d="M662 122.713V244.743" stroke="white" stroke-width="1.8" stroke-linecap="round" stroke-linejoin="round"/>
<path d="M641 228.243V256.743" stroke="#AECC53" stroke-width="2" stroke-linecap="round" stroke-linejoin="round"/>
<path d="M662 210.243V244.743" stroke="#AECC53" stroke-width="2" stroke-linecap="round" stroke-linejoin="round"/>
<path d="M676.77 245.743H634.29V367.403H676.77V245.743Z" fill="#CCCCCC"/>
<g style="mix-blend-mode:multiply">
<path d="M667.21 202.533C667.21 209.484 664.449 216.151 659.533 221.066C654.618 225.982 647.951 228.743 641 228.743C634.049 228.743 627.382 225.982 622.467 221.066C617.551 216.151 614.79 209.484 614.79 202.533C614.79 188.053 641 145.743 641 145.743C641 145.743 667.21 188.053 667.21 202.533Z" fill="#AECC53"/>
</g>
<path d="M641 211.413V228.413" stroke="white" stroke-width="2" stroke-linecap="round" stroke-linejoin="round"/>
<path d="M101.13 329.403L119.4 291.033C128.01 272.973 153.72 272.973 162.33 291.033L197.83 365.303" stroke="#AECC53" stroke-width="2" stroke-linecap="round" stroke-linejoin="round"/>
<path d="M66.5 367.813L82.96 332.453C83.8553 330.558 85.2706 328.956 87.0411 327.835C88.8115 326.713 90.8642 326.118 92.96 326.118C95.0558 326.118 97.1085 326.713 98.8789 327.835C100.649 328.956 102.065 330.558 102.96 332.453L120.06 368.353" stroke="#AECC53" stroke-width="2" stroke-linecap="round" stroke-linejoin="round"/>
<path d="M75.7 349.283C79.7 347.493 81.91 350.203 83.4 353.643C85.3879 358.24 86.7339 363.089 87.4 368.053" stroke="#AECC53" stroke-width="2" stroke-linecap="round" stroke-linejoin="round"/>
<path d="M79.5 339.433C83.18 339.713 86.97 340.603 89.83 342.943C92.69 345.283 94.33 348.713 95.9 352.083C98.71 358.133 100.9 362.513 101.65 367.813" stroke="#AECC53" stroke-width="2" stroke-linecap="round" stroke-linejoin="round"/>
<path d="M1584.5 365.303L1620 291.033C1628.6 272.973 1654.32 272.973 1662.93 291.033L1681.2 329.403C1678.58 331.693 1677.2 335.403 1675.79 338.593L1662.89 366.943C1662.62 367.626 1662.24 368.258 1661.76 368.813C1660.63 369.963 1658.86 370.093 1657.25 370.153L1644.86 370.593C1626.04 371.263 1607.13 371.933 1588.41 369.783C1587.27 369.737 1586.16 369.436 1585.16 368.903C1584.19 368.303 1584.19 366.393 1584.5 365.303Z" stroke="#AECC53" stroke-width="2" stroke-linecap="round" stroke-linejoin="round"/>
<path d="M1715.83 367.813L1699.36 332.453C1698.46 330.558 1697.05 328.956 1695.28 327.835C1693.51 326.713 1691.46 326.118 1689.36 326.118C1687.26 326.118 1685.21 326.713 1683.44 327.835C1681.67 328.956 1680.26 330.558 1679.36 332.453L1662.26 368.353" stroke="#AECC53" stroke-width="2" stroke-linecap="round" stroke-linejoin="round"/>
<path d="M1706.62 349.283C1702.62 347.493 1700.42 350.203 1698.93 353.643C1696.94 358.238 1695.59 363.088 1694.93 368.053" stroke="#AECC53" stroke-width="2" stroke-linecap="round" stroke-linejoin="round"/>
<path d="M1702.79 339.433C1699.1 339.713 1695.32 340.603 1692.46 342.943C1689.6 345.283 1687.96 348.713 1686.39 352.083C1683.57 358.133 1681.39 362.513 1680.64 367.813" stroke="#AECC53" stroke-width="2" stroke-linecap="round" stroke-linejoin="round"/>
<path d="M1876 276.243H1803V394.243H1876V276.243Z" fill="#CCCCCC"/>
<path d="M1810.5 315.413H1737.5V433.413H1810.5V315.413Z" fill="#CCCCCC"/>
<g style="mix-blend-mode:multiply">
<g style="mix-blend-mode:multiply">
<path d="M1839.3 195.553V391.183" stroke="#AECC53" stroke-width="2.71" stroke-linecap="round" stroke-linejoin="round"/>
</g>
<g style="mix-blend-mode:multiply">
<path d="M1834.21 195.813C1834.21 194.803 1834.51 193.816 1835.07 192.976C1835.62 192.135 1836.42 191.48 1837.35 191.093C1838.29 190.706 1839.31 190.604 1840.3 190.8C1841.29 190.997 1842.2 191.483 1842.92 192.197C1843.63 192.91 1844.12 193.82 1844.31 194.81C1844.51 195.801 1844.41 196.827 1844.02 197.759C1843.63 198.691 1842.98 199.488 1842.14 200.048C1841.3 200.607 1840.31 200.905 1839.3 200.903C1837.95 200.903 1836.66 200.367 1835.7 199.412C1834.75 198.457 1834.21 197.163 1834.21 195.813Z" fill="#AECC53"/>
</g>
</g>
<g style="mix-blend-mode:multiply">
<path d="M1839.3 195.033C1838.14 190.281 1837.36 185.447 1836.95 180.573C1836.51 175.753 1836.31 170.933 1836.3 166.113C1836.29 161.293 1836.5 156.473 1836.94 151.653C1837.35 146.775 1838.14 141.937 1839.3 137.183C1840.47 141.936 1841.26 146.775 1841.66 151.653C1842.1 156.473 1842.31 161.293 1842.3 166.113C1842.29 170.933 1842.07 175.753 1841.65 180.573C1841.25 185.448 1840.47 190.283 1839.3 195.033Z" fill="#AECC53"/>
</g>
<g style="mix-blend-mode:multiply">
<path d="M1839.87 195.373C1837.13 198.373 1834.12 201.108 1830.87 203.543C1827.69 205.959 1824.39 208.202 1820.97 210.263C1817.56 212.327 1814.04 214.2 1810.42 215.873C1806.74 217.616 1802.91 219.002 1798.97 220.013C1801.7 217.007 1804.72 214.268 1807.97 211.833C1811.14 209.417 1814.45 207.177 1817.87 205.123C1821.28 203.062 1824.81 201.192 1828.43 199.523C1832.1 197.782 1835.93 196.393 1839.87 195.373Z" fill="#AECC53"/>
</g>
<g style="mix-blend-mode:multiply">
<path d="M1839.64 195.373C1843.58 196.393 1847.41 197.782 1851.08 199.523C1854.7 201.192 1858.23 203.062 1861.64 205.123C1865.06 207.177 1868.37 209.417 1871.54 211.833C1874.79 214.268 1877.81 217.007 1880.54 220.013C1876.6 219.002 1872.77 217.616 1869.09 215.873C1865.47 214.2 1861.95 212.327 1858.54 210.263C1855.12 208.202 1851.82 205.959 1848.64 203.543C1845.39 201.108 1842.38 198.373 1839.64 195.373Z" fill="#AECC53"/>
</g>
<g style="mix-blend-mode:multiply">
<g style="mix-blend-mode:multiply">
<path d="M1773.3 153.553V375.913" stroke="#AECC53" stroke-width="2.71" stroke-linecap="round" stroke-linejoin="round"/>
</g>
<g style="mix-blend-mode:multiply">
<path d="M1768.21 153.813C1768.21 152.803 1768.51 151.816 1769.07 150.976C1769.62 150.135 1770.42 149.48 1771.35 149.093C1772.29 148.706 1773.31 148.604 1774.3 148.8C1775.29 148.997 1776.2 149.483 1776.92 150.197C1777.63 150.91 1778.12 151.82 1778.31 152.81C1778.51 153.801 1778.41 154.827 1778.02 155.759C1777.63 156.691 1776.98 157.488 1776.14 158.048C1775.3 158.607 1774.31 158.905 1773.3 158.903C1771.95 158.903 1770.66 158.367 1769.7 157.412C1768.75 156.457 1768.21 155.163 1768.21 153.813Z" fill="#AECC53"/>
</g>
</g>
<g style="mix-blend-mode:multiply">
<path d="M1773.3 153.033C1772.14 148.281 1771.36 143.447 1770.95 138.573C1770.51 133.753 1770.31 128.933 1770.3 124.113C1770.29 119.293 1770.5 114.473 1770.94 109.653C1771.35 104.775 1772.14 99.9369 1773.3 95.1829C1774.47 99.9359 1775.26 104.775 1775.66 109.653C1776.1 114.473 1776.31 119.293 1776.3 124.113C1776.29 128.933 1776.07 133.753 1775.65 138.573C1775.25 143.448 1774.47 148.283 1773.3 153.033Z" fill="#AECC53"/>
</g>
<g style="mix-blend-mode:multiply">
<path d="M1773.87 153.373C1771.13 156.373 1768.12 159.108 1764.87 161.543C1761.69 163.959 1758.39 166.202 1754.97 168.263C1751.56 170.327 1748.04 172.2 1744.42 173.873C1740.74 175.616 1736.91 177.002 1732.97 178.013C1735.7 175.007 1738.72 172.268 1741.97 169.833C1745.14 167.417 1748.45 165.177 1751.87 163.123C1755.28 161.062 1758.81 159.192 1762.43 157.523C1766.1 155.782 1769.93 154.393 1773.87 153.373Z" fill="#AECC53"/>
</g>
<g style="mix-blend-mode:multiply">
<path d="M1773.64 153.373C1777.58 154.393 1781.41 155.782 1785.08 157.523C1788.7 159.192 1792.23 161.062 1795.64 163.123C1799.06 165.177 1802.37 167.417 1805.54 169.833C1808.79 172.268 1811.81 175.007 1814.54 178.013C1810.6 177.002 1806.77 175.616 1803.09 173.873C1799.47 172.2 1795.95 170.327 1792.54 168.263C1789.12 166.202 1785.82 163.959 1782.64 161.543C1779.39 159.108 1776.38 156.373 1773.64 153.373Z" fill="#AECC53"/>
</g>
<path d="M290.5 300.633H272.09C262.934 300.607 253.999 297.818 246.455 292.629C238.911 287.44 233.109 280.094 229.81 271.553C226.949 263.998 226.599 255.723 228.81 247.953L257.62 144.443C264.26 120.523 298.17 120.513 304.83 144.443C316.39 185.983 328.83 230.653 333.69 247.943C335.933 255.719 335.599 264.012 332.74 271.583C329.439 280.112 323.641 287.447 316.105 292.63C308.57 297.813 299.646 300.602 290.5 300.633V300.633Z" stroke="#AECC53" stroke-width="2" stroke-linecap="round" stroke-linejoin="round"/>
<path d="M299.8 206.093C299.09 210.488 296.838 214.486 293.448 217.372C290.059 220.258 285.752 221.843 281.3 221.843C276.848 221.843 272.542 220.258 269.152 217.372C265.762 214.486 263.51 210.488 262.8 206.093" stroke="#AECC53" stroke-width="2.71" stroke-linecap="round" stroke-linejoin="round"/>
<path d="M296.71 205.973C296.762 205.37 296.991 204.795 297.37 204.322C297.748 203.85 298.258 203.5 298.836 203.317C299.413 203.135 300.031 203.127 300.613 203.296C301.194 203.465 301.713 203.803 302.102 204.267C302.491 204.73 302.734 205.299 302.801 205.901C302.867 206.503 302.752 207.111 302.473 207.648C302.193 208.185 301.76 208.627 301.229 208.918C300.699 209.209 300.093 209.336 299.49 209.283C298.683 209.212 297.937 208.823 297.416 208.203C296.894 207.582 296.641 206.78 296.71 205.973Z" fill="#AECC53"/>
<path d="M265.85 205.973C265.798 205.37 265.569 204.795 265.19 204.322C264.812 203.85 264.302 203.5 263.724 203.317C263.147 203.135 262.529 203.127 261.947 203.296C261.366 203.465 260.847 203.803 260.458 204.267C260.069 204.73 259.825 205.299 259.759 205.901C259.693 206.503 259.807 207.111 260.087 207.648C260.367 208.185 260.799 208.627 261.33 208.918C261.861 209.209 262.467 209.336 263.07 209.283C263.877 209.212 264.623 208.823 265.144 208.203C265.666 207.582 265.919 206.78 265.85 205.973Z" fill="#AECC53"/>
<path d="M309 233.423C308.286 240.277 305.058 246.624 299.938 251.238C294.819 255.852 288.172 258.405 281.28 258.405C274.388 258.405 267.741 255.852 262.622 251.238C257.503 246.624 254.274 240.277 253.56 233.423" stroke="#AECC53" stroke-width="2.71" stroke-linecap="round" stroke-linejoin="round"/>
<path d="M305.92 233.403C305.955 232.799 306.168 232.218 306.532 231.735C306.897 231.252 307.396 230.888 307.968 230.688C308.539 230.489 309.157 230.464 309.743 230.616C310.329 230.768 310.856 231.09 311.259 231.541C311.662 231.993 311.922 232.554 312.005 233.153C312.089 233.753 311.994 234.364 311.731 234.909C311.467 235.454 311.048 235.908 310.527 236.215C310.005 236.522 309.404 236.667 308.8 236.633C308.399 236.61 308.006 236.508 307.644 236.333C307.282 236.159 306.959 235.914 306.691 235.614C306.424 235.314 306.218 234.965 306.086 234.585C305.953 234.206 305.897 233.804 305.92 233.403Z" fill="#AECC53"/>
<path d="M256.64 233.403C256.605 232.799 256.392 232.218 256.028 231.735C255.663 231.252 255.164 230.888 254.592 230.688C254.021 230.489 253.403 230.464 252.817 230.616C252.232 230.768 251.704 231.09 251.301 231.541C250.898 231.993 250.639 232.554 250.555 233.153C250.471 233.753 250.566 234.364 250.83 234.909C251.093 235.454 251.512 235.908 252.033 236.215C252.555 236.522 253.156 236.667 253.76 236.633C254.161 236.61 254.554 236.508 254.916 236.333C255.278 236.159 255.602 235.914 255.869 235.614C256.136 235.314 256.342 234.965 256.474 234.585C256.607 234.206 256.663 233.804 256.64 233.403Z" fill="#AECC53"/>
<path d="M281.29 181.783V368.243" stroke="#AECC53" stroke-width="2.71" stroke-linecap="round" stroke-linejoin="round"/>
<path d="M278.23 181.943C278.228 181.337 278.406 180.745 278.741 180.24C279.076 179.736 279.553 179.342 280.112 179.109C280.671 178.875 281.287 178.813 281.881 178.93C282.475 179.047 283.021 179.338 283.45 179.766C283.879 180.193 284.172 180.738 284.29 181.332C284.409 181.926 284.349 182.542 284.118 183.101C283.887 183.661 283.495 184.14 282.991 184.476C282.488 184.813 281.896 184.993 281.29 184.993C280.48 184.993 279.703 184.672 279.13 184.1C278.556 183.528 278.233 182.753 278.23 181.943Z" fill="#AECC53"/>
<path d="M741.2 253.453H759.28C759.28 255.84 758.332 258.129 756.644 259.817C754.956 261.505 752.667 262.453 750.28 262.453C747.893 262.453 745.604 261.505 743.916 259.817C742.228 258.129 741.28 255.84 741.28 253.453H741.2Z" fill="#006D68" stroke="#006D68" stroke-width="1.5" stroke-linecap="round" stroke-linejoin="round"/>
<path d="M750.24 263.133C747.674 263.13 745.213 262.11 743.398 260.295C741.583 258.48 740.563 256.019 740.56 253.453V252.813H759.92V253.453C759.917 256.019 758.897 258.48 757.082 260.295C755.267 262.11 752.806 263.13 750.24 263.133ZM741.86 254.133C742.007 256.255 742.953 258.243 744.509 259.695C746.064 261.146 748.112 261.954 750.24 261.954C752.368 261.954 754.416 261.146 755.971 259.695C757.527 258.243 758.473 256.255 758.62 254.133H741.86Z" fill="#006D68"/>
<path d="M747.45 248.033H744.88V256.163H747.45V248.033Z" fill="#006D68" stroke="#006D68" stroke-width="1.5" stroke-linecap="round" stroke-linejoin="round"/>
<path d="M755.59 248.033H753.02V256.163H755.59V248.033Z" fill="#006D68" stroke="#006D68" stroke-width="1.5" stroke-linecap="round" stroke-linejoin="round"/>
<path d="M750.69 263.323L750 262.243C750 270.243 745.84 274.173 739.84 274.173H654.44C651.562 274.173 648.803 275.316 646.768 277.351C644.733 279.386 643.59 282.145 643.59 285.023V285.473" stroke="#006D68" stroke-width="3" stroke-linecap="round" stroke-linejoin="round"/>
<path d="M1594.5 209.743H1471.5L1439.5 261.743H1627.5L1594.5 209.743Z" fill="#CCCCCC"/>
<path d="M1594.5 234.433C1591.26 235.573 1587.85 236.433 1584.64 235.133C1581.43 233.833 1578.45 229.903 1578.11 224.833C1577.92 222.123 1579.11 218.833 1578.11 216.463C1577.74 215.61 1577.17 214.855 1576.46 214.258C1575.75 213.661 1574.9 213.238 1574 213.023C1572.43 212.563 1570.78 212.413 1569.35 211.333C1568.25 210.373 1567.48 209.082 1567.18 207.652C1566.87 206.223 1567.03 204.732 1567.64 203.403" stroke="#3C3C3B" stroke-width="1.5" stroke-linecap="round" stroke-linejoin="round"/>
<path d="M1594.44 248.353C1587.23 248.813 1575.84 248.723 1571.81 237.233C1570.64 233.903 1570.67 229.843 1569.58 226.463C1567.76 220.853 1563.44 218.573 1559.72 216.003C1556.16 213.543 1552.47 210.573 1553.4 203.803" stroke="#3C3C3B" stroke-width="1.5" stroke-linecap="round" stroke-linejoin="round"/>
<path d="M1574.21 262.743C1566.36 261.403 1561.39 260.263 1556.89 250.303C1555.64 247.645 1555.05 244.726 1555.17 241.793C1555.42 240.182 1555.53 238.552 1555.49 236.923C1555.26 235.355 1554.66 233.864 1553.74 232.573C1551.44 228.846 1548.43 225.605 1544.88 223.033C1541.61 220.743 1538.08 219.373 1534.88 216.733C1533.04 215.177 1531.53 213.274 1530.42 211.133C1529.32 208.991 1528.65 206.653 1528.45 204.253" stroke="#3C3C3B" stroke-width="1.5" stroke-linecap="round" stroke-linejoin="round"/>
<path d="M1534.19 262.743C1531.52 260.743 1530.08 254.743 1530.83 250.363C1532.24 242.003 1541.45 239.693 1536 228.073C1533.61 222.953 1529.18 220.873 1525.07 221.203C1523.39 221.493 1521.7 221.671 1520 221.733C1514.51 221.413 1507 212.733 1507 203.823" stroke="#3C3C3B" stroke-width="1.5" stroke-linecap="round" stroke-linejoin="round"/>
<path d="M1456.03 262.743C1463.37 261.053 1464.85 246.183 1457.56 241.993C1453.8 239.833 1448.07 241.763 1446.02 235.063C1445.21 232.413 1445.91 227.463 1445.39 224.393C1444.61 219.773 1443.02 212.143 1440.55 209.053C1438.95 207.225 1436.98 205.748 1434.78 204.713" stroke="#3C3C3B" stroke-width="1.5" stroke-linecap="round" stroke-linejoin="round"/>
<path d="M1471.15 262.903C1470.23 261.903 1470.3 259.673 1470.9 258.213C1471.57 256.911 1472.36 255.678 1473.27 254.533C1476.07 250.183 1476.27 242.763 1474.1 237.603C1471.93 232.443 1467.94 229.543 1463.96 229.323C1463.15 229.376 1462.34 229.235 1461.6 228.913C1459.25 227.573 1458.96 222.783 1458.6 218.973C1457.73 209.723 1455.46 205.473 1449.74 203.803" stroke="#3C3C3B" stroke-width="1.5" stroke-linecap="round" stroke-linejoin="round"/>
<path d="M1488.38 263.403C1488.13 258.403 1491.89 255.493 1494.01 251.643C1496.42 247.273 1496.74 240.643 1495.09 235.513C1493.44 230.383 1490.03 226.833 1486.36 225.783C1485.49 225.656 1484.68 225.312 1483.98 224.783C1482.23 223.133 1482.26 219.353 1481.98 216.243C1481.14 206.963 1478.21 204.323 1472.55 203.843" stroke="#3C3C3B" stroke-width="1.5" stroke-linecap="round" stroke-linejoin="round"/>
<path d="M1507.97 262.243C1503.59 255.903 1511.52 252.243 1512.87 247.443C1515.6 237.683 1506.58 228.653 1501.73 226.063C1498.58 224.383 1494.79 224.873 1492.42 220.743C1489.94 216.443 1489.65 208.003 1492 203.613" stroke="#3C3C3B" stroke-width="1.5" stroke-linecap="round" stroke-linejoin="round"/>
<path d="M634.32 272.293H600.88V286.913H634.32V272.293Z" fill="white" stroke="#3C3C3B" stroke-width="1.3" stroke-linecap="round" stroke-linejoin="round"/>
<path d="M658.73 286.753H577.38V364.913H658.73V286.753Z" fill="white" stroke="#3C3C3B" stroke-width="0.96" stroke-linecap="round" stroke-linejoin="round"/>
<path d="M652.07 329.933H584.05V355.863H652.07V329.933Z" fill="#006D68" stroke="#006D68" stroke-width="1.5" stroke-linecap="round" stroke-linejoin="round"/>
<path d="M652.07 297.593H584.05V323.523H652.07V297.593Z" fill="#006D68" stroke="#006D68" stroke-width="1.5" stroke-linecap="round" stroke-linejoin="round"/>
<path d="M205.61 16.4229C202.973 16.4219 200.358 16.8961 197.89 17.8229C196.554 13.2572 193.775 9.24736 189.968 6.39465C186.161 3.54194 181.532 2 176.775 2C172.018 2 167.389 3.54194 163.582 6.39465C159.775 9.24736 156.996 13.2572 155.66 17.8229C152.022 16.4603 148.087 16.0855 144.257 16.7366C140.427 17.3878 136.837 19.0416 133.853 21.53C130.87 24.0184 128.598 27.2526 127.27 30.9037C125.942 34.5547 125.604 38.4924 126.291 42.3164C126.978 46.1403 128.666 49.7141 131.182 52.6743C133.698 55.6345 136.954 57.8755 140.617 59.1695C144.28 60.4634 148.221 60.7642 152.038 60.0411C155.856 59.318 159.414 57.5969 162.35 55.0529C166.351 58.5257 171.472 60.4377 176.77 60.4377C182.068 60.4377 187.189 58.5257 191.19 55.0529C193.874 57.3773 197.08 59.0177 200.536 59.8338C203.991 60.6499 207.593 60.6176 211.033 59.7396C214.474 58.8615 217.65 57.1639 220.292 54.7916C222.934 52.4194 224.962 49.4429 226.204 46.1166C227.445 42.7902 227.863 39.2128 227.422 35.6898C226.981 32.1667 225.694 28.8028 223.671 25.8852C221.647 22.9677 218.948 20.5832 215.803 18.9355C212.658 17.2877 209.16 16.4256 205.61 16.4229V16.4229Z" stroke="#CCCCCC" stroke-width="2.71" stroke-miterlimit="10"/>
<path d="M839.04 363.203C835.447 363.198 832.003 361.767 829.465 359.224C826.926 356.682 825.5 353.236 825.5 349.643V286.443C825.5 256.193 844.5 252.923 852.62 252.923C856.177 252.906 859.598 254.288 862.146 256.77C864.694 259.253 866.164 262.636 866.24 266.193C866.316 269.749 864.992 273.193 862.553 275.782C860.113 278.371 856.754 279.897 853.2 280.033C852.751 282.139 852.556 284.291 852.62 286.443V349.643C852.62 351.425 852.269 353.19 851.586 354.837C850.903 356.483 849.903 357.979 848.641 359.238C847.38 360.498 845.883 361.496 844.235 362.176C842.588 362.857 840.822 363.206 839.04 363.203Z" fill="#CCCCCC"/>
<path d="M803.79 363.203C800.194 363.203 796.745 361.774 794.202 359.231C791.659 356.688 790.23 353.239 790.23 349.643V286.443C790.241 277.556 793.776 269.036 800.059 262.752C806.343 256.468 814.863 252.933 823.75 252.923H854.33C857.926 252.923 861.375 254.352 863.918 256.895C866.461 259.437 867.89 262.887 867.89 266.483C867.89 270.079 866.461 273.528 863.918 276.071C861.375 278.614 857.926 280.043 854.33 280.043H823.75C822.059 280.064 820.443 280.745 819.247 281.94C818.052 283.136 817.371 284.752 817.35 286.443V349.643C817.35 353.239 815.921 356.688 813.378 359.231C810.835 361.774 807.386 363.203 803.79 363.203Z" fill="white" stroke="#3C3C3B" stroke-width="1.28" stroke-linecap="round" stroke-linejoin="round"/>
<path d="M799.46 353.263H816.66V365.913H786.8C786.8 364.251 787.128 362.605 787.764 361.07C788.4 359.534 789.333 358.139 790.509 356.964C791.684 355.79 793.08 354.858 794.616 354.223C796.152 353.588 797.798 353.262 799.46 353.263Z" fill="#006D68"/>
<path d="M835.23 353.263H852.4V365.913H822.57C822.57 364.251 822.898 362.605 823.534 361.07C824.17 359.534 825.103 358.139 826.279 356.964C827.454 355.79 828.85 354.858 830.386 354.223C831.922 353.588 833.568 353.262 835.23 353.263Z" fill="#006D68"/>
<path d="M1627.5 364.743H1560.5V261.743L1594 209.743L1627.5 261.743V364.743Z" fill="#AECC53"/>
<path d="M1560.5 261.743H1439.5V364.903H1560.5V261.743Z" fill="white" stroke="#3C3C3B" stroke-width="1.2" stroke-linecap="round" stroke-linejoin="round"/>
<path d="M1527.5 305.743C1530.68 305.743 1533.73 307.007 1535.99 309.258C1538.24 311.508 1539.5 314.56 1539.5 317.743V366.743H1515.5V317.743C1515.5 314.56 1516.76 311.508 1519.01 309.258C1521.27 307.007 1524.32 305.743 1527.5 305.743Z" fill="white" stroke="#3C3C3B" stroke-width="1.21" stroke-linecap="round" stroke-linejoin="round"/>
<path d="M1491.5 305.743C1494.68 305.743 1497.73 307.007 1499.99 309.258C1502.24 311.508 1503.5 314.56 1503.5 317.743V366.743H1479.5V317.743C1479.5 314.56 1480.76 311.508 1483.01 309.258C1485.27 307.007 1488.32 305.743 1491.5 305.743Z" fill="white" stroke="#3C3C3B" stroke-width="1.21" stroke-linecap="round" stroke-linejoin="round"/>
<path d="M901.41 256.853V366.363" stroke="#CCCCCC" stroke-width="2.71" stroke-miterlimit="10"/>
<path d="M258.66 324.183H318.56C326.988 324.183 335.334 325.843 343.121 329.068C350.907 332.294 357.982 337.021 363.942 342.981C369.902 348.94 374.629 356.016 377.855 363.802C381.08 371.589 382.74 379.935 382.74 388.363H194.5C194.5 371.345 201.259 355.023 213.291 342.988C225.323 330.952 241.642 324.188 258.66 324.183Z" fill="#006D68" stroke="#006D68" stroke-width="0.85" stroke-linecap="round" stroke-linejoin="round"/>
<path d="M77.83 365.913H1835.16C1855.54 365.913 1875.08 374.007 1889.49 388.416C1903.9 402.824 1911.99 422.366 1911.99 442.743H1C1 422.366 9.09457 402.824 23.503 388.416C37.9114 374.007 57.4534 365.913 77.83 365.913Z" fill="#EDEDED" stroke="#EDEDED" stroke-width="0.67" stroke-miterlimit="10"/>
<path d="M402.69 316.193C403.38 315.953 409.15 301.983 410.42 299.313C415.63 288.313 420.78 277.313 424.61 265.733C427.61 256.823 431.03 248.003 427.67 238.653C423.67 227.543 413.27 221.233 401.67 224.893C394.77 227.073 388.99 231.893 384.15 237.273C376.98 245.273 353.29 294.033 347.15 309.583C346.87 310.353 373.12 326.743 402.69 316.193Z" fill="#006D68" stroke="#006D68" stroke-linecap="round" stroke-linejoin="round"/>
<path d="M452.54 282.573L445.78 276.083L469.89 260.863L476.66 267.353L452.54 282.573Z" fill="#3C3C3B" stroke="#3C3C3B" stroke-width="1.29" stroke-linecap="round" stroke-linejoin="round"/>
<path d="M405.28 384.453L433.7 385.453L416.86 377.743L402.94 316.123L393.11 317.123C384.317 318.733 375.282 318.443 366.61 316.273L347.41 309.273L323.96 384.393L352.39 385.393L339.85 377.743L375.61 334.063L405.28 384.453Z" fill="white" stroke="#3C3C3B" stroke-width="1.28" stroke-linecap="round" stroke-linejoin="round"/>
<path d="M375.6 334.103L385 322.143" stroke="#3C3C3B" stroke-width="1.28" stroke-linecap="round" stroke-linejoin="round"/>
<path d="M437.03 237.743C447.485 237.743 455.96 229.268 455.96 218.813C455.96 208.358 447.485 199.883 437.03 199.883C426.575 199.883 418.1 208.358 418.1 218.813C418.1 229.268 426.575 237.743 437.03 237.743Z" fill="white" stroke="#3C3C3B" stroke-width="1.28" stroke-linecap="round" stroke-linejoin="round"/>
<path d="M442.65 277.653C443.65 277.133 444.85 277.383 445.91 277.043C446.393 276.863 446.85 276.621 447.27 276.323C449.84 274.673 452.63 273.073 455.33 271.663C456.098 271.221 456.947 270.938 457.826 270.829C458.706 270.721 459.598 270.79 460.45 271.033C459.09 274.123 455.82 274.953 455.21 278.623C457.27 278.343 459.35 278.193 461.41 277.903C461.91 277.861 462.397 277.729 462.85 277.513C463.412 277.124 463.878 276.61 464.21 276.013C465.157 274.382 466.489 273.009 468.09 272.013C469.22 271.453 472.66 270.793 472.88 272.673C472.99 273.593 469.88 276.473 469.36 277.233C467.74 279.423 466 281.523 464.36 283.683C463.873 284.563 463.142 285.284 462.255 285.76C461.368 286.235 460.363 286.444 459.36 286.363C454.78 286.573 449.16 285.283 444.88 287.243" fill="white"/>
<path d="M442.65 277.653C443.65 277.133 444.85 277.383 445.91 277.043C446.393 276.863 446.85 276.621 447.27 276.323C449.84 274.673 452.63 273.073 455.33 271.663C456.098 271.221 456.947 270.938 457.826 270.829C458.706 270.721 459.598 270.79 460.45 271.033C459.09 274.123 455.82 274.953 455.21 278.623C457.27 278.343 459.35 278.193 461.41 277.903C461.91 277.861 462.397 277.729 462.85 277.513C463.412 277.124 463.878 276.61 464.21 276.013C465.157 274.382 466.489 273.009 468.09 272.013C469.22 271.453 472.66 270.793 472.88 272.673C472.99 273.593 469.88 276.473 469.36 277.233C467.74 279.423 466 281.523 464.36 283.683C463.873 284.563 463.142 285.284 462.255 285.76C461.368 286.235 460.363 286.444 459.36 286.363C454.78 286.573 449.16 285.283 444.88 287.243" stroke="#3C3C3B" stroke-width="1.28" stroke-linecap="round" stroke-linejoin="round"/>
<path d="M454.2 211.083C454.53 201.153 449.81 192.563 442.88 185.693C439.77 182.603 439.93 181.533 438.29 177.083C435.8 170.313 430.29 171.973 426.03 167.933C425.667 167.59 425.333 167.219 425.03 166.823C422.45 163.413 422.81 159.173 417.52 157.473C413.02 156.023 407.52 157.763 405.24 162.043C404.514 163.308 404.29 164.8 404.61 166.223C405.86 170.813 408.12 170.093 405.61 173.993C403.81 176.823 400.61 177.243 399.71 181.323C399.321 183.157 399.37 185.057 399.855 186.868C400.34 188.678 401.246 190.349 402.5 191.743C403.74 193.113 405.36 194.253 406.02 195.983C406.79 197.983 406.02 200.253 405.75 202.393C404.37 212.163 410.01 224.523 420.18 227.253C419.08 225.303 422.18 222.183 422.98 220.313C422.61 221.173 421.72 218.753 421.72 218.763C421.32 217.623 421.9 216.253 422.18 215.183C422.91 212.363 424.33 209.683 427.35 208.853C428.311 208.549 429.349 208.595 430.28 208.983C430.74 209.186 431.128 209.524 431.39 209.953C431.653 210.382 431.778 210.881 431.75 211.383C431.93 209.873 437.03 207.493 438.25 206.823C440.93 205.363 443.05 205.253 446.16 205.943C449 206.593 451.64 208.523 454.2 211.083Z" fill="#3C3C3B" stroke="#3C3C3B" stroke-width="1.29" stroke-linecap="round" stroke-linejoin="round"/>
<g style="mix-blend-mode:multiply">
<g style="mix-blend-mode:multiply">
<path d="M433.32 295.603H433.18L415.82 295.393C411.015 295.337 406.289 294.164 402.015 291.969C397.741 289.773 394.036 286.613 391.193 282.74C388.349 278.866 386.445 274.385 385.631 269.649C384.816 264.914 385.114 260.054 386.5 255.453L391.5 238.563C391.893 237.139 392.566 235.809 393.481 234.649C394.395 233.489 395.532 232.523 396.824 231.809C398.117 231.094 399.539 230.645 401.008 230.488C402.476 230.33 403.961 230.467 405.376 230.892C406.79 231.316 408.106 232.019 409.246 232.958C410.385 233.898 411.325 235.055 412.011 236.363C412.697 237.671 413.115 239.103 413.24 240.575C413.365 242.046 413.195 243.528 412.74 244.933L407.67 261.823C407.279 263.137 407.198 264.524 407.433 265.874C407.668 267.225 408.212 268.503 409.024 269.607C409.836 270.712 410.893 271.613 412.112 272.241C413.331 272.868 414.679 273.204 416.05 273.223L433.41 273.423C436.351 273.44 439.165 274.625 441.233 276.717C443.3 278.809 444.452 281.637 444.435 284.578C444.418 287.519 443.233 290.333 441.141 292.401C439.049 294.468 436.221 295.62 433.28 295.603H433.32Z" fill="#AECC53"/>
</g>
</g>
<path d="M737.35 248.853V366.363" stroke="#CCCCCC" stroke-width="2.71" stroke-miterlimit="10"/>
<path d="M867.63 229.353H699.85L735.42 256.853H903.2L867.63 229.353Z" fill="#CCCCCC" stroke="#CCCCCC" stroke-width="2" stroke-linecap="round" stroke-linejoin="round"/>
<path d="M839.53 160.203H720.14V230.253H839.53V160.203Z" fill="#CCCCCC"/>
<path d="M728.31 170.603H833.16" stroke="white" stroke-width="1.81" stroke-linecap="round" stroke-linejoin="round"/>
<path d="M728.31 177.833H833.16" stroke="white" stroke-width="1.81" stroke-linecap="round" stroke-linejoin="round"/>
<path d="M728.76 186.423H790.23" stroke="white" stroke-width="1.81" stroke-linecap="round" stroke-linejoin="round"/>
<path d="M728.76 193.653H771.24" stroke="white" stroke-width="1.81" stroke-linecap="round" stroke-linejoin="round"/>
<path d="M720.17 159.753H837.68" stroke="#006D68" stroke-width="2.71" stroke-linecap="round" stroke-linejoin="round"/>
<path d="M839.02 229.353H721.53L746.44 246.083H863.93L839.02 229.353Z" fill="white"/>
<path d="M721.53 229.353L746.44 246.083H863.93L839.02 229.353" stroke="#3C3C3B" stroke-linecap="round" stroke-linejoin="round"/>
<path d="M849.4 183.323H849.46C854.366 183.323 859.072 185.272 862.541 188.741C866.011 192.211 867.96 196.916 867.96 201.823V261.963H840.08C837.645 261.963 835.31 260.996 833.589 259.274C831.867 257.553 830.9 255.218 830.9 252.783V201.783C830.911 196.883 832.864 192.188 836.333 188.727C839.801 185.266 844.5 183.323 849.4 183.323Z" fill="#006D68"/>
<path d="M916.34 255.833V365.273" stroke="#CCCCCC" stroke-width="2.71" stroke-miterlimit="10"/>
<path d="M1111.57 253.833V367.273" stroke="#CCCCCC" stroke-width="2.71" stroke-miterlimit="10"/>
<path d="M1225.9 173.833H1134.61V365.463H1225.9V173.833Z" fill="#CCCCCC" stroke="#3C3C3B" stroke-width="1.29" stroke-linecap="round" stroke-linejoin="round"/>
<path d="M1220.94 184.203H1139.59V209.163H1220.94V184.203Z" fill="white" stroke="#3C3C3B" stroke-width="1.29" stroke-linecap="round" stroke-linejoin="round"/>
<path d="M1220.94 221.093H1139.59V246.053H1220.94V221.093Z" fill="white" stroke="#3C3C3B" stroke-width="1.29" stroke-linecap="round" stroke-linejoin="round"/>
<path d="M1220.94 257.993H1139.59V282.953H1220.94V257.993Z" fill="white" stroke="#3C3C3B" stroke-width="1.29" stroke-linecap="round" stroke-linejoin="round"/>
<path d="M1220.94 294.883H1139.59V319.843H1220.94V294.883Z" fill="white" stroke="#3C3C3B" stroke-width="1.29" stroke-linecap="round" stroke-linejoin="round"/>
<path d="M1220.94 331.773H1139.59V356.733H1220.94V331.773Z" fill="white" stroke="#3C3C3B" stroke-width="1.29" stroke-linecap="round" stroke-linejoin="round"/>
<path d="M1208.13 403.873C1206.25 403.873 1204.39 403.503 1202.65 402.784C1200.92 402.064 1199.34 401.01 1198.01 399.682C1196.68 398.353 1195.63 396.775 1194.91 395.039C1194.19 393.303 1193.82 391.442 1193.82 389.563V235.493" stroke="#AECC53" stroke-width="2.71" stroke-linecap="round" stroke-linejoin="round"/>
<path d="M1196.88 235.643C1196.88 235.038 1196.7 234.446 1196.36 233.943C1196.03 233.44 1195.55 233.047 1194.99 232.816C1194.43 232.584 1193.82 232.524 1193.22 232.642C1192.63 232.76 1192.08 233.051 1191.66 233.479C1191.23 233.907 1190.94 234.452 1190.82 235.046C1190.7 235.639 1190.76 236.255 1190.99 236.814C1191.22 237.373 1191.62 237.851 1192.12 238.187C1192.62 238.523 1193.21 238.703 1193.82 238.703C1194.63 238.703 1195.41 238.38 1195.98 237.807C1196.56 237.233 1196.88 236.454 1196.88 235.643Z" fill="#AECC53"/>
<path d="M1211.45 389.113V199.333" stroke="#AECC53" stroke-width="2.71" stroke-linecap="round" stroke-linejoin="round"/>
<path d="M1214.5 199.483C1214.5 198.878 1214.32 198.286 1213.98 197.783C1213.65 197.28 1213.17 196.887 1212.61 196.656C1212.05 196.424 1211.44 196.364 1210.84 196.482C1210.25 196.6 1209.7 196.891 1209.28 197.319C1208.85 197.747 1208.56 198.292 1208.44 198.886C1208.32 199.479 1208.38 200.095 1208.61 200.654C1208.84 201.213 1209.24 201.691 1209.74 202.027C1210.24 202.363 1210.83 202.543 1211.44 202.543C1211.84 202.544 1212.24 202.466 1212.61 202.313C1212.98 202.159 1213.32 201.934 1213.61 201.65C1213.89 201.365 1214.12 201.027 1214.27 200.655C1214.42 200.284 1214.5 199.885 1214.5 199.483Z" fill="#AECC53"/>
<path d="M1225.76 403.423C1221.97 403.41 1218.35 401.896 1215.67 399.214C1213 396.532 1211.5 392.899 1211.5 389.113" stroke="#AECC53" stroke-width="2.71" stroke-linecap="round" stroke-linejoin="round"/>
<path d="M1190.05 403.873C1188.17 403.873 1186.31 403.503 1184.58 402.783C1182.84 402.064 1181.26 401.01 1179.93 399.681C1178.61 398.352 1177.55 396.774 1176.84 395.038C1176.12 393.302 1175.75 391.442 1175.75 389.563V273.453" stroke="#AECC53" stroke-width="2.71" stroke-linecap="round" stroke-linejoin="round"/>
<path d="M1178.8 273.603C1178.8 272.995 1178.62 272.401 1178.28 271.897C1177.94 271.392 1177.46 271 1176.9 270.771C1176.33 270.541 1175.72 270.484 1175.12 270.607C1174.53 270.73 1173.98 271.027 1173.55 271.461C1173.13 271.895 1172.84 272.446 1172.73 273.044C1172.62 273.641 1172.69 274.258 1172.93 274.816C1173.17 275.374 1173.57 275.848 1174.08 276.177C1174.59 276.506 1175.19 276.675 1175.8 276.663C1176.6 276.647 1177.36 276.318 1177.93 275.746C1178.49 275.174 1178.8 274.404 1178.8 273.603Z" fill="#AECC53"/>
<path d="M643.74 374.913V312.453" stroke="#AECC53" stroke-width="2.71" stroke-linecap="round" stroke-linejoin="round"/>
<path d="M646.8 312.603C646.8 311.995 646.619 311.401 646.28 310.897C645.941 310.392 645.459 310 644.897 309.771C644.334 309.541 643.716 309.484 643.121 309.607C642.525 309.73 641.98 310.027 641.555 310.461C641.129 310.895 640.843 311.446 640.732 312.044C640.62 312.641 640.69 313.258 640.931 313.816C641.171 314.374 641.573 314.848 642.084 315.177C642.595 315.506 643.192 315.675 643.8 315.663C644.601 315.647 645.364 315.318 645.925 314.746C646.486 314.174 646.8 313.404 646.8 312.603Z" fill="#AECC53"/>
<path d="M1098.44 232.133H930.35L914.35 256.523H1114.44L1098.44 232.133Z" fill="#CCCCCC" stroke="#CCCCCC" stroke-linecap="round" stroke-linejoin="round"/>
<path d="M481.36 108.743H447.23C444.843 108.743 442.554 109.691 440.866 111.379C439.178 113.067 438.23 115.356 438.23 117.743V146.583C438.23 148.97 439.178 151.259 440.866 152.947C442.554 154.635 444.843 155.583 447.23 155.583H456.84L464.3 163.043L471.75 155.583H481.36C483.747 155.583 486.036 154.635 487.724 152.947C489.412 151.259 490.36 148.97 490.36 146.583V117.743C490.36 115.356 489.412 113.067 487.724 111.379C486.036 109.691 483.747 108.743 481.36 108.743Z" fill="white" stroke="#AECC53" stroke-width="2" stroke-linecap="round" stroke-linejoin="round"/>
<path d="M1197.12 105.423H1163.41C1161.06 105.423 1158.8 106.357 1157.14 108.021C1155.47 109.684 1154.54 111.94 1154.54 114.293V142.793C1154.54 145.145 1155.47 147.401 1157.14 149.065C1158.8 150.728 1161.06 151.663 1163.41 151.663H1172.9L1180.27 159.033L1187.63 151.663H1197.12C1199.47 151.663 1201.73 150.728 1203.39 149.065C1205.06 147.401 1205.99 145.145 1205.99 142.793V114.293C1205.99 111.94 1205.06 109.684 1203.39 108.021C1201.73 106.357 1199.47 105.423 1197.12 105.423Z" stroke="#006D68" stroke-width="1.5" stroke-linecap="round" stroke-linejoin="round"/>
<path d="M1175.28 127.073L1168.09 129.833L1175.28 132.583V135.403L1164.69 131.263V128.373L1175.28 124.253V127.073Z" fill="#006D68"/>
<path d="M1176.03 120.223L1178.85 119.373L1184.49 137.013L1181.67 137.853L1176.03 120.223Z" fill="#006D68"/>
<path d="M1195.84 128.373V131.263L1185.25 135.403V132.583L1192.43 129.833L1185.25 127.073V124.253L1195.84 128.373Z" fill="#006D68"/>
<path d="M796.69 72.6729H762.98C760.628 72.6729 758.371 73.6074 756.708 75.2709C755.044 76.9343 754.11 79.1904 754.11 81.5429V110.043C754.11 112.395 755.044 114.651 756.708 116.315C758.371 117.978 760.628 118.913 762.98 118.913H772.5L779.86 126.283L787.23 118.913H796.72C799.072 118.913 801.329 117.978 802.992 116.315C804.656 114.651 805.59 112.395 805.59 110.043V81.5429C805.59 80.3756 805.36 79.2197 804.912 78.1416C804.464 77.0634 803.808 76.0843 802.981 75.2602C802.155 74.4362 801.173 73.7835 800.094 73.3395C799.014 72.8955 797.857 72.669 796.69 72.6729Z" fill="white" stroke="#AECC53" stroke-width="2" stroke-linecap="round" stroke-linejoin="round"/>
<path d="M774.85 94.3229L767.67 97.0829L774.85 99.8329V102.653L764.26 98.5129V95.6329L774.85 91.5029V94.3229Z" fill="#AECC53"/>
<path d="M775.6 87.4728L778.42 86.6228L784.06 104.263L781.24 105.113L775.6 87.4728Z" fill="#AECC53"/>
<path d="M795.41 95.6329V98.5129L784.82 102.653V99.8329L792 97.0829L784.82 94.3229V91.5029L795.41 95.6329Z" fill="#AECC53"/>
<path d="M1303.35 403.873H1170.17C1168.29 403.873 1166.43 403.503 1164.69 402.784C1162.96 402.064 1161.38 401.01 1160.05 399.681C1158.72 398.353 1157.67 396.775 1156.95 395.039C1156.23 393.303 1155.86 391.442 1155.86 389.563V308.853" stroke="#006D68" stroke-width="2" stroke-linecap="round" stroke-linejoin="round"/>
<path d="M1158.12 308.963C1158.12 308.515 1157.99 308.078 1157.74 307.705C1157.5 307.332 1157.14 307.04 1156.73 306.868C1156.32 306.695 1155.86 306.649 1155.43 306.735C1154.99 306.821 1154.58 307.036 1154.27 307.351C1153.95 307.667 1153.73 308.07 1153.64 308.508C1153.56 308.947 1153.6 309.402 1153.77 309.815C1153.94 310.229 1154.23 310.583 1154.6 310.831C1154.98 311.08 1155.41 311.213 1155.86 311.213C1156.46 311.213 1157.03 310.976 1157.45 310.554C1157.88 310.133 1158.12 309.561 1158.12 308.963Z" fill="#006D68"/>
<path d="M1024.69 72.6729H990.98C988.628 72.6729 986.371 73.6074 984.708 75.2709C983.044 76.9343 982.11 79.1904 982.11 81.5429V110.043C982.11 112.395 983.044 114.651 984.708 116.315C986.371 117.978 988.628 118.913 990.98 118.913H1000.5L1007.86 126.283L1015.23 118.913H1024.72C1027.07 118.913 1029.33 117.978 1030.99 116.315C1032.66 114.651 1033.59 112.395 1033.59 110.043V81.5429C1033.59 80.3756 1033.36 79.2197 1032.91 78.1416C1032.46 77.0634 1031.81 76.0843 1030.98 75.2602C1030.15 74.4362 1029.17 73.7835 1028.09 73.3395C1027.01 72.8955 1025.86 72.669 1024.69 72.6729Z" fill="white" stroke="#AECC53" stroke-width="2" stroke-linecap="round" stroke-linejoin="round"/>
<path d="M1003.5 82.7429H1012.63L1010.28 102.043H1005.8L1003.5 82.7429ZM1011.9 104.743V112.363H1004.15V104.743H1011.9Z" fill="#AECC53"/>
<path d="M1742.76 428.143C1743 410.243 1747.53 383.063 1747 362.243C1746.15 328.783 1738.39 306.083 1737 306.243C1731.94 306.833 1723.43 419.903 1723.62 421.573C1723.73 422.573 1717.37 425.933 1714 428.113C1713.87 428.199 1713.77 428.325 1713.72 428.473C1713.66 428.62 1713.66 428.781 1713.7 428.932C1713.75 429.082 1713.84 429.214 1713.96 429.308C1714.09 429.402 1714.24 429.453 1714.4 429.453C1721.73 429.323 1742.74 429.623 1742.76 428.143Z" fill="#006D68" stroke="#006D68" stroke-width="1.5" stroke-linecap="round" stroke-linejoin="round"/>
<path d="M1776.76 426.143C1770.26 388.943 1763.46 351.803 1756.76 314.633C1754.76 303.683 1752.83 292.693 1749.19 282.193C1747.93 278.553 1746.19 274.713 1742.87 272.853C1740.83 271.819 1738.52 271.439 1736.25 271.763C1731.25 272.363 1725.6 272.983 1724.7 278.763C1718 322.093 1733.7 362.883 1750.17 402.063C1752.17 406.743 1757.38 417.863 1757.57 419.533C1757.68 420.533 1751.32 423.893 1747.95 426.073C1747.82 426.159 1747.72 426.285 1747.67 426.433C1747.61 426.58 1747.61 426.741 1747.65 426.892C1747.7 427.042 1747.79 427.174 1747.91 427.268C1748.04 427.362 1748.19 427.413 1748.35 427.413C1755.73 427.323 1777.02 427.603 1776.76 426.143Z" fill="white"/>
<path d="M1725 323.903C1729.14 350.903 1739.55 376.683 1750.22 402.103C1752.22 406.783 1757.43 417.903 1757.62 419.573C1757.73 420.573 1751.37 423.933 1748 426.113C1747.87 426.199 1747.77 426.325 1747.72 426.473C1747.66 426.62 1747.66 426.781 1747.7 426.932C1747.75 427.082 1747.84 427.214 1747.96 427.308C1748.09 427.402 1748.24 427.453 1748.4 427.453C1755.73 427.323 1777.02 427.603 1776.76 426.143C1770.26 388.943 1763.46 351.803 1756.76 314.633C1754.76 303.683 1752.83 292.693 1749.19 282.193C1747.93 278.553 1746.19 274.713 1742.87 272.853C1740.83 271.819 1738.52 271.439 1736.25 271.763C1731.25 272.363 1725.6 272.983 1724.7 278.763C1723.24 288.303 1722.78 297.968 1723.33 307.603" stroke="#3C3C3B" stroke-width="1.28" stroke-linecap="round" stroke-linejoin="round"/>
<path d="M1728 285.243L1725 277.243L1739 275.243L1728 285.243Z" fill="#006D68" stroke="#006D68" stroke-width="1.5" stroke-linecap="round" stroke-linejoin="round"/>
<path d="M1730.62 277.583C1738.61 277.583 1745.08 271.109 1745.08 263.123C1745.08 255.137 1738.61 248.663 1730.62 248.663C1722.63 248.663 1716.16 255.137 1716.16 263.123C1716.16 271.109 1722.63 277.583 1730.62 277.583Z" fill="white" stroke="#3C3C3B" stroke-width="1.28" stroke-linecap="round" stroke-linejoin="round"/>
<path d="M1745.08 262.743C1745.07 262.056 1745 261.371 1744.89 260.693C1744.4 257.853 1743.08 255.223 1741.09 253.139C1739.1 251.056 1736.54 249.613 1733.72 248.997C1730.91 248.38 1727.98 248.618 1725.3 249.679C1722.62 250.74 1720.32 252.576 1718.69 254.953C1718.59 255.103 1718.35 255.233 1718.4 255.403C1718.5 255.743 1745.09 262.873 1745.08 262.743Z" fill="#006D68" stroke="#006D68" stroke-linecap="round" stroke-linejoin="round"/>
<path d="M1745.09 263.133L1717.54 255.153L1710.74 253.183" fill="white"/>
<path d="M1745.09 263.133L1717.54 255.153L1710.74 253.183" stroke="#006D68" stroke-width="2" stroke-linecap="round" stroke-linejoin="round"/>
<path d="M1758 353.243C1753 355.243 1744 352.243 1742.16 344.593L1758 353.243Z" fill="white"/>
<path d="M1758 353.243C1753 355.243 1744 352.243 1742.16 344.593" stroke="#3C3C3B" stroke-width="1.28" stroke-linecap="round" stroke-linejoin="round"/>
<path d="M643.5 374.413V375.413" stroke="#AECC53" stroke-width="2" stroke-linecap="round" stroke-linejoin="round"/>
<path d="M643.5 382.293V383.173C643.54 388.621 641.414 393.863 637.591 397.744C633.767 401.626 628.558 403.831 623.11 403.873H275.67C270.221 403.831 265.013 401.626 261.189 397.744C257.366 393.863 255.24 388.621 255.28 383.173V372.683" stroke="#AECC53" stroke-width="2" stroke-linecap="round" stroke-linejoin="round" stroke-dasharray="2.01 6.88"/>
<path d="M255.28 369.243V368.243" stroke="#AECC53" stroke-width="2" stroke-linecap="round" stroke-linejoin="round"/>
<path d="M787.22 231.633C786.575 231.572 785.934 231.475 785.3 231.343C784.8 231.223 781.3 229.813 778.84 228.683C778.116 228.353 777.314 228.233 776.525 228.338C775.737 228.442 774.993 228.766 774.38 229.273C772.91 230.461 771.277 231.431 769.53 232.153C769.269 232.225 769.037 232.38 768.87 232.593C768.761 232.798 768.716 233.032 768.74 233.263C768.74 233.491 768.796 233.715 768.902 233.916C769.009 234.117 769.163 234.288 769.352 234.416C769.541 234.543 769.758 234.622 769.984 234.646C770.21 234.67 770.439 234.638 770.65 234.553L775.72 232.453C775.906 232.352 776.121 232.317 776.33 232.353C776.493 232.411 776.633 232.52 776.73 232.663C777.38 233.669 777.898 234.754 778.27 235.893C779.39 238.423 782.43 239.483 784.98 239.713C786.093 239.758 787.197 239.506 788.18 238.983" fill="white"/>
<path d="M787.22 231.633C786.575 231.572 785.934 231.475 785.3 231.343C784.8 231.223 781.3 229.813 778.84 228.683C778.116 228.353 777.314 228.233 776.525 228.338C775.737 228.442 774.993 228.766 774.38 229.273C772.91 230.461 771.277 231.431 769.53 232.153C769.269 232.225 769.037 232.38 768.87 232.593C768.761 232.798 768.716 233.032 768.74 233.263V233.263C768.74 233.491 768.796 233.715 768.902 233.916C769.009 234.117 769.163 234.288 769.352 234.416C769.541 234.543 769.758 234.622 769.984 234.646C770.21 234.67 770.439 234.638 770.65 234.553L775.72 232.453C775.906 232.352 776.121 232.317 776.33 232.353C776.493 232.411 776.633 232.52 776.73 232.663C777.38 233.669 777.898 234.754 778.27 235.893C779.39 238.423 782.43 239.483 784.98 239.713C786.093 239.758 787.197 239.506 788.18 238.983" stroke="#3C3C3B" stroke-width="1.28" stroke-linecap="round" stroke-linejoin="round"/>
<path d="M776.59 228.173C773.8 228.373 771.41 229.993 768.54 230.223" stroke="#3C3C3B" stroke-width="1.28" stroke-linecap="round" stroke-linejoin="round"/>
<path d="M848.53 181.973C857.019 181.973 863.9 175.092 863.9 166.603C863.9 158.114 857.019 151.233 848.53 151.233C840.041 151.233 833.16 158.114 833.16 166.603C833.16 175.092 840.041 181.973 848.53 181.973Z" fill="white" stroke="#3C3C3B" stroke-width="1.28" stroke-linecap="round" stroke-linejoin="round"/>
<g style="mix-blend-mode:multiply">
<g style="mix-blend-mode:multiply">
<path d="M791.36 242.363C785.91 242.363 785.79 222.523 791.28 222.473L817.66 222.243C819.08 222.227 820.437 221.653 821.436 220.644C822.436 219.635 822.997 218.273 823 216.853V197.173C822.958 195.84 823.184 194.513 823.664 193.269C824.145 192.026 824.871 190.892 825.799 189.934C826.726 188.977 827.837 188.215 829.065 187.695C830.292 187.175 831.612 186.907 832.945 186.907C834.278 186.907 835.598 187.175 836.825 187.695C838.053 188.215 839.164 188.977 840.091 189.934C841.019 190.892 841.745 192.026 842.226 193.269C842.706 194.513 842.932 195.84 842.89 197.173V216.853C842.872 223.514 840.233 229.9 835.543 234.631C830.854 239.362 824.491 242.057 817.83 242.133L791.45 242.363H791.36Z" fill="#AECC53"/>
</g>
</g>
<path d="M864.87 175.013C866.439 173.263 867.892 171.412 869.22 169.473C872.164 165.264 874.163 160.467 875.08 155.413C875.08 155.223 878.76 154.273 879.17 154.083C887.34 150.363 885.17 137.413 875.45 139.683C873.89 140.051 872.44 140.784 871.22 141.823C870.95 142.063 868.39 145.253 868.67 145.323C865.97 145.323 863.47 144.653 860.67 144.813C856.787 144.801 852.954 145.687 849.47 147.403C844.71 149.403 838.27 154.093 842.14 160.003C842.66 160.772 843.383 161.382 844.23 161.763C845.68 159.643 848.12 157.973 849.94 160.993C851.63 163.803 850.2 167.553 847.62 169.263C848.19 173.973 852.5 177.393 856.93 179.093C857.459 179.336 858.039 179.445 858.62 179.413C860.6 179.123 862.88 177.203 864.87 175.013Z" fill="#3C3C3B" stroke="#3C3C3B" stroke-width="1.29" stroke-linecap="round" stroke-linejoin="round"/>
<path d="M870.28 280.153L870.5 365.273" stroke="#3C3C3B" stroke-width="2" stroke-linecap="round" stroke-linejoin="round"/>
<path d="M830.45 280.493L829.5 365.843" stroke="#3C3C3B" stroke-width="2" stroke-linecap="round" stroke-linejoin="round"/>
<path d="M824.57 280.043H875.19V284.743C875.19 285.431 875.054 286.112 874.791 286.748C874.528 287.384 874.142 287.961 873.655 288.448C873.169 288.935 872.591 289.321 871.955 289.584C871.32 289.847 870.638 289.983 869.95 289.983H829.82C829.132 289.983 828.45 289.847 827.815 289.584C827.179 289.321 826.601 288.935 826.115 288.448C825.628 287.961 825.242 287.384 824.979 286.748C824.715 286.112 824.58 285.431 824.58 284.743V280.043H824.57Z" fill="#AECC53"/>
<path d="M870.68 280.043H875.5C869.5 280.043 825.03 280.493 825.03 280.493" stroke="#3C3C3B" stroke-width="2" stroke-linecap="round" stroke-linejoin="round"/>
<path d="M1080.83 151.683H947.96V232.133H1080.83V151.683Z" fill="#CCCCCC"/>
<path d="M961.97 162.983H1066.82" stroke="#006D68" stroke-width="0.9" stroke-linecap="round" stroke-linejoin="round"/>
<path d="M961.97 170.213H1066.82" stroke="#006D68" stroke-width="0.9" stroke-linecap="round" stroke-linejoin="round"/>
<path d="M962.42 178.803H984" stroke="#006D68" stroke-width="0.9" stroke-linecap="round" stroke-linejoin="round"/>
<path d="M947.96 232.133L935.3 245.693H1093.49L1080.83 232.133H947.96Z" fill="white"/>
<path d="M1049 245.693H1093.49L1080.83 232.133" stroke="#3C3C3B" stroke-linecap="round" stroke-linejoin="round"/>
<path d="M947.96 232.133L935.3 245.693H973" stroke="#3C3C3B" stroke-linecap="round" stroke-linejoin="round"/>
<path d="M947.51 151.683H1080.38" stroke="#006D68" stroke-width="2.71" stroke-linecap="round" stroke-linejoin="round"/>
<path d="M1008.22 179.703C1016.49 179.703 1023.19 173.001 1023.19 164.733C1023.19 156.465 1016.49 149.763 1008.22 149.763C999.952 149.763 993.25 156.465 993.25 164.733C993.25 173.001 999.952 179.703 1008.22 179.703Z" fill="#3C3C3B" stroke="#3C3C3B" stroke-width="1.29" stroke-linecap="round" stroke-linejoin="round"/>
<path d="M990.3 157.123C987.3 165.563 991.3 174.743 999.35 177.623C1007.4 180.503 1016.17 175.673 1019.2 167.233C1022.23 158.793 1018.34 149.913 1010.32 147.033C1002.3 144.153 993.33 148.673 990.3 157.123Z" fill="white"/>
<path d="M1019.7 169.723C1021.35 169.723 1022.69 168.16 1022.69 166.233C1022.69 164.305 1021.35 162.743 1019.7 162.743C1018.05 162.743 1016.71 164.305 1016.71 166.233C1016.71 168.16 1018.05 169.723 1019.7 169.723Z" fill="#3C3C3B" stroke="#3C3C3B" stroke-width="1.29" stroke-linecap="round" stroke-linejoin="round"/>
<path d="M1042.38 365.913H1012.55V353.263H1029.72C1033.08 353.263 1036.29 354.596 1038.66 356.968C1041.04 359.34 1042.37 362.558 1042.37 365.913H1042.38Z" fill="#006D68"/>
<path d="M987.24 353.263H1004.41V365.913H974.58C974.58 364.251 974.907 362.605 975.544 361.07C976.18 359.534 977.113 358.139 978.289 356.964C979.464 355.79 980.86 354.858 982.396 354.223C983.932 353.588 985.578 353.262 987.24 353.263Z" fill="#006D68"/>
<path d="M993.57 360.943C995.054 360.943 996.523 360.651 997.894 360.083C999.265 359.515 1000.51 358.682 1001.56 357.633C1002.61 356.584 1003.44 355.338 1004.01 353.967C1004.58 352.596 1004.87 351.127 1004.87 349.643V273.743C1004.87 270.746 1003.68 267.872 1001.56 265.753C999.441 263.633 996.567 262.443 993.57 262.443C990.573 262.443 987.699 263.633 985.58 265.753C983.461 267.872 982.27 270.746 982.27 273.743V349.643C982.27 351.127 982.562 352.596 983.13 353.967C983.698 355.338 984.53 356.584 985.58 357.633C986.629 358.682 987.875 359.515 989.246 360.083C990.617 360.651 992.086 360.943 993.57 360.943Z" fill="#CCCCCC"/>
<path d="M1023.4 360.943C1024.88 360.943 1026.35 360.651 1027.72 360.083C1029.1 359.515 1030.34 358.682 1031.39 357.633C1032.44 356.584 1033.27 355.338 1033.84 353.967C1034.41 352.596 1034.7 351.127 1034.7 349.643V278.643C1034.69 272.419 1032.22 266.452 1027.81 262.052C1023.41 257.652 1017.44 255.178 1011.22 255.173H989.95C986.953 255.173 984.079 256.363 981.96 258.483C979.841 260.602 978.65 263.476 978.65 266.473C978.65 269.47 979.841 272.344 981.96 274.463C984.079 276.582 986.953 277.773 989.95 277.773H1011.22C1011.45 277.78 1011.67 277.874 1011.83 278.035C1011.99 278.197 1012.09 278.414 1012.1 278.643V349.643C1012.1 351.127 1012.39 352.596 1012.96 353.967C1013.53 355.338 1014.36 356.584 1015.41 357.633C1016.46 358.682 1017.7 359.515 1019.08 360.083C1020.45 360.651 1021.92 360.943 1023.4 360.943Z" fill="white" stroke="#3C3C3B" stroke-width="1.28" stroke-linecap="round" stroke-linejoin="round"/>
<g style="mix-blend-mode:multiply">
<g style="mix-blend-mode:multiply">
<path d="M1036.84 245.013C1034.14 245.01 1031.47 244.347 1029.08 243.082C1026.69 241.817 1024.64 239.988 1023.12 237.753C1021.22 234.9 1020.23 231.54 1020.27 228.113V194.023C1020.24 191.794 1021.05 189.636 1022.55 187.983C1024.04 186.33 1026.11 185.305 1028.33 185.113C1029.51 185.035 1030.69 185.2 1031.8 185.599C1032.92 185.998 1033.93 186.622 1034.79 187.431C1035.65 188.241 1036.34 189.219 1036.8 190.305C1037.27 191.391 1037.51 192.561 1037.5 193.743V223.743C1037.5 224.236 1037.6 224.723 1037.81 225.171C1038.01 225.619 1038.31 226.017 1038.69 226.338C1039.06 226.659 1039.5 226.896 1039.97 227.031C1040.45 227.167 1040.94 227.198 1041.43 227.123L1052.12 225.463C1054.31 225.102 1056.56 225.583 1058.42 226.808C1060.27 228.034 1061.59 229.914 1062.12 232.073C1062.37 233.218 1062.38 234.402 1062.15 235.552C1061.93 236.702 1061.47 237.794 1060.81 238.761C1060.14 239.727 1059.29 240.548 1058.3 241.172C1057.31 241.797 1056.2 242.212 1055.04 242.393L1039.38 244.803C1038.54 244.943 1037.69 245.013 1036.84 245.013Z" fill="#AECC53"/>
</g>
</g>
<g style="mix-blend-mode:multiply">
<g style="mix-blend-mode:multiply">
<path d="M982.31 245.793C980.032 245.793 977.847 244.888 976.236 243.277C974.625 241.666 973.72 239.481 973.72 237.203V193.143C973.72 190.865 974.625 188.68 976.236 187.069C977.847 185.458 980.032 184.553 982.31 184.553C984.588 184.553 986.773 185.458 988.384 187.069C989.995 188.68 990.9 190.865 990.9 193.143V237.203C990.9 239.481 989.995 241.666 988.384 243.277C986.773 244.888 984.588 245.793 982.31 245.793Z" fill="#AECC53"/>
</g>
</g>
<path d="M1003.28 176.993H1006.39C1011.39 176.993 1016.18 178.979 1019.72 182.514C1023.25 186.049 1025.24 190.844 1025.24 195.843V256.063C1025.24 258.01 1024.47 259.877 1023.09 261.253C1021.71 262.63 1019.85 263.403 1017.9 263.403H991C989.053 263.403 987.186 262.63 985.81 261.253C984.433 259.877 983.66 258.01 983.66 256.063V196.653C983.655 194.073 984.158 191.517 985.142 189.132C986.126 186.747 987.57 184.58 989.392 182.754C991.215 180.927 993.379 179.479 995.762 178.49C998.145 177.502 1000.7 176.993 1003.28 176.993Z" fill="#006D68"/>
<path d="M1023.71 275.753L1041 366.283" stroke="#3C3C3B" stroke-width="2" stroke-linecap="round" stroke-linejoin="round"/>
<path d="M983.21 271.453L965.19 366.283" stroke="#3C3C3B" stroke-width="2" stroke-linecap="round" stroke-linejoin="round"/>
<path d="M977.33 271.003H1027.95V275.653C1027.95 277.043 1027.4 278.375 1026.42 279.358C1025.43 280.341 1024.1 280.893 1022.71 280.893H982.58C981.19 280.893 979.857 280.341 978.875 279.358C977.892 278.375 977.34 277.043 977.34 275.653V270.953L977.33 271.003Z" fill="#AECC53"/>
<path d="M1027.5 271.453H977.79" stroke="#3C3C3B" stroke-width="2" stroke-linecap="round" stroke-linejoin="round"/>
<path d="M157.36 46.8229C154.97 46.8213 152.599 47.248 150.36 48.0829C149.146 43.9557 146.628 40.3326 143.183 37.7554C139.738 35.1783 135.552 33.7855 131.25 33.7855C126.948 33.7855 122.761 35.1783 119.317 37.7554C115.872 40.3326 113.354 43.9557 112.14 48.0829C108.844 46.8434 105.278 46.5 101.805 47.0876C98.3332 47.6752 95.0788 49.1728 92.3738 51.4277C89.6689 53.6827 87.61 56.6145 86.4072 59.9243C85.2043 63.2341 84.9004 66.8037 85.5263 70.2692C86.1523 73.7347 87.6858 76.9724 89.9706 79.6522C92.2554 82.3321 95.2098 84.3583 98.5327 85.5245C101.856 86.6906 105.428 86.955 108.887 86.2907C112.345 85.6264 115.566 84.0572 118.22 81.7429C121.838 84.8889 126.471 86.6215 131.265 86.6215C136.059 86.6215 140.692 84.8889 144.31 81.7429C146.738 83.8491 149.64 85.3362 152.768 86.077C155.896 86.8177 159.157 86.7902 162.272 85.9966C165.386 85.2031 168.263 83.6671 170.655 81.5201C173.047 79.373 174.884 76.6787 176.008 73.6674C177.133 70.6561 177.511 67.4173 177.112 64.2278C176.712 61.0384 175.546 57.9931 173.714 55.3522C171.881 52.7113 169.437 50.5534 166.589 49.0629C163.741 47.5723 160.574 46.7935 157.36 46.7929V46.8229Z" fill="#EDEDED" stroke="#EDEDED" stroke-width="0.55" stroke-miterlimit="10"/>
<path d="M1226.82 281.843V263.763C1229.21 263.763 1231.5 264.711 1233.18 266.399C1234.87 268.087 1235.82 270.376 1235.82 272.763C1235.82 275.15 1234.87 277.439 1233.18 279.127C1231.5 280.815 1229.21 281.763 1226.82 281.763V281.843Z" fill="#006D68" stroke="#006D68" stroke-width="1.5" stroke-linecap="round" stroke-linejoin="round"/>
<path d="M1232.69 272.353C1235.56 272.363 1238.31 273.511 1240.34 275.545C1242.36 277.578 1243.5 280.332 1243.5 283.203V354.613C1243.5 357.49 1244.64 360.25 1246.68 362.285C1248.71 364.32 1251.47 365.463 1254.35 365.463H1254.8" stroke="#006D68" stroke-width="3" stroke-linecap="round" stroke-linejoin="round"/>
<path d="M140.5 418.013H173.5V392.143H207H207.5V365.743H124V391.003H123.5H90V416.873H57V442.743H90.5H91H140.5V418.013Z" fill="white"/>
<path d="M140.5 442.743V418.013H173.5V392.143H207H207.5V365.743" stroke="#3C3C3B" stroke-width="1.5" stroke-linecap="round" stroke-linejoin="round"/>
<path d="M1627 418.013H1594V392.143H1560.5H1560V365.743H1643.5V391.003H1644H1677.5V416.873H1710.5V442.743H1677H1676.5H1627V418.013Z" fill="white"/>
<path d="M1627 442.743V418.013H1594V392.143H1560.5H1560V365.743" stroke="#3C3C3B" stroke-width="1.5" stroke-linecap="round" stroke-linejoin="round"/>
<path d="M226.51 117.743L172.51 116.243V366.243H256.01L255.51 158.743L226.51 117.743Z" fill="#EDEDED"/>
<path d="M207.01 159.243L172.76 116.243L138.51 159.243V365.883H207.01V159.243Z" fill="white" stroke="#3C3C3B" stroke-width="1.5" stroke-linecap="round" stroke-linejoin="round"/>
<path d="M207.01 366.243V159.243L172.76 116.243" fill="white"/>
<path d="M207.01 366.243V159.243L172.76 116.243" stroke="#3C3C3B" stroke-width="1.5" stroke-linecap="round" stroke-linejoin="round"/>
<path d="M189.01 273.243H156.01V364.353H189.01V273.243Z" fill="#AECC53"/>
<path d="M230.55 366.233C229.61 362.183 228.93 357.933 229.98 353.913C231.03 349.893 234.24 346.183 238.37 345.753C240.58 345.523 243.27 347.013 245.19 345.753C246.86 344.653 247.61 342.593 247.99 340.623C248.37 338.653 248.49 336.623 249.36 334.803C250.53 332.423 253.47 330.873 255.83 332.673" stroke="#3C3C3B" stroke-width="1.5" stroke-linecap="round" stroke-linejoin="round"/>
<path d="M219.21 366.153C218.83 357.153 218.9 342.923 228.27 337.883C230.97 336.423 234.27 336.463 237.04 335.093C241.61 332.823 243.47 327.433 245.56 322.783C247.56 318.333 249.99 313.723 255.5 314.883" stroke="#3C3C3B" stroke-width="1.5" stroke-linecap="round" stroke-linejoin="round"/>
<path d="M207.5 340.883C208.58 331.073 209.5 324.883 217.63 319.253C219.62 317.745 222.076 316.984 224.57 317.103C225.9 317.233 227.22 317.713 228.57 317.503C229.945 317.149 231.179 316.385 232.11 315.313C235.359 312.129 237.993 308.372 239.88 304.233C241.74 300.153 242.88 295.743 245.02 291.803C247.16 287.863 250.73 284.313 255.18 283.803" stroke="#3C3C3B" stroke-width="1.5" stroke-linecap="round" stroke-linejoin="round"/>
<path d="M207.5 290.883C209.15 287.543 213.98 285.753 217.58 286.683C224.39 288.443 226.28 299.953 235.75 293.153C239.91 290.153 241.61 284.623 241.34 279.493C241.23 277.383 240.83 275.273 240.91 273.163C241.17 266.293 248.2 256.923 255.5 256.883" stroke="#3C3C3B" stroke-width="1.5" stroke-linecap="round" stroke-linejoin="round"/>
<path d="M207.5 185.743C208.87 194.913 220.99 196.743 224.4 187.653C226.16 182.963 224.59 175.803 230.05 173.243C232.21 172.243 236.24 173.113 238.74 172.463C242.51 171.463 248.74 169.463 251.24 166.403C252.819 164.222 254.013 161.787 254.77 159.203" stroke="#3C3C3B" stroke-width="1.5" stroke-linecap="round" stroke-linejoin="round"/>
<path d="M207.35 204.633C208.17 203.483 209.98 203.563 211.17 204.323C212.276 205.211 213.282 206.217 214.17 207.323C217.71 210.823 223.76 211.023 227.96 208.323C232.16 205.623 234.53 200.623 234.71 195.653C234.661 194.657 234.776 193.661 235.05 192.703C236.14 189.763 240.05 189.393 243.14 188.943C250.68 187.853 254.14 185.033 255.5 177.883" stroke="#3C3C3B" stroke-width="1.5" stroke-linecap="round" stroke-linejoin="round"/>
<path d="M206.94 223.653C211.03 223.343 213.39 228.043 216.52 230.653C218.357 232.101 220.568 232.995 222.895 233.233C225.222 233.47 227.568 233.04 229.66 231.993C231.727 230.902 233.517 229.352 234.893 227.463C236.269 225.574 237.195 223.395 237.6 221.093C237.696 220.05 237.981 219.034 238.44 218.093C239.79 215.913 242.87 215.953 245.44 215.593C253 214.543 255.15 210.893 255.54 203.823" stroke="#3C3C3B" stroke-width="1.5" stroke-linecap="round" stroke-linejoin="round"/>
<path d="M207.89 258.123C213.05 252.663 216.02 262.563 219.95 264.243C227.95 267.663 235.26 256.383 237.37 250.333C238.74 246.393 238.37 241.663 241.7 238.693C245.03 235.723 252.08 235.233 255.7 238.173" stroke="#3C3C3B" stroke-width="1.5" stroke-linecap="round" stroke-linejoin="round"/>
<path d="M226.51 117.743L173.5 115.883L207.5 158.883L255.51 158.743L226.51 117.743Z" fill="#006D68" stroke="#006D68" stroke-width="1.5" stroke-linecap="round" stroke-linejoin="round"/>
<path d="M138.5 365.883L255.95 366.243L255.51 158.743" stroke="#3C3C3B" stroke-width="1.5" stroke-linecap="round" stroke-linejoin="round"/>
<path d="M207.01 363.883V159.243L172.76 116.243" fill="white"/>
<path d="M207.01 363.883V159.243L172.76 116.243" stroke="#3C3C3B" stroke-width="1.5" stroke-linecap="round" stroke-linejoin="round"/>
<path d="M207.34 158.853H255.34" stroke="#3C3C3B" stroke-width="1.51" stroke-linecap="round" stroke-linejoin="round"/>
<path d="M224.42 96.2229C230.341 95.2622 236.404 96.6418 241.327 100.07C246.25 103.498 249.647 108.706 250.8 114.593" stroke="#006D68" stroke-width="2.71" stroke-linecap="round" stroke-linejoin="round"/>
<path d="M226.05 106.283C229.434 105.738 232.896 106.559 235.675 108.565C238.454 110.572 240.323 113.599 240.87 116.983" stroke="#006D68" stroke-width="2.71" stroke-linecap="round" stroke-linejoin="round"/>
<path d="M222.79 86.1528C231.383 84.7631 240.178 86.7898 247.296 91.7997C254.413 96.8097 259.289 104.405 260.88 112.963" stroke="#006D68" stroke-width="2.71" stroke-linecap="round" stroke-linejoin="round"/>
<path d="M1569.1 181.813C1573.9 176.701 1580.49 173.655 1587.5 173.319C1594.5 172.983 1601.36 175.384 1606.62 180.013" stroke="#006D68" stroke-width="2.71" stroke-linecap="round" stroke-linejoin="round"/>
<path d="M1577.79 189.973C1579.15 188.527 1580.77 187.363 1582.58 186.547C1584.39 185.731 1586.34 185.278 1588.32 185.216C1590.3 185.154 1592.27 185.483 1594.12 186.184C1595.98 186.885 1597.68 187.945 1599.12 189.303" stroke="#006D68" stroke-width="2.71" stroke-linecap="round" stroke-linejoin="round"/>
<path d="M1560.42 173.663C1567.38 166.248 1576.97 161.852 1587.12 161.417C1597.28 160.981 1607.21 164.541 1614.78 171.333" stroke="#006D68" stroke-width="2.71" stroke-linecap="round" stroke-linejoin="round"/>
<path d="M1165.5 199.683H1147.5C1146.7 199.683 1145.94 199.367 1145.38 198.804C1144.82 198.242 1144.5 197.479 1144.5 196.683C1144.5 195.887 1144.82 195.124 1145.38 194.562C1145.94 193.999 1146.7 193.683 1147.5 193.683H1165.5C1166.3 193.683 1167.06 193.999 1167.62 194.562C1168.18 195.124 1168.5 195.887 1168.5 196.683C1168.5 197.479 1168.18 198.242 1167.62 198.804C1167.06 199.367 1166.3 199.683 1165.5 199.683Z" fill="#006D68" stroke="#006D68" stroke-linecap="round" stroke-linejoin="round"/>
<path d="M1175.5 196.743H1180.5" stroke="#AECC53" stroke-width="6" stroke-linecap="round" stroke-linejoin="round"/>
<path d="M1603.5 263.743H1587.5V306.743H1603.5V263.743Z" fill="white"/>
<path d="M1165.5 236.573H1147.5C1146.7 236.573 1145.94 236.257 1145.38 235.694C1144.82 235.132 1144.5 234.369 1144.5 233.573C1144.5 232.777 1144.82 232.014 1145.38 231.452C1145.94 230.889 1146.7 230.573 1147.5 230.573H1165.5C1166.3 230.573 1167.06 230.889 1167.62 231.452C1168.18 232.014 1168.5 232.777 1168.5 233.573C1168.5 234.369 1168.18 235.132 1167.62 235.694C1167.06 236.257 1166.3 236.573 1165.5 236.573Z" fill="#006D68" stroke="#006D68" stroke-linecap="round" stroke-linejoin="round"/>
<path d="M1175.5 233.573H1180.5" stroke="#AECC53" stroke-width="6" stroke-linecap="round" stroke-linejoin="round"/>
<path d="M1695.36 199.743H1661.23C1658.84 199.743 1656.55 200.691 1654.87 202.379C1653.18 204.067 1652.23 206.356 1652.23 208.743V237.583C1652.23 239.97 1653.18 242.259 1654.87 243.947C1656.55 245.635 1658.84 246.583 1661.23 246.583H1670.84L1678.3 254.043L1685.75 246.583H1695.36C1697.75 246.583 1700.04 245.635 1701.72 243.947C1703.41 242.259 1704.36 239.97 1704.36 237.583V208.743C1704.36 206.356 1703.41 204.067 1701.72 202.379C1700.04 200.691 1697.75 199.743 1695.36 199.743Z" fill="white" stroke="#AECC53" stroke-width="2" stroke-linecap="round" stroke-linejoin="round"/>
<path d="M1673.73 209.043H1682.86L1680.51 228.343H1676.04L1673.73 209.043ZM1682.15 230.983V238.603H1674.4V230.983H1682.15Z" fill="#AECC53"/>
<path d="M1702.02 311.093L1706.5 306.803C1706.63 306.665 1706.74 306.5 1706.8 306.319C1706.86 306.137 1706.88 305.944 1706.86 305.754C1706.84 305.563 1706.78 305.379 1706.68 305.215C1706.58 305.05 1706.45 304.91 1706.29 304.803L1685.72 291.803C1685.47 291.649 1685.19 291.581 1684.9 291.61C1684.61 291.639 1684.34 291.763 1684.13 291.963L1679.66 296.253C1679.52 296.389 1679.42 296.553 1679.36 296.735C1679.29 296.916 1679.27 297.109 1679.29 297.3C1679.31 297.491 1679.37 297.676 1679.47 297.841C1679.57 298.006 1679.7 298.146 1679.86 298.253L1700.43 311.253C1700.68 311.407 1700.96 311.475 1701.25 311.446C1701.54 311.417 1701.81 311.293 1702.02 311.093Z" fill="#CCCCCC"/>
<path d="M1708.5 306.883C1706.26 305.443 1703.82 304.043 1701.5 302.813C1700.83 302.425 1700.09 302.177 1699.32 302.083C1698.55 301.988 1697.77 302.049 1697.02 302.263C1698.22 304.963 1701.02 305.683 1701.61 308.893C1699.8 308.653 1697.98 308.513 1696.18 308.263C1695.75 308.227 1695.32 308.111 1694.93 307.923C1694.44 307.585 1694.03 307.136 1693.74 306.613C1692.91 305.197 1691.75 304.006 1690.35 303.143C1689.35 302.653 1686.35 302.083 1686.16 303.713C1686.06 304.523 1688.75 307.043 1689.24 307.713C1690.65 309.623 1692.17 311.463 1693.62 313.353C1694.14 314.12 1694.82 314.762 1695.62 315.233C1696.4 315.552 1697.24 315.709 1698.08 315.693C1701.08 315.833 1704.59 315.233 1707.74 315.643" fill="white"/>
<path d="M1708.5 306.883C1706.26 305.443 1703.82 304.043 1701.5 302.813C1700.83 302.425 1700.09 302.177 1699.32 302.083C1698.55 301.988 1697.77 302.049 1697.02 302.263C1698.22 304.963 1701.02 305.683 1701.61 308.893C1699.8 308.653 1697.98 308.513 1696.18 308.263C1695.75 308.227 1695.32 308.111 1694.93 307.923C1694.44 307.585 1694.03 307.136 1693.74 306.613C1692.91 305.197 1691.75 304.006 1690.35 303.143C1689.35 302.653 1686.35 302.083 1686.16 303.713C1686.06 304.523 1688.75 307.043 1689.24 307.713C1690.65 309.623 1692.17 311.463 1693.62 313.353C1694.14 314.12 1694.82 314.762 1695.62 315.233C1696.4 315.552 1697.24 315.709 1698.08 315.693C1701.08 315.833 1704.59 315.233 1707.74 315.643" stroke="#3C3C3B" stroke-width="1.18" stroke-linecap="round" stroke-linejoin="round"/>
<g style="mix-blend-mode:multiply">
<g style="mix-blend-mode:multiply">
<path d="M1735.5 326.403C1733.61 326.406 1731.72 326.067 1729.95 325.403L1711.04 318.313C1710.15 318.01 1709.34 317.533 1708.64 316.908C1707.94 316.284 1707.37 315.526 1706.97 314.678C1706.57 313.831 1706.34 312.912 1706.31 311.975C1706.27 311.039 1706.42 310.104 1706.75 309.226C1707.08 308.349 1707.58 307.547 1708.22 306.867C1708.87 306.187 1709.64 305.644 1710.5 305.27C1711.36 304.896 1712.29 304.698 1713.23 304.688C1714.16 304.678 1715.09 304.857 1715.96 305.213L1734.87 312.303C1735.14 312.414 1735.44 312.449 1735.73 312.405C1736.03 312.361 1736.3 312.239 1736.53 312.053C1736.77 311.877 1736.95 311.642 1737.07 311.372C1737.19 311.102 1737.23 310.806 1737.2 310.513L1735.03 287.933C1734.94 287.018 1735.04 286.094 1735.3 285.215C1735.57 284.335 1736.01 283.518 1736.6 282.808C1737.18 282.099 1737.9 281.511 1738.71 281.08C1739.53 280.648 1740.41 280.381 1741.33 280.293C1742.25 280.205 1743.17 280.298 1744.05 280.567C1744.93 280.836 1745.75 281.276 1746.45 281.861C1747.16 282.446 1747.75 283.165 1748.18 283.977C1748.61 284.789 1748.88 285.678 1748.97 286.593L1751.13 309.173C1751.33 311.352 1751.08 313.549 1750.39 315.625C1749.7 317.702 1748.58 319.611 1747.11 321.232C1745.64 322.853 1743.85 324.15 1741.85 325.04C1739.85 325.93 1737.69 326.394 1735.5 326.403Z" fill="#AECC53"/>
</g>
</g>
<path d="M507.5 418.743H550.5" stroke="white" stroke-width="1.89" stroke-linecap="round" stroke-linejoin="round"/>
<path d="M303.5 418.743H490.5" stroke="white" stroke-width="1.89" stroke-linecap="round" stroke-linejoin="round"/>
<path d="M380.5 428.743H468.5" stroke="white" stroke-width="1.89" stroke-linecap="round" stroke-linejoin="round"/>
<path d="M1197.5 418.413H1154.5" stroke="white" stroke-width="1.89" stroke-linecap="round" stroke-linejoin="round"/>
<path d="M1335.73 418.413H1214.5" stroke="white" stroke-width="1.89" stroke-linecap="round" stroke-linejoin="round"/>
<path d="M1401.5 418.413H1368.62" stroke="white" stroke-width="1.89" stroke-linecap="round" stroke-linejoin="round"/>
<path d="M1324.5 428.413H1236.5" stroke="white" stroke-width="1.89" stroke-linecap="round" stroke-linejoin="round"/>
<path d="M464.33 125.833C463.86 124.643 463.9 123.293 463.08 122.323C462.02 121.045 460.591 120.126 458.989 119.69C457.387 119.254 455.689 119.323 454.128 119.887C452.566 120.451 451.216 121.483 450.263 122.843C449.31 124.202 448.799 125.823 448.8 127.483C448.8 127.543 448.8 127.613 448.8 127.693C449.05 135.693 463.42 148.183 464.24 148.393C464.24 148.393 464.24 148.393 464.29 148.393C465.1 148.203 467.58 134.133 464.33 125.833Z" fill="#006D68"/>
<g style="mix-blend-mode:multiply">
<path d="M479.78 127.743C479.785 127.673 479.785 127.603 479.78 127.533C479.784 125.672 479.145 123.868 477.971 122.424C476.797 120.981 475.16 119.987 473.338 119.612C471.515 119.237 469.619 119.502 467.971 120.365C466.322 121.227 465.022 122.632 464.29 124.343C459.29 134.183 463.42 148.233 464.24 148.443C464.24 148.443 464.24 148.443 464.29 148.443C465.17 148.183 479.5 135.643 479.78 127.743Z" fill="#AECC53"/>
</g>
<path d="M1078.14 230.523C1077.73 230.353 1077.33 230.173 1076.93 229.973H1077.17H1078.05C1078.25 229.967 1078.44 229.922 1078.62 229.841C1078.8 229.761 1078.96 229.645 1079.1 229.502C1079.23 229.358 1079.34 229.19 1079.41 229.005C1079.48 228.821 1079.51 228.625 1079.51 228.428C1079.5 228.231 1079.45 228.037 1079.37 227.857C1079.29 227.678 1079.18 227.515 1079.03 227.38C1078.89 227.245 1078.72 227.14 1078.54 227.07C1078.35 227 1078.16 226.967 1077.96 226.973H1077.05C1076.18 226.973 1071.24 226.753 1071.05 226.763C1070.05 226.599 1069.03 226.739 1068.11 227.163L1067.92 227.243C1067.39 227.403 1062.25 229.623 1061.92 229.693H1061.74C1062.42 231.167 1062.72 232.785 1062.61 234.404C1062.51 236.022 1062 237.589 1061.14 238.963H1061.76C1063.89 238.899 1065.96 238.203 1067.7 236.963C1068.38 236.464 1068.99 235.886 1069.53 235.243L1069.7 235.013C1070.01 234.536 1070.25 234.022 1070.43 233.483C1070.59 232.982 1070.83 232.509 1071.14 232.083L1071.21 231.983L1071.4 232.053L1076.47 234.153C1076.78 234.287 1077.12 234.342 1077.45 234.312C1077.78 234.282 1078.11 234.168 1078.39 233.98C1078.66 233.793 1078.89 233.538 1079.05 233.24C1079.2 232.941 1079.28 232.609 1079.27 232.273C1079.29 231.924 1079.21 231.577 1079.04 231.273C1078.83 230.929 1078.52 230.665 1078.14 230.523Z" fill="#3C3C3B"/>
<path d="M1717 383.243H1664V429.243H1717V383.243Z" fill="white" stroke="#3C3C3B" stroke-width="1.28" stroke-linecap="round" stroke-linejoin="round"/>
<g style="mix-blend-mode:multiply">
<path d="M1645.2 336.903L1660.48 365.403H1610.55L1623.1 337.653C1624.05 335.557 1625.56 333.767 1627.47 332.487C1629.39 331.207 1631.62 330.487 1633.92 330.409C1636.22 330.331 1638.49 330.898 1640.49 332.046C1642.48 333.193 1644.11 334.876 1645.2 336.903Z" fill="#006D68"/>
</g>
<path d="M1696.5 383.243H1684.5V399.243H1696.5V383.243Z" fill="#006D68" stroke="#006D68" stroke-linecap="round" stroke-linejoin="round"/>
<path d="M1335.73 235.753H1254.38V377.663H1335.73V235.753Z" fill="white" stroke="#3C3C3B" stroke-width="1.29" stroke-linecap="round" stroke-linejoin="round"/>
<path d="M1329.07 278.933H1261.05V304.863H1329.07V278.933Z" fill="#006D68" stroke="#006D68" stroke-width="1.5" stroke-linecap="round" stroke-linejoin="round"/>
<path d="M1329.07 246.593H1261.05V272.523H1329.07V246.593Z" fill="white" stroke="#3C3C3B" stroke-width="1.29" stroke-linecap="round" stroke-linejoin="round"/>
<path d="M1329.07 311.263H1261.05V337.193H1329.07V311.263Z" fill="#006D68" stroke="#006D68" stroke-width="1.5" stroke-linecap="round" stroke-linejoin="round"/>
<path d="M1329.07 343.603H1261.05V369.533H1329.07V343.603Z" fill="#006D68" stroke="#006D68" stroke-width="1.5" stroke-linecap="round" stroke-linejoin="round"/>
<path d="M1311.32 221.293H1277.88V235.753H1311.32V221.293Z" fill="white" stroke="#3C3C3B" stroke-width="1.29" stroke-linecap="round" stroke-linejoin="round"/>
<path d="M1381.5 363.403L1381.35 395.113C1381.35 403.013 1374.94 403.423 1367.04 403.423H1303.04" stroke="#006D68" stroke-width="2" stroke-linecap="round" stroke-linejoin="round" stroke-dasharray="2 6.86"/>
<path d="M1593.5 209.413L1560.5 261.413" stroke="#3C3C3B" stroke-width="1.2" stroke-linecap="round" stroke-linejoin="round"/>
</svg>
