<svg width="295" height="295" viewBox="0 0 295 295" fill="none" xmlns="http://www.w3.org/2000/svg">
<path d="M291.328 184.108C286.236 204.88 276.663 223.208 262.61 239.093C248.556 254.978 232.364 268.215 214.033 278.805C195.702 289.394 175.742 294.791 154.152 294.995C132.562 295.198 112.806 289.496 94.8823 277.888C76.9588 266.28 60.5629 253.043 45.6945 238.177C30.8262 223.31 21.9662 205.389 19.1148 184.413C16.2633 163.438 15.856 142.258 17.8927 120.875C19.9295 99.4919 28.6876 81.3672 44.167 66.5008C59.6463 51.6345 76.4496 38.8046 94.5768 28.0112C112.704 17.2179 132.868 10.5993 155.069 8.1555C177.269 5.71172 198.146 9.88651 217.699 20.6799C237.252 31.4733 252.935 45.9323 264.748 64.0571C276.561 82.1818 285.218 101.528 290.717 122.097C296.216 142.665 296.42 163.336 291.328 184.108Z" fill="#AECC53"/>
<path d="M291.328 184.108C286.236 204.88 276.663 223.208 262.61 239.093C248.556 254.978 232.364 268.215 214.033 278.805C195.702 289.394 175.742 294.791 154.152 294.995C132.562 295.198 112.806 289.496 94.8823 277.888C76.9588 266.28 60.5629 253.043 45.6945 238.177C30.8262 223.31 21.9662 205.389 19.1148 184.413C16.2633 163.438 15.856 142.258 17.8927 120.875C19.9295 99.4919 28.6876 81.3672 44.167 66.5008C59.6463 51.6345 76.4496 38.8046 94.5768 28.0112C112.704 17.2179 132.868 10.5993 155.069 8.1555C177.269 5.71172 198.146 9.88651 217.699 20.6799C237.252 31.4733 252.935 45.9323 264.748 64.0571C276.561 82.1818 285.218 101.528 290.717 122.097C296.216 142.665 296.42 163.336 291.328 184.108Z" fill="white" fill-opacity="0.75"/>
<g clip-path="url(#clip0)">
<path d="M238.568 16.2124L232.302 17.7082L240.288 22.2038" fill="#006D68"/>
<path d="M238.568 16.2124L232.302 17.7082L240.288 22.2038" stroke="#006D68" stroke-width="1.12" stroke-linecap="round" stroke-linejoin="round"/>
<path d="M246.396 19.3536C246.396 23.7283 248.134 27.9239 251.227 31.0173C254.32 34.1108 258.516 35.8486 262.891 35.8486C267.266 35.8486 271.461 34.1108 274.555 31.0173C277.648 27.9239 279.386 23.7283 279.386 19.3536C279.386 19.0045 246.396 19.0045 246.396 19.3536Z" fill="#006D68" stroke="#006D68" stroke-width="1.5" stroke-linecap="round" stroke-linejoin="round"/>
<g style="mix-blend-mode:multiply">
<path d="M246.861 23.4089C248.4 24.7593 250.189 25.7935 252.128 26.4523C254.066 27.1111 256.115 27.3817 258.158 27.2486C260.201 27.1155 262.198 26.5812 264.034 25.6765C265.871 24.7717 267.511 23.5141 268.861 21.9754C270.212 20.4367 271.246 18.6471 271.905 16.7087C272.564 14.7704 272.834 12.7213 272.701 10.6783C272.568 8.63542 272.034 6.63873 271.129 4.80226C270.224 2.96578 268.967 1.32548 267.428 -0.024959C267.179 -0.216086 246.612 23.1928 246.861 23.4089Z" fill="#AECC53"/>
</g>
<path d="M247.052 26.5166C242.174 26.5166 238.219 22.5618 238.219 17.6832C238.219 12.8047 242.174 8.84985 247.052 8.84985C251.931 8.84985 255.886 12.8047 255.886 17.6832C255.886 22.5618 251.931 26.5166 247.052 26.5166Z" fill="white" stroke="#006D68" stroke-width="1.81" stroke-linecap="round" stroke-linejoin="round"/>
</g>
<path d="M188.792 270.511C185.803 270.511 182.937 269.324 180.824 267.211C178.711 265.098 177.524 262.231 177.524 259.243V206.725C177.524 181.587 193.312 178.87 200.06 178.87C203.016 178.856 205.859 180.004 207.976 182.067C210.093 184.13 211.315 186.942 211.378 189.897C211.441 192.852 210.341 195.714 208.314 197.865C206.287 200.017 203.496 201.285 200.542 201.398C200.169 203.148 200.007 204.936 200.06 206.725V259.243C200.06 262.231 198.873 265.098 196.76 267.211C194.646 269.324 191.78 270.511 188.792 270.511Z" fill="#CCCCCC"/>
<path d="M159.499 270.511C156.511 270.511 153.645 269.324 151.532 267.211C149.418 265.097 148.231 262.231 148.231 259.243V206.724C148.24 199.34 151.178 192.26 156.399 187.038C161.621 181.816 168.701 178.879 176.086 178.87H201.498C204.486 178.87 207.352 180.057 209.465 182.17C211.579 184.283 212.766 187.15 212.766 190.138C212.766 193.127 211.579 195.993 209.465 198.106C207.352 200.219 204.486 201.406 201.498 201.406H176.086C174.681 201.423 173.338 201.989 172.344 202.983C171.351 203.977 170.785 205.319 170.768 206.724V259.243C170.768 262.231 169.58 265.097 167.467 267.211C165.354 269.324 162.488 270.511 159.499 270.511Z" fill="white" stroke="#3C3C3B" stroke-width="1.28" stroke-linecap="round" stroke-linejoin="round"/>
<path d="M155.901 262.251H170.169V272.763H145.423C145.423 269.981 146.526 267.312 148.49 265.341C150.454 263.371 153.119 262.26 155.901 262.251Z" fill="#006D68"/>
<path d="M185.626 262.251H199.894V272.763H175.114C175.114 269.975 176.221 267.301 178.193 265.33C180.164 263.358 182.838 262.251 185.626 262.251Z" fill="#006D68"/>
<path d="M104.289 175.488V273.137" stroke="#CCCCCC" stroke-width="2.71" stroke-miterlimit="10"/>
<path d="M76.0353 160.53V275.389" stroke="#CCCCCC" stroke-width="2.71" stroke-miterlimit="10"/>
<path d="M236.416 180.656V273.137" stroke="#CCCCCC" stroke-width="2.71" stroke-miterlimit="10"/>
<path d="M212.55 159.283H73.1268L102.685 182.136H242.108L212.55 159.283Z" fill="#CCCCCC" stroke="#CCCCCC" stroke-width="2" stroke-linecap="round" stroke-linejoin="round"/>
<path d="M189.199 101.821H89.9875V160.031H189.199V101.821Z" fill="#CCCCCC"/>
<path d="M96.7766 110.463H183.905" stroke="white" stroke-width="1.81" stroke-linecap="round" stroke-linejoin="round"/>
<path d="M96.7766 116.471H183.905" stroke="white" stroke-width="1.81" stroke-linecap="round" stroke-linejoin="round"/>
<path d="M97.1506 123.609H148.231" stroke="white" stroke-width="1.81" stroke-linecap="round" stroke-linejoin="round"/>
<path d="M97.1506 129.617H132.459" stroke="white" stroke-width="1.81" stroke-linecap="round" stroke-linejoin="round"/>
<path d="M90.0209 101.447H187.662" stroke="#006D68" stroke-width="2.71" stroke-linecap="round" stroke-linejoin="round"/>
<path d="M188.775 159.283H91.1426L111.842 173.178H209.475L188.775 159.283Z" fill="white"/>
<path d="M91.1426 159.283L111.842 173.178H209.475L188.775 159.283" stroke="#3C3C3B" stroke-linecap="round" stroke-linejoin="round"/>
<path d="M197.401 121.033H197.451C201.528 121.033 205.438 122.653 208.321 125.536C211.204 128.419 212.824 132.329 212.824 136.406V186.382H189.664C187.641 186.382 185.701 185.578 184.27 184.147C182.84 182.717 182.036 180.776 182.036 178.753V136.373C182.036 132.296 183.656 128.386 186.539 125.502C189.422 122.619 193.332 121 197.409 121L197.401 121.033Z" fill="#006D68"/>
<path d="M153.384 29.0845H125.371C123.416 29.0845 121.541 29.861 120.159 31.2433C118.777 32.6256 118 34.5004 118 36.4553V60.1467C118 62.1016 118.777 63.9764 120.159 65.3587C121.541 66.741 123.416 67.5176 125.371 67.5176H133.257L139.381 73.6419L145.498 67.5176H153.384C155.338 67.5176 157.213 66.741 158.595 65.3587C159.978 63.9764 160.754 62.1016 160.754 60.1467V36.4553C160.754 34.5004 159.978 32.6256 158.595 31.2433C157.213 29.861 155.338 29.0845 153.384 29.0845Z" fill="white" stroke="#AECC53" stroke-width="2" stroke-linecap="round" stroke-linejoin="round"/>
<path fill-rule="evenodd" clip-rule="evenodd" d="M136.736 38.6927C136.198 38.6927 135.762 39.1287 135.762 39.6665V49.08C135.762 49.4386 135.472 49.7292 135.113 49.7292C134.755 49.7292 134.464 49.4386 134.464 49.08V47.9243L133.162 48.1848C132.832 48.2508 132.607 48.5584 132.644 48.893L133.092 52.9248C133.126 53.2343 133.234 53.531 133.407 53.7901L135.268 56.5814C135.388 56.762 135.591 56.8705 135.808 56.8705H144.098C144.331 56.8705 144.546 56.7457 144.661 56.5434L146.473 53.3731C146.699 52.9776 146.839 52.5389 146.885 52.0856L147.237 48.56C147.314 47.7957 146.713 47.1324 145.945 47.1324H145.5V48.4308C145.5 48.7894 145.21 49.08 144.851 49.08C144.493 49.08 144.202 48.7894 144.202 48.4308V46.6832C144.137 46.5924 144.048 46.4719 143.942 46.346C143.7 46.0572 143.465 45.8488 143.312 45.7876C143.15 45.7228 142.802 45.7051 142.392 45.737C142.345 45.7406 142.299 45.7447 142.254 45.7492V47.7816C142.254 48.1402 141.964 48.4308 141.605 48.4308C141.247 48.4308 140.956 48.1402 140.956 47.7816V45.1664C140.956 44.95 140.861 44.8139 140.762 44.7588C140.561 44.6472 140.354 44.5578 140.18 44.523C139.947 44.4765 139.531 44.4716 139.121 44.4875C139.082 44.489 139.045 44.4907 139.008 44.4924V47.7816C139.008 48.1402 138.718 48.4308 138.359 48.4308C138.001 48.4308 137.71 48.1402 137.71 47.7816V39.6665C137.71 39.1287 137.274 38.6927 136.736 38.6927ZM139.008 43.1926V39.6665C139.008 38.4116 137.991 37.3943 136.736 37.3943C135.481 37.3943 134.464 38.4116 134.464 39.6665V46.6002L132.907 46.9116C131.916 47.1097 131.242 48.0324 131.353 49.0364L131.801 53.0682C131.859 53.584 132.039 54.0785 132.327 54.5103L134.188 57.3017C134.549 57.8435 135.157 58.1689 135.808 58.1689H144.098C144.797 58.1689 145.442 57.7944 145.789 57.1876L147.6 54.0173C147.917 53.4636 148.113 52.8494 148.177 52.2148L148.529 48.6892C148.682 47.1605 147.482 45.834 145.945 45.834H145.19C145.12 45.7392 145.035 45.6283 144.937 45.5122C144.689 45.2151 144.275 44.7743 143.794 44.582C143.322 44.3932 142.696 44.411 142.291 44.4425C142.232 44.4471 142.174 44.4523 142.119 44.4578C141.985 44.1234 141.747 43.8211 141.393 43.624C141.14 43.4833 140.798 43.3225 140.434 43.2498C140.033 43.1695 139.475 43.1744 139.07 43.1901C139.049 43.1909 139.029 43.1918 139.008 43.1926ZM141.728 45.8223C141.728 45.8223 141.728 45.8223 141.728 45.8223V45.8223Z" fill="#AECC53"/>
<path d="M145.73 161.178C145.195 161.126 144.662 161.045 144.135 160.937C143.719 160.846 140.811 159.674 138.766 158.735C138.166 158.46 137.5 158.359 136.844 158.444C136.189 158.529 135.571 158.797 135.06 159.217C133.84 160.206 132.482 161.012 131.03 161.61C130.813 161.67 130.621 161.798 130.482 161.976C130.395 162.151 130.358 162.346 130.374 162.541C130.373 162.73 130.419 162.916 130.508 163.083C130.596 163.25 130.725 163.393 130.882 163.498C131.039 163.604 131.22 163.668 131.408 163.687C131.596 163.705 131.786 163.677 131.961 163.605L136.174 161.859C136.33 161.779 136.507 161.75 136.681 161.776C136.817 161.828 136.933 161.921 137.013 162.042C137.563 162.874 137.996 163.777 138.301 164.726C139.223 166.829 141.75 167.701 143.869 167.901C144.793 167.93 145.708 167.721 146.528 167.294" fill="white"/>
<path d="M145.73 161.178C145.195 161.126 144.662 161.045 144.135 160.937C143.719 160.846 140.811 159.674 138.766 158.735C138.166 158.46 137.5 158.359 136.844 158.444C136.189 158.529 135.571 158.797 135.06 159.217C133.84 160.206 132.482 161.012 131.03 161.61C130.813 161.67 130.621 161.798 130.482 161.976C130.395 162.151 130.358 162.346 130.374 162.541V162.541C130.373 162.73 130.419 162.916 130.508 163.083C130.596 163.25 130.725 163.393 130.882 163.498C131.039 163.604 131.22 163.668 131.408 163.687C131.596 163.705 131.786 163.677 131.961 163.605L136.174 161.859C136.33 161.779 136.507 161.75 136.681 161.776C136.817 161.828 136.933 161.921 137.013 162.042C137.563 162.874 137.996 163.777 138.301 164.726C139.223 166.829 141.75 167.701 143.869 167.901C144.793 167.93 145.708 167.721 146.528 167.294" stroke="#3C3C3B" stroke-width="1.28" stroke-linecap="round" stroke-linejoin="round"/>
<path d="M136.897 158.303C134.578 158.469 132.592 159.815 130.249 160.015" stroke="#3C3C3B" stroke-width="1.28" stroke-linecap="round" stroke-linejoin="round"/>
<path d="M196.678 119.911C203.732 119.911 209.45 114.193 209.45 107.139C209.45 100.085 203.732 94.3669 196.678 94.3669C189.624 94.3669 183.906 100.085 183.906 107.139C183.906 114.193 189.624 119.911 196.678 119.911Z" fill="white" stroke="#3C3C3B" stroke-width="1.28" stroke-linecap="round" stroke-linejoin="round"/>
<g style="mix-blend-mode:multiply">
<g style="mix-blend-mode:multiply">
<path d="M149.195 170.094C144.666 170.094 144.567 153.616 149.129 153.574L171.05 153.383C172.23 153.368 173.356 152.89 174.186 152.052C175.016 151.214 175.483 150.084 175.488 148.904V132.542C175.556 130.396 176.456 128.36 177.999 126.866C179.541 125.371 181.604 124.536 183.752 124.536C185.899 124.536 187.963 125.371 189.505 126.866C191.047 128.36 191.948 130.396 192.016 132.542V148.904C191.999 154.438 189.805 159.743 185.908 163.672C182.012 167.602 176.725 169.84 171.192 169.903L149.27 170.094H149.195Z" fill="#AECC53"/>
</g>
</g>
<path d="M210.264 114.128C211.565 112.671 212.773 111.133 213.879 109.524C216.323 106.026 217.982 102.04 218.74 97.8404C218.74 97.6908 221.798 96.893 222.139 96.7351C228.928 93.6439 227.125 82.8909 219.048 84.7689C217.751 85.0759 216.546 85.6885 215.533 86.5555C215.309 86.7467 213.189 89.4058 213.414 89.4557C211.17 89.4557 209.093 88.8989 206.766 89.0319C205.121 89.0763 203.482 89.2682 201.871 89.6053C200.356 90.0069 198.877 90.5351 197.451 91.1841C193.503 92.8461 188.143 96.7517 191.359 101.655C191.791 102.294 192.393 102.8 193.096 103.117C194.301 101.364 196.337 99.9676 197.849 102.486C199.246 104.812 198.065 107.928 195.913 109.349C196.387 113.272 199.968 116.114 203.65 117.518C204.088 117.723 204.571 117.815 205.054 117.784C206.708 117.543 208.602 115.948 210.264 114.128Z" fill="#3C3C3B" stroke="#3C3C3B" stroke-width="1.29" stroke-linecap="round" stroke-linejoin="round"/>
<path d="M214.76 201.498L214.935 272.231" stroke="#3C3C3B" stroke-width="2" stroke-linecap="round" stroke-linejoin="round"/>
<path d="M181.654 201.78L180.864 272.696" stroke="#3C3C3B" stroke-width="2" stroke-linecap="round" stroke-linejoin="round"/>
<path d="M176.776 201.406H218.84V205.312C218.84 205.883 218.728 206.45 218.509 206.978C218.29 207.506 217.969 207.986 217.565 208.391C217.16 208.795 216.68 209.116 216.152 209.335C215.624 209.553 215.058 209.666 214.486 209.666H181.155C180.583 209.666 180.017 209.553 179.489 209.335C178.96 209.116 178.48 208.795 178.076 208.391C177.672 207.986 177.351 207.506 177.132 206.978C176.913 206.45 176.801 205.883 176.801 205.312V201.406H176.776Z" fill="#AECC53"/>
<path d="M215.084 201.406H219.09C214.104 201.406 177.15 201.78 177.15 201.78" stroke="#3C3C3B" stroke-width="2" stroke-linecap="round" stroke-linejoin="round"/>
<path d="M48.3552 127.806C47.4736 127.806 46.628 127.456 46.0046 126.832C45.3813 126.209 45.0312 125.363 45.0312 124.482C45.0312 123.6 45.3813 122.755 46.0046 122.131C46.628 121.508 47.4736 121.158 48.3552 121.158H65.3405C65.6139 119.608 65.7529 118.037 65.756 116.463C65.7319 115.064 65.562 113.671 65.249 112.308H48.3552C47.4736 112.308 46.628 111.958 46.0046 111.334C45.3813 110.711 45.0312 109.865 45.0312 108.984C45.0312 108.102 45.3813 107.257 46.0046 106.634C46.628 106.01 47.4736 105.66 48.3552 105.66H63.3129C62.3324 102.893 61.0941 99.9013 59.7147 96.8183H48.3718C47.4902 96.8183 46.6446 96.4681 46.0213 95.8447C45.3979 95.2214 45.0479 94.3759 45.0479 93.4944C45.0479 92.6128 45.3979 91.7673 46.0213 91.144C46.6446 90.5206 47.4902 90.1704 48.3718 90.1704H56.5902C55.1276 87.1872 53.5903 84.2039 52.053 81.3287H48.3718C47.4902 81.3287 46.6446 80.9785 46.0213 80.3552C45.3979 79.7318 45.0479 78.8863 45.0479 78.0048C45.0479 77.1232 45.3979 76.2777 46.0213 75.6544C46.6446 75.031 47.4902 74.6808 48.3718 74.6808H48.4382C43.4107 65.648 39.2476 58.8921 39.2476 58.8921C39.2476 58.8921 35.0926 65.6148 30.0569 74.6808H30.1315C31.0131 74.6808 31.8587 75.031 32.482 75.6544C33.1054 76.2777 33.4555 77.1232 33.4555 78.0048C33.4555 78.8863 33.1054 79.7318 32.482 80.3552C31.8587 80.9785 31.0131 81.3287 30.1315 81.3287H26.442C24.913 84.2039 23.3757 87.1456 21.9131 90.1704H30.1315C31.0131 90.1704 31.8587 90.5206 32.482 91.144C33.1054 91.7673 33.4555 92.6128 33.4555 93.4944C33.4555 94.3759 33.1054 95.2214 32.482 95.8447C31.8587 96.4681 31.0131 96.8183 30.1315 96.8183H18.7886C17.4009 99.9013 16.1711 102.893 15.1822 105.66H30.1398C31.0214 105.66 31.867 106.01 32.4904 106.634C33.1137 107.257 33.4638 108.102 33.4638 108.984C33.4638 109.865 33.1137 110.711 32.4904 111.334C31.867 111.958 31.0214 112.308 30.1398 112.308H13.2459C12.9306 113.671 12.7579 115.064 12.7307 116.463C12.7324 118.037 12.8742 119.609 13.1545 121.158H30.1398C31.0214 121.158 31.867 121.508 32.4904 122.131C33.1137 122.755 33.4638 123.6 33.4638 124.482C33.4638 125.363 33.1137 126.209 32.4904 126.832C31.867 127.456 31.0214 127.806 30.1398 127.806H15.2653C17.4117 132.352 20.8061 136.195 25.0529 138.887C29.2997 141.578 34.2239 143.007 39.2517 143.007C44.2794 143.007 49.2037 141.578 53.4504 138.887C57.6972 136.195 61.0916 132.352 63.2381 127.806H48.3552Z" fill="#006D68"/>
<path d="M39.2308 70.6091V172.014" stroke="white" stroke-width="1.8" stroke-linecap="round" stroke-linejoin="round"/>
<path d="M21.7802 158.303V181.986" stroke="#AECC53" stroke-width="2" stroke-linecap="round" stroke-linejoin="round"/>
<path d="M39.2308 143.345V172.014" stroke="#AECC53" stroke-width="2" stroke-linecap="round" stroke-linejoin="round"/>
<path d="M51.5128 171.183H16.2125V272.281H51.5128V171.183Z" fill="#CCCCCC"/>
<g style="mix-blend-mode:multiply">
<path d="M43.5603 136.938C43.5603 142.715 41.2656 148.255 37.181 152.339C33.0965 156.424 27.5567 158.718 21.7802 158.718C16.0038 158.718 10.4638 156.424 6.37928 152.339C2.29471 148.255 0 142.715 0 136.938C0 124.914 21.7802 89.7466 21.7802 89.7466C21.7802 89.7466 43.5603 124.914 43.5603 136.938Z" fill="#AECC53"/>
</g>
<path d="M21.7802 144.309V158.436" stroke="white" stroke-width="2" stroke-linecap="round" stroke-linejoin="round"/>
<defs>
<clipPath id="clip0">
<rect width="48.1639" height="36.472" fill="white" transform="matrix(-1 0 0 1 280.009 0)"/>
</clipPath>
</defs>
</svg>
