<svg viewBox="0 0 256 247" fill="none" xmlns="http://www.w3.org/2000/svg">
<g>
<path d="M208.343 149.963H197.889C192.679 149.946 187.597 148.368 183.305 145.435C179.014 142.502 175.714 138.351 173.836 133.525C172.214 129.256 172.017 124.582 173.277 120.193L189.649 61.7039C193.431 48.1885 212.723 48.1829 216.498 61.7039C223.088 85.1629 230.191 110.411 232.938 120.176C234.197 124.565 234 129.239 232.378 133.509C230.506 138.335 227.209 142.488 222.921 145.424C218.632 148.36 213.552 149.942 208.343 149.963Z" fill="#006D68" stroke="#006D68" stroke-width="0.85" stroke-linecap="round" stroke-linejoin="round"/>
<path d="M215.044 85.1962C214.663 88.0742 213.244 90.7173 211.05 92.6348C208.856 94.5524 206.036 95.6141 203.113 95.6231V95.6231C200.194 95.6088 197.379 94.5446 195.19 92.6275C193 90.7105 191.584 88.0704 191.204 85.1962" stroke="#AECC53" stroke-width="2.56" stroke-linecap="round" stroke-linejoin="round"/>
<path d="M216.633 85.3907C216.656 85.0755 216.585 84.7605 216.428 84.4855C216.271 84.2104 216.036 83.9877 215.752 83.8453C215.468 83.7028 215.148 83.6472 214.832 83.6853C214.516 83.7234 214.218 83.8535 213.977 84.0593C213.735 84.2651 213.561 84.5373 213.475 84.8416C213.389 85.1459 213.396 85.4686 213.494 85.7691C213.593 86.0696 213.779 86.3343 214.029 86.53C214.279 86.7256 214.581 86.8433 214.899 86.8683C215.326 86.9005 215.748 86.7629 216.074 86.4858C216.399 86.2088 216.6 85.8149 216.633 85.3907Z" fill="#AECC53"/>
<path d="M189.599 85.3907C189.576 85.0752 189.647 84.76 189.804 84.4848C189.961 84.2095 190.196 83.9867 190.481 83.8443C190.765 83.702 191.085 83.6466 191.402 83.685C191.718 83.7235 192.015 83.8542 192.257 84.0605C192.498 84.2669 192.672 84.5396 192.758 84.8443C192.843 85.149 192.835 85.4721 192.736 85.7725C192.637 86.073 192.45 86.3375 192.199 86.5325C191.948 86.7275 191.645 86.8444 191.327 86.8683C191.116 86.8842 190.904 86.8586 190.703 86.7929C190.501 86.7272 190.315 86.6227 190.155 86.4855C189.994 86.3482 189.862 86.1809 189.767 85.993C189.672 85.8051 189.615 85.6005 189.599 85.3907Z" fill="#AECC53"/>
<path d="M220.934 101.5C220.535 105.926 218.487 110.044 215.19 113.047C211.894 116.051 207.587 117.724 203.113 117.738C198.64 117.723 194.333 116.05 191.038 113.047C187.742 110.043 185.695 105.925 185.297 101.5" stroke="#AECC53" stroke-width="2.56" stroke-linecap="round" stroke-linejoin="round"/>
<path d="M222.528 101.656C222.543 101.339 222.464 101.026 222.299 100.754C222.135 100.483 221.893 100.266 221.604 100.132C221.315 99.9968 220.993 99.9503 220.678 99.9978C220.362 100.045 220.068 100.185 219.833 100.398C219.597 100.612 219.431 100.89 219.355 101.198C219.279 101.505 219.296 101.828 219.405 102.126C219.514 102.424 219.71 102.683 219.967 102.87C220.224 103.057 220.531 103.164 220.85 103.178C221.276 103.196 221.691 103.046 222.005 102.761C222.32 102.476 222.508 102.078 222.528 101.656Z" fill="#AECC53"/>
<path d="M183.703 101.656C183.688 101.339 183.768 101.026 183.932 100.754C184.097 100.483 184.339 100.266 184.628 100.132C184.916 99.9968 185.239 99.9503 185.554 99.9978C185.869 100.045 186.163 100.185 186.399 100.398C186.634 100.612 186.801 100.89 186.877 101.198C186.953 101.505 186.935 101.828 186.827 102.126C186.718 102.424 186.522 102.683 186.265 102.87C186.008 103.057 185.7 103.164 185.381 103.178C185.171 103.188 184.96 103.156 184.761 103.085C184.563 103.013 184.38 102.904 184.225 102.763C184.069 102.621 183.942 102.451 183.853 102.261C183.764 102.071 183.713 101.865 183.703 101.656Z" fill="#AECC53"/>
<path d="M203.124 71.9197V203.497" stroke="#AECC53" stroke-width="2.56" stroke-linecap="round" stroke-linejoin="round"/>
<path d="M204.735 72.003C204.735 71.6854 204.64 71.375 204.463 71.111C204.285 70.847 204.033 70.6413 203.737 70.5198C203.442 70.3983 203.117 70.3664 202.803 70.4284C202.49 70.4903 202.202 70.6432 201.976 70.8678C201.749 71.0923 201.595 71.3783 201.533 71.6898C201.471 72.0012 201.503 72.324 201.625 72.6173C201.747 72.9107 201.955 73.1614 202.22 73.3378C202.486 73.5142 202.799 73.6084 203.119 73.6084C203.547 73.6084 203.958 73.4392 204.262 73.1382C204.565 72.8371 204.735 72.4287 204.735 72.003Z" fill="#AECC53"/>
<path d="M116.81 203.163L96.953 161.906C92.1425 151.868 77.7559 151.868 72.9399 161.906L62.7205 183.221C64.186 184.493 64.9579 186.554 65.7466 188.326L72.9623 204.069C73.1118 204.45 73.3255 204.803 73.5943 205.113C74.2264 205.752 75.2165 205.824 76.117 205.852L83.0474 206.102C93.5745 206.474 104.152 206.846 114.623 205.652C115.258 205.624 115.879 205.457 116.441 205.163C116.983 204.83 116.983 203.774 116.81 203.163Z" stroke="#AECC53" stroke-width="2" stroke-linecap="round" stroke-linejoin="round"/>
<path d="M43.35 204.558L52.5626 184.887C53.0634 183.835 53.855 182.945 54.8453 182.322C55.8356 181.699 56.9838 181.368 58.1561 181.368C59.3284 181.368 60.4766 181.699 61.4669 182.322C62.4572 182.945 63.2489 183.835 63.7497 184.887L73.2979 204.885" stroke="#AECC53" stroke-width="2" stroke-linecap="round" stroke-linejoin="round"/>
<path d="M48.5016 194.264C50.767 193.264 51.9697 194.775 52.8031 196.686C53.9176 199.237 54.6706 201.929 55.0405 204.685" stroke="#AECC53" stroke-width="2" stroke-linecap="round" stroke-linejoin="round"/>
<path d="M50.644 188.776C52.708 188.931 54.8224 189.426 56.4221 190.72C58.0219 192.014 58.9392 193.931 59.8174 195.803C61.3948 199.136 62.6142 201.597 63.0337 204.541" stroke="#AECC53" stroke-width="2" stroke-linecap="round" stroke-linejoin="round"/>
<path d="M111.217 116.743H180.017L197.917 145.63H92.7579L111.217 116.743Z" fill="#CCCCCC"/>
<path d="M111.217 130.448C113.029 131.087 114.936 131.559 116.732 130.842C118.527 130.126 120.194 127.937 120.384 125.12C120.491 123.609 119.825 121.787 120.384 120.465C120.593 119.993 120.909 119.574 121.308 119.244C121.707 118.913 122.178 118.679 122.683 118.56C123.562 118.304 124.485 118.221 125.284 117.621C125.902 117.088 126.328 116.371 126.501 115.577C126.673 114.782 126.582 113.954 126.241 113.216" stroke="#3C3C3B" stroke-width="1.5" stroke-linecap="round" stroke-linejoin="round"/>
<path d="M111.25 138.225C115.283 138.475 121.654 138.43 123.908 132.048C124.563 130.198 124.546 127.942 125.156 126.065C126.174 122.948 128.59 121.682 130.671 120.254C132.662 118.888 134.726 117.232 134.206 113.477" stroke="#3C3C3B" stroke-width="1.5" stroke-linecap="round" stroke-linejoin="round"/>
<path d="M122.566 146.174C126.957 145.435 129.737 144.796 132.254 139.269C132.95 137.79 133.28 136.168 133.216 134.536C133.076 133.641 133.016 132.736 133.037 131.831C133.167 130.96 133.503 130.132 134.016 129.414C135.306 127.347 136.989 125.549 138.972 124.12C140.801 122.848 142.775 122.087 144.537 120.615C145.566 119.752 146.412 118.696 147.029 117.507C147.647 116.318 148.022 115.021 148.134 113.688" stroke="#3C3C3B" stroke-width="1.5" stroke-linecap="round" stroke-linejoin="round"/>
<path d="M144.951 146.174C146.445 145.063 147.25 141.758 146.831 139.302C146.042 134.658 140.89 133.375 143.939 126.915C145.276 124.076 147.754 122.915 150.053 123.104C150.99 123.264 151.938 123.36 152.889 123.393C155.959 123.221 160.16 118.427 160.16 113.449" stroke="#3C3C3B" stroke-width="1.5" stroke-linecap="round" stroke-linejoin="round"/>
<path d="M188.67 146.196C184.565 145.263 183.737 136.997 187.815 134.675C189.918 133.475 193.123 134.547 194.27 130.825C194.723 129.353 194.331 126.604 194.622 124.898C195.058 122.326 195.948 118.093 197.329 116.377C198.225 115.36 199.324 114.539 200.557 113.966" stroke="#3C3C3B" stroke-width="1.5" stroke-linecap="round" stroke-linejoin="round"/>
<path d="M180.213 146.274C180.728 145.719 180.689 144.485 180.353 143.674C179.979 142.95 179.535 142.263 179.027 141.624C177.461 139.214 177.349 135.086 178.563 132.225C179.777 129.364 182.009 127.748 184.235 127.626C184.687 127.655 185.14 127.575 185.555 127.392C186.869 126.648 187.032 123.993 187.233 121.876C187.72 116.738 188.989 114.371 192.189 113.449" stroke="#3C3C3B" stroke-width="1.5" stroke-linecap="round" stroke-linejoin="round"/>
<path d="M170.575 146.557C170.715 143.78 168.612 142.163 167.426 140.025C166.078 137.597 165.899 133.914 166.822 131.064C167.745 128.215 169.652 126.237 171.705 125.654C172.19 125.587 172.649 125.396 173.036 125.098C174.015 124.182 173.999 122.082 174.155 120.349C174.625 115.199 176.264 113.727 179.43 113.466" stroke="#3C3C3B" stroke-width="1.5" stroke-linecap="round" stroke-linejoin="round"/>
<path d="M159.618 145.913C162.067 142.391 157.632 140.358 156.877 137.691C155.35 132.27 160.395 127.254 163.108 125.815C164.87 124.876 166.99 125.154 168.315 122.86C169.703 120.471 169.865 115.777 168.55 113.338" stroke="#3C3C3B" stroke-width="1.5" stroke-linecap="round" stroke-linejoin="round"/>
<path d="M92.7578 202.847H130.235V145.63L111.496 116.743L92.7578 145.63V202.847Z" fill="#AECC53"/>
<path d="M130.235 145.63H197.917V202.936H130.235V145.63Z" fill="white" stroke="#3C3C3B" stroke-width="1.2" stroke-linecap="round" stroke-linejoin="round"/>
<path d="M148.693 170.072C146.913 170.072 145.206 170.774 143.947 172.024C142.688 173.274 141.981 174.97 141.981 176.738V203.958H155.406V176.738C155.406 174.97 154.698 173.274 153.44 172.024C152.181 170.774 150.473 170.072 148.693 170.072Z" fill="white" stroke="#3C3C3B" stroke-width="1.21" stroke-linecap="round" stroke-linejoin="round"/>
<path d="M168.83 170.072C167.05 170.072 165.343 170.774 164.084 172.024C162.825 173.274 162.118 174.97 162.118 176.738V203.958H175.542V176.738C175.542 174.97 174.835 173.274 173.576 172.024C172.318 170.774 170.61 170.072 168.83 170.072Z" fill="white" stroke="#3C3C3B" stroke-width="1.21" stroke-linecap="round" stroke-linejoin="round"/>
<path d="M212.835 203.497H43.1654C31.7677 203.497 20.8368 207.993 12.7773 215.997C4.71791 224.001 0.190201 234.857 0.190201 246.176H255.81C255.81 234.857 251.282 224.001 243.223 215.997C235.163 207.993 224.232 203.497 212.835 203.497Z" fill="#EDEDED" stroke="#EDEDED" stroke-width="0.67" stroke-miterlimit="10"/>
<path d="M73.0573 10.8863C74.815 10.8841 76.5586 11.1984 78.2034 11.814C79.0937 8.79262 80.946 6.13923 83.4828 4.25152C86.0196 2.36381 89.1041 1.34346 92.274 1.34346C95.4438 1.34346 98.5284 2.36381 101.065 4.25152C103.602 6.13923 105.454 8.79262 106.345 11.814C107.987 11.1983 109.729 10.884 111.485 10.8863C113.855 10.8826 116.19 11.4492 118.292 12.5378C120.393 13.6263 122.197 15.2043 123.55 17.1366C124.903 19.069 125.764 21.2982 126.06 23.6333C126.356 25.9685 126.077 28.3401 125.249 30.545C124.42 32.75 123.065 34.7227 121.301 36.2942C119.537 37.8657 117.416 38.9893 115.119 39.5687C112.822 40.1481 110.418 40.1661 108.112 39.6211C105.807 39.0761 103.669 37.9845 101.881 36.4395C99.2162 38.7398 95.8045 40.0065 92.274 40.0065C88.7434 40.0065 85.3317 38.7398 82.667 36.4395C80.8795 37.9811 78.7426 39.0698 76.439 39.6126C74.1355 40.1554 71.7339 40.136 69.4395 39.5563C67.1452 38.9765 65.0263 37.8536 63.2641 36.2835C61.5019 34.7133 60.1488 32.7428 59.3205 30.5402C58.4922 28.3376 58.2133 25.9686 58.5077 23.6356C58.8021 21.3027 59.6609 19.0753 61.0109 17.1438C62.3609 15.2123 64.1618 13.6343 66.2596 12.5445C68.3575 11.4548 70.6898 10.8859 73.0573 10.8863V10.8863Z" stroke="#CCCCCC" stroke-width="2.71" stroke-miterlimit="10"/>
<path d="M105.813 26.7515C107.571 26.7494 109.314 27.0637 110.959 27.6792C111.85 24.6579 113.702 22.0045 116.239 20.1168C118.775 18.229 121.86 17.2087 125.03 17.2087C128.2 17.2087 131.284 18.229 133.821 20.1168C136.358 22.0045 138.21 24.6579 139.1 27.6792C141.526 26.7782 144.148 26.5312 146.701 26.9633C149.253 27.3955 151.645 28.4914 153.633 30.1396C155.621 31.7878 157.134 33.9294 158.017 36.3466C158.901 38.7639 159.125 41.3705 158.665 43.9013C158.205 46.4321 157.079 48.7968 155.4 50.7548C153.721 52.7129 151.55 54.1945 149.108 55.0489C146.665 55.9033 144.039 56.0999 141.495 55.6189C138.951 55.1378 136.581 53.9963 134.626 52.3103C131.961 54.6106 128.549 55.8773 125.019 55.8773C121.488 55.8773 118.076 54.6106 115.412 52.3103C113.624 53.8519 111.487 54.9406 109.184 55.4834C106.88 56.0262 104.479 56.0068 102.184 55.4271C99.8899 54.8473 97.771 53.7244 96.0088 52.1543C94.2466 50.5841 92.8935 48.6135 92.0652 46.4109C91.2369 44.2084 90.958 41.8393 91.2524 39.5064C91.5468 37.1735 92.4057 34.9461 93.7557 33.0146C95.1056 31.0831 96.9065 29.5051 99.0044 28.4153C101.102 27.3256 103.435 26.7566 105.802 26.7571L105.813 26.7515Z" fill="#EDEDED" stroke="#EDEDED" stroke-width="0.73" stroke-miterlimit="10"/>
<path d="M93.0375 232.438H111.496V218.068H130.235H130.514V203.402H83.8081V217.434H83.5285H64.7901V231.805H46.3314V246.176H65.0697H65.3494H93.0375V232.438Z" fill="white"/>
<path d="M93.0375 246.176V232.438H111.496V218.068H130.235H130.514V203.402" stroke="#3C3C3B" stroke-width="1.5" stroke-linecap="round" stroke-linejoin="round"/>
<path d="M125.424 101.234C122.741 98.3939 119.051 96.7018 115.134 96.5152C111.218 96.3286 107.382 97.6621 104.437 100.234" stroke="#006D68" stroke-width="2.71" stroke-linecap="round" stroke-linejoin="round"/>
<path d="M120.563 105.767C119.805 104.963 118.895 104.317 117.884 103.863C116.874 103.41 115.784 103.159 114.676 103.124C113.567 103.09 112.463 103.272 111.426 103.662C110.389 104.051 109.44 104.64 108.632 105.394" stroke="#006D68" stroke-width="2.71" stroke-linecap="round" stroke-linejoin="round"/>
<path d="M130.279 96.7007C126.386 92.583 121.024 90.142 115.342 89.9001C109.659 89.6582 104.107 91.6346 99.8728 95.4064" stroke="#006D68" stroke-width="2.71" stroke-linecap="round" stroke-linejoin="round"/>
<path d="M106.182 146.741H115.132V170.627H106.182V146.741Z" fill="white"/>
<g style="mix-blend-mode:multiply">
<path d="M82.8572 187.387L74.2991 203.219H102.239L95.219 187.798C94.6883 186.634 93.8403 185.64 92.7707 184.93C91.7012 184.219 90.4528 183.82 89.1668 183.777C87.8807 183.734 86.6082 184.05 85.4932 184.688C84.3782 185.326 83.4651 186.261 82.8572 187.387Z" fill="#006D68"/>
</g>
<path d="M111.776 116.56L130.235 145.446" stroke="#3C3C3B" stroke-width="1.2" stroke-linecap="round" stroke-linejoin="round"/>
</g>
</svg>
