<svg xmlns="http://www.w3.org/2000/svg" xml:space="preserve" viewBox="0 0 209.76 209.76"><path d="M-6.28-6.28h222.33v222.33H-6.28z" style="fill:#006d68"/><path d="M168.25 78.06c19.89 35 7.64 79.51-27.36 99.4s-79.51 7.64-99.4-27.36z" style="fill:#acca53"/><path d="M104.88 114.07 41.51 78.06c-13.15 23.14-12.24 50.44-.01 72.03z" style="fill:#3c3c3c"/><path d="M104.88 22.78s-24.93 30.5-24.93 44.27c0 12.92 9.84 23.54 22.43 24.79V56.13a2.5 2.5 0 0 1 5 0v35.71c12.59-1.26 22.43-11.87 22.43-24.79 0-13.77-24.93-44.27-24.93-44.27" style="fill:#fff"/></svg>