<?xml version="1.0" encoding="utf-8"?>
<!-- Generator: Adobe Illustrator 28.0.0, SVG Export Plug-In . SVG Version: 6.00 Build 0)  -->
<svg version="1.1" id="Layer_1" xmlns="http://www.w3.org/2000/svg" xmlns:xlink="http://www.w3.org/1999/xlink" x="0px" y="0px"
	 viewBox="0 0 209.76 209.76" style="enable-background:new 0 0 209.76 209.76;" xml:space="preserve">
<style type="text/css">
	.st0{fill:#3C3C3C;}
	.st1{fill:#006D68;}
	.st2{fill:#FFFFFF;}
	.st3{fill:#ACCA53;}
</style>
<rect x="-6.28" y="-6.28" class="st1" width="222.33" height="222.33"/>
<g>
	<path class="st3" d="M168.25,78.06c19.89,35,7.64,79.51-27.36,99.4s-79.51,7.64-99.4-27.36L168.25,78.06z"/>
	<g>
		<g>
			<path class="st0" d="M104.88,114.07L41.51,78.06c-13.15,23.14-12.24,50.44-0.01,72.03L104.88,114.07z"/>
		</g>
	</g>
	<path class="st2" d="M104.88,22.78c0,0-24.93,30.5-24.93,44.27c0,12.92,9.84,23.54,22.43,24.79V56.13c0-1.38,1.12-2.5,2.5-2.5
		s2.5,1.12,2.5,2.5v35.71c12.59-1.26,22.43-11.87,22.43-24.79C129.81,53.28,104.88,22.78,104.88,22.78z"/>
</g>
</svg>
