<?xml version="1.0" encoding="UTF-8"?>
<svg id="Layer_1" xmlns="http://www.w3.org/2000/svg" xmlns:xlink="http://www.w3.org/1999/xlink" version="1.1" viewBox="0 0 216 216">
  <!-- Generator: Adobe Illustrator 30.1.0, SVG Export Plug-In . SVG Version: 2.1.1 Build 136)  -->
  <defs>
    <style>
      .st0 {
        fill: url(#linear-gradient);
      }

      .st1 {
        fill: #acca53;
      }

      .st2 {
        fill: #006d68;
      }
    </style>
    <linearGradient id="linear-gradient" x1="108.01" y1="204.5" x2="108.01" y2="11.5" gradientUnits="userSpaceOnUse">
      <stop offset="0" stop-color="#000"/>
      <stop offset=".32" stop-color="#002e2c"/>
      <stop offset=".61" stop-color="#00504d"/>
      <stop offset=".84" stop-color="#006560"/>
      <stop offset="1" stop-color="#006d68"/>
    </linearGradient>
  </defs>
  <g>
    <path class="st2" d="M135.87,80.29c14.89,14.89,14.89,39.04,0,53.93-14.89,14.89-39.04,14.89-53.93,0l53.93-53.93Z"/>
    <path class="st1" d="M81.94,80.29c-14.89,14.89-14.89,39.04,0,53.93l26.97-26.97-26.97-26.97Z"/>
  </g>
  <path class="st0" d="M151.42,129.83c-7.92,15.24-23.83,25.68-42.16,25.68-26.2,0-47.52-21.31-47.52-47.51s21.32-47.52,47.52-47.52c18.33,0,34.23,10.45,42.16,25.68h51.83c-9.9-42.77-48.21-74.67-93.99-74.67C55.97,11.5,12.76,54.7,12.76,108s43.2,96.5,96.5,96.5c45.78,0,84.09-31.89,93.99-74.67h-51.83Z"/>
  <path class="st1" d="M109.26,205.15c-53.57,0-97.15-43.58-97.15-97.15S55.69,10.85,109.26,10.85c22.08,0,43.7,7.61,60.86,21.44,16.91,13.62,28.9,32.7,33.76,53.73l-1.27.29c-4.8-20.75-16.63-39.58-33.31-53.01-16.93-13.64-38.26-21.15-60.04-21.15C56.41,12.15,13.41,55.15,13.41,108s43,95.85,95.85,95.85c21.79,0,43.11-7.51,60.04-21.15,16.68-13.43,28.51-32.26,33.31-53.01l1.27.29c-4.87,21.03-16.86,40.12-33.76,53.73-17.16,13.82-38.78,21.44-60.86,21.44Z"/>
</svg>