<?xml version="1.0" encoding="UTF-8"?>
<svg id="Layer_1" data-name="Layer 1" xmlns="http://www.w3.org/2000/svg" version="1.1" viewBox="0 0 508 252">
  <defs>
    <style>
      .cls-1 {
        fill: #000;
        stroke-width: 0px;
      }
    </style>
  </defs>
  <g>
    <path class="cls-1" d="M55.7,227.2c1.7,2.1,2.5,4.8,2.5,7.9s-.8,5.2-2.3,7.3c-1.5,2.1-3.7,3.7-6.6,4.9-2.9,1.2-6.2,1.7-10.1,1.7H12.6v-51h25.9c5.6,0,10.1,1.2,13.4,3.6,3.3,2.4,5,5.6,5,9.7s-.7,4.9-2.2,6.9c-1.5,2-3.5,3.5-6.2,4.4,3.1.9,5.5,2.4,7.2,4.6ZM26.2,218.1h9.9c2.6,0,4.6-.4,5.8-1.2,1.2-.8,1.8-2,1.8-3.7s-.6-3.1-1.8-3.9c-1.2-.8-3.1-1.2-5.8-1.2h-9.9v10ZM43.5,237.7c1.2-.8,1.8-2.2,1.8-4.2s-.6-3.3-1.8-4.2c-1.2-.8-3.2-1.3-6-1.3h-11.3v10.8h11.3c2.8,0,4.8-.4,6-1.3Z"/>
    <path class="cls-1" d="M153.8,226.3v22.7h-14v-22.7l-22.5-28.3h15.7l13.7,17.7,13.8-17.7h15.9l-22.6,28.3Z"/>
    <path class="cls-1" d="M250.1,208.8h-16v-10.8h46.2v10.8h-16v40.2h-14.1v-40.2Z"/>
    <path class="cls-1" d="M347.7,198.1h38v10.3h-24.4v9.7h22.9v10.2h-22.9v10.6h24.4v10.3h-38v-51Z"/>
    <path class="cls-1" d="M462.2,248.2c-3.9-1-7.1-2.4-9.5-4l4.3-9.4c2.6,1.5,5.3,2.7,8.3,3.5,2.9.8,5.9,1.2,8.9,1.2s5.4-.4,6.9-1.2,2.4-1.9,2.4-3.4-.7-2.4-2.2-3.2c-1.4-.8-4.2-1.6-8.2-2.5-5-1-8.9-2.2-11.8-3.6-2.8-1.4-4.8-3-6-4.9-1.1-1.9-1.7-4.2-1.7-6.9s.9-5.9,2.8-8.4c1.8-2.5,4.5-4.4,7.8-5.9,3.4-1.4,7.2-2.1,11.6-2.1s7.6.5,11.2,1.6c3.6,1,6.4,2.4,8.5,4l-4.3,9.4c-4.9-3.2-10-4.8-15.3-4.8s-4.7.5-6.2,1.4c-1.6.9-2.4,2.2-2.4,3.7s.3,1.7.8,2.2c.6.6,1.6,1.1,3.1,1.7,1.5.6,3.8,1.1,6.8,1.7,4.9,1,8.7,2.2,11.5,3.7,2.8,1.4,4.8,3.1,5.9,5,1.2,1.9,1.7,4.1,1.7,6.7,0,5-2,8.9-6.1,11.8-4.1,2.8-9.7,4.2-17.1,4.2s-7.9-.5-11.8-1.5Z"/>
  </g>
  <g>
    <path class="cls-1" d="M95.9,121.6c12.5,2.3,25.5,4.6,37.9,4.8,2.4-2.7,4.6-5.5,6.6-8.5-5.9,1.1-11.9,1.6-18.2,1.6s-2,0-3,0c-11.5-.3-22.4-2.3-33-4.3-10.2-1.9-19.9-3.7-29.8-3.9-.8,0-1.6,0-2.4,0-12.9,0-24.5,2.8-35.9,8.9,1.3,1.8,2.7,3.6,4.1,5.2,9.8-5.8,21.1-8.5,34.7-8.5,12.8,0,26.2,2.4,39.1,4.8Z"/>
    <path class="cls-1" d="M71.4,57.2h.1c.4.2.9.3,1.3.5,3.1-1.7,6.7-2.7,10.5-2.7h64.8c.5,0,.9,0,1.4,0-1.5-5.1-3.6-9.9-6.2-14.5-9.1,3.8-17.4,6.1-25.8,6.1-12.3,0-25.1-4.5-44.5-12.7-15.3-6.5-23.2-8.7-31.4-8.7s-11.8,1.2-19.9,3.2c-6.3,7.4-11.1,16-14.2,25.4,7.6-3.5,15.4-5.2,23.8-5.2,13.4,0,26.3,4.2,40,8.6Z"/>
    <path class="cls-1" d="M56.3,103.6c10.5.3,20.6,2.1,31.3,4.1,10.2,1.9,20.8,3.8,31.8,4.1.9,0,1.9,0,2.8,0,8.1,0,15.8-1,23.3-2.9,1.6-3.4,3-6.9,4.1-10.5-.5,0-.9,0-1.4,0h-64.8c-5.9,0-11.3-2.4-15.3-6.3-7.8-1-14.9-1.7-22-1.7-7.4,0-15.4-.7-22.6,1.1s-9.6,3-16.1,7.5c1.6,5.1,3.8,10,6.4,14.6,12.7-6.9,25.6-10.1,39.9-10.1.8,0,1.7,0,2.5,0Z"/>
    <path class="cls-1" d="M94.5,129.1c-13.3-2.4-25.9-4.7-37.9-4.7s-20.8,2.2-29.1,6.6c.8.8,1.7,1.6,2.6,2.3,8.4-4,18.1-5.9,29.4-5.9,17.6,0,36.2,4.5,54.2,8.9,2.3.5,4.5,1.1,6.7,1.6,1.9-1.3,3.8-2.7,5.6-4.2-10.5-.8-21.2-2.7-31.6-4.6Z"/>
    <path class="cls-1" d="M59.5,135c-8.5,0-15.9,1.2-22.4,3.6,11.8,7.9,26,12.5,41.2,12.5s22.8-2.7,32.7-7.6c-17.5-4.2-35.5-8.5-51.6-8.5Z"/>
    <path class="cls-1" d="M84.1,26l-.4-.2c-2.1-1-4.6-2.1-7.1-3.2-9.9-4.4-20.8-8.5-33.5-8.5-1.7,0-3.3,0-4.9,0-2.1,1.3-4,2.7-5.9,4.3,3.3-.5,6.4-.8,9.5-.8,9,0,17.9,2.4,34.1,9.3,19.1,8.1,30.8,12.2,41.8,12.2s13.9-1.8,21.8-5c-.9-1.2-1.8-2.4-2.7-3.6-8.9,3.4-15.8,4.9-22,4.9-10,0-18.2-3.7-30.5-9.4Z"/>
    <path class="cls-1" d="M79.7,15.6c2.5,1.1,4.8,2.2,7.1,3.2h.1c0,0,.5.3.5.3,11.3,5.2,18.8,8.6,27.4,8.6s9.9-1,16.5-3.3C117.7,10.7,99,2.3,78.4,2.3s-18,1.7-26.2,4.7c10.3,1.4,19.5,5,27.5,8.5Z"/>
    <path class="cls-1" d="M62.8,83.9c-.8-2.3-1.2-4.7-1.2-7.2s0-1,0-1.6c-10.3-3.2-20.1-5.7-30.1-5.7-9.9,0-19,2.7-27.6,8.1,0,4.8.6,9.5,1.5,14.1,5.1-3.4,9.2-5.5,14.1-6.9,8.6-2.4,17.7-1.9,26.4-1.9,5.5,0,11,.4,16.9,1.1Z"/>
    <path class="cls-1" d="M63.5,67.7c.7-1.5,1.5-2.9,2.5-4.2-11.9-3.8-23.1-7.1-34.5-7.1-9.5,0-18.2,2.4-26.4,7.4-.3,1.5-.5,3.1-.7,4.6,8.5-4.5,17.4-6.7,26.9-6.7,10.8,0,21.3,2.7,32.1,6.1Z"/>
  </g>
  <g>
    <path class="cls-1" d="M285.7,40.1c-3.8,3.9-8,7.5-12.5,10.5-3,2.1-6.8,3.8-10.7,5.7-5.7,2.7-11.6,5.4-14.6,8.9-3.4,3.9-5,7.5-6.6,11.3-2.3,5.3-4.9,11.3-12.4,19.3l-43.7,43.6c.9,1.2,1.8,2.3,2.9,3.4h0c1.2,1.2,2.5,2.3,3.9,3.3l27.7-23.7c4.4-4.4,15-15.4,18.7-22.7l8.1-15.8h0s0,0,0,0c10-16.6,20.2-21,28.3-24.5,2.5-1.1,4.9-2.1,6.8-3.4l2.3-1.5c2.5-1.6,5-3.4,7.4-5.2,6.6-5,12.6-11.2,17.8-18.6l12.8-18c-.6-.7-1.2-1.4-1.8-2-1-1-2.1-1.9-3.2-2.7l-31.2,32.2Z"/>
    <path class="cls-1" d="M196.2,102.4c10.2-10.1,15-15,17.4-17.3l.2-.2.5-.5.7-.8c6.6-6.9,8.8-12.1,10.9-17,1.9-4.4,3.7-8.5,7.8-13.3,4.1-4.7,10.7-7.8,17.2-10.8,3.7-1.7,7.1-3.3,9.7-5.1,4-2.7,7.8-5.9,11.3-9.5l24.6-25.4c-5.8.7-11.4,3.1-15.9,7.3l-17.1,17-10.8,9.3s-1.8,1.4-3.2,1.9l-3,1-.7.2c-5.1,1.6-8.7,2.9-13.2,5.9-4.5,2.9-7.6,6.1-10.7,10.9-2,3.1-3.7,7.6-4.5,12.3-.6,3.1-1.9,5.9-3.9,8.3l-25.7,26c-4.5,4.5-7.2,10.2-8,16.1l16.2-16.2h.1Z"/>
    <path class="cls-1" d="M293.3,76.9c.8-.3,1.4-.8,2-1.4l24.7-24.7c8.4-8.4,10.4-20.8,6.1-31.1l-10.9,15.3c-5.7,8-12.2,14.8-19.4,20.2-2.6,1.9-5.2,3.8-7.9,5.5l-2.3,1.5c-2.5,1.6-5.1,2.8-8,4-7.5,3.2-16,6.9-24.7,21.3l-7.9,15.5c-4.2,8.2-15.5,20-20.1,24.7l-.4.4h0s0,0,0,0l-25.2,21.5c9.8,3.2,21.1.9,28.9-6.9l26.1-25.6.5-.5.5-.8c1.9-2.8,3.5-5.8,4.9-8.4,7.2-13.7,19-24.5,33.2-30.6Z"/>
    <path class="cls-1" d="M234.3,73.4c1.9-4.4,3.7-8.5,7.8-13.3,4.1-4.7,10.7-7.8,17.2-10.8,3.7-1.7,7.1-3.3,9.7-5.1,4-2.7,7.8-5.9,11.3-9.5l29.7-30.7c-1.1-.4-2.2-.8-3.4-1l-29.2,30.1c-3.8,3.9-8,7.5-12.5,10.5-3,2.1-6.8,3.8-10.7,5.7-5.7,2.7-11.6,5.4-14.7,8.9-3.4,3.9-5,7.5-6.6,11.3-2.3,5.3-4.9,11.3-12.4,19.3l-1,1-4.9,4.8-34.3,34.3c.3,1.2.6,2.3,1,3.4l42-41.9c6.5-6.9,8.7-12,10.9-17Z"/>
    <path class="cls-1" d="M299.9,82.4h0s-.1.1-.1.1h-.1c0,0-.1.1-.1.1l-.5.2c-13.9,5.2-25.3,15.2-32.2,28.3-1.4,2.7-3.2,6-5.3,9.1l-1,1.5h0s0,0,0,0h0s0,0,0,0l-.8.8,20.2,20.2c11.1,11.1,29.1,11.1,40.2,0h0c11.1-11.1,11.1-29.1,0-40.2l-20.2-20.2Z"/>
    <path class="cls-1" d="M208.3,71.2c.9-1.3,1.5-2.7,1.8-4.3,1-5.7,3.2-11.4,6-15.6,3.9-5.8,7.3-9.2,12.1-12.3,5.8-3.6,10.5-5.5,16.1-7.3l3-1c.2,0,.5-.2.7-.3l-19.9-19.9c-11.1-11.1-29.1-11.1-40.2,0-11.1,11.1-11.1,29.1,0,40.2l20.3,20.3Z"/>
  </g>
  <g>
    <path class="cls-1" d="M504,74.3c-6.3-1.5-11.9-2.2-17-2.2s-10.6.8-15.4,2.5c-2.7.9-5.4,3.9-8.6,7.3-7.1,7.6-16.3,14.7-34.8,14.7s-20.4-3.6-29.7-11.6c-4.2-3.6-8.2-7-12.1-8.6-7.3-3.1-13.4-4.5-19.2-4.5-3.3,0-6.1.5-8.8.9-.9.2-1.9.3-2.8.5,0,1.1,0,2.2,0,3.4,0,7.5,1.1,14.8,3.2,21.7,2.8-.2,4.5-.7,5.9-1,2-.5,3.8-1,7.2-1,1.1,0,2.2,0,3.6.1,11.4.9,25,8.5,33.5,15.8,4.8,4.1,8.9,6.8,12.7,8.5,2.8,1.2,5.7,1.8,8.6,1.8s5.3-.5,7.9-1.5c4-1.6,7.4-3.8,10.6-7.2,8.5-8.8,19.3-14.1,30.5-15,5-.4,10.1-.6,15.1-.6s4.5,0,6.8.1c2.1-6.9,3.2-14.2,3.2-21.7s0-1.6,0-2.4Z"/>
    <path class="cls-1" d="M449.3,31c-6.7-5.1-13-7.4-19.7-7.4s-12.9,2.2-19.7,7.4c-7.7,5.9-19.7,13.1-33.2,14.2-4.9.4-9.9.7-14.9.8-1.1,2.3-2,4.8-2.8,7.2,5.7,0,11.4-.2,17.1-.6,11.2-.8,21.4-4.2,29.5-9.8l2-1.4c1.3-.9,2.5-1.8,3.9-2.7,5.4-3.6,11.8-5.5,18.3-5.5,7.5,0,14.9,2.6,20.9,7.2l.8.7h0c.9.8,1.9,1.5,2.9,2.2,6.8,5,14.6,8,22.5,8.6,5.6.4,11.4.6,17.1.6s4,0,6,0c-1.1-3.3-2.5-6.5-4.1-9.6-.6,0-1.3,0-1.9,0-5.2,0-10.4-.2-15.5-.5-10.2-.7-20.3-4.6-29.2-11.4Z"/>
    <path class="cls-1" d="M479.4,106.5c-9.3.7-18.4,5.2-25.5,12.6-4,4.2-8.3,7.1-13.3,9-3.4,1.3-7,2-10.6,2s-7.9-.8-11.6-2.4c-4.5-1.9-9.2-5.1-14.8-9.9-7.2-6.1-19.3-13-28.9-13.8-1.1,0-2.1-.1-3-.1-2.4,0-3.6.3-5.3.7-1.4.4-2.9.7-5.2,1,1.5,3.4,3.2,6.7,5.1,9.8.4,0,.7-.2,1-.2,2.8-.9,5.7-1.4,8.7-1.4h0c12.5,0,24.6,7.9,35.2,14.9l.4.2c4.3,2.8,8.2,4.8,12.2,6.1,2.4.8,4.8,1.2,7.2,1.2,3.6,0,7-.9,10-2.6,2.1-1.2,4-2.7,6.1-4.3h0c1.2-1,2.5-2,3.8-2.9,9.1-6.4,19.6-10.2,30.5-10.9,4-.3,8.1-.4,12.1-.5,1.8-3,3.4-6,4.8-9.3-1.3,0-2.7,0-4,0-4.9,0-9.8.2-14.6.5Z"/>
    <path class="cls-1" d="M481.7,123.4c-9.3.6-18.3,3.8-26.1,9.4-1.2.8-2.2,1.6-3.5,2.6-2.2,1.7-4.5,3.4-7.1,4.9-4.2,2.4-9.1,3.7-14.2,3.7s-6.7-.5-9.9-1.6c-4.7-1.5-9.1-3.8-14.1-7l-1-.6c-9.3-6.1-19.8-13-30.3-13s-3.1.2-4.7.5c13.6,17.5,34.9,28.8,58.8,28.8s44.5-10.9,58.1-28c-2,0-4.1.2-6.1.3Z"/>
    <path class="cls-1" d="M376.1,37.6c11.6-1,22.3-7.4,29.2-12.7,5.9-4.4,13.3-9,24.3-9s16.3,2.9,24.4,9c7.7,5.9,16.4,9.3,25.1,9.8,4.1.3,8.2.4,12.4.5-13.4-19.9-36-33-61.8-33s-50.7,14.4-63.7,35.9c3.4-.2,6.8-.4,10.2-.7Z"/>
    <path class="cls-1" d="M356.9,65.3c2.9-.5,6.1-1.1,10.1-1.1,6.7,0,13.9,1.7,22.1,5.1.7.3,1.4.6,2.1,1,4.7,2.5,10.4,1.8,14.5-1.6,14.2-12.1,33.6-12.8,48.3-1.9,3.9,2.9,9.1,3.3,13.5,1.2.5-.2,1-.4,1.5-.6,5.7-2,11.5-2.9,18-2.9s10.5.6,16.4,1.8c-.3-2.1-.7-4.2-1.1-6.2-2.7,0-5.4.1-8.1.1-5.9,0-11.9-.2-17.7-.7-9.3-.7-18.4-4.2-26.4-10-1.1-.8-2.2-1.7-3.3-2.5l-.6-.5c-4.6-3.6-10.4-5.6-16.2-5.6s-9.9,1.5-14.1,4.2c-1.3.9-2.6,1.8-3.8,2.6l-1.9,1.3c-9.3,6.5-20.8,10.3-33.4,11.2-6.2.4-12.6.7-19,.7s-.4,0-.7,0c-.3,1.5-.6,3-.8,4.5.2,0,.5,0,.7-.1h0Z"/>
  </g>
</svg>