<?xml version="1.0" encoding="UTF-8"?>
<svg id="Layer_1" data-name="Layer 1" xmlns="http://www.w3.org/2000/svg" version="1.1" viewBox="0 0 219 219">
  <defs>
    <style>
      .cls-1 {
        fill: #006d68;
      }

      .cls-1, .cls-2, .cls-3, .cls-4 {
        stroke-width: 0px;
      }

      .cls-2 {
        fill: #aecc53;
      }

      .cls-3 {
        fill: #003834;
      }

      .cls-4 {
        fill: #fff;
      }
    </style>
  </defs>
  <rect class="cls-1" x="-2.4" y="-2.4" width="223.9" height="223.9"/>
  <path class="cls-3" d="M109.5,7.4S22.6,74.7,22.6,136.3s38.9,75.3,86.9,75.3,86.9-33.7,86.9-75.3C196.4,74.7,109.5,7.4,109.5,7.4Z"/>
  <rect class="cls-1" x="95.6" y="132.9" width="27.8" height="82.8"/>
  <circle class="cls-2" cx="109.5" cy="132.9" r="13.9"/>
  <path class="cls-4" d="M179.3,130.2c-1.1-2.2-26.3-52.9-69.8-52.9s-68.7,50.7-69.8,52.9c-.8,1.7-.8,3.7,0,5.4.9,1.9,20.7,42.2,55.9,51.2v-12.9c-23.2-7.7-38.7-32.6-43.3-40.9,5.6-9.9,26.6-43.3,57.2-43.3s51.7,33.4,57.2,43.3c-4.6,8.3-20.1,33.3-43.3,40.9v12.9c35.2-8.9,55-49.3,55.9-51.2.8-1.7.8-3.7,0-5.4Z"/>
</svg>