<svg xmlns="http://www.w3.org/2000/svg" id="Layer_1" data-name="Layer 1" viewBox="0 0 219 219"><defs><style>.cls-1{fill:#006d68;stroke-width:0}</style></defs><path d="M-2.4-2.4h223.9v223.9H-2.4z" class="cls-1"/><path d="M109.5 7.4S22.6 74.7 22.6 136.3s38.9 75.3 86.9 75.3 86.9-33.7 86.9-75.3c0-61.6-86.9-128.9-86.9-128.9" style="stroke-width:0;fill:#003834"/><path d="M95.6 132.9h27.8v82.8H95.6z" class="cls-1"/><circle cx="109.5" cy="132.9" r="13.9" style="stroke-width:0;fill:#aecc53"/><path d="M179.3 130.2c-1.1-2.2-26.3-52.9-69.8-52.9S40.8 128 39.7 130.2c-.8 1.7-.8 3.7 0 5.4.9 1.9 20.7 42.2 55.9 51.2v-12.9c-23.2-7.7-38.7-32.6-43.3-40.9 5.6-9.9 26.6-43.3 57.2-43.3s51.7 33.4 57.2 43.3c-4.6 8.3-20.1 33.3-43.3 40.9v12.9c35.2-8.9 55-49.3 55.9-51.2.8-1.7.8-3.7 0-5.4" style="stroke-width:0;fill:#fff"/></svg>