<?xml version="1.0" encoding="UTF-8"?>
<svg id="Layer_1" xmlns="http://www.w3.org/2000/svg" version="1.1" viewBox="0 0 209 209">
  <!-- Generator: Adobe Illustrator 29.1.0, SVG Export Plug-In . SVG Version: 2.1.0 Build 142)  -->
  <defs>
    <style>
      .st0 {
        fill: #006d68;
      }

      .st1 {
        fill: #fff;
      }

      .st2 {
        fill: #aecc53;
      }

      .st3 {
        fill: #003834;
      }
    </style>
  </defs>
  <rect class="st3" x="4.5" y="4.5" width="200" height="200" rx="31.7" ry="31.7"/>
  <g>
    <polygon class="st0" points="104.5 159.7 27.7 160.7 27.7 56.3 104.5 67.7 104.5 159.7"/>
    <polygon class="st0" points="104.5 159.7 181.3 160.7 181.3 56.3 104.5 67.7 104.5 159.7"/>
    <g>
      <polygon class="st1" points="104.5 158.9 40.2 140.7 40.2 38.1 104.5 56.3 104.5 158.9"/>
      <polygon class="st2" points="104.5 158.9 168.8 140.7 168.8 38.1 104.5 56.3 104.5 158.9"/>
    </g>
    <path class="st2" d="M145.6,101.3c0-.2,0-.4,0-.7,0,0,0,0,0-.1,0-.3-.2-.5-.3-.8,0-.1-.3-.6-.6-1.2-2.6-4.9-12.6-21.8-28.8-27.6-.1,0-.2,0-.4-.1-.5-.2-1-.3-1.4-.5-.3,0-.6-.2-.9-.2-.1,0-.3,0-.4-.1h0c-2.6-.6-5.3-1-8.1-1s-5.5.4-8.1,1.1h0c-.2,0-.3,0-.4.1-.3,0-.6.2-.8.2-.5.1-1,.3-1.5.5-.1,0-.2,0-.3.1-16.3,5.8-26.3,22.7-28.8,27.6-.4.7-.6,1.1-.6,1.2-.1.3-.2.5-.3.8,0,0,0,0,0,.1,0,.2,0,.4,0,.7,0,.2,0,.4,0,.7,0,0,0,0,0,.1,0,.3.2.5.3.8,0,.1.3.6.6,1.2,2.6,4.9,12.6,21.8,28.8,27.6.1,0,.2,0,.4.1.5.2,1,.3,1.4.5.3,0,.6.2.9.2.1,0,.3,0,.4.1h0c2.6.6,5.3,1,8.1,1s5.5-.4,8.1-1.1h0c.2,0,.3,0,.4-.1.3,0,.6-.2.8-.2.5-.1,1-.3,1.5-.5.1,0,.2,0,.3-.1,16.3-5.8,26.3-22.7,28.8-27.6.4-.7.6-1.1.6-1.2.1-.3.2-.5.3-.8,0,0,0,0,0-.1,0-.2,0-.4,0-.7ZM71.1,101.3c3.2-5.7,15.5-25.2,33.4-25.2s30.1,19.5,33.4,25.2c-3.2,5.7-15.5,25.2-33.4,25.2s-30.1-19.5-33.4-25.2Z"/>
    <path class="st3" d="M145.5,100.5c0-.3-.2-.5-.3-.8,0-.1-.3-.6-.6-1.2-2.6-4.9-12.6-21.8-28.8-27.6-.1,0-.2,0-.4-.1-.5-.2-1-.3-1.4-.5-.3,0-.6-.2-.9-.2-.1,0-.3,0-.4-.1h0c-2.6-.6-5.3-1-8.1-1h0v7.2h0c17.8,0,30.1,19.5,33.4,25.2-3.2,5.7-15.5,25.2-33.4,25.2v7.2c2.8,0,5.5-.4,8.1-1.1h0c.2,0,.3,0,.4-.1.3,0,.6-.2.8-.2.5-.1,1-.3,1.5-.5.1,0,.2,0,.3-.1,16.3-5.8,26.3-22.7,28.8-27.6.4-.7.6-1.1.6-1.2.1-.3.2-.5.3-.8,0,0,0,0,0-.1,0-.2,0-.4,0-.7,0-.2,0-.4,0-.7,0,0,0,0,0-.1Z"/>
    <circle class="st0" cx="104.5" cy="101.3" r="9.1"/>
  </g>
</svg>