<svg xmlns="http://www.w3.org/2000/svg" id="Layer_1" viewBox="0 0 209 209"><defs><style>.st0{fill:#006d68}.st2{fill:#aecc53}.st3{fill:#003834}</style></defs><rect width="200" height="200" x="4.5" y="4.5" class="st3" rx="31.7" ry="31.7"/><path d="m104.5 159.7-76.8 1V56.3l76.8 11.4zm0 0 76.8 1V56.3l-76.8 11.4z" class="st0"/><path d="m104.5 158.9-64.3-18.2V38.1l64.3 18.2z" style="fill:#fff"/><path d="m104.5 158.9 64.3-18.2V38.1l-64.3 18.2z" class="st2"/><path d="M145.6 101.3v-.8c0-.3-.2-.5-.3-.8 0-.1-.3-.6-.6-1.2-2.6-4.9-12.6-21.8-28.8-27.6-.1 0-.2 0-.4-.1-.5-.2-1-.3-1.4-.5-.3 0-.6-.2-.9-.2-.1 0-.3 0-.4-.1-2.6-.6-5.3-1-8.1-1s-5.5.4-8.1 1.1c-.2 0-.3 0-.4.1-.3 0-.6.2-.8.2-.5.1-1 .3-1.5.5-.1 0-.2 0-.3.1-16.3 5.8-26.3 22.7-28.8 27.6q-.6 1.05-.6 1.2c-.1.3-.2.5-.3.8v1.6c0 .3.2.5.3.8 0 .1.3.6.6 1.2 2.6 4.9 12.6 21.8 28.8 27.6.1 0 .2 0 .4.1.5.2 1 .3 1.4.5.3 0 .6.2.9.2.1 0 .3 0 .4.1 2.6.6 5.3 1 8.1 1s5.5-.4 8.1-1.1c.2 0 .3 0 .4-.1.3 0 .6-.2.8-.2.5-.1 1-.3 1.5-.5.1 0 .2 0 .3-.1 16.3-5.8 26.3-22.7 28.8-27.6q.6-1.05.6-1.2c.1-.3.2-.5.3-.8zm-74.5 0c3.2-5.7 15.5-25.2 33.4-25.2s30.1 19.5 33.4 25.2c-3.2 5.7-15.5 25.2-33.4 25.2S74.4 107 71.1 101.3" class="st2"/><path d="M145.5 100.5c0-.3-.2-.5-.3-.8 0-.1-.3-.6-.6-1.2-2.6-4.9-12.6-21.8-28.8-27.6-.1 0-.2 0-.4-.1-.5-.2-1-.3-1.4-.5-.3 0-.6-.2-.9-.2-.1 0-.3 0-.4-.1-2.6-.6-5.3-1-8.1-1v7.2c17.8 0 30.1 19.5 33.4 25.2-3.2 5.7-15.5 25.2-33.4 25.2v7.2c2.8 0 5.5-.4 8.1-1.1.2 0 .3 0 .4-.1.3 0 .6-.2.8-.2.5-.1 1-.3 1.5-.5.1 0 .2 0 .3-.1 16.3-5.8 26.3-22.7 28.8-27.6q.6-1.05.6-1.2c.1-.3.2-.5.3-.8v-1.6Z" class="st3"/><circle cx="104.5" cy="101.3" r="9.1" class="st0"/></svg>