<svg xmlns="http://www.w3.org/2000/svg" xml:space="preserve" id="Layer_1" x="0" y="0" viewBox="0 0 209.75 209.76"><style>.st0{fill:#006d68}.st1{fill:#fff}</style><path d="M180.39 104.88c0-41.71-33.81-75.51-75.51-75.51s-75.51 33.81-75.51 75.51 33.81 75.51 75.51 75.51c2.48 0 75.27-.36 75.27-.36s.24-73.22.24-75.15" class="st0"/><path d="M63.37 61.38h39v39h-39z" style="fill:#aecc53"/><circle cx="82.87" cy="80.88" r="11.91" class="st0"/><path d="m133.58 107.08-11.49-8.82 3.65-4.76 6.75 5.18 8.97-11.63 4.75 3.66z" class="st1"/><path d="M114.37 76.38v36h-36v39h75v-75zm-.11 71.88H81.49V115.5h32.77zm3.23-68.76h32.77v32.77h-32.77zm32.77 68.76h-32.77V115.5h32.77z" class="st1"/><path d="M108.87 129.38h-8.5v-8.5h-5v8.5h-8.5v5h8.5v8.5h5v-8.5h8.5z" class="st1"/></svg>