<svg xmlns="http://www.w3.org/2000/svg" id="Layer_1" data-name="Layer 1" viewBox="0 0 209.76 209.76"><defs><style>.cls-1{fill:#006d68}.cls-1,.cls-2,.cls-3{stroke-width:0}.cls-2{fill:#aecc53}.cls-3{fill:#fff}</style></defs><path d="M-5.55-5.55h220.87v220.87H-5.55z" class="cls-1"/><path d="M180.4 104.88c0-41.71-33.81-75.51-75.51-75.51s-75.52 33.81-75.52 75.51 33.81 75.51 75.51 75.51c2.48 0 75.27-.36 75.27-.36s.24-73.22.24-75.15Z" class="cls-3"/><path d="M109.88 123.53v-6.97c-15.14-13.3-31.48-14.27-41.92-2.57v32.73h41.92z" class="cls-1"/><path d="M68.35 146.72h41.53v-1.05c-14.99-13.17-28.49-8.85-41.53 1.05" class="cls-2"/><path d="M109.88 147.72c-.48 0-.9-.35-.98-.83-1.23-7.06-6.02-12.42-13.5-15.1-9.68-3.46-21.25-1.42-28.78 5.08-.3.26-.71.31-1.07.15a.99.99 0 0 1-.58-.91v-19.56c0-.2.06-.4.18-.57 4.23-6.14 10.15-9.84 17.13-10.71 9.08-1.13 19.38 2.71 28.28 10.53.22.19.34.46.34.75v30.16c0 .52-.4.95-.91 1h-.09ZM85.6 128.13c3.56 0 7.12.58 10.47 1.78 5.85 2.09 10.3 5.86 12.81 10.71v-23.61c-8.38-7.24-17.97-10.79-26.37-9.75-6.3.78-11.67 4.1-15.55 9.61v17.17c5.25-3.86 11.94-5.91 18.64-5.91" class="cls-3"/><path d="M67.96 148.81c-.24 0-.48-.09-.67-.26a.99.99 0 0 1-.06-1.41c6.06-6.61 17.01-10.74 26.61-10.05 7.37.53 13.21 3.67 16.88 9.07.31.46.19 1.08-.27 1.39a1 1 0 0 1-1.39-.27c-4.18-6.16-10.67-7.85-15.37-8.2-9.04-.66-19.32 3.21-24.99 9.4-.2.22-.47.32-.74.32Z" class="cls-3"/><path d="M109.88 116.56v30.16h41.92v-32.73c-10.44-11.7-26.78-10.73-41.92 2.57" class="cls-1"/><path d="M151.88 146.72h-41.53v-1.05c14.99-13.17 28.49-8.85 41.53 1.05" class="cls-2"/><path d="M109.88 147.72h-.09a.994.994 0 0 1-.91-1v-30.16c0-.29.12-.56.34-.75 8.89-7.82 19.2-11.65 28.28-10.53 6.98.87 12.9 4.57 17.13 10.71.11.17.18.36.18.57v19.56c0 .39-.23.75-.58.91-.36.16-.77.1-1.07-.15-7.54-6.5-19.11-8.54-28.78-5.08-7.48 2.67-12.27 8.04-13.5 15.1-.08.48-.5.83-.98.83Zm1-30.71v23.61c2.51-4.85 6.96-8.62 12.81-10.71 9.65-3.45 21.07-1.77 29.11 4.13v-17.17c-3.88-5.5-9.25-8.82-15.55-9.61-8.4-1.04-17.99 2.51-26.37 9.75" class="cls-3"/><path d="M151.81 148.81c-.27 0-.54-.11-.74-.32-5.67-6.19-15.96-10.06-24.99-9.4-4.7.34-11.18 2.04-15.37 8.2-.31.46-.93.58-1.39.27a1 1 0 0 1-.27-1.39c3.67-5.4 9.5-8.53 16.88-9.07 9.61-.69 20.55 3.44 26.61 10.05a.996.996 0 0 1-.73 1.67Z" class="cls-3"/><path d="M125.94 74.83a3.25 3.25 0 0 0-3.56 2.9c-.11 1.04.3 2 1 2.67-2.04 4.93-6.67 8.43-12.05 8.96V75.57c3.69-.45 6.98-2.58 8.93-5.69 1.55-.03 2.9-1.16 3.14-2.75a3.25 3.25 0 0 0-2.72-3.7 3.25 3.25 0 0 0-3.7 2.72c-.14.92.13 1.81.66 2.49a9.45 9.45 0 0 1-6.31 4.03V59.19a3.23 3.23 0 0 0 1.81-2.9c0-1.79-1.45-3.25-3.25-3.25s-3.25 1.45-3.25 3.25c0 1.27.74 2.37 1.81 2.9v13.48a9.43 9.43 0 0 1-6.32-4.04c.53-.68.8-1.57.66-2.49a3.25 3.25 0 0 0-3.7-2.72 3.242 3.242 0 0 0 .42 6.45c1.95 3.12 5.25 5.25 8.94 5.69v13.79c-5.38-.53-10.01-4.03-12.06-8.96.7-.67 1.11-1.63 1-2.67a3.25 3.25 0 0 0-3.56-2.9 3.25 3.25 0 0 0-2.9 3.56c.15 1.49 1.29 2.62 2.69 2.86 2.43 6.13 8.17 10.46 14.83 11.01v14.01h2.88V92.24c6.65-.55 12.39-4.88 14.82-11.01 1.4-.24 2.54-1.37 2.69-2.86a3.25 3.25 0 0 0-2.9-3.56Z" class="cls-2"/></svg>