<?xml version="1.0" encoding="UTF-8"?>
<svg id="Layer_1" data-name="Layer 1" xmlns="http://www.w3.org/2000/svg" viewBox="0 0 209.76 209.76">
  <defs>
    <style>
      .cls-1 {
        fill: #006d68;
      }

      .cls-1, .cls-2, .cls-3 {
        stroke-width: 0px;
      }

      .cls-2 {
        fill: #aecc53;
      }

      .cls-3 {
        fill: #fff;
      }
    </style>
  </defs>
  <rect class="cls-1" x="-5.55" y="-5.55" width="220.87" height="220.87"/>
  <g>
    <path class="cls-3" d="M180.4,104.88c0-41.71-33.81-75.51-75.51-75.51S29.37,63.18,29.37,104.88s33.81,75.51,75.51,75.51c2.48,0,75.27-.36,75.27-.36,0,0,.24-73.22.24-75.15Z"/>
    <g>
      <g>
        <path class="cls-1" d="M109.88,123.53v-6.97c-15.14-13.3-31.48-14.27-41.92-2.57v32.73h41.92v-23.19h0Z"/>
        <path class="cls-2" d="M68.35,146.72h41.53v-1.05c-14.99-13.17-28.49-8.85-41.53,1.05Z"/>
        <path class="cls-3" d="M109.88,147.72c-.48,0-.9-.35-.98-.83-1.23-7.06-6.02-12.42-13.5-15.1-9.68-3.46-21.25-1.42-28.78,5.08-.3.26-.71.31-1.07.15-.36-.16-.58-.52-.58-.91v-19.56c0-.2.06-.4.18-.57,4.23-6.14,10.15-9.84,17.13-10.71,9.08-1.13,19.38,2.71,28.28,10.53.22.19.34.46.34.75v30.16c0,.52-.4.95-.91,1-.03,0-.06,0-.09,0ZM85.6,128.13c3.56,0,7.12.58,10.47,1.78,5.85,2.09,10.3,5.86,12.81,10.71v-23.61c-8.38-7.24-17.97-10.79-26.37-9.75-6.3.78-11.67,4.1-15.55,9.61v17.17c5.25-3.86,11.94-5.91,18.64-5.91Z"/>
        <path class="cls-3" d="M67.96,148.81c-.24,0-.48-.09-.67-.26-.41-.37-.44-1.01-.06-1.41,6.06-6.61,17.01-10.74,26.61-10.05,7.37.53,13.21,3.67,16.88,9.07.31.46.19,1.08-.27,1.39-.46.31-1.08.19-1.39-.27-4.18-6.16-10.67-7.85-15.37-8.2-9.04-.66-19.32,3.21-24.99,9.4-.2.22-.47.32-.74.32Z"/>
        <path class="cls-1" d="M109.88,116.56v6.97h0v23.19h41.92v-32.73c-10.44-11.7-26.78-10.73-41.92,2.57Z"/>
        <path class="cls-2" d="M151.88,146.72h-41.53v-1.05c14.99-13.17,28.49-8.85,41.53,1.05Z"/>
      </g>
      <g>
        <path class="cls-3" d="M109.88,147.72s-.06,0-.09,0c-.52-.04-.91-.48-.91-1v-30.16c0-.29.12-.56.34-.75,8.89-7.82,19.2-11.65,28.28-10.53,6.98.87,12.9,4.57,17.13,10.71.11.17.18.36.18.57v19.56c0,.39-.23.75-.58.91-.36.16-.77.1-1.07-.15-7.54-6.5-19.11-8.54-28.78-5.08-7.48,2.67-12.27,8.04-13.5,15.1-.08.48-.5.83-.98.83ZM110.88,117.01v23.61c2.51-4.85,6.96-8.62,12.81-10.71,9.65-3.45,21.07-1.77,29.11,4.13v-17.17c-3.88-5.5-9.25-8.82-15.55-9.61-8.4-1.04-17.99,2.51-26.37,9.75Z"/>
        <path class="cls-3" d="M151.81,148.81c-.27,0-.54-.11-.74-.32-5.67-6.19-15.96-10.06-24.99-9.4-4.7.34-11.18,2.04-15.37,8.2-.31.46-.93.58-1.39.27-.46-.31-.58-.93-.27-1.39,3.67-5.4,9.5-8.53,16.88-9.07,9.61-.69,20.55,3.44,26.61,10.05.37.41.35,1.04-.06,1.41-.19.18-.43.26-.67.26Z"/>
      </g>
    </g>
    <path class="cls-2" d="M125.94,74.83c-1.78-.18-3.38,1.12-3.56,2.9-.11,1.04.3,2,1,2.67-2.04,4.93-6.67,8.43-12.05,8.96v-13.79c3.69-.45,6.98-2.58,8.93-5.69,1.55-.03,2.9-1.16,3.14-2.75.27-1.77-.95-3.43-2.72-3.7-1.77-.27-3.43.95-3.7,2.72-.14.92.13,1.81.66,2.49-1.45,2.14-3.74,3.62-6.31,4.03v-13.48c1.07-.53,1.81-1.62,1.81-2.9,0-1.79-1.45-3.25-3.25-3.25s-3.25,1.45-3.25,3.25c0,1.27.74,2.37,1.81,2.9v13.48c-2.58-.41-4.87-1.89-6.32-4.04.53-.68.8-1.57.66-2.49-.27-1.77-1.93-2.99-3.7-2.72-1.77.27-2.99,1.93-2.72,3.7.24,1.58,1.59,2.72,3.14,2.75,1.95,3.12,5.25,5.25,8.94,5.69v13.79c-5.38-.53-10.01-4.03-12.06-8.96.7-.67,1.11-1.63,1-2.67-.18-1.78-1.78-3.08-3.56-2.9-1.78.18-3.08,1.78-2.9,3.56.15,1.49,1.29,2.62,2.69,2.86,2.43,6.13,8.17,10.46,14.83,11.01v14.01h2.88v-14.02c6.65-.55,12.39-4.88,14.82-11.01,1.4-.24,2.54-1.37,2.69-2.86.18-1.78-1.12-3.38-2.9-3.56Z"/>
  </g>
</svg>