<?xml version="1.0" encoding="utf-8"?>
<!-- Generator: Adobe Illustrator 27.7.0, SVG Export Plug-In . SVG Version: 6.00 Build 0)  -->
<svg version="1.1" id="Layer_1" xmlns="http://www.w3.org/2000/svg" xmlns:xlink="http://www.w3.org/1999/xlink" x="0px" y="0px"
	 viewBox="0 0 209.76 209.76" style="enable-background:new 0 0 209.76 209.76;" xml:space="preserve">
<style type="text/css">
	.st0{fill:#006D68;}
	.st1{fill:#FFFFFF;}
	.st2{fill:#AECC53;}
</style>
<g>
	<g>
		<g>
			<path class="st0" d="M180.4,104.88c0-41.71-33.81-75.51-75.51-75.51c-41.7,0-75.51,33.81-75.51,75.51s33.81,75.51,75.51,75.51
				c2.48,0,75.27-0.36,75.27-0.36S180.4,106.81,180.4,104.88z"/>
		</g>
		<g>
			<g>
				<path class="st1" d="M138.79,85.71c0-19.17-15.9-34.62-35.23-33.88C86.12,52.49,71.85,66.6,71.01,84.03
					c-0.44,9.23,2.8,17.69,8.39,24.05c5.94,6.76,9.42,15.34,9.42,24.34v0.74c0,8.83,7.23,16.06,16.06,16.06l0,0
					c8.83,0,16.06-7.23,16.06-16.06v-0.52c0-8.89,3.1-17.58,9.07-24.16C135.46,102.46,138.79,94.47,138.79,85.71z"/>
			</g>
			<g>
				<path class="st2" d="M105.48,67.24l-0.6-0.56l-0.6,0.56c-0.71,0.66-17.34,16.26-17.34,25.95c0,9.89,8.05,17.94,17.94,17.94
					s17.94-8.05,17.94-17.94C122.82,83.5,106.19,67.9,105.48,67.24z"/>
				<g>
					<path class="st0" d="M104.88,146.06c-0.73,0-1.32-0.59-1.32-1.32V88.79c0-0.73,0.59-1.32,1.32-1.32s1.32,0.59,1.32,1.32v55.95
						C106.2,145.47,105.61,146.06,104.88,146.06z"/>
				</g>
			</g>
			<g>
				<path class="st2" d="M118.73,138.9H91.02c-2.44,0-4.44,2-4.44,4.44v0c0,2.14,1.54,3.94,3.57,4.35c-0.78,0.8-1.27,1.9-1.27,3.1
					c0,2.44,2,4.44,4.44,4.44h2.82c1.16,3.72,4.63,6.41,8.73,6.41c4.1,0,7.57-2.7,8.73-6.41h2.82c2.44,0,4.44-2,4.44-4.44
					c0-1.2-0.49-2.3-1.27-3.1c2.03-0.41,3.57-2.21,3.57-4.35v0C123.17,140.9,121.17,138.9,118.73,138.9z"/>
			</g>
		</g>
	</g>
</g>
</svg>
