<?xml version="1.0" encoding="utf-8"?>
<!-- Generator: Adobe Illustrator 27.7.0, SVG Export Plug-In . SVG Version: 6.00 Build 0)  -->
<svg version="1.1" id="Layer_1" xmlns="http://www.w3.org/2000/svg" xmlns:xlink="http://www.w3.org/1999/xlink" x="0px" y="0px"
	 viewBox="0 0 209.75 209.76" style="enable-background:new 0 0 209.75 209.76;" xml:space="preserve">
<style type="text/css">
	.st0{fill:#FFFFFF;}
	.st1{fill:#AECC53;}
	.st2{fill:#006D68;}
</style>
<g>
	<g>
		<g>
			<path class="st2" d="M180.4,104.88c0-41.71-33.81-75.51-75.51-75.51c-41.7,0-75.51,33.81-75.51,75.51s33.81,75.51,75.51,75.51
				c2.48,0,75.27-0.36,75.27-0.36S180.4,106.81,180.4,104.88z"/>
		</g>
		<g>
			<path class="st1" d="M157.3,157.3L157.3,157.3c-2.94,2.94-7.72,2.94-10.66,0l-13.34-13.34c-2.07-2.07-2.07-5.43,0-7.5l3.16-3.16
				c2.07-2.07,5.43-2.07,7.5,0l5.94,5.94l7.4,7.4C160.24,149.58,160.24,154.35,157.3,157.3z"/>
		</g>
		<g>
			<g>
				<g>
					<path class="st1" d="M143.3,90.91H99.18c-1.14,0-2.06-0.92-2.06-2.06s0.92-2.06,2.06-2.06h44.12c1.14,0,2.06,0.92,2.06,2.06
						S144.44,90.91,143.3,90.91z"/>
				</g>
				<g>
					<path class="st1" d="M143.3,106.95H99.18c-1.14,0-2.06-0.92-2.06-2.06s0.92-2.06,2.06-2.06h44.12c1.14,0,2.06,0.92,2.06,2.06
						S144.44,106.95,143.3,106.95z"/>
				</g>
				<g>
					<path class="st1" d="M143.3,122.98H99.18c-1.14,0-2.06-0.92-2.06-2.06s0.92-2.06,2.06-2.06h44.12c1.14,0,2.06,0.92,2.06,2.06
						S144.44,122.98,143.3,122.98z"/>
				</g>
			</g>
			<g>
				<g>
					<path class="st1" d="M87.3,92.49h-1.05c-2.01,0-3.64-1.63-3.64-3.64s1.63-3.64,3.64-3.64h1.05c2.01,0,3.64,1.63,3.64,3.64
						S89.31,92.49,87.3,92.49z"/>
				</g>
				<g>
					<path class="st1" d="M87.3,108.53h-1.05c-2.01,0-3.64-1.63-3.64-3.64s1.63-3.64,3.64-3.64h1.05c2.01,0,3.64,1.63,3.64,3.64
						S89.31,108.53,87.3,108.53z"/>
				</g>
				<g>
					<path class="st1" d="M87.3,124.56h-1.05c-2.01,0-3.64-1.63-3.64-3.64s1.63-3.64,3.64-3.64h1.05c2.01,0,3.64,1.63,3.64,3.64
						S89.31,124.56,87.3,124.56z"/>
				</g>
			</g>
		</g>
		<g>
			<path class="st0" d="M138.21,71.55c-18.41-18.41-48.25-18.41-66.66,0c-18.41,18.41-18.41,48.25,0,66.66
				c18.41,18.41,48.25,18.41,66.66,0C156.62,119.8,156.62,89.96,138.21,71.55z M131.16,131.16c-14.51,14.51-38.05,14.51-52.56,0
				c-14.51-14.51-14.51-38.05,0-52.56s38.05-14.51,52.56,0S145.68,116.65,131.16,131.16z"/>
		</g>
	</g>
</g>
</svg>
