<svg xmlns="http://www.w3.org/2000/svg" xml:space="preserve" viewBox="0 0 209.75 209.76"><path d="M180.4 104.88c0-41.71-33.81-75.51-75.51-75.51s-75.51 33.81-75.51 75.51 33.81 75.51 75.51 75.51c2.48 0 75.27-.36 75.27-.36s.24-73.22.24-75.15" style="fill:#006d68"/><path d="M157.3 157.3a7.544 7.544 0 0 1-10.66 0l-13.34-13.34a5.305 5.305 0 0 1 0-7.5l3.16-3.16a5.305 5.305 0 0 1 7.5 0l5.94 5.94 7.4 7.4c2.94 2.94 2.94 7.71 0 10.66m-14-66.39H99.18c-1.14 0-2.06-.92-2.06-2.06s.92-2.06 2.06-2.06h44.12c1.14 0 2.06.92 2.06 2.06s-.92 2.06-2.06 2.06m0 16.04H99.18c-1.14 0-2.06-.92-2.06-2.06s.92-2.06 2.06-2.06h44.12c1.14 0 2.06.92 2.06 2.06s-.92 2.06-2.06 2.06m0 16.03H99.18c-1.14 0-2.06-.92-2.06-2.06s.92-2.06 2.06-2.06h44.12c1.14 0 2.06.92 2.06 2.06s-.92 2.06-2.06 2.06m-56-30.49h-1.05a3.64 3.64 0 0 1 0-7.28h1.05a3.64 3.64 0 0 1 0 7.28m0 16.04h-1.05a3.64 3.64 0 0 1 0-7.28h1.05a3.64 3.64 0 0 1 0 7.28m0 16.03h-1.05a3.64 3.64 0 0 1 0-7.28h1.05a3.64 3.64 0 0 1 0 7.28" style="fill:#aecc53"/><path d="M138.21 71.55c-18.41-18.41-48.25-18.41-66.66 0s-18.41 48.25 0 66.66 48.25 18.41 66.66 0 18.41-48.25 0-66.66m-7.05 59.61c-14.51 14.51-38.05 14.51-52.56 0s-14.51-38.05 0-52.56 38.05-14.51 52.56 0 14.52 38.05 0 52.56" style="fill:#fff"/></svg>