<svg xmlns="http://www.w3.org/2000/svg" id="Layer_1" viewBox="0 0 222.6 248.5"><defs><style>.st0{fill:#cee098}.st2{fill:#aac853}.st4{fill:#006d68}</style></defs><path d="M117 133h-11.3l-60.9 61.2 21.6 4.6 4.5 21.6 66.7-66.7z" class="st0"/><path d="M206.1 123h-37.9l-56.9 56.9L54.4 123h-38l94.9 95 94.9-95z" class="st4"/><path d="m16.4 123 9.6-9.5 85.4-85.4 85.4 85.4 9.4 9.5h-37.9l-56.9-56.9L54.5 123zm100.5 10h-11.2l-20.6 20.7 66.6 66.7 4.6-21.6 21.6-4.6z" class="st2"/><path d="M145.5 125.1c1.1 0 2-.9 2-2s-.9-2-2-2H134v-7.9h11.5c1.1 0 2-.9 2-2s-.9-2-2-2H134v-1.4c0-3.8-2.9-6.9-6.6-7.2V89c0-1.1-.9-2-2-2s-2 .9-2 2v11.5h-9.9V89c0-1.1-.9-2-2-2s-2 .9-2 2v11.5h-9.9V89c0-1.1-.9-2-2-2s-2 .9-2 2v11.6c-3.7.3-6.6 3.5-6.6 7.2v1.4H77.5c-1.1 0-2 .9-2 2s.9 2 2 2H89v7.9H77.5c-1.1 0-2 .9-2 2s.9 2 2 2H89v7.9H77.5c-1.1 0-2 .9-2 2s.9 2 2 2H89v1.4c0 3.8 2.9 6.9 6.6 7.2v11.6c0 1.1.9 2 2 2s2-.9 2-2v-11.5h9.9v11.5c0 1.1.9 2 2 2s2-.9 2-2v-11.5h9.9v11.5c0 1.1.9 2 2 2s2-.9 2-2v-11.6c3.7-.3 6.6-3.5 6.6-7.2V137h11.5c1.1 0 2-.9 2-2s-.9-2-2-2H134v-7.9zm-24.3 4.7c0 1.8-1.4 3.2-3.2 3.2h-13.5c-1.8 0-3.2-1.4-3.2-3.2v-13.5c0-1.8 1.4-3.2 3.2-3.2H118c1.8 0 3.2 1.4 3.2 3.2z" style="fill:#3c3c3c"/><path d="M-5.8-5.5h234.2V254H-5.8z" style="fill:#003834"/><path d="m44.8 194.2 21.6 4.6 4.5 21.6 66.7-66.7-11.4-11.4-30.6.8z" class="st0"/><path d="M206.1 123h-37.9l-56.9 56.9L54.4 123h-38l94.9 95 94.9-95z" class="st4"/><path d="m16.4 123 9.6-9.5 85.4-85.4 85.4 85.4 9.4 9.5h-37.9l-56.9-56.9L54.5 123zm161.5 71.2-21.6 4.6-4.6 21.6-66.6-66.7 16.3-16.4h19.8z" class="st2"/><path d="M145.5 127.1c1.1 0 2-.9 2-2s-.9-2-2-2H134v-7.9h11.5c1.1 0 2-.9 2-2s-.9-2-2-2H134v-1.4c0-3.8-2.9-6.9-6.6-7.2V91c0-1.1-.9-2-2-2s-2 .9-2 2v11.5h-9.9V91c0-1.1-.9-2-2-2s-2 .9-2 2v11.5h-9.9V91c0-1.1-.9-2-2-2s-2 .9-2 2v11.6c-3.7.3-6.6 3.5-6.6 7.2v1.4H77.5c-1.1 0-2 .9-2 2s.9 2 2 2H89v7.9H77.5c-1.1 0-2 .9-2 2s.9 2 2 2H89v7.9H77.5c-1.1 0-2 .9-2 2s.9 2 2 2H89v1.4c0 3.8 2.9 6.9 6.6 7.2v11.6c0 1.1.9 2 2 2s2-.9 2-2v-11.5h9.9v11.5c0 1.1.9 2 2 2s2-.9 2-2v-11.5h9.9v11.5c0 1.1.9 2 2 2s2-.9 2-2v-11.6c3.7-.3 6.6-3.5 6.6-7.2V139h11.5c1.1 0 2-.9 2-2s-.9-2-2-2H134v-7.9zm-24.3 4.7c0 1.8-1.4 3.2-3.2 3.2h-13.5c-1.8 0-3.2-1.4-3.2-3.2v-13.5c0-1.8 1.4-3.2 3.2-3.2H118c1.8 0 3.2 1.4 3.2 3.2z" style="fill:#fff"/></svg>