<?xml version="1.0" encoding="UTF-8"?>
<svg id="Layer_1" xmlns="http://www.w3.org/2000/svg" version="1.1" viewBox="0 0 222.6 248.5">
  <!-- Generator: Adobe Illustrator 29.2.1, SVG Export Plug-In . SVG Version: 2.1.0 Build 116)  -->
  <defs>
    <style>
      .st0 {
        fill: #cee098;
      }

      .st1 {
        fill: #3c3c3c;
      }

      .st2 {
        fill: #aac853;
      }

      .st3 {
        fill: #fff;
      }

      .st4 {
        fill: #006d68;
      }

      .st5 {
        fill: #003834;
      }
    </style>
  </defs>
  <g>
    <polygon class="st0" points="117 133 105.7 133 44.8 194.2 66.4 198.8 70.9 220.4 137.6 153.7 117 133"/>
    <g>
      <polygon class="st4" points="206.1 123 168.2 123 168.2 123 111.3 179.9 54.4 123 16.4 123 111.3 218 206.2 123 206.1 123"/>
      <polygon class="st2" points="16.4 123 26 113.5 111.4 28.1 196.8 113.5 206.2 123 168.3 123 111.4 66.1 54.5 123 16.4 123"/>
    </g>
    <polygon class="st2" points="116.9 133 105.7 133 85.1 153.7 151.7 220.4 156.3 198.8 177.9 194.2 116.9 133"/>
    <path class="st1" d="M145.5,125.1c1.1,0,2-.9,2-2s-.9-2-2-2h-11.5v-7.9h11.5c1.1,0,2-.9,2-2s-.9-2-2-2h-11.5v-1.4c0-3.8-2.9-6.9-6.6-7.2v-11.6c0-1.1-.9-2-2-2s-2,.9-2,2v11.5h-9.9v-11.5c0-1.1-.9-2-2-2s-2,.9-2,2v11.5h-9.9v-11.5c0-1.1-.9-2-2-2s-2,.9-2,2v11.6c-3.7.3-6.6,3.5-6.6,7.2v1.4h-11.5c-1.1,0-2,.9-2,2s.9,2,2,2h11.5v7.9h-11.5c-1.1,0-2,.9-2,2s.9,2,2,2h11.5v7.9h-11.5c-1.1,0-2,.9-2,2s.9,2,2,2h11.5v1.4c0,3.8,2.9,6.9,6.6,7.2v11.6c0,1.1.9,2,2,2s2-.9,2-2v-11.5h9.9v11.5c0,1.1.9,2,2,2s2-.9,2-2v-11.5h9.9v11.5c0,1.1.9,2,2,2s2-.9,2-2v-11.6c3.7-.3,6.6-3.5,6.6-7.2v-1.4h11.5c1.1,0,2-.9,2-2s-.9-2-2-2h-11.5v-7.9h11.5ZM121.2,129.8c0,1.8-1.4,3.2-3.2,3.2h-13.5c-1.8,0-3.2-1.4-3.2-3.2v-13.5c0-1.8,1.4-3.2,3.2-3.2h13.5c1.8,0,3.2,1.4,3.2,3.2v13.5Z"/>
  </g>
  <rect class="st5" x="-5.8" y="-5.5" width="234.2" height="259.5"/>
  <g>
    <polygon class="st0" points="44.8 194.2 66.4 198.8 70.9 220.4 137.6 153.7 126.2 142.3 95.6 143.1 44.8 194.2"/>
    <g>
      <polygon class="st4" points="206.1 123 168.2 123 168.2 123 111.3 179.9 54.4 123 16.4 123 111.3 218 206.2 123 206.1 123"/>
      <polygon class="st2" points="16.4 123 26 113.5 111.4 28.1 196.8 113.5 206.2 123 168.3 123 111.4 66.1 54.5 123 16.4 123"/>
    </g>
    <polygon class="st2" points="177.9 194.2 156.3 198.8 151.7 220.4 85.1 153.7 101.4 137.3 121.2 137.3 177.9 194.2"/>
    <path class="st3" d="M145.5,127.1c1.1,0,2-.9,2-2s-.9-2-2-2h-11.5v-7.9h11.5c1.1,0,2-.9,2-2s-.9-2-2-2h-11.5v-1.4c0-3.8-2.9-6.9-6.6-7.2v-11.6c0-1.1-.9-2-2-2s-2,.9-2,2v11.5h-9.9v-11.5c0-1.1-.9-2-2-2s-2,.9-2,2v11.5h-9.9v-11.5c0-1.1-.9-2-2-2s-2,.9-2,2v11.6c-3.7.3-6.6,3.5-6.6,7.2v1.4h-11.5c-1.1,0-2,.9-2,2s.9,2,2,2h11.5v7.9h-11.5c-1.1,0-2,.9-2,2s.9,2,2,2h11.5v7.9h-11.5c-1.1,0-2,.9-2,2s.9,2,2,2h11.5v1.4c0,3.8,2.9,6.9,6.6,7.2v11.6c0,1.1.9,2,2,2s2-.9,2-2v-11.5h9.9v11.5c0,1.1.9,2,2,2s2-.9,2-2v-11.5h9.9v11.5c0,1.1.9,2,2,2s2-.9,2-2v-11.6c3.7-.3,6.6-3.5,6.6-7.2v-1.4h11.5c1.1,0,2-.9,2-2s-.9-2-2-2h-11.5v-7.9h11.5ZM121.2,131.8c0,1.8-1.4,3.2-3.2,3.2h-13.5c-1.8,0-3.2-1.4-3.2-3.2v-13.5c0-1.8,1.4-3.2,3.2-3.2h13.5c1.8,0,3.2,1.4,3.2,3.2v13.5Z"/>
  </g>
</svg>