<?xml version="1.0" encoding="UTF-8"?>
<svg id="Layer_1" data-name="Layer 1" xmlns="http://www.w3.org/2000/svg" version="1.1" viewBox="0 0 209.8 209.8">
  <defs>
    <style>
      .cls-1, .cls-2, .cls-3, .cls-4 {
        stroke-width: 0px;
      }

      .cls-1, .cls-3 {
        fill: #006d68;
      }

      .cls-5 {
        fill: none;
        stroke: #fff;
        stroke-miterlimit: 10;
        stroke-width: 2.3px;
      }

      .cls-2 {
        fill: #aecc53;
      }

      .cls-3 {
        opacity: .4;
      }

      .cls-4 {
        fill: #fff;
      }
    </style>
  </defs>
  <path class="cls-1" d="M180.4,104.9c0-41.7-33.8-75.5-75.5-75.5S29.4,63.2,29.4,104.9s33.8,75.5,75.5,75.5,75.3-.4,75.3-.4c0,0,.2-73.2.2-75.2Z"/>
  <g>
    <path class="cls-4" d="M124.6,106.2c-1.5-.1-2.8.9-2.9,2.4,0,.9.3,1.6.8,2.2-1.6,4.1-5.4,7-9.8,7.4v-11.3c2.9-.4,5.6-2.2,7.2-4.7,1.3,0,2.4-1,2.6-2.3.2-1.5-.8-2.8-2.3-3-1.5-.2-2.8.8-3,2.3-.1.8.1,1.5.6,2-1.2,1.8-3,3-5.1,3.4v-11c.8-.4,1.4-1.3,1.3-2.4s-1.2-2.6-2.7-2.6c-1.5,0-2.6,1.2-2.6,2.7,0,1,.6,1.9,1.5,2.4v11c-2-.3-3.9-1.5-5.1-3.3.4-.6.6-1.3.5-2-.2-1.5-1.6-2.4-3.1-2.2-1.5.2-2.4,1.6-2.2,3.1.2,1.3,1.3,2.2,2.6,2.2,1.6,2.5,4.3,4.3,7.4,4.6v11.3c-4.3-.4-8.1-3.2-9.8-7.2.6-.6.9-1.3.8-2.2-.2-1.5-1.5-2.5-2.9-2.3-1.5.2-2.5,1.5-2.3,2.9.1,1.2,1.1,2.1,2.2,2.3,2,5,6.8,8.5,12.2,8.9v11.5c.1,0,2.5,0,2.5,0v-11.5c5.3-.5,10-4.1,11.9-9.1,1.1-.2,2.1-1.1,2.2-2.4.1-1.5-.9-2.8-2.4-2.9Z"/>
    <rect class="cls-2" x="134.7" y="80.8" width="11.7" height="55.7"/>
    <rect class="cls-2" x="76.7" y="80.8" width="11.7" height="55.7"/>
    <g>
      <path class="cls-2" d="M73.3,77.1h18.4c0,2.5-2,4.4-4.4,4.4h-9.5c-2.4,0-4.4-2-4.4-4.4h0Z"/>
      <rect class="cls-2" x="73.3" y="139.1" width="18.4" height="4.4" transform="translate(165 282.6) rotate(180)"/>
    </g>
    <g>
      <path class="cls-2" d="M131.3,77.1h18.4c0,2.5-2,4.4-4.4,4.4h-9.5c-2.4,0-4.4-2-4.4-4.4h0Z"/>
      <path class="cls-2" d="M73.3,77.1h18.4c0,2.5-2,4.4-4.4,4.4h-9.5c-2.4,0-4.4-2-4.4-4.4h0Z"/>
      <path class="cls-2" d="M131.3,77.1h18.4c0,2.5-2,4.4-4.4,4.4h-9.5c-2.4,0-4.4-2-4.4-4.4h0Z"/>
      <path class="cls-3" d="M73.3,77.1h18.4c0,2.5-2,4.4-4.4,4.4h-9.5c-2.4,0-4.4-2-4.4-4.4h0Z"/>
      <path class="cls-3" d="M131.3,77.1h18.4c0,2.5-2,4.4-4.4,4.4h-9.5c-2.4,0-4.4-2-4.4-4.4h0Z"/>
      <rect class="cls-2" x="131.3" y="139.1" width="18.4" height="4.4" transform="translate(281 282.6) rotate(180)"/>
    </g>
    <line class="cls-5" x1="73.1" y1="144.7" x2="149.9" y2="144.7"/>
    <line class="cls-5" x1="67.8" y1="151.6" x2="155.2" y2="151.6"/>
    <rect class="cls-4" x="70.1" y="73.1" width="82.8" height="3.9"/>
    <polygon class="cls-4" points="111.5 54.3 70.1 73.1 152.9 73.1 111.5 54.3"/>
    <polygon class="cls-2" points="111.5 59.1 80.9 73.1 142.2 73.1 111.5 59.1"/>
  </g>
</svg>