<svg xmlns="http://www.w3.org/2000/svg" id="Layer_1" data-name="Layer 1" viewBox="0 0 209.8 209.8"><defs><style>.cls-2,.cls-4{stroke-width:0}.cls-2{fill:#aecc53}.cls-4{fill:#fff}</style></defs><path d="M180.4 104.9c0-41.7-33.8-75.5-75.5-75.5s-75.5 33.8-75.5 75.5 33.8 75.5 75.5 75.5 75.3-.4 75.3-.4.2-73.2.2-75.2Z" style="stroke-width:0;fill:#006d68"/><path d="M124.6 106.2c-1.5-.1-2.8.9-2.9 2.4 0 .9.3 1.6.8 2.2-1.6 4.1-5.4 7-9.8 7.4v-11.3c2.9-.4 5.6-2.2 7.2-4.7 1.3 0 2.4-1 2.6-2.3.2-1.5-.8-2.8-2.3-3s-2.8.8-3 2.3c-.1.8.1 1.5.6 2-1.2 1.8-3 3-5.1 3.4v-11c.8-.4 1.4-1.3 1.3-2.4s-1.2-2.6-2.7-2.6-2.6 1.2-2.6 2.7c0 1 .6 1.9 1.5 2.4v11c-2-.3-3.9-1.5-5.1-3.3.4-.6.6-1.3.5-2-.2-1.5-1.6-2.4-3.1-2.2s-2.4 1.6-2.2 3.1c.2 1.3 1.3 2.2 2.6 2.2 1.6 2.5 4.3 4.3 7.4 4.6v11.3c-4.3-.4-8.1-3.2-9.8-7.2.6-.6.9-1.3.8-2.2-.2-1.5-1.5-2.5-2.9-2.3-1.5.2-2.5 1.5-2.3 2.9.1 1.2 1.1 2.1 2.2 2.3 2 5 6.8 8.5 12.2 8.9v11.5h2.5v-11.5c5.3-.5 10-4.1 11.9-9.1 1.1-.2 2.1-1.1 2.2-2.4.1-1.5-.9-2.8-2.4-2.9Z" class="cls-4"/><path d="M134.7 80.8h11.7v55.7h-11.7zm-58 0h11.7v55.7H76.7z" class="cls-2"/><path d="M73.3 77.1h18.4c0 2.5-2 4.4-4.4 4.4h-9.5c-2.4 0-4.4-2-4.4-4.4Zm18.4 66.4H73.3v-4.4h18.4zm39.6-66.4h18.4c0 2.5-2 4.4-4.4 4.4h-9.5c-2.4 0-4.4-2-4.4-4.4Z" class="cls-2"/><path d="M73.3 77.1h18.4c0 2.5-2 4.4-4.4 4.4h-9.5c-2.4 0-4.4-2-4.4-4.4Zm58 0h18.4c0 2.5-2 4.4-4.4 4.4h-9.5c-2.4 0-4.4-2-4.4-4.4Z" class="cls-2"/><path d="M73.3 77.1h18.4c0 2.5-2 4.4-4.4 4.4h-9.5c-2.4 0-4.4-2-4.4-4.4Zm58 0h18.4c0 2.5-2 4.4-4.4 4.4h-9.5c-2.4 0-4.4-2-4.4-4.4Z" style="stroke-width:0;fill:#006d68;opacity:.4"/><path d="M149.7 143.5h-18.4v-4.4h18.4z" class="cls-2"/><path d="M73.1 144.7h76.8m-82.1 6.9h87.4" style="fill:none;stroke:#fff;stroke-miterlimit:10;stroke-width:2.3px"/><path d="M70.1 73.1h82.8V77H70.1zm41.4-18.8L70.1 73.1h82.8z" class="cls-4"/><path d="m111.5 59.1-30.6 14h61.3z" class="cls-2"/></svg>