<svg xmlns="http://www.w3.org/2000/svg" xml:space="preserve" id="Layer_1" x="0" y="0" viewBox="0 0 209.8 209.8"><style>.st4{fill:#006d68}</style><path d="M140.2 50.3s-15.1 24.1-33.8 24.1-33.8-24.1-33.8-24.1 15.1-24.1 33.8-24.1 33.8 24.1 33.8 24.1" class="st4"/><circle cx="106.4" cy="48.9" r="9.7" style="fill:#acca53"/><path d="M81.9 87.8c-4.3-2.9-9.4-4.2-14.6-3.7-6.2.6-11.6 3.7-15.4 8.6-6.8 8.8-5.9 21.4 2 29.3l.8.8c4.3 3.8 9.8 5.7 15.5 5.3 1.1-.1 1.9.7 2 1.7 0 .5-.1 1-.5 1.4-.3.4-.8.6-1.3.6-.6 0-1.2.1-1.7.1-6.1 0-12-2.2-16.5-6.3l-.9-.9C42 115.5 41 100.8 49 90.5c4.4-5.8 10.8-9.3 18-10 2.7-.3 5.4-.1 8 .5L53.4 59.4C25 87.8 25 133.9 53.4 162.3l51.4-51.4zm-11.6 29.7c-6.2 0-11.3-5.1-11.3-11.3S64 95 70.3 95s11.3 5.1 11.3 11.3-5.1 11.2-11.3 11.2" style="fill:#3c3c3c"/><path d="M156.3 59.4s-12.1 12.3-21.7 22c1.6-.4 3.3-.7 5-.8 6.7-.4 13.1 1.8 18.1 6.3l.9.9c9.3 9.2 10.3 23.9 2.3 34.2-4.9 6.4-12.6 10.2-20.6 10.2h-.8c-.5 0-1-.2-1.3-.6s-.5-.8-.5-1.3.2-1 .6-1.3.8-.5 1.3-.5c7.1.2 14-3 18.4-8.7 6.8-8.8 5.9-21.4-2-29.3l-.8-.8c-4.2-3.8-9.6-5.7-15.3-5.3-4.9.3-9.8 2.1-13.5 5.3-.6.5-2.5 2.3-3.3 3l-.9.9-68.7 68.7c28.4 28.4 74.5 28.4 102.9 0s28.3-74.5-.1-102.9m-28 48.8c-1.3-7.7 5.3-14.3 13-13 4.7.8 8.5 4.5 9.2 9.2 1.3 7.7-5.3 14.3-13 13-4.6-.8-8.4-4.6-9.2-9.2" class="st4"/><path d="m118 134.5-13.1 18-13.1-18z" style="fill-rule:evenodd;clip-rule:evenodd;fill:#acca53"/></svg>