<?xml version="1.0" encoding="utf-8"?>
<!-- Generator: Adobe Illustrator 28.0.0, SVG Export Plug-In . SVG Version: 6.00 Build 0)  -->
<svg version="1.1" id="Layer_1" xmlns="http://www.w3.org/2000/svg" xmlns:xlink="http://www.w3.org/1999/xlink" x="0px" y="0px"
	 viewBox="0 0 209.8 209.8" style="enable-background:new 0 0 209.8 209.8;" xml:space="preserve">
<style type="text/css">
	.st0{fill:#3C3C3C;}
	.st1{fill:#FFFFFF;}
	.st2{fill:#ACCA53;}
	.st3{fill-rule:evenodd;clip-rule:evenodd;fill:#ACCA53;}
	.st4{fill:#006D68;}
</style>
<g>
	<g>
		<path class="st4" d="M140.2,50.3c0,0-15.1,24.1-33.8,24.1S72.6,50.3,72.6,50.3s15.1-24.1,33.8-24.1S140.2,50.3,140.2,50.3z"/>
		<circle class="st2" cx="106.4" cy="48.9" r="9.7"/>
	</g>
	<path class="st0" d="M81.9,87.8c-4.3-2.9-9.4-4.2-14.6-3.7c-6.2,0.6-11.6,3.7-15.4,8.6c-6.8,8.8-5.9,21.4,2,29.3
		c0.3,0.3,0.5,0.5,0.8,0.8c4.3,3.8,9.8,5.7,15.5,5.3c1.1-0.1,1.9,0.7,2,1.7c0,0.5-0.1,1-0.5,1.4c-0.3,0.4-0.8,0.6-1.3,0.6
		c-0.6,0-1.2,0.1-1.7,0.1c-6.1,0-12-2.2-16.5-6.3c-0.3-0.3-0.6-0.6-0.9-0.9c-9.3-9.2-10.3-23.9-2.3-34.2c4.4-5.8,10.8-9.3,18-10
		c2.7-0.3,5.4-0.1,8,0.5L53.4,59.4C25,87.8,25,133.9,53.4,162.3l51.4-51.4L81.9,87.8z M70.3,117.5c-6.2,0-11.3-5.1-11.3-11.3
		S64,95,70.3,95s11.3,5.1,11.3,11.3S76.5,117.5,70.3,117.5z"/>
	<path class="st4" d="M156.3,59.4c0,0-12.1,12.3-21.7,22c1.6-0.4,3.3-0.7,5-0.8c6.7-0.4,13.1,1.8,18.1,6.3c0.3,0.3,0.6,0.6,0.9,0.9
		c9.3,9.2,10.3,23.9,2.3,34.2c-4.9,6.4-12.6,10.2-20.6,10.2c-0.3,0-0.6,0-0.8,0c-0.5,0-1-0.2-1.3-0.6s-0.5-0.8-0.5-1.3
		c0-0.5,0.2-1,0.6-1.3c0.4-0.3,0.8-0.5,1.3-0.5c7.1,0.2,14-3,18.4-8.7c6.8-8.8,5.9-21.4-2-29.3c-0.3-0.3-0.5-0.5-0.8-0.8
		c-4.2-3.8-9.6-5.7-15.3-5.3c-4.9,0.3-9.8,2.1-13.5,5.3c-0.6,0.5-2.5,2.3-3.3,3c-0.3,0.3-0.6,0.6-0.9,0.9l-68.7,68.7
		c28.4,28.4,74.5,28.4,102.9,0S184.7,87.8,156.3,59.4z M128.3,108.2c-1.3-7.7,5.3-14.3,13-13c4.7,0.8,8.5,4.5,9.2,9.2
		c1.3,7.7-5.3,14.3-13,13C132.9,116.6,129.1,112.8,128.3,108.2z"/>
	<polygon class="st3" points="118,134.5 104.9,152.5 91.8,134.5 	"/>
</g>
</svg>
