<svg xmlns="http://www.w3.org/2000/svg" xml:space="preserve" viewBox="0 0 209.76 209.76"><path d="M112.64 37.55a9.94 9.94 0 0 0 2.24-6.3c0-5.52-4.48-10-10-10s-10 4.48-10 10c0 2.39.84 4.58 2.24 6.3-33.34 3.85-59.23 32.15-59.23 66.52v70.8h133.98v-70.8c0-34.37-25.89-62.67-59.23-66.52" style="fill:#006d68"/><ellipse cx="104.88" cy="175.44" rx="66.99" ry="13.08" style="fill:#aecc53"/><path d="M135.2 120.98c2.62-.44 4.73-2.56 5.01-5.33.34-3.33-2.08-6.3-5.41-6.64a6.053 6.053 0 0 0-6.64 5.41c-.2 1.94.56 3.73 1.87 4.98-3.81 9.19-12.43 15.7-22.46 16.7v-25.7c6.87-.83 13.01-4.81 16.65-10.61 2.89-.06 5.4-2.17 5.85-5.12.51-3.3-1.76-6.39-5.07-6.9-3.3-.51-6.39 1.76-6.9 5.07a6.05 6.05 0 0 0 1.23 4.64c-2.7 3.98-6.97 6.75-11.76 7.52V79.89c1.99-.99 3.37-3.03 3.37-5.4 0-3.34-2.71-6.05-6.05-6.05s-6.05 2.71-6.05 6.05c0 2.37 1.38 4.41 3.37 5.4v25.12c-4.8-.76-9.08-3.53-11.78-7.52a6.05 6.05 0 0 0 1.23-4.64 6.06 6.06 0 0 0-6.9-5.07c-3.3.51-5.57 3.59-5.07 6.9.45 2.95 2.97 5.06 5.85 5.12 3.64 5.81 9.78 9.78 16.67 10.61v25.7c-10.03-.99-18.66-7.51-22.48-16.71 1.31-1.25 2.06-3.04 1.87-4.98a6.053 6.053 0 0 0-6.64-5.41 6.053 6.053 0 0 0-5.41 6.64c.28 2.77 2.4 4.89 5.01 5.33 4.52 11.43 15.23 19.5 27.64 20.52v26.12h5.37V141.5c12.41-1.03 23.1-9.09 27.63-20.52" style="fill:#fff"/></svg>