<?xml version="1.0" encoding="utf-8"?>
<!-- Generator: Adobe Illustrator 28.0.0, SVG Export Plug-In . SVG Version: 6.00 Build 0)  -->
<svg version="1.1" id="Layer_1" xmlns="http://www.w3.org/2000/svg" xmlns:xlink="http://www.w3.org/1999/xlink" x="0px" y="0px"
	 viewBox="0 0 209.76 209.76" style="enable-background:new 0 0 209.76 209.76;" xml:space="preserve">
<style type="text/css">
	.st0{fill:#3C3C3C;}
	.st1{fill:#AECC53;}
	.st2{fill:#006D68;}
	.st3{fill:#FFFFFF;}
</style>
<g>
	<path class="st2" d="M112.64,37.55c1.4-1.72,2.24-3.91,2.24-6.3c0-5.52-4.48-10-10-10c-5.52,0-10,4.48-10,10
		c0,2.39,0.84,4.58,2.24,6.3C63.78,41.4,37.89,69.7,37.89,104.07v70.8h133.98v-70.8C171.87,69.7,145.98,41.4,112.64,37.55z"/>
	<g>
		<ellipse class="st1" cx="104.88" cy="175.44" rx="66.99" ry="13.08"/>
	</g>
	<g>
		<path class="st3" d="M135.2,120.98c2.62-0.44,4.73-2.56,5.01-5.33c0.34-3.33-2.08-6.3-5.41-6.64c-3.33-0.34-6.3,2.08-6.64,5.41
			c-0.2,1.94,0.56,3.73,1.87,4.98c-3.81,9.19-12.43,15.7-22.46,16.7v-25.7c6.87-0.83,13.01-4.81,16.65-10.61
			c2.89-0.06,5.4-2.17,5.85-5.12c0.51-3.3-1.76-6.39-5.07-6.9c-3.3-0.51-6.39,1.76-6.9,5.07c-0.26,1.72,0.24,3.37,1.23,4.64
			c-2.7,3.98-6.97,6.75-11.76,7.52V79.89c1.99-0.99,3.37-3.03,3.37-5.4c0-3.34-2.71-6.05-6.05-6.05c-3.34,0-6.05,2.71-6.05,6.05
			c0,2.37,1.38,4.41,3.37,5.4v25.12c-4.8-0.76-9.08-3.53-11.78-7.52c0.99-1.27,1.49-2.92,1.23-4.64c-0.51-3.3-3.59-5.57-6.9-5.07
			c-3.3,0.51-5.57,3.59-5.07,6.9c0.45,2.95,2.97,5.06,5.85,5.12c3.64,5.81,9.78,9.78,16.67,10.61v25.7
			c-10.03-0.99-18.66-7.51-22.48-16.71c1.31-1.25,2.06-3.04,1.87-4.98c-0.34-3.33-3.31-5.75-6.64-5.41
			c-3.33,0.34-5.75,3.31-5.41,6.64c0.28,2.77,2.4,4.89,5.01,5.33c4.52,11.43,15.23,19.5,27.64,20.52v26.12h5.37V141.5
			C119.98,140.47,130.67,132.41,135.2,120.98z"/>
	</g>
</g>
</svg>
