<?xml version="1.0" encoding="utf-8"?>
<!-- Generator: Adobe Illustrator 27.8.1, SVG Export Plug-In . SVG Version: 6.00 Build 0)  -->
<svg version="1.1" xmlns="http://www.w3.org/2000/svg" xmlns:xlink="http://www.w3.org/1999/xlink" x="0px" y="0px"
	 viewBox="0 0 209.76 209.76" style="enable-background:new 0 0 209.76 209.76;" xml:space="preserve">
<style type="text/css">
	.st0{fill:#006D68;}
	.st1{fill:#3C3C3C;}
	.st2{fill:#AAC853;}
	.st3{fill:#FFFFFF;}
	.st4{fill:none;stroke:#3C3C3C;stroke-width:3.0101;stroke-linecap:round;stroke-linejoin:round;stroke-miterlimit:10;}
</style>
<g id="Layer_1">
</g>
<g id="Layer_2">
	<g>
		<g>
			<path class="st0" d="M180.75,104.88c0-41.9-33.97-75.87-75.87-75.87c-41.9,0-75.87,33.97-75.87,75.87
				c0,41.9,33.97,75.87,75.87,75.87C146.78,180.75,180.75,146.78,180.75,104.88 M57.79,104.88c0-26.01,21.08-47.09,47.09-47.09
				s47.09,21.08,47.09,47.09c0,26.01-21.08,47.09-47.09,47.09S57.79,130.89,57.79,104.88"/>
			<path class="st1" d="M180.75,104.88h-28.78c0,0-0.04,2.27-0.12,3.38c-1.73,24.43-22.1,43.71-46.97,43.71
				c-24.97,0-45.4-19.43-46.99-44c-0.06-1.02-0.1-3.09-0.1-3.09H29.01c0,0,0.02,2.05,0.06,3.07c1.61,40.48,34.93,72.8,75.81,72.8
				c40.66,0,73.85-31.98,75.78-72.16C180.72,107.36,180.75,104.88,180.75,104.88"/>
		</g>
		<g>
			<path class="st2" d="M160.3,115.94c0-13.95-10.38-25.25-23.18-25.25c-1.23,0-2.43,0.13-3.61,0.34
				c-3.97-13.1-15.27-22.57-28.63-22.57s-24.66,9.47-28.63,22.57c-1.18-0.2-2.38-0.34-3.61-0.34c-12.8,0-23.18,11.3-23.18,25.25
				c0,9.78,5.12,18.25,12.59,22.44c0.87,0.56,2.21,1.05,3.67,1.47c3.37,0.97,6.85,1.38,10.33,1.4c11.84,0.06,45.83,0.06,57.67,0
				c3.48-0.02,6.96-0.43,10.33-1.4c1.46-0.42,2.8-0.91,3.67-1.47C155.18,134.19,160.3,125.73,160.3,115.94z"/>
		</g>
		<g>
			<g>
				<g>
					<path class="st3" d="M104.88,131.98c-13.29,0-24.09-10.81-24.09-24.09S91.6,83.8,104.88,83.8s24.09,10.81,24.09,24.09
						c0,3.32-0.66,6.54-1.97,9.56c-0.33,0.77-1.23,1.12-2,0.79c-0.77-0.33-1.12-1.23-0.79-2c1.14-2.64,1.72-5.45,1.72-8.36
						c0-11.61-9.45-21.06-21.06-21.06c-11.61,0-21.06,9.45-21.06,21.06s9.45,21.06,21.06,21.06c0.84,0,1.52,0.68,1.52,1.52
						S105.72,131.98,104.88,131.98z"/>
				</g>
				<g>
					<g>
						<polygon class="st3" points="121.24,111.93 120.67,124.02 131.43,118.47 						"/>
					</g>
				</g>
			</g>
			<line class="st4" x1="95.93" y1="116.06" x2="104.88" y2="107.89"/>
			<line class="st4" x1="104.88" y1="107.89" x2="104.88" y2="92.78"/>
		</g>
	</g>
</g>
<g id="Layer_3">
</g>
<g id="Layer_4">
</g>
</svg>
