<svg xmlns="http://www.w3.org/2000/svg" xml:space="preserve" viewBox="0 0 209.76 209.76"><style>.st3{fill:#fff}</style><g id="Layer_2"><path d="M180.75 104.88c0-41.9-33.97-75.87-75.87-75.87s-75.87 33.97-75.87 75.87 33.97 75.87 75.87 75.87 75.87-33.97 75.87-75.87m-122.96 0c0-26.01 21.08-47.09 47.09-47.09s47.09 21.08 47.09 47.09-21.08 47.09-47.09 47.09-47.09-21.08-47.09-47.09" style="fill:#006d68"/><path d="M180.75 104.88h-28.78s-.04 2.27-.12 3.38c-1.73 24.43-22.1 43.71-46.97 43.71-24.97 0-45.4-19.43-46.99-44-.06-1.02-.1-3.09-.1-3.09H29.01s.02 2.05.06 3.07c1.61 40.48 34.93 72.8 75.81 72.8 40.66 0 73.85-31.98 75.78-72.16.06-1.23.09-3.71.09-3.71" style="fill:#3c3c3c"/><path d="M160.3 115.94c0-13.95-10.38-25.25-23.18-25.25-1.23 0-2.43.13-3.61.34-3.97-13.1-15.27-22.57-28.63-22.57s-24.66 9.47-28.63 22.57c-1.18-.2-2.38-.34-3.61-.34-12.8 0-23.18 11.3-23.18 25.25 0 9.78 5.12 18.25 12.59 22.44.87.56 2.21 1.05 3.67 1.47 3.37.97 6.85 1.38 10.33 1.4 11.84.06 45.83.06 57.67 0 3.48-.02 6.96-.43 10.33-1.4 1.46-.42 2.8-.91 3.67-1.47 7.46-4.19 12.58-12.65 12.58-22.44" style="fill:#aac853"/><path d="M104.88 131.98c-13.29 0-24.09-10.81-24.09-24.09S91.6 83.8 104.88 83.8s24.09 10.81 24.09 24.09c0 3.32-.66 6.54-1.97 9.56-.33.77-1.23 1.12-2 .79a1.523 1.523 0 0 1-.79-2c1.14-2.64 1.72-5.45 1.72-8.36 0-11.61-9.45-21.06-21.06-21.06s-21.06 9.45-21.06 21.06 9.45 21.06 21.06 21.06c.84 0 1.52.68 1.52 1.52s-.67 1.52-1.51 1.52" class="st3"/><path d="m121.24 111.93-.57 12.09 10.76-5.55z" class="st3"/><path d="m95.93 116.06 8.95-8.17m0 0V92.78" style="fill:none;stroke:#3c3c3c;stroke-width:3.0101;stroke-linecap:round;stroke-linejoin:round;stroke-miterlimit:10"/></g></svg>