<svg xmlns="http://www.w3.org/2000/svg" xml:space="preserve" id="Layer_1" x="0" y="0" viewBox="0 0 209.76 209.76"><style>.st2{fill:#fff}</style><path d="M57.79 104.88c0-26.01 21.08-47.09 47.09-47.09s47.09 21.08 47.09 47.09h28.78c0-41.9-33.97-75.87-75.87-75.87s-75.87 33.97-75.87 75.87z" style="fill:#006d68"/><path d="M180.75 104.88h-28.78s-.04 2.27-.12 3.38c-1.73 24.43-22.1 43.71-46.97 43.71-24.97 0-45.4-19.43-46.99-44-.07-1.02-.1-3.09-.1-3.09H29.01s.02 2.05.06 3.07c1.61 40.48 34.94 72.8 75.81 72.8 40.66 0 73.85-31.98 75.78-72.16.06-1.23.09-3.71.09-3.71" style="fill:#3c3c3c"/><path d="M123.23 72.37h-36.7L52.31 104.3l52.57 42.82 52.58-42.82z" style="fill:#cee098"/><path d="m131.82 101.34-52.79-.23-26.72 3.19 52.57 42.82 52.58-42.82z" style="fill:#acca53"/><path d="M52.31 105.3c-.5 0-.93-.37-.99-.88a.994.994 0 0 1 .87-1.11l26.72-3.19c.04 0 .08-.01.12-.01l52.79.24c.04 0 .07 0 .11.01l25.63 2.96a1.002 1.002 0 1 1-.23 1.99l-25.58-2.95-52.67-.24-26.66 3.19c-.03-.01-.07-.01-.11-.01" class="st2"/><path d="M104.88 148.12c-.22 0-.45-.07-.63-.22l-52.57-42.81c-.22-.18-.36-.45-.37-.74s.11-.57.32-.76l34.22-31.94c.19-.17.43-.27.68-.27h36.7c.25 0 .5.1.68.27l34.22 31.94c.21.2.33.48.32.76s-.14.56-.37.74l-52.57 42.81c-.18.14-.4.22-.63.22m-51.05-43.87 51.05 41.58 51.05-41.58-33.09-30.88H86.92z" class="st2"/><path d="M104.88 147.9c-.52 0-1.03-.28-1.31-.77l-25.85-45.29c-.19-.34-.24-.74-.14-1.11l7.5-28.2a1.5 1.5 0 0 1 2.9.76l-7.35 27.62 25.55 44.77c.41.72.15 1.64-.57 2.04-.23.12-.48.18-.73.18" class="st2"/><path d="M104.88 147.9a1.503 1.503 0 0 1-1.29-2.26l26.61-44.49-8.4-27.82c-.24-.79.22-1.63 1.01-1.86s1.63.22 1.86 1.01l8.59 28.44c.12.4.07.83-.15 1.19l-26.94 45.06a1.5 1.5 0 0 1-1.29.73" class="st2"/></svg>