<?xml version="1.0" encoding="utf-8"?>
<!-- Generator: Adobe Illustrator 28.0.0, SVG Export Plug-In . SVG Version: 6.00 Build 0)  -->
<svg version="1.1" id="Layer_1" xmlns="http://www.w3.org/2000/svg" xmlns:xlink="http://www.w3.org/1999/xlink" x="0px" y="0px"
	 viewBox="0 0 209.76 209.76" style="enable-background:new 0 0 209.76 209.76;" xml:space="preserve">
<style type="text/css">
	.st0{fill:#3C3C3C;}
	.st1{fill:#006D68;}
	.st2{fill:#FFFFFF;}
	.st3{fill:#ACCA53;}
	.st4{fill:#CEE098;}
	.st5{fill:none;}
</style>
<g>
	<g>
		<g>
			<path class="st1" d="M57.79,104.88c0-26.01,21.08-47.09,47.09-47.09c26.01,0,47.09,21.08,47.09,47.09h28.78
				c0-41.9-33.97-75.87-75.87-75.87s-75.87,33.97-75.87,75.87H57.79z"/>
			<path class="st0" d="M180.75,104.88l-28.78,0c0,0-0.04,2.27-0.12,3.38c-1.73,24.43-22.1,43.71-46.97,43.71
				c-24.97,0-45.4-19.43-46.99-44c-0.07-1.02-0.1-3.09-0.1-3.09l-28.78,0c0,0,0.02,2.05,0.06,3.07c1.61,40.48,34.94,72.8,75.81,72.8
				c40.66,0,73.85-31.98,75.78-72.16C180.72,107.36,180.75,104.88,180.75,104.88z"/>
		</g>
		<g>
			<g>
				<polygon class="st4" points="123.23,72.37 86.53,72.37 52.31,104.3 104.88,147.12 157.46,104.3 				"/>
			</g>
			<g>
				<polygon class="st3" points="131.82,101.34 79.03,101.11 52.31,104.3 104.88,147.12 157.46,104.3 				"/>
			</g>
			<g>
				<path class="st2" d="M52.31,105.3c-0.5,0-0.93-0.37-0.99-0.88c-0.07-0.55,0.33-1.05,0.87-1.11l26.72-3.19
					c0.04,0,0.08-0.01,0.12-0.01l52.79,0.24c0.04,0,0.07,0,0.11,0.01l25.63,2.96c0.55,0.06,0.94,0.56,0.88,1.11
					c-0.06,0.55-0.56,0.94-1.11,0.88l-25.58-2.95l-52.67-0.24l-26.66,3.19C52.39,105.3,52.35,105.3,52.31,105.3z"/>
			</g>
			<g>
				<path class="st2" d="M104.88,148.12c-0.22,0-0.45-0.07-0.63-0.22l-52.57-42.81c-0.22-0.18-0.36-0.45-0.37-0.74
					s0.11-0.57,0.32-0.76l34.22-31.94c0.19-0.17,0.43-0.27,0.68-0.27h36.7c0.25,0,0.5,0.1,0.68,0.27l34.22,31.94
					c0.21,0.2,0.33,0.48,0.32,0.76s-0.14,0.56-0.37,0.74l-52.57,42.81C105.33,148.04,105.11,148.12,104.88,148.12z M53.83,104.25
					l51.05,41.58l51.05-41.58l-33.09-30.88H86.92L53.83,104.25z"/>
			</g>
			<g>
				<g>
					<path class="st2" d="M104.88,147.9c-0.52,0-1.03-0.28-1.31-0.77l-25.85-45.29c-0.19-0.34-0.24-0.74-0.14-1.11l7.5-28.2
						c0.21-0.8,1.03-1.28,1.83-1.07c0.8,0.21,1.28,1.03,1.07,1.83l-7.35,27.62l25.55,44.77c0.41,0.72,0.15,1.64-0.57,2.04
						C105.38,147.84,105.13,147.9,104.88,147.9z"/>
				</g>
				<g>
					<path class="st2" d="M104.88,147.9c-0.26,0-0.52-0.07-0.76-0.21c-0.71-0.42-0.95-1.34-0.53-2.05l26.61-44.49l-8.4-27.82
						c-0.24-0.79,0.22-1.63,1.01-1.86c0.79-0.23,1.63,0.22,1.86,1.01l8.59,28.44c0.12,0.4,0.07,0.83-0.15,1.19l-26.94,45.06
						C105.89,147.64,105.39,147.9,104.88,147.9z"/>
				</g>
			</g>
		</g>
	</g>
</g>
</svg>
