<?xml version="1.0" encoding="UTF-8"?>
<svg id="Layer_1" xmlns="http://www.w3.org/2000/svg" version="1.1" viewBox="0 0 209.8 209.8">
  <!-- Generator: Adobe Illustrator 29.2.1, SVG Export Plug-In . SVG Version: 2.1.0 Build 116)  -->
  <defs>
    <style>
      .st0 {
        fill: #006d68;
      }

      .st1 {
        fill: #fff;
      }

      .st2 {
        fill: #aecc53;
      }

      .st3 {
        fill: #003834;
      }
    </style>
  </defs>
  <rect class="st0" x="-.1" width="209.8" height="209.8"/>
  <g>
    <g>
      <path class="st3" d="M151.4,104.9h28.5c0-41.4-33.6-75-75-75S29.9,63.5,29.9,104.9h28.5s0,.7,0,0c0-25.7,20.8-46.5,46.5-46.5s46.5,20.8,46.5,46.5"/>
      <path class="st2" d="M151.4,104.9h0v.5h0v1.2h0v.9h0v1.5h0c-2.1,23.8-22,42.4-46.4,42.4s-44.9-19.2-46.5-43.5v-.5h0v-2.5h-28.5v3c1.6,40,34.5,72,74.9,72s73-31.6,74.9-71.3v-3.7h-28.5.1Z"/>
    </g>
    <g>
      <rect class="st2" x="98.3" y="98.3" width="13.2" height="13.2"/>
      <rect class="st0" x="45.3" y="98.3" width="13.2" height="13.2"/>
      <rect class="st0" x="151.3" y="98.3" width="13.2" height="13.2"/>
      <rect class="st0" x="98.2" y="151.1" width="13.2" height="13.2"/>
      <rect class="st0" x="98.3" y="45.4" width="13.2" height="13.2"/>
      <g>
        <polygon class="st1" points="71.8 85 71.8 98.3 58.5 98.3 58.5 111.5 71.8 111.5 71.8 117.1 71.8 124.8 85 124.8 85 117.1 85 111.5 85 98.3 85 85 71.8 85"/>
        <polygon class="st1" points="138 98.3 138 94.4 138 85 124.8 85 124.8 94.4 124.8 98.3 124.8 111.5 124.8 124.8 138 124.8 138 111.5 151.3 111.5 151.3 98.3 138 98.3"/>
        <polygon class="st1" points="111.5 71.8 111.5 71.8 111.5 58.5 98.3 58.5 98.3 71.8 85 71.8 85 85 98.3 85 111.5 85 124.8 85 124.8 71.8 111.5 71.8"/>
      </g>
      <polygon class="st1" points="118.1 124.8 111.5 124.8 98.3 124.8 94.8 124.8 85 124.8 85 138 94.8 138 98.3 138 98.3 151.3 111.5 151.3 111.5 138 111.5 138 118.1 138 124.8 138 124.8 124.8 118.1 124.8"/>
    </g>
  </g>
</svg>