<svg xmlns="http://www.w3.org/2000/svg" id="Layer_1" viewBox="0 0 209.8 209.8"><defs><style>.st0{fill:#006d68}.st2{fill:#aecc53}</style></defs><path d="M-.1 0h209.8v209.8H-.1z" class="st0"/><path d="M151.4 104.9h28.5c0-41.4-33.6-75-75-75s-75 33.6-75 75h28.5s0 .7 0 0c0-25.7 20.8-46.5 46.5-46.5s46.5 20.8 46.5 46.5" style="fill:#003834"/><path d="M151.4 104.9v4.1c-2.1 23.8-22 42.4-46.4 42.4s-44.9-19.2-46.5-43.5v-3H30v3c1.6 40 34.5 72 74.9 72s73-31.6 74.9-71.3v-3.7h-28.5z" class="st2"/><path d="M98.3 98.3h13.2v13.2H98.3z" class="st2"/><path d="M45.3 98.3h13.2v13.2H45.3zm106 0h13.2v13.2h-13.2zm-53.1 52.8h13.2v13.2H98.2zm.1-105.7h13.2v13.2H98.3z" class="st0"/><path d="M71.8 85v13.3H58.5v13.2h13.3v13.3H85V85zM138 98.3V85h-13.2v39.8H138v-13.3h13.3V98.3zm-26.5-26.5V58.5H98.3v13.3H85V85h39.8V71.8zm6.6 53H85V138h13.3v13.3h13.2V138h13.3v-13.2z" style="fill:#fff"/></svg>