<?xml version="1.0" encoding="utf-8"?>
<!-- Generator: Adobe Illustrator 27.8.1, SVG Export Plug-In . SVG Version: 6.00 Build 0)  -->
<svg version="1.1" id="Layer_1" xmlns="http://www.w3.org/2000/svg" xmlns:xlink="http://www.w3.org/1999/xlink" x="0px" y="0px"
	 viewBox="0 0 209.76 209.76" style="enable-background:new 0 0 209.76 209.76;" xml:space="preserve">
<style type="text/css">
	.st0{fill:#3C3C3C;}
	.st1{fill:#FFFFFF;}
	.st2{fill:#006D68;}
	.st3{fill:#ACCA53;}
	.st4{fill:none;stroke:#FFFFFF;stroke-width:3.5688;stroke-linecap:round;stroke-linejoin:round;stroke-miterlimit:10;}
</style>
<g>
	<g>
		<path class="st2" d="M180.75,104.88c0-41.9-33.97-75.87-75.87-75.87s-75.87,33.97-75.87,75.87s33.97,75.87,75.87,75.87
			S180.75,146.78,180.75,104.88z M57.79,104.88c0-26.01,21.08-47.09,47.09-47.09c26.01,0,47.09,21.08,47.09,47.09
			c0,26.01-21.08,47.09-47.09,47.09C78.87,151.97,57.79,130.89,57.79,104.88z"/>
		<path class="st0" d="M180.75,104.88l-28.78,0c0,0-0.04,2.27-0.12,3.38c-1.73,24.43-22.1,43.71-46.97,43.71
			c-24.97,0-45.4-19.43-46.99-44c-0.07-1.02-0.1-3.09-0.1-3.09l-28.78,0c0,0,0.02,2.05,0.06,3.07c1.61,40.48,34.94,72.8,75.81,72.8
			c40.66,0,73.85-31.98,75.78-72.16C180.72,107.36,180.75,104.88,180.75,104.88z"/>
	</g>
	<g>
		<g>
			<ellipse class="st3" cx="104.88" cy="145.97" rx="34.62" ry="10.01"/>
			<rect x="70.26" y="122.93" class="st3" width="69.25" height="23.04"/>
			<ellipse class="st1" cx="104.88" cy="122.93" rx="34.62" ry="10.01"/>
		</g>
		<g>
			<ellipse class="st3" cx="104.88" cy="116.45" rx="34.62" ry="10.01"/>
			<rect x="70.26" y="93.4" class="st3" width="69.25" height="23.04"/>
			<ellipse class="st1" cx="104.88" cy="93.4" rx="34.62" ry="10.01"/>
		</g>
		<ellipse class="st3" cx="104.88" cy="86.92" rx="34.62" ry="10.01"/>
		<rect x="70.26" y="63.88" class="st3" width="69.25" height="23.04"/>
		<ellipse class="st1" cx="104.88" cy="63.88" rx="34.62" ry="10.01"/>
		<path class="st4" d="M94.45,85.58c-7.31-0.67-13.57-2.02-17.89-3.79"/>
		<path class="st4" d="M94.45,114.81c-7.31-0.67-13.57-2.02-17.89-3.79"/>
		<path class="st4" d="M94.45,144.71c-7.31-0.67-13.57-2.02-17.89-3.79"/>
	</g>
</g>
</svg>
