<svg xmlns="http://www.w3.org/2000/svg" xml:space="preserve" id="Layer_1" x="0" y="0" viewBox="0 0 209.76 209.76"><style>.st1{fill:#fff}.st3{fill:#acca53}</style><path d="M180.75 104.88c0-41.9-33.97-75.87-75.87-75.87s-75.87 33.97-75.87 75.87 33.97 75.87 75.87 75.87 75.87-33.97 75.87-75.87m-122.96 0c0-26.01 21.08-47.09 47.09-47.09s47.09 21.08 47.09 47.09-21.08 47.09-47.09 47.09-47.09-21.08-47.09-47.09" style="fill:#006d68"/><path d="M180.75 104.88h-28.78s-.04 2.27-.12 3.38c-1.73 24.43-22.1 43.71-46.97 43.71-24.97 0-45.4-19.43-46.99-44-.07-1.02-.1-3.09-.1-3.09H29.01s.02 2.05.06 3.07c1.61 40.48 34.94 72.8 75.81 72.8 40.66 0 73.85-31.98 75.78-72.16.06-1.23.09-3.71.09-3.71" style="fill:#3c3c3c"/><ellipse cx="104.88" cy="145.97" class="st3" rx="34.62" ry="10.01"/><path d="M70.26 122.93h69.25v23.04H70.26z" class="st3"/><ellipse cx="104.88" cy="122.93" class="st1" rx="34.62" ry="10.01"/><ellipse cx="104.88" cy="116.45" class="st3" rx="34.62" ry="10.01"/><path d="M70.26 93.4h69.25v23.04H70.26z" class="st3"/><ellipse cx="104.88" cy="93.4" class="st1" rx="34.62" ry="10.01"/><ellipse cx="104.88" cy="86.92" class="st3" rx="34.62" ry="10.01"/><path d="M70.26 63.88h69.25v23.04H70.26z" class="st3"/><ellipse cx="104.88" cy="63.88" class="st1" rx="34.62" ry="10.01"/><path d="M94.45 85.58c-7.31-.67-13.57-2.02-17.89-3.79m17.89 33.02c-7.31-.67-13.57-2.02-17.89-3.79m17.89 33.69c-7.31-.67-13.57-2.02-17.89-3.79" style="fill:none;stroke:#fff;stroke-width:3.5688;stroke-linecap:round;stroke-linejoin:round;stroke-miterlimit:10"/></svg>