<?xml version="1.0" encoding="utf-8"?>
<!-- Generator: Adobe Illustrator 27.8.1, SVG Export Plug-In . SVG Version: 6.00 Build 0)  -->
<svg version="1.1" id="Layer_1" xmlns="http://www.w3.org/2000/svg" xmlns:xlink="http://www.w3.org/1999/xlink" x="0px" y="0px"
	 viewBox="0 0 209.76 209.76" style="enable-background:new 0 0 209.76 209.76;" xml:space="preserve">
<style type="text/css">
	.st0{fill:#3C3C3C;}
	.st1{fill:#FFFFFF;}
	.st2{fill:#006D68;}
	.st3{fill:#ACCA53;}
	.st4{fill:#3C3C3B;}
</style>
<g>
	<g>
		<path class="st0" d="M180.75,104.88l-28.78,0c0,0-0.04,2.27-0.12,3.38c-1.73,24.43-22.1,43.71-46.97,43.71
			c-24.97,0-45.4-19.43-46.99-44c-0.07-1.02-0.1-3.09-0.1-3.09l-28.78,0c0,0,0.02,2.05,0.06,3.07c1.61,40.48,34.94,72.8,75.81,72.8
			c40.66,0,73.85-31.98,75.78-72.16C180.72,107.36,180.75,104.88,180.75,104.88z"/>
		<g>
			<path class="st2" d="M29.01,104.88h28.78c0,0,0,0.69,0,0c0-26.01,21.08-47.09,47.09-47.09c26.01,0,47.09,21.08,47.09,47.09
				c0,0.59,0,0,0,0h28.78l0,0c0-41.9-33.97-75.87-75.87-75.87C62.98,29.01,29.01,62.98,29.01,104.88
				C29.01,104.88,29.01,104.88,29.01,104.88L29.01,104.88z"/>
		</g>
	</g>
	<g>
		<g>
			<circle class="st3" cx="104.88" cy="104.88" r="35.69"/>
			<g>
				<g>
					<g>
						<polygon class="st1" points="108.52,104.88 104.88,140.57 101.24,104.88 108.52,104.88 						"/>
						<polygon class="st0" points="101.24,104.88 104.88,69.19 108.52,104.88 101.24,104.88 						"/>
					</g>
				</g>
			</g>
		</g>
	</g>
</g>
</svg>
