<svg xmlns="http://www.w3.org/2000/svg" xml:space="preserve" id="Layer_1" x="0" y="0" viewBox="0 0 209.76 209.76"><style>.st0{fill:#3c3c3c}</style><path d="M180.75 104.88h-28.78s-.04 2.27-.12 3.38c-1.73 24.43-22.1 43.71-46.97 43.71-24.97 0-45.4-19.43-46.99-44-.07-1.02-.1-3.09-.1-3.09H29.01s.02 2.05.06 3.07c1.61 40.48 34.94 72.8 75.81 72.8 40.66 0 73.85-31.98 75.78-72.16.06-1.23.09-3.71.09-3.71" class="st0"/><path d="M29.01 104.88h28.78s0 .69 0 0c0-26.01 21.08-47.09 47.09-47.09s47.09 21.08 47.09 47.09c0 .59 0 0 0 0h28.78c0-41.9-33.97-75.87-75.87-75.87s-75.87 33.97-75.87 75.87" style="fill:#006d68"/><circle cx="104.88" cy="104.88" r="35.69" style="fill:#acca53"/><path d="m108.52 104.88-3.64 35.69-3.64-35.69z" style="fill:#fff"/><path d="m101.24 104.88 3.64-35.69 3.64 35.69z" class="st0"/></svg>