<?xml version="1.0" encoding="utf-8"?>
<!-- Generator: Adobe Illustrator 27.7.0, SVG Export Plug-In . SVG Version: 6.00 Build 0)  -->
<svg version="1.1" id="Layer_1" xmlns="http://www.w3.org/2000/svg" xmlns:xlink="http://www.w3.org/1999/xlink" x="0px" y="0px"
	 viewBox="0 0 222.64 248.51" style="enable-background:new 0 0 222.64 248.51;" xml:space="preserve">
<style type="text/css">
	.st0{fill:#3C3C3C;}
	.st1{fill:#CEE098;}
	.st2{fill:#006D68;}
	.st3{fill:#AAC853;}
</style>
<g>
	<g>
		<polygon class="st1" points="68.52,220.17 54.49,197.78 28.35,201.63 86.95,74.59 135.68,74.59 		"/>
	</g>
	<g>
		<path class="st2" d="M36.61,103.06c0,41.26,33.45,74.71,74.71,74.71s74.71-33.45,74.71-74.71s-33.45-74.71-74.71-74.71
			S36.61,61.8,36.61,103.06z M157.69,103.06c0,25.61-20.76,46.37-46.37,46.37c-25.61,0-46.37-20.76-46.37-46.37
			c0-25.61,20.76-46.37,46.37-46.37C136.93,56.69,157.69,77.45,157.69,103.06z"/>
	</g>
	<g>
		<path class="st0" d="M36.61,103.06h28.34c0,0,0.04-2.23,0.12-3.33c1.71-24.05,21.76-43.04,46.25-43.04
			c24.59,0,44.71,19.14,46.27,43.33c0.07,1.01,0.1,3.04,0.1,3.04h28.34c0,0-0.02-2.02-0.06-3.02c-1.59-39.86-34.4-71.69-74.65-71.69
			c-40.04,0-72.72,31.49-74.63,71.06C36.64,100.62,36.61,103.06,36.61,103.06z"/>
	</g>
	<g>
		<polygon class="st3" points="194.29,201.63 168.15,197.78 154.11,220.17 86.95,74.59 135.68,74.59 		"/>
	</g>
</g>
</svg>
