<?xml version="1.0" encoding="utf-8"?>
<!-- Generator: Adobe Illustrator 28.2.0, SVG Export Plug-In . SVG Version: 6.00 Build 0)  -->
<svg version="1.1" id="Layer_1" xmlns="http://www.w3.org/2000/svg" xmlns:xlink="http://www.w3.org/1999/xlink" x="0px" y="0px"
	 viewBox="0 0 209.8 209.8" style="enable-background:new 0 0 209.8 209.8;" xml:space="preserve">
<style type="text/css">
	.st0{fill:#3C3C3C;}
	.st1{fill:#006D68;}
	.st2{fill:#CEE098;}
	.st3{fill:#849E2A;}
	.st4{fill:#FFFFFF;}
	.st5{fill:#ACCA53;}
	.st6{fill:#849E2A;stroke:#FFFFFF;stroke-width:2;stroke-linecap:round;stroke-linejoin:round;stroke-miterlimit:10;}
	.st7{fill:#ACCA53;stroke:#FFFFFF;stroke-width:2;stroke-linecap:round;stroke-linejoin:round;stroke-miterlimit:10;}
	.st8{fill:none;stroke:#FFFFFF;stroke-width:2;stroke-linecap:round;stroke-linejoin:round;stroke-miterlimit:10;}
	.st9{fill:none;stroke:#3C3C3C;stroke-width:2;stroke-linecap:round;stroke-linejoin:round;stroke-miterlimit:10;}
	.st10{fill:none;stroke:#849E2A;stroke-width:2;stroke-linecap:round;stroke-linejoin:round;stroke-miterlimit:10;}
</style>
<g>
	<g>
		<path class="st1" d="M57.8,104.9c0-26,21.1-47.1,47.1-47.1c26,0,47.1,21.1,47.1,47.1h28.8c0-41.9-34-75.9-75.9-75.9
			S29,63,29,104.9H57.8z"/>
		<path class="st0" d="M180.8,104.9l-28.8,0c0,0,0,2.3-0.1,3.4c-1.7,24.4-22.1,43.7-47,43.7c-25,0-45.4-19.4-47-44
			c-0.1-1-0.1-3.1-0.1-3.1l-28.8,0c0,0,0,2.1,0.1,3.1c1.6,40.5,34.9,72.8,75.8,72.8c40.7,0,73.8-32,75.8-72.2
			C180.7,107.4,180.8,104.9,180.8,104.9z"/>
	</g>
	<g>
		<polygon class="st2" points="105.1,140.8 105.1,96.6 67.5,72.6 67.7,116.9 		"/>
		<polygon class="st6" points="105.1,140.8 105.1,96.6 142.4,72.6 142.4,116.9 		"/>
		<polygon class="st7" points="142.4,72.6 105.1,96.6 67.7,72.6 105.1,48.7 		"/>
		<line class="st8" x1="86.2" y1="84.6" x2="123.6" y2="60.7"/>
		<line class="st9" x1="105.1" y1="119" x2="141.8" y2="95.5"/>
		<line class="st8" x1="86.3" y1="61" x2="124.3" y2="84.3"/>
		<polygon class="st8" points="142.4,72.6 105.1,96.6 67.7,72.6 105.1,48.7 		"/>
		<line class="st9" x1="125" y1="84" x2="125" y2="127.9"/>
		<polygon class="st8" points="105.1,140.8 105.1,96.6 142.4,72.6 142.4,116.9 		"/>
		<line class="st10" x1="86.2" y1="84.6" x2="86.2" y2="127.9"/>
		<line class="st10" x1="68.2" y1="95.2" x2="105.1" y2="118.7"/>
		<polygon class="st8" points="105.1,140.8 105.1,96.6 67.5,72.6 67.7,116.9 		"/>
	</g>
</g>
</svg>
