<svg xmlns="http://www.w3.org/2000/svg" xml:space="preserve" id="Layer_1" x="0" y="0" viewBox="0 0 209.8 209.8"><style>.st8,.st9{fill:none;stroke:#fff;stroke-width:2;stroke-linecap:round;stroke-linejoin:round;stroke-miterlimit:10}.st9{stroke:#3c3c3c}</style><path d="M57.8 104.9c0-26 21.1-47.1 47.1-47.1S152 78.9 152 104.9h28.8c0-41.9-34-75.9-75.9-75.9S29 63 29 104.9z" style="fill:#006d68"/><path d="M180.8 104.9H152s0 2.3-.1 3.4c-1.7 24.4-22.1 43.7-47 43.7-25 0-45.4-19.4-47-44-.1-1-.1-3.1-.1-3.1H29s0 2.1.1 3.1c1.6 40.5 34.9 72.8 75.8 72.8 40.7 0 73.8-32 75.8-72.2 0-1.2.1-3.7.1-3.7" style="fill:#3c3c3c"/><path d="M105.1 140.8V96.6l-37.6-24 .2 44.3z" style="fill:#cee098"/><path d="M105.1 140.8V96.6l37.3-24v44.3z" style="fill:#849e2a;stroke:#fff;stroke-width:2;stroke-linecap:round;stroke-linejoin:round;stroke-miterlimit:10"/><path d="m142.4 72.6-37.3 24-37.4-24 37.4-23.9z" style="fill:#acca53;stroke:#fff;stroke-width:2;stroke-linecap:round;stroke-linejoin:round;stroke-miterlimit:10"/><path d="m86.2 84.6 37.4-23.9" class="st8"/><path d="m105.1 119 36.7-23.5" class="st9"/><path d="m86.3 61 38 23.3m18.1-11.7-37.3 24-37.4-24 37.4-23.9z" class="st8"/><path d="M125 84v43.9" class="st9"/><path d="M105.1 140.8V96.6l37.3-24v44.3z" class="st8"/><path d="M86.2 84.6v43.3m-18-32.7 36.9 23.5" style="fill:none;stroke-width:2;stroke-linecap:round;stroke-linejoin:round;stroke-miterlimit:10;stroke:#849e2a"/><path d="M105.1 140.8V96.6l-37.6-24 .2 44.3z" class="st8"/></svg>