<?xml version="1.0" encoding="UTF-8"?>
<svg id="Layer_1" xmlns="http://www.w3.org/2000/svg" xmlns:xlink="http://www.w3.org/1999/xlink" version="1.1" viewBox="0 0 50 50">
  <!-- Generator: Adobe Illustrator 30.5.1, SVG Export Plug-In . SVG Version: 2.1.4 Build 3)  -->
  <defs>
    <style>
      .st0 {
        fill: url(#linear-gradient1);
      }

      .st1 {
        fill: url(#linear-gradient);
      }
    </style>
    <linearGradient id="linear-gradient" x1="20.2" y1="50" x2="20.2" y2="0" gradientUnits="userSpaceOnUse">
      <stop offset="0" stop-color="#006d68"/>
      <stop offset="1" stop-color="#003834"/>
    </linearGradient>
    <linearGradient id="linear-gradient1" x1="25" y1="27.3" x2="25" y2="4.3" gradientUnits="userSpaceOnUse">
      <stop offset="0" stop-color="#cee098"/>
      <stop offset="0" stop-color="#bdd696"/>
      <stop offset=".4" stop-color="#82b58f"/>
      <stop offset=".7" stop-color="#579e8a"/>
      <stop offset=".9" stop-color="#3c8f87"/>
      <stop offset="1" stop-color="#338a86"/>
    </linearGradient>
  </defs>
  <path class="st1" d="M20.2,50c-4.9,0-7.8-3.9-7.8-8.8v-.6c0-1.7,1.3-3,3-3s3,1.3,3,3v.6c0,1.5.3,2.8,1.8,2.8s1.8-1.3,1.8-2.8V3c0-1.7,1.3-3,3-3s3,1.3,3,3v38.2c0,4.9-2.9,8.8-7.8,8.8Z"/>
  <path class="st0" d="M25,4.6C11.2,4.6,0,14.9,0,27.6h50c0-12.7-11.2-23-25-23Z"/>
</svg>