<?xml version="1.0" encoding="UTF-8"?>
<svg id="Layer_1" xmlns="http://www.w3.org/2000/svg" xmlns:xlink="http://www.w3.org/1999/xlink" version="1.1" viewBox="0 0 50 50">
  <!-- Generator: Adobe Illustrator 30.5.1, SVG Export Plug-In . SVG Version: 2.1.4 Build 3)  -->
  <defs>
    <style>
      .st0 {
        fill: url(#linear-gradient1);
      }

      .st1 {
        fill: none;
        stroke: #006d68;
        stroke-linecap: round;
        stroke-linejoin: round;
        stroke-width: 4px;
      }

      .st2 {
        fill: url(#linear-gradient);
      }
    </style>
    <linearGradient id="linear-gradient" x1="25" y1="28.5" x2="25" y2="0" gradientUnits="userSpaceOnUse">
      <stop offset="0" stop-color="#006d68"/>
      <stop offset="1" stop-color="#003834"/>
    </linearGradient>
    <linearGradient id="linear-gradient1" x1="25" y1="35.7" x2="25" y2="7.2" gradientUnits="userSpaceOnUse">
      <stop offset="0" stop-color="#338a86"/>
      <stop offset=".1" stop-color="#3c8f87"/>
      <stop offset=".3" stop-color="#579e8a"/>
      <stop offset=".6" stop-color="#82b58f"/>
      <stop offset=".9" stop-color="#bdd696"/>
      <stop offset="1" stop-color="#cee098"/>
    </linearGradient>
  </defs>
  <g>
    <line class="st1" x1="15.2" y1="32" x2="15.2" y2="44"/>
    <line class="st1" x1="34.8" y1="32" x2="34.8" y2="44"/>
  </g>
  <line class="st1" x1="25" y1="32" x2="25" y2="48"/>
  <g>
    <path class="st2" d="M11,7c1.3,0,2.6.2,3.8.7C16,3.3,20.1,0,25,0c4.9,0,9,3.3,10.3,7.7,1.2-.4,2.4-.7,3.8-.7,5.9,0,10.7,4.8,10.7,10.7,0,5.9-4.8,10.7-10.7,10.7-2.7,0-11.4,0-14,0-2.7,0-11.4,0-14,0-5.9,0-10.7-4.8-10.7-10.7,0-5.9,4.8-10.7,10.7-10.7Z"/>
    <path class="st0" d="M11,14.2c1.3,0,2.6.2,3.8.7,1.3-4.5,5.4-7.7,10.3-7.7,4.9,0,9,3.3,10.3,7.7,1.2-.4,2.4-.7,3.8-.7,5.9,0,10.7,4.8,10.7,10.7,0,5.9-4.8,10.7-10.7,10.7-2.7,0-11.4,0-14,0-2.7,0-11.4,0-14,0-5.9,0-10.7-4.8-10.7-10.7,0-5.9,4.8-10.7,10.7-10.7Z"/>
  </g>
</svg>