<?xml version="1.0" encoding="UTF-8"?>
<svg id="Layer_1" xmlns="http://www.w3.org/2000/svg" xmlns:xlink="http://www.w3.org/1999/xlink" version="1.1" viewBox="0 0 50 50">
  <!-- Generator: Adobe Illustrator 30.5.1, SVG Export Plug-In . SVG Version: 2.1.4 Build 3)  -->
  <defs>
    <style>
      .st0 {
        fill: url(#linear-gradient1);
      }

      .st1 {
        fill: url(#linear-gradient);
      }

      .st2 {
        fill: #fff;
      }
    </style>
    <linearGradient id="linear-gradient" x1="-366.7" y1="44.3" x2="-366.7" y2="-3.7" gradientTransform="translate(298.7 269.9) rotate(45)" gradientUnits="userSpaceOnUse">
      <stop offset="0" stop-color="#338a86"/>
      <stop offset=".2" stop-color="#529b89"/>
      <stop offset=".6" stop-color="#94c091"/>
      <stop offset=".9" stop-color="#bed796"/>
      <stop offset="1" stop-color="#cee098"/>
    </linearGradient>
    <linearGradient id="linear-gradient1" x1="13.5" y1="25" x2="36.5" y2="25" gradientUnits="userSpaceOnUse">
      <stop offset="0" stop-color="#003834"/>
      <stop offset="1" stop-color="#006d68"/>
    </linearGradient>
  </defs>
  <path class="st1" d="M39,44.9l6-6-5.3-5.3c.8-1.4,1.5-2.9,1.9-4.5h7.5v-8.4h-7.5c-.4-1.6-1-3.1-1.9-4.5l5.3-5.3-6-6-5.3,5.3c-1.4-.8-2.9-1.5-4.5-1.9V1h-8.4s0,7.5,0,7.5c-1.6.4-3.1,1-4.5,1.9l-5.3-5.3-6,6,5.3,5.3c-.8,1.4-1.5,2.9-1.9,4.5H1v8.4s7.5,0,7.5,0c.4,1.6,1,3.1,1.9,4.5l-5.3,5.3,6,6,5.3-5.3c1.4.8,2.9,1.5,4.5,1.9v7.5h8.4v-7.5c1.6-.4,3.1-1,4.5-1.9l5.3,5.3Z"/>
  <g>
    <circle class="st2" cx="25" cy="25" r="11.5"/>
    <path class="st0" d="M25,19.5c1.5,0,2.9.6,3.9,1.6,2.1,2.1,2.1,5.6,0,7.8-1,1-2.4,1.6-3.9,1.6s-2.9-.6-3.9-1.6c-2.1-2.1-2.1-5.6,0-7.8,1-1,2.4-1.6,3.9-1.6M25,13.5c-2.9,0-5.9,1.1-8.1,3.4-4.5,4.5-4.5,11.8,0,16.3,2.2,2.2,5.2,3.4,8.1,3.4s5.9-1.1,8.1-3.4c4.5-4.5,4.5-11.8,0-16.3-2.2-2.2-5.2-3.4-8.1-3.4h0Z"/>
  </g>
</svg>