<?xml version="1.0" encoding="UTF-8"?>
<svg id="Layer_1" xmlns="http://www.w3.org/2000/svg" xmlns:xlink="http://www.w3.org/1999/xlink" version="1.1" viewBox="0 0 50 50">
  <!-- Generator: Adobe Illustrator 30.5.1, SVG Export Plug-In . SVG Version: 2.1.4 Build 3)  -->
  <defs>
    <style>
      .st0 {
        fill: url(#linear-gradient);
      }

      .st1 {
        fill: #fff;
      }
    </style>
    <linearGradient id="linear-gradient" x1="5300.1" y1="11132.7" x2="5300.1" y2="11082.7" gradientTransform="translate(5325.0884 11122.013) rotate(-180)" gradientUnits="userSpaceOnUse">
      <stop offset="0" stop-color="#6fafac"/>
      <stop offset=".3" stop-color="#479793"/>
      <stop offset=".8" stop-color="#137874"/>
      <stop offset="1" stop-color="#006d68"/>
    </linearGradient>
  </defs>
  <path class="st0" d="M50,25c0,13.8-11.2,25-25,25C11.2,50,0,38.8,0,25,0,11.2,11.2,0,25,0c13.8,0,25,11.2,25,25Z"/>
  <g>
    <path class="st1" d="M13.5,32.6v-7.9c0,0,0-.2,0-.3l-.8-1.4.8-1.4c0,0,0-.2,0-.3v-7.9c0-.6.5-1,1-1h4.2v-1h-4.2c-1.1,0-2,.9-2,2v7.8l-.9,1.5c0,.2,0,.4,0,.5l.9,1.5v7.8c0,1.1.9,2,2,2h4.2v-1h-4.2c-.6,0-1-.5-1-1Z"/>
    <path class="st1" d="M37.5,21.2v-7.8c0-1.1-.9-2-2-2h-4.2v1h4.2c.6,0,1,.5,1,1v7.9c0,0,0,.2,0,.3l.8,1.4-.8,1.4c0,0,0,.2,0,.3v7.9c0,.6-.5,1-1,1h-4.2v1h4.2c1.1,0,2-.9,2-2v-7.8l.9-1.5c0-.2,0-.4,0-.5l-.9-1.5Z"/>
    <path class="st1" d="M32.6,26.9c.7-.1,1.2-.6,1.3-1.3,0-.8-.5-1.6-1.4-1.7-.8,0-1.6.5-1.7,1.4,0,.5.1.9.5,1.2-1,2.3-3.1,3.9-5.6,4.2v-6.4c1.7-.2,3.3-1.2,4.2-2.7.7,0,1.4-.5,1.5-1.3.1-.8-.4-1.6-1.3-1.7s-1.6.4-1.7,1.3c0,.4,0,.8.3,1.2-.7,1-1.7,1.7-2.9,1.9v-6.3c.5-.2.8-.8.8-1.3,0-.8-.7-1.5-1.5-1.5s-1.5.7-1.5,1.5.3,1.1.8,1.3v6.3c-1.2-.2-2.3-.9-2.9-1.9.2-.3.4-.7.3-1.2-.1-.8-.9-1.4-1.7-1.3s-1.4.9-1.3,1.7c.1.7.7,1.3,1.5,1.3.9,1.5,2.4,2.4,4.2,2.7v6.4c-2.5-.2-4.7-1.9-5.6-4.2.3-.3.5-.8.5-1.2,0-.8-.8-1.4-1.7-1.4s-1.4.8-1.4,1.7c0,.7.6,1.2,1.3,1.3,1.1,2.9,3.8,4.9,6.9,5.1v6.5h1.3v-6.5c3.1-.3,5.8-2.3,6.9-5.1Z"/>
  </g>
</svg>