<?xml version="1.0" encoding="UTF-8"?>
<svg id="Layer_1" xmlns="http://www.w3.org/2000/svg" xmlns:xlink="http://www.w3.org/1999/xlink" version="1.1" viewBox="0 0 50 50">
  <!-- Generator: Adobe Illustrator 30.5.1, SVG Export Plug-In . SVG Version: 2.1.4 Build 3)  -->
  <defs>
    <style>
      .st0 {
        fill: url(#linear-gradient1);
      }

      .st1 {
        fill: url(#linear-gradient);
      }

      .st2 {
        fill: none;
        stroke: #fff;
        stroke-linecap: round;
        stroke-linejoin: round;
        stroke-width: 2.4px;
      }
    </style>
    <linearGradient id="linear-gradient" x1="25" y1="33.6" x2="25" y2="5.2" gradientUnits="userSpaceOnUse">
      <stop offset="0" stop-color="#006d68"/>
      <stop offset="1" stop-color="#003834"/>
    </linearGradient>
    <linearGradient id="linear-gradient1" x1="25" y1="44.8" x2="25" y2="16.4" gradientUnits="userSpaceOnUse">
      <stop offset="0" stop-color="#338a86"/>
      <stop offset=".1" stop-color="#3c8f87"/>
      <stop offset=".3" stop-color="#579e8a"/>
      <stop offset=".6" stop-color="#82b58f"/>
      <stop offset=".9" stop-color="#bdd696"/>
      <stop offset="1" stop-color="#cee098"/>
    </linearGradient>
  </defs>
  <path class="st1" d="M11,12.2c1.3,0,2.6.2,3.8.7,1.3-4.5,5.4-7.7,10.3-7.7,4.9,0,9,3.3,10.3,7.7,1.2-.4,2.4-.7,3.8-.7,5.9,0,10.7,4.8,10.7,10.7,0,5.9-4.8,10.7-10.7,10.7-2.7,0-11.4,0-14,0-2.7,0-11.4,0-14,0-5.9,0-10.7-4.8-10.7-10.7,0-5.9,4.8-10.7,10.7-10.7Z"/>
  <g>
    <path class="st0" d="M11,23.4c1.3,0,2.6.2,3.8.7,1.3-4.5,5.4-7.7,10.3-7.7,4.9,0,9,3.3,10.3,7.7,1.2-.4,2.4-.7,3.8-.7,5.9,0,10.7,4.8,10.7,10.7,0,5.9-4.8,10.7-10.7,10.7-2.7,0-11.4,0-14,0-2.7,0-11.4,0-14,0-5.9,0-10.7-4.8-10.7-10.7,0-5.9,4.8-10.7,10.7-10.7Z"/>
    <path class="st2" d="M32.5,31.9c0,4.1-3.3,7.5-7.5,7.5s-7.5-3.3-7.5-7.5,3.3-7.5,7.5-7.5"/>
  </g>
</svg>