<?xml version="1.0" encoding="UTF-8"?>
<svg id="Layer_1" xmlns="http://www.w3.org/2000/svg" xmlns:xlink="http://www.w3.org/1999/xlink" version="1.1" viewBox="0 0 50 50">
  <!-- Generator: Adobe Illustrator 30.5.1, SVG Export Plug-In . SVG Version: 2.1.4 Build 3)  -->
  <defs>
    <style>
      .st0 {
        fill: #cee098;
      }

      .st1 {
        fill: url(#linear-gradient1);
      }

      .st2 {
        fill: url(#linear-gradient);
      }
    </style>
    <linearGradient id="linear-gradient" x1="5426" y1="4832.2" x2="5426" y2="4813.5" gradientTransform="translate(5439.7743 4835.1436) rotate(-180)" gradientUnits="userSpaceOnUse">
      <stop offset="0" stop-color="#6fafac"/>
      <stop offset=".3" stop-color="#479793"/>
      <stop offset=".8" stop-color="#137874"/>
      <stop offset="1" stop-color="#006d68"/>
    </linearGradient>
    <linearGradient id="linear-gradient1" x1="36.2" y1="55.1" x2="36.2" y2="29.2" gradientTransform="matrix(1,0,0,1,0,0)" xlink:href="#linear-gradient"/>
  </defs>
  <path class="st0" d="M27.6,37.9c0-7.6-6.2-13.8-13.8-13.8h0c-5.2,0-9.7,2.8-12,7.1-1.1,2-1.8,4.3-1.8,6.7l.2,9.2c.9,1.6,6.7,2.9,13.6,2.9s12.7-1.2,13.6-2.9l.2-9.2Z"/>
  <circle class="st2" cx="13.8" cy="12.3" r="9.3"/>
  <path class="st1" d="M50,37.9c0-7.6-6.2-13.8-13.8-13.8h0c-5.2,0-9.7,2.8-12,7.1-1.1,2-1.8,4.3-1.8,6.7l.2,9.2c.9,1.6,6.7,2.9,13.6,2.9s12.7-1.2,13.6-2.9l.2-9.2Z"/>
  <path class="st0" d="M26.7,2.6h19v9.5c0,5.2-4.3,9.5-9.5,9.5h0c-5.2,0-9.5-4.3-9.5-9.5V2.6h0Z"/>
</svg>