<?xml version="1.0" encoding="UTF-8"?>
<svg id="Layer_1" xmlns="http://www.w3.org/2000/svg" xmlns:xlink="http://www.w3.org/1999/xlink" version="1.1" viewBox="0 0 50 50">
  <!-- Generator: Adobe Illustrator 30.5.1, SVG Export Plug-In . SVG Version: 2.1.4 Build 3)  -->
  <defs>
    <style>
      .st0 {
        fill: url(#linear-gradient1);
      }

      .st1 {
        fill: none;
        stroke: url(#linear-gradient2);
        stroke-linecap: round;
        stroke-linejoin: round;
        stroke-width: 2.9px;
      }

      .st2 {
        fill: url(#linear-gradient);
      }
    </style>
    <linearGradient id="linear-gradient" x1="-263.1" y1="446" x2="-246.8" y2="446" gradientTransform="translate(316.2 -370.6) rotate(6.9)" gradientUnits="userSpaceOnUse">
      <stop offset="0" stop-color="#6fafac"/>
      <stop offset=".3" stop-color="#479793"/>
      <stop offset=".8" stop-color="#137874"/>
      <stop offset="1" stop-color="#006d68"/>
    </linearGradient>
    <linearGradient id="linear-gradient1" x1="-259.1" y1="423.8" x2="-217.3" y2="423.8" xlink:href="#linear-gradient"/>
    <linearGradient id="linear-gradient2" x1="-250.1" y1="420.4" x2="-226.3" y2="420.4" gradientTransform="translate(316.2 -370.6) rotate(6.9)" gradientUnits="userSpaceOnUse">
      <stop offset="0" stop-color="#338a86"/>
      <stop offset="0" stop-color="#398d86"/>
      <stop offset=".2" stop-color="#66a68b"/>
      <stop offset=".4" stop-color="#8bbb90"/>
      <stop offset=".5" stop-color="#a8cb93"/>
      <stop offset=".7" stop-color="#bdd696"/>
      <stop offset=".8" stop-color="#c9dd97"/>
      <stop offset="1" stop-color="#cee098"/>
    </linearGradient>
  </defs>
  <path class="st2" d="M1.6,48.5h0c-1.5-1.5-1.5-4,0-5.5l10.7-10.4,5.5,5.6-10.7,10.4c-1.5,1.5-4,1.5-5.5,0Z"/>
  <path class="st0" d="M26,42c-11.5-1.4-19.6-11.8-18.2-23.3C9.2,7.3,19.6-.9,31.1.5s19.6,11.8,18.2,23.3c-1.4,11.5-11.8,19.6-23.3,18.2ZM30.4,6.2c-8.3-1-15.8,4.9-16.8,13.2-1,8.3,4.9,15.8,13.2,16.8,8.3,1,15.8-4.9,16.8-13.2s-4.9-15.8-13.2-16.8Z"/>
  <path class="st1" d="M18.2,20c.7-5.7,5.9-9.8,11.6-9.1,5.7.7,9.8,5.9,9.1,11.6-.2,1.2-.5,2.4-1.1,3.5"/>
</svg>