<?xml version="1.0" encoding="UTF-8"?>
<svg id="Layer_1" xmlns="http://www.w3.org/2000/svg" xmlns:xlink="http://www.w3.org/1999/xlink" version="1.1" viewBox="0 0 50 50">
  <!-- Generator: Adobe Illustrator 30.5.1, SVG Export Plug-In . SVG Version: 2.1.4 Build 3)  -->
  <defs>
    <style>
      .st0 {
        fill: url(#linear-gradient1);
      }

      .st1 {
        fill: url(#linear-gradient);
      }
    </style>
    <linearGradient id="linear-gradient" x1="26.6" y1="22.1" x2="56.4" y2="51.9" gradientUnits="userSpaceOnUse">
      <stop offset="0" stop-color="#006d68"/>
      <stop offset="1" stop-color="#003834"/>
    </linearGradient>
    <linearGradient id="linear-gradient1" x1="2.2" y1="36.7" x2="31.9" y2="6.9" gradientUnits="userSpaceOnUse">
      <stop offset="0" stop-color="#338a86"/>
      <stop offset="0" stop-color="#4e9989"/>
      <stop offset=".3" stop-color="#85b78f"/>
      <stop offset=".5" stop-color="#accd94"/>
      <stop offset=".6" stop-color="#c5db96"/>
      <stop offset=".7" stop-color="#cee098"/>
    </linearGradient>
  </defs>
  <path class="st1" d="M49.9,26.7c0-10.3-8.4-18.7-18.7-18.7S12.6,16.4,12.6,26.7s8.4,18.7,18.7,18.7,1.4,0,2.1-.1c2,2.9,5.8,4.1,9.2,2.8.4-.1.7-.3,1-.5-1.1-.8-2-2-2.5-3.3-.2-.5-.3-.9-.4-1.4,5.5-3.2,9.2-9.2,9.2-16.1Z"/>
  <path class="st0" d="M.1,20.1c0-10.3,8.3-18.6,18.6-18.6,10.3,0,18.6,8.3,18.6,18.6,0,10.3-8.3,18.6-18.6,18.6-.7,0-1.4,0-2.1-.1-2,2.9-5.8,4.1-9.2,2.8-.4-.1-.7-.3-1-.5,1.1-.8,2-2,2.5-3.3.2-.5.3-.9.4-1.4C3.8,32.9.1,26.9.1,20.1Z"/>
</svg>