<?xml version="1.0" encoding="UTF-8"?>
<svg id="Layer_1" xmlns="http://www.w3.org/2000/svg" xmlns:xlink="http://www.w3.org/1999/xlink" version="1.1" viewBox="0 0 50 50">
  <!-- Generator: Adobe Illustrator 30.5.1, SVG Export Plug-In . SVG Version: 2.1.4 Build 3)  -->
  <defs>
    <style>
      .st0 {
        fill: url(#linear-gradient);
      }

      .st1 {
        fill: #fff;
      }

      .st2 {
        fill: #00524f;
      }
    </style>
    <linearGradient id="linear-gradient" x1="1.2" y1="29.8" x2="41.7" y2="29.8" gradientUnits="userSpaceOnUse">
      <stop offset="0" stop-color="#006d68"/>
      <stop offset=".2" stop-color="#137874"/>
      <stop offset=".7" stop-color="#479793"/>
      <stop offset="1" stop-color="#6fafac"/>
    </linearGradient>
  </defs>
  <circle class="st2" cx="28.5" cy="20.3" r="20.3"/>
  <path class="st0" d="M21.4,9.5C10.2,9.5,1.2,18.6,1.2,29.8s9.1,20.2,20.2,20.2,20.2-9.1,20.2-20.2-9.1-20.2-20.2-20.2h0Z"/>
  <path class="st1" d="M20.1,45.8v-3.9c-2.3,0-4.6-.7-6-1.7l.9-2.6c1.4.9,3.4,1.7,5.6,1.7s4.6-1.6,4.6-3.8-1.5-3.5-4.4-4.6c-4-1.6-6.4-3.4-6.4-6.7s2.3-5.7,5.9-6.3v-3.9h2.4v3.8c2.3,0,3.9.7,5.1,1.4l-1,2.6c-.8-.5-2.4-1.3-4.9-1.3s-4.1,1.8-4.1,3.4,1.4,3,4.8,4.4c4,1.6,6,3.7,6,7.1s-2.1,6-6.2,6.6v4.1h-2.5Z"/>
</svg>