<?xml version="1.0" encoding="UTF-8"?>
<svg id="Layer_1" xmlns="http://www.w3.org/2000/svg" xmlns:xlink="http://www.w3.org/1999/xlink" version="1.1" viewBox="0 0 50 50">
  <!-- Generator: Adobe Illustrator 30.5.1, SVG Export Plug-In . SVG Version: 2.1.4 Build 3)  -->
  <defs>
    <style>
      .st0, .st1 {
        fill: none;
      }

      .st2 {
        fill: url(#linear-gradient1);
      }

      .st3 {
        fill: url(#linear-gradient);
      }

      .st1 {
        stroke: #fff;
        stroke-linecap: round;
        stroke-linejoin: round;
        stroke-width: 3px;
      }
    </style>
    <linearGradient id="linear-gradient" x1="23" y1="55.8" x2="23" y2="9.8" gradientTransform="translate(0 0)" gradientUnits="userSpaceOnUse">
      <stop offset="0" stop-color="#338a86"/>
      <stop offset=".1" stop-color="#3c8f87"/>
      <stop offset=".3" stop-color="#579e8a"/>
      <stop offset=".6" stop-color="#82b58f"/>
      <stop offset=".9" stop-color="#bdd696"/>
      <stop offset="1" stop-color="#cee098"/>
    </linearGradient>
    <linearGradient id="linear-gradient1" x1="-2783.4" y1="7389.7" x2="-2757.4" y2="7389.7" gradientTransform="translate(7426.6641 2804.4813) rotate(90)" gradientUnits="userSpaceOnUse">
      <stop offset="0" stop-color="#006d68"/>
      <stop offset="1" stop-color="#003834"/>
    </linearGradient>
  </defs>
  <rect class="st0" y="0" width="50" height="50"/>
  <path class="st3" d="M0,23C0,10.3,10.3,0,23,0c12.7,0,23,10.3,23,23,0,12.7-10.3,23-23,23C10.3,46,0,35.7,0,23Z"/>
  <path class="st2" d="M37,24c7.2,0,13,5.8,13,13,0,7.2-5.8,13-13,13s-13-5.8-13-13c0-7.2,5.8-13,13-13Z"/>
  <line class="st1" x1="37" y1="37" x2="37" y2="27.5"/>
  <line class="st1" x1="37" y1="37" x2="42.5" y2="40.5"/>
</svg>