<?xml version="1.0" encoding="UTF-8"?>
<svg id="Layer_1" xmlns="http://www.w3.org/2000/svg" xmlns:xlink="http://www.w3.org/1999/xlink" version="1.1" viewBox="0 0 50 50">
  <!-- Generator: Adobe Illustrator 30.5.1, SVG Export Plug-In . SVG Version: 2.1.4 Build 3)  -->
  <defs>
    <style>
      .st0 {
        fill: url(#linear-gradient1);
      }

      .st1 {
        fill: url(#linear-gradient3);
      }

      .st2 {
        fill: url(#linear-gradient);
      }

      .st3 {
        fill: none;
        stroke: url(#linear-gradient2);
        stroke-miterlimit: 10;
        stroke-width: 6px;
      }
    </style>
    <linearGradient id="linear-gradient" x1="25" y1="37" x2="25" y2="13" gradientUnits="userSpaceOnUse">
      <stop offset="0" stop-color="#cee098"/>
      <stop offset="0" stop-color="#bdd696"/>
      <stop offset=".4" stop-color="#82b58f"/>
      <stop offset=".7" stop-color="#579e8a"/>
      <stop offset=".9" stop-color="#3c8f87"/>
      <stop offset="1" stop-color="#338a86"/>
    </linearGradient>
    <linearGradient id="linear-gradient1" y1="49" x2="25" y2="1" xlink:href="#linear-gradient"/>
    <linearGradient id="linear-gradient2" x1="5.9" y1="37.8" x2="27.7" y2="37.8" gradientUnits="userSpaceOnUse">
      <stop offset="0" stop-color="#003834"/>
      <stop offset="1" stop-color="#006d68"/>
    </linearGradient>
    <linearGradient id="linear-gradient3" x1="5.9" y1="33.1" x2="27.7" y2="33.1" xlink:href="#linear-gradient2"/>
  </defs>
  <path class="st2" d="M25,13c-6.6,0-12,5.4-12,12s5.4,12,12,12,12-5.4,12-12-5.4-12-12-12h0Z"/>
  <path class="st0" d="M25,7c9.9,0,18,8.1,18,18s-8.1,18-18,18S7,34.9,7,25,15.1,7,25,7M25,1C11.7,1,1,11.7,1,25s10.7,24,24,24,24-10.7,24-24S38.3,1,25,1h0Z"/>
  <g>
    <line class="st3" x1="8.1" y1="42" x2="16.5" y2="33.6"/>
    <polygon class="st1" points="21 41.8 25.6 24.5 8.3 29.1 21 41.8"/>
  </g>
</svg>