<?xml version="1.0" encoding="UTF-8"?>
<svg id="Layer_1" xmlns="http://www.w3.org/2000/svg" xmlns:xlink="http://www.w3.org/1999/xlink" version="1.1" viewBox="0 0 50 50">
  <!-- Generator: Adobe Illustrator 30.5.1, SVG Export Plug-In . SVG Version: 2.1.4 Build 3)  -->
  <defs>
    <style>
      .st0 {
        fill: url(#linear-gradient1);
      }

      .st1 {
        fill: url(#linear-gradient);
      }
    </style>
    <linearGradient id="linear-gradient" x1="25" y1="47" x2="25" y2="3" gradientUnits="userSpaceOnUse">
      <stop offset="0" stop-color="#338a86"/>
      <stop offset=".2" stop-color="#529b89"/>
      <stop offset=".6" stop-color="#94c091"/>
      <stop offset=".9" stop-color="#bed796"/>
      <stop offset="1" stop-color="#cee098"/>
    </linearGradient>
    <linearGradient id="linear-gradient1" x1="25" y1="39.8" x2="25" y2="10.2" gradientUnits="userSpaceOnUse">
      <stop offset="0" stop-color="#003834"/>
      <stop offset="1" stop-color="#006d68"/>
    </linearGradient>
  </defs>
  <rect class="st1" x="3" y="3" width="44" height="44" rx="5.3" ry="5.3"/>
  <path class="st0" d="M24.6,39.8c-1.1,0-2.1-.4-3-1.1l-12.2-10.3c-2-1.7-2.2-4.6-.6-6.6,1.7-2,4.6-2.2,6.6-.6l8.2,6.9,10.3-15.9c1.4-2.2,4.3-2.8,6.4-1.4,2.2,1.4,2.8,4.3,1.4,6.4l-13.1,20.3c-.7,1.1-1.9,1.9-3.2,2.1-.2,0-.5,0-.7,0Z"/>
</svg>