<?xml version="1.0" encoding="UTF-8"?>
<svg id="Layer_1" xmlns="http://www.w3.org/2000/svg" xmlns:xlink="http://www.w3.org/1999/xlink" version="1.1" viewBox="0 0 50 50">
  <!-- Generator: Adobe Illustrator 30.5.1, SVG Export Plug-In . SVG Version: 2.1.4 Build 3)  -->
  <defs>
    <style>
      .st0 {
        fill: url(#linear-gradient1);
      }

      .st1 {
        fill: url(#linear-gradient);
      }
    </style>
    <linearGradient id="linear-gradient" x1="-156.2" y1="-176.1" x2="-177.3" y2="-215.6" gradientTransform="translate(3.8 283.3) rotate(45)" gradientUnits="userSpaceOnUse">
      <stop offset="0" stop-color="#003834"/>
      <stop offset="1" stop-color="#006d68"/>
    </linearGradient>
    <linearGradient id="linear-gradient1" x1="-449.8" y1="-197.3" x2="-470.9" y2="-236.7" gradientTransform="translate(-193.7 486.3) rotate(90)" gradientUnits="userSpaceOnUse">
      <stop offset="0" stop-color="#338a86"/>
      <stop offset=".1" stop-color="#3c8f87"/>
      <stop offset=".3" stop-color="#579e8a"/>
      <stop offset=".6" stop-color="#82b58f"/>
      <stop offset=".9" stop-color="#bdd696"/>
      <stop offset="1" stop-color="#cee098"/>
    </linearGradient>
  </defs>
  <path class="st1" d="M43.2,10.3l-6.3,13.6c-.3.7-.3,1.5,0,2.2l6.3,13.6c1,2.2-1.3,4.5-3.5,3.5l-13.6-6.3c-.7-.3-1.5-.3-2.2,0l-13.6,6.3c-2.2,1-4.5-1.3-3.5-3.5l6.3-13.6c.3-.7.3-1.5,0-2.2l-6.3-13.6c-1-2.2,1.3-4.5,3.5-3.5l13.6,6.3c.7.3,1.5.3,2.2,0l13.6-6.3c2.2-1,4.5,1.3,3.5,3.5Z"/>
  <path class="st0" d="M48.3,27.5l-14.1,5.2c-.7.3-1.3.8-1.5,1.5l-5.2,14.1c-.8,2.3-4.1,2.3-4.9,0l-5.2-14.1c-.3-.7-.8-1.3-1.5-1.5L1.7,27.5c-2.3-.8-2.3-4.1,0-4.9l14.1-5.2c.7-.3,1.3-.8,1.5-1.5L22.5,1.7c.8-2.3,4.1-2.3,4.9,0l5.2,14.1c.3.7.8,1.3,1.5,1.5l14.1,5.2c2.3.8,2.3,4.1,0,4.9Z"/>
</svg>