<?xml version="1.0" encoding="UTF-8"?>
<svg id="Layer_1" xmlns="http://www.w3.org/2000/svg" xmlns:xlink="http://www.w3.org/1999/xlink" version="1.1" viewBox="0 0 50 50">
  <!-- Generator: Adobe Illustrator 30.5.1, SVG Export Plug-In . SVG Version: 2.1.4 Build 3)  -->
  <defs>
    <style>
      .st0 {
        fill: url(#linear-gradient2);
      }

      .st1 {
        fill: url(#linear-gradient1);
      }

      .st2 {
        fill: url(#linear-gradient);
      }

      .st3 {
        fill: #fff;
      }
    </style>
    <linearGradient id="linear-gradient" x1="30.5" y1="49.3" x2="30.5" y2="7.9" gradientUnits="userSpaceOnUse">
      <stop offset="0" stop-color="#cee098"/>
      <stop offset="0" stop-color="#bdd696"/>
      <stop offset=".4" stop-color="#82b58f"/>
      <stop offset=".7" stop-color="#579e8a"/>
      <stop offset=".9" stop-color="#3c8f87"/>
      <stop offset="1" stop-color="#338a86"/>
    </linearGradient>
    <linearGradient id="linear-gradient1" x1="30.5" y1="8" x2="30.5" y2=".7" gradientUnits="userSpaceOnUse">
      <stop offset="0" stop-color="#006d68"/>
      <stop offset="1" stop-color="#003834"/>
    </linearGradient>
    <linearGradient id="linear-gradient2" x1="1.4" y1="26.7" x2="30.5" y2="26.7" xlink:href="#linear-gradient1"/>
  </defs>
  <rect class="st2" x="13.5" y="7.9" width="34.1" height="41.4"/>
  <rect class="st1" x="22.3" y=".7" width="16.5" height="7.3"/>
  <g>
    <rect class="st3" x="19.2" y="13.5" width="24.8" height="5.8"/>
    <rect class="st3" x="19.2" y="25.9" width="24.8" height="5.8"/>
    <rect class="st3" x="19.2" y="38.4" width="24.8" height="5.8"/>
  </g>
  <path class="st0" d="M15.8,8.7S1.3,22.4,1.4,30.5c0,7.3,5.4,13.2,12.4,14.3v-16.5c-.2-1.3.9-2.3,2.1-2.3,1.2,0,2.3,1,2.3,2.2v16.5c7.1-1.1,12.4-7.2,12.3-14.5,0-8-14.7-21.5-14.7-21.5Z"/>
</svg>