<?xml version="1.0" encoding="UTF-8"?>
<svg id="Layer_1" xmlns="http://www.w3.org/2000/svg" xmlns:xlink="http://www.w3.org/1999/xlink" version="1.1" viewBox="0 0 50 50">
  <!-- Generator: Adobe Illustrator 30.5.1, SVG Export Plug-In . SVG Version: 2.1.4 Build 3)  -->
  <defs>
    <style>
      .st0 {
        fill: url(#linear-gradient2);
      }

      .st1 {
        fill: url(#linear-gradient1);
      }

      .st2 {
        fill: url(#linear-gradient3);
      }

      .st3 {
        fill: url(#linear-gradient);
      }

      .st4 {
        fill: #003834;
      }
    </style>
    <linearGradient id="linear-gradient" x1="0" y1="35.8" x2="27.6" y2="35.8" gradientUnits="userSpaceOnUse">
      <stop offset="0" stop-color="#003834"/>
      <stop offset="1" stop-color="#006d68"/>
    </linearGradient>
    <linearGradient id="linear-gradient1" x1="3145.6" y1="4405.1" x2="3145.6" y2="4386.5" gradientTransform="translate(3159.3963 4406.7532) rotate(-180)" gradientUnits="userSpaceOnUse">
      <stop offset="0" stop-color="#cee098"/>
      <stop offset="0" stop-color="#bdd696"/>
      <stop offset=".4" stop-color="#82b58f"/>
      <stop offset=".7" stop-color="#579e8a"/>
      <stop offset=".9" stop-color="#3c8f87"/>
      <stop offset="1" stop-color="#338a86"/>
    </linearGradient>
    <linearGradient id="linear-gradient2" x1="36.2" y1="53.8" x2="36.2" y2="27.9" gradientTransform="matrix(1,0,0,1,0,0)" xlink:href="#linear-gradient1"/>
    <linearGradient id="linear-gradient3" x1="36.2" y1="21.1" x2="36.2" y2="-27.8" gradientUnits="userSpaceOnUse">
      <stop offset="0" stop-color="#cee098"/>
      <stop offset="0" stop-color="#bdd696"/>
      <stop offset=".4" stop-color="#82b58f"/>
      <stop offset=".7" stop-color="#579e8a"/>
      <stop offset=".9" stop-color="#3c8f87"/>
      <stop offset="1" stop-color="#338a86"/>
    </linearGradient>
  </defs>
  <path class="st4" d="M26.7,1.3h19v10.6c0,5.2-4.3,9.5-9.5,9.5h0c-5.2,0-9.5-4.3-9.5-9.5V1.3h0Z" transform="translate(72.4 22.7) rotate(-180)"/>
  <path class="st3" d="M27.6,36.6c0-7.6-6.2-13.8-13.8-13.8h0c-5.2,0-9.7,2.8-12,7.1-1.1,2-1.8,4.3-1.8,6.7l.2,9.2c.9,1.6,6.7,2.9,13.6,2.9s12.7-1.2,13.6-2.9l.2-9.2Z"/>
  <circle class="st1" cx="13.8" cy="11" r="9.3"/>
  <path class="st0" d="M50,36.6c0-7.6-6.2-13.8-13.8-13.8h0c-5.2,0-9.7,2.8-12,7.1-1.1,2-1.8,4.3-1.8,6.7l.2,9.2c.9,1.6,6.7,2.9,13.6,2.9s12.7-1.2,13.6-2.9l.2-9.2Z"/>
  <path class="st2" d="M27.2,10h17.9s0,.4,0,.6c-.3,4.9-4.2,8.7-8.9,8.7s-8.6-3.9-8.9-8.7c0-.2,0-.6,0-.6Z"/>
</svg>