<?xml version="1.0" encoding="UTF-8"?>
<svg id="Layer_1" xmlns="http://www.w3.org/2000/svg" xmlns:xlink="http://www.w3.org/1999/xlink" version="1.1" viewBox="0 0 50 50">
  <!-- Generator: Adobe Illustrator 30.5.1, SVG Export Plug-In . SVG Version: 2.1.4 Build 3)  -->
  <defs>
    <style>
      .st0 {
        fill: url(#linear-gradient2);
      }

      .st1 {
        fill: url(#linear-gradient1);
      }

      .st2 {
        fill: url(#linear-gradient);
      }

      .st3 {
        fill: #fff;
      }

      .st4 {
        fill: #006d68;
      }

      .st5 {
        fill: none;
        stroke: #006d68;
        stroke-miterlimit: 10;
        stroke-width: 2px;
      }
    </style>
    <linearGradient id="linear-gradient" x1="2.7" y1="42.9" x2="47.3" y2="42.9" gradientUnits="userSpaceOnUse">
      <stop offset="0" stop-color="#338a86"/>
      <stop offset=".1" stop-color="#3c8f87"/>
      <stop offset=".3" stop-color="#579e8a"/>
      <stop offset=".6" stop-color="#82b58f"/>
      <stop offset=".9" stop-color="#bdd696"/>
      <stop offset="1" stop-color="#cee098"/>
    </linearGradient>
    <linearGradient id="linear-gradient1" x1="25" y1="34.2" x2="25" y2="11.3" gradientUnits="userSpaceOnUse">
      <stop offset="0" stop-color="#006d68"/>
      <stop offset=".4" stop-color="#00504b"/>
      <stop offset=".7" stop-color="#003e3a"/>
      <stop offset="1" stop-color="#003834"/>
    </linearGradient>
    <linearGradient id="linear-gradient2" x1="25" y1="21.8" x2="25" y2="0" gradientUnits="userSpaceOnUse">
      <stop offset="0" stop-color="#cee098"/>
      <stop offset="0" stop-color="#bdd696"/>
      <stop offset=".4" stop-color="#82b58f"/>
      <stop offset=".7" stop-color="#579e8a"/>
      <stop offset=".9" stop-color="#3c8f87"/>
      <stop offset="1" stop-color="#338a86"/>
    </linearGradient>
  </defs>
  <path class="st2" d="M6.7,35.9h40.6v14.1H6.7c-2.2,0-4-1.8-4-4v-6c0-2.2,1.8-4,4-4Z"/>
  <path class="st3" d="M8,39.2h39.3v7.6H8c-1.4,0-2.6-1.2-2.6-2.6v-2.3c0-1.4,1.2-2.6,2.6-2.6Z"/>
  <g>
    <line class="st5" x1="46.5" y1="29.1" x2="46.5" y2="10.3"/>
    <circle class="st4" cx="46.5" cy="29" r="3.5"/>
  </g>
  <path class="st1" d="M40.9,11.9l-31.7-.6s0,17.5,0,17.7c0,1.9,7.1,5.2,15.9,5.2s15.9-3.3,15.9-5.2,0-17.1,0-17.1Z"/>
  <path class="st0" d="M22.7,21.3L.7,12c-.9-.4-.9-1.8,0-2.2L22.7.5c1.5-.6,3.1-.6,4.5,0l22,9.3c.9.4.9,1.8,0,2.2l-22,9.3c-1.5.6-3.1.6-4.5,0Z"/>
</svg>