<?xml version="1.0" encoding="UTF-8"?>
<svg id="Layer_1" xmlns="http://www.w3.org/2000/svg" xmlns:xlink="http://www.w3.org/1999/xlink" version="1.1" viewBox="0 0 50 50">
  <!-- Generator: Adobe Illustrator 30.5.1, SVG Export Plug-In . SVG Version: 2.1.4 Build 3)  -->
  <defs>
    <style>
      .st0 {
        fill: url(#linear-gradient2);
      }

      .st1 {
        fill: url(#linear-gradient1);
      }

      .st2 {
        fill: url(#linear-gradient);
      }

      .st3 {
        fill: #003834;
      }
    </style>
    <linearGradient id="linear-gradient" x1="25" y1="55" x2="25" y2="29.6" gradientUnits="userSpaceOnUse">
      <stop offset="0" stop-color="#338a86"/>
      <stop offset=".1" stop-color="#3c8f87"/>
      <stop offset=".3" stop-color="#579e8a"/>
      <stop offset=".6" stop-color="#82b58f"/>
      <stop offset=".9" stop-color="#bdd696"/>
      <stop offset="1" stop-color="#cee098"/>
    </linearGradient>
    <linearGradient id="linear-gradient1" x1="5596.1" y1="4835.1" x2="5596.1" y2="4813.5" gradientTransform="translate(5621.1598 4835.1436) rotate(-180)" gradientUnits="userSpaceOnUse">
      <stop offset="0" stop-color="#6fafac"/>
      <stop offset=".3" stop-color="#479793"/>
      <stop offset=".8" stop-color="#137874"/>
      <stop offset="1" stop-color="#006d68"/>
    </linearGradient>
    <linearGradient id="linear-gradient2" x1="5601.7" y1="4834.7" x2="5591.5" y2="4815.6" xlink:href="#linear-gradient1"/>
  </defs>
  <path class="st2" d="M41,40.6c0-8.8-7.2-16-16-16h0c-6,0-11.2,3.3-14,8.2-1.3,2.3-2,5-2,7.8l.2,6.1c1.1,1.9,7.8,3.3,15.8,3.3s14.7-1.4,15.8-3.3l.2-6.1Z"/>
  <circle class="st1" cx="25" cy="10.9" r="10.8"/>
  <circle class="st0" cx="25" cy="10.9" r="10.8"/>
  <path class="st3" d="M31.5,2.2C28.5-.1,24.1-.7,20.4.9c-5.3,2.4-7.7,8.7-5.3,14,.3.8.8,1.4,1.3,2.1.7,0,1.3-.1,1.9-.6.5-.4.9-.7,1.2-1.2,0-.2.6-1.6.6-1.6-2.6.6-2.7-3.6-1.8-5,.6-.9,1.9-1.1,2.5,0,.1.2.3.5.5.7.5-.9.9-2,1.6-2.7,1.6-1.7,4.3-3.3,6.5-3.9.6-.2,1.5-.3,2.1-.4Z"/>
</svg>