<?xml version="1.0" encoding="UTF-8"?>
<svg id="Layer_1" xmlns="http://www.w3.org/2000/svg" xmlns:xlink="http://www.w3.org/1999/xlink" version="1.1" viewBox="0 0 50 50">
  <!-- Generator: Adobe Illustrator 30.5.1, SVG Export Plug-In . SVG Version: 2.1.4 Build 3)  -->
  <defs>
    <style>
      .st0 {
        fill: url(#linear-gradient2);
      }

      .st1 {
        fill: url(#linear-gradient1);
      }

      .st2 {
        fill: url(#linear-gradient);
      }

      .st3 {
        fill: #003834;
      }
    </style>
    <linearGradient id="linear-gradient" x1="2.2" y1="13.1" x2="32.3" y2="13.1" gradientUnits="userSpaceOnUse">
      <stop offset="0" stop-color="#6fafac"/>
      <stop offset=".3" stop-color="#479793"/>
      <stop offset=".8" stop-color="#137874"/>
      <stop offset="1" stop-color="#006d68"/>
    </linearGradient>
    <linearGradient id="linear-gradient1" x1="17.2" y1="49.9" x2="17.2" y2="20.9" gradientUnits="userSpaceOnUse">
      <stop offset="0" stop-color="#cee098"/>
      <stop offset="0" stop-color="#bdd696"/>
      <stop offset=".4" stop-color="#82b58f"/>
      <stop offset=".7" stop-color="#579e8a"/>
      <stop offset=".9" stop-color="#3c8f87"/>
      <stop offset="1" stop-color="#338a86"/>
    </linearGradient>
    <linearGradient id="linear-gradient2" x1="39" y1="45.9" x2="39" y2="31.3" xlink:href="#linear-gradient1"/>
  </defs>
  <path class="st2" d="M29.3,26.2c-1.7,0-3-1.3-3-3v-7.9c0-5-4.1-9.1-9.1-9.1s-9.1,4.1-9.1,9.1v7.9c0,1.7-1.3,3-3,3s-3-1.3-3-3v-7.9C2.2,6.9,8.9.1,17.2.1s15.1,6.8,15.1,15.1v7.9c0,1.7-1.3,3-3,3Z"/>
  <path class="st1" d="M-.2,20.9v11.5c0,9.7,7.8,17.5,17.5,17.5s17.5-7.8,17.5-17.5v-11.5H-.2ZM19.2,35.5l2,7.4h-8l2-7.4c-1.8-.8-3-2.5-3-4.6s2.2-5,5-5,5,2.2,5,5-1.2,3.8-3,4.6Z"/>
  <circle class="st3" cx="39" cy="38.6" r="11.3"/>
  <path class="st0" d="M41.8,38.6l3.9-3.9c.8-.8.8-2,0-2.8-.8-.8-2-.8-2.8,0l-3.9,3.9-3.9-3.9c-.8-.8-2-.8-2.8,0-.8.8-.8,2,0,2.8l3.9,3.9-3.9,3.9c-.8.8-.8,2,0,2.8.4.4.9.6,1.4.6s1-.2,1.4-.6l3.9-3.9,3.9,3.9c.4.4.9.6,1.4.6s1-.2,1.4-.6c.8-.8.8-2,0-2.8l-3.9-3.9Z"/>
</svg>