<?xml version="1.0" encoding="UTF-8"?>
<svg id="Layer_1" xmlns="http://www.w3.org/2000/svg" xmlns:xlink="http://www.w3.org/1999/xlink" version="1.1" viewBox="0 0 45.8 49.7">
  <!-- Generator: Adobe Illustrator 30.5.1, SVG Export Plug-In . SVG Version: 2.1.4 Build 3)  -->
  <defs>
    <style>
      .st0 {
        fill: url(#linear-gradient1);
      }

      .st1 {
        fill: url(#linear-gradient);
      }

      .st2 {
        fill: #fff;
      }
    </style>
    <linearGradient id="linear-gradient" x1="-2452" y1="866.5" x2="-2452" y2="912.3" gradientTransform="translate(-2429.1 -866.4898) scale(-1 1)" gradientUnits="userSpaceOnUse">
      <stop offset="0" stop-color="#cee098"/>
      <stop offset="0" stop-color="#bdd696"/>
      <stop offset=".4" stop-color="#82b58f"/>
      <stop offset=".7" stop-color="#579e8a"/>
      <stop offset=".9" stop-color="#3c8f87"/>
      <stop offset="1" stop-color="#338a86"/>
    </linearGradient>
    <linearGradient id="linear-gradient1" x1="8" y1="-769.4" x2="38.3" y2="-769.4" gradientTransform="translate(0 -742.5) scale(1 -1)" gradientUnits="userSpaceOnUse">
      <stop offset="0" stop-color="#003834"/>
      <stop offset="1" stop-color="#006d68"/>
    </linearGradient>
  </defs>
  <circle class="st1" cx="22.9" cy="22.9" r="22.9"/>
  <g>
    <path class="st0" d="M38.3,19.4c0-1.1,0-2.1-.3-3.1-1.4-7-7.6-12.3-15.1-12.3s-12,4-14.3,9.5-.5,1.4-.7,2.2c-.5,1.9-.4,2.8-.4,3.7,0,1.9.2,3.2.5,4.3.3,1.1.7,1.7,1.2,2.7,1.1,2.1,11.2,21.8,11.2,21.8,1,2,3.9,2,5,0,0,0,11-21.5,11.2-21.8.6-1.2,1.1-2.5,1.4-3.8s.3-2.1.3-3.2Z"/>
    <circle class="st2" cx="22.9" cy="19.4" r="7"/>
  </g>
</svg>