<?xml version="1.0" encoding="UTF-8"?>
<svg id="Layer_1" xmlns="http://www.w3.org/2000/svg" xmlns:xlink="http://www.w3.org/1999/xlink" version="1.1" viewBox="0 0 50 50">
  <!-- Generator: Adobe Illustrator 30.5.1, SVG Export Plug-In . SVG Version: 2.1.4 Build 3)  -->
  <defs>
    <style>
      .st0 {
        fill: #cee098;
      }

      .st1 {
        fill: url(#linear-gradient);
      }

      .st2 {
        fill: #fff;
      }

      .st3 {
        fill: #003834;
      }
    </style>
    <linearGradient id="linear-gradient" x1="25" y1="47.9" x2="25" y2="2.1" gradientUnits="userSpaceOnUse">
      <stop offset="0" stop-color="#cee098"/>
      <stop offset="0" stop-color="#bdd696"/>
      <stop offset=".4" stop-color="#82b58f"/>
      <stop offset=".7" stop-color="#579e8a"/>
      <stop offset=".9" stop-color="#3c8f87"/>
      <stop offset="1" stop-color="#338a86"/>
    </linearGradient>
  </defs>
  <circle class="st1" cx="25" cy="25" r="22.9"/>
  <g>
    <path class="st2" d="M34.3,15V3.7H15.7v11.3c0,3.4,2.1,6.3,5,7.6.9.4,1.5,1.3,1.5,2.2h0c0,1-.6,1.9-1.5,2.2-2.9,1.3-5,4.2-5,7.6v11.3h18.6v-11.3c0-3.4-2.1-6.3-5-7.6s-1.5-1.3-1.5-2.2h0c0-1,.6-1.9,1.5-2.2,2.9-1.3,5-4.2,5-7.6Z"/>
    <rect class="st3" x="12.5" y="45.7" width="24.9" height="4.3" rx="1.9" ry="1.9"/>
    <rect class="st3" x="12.5" y="0" width="24.9" height="4.3" rx="1.9" ry="1.9"/>
  </g>
  <circle class="st0" cx="25" cy="38.7" r="3.8"/>
</svg>