<?xml version="1.0" encoding="UTF-8"?>
<svg id="Layer_1" xmlns="http://www.w3.org/2000/svg" xmlns:xlink="http://www.w3.org/1999/xlink" version="1.1" viewBox="0 0 50 50">
  <!-- Generator: Adobe Illustrator 30.5.1, SVG Export Plug-In . SVG Version: 2.1.4 Build 3)  -->
  <defs>
    <style>
      .st0 {
        fill: url(#linear-gradient1);
      }

      .st1 {
        fill: url(#linear-gradient);
      }

      .st2 {
        fill: #fff;
      }
    </style>
    <linearGradient id="linear-gradient" x1="30.2" y1="47.9" x2="30.2" y2="2.1" gradientUnits="userSpaceOnUse">
      <stop offset="0" stop-color="#cee098"/>
      <stop offset="0" stop-color="#bdd696"/>
      <stop offset=".4" stop-color="#82b58f"/>
      <stop offset=".7" stop-color="#579e8a"/>
      <stop offset=".9" stop-color="#3c8f87"/>
      <stop offset="1" stop-color="#338a86"/>
    </linearGradient>
    <linearGradient id="linear-gradient1" x1="19.8" y1="47.9" x2="19.8" y2="2.1" gradientUnits="userSpaceOnUse">
      <stop offset="0" stop-color="#003834"/>
      <stop offset="1" stop-color="#006d68"/>
    </linearGradient>
  </defs>
  <polygon class="st1" points="30.1 47.9 10.3 36.4 10.3 13.6 30.1 2.1 30.2 2.1 50 13.6 50 36.4 30.2 47.9 30.1 47.9"/>
  <polygon class="st0" points="39.6 36.4 39.6 13.6 19.8 2.1 0 13.6 0 36.4 19.8 47.9 39.6 36.4"/>
  <path class="st2" d="M19.7,12.1s-9.6,9.1-9.5,14.4c0,4.8,3.6,8.8,8.2,9.4v-10.9c-.1-.8.6-1.5,1.4-1.5.8,0,1.5.7,1.5,1.5v10.9c4.7-.8,8.2-4.8,8.1-9.6,0-5.3-9.8-14.2-9.8-14.2Z"/>
</svg>