<?xml version="1.0" encoding="UTF-8"?>
<svg id="Layer_1" xmlns="http://www.w3.org/2000/svg" xmlns:xlink="http://www.w3.org/1999/xlink" version="1.1" viewBox="0 0 50 50">
  <!-- Generator: Adobe Illustrator 30.5.1, SVG Export Plug-In . SVG Version: 2.1.4 Build 3)  -->
  <defs>
    <style>
      .st0 {
        fill: url(#linear-gradient2);
      }

      .st1 {
        fill: url(#linear-gradient1);
      }

      .st2 {
        fill: url(#linear-gradient);
      }

      .st3 {
        fill: #fff;
      }
    </style>
    <linearGradient id="linear-gradient" x1="25" y1="46" x2="25" y2=".1" gradientUnits="userSpaceOnUse">
      <stop offset="0" stop-color="#cee098"/>
      <stop offset="0" stop-color="#bdd696"/>
      <stop offset=".4" stop-color="#82b58f"/>
      <stop offset=".7" stop-color="#579e8a"/>
      <stop offset=".9" stop-color="#3c8f87"/>
      <stop offset="1" stop-color="#338a86"/>
    </linearGradient>
    <linearGradient id="linear-gradient1" x1="25" y1="49.9" x2="25" y2="18.9" gradientUnits="userSpaceOnUse">
      <stop offset="0" stop-color="#003834"/>
      <stop offset="1" stop-color="#006d68"/>
    </linearGradient>
    <linearGradient id="linear-gradient2" x1="25" y1="41.9" x2="25" y2="16.2" xlink:href="#linear-gradient1"/>
  </defs>
  <circle class="st2" cx="25" cy="23.1" r="22.9"/>
  <path class="st3" d="M38.4,18.5c0-7.9-6.8-14.2-14.9-13.3-5.9.7-10.8,5.4-11.7,11.3-.6,4.4.8,8.4,3.5,11.2s4.4,7,4.4,11.2v3.5h10.7v-3.5c0-4.2,1.6-8.2,4.4-11.2,2.3-2.4,3.6-5.6,3.6-9.2Z"/>
  <path class="st1" d="M30.4,41.9h-10.9c-1.1,0-2,.9-2,2s.9,2,2,2h.5v1.5c0,1.4,1.1,2.5,2.5,2.5h4.9c1.4,0,2.5-1.1,2.5-2.5v-1.5h.5c1.1,0,2-.9,2-2s-.9-2-2-2Z"/>
  <path class="st0" d="M28.7,19.9c0-2.1-1.7-3.7-3.7-3.7s-3.7,1.7-3.7,3.7,1,2.9,2.3,3.4v18.6h3v-18.7c1.2-.6,2.1-1.9,2.1-3.3Z"/>
</svg>