<?xml version="1.0" encoding="UTF-8"?>
<svg id="Layer_1" xmlns="http://www.w3.org/2000/svg" xmlns:xlink="http://www.w3.org/1999/xlink" version="1.1" viewBox="0 0 50 50">
  <!-- Generator: Adobe Illustrator 30.5.1, SVG Export Plug-In . SVG Version: 2.1.4 Build 3)  -->
  <defs>
    <style>
      .st0, .st1, .st2, .st3 {
        fill: none;
      }

      .st4 {
        fill: url(#linear-gradient2);
      }

      .st5 {
        fill: url(#linear-gradient1);
      }

      .st6 {
        fill: url(#linear-gradient);
      }

      .st7 {
        fill: #003734;
      }

      .st1 {
        stroke: url(#linear-gradient4);
      }

      .st1, .st2, .st3 {
        stroke-linecap: round;
        stroke-linejoin: round;
        stroke-width: 2px;
      }

      .st2 {
        stroke: url(#linear-gradient5);
      }

      .st3 {
        stroke: url(#linear-gradient3);
      }
    </style>
    <linearGradient id="linear-gradient" x1="-357.4" y1="6696.6" x2="-357.4" y2="6676.3" gradientTransform="translate(6460.2684 1841.4087) rotate(102.5635)" gradientUnits="userSpaceOnUse">
      <stop offset="0" stop-color="#cee098"/>
      <stop offset="0" stop-color="#bdd696"/>
      <stop offset=".4" stop-color="#82b58f"/>
      <stop offset=".7" stop-color="#579e8a"/>
      <stop offset=".9" stop-color="#3c8f87"/>
      <stop offset="1" stop-color="#338a86"/>
    </linearGradient>
    <linearGradient id="linear-gradient1" x1="2290.8" y1="-801.1" x2="2326.7" y2="-801.1" gradientTransform="translate(-1501.2146 1941.1676) rotate(-32.4365)" xlink:href="#linear-gradient"/>
    <linearGradient id="linear-gradient2" x1="2321" y1="-801.1" x2="2329.1" y2="-801.1" gradientTransform="translate(-1501.2146 1941.1676) rotate(-32.4365)" gradientUnits="userSpaceOnUse">
      <stop offset="0" stop-color="#338a86"/>
      <stop offset=".1" stop-color="#3c8f87"/>
      <stop offset=".3" stop-color="#579e8a"/>
      <stop offset=".6" stop-color="#82b58f"/>
      <stop offset=".9" stop-color="#bdd696"/>
      <stop offset="1" stop-color="#cee098"/>
    </linearGradient>
    <linearGradient id="linear-gradient3" x1="2276.2" y1="-807.6" x2="2287" y2="-807.6" gradientTransform="translate(-1473.3841 1894.693) rotate(-31.6864)" xlink:href="#linear-gradient"/>
    <linearGradient id="linear-gradient4" x1="2276.2" y1="-813.1" x2="2284.3" y2="-813.1" gradientTransform="translate(-1473.3841 1894.693) rotate(-31.6864)" xlink:href="#linear-gradient"/>
    <linearGradient id="linear-gradient5" x1="2973.3" y1="-802.2" x2="2981.4" y2="-802.2" gradientTransform="translate(3000.4563 -866.9453) rotate(148.3136) scale(1 -1)" xlink:href="#linear-gradient2"/>
  </defs>
  <rect class="st0" y="0" width="50" height="50"/>
  <g>
    <path class="st6" d="M15.8,48.7c.7,1,2,1.4,3.1.7,1-.7,1.4-2,.7-3.1L7.6,27.5c-.7-1-2-1.4-3.1-.7-.5.3-.9.8-1,1.4s0,1.2.3,1.7l12,18.9Z"/>
    <path class="st5" d="M1.2,27.9h0c-1.3,1.6-.8,5.1,1.3,8.4s5.1,5.3,7,4.7h0c0,0,33.7-7.4,33.7-7.4L22.3.5,1.2,27.9Z"/>
    <ellipse class="st7" cx="33.3" cy="16.8" rx="6.2" ry="19.6" transform="translate(-3.8 20.5) rotate(-32.4)"/>
    <path class="st4" d="M35.6,15.3c-1.1-1.7-2.8-2.5-3.8-1.9l-3.7,2.4c.6,1,1.3,2.1,1.9,3.1.7,1,1.3,2.1,2,3l3.7-2.4c1-.7,1-2.6,0-4.3Z"/>
  </g>
  <line class="st3" x1="40.1" y1="11.3" x2="47.6" y2="6.7"/>
  <g>
    <line class="st1" x1="38" y1="7.8" x2="41.8" y2="2.4"/>
    <line class="st2" x1="48.9" y1="13.9" x2="42.3" y2="14.8"/>
  </g>
</svg>