<svg xmlns="http://www.w3.org/2000/svg" width="190" height="190" fill="none" viewBox="0 0 190 190"><path d="M189.72 94.91h-37.9l-56.91 56.9-56.9-56.9H0l94.91 94.91 94.91-94.91z" style="fill:#aac853"/><path d="m.01 94.91 9.58-9.5L95 0l85.41 85.41 9.4 9.5h-37.9L95 38.01l-56.9 56.9z" style="fill:#006d68"/><path d="M80.78 98.27h-4V70.43l16.8-17.17 2.86 2.8-15.66 16z" class="branches"/><path d="M78.78 102.55a4.51 4.51 0 1 0 0-9.02 4.51 4.51 0 0 0 0 9.02m-13.48 2.3h-4v-19l16.82-16.78 2.83 2.84-15.65 15.6z" class="branches"/><path d="M58.79 104.62a4.511 4.511 0 0 0 9.02 0 4.511 4.511 0 0 0-9.02 0m54.35-6.35h-4V72.06l-15.66-16 2.86-2.8 16.8 17.17z" class="branches"/><path d="M111.141 102.55a4.51 4.51 0 1 0 0-9.02 4.51 4.51 0 0 0 0 9.02m17.479 2.3h-4V87.51l-15.65-15.6 2.83-2.84 16.82 16.78z" class="branches"/><path d="M122.1 104.62a4.511 4.511 0 0 0 9.02 0 4.511 4.511 0 0 0-9.02 0" class="branches"/><path d="M97 38.01h-4v81.46h4z" class="main-branch"/><path d="M95 126.61a7.52 7.52 0 0 0 7.52-7.52 7.52 7.52 0 1 0-7.52 7.52" class="main-branch"/><style>.branches{fill:#003834}.main-branch{fill:#006d68}@media (prefers-color-scheme:dark){.branches{fill:#fff}.main-branch{fill:#aac853}}</style></svg>