<svg width="190" height="190" viewBox="0 0 190 190" fill="none" xmlns="http://www.w3.org/2000/svg">
<path d="M189.72 94.91H151.82L94.91 151.81L38.01 94.91H0L94.91 189.82L189.82 94.91H189.72Z"  class="lower-triangle"/>
<path d="M0.00976562 94.91L9.58976 85.41L94.9998 0L180.41 85.41L189.81 94.91H151.91L94.9998 38.01L38.0998 94.91H0.00976562Z"  class="upper-triangle"/>
<path d="M80.7793 98.27H76.7793V70.43L93.5793 53.26L96.4393 56.06L80.7793 72.06V98.27Z" class="branches"/>
<path d="M78.7795 102.55C81.2703 102.55 83.2895 100.531 83.2895 98.04C83.2895 95.5492 81.2703 93.53 78.7795 93.53C76.2887 93.53 74.2695 95.5492 74.2695 98.04C74.2695 100.531 76.2887 102.55 78.7795 102.55Z" class="branches"/>
<path d="M65.2998 104.85H61.2998V85.8501L78.1198 69.0701L80.9498 71.9101L65.2998 87.5101V104.85Z" class="branches"/>
<path d="M58.79 104.62C58.79 107.11 60.81 109.13 63.3 109.13C65.79 109.13 67.81 107.11 67.81 104.62C67.81 102.13 65.79 100.11 63.3 100.11C60.81 100.11 58.79 102.13 58.79 104.62Z" class="branches"/>
<path d="M113.14 98.27H109.14V72.06L93.4805 56.06L96.3405 53.26L113.14 70.43V98.27Z" class="branches"/>
<path d="M111.141 102.55C113.632 102.55 115.651 100.531 115.651 98.04C115.651 95.5492 113.632 93.53 111.141 93.53C108.65 93.53 106.631 95.5492 106.631 98.04C106.631 100.531 108.65 102.55 111.141 102.55Z" class="branches"/>
<path d="M128.62 104.85H124.62V87.5101L108.97 71.9101L111.8 69.0701L128.62 85.8501V104.85Z" class="branches"/>
<path d="M122.1 104.62C122.1 107.11 124.12 109.13 126.61 109.13C129.1 109.13 131.12 107.11 131.12 104.62C131.12 102.13 129.1 100.11 126.61 100.11C124.12 100.11 122.1 102.13 122.1 104.62Z" class="branches"/>
<path d="M97 38.01H93V119.47H97V38.01Z" class="main-branch"/>
<path d="M95.0005 126.61C99.1537 126.61 102.52 123.243 102.52 119.09C102.52 114.937 99.1537 111.57 95.0005 111.57C90.8473 111.57 87.4805 114.937 87.4805 119.09C87.4805 123.243 90.8473 126.61 95.0005 126.61Z" class="main-branch"/>
<style>
        .lower-triangle { fill: #AAC853; }
        .upper-triangle { fill: #006D68; }
        .branches { fill: #003834; }
        .main-branch { fill: #006D68; }
        @media (prefers-color-scheme: dark) {
            .lower-triangle { fill: #006D68; }
            .upper-triangle { fill: #AAC853; }
            .branches { fill: #FFFFFF; }
            .main-branch { fill: #AAC853; }
        }
    </style>
</svg>


