<svg xmlns="http://www.w3.org/2000/svg" width="48" height="48" fill="none" viewBox="0 0 48 48"><g clip-path="url(#a)"><path fill="#a4c352" d="M25 11.2c6.51 0 11.8 5.3 11.8 11.8S31.51 34.8 25 34.8 13.2 29.5 13.2 23 18.49 11.2 25 11.2m0-2.66c-7.98 0-14.46 6.47-14.46 14.46S17.01 37.46 25 37.46 39.46 30.99 39.46 23 32.99 8.54 25 8.54"/><path fill="#a4c352" d="M25 3.42c10.8 0 19.58 8.79 19.58 19.58S35.79 42.58 25 42.58 5.42 33.8 5.42 23 14.2 3.42 25 3.42m0-2.8C12.64.62 2.62 10.64 2.62 23S12.64 45.38 25 45.38 47.38 35.36 47.38 23 37.36.62 25 .62"/><path fill="#a4c352" d="M25 29.53a6.53 6.53 0 1 0 0-13.06 6.53 6.53 0 0 0 0 13.06"/><path fill="#006d68" d="m20.515 26.914-9.007 8.995.657.658 9.008-8.995z"/><path fill="#006d68" d="m12.19 35.3-6.76 1.67L.3 42.09l5.67.01v5.67l5.13-5.13 1.67-6.76zm10.96-3.81 2.41-8.98-8.98 2.41z"/></g><defs><clipPath id="a"><path fill="#fff" d="M0 0h48v48H0z"/></clipPath></defs></svg>