<svg xmlns="http://www.w3.org/2000/svg" width="48" height="48" fill="none" viewBox="0 0 48 48"><path fill="#a5c352" d="M13.66 26.04c7.54 0 13.66 6.12 13.66 13.66V48H0v-8.3c0-7.54 6.12-13.66 13.66-13.66" style="mix-blend-mode:multiply"/><path fill="#006d68" d="M7.53 19.94c-.11 0-.23-.04-.33-.11-1.96-1.58-3.23-3.75-3.39-5.8-.16-2.08.72-4.46 2.15-5.8.98-.92 2.15-1.32 3.41-1.2.19-.54.48-1.09.87-1.66 1.36-1.98 4.33-2.45 6.42-1.9 1.46.38 2.8 1.28 3.59 2.4.21.29.38.61.51.95.05 0 .09-.01.14-.02.53-.04 1.1.05 1.69.28.64.25 1.15.55 1.57.91 2.15 1.86 2.23 5.11 1.2 7.37-.75 1.61-2.09 3.08-3.9 4.27-.24.16-.56.09-.72-.15a.52.52 0 0 1 .15-.72c1.64-1.08 2.86-2.41 3.52-3.83.87-1.9.83-4.62-.94-6.15-.33-.29-.74-.53-1.27-.73-.44-.17-.84-.24-1.2-.22.1.92-.13 1.82-.84 2.43-.39.33-.86.39-1.27.15-.52-.3-.83-1.02-.72-1.64.13-.71.86-1.28 1.59-1.63-.1-.25-.22-.49-.36-.68-.64-.92-1.8-1.68-3.01-2-1.75-.47-4.21-.11-5.3 1.48-.32.46-.55.89-.71 1.32.54.21 1.16.56 1.43 1.09.2.39.2.82 0 1.24-.38.76-1.02.92-1.48.83-.66-.13-1.17-.77-1.22-1.52-.02-.29 0-.58.03-.87-.9-.06-1.74.26-2.46.94-1.19 1.12-1.96 3.2-1.82 4.96C5 15.7 6.13 17.6 7.87 19c.22.18.26.51.08.73-.1.13-.25.19-.41.19zM19.98 8.22c-.4.23-.73.52-.77.74-.04.23.13.53.23.56.39-.33.55-.81.55-1.3zm-9.82.08c-.02.18-.02.37 0 .55.02.3.22.53.39.56.16.04.27-.13.35-.27.07-.13.05-.21.01-.29-.11-.21-.41-.4-.74-.55z"/><path fill="#006d68" d="M14.45 24.46a7.23 7.23 0 1 0 0-14.46 7.23 7.23 0 0 0 0 14.46M48 43.16H27.33c-.29 0-.52-.23-.52-.52s.23-.52.52-.52h19.63V16.35H24.52c-.29 0-.52-.23-.52-.52s.23-.52.52-.52H48z"/><path fill="#006d68" d="m33.03 37.45-8.53-8.98-5.88 7.56c-.18.23-.5.27-.73.09a.514.514 0 0 1-.09-.73l6.62-8.52 8.45 8.9 5.83-9.16c.15-.24.48-.31.72-.16s.31.48.16.72z"/><path fill="#006d68" d="m41.98 30.13.36-8.27-7.35 3.83z"/></svg>