<svg width="48" height="48" viewBox="0 0 48 48" fill="none" xmlns="http://www.w3.org/2000/svg">
<g style="mix-blend-mode:multiply">
<path d="M13.66 26.04C21.2 26.04 27.32 32.16 27.32 39.7V48H0V39.7C0 32.16 6.12 26.04 13.66 26.04Z" fill="#A5C352"/>
</g>
<path d="M7.53001 19.94C7.42001 19.94 7.30001 19.9 7.20001 19.83C5.24001 18.25 3.97001 16.08 3.81001 14.03C3.65001 11.95 4.53001 9.57 5.96001 8.23C6.94001 7.31 8.11001 6.91 9.37001 7.03C9.56001 6.49 9.85001 5.94 10.24 5.37C11.6 3.39 14.57 2.92 16.66 3.47C18.12 3.85 19.46 4.75 20.25 5.87C20.46 6.16 20.63 6.48 20.76 6.82C20.81 6.82 20.85 6.81 20.9 6.8C21.43 6.76 22 6.85 22.59 7.08C23.23 7.33 23.74 7.63 24.16 7.99C26.31 9.85 26.39 13.1 25.36 15.36C24.61 16.97 23.27 18.44 21.46 19.63C21.22 19.79 20.9 19.72 20.74 19.48C20.58 19.24 20.65 18.92 20.89 18.76C22.53 17.68 23.75 16.35 24.41 14.93C25.28 13.03 25.24 10.31 23.47 8.78C23.14 8.49 22.73 8.25 22.2 8.05C21.76 7.88 21.36 7.81 21 7.83C21.1 8.75 20.87 9.65 20.16 10.26C19.77 10.59 19.3 10.65 18.89 10.41C18.37 10.11 18.06 9.39 18.17 8.77C18.3 8.06 19.03 7.49 19.76 7.14C19.66 6.89 19.54 6.65 19.4 6.46C18.76 5.54 17.6 4.78 16.39 4.46C14.64 3.99 12.18 4.35 11.09 5.94C10.77 6.4 10.54 6.83 10.38 7.26C10.92 7.47 11.54 7.82 11.81 8.35C12.01 8.74 12.01 9.17 11.81 9.59C11.43 10.35 10.79 10.51 10.33 10.42C9.67001 10.29 9.16001 9.65 9.11001 8.9C9.09001 8.61 9.11001 8.32 9.14001 8.03C8.24001 7.97 7.40001 8.29 6.68001 8.97C5.49001 10.09 4.72001 12.17 4.86001 13.93C5.00001 15.7 6.13001 17.6 7.87001 19C8.09001 19.18 8.13001 19.51 7.95001 19.73C7.85001 19.86 7.70001 19.92 7.54001 19.92L7.53001 19.94ZM19.98 8.22C19.58 8.45 19.25 8.74 19.21 8.96C19.17 9.19 19.34 9.49 19.44 9.52C19.83 9.19 19.99 8.71 19.99 8.22H19.98ZM10.16 8.3C10.14 8.48 10.14 8.67 10.16 8.85C10.18 9.15 10.38 9.38 10.55 9.41C10.71 9.45 10.82 9.28 10.9 9.14C10.97 9.01 10.95 8.93 10.91 8.85C10.8 8.64 10.5 8.45 10.17 8.3H10.16Z" fill="#006D68"/>
<path d="M14.45 24.46C18.443 24.46 21.68 21.223 21.68 17.23C21.68 13.237 18.443 10 14.45 10C10.457 10 7.21997 13.237 7.21997 17.23C7.21997 21.223 10.457 24.46 14.45 24.46Z" fill="#006D68"/>
<path d="M48 43.16H27.33C27.04 43.16 26.81 42.93 26.81 42.64C26.81 42.35 27.04 42.12 27.33 42.12H46.96V16.35H24.52C24.23 16.35 24 16.12 24 15.83C24 15.54 24.23 15.31 24.52 15.31H48V43.16Z" fill="#006D68"/>
<path d="M33.03 37.45L24.5 28.47L18.62 36.03C18.44 36.26 18.12 36.3 17.89 36.12C17.66 35.94 17.62 35.62 17.8 35.39L24.42 26.87L32.87 35.77L38.7 26.61C38.85 26.37 39.18 26.3 39.42 26.45C39.66 26.6 39.73 26.93 39.58 27.17L33.03 37.45Z" fill="#006D68"/>
<path d="M41.98 30.13L42.34 21.86L34.99 25.69L41.98 30.13Z" fill="#006D68"/>
</svg>
