<svg xmlns="http://www.w3.org/2000/svg" width="50" height="50" fill="none" viewBox="0 0 50 50"><g clip-path="url(#a)"><path fill="#a5c352" d="M48.95 39.47 32.68 7.32c-1.32-2.6-5.03-2.6-6.34 0L10.06 39.47c-1.2 2.36.52 5.16 3.17 5.16h32.54c2.65 0 4.37-2.79 3.17-5.16z"/><path fill="#006d68" d="m22.74 15.22-4.2 13.82-2.13-1.99c1.81-.44 9.59-2.31 11.25-2.71-.25.47-8.95 17.07-9.54 18.18l6.39-16.98 1.35 1.53-8.45 3.18-2.64.99c.31-1.79 2.61-15.1 2.98-17.22l5 1.19z"/><path stroke="#006d68" stroke-miterlimit="10" stroke-width="1.45" d="M36.77 44.63H4.22c-2.65 0-4.37-2.8-3.17-5.16L17.32 7.32c1.32-2.6 5.03-2.6 6.34 0l16.27 32.15c1.2 2.36-.52 5.16-3.17 5.16z"/></g><defs><clipPath id="a"><path fill="#fff" d="M0 0h50v50H0z"/></clipPath></defs></svg>