<svg xmlns="http://www.w3.org/2000/svg" width="48" height="48" fill="none" viewBox="0 0 48 48"><path fill="#aecc53" d="M31.764 1.545A18.4 18.4 0 0 0 25.322.128c-2.94.016-5.814 1.208-8.528 2.456-4.993 2.279-8.907 5.846-13.03 9.478C.454 15.026-.093 21.09.012 25.221c0 .499 0 1.006.048 1.505.028 1.54.3 3.064.805 4.518.838 2.303 2.843 4.252 4.365 6.145a23.3 23.3 0 0 0 5.468 5.234c2.504 1.667 6.088 4.518 9.172 4.775 3.898.33 6.87.491 10.614-.676 3.978-1.24 8.343-3.052 11.226-6.225 1.506-1.667 2.488-4.026 3.607-5.983a18.95 18.95 0 0 0 2.52-12.193c-.587-4.541-2.367-8.052-4.251-12.079-2.432-5.226-6.708-6.772-11.822-8.697" opacity=".2"/></svg>