<svg xmlns="http://www.w3.org/2000/svg" width="48" height="48" fill="none" viewBox="0 0 48 48"><path fill="#a5c352" d="M1.44 29.81c-.19 0-.37-.1-.47-.27-.16-.26-.07-.6.19-.75L40.92 5.12c.26-.16.6-.07.75.19.16.26.07.6-.19.75L1.72 29.73c-.09.05-.19.08-.28.08"/><path fill="#a5c352" d="m42.2 9.47 3.75-6.7-7.68.1z"/><path fill="#006d68" d="M35.79 42.25h3.16c3.3 0 6.14-2.09 7.27-5.01.5-1.29.54-2.72.17-4.06l-4.95-17.81c-1.14-4.12-6.97-4.12-8.12 0-1.99 7.15-4.13 14.84-4.96 17.81-.37 1.34-.34 2.77.16 4.07 1.13 2.92 3.97 5 7.27 5"/><path fill="#a5c352" d="M37.37 46.88c-.35 0-.64-.29-.64-.64V21.98c0-.35.29-.64.64-.64s.64.29.64.64v24.26c0 .35-.29.64-.64.64"/><path fill="#a5c352" d="M35.92 22.06c0-.8.65-1.44 1.44-1.44s1.44.65 1.44 1.44-.65 1.44-1.44 1.44-1.44-.65-1.44-1.44"/><path fill="#006d68" d="M18.36 42.25h2.02c2.12 0 3.93-1.23 4.66-2.96.32-.76.34-1.61.11-2.4l-3.17-10.52c-.73-2.43-4.47-2.43-5.2 0-1.27 4.22-2.65 8.76-3.18 10.52-.24.79-.22 1.64.1 2.4.72 1.72 2.54 2.96 4.66 2.96"/><path fill="#a5c352" d="M19.37 47.3c-.35 0-.64-.29-.64-.64V30.41c0-.35.29-.64.64-.64s.64.29.64.64v16.25c0 .35-.29.64-.64.64"/><path fill="#006d68" d="M5.34 42.3h1.39c1.45 0 2.7-.8 3.19-1.91.22-.49.24-1.04.07-1.55l-2.17-6.8c-.5-1.57-3.06-1.57-3.56 0-.87 2.73-1.81 5.67-2.18 6.8-.16.51-.15 1.06.07 1.55.49 1.11 1.74 1.91 3.19 1.91"/><path fill="#a5c352" d="M6.03 47.3c-.35 0-.64-.29-.64-.64v-10.5c0-.35.29-.64.64-.64s.64.29.64.64v10.5c0 .35-.29.64-.64.64"/><path fill="#a5c352" d="M46.01 47.53H1.74c-.29 0-.53-.24-.53-.53s.24-.53.53-.53h44.27c.29 0 .53.24.53.53s-.24.53-.53.53"/></svg>