<svg xmlns="http://www.w3.org/2000/svg" width="600" height="571" fill="none" viewBox="0 0 600 571"><rect width="600" height="570" y=".628" fill="#ebf2d4" rx="16"/><path fill="#fff" d="M374.44 318.448c-1.3-14.18-2.14-28.69-2.87-41.49-.24-4.06-.32-8.25-.41-12.3-.08-4.21-.18-8.5-.43-12.76.06-.18.09-.37.04-.56-.02-.06-.06-.11-.08-.16-.28-4.45-.75-8.87-1.59-13.19-.45-2.3-1.08-4.92-2.9-6.8-2.44-2.5-6.4-3.17-12.12-2.06-6.03 1.17-10.58 2.94-13.95 5.48.51.16.98.34 1.41.52.24.1-2.1 1.75-2 2 .1.24-.9-1.24-1-1-.1.25-.26.29-.46.25.63-.64 1.31-1.23 2.05-1.77-4.32-1.43-11.03-2.16-14.24-.97-8.78 3.28-12.33 11.1-14.65 18.31-1.36 4.23-1.79 8.45-1.69 12.63-3.53-3.42-8.69-4.97-13.79-3.98-5.48 1.06-9.53 4.77-10.84 9.93-1.66 6.57 1.94 12.46 5.68 17.35 3.41 4.47 5.88 9.88 8.28 15.12l.09.19c.59 1.29 1.17 2.58 1.78 3.85 3.78 7.98-1.62 16.44-8.46 27.15l-.2.31c-.06.09-.08.19-.11.28-9.24.24-19.59-2.27-24.92-6.97-4.33-3.81-8.01-9.2-10.08-14.78-.9-2.42-1.32-5.01-1.72-7.51-.58-3.55-1.18-7.23-3.13-10.68-2.87-5.07-7.73-8.96-13.31-10.65-2.86-.86-5.88-1.14-8.85-.85a.95.95 0 0 0-1.18-.15c-.14.09-.24.21-.32.35-2.3.37-4.55 1.08-6.64 2.13-2.27 1.14-3.84 2.46-4.82 4.04-1.95 3.12-2.04 7.42-1.72 11.67-.27.33-.31.8-.06 1.17.05.06.11.11.17.16.08.84.16 1.68.25 2.5.2 2.02.4 3.93.41 5.55.05 8.74.53 17.58.99 25.08.85 13.52 3.69 26.92 8.26 39.66 2.15 6 4.5 12.42 7.83 17.88 3.35 5.49 18.09-10.95 24.4-12.25 29-6 37-6 71-1 12.74 1.87 23.69 7.5 30.33-3.18 6.56-10.57 11.25-22.32 13.51-34.56 1.1-6 2.28-12.97 2.26-19.67-.01-1.49-.07-2.93-.2-4.27"/><path fill="#849e2a" d="M374.7 318.418c-1.31-14.16-2.14-28.68-2.87-41.48-.23-4.05-.32-8.24-.4-12.29-.18-8.85-.38-18-2.07-26.71-.45-2.34-1.1-5-2.97-6.93-2.5-2.57-6.54-3.26-12.35-2.13-6.84 1.33-11.79 3.43-15.29 6.53.04-.19.04-.39-.03-.57a.97.97 0 0 0-.52-.53c-4.11-1.75-8.71-2-12.3-.66-8.78 3.28-12.33 11.1-14.65 18.31-1.36 4.23-1.79 8.45-1.69 12.63-3.53-3.42-8.7-4.97-13.79-3.98-5.48 1.06-9.54 4.77-10.84 9.93-1.66 6.57 1.94 12.46 5.68 17.35 3.41 4.46 5.88 9.88 8.27 15.11l.11.23c.58 1.28 1.17 2.55 1.76 3.81 3.78 7.98-1.62 16.44-8.46 27.15l-.2.31s0 .02-.01.03c-9.2.26-19.54-2.23-24.85-6.91-4.3-3.79-7.95-9.14-10-14.68-.89-2.39-1.29-4.85-1.71-7.46-.58-3.58-1.18-7.28-3.16-10.76-2.91-5.14-7.82-9.06-13.46-10.77-2.99-.91-6.15-1.16-9.24-.82-.27-.1-.58-.1-.85.06-.03.02-.04.04-.06.06-2.43.36-4.81 1.08-7.02 2.19-2.31 1.17-3.91 2.51-4.92 4.13-2.06 3.31-2.08 7.87-1.72 12.31-.01.12 0 .24.03.37.09 1.01.19 2.01.29 2.99.21 2.01.4 3.91.41 5.52.05 8.74.53 17.59 1 25.09 1.31 21.14 7.68 42.79 17.92 60.95l1.74-.98c-10.09-17.9-16.37-39.25-17.66-60.09-.37-6-.75-12.86-.91-19.83h.03c.1 0 .2-.02.3-.05 1.46-.47 2.41-.66 3.41-.86.47-.09.95-.19 1.48-.31 5.44-1.26 9.92-6.59 10.91-12.95.8-5.18-.41-11.68-3.02-16.72 2.47-.14 4.96.12 7.33.84 5.16 1.56 9.65 5.15 12.3 9.84 1.8 3.17 2.34 6.54 2.92 10.1.42 2.58.85 5.26 1.81 7.83 2.17 5.85 6.02 11.49 10.56 15.49 9.06 7.98 30.79 10.01 40.79 3.82 4.66-2.88 8.66-5.99 11.88-9.21 12.4-11.47 18.4-26.31 16.89-41.78-.69-7.08-1.16-14.75-1.44-23.44-.23-7.06-.44-13.73 3.93-19.37 2.5-3.22 6.27-5.53 11.67-7.14.29 1.58.42 3.17.55 4.74.35 4.28.69 8.32 4.01 11.97 2.94 3.22 6.1 4.72 9.96 4.72 1.44 0 3.02-.22 4.87-.65.22 3.98.31 7.98.39 11.91.08 4.07.17 8.28.41 12.36.74 12.82 1.57 27.35 2.88 41.55.12 1.3.18 2.69.19 4.12.02 6.55-1.14 13.42-2.23 19.34-2.85 15.49-9.77 30.55-20 43.55l1.57 1.24c10.43-13.25 17.48-28.61 20.39-44.42 1.11-6.01 2.29-12.99 2.26-19.71 0-1.5-.07-2.94-.2-4.3zm-151.92-16.29c2.88 1.11 5.26 3.81 5.93 6.73 0 .01.01.02.01.04-1.65 1.96-3.76 3.36-6.06 3.9-.51.12-.97.21-1.43.3-.96.19-1.97.4-3.39.84-.02-1.06-.03-2.12-.04-3.18 0-1.71-.21-3.66-.42-5.72-.09-.84-.18-1.71-.25-2.58 1.7-.96 3.68-1.08 5.65-.33m-4.29-11.5c.81-1.29 2.15-2.41 4.12-3.4 1.96-.99 4.08-1.64 6.25-1.98 2.7 4.77 3.99 11.16 3.21 16.2-.31 1.98-1 3.84-1.96 5.47-1.18-2.92-3.69-5.47-6.64-6.6-2.23-.86-4.49-.82-6.51.06-.21-3.66-.04-7.23 1.52-9.74zm84.02 15.57c-.57-1.2-1.13-2.42-1.69-3.65.25.02.5.06.75.06 1.42 0 2.94-.39 4.39-1.13 1.94-.99 3.53-2.41 5.06-3.79.2-.17.31-.41.33-.67a.95.95 0 0 0-.25-.71.98.98 0 0 0-1.39-.06c-1.44 1.29-2.93 2.62-4.63 3.49-1.81.92-3.64 1.16-5.15.67-.03-.01-.07 0-.1-.01-2.19-4.77-4.53-9.58-7.68-13.7-3.46-4.52-6.8-9.93-5.34-15.69 1.12-4.41 4.6-7.58 9.32-8.5 5.2-1.01 10.48.98 13.46 5.06.03.05.08.07.12.11.4 4.89 1.4 9.73 2.4 14.5.8 3.84 1.63 7.81 2.12 11.73 1.72 13.85-1.8 28.19-9.19 37.42-.08.1-.14.22-.18.34-2.78 1.5-6.42 2.39-10.4 2.72 6.9-10.82 12.18-19.47 8.04-28.2zm33.87-68.29c-4.82 6.21-4.58 13.56-4.35 20.66.28 8.74.76 16.45 1.45 23.57 1.45 14.84-4.33 29.08-16.29 40.15-2.31 2.31-5.02 4.55-8.1 6.68 5.95-9.52 8.65-22.61 7.07-35.29-.33-2.62-.8-5.25-1.32-7.84 1.42.4 2.86.61 4.28.61 2.7 0 5.39-.69 8.23-2.11.48-.24.68-.83.44-1.31a.99.99 0 0 0-1.31-.44c-4.27 2.13-8.1 2.47-12.06 1.07h-.02c-.13-.63-.26-1.26-.39-1.88-2-9.58-4.06-19.49-.92-29.25 2.28-7.11 5.5-14.09 13.47-17.08 3.08-1.15 7.23-.91 10.85.63.17.07.35.08.53.05-.56.56-1.09 1.15-1.57 1.77zm20.06 9.77c1.83-4.85 5.67-7 11.09-6.23.13.02.27.01.39-.02.47 3.09.78 6.23.99 9.38-4.9 1.2-8.82 1.05-12.69-2.81.09-.09.16-.2.21-.32zm-2.03-16.84c5.1-.99 8.55-.48 10.54 1.57 1.49 1.53 2.04 3.86 2.44 5.92.07.39.13.78.2 1.17-6.02-.79-10.52 1.66-12.74 6.93-2.15-2.94-2.43-6.31-2.73-9.87-.13-1.63-.27-3.32-.59-5.04 0-.01 0-.02-.01-.03.92-.23 1.88-.44 2.89-.64z"/><path fill="#006d68" d="M293.15 381.458c38.18 0 69.86 17.7 75.9 40.91.69-4.32 1.04-7.7 1.04-9.77 0-27.05-34.45-48.97-76.94-48.97s-76.94 21.93-76.94 48.97c0 4.43.03 9.16.21 14.17 2.95-25.33 36.17-45.3 76.73-45.3z"/><path fill="#aecc53" d="M361.47 524.128s7.49-84.07 7.49-93.69c0-26.37-34-47.83-75.8-47.83s-75.8 21.46-75.8 47.83c0 18.56 7.58 93.69 7.58 93.69h-2.29s-7.57-75.1-7.57-93.69c0-27.63 35.03-50.11 78.08-50.11s78.08 22.48 78.08 50.11c0 9.83-7.47 93.69-7.47 93.69z"/><path fill="#bed675" d="M274.32 187.698h-68.51l88.87-140.52-.85 169.62z"/><path fill="#a9c753" d="m294.68 218.058-20.36-31.63 20.36-139.25z" style="mix-blend-mode:multiply"/><path fill="#adcb53" d="M310.11 154.468c-.37 0-.7-.27-.76-.65l-15.43-105.76a.768.768 0 1 1 1.52-.22l15.43 105.76c.06.42-.23.81-.65.87zm4.92 34c-.37 0-.7-.27-.76-.66l-2.8-19.33c-.06-.42.23-.81.65-.87.39-.06.8.23.87.65l2.8 19.33c.06.42-.23.81-.65.87h-.11z"/><path fill="#adcb53" d="M294.68 218.908c-.28 0-.54-.14-.7-.37l-20.1-29.99h-67.83c-.47 0-.84-.38-.84-.84s.38-.84.84-.84h68.28c.28 0 .54.14.7.37l19.66 29.32 19.66-29.32c.16-.23.42-.37.7-.37h68.27c.47 0 .84.38.84.84s-.38.84-.84.84H315.5l-20.1 29.99c-.16.23-.42.37-.7.37z"/><path fill="#a9c753" d="M244.07 206.758a.77.77 0 0 1-.73-1.01l4.49-13.7c.13-.4.57-.62.97-.49s.62.56.49.97l-4.49 13.7c-.11.32-.4.53-.73.53m134.64 34.32c-.29 0-.57-.17-.7-.45l-23.69-52.31c-.18-.39 0-.84.38-1.01.38-.18.84 0 1.01.38l23.69 52.31c.18.39 0 .84-.38 1.01-.1.05-.21.07-.32.07zm-157.38-11.7a.77.77 0 0 1-.71-1.06l16.52-40.15a.766.766 0 1 1 1.42.58l-16.52 40.15c-.12.3-.41.47-.71.47zm111.88-15.38c-.34 0-.65-.23-.74-.57l-6.4-24.39c-.11-.41.14-.83.54-.93.42-.11.83.14.93.55l6.4 24.39c.11.41-.14.83-.54.93-.07.02-.13.03-.2.03z"/><path fill="#fff" d="m206.22 187.808-.35-.22 88.63-139.76.36.23z"/><path fill="#adcb53" d="M206.05 188.548a.842.842 0 0 1-.71-1.29l88.63-139.76c.31-.49 1.11-.49 1.43 0l88.63 139.75c.25.39.13.91-.26 1.16s-.91.14-1.16-.26l-87.92-138.63-87.92 138.63c-.16.25-.44.39-.71.39z"/><path stroke="#006d68" stroke-linecap="round" stroke-linejoin="round" stroke-width="2.06" d="M110.409 171.248c-1.44 10.58-10.58 18.8-21.54 18.8s-20.09-8.22-21.54-18.8"/><path fill="#006d68" d="M107.28 171.148c.14-1.7 1.63-2.97 3.33-2.84 1.7.14 2.97 1.63 2.84 3.33s-1.63 2.97-3.33 2.84a3.106 3.106 0 0 1-2.84-3.33m-36.81 0a3.106 3.106 0 0 0-3.33-2.84c-1.7.14-2.97 1.63-2.84 3.33.14 1.7 1.63 2.97 3.33 2.84 1.7-.14 2.97-1.63 2.84-3.33"/><path stroke="#006d68" stroke-linecap="round" stroke-linejoin="round" stroke-width="2.06" d="M121.059 200.908c-1.5 16.41-15.4 29.38-32.18 29.38s-30.69-12.97-32.18-29.38"/><path fill="#006d68" d="M117.94 200.908a3.09 3.09 0 0 1 3.25-2.93 3.09 3.09 0 0 1 2.93 3.25 3.09 3.09 0 0 1-3.25 2.93 3.09 3.09 0 0 1-2.93-3.25m-58.14 0a3.09 3.09 0 0 0-3.25-2.93 3.09 3.09 0 0 0-2.93 3.25 3.09 3.09 0 0 0 3.25 2.93 3.09 3.09 0 0 0 2.93-3.25"/><path stroke="#006d68" stroke-linecap="round" stroke-linejoin="round" stroke-width="2.06" d="M88.88 145.098v142.09"/><path fill="#006d68" d="M85.79 145.258c0-1.71 1.39-3.09 3.09-3.09s3.09 1.39 3.09 3.09-1.39 3.09-3.09 3.09-3.09-1.39-3.09-3.09"/><path stroke="#006d68" stroke-linecap="round" stroke-linejoin="round" stroke-width="1.5" d="M542.039 417.568h-46.88v77.89h46.88z"/><path fill="#a9c753" d="M537.229 425.358h-37.26v14.94h37.26zm0 23.6h-37.26v14.94h37.26zm0 23.6h-37.26v14.94h37.26z"/><path stroke="#006d68" stroke-linecap="round" stroke-linejoin="round" stroke-width="1.5" d="M527.969 409.228h-19.27v8.33h19.27z"/><path stroke="#adcb53" stroke-linecap="round" stroke-linejoin="round" stroke-width="1.54" d="M158.029 288.458h-63.65"/><path stroke="#a9c753" stroke-linecap="round" stroke-linejoin="round" stroke-width="1.54" d="M178.689 288.458H64.029"/><path stroke="#adcb53" stroke-linecap="round" stroke-linejoin="round" stroke-width="1.54" d="M164.649 287.478v-47.68"/><path fill="#adcb53" d="M164.649 243.448a3.48 3.48 0 1 0 0-6.96 3.48 3.48 0 0 0 0 6.96"/><path stroke="#adcb53" stroke-linecap="round" stroke-linejoin="round" stroke-width="1.54" d="M175.58 287.238v-34.58"/><path fill="#adcb53" d="M179.06 252.828c0-1.92-1.56-3.48-3.48-3.48s-3.48 1.56-3.48 3.48 1.56 3.48 3.48 3.48 3.48-1.56 3.48-3.48"/><path stroke="#a9c753" stroke-linecap="round" stroke-linejoin="round" stroke-width="1.54" d="m115.369 269.988 8.92-18.74c4.2-8.82 16.76-8.82 20.96 0l15.57 37.2"/><path stroke="#a9c753" stroke-linecap="round" stroke-linejoin="round" stroke-width="1.54" d="M122.449 283.848c2.75-5.99 5.5-11.97 8.25-17.96 1.08-2.35 2.19-4.75 3.93-6.66 2.52-2.77 6.15-3.53 9.63-2.26 1.02.37 3.94 2.07 5.03 3.93m-50.339 26.62 7.549-16.04c1.96-4.11 7.8-4.11 9.76 0l7.64 16.04m33.72-7.06c-1.9-3.51-4.64-7.97-9.14-7.88-2.51.05-4.89 1.31-6.72 3.03-3.71 3.51-5.18 8-7.18 12.52"/><path fill="#006d68" d="M179.239 292.918H64.779v8.78h114.46z"/><path fill="#006d68" d="M179.24 302.298H64.78c-.33 0-.6-.27-.6-.6v-8.78c0-.33.27-.6.6-.6h114.46c.33 0 .6.27.6.6v8.78c0 .33-.27.6-.6.6m-113.86-1.2h113.27v-7.59H65.38z"/><path fill="#706f6f" d="M99.68 376.298h-.01c-.3 0-.54-.261-.54-.561.09-4.11-.03-7.97-.13-11.37-.29-9.75-.5-16.8 3.989-21.03 4.12-3.88 12.15-5.039 26.06-3.789 3.22-.04 5.98.01 8.42.06 6.36.12 9.87.18 11.56-1.53 2.01-2.03 1.89-6.78 1.61-17.19v-.391a.53.53 0 0 1 .52-.559c.3 0 .55.229.56.529v.391c.29 10.73.42 15.63-1.92 17.99-2.02 2.04-5.69 1.98-12.36 1.85-2.43-.04-5.18-.09-8.44-.06-13.62-1.23-21.4-.15-25.27 3.49-4.14 3.9-3.93 10.73-3.65 20.2.1 3.41.22 7.279.13 11.419 0 .3-.25.541-.55.541z"/><path fill="#706f6f" d="M100.879 375.688a1.24 1.24 0 1 1-2.48 0 1.24 1.24 0 0 1 2.48 0m51.54-55.17c-.02-.68-.58-1.22-1.26-1.21-.68.02-1.22.58-1.21 1.26.02.68.58 1.22 1.27 1.21.68-.02 1.22-.58 1.21-1.26zm-49.569 55.78a.55.55 0 0 1-.55-.53c-.76-19.39-.38-28.2 3.95-32.62 4.03-4.11 11.12-3.98 23.99-3.73 4.2.08 8.97.17 14.43.13.3 0 .55.24.55.54s-.24.55-.54.55c-5.48.04-10.25-.05-14.46-.13-12.56-.24-19.49-.38-23.19 3.4-4.02 4.1-4.37 13.13-3.64 31.81.01.3-.22.56-.53.57h-.02z"/><path fill="#706f6f" d="M104.109 375.658c.02.68-.52 1.25-1.21 1.27s-1.25-.52-1.27-1.21.52-1.25 1.21-1.27 1.25.52 1.27 1.21m40.501-34.34c.68 0 1.24-.55 1.24-1.23s-.55-1.24-1.23-1.24-1.24.55-1.24 1.23.55 1.24 1.23 1.24"/><path fill="#706f6f" d="M96.4 376.297c-.3 0-.55-.25-.55-.55v-22.03c0-4.79 1.13-8.22 3.46-10.5 4.18-4.1 11.75-3.94 20.52-3.76 1.92.04 3.9.08 5.94.08h18.92c.3 0 .55.25.55.55s-.25.55-.55.55h-18.92c-2.04 0-4.03-.04-5.96-.08-8.52-.18-15.87-.33-19.73 3.44-2.1 2.06-3.13 5.24-3.13 9.71v22.03c0 .3-.25.55-.55.55z"/><path fill="#706f6f" d="M97.63 375.688c0 .68-.55 1.24-1.24 1.24s-1.24-.55-1.24-1.24.55-1.24 1.24-1.24 1.24.55 1.24 1.24m46.99-34.36c.68 0 1.24-.55 1.24-1.24s-.55-1.24-1.24-1.24-1.24.55-1.24 1.24.55 1.24 1.24 1.24m-44.99 81.06c-.3 0-.54-.24-.55-.54-.03-2.34-.07-4.53-.11-6.59-.27-13.92-.42-21.59 3.859-25.77 4.61-4.51 14.13-4.64 33.26-3.85 1.29-.18 2.9-.09 4.6 0 4.19.22 8.53.45 9.69-3.4.09-.29.39-.45.68-.37.29.09.45.39.37.68-1.41 4.67-6.4 4.4-10.8 4.17-1.65-.09-3.2-.17-4.49 0-19.61-.8-28.43-.48-32.55 3.54-3.93 3.85-3.79 11.35-3.53 24.97.04 2.06.08 4.25.11 6.6 0 .3-.24.55-.54.56"/><path fill="#706f6f" d="M100.859 421.758a1.24 1.24 0 1 1-2.48.04 1.24 1.24 0 0 1 2.48-.04m51.23-39.03c.15-.67-.27-1.33-.94-1.48s-1.33.27-1.48.94.27 1.33.94 1.48 1.33-.27 1.48-.94m-49.239 39.66a.55.55 0 0 1-.55-.53c-.76-19.39-.38-28.2 3.95-32.62 4.03-4.11 11.12-3.97 23.99-3.73 4.2.08 8.97.17 14.43.13.35-.01.55.24.55.54s-.24.55-.54.55c-5.48.04-10.25-.05-14.46-.13-12.56-.25-19.49-.38-23.19 3.4-4.02 4.1-4.37 13.13-3.64 31.81.01.3-.22.56-.53.57h-.02z"/><path fill="#706f6f" d="M104.109 421.748a1.24 1.24 0 0 1-2.48.07 1.24 1.24 0 0 1 1.21-1.27c.69-.02 1.25.52 1.27 1.21zm40.501-34.33c.68 0 1.24-.55 1.24-1.23s-.55-1.24-1.23-1.24-1.24.55-1.24 1.23.55 1.24 1.23 1.24"/><path fill="#706f6f" d="M96.4 422.387c-.3 0-.55-.25-.55-.55v-22.03c0-4.79 1.13-8.22 3.46-10.5 4.18-4.1 11.75-3.94 20.52-3.76 1.92.04 3.9.08 5.93.08h18.92c.3 0 .55.25.55.55s-.25.55-.55.55h-18.92c-2.04 0-4.03-.04-5.96-.08-8.52-.18-15.87-.33-19.73 3.44-2.1 2.06-3.13 5.24-3.13 9.71v22.03c0 .3-.25.55-.55.55z"/><path fill="#706f6f" d="M97.63 421.778c0 .68-.55 1.24-1.24 1.24s-1.24-.55-1.24-1.24.55-1.24 1.24-1.24 1.24.55 1.24 1.24m46.99-34.36a1.24 1.24 0 1 0-.001-2.481 1.24 1.24 0 0 0 .001 2.481m-44.99 77.23c-.3 0-.54-.24-.55-.54-.03-2.34-.07-4.53-.11-6.59-.27-13.92-.42-21.59 3.859-25.77 4.61-4.51 14.13-4.64 33.26-3.85 1.3-.18 2.9-.09 4.6 0 4.2.22 8.53.45 9.69-3.4.09-.29.39-.45.68-.37.29.09.45.39.37.68-1.41 4.67-6.4 4.41-10.8 4.17-1.65-.09-3.2-.17-4.49 0-19.61-.8-28.43-.48-32.55 3.54-3.93 3.85-3.79 11.35-3.53 24.97.04 2.06.08 4.25.11 6.6 0 .3-.24.55-.54.56"/><path fill="#706f6f" d="M100.859 464.018a1.24 1.24 0 1 1-2.48.04 1.24 1.24 0 0 1 2.48-.04m51.23-39.03c.15-.67-.27-1.33-.94-1.48s-1.33.27-1.48.94.27 1.33.94 1.48 1.33-.27 1.48-.94m-49.239 39.66a.55.55 0 0 1-.55-.53c-.76-19.39-.38-28.2 3.95-32.62 4.03-4.11 11.12-3.97 23.99-3.73 4.2.08 8.97.17 14.43.13.3 0 .55.24.55.54s-.24.55-.54.55c-5.48.04-10.25-.05-14.46-.13-12.56-.24-19.49-.38-23.19 3.4-4.02 4.1-4.37 13.13-3.64 31.81.01.3-.22.56-.53.57h-.02z"/><path fill="#706f6f" d="M104.109 464.008a1.24 1.24 0 1 1-2.48.06 1.24 1.24 0 0 1 1.21-1.27c.69-.02 1.25.52 1.27 1.21m40.501-34.34c.68 0 1.24-.55 1.24-1.23s-.55-1.24-1.23-1.24-1.24.55-1.24 1.23.55 1.24 1.23 1.24"/><path fill="#706f6f" d="M96.4 464.648c-.3 0-.55-.25-.55-.55v-22.03c0-4.79 1.13-8.22 3.46-10.5 4.18-4.1 11.75-3.94 20.52-3.76 1.92.04 3.9.08 5.94.08h18.92c.3 0 .55.25.55.55s-.25.55-.55.55h-18.92c-2.04 0-4.03-.04-5.96-.08-8.52-.18-15.87-.33-19.73 3.44-2.1 2.06-3.13 5.24-3.13 9.71v22.03c0 .3-.25.55-.55.55z"/><path fill="#706f6f" d="M97.63 464.038c0 .68-.55 1.24-1.24 1.24s-1.24-.55-1.24-1.24.55-1.24 1.24-1.24 1.24.55 1.24 1.24m46.99-34.36c.68 0 1.24-.55 1.24-1.24s-.55-1.24-1.24-1.24-1.24.55-1.24 1.24.55 1.24 1.24 1.24"/><path fill="#003834" d="M178.599 301.948H65.029v203.32H178.6z"/><path fill="#006d68" d="M177.75 302.788v201.63H65.87v-201.63zm1.09-1.69H64.78c-.33 0-.6.27-.6.6v203.82c0 .33.27.6.6.6h114.06c.33 0 .6-.27.6-.6v-203.82c0-.33-.27-.6-.6-.6"/><path fill="#006d68" d="M165.09 345.838H78.53c-11.09.3-6.73-17.23-7.54-23.64 0-4.16 3.38-7.54 7.54-7.54h86.56c4.16 0 7.54 3.38 7.54 7.54-.94 6.43 3.64 23.93-7.54 23.64"/><path fill="#000" d="M103.36 333.998H80.87c-2.07 0-3.75-1.68-3.75-3.75s1.68-3.75 3.75-3.75h22.49c4.86-.07 4.87 7.57 0 7.5"/><path fill="#a8c653" d="M118.06 334.488c-2.03 0-4.11-.22-5.31-1.41-.68-.68-1.02-1.61-1-2.77-.02-1.14.31-2.07.99-2.75 1.58-1.56 4.69-1.45 7.19-1.37.8.03 1.56.05 2.15.02 1.5-.02 2.73.63 3.44 1.85.79 1.35.79 3.17 0 4.52-.71 1.21-1.92 1.89-3.42 1.85h-.02c-.59-.04-1.36-.01-2.17.02-.59.02-1.22.04-1.86.04zm0-7.61c-1.89 0-3.79.19-4.81 1.2-.55.54-.8 1.27-.78 2.24-.02.98.24 1.72.78 2.26 1.36 1.34 4.29 1.24 6.64 1.16.82-.03 1.6-.06 2.23-.02 1.21-.02 2.21-.51 2.78-1.49.66-1.13.66-2.66 0-3.79-.57-.98-1.58-1.51-2.79-1.49-.61.04-1.38.01-2.2-.02-.59-.02-1.22-.04-1.85-.04z"/><path fill="#a8c653" d="M119.09 331.558a.49.49 0 0 1-.49-.49v-20.51c0-3.33.87-5.8 2.66-7.56 3.87-3.79 11.3-3.64 20.7-3.45 2.09.04 4.25.09 6.48.09h22.15a.49.49 0 0 1 0 .98h-22.15c-2.23 0-4.41-.04-6.5-.09-8.81-.18-16.43-.33-20.01 3.17-1.6 1.56-2.37 3.81-2.37 6.86v20.51c0 .27-.22.49-.49.49z"/><path fill="#a8c653" d="M119.089 332.118a1.1 1.1 0 1 0 0-2.2 1.1 1.1 0 0 0 0 2.2m3.251-.56a.49.49 0 0 1-.49-.49v-20.51c0-3.27.84-5.68 2.58-7.36 3.65-3.53 10.6-3.31 19.4-3.02 2.53.08 5.15.17 7.87.17h18.9a.49.49 0 0 1 0 .98h-18.9c-2.74 0-5.36-.09-7.9-.17-8.57-.28-15.34-.5-18.69 2.75-1.53 1.49-2.28 3.66-2.28 6.66v20.51c0 .27-.22.49-.49.49z"/><path fill="#a8c653" d="M122.339 332.118a1.1 1.1 0 1 0 0-2.2 1.1 1.1 0 0 0 0 2.2m-6.499-.56a.49.49 0 0 1-.49-.49v-20.51c0-3.33.87-5.8 2.66-7.56 3.87-3.79 11.3-3.64 20.7-3.45 2.09.04 4.25.09 6.48.09h25.4a.49.49 0 0 1 0 .98h-25.4c-2.23 0-4.41-.04-6.5-.09-8.82-.18-16.43-.33-20.01 3.17-1.6 1.56-2.37 3.81-2.37 6.86v20.51c0 .27-.22.49-.49.49z"/><path fill="#a8c653" d="M115.839 332.118a1.1 1.1 0 1 0 0-2.2 1.1 1.1 0 0 0 0 2.2"/><path fill="#000" d="M168.04 324.698h-31.21v11.1h31.21z"/><path fill="#a8c653" d="M82.1 331.318c-1.53 0-1.29-2.43.21-2.13 1.24.22 1.05 2.16-.21 2.13m12.7-1.07a1.071 1.071 0 0 1 2.14 0 1.071 1.071 0 0 1-2.14 0m-6.89 0a1.071 1.071 0 0 1 2.14 0 1.071 1.071 0 0 1-2.14 0m14.85 1.07c-1.53 0-1.3-2.43.21-2.13 1.24.22 1.05 2.16-.21 2.13"/><path fill="#006d68" d="M165.09 391.928H78.53c-11.09.3-6.73-17.23-7.54-23.64 0-4.16 3.38-7.54 7.54-7.54h86.56c4.16 0 7.54 3.38 7.54 7.54-.94 6.43 3.64 23.93-7.54 23.64"/><path fill="#000" d="M168.04 370.788h-31.21v11.1h31.21zm-64.68 9.3H80.87c-2.07 0-3.75-1.68-3.75-3.75s1.68-3.75 3.75-3.75h22.49c4.86-.07 4.87 7.57 0 7.5"/><path fill="#a8c653" d="M118.06 380.508c-2.03 0-4.11-.22-5.31-1.41-.68-.68-1.02-1.61-1-2.77-.02-1.14.31-2.07.99-2.75 1.58-1.56 4.69-1.45 7.19-1.37.8.03 1.56.06 2.15.02 1.51-.03 2.73.63 3.44 1.85.79 1.35.79 3.17 0 4.52-.71 1.21-1.92 1.88-3.42 1.85h-.02c-.59-.04-1.36-.01-2.17.02-.59.02-1.22.04-1.86.04zm0-7.62c-1.89 0-3.79.19-4.81 1.2-.55.54-.8 1.27-.78 2.24-.02.98.24 1.72.78 2.26 1.36 1.34 4.29 1.24 6.64 1.16.82-.03 1.6-.06 2.23-.02 1.23 0 2.21-.51 2.78-1.49.66-1.13.66-2.66 0-3.79-.57-.98-1.56-1.51-2.79-1.49-.6.04-1.38 0-2.2-.02-.59-.02-1.22-.04-1.85-.04zm-35.96 4.53c-2.01-.12-.75-3.15.76-1.84.68.64.17 1.86-.76 1.84m12.7-1.08a1.071 1.071 0 0 1 2.14 0 1.071 1.071 0 0 1-2.14 0m-6.89 0c0-.59.48-1.07 1.08-1.07s1.07.48 1.07 1.07-.48 1.07-1.07 1.07-1.08-.48-1.08-1.07m14.85 1.08c-1.53 0-1.29-2.43.21-2.13 1.24.22 1.05 2.16-.21 2.13"/><path fill="#a8c653" d="M119.03 376.298c-.29 0-.53-.23-.55-.52-.86-17.97-.47-27.94 4.04-32.57 4.14-4.25 11.58-4.08 23.9-3.8 4.85.11 10.35.23 16.78.13 4.55.01 6.58-1.29 6.84-4.43v-34.53c0-.3.24-.55.55-.55s.55.25.55.55v34.57c-.4 4.97-4.73 5.48-7.93 5.48-6.44.1-11.95-.02-16.81-.13-12.02-.27-19.28-.44-23.09 3.47-4.23 4.34-4.58 14.09-3.73 31.75.01.3-.22.56-.52.57h-.03z"/><path fill="#a8c653" d="M120.29 375.648c.02.68-.52 1.25-1.2 1.27s-1.25-.52-1.27-1.2.52-1.25 1.2-1.27 1.25.52 1.27 1.2m51.54-75c0-.68-.55-1.24-1.24-1.24s-1.24.55-1.24 1.24.55 1.24 1.24 1.24 1.24-.55 1.24-1.24m-49.53 75.65a.55.55 0 0 1-.55-.53c-.76-19.39-.38-28.2 3.95-32.62 4.03-4.11 11.12-3.98 23.99-3.73 4.2.08 8.97.17 14.43.13.3 0 .55.24.55.54s-.24.55-.54.55c-5.48.04-10.25-.05-14.46-.13-12.56-.24-19.49-.38-23.19 3.4-4.02 4.1-4.37 13.13-3.64 31.81.01.3-.22.56-.53.57h-.02z"/><path fill="#a8c653" d="M123.55 375.658c.02.68-.52 1.25-1.2 1.27a1.24 1.24 0 0 1-1.27-1.21c-.02-.69.52-1.25 1.21-1.27s1.25.52 1.27 1.21zm40.499-34.34c.68 0 1.24-.55 1.24-1.23s-.55-1.24-1.23-1.24-1.24.55-1.24 1.23.55 1.24 1.23 1.24"/><path fill="#a8c653" d="M115.84 376.297c-.3 0-.55-.25-.55-.55v-22.03c0-4.79 1.13-8.22 3.46-10.5 4.18-4.1 11.75-3.94 20.52-3.76 1.92.04 3.9.08 5.94.08h18.92c.3 0 .55.25.55.55s-.25.55-.55.55h-18.92c-2.04 0-4.03-.04-5.96-.08-8.52-.18-15.87-.33-19.73 3.44-2.1 2.06-3.13 5.24-3.13 9.71v22.03c0 .3-.25.55-.55.55z"/><path fill="#a8c653" d="M117.07 375.688c0 .68-.55 1.24-1.24 1.24s-1.24-.55-1.24-1.24.55-1.24 1.24-1.24 1.24.55 1.24 1.24m46.99-34.36c.68 0 1.24-.55 1.24-1.24s-.55-1.24-1.24-1.24-1.24.55-1.24 1.24.55 1.24 1.24 1.24"/><path fill="#006d68" d="M165.09 438.018H78.53c-11.09.3-6.73-17.23-7.54-23.64 0-4.16 3.38-7.54 7.54-7.54h86.56c4.16 0 7.54 3.38 7.54 7.54-.94 6.43 3.64 23.93-7.54 23.64"/><path fill="#000" d="M168.04 416.878h-31.21v11.1h31.21zm-64.68 9.3H80.87c-2.07 0-3.75-1.68-3.75-3.75s1.68-3.75 3.75-3.75h22.49c4.86-.07 4.87 7.57 0 7.5"/><path fill="#a8c653" d="M82.1 423.508c-1.53 0-1.29-2.43.21-2.13 1.24.21 1.05 2.16-.21 2.13m12.7-1.08a1.071 1.071 0 0 1 2.14 0 1.071 1.071 0 0 1-2.14 0m-6.89 0a1.071 1.071 0 0 1 2.14 0 1.071 1.071 0 0 1-2.14 0m14.85 1.08c-.93.03-1.44-1.2-.76-1.83 1.51-1.32 2.76 1.72.76 1.83m15.3 3.09c-2.03 0-4.11-.22-5.31-1.41-.68-.68-1.02-1.61-1-2.77-.02-1.14.31-2.07.99-2.75 1.58-1.56 4.69-1.45 7.19-1.37.8.03 1.56.05 2.15.02 1.5-.03 2.73.63 3.44 1.85.79 1.35.79 3.17 0 4.52-.71 1.21-1.92 1.89-3.42 1.85h-.02c-.59-.04-1.36-.01-2.17.02-.59.02-1.22.04-1.86.04zm0-7.62c-1.88 0-3.79.2-4.81 1.2-.55.54-.8 1.27-.78 2.24-.02.98.24 1.72.78 2.26 1.36 1.34 4.29 1.24 6.64 1.16.82-.03 1.6-.06 2.23-.02 1.21-.01 2.21-.51 2.78-1.49.66-1.13.66-2.66 0-3.79-.57-.98-1.58-1.49-2.79-1.49-.61.04-1.38.01-2.2-.02-.59-.02-1.22-.04-1.85-.04z"/><path fill="#a8c653" d="M119.03 422.388c-.29 0-.53-.23-.55-.52-.86-17.97-.47-27.94 4.04-32.57 4.14-4.25 11.58-4.08 23.9-3.8 4.85.11 10.35.23 16.78.13 4.55 0 6.58-1.29 6.84-4.43v-32.02c0-.3.24-.55.55-.55s.55.25.55.55v32.07c-.4 4.97-4.73 5.49-7.93 5.48-6.44.1-11.95-.02-16.81-.13-12.02-.27-19.28-.44-23.09 3.47-4.23 4.34-4.58 14.09-3.73 31.75.01.3-.22.56-.52.57z"/><path fill="#a8c653" d="M120.29 421.748c.02.68-.52 1.25-1.2 1.27s-1.25-.52-1.27-1.2.52-1.25 1.2-1.27 1.25.52 1.27 1.2m51.54-72.5c0-.68-.55-1.24-1.24-1.24s-1.24.55-1.24 1.24.55 1.24 1.24 1.24 1.24-.55 1.24-1.24m-49.53 73.14a.55.55 0 0 1-.55-.53c-.76-19.39-.38-28.2 3.95-32.62 4.03-4.11 11.12-3.97 23.99-3.73 4.2.08 8.97.17 14.43.13.3 0 .55.24.55.54s-.24.55-.54.55c-5.48.04-10.25-.05-14.46-.13-12.56-.25-19.49-.38-23.19 3.4-4.02 4.1-4.37 13.13-3.64 31.81.01.3-.22.56-.53.57h-.02z"/><path fill="#a8c653" d="M123.55 421.748c.02.68-.52 1.25-1.2 1.27s-1.25-.52-1.27-1.2a1.24 1.24 0 0 1 1.21-1.27c.69-.02 1.25.52 1.27 1.21zm40.499-34.33c.68 0 1.24-.55 1.24-1.23s-.55-1.24-1.23-1.24-1.24.55-1.24 1.23.55 1.24 1.23 1.24"/><path fill="#a8c653" d="M115.84 422.388c-.3 0-.55-.25-.55-.55v-22.03c0-4.79 1.13-8.22 3.46-10.5 4.18-4.1 11.75-3.94 20.52-3.76 1.92.04 3.9.08 5.93.08h18.92c.3 0 .55.25.55.55s-.25.55-.55.55H145.2c-2.04 0-4.03-.04-5.96-.08-8.52-.18-15.87-.33-19.73 3.44-2.1 2.06-3.13 5.24-3.13 9.71v22.03c0 .3-.25.55-.55.55z"/><path fill="#a8c653" d="M117.07 421.778c0 .68-.55 1.24-1.24 1.24s-1.24-.55-1.24-1.24.55-1.24 1.24-1.24 1.24.55 1.24 1.24m46.99-34.36c.68 0 1.24-.55 1.24-1.24s-.55-1.24-1.24-1.24-1.24.55-1.24 1.24.55 1.24 1.24 1.24"/><path fill="#006d68" d="M165.09 484.048H78.53c-11.09.3-6.73-17.23-7.54-23.64 0-4.16 3.38-7.54 7.54-7.54h86.56c4.16 0 7.54 3.38 7.54 7.54-.94 6.43 3.64 23.93-7.54 23.64"/><path fill="#000" d="M168.04 462.908h-31.21v11.1h31.21zm-64.68 9.3H80.87c-2.07 0-3.75-1.68-3.75-3.75s1.68-3.75 3.75-3.75h22.49c4.86-.07 4.87 7.57 0 7.5"/><path fill="#a8c653" d="M82.1 469.528c-1.53 0-1.29-2.43.21-2.13 1.24.21 1.05 2.16-.21 2.13m12.7-1.07a1.071 1.071 0 0 1 2.14 0 1.071 1.071 0 0 1-2.14 0m-6.89 0a1.071 1.071 0 0 1 2.14 0 1.071 1.071 0 0 1-2.14 0m14.85 1.07c-.93.03-1.44-1.2-.76-1.83 1.51-1.32 2.76 1.72.76 1.83m15.29 3.09c-2.02 0-4.11-.22-5.31-1.41-.68-.68-1.02-1.61-1-2.77-.02-1.14.31-2.07.99-2.75 1.58-1.56 4.69-1.45 7.19-1.37.8.03 1.56.06 2.15.02 1.51-.03 2.73.63 3.44 1.85.79 1.35.79 3.17 0 4.52-.71 1.21-1.9 1.88-3.42 1.85h-.02c-.59-.04-1.36-.01-2.17.02-.59.02-1.23.04-1.86.04zm.01-7.61c-1.89 0-3.79.19-4.81 1.2-.55.54-.8 1.27-.78 2.24-.02.98.24 1.72.78 2.26 1.36 1.34 4.29 1.24 6.64 1.16.82-.03 1.6-.06 2.23-.02 1.23-.01 2.21-.51 2.78-1.49.66-1.13.66-2.66 0-3.79-.57-.98-1.56-1.5-2.79-1.49-.6.04-1.38.01-2.2-.02-.59-.02-1.22-.04-1.85-.04z"/><path fill="#a8c653" d="M119.03 468.908c-.29 0-.53-.23-.55-.52-.86-17.97-.47-27.94 4.04-32.57 4.14-4.25 11.58-4.08 23.9-3.8 4.85.11 10.35.23 16.78.13 4.55 0 6.58-1.29 6.84-4.43v-32.02c0-.3.24-.55.55-.55s.55.25.55.55v32.07c-.4 4.97-4.73 5.48-7.93 5.48-6.44.1-11.95-.02-16.81-.13-12.02-.27-19.28-.44-23.09 3.47-4.23 4.34-4.58 14.09-3.73 31.75.01.3-.22.56-.52.57z"/><path fill="#a8c653" d="M120.29 468.258c.02.68-.52 1.25-1.2 1.27s-1.25-.52-1.27-1.2.52-1.25 1.2-1.27 1.25.52 1.27 1.2m51.54-72.5c0-.68-.55-1.24-1.24-1.24s-1.24.55-1.24 1.24.55 1.24 1.24 1.24 1.24-.55 1.24-1.24m-49.53 73.15a.55.55 0 0 1-.55-.53c-.76-19.39-.38-28.2 3.95-32.62 4.03-4.11 11.12-3.98 23.99-3.73 4.2.08 8.97.17 14.43.13.3 0 .55.24.55.54s-.24.55-.54.55c-5.48.04-10.25-.05-14.46-.13-12.56-.24-19.49-.38-23.19 3.4-4.02 4.1-4.37 13.13-3.64 31.81.01.3-.22.56-.53.57h-.02z"/><path fill="#a8c653" d="M123.55 468.268c.02.68-.52 1.25-1.2 1.27a1.24 1.24 0 0 1-1.27-1.21c-.02-.69.52-1.25 1.21-1.27.68-.02 1.25.52 1.27 1.21zm40.499-34.34c.68 0 1.24-.55 1.24-1.23s-.55-1.24-1.23-1.24-1.24.55-1.24 1.23.55 1.24 1.23 1.24"/><path fill="#a8c653" d="M115.84 468.908c-.3 0-.55-.25-.55-.55v-22.03c0-4.79 1.13-8.22 3.46-10.5 4.18-4.1 11.75-3.94 20.52-3.76 1.92.04 3.9.08 5.94.08h18.92c.3 0 .55.25.55.55s-.25.55-.55.55h-18.92c-2.04 0-4.03-.04-5.96-.08-8.52-.18-15.87-.33-19.73 3.44-2.1 2.06-3.13 5.24-3.13 9.71v22.03c0 .3-.25.55-.55.55z"/><path fill="#a8c653" d="M117.07 468.298c0 .68-.55 1.24-1.24 1.24s-1.24-.55-1.24-1.24.55-1.24 1.24-1.24 1.24.55 1.24 1.24m46.99-34.36c.68 0 1.24-.55 1.24-1.24s-.55-1.24-1.24-1.24-1.24.55-1.24 1.24.55 1.24 1.24 1.24m.219-102.5h-23.73c-.66 0-1.19-.53-1.19-1.19s.53-1.19 1.19-1.19h23.73c.66 0 1.19.53 1.19 1.19s-.53 1.19-1.19 1.19m0 46.09h-23.73c-.66 0-1.19-.53-1.19-1.19s.53-1.19 1.19-1.19h23.73c.66 0 1.19.53 1.19 1.19s-.53 1.19-1.19 1.19m0 46.09h-23.73c-.66 0-1.19-.53-1.19-1.19s.53-1.19 1.19-1.19h23.73c.66 0 1.19.53 1.19 1.19s-.53 1.19-1.19 1.19m0 46.03h-23.73c-.66 0-1.19-.53-1.19-1.19s.53-1.19 1.19-1.19h23.73c.66 0 1.19.53 1.19 1.19s-.53 1.19-1.19 1.19"/><path stroke="#a9c753" stroke-linecap="round" stroke-linejoin="round" stroke-width="1.59" d="M500.59 503.178h42.85m-122.88 0h62.76"/><path stroke="#adcb53" stroke-linecap="round" stroke-linejoin="round" stroke-width="1.72" d="M428.51 502.688v-17.37"/><path fill="#adcb53" d="M428.509 488.708a3.23 3.23 0 1 0 0-6.46 3.23 3.23 0 0 0 0 6.46"/><path stroke="#adcb53" stroke-linecap="round" stroke-linejoin="round" stroke-width="1.72" d="M439.869 502.518v-31.99"/><path fill="#adcb53" d="M439.87 473.918a3.23 3.23 0 1 0 0-6.46 3.23 3.23 0 0 0 0 6.46"/><path fill="#006d68" d="M541.75 284.708v102.01H419.61v-101.71zm1.69-1.7-125.52.31v105.08h125.52z"/><path fill="#a8c653" d="M543.44 269.488H417.92v15.68h125.52z"/><path fill="#006d68" d="m538.192 274.682-1.647-1.647-7 7 1.647 1.648z"/><path fill="#006d68" d="m536.536 281.691 1.648-1.648-7.001-7-1.647 1.647zm-17.926-7.343v6.26h-7.04v-6.26zm1.08-1.08h-9.19v8.41h9.19zm-13.24 6.56h-9.19v1.85h9.19z"/><path fill="#003834" d="M404.85 362.288v-103.39l118.95-.3v103.69z"/><path fill="#006d68" d="M522.96 259.438v102H405.69v-101.71l117.27-.3m1.69-1.68-120.64.31v105.08h120.64z"/><path fill="#006d68" stroke="#006d68" stroke-miterlimit="10" stroke-width=".51" d="M525.039 244.218h-121.43v15.68h121.43z"/><path fill="#a8c653" d="m519.38 249.417-1.648-1.647-7 7 1.648 1.647z"/><path fill="#a8c653" d="m517.74 256.419 1.648-1.648-7.001-7-1.647 1.647zm-16.96-7.341v6.26h-7.04v-6.26zm1.08-1.08h-9.19v8.41h9.19zm-18.11 6.56h-9.19v1.85h9.19z"/><path stroke="#adcb53" stroke-miterlimit="10" stroke-width="2.53" d="M437.78 320.548h77.95"/><path stroke="#006d68" stroke-miterlimit="10" stroke-width="1.69" d="M412.92 320.548h21.72m26.76 11.61h54.33"/><path stroke="#adcb53" stroke-miterlimit="10" stroke-width="2.53" d="M412.92 332.158h42.76m-23.81 11.61h83.86"/><path stroke="#006d68" stroke-miterlimit="10" stroke-width="1.69" d="M412.92 343.768h13.45"/><path stroke="#adcb53" stroke-linecap="round" stroke-linejoin="round" stroke-width="1.43" d="M543.44 193.168c.05 6.38-5.08 11.59-11.46 11.65s-11.59-5.08-11.65-11.46c-.05-6.38 11.41-17.24 11.41-17.24s11.64 10.67 11.69 17.05zm-11.57-2.88.16 24.94m-25.74-22.06c.05 6.38-5.08 11.59-11.46 11.65s-11.59-5.08-11.65-11.46c-.05-6.38 11.41-17.24 11.41-17.24s11.64 10.67 11.69 17.05zm-11.57-2.88.16 24.94"/><path stroke="#adcb53" stroke-linecap="round" stroke-linejoin="round" stroke-width="1.5" d="M453.09 293.138c0 6.2 5.03 11.23 11.23 11.23s11.23-5.03 11.23-11.23c0-4.19-5.12-13.44-8.45-19.01-1.26-2.11-4.32-2.11-5.58 0-3.33 5.57-8.45 14.82-8.45 19.01zm11.23-10.19v27.19"/><path fill="#adcb53" d="M462.061 283.068c0-1.25 1.01-2.26 2.26-2.26s2.26 1.01 2.26 2.26-1.01 2.26-2.26 2.26-2.26-1.01-2.26-2.26"/><path stroke="#adcb53" stroke-linecap="round" stroke-linejoin="round" stroke-width="1.72" d="m442.13 283.698-12.25 9.04 12.25 9.05m44.39-18.09 12.25 9.04-12.25 9.05m-27.111 200.73v-33.31"/><path fill="#fff" d="M461.26 467.268c-2.11-.83-4.34-1.35-6.61-1.54-2.12-.18-4.23.2-6.32-.06-.2-.02-.4-.04-.6-.05-.94-.04-1.72-.8-1.77-1.76l-.1-1.96c-.28-5.56 4.03-10.33 9.59-10.61l1.96-.1c.96-.05 1.79.65 1.93 1.58.03.2.07.39.11.59.22.97.46 1.93.7 2.89"/><path stroke="#fff" stroke-miterlimit="10" stroke-width=".86" d="M461.26 467.268c-2.11-.83-4.34-1.35-6.61-1.54-2.12-.18-4.23.2-6.32-.06-.2-.02-.4-.04-.6-.05-.94-.04-1.72-.8-1.77-1.76l-.1-1.96c-.28-5.56 4.03-10.33 9.59-10.61l1.96-.1c.96-.05 1.79.65 1.93 1.58.03.2.07.39.11.59.22.97.46 1.93.7 2.89"/><path fill="#fff" stroke="#fff" stroke-miterlimit="10" stroke-width=".86" d="M460.08 466.778c.83-.07 1.78-.82 2.57-1.12 1.01-.38 2.07-.65 3.13-.81 1.79-.27 3.62-.23 5.4.13 1.33.27 3.25.1 3.32-1.69l.08-1.96c.22-5.56-4.16-10.28-9.71-10.5l-1.96-.08a1.86 1.86 0 0 0-1.91 1.6c-.03.2-.06.4-.1.59l-1.81 8.36c-.18.87-.37 1.73-.37 2.62s.18 1.81.67 2.55c.09.14.2.28.35.37s.22.01.37-.07z"/><path stroke="#a9c753" stroke-linecap="round" stroke-linejoin="round" stroke-width="1.59" d="M461.26 467.268c-2.11-.83-4.34-1.35-6.61-1.54-2.12-.18-4.23.2-6.32-.06-.2-.02-.4-.04-.6-.05-.94-.04-1.72-.8-1.77-1.76l-.1-1.96c-.28-5.56 4.03-10.33 9.59-10.61l1.96-.1c.96-.05 1.79.65 1.93 1.58.03.2.07.39.11.59.22.97.46 1.93.7 2.89"/><path stroke="#a9c753" stroke-linecap="round" stroke-linejoin="round" stroke-width="1.59" d="M460.08 466.778c.83-.07 1.78-.82 2.57-1.12 1.01-.38 2.07-.65 3.13-.81 1.79-.27 3.62-.23 5.4.13 1.33.27 3.25.1 3.32-1.69l.08-1.96c.22-5.56-4.16-10.28-9.71-10.5l-1.96-.08a1.86 1.86 0 0 0-1.91 1.6c-.03.2-.06.4-.1.59l-1.81 8.36c-.18.87-.37 1.73-.37 2.62s.18 1.81.67 2.55c.09.14.2.28.35.37s.22.01.37-.07z"/><path fill="#a8c653" d="M463.29 465.648c0-2.15-1.74-1.94-3.89-1.94s-3.89-.2-3.89 1.94c0 2.15 1.74 5.83 3.89 5.83s3.89-3.68 3.89-5.83"/></svg>