<svg xmlns="http://www.w3.org/2000/svg" width="32" height="33" fill="none" viewBox="0 0 32 33"><path stroke="#00464b" stroke-linecap="round" stroke-linejoin="round" stroke-width="2.667" d="M21.333 4.681a2.667 2.667 0 0 0-2.667 2.667v8a2.667 2.667 0 0 0 2.667 2.667 1.334 1.334 0 0 1 1.333 1.333v1.333a2.667 2.667 0 0 1-2.667 2.667 1.334 1.334 0 0 0-1.333 1.333v2.667a1.333 1.333 0 0 0 1.333 1.333 8 8 0 0 0 8-8V7.348a2.667 2.667 0 0 0-2.666-2.667zm-14.666 0A2.667 2.667 0 0 0 4 7.348v8a2.667 2.667 0 0 0 2.667 2.667A1.334 1.334 0 0 1 8 19.348v1.333a2.667 2.667 0 0 1-2.667 2.667A1.334 1.334 0 0 0 4 24.68v2.667a1.333 1.333 0 0 0 1.333 1.333 8 8 0 0 0 8-8V7.348a2.667 2.667 0 0 0-2.666-2.667z"/></svg>