<svg xmlns="http://www.w3.org/2000/svg" width="48" height="48" fill="none" viewBox="0 0 48 48"><path fill="#006d68" d="M47.5 25.6c0-9.73-7.89-17.62-17.62-17.62S12.25 15.86 12.25 25.6s7.89 17.62 17.62 17.62c.69 0 1.36-.04 2.03-.12a7.367 7.367 0 0 0 9.64 2.18 7.3 7.3 0 0 1-2.35-3.15c-.17-.44-.3-.89-.38-1.34 5.2-3.06 8.69-8.72 8.69-15.19"/><path fill="#a5c352" d="M.5 19.36C.5 9.64 8.38 1.77 18.09 1.77c9.72 0 17.59 7.88 17.59 17.59 0 9.72-7.88 17.59-17.59 17.59-.68 0-1.36-.04-2.02-.12A7.34 7.34 0 0 1 6.45 39a7.3 7.3 0 0 0 2.73-4.48C3.99 31.47.5 25.83.5 19.36"/></svg>