<svg width="48" height="48" viewBox="0 0 48 48" fill="none" xmlns="http://www.w3.org/2000/svg">
<path d="M47.5 25.6C47.5 15.87 39.61 7.97998 29.88 7.97998C20.15 7.97998 12.25 15.86 12.25 25.6C12.25 35.34 20.14 43.22 29.87 43.22C30.56 43.22 31.23 43.18 31.9 43.1C33.8 45.81 37.37 46.98 40.59 45.73C40.92 45.6 41.24 45.45 41.54 45.28C40.52 44.49 39.69 43.42 39.19 42.13C39.02 41.69 38.89 41.24 38.81 40.79C44.01 37.73 47.5 32.07 47.5 25.6Z" fill="#006D68"/>
<path d="M0.5 19.36C0.5 9.64002 8.38 1.77002 18.09 1.77002C27.81 1.77002 35.68 9.65002 35.68 19.36C35.68 29.08 27.8 36.95 18.09 36.95C17.41 36.95 16.73 36.91 16.07 36.83C14.17 39.54 10.61 40.7 7.4 39.45C7.07 39.32 6.75 39.17 6.45 39C7.47 38.21 8.3 37.15 8.8 35.86C8.97 35.42 9.1 34.97 9.18 34.52C3.99 31.47 0.5 25.83 0.5 19.36Z" fill="#A5C352"/>
</svg>
