<svg xmlns="http://www.w3.org/2000/svg" width="65" height="65" fill="none" viewBox="0 0 65 65"><path fill="#006d68" d="M47.194 10.7s-6.14 9.799-13.743 9.799-13.744-9.8-13.744-9.8S25.847.9 33.451.9c7.603 0 13.743 9.8 13.743 9.8"/><path fill="#acca53" d="M33.45 14.074a3.944 3.944 0 1 0 0-7.888 3.944 3.944 0 0 0 0 7.888"/><path fill="#3c3c3c" d="M23.489 25.947a9 9 0 0 0-5.937-1.504c-2.52.243-4.716 1.504-6.261 3.496-2.765 3.578-2.4 8.702.813 11.914l.325.325c1.748 1.545 3.985 2.318 6.302 2.155.448-.04.773.285.814.692 0 .203-.041.406-.204.569a.66.66 0 0 1-.528.244c-.244 0-.488.04-.691.04-2.48 0-4.88-.894-6.71-2.561l-.366-.366c-3.78-3.741-4.188-9.718-.935-13.906 1.79-2.359 4.392-3.782 7.32-4.066a9.7 9.7 0 0 1 3.252.203L11.9 14.4C.353 25.947.353 44.692 11.9 56.24l20.9-20.9zm-4.717 12.076c-2.52 0-4.595-2.073-4.595-4.594s2.033-4.554 4.595-4.554a4.59 4.59 0 0 1 4.595 4.594c0 2.521-2.074 4.554-4.595 4.554"/><path fill="#006d68" d="M53.74 14.4s-4.92 5-8.823 8.945c.65-.163 1.342-.285 2.033-.326 2.724-.162 5.326.732 7.36 2.562l.365.366c3.782 3.74 4.189 9.718.936 13.906A10.61 10.61 0 0 1 47.235 44h-.326a.66.66 0 0 1-.528-.244c-.122-.162-.204-.325-.204-.528s.082-.407.244-.529c.163-.122.326-.203.529-.203a9.15 9.15 0 0 0 7.481-3.538c2.765-3.578 2.4-8.7-.813-11.913l-.325-.325a8.3 8.3 0 0 0-6.221-2.155c-1.992.121-3.985.853-5.49 2.155-.243.203-1.016.935-1.341 1.22l-.366.365L11.941 56.24c11.548 11.548 30.292 11.548 41.84 0s11.507-30.292-.04-41.84M42.355 34.241a4.57 4.57 0 0 1 5.286-5.286c1.911.325 3.456 1.83 3.741 3.74a4.57 4.57 0 0 1-5.286 5.287c-1.87-.326-3.415-1.87-3.74-3.741"/><path fill="#acca53" fill-rule="evenodd" d="m38.167 44.936-5.326 7.319-5.327-7.32z" clip-rule="evenodd"/></svg>