<svg xmlns="http://www.w3.org/2000/svg" width="48" height="48" fill="none" viewBox="0 0 48 48"><g clip-path="url(#a)"><path fill="#006d68" d="M42.6 45.65c-.18-.18-.41-.29-.65-.31-1.9-.19-3.38-1.84-3.38-3.74l.03-27.89c0-4.04-3.28-7.32-7.32-7.32H1.55c-.42 0-.8.26-.97.67a1.085 1.085 0 0 0 .88 1.49c1.71.18 3.15 1.59 3.33 3.22l.04 28.41c0 4.03 3.29 7.32 7.32 7.32h29.71c.42 0 .8-.26.98-.67.16-.39.07-.87-.24-1.18"/><path fill="#a5c352" d="M47.17 39.77c-.18-.18-.42-.3-.67-.32-1.88-.19-3.35-1.82-3.35-3.7l.03-27.89c0-4.06-3.3-7.36-7.36-7.36H6.1c-.44 0-.83.27-1.01.7-.17.41-.07.9.25 1.22.18.18.42.29.67.32 1.7.18 3.12 1.57 3.3 3.19l.04 28.41c0 4.05 3.3 7.35 7.36 7.35h29.71c.44 0 .83-.27 1.01-.69.17-.41.07-.9-.25-1.22z"/><path fill="#fff" d="M25.28 31.64c-.52 0-1.02-.21-1.39-.59l-7.34-7.67c-.73-.77-.7-1.98.06-2.71.77-.73 1.98-.7 2.71.06l5.51 5.76 8.04-14.94c.5-.93 1.67-1.28 2.6-.78s1.28 1.67.78 2.6l-9.29 17.27c-.29.54-.82.91-1.43.99-.09.01-.17.02-.26.02z"/></g><defs><clipPath id="a"><path fill="#fff" d="M0 0h48v48H0z"/></clipPath></defs></svg>