<svg xmlns="http://www.w3.org/2000/svg" width="48" height="48" fill="none" viewBox="0 0 48 48"><path fill="#006d68" d="M46.85 4.57C46.59 2.03 41.58 0 35.43 0S24.27 2.03 24.01 4.57H24v31.39c1.25-2.7 5.12-4.78 11.43-4.78s10.19 2.08 11.43 4.78V4.57z"/><path fill="#006d68" d="M23.99 4.57C23.73 2.03 18.72 0 12.57 0S1.41 2.03 1.15 4.57v31.39c1.25-2.7 5.12-4.78 11.43-4.78s10.19 2.08 11.43 4.78V4.57z"/><path fill="#fff" d="M43.79 15.4c-1.98-1.24-4.87-1.9-8.36-1.9-3.29 0-6.07.59-8.04 1.71l-.99-1.74c2.27-1.29 5.39-1.97 9.02-1.97 3.87 0 7.13.76 9.42 2.2l-1.06 1.69zm0 7.83c-1.98-1.24-4.87-1.9-8.36-1.9-3.29 0-6.07.59-8.04 1.71l-.99-1.74c2.27-1.29 5.39-1.97 9.02-1.97 3.87 0 7.13.76 9.42 2.2l-1.06 1.69zM21.31 15.4c-1.98-1.24-4.87-1.9-8.36-1.9-3.29 0-6.07.59-8.04 1.71l-.99-1.74c2.27-1.29 5.39-1.97 9.02-1.97 3.87 0 7.13.76 9.42 2.2l-1.06 1.69zm0 7.83c-1.98-1.24-4.87-1.9-8.36-1.9-3.29 0-6.07.59-8.04 1.71l-.99-1.74c2.27-1.29 5.39-1.97 9.02-1.97 3.87 0 7.13.76 9.42 2.2l-1.06 1.69z"/><path fill="#a5c352" d="M28.96 8.71h-9.83V39.9h9.83z"/><path fill="#fff" d="M24.44 8.99h-.79V39.9h.79z"/><path fill="#ebf2d4" d="M28.96 39.9h-9.83l4.92 7.86z"/><path fill="#006d68" d="M26.16 44.39h-4.22l2.11 3.37z"/></svg>