<svg xmlns="http://www.w3.org/2000/svg" width="569" height="153" fill="none" class="h-12 w-auto mx-auto" viewBox="0 0 569 153"><path fill="#3c3c3b" d="M189.77 89.22c-2.37-.73-4.37-1.77-6-3.1l2.15-4.7c1.7 1.3 3.49 2.25 5.38 2.85 1.88.6 3.93.9 6.12.9 2.43 0 4.31-.43 5.62-1.28q1.98-1.275 1.98-3.57c0-1.33-.61-2.35-1.82-3.05-1.22-.7-3.24-1.37-6.08-2-2.93-.63-5.32-1.37-7.15-2.2s-3.22-1.9-4.15-3.2-1.4-2.95-1.4-4.95c0-2.07.57-3.92 1.7-5.55s2.73-2.91 4.8-3.82c2.07-.92 4.45-1.38 7.15-1.38 2.47 0 4.82.38 7.05 1.12 2.23.75 4.07 1.77 5.5 3.07l-2.15 4.7c-3.13-2.5-6.6-3.75-10.4-3.75-2.27 0-4.06.46-5.38 1.38s-1.98 2.19-1.98 3.82c0 1.37.58 2.42 1.75 3.15s3.15 1.42 5.95 2.05q4.455 1.005 7.23 2.22c1.85.82 3.27 1.86 4.25 3.12.98 1.27 1.48 2.87 1.48 4.8 0 2.1-.56 3.94-1.67 5.52-1.12 1.58-2.73 2.8-4.85 3.65s-4.61 1.27-7.48 1.27c-2.7.03-5.23-.34-7.6-1.07m34.47-1.13c-2.58-1.48-4.57-3.59-5.95-6.33-1.38-2.73-2.07-5.92-2.07-9.55s.69-6.81 2.07-9.53 3.37-4.82 5.95-6.3 5.61-2.22 9.07-2.22c2.37 0 4.6.37 6.7 1.1s3.87 1.77 5.3 3.1l-2.15 4.7c-1.6-1.27-3.18-2.19-4.75-2.77a14.3 14.3 0 0 0-5-.88c-3.4 0-6.02 1.1-7.88 3.3-1.85 2.2-2.77 5.37-2.77 9.5 0 4.17.92 7.35 2.77 9.55s4.48 3.3 7.88 3.3c1.77 0 3.43-.29 5-.88 1.57-.58 3.15-1.51 4.75-2.77l2.15 4.7c-1.43 1.33-3.2 2.37-5.3 3.1s-4.33 1.1-6.7 1.1c-3.46.01-6.48-.74-9.07-2.22m26.98-33.47h6.45v35.25h-6.45zm31.95 34.6c-2.37-.73-4.37-1.77-6-3.1l2.15-4.7c1.7 1.3 3.49 2.25 5.38 2.85 1.88.6 3.93.9 6.12.9 2.43 0 4.31-.43 5.62-1.28q1.98-1.275 1.98-3.57c0-1.33-.61-2.35-1.82-3.05-1.22-.7-3.24-1.37-6.08-2-2.93-.63-5.32-1.37-7.15-2.2s-3.22-1.9-4.15-3.2-1.4-2.95-1.4-4.95c0-2.07.57-3.92 1.7-5.55s2.73-2.91 4.8-3.82c2.07-.92 4.45-1.38 7.15-1.38 2.47 0 4.82.38 7.05 1.12 2.23.75 4.07 1.77 5.5 3.07l-2.15 4.7c-3.13-2.5-6.6-3.75-10.4-3.75-2.27 0-4.06.46-5.38 1.38s-1.98 2.19-1.98 3.82c0 1.37.58 2.42 1.75 3.15s3.15 1.42 5.95 2.05q4.455 1.005 7.23 2.22c1.85.82 3.27 1.86 4.25 3.12.98 1.27 1.48 2.87 1.48 4.8 0 2.1-.56 3.94-1.67 5.52-1.12 1.58-2.73 2.8-4.85 3.65s-4.61 1.27-7.48 1.27c-2.7.03-5.23-.34-7.6-1.07m46.67-22.8c1.65 1.07 2.93 2.57 3.85 4.52s1.38 4.19 1.38 6.73c0 2.53-.46 4.75-1.38 6.65s-2.19 3.37-3.82 4.4-3.52 1.55-5.65 1.55c-1.73 0-3.28-.37-4.65-1.1s-2.42-1.75-3.15-3.05v12.75h-6.25V65.42h6.15v3.7q1.095-2.055 3.18-3.18c1.38-.75 2.96-1.12 4.72-1.12 2.1 0 3.97.53 5.62 1.6m-2.67 16.97c1.1-1.35 1.65-3.26 1.65-5.72 0-2.53-.55-4.5-1.65-5.9s-2.63-2.1-4.6-2.1c-2 0-3.54.68-4.62 2.05q-1.62 2.055-1.62 5.85c0 2.5.54 4.43 1.62 5.8s2.62 2.05 4.62 2.05c1.96 0 3.5-.68 4.6-2.03m34.5-4.63h-16.65c.2 2.27.88 3.95 2.05 5.05s2.83 1.65 5 1.65c2.7 0 5.17-.87 7.4-2.6l1.8 4.3c-1.13.93-2.56 1.68-4.27 2.25-1.72.57-3.44.85-5.17.85-4 0-7.16-1.13-9.48-3.4q-3.48-3.405-3.48-9.3c0-2.5.5-4.72 1.5-6.65q1.5-2.895 4.23-4.5c1.82-1.07 3.88-1.6 6.17-1.6 3.37 0 6.03 1.08 7.98 3.25s2.93 5.15 2.93 8.95v1.75zm-14.78-7.94c-1.02 1.07-1.64 2.6-1.88 4.6h11.3q-.105-3.045-1.5-4.62c-.93-1.05-2.23-1.57-3.9-1.57q-2.49-.015-4.02 1.59m24.35 17.9c-1.88-1.03-3.33-2.5-4.33-4.4s-1.5-4.12-1.5-6.65.52-4.78 1.58-6.73c1.05-1.95 2.54-3.46 4.48-4.52 1.93-1.07 4.17-1.6 6.7-1.6 1.73 0 3.43.28 5.08.82 1.65.55 2.98 1.29 3.98 2.23l-1.8 4.4c-1.03-.83-2.12-1.47-3.27-1.9s-2.29-.65-3.42-.65c-2.17 0-3.85.67-5.05 2.02q-1.8 2.025-1.8 5.82c0 2.5.6 4.43 1.8 5.78s2.88 2.02 5.05 2.02c1.13 0 2.27-.22 3.42-.65s2.24-1.07 3.27-1.9l1.8 4.35c-1.07.97-2.43 1.72-4.1 2.27s-3.4.82-5.2.82c-2.58.01-4.8-.5-6.69-1.53m26.48-34.65v6.15h-6.9v-6.15zm-6.55 11.35h6.25v24.45h-6.25zm20.65 0h16.15v24.45h-6.25V70.12h-9.9v19.75h-6.25V70.12h-4.7v-4.7h4.7c0-3.53.93-6.19 2.8-7.98 1.87-1.78 4.68-2.76 8.45-2.93l2.15-.1.3 4.65-2.35.1c-1.87.1-3.18.56-3.95 1.38s-1.15 2.04-1.15 3.68zm16.55-11.41v6.25h-7v-6.25zm10.57 34.71c-1.88-1.03-3.33-2.5-4.33-4.4s-1.5-4.12-1.5-6.65.52-4.78 1.58-6.73c1.05-1.95 2.54-3.46 4.48-4.52 1.93-1.07 4.17-1.6 6.7-1.6 1.73 0 3.43.28 5.08.82 1.65.55 2.98 1.29 3.98 2.23l-1.8 4.4c-1.03-.83-2.12-1.47-3.27-1.9s-2.29-.65-3.42-.65c-2.17 0-3.85.67-5.05 2.02q-1.8 2.025-1.8 5.82c0 2.5.6 4.43 1.8 5.78s2.88 2.02 5.05 2.02c1.13 0 2.27-.22 3.42-.65s2.24-1.07 3.27-1.9l1.8 4.35c-1.07.97-2.43 1.72-4.1 2.27s-3.4.82-5.2.82q-3.87.015-6.69-1.53m38.08-21.4c1.67 1.67 2.5 4.23 2.5 7.7v14.85h-5.95v-3.75a6.5 6.5 0 0 1-2.68 3.05c-1.22.73-2.62 1.1-4.23 1.1-1.63 0-3.12-.33-4.45-1s-2.38-1.58-3.15-2.75-1.15-2.47-1.15-3.9c0-1.8.46-3.22 1.38-4.25s2.41-1.78 4.48-2.25 4.92-.7 8.55-.7h1.25v-1.15q0-2.505-1.08-3.6c-.72-.73-1.91-1.1-3.58-1.1-1.3 0-2.66.23-4.07.68-1.42.45-2.81 1.07-4.18 1.88l-1.75-4.3c1.37-.87 3.02-1.58 4.95-2.15s3.77-.85 5.5-.85c3.44-.01 5.99.82 7.66 2.49m-5.03 16.77c1.05-1.12 1.58-2.56 1.58-4.33v-1.05h-.9c-2.23 0-3.97.1-5.2.3s-2.12.55-2.65 1.05-.8 1.18-.8 2.05c0 1.07.37 1.94 1.1 2.62s1.67 1.02 2.8 1.02c1.66.01 3.02-.54 4.07-1.66m28.68 1.33-.3 4.65c-1 .1-1.92.15-2.75.15-3.43 0-5.97-.79-7.6-2.38-1.63-1.58-2.45-3.94-2.45-7.08V70.11h-4.7v-4.7h4.7v-7.3h6.25v7.3h6.45v4.7h-6.45v10.55c0 3.27 1.52 4.9 4.55 4.9.73.01 1.5-.05 2.3-.14m10.19-31.35v6.15h-6.9v-6.15zm-6.55 11.35h6.25v24.45h-6.25zm17.28 23.3c-1.88-1.03-3.34-2.52-4.38-4.45-1.03-1.93-1.55-4.18-1.55-6.75s.52-4.81 1.55-6.72c1.03-1.92 2.49-3.39 4.38-4.43 1.88-1.03 4.07-1.55 6.57-1.55s4.69.52 6.58 1.55c1.88 1.03 3.33 2.51 4.35 4.43s1.52 4.16 1.52 6.72c0 2.57-.51 4.82-1.52 6.75-1.02 1.93-2.47 3.42-4.35 4.45s-4.08 1.55-6.58 1.55-4.69-.52-6.57-1.55m11.17-5.3c1.07-1.33 1.6-3.3 1.6-5.9 0-2.57-.53-4.52-1.6-5.88-1.07-1.35-2.6-2.02-4.6-2.02s-3.54.68-4.62 2.02q-1.62 2.025-1.62 5.88c0 2.6.53 4.57 1.6 5.9s2.6 2 4.6 2c2.03 0 3.58-.67 4.64-2m33.75-16.1c1.43 1.67 2.15 4.18 2.15 7.55v15h-6.25V75.22c0-1.9-.36-3.28-1.07-4.15-.72-.87-1.84-1.3-3.38-1.3-1.8 0-3.24.57-4.33 1.7-1.08 1.13-1.62 2.65-1.62 4.55v13.85h-6.25V65.42h6.1v3.65a8.4 8.4 0 0 1 3.35-3.15c1.4-.73 2.98-1.1 4.75-1.1 2.94 0 5.12.83 6.55 2.5"/><path fill="#3c3c3c" d="M151.77 76.44h-28.78s-.04 2.27-.12 3.38c-1.73 24.43-22.1 43.71-46.97 43.71-24.97 0-45.4-19.43-46.99-44-.07-1.02-.1-3.09-.1-3.09H.03s.02 2.05.06 3.07c1.61 40.48 34.94 72.8 75.81 72.8 40.66 0 73.85-31.98 75.78-72.16.06-1.23.09-3.71.09-3.71"/><path fill="#006d68" d="M.02 76.44H28.8c0-26.01 21.08-47.09 47.09-47.09s47.09 21.08 47.09 47.09h28.78c0-41.9-33.97-75.87-75.87-75.87S.02 34.54.02 76.44"/><path fill="#acca53" d="M75.9 112.13c19.711 0 35.69-15.979 35.69-35.69S95.611 40.75 75.9 40.75 40.21 56.729 40.21 76.44s15.979 35.69 35.69 35.69"/><path fill="#fff" d="m79.54 76.44-3.64 35.69-3.65-35.69z"/><path fill="#3c3c3c" d="m72.25 76.44 3.65-35.69 3.64 35.69z"/></svg>