<svg xmlns="http://www.w3.org/2000/svg" width="44" height="41" fill="none" viewBox="0 0 44 41"><path fill="#006d68" d="M25.512 40.628H6.915v-6.687c0-1.671.418-3.204 1.184-4.527 1.602-2.856 4.597-4.736 8.15-4.736 5.153 0 9.263 4.179 9.263 9.263z"/><path fill="#a5c352" d="M37.144 40.628H18.547v-6.687c0-5.154 4.179-9.263 9.264-9.263 1.95 0 3.691.557 5.223 1.602a9.26 9.26 0 0 1 4.11 7.731zM15.622 23.563a4.945 4.945 0 1 0 0-9.89 4.945 4.945 0 0 0 0 9.89"/><path stroke="#003834" stroke-linecap="round" stroke-miterlimit="10" stroke-width=".529" d="M10.886 18.13c.139-.487.627-.835 1.184-.975 1.741-.418 3.552 0 5.293-.418.767-.208 1.533-.557 2.16-1.114.557-.557.975-1.323 1.044-2.16"/><path fill="#006d68" d="M28.368 23.563a4.945 4.945 0 1 0 0-9.89 4.945 4.945 0 0 0 0 9.89"/><path stroke="#003834" stroke-linecap="round" stroke-miterlimit="10" stroke-width=".529" d="M33.382 18.688c.557-.906.906-1.95.906-3.135a6 6 0 0 0-.975-3.273 3.35 3.35 0 0 1-.418-2.299c.07-.278.07-.627.07-.975 0-1.045-.349-1.95-.906-2.716a2.98 2.98 0 0 1-.557-2.02c.07-.279.07-.627 0-.975-.21-1.393-1.393-2.508-2.786-2.647-1.881-.21-3.553 1.254-3.553 3.134V4.2a2.98 2.98 0 0 1-.557 2.02c-.557.766-.905 1.741-.905 2.716 0 .349.07.697.139 1.045.209.766 0 1.602-.418 2.299a5.65 5.65 0 0 0-.905 3.691c.07.906.418 1.811.905 2.577"/></svg>