<?xml version="1.0" encoding="UTF-8"?>
<svg id="Layer_1" xmlns="http://www.w3.org/2000/svg" xmlns:xlink="http://www.w3.org/1999/xlink" version="1.1" viewBox="0 0 50 50">
  <!-- Generator: Adobe Illustrator 30.5.1, SVG Export Plug-In . SVG Version: 2.1.4 Build 3)  -->
  <defs>
    <style>
      .st0 {
        fill: url(#linear-gradient1);
      }

      .st1 {
        fill: url(#linear-gradient);
      }
    </style>
    <linearGradient id="linear-gradient" x1="25" y1="49.4" x2="25" y2=".6" gradientUnits="userSpaceOnUse">
      <stop offset="0" stop-color="#338a86"/>
      <stop offset=".1" stop-color="#3c8f87"/>
      <stop offset=".3" stop-color="#579e8a"/>
      <stop offset=".6" stop-color="#82b58f"/>
      <stop offset=".9" stop-color="#bdd696"/>
      <stop offset="1" stop-color="#cee098"/>
    </linearGradient>
    <linearGradient id="linear-gradient1" x1="25" y1="36.5" x2="25" y2="13.5" gradientUnits="userSpaceOnUse">
      <stop offset="0" stop-color="#006d68"/>
      <stop offset="1" stop-color="#003834"/>
    </linearGradient>
  </defs>
  <path class="st1" d="M41.3,26.5h6.7c.8,0,1.4-.6,1.4-1.4s-.6-1.4-1.4-1.4h-6.7v-4.7h6.7c.8,0,1.4-.6,1.4-1.4s-.6-1.4-1.4-1.4h-6.7v-.6c0-3.7-3-6.8-6.8-6.8h-.6V2c0-.8-.6-1.4-1.4-1.4s-1.4.6-1.4,1.4v6.7h-4.5V2c0-.8-.6-1.4-1.4-1.4s-1.4.6-1.4,1.4v6.7h-4.7V2c0-.8-.6-1.4-1.4-1.4s-1.4.6-1.4,1.4v6.7h-.6c-1.9,0-3.6.8-4.8,2-1.2,1.2-2,2.9-2,4.8v.6H2c-.8,0-1.4.6-1.4,1.4s.6,1.4,1.4,1.4h6.7v4.7H2c-.8,0-1.4.6-1.4,1.4s.6,1.4,1.4,1.4h6.7v4.5H2c-.8,0-1.4.6-1.4,1.4s.6,1.4,1.4,1.4h6.7v.6c0,3.7,3,6.8,6.8,6.8h.6v6.7c0,.8.6,1.4,1.4,1.4s1.4-.6,1.4-1.4v-6.7h4.7v6.7c0,.8.6,1.4,1.4,1.4s1.4-.6,1.4-1.4v-6.7h4.5v6.7c0,.8.6,1.4,1.4,1.4s1.4-.6,1.4-1.4v-6.7h.6c3.7,0,6.8-3,6.8-6.8v-.6h6.7c.8,0,1.4-.6,1.4-1.4s-.6-1.4-1.4-1.4h-6.7v-4.5Z"/>
  <polygon class="st0" points="35 30.8 35 19.2 25 13.5 15 19.2 15 30.8 25 36.5 35 30.8"/>
</svg>