<svg xmlns="http://www.w3.org/2000/svg" width="45" height="41" fill="none" viewBox="0 0 45 41"><path fill="#006d68" d="M44.3 21.017c0-7.83-6.443-14.203-14.36-14.203s-14.36 6.373-14.36 14.203 6.444 14.202 14.36 14.202c.552 0 1.105 0 1.657-.09 1.565 2.184 4.419 3.095 7.088 2.093.276-.09.552-.182.736-.364-.828-.637-1.472-1.456-1.933-2.549a2.4 2.4 0 0 1-.276-1.092c4.234-2.459 7.088-7.01 7.088-12.2"/><path fill="#a5c352" d="M.3 17.83C.3 10 6.743 3.628 14.66 3.628S29.02 10 29.02 17.83s-6.444 14.203-14.36 14.203c-.553 0-1.105 0-1.657-.091-1.565 2.185-4.419 3.095-7.088 2.094-.276-.091-.552-.182-.736-.364.828-.638 1.472-1.457 1.933-2.55q.276-.546.276-1.092C3.153 27.572.3 23.11.3 17.83"/></svg>