<svg xmlns="http://www.w3.org/2000/svg" width="590" height="379" fill="none" viewBox="0 0 590 379"><path fill="#00524f" stroke="#013834" stroke-miterlimit="10" stroke-width="1.05" d="m155.24 242.72-19.76 12.99H31.62V67.17l18.63-11.85h104.99z"/><path stroke="#013834" stroke-linecap="round" stroke-linejoin="round" stroke-width="1.01" d="M135.2 67.71H30.34v189.07H135.2z"/><path stroke="#006d68" stroke-linecap="round" stroke-linejoin="round" stroke-width="1.01" d="M62.4 143.86V123.6c0-14.93 12.15-12.52 26.99-12.52h6.49c2.36 0 4.72-.02 7.08 0 3.16.02 6.46-.57 6.78-4.54V76.07"/><path fill="#006d68" d="M63.54 143.81a1.14 1.14 0 1 1-2.279.001 1.14 1.14 0 0 1 2.279-.001m46.21-66.54a1.14 1.14 0 1 0 0-2.28 1.14 1.14 0 0 0 0 2.28"/><path stroke="#006d68" stroke-linecap="round" stroke-linejoin="round" stroke-width="1.01" d="M65.39 143.86V123.6c0-14.93 12.15-12.52 26.99-12.52h11.42"/><path fill="#006d68" d="M66.53 143.81a1.14 1.14 0 1 1-2.279.001 1.14 1.14 0 0 1 2.279-.001m37.21-31.59a1.14 1.14 0 1 0 .001-2.279 1.14 1.14 0 0 0-.001 2.279"/><path stroke="#006d68" stroke-linecap="round" stroke-linejoin="round" stroke-width="1.01" d="M59.41 143.86V123.6c0-14.93 12.15-12.52 26.99-12.52h17.4"/><path fill="#006d68" d="M60.55 143.81a1.14 1.14 0 1 1-2.279.001 1.14 1.14 0 0 1 2.279-.001m43.19-31.59a1.14 1.14 0 1 0 .001-2.279 1.14 1.14 0 0 0-.001 2.279"/><path stroke="#006d68" stroke-linecap="round" stroke-linejoin="round" stroke-width="1.01" d="M62.4 186.24v-20.26c0-14.93 12.15-12.52 26.99-12.52h6.49c2.36 0 4.72-.02 7.08 0 3.16.02 6.46-.57 6.78-4.54V113"/><path fill="#006d68" d="M62.4 187.32a1.14 1.14 0 1 0 0-2.28 1.14 1.14 0 0 0 0 2.28m48.49-74.26a1.14 1.14 0 1 0-2.279-.001 1.14 1.14 0 0 0 2.279.001"/><path stroke="#006d68" stroke-linecap="round" stroke-linejoin="round" stroke-width="1.01" d="M65.39 186.24v-20.26c0-14.93 12.15-12.52 26.99-12.52h11.42"/><path fill="#006d68" d="M66.53 186.18a1.14 1.14 0 1 1-2.279.001 1.14 1.14 0 0 1 2.279-.001m37.21-31.58a1.14 1.14 0 1 0 0-2.28 1.14 1.14 0 0 0 0 2.28"/><path stroke="#006d68" stroke-linecap="round" stroke-linejoin="round" stroke-width="1.01" d="M59.41 186.24v-20.26c0-14.93 12.15-12.52 26.99-12.52h17.4"/><path fill="#006d68" d="M60.55 186.18a1.14 1.14 0 1 1-2.279.001 1.14 1.14 0 0 1 2.279-.001m43.19-31.58a1.14 1.14 0 1 0 0-2.28 1.14 1.14 0 0 0 0 2.28"/><path fill="#003834" d="M134.67 68.26H30.93v7.55h103.74z"/><path stroke="#013834" stroke-linecap="round" stroke-linejoin="round" stroke-width="1.01" d="M154.67 54.91H49.71L30.34 67.44h104.97zm.7 0-.49 189.07-19.43 12.52.49-189.06z"/><path stroke="#006d68" stroke-linecap="round" stroke-linejoin="round" stroke-width="1.01" d="M62.4 228.61v-20.26c0-14.93 12.15-12.52 26.99-12.52h6.49c2.36 0 4.72-.02 7.08 0 3.16.02 6.46-.57 6.78-4.54v-35.92"/><path fill="#006d68" d="M63.54 228.56a1.14 1.14 0 1 1-2.279.001 1.14 1.14 0 0 1 2.279-.001m46.21-71.99a1.14 1.14 0 1 0 0-2.28 1.14 1.14 0 0 0 0 2.28"/><path stroke="#006d68" stroke-linecap="round" stroke-linejoin="round" stroke-width="1.01" d="M65.39 228.61v-20.26c0-14.93 12.15-12.52 26.99-12.52h11.42"/><path fill="#006d68" d="M66.53 228.56a1.14 1.14 0 1 1-2.279.001 1.14 1.14 0 0 1 2.279-.001m37.21-31.59a1.14 1.14 0 1 0 .001-2.279 1.14 1.14 0 0 0-.001 2.279"/><path stroke="#006d68" stroke-linecap="round" stroke-linejoin="round" stroke-width="1.01" d="M59.41 228.61v-20.26c0-14.93 12.15-12.52 26.99-12.52h17.4"/><path fill="#006d68" d="M60.55 228.56a1.14 1.14 0 1 1-2.279.001 1.14 1.14 0 0 1 2.279-.001m43.19-31.59a1.14 1.14 0 1 0 .001-2.279 1.14 1.14 0 0 0-.001 2.279"/><path fill="#006e69" d="M127.02 91.32h-88.5a2.47 2.47 0 0 0-2.47 2.47v23.73a2.47 2.47 0 0 0 2.47 2.47h88.5a2.47 2.47 0 0 0 2.47-2.47V93.79a2.47 2.47 0 0 0-2.47-2.47m0 42.37h-88.5a2.47 2.47 0 0 0-2.47 2.47v23.73a2.47 2.47 0 0 0 2.47 2.47h88.5a2.47 2.47 0 0 0 2.47-2.47v-23.73a2.47 2.47 0 0 0-2.47-2.47m0 42.38h-88.5a2.47 2.47 0 0 0-2.47 2.47v23.73a2.47 2.47 0 0 0 2.47 2.47h88.5a2.47 2.47 0 0 0 2.47-2.47v-23.73a2.47 2.47 0 0 0-2.47-2.47m0 42.37h-88.5a2.47 2.47 0 0 0-2.47 2.47v23.73a2.47 2.47 0 0 0 2.47 2.47h88.5a2.47 2.47 0 0 0 2.47-2.47v-23.73a2.47 2.47 0 0 0-2.47-2.47"/><path fill="#003834" d="M127.02 87.7h-88.5a2.47 2.47 0 0 0-2.47 2.47v23.73a2.47 2.47 0 0 0 2.47 2.47h88.5a2.47 2.47 0 0 0 2.47-2.47V90.17a2.47 2.47 0 0 0-2.47-2.47"/><path fill="#006d68" d="M65.82 105.47H45.15a3.45 3.45 0 0 1 0-6.9h20.67a3.45 3.45 0 0 1 0 6.9"/><path stroke="#006d68" stroke-linecap="round" stroke-linejoin="round" stroke-width=".99" d="M83.04 105.55H77.3a3.45 3.45 0 0 1 0-6.9h5.74a3.45 3.45 0 0 1 0 6.9"/><path stroke="#006d68" stroke-linecap="round" stroke-linejoin="round" stroke-width=".89" d="M80.27 102.79V83.93c0-11.72 12.15-9.6 26.99-9.6h20.36"/><path fill="#006d68" d="M81.28 102.74c0 .56-.45 1.01-1.01 1.01s-1.01-.45-1.01-1.01.45-1.01 1.01-1.01 1.01.45 1.01 1.01"/><path stroke="#006d68" stroke-linecap="round" stroke-linejoin="round" stroke-width=".89" d="M83.26 102.79V83.93c0-11.72 12.15-8.94 26.99-8.94h17.37"/><path fill="#006d68" d="M84.27 102.74c0 .56-.45 1.01-1.01 1.01s-1.01-.45-1.01-1.01.45-1.01 1.01-1.01 1.01.45 1.01 1.01"/><path stroke="#006d68" stroke-linecap="round" stroke-linejoin="round" stroke-width=".89" d="M77.28 102.79V83.93c0-11.72 12.15-9.6 26.99-9.6h23.35"/><path fill="#006d68" d="M77.28 103.75a1.01 1.01 0 1 0 0-2.02 1.01 1.01 0 0 0 0 2.02"/><path fill="#00524f" stroke="#013834" stroke-miterlimit="10" stroke-width="1.05" d="M125.27 96.93H96.58v10.2h28.69z"/><path stroke="#006d68" stroke-linecap="round" stroke-linejoin="round" stroke-width=".89" d="M100.84 102.03h20.17"/><circle cx="46.26" cy="102.03" r=".99" fill="#afd3d0"/><path stroke="#afd3d0" stroke-linecap="round" stroke-linejoin="round" stroke-width="1.98" d="M52.6 102.03h9.49"/><circle cx="65.26" cy="102.03" r=".99" fill="#afd3d0"/><path fill="#003834" d="M127.02 130.07h-88.5a2.47 2.47 0 0 0-2.47 2.47v23.73a2.47 2.47 0 0 0 2.47 2.47h88.5a2.47 2.47 0 0 0 2.47-2.47v-23.73a2.47 2.47 0 0 0-2.47-2.47"/><path fill="#00524f" stroke="#013834" stroke-miterlimit="10" stroke-width="1.05" d="M125.27 139.3H96.58v10.2h28.69z"/><path stroke="#006d68" stroke-linecap="round" stroke-linejoin="round" stroke-width=".89" d="M100.84 144.4h20.17"/><path fill="#006d68" d="M65.82 147.85H45.15a3.45 3.45 0 0 1 0-6.9h20.67a3.45 3.45 0 0 1 0 6.9"/><path stroke="#006d68" stroke-linecap="round" stroke-linejoin="round" stroke-width=".99" d="M83.04 147.85H77.3a3.45 3.45 0 0 1 0-6.9h5.74a3.45 3.45 0 0 1 0 6.9"/><circle cx="46.26" cy="144.4" r=".99" fill="#afd3d0"/><path stroke="#afd3d0" stroke-linecap="round" stroke-linejoin="round" stroke-width="1.98" d="M52.6 144.4h9.49"/><circle cx="65.26" cy="144.4" r=".99" fill="#afd3d0"/><path stroke="#006d68" stroke-linecap="round" stroke-linejoin="round" stroke-width=".89" d="M80.27 143.99v-20.38c0-14.93 12.15-12.52 26.99-12.52h6.49c2.36 0 4.72-.02 7.08 0 3.16.02 6.46-.57 6.78-4.54V74.64"/><path fill="#006d68" d="M81.28 143.94c0 .56-.45 1.01-1.01 1.01s-1.01-.45-1.01-1.01.45-1.01 1.01-1.01 1.01.45 1.01 1.01m47.35-69.25c0-.56-.45-1.01-1.01-1.01s-1.01.45-1.01 1.01.45 1.01 1.01 1.01 1.01-.45 1.01-1.01"/><path stroke="#006d68" stroke-linecap="round" stroke-linejoin="round" stroke-width=".89" d="M83.26 143.99v-20.38c0-14.93 12.15-12.52 26.99-12.52h11.54"/><path fill="#006d68" d="M84.27 143.94c0 .56-.45 1.01-1.01 1.01s-1.01-.45-1.01-1.01.45-1.01 1.01-1.01 1.01.45 1.01 1.01m37.47-31.85c.56 0 1.01-.45 1.01-1.01s-.45-1.01-1.01-1.01-1.01.45-1.01 1.01.45 1.01 1.01 1.01"/><path stroke="#006d68" stroke-linecap="round" stroke-linejoin="round" stroke-width=".89" d="M77.28 143.99v-20.38c0-14.93 12.15-12.52 26.99-12.52h17.52"/><path fill="#006d68" d="M78.29 143.94c0 .56-.45 1.01-1.01 1.01s-1.01-.45-1.01-1.01.45-1.01 1.01-1.01 1.01.45 1.01 1.01m43.45-31.85c.56 0 1.01-.45 1.01-1.01s-.45-1.01-1.01-1.01-1.01.45-1.01 1.01.45 1.01 1.01 1.01"/><path fill="#003834" d="M127.02 172.45h-88.5a2.47 2.47 0 0 0-2.47 2.47v23.73a2.47 2.47 0 0 0 2.47 2.47h88.5a2.47 2.47 0 0 0 2.47-2.47v-23.73a2.47 2.47 0 0 0-2.47-2.47"/><path fill="#00524f" stroke="#013834" stroke-miterlimit="10" stroke-width="1.05" d="M125.27 181.68H96.58v10.2h28.69z"/><path stroke="#006d68" stroke-linecap="round" stroke-linejoin="round" stroke-width=".89" d="M100.84 186.78h20.17"/><path fill="#006d68" d="M65.82 190.22H45.15a3.45 3.45 0 0 1 0-6.9h20.67a3.45 3.45 0 0 1 0 6.9"/><path stroke="#006d68" stroke-linecap="round" stroke-linejoin="round" stroke-width=".99" d="M83.04 190.22H77.3a3.45 3.45 0 0 1 0-6.9h5.74a3.45 3.45 0 0 1 0 6.9"/><circle cx="46.26" cy="186.78" r=".99" fill="#afd3d0"/><path stroke="#afd3d0" stroke-linecap="round" stroke-linejoin="round" stroke-width="1.98" d="M52.6 186.78h9.49"/><circle cx="65.26" cy="186.78" r=".99" fill="#afd3d0"/><path fill="#003834" d="M127.02 214.82h-88.5a2.47 2.47 0 0 0-2.47 2.47v23.73a2.47 2.47 0 0 0 2.47 2.47h88.5a2.47 2.47 0 0 0 2.47-2.47v-23.73a2.47 2.47 0 0 0-2.47-2.47"/><path fill="#00524f" stroke="#013834" stroke-miterlimit="10" stroke-width="1.05" d="M125.27 224.05H96.58v10.2h28.69z"/><path stroke="#006d68" stroke-linecap="round" stroke-linejoin="round" stroke-width=".89" d="M100.84 229.15h20.17"/><path fill="#006d68" d="M65.82 232.6H45.15a3.45 3.45 0 0 1 0-6.9h20.67a3.45 3.45 0 0 1 0 6.9"/><path stroke="#006d68" stroke-linecap="round" stroke-linejoin="round" stroke-width=".99" d="M83.04 232.6H77.3a3.45 3.45 0 0 1 0-6.9h5.74a3.45 3.45 0 0 1 0 6.9"/><path fill="#afd3d0" d="M46.27 230.14c-.26 0-.52-.11-.7-.29-.05-.05-.09-.1-.13-.15a.6.6 0 0 1-.09-.17.7.7 0 0 1-.06-.19c0-.06-.02-.13-.02-.19 0-.26.11-.51.29-.7a.98.98 0 0 1 .89-.27c.06 0 .13.03.18.06.06.02.12.06.17.09.06.04.11.08.15.13.18.18.29.44.29.7 0 .06 0 .13-.02.19s-.03.13-.06.19-.06.12-.09.17q-.06.09-.12.15-.075.075-.15.12c-.05.04-.11.07-.17.09l-.18.06c-.06.02-.13.02-.19.02z"/><path fill="#afd3d0" stroke="#afd3d0" stroke-linecap="round" stroke-linejoin="round" stroke-width="1.21" d="M57.94 229.15a.986.986 0 1 1 1.97 0c0 .54-.44.99-.98.99-.55 0-.99-.44-.99-.99m-6.33 0c0-.55.44-.99.99-.99s.99.44.99.99c0 .54-.44.99-.99.99s-.99-.44-.99-.99"/><path fill="#afd3d0" d="M65.26 230.14a1.03 1.03 0 0 1-.83-.44c-.03-.05-.07-.11-.09-.17-.03-.06-.04-.13-.06-.19s-.02-.13-.02-.19c0-.26.11-.51.29-.7.05-.05.1-.09.15-.13.06-.03.11-.07.17-.09q.09-.045.18-.06.195-.045.39 0c.06 0 .13.03.18.06.06.02.12.06.17.09.06.04.11.08.15.13.18.18.29.44.29.7s-.11.51-.29.7q-.075.075-.15.12c-.05.04-.11.07-.17.09l-.18.06c-.07.01-.13.02-.19.02z"/><path stroke="#006d68" stroke-linecap="round" stroke-linejoin="round" stroke-width="1.01" d="M80.27 186.24v-20.26c0-14.93 12.15-12.52 26.99-12.52h6.49c2.36 0 4.72-.02 7.08 0 3.16.02 6.46-.57 6.78-4.54v-29.48"/><path fill="#006d68" d="M81.41 186.18a1.14 1.14 0 1 1-2.279.001 1.14 1.14 0 0 1 2.279-.001m47.35-66.68a1.14 1.14 0 1 0-2.279-.001 1.14 1.14 0 0 0 2.279.001"/><path stroke="#006d68" stroke-linecap="round" stroke-linejoin="round" stroke-width="1.01" d="M83.26 186.24v-20.26c0-14.93 12.15-12.52 26.99-12.52h11.42"/><path fill="#006d68" d="M83.26 187.32a1.14 1.14 0 1 0 0-2.28 1.14 1.14 0 0 0 0 2.28m38.35-32.72a1.14 1.14 0 1 0 0-2.28 1.14 1.14 0 0 0 0 2.28"/><path stroke="#006d68" stroke-linecap="round" stroke-linejoin="round" stroke-width="1.01" d="M77.28 186.24v-20.26c0-14.93 12.15-12.52 26.99-12.52h17.4"/><path fill="#006d68" d="M77.28 187.32a1.14 1.14 0 1 0 0-2.28 1.14 1.14 0 0 0 0 2.28m44.33-32.72a1.14 1.14 0 1 0 0-2.28 1.14 1.14 0 0 0 0 2.28"/><path stroke="#006d68" stroke-linecap="round" stroke-linejoin="round" stroke-width=".89" d="M80.27 228.74v-20.38c0-14.93 12.15-12.52 26.99-12.52h6.49c2.36 0 4.72-.02 7.08 0 3.16.02 6.46-.57 6.78-4.54v-29.6"/><path fill="#006d68" d="M81.28 228.69c0 .56-.45 1.01-1.01 1.01s-1.01-.45-1.01-1.01.45-1.01 1.01-1.01 1.01.45 1.01 1.01m47.35-66.95c0-.56-.45-1.01-1.01-1.01s-1.01.45-1.01 1.01.45 1.01 1.01 1.01 1.01-.45 1.01-1.01"/><path stroke="#006d68" stroke-linecap="round" stroke-linejoin="round" stroke-width=".89" d="M83.26 228.74v-20.38c0-14.93 12.15-12.52 26.99-12.52h11.54"/><path fill="#006d68" d="M84.27 228.69c0 .56-.45 1.01-1.01 1.01s-1.01-.45-1.01-1.01.45-1.01 1.01-1.01 1.01.45 1.01 1.01m37.47-31.85c.56 0 1.01-.45 1.01-1.01s-.45-1.01-1.01-1.01-1.01.45-1.01 1.01.45 1.01 1.01 1.01"/><path stroke="#006d68" stroke-linecap="round" stroke-linejoin="round" stroke-width=".89" d="M77.28 228.74v-20.38c0-14.93 12.15-12.52 26.99-12.52h17.52"/><path fill="#006d68" d="M78.29 228.69c0 .56-.45 1.01-1.01 1.01s-1.01-.45-1.01-1.01.45-1.01 1.01-1.01 1.01.45 1.01 1.01m43.45-31.85c.56 0 1.01-.45 1.01-1.01s-.45-1.01-1.01-1.01-1.01.45-1.01 1.01.45 1.01 1.01 1.01"/><path stroke="#006d68" stroke-linecap="round" stroke-linejoin="round" stroke-width="1.01" d="M108.35 238.21h5.41c2.36 0 4.72-.02 7.08 0 3.16.02 6.46-.57 6.78-4.54v-29.48"/><path fill="#006d68" d="M108.4 239.35a1.14 1.14 0 1 0 0-2.28 1.14 1.14 0 0 0 0 2.28m20.36-35.1a1.14 1.14 0 1 0-2.279-.001 1.14 1.14 0 0 0 2.279.001"/><path stroke="#006d68" stroke-linecap="round" stroke-linejoin="round" stroke-width="1.01" d="M111.34 238.21h10.33"/><path fill="#006d68" d="M111.39 239.35a1.14 1.14 0 1 0 0-2.28 1.14 1.14 0 0 0 0 2.28m10.22 0a1.14 1.14 0 1 0 0-2.28 1.14 1.14 0 0 0 0 2.28"/><path stroke="#006d68" stroke-linecap="round" stroke-linejoin="round" stroke-width="1.01" d="M105.36 238.21h16.31"/><path fill="#006d68" d="M105.41 239.35a1.14 1.14 0 1 0 0-2.28 1.14 1.14 0 0 0 0 2.28m16.2 0a1.14 1.14 0 1 0 0-2.28 1.14 1.14 0 0 0 0 2.28"/><path fill="#00524f" stroke="#013834" stroke-miterlimit="10" stroke-width="1.05" d="m279.66 242.72-19.76 12.99H156.04V67.17l18.62-11.85h105z"/><path stroke="#013834" stroke-linecap="round" stroke-linejoin="round" stroke-width="1.01" d="M259.62 67.71H154.76v189.07h104.86z"/><path stroke="#006d68" stroke-linecap="round" stroke-linejoin="round" stroke-width="1.01" d="M186.82 143.86V123.6c0-14.93 12.15-12.52 26.99-12.52h6.49c2.36 0 4.72-.02 7.08 0 3.16.02 6.46-.57 6.78-4.54V76.07"/><path fill="#006d68" d="M187.95 143.81a1.14 1.14 0 1 1-2.279.001 1.14 1.14 0 0 1 2.279-.001m46.22-66.54a1.14 1.14 0 1 0 0-2.28 1.14 1.14 0 0 0 0 2.28"/><path stroke="#006d68" stroke-linecap="round" stroke-linejoin="round" stroke-width="1.01" d="M189.81 143.86V123.6c0-14.93 12.15-12.52 26.99-12.52h11.42"/><path fill="#006d68" d="M190.95 143.81a1.14 1.14 0 1 1-2.279.001 1.14 1.14 0 0 1 2.279-.001m37.21-31.59a1.14 1.14 0 1 0 .001-2.279 1.14 1.14 0 0 0-.001 2.279"/><path stroke="#006d68" stroke-linecap="round" stroke-linejoin="round" stroke-width="1.01" d="M183.83 143.86V123.6c0-14.93 12.15-12.52 26.99-12.52h17.4"/><path fill="#006d68" d="M184.96 143.81a1.14 1.14 0 1 1-2.279.001 1.14 1.14 0 0 1 2.279-.001m43.2-31.59a1.14 1.14 0 1 0 .001-2.279 1.14 1.14 0 0 0-.001 2.279"/><path stroke="#006d68" stroke-linecap="round" stroke-linejoin="round" stroke-width="1.01" d="M186.82 186.24v-20.26c0-14.93 12.15-12.52 26.99-12.52h6.49c2.36 0 4.72-.02 7.08 0 3.16.02 6.46-.57 6.78-4.54V113"/><path fill="#006d68" d="M186.82 187.32a1.14 1.14 0 1 0 .001-2.279 1.14 1.14 0 0 0-.001 2.279m48.49-74.26a1.14 1.14 0 1 0-2.279-.001 1.14 1.14 0 0 0 2.279.001"/><path stroke="#006d68" stroke-linecap="round" stroke-linejoin="round" stroke-width="1.01" d="M189.81 186.24v-20.26c0-14.93 12.15-12.52 26.99-12.52h11.42"/><path fill="#006d68" d="M189.81 187.32a1.14 1.14 0 1 0 0-2.28 1.14 1.14 0 0 0 0 2.28m38.35-32.72a1.14 1.14 0 1 0 0-2.28 1.14 1.14 0 0 0 0 2.28"/><path stroke="#006d68" stroke-linecap="round" stroke-linejoin="round" stroke-width="1.01" d="M183.83 186.24v-20.26c0-14.93 12.15-12.52 26.99-12.52h17.4"/><path fill="#006d68" d="M183.83 187.32a1.14 1.14 0 1 0 0-2.28 1.14 1.14 0 0 0 0 2.28m44.33-32.72a1.14 1.14 0 1 0 0-2.28 1.14 1.14 0 0 0 0 2.28"/><path fill="#003834" d="M259.08 68.26H155.34v7.55h103.74z"/><path stroke="#013834" stroke-linecap="round" stroke-linejoin="round" stroke-width="1.01" d="M279.09 54.91H174.13l-19.37 12.53h104.97zm.7 0-.49 189.07-19.43 12.52.49-189.06z"/><path stroke="#006d68" stroke-linecap="round" stroke-linejoin="round" stroke-width="1.01" d="M186.82 228.61v-20.26c0-14.93 12.15-12.52 26.99-12.52h6.49c2.36 0 4.72-.02 7.08 0 3.16.02 6.46-.57 6.78-4.54v-35.92"/><path fill="#006d68" d="M187.95 228.56a1.14 1.14 0 1 1-2.279.001 1.14 1.14 0 0 1 2.279-.001m46.22-71.99a1.14 1.14 0 1 0 0-2.28 1.14 1.14 0 0 0 0 2.28"/><path stroke="#006d68" stroke-linecap="round" stroke-linejoin="round" stroke-width="1.01" d="M189.81 228.61v-20.26c0-14.93 12.15-12.52 26.99-12.52h11.42"/><path fill="#006d68" d="M190.95 228.56a1.14 1.14 0 1 1-2.279.001 1.14 1.14 0 0 1 2.279-.001m37.21-31.59a1.14 1.14 0 1 0 .001-2.279 1.14 1.14 0 0 0-.001 2.279"/><path stroke="#006d68" stroke-linecap="round" stroke-linejoin="round" stroke-width="1.01" d="M183.83 228.61v-20.26c0-14.93 12.15-12.52 26.99-12.52h17.4"/><path fill="#006d68" d="M184.96 228.56a1.14 1.14 0 1 1-2.279.001 1.14 1.14 0 0 1 2.279-.001m43.2-31.59a1.14 1.14 0 1 0 .001-2.279 1.14 1.14 0 0 0-.001 2.279"/><path fill="#006e69" d="M251.44 91.32h-88.5a2.47 2.47 0 0 0-2.47 2.47v23.73a2.47 2.47 0 0 0 2.47 2.47h88.5a2.47 2.47 0 0 0 2.47-2.47V93.79a2.47 2.47 0 0 0-2.47-2.47m0 42.37h-88.5a2.47 2.47 0 0 0-2.47 2.47v23.73a2.47 2.47 0 0 0 2.47 2.47h88.5a2.47 2.47 0 0 0 2.47-2.47v-23.73a2.47 2.47 0 0 0-2.47-2.47m0 42.38h-88.5a2.47 2.47 0 0 0-2.47 2.47v23.73a2.47 2.47 0 0 0 2.47 2.47h88.5a2.47 2.47 0 0 0 2.47-2.47v-23.73a2.47 2.47 0 0 0-2.47-2.47m0 42.37h-88.5a2.47 2.47 0 0 0-2.47 2.47v23.73a2.47 2.47 0 0 0 2.47 2.47h88.5a2.47 2.47 0 0 0 2.47-2.47v-23.73a2.47 2.47 0 0 0-2.47-2.47"/><path fill="#003834" d="M251.44 87.7h-88.5a2.47 2.47 0 0 0-2.47 2.47v23.73a2.47 2.47 0 0 0 2.47 2.47h88.5a2.47 2.47 0 0 0 2.47-2.47V90.17a2.47 2.47 0 0 0-2.47-2.47"/><path fill="#006d68" d="M190.23 105.47h-20.67a3.45 3.45 0 0 1 0-6.9h20.67a3.45 3.45 0 0 1 0 6.9"/><path stroke="#006d68" stroke-linecap="round" stroke-linejoin="round" stroke-width=".99" d="M207.46 105.55h-5.74a3.45 3.45 0 0 1 0-6.9h5.74a3.45 3.45 0 0 1 0 6.9"/><path stroke="#006d68" stroke-linecap="round" stroke-linejoin="round" stroke-width=".89" d="M204.69 102.79V83.93c0-11.72 12.15-9.6 26.99-9.6h20.36"/><path fill="#006d68" d="M204.69 103.75a1.01 1.01 0 1 0 0-2.02 1.01 1.01 0 0 0 0 2.02"/><path stroke="#006d68" stroke-linecap="round" stroke-linejoin="round" stroke-width=".89" d="M207.68 102.79V83.93c0-11.72 12.15-8.94 26.99-8.94h17.37"/><path fill="#006d68" d="M208.69 102.74c0 .56-.45 1.01-1.01 1.01s-1.01-.45-1.01-1.01.45-1.01 1.01-1.01 1.01.45 1.01 1.01"/><path stroke="#006d68" stroke-linecap="round" stroke-linejoin="round" stroke-width=".89" d="M201.7 102.79V83.93c0-11.72 12.15-9.6 26.99-9.6h23.35"/><path fill="#006d68" d="M202.71 102.74c0 .56-.45 1.01-1.01 1.01s-1.01-.45-1.01-1.01.45-1.01 1.01-1.01 1.01.45 1.01 1.01"/><path fill="#00524f" stroke="#013834" stroke-miterlimit="10" stroke-width="1.05" d="M249.69 96.93H221v10.2h28.69z"/><path stroke="#006d68" stroke-linecap="round" stroke-linejoin="round" stroke-width=".89" d="M225.26 102.03h20.17"/><circle cx="170.68" cy="102.03" r=".99" fill="#afd3d0"/><path stroke="#afd3d0" stroke-linecap="round" stroke-linejoin="round" stroke-width="1.98" d="M177.01 102.03h9.5"/><circle cx="189.68" cy="102.03" r=".99" fill="#afd3d0"/><path fill="#003834" d="M251.44 130.07h-88.5a2.47 2.47 0 0 0-2.47 2.47v23.73a2.47 2.47 0 0 0 2.47 2.47h88.5a2.47 2.47 0 0 0 2.47-2.47v-23.73a2.47 2.47 0 0 0-2.47-2.47"/><path fill="#00524f" stroke="#013834" stroke-miterlimit="10" stroke-width="1.05" d="M249.69 139.3H221v10.2h28.69z"/><path stroke="#006d68" stroke-linecap="round" stroke-linejoin="round" stroke-width=".89" d="M225.26 144.4h20.17"/><path fill="#006d68" d="M190.23 147.85h-20.67a3.45 3.45 0 0 1 0-6.9h20.67a3.45 3.45 0 0 1 0 6.9"/><path stroke="#006d68" stroke-linecap="round" stroke-linejoin="round" stroke-width=".99" d="M207.46 147.85h-5.74a3.45 3.45 0 0 1 0-6.9h5.74a3.45 3.45 0 0 1 0 6.9"/><circle cx="170.68" cy="144.4" r=".99" fill="#afd3d0"/><path stroke="#afd3d0" stroke-linecap="round" stroke-linejoin="round" stroke-width="1.98" d="M177.01 144.4h9.5"/><circle cx="189.68" cy="144.4" r=".99" fill="#afd3d0"/><path stroke="#006d68" stroke-linecap="round" stroke-linejoin="round" stroke-width=".89" d="M204.69 143.99v-20.38c0-14.93 12.15-12.52 26.99-12.52h6.49c2.36 0 4.72-.02 7.08 0 3.16.02 6.46-.57 6.78-4.54V74.64"/><path fill="#006d68" d="M205.7 143.94c0 .56-.45 1.01-1.01 1.01s-1.01-.45-1.01-1.01.45-1.01 1.01-1.01 1.01.45 1.01 1.01m47.35-69.25c0-.56-.45-1.01-1.01-1.01s-1.01.45-1.01 1.01.45 1.01 1.01 1.01 1.01-.45 1.01-1.01"/><path stroke="#006d68" stroke-linecap="round" stroke-linejoin="round" stroke-width=".89" d="M207.68 143.99v-20.38c0-14.93 12.15-12.52 26.99-12.52h11.54"/><path fill="#006d68" d="M208.69 143.94c0 .56-.45 1.01-1.01 1.01s-1.01-.45-1.01-1.01.45-1.01 1.01-1.01 1.01.45 1.01 1.01m37.47-31.85c.56 0 1.01-.45 1.01-1.01s-.45-1.01-1.01-1.01-1.01.45-1.01 1.01.45 1.01 1.01 1.01"/><path stroke="#006d68" stroke-linecap="round" stroke-linejoin="round" stroke-width=".89" d="M201.7 143.99v-20.38c0-14.93 12.15-12.52 26.99-12.52h17.52"/><path fill="#006d68" d="M202.71 143.94c0 .56-.45 1.01-1.01 1.01s-1.01-.45-1.01-1.01.45-1.01 1.01-1.01 1.01.45 1.01 1.01m43.45-31.85c.56 0 1.01-.45 1.01-1.01s-.45-1.01-1.01-1.01-1.01.45-1.01 1.01.45 1.01 1.01 1.01"/><path fill="#003834" d="M251.44 172.45h-88.5a2.47 2.47 0 0 0-2.47 2.47v23.73a2.47 2.47 0 0 0 2.47 2.47h88.5a2.47 2.47 0 0 0 2.47-2.47v-23.73a2.47 2.47 0 0 0-2.47-2.47"/><path fill="#00524f" stroke="#013834" stroke-miterlimit="10" stroke-width="1.05" d="M249.69 181.68H221v10.2h28.69z"/><path stroke="#006d68" stroke-linecap="round" stroke-linejoin="round" stroke-width=".89" d="M225.26 186.78h20.17"/><path fill="#006d68" d="M190.23 190.22h-20.67a3.45 3.45 0 0 1 0-6.9h20.67a3.45 3.45 0 0 1 0 6.9"/><path stroke="#006d68" stroke-linecap="round" stroke-linejoin="round" stroke-width=".99" d="M207.46 190.22h-5.74a3.45 3.45 0 0 1 0-6.9h5.74a3.45 3.45 0 0 1 0 6.9"/><circle cx="170.68" cy="186.78" r=".99" fill="#afd3d0"/><path stroke="#afd3d0" stroke-linecap="round" stroke-linejoin="round" stroke-width="1.98" d="M177.01 186.78h9.5"/><circle cx="189.68" cy="186.78" r=".99" fill="#afd3d0"/><path fill="#003834" d="M251.44 214.82h-88.5a2.47 2.47 0 0 0-2.47 2.47v23.73a2.47 2.47 0 0 0 2.47 2.47h88.5a2.47 2.47 0 0 0 2.47-2.47v-23.73a2.47 2.47 0 0 0-2.47-2.47"/><path fill="#00524f" stroke="#013834" stroke-miterlimit="10" stroke-width="1.05" d="M249.69 224.05H221v10.2h28.69z"/><path stroke="#006d68" stroke-linecap="round" stroke-linejoin="round" stroke-width=".89" d="M225.26 229.15h20.17"/><path fill="#006d68" d="M190.23 232.6h-20.67a3.45 3.45 0 0 1 0-6.9h20.67a3.45 3.45 0 0 1 0 6.9"/><path stroke="#006d68" stroke-linecap="round" stroke-linejoin="round" stroke-width=".99" d="M207.46 232.6h-5.74a3.45 3.45 0 0 1 0-6.9h5.74a3.45 3.45 0 0 1 0 6.9"/><path fill="#afd3d0" d="M170.68 230.14c-.26 0-.52-.11-.7-.29-.05-.05-.09-.1-.13-.15a.6.6 0 0 1-.09-.17.7.7 0 0 1-.06-.19c0-.06-.02-.13-.02-.19 0-.26.11-.51.29-.7a.98.98 0 0 1 .89-.27c.06 0 .13.03.18.06.06.02.12.06.17.09.06.04.11.08.15.13.18.18.29.44.29.7 0 .06 0 .13-.02.19s-.03.13-.06.19-.06.12-.09.17q-.06.09-.12.15-.075.075-.15.12c-.05.04-.11.07-.17.09l-.18.06c-.06.02-.13.02-.19.02z"/><path fill="#afd3d0" stroke="#afd3d0" stroke-linecap="round" stroke-linejoin="round" stroke-width="1.21" d="M182.36 229.15a.986.986 0 1 1 1.97 0c0 .54-.44.99-.98.99-.55 0-.99-.44-.99-.99m-6.33 0c0-.55.44-.99.99-.99s.99.44.99.99c0 .54-.44.99-.99.99s-.99-.44-.99-.99"/><path fill="#afd3d0" d="M189.68 230.14a1.03 1.03 0 0 1-.83-.44c-.03-.05-.07-.11-.09-.17-.03-.06-.04-.13-.06-.19s-.02-.13-.02-.19c0-.26.11-.51.29-.7.05-.05.1-.09.15-.13.06-.03.11-.07.17-.09q.09-.045.18-.06.195-.045.39 0c.06 0 .13.03.18.06.06.02.12.06.17.09.06.04.11.08.15.13.18.18.29.44.29.7s-.11.51-.29.7q-.075.075-.15.12c-.05.04-.11.07-.17.09l-.18.06c-.07.01-.13.02-.19.02z"/><path stroke="#006d68" stroke-linecap="round" stroke-linejoin="round" stroke-width="1.01" d="M204.69 186.24v-20.26c0-14.93 12.15-12.52 26.99-12.52h6.49c2.36 0 4.72-.02 7.08 0 3.16.02 6.46-.57 6.78-4.54v-29.48"/><path fill="#006d68" d="M204.69 187.32a1.14 1.14 0 1 0 0-2.28 1.14 1.14 0 0 0 0 2.28m48.49-67.82a1.14 1.14 0 1 0-2.279-.001 1.14 1.14 0 0 0 2.279.001"/><path stroke="#006d68" stroke-linecap="round" stroke-linejoin="round" stroke-width="1.01" d="M207.68 186.24v-20.26c0-14.93 12.15-12.52 26.99-12.52h11.42"/><path fill="#006d68" d="M207.68 187.32a1.14 1.14 0 1 0 0-2.28 1.14 1.14 0 0 0 0 2.28m38.35-32.72a1.14 1.14 0 1 0 0-2.28 1.14 1.14 0 0 0 0 2.28"/><path stroke="#006d68" stroke-linecap="round" stroke-linejoin="round" stroke-width="1.01" d="M201.7 186.24v-20.26c0-14.93 12.15-12.52 26.99-12.52h17.4"/><path fill="#006d68" d="M201.7 187.32a1.14 1.14 0 1 0 0-2.28 1.14 1.14 0 0 0 0 2.28m44.33-32.72a1.14 1.14 0 1 0 0-2.28 1.14 1.14 0 0 0 0 2.28"/><path stroke="#006d68" stroke-linecap="round" stroke-linejoin="round" stroke-width=".89" d="M204.69 228.74v-20.38c0-14.93 12.15-12.52 26.99-12.52h6.49c2.36 0 4.72-.02 7.08 0 3.16.02 6.46-.57 6.78-4.54v-29.6"/><path fill="#006d68" d="M205.7 228.69c0 .56-.45 1.01-1.01 1.01s-1.01-.45-1.01-1.01.45-1.01 1.01-1.01 1.01.45 1.01 1.01m47.35-66.95c0-.56-.45-1.01-1.01-1.01s-1.01.45-1.01 1.01.45 1.01 1.01 1.01 1.01-.45 1.01-1.01"/><path stroke="#006d68" stroke-linecap="round" stroke-linejoin="round" stroke-width=".89" d="M207.68 228.74v-20.38c0-14.93 12.15-12.52 26.99-12.52h11.54"/><path fill="#006d68" d="M208.69 228.69c0 .56-.45 1.01-1.01 1.01s-1.01-.45-1.01-1.01.45-1.01 1.01-1.01 1.01.45 1.01 1.01m37.47-31.85c.56 0 1.01-.45 1.01-1.01s-.45-1.01-1.01-1.01-1.01.45-1.01 1.01.45 1.01 1.01 1.01"/><path stroke="#006d68" stroke-linecap="round" stroke-linejoin="round" stroke-width=".89" d="M201.7 228.74v-20.38c0-14.93 12.15-12.52 26.99-12.52h17.52"/><path fill="#006d68" d="M202.71 228.69c0 .56-.45 1.01-1.01 1.01s-1.01-.45-1.01-1.01.45-1.01 1.01-1.01 1.01.45 1.01 1.01m43.45-31.85c.56 0 1.01-.45 1.01-1.01s-.45-1.01-1.01-1.01-1.01.45-1.01 1.01.45 1.01 1.01 1.01"/><path stroke="#006d68" stroke-linecap="round" stroke-linejoin="round" stroke-width="1.01" d="M232.76 238.21h5.41c2.36 0 4.72-.02 7.08 0 3.16.02 6.46-.57 6.78-4.54v-29.48"/><path fill="#006d68" d="M232.82 239.34a1.14 1.14 0 1 1-.001-2.279 1.14 1.14 0 0 1 .001 2.279m20.36-35.09a1.14 1.14 0 1 0-2.279-.001 1.14 1.14 0 0 0 2.279.001"/><path stroke="#006d68" stroke-linecap="round" stroke-linejoin="round" stroke-width="1.01" d="M235.75 238.21h10.34"/><path fill="#006d68" d="M235.81 239.34a1.14 1.14 0 1 1-.001-2.279 1.14 1.14 0 0 1 .001 2.279m10.22.01a1.14 1.14 0 1 0 0-2.28 1.14 1.14 0 0 0 0 2.28"/><path stroke="#006d68" stroke-linecap="round" stroke-linejoin="round" stroke-width="1.01" d="M229.77 238.21h16.32"/><path fill="#006d68" d="M229.83 239.34a1.14 1.14 0 1 1-.001-2.279 1.14 1.14 0 0 1 .001 2.279m16.2.01a1.14 1.14 0 1 0 0-2.28 1.14 1.14 0 0 0 0 2.28"/><path fill="#013834" d="M82.19 330.95V143.2l18.27-11.63h104.35V318.2l-19.41 12.75z"/><path fill="#013834" d="M204.31 132.07v185.86l-19.05 12.52H82.7V143.47l17.92-11.4h103.7m.99-1H100.32l-18.63 11.85v188.54h103.86l19.76-12.98z"/><path stroke="#afd3d0" stroke-linecap="round" stroke-linejoin="round" stroke-width="1.01" d="M185.27 143.46H80.41v189.07h104.86z"/><path stroke="#6fafac" stroke-linecap="round" stroke-linejoin="round" stroke-width="1.01" d="M112.47 219.61v-20.26c0-14.93 12.15-12.52 26.99-12.52h6.49c2.36 0 4.72-.02 7.08 0 3.16.02 6.46-.57 6.78-4.54v-30.47"/><path fill="#6fafac" d="M113.61 219.55a1.14 1.14 0 1 1-2.279.001 1.14 1.14 0 0 1 2.279-.001m46.21-66.53a1.14 1.14 0 1 0 .001-2.279 1.14 1.14 0 0 0-.001 2.279"/><path stroke="#6fafac" stroke-linecap="round" stroke-linejoin="round" stroke-width="1.01" d="M115.46 219.61v-20.26c0-14.93 12.15-12.52 26.99-12.52h11.42"/><path fill="#6fafac" d="M116.6 219.55a1.14 1.14 0 1 1-2.279.001 1.14 1.14 0 0 1 2.279-.001m37.21-31.58a1.14 1.14 0 1 0 .001-2.279 1.14 1.14 0 0 0-.001 2.279"/><path stroke="#6fafac" stroke-linecap="round" stroke-linejoin="round" stroke-width="1.01" d="M109.48 219.61v-20.26c0-14.93 12.15-12.52 26.99-12.52h17.4"/><path fill="#6fafac" d="M110.62 219.55a1.14 1.14 0 1 1-2.279.001 1.14 1.14 0 0 1 2.279-.001m43.19-31.58a1.14 1.14 0 1 0 .001-2.279 1.14 1.14 0 0 0-.001 2.279"/><path stroke="#6fafac" stroke-linecap="round" stroke-linejoin="round" stroke-width="1.01" d="M112.47 261.99v-20.26c0-14.93 12.15-12.52 26.99-12.52h6.49c2.36 0 4.72-.02 7.08 0 3.16.02 6.46-.57 6.78-4.54v-35.92"/><path fill="#6fafac" d="M113.61 261.93a1.14 1.14 0 1 1-2.279.001 1.14 1.14 0 0 1 2.279-.001m46.21-71.98a1.14 1.14 0 1 0 .001-2.279 1.14 1.14 0 0 0-.001 2.279"/><path stroke="#6fafac" stroke-linecap="round" stroke-linejoin="round" stroke-width="1.01" d="M115.46 261.99v-20.26c0-14.93 12.15-12.52 26.99-12.52h11.42"/><path fill="#6fafac" d="M115.46 263.07a1.14 1.14 0 1 0 0-2.28 1.14 1.14 0 0 0 0 2.28m38.35-32.73a1.14 1.14 0 1 0 .001-2.279 1.14 1.14 0 0 0-.001 2.279"/><path stroke="#6fafac" stroke-linecap="round" stroke-linejoin="round" stroke-width="1.01" d="M109.48 261.99v-20.26c0-14.93 12.15-12.52 26.99-12.52h17.4"/><path fill="#6fafac" d="M109.48 263.07a1.14 1.14 0 1 0 0-2.28 1.14 1.14 0 0 0 0 2.28m44.33-32.73a1.14 1.14 0 1 0 .001-2.279 1.14 1.14 0 0 0-.001 2.279"/><path fill="#afd3d0" d="M184.74 144.01H81v7.55h103.74z"/><path stroke="#afd3d0" stroke-linecap="round" stroke-linejoin="round" stroke-width="1.01" d="M204.74 130.65H99.78l-19.37 12.53h104.97zm.7 0-.49 189.07-19.43 12.53.49-189.07z"/><path stroke="#6fafac" stroke-linecap="round" stroke-linejoin="round" stroke-width="1.01" d="M112.47 304.36V284.1c0-14.93 12.15-12.52 26.99-12.52h6.49c2.36 0 4.72-.02 7.08 0 3.16.02 6.46-.57 6.78-4.54v-35.92"/><path fill="#6fafac" d="M113.61 304.3a1.14 1.14 0 1 1-2.279.001 1.14 1.14 0 0 1 2.279-.001m47.35-73.12a1.14 1.14 0 1 0-2.279-.001 1.14 1.14 0 0 0 2.279.001"/><path stroke="#6fafac" stroke-linecap="round" stroke-linejoin="round" stroke-width="1.01" d="M115.46 304.36V284.1c0-14.93 12.15-12.52 26.99-12.52h11.42"/><path fill="#6fafac" d="M116.6 304.3a1.14 1.14 0 1 1-2.279.001 1.14 1.14 0 0 1 2.279-.001m37.21-31.58a1.14 1.14 0 1 0 0-2.28 1.14 1.14 0 0 0 0 2.28"/><path stroke="#6fafac" stroke-linecap="round" stroke-linejoin="round" stroke-width="1.01" d="M109.48 304.36V284.1c0-14.93 12.15-12.52 26.99-12.52h17.4"/><path fill="#6fafac" d="M110.62 304.3a1.14 1.14 0 1 1-2.279.001 1.14 1.14 0 0 1 2.279-.001m43.19-31.58a1.14 1.14 0 1 0 0-2.28 1.14 1.14 0 0 0 0 2.28"/><path fill="#003834" d="M177.09 167.06h-88.5a2.47 2.47 0 0 0-2.47 2.47v23.73a2.47 2.47 0 0 0 2.47 2.47h88.5a2.47 2.47 0 0 0 2.47-2.47v-23.73a2.47 2.47 0 0 0-2.47-2.47m0 42.38h-88.5a2.47 2.47 0 0 0-2.47 2.47v23.73a2.47 2.47 0 0 0 2.47 2.47h88.5a2.47 2.47 0 0 0 2.47-2.47v-23.73a2.47 2.47 0 0 0-2.47-2.47m0 42.38h-88.5a2.47 2.47 0 0 0-2.47 2.47v23.73a2.47 2.47 0 0 0 2.47 2.47h88.5a2.47 2.47 0 0 0 2.47-2.47v-23.73a2.47 2.47 0 0 0-2.47-2.47m0 42.37h-88.5a2.47 2.47 0 0 0-2.47 2.47v23.73a2.47 2.47 0 0 0 2.47 2.47h88.5a2.47 2.47 0 0 0 2.47-2.47v-23.73a2.47 2.47 0 0 0-2.47-2.47"/><path fill="#006e69" d="M177.09 163.44h-88.5a2.47 2.47 0 0 0-2.47 2.47v23.73a2.47 2.47 0 0 0 2.47 2.47h88.5a2.47 2.47 0 0 0 2.47-2.47v-23.73a2.47 2.47 0 0 0-2.47-2.47"/><path fill="#6fafac" d="M115.89 181.22H95.22a3.45 3.45 0 0 1 0-6.9h20.67a3.45 3.45 0 0 1 0 6.9"/><path stroke="#6fafac" stroke-linecap="round" stroke-linejoin="round" stroke-width=".99" d="M133.11 181.3h-5.74a3.45 3.45 0 0 1 0-6.9h5.74a3.45 3.45 0 0 1 0 6.9"/><path stroke="#6fafac" stroke-linecap="round" stroke-linejoin="round" stroke-width=".89" d="M130.34 178.54v-18.86c0-11.72 12.15-9.6 26.99-9.6h20.36"/><path fill="#6fafac" d="M130.34 179.5a1.01 1.01 0 1 0 0-2.02 1.01 1.01 0 0 0 0 2.02"/><path stroke="#6fafac" stroke-linecap="round" stroke-linejoin="round" stroke-width=".89" d="M133.33 178.54v-18.86c0-11.72 12.15-8.94 26.99-8.94h17.37"/><path fill="#6fafac" d="M134.34 178.49c0 .56-.45 1.01-1.01 1.01s-1.01-.45-1.01-1.01.45-1.01 1.01-1.01 1.01.45 1.01 1.01"/><path stroke="#6fafac" stroke-linecap="round" stroke-linejoin="round" stroke-width=".89" d="M127.35 178.54v-18.86c0-11.72 12.15-9.6 26.99-9.6h23.35"/><path fill="#6fafac" d="M128.36 178.49c0 .56-.45 1.01-1.01 1.01s-1.01-.45-1.01-1.01.45-1.01 1.01-1.01 1.01.45 1.01 1.01"/><path fill="#003834" d="M175.34 172.67h-28.69v10.2h28.69z"/><path stroke="#6fafac" stroke-linecap="round" stroke-linejoin="round" stroke-width=".89" d="M150.91 177.78h20.17"/><circle cx="96.34" cy="177.78" r=".99" fill="#afd3d0"/><path stroke="#afd3d0" stroke-linecap="round" stroke-linejoin="round" stroke-width="1.98" d="M102.67 177.78h9.49"/><circle cx="115.33" cy="177.78" r=".99" fill="#afd3d0"/><path fill="#006e69" d="M177.09 205.82h-88.5a2.47 2.47 0 0 0-2.47 2.47v23.73a2.47 2.47 0 0 0 2.47 2.47h88.5a2.47 2.47 0 0 0 2.47-2.47v-23.73a2.47 2.47 0 0 0-2.47-2.47"/><path fill="#003834" d="M175.34 215.05h-28.69v10.2h28.69z"/><path stroke="#6fafac" stroke-linecap="round" stroke-linejoin="round" stroke-width=".89" d="M150.91 220.15h20.17"/><path fill="#6fafac" d="M115.89 223.6H95.22a3.45 3.45 0 0 1 0-6.9h20.67a3.45 3.45 0 0 1 0 6.9"/><path stroke="#6fafac" stroke-linecap="round" stroke-linejoin="round" stroke-width=".99" d="M133.11 223.6h-5.74a3.45 3.45 0 0 1 0-6.9h5.74a3.45 3.45 0 0 1 0 6.9"/><circle cx="96.34" cy="220.15" r=".99" fill="#afd3d0"/><path stroke="#afd3d0" stroke-linecap="round" stroke-linejoin="round" stroke-width="1.98" d="M102.67 220.15h9.49"/><circle cx="115.33" cy="220.15" r=".99" fill="#afd3d0"/><path stroke="#6fafac" stroke-linecap="round" stroke-linejoin="round" stroke-width=".89" d="M130.34 219.73v-20.38c0-14.93 12.15-12.52 26.99-12.52h6.49c2.36 0 4.72-.02 7.08 0 3.16.02 6.46-.57 6.78-4.54v-31.91"/><path fill="#6fafac" d="M131.35 219.68c0 .56-.45 1.01-1.01 1.01s-1.01-.45-1.01-1.01.45-1.01 1.01-1.01 1.01.45 1.01 1.01m47.35-69.25c0-.56-.45-1.01-1.01-1.01s-1.01.45-1.01 1.01.45 1.01 1.01 1.01 1.01-.45 1.01-1.01"/><path stroke="#6fafac" stroke-linecap="round" stroke-linejoin="round" stroke-width=".89" d="M133.33 219.73v-20.38c0-14.93 12.15-12.52 26.99-12.52h11.54"/><path fill="#6fafac" d="M134.34 219.68c0 .56-.45 1.01-1.01 1.01s-1.01-.45-1.01-1.01.45-1.01 1.01-1.01 1.01.45 1.01 1.01m37.48-31.84c.56 0 1.01-.45 1.01-1.01s-.45-1.01-1.01-1.01-1.01.45-1.01 1.01.45 1.01 1.01 1.01"/><path stroke="#6fafac" stroke-linecap="round" stroke-linejoin="round" stroke-width=".89" d="M127.35 219.73v-20.38c0-14.93 12.15-12.52 26.99-12.52h17.52"/><path fill="#6fafac" d="M128.36 219.68c0 .56-.45 1.01-1.01 1.01s-1.01-.45-1.01-1.01.45-1.01 1.01-1.01 1.01.45 1.01 1.01m43.46-31.84c.56 0 1.01-.45 1.01-1.01s-.45-1.01-1.01-1.01-1.01.45-1.01 1.01.45 1.01 1.01 1.01"/><path fill="#006e69" d="M177.09 248.19h-88.5a2.47 2.47 0 0 0-2.47 2.47v23.73a2.47 2.47 0 0 0 2.47 2.47h88.5a2.47 2.47 0 0 0 2.47-2.47v-23.73a2.47 2.47 0 0 0-2.47-2.47"/><path fill="#003834" d="M175.34 257.43h-28.69v10.2h28.69z"/><path stroke="#6fafac" stroke-linecap="round" stroke-linejoin="round" stroke-width=".89" d="M150.91 262.53h20.17"/><path fill="#6fafac" d="M115.89 265.97H95.22a3.45 3.45 0 0 1 0-6.9h20.67a3.45 3.45 0 0 1 0 6.9"/><path stroke="#6fafac" stroke-linecap="round" stroke-linejoin="round" stroke-width=".99" d="M133.11 265.97h-5.74a3.45 3.45 0 0 1 0-6.9h5.74a3.45 3.45 0 0 1 0 6.9"/><circle cx="96.34" cy="262.53" r=".99" fill="#afd3d0"/><path stroke="#afd3d0" stroke-linecap="round" stroke-linejoin="round" stroke-width="1.98" d="M102.67 262.53h9.49"/><circle cx="115.33" cy="262.53" r=".99" fill="#afd3d0"/><path fill="#006e69" d="M177.09 290.57h-88.5a2.47 2.47 0 0 0-2.47 2.47v23.73a2.47 2.47 0 0 0 2.47 2.47h88.5a2.47 2.47 0 0 0 2.47-2.47v-23.73a2.47 2.47 0 0 0-2.47-2.47"/><path fill="#003834" d="M175.34 299.8h-28.69V310h28.69z"/><path stroke="#6fafac" stroke-linecap="round" stroke-linejoin="round" stroke-width=".89" d="M150.91 304.9h20.17"/><path fill="#6fafac" d="M115.89 308.35H95.22a3.45 3.45 0 0 1 0-6.9h20.67a3.45 3.45 0 0 1 0 6.9"/><path stroke="#6fafac" stroke-linecap="round" stroke-linejoin="round" stroke-width=".99" d="M133.11 308.35h-5.74a3.45 3.45 0 0 1 0-6.9h5.74a3.45 3.45 0 0 1 0 6.9"/><path fill="#afd3d0" d="M96.34 305.89c-.26 0-.52-.11-.7-.29-.05-.05-.09-.1-.13-.15a.6.6 0 0 1-.09-.17.7.7 0 0 1-.06-.19c0-.06-.02-.13-.02-.19 0-.26.11-.51.29-.7a.98.98 0 0 1 .89-.27c.06 0 .13.03.18.06.06.02.12.06.17.09.06.04.11.08.15.13.18.18.29.44.29.7 0 .06 0 .13-.02.19s-.03.13-.06.19-.06.12-.09.17q-.06.09-.12.15-.075.075-.15.12c-.05.04-.11.07-.17.09l-.18.06c-.06.02-.13.02-.19.02z"/><path fill="#afd3d0" stroke="#afd3d0" stroke-linecap="round" stroke-linejoin="round" stroke-width="1.21" d="M108.01 304.9a.986.986 0 1 1 1.97 0c0 .54-.44.99-.98.99-.55 0-.99-.44-.99-.99m-6.33 0c0-.55.44-.99.99-.99s.99.44.99.99c0 .54-.44.99-.99.99s-.99-.44-.99-.99"/><path fill="#afd3d0" d="M115.33 305.89c-.26 0-.51-.11-.7-.29-.05-.05-.09-.1-.13-.15-.03-.05-.07-.11-.09-.17-.03-.06-.04-.13-.06-.19s-.02-.13-.02-.19c0-.26.11-.51.29-.7.05-.05.1-.09.15-.13.06-.03.11-.07.17-.09q.09-.045.18-.06.195-.045.39 0c.06 0 .13.03.18.06.06.02.12.06.17.09.06.04.11.08.15.13.18.18.29.44.29.7s-.11.51-.29.7q-.075.075-.15.12c-.05.04-.11.07-.17.09l-.18.06c-.07.01-.13.02-.19.02z"/><path stroke="#6fafac" stroke-linecap="round" stroke-linejoin="round" stroke-width="1.01" d="M130.34 261.99v-20.26c0-14.93 12.15-12.52 26.99-12.52h6.49c2.36 0 4.72-.02 7.08 0 3.16.02 6.46-.57 6.78-4.54v-29.48"/><path fill="#6fafac" d="M130.34 263.07a1.14 1.14 0 1 0 0-2.28 1.14 1.14 0 0 0 0 2.28m47.36-66.69a1.14 1.14 0 1 0 0-2.28 1.14 1.14 0 0 0 0 2.28"/><path stroke="#6fafac" stroke-linecap="round" stroke-linejoin="round" stroke-width="1.01" d="M133.33 261.99v-20.26c0-14.93 12.15-12.52 26.99-12.52h11.42"/><path fill="#6fafac" d="M134.47 261.93a1.14 1.14 0 1 1-2.279.001 1.14 1.14 0 0 1 2.279-.001m37.22-31.59a1.14 1.14 0 1 0 .001-2.279 1.14 1.14 0 0 0-.001 2.279"/><path stroke="#6fafac" stroke-linecap="round" stroke-linejoin="round" stroke-width="1.01" d="M127.35 261.99v-20.26c0-14.93 12.15-12.52 26.99-12.52h17.4"/><path fill="#6fafac" d="M128.49 261.93a1.14 1.14 0 1 1-2.279.001 1.14 1.14 0 0 1 2.279-.001m43.2-31.59a1.14 1.14 0 1 0 .001-2.279 1.14 1.14 0 0 0-.001 2.279"/><path stroke="#6fafac" stroke-linecap="round" stroke-linejoin="round" stroke-width=".89" d="M130.34 304.48V284.1c0-14.93 12.15-12.52 26.99-12.52h6.49c2.36 0 4.72-.02 7.08 0 3.16.02 6.46-.57 6.78-4.54v-29.6"/><path fill="#6fafac" d="M131.35 304.43c0 .56-.45 1.01-1.01 1.01s-1.01-.45-1.01-1.01.45-1.01 1.01-1.01 1.01.45 1.01 1.01m47.35-66.94c0-.56-.45-1.01-1.01-1.01s-1.01.45-1.01 1.01.45 1.01 1.01 1.01 1.01-.45 1.01-1.01"/><path stroke="#6fafac" stroke-linecap="round" stroke-linejoin="round" stroke-width=".89" d="M133.33 304.48V284.1c0-14.93 12.15-12.52 26.99-12.52h11.54"/><path fill="#6fafac" d="M134.34 304.43c0 .56-.45 1.01-1.01 1.01s-1.01-.45-1.01-1.01.45-1.01 1.01-1.01 1.01.45 1.01 1.01m37.48-31.84c.56 0 1.01-.45 1.01-1.01s-.45-1.01-1.01-1.01-1.01.45-1.01 1.01.45 1.01 1.01 1.01"/><path stroke="#6fafac" stroke-linecap="round" stroke-linejoin="round" stroke-width=".89" d="M127.35 304.48V284.1c0-14.93 12.15-12.52 26.99-12.52h17.52"/><path fill="#6fafac" d="M128.36 304.43c0 .56-.45 1.01-1.01 1.01s-1.01-.45-1.01-1.01.45-1.01 1.01-1.01 1.01.45 1.01 1.01m43.46-31.84c.56 0 1.01-.45 1.01-1.01s-.45-1.01-1.01-1.01-1.01.45-1.01 1.01.45 1.01 1.01 1.01"/><path stroke="#6fafac" stroke-linecap="round" stroke-linejoin="round" stroke-width="1.01" d="M158.42 313.95h5.41c2.36 0 4.72-.02 7.08 0 3.16.02 6.46-.57 6.78-4.54v-29.48"/><path fill="#6fafac" d="M158.47 315.09a1.14 1.14 0 1 1-.001-2.279 1.14 1.14 0 0 1 .001 2.279m19.23-33.96a1.14 1.14 0 1 0 0-2.28 1.14 1.14 0 0 0 0 2.28"/><path stroke="#6fafac" stroke-linecap="round" stroke-linejoin="round" stroke-width="1.01" d="M161.41 313.95h10.33"/><path fill="#6fafac" d="M161.46 315.09a1.14 1.14 0 1 1-.001-2.279 1.14 1.14 0 0 1 .001 2.279m10.23 0a1.14 1.14 0 1 0 .001-2.279 1.14 1.14 0 0 0-.001 2.279"/><path stroke="#6fafac" stroke-linecap="round" stroke-linejoin="round" stroke-width="1.01" d="M155.42 313.95h16.32"/><path fill="#6fafac" d="M155.48 315.09a1.14 1.14 0 1 1-.001-2.279 1.14 1.14 0 0 1 .001 2.279m16.21 0a1.14 1.14 0 1 0 .001-2.279 1.14 1.14 0 0 0-.001 2.279"/><path fill="#013834" d="M207.54 330.95V143.2l18.28-11.63h104.34V318.2l-19.4 12.75z"/><path fill="#013834" d="M329.66 132.07v185.86l-19.05 12.52H208.05V143.47l17.92-11.4h103.7m.99-1H225.67l-18.63 11.85v188.54H310.9l19.76-12.98z"/><path stroke="#afd3d0" stroke-linecap="round" stroke-linejoin="round" stroke-width="1.01" d="M310.63 143.46H205.77v189.07h104.86z"/><path stroke="#6fafac" stroke-linecap="round" stroke-linejoin="round" stroke-width="1.01" d="M237.82 219.61v-20.26c0-14.93 12.15-12.52 26.99-12.52h6.49c2.36 0 4.72-.02 7.08 0 3.16.02 6.46-.57 6.78-4.54v-30.47"/><path fill="#6fafac" d="M238.96 219.55a1.14 1.14 0 1 1-2.279.001 1.14 1.14 0 0 1 2.279-.001m47.35-67.67a1.14 1.14 0 1 0-2.279-.001 1.14 1.14 0 0 0 2.279.001"/><path stroke="#6fafac" stroke-linecap="round" stroke-linejoin="round" stroke-width="1.01" d="M240.81 219.61v-20.26c0-14.93 12.15-12.52 26.99-12.52h11.42"/><path fill="#6fafac" d="M241.95 219.55a1.14 1.14 0 1 1-2.279.001 1.14 1.14 0 0 1 2.279-.001m37.21-31.58a1.14 1.14 0 1 0 .001-2.279 1.14 1.14 0 0 0-.001 2.279"/><path stroke="#6fafac" stroke-linecap="round" stroke-linejoin="round" stroke-width="1.01" d="M234.83 219.61v-20.26c0-14.93 12.15-12.52 26.99-12.52h17.4"/><path fill="#6fafac" d="M235.97 219.55a1.14 1.14 0 1 1-2.279.001 1.14 1.14 0 0 1 2.279-.001m43.19-31.58a1.14 1.14 0 1 0 .001-2.279 1.14 1.14 0 0 0-.001 2.279"/><path stroke="#6fafac" stroke-linecap="round" stroke-linejoin="round" stroke-width="1.01" d="M237.82 261.99v-20.26c0-14.93 12.15-12.52 26.99-12.52h6.49c2.36 0 4.72-.02 7.08 0 3.16.02 6.46-.57 6.78-4.54v-35.92"/><path fill="#6fafac" d="M238.96 261.93a1.14 1.14 0 1 1-2.279.001 1.14 1.14 0 0 1 2.279-.001m47.35-73.12a1.14 1.14 0 1 0-2.279-.001 1.14 1.14 0 0 0 2.279.001"/><path stroke="#6fafac" stroke-linecap="round" stroke-linejoin="round" stroke-width="1.01" d="M240.81 261.99v-20.26c0-14.93 12.15-12.52 26.99-12.52h11.42"/><path fill="#6fafac" d="M241.95 261.93a1.14 1.14 0 1 1-2.279.001 1.14 1.14 0 0 1 2.279-.001m37.21-31.59a1.14 1.14 0 1 0 .001-2.279 1.14 1.14 0 0 0-.001 2.279"/><path stroke="#6fafac" stroke-linecap="round" stroke-linejoin="round" stroke-width="1.01" d="M234.83 261.99v-20.26c0-14.93 12.15-12.52 26.99-12.52h17.4"/><path fill="#6fafac" d="M235.97 261.93a1.14 1.14 0 1 1-2.279.001 1.14 1.14 0 0 1 2.279-.001m43.19-31.59a1.14 1.14 0 1 0 .001-2.279 1.14 1.14 0 0 0-.001 2.279"/><path fill="#afd3d0" d="M310.09 144.01H206.35v7.55h103.74z"/><path stroke="#afd3d0" stroke-linecap="round" stroke-linejoin="round" stroke-width="1.01" d="M330.1 130.65H225.13l-19.36 12.53h104.96zm.7 0-.49 189.07-19.44 12.53.49-189.07z"/><path stroke="#6fafac" stroke-linecap="round" stroke-linejoin="round" stroke-width="1.01" d="M237.82 304.36V284.1c0-14.93 12.15-12.52 26.99-12.52h6.49c2.36 0 4.72-.02 7.08 0 3.16.02 6.46-.57 6.78-4.54v-35.92"/><path fill="#6fafac" d="M238.96 304.3a1.14 1.14 0 1 1-2.279.001 1.14 1.14 0 0 1 2.279-.001m47.35-73.12a1.14 1.14 0 1 0-2.279-.001 1.14 1.14 0 0 0 2.279.001"/><path stroke="#6fafac" stroke-linecap="round" stroke-linejoin="round" stroke-width="1.01" d="M240.81 304.36V284.1c0-14.93 12.15-12.52 26.99-12.52h11.42"/><path fill="#6fafac" d="M241.95 304.3a1.14 1.14 0 1 1-2.279.001 1.14 1.14 0 0 1 2.279-.001m37.21-31.58a1.14 1.14 0 1 0 0-2.28 1.14 1.14 0 0 0 0 2.28"/><path stroke="#6fafac" stroke-linecap="round" stroke-linejoin="round" stroke-width="1.01" d="M234.83 304.36V284.1c0-14.93 12.15-12.52 26.99-12.52h17.4"/><path fill="#6fafac" d="M235.97 304.3a1.14 1.14 0 1 1-2.279.001 1.14 1.14 0 0 1 2.279-.001m43.19-31.58a1.14 1.14 0 1 0 0-2.28 1.14 1.14 0 0 0 0 2.28"/><path fill="#003834" d="M302.45 167.06h-88.5a2.47 2.47 0 0 0-2.47 2.47v23.73a2.47 2.47 0 0 0 2.47 2.47h88.5a2.47 2.47 0 0 0 2.47-2.47v-23.73a2.47 2.47 0 0 0-2.47-2.47m0 42.38h-88.5a2.47 2.47 0 0 0-2.47 2.47v23.73a2.47 2.47 0 0 0 2.47 2.47h88.5a2.47 2.47 0 0 0 2.47-2.47v-23.73a2.47 2.47 0 0 0-2.47-2.47m0 42.38h-88.5a2.47 2.47 0 0 0-2.47 2.47v23.73a2.47 2.47 0 0 0 2.47 2.47h88.5a2.47 2.47 0 0 0 2.47-2.47v-23.73a2.47 2.47 0 0 0-2.47-2.47m0 42.37h-88.5a2.47 2.47 0 0 0-2.47 2.47v23.73a2.47 2.47 0 0 0 2.47 2.47h88.5a2.47 2.47 0 0 0 2.47-2.47v-23.73a2.47 2.47 0 0 0-2.47-2.47"/><path fill="#006e69" d="M302.45 163.44h-88.5a2.47 2.47 0 0 0-2.47 2.47v23.73a2.47 2.47 0 0 0 2.47 2.47h88.5a2.47 2.47 0 0 0 2.47-2.47v-23.73a2.47 2.47 0 0 0-2.47-2.47"/><path fill="#6fafac" d="M241.24 181.22h-20.67a3.45 3.45 0 0 1 0-6.9h20.67a3.45 3.45 0 0 1 0 6.9"/><path stroke="#6fafac" stroke-linecap="round" stroke-linejoin="round" stroke-width=".99" d="M258.47 181.3h-5.74a3.45 3.45 0 0 1 0-6.9h5.74a3.45 3.45 0 0 1 0 6.9"/><path stroke="#6fafac" stroke-linecap="round" stroke-linejoin="round" stroke-width=".89" d="M255.7 178.54v-18.86c0-11.72 12.15-9.6 26.99-9.6h20.36"/><path fill="#6fafac" d="M255.7 179.5a1.01 1.01 0 1 0 0-2.02 1.01 1.01 0 0 0 0 2.02"/><path stroke="#6fafac" stroke-linecap="round" stroke-linejoin="round" stroke-width=".89" d="M258.69 178.54v-18.86c0-11.72 12.15-8.94 26.99-8.94h17.37"/><path fill="#6fafac" d="M258.69 179.5a1.01 1.01 0 1 0 0-2.02 1.01 1.01 0 0 0 0 2.02"/><path stroke="#6fafac" stroke-linecap="round" stroke-linejoin="round" stroke-width=".89" d="M252.71 178.54v-18.86c0-11.72 12.15-9.6 26.99-9.6h23.35"/><path fill="#6fafac" d="M252.71 179.5a1.01 1.01 0 1 0 0-2.02 1.01 1.01 0 0 0 0 2.02"/><path fill="#003834" d="M300.7 172.67h-28.69v10.2h28.69z"/><path stroke="#6fafac" stroke-linecap="round" stroke-linejoin="round" stroke-width=".89" d="M276.27 177.78h20.17"/><circle cx="221.69" cy="177.78" r=".99" fill="#afd3d0"/><path stroke="#afd3d0" stroke-linecap="round" stroke-linejoin="round" stroke-width="1.98" d="M228.02 177.78h9.5"/><circle cx="240.68" cy="177.78" r=".99" fill="#afd3d0"/><path fill="#006e69" d="M302.45 205.82h-88.5a2.47 2.47 0 0 0-2.47 2.47v23.73a2.47 2.47 0 0 0 2.47 2.47h88.5a2.47 2.47 0 0 0 2.47-2.47v-23.73a2.47 2.47 0 0 0-2.47-2.47"/><path fill="#003834" d="M300.7 215.05h-28.69v10.2h28.69z"/><path stroke="#6fafac" stroke-linecap="round" stroke-linejoin="round" stroke-width=".89" d="M276.27 220.15h20.17"/><path fill="#6fafac" d="M241.24 223.6h-20.67a3.45 3.45 0 0 1 0-6.9h20.67a3.45 3.45 0 0 1 0 6.9"/><path stroke="#6fafac" stroke-linecap="round" stroke-linejoin="round" stroke-width=".99" d="M258.47 223.6h-5.74a3.45 3.45 0 0 1 0-6.9h5.74a3.45 3.45 0 0 1 0 6.9"/><circle cx="221.69" cy="220.15" r=".99" fill="#afd3d0"/><path stroke="#afd3d0" stroke-linecap="round" stroke-linejoin="round" stroke-width="1.98" d="M228.02 220.15h9.5"/><circle cx="240.68" cy="220.15" r=".99" fill="#afd3d0"/><path stroke="#6fafac" stroke-linecap="round" stroke-linejoin="round" stroke-width=".89" d="M255.7 219.73v-20.38c0-14.93 12.15-12.52 26.99-12.52h6.49c2.36 0 4.72-.02 7.08 0 3.16.02 6.46-.57 6.78-4.54v-31.91"/><path fill="#6fafac" d="M256.7 219.68c0 .56-.45 1.01-1.01 1.01s-1.01-.45-1.01-1.01.45-1.01 1.01-1.01 1.01.45 1.01 1.01m47.36-69.25c0-.56-.45-1.01-1.01-1.01s-1.01.45-1.01 1.01.45 1.01 1.01 1.01 1.01-.45 1.01-1.01"/><path stroke="#6fafac" stroke-linecap="round" stroke-linejoin="round" stroke-width=".89" d="M258.69 219.73v-20.38c0-14.93 12.15-12.52 26.99-12.52h11.54"/><path fill="#6fafac" d="M259.69 219.68c0 .56-.45 1.01-1.01 1.01s-1.01-.45-1.01-1.01.45-1.01 1.01-1.01 1.01.45 1.01 1.01m37.48-31.84c.56 0 1.01-.45 1.01-1.01s-.45-1.01-1.01-1.01-1.01.45-1.01 1.01.45 1.01 1.01 1.01"/><path stroke="#6fafac" stroke-linecap="round" stroke-linejoin="round" stroke-width=".89" d="M252.71 219.73v-20.38c0-14.93 12.15-12.52 26.99-12.52h17.52"/><path fill="#6fafac" d="M253.71 219.68c0 .56-.45 1.01-1.01 1.01s-1.01-.45-1.01-1.01.45-1.01 1.01-1.01 1.01.45 1.01 1.01m43.46-31.84c.56 0 1.01-.45 1.01-1.01s-.45-1.01-1.01-1.01-1.01.45-1.01 1.01.45 1.01 1.01 1.01"/><path fill="#006e69" d="M302.45 248.19h-88.5a2.47 2.47 0 0 0-2.47 2.47v23.73a2.47 2.47 0 0 0 2.47 2.47h88.5a2.47 2.47 0 0 0 2.47-2.47v-23.73a2.47 2.47 0 0 0-2.47-2.47"/><path fill="#003834" d="M300.7 257.43h-28.69v10.2h28.69z"/><path stroke="#6fafac" stroke-linecap="round" stroke-linejoin="round" stroke-width=".89" d="M276.27 262.53h20.17"/><path fill="#6fafac" d="M241.24 265.97h-20.67a3.45 3.45 0 0 1 0-6.9h20.67a3.45 3.45 0 0 1 0 6.9"/><path stroke="#6fafac" stroke-linecap="round" stroke-linejoin="round" stroke-width=".99" d="M258.47 265.97h-5.74a3.45 3.45 0 0 1 0-6.9h5.74a3.45 3.45 0 0 1 0 6.9"/><circle cx="221.69" cy="262.53" r=".99" fill="#afd3d0"/><path stroke="#afd3d0" stroke-linecap="round" stroke-linejoin="round" stroke-width="1.98" d="M228.02 262.53h9.5"/><circle cx="240.68" cy="262.53" r=".99" fill="#afd3d0"/><path fill="#006e69" d="M302.45 290.57h-88.5a2.47 2.47 0 0 0-2.47 2.47v23.73a2.47 2.47 0 0 0 2.47 2.47h88.5a2.47 2.47 0 0 0 2.47-2.47v-23.73a2.47 2.47 0 0 0-2.47-2.47"/><path fill="#003834" d="M300.7 299.8h-28.69V310h28.69z"/><path stroke="#6fafac" stroke-linecap="round" stroke-linejoin="round" stroke-width=".89" d="M276.27 304.9h20.17"/><path fill="#6fafac" d="M241.24 308.35h-20.67a3.45 3.45 0 0 1 0-6.9h20.67a3.45 3.45 0 0 1 0 6.9"/><path stroke="#6fafac" stroke-linecap="round" stroke-linejoin="round" stroke-width=".99" d="M258.47 308.35h-5.74a3.45 3.45 0 0 1 0-6.9h5.74a3.45 3.45 0 0 1 0 6.9"/><path fill="#afd3d0" d="M221.69 305.89c-.26 0-.52-.11-.7-.29-.05-.05-.09-.1-.13-.15a.6.6 0 0 1-.09-.17.7.7 0 0 1-.06-.19c0-.06-.02-.13-.02-.19 0-.26.11-.51.29-.7a.98.98 0 0 1 .89-.27c.06 0 .13.03.18.06.06.02.12.06.17.09.06.04.11.08.15.13.18.18.29.44.29.7 0 .06 0 .13-.02.19s-.03.13-.06.19-.06.12-.09.17q-.06.09-.12.15-.075.075-.15.12c-.05.04-.11.07-.17.09l-.18.06c-.06.02-.13.02-.19.02z"/><path fill="#afd3d0" stroke="#afd3d0" stroke-linecap="round" stroke-linejoin="round" stroke-width="1.21" d="M233.36 304.9a.986.986 0 1 1 1.97 0c0 .54-.44.99-.98.99-.55 0-.99-.44-.99-.99m-6.33 0c0-.55.44-.99.99-.99s.99.44.99.99c0 .54-.44.99-.99.99s-.99-.44-.99-.99"/><path fill="#afd3d0" d="M240.68 305.89a1.03 1.03 0 0 1-.83-.44c-.03-.05-.07-.11-.09-.17-.03-.06-.04-.13-.06-.19s-.02-.13-.02-.19c0-.26.11-.51.29-.7.05-.05.1-.09.15-.13.06-.03.11-.07.17-.09q.09-.045.18-.06.195-.045.39 0c.06 0 .13.03.18.06.06.02.12.06.17.09.06.04.11.08.15.13.18.18.29.44.29.7s-.11.51-.29.7q-.075.075-.15.12c-.05.04-.11.07-.17.09l-.18.06c-.07.01-.13.02-.19.02z"/><path stroke="#6fafac" stroke-linecap="round" stroke-linejoin="round" stroke-width="1.01" d="M255.7 261.99v-20.26c0-14.93 12.15-12.52 26.99-12.52h6.49c2.36 0 4.72-.02 7.08 0 3.16.02 6.46-.57 6.78-4.54v-29.48"/><path fill="#6fafac" d="M256.83 261.93a1.14 1.14 0 1 1-2.279.001 1.14 1.14 0 0 1 2.279-.001m47.36-66.69a1.14 1.14 0 1 0-2.279-.001 1.14 1.14 0 0 0 2.279.001"/><path stroke="#6fafac" stroke-linecap="round" stroke-linejoin="round" stroke-width="1.01" d="M258.69 261.99v-20.26c0-14.93 12.15-12.52 26.99-12.52h11.42"/><path fill="#6fafac" d="M259.82 261.93a1.14 1.14 0 1 1-2.279.001 1.14 1.14 0 0 1 2.279-.001m37.22-31.59a1.14 1.14 0 1 0 .001-2.279 1.14 1.14 0 0 0-.001 2.279"/><path stroke="#6fafac" stroke-linecap="round" stroke-linejoin="round" stroke-width="1.01" d="M252.71 261.99v-20.26c0-14.93 12.15-12.52 26.99-12.52h17.4"/><path fill="#6fafac" d="M253.84 261.93a1.14 1.14 0 1 1-2.279.001 1.14 1.14 0 0 1 2.279-.001m43.2-31.59a1.14 1.14 0 1 0 .001-2.279 1.14 1.14 0 0 0-.001 2.279"/><path stroke="#6fafac" stroke-linecap="round" stroke-linejoin="round" stroke-width=".89" d="M255.7 304.48V284.1c0-14.93 12.15-12.52 26.99-12.52h6.49c2.36 0 4.72-.02 7.08 0 3.16.02 6.46-.57 6.78-4.54v-29.6"/><path fill="#6fafac" d="M256.7 304.43c0 .56-.45 1.01-1.01 1.01s-1.01-.45-1.01-1.01.45-1.01 1.01-1.01 1.01.45 1.01 1.01m47.36-66.94c0-.56-.45-1.01-1.01-1.01s-1.01.45-1.01 1.01.45 1.01 1.01 1.01 1.01-.45 1.01-1.01"/><path stroke="#6fafac" stroke-linecap="round" stroke-linejoin="round" stroke-width=".89" d="M258.69 304.48V284.1c0-14.93 12.15-12.52 26.99-12.52h11.54"/><path fill="#6fafac" d="M259.69 304.43c0 .56-.45 1.01-1.01 1.01s-1.01-.45-1.01-1.01.45-1.01 1.01-1.01 1.01.45 1.01 1.01m37.48-31.84c.56 0 1.01-.45 1.01-1.01s-.45-1.01-1.01-1.01-1.01.45-1.01 1.01.45 1.01 1.01 1.01"/><path stroke="#6fafac" stroke-linecap="round" stroke-linejoin="round" stroke-width=".89" d="M252.71 304.48V284.1c0-14.93 12.15-12.52 26.99-12.52h17.52"/><path fill="#6fafac" d="M253.71 304.43c0 .56-.45 1.01-1.01 1.01s-1.01-.45-1.01-1.01.45-1.01 1.01-1.01 1.01.45 1.01 1.01m43.46-31.84c.56 0 1.01-.45 1.01-1.01s-.45-1.01-1.01-1.01-1.01.45-1.01 1.01.45 1.01 1.01 1.01"/><path stroke="#6fafac" stroke-linecap="round" stroke-linejoin="round" stroke-width="1.01" d="M283.77 313.95h5.41c2.36 0 4.72-.02 7.08 0 3.16.02 6.46-.57 6.78-4.54v-29.48"/><path fill="#6fafac" d="M283.83 315.09a1.14 1.14 0 1 1-.001-2.279 1.14 1.14 0 0 1 .001 2.279m20.36-35.1a1.14 1.14 0 1 0-2.279-.001 1.14 1.14 0 0 0 2.279.001"/><path stroke="#6fafac" stroke-linecap="round" stroke-linejoin="round" stroke-width="1.01" d="M286.76 313.95h10.34"/><path fill="#6fafac" d="M286.82 315.09a1.14 1.14 0 1 1-.001-2.279 1.14 1.14 0 0 1 .001 2.279m10.22 0a1.14 1.14 0 1 0 .001-2.279 1.14 1.14 0 0 0-.001 2.279"/><path stroke="#6fafac" stroke-linecap="round" stroke-linejoin="round" stroke-width="1.01" d="M280.78 313.95h16.32"/><path fill="#6fafac" d="M280.84 315.09a1.14 1.14 0 1 1-.001-2.279 1.14 1.14 0 0 1 .001 2.279m16.2 0a1.14 1.14 0 1 0 .001-2.279 1.14 1.14 0 0 0-.001 2.279"/><path stroke="#acca53" stroke-linecap="round" stroke-linejoin="round" stroke-width="1.05" d="M308.51 178.4h76.25c7.05 0 12.77 5.72 12.77 12.77v41.41c0 7.05 5.72 12.77 12.77 12.77h10.42"/><path fill="#acca53" d="M308.71 182.36c-2.19 0-3.96-1.78-3.96-3.96a3.97 3.97 0 0 1 3.96-3.96 3.97 3.97 0 0 1 3.96 3.96 3.97 3.97 0 0 1-3.96 3.96"/><path stroke="#acca53" stroke-linecap="round" stroke-linejoin="round" stroke-width="1.05" d="M308.51 177.87h76.25c7.05 0 12.77-5.72 12.77-12.77v-41.41c0-7.05 5.72-12.77 12.77-12.77h10.42"/><path fill="#acca53" d="M308.71 181.84c-2.19 0-3.96-1.78-3.96-3.96a3.97 3.97 0 0 1 3.96-3.96 3.97 3.97 0 0 1 3.96 3.96 3.97 3.97 0 0 1-3.96 3.96"/><path fill="#013834" d="M568.79 201.92H412.96v143.87h155.83z"/><path fill="#013834" d="M568.28 202.42v142.87H413.46V202.42zm1.01-1H412.46v144.87h156.83z"/><path stroke="#afd3d0" stroke-linecap="round" stroke-linejoin="round" stroke-width=".43" d="M431.88 335.96h121.11"/><path fill="#afd3d0" d="m552.36 338.12 3.74-2.16-3.74-2.16z"/><path stroke="#afd3d0" stroke-linecap="round" stroke-linejoin="round" stroke-width=".43" d="M431.88 335.96V214.85"/><path fill="#afd3d0" d="m434.04 215.48-2.16-3.74-2.16 3.74z"/><path fill="#6fafac" d="m425.37 212.67-2.38 5.78-.94-.89 3.51-.16 1.15-.05c-.27.4-3.87 5.8-4.25 6.37l2.68-6.03.56.83-3.44.72-.93.19c0-.6 1.48-6.18 1.48-6.92l1.02.17h1.55z"/><path stroke="#acca53" stroke-miterlimit="10" stroke-width=".35" d="M562.26 330c1.16 0 2.1.95 2.1 2.1v3.86h-4.21v-3.86c0-1.16.95-2.1 2.1-2.1z"/><path fill="#fff" stroke="#fff" stroke-miterlimit="10" stroke-width=".35" d="M562.26 333.68c1.16 0 2.1.95 2.1 2.1h-4.21c0-1.16.95-2.1 2.1-2.1z"/><path stroke="#acca53" stroke-linecap="round" stroke-linejoin="round" stroke-width="1.05" d="M565.07 335.96h-5.61"/><path fill="#fff" stroke="#fff" stroke-miterlimit="10" stroke-width=".35" d="M562.26 330.7c-1.16 0-2.1-.95-2.1-2.1h4.21c0 1.16-.95 2.1-2.1 2.1z"/><path stroke="#acca53" stroke-miterlimit="10" stroke-width=".35" d="M562.26 330.7c-1.16 0-2.1-.95-2.1-2.1v-3.86h4.21v3.86c0 1.16-.95 2.1-2.1 2.1z"/><path stroke="#acca53" stroke-linecap="round" stroke-linejoin="round" stroke-width="1.05" d="M559.46 324.74h5.61"/><path stroke="#6fafac" stroke-linecap="round" stroke-linejoin="round" stroke-width="3.36" d="M436.37 331.48v-10.02m5.91 10.15v-23.37m5.92 23.49v-32.08m5.91 32.2v-28.72m5.92 28.85v-37.89m5.91 38.01v-48.68m5.92 48.8v-57.39m5.91 57.52v-24.11m5.92 24.23v-46.04m5.91 46.17V220.47m58.93 111.01v-10.02m-5.92 10.15v-23.37m-5.92 23.49v-32.08m-5.91 32.2v-28.72m-5.92 28.85V309.4m-5.91 22.7v-68.72m-5.92 68.84v-30.48m-5.91 30.61v-25.5m-5.92 25.62v-38.15m-5.91 38.28v-82.48"/><path fill="#013834" d="M568.79 33.21H412.96v143.87h155.83z"/><path fill="#013834" d="M568.28 33.72v142.86H413.46V33.72zm1.01-1.01H412.46v144.87h156.83z"/><path stroke="#afd3d0" stroke-linecap="round" stroke-linejoin="round" stroke-width=".43" d="M428.8 167.26h121.1"/><path fill="#afd3d0" d="m549.27 169.42 3.74-2.16-3.74-2.16z"/><path stroke="#afd3d0" stroke-linecap="round" stroke-linejoin="round" stroke-width=".43" d="M428.8 167.26V46.15"/><path fill="#afd3d0" d="m430.95 46.78-2.15-3.74-2.16 3.74z"/><path fill="#acca53" stroke="#acca53" stroke-linecap="round" stroke-linejoin="round" stroke-width=".37" d="m422.29 43.97-2.38 5.78-.94-.89 3.51-.16 1.15-.05c-.27.4-3.87 5.8-4.25 6.37l2.68-6.03.56.83-3.44.72-.93.19c0-.6 1.48-6.18 1.48-6.92l1.02.17h1.55z"/><path stroke="#acca53" stroke-linecap="round" stroke-linejoin="round" stroke-width="3.08" d="M433.28 163.89v-23.13m5.08 23.13v-26.94m5.07 26.94v-30.74m5.08 30.74v-34.55m5.07 34.55v-38.36m5.08 38.36v-42.04m5.07 42.04v-45.32m5.08 45.32V115.7m5.07 48.19v-50.67m5.08 50.67v-53.08m5.07 53.08V108.4m5.08 55.49v-56.78m56.08 56.78v-23.13m-5.08 23.13v-26.94m-5.07 26.94v-30.74m-5.08 30.74v-34.55m-5.07 34.55v-38.36m-5.08 38.36v-42.04m-5.07 42.04v-45.32m-5.08 45.32V115.7m-5.07 48.19v-50.67m-5.08 50.67v-53.08m-5.07 53.08V108.4m-5.08 55.49v-56.78"/><path stroke="#acca53" stroke-miterlimit="10" stroke-width=".35" d="M559.46 161.02c1.16 0 2.1.95 2.1 2.1v3.86h-4.21v-3.86c0-1.16.95-2.1 2.1-2.1z"/><path fill="#fff" stroke="#fff" stroke-miterlimit="10" stroke-width=".35" d="M559.46 164.7c1.16 0 2.1.95 2.1 2.1h-4.21c0-1.16.95-2.1 2.1-2.1z"/><path stroke="#acca53" stroke-linecap="round" stroke-linejoin="round" stroke-width="1.05" d="M562.27 166.98h-5.61"/><path fill="#fff" stroke="#fff" stroke-miterlimit="10" stroke-width=".35" d="M559.46 161.72c-1.16 0-2.1-.95-2.1-2.1h4.21c0 1.16-.95 2.1-2.1 2.1z"/><path stroke="#acca53" stroke-miterlimit="10" stroke-width=".35" d="M559.46 161.72c-1.16 0-2.1-.95-2.1-2.1v-3.86h4.21v3.86c0 1.16-.95 2.1-2.1 2.1z"/><path stroke="#acca53" stroke-linecap="round" stroke-linejoin="round" stroke-width="1.05" d="M556.66 155.76h5.61"/></svg>