<svg xmlns="http://www.w3.org/2000/svg" width="56" height="50" fill="none" viewBox="0 0 56 50"><path fill="#a5c352" d="M32.49 42.25h-8.98a3.377 3.377 0 0 0-3.38 3.375A3.377 3.377 0 0 0 23.51 49h8.98a3.377 3.377 0 0 0 3.38-3.375 3.377 3.377 0 0 0-3.38-3.375"/><path stroke="#a5c352" stroke-linecap="round" stroke-linejoin="round" stroke-width="1.38" d="M28 42.25V23.14M8.75 34.82c0-2.04 1.64-3.69 3.67-3.72l2.6-.05a3.72 3.72 0 0 0 3.67-3.72v-7.77m28.56 15.26c0-2.04-1.64-3.69-3.67-3.72l-2.6-.05a3.72 3.72 0 0 1-3.67-3.72v-7.77"/><path fill="#006d68" d="M50.94 35.44h-7.37a3.38 3.38 0 0 0-3.38 3.375 3.377 3.377 0 0 0 3.38 3.375h7.37a3.377 3.377 0 0 0 3.38-3.375 3.38 3.38 0 0 0-3.38-3.375m-7.43-23.36S36.57 23.16 28 23.16 12.49 12.08 12.49 12.08 19.43 1 28 1s15.51 11.08 15.51 11.08"/><path fill="#fbfcf6" d="M28 15.87a4.47 4.47 0 1 0 0-8.94 4.47 4.47 0 0 0 0 8.94"/><path fill="#006d68" d="M12.43 35.44H5.06a3.38 3.38 0 0 0-3.38 3.375 3.377 3.377 0 0 0 3.38 3.375h7.37a3.377 3.377 0 0 0 3.38-3.375 3.38 3.38 0 0 0-3.38-3.375"/></svg>