<svg xmlns="http://www.w3.org/2000/svg" width="56" height="50" fill="none" viewBox="0 0 56 50"><path fill="#a5c352" d="M12.44 48 28 32.44 43.56 48z"/><path fill="#006d68" d="M52.5 29.31h-49v4h49zm-29.95-6.72V10.4L12 4.31 1.45 10.4v12.19L12 28.68z"/><path fill="#a5c352" d="M54.55 22.59V10.4L44 4.31 33.45 10.4v12.19L44 28.68z"/><path fill="#fff" d="m14.01 7.87-2.77 9.12-1.4-1.31c1.2-.29 6.33-1.53 7.42-1.79-.17.31-5.91 11.26-6.3 12l4.21-11.21.89 1.01-5.58 2.1-1.74.66c.21-1.18 1.72-9.97 1.97-11.37l3.3.78z"/><path fill="#006d68" d="m46.01 7.87-2.77 9.12-1.4-1.31c1.2-.29 6.33-1.53 7.42-1.79-.17.31-5.91 11.26-6.3 12l4.21-11.21.89 1.01-5.58 2.1-1.74.66c.21-1.18 1.72-9.97 1.97-11.37l3.3.78z"/></svg>