<svg width="56" height="50" viewBox="0 0 56 50" fill="none" xmlns="http://www.w3.org/2000/svg">
<path d="M12.44 47.9999L28 32.4399L43.56 47.9999H12.44Z" fill="#A5C352"/>
<path d="M52.5 29.3101H3.5V33.3101H52.5V29.3101Z" fill="#006D68"/>
<path d="M22.55 22.5901V10.4001L12 4.31006L1.45001 10.4001V22.5901L12 28.6801L22.55 22.5901Z" fill="#006D68"/>
<path d="M54.55 22.5901V10.4001L44 4.31006L33.45 10.4001V22.5901L44 28.6801L54.55 22.5901Z" fill="#A5C352"/>
<path d="M14.01 7.87008L11.24 16.9901L9.83999 15.6801C11.04 15.3901 16.17 14.1501 17.26 13.8901C17.09 14.2001 11.35 25.1501 10.96 25.8901L15.17 14.6801L16.06 15.6901L10.48 17.7901L8.73999 18.4501C8.94999 17.2701 10.46 8.48008 10.71 7.08008L14.01 7.86008V7.87008Z" fill="white"/>
<path d="M46.01 7.87008L43.24 16.9901L41.84 15.6801C43.04 15.3901 48.17 14.1501 49.26 13.8901C49.09 14.2001 43.35 25.1501 42.96 25.8901L47.17 14.6801L48.06 15.6901L42.48 17.7901L40.74 18.4501C40.95 17.2701 42.46 8.48008 42.71 7.08008L46.01 7.86008V7.87008Z" fill="#006D68"/>
</svg>
