<svg xmlns="http://www.w3.org/2000/svg" width="150" height="154" fill="none" viewBox="0 0 150 154"><g clip-path="url(#a)"><path stroke="#338a86" stroke-linecap="round" stroke-linejoin="round" stroke-width="2.36" d="M147.92 74.55c-73.39 24.38-73.37 73.37-73.37 73.37s0-48.61-73.37-73.37c0 0 .04-2.91.13-4.35C3.56 31.7 35.49 1.18 74.55 1.18c39.2 0 71.22 30.74 73.27 69.43.07 1.3.1 3.94.1 3.94"/><path stroke="#aecc53" stroke-miterlimit="10" stroke-width="2.93" d="M74.55 40.05v113.33"/><path fill="#aecc53" d="M63.52 40.6c0-6.09 4.94-11.03 11.03-11.03s11.03 4.94 11.03 11.03-4.94 11.03-11.03 11.03-11.03-4.94-11.03-11.03"/><path stroke="#aecc53" stroke-miterlimit="10" stroke-width="1.5" d="M110.68 61.06a124.2 124.2 0 0 0-23.46 27.93c-6.18 10.05-10.74 20-12.66 31.75"/><path fill="#aecc53" d="M106.82 56.96a5.64 5.64 0 1 1-.64 7.95 5.65 5.65 0 0 1 .63-7.95z"/><path stroke="#aecc53" stroke-miterlimit="10" stroke-width="1.5" d="M38.42 61.06c9.14 8.09 17.07 17.53 23.46 27.93 6.18 10.05 10.74 20 12.66 31.75"/><path fill="#aecc53" d="M34.97 65.54a5.65 5.65 0 0 1-.64-7.95 5.65 5.65 0 0 1 7.95-.64 5.65 5.65 0 0 1 .64 7.95 5.65 5.65 0 0 1-7.95.64"/></g><defs><clipPath id="a"><path fill="#fff" d="M0 0h149.1v153.38H0z"/></clipPath></defs></svg>