<svg width="400" height="390" viewBox="0 0 400 390" fill="none" xmlns="http://www.w3.org/2000/svg">
<path d="M262.7 14.85C245.99 8.59 228.55 3.34 210.71 3.42C186.66 3.53 163.81 13.23 141.93 23.22C101.66 41.6 69.9 70.4 36.89 99.66C10.17 123.34 5.77998 172.44 6.58998 205.8C6.68998 209.82 6.78998 213.87 6.96998 217.91C7.52998 230.35 8.86998 242.75 13.23 254.34C20.22 272.93 36.43 288.63 48.68 303.93C61.94 320.5 74.93 334.32 92.77 346.14C112.97 359.53 141.86 382.53 166.79 384.64C198.16 387.29 222.19 388.57 252.34 379.17C284.46 369.16 319.66 354.55 342.77 328.94C354.89 315.51 362.8 296.35 371.82 280.74C389.42 250.28 396.71 217.44 392.19 182.43C387.45 145.78 373.05 117.7 357.87 84.94C338.37 42.87 304.1 30.37 262.7 14.86V14.85Z" fill="#EBF2D4"/>
<path d="M213.38 156.81H125.91C125.34 156.81 124.88 156.35 124.88 155.78V44.26C124.88 43.69 125.34 43.23 125.91 43.23H190.97C191.27 43.23 191.56 43.36 191.75 43.59L214.16 69.78C214.32 69.97 214.41 70.2 214.41 70.45V155.78C214.41 156.35 213.95 156.81 213.38 156.81ZM126.94 154.75H212.35V70.83L190.5 45.29H126.94V154.75Z" fill="#A8C653"/>
<path d="M190.74 69.71H212.96L190.74 43.99V69.71Z" fill="#A8C653"/>
<path d="M202.17 85.13H139.58V91.58H202.17V85.13Z" fill="#A8C653"/>
<path d="M202.17 106.53H139.58V112.98H202.17V106.53Z" fill="#A8C653"/>
<path d="M202.17 127.93H139.58V134.38H202.17V127.93Z" fill="#A8C653"/>
<path d="M171.04 85.03H37.5699V286.06H171.04V85.03Z" fill="#6FAFAC"/>
<path d="M78.1 73.29H130.51C135.63 73.29 139.79 77.45 139.79 82.57V86.08H68.83V82.57C68.83 77.45 72.99 73.29 78.11 73.29H78.1Z" fill="#00544F"/>
<path d="M128.94 84.77H79.6599V93.33H128.94V84.77Z" fill="#00544F"/>
<path d="M63.29 124.91H49.74V138.46H63.29V124.91Z" fill="#003834"/>
<path d="M158.86 132.72H71.3499C70.7799 132.72 70.3199 132.26 70.3199 131.69C70.3199 131.12 70.7799 130.66 71.3499 130.66H158.86C159.43 130.66 159.89 131.12 159.89 131.69C159.89 132.26 159.43 132.72 158.86 132.72Z" fill="white"/>
<path d="M63.29 164.46H49.74V178.01H63.29V164.46Z" fill="#003834"/>
<path d="M158.86 172.26H71.3499C70.7799 172.26 70.3199 171.8 70.3199 171.23C70.3199 170.66 70.7799 170.2 71.3499 170.2H158.86C159.43 170.2 159.89 170.66 159.89 171.23C159.89 171.8 159.43 172.26 158.86 172.26Z" fill="white"/>
<path d="M63.29 204.01H49.74V217.56H63.29V204.01Z" fill="#003834"/>
<path d="M158.86 211.81H71.3499C70.7799 211.81 70.3199 211.35 70.3199 210.78C70.3199 210.21 70.7799 209.75 71.3499 209.75H158.86C159.43 209.75 159.89 210.21 159.89 210.78C159.89 211.35 159.43 211.81 158.86 211.81Z" fill="white"/>
<path d="M63.29 243.56H49.74V257.11H63.29V243.56Z" fill="#003834"/>
<path d="M158.86 251.36H71.3499C70.7799 251.36 70.3199 250.9 70.3199 250.33C70.3199 249.76 70.7799 249.3 71.3499 249.3H158.86C159.43 249.3 159.89 249.76 159.89 250.33C159.89 250.9 159.43 251.36 158.86 251.36Z" fill="white"/>
<path d="M288.13 113.01C285.53 117.8 284.02 123.27 283.95 129.09C283.72 148.09 307.16 169.4 318.06 169.4C332.79 169.4 353.16 148.8 353.16 129.52C353.16 121.61 350.5 114.31 346.03 108.48C343.9 105.71 343.39 102.03 344.73 98.8C346.12 95.45 346.89 91.78 346.89 87.93C346.89 81.37 344.66 75.33 340.92 70.53C338.56 67.51 338.15 63.43 339.89 60.01C341.54 56.76 342.47 53.09 342.47 49.19C342.47 35.98 327.94 9.60001 318.54 9.60001C310.28 9.60001 294.61 35.98 294.61 49.19C294.61 53.08 295.54 56.76 297.19 60.01C298.93 63.43 298.52 67.51 296.16 70.53C292.42 75.33 290.19 81.37 290.19 87.93C290.19 91.78 290.96 95.45 292.35 98.8C293.69 102.02 293.18 105.69 291.06 108.46C289.96 109.89 288.97 111.41 288.1 113.01" fill="#006D68"/>
<path d="M318.55 215.27C317.86 215.27 317.3 214.71 317.3 214.02V40.08C317.3 39.39 317.86 38.83 318.55 38.83C319.24 38.83 319.8 39.39 319.8 40.08V214.02C319.8 214.71 319.24 215.27 318.55 215.27Z" fill="#A8C653"/>
<path d="M110.97 183.7H378.9V335.2C378.9 349.12 367.6 360.41 353.69 360.41H136.19C122.27 360.41 110.98 349.11 110.98 335.2V183.7H110.97Z" fill="#00544F"/>
<path d="M306.44 198.96H298.81V171.51C298.81 157.2 287.17 145.57 272.87 145.57H219.24C204.93 145.57 193.29 157.21 193.29 171.51V198.96H185.66V171.51C185.66 153 200.72 137.94 219.24 137.94H272.87C291.38 137.94 306.45 153 306.45 171.51V198.96H306.44Z" fill="#6FAFAC"/>
<path d="M110.97 183.7H378.9V267.43C378.9 278.05 370.28 286.68 359.65 286.68H130.22C119.6 286.68 110.97 278.06 110.97 267.43V183.7Z" fill="#003834"/>
<path d="M155.94 262.53C160.15 262.53 163.57 265.95 163.57 270.16V295.58C163.57 299.79 160.15 303.21 155.94 303.21C151.73 303.21 148.31 299.79 148.31 295.58V270.16C148.31 265.95 151.73 262.53 155.94 262.53Z" fill="#6FAFAC"/>
<path d="M333.93 262.53C338.14 262.53 341.56 265.95 341.56 270.16V295.58C341.56 299.79 338.14 303.21 333.93 303.21C329.72 303.21 326.3 299.79 326.3 295.58V270.16C326.3 265.95 329.72 262.53 333.93 262.53Z" fill="#6FAFAC"/>
<path d="M244.93 325.87C266.044 325.87 283.16 308.754 283.16 287.64C283.16 266.526 266.044 249.41 244.93 249.41C223.816 249.41 206.7 266.526 206.7 287.64C206.7 308.754 223.816 325.87 244.93 325.87Z" fill="#003834"/>
<path d="M291.72 287.64H273.97C273.97 287.64 273.95 289.04 273.9 289.73C272.83 304.79 260.27 316.68 244.94 316.68C229.61 316.68 216.95 304.7 215.97 289.55C215.93 288.92 215.91 287.64 215.91 287.64H198.16C198.16 287.64 198.16 288.9 198.2 289.53C199.19 314.49 219.74 334.42 244.95 334.42C270.16 334.42 290.49 314.7 291.68 289.92C291.72 289.16 291.73 287.63 291.73 287.63L291.72 287.64Z" fill="white"/>
<path d="M198.15 287.64H215.9C215.9 271.6 228.9 258.6 244.94 258.6C260.98 258.6 273.98 271.6 273.98 287.64H291.73C291.73 261.8 270.78 240.86 244.95 240.86C219.12 240.86 198.17 261.81 198.17 287.64H198.15Z" fill="#006D68"/>
<path d="M244.93 309.65C257.086 309.65 266.94 299.796 266.94 287.64C266.94 275.484 257.086 265.63 244.93 265.63C232.774 265.63 222.92 275.484 222.92 287.64C222.92 299.796 232.774 309.65 244.93 309.65Z" fill="#ACCA53"/>
<path d="M247.18 287.64L244.93 309.64L242.69 287.64H247.18Z" fill="white"/>
<path d="M242.69 287.64L244.93 265.63L247.18 287.64H242.69Z" fill="#3C3C3C"/>
<path d="M164.21 368.38H72.85V370.44H164.21V368.38Z" fill="#AECC53"/>
<path d="M233.15 368.38H186.01V370.44H233.15V368.38Z" fill="#AECC53"/>
<path d="M102.79 340.09H100.73V369.41H102.79V340.09Z" fill="#AECC53"/>
<path d="M106.4 340.32C106.4 337.76 104.32 335.68 101.76 335.68C99.2 335.68 97.12 337.76 97.12 340.32C97.12 342.88 99.2 344.96 101.76 344.96C104.32 344.96 106.4 342.88 106.4 340.32Z" fill="#AECC53"/>
<path d="M88.26 324.84H86.2V369.41H88.26V324.84Z" fill="#AECC53"/>
<path d="M91.87 325.08C91.87 322.52 89.79 320.44 87.23 320.44C84.67 320.44 82.59 322.52 82.59 325.08C82.59 327.64 84.67 329.72 87.23 329.72C89.79 329.72 91.87 327.64 91.87 325.08Z" fill="#AECC53"/>
</svg>
