<svg width="420" height="426" viewBox="0 0 420 426" fill="none" xmlns="http://www.w3.org/2000/svg">
<path d="M271.01 59.93C254.75 53.84 237.79 48.73 220.42 48.81C197.02 48.91 174.78 58.36 153.5 68.07C114.31 85.96 83.41 113.98 51.29 142.45C25.29 165.49 21.02 213.27 21.8 245.73C21.89 249.65 21.99 253.58 22.17 257.51C22.72 269.61 24.01 281.68 28.26 292.96C35.06 311.05 50.84 326.32 62.75 341.21C75.65 357.33 88.29 370.78 105.65 382.29C125.31 395.32 153.42 417.7 177.67 419.75C208.2 422.33 231.57 423.58 260.91 414.43C292.16 404.69 326.41 390.47 348.9 365.55C360.69 352.49 368.39 333.84 377.17 318.65C394.29 289.01 401.39 257.05 396.99 222.99C392.38 187.33 378.37 160 363.59 128.13C344.62 87.2 311.27 75.04 270.99 59.94H271.01V59.93Z" fill="#EBF2D4"/>
<path d="M255.65 86.72C250.62 86.72 245.53 85.41 240.91 82.65C232.7 77.75 227.51 69.22 226.91 59.7C223.37 59.82 219.9 58.95 216.84 57.14C208.15 51.95 205.3 40.65 210.48 31.96C214.23 25.68 221.45 22.23 228.67 23.19C229.29 20.69 230.26 18.31 231.58 16.11C235.13 10.15 240.79 5.93999 247.52 4.24999C254.24 2.54999 261.23 3.57999 267.18 7.13999C272.64 10.4 276.66 15.48 278.59 21.52C283.06 20.42 287.8 21.12 291.74 23.48C295.76 25.88 298.6 29.7 299.75 34.24C300.89 38.78 300.2 43.49 297.81 47.51C294.95 52.3 290.02 55.4 284.5 55.95C284.9 61.83 283.51 67.59 280.48 72.66C275.09 81.7 265.49 86.72 255.66 86.72H255.65ZM228.65 57.75L228.68 58.71C228.97 67.98 233.89 76.34 241.84 81.09C254.64 88.73 271.27 84.53 278.91 71.74C281.9 66.74 283.18 61.03 282.61 55.22L282.52 54.27L283.48 54.23C288.77 53.98 293.54 51.13 296.25 46.6C298.4 43 299.02 38.77 297.99 34.71C296.96 30.64 294.41 27.22 290.81 25.07C287.05 22.82 282.47 22.25 278.24 23.53L277.35 23.8L277.1 22.91C275.42 16.95 271.56 11.91 266.25 8.72999C260.71 5.41999 254.22 4.46999 247.97 6.03999C241.72 7.61999 236.46 11.53 233.15 17.07C231.81 19.31 230.85 21.76 230.29 24.33V25.33L229.22 25.13C222.47 23.9 215.57 27.02 212.05 32.9C207.38 40.73 209.95 50.91 217.78 55.58C220.78 57.36 224.21 58.15 227.7 57.83L228.66 57.75H228.65Z" fill="#6FAFAC"/>
<path d="M186.38 46.85C183.27 46.85 180.34 45.67 178.09 43.52C175.78 41.3 174.46 38.32 174.39 35.11C174.32 31.91 175.5 28.87 177.72 26.55C179.94 24.24 182.92 22.92 186.13 22.85C189.33 22.77 192.37 23.96 194.69 26.18C197 28.4 198.32 31.38 198.39 34.59C198.46 37.8 197.28 40.83 195.06 43.15C192.84 45.46 189.86 46.78 186.65 46.85C186.56 46.85 186.47 46.85 186.38 46.85ZM186.39 24.67C186.32 24.67 186.24 24.67 186.17 24.67C183.45 24.73 180.92 25.84 179.04 27.81C177.16 29.77 176.16 32.35 176.21 35.07C176.26 37.79 177.38 40.32 179.35 42.2C181.32 44.08 183.9 45.09 186.61 45.03C189.33 44.97 191.86 43.86 193.74 41.89C195.62 39.93 196.62 37.35 196.57 34.63C196.51 31.91 195.4 29.38 193.43 27.5C191.52 25.67 189.03 24.67 186.39 24.67Z" fill="#6FAFAC"/>
<path d="M163.1 187.36C140.81 187.36 122.67 172.66 122.67 154.59C122.67 153.82 123.29 153.2 124.06 153.2C124.83 153.2 125.45 153.82 125.45 154.59C125.45 171.13 142.34 184.58 163.1 184.58C183.86 184.58 196.44 168.91 200.24 154.24C200.43 153.5 201.19 153.05 201.93 153.24C202.67 153.43 203.12 154.19 202.93 154.93C198.87 170.6 186.27 187.35 163.09 187.35L163.1 187.36Z" fill="#AECC53"/>
<path d="M117.9 351.6C117.36 351.6 116.89 351.2 116.82 350.64L96.1901 190.05C96.1901 190.05 96.1901 189.96 96.1901 189.91V79.88C96.1901 79.28 96.6801 78.78 97.2901 78.78C97.9001 78.78 98.3901 79.27 98.3901 79.88V189.84L119.01 350.36C119.09 350.96 118.66 351.51 118.06 351.59C118.01 351.59 117.97 351.59 117.92 351.59L117.9 351.6Z" fill="#013834"/>
<path d="M113.4 351.6C112.86 351.6 112.39 351.2 112.32 350.64L91.6901 190.05C91.6901 190.05 91.6901 189.96 91.6901 189.91V79.88C91.6901 79.28 92.1801 78.78 92.7901 78.78C93.4001 78.78 93.8901 79.27 93.8901 79.88V189.84L114.51 350.36C114.59 350.96 114.16 351.51 113.56 351.59C113.51 351.59 113.47 351.59 113.42 351.59L113.4 351.6Z" fill="#013834"/>
<path d="M61.27 352C61.27 352 61.18 352 61.13 352C60.53 351.92 60.11 351.37 60.18 350.77L80.8 190.25V80.29C80.8 79.69 81.29 79.19 81.9 79.19C82.51 79.19 83 79.68 83 80.29V190.32C83 190.32 83 190.41 83 190.46L62.37 351.05C62.3 351.6 61.83 352.01 61.29 352.01L61.27 352Z" fill="#013834"/>
<path d="M65.77 352C65.77 352 65.68 352 65.63 352C65.03 351.92 64.61 351.37 64.68 350.77L85.3 190.25V80.29C85.3 79.69 85.79 79.19 86.4 79.19C87.01 79.19 87.5 79.68 87.5 80.29V190.32C87.5 190.32 87.5 190.41 87.5 190.46L66.87 351.05C66.8 351.6 66.33 352.01 65.79 352.01L65.77 352Z" fill="#013834"/>
<path d="M123.97 90.7H55.2C54.98 90.7 54.77 90.64 54.59 90.52L40.03 80.81C39.63 80.54 39.45 80.04 39.59 79.58C39.73 79.12 40.16 78.8 40.64 78.8H138.53C139.01 78.8 139.44 79.12 139.58 79.58C139.72 80.04 139.54 80.54 139.14 80.81L124.58 90.52C124.4 90.64 124.19 90.7 123.97 90.7ZM55.53 88.5H123.64L134.92 80.98H44.26L55.54 88.5H55.53Z" fill="#013834"/>
<path d="M123.97 105.26C123.37 105.26 122.87 104.77 122.87 104.16V89.6C122.87 89 123.36 88.5 123.97 88.5C124.58 88.5 125.07 88.99 125.07 89.6V104.16C125.07 104.76 124.58 105.26 123.97 105.26Z" fill="#013834"/>
<path d="M124.37 140.85H54.8C54.27 140.85 53.82 140.47 53.72 139.96C53.62 139.44 53.91 138.93 54.4 138.74L81.5 128.22C81.63 128.17 81.76 128.15 81.9 128.15H98.08C98.22 128.15 98.36 128.18 98.49 128.23L124.78 138.75C125.27 138.94 125.55 139.46 125.45 139.97C125.35 140.49 124.9 140.86 124.37 140.86V140.85ZM60.65 138.66H118.69L97.87 130.33H82.11L60.65 138.66Z" fill="#013834"/>
<path d="M123.97 155.42C123.37 155.42 122.87 154.93 122.87 154.32V139.76C122.87 139.16 123.36 138.66 123.97 138.66C124.58 138.66 125.07 139.15 125.07 139.76V154.32C125.07 154.92 124.58 155.42 123.97 155.42Z" fill="#013834"/>
<path d="M54.39 155.42C53.79 155.42 53.29 154.93 53.29 154.32V139.76C53.29 139.16 53.78 138.66 54.39 138.66C55 138.66 55.49 139.15 55.49 139.76V154.32C55.49 154.92 55 155.42 54.39 155.42Z" fill="#013834"/>
<path d="M124.37 191.02H54.8C54.27 191.02 53.82 190.64 53.72 190.13C53.62 189.61 53.91 189.1 54.4 188.91L81.5 178.39C81.63 178.34 81.76 178.32 81.9 178.32H98.08C98.22 178.32 98.36 178.35 98.49 178.4L124.78 188.92C125.27 189.11 125.55 189.63 125.45 190.14C125.35 190.66 124.9 191.03 124.37 191.03V191.02ZM60.65 188.82H118.69L97.87 180.49H82.11L60.65 188.82Z" fill="#013834"/>
<path d="M123.97 205.58C123.37 205.58 122.87 205.09 122.87 204.48V189.92C122.87 189.32 123.36 188.82 123.97 188.82C124.58 188.82 125.07 189.31 125.07 189.92V204.48C125.07 205.08 124.58 205.58 123.97 205.58Z" fill="#013834"/>
<path d="M54.39 205.58C53.79 205.58 53.29 205.09 53.29 204.48V189.92C53.29 189.32 53.78 188.82 54.39 188.82C55 188.82 55.49 189.31 55.49 189.92V204.48C55.49 205.08 55 205.58 54.39 205.58Z" fill="#013834"/>
<path d="M54.39 105.26C53.79 105.26 53.29 104.77 53.29 104.16V89.6C53.29 89 53.78 88.5 54.39 88.5C55 88.5 55.49 88.99 55.49 89.6V104.16C55.49 104.76 55 105.26 54.39 105.26Z" fill="#013834"/>
<path d="M252.99 351.84C231.73 351.84 211.92 350.82 197.23 348.96C174.24 346.05 172.78 342.29 172.58 340.63C172.57 340.6 172.56 340.56 172.55 340.53C172.52 340.42 172.5 340.25 172.5 340.14C172.5 339.84 172.56 339.57 172.62 339.36L208.47 98.19C208.56 97.56 209.07 97.08 209.7 97.01C213.84 91.73 238.48 90.28 253.19 90.28C267.9 90.28 293.06 91.76 296.8 97.18C297.16 97.38 297.43 97.75 297.49 98.19L333.33 339.36C333.39 339.57 333.45 339.84 333.45 340.14C333.45 340.22 333.45 340.3 333.43 340.39C333.43 340.4 333.43 340.42 333.43 340.43C333.3 341.96 332.75 345.92 308.76 348.96C294.05 350.82 274.25 351.84 253 351.84H252.99ZM175.31 340.05C175.31 340.05 175.31 340.11 175.32 340.15C175.33 340.19 175.85 343.46 197.57 346.2C212.16 348.04 231.84 349.06 252.99 349.06C274.14 349.06 293.81 348.04 308.41 346.2C330.13 343.45 330.66 340.19 330.66 340.15C330.66 340.14 330.66 340.13 330.66 340.12C330.66 340.11 330.65 340.09 330.64 340.07C330.62 340 330.6 339.93 330.59 339.86L294.84 99.35C294.67 99.18 294.55 98.96 294.49 98.72C293.76 96.69 279.33 93.05 253.17 93.05C227.01 93.05 212.58 96.68 211.85 98.72C211.74 99.15 211.44 99.5 211.05 99.66L175.35 339.85C175.35 339.91 175.33 339.98 175.31 340.04V340.05ZM330.79 339.6C330.73 339.73 330.69 339.86 330.68 339.96C330.68 339.94 330.68 339.92 330.7 339.9C330.72 339.79 330.75 339.69 330.8 339.6H330.79Z" fill="#AECC53"/>
<path d="M211.26 349.58C210.99 349.58 210.72 349.5 210.48 349.34C209.84 348.91 209.68 348.05 210.11 347.41C213.89 341.83 216.07 334.32 216.58 325.06C216.63 324.25 216.68 323.4 216.74 322.52C217.37 312.68 218.22 299.2 209.65 293.68C202.18 288.88 188.55 290.67 182.24 295.37C181.62 295.83 180.75 295.7 180.3 295.08C179.84 294.46 179.97 293.59 180.59 293.14C187.75 287.82 202.66 285.88 211.16 291.35C221.11 297.75 220.19 312.17 219.52 322.7C219.46 323.57 219.41 324.41 219.37 325.22C218.82 334.98 216.49 342.97 212.42 348.97C212.15 349.37 211.71 349.58 211.27 349.58H211.26Z" fill="#AECC53"/>
<path d="M246.78 350.77C246.18 350.77 245.63 350.38 245.45 349.78C243.28 342.51 244.73 335.01 246.13 327.75C246.82 324.17 247.54 320.47 247.79 316.88C248.62 305.14 244.29 290.42 237.48 281.9C230.99 273.77 222.67 267.75 212.74 263.99C203.94 260.66 192.3 262.43 185.68 268.11C185.1 268.61 184.22 268.54 183.72 267.96C183.22 267.38 183.29 266.5 183.87 266C191.21 259.71 204.04 257.73 213.73 261.4C224.13 265.33 232.85 271.65 239.65 280.17C246.85 289.19 251.44 304.71 250.56 317.09C250.29 320.84 249.56 324.63 248.85 328.28C247.45 335.53 246.13 342.37 248.1 348.99C248.32 349.73 247.9 350.5 247.17 350.72C247.04 350.76 246.9 350.78 246.77 350.78L246.78 350.77Z" fill="#AECC53"/>
<path d="M298.18 324.75C297.58 324.75 297.02 324.35 296.85 323.75C295.21 318.05 292.06 312.86 288.97 308.03C285.82 303.09 282.57 297.98 285.66 291.58C288.47 285.76 295.55 281.53 301.72 281.94C305.1 282.17 308.14 283.65 310.14 284.74C318.95 289.54 325.03 296.29 327.73 304.24C327.98 304.97 327.59 305.76 326.86 306C326.13 306.24 325.34 305.86 325.1 305.13C322.63 297.85 316.99 291.64 308.81 287.17C306.01 285.64 303.7 284.85 301.54 284.71C296.47 284.36 290.48 288 288.17 292.79C285.91 297.46 287.86 301.1 291.32 306.54C294.51 311.54 297.78 316.93 299.52 322.98C299.73 323.72 299.31 324.49 298.57 324.7C298.44 324.74 298.31 324.75 298.18 324.75Z" fill="#AECC53"/>
<path d="M270.29 351.44C269.95 351.44 269.61 351.32 269.34 351.06C268.78 350.54 268.75 349.66 269.28 349.1C272.11 346.09 273.74 343.22 275.6 339.29C278.56 333.05 277.76 324.97 273.22 315.27C272.21 313.11 271.08 310.93 269.98 308.82C267.03 303.15 263.98 297.28 262.8 290.86C261.99 286.46 262.27 282.59 263.64 279.36C264.97 276.23 267.29 273.7 269.4 271.64C277.39 263.79 286.31 258.84 295.19 257.32C301.06 256.32 307.22 256.91 312.55 258.98C317.99 261.09 319.52 263.91 321.65 267.82C322 268.46 322.37 269.14 322.78 269.86C323.16 270.53 322.93 271.37 322.26 271.76C321.59 272.14 320.75 271.91 320.36 271.24C319.94 270.5 319.56 269.81 319.2 269.15C317.22 265.51 316.02 263.32 311.53 261.58C306.66 259.69 301.03 259.15 295.65 260.06C287.33 261.48 278.93 266.17 271.34 273.62C269.43 275.49 267.33 277.77 266.19 280.44C265.04 283.17 264.81 286.5 265.53 290.35C266.64 296.36 269.59 302.04 272.44 307.53C273.55 309.66 274.7 311.87 275.73 314.08C280.64 324.56 281.44 333.44 278.11 340.47C276.13 344.65 274.38 347.71 271.31 350.99C271.04 351.28 270.67 351.43 270.3 351.43L270.29 351.44Z" fill="#AECC53"/>
<path d="M239.12 149.84C236.83 149.84 234.54 149.45 232.4 148.65C225.94 146.24 222.14 141.01 218.47 135.96C214.93 131.1 211.6 126.5 206.04 124.1C205.33 123.8 205.01 122.98 205.31 122.27C205.61 121.56 206.43 121.24 207.14 121.54C213.4 124.24 217.12 129.36 220.72 134.31C224.31 139.25 227.7 143.91 233.37 146.03C238.69 148.01 245.29 146.97 249.82 143.43C254.29 139.93 256.75 134.25 256.23 128.6C256.1 127.11 255.77 125.65 255.43 124.11C255.09 122.57 254.73 120.97 254.58 119.32C253.7 109.87 257.93 100.15 266.5 91.98C267.06 91.45 267.94 91.47 268.47 92.03C269 92.59 268.98 93.47 268.42 94C263.82 98.39 256.26 107.48 257.34 119.08C257.48 120.55 257.8 121.99 258.14 123.52C258.49 125.08 258.85 126.7 259 128.37C259.6 134.95 256.74 141.56 251.53 145.64C248.01 148.39 243.55 149.85 239.12 149.85V149.84Z" fill="#AECC53"/>
<path d="M241.98 172.92C235 172.92 228.04 171.01 222.15 167.33C220.41 166.24 218.6 164.97 216.69 163.63C211.86 160.23 206.38 156.38 201.3 155.29C200.55 155.13 200.07 154.39 200.23 153.64C200.39 152.89 201.13 152.41 201.88 152.57C207.5 153.78 213.23 157.8 218.28 161.35C220.16 162.67 221.94 163.92 223.61 164.97C231.92 170.16 242.52 171.54 251.97 168.67C261.41 165.8 269.23 158.84 272.88 150.05C274.83 145.35 275.57 140.4 276.36 135.15C277.02 130.77 277.7 126.24 279.15 121.92C281.95 113.56 287.61 106.16 295.09 101.09C295.73 100.66 296.59 100.82 297.02 101.46C297.45 102.1 297.29 102.96 296.65 103.39C289.67 108.12 284.4 115.01 281.79 122.8C280.42 126.89 279.75 131.3 279.11 135.56C278.33 140.74 277.52 146.1 275.44 151.11C271.47 160.66 263 168.22 252.77 171.33C249.27 172.39 245.61 172.92 241.96 172.92H241.98Z" fill="#AECC53"/>
<path d="M280.13 239.3C273.88 239.3 267.48 237.3 262.56 233.79C258.47 230.88 253.56 225.62 253.44 217.1C253.25 203.87 262.32 191.85 266.22 187.29C267.99 185.23 270.02 183.42 271.99 181.68C274.22 179.7 276.33 177.83 278.09 175.61C281.19 171.72 282.98 167.08 284.89 162.17C285.65 160.21 286.44 158.18 287.31 156.22C290.1 149.93 294.33 142.5 302.33 140.81C303.09 140.65 303.82 141.13 303.98 141.88C304.14 142.63 303.66 143.37 302.91 143.53C296.18 144.95 292.53 151.32 289.85 157.35C289 159.25 288.23 161.25 287.48 163.18C285.59 168.07 283.63 173.12 280.27 177.34C278.36 179.74 276.06 181.78 273.84 183.76C271.94 185.44 269.98 187.19 268.34 189.1C264.64 193.41 256.05 204.77 256.23 217.05C256.35 225.15 263.84 236.51 280.11 236.51H280.26C286.69 236.48 292.83 234.12 297.09 230.05C298.97 228.24 300.61 226.01 302.18 223.84C304.82 220.22 307.56 216.48 311.69 214.31C312.37 213.95 313.21 214.22 313.57 214.89C313.93 215.57 313.66 216.41 312.99 216.77C309.43 218.64 307 221.96 304.43 225.48C302.78 227.74 301.08 230.08 299.01 232.05C294.24 236.62 287.41 239.25 280.27 239.29C280.23 239.29 280.18 239.29 280.14 239.29L280.13 239.3Z" fill="#AECC53"/>
<path d="M207.92 252.45C206.73 252.45 205.56 252.38 204.42 252.25C197.76 251.49 191.94 248.38 188.45 243.71C187.99 243.09 188.12 242.22 188.73 241.76C189.34 241.3 190.22 241.43 190.68 242.04C193.71 246.1 198.83 248.81 204.73 249.48C209.62 250.04 215.04 249.29 221.32 247.18C225.03 245.94 227.8 244.63 230.03 243.05C233.2 240.81 235.92 237.55 237.91 233.61C243.98 221.6 241.41 206.05 231.82 196.63C227.14 192.03 221.33 189.08 215.18 185.95C211.98 184.32 208.66 182.64 205.56 180.71C202.71 178.94 199.6 176.66 198.12 173.17C197.82 172.46 198.15 171.65 198.86 171.35C199.57 171.05 200.38 171.38 200.68 172.09C201.86 174.87 204.55 176.81 207.02 178.35C210.03 180.22 213.28 181.87 216.44 183.48C222.51 186.56 228.78 189.75 233.76 194.65C244.2 204.9 246.98 221.81 240.39 234.87C238.2 239.22 235.17 242.83 231.63 245.33C229.17 247.07 226.17 248.5 222.2 249.82C216.96 251.57 212.25 252.44 207.91 252.44L207.92 252.45Z" fill="#AECC53"/>
<path d="M206.1 232.58C203.76 232.58 201.26 231.88 198.77 230.51C195.23 228.56 192.19 225.48 190.64 222.28C190.3 221.59 190.59 220.76 191.28 220.42C191.97 220.09 192.8 220.37 193.14 221.06C195.57 226.08 203.4 231.69 209.23 229.17C214.7 226.8 217.05 219.66 216.55 213.82C216.16 209.14 213.8 204.86 210.25 202.39C208.77 201.35 206.97 200.46 205.07 199.51C201.31 197.63 197.41 195.68 195.28 192.3C194.87 191.65 195.07 190.79 195.72 190.38C196.37 189.97 197.23 190.17 197.64 190.82C199.36 193.55 202.89 195.31 206.32 197.02C208.22 197.97 210.19 198.96 211.84 200.11C216.06 203.05 218.86 208.09 219.32 213.58C219.91 220.4 217.01 228.82 210.34 231.71C209.03 232.28 207.6 232.56 206.11 232.56L206.1 232.58Z" fill="#AECC53"/>
<path d="M173.45 339.92H54.55V355.23H173.45V339.92Z" fill="#A9C753"/>
<path d="M390.45 265.29H259.57C256.107 265.29 253.3 268.097 253.3 271.56V308.31C253.3 311.773 256.107 314.58 259.57 314.58H390.45C393.913 314.58 396.72 311.773 396.72 308.31V271.56C396.72 268.097 393.913 265.29 390.45 265.29Z" fill="#006D68"/>
<path d="M390.45 315.37H259.57C255.68 315.37 252.51 312.2 252.51 308.31V271.56C252.51 267.67 255.68 264.5 259.57 264.5H390.45C394.34 264.5 397.51 267.67 397.51 271.56V308.31C397.51 312.2 394.34 315.37 390.45 315.37ZM259.57 266.08C256.55 266.08 254.09 268.54 254.09 271.56V308.31C254.09 311.33 256.55 313.79 259.57 313.79H390.45C393.47 313.79 395.93 311.33 395.93 308.31V271.56C395.93 268.54 393.47 266.08 390.45 266.08H259.57Z" fill="white"/>
<path d="M390.45 314.7H259.57C256.107 314.7 253.3 317.507 253.3 320.97V357.72C253.3 361.183 256.107 363.99 259.57 363.99H390.45C393.913 363.99 396.72 361.183 396.72 357.72V320.97C396.72 317.507 393.913 314.7 390.45 314.7Z" fill="#006D68"/>
<path d="M390.45 364.78H259.57C255.68 364.78 252.51 361.61 252.51 357.72V320.97C252.51 317.08 255.68 313.91 259.57 313.91H390.45C394.34 313.91 397.51 317.08 397.51 320.97V357.72C397.51 361.61 394.34 364.78 390.45 364.78ZM259.57 315.49C256.55 315.49 254.09 317.95 254.09 320.97V357.72C254.09 360.74 256.55 363.2 259.57 363.2H390.45C393.47 363.2 395.93 360.74 395.93 357.72V320.97C395.93 317.95 393.47 315.49 390.45 315.49H259.57Z" fill="white"/>
<path d="M390.45 215.95H259.57C256.107 215.95 253.3 218.757 253.3 222.22V258.97C253.3 262.433 256.107 265.24 259.57 265.24H390.45C393.913 265.24 396.72 262.433 396.72 258.97V222.22C396.72 218.757 393.913 215.95 390.45 215.95Z" fill="#006D68"/>
<path d="M390.45 266.03H259.57C255.68 266.03 252.51 262.86 252.51 258.97V222.22C252.51 218.33 255.68 215.16 259.57 215.16H390.45C394.34 215.16 397.51 218.33 397.51 222.22V258.97C397.51 262.86 394.34 266.03 390.45 266.03ZM259.57 216.74C256.55 216.74 254.09 219.2 254.09 222.22V258.97C254.09 261.99 256.55 264.45 259.57 264.45H390.45C393.47 264.45 395.93 261.99 395.93 258.97V222.22C395.93 219.2 393.47 216.74 390.45 216.74H259.57Z" fill="white"/>
<path d="M354.34 344.41L362.22 352.29L367.29 347.22L372.36 352.29L380.25 344.41L375.18 339.34L380.25 334.27L372.36 326.38L367.29 331.45L362.22 326.38L354.34 334.27L359.41 339.34L354.34 344.41Z" fill="#A9C753"/>
<path d="M362.22 352.97L353.66 344.41L358.73 339.34L353.66 334.27L362.22 325.7L367.29 330.77L372.36 325.7L380.93 334.27L375.86 339.34L380.93 344.41L372.36 352.97L367.29 347.9L362.22 352.97ZM367.29 346.54L372.36 351.61L379.57 344.41L374.5 339.34L379.57 334.27L372.36 327.06L367.29 332.13L362.22 327.06L355.02 334.27L360.09 339.34L355.02 344.41L362.22 351.61L367.29 346.54Z" fill="#006D68"/>
<path d="M318.99 332.62H300.21C297.068 332.62 294.52 335.167 294.52 338.31V338.32C294.52 341.463 297.068 344.01 300.21 344.01H318.99C322.133 344.01 324.68 341.463 324.68 338.32V338.31C324.68 335.167 322.133 332.62 318.99 332.62Z" fill="#013834"/>
<path d="M354.34 295L362.22 302.89L367.29 297.82L372.36 302.89L380.25 295L375.18 289.93L380.25 284.86L372.36 276.98L367.29 282.05L362.22 276.98L354.34 284.86L359.41 289.93L354.34 295Z" fill="#A9C753"/>
<path d="M362.22 303.57L353.66 295L358.73 289.93L353.66 284.86L362.22 276.3L367.29 281.37L372.36 276.3L380.93 284.86L375.86 289.93L380.93 295L372.36 303.57L367.29 298.5L362.22 303.57ZM367.29 297.14L372.36 302.21L379.57 295L374.5 289.93L379.57 284.86L372.36 277.66L367.29 282.73L362.22 277.66L355.02 284.86L360.09 289.93L355.02 295L362.22 302.21L367.29 297.14Z" fill="#006D68"/>
<path d="M318.99 284.24H300.21C297.068 284.24 294.52 286.787 294.52 289.93V289.94C294.52 293.083 297.068 295.63 300.21 295.63H318.99C322.133 295.63 324.68 293.083 324.68 289.94V289.93C324.68 286.787 322.133 284.24 318.99 284.24Z" fill="#013834"/>
<path d="M354.34 245.67L362.22 253.55L367.29 248.48L372.36 253.55L380.25 245.67L375.18 240.6L380.25 235.53L372.36 227.64L367.29 232.71L362.22 227.64L354.34 235.53L359.41 240.6L354.34 245.67Z" fill="#A9C753"/>
<path d="M362.22 254.23L353.66 245.67L358.73 240.6L353.66 235.53L362.22 226.96L367.29 232.03L372.36 226.96L380.93 235.53L375.86 240.6L380.93 245.67L372.36 254.23L367.29 249.16L362.22 254.23ZM367.29 247.8L372.36 252.87L379.57 245.67L374.5 240.6L379.57 235.53L372.36 228.32L367.29 233.39L362.22 228.32L355.02 235.53L360.09 240.6L355.02 245.67L362.22 252.87L367.29 247.8Z" fill="#006D68"/>
<path d="M318.99 234.9H300.21C297.068 234.9 294.52 237.447 294.52 240.59V240.6C294.52 243.743 297.068 246.29 300.21 246.29H318.99C322.133 246.29 324.68 243.743 324.68 240.6V240.59C324.68 237.447 322.133 234.9 318.99 234.9Z" fill="#013834"/>
<path d="M282.7 332.62H279.2C276.058 332.62 273.51 335.167 273.51 338.31V338.32C273.51 341.463 276.058 344.01 279.2 344.01H282.7C285.843 344.01 288.39 341.463 288.39 338.32V338.31C288.39 335.167 285.843 332.62 282.7 332.62Z" fill="#013834"/>
<path d="M282.7 284.24H279.2C276.058 284.24 273.51 286.787 273.51 289.93V289.94C273.51 293.083 276.058 295.63 279.2 295.63H282.7C285.843 295.63 288.39 293.083 288.39 289.94V289.93C288.39 286.787 285.843 284.24 282.7 284.24Z" fill="#013834"/>
<path d="M282.7 234.9H279.2C276.058 234.9 273.51 237.447 273.51 240.59V240.6C273.51 243.743 276.058 246.29 279.2 246.29H282.7C285.843 246.29 288.39 243.743 288.39 240.6V240.59C288.39 237.447 285.843 234.9 282.7 234.9Z" fill="#013834"/>
<path d="M156.52 389.89C193.667 389.89 223.78 359.777 223.78 322.63C223.78 285.483 193.667 255.37 156.52 255.37C119.373 255.37 89.26 285.483 89.26 322.63C89.26 359.777 119.373 389.89 156.52 389.89Z" fill="#006E69"/>
<path d="M156.52 382.59C189.635 382.59 216.48 355.745 216.48 322.63C216.48 289.515 189.635 262.67 156.52 262.67C123.405 262.67 96.5601 289.515 96.5601 322.63C96.5601 355.745 123.405 382.59 156.52 382.59Z" fill="#A7C553"/>
<path d="M156.52 369.25C130.81 369.25 109.9 348.34 109.9 322.63C109.9 296.92 130.81 276.01 156.52 276.01C182.23 276.01 203.14 296.92 203.14 322.63C203.14 348.34 182.23 369.25 156.52 369.25ZM156.52 276.81C131.25 276.81 110.7 297.36 110.7 322.63C110.7 347.9 131.26 368.45 156.52 368.45C181.78 368.45 202.34 347.9 202.34 322.63C202.34 297.36 181.78 276.81 156.52 276.81Z" fill="white"/>
<path d="M156.52 382.63C123.44 382.63 96.52 355.71 96.52 322.63H100.18C100.18 353.7 125.45 378.97 156.52 378.97C187.59 378.97 212.86 353.7 212.86 322.63H216.52C216.52 355.71 189.6 382.63 156.52 382.63Z" fill="white"/>
<path d="M216.52 322.63H212.86C212.86 291.56 187.59 266.29 156.52 266.29C125.45 266.29 100.18 291.56 100.18 322.63H96.52C96.52 289.55 123.44 262.63 156.52 262.63C189.6 262.63 216.52 289.55 216.52 322.63Z" fill="white"/>
<path d="M155.56 326.29L118.27 322.63L155.56 318.97V326.29Z" fill="white"/>
<path d="M157.48 318.97L194.77 322.63L157.48 326.29V318.97Z" fill="white"/>
<path d="M160.18 323.59L156.52 360.88L152.86 323.59H160.18Z" fill="white"/>
<path d="M152.86 321.67L156.52 284.38L160.18 321.67H152.86Z" fill="white"/>
<path d="M157.91 325.01L136.83 342.32L154.14 321.24L157.91 325.01Z" fill="white"/>
<path d="M155.13 320.25L176.21 302.94L158.9 324.02L155.13 320.25Z" fill="white"/>
<path d="M159.34 326.96L121.44 361.36L151.93 320.25L159.34 326.96Z" fill="#013834"/>
<path d="M153.69 318.3L191.59 283.89L161.11 325.01L153.69 318.3Z" fill="white"/>
<path d="M156.52 329.17C160.132 329.17 163.06 326.242 163.06 322.63C163.06 319.018 160.132 316.09 156.52 316.09C152.908 316.09 149.98 319.018 149.98 322.63C149.98 326.242 152.908 329.17 156.52 329.17Z" fill="#006E69"/>
<path d="M109.93 323.23H102.2C101.87 323.23 101.6 322.96 101.6 322.63C101.6 322.3 101.87 322.03 102.2 322.03H109.93C110.26 322.03 110.53 322.3 110.53 322.63C110.53 322.96 110.26 323.23 109.93 323.23Z" fill="white"/>
<path d="M210.84 323.23H203.11C202.78 323.23 202.51 322.96 202.51 322.63C202.51 322.3 202.78 322.03 203.11 322.03H210.84C211.17 322.03 211.44 322.3 211.44 322.63C211.44 322.96 211.17 323.23 210.84 323.23Z" fill="white"/>
<path d="M159.44 362.76H153.59L150.67 367.82L153.59 372.89H159.44L162.37 367.82L159.44 362.76Z" fill="#013834"/>
<path d="M161.49 276.81C161.49 279.55 159.27 281.78 156.52 281.78C153.77 281.78 151.55 279.56 151.55 276.81C151.55 274.06 156.52 267.98 156.52 267.98C156.52 267.98 161.49 274.07 161.49 276.81Z" fill="white"/>
<path d="M156.52 282.15C156.32 282.15 156.15 281.99 156.15 281.78V273.01C156.15 272.81 156.31 272.64 156.52 272.64C156.73 272.64 156.89 272.8 156.89 273.01V281.78C156.89 281.98 156.73 282.15 156.52 282.15Z" fill="#A5C352"/>
</svg>
