<svg width="524" height="351" viewBox="0 0 524 351" fill="none" xmlns="http://www.w3.org/2000/svg">
<path d="M306.9 62.81L333.2 97.37C326.02 103.3 320.31 110.87 316.62 119.39C313.41 126.8 311.78 134.68 311.78 142.83C311.78 152.32 314.07 161.68 318.42 170.04L311.94 173.75L311.76 173.84L302.16 179.34C302.09 179.37 302.03 179.4 301.97 179.44L292.07 185.11C292 185.14 291.92 185.18 291.85 185.22L280.73 191.59C272.64 176.69 268.38 159.88 268.38 142.81C268.38 128.67 271.21 114.98 276.8 102.11C283.45 86.79 293.83 73.24 306.92 62.79M307.33 59.52C293.06 70.39 281.76 84.8 274.64 101.2C268.93 114.36 266.03 128.37 266.03 142.83C266.03 161.08 270.8 179.05 279.83 194.8L292.99 187.26L303.1 181.48L312.89 175.87L321.54 170.92C316.66 162.41 314.09 152.69 314.09 142.82C314.09 135 315.65 127.42 318.74 120.31C322.59 111.44 328.7 103.65 336.42 97.77L307.31 59.51H307.33V59.52Z" fill="#AECC53"/>
<path d="M447.62 213.83L436.11 203.2L426.63 194.45L419.35 187.73L412.3 181.22C401.61 192.79 386.45 199.43 370.71 199.43C350.47 199.43 331.64 188.51 321.57 170.93L313.24 175.7L304.64 180.63L293.45 187.05L279.85 194.83C298.48 227.33 333.3 247.53 370.72 247.53C399.84 247.53 427.87 235.25 447.64 213.85L447.62 213.83Z" fill="#AECC53"/>
<path d="M436.47 203.53L447.62 213.82C465.52 194.44 475.38 169.22 475.38 142.83H427.31C427.31 157.1 421.98 170.74 412.3 181.22L419.62 187.98L427.91 195.63L436.47 203.54V203.53Z" fill="white"/>
<path d="M370.7 40.49C426.35 40.49 471.77 85.14 473.01 140.49H429.59C428.36 109.07 402.42 83.89 370.7 83.89C358.35 83.89 346.53 87.66 336.53 94.8C336.29 94.97 335.77 95.37 335.06 95.93L308.78 61.35C309.36 60.9 309.88 60.51 310.04 60.39C327.7 47.36 348.68 40.48 370.71 40.48M370.7 38.16C348.14 38.16 326.72 45.2 308.65 58.53C308.21 58.86 305.52 60.93 305.52 60.93L334.63 99.24C335.11 98.88 337.4 97.06 337.88 96.71C347.49 89.85 358.8 86.23 370.69 86.23C401.9 86.23 427.29 111.62 427.29 142.83H475.36C475.36 85.11 428.4 38.16 370.69 38.16H370.7Z" fill="white"/>
<path d="M375.65 51.84L375.58 19.04H425.54V19.62H376.16L376.23 51.84H375.65Z" fill="white"/>
<path d="M425.43 21.51C426.63 21.51 427.61 20.53 427.61 19.33C427.61 18.13 426.63 17.15 425.43 17.15C424.23 17.15 423.25 18.13 423.25 19.33C423.25 20.53 424.23 21.51 425.43 21.51Z" fill="white"/>
<path d="M296 95.88H225.62V96.46H296V95.88Z" fill="white"/>
<path d="M225.73 93.99C224.53 93.99 223.55 94.97 223.55 96.17C223.55 97.37 224.53 98.35 225.73 98.35C226.93 98.35 227.91 97.37 227.91 96.17C227.91 94.97 226.93 93.99 225.73 93.99Z" fill="white"/>
<path d="M269.55 85.5601H227.55V88.6701H269.55V85.5601Z" fill="white"/>
<path d="M521.04 193.88H450.67V194.46H521.04V193.88Z" fill="white"/>
<path d="M520.93 196.36C522.13 196.36 523.11 195.38 523.11 194.18C523.11 192.98 522.13 192 520.93 192C519.73 192 518.75 192.98 518.75 194.18C518.75 195.38 519.73 196.36 520.93 196.36Z" fill="white"/>
<path d="M519.12 183.57H477.11V186.68H519.12V183.57Z" fill="white"/>
<path d="M425.11 9.32996H375.33V12.44H425.11V9.32996Z" fill="white"/>
<path d="M425.11 0H375.33V3.11H425.11V0Z" fill="white"/>
<path d="M386.902 242.31L386.322 242.32L386.913 277.945L387.493 277.936L386.902 242.31Z" fill="white"/>
<path d="M385.01 277.87C385.03 279.07 386.02 280.04 387.23 280.02C388.43 280 389.4 279.01 389.38 277.8C389.36 276.59 388.37 275.63 387.16 275.65C385.96 275.67 384.99 276.66 385.01 277.87Z" fill="white"/>
<path d="M446.89 269.12H394V272.23H446.89V269.12Z" fill="white"/>
<path d="M446.89 261.35H394V264.46H446.89V261.35Z" fill="white"/>
<path d="M382.82 168.79H382.4L382.16 168.69L359.54 155.63V129.06L382.34 115.9H382.76L383 116L405.62 129.06V155.63L382.82 168.79ZM361.1 154.73L382.58 167.13L404.06 154.73V129.96L382.58 117.56L361.1 129.96V154.73Z" fill="white"/>
<path d="M382.5 155.18V129.51L360.27 116.68L338.04 129.51V155.18L360.27 168.01L382.5 155.18Z" fill="#A7C553"/>
<path d="M370.47 142.66C370.52 148.29 365.99 152.89 360.36 152.94C354.73 152.99 350.13 148.46 350.08 142.83C350.03 137.2 360.15 127.62 360.15 127.62C360.15 127.62 370.42 137.04 370.47 142.67V142.66Z" fill="white"/>
<path d="M360.4 157.79C360.01 157.79 359.7 157.48 359.69 157.09L359.54 140.12C359.54 139.73 359.85 139.41 360.24 139.41C360.63 139.41 360.94 139.72 360.95 140.11L361.1 157.08C361.1 157.47 360.79 157.79 360.4 157.79Z" fill="black"/>
<path d="M93.32 205.69L153.95 200.97C157.37 200.72 163.08 205.26 163.12 208.69L163.78 259.24L181.04 270.75L147.3 270.51L140.15 231.76L81.17 241.32L93.32 205.7V205.69Z" fill="black"/>
<path d="M112.82 206.98L92.89 249.08L62.64 320.26L80.88 343.86L46.15 331.53L51.23 228.08L112.82 206.98Z" fill="black"/>
<path d="M82.6 345.11L45.53 331.95L50.65 227.65L113.97 205.96L93.43 249.34L63.33 320.17L82.6 345.11ZM46.77 331.11L79.16 342.61L61.95 320.35L92.34 248.85L111.67 208.01L51.81 228.52L46.77 331.12V331.11Z" fill="#757575"/>
<path d="M125.38 210.08C122.15 192.24 114.76 153.21 111.67 142.25C108.56 131.21 106.02 119.91 96.2101 112.76C84.5501 104.26 69.7101 104.99 60.4701 116.65C54.9801 123.58 52.4401 132.42 51.2201 141.18C49.4101 154.14 47.9501 228.07 47.9501 228.07C48.9101 229.49 49.6701 231.1 51.0301 231.88C95.3101 257.36 127.13 219.79 125.37 210.07H125.38V210.08Z" fill="#003834"/>
<path d="M81.0801 241.43C72.2201 241.43 61.9801 239.09 50.6401 232.56C49.4101 231.86 48.6501 230.63 47.9101 229.45C47.7101 229.14 47.5101 228.82 47.3101 228.51C47.2201 228.38 47.1701 228.22 47.1801 228.06C47.2401 225.04 48.6601 153.94 50.4601 141.08C51.9401 130.44 55.0201 122.3 59.8701 116.17C69.0001 104.65 84.1401 102.99 96.6801 112.13C106.01 118.93 108.94 129.49 111.78 139.69L112.43 142.04C115.34 152.38 122.4 189.18 126.16 209.94C126.16 209.98 126.17 210.02 126.17 210.07C126.88 214.82 120.83 224.66 110.54 231.91C104.41 236.23 94.2901 241.43 81.0901 241.43H81.0801ZM48.7301 227.84C48.9001 228.1 49.0601 228.36 49.2201 228.62C49.8901 229.69 50.5201 230.7 51.4101 231.21C78.9001 247.03 99.6801 237.64 109.62 230.64C120.28 223.13 125.24 213.8 124.59 210.22C124.59 210.18 124.58 210.14 124.58 210.11C120.82 189.35 113.8 152.74 110.91 142.48L110.25 140.13C107.36 129.72 104.63 119.89 95.7401 113.41C83.9101 104.78 69.6501 106.33 61.0701 117.15C56.4001 123.05 53.4201 130.95 51.9801 141.3C50.2501 153.7 48.8201 223.16 48.7201 227.85L48.7301 227.84Z" fill="#ADCB53"/>
<path d="M92.1001 109.4C104.874 109.4 115.23 99.0442 115.23 86.2699C115.23 73.4955 104.874 63.1399 92.1001 63.1399C79.3257 63.1399 68.9701 73.4955 68.9701 86.2699C68.9701 99.0442 79.3257 109.4 92.1001 109.4Z" fill="white"/>
<path d="M79.4301 98.4499C77.4101 90.1999 80.1901 81.3099 86.7701 75.9299C94.3901 69.7099 104.6 69.4599 112.31 74.1399C110.71 69.9099 108.07 65.9299 103.67 62.7599C94.5701 56.2099 82.4501 55.6699 73.2701 62.0999C61.7201 70.1899 58.7601 86.0799 66.6901 97.8099C68.1801 100.01 69.9401 101.9 71.9101 103.48C75.4001 106.29 80.6001 103.02 79.4901 98.6799C79.4701 98.5999 79.4501 98.5199 79.4301 98.4399V98.4499Z" fill="black"/>
<path d="M68.1 77.78C75.4012 77.78 81.32 71.8612 81.32 64.56C81.32 57.2588 75.4012 51.34 68.1 51.34C60.7988 51.34 54.88 57.2588 54.88 64.56C54.88 71.8612 60.7988 77.78 68.1 77.78Z" fill="black"/>
<path d="M71.92 103.88C71.83 103.88 71.75 103.85 71.68 103.79C69.64 102.16 67.86 100.22 66.38 98.0299C62.22 91.8999 60.86 84.2599 62.64 77.0199C57.68 74.8399 54.49 69.9799 54.49 64.5499C54.49 57.0499 60.6 50.9399 68.1 50.9399C73.24 50.9399 77.83 53.7499 80.18 58.3099C88.08 55.8799 96.92 57.4199 103.9 62.4499C107.97 65.3899 110.84 69.1699 112.68 74.0099C112.76 74.2099 112.65 74.4399 112.45 74.5099C112.25 74.5899 112.02 74.4899 111.95 74.2799C110.17 69.5799 107.39 65.9199 103.45 63.0799C96.58 58.1299 87.86 56.6599 80.11 59.1499C79.93 59.2099 79.72 59.1199 79.64 58.9499C77.48 54.4899 73.06 51.7199 68.11 51.7199C61.04 51.7199 55.28 57.4799 55.28 64.5499C55.28 69.7799 58.41 74.4399 63.26 76.4299C63.44 76.4999 63.54 76.6999 63.49 76.8899C61.65 84.0099 62.94 91.5599 67.04 97.5899C68.48 99.7099 70.21 101.59 72.18 103.18C72.35 103.31 72.37 103.56 72.24 103.73C72.16 103.83 72.05 103.88 71.94 103.88H71.92Z" fill="#757575"/>
<path d="M81.741 96.0742C84.5202 95.121 85.7435 91.3457 84.4731 87.6418C83.2028 83.9378 79.92 81.7079 77.1408 82.6611C74.3615 83.6143 73.1383 87.3896 74.4086 91.0935C75.6789 94.7974 78.9617 97.0273 81.741 96.0742Z" fill="white"/>
<path d="M106.19 85.49C105.69 86.58 106.17 87.87 107.26 88.37C108.35 88.87 109.64 88.39 110.14 87.3C110.64 86.21 106.69 84.4 106.19 85.49Z" fill="#3C3C3C"/>
<path d="M113.29 84.47C113.07 84.47 112.85 84.38 112.7 84.2C110.06 81.13 105.78 80.05 102.29 81.58C101.9 81.76 101.44 81.58 101.26 81.18C101.09 80.79 101.26 80.33 101.66 80.15C105.77 78.35 110.79 79.6 113.87 83.19C114.15 83.52 114.11 84.01 113.79 84.29C113.64 84.42 113.46 84.48 113.28 84.48L113.29 84.47Z" fill="#3C3C3C"/>
<path d="M107.94 103.2C107.94 103.2 107.86 103.2 107.82 103.18C105.66 102.28 104.53 101.47 103.52 98.9899C103.46 98.8299 103.53 98.6599 103.69 98.5899C103.85 98.5299 104.02 98.5999 104.09 98.7599C104.93 100.85 105.79 101.67 108.05 102.61C108.21 102.67 108.28 102.85 108.22 103.01C108.17 103.13 108.06 103.2 107.94 103.2Z" fill="#606060"/>
<path d="M154.7 140.82C153.99 140.82 153.3 140.43 152.96 139.76C152.46 138.8 152.84 137.62 153.81 137.12L184.6 121.3C185.56 120.8 186.74 121.18 187.24 122.15C187.74 123.11 187.36 124.29 186.39 124.79L155.6 140.61C155.31 140.76 155.01 140.83 154.71 140.83L154.7 140.82Z" fill="#ADCB53"/>
<path d="M150 144.48C151.97 142.77 154.68 142.08 155.89 139.69C156.95 137.6 156.93 133.84 157.42 131.51C157.67 130.31 158.13 128.89 159.32 128.61C160.44 128.34 161.51 129.32 161.9 130.41C163.03 133.59 163.4 140.97 169.2 138.61C172.48 137.28 172.07 131.8 175.16 129.91C176.63 129.01 181.49 126.6 183.29 128.41C184.36 129.49 179.37 135.73 178.74 137.48C177.67 140.44 176.62 143.41 175.6 146.39C175.08 147.9 174.54 149.46 173.41 150.59C172.38 151.63 170.97 152.19 169.6 152.73C163.1 155.28 154.35 156.16 149.14 161.09" fill="white"/>
<path d="M152.01 164.03C152.01 164.03 151.93 164.1 151.88 164.14L135.8 177.98C126.69 185.82 114.74 188.84 103 186.29C91.26 183.73 81.65 176.01 76.63 165.09L67.63 145.52C64.5 138.72 67.47 130.68 74.28 127.55C81.08 124.42 89.12 127.4 92.25 134.2L101.25 153.77C102.68 156.88 105.42 159.09 108.77 159.82C112.12 160.55 115.53 159.69 118.13 157.45L134.21 143.61C139.88 138.73 148.43 139.37 153.31 145.04C158.15 150.67 157.56 159.14 152 164.03H152.01Z" fill="#AECC53"/>
<path d="M79.35 94.51C79.19 94.51 79.03 94.48 78.87 94.42C78.71 94.36 78.63 94.19 78.69 94.03C78.75 93.87 78.92 93.79 79.08 93.85C79.51 94.01 80.01 93.73 80.29 93.37C80.58 93 80.71 92.5 80.82 92.03C80.43 91.74 80.01 91.41 79.71 90.99C79.39 90.53 79.26 90.1 79.33 89.7C79.44 89.08 79.98 88.7 80.38 88.42C80.49 88.34 80.63 88.25 80.69 88.18C80.47 87.36 80.22 86.44 79.65 85.79C79.13 85.19 78.19 84.82 77.5 85.24C76.76 85.69 76.65 86.81 76.64 87.61C76.64 87.78 76.5 87.91 76.33 87.91C76.16 87.91 76.03 87.77 76.03 87.6C76.05 86.66 76.19 85.34 77.19 84.73C78.16 84.14 79.44 84.61 80.12 85.4C80.8 86.17 81.07 87.2 81.3 88.1C81.4 88.46 81.06 88.7 80.73 88.92C80.4 89.15 80 89.43 79.93 89.8C79.89 90.04 79.98 90.32 80.2 90.64C80.48 91.04 80.91 91.36 81.33 91.66C81.43 91.73 81.47 91.85 81.45 91.97C81.32 92.55 81.17 93.2 80.76 93.74C80.45 94.15 79.91 94.51 79.33 94.51H79.35Z" fill="#606060"/>
<path d="M171.55 81.13C172.37 80.99 173.04 80.32 173.13 79.45C173.24 78.4 172.47 77.47 171.43 77.36C170.38 77.25 169.45 78.02 169.34 79.06C169.28 79.67 169.52 80.23 169.93 80.63C168.73 83.52 166.02 85.57 162.87 85.88V77.8C165.03 77.54 166.96 76.29 168.11 74.46C169.02 74.44 169.81 73.78 169.95 72.85C170.11 71.81 169.39 70.84 168.36 70.68C167.32 70.52 166.35 71.24 166.19 72.27C166.11 72.81 166.26 73.33 166.58 73.73C165.73 74.98 164.39 75.85 162.88 76.09V68.19C163.51 67.88 163.94 67.24 163.94 66.49C163.94 65.44 163.09 64.59 162.04 64.59C160.99 64.59 160.14 65.44 160.14 66.49C160.14 67.24 160.57 67.88 161.2 68.19V76.09C159.69 75.85 158.34 74.98 157.49 73.72C157.8 73.32 157.96 72.8 157.88 72.26C157.72 71.22 156.75 70.51 155.71 70.67C154.67 70.83 153.96 71.8 154.12 72.84C154.26 73.77 155.05 74.43 155.96 74.45C157.11 76.28 159.04 77.53 161.2 77.79V85.87C158.04 85.56 155.33 83.51 154.13 80.62C154.54 80.23 154.78 79.66 154.72 79.05C154.61 78 153.68 77.24 152.63 77.35C151.58 77.46 150.82 78.39 150.93 79.44C151.02 80.31 151.68 80.98 152.51 81.12C153.93 84.71 157.3 87.25 161.2 87.57V95.79H162.89V87.57C166.79 87.25 170.15 84.71 171.58 81.12H171.55V81.13Z" fill="#AECC53"/>
<path d="M162.01 110.29C161.77 110.29 161.54 110.18 161.4 109.98L155.48 102.13C144.79 99.1999 137.35 89.4599 137.35 78.3399C137.35 64.7399 148.42 53.6699 162.02 53.6699C175.62 53.6699 186.69 64.7399 186.69 78.3399C186.69 89.4499 179.25 99.1999 168.56 102.13L162.64 109.98C162.49 110.17 162.27 110.29 162.03 110.29H162.01ZM162.01 55.2199C149.26 55.2199 138.88 65.5999 138.88 78.3499C138.88 88.8599 145.97 98.0499 156.13 100.72C156.3 100.76 156.44 100.86 156.55 101L162.02 108.25L167.49 101C167.59 100.86 167.74 100.76 167.91 100.72C178.06 98.0499 185.16 88.8599 185.16 78.3499C185.16 65.5999 174.78 55.2199 162.03 55.2199H162.01Z" fill="#AECC53"/>
<path d="M119.76 350.61H1.17C0.529998 350.61 0 350.09 0 349.44C0 348.79 0.519998 348.27 1.17 348.27H118.6V271.56C118.6 270.92 119.12 270.39 119.77 270.39H238.1V193.36C238.1 192.72 238.62 192.19 239.27 192.19H282C282.64 192.19 283.17 192.71 283.17 193.36C283.17 194.01 282.65 194.53 282 194.53H240.44V271.56C240.44 272.2 239.92 272.73 239.27 272.73H120.94V349.44C120.94 350.08 120.42 350.61 119.77 350.61H119.76Z" fill="#AECC53"/>
</svg>
