<svg xmlns="http://www.w3.org/2000/svg" width="524" height="351" fill="none" viewBox="0 0 524 351"><path fill="#aecc53" d="m306.9 62.81 26.3 34.56c-7.18 5.93-12.89 13.5-16.58 22.02-3.21 7.41-4.84 15.29-4.84 23.44 0 9.49 2.29 18.85 6.64 27.21l-6.48 3.71-.18.09-9.6 5.5c-.07.03-.13.06-.19.1l-9.9 5.67c-.07.03-.15.07-.22.11l-11.12 6.37c-8.09-14.9-12.35-31.71-12.35-48.78 0-14.14 2.83-27.83 8.42-40.7 6.65-15.32 17.03-28.87 30.12-39.32m.41-3.27c-14.27 10.87-25.57 25.28-32.69 41.68-5.71 13.16-8.61 27.17-8.61 41.63 0 18.25 4.77 36.22 13.8 51.97l13.16-7.54 10.11-5.78 9.79-5.61 8.65-4.95c-4.88-8.51-7.45-18.23-7.45-28.1 0-7.82 1.56-15.4 4.65-22.51a56.85 56.85 0 0 1 17.68-22.54l-29.11-38.26h.02zm140.29 154.31-11.51-10.63-9.48-8.75-7.28-6.72-7.05-6.51c-10.69 11.57-25.85 18.21-41.59 18.21-20.24 0-39.07-10.92-49.14-28.5l-8.33 4.77-8.6 4.93-11.19 6.42-13.6 7.78c18.63 32.5 53.45 52.7 90.87 52.7 29.12 0 57.15-12.28 76.92-33.68z"/><path fill="#fff" d="m436.47 203.53 11.15 10.29c17.9-19.38 27.76-44.6 27.76-70.99h-48.07c0 14.27-5.33 27.91-15.01 38.39l7.32 6.76 8.29 7.65 8.56 7.91z"/><path fill="#fff" d="M370.7 40.49c55.65 0 101.07 44.65 102.31 100h-43.42c-1.23-31.42-27.17-56.6-58.89-56.6-12.35 0-24.17 3.77-34.17 10.91-.24.17-.76.57-1.47 1.13l-26.28-34.58c.58-.45 1.1-.84 1.26-.96 17.66-13.03 38.64-19.91 60.67-19.91m-.01-2.32c-22.56 0-43.98 7.04-62.05 20.37-.44.33-3.13 2.4-3.13 2.4l29.11 38.31c.48-.36 2.77-2.18 3.25-2.53 9.61-6.86 20.92-10.48 32.81-10.48 31.21 0 56.6 25.39 56.6 56.6h48.07c0-57.72-46.96-104.67-104.67-104.67z"/><path fill="#fff" d="m375.65 51.84-.07-32.8h49.96v.58h-49.38l.07 32.22z"/><path fill="#fff" d="M425.43 21.51c1.2 0 2.18-.98 2.18-2.18s-.98-2.18-2.18-2.18-2.18.98-2.18 2.18.98 2.18 2.18 2.18M296 95.88h-70.38v.58H296z"/><path fill="#fff" d="M225.73 93.99c-1.2 0-2.18.98-2.18 2.18s.98 2.18 2.18 2.18 2.18-.98 2.18-2.18-.98-2.18-2.18-2.18m43.82-8.43h-42v3.11h42zm251.49 108.32h-70.37v.58h70.37z"/><path fill="#fff" d="M520.93 196.36c1.2 0 2.18-.98 2.18-2.18s-.98-2.18-2.18-2.18-2.18.98-2.18 2.18.98 2.18 2.18 2.18m-1.81-12.79h-42.01v3.11h42.01zM425.11 9.33h-49.78v3.11h49.78zm0-9.33h-49.78v3.11h49.78zm-38.208 242.31-.58.01.591 35.625.58-.009z"/><path fill="#fff" d="M385.01 277.87c.02 1.2 1.01 2.17 2.22 2.15 1.2-.02 2.17-1.01 2.15-2.22a2.18 2.18 0 0 0-2.22-2.15c-1.2.02-2.17 1.01-2.15 2.22m61.88-8.75H394v3.11h52.89zm0-7.77H394v3.11h52.89zm-64.07-92.56h-.42l-.24-.1-22.62-13.06v-26.57l22.8-13.16h.42l.24.1 22.62 13.06v26.57zm-21.72-14.06 21.48 12.4 21.48-12.4v-24.77l-21.48-12.4-21.48 12.4z"/><path fill="#a7c553" d="M382.5 155.18v-25.67l-22.23-12.83-22.23 12.83v25.67l22.23 12.83z"/><path fill="#fff" d="M370.47 142.66c.05 5.63-4.48 10.23-10.11 10.28s-10.23-4.48-10.28-10.11 10.07-15.21 10.07-15.21 10.27 9.42 10.32 15.05z"/><path fill="#000" d="M360.4 157.79a.71.71 0 0 1-.71-.7l-.15-16.97a.704.704 0 1 1 1.41-.01l.15 16.97c0 .39-.31.71-.7.71m-267.08 47.9 60.63-4.72c3.42-.25 9.13 4.29 9.17 7.72l.66 50.55 17.26 11.51-33.74-.24-7.15-38.75-58.98 9.56 12.15-35.62z"/><path fill="#000" d="m112.82 206.98-19.93 42.1-30.25 71.18 18.24 23.6-34.73-12.33 5.08-103.45z"/><path fill="#757575" d="m82.6 345.11-37.07-13.16 5.12-104.3 63.32-21.69-20.54 43.38-30.1 70.83zm-35.83-14 32.39 11.5-17.21-22.26 30.39-71.5 19.33-40.84-59.86 20.51-5.04 102.6z"/><path fill="#003834" d="M125.38 210.08c-3.23-17.84-10.62-56.87-13.71-67.83-3.11-11.04-5.65-22.34-15.46-29.49-11.66-8.5-26.5-7.77-35.74 3.89-5.49 6.93-8.03 15.77-9.25 24.53-1.81 12.96-3.27 86.89-3.27 86.89.96 1.42 1.72 3.03 3.08 3.81 44.28 25.48 76.1-12.09 74.34-21.81h.01z"/><path fill="#adcb53" d="M81.08 241.43c-8.86 0-19.1-2.34-30.44-8.87-1.23-.7-1.99-1.93-2.73-3.11-.2-.31-.4-.63-.6-.94a.72.72 0 0 1-.13-.45c.06-3.02 1.48-74.12 3.28-86.98 1.48-10.64 4.56-18.78 9.41-24.91 9.13-11.52 24.27-13.18 36.81-4.04 9.33 6.8 12.26 17.36 15.1 27.56l.65 2.35c2.91 10.34 9.97 47.14 13.73 67.9 0 .04.01.08.01.13.71 4.75-5.34 14.59-15.63 21.84-6.13 4.32-16.25 9.52-29.45 9.52zm-32.35-13.59c.17.26.33.52.49.78.67 1.07 1.3 2.08 2.19 2.59 27.49 15.82 48.27 6.43 58.21-.57 10.66-7.51 15.62-16.84 14.97-20.42 0-.04-.01-.08-.01-.11-3.76-20.76-10.78-57.37-13.67-67.63l-.66-2.35c-2.89-10.41-5.62-20.24-14.51-26.72-11.83-8.63-26.09-7.08-34.67 3.74-4.67 5.9-7.65 13.8-9.09 24.15-1.73 12.4-3.16 81.86-3.26 86.55z"/><path fill="#fff" d="M92.1 109.4c12.774 0 23.13-10.356 23.13-23.13S104.874 63.14 92.1 63.14 68.97 73.496 68.97 86.27 79.326 109.4 92.1 109.4"/><path fill="#000" d="M79.43 98.45c-2.02-8.25.76-17.14 7.34-22.52 7.62-6.22 17.83-6.47 25.54-1.79-1.6-4.23-4.24-8.21-8.64-11.38-9.1-6.55-21.22-7.09-30.4-.66-11.55 8.09-14.51 23.98-6.58 35.71a25.8 25.8 0 0 0 5.22 5.67c3.49 2.81 8.69-.46 7.58-4.8l-.06-.24z"/><path fill="#000" d="M68.1 77.78c7.301 0 13.22-5.919 13.22-13.22S75.401 51.34 68.1 51.34s-13.22 5.919-13.22 13.22 5.919 13.22 13.22 13.22"/><path fill="#757575" d="M71.92 103.88q-.135 0-.24-.09a26 26 0 0 1-5.3-5.76c-4.16-6.13-5.52-13.77-3.74-21.01a13.59 13.59 0 0 1-8.15-12.47c0-7.5 6.11-13.61 13.61-13.61 5.14 0 9.73 2.81 12.08 7.37 7.9-2.43 16.74-.89 23.72 4.14 4.07 2.94 6.94 6.72 8.78 11.56.08.2-.03.43-.23.5-.2.08-.43-.02-.5-.23-1.78-4.7-4.56-8.36-8.5-11.2-6.87-4.95-15.59-6.42-23.34-3.93a.394.394 0 0 1-.47-.2c-2.16-4.46-6.58-7.23-11.53-7.23-7.07 0-12.83 5.76-12.83 12.83 0 5.23 3.13 9.89 7.98 11.88.18.07.28.27.23.46-1.84 7.12-.55 14.67 3.55 20.7 1.44 2.12 3.17 4 5.14 5.59.17.13.19.38.06.55-.08.1-.19.15-.3.15z"/><path fill="#fff" d="M81.741 96.074c2.78-.953 4.002-4.728 2.732-8.432s-4.553-5.934-7.332-4.98c-2.78.952-4.003 4.728-2.732 8.432 1.27 3.703 4.553 5.933 7.332 4.98"/><path fill="#3c3c3c" d="M106.19 85.49a2.173 2.173 0 0 0 3.95 1.81c.5-1.09-3.45-2.9-3.95-1.81m7.1-1.02c-.22 0-.44-.09-.59-.27-2.64-3.07-6.92-4.15-10.41-2.62-.39.18-.85 0-1.03-.4-.17-.39 0-.85.4-1.03 4.11-1.8 9.13-.55 12.21 3.04.28.33.24.82-.08 1.1a.77.77 0 0 1-.51.19z"/><path fill="#606060" d="M107.94 103.2s-.08 0-.12-.02c-2.16-.9-3.29-1.71-4.3-4.19a.31.31 0 0 1 .17-.4c.16-.06.33.01.4.17.84 2.09 1.7 2.91 3.96 3.85a.306.306 0 0 1-.11.59"/><path fill="#adcb53" d="M154.7 140.82c-.71 0-1.4-.39-1.74-1.06-.5-.96-.12-2.14.85-2.64l30.79-15.82c.96-.5 2.14-.12 2.64.85.5.96.12 2.14-.85 2.64l-30.79 15.82c-.29.15-.59.22-.89.22z"/><path fill="#fff" d="M150 144.48c1.97-1.71 4.68-2.4 5.89-4.79 1.06-2.09 1.04-5.85 1.53-8.18.25-1.2.71-2.62 1.9-2.9 1.12-.27 2.19.71 2.58 1.8 1.13 3.18 1.5 10.56 7.3 8.2 3.28-1.33 2.87-6.81 5.96-8.7 1.47-.9 6.33-3.31 8.13-1.5 1.07 1.08-3.92 7.32-4.55 9.07a553 553 0 0 0-3.14 8.91c-.52 1.51-1.06 3.07-2.19 4.2-1.03 1.04-2.44 1.6-3.81 2.14-6.5 2.55-15.25 3.43-20.46 8.36"/><path fill="#aecc53" d="M152.01 164.03s-.08.07-.13.11l-16.08 13.84c-9.11 7.84-21.06 10.86-32.8 8.31-11.74-2.56-21.35-10.28-26.37-21.2l-9-19.57c-3.13-6.8-.16-14.84 6.65-17.97 6.8-3.13 14.84-.15 17.97 6.65l9 19.57c1.43 3.11 4.17 5.32 7.52 6.05s6.76-.13 9.36-2.37l16.08-13.84c5.67-4.88 14.22-4.24 19.1 1.43 4.84 5.63 4.25 14.1-1.31 18.99z"/><path fill="#606060" d="M79.35 94.51q-.24 0-.48-.09a.3.3 0 0 1-.18-.39.3.3 0 0 1 .39-.18c.43.16.93-.12 1.21-.48.29-.37.42-.87.53-1.34-.39-.29-.81-.62-1.11-1.04-.32-.46-.45-.89-.38-1.29.11-.62.65-1 1.05-1.28.11-.08.25-.17.31-.24-.22-.82-.47-1.74-1.04-2.39-.52-.6-1.46-.97-2.15-.55-.74.45-.85 1.57-.86 2.37 0 .17-.14.3-.31.3s-.3-.14-.3-.31c.02-.94.16-2.26 1.16-2.87.97-.59 2.25-.12 2.93.67.68.77.95 1.8 1.18 2.7.1.36-.24.6-.57.82-.33.23-.73.51-.8.88q-.06.36.27.84c.28.4.71.72 1.13 1.02.1.07.14.19.12.31-.13.58-.28 1.23-.69 1.77-.31.41-.85.77-1.43.77z"/><path fill="#aecc53" d="M171.55 81.13c.82-.14 1.49-.81 1.58-1.68.11-1.05-.66-1.98-1.7-2.09-1.05-.11-1.98.66-2.09 1.7-.06.61.18 1.17.59 1.57-1.2 2.89-3.91 4.94-7.06 5.25V77.8a7.25 7.25 0 0 0 5.24-3.34c.91-.02 1.7-.68 1.84-1.61.16-1.04-.56-2.01-1.59-2.17-1.04-.16-2.01.56-2.17 1.59-.08.54.07 1.06.39 1.46a5.55 5.55 0 0 1-3.7 2.36v-7.9c.63-.31 1.06-.95 1.06-1.7a1.9 1.9 0 1 0-3.8 0c0 .75.43 1.39 1.06 1.7v7.9a5.55 5.55 0 0 1-3.71-2.37c.31-.4.47-.92.39-1.46a1.9 1.9 0 0 0-2.17-1.59 1.9 1.9 0 0 0-1.59 2.17c.14.93.93 1.59 1.84 1.61a7.25 7.25 0 0 0 5.24 3.34v8.08a8.59 8.59 0 0 1-7.07-5.25c.41-.39.65-.96.59-1.57a1.9 1.9 0 0 0-2.09-1.7 1.9 1.9 0 0 0-1.7 2.09 1.9 1.9 0 0 0 1.58 1.68c1.42 3.59 4.79 6.13 8.69 6.45v8.22h1.69v-8.22c3.9-.32 7.26-2.86 8.69-6.45h-.03z"/><path fill="#aecc53" d="M162.01 110.29a.74.74 0 0 1-.61-.31l-5.92-7.85c-10.69-2.93-18.13-12.67-18.13-23.79 0-13.6 11.07-24.67 24.67-24.67s24.67 11.07 24.67 24.67c0 11.11-7.44 20.86-18.13 23.79l-5.92 7.85c-.15.19-.37.31-.61.31zm0-55.07c-12.75 0-23.13 10.38-23.13 23.13 0 10.51 7.09 19.7 17.25 22.37.17.04.31.14.42.28l5.47 7.25 5.47-7.25c.1-.14.25-.24.42-.28 10.15-2.67 17.25-11.86 17.25-22.37 0-12.75-10.38-23.13-23.13-23.13zm-42.25 295.39H1.17c-.64 0-1.17-.52-1.17-1.17s.52-1.17 1.17-1.17H118.6v-76.71c0-.64.52-1.17 1.17-1.17H238.1v-77.03c0-.64.52-1.17 1.17-1.17H282c.64 0 1.17.52 1.17 1.17s-.52 1.17-1.17 1.17h-41.56v77.03c0 .64-.52 1.17-1.17 1.17H120.94v76.71c0 .64-.52 1.17-1.17 1.17z"/></svg>