<svg width="420" height="420" viewBox="0 0 420 420" fill="none" xmlns="http://www.w3.org/2000/svg">
<path d="M276.76 18.17C258.97 11.5 240.4 5.90997 221.4 5.99997C195.8 6.10997 171.46 16.45 148.16 27.08C105.28 46.65 71.46 77.32 36.31 108.48C7.85996 133.69 3.18996 185.98 4.03996 221.5C4.13996 225.79 4.24996 230.09 4.44996 234.4C5.04996 247.65 6.46996 260.85 11.11 273.2C18.55 293 35.82 309.71 48.86 326.01C62.98 343.65 76.81 358.37 95.81 370.96C117.33 385.22 148.09 409.71 174.63 411.95C208.04 414.78 233.62 416.14 265.73 406.13C299.93 395.47 337.41 379.91 362.03 352.64C374.93 338.34 383.36 317.94 392.97 301.31C411.71 268.88 419.48 233.9 414.66 196.62C409.61 157.6 394.28 127.69 378.11 92.81C357.34 48.02 320.85 34.71 276.77 18.18H276.76V18.17Z" fill="#EBF2D4"/>
<path d="M293.88 237.82C290.92 237.82 287.79 237.61 284.4 237.21C266.46 235.05 249.41 227.46 236.39 215.84C220.53 201.68 210.44 182.26 207.97 161.17C206.75 150.71 207.41 140.26 209.94 130.1C211.65 123.22 215.24 117.25 218.72 111.48L219.13 110.8C220.39 108.71 221.45 106.56 222.48 104.48C224.35 100.71 226.27 96.81 229.37 93.33C229.39 93.3 229.42 93.27 229.45 93.23C243.09 77.96 259.98 68.83 279.65 66.1C297.43 63.63 316.9 66.68 335.98 74.9C341.67 77.36 347.06 81.82 352.05 86.28C363.08 96.12 371.45 108.66 376.26 122.55C378.19 128.14 380.09 134.87 379.43 142.39C379.09 146.3 379.51 149.75 379.96 153.4C380.2 155.35 380.45 157.36 380.59 159.52C380.92 164.87 378.96 171.14 377.38 176.18L377.12 177.01C373.47 188.67 367.21 199.69 359.01 208.88C352.18 216.53 343.68 223.1 333.72 228.41C328.99 230.93 323.66 232.09 318.5 233.22C315.53 233.86 312.47 234.53 309.64 235.45C304.7 237.04 299.63 237.82 293.89 237.82H293.88ZM231.29 94.72C231.29 94.72 231.24 94.79 231.21 94.82C228.29 98.08 226.5 101.7 224.6 105.53C223.55 107.65 222.47 109.84 221.16 112.02L220.75 112.71C217.21 118.59 213.86 124.15 212.24 130.68C209.79 140.56 209.14 150.73 210.33 160.91C212.73 181.43 222.55 200.32 237.97 214.1C250.63 225.4 267.22 232.78 284.69 234.89C294.3 236.05 301.77 235.53 308.92 233.23C311.86 232.28 314.99 231.6 318.01 230.94C323.01 229.85 328.18 228.73 332.62 226.36C342.33 221.19 350.61 214.79 357.25 207.35C365.23 198.41 371.32 187.69 374.87 176.34L375.13 175.51C376.65 170.66 378.55 164.62 378.24 159.71C378.1 157.62 377.86 155.64 377.63 153.73C377.17 149.95 376.73 146.38 377.09 142.23C377.7 135.17 375.99 128.99 374.04 123.37C369.37 109.86 361.22 97.66 350.49 88.08C345.65 83.75 340.44 79.42 335.06 77.1C316.38 69.04 297.34 66.06 279.99 68.47C260.92 71.12 244.54 79.96 231.3 94.75L231.29 94.72Z" fill="#A6C453"/>
<path d="M351.08 213.88C347.22 213.88 343.07 212.46 340.37 210.83C338.52 209.71 336.67 208.58 335.1 207.04C331.58 203.59 329.84 198.14 330.57 192.82C331.85 183.5 339.93 177.15 347.05 171.55C348.09 170.73 349.1 169.94 350.06 169.15C366.15 156.02 374.62 138.35 373.29 120.68C373.24 120.03 373.73 119.46 374.38 119.41C375.04 119.37 375.6 119.85 375.65 120.5C377.04 138.95 368.26 157.35 351.56 170.97C350.59 171.76 349.56 172.57 348.51 173.39C341.74 178.72 334.06 184.75 332.91 193.12C332.28 197.71 333.75 202.4 336.76 205.34C338.13 206.69 339.79 207.7 341.55 208.76C344.71 210.67 349.81 212.12 353.53 211.24C354.17 211.09 354.8 211.48 354.95 212.12C355.1 212.75 354.71 213.39 354.07 213.54C353.12 213.76 352.11 213.87 351.08 213.87V213.88Z" fill="#A6C453"/>
<path d="M331.08 228.94C331 228.94 330.92 228.94 330.83 228.91C321.33 226.88 313.08 220.77 308.76 212.58C304.98 205.4 305.45 195.38 310.02 185.75C314.93 175.41 322.98 167.85 330.76 160.53C333.93 157.55 337.21 154.47 340.26 151.22C348.07 142.89 352.96 133.83 356.09 121.84C358.05 114.34 360.38 103.4 357.98 95.09C357.8 94.46 358.16 93.81 358.79 93.63C359.41 93.45 360.07 93.81 360.25 94.44C362.81 103.31 360.41 114.67 358.38 122.45C355.14 134.84 350.09 144.21 341.99 152.85C338.89 156.15 335.59 159.26 332.39 162.26C324.42 169.75 316.89 176.83 312.16 186.77C307.91 195.72 307.42 204.96 310.86 211.48C314.8 218.95 322.64 224.75 331.33 226.6C331.97 226.74 332.37 227.36 332.24 228C332.12 228.55 331.63 228.93 331.09 228.93L331.08 228.94Z" fill="#A6C453"/>
<path d="M233.42 166.88C228.84 166.88 224.25 165.49 220.53 162.8C208.38 154.02 208.33 139.24 210.43 128.39C210.55 127.75 211.17 127.33 211.81 127.46C212.45 127.58 212.87 128.2 212.74 128.84C210.77 139.02 210.76 152.84 221.9 160.89C227.3 164.79 234.77 165.64 240.91 163.03C243.55 161.91 246 160.18 248.16 158.65C249.95 157.39 251.68 155.93 253.52 154.38C257.43 151.08 261.48 147.67 266.24 146.23C271.08 144.77 276.52 144.1 281.79 143.46C289.64 142.5 297.75 141.51 303.83 137.87C312.8 132.49 324.33 123.03 328.36 108.54C331.37 97.72 329.19 87.44 322.22 79.6C314.09 70.45 300.49 65.82 287.59 67.81C286.96 67.91 286.34 67.47 286.24 66.82C286.14 66.18 286.58 65.57 287.23 65.47C300.9 63.36 315.33 68.28 323.99 78.02C331.51 86.48 333.87 97.54 330.64 109.16C326.4 124.4 314.39 134.28 305.05 139.89C298.55 143.79 290.18 144.81 282.08 145.8C276.91 146.43 271.57 147.08 266.93 148.49C262.64 149.78 258.78 153.04 255.05 156.18C253.26 157.69 251.4 159.26 249.53 160.57C247.28 162.16 244.72 163.97 241.84 165.19C239.18 166.32 236.3 166.87 233.41 166.87L233.42 166.88Z" fill="#A6C453"/>
<path d="M249.73 144.51C249.45 144.51 249.17 144.5 248.88 144.47C246.29 144.19 243.95 142.67 241.73 139.8C237.84 134.76 236.43 127.54 237.96 120.48C239.21 114.68 242.34 108.85 247.24 103.14C260.13 88.11 280.27 80.76 297.35 84.88C301.08 85.77 303.96 87.06 306.15 88.84C310.97 92.76 313.17 99.96 311.63 106.78C311.63 106.8 311.63 106.83 311.62 106.85C308.01 122.56 291.17 130.93 276.07 132.25C269.5 132.83 266.16 134.21 261.19 138.4C257.23 141.74 253.61 144.52 249.74 144.52L249.73 144.51ZM287.58 86.1C273.71 86.1 259.09 92.94 249.03 104.67C244.39 110.08 241.44 115.56 240.27 120.97C238.89 127.36 240.13 133.86 243.6 138.35C245.4 140.68 247.21 141.91 249.13 142.12C252.4 142.46 255.83 139.82 259.66 136.59C265.01 132.08 268.79 130.52 275.86 129.9C290.08 128.66 305.93 120.9 309.3 106.38C309.3 106.36 309.3 106.33 309.31 106.31C310.68 100.33 308.81 94.05 304.66 90.67C302.75 89.12 300.18 87.98 296.8 87.17C293.81 86.45 290.71 86.1 287.58 86.1Z" fill="#A6C453"/>
<path d="M262.57 121.7C260.1 121.7 257.94 121.22 256.53 119.96C254.62 118.26 254.3 115.54 255.56 111.86C256.78 108.34 260.33 106.43 262.9 105.3C268.32 102.92 274.07 101.52 280 101.16C284.26 100.9 287.18 101.9 288.68 104.14C290.18 106.39 289.9 109.7 287.99 112.2C286.41 114.25 284.12 115.54 281.86 116.62C281.83 116.64 281.8 116.65 281.77 116.67C281.63 116.74 270.49 121.69 262.56 121.69L262.57 121.7ZM281.31 103.48C280.94 103.48 280.56 103.49 280.15 103.52C274.5 103.86 269.02 105.19 263.85 107.46C261.69 108.41 258.71 109.98 257.79 112.63C256.87 115.32 256.97 117.2 258.09 118.2C261.77 121.47 275.62 116.98 280.65 114.6C280.68 114.58 280.71 114.57 280.74 114.55C282.63 113.65 284.76 112.54 286.11 110.78C287.21 109.34 287.77 107.05 286.71 105.46C285.83 104.15 284.01 103.49 281.29 103.49L281.31 103.48Z" fill="#A6C453"/>
<path d="M232.06 191.11C231.51 191.11 230.95 191.09 230.4 191.06C223.5 190.68 217.65 187.84 213.47 182.86C213.05 182.36 213.12 181.62 213.62 181.2C214.12 180.78 214.86 180.85 215.28 181.35C219.08 185.89 224.21 188.36 230.53 188.71C241.25 189.3 252.25 183.61 258.42 177.71C260.26 175.95 261.89 174.01 263.47 172.13C266.88 168.07 270.41 163.87 276.11 161.5C280.48 159.69 285.2 159.26 289.76 158.84C292.11 158.62 294.54 158.4 296.86 157.99C311.03 155.5 325.08 144.6 334.44 128.86C343.9 112.94 346.75 95.14 342.08 81.22C341.87 80.6 342.2 79.93 342.82 79.73C343.44 79.52 344.11 79.85 344.31 80.47C349.2 95.03 346.27 113.57 336.46 130.07C326.75 146.4 312.1 157.71 297.26 160.32C294.84 160.75 292.36 160.98 289.96 161.2C285.37 161.62 281.03 162.02 276.99 163.69C271.82 165.84 268.63 169.63 265.25 173.65C263.63 175.58 261.96 177.57 260.02 179.42C253.8 185.37 242.9 191.11 232.03 191.11H232.06Z" fill="#A6C453"/>
<path d="M308.27 236.02C308.27 236.02 308.17 236.02 308.12 236.02C301.55 235.18 295.86 230.75 292.91 224.16C290.59 218.97 289.35 213.06 289.33 207.07C289.31 202.34 289.06 197.35 286.19 192.85C284.95 190.9 283.1 189.79 280.69 189.57C275.92 189.13 269.92 192.24 266.86 195.51L266.46 195.94C263.51 199.09 260.46 202.35 257.05 205.18C248.81 212.02 239.87 214.06 231.2 211.09C230.58 210.88 230.25 210.21 230.47 209.59C230.69 208.97 231.35 208.65 231.97 208.86C239.93 211.59 247.86 209.74 255.54 203.37C258.83 200.63 261.83 197.43 264.73 194.33L265.13 193.9C268.54 190.27 275.22 186.69 280.91 187.23C284.03 187.52 286.55 189.03 288.18 191.6C291.38 196.63 291.66 202.01 291.68 207.08C291.7 212.74 292.87 218.32 295.06 223.21C297.67 229.04 302.66 232.96 308.41 233.69C309.06 233.77 309.51 234.36 309.43 235.01C309.35 235.61 308.85 236.04 308.26 236.04L308.27 236.02Z" fill="#A6C453"/>
<path d="M288.3 237.45C283.27 237.45 278.81 232.27 277.12 228.85C275.46 225.49 276.24 222.65 277 219.91C277.49 218.15 277.94 216.49 277.8 214.65C277.65 212.72 276.47 210.84 274.79 209.87C273.11 208.9 270.89 208.82 269.15 209.65C267.32 210.53 265.94 212.32 264.68 214.08L264.21 214.74C262.65 216.92 261.04 219.17 258.89 220.94C255.99 223.34 251.01 225.14 246.93 223.38C246.33 223.12 246.05 222.43 246.31 221.83C246.57 221.23 247.26 220.95 247.86 221.21C250.89 222.51 254.95 221.14 257.39 219.12C259.31 217.55 260.82 215.42 262.29 213.37L262.76 212.71C264.2 210.7 265.79 208.64 268.13 207.52C270.6 206.34 273.6 206.46 275.97 207.82C278.34 209.19 279.95 211.73 280.16 214.46C280.33 216.71 279.8 218.65 279.28 220.53C278.58 223.06 277.98 225.25 279.24 227.8C280.84 231.03 284.85 235.42 288.75 235.07C289.39 235 289.97 235.49 290.03 236.14C290.09 236.79 289.61 237.36 288.96 237.42C288.74 237.44 288.52 237.45 288.3 237.45Z" fill="#A6C453"/>
<path d="M236.56 173.16C240.68 173.16 244.02 169.82 244.02 165.7C244.02 161.58 240.68 158.24 236.56 158.24C232.44 158.24 229.1 161.58 229.1 165.7C229.1 169.82 232.44 173.16 236.56 173.16Z" fill="#A9C753"/>
<path d="M353.11 178.16C357.23 178.16 360.57 174.82 360.57 170.7C360.57 166.58 357.23 163.24 353.11 163.24C348.99 163.24 345.65 166.58 345.65 170.7C345.65 174.82 348.99 178.16 353.11 178.16Z" fill="#A9C753"/>
<path d="M247.37 109.95C250.164 109.95 252.43 107.685 252.43 104.89C252.43 102.095 250.164 99.83 247.37 99.83C244.575 99.83 242.31 102.095 242.31 104.89C242.31 107.685 244.575 109.95 247.37 109.95Z" fill="#A9C753"/>
<path d="M330.88 102.23C335 102.23 338.34 98.89 338.34 94.7699C338.34 90.6499 335 87.3099 330.88 87.3099C326.76 87.3099 323.42 90.6499 323.42 94.7699C323.42 98.89 326.76 102.23 330.88 102.23Z" fill="#A9C753"/>
<path d="M278.21 204.48C281.005 204.48 283.27 202.215 283.27 199.42C283.27 196.625 281.005 194.36 278.21 194.36C275.415 194.36 273.15 196.625 273.15 199.42C273.15 202.215 275.415 204.48 278.21 204.48Z" fill="#A9C753"/>
<path d="M136.31 156.58C132.82 156.58 129.97 153.73 129.97 150.24C129.97 146.75 132.82 143.9 136.31 143.9H168.78C169.3 140.98 169.59 137.99 169.59 134.92C169.59 132.62 169.24 129.95 168.61 127H136.31C132.82 127 129.97 124.15 129.97 120.66C129.97 117.17 132.82 114.32 136.31 114.32H164.89C163 109.02 160.65 103.31 158 97.42H136.31C132.82 97.42 129.97 94.57 129.97 91.08C129.97 87.59 132.82 84.74 136.31 84.74H152.03C149.23 79.04 146.29 73.33 143.36 67.84H136.31C132.82 67.84 129.97 64.99 129.97 61.5C129.97 58.01 132.82 55.16 136.31 55.16H136.45C126.84 37.9 118.88 25.05 118.88 25.05C118.88 25.05 110.92 37.9 101.31 55.16H101.45C104.94 55.16 107.79 58.01 107.79 61.5C107.79 64.99 104.94 67.84 101.45 67.84H94.3999C91.4699 73.34 88.5299 79.04 85.7299 84.74H101.45C104.94 84.74 107.79 87.59 107.79 91.08C107.79 94.57 104.94 97.42 101.45 97.42H79.7599C77.1199 103.31 74.7599 109.03 72.8699 114.32H101.45C104.94 114.32 107.79 117.17 107.79 120.66C107.79 124.15 104.94 127 101.45 127H69.1499C68.5199 129.95 68.1699 132.62 68.1699 134.92C68.1699 137.99 68.4599 140.98 68.9799 143.9H101.45C104.94 143.9 107.79 146.75 107.79 150.24C107.79 153.73 104.94 156.58 101.45 156.58H73.0199C81.1399 173.75 98.6199 185.63 118.88 185.63C139.14 185.63 156.62 173.75 164.74 156.58H136.31Z" fill="#ADCB53"/>
<path d="M234.36 168.73C234.36 189.33 217.66 206.03 197.06 206.03C176.46 206.03 159.76 189.33 159.76 168.73C159.76 154.83 176.75 124.12 187.8 105.63C191.99 98.62 202.13 98.62 206.32 105.63C217.37 124.12 234.36 154.83 234.36 168.73Z" fill="#006E69"/>
<path d="M197.06 207.05C175.93 207.05 158.74 189.86 158.74 168.73C158.74 154.41 176.4 122.72 186.92 105.11C189.07 101.51 192.86 99.36 197.06 99.36C201.25 99.36 205.04 101.51 207.2 105.11C217.73 122.72 235.38 154.41 235.38 168.73C235.38 189.86 218.19 207.05 197.06 207.05ZM197.06 101.39C193.59 101.39 190.46 103.17 188.68 106.15C178.26 123.58 160.78 154.89 160.78 168.73C160.78 188.73 177.06 205.01 197.06 205.01C217.06 205.01 233.34 188.74 233.34 168.73C233.34 154.9 215.86 123.59 205.44 106.15C203.66 103.17 200.52 101.39 197.06 101.39Z" fill="#006E69"/>
<path d="M197.07 160.15C189.34 160.15 182.73 154.62 181.36 147.01C181.24 146.35 181.68 145.71 182.34 145.59C183.01 145.47 183.64 145.91 183.76 146.57C184.92 153.02 190.52 157.71 197.07 157.71C203.62 157.71 209.22 153.03 210.38 146.57C210.5 145.91 211.13 145.47 211.8 145.59C212.46 145.71 212.9 146.34 212.78 147.01C211.41 154.63 204.8 160.15 197.07 160.15Z" fill="white"/>
<path d="M208.81 146.66C208.96 145.15 210.3 144.04 211.82 144.19C213.34 144.34 214.44 145.68 214.29 147.2C214.14 148.71 212.8 149.82 211.28 149.67C209.77 149.52 208.66 148.18 208.81 146.66Z" fill="white"/>
<path d="M185.33 146.66C185.18 145.15 183.84 144.04 182.32 144.19C180.8 144.34 179.7 145.68 179.85 147.2C180 148.71 181.34 149.82 182.86 149.67C184.37 149.52 185.48 148.18 185.33 146.66Z" fill="white"/>
<path d="M197.07 187.45C185.37 187.45 175.49 178.69 174.09 167.07C174.01 166.4 174.49 165.79 175.15 165.71C175.82 165.63 176.43 166.11 176.51 166.77C177.77 177.17 186.6 185.01 197.07 185.01C207.54 185.01 216.38 177.17 217.63 166.78C217.71 166.11 218.32 165.64 218.99 165.71C219.66 165.79 220.14 166.4 220.06 167.07C218.67 178.69 208.79 187.46 197.08 187.46L197.07 187.45Z" fill="white"/>
<path d="M216.05 166.86C216.16 165.34 217.47 164.2 218.99 164.31C220.51 164.42 221.65 165.73 221.54 167.25C221.43 168.77 220.12 169.91 218.6 169.8C217.08 169.69 215.94 168.38 216.05 166.86Z" fill="white"/>
<path d="M178.09 166.86C177.98 165.34 176.67 164.2 175.15 164.31C173.63 164.42 172.49 165.73 172.6 167.25C172.71 168.77 174.02 169.91 175.54 169.8C177.06 169.69 178.2 168.38 178.09 166.86Z" fill="white"/>
<path d="M197.08 288.78C196.41 288.78 195.86 288.23 195.86 287.56V206.03C195.86 205.36 196.41 204.81 197.08 204.81C197.75 204.81 198.3 205.36 198.3 206.03V287.56C198.3 288.23 197.75 288.78 197.08 288.78Z" fill="#ADCB53"/>
<path d="M197.08 207.25C196.41 207.25 195.86 206.7 195.86 206.03V130.42C195.86 129.75 196.41 129.2 197.08 129.2C197.75 129.2 198.3 129.75 198.3 130.42V206.03C198.3 206.7 197.75 207.25 197.08 207.25Z" fill="white"/>
<path d="M194.33 130.56C194.33 129.04 195.56 127.81 197.08 127.81C198.6 127.81 199.83 129.04 199.83 130.56C199.83 132.08 198.6 133.31 197.08 133.31C195.56 133.31 194.33 132.08 194.33 130.56Z" fill="white"/>
<path d="M118.88 282.7C118.09 282.7 117.44 282.06 117.44 281.27V69.92C117.44 69.13 118.08 68.48 118.88 68.48C119.68 68.48 120.32 69.12 120.32 69.92V281.27C120.32 282.06 119.68 282.7 118.88 282.7Z" fill="white"/>
<path d="M118.5 214.21C118.5 237.21 99.86 255.85 76.86 255.85C53.86 255.85 35.22 237.21 35.22 214.21C35.22 198.65 54.27 162.86 66.6 141.33C71.14 133.4 82.58 133.4 87.11 141.33C99.44 162.86 118.49 198.66 118.49 214.21H118.5Z" fill="#003834"/>
<path d="M76.86 301.85C76.02 301.85 75.34 301.17 75.34 300.34V163.21C75.34 162.37 76.02 161.69 76.86 161.69C77.7 161.69 78.38 162.37 78.38 163.21V300.34C78.38 301.18 77.7 301.85 76.86 301.85Z" fill="#AECC53"/>
<path d="M73.4399 163.38C73.4399 161.49 74.9699 159.96 76.8599 159.96C78.7499 159.96 80.2799 161.49 80.2799 163.38C80.2799 165.27 78.7499 166.8 76.8599 166.8C74.9699 166.8 73.4399 165.27 73.4399 163.38Z" fill="#AECC53"/>
<path d="M76.4299 205.41C67.1799 205.41 59.2299 198.8 57.5199 189.69C57.3699 188.87 57.9099 188.08 58.7299 187.92C59.5499 187.77 60.3399 188.31 60.4999 189.13C61.9399 196.8 68.6399 202.37 76.4299 202.37C84.2199 202.37 90.9299 196.8 92.3599 189.13C92.5099 188.31 93.2999 187.76 94.1299 187.92C94.9499 188.07 95.4899 188.86 95.3399 189.69C93.6399 198.8 85.6899 205.41 76.4299 205.41Z" fill="#AECC53"/>
<path d="M90.3999 189.24C90.5899 187.36 92.2599 185.99 94.1399 186.17C96.0199 186.36 97.3899 188.03 97.2099 189.91C97.0199 191.79 95.3499 193.16 93.4699 192.98C91.5899 192.79 90.2199 191.12 90.3999 189.24Z" fill="#AECC53"/>
<path d="M62.4599 189.24C62.2699 187.36 60.5999 185.99 58.7199 186.17C56.8399 186.36 55.4699 188.03 55.6499 189.91C55.8399 191.79 57.5099 193.16 59.3899 192.98C61.2699 192.79 62.6399 191.12 62.4599 189.24Z" fill="#AECC53"/>
<path d="M76.43 238.21C62.41 238.21 50.53 227.71 48.79 213.79C48.69 212.96 49.28 212.2 50.11 212.1C50.94 211.98 51.7 212.59 51.8 213.42C53.35 225.83 63.94 235.18 76.44 235.18C88.94 235.18 99.54 225.82 101.08 213.42C101.18 212.59 101.94 212 102.77 212.1C103.6 212.2 104.19 212.96 104.09 213.79C102.36 227.71 90.48 238.21 76.45 238.21H76.43Z" fill="#AECC53"/>
<path d="M99.11 213.51C99.25 211.63 100.89 210.21 102.77 210.35C104.65 210.49 106.07 212.13 105.93 214.01C105.79 215.89 104.15 217.31 102.27 217.17C100.39 217.03 98.97 215.39 99.11 213.51Z" fill="#AECC53"/>
<path d="M53.7499 213.51C53.6099 211.63 51.9699 210.21 50.0899 210.35C48.2099 210.49 46.7899 212.13 46.9299 214.01C47.0699 215.89 48.7099 217.31 50.5899 217.17C52.4699 217.03 53.8899 215.39 53.7499 213.51Z" fill="#AECC53"/>
<path d="M239.31 280.49H52.28V374.71H239.31V280.49Z" fill="#006E69"/>
<path d="M239.31 375.73H52.28C51.72 375.73 51.26 375.27 51.26 374.71V280.49C51.26 279.93 51.72 279.47 52.28 279.47H239.31C239.87 279.47 240.33 279.93 240.33 280.49V374.71C240.33 375.27 239.87 375.73 239.31 375.73ZM53.3 373.69H238.29V281.51H53.3V373.69Z" fill="#006E69"/>
<path d="M150.67 343.67V321.4L136.65 310.47L120.09 287.81L119.86 287.98V281.28H117.69V332.02L105.39 342V353.02C104.58 353.42 104.03 354.25 104.03 355.21C104.03 356.56 105.13 357.66 106.48 357.66C107.83 357.66 108.93 356.56 108.93 355.21C108.93 354.25 108.37 353.42 107.57 353.02V343.04L117.69 334.82V358.33C116.88 358.73 116.32 359.56 116.32 360.52C116.32 361.87 117.42 362.97 118.77 362.97C120.12 362.97 121.22 361.87 121.22 360.52C121.22 359.56 120.66 358.73 119.86 358.33V334.82L129.98 343.04V353.02C129.17 353.42 128.62 354.25 128.62 355.21C128.62 356.56 129.72 357.66 131.07 357.66C132.42 357.66 133.52 356.56 133.52 355.21C133.52 354.25 132.96 353.42 132.16 353.02V342L119.86 332.02V291.19L134.77 311.59V331.16C133.96 331.56 133.41 332.39 133.41 333.35C133.41 334.7 134.51 335.8 135.86 335.8C137.21 335.8 138.31 334.7 138.31 333.35C138.31 332.39 137.75 331.56 136.95 331.16V313.46L148.5 322.46V343.66C147.69 344.06 147.14 344.89 147.14 345.85C147.14 347.2 148.24 348.3 149.59 348.3C150.94 348.3 152.04 347.2 152.04 345.85C152.04 344.89 151.48 344.06 150.68 343.66L150.67 343.67Z" fill="#EBF2D4"/>
<path d="M101.71 328.63V306.36L87.5699 295.35L77.7799 287.61L77.7599 287.64V281.29H75.5899V332.2L66.5499 342.11V353.03C65.7399 353.43 65.1899 354.26 65.1899 355.22C65.1899 356.57 66.2899 357.67 67.6399 357.67C68.9899 357.67 70.0899 356.57 70.0899 355.22C70.0899 354.26 69.5299 353.43 68.7299 353.03V342.95L75.5899 335.42V358.33C74.7799 358.73 74.2199 359.56 74.2199 360.52C74.2199 361.87 75.3199 362.97 76.6699 362.97C78.0199 362.97 79.1199 361.87 79.1199 360.52C79.1199 359.56 78.5599 358.73 77.7599 358.33V335.42L84.6199 342.94V353.02C83.8099 353.42 83.2599 354.25 83.2599 355.21C83.2599 356.56 84.3599 357.66 85.7099 357.66C87.0599 357.66 88.1599 356.56 88.1599 355.21C88.1599 354.25 87.5999 353.42 86.7999 353.02V342.1L77.7599 332.19V290.36L85.8099 296.73V316.13C84.9999 316.53 84.4499 317.36 84.4499 318.32C84.4499 319.67 85.5499 320.77 86.8999 320.77C88.2499 320.77 89.3499 319.67 89.3499 318.32C89.3499 317.36 88.7899 316.53 87.9799 316.13V298.43L99.5299 307.43V328.63C98.7199 329.03 98.1699 329.86 98.1699 330.82C98.1699 332.17 99.2699 333.27 100.62 333.27C101.97 333.27 103.07 332.17 103.07 330.82C103.07 329.86 102.51 329.03 101.71 328.63Z" fill="#EBF2D4"/>
<path d="M228.89 343.67V321.4L214.87 310.47L198.31 287.81L198.08 287.98V281.28H195.91V287.99L195.67 287.82L179.66 310.47L165.64 321.39V343.66C164.83 344.06 164.28 344.89 164.28 345.85C164.28 347.2 165.38 348.3 166.73 348.3C168.08 348.3 169.18 347.2 169.18 345.85C169.18 344.89 168.62 344.06 167.81 343.66V322.46L179.36 313.46V331.16C178.55 331.56 178 332.39 178 333.35C178 334.7 179.1 335.8 180.45 335.8C181.8 335.8 182.9 334.7 182.9 333.35C182.9 332.39 182.34 331.56 181.54 331.16V311.58L195.91 291.26V332.02L183.61 342V353.02C182.8 353.42 182.24 354.25 182.24 355.21C182.24 356.56 183.34 357.66 184.69 357.66C186.04 357.66 187.14 356.56 187.14 355.21C187.14 354.25 186.58 353.42 185.78 353.02V343.04L195.9 334.82V358.33C195.09 358.73 194.54 359.56 194.54 360.52C194.54 361.87 195.64 362.97 196.99 362.97C198.34 362.97 199.44 361.87 199.44 360.52C199.44 359.56 198.88 358.73 198.08 358.33V334.82L208.2 343.04V353.02C207.39 353.42 206.84 354.25 206.84 355.21C206.84 356.56 207.94 357.66 209.29 357.66C210.64 357.66 211.74 356.56 211.74 355.21C211.74 354.25 211.18 353.42 210.37 353.02V342L198.07 332.02V291.19L212.98 311.59V331.16C212.17 331.56 211.62 332.39 211.62 333.35C211.62 334.7 212.72 335.8 214.07 335.8C215.42 335.8 216.52 334.7 216.52 333.35C216.52 332.39 215.96 331.56 215.16 331.16V313.46L226.71 322.46V343.66C225.9 344.06 225.35 344.89 225.35 345.85C225.35 347.2 226.45 348.3 227.8 348.3C229.15 348.3 230.25 347.2 230.25 345.85C230.25 344.89 229.69 344.06 228.88 343.66H228.89V343.67Z" fill="#EBF2D4"/>
<path d="M322.03 267.64V270.62C322.03 273.43 324.31 275.72 327.13 275.72H367.01C369.82 275.72 372.11 278 372.11 280.82V360.99C372.11 363.8 369.83 366.09 367.01 366.09H268.96C266.15 366.09 263.86 363.81 263.86 360.99V267.65C263.86 264.84 266.14 262.55 268.96 262.55H316.94C319.75 262.55 322.04 264.83 322.04 267.65H322.03V267.64Z" fill="#A9C753"/>
<path d="M313.33 276.58V279.56C313.33 282.37 315.61 284.66 318.43 284.66H358.31C361.12 284.66 363.41 286.94 363.41 289.76V369.93C363.41 372.74 361.13 375.03 358.31 375.03H260.26C257.45 375.03 255.16 372.75 255.16 369.93V276.59C255.16 273.78 257.44 271.49 260.26 271.49H308.24C311.05 271.49 313.34 273.77 313.34 276.59H313.33V276.58Z" fill="#003834"/>
<path d="M309.28 355.62C323.468 355.62 334.97 344.118 334.97 329.93C334.97 315.742 323.468 304.24 309.28 304.24C295.092 304.24 283.59 315.742 283.59 329.93C283.59 344.118 295.092 355.62 309.28 355.62Z" fill="#003834"/>
<path d="M340.72 329.93H328.8C328.8 329.93 328.78 330.87 328.75 331.33C328.03 341.45 319.59 349.44 309.29 349.44C298.99 349.44 290.48 341.39 289.82 331.21C289.79 330.79 289.78 329.93 289.78 329.93H277.85C277.85 329.93 277.85 330.78 277.88 331.2C278.55 347.97 292.35 361.36 309.29 361.36C326.23 361.36 339.89 348.11 340.69 331.46C340.71 330.95 340.73 329.92 340.73 329.92H340.72V329.93Z" fill="white"/>
<path d="M277.84 329.93H289.77C289.77 319.15 298.51 310.42 309.28 310.42C320.05 310.42 328.79 319.16 328.79 329.93H340.71C340.71 312.57 326.64 298.49 309.27 298.49C291.9 298.49 277.83 312.56 277.83 329.93H277.84Z" fill="#006D68"/>
<path d="M309.28 344.72C317.448 344.72 324.07 338.098 324.07 329.93C324.07 321.762 317.448 315.14 309.28 315.14C301.112 315.14 294.49 321.762 294.49 329.93C294.49 338.098 301.112 344.72 309.28 344.72Z" fill="#ACCA53"/>
<path d="M310.79 329.93L309.28 344.72L307.77 329.93H310.79Z" fill="white"/>
<path d="M307.77 329.93L309.28 315.14L310.79 329.93H307.77Z" fill="#3C3C3C"/>
<path d="M354.784 235.432L343.533 246.682L354.784 257.932L366.034 246.682L354.784 235.432Z" fill="#003834"/>
<path d="M354.79 238.79L362.7 246.7L354.79 254.61L346.88 246.7L354.79 238.79ZM354.79 232.1L340.19 246.7L354.79 261.3L369.39 246.7L354.79 232.1Z" fill="#AECC53"/>
<path d="M210.45 62.47C214.68 62.47 218.12 65.91 218.12 70.14C218.12 74.37 214.68 77.81 210.45 77.81C206.22 77.81 202.78 74.37 202.78 70.14C202.78 65.91 206.22 62.47 210.45 62.47ZM210.45 56.71C203.03 56.71 197.01 62.73 197.01 70.15C197.01 77.57 203.03 83.59 210.45 83.59C217.87 83.59 223.89 77.57 223.89 70.15C223.89 62.73 217.87 56.71 210.45 56.71Z" fill="#003834"/>
<path d="M166.88 250.99L157.09 245.33V234.04L166.88 228.4L176.66 234.04V245.33L166.88 250.99ZM159.43 243.98L166.88 248.28L174.32 243.98V235.39L166.88 231.1L159.43 235.39V243.98Z" fill="#006D68"/>
</svg>
