<svg xmlns="http://www.w3.org/2000/svg" width="400" height="390" fill="none" viewBox="0 0 400 390"><path fill="#ebf2d4" d="M262.7 14.85c-16.71-6.26-34.15-11.51-51.99-11.43-24.05.11-46.9 9.81-68.78 19.8C101.66 41.6 69.9 70.4 36.89 99.66 10.17 123.34 5.78 172.44 6.59 205.8c.1 4.02.2 8.07.38 12.11.56 12.44 1.9 24.84 6.26 36.43 6.99 18.59 23.2 34.29 35.45 49.59 13.26 16.57 26.25 30.39 44.09 42.21 20.2 13.39 49.09 36.39 74.02 38.5 31.37 2.65 55.4 3.93 85.55-5.47 32.12-10.01 67.32-24.62 90.43-50.23 12.12-13.43 20.03-32.59 29.05-48.2 17.6-30.46 24.89-63.3 20.37-98.31-4.74-36.65-19.14-64.73-34.32-97.49-19.5-42.07-53.77-54.57-95.17-70.08z"/><path fill="#a8c653" d="M213.38 156.81h-87.47c-.57 0-1.03-.46-1.03-1.03V44.26c0-.57.46-1.03 1.03-1.03h65.06c.3 0 .59.13.78.36l22.41 26.19c.16.19.25.42.25.67v85.33c0 .57-.46 1.03-1.03 1.03m-86.44-2.06h85.41V70.83L190.5 45.29h-63.56z"/><path fill="#a8c653" d="M190.74 69.71h22.22l-22.22-25.72zm11.43 15.42h-62.59v6.45h62.59zm0 21.4h-62.59v6.45h62.59zm0 21.4h-62.59v6.45h62.59z"/><path fill="#6fafac" d="M171.04 85.03H37.57v201.03h133.47z"/><path fill="#00544f" d="M78.1 73.29h52.41c5.12 0 9.28 4.16 9.28 9.28v3.51H68.83v-3.51c0-5.12 4.16-9.28 9.28-9.28z"/><path fill="#00544f" d="M128.94 84.77H79.66v8.56h49.28z"/><path fill="#003834" d="M63.29 124.91H49.74v13.55h13.55z"/><path fill="#fff" d="M158.86 132.72H71.35c-.57 0-1.03-.46-1.03-1.03s.46-1.03 1.03-1.03h87.51c.57 0 1.03.46 1.03 1.03s-.46 1.03-1.03 1.03"/><path fill="#003834" d="M63.29 164.46H49.74v13.55h13.55z"/><path fill="#fff" d="M158.86 172.26H71.35c-.57 0-1.03-.46-1.03-1.03s.46-1.03 1.03-1.03h87.51c.57 0 1.03.46 1.03 1.03s-.46 1.03-1.03 1.03"/><path fill="#003834" d="M63.29 204.01H49.74v13.55h13.55z"/><path fill="#fff" d="M158.86 211.81H71.35c-.57 0-1.03-.46-1.03-1.03s.46-1.03 1.03-1.03h87.51c.57 0 1.03.46 1.03 1.03s-.46 1.03-1.03 1.03"/><path fill="#003834" d="M63.29 243.56H49.74v13.55h13.55z"/><path fill="#fff" d="M158.86 251.36H71.35c-.57 0-1.03-.46-1.03-1.03s.46-1.03 1.03-1.03h87.51c.57 0 1.03.46 1.03 1.03s-.46 1.03-1.03 1.03"/><path fill="#006d68" d="M288.13 113.01a34.5 34.5 0 0 0-4.18 16.08c-.23 19 23.21 40.31 34.11 40.31 14.73 0 35.1-20.6 35.1-39.88 0-7.91-2.66-15.21-7.13-21.04-2.13-2.77-2.64-6.45-1.3-9.68 1.39-3.35 2.16-7.02 2.16-10.87 0-6.56-2.23-12.6-5.97-17.4a9.81 9.81 0 0 1-1.03-10.52c1.65-3.25 2.58-6.92 2.58-10.82 0-13.21-14.53-39.59-23.93-39.59-8.26 0-23.93 26.38-23.93 39.59 0 3.89.93 7.57 2.58 10.82a9.81 9.81 0 0 1-1.03 10.52 28.2 28.2 0 0 0-5.97 17.4c0 3.85.77 7.52 2.16 10.87 1.34 3.22.83 6.89-1.29 9.66-1.1 1.43-2.09 2.95-2.96 4.55"/><path fill="#a8c653" d="M318.55 215.27c-.69 0-1.25-.56-1.25-1.25V40.08a1.25 1.25 0 0 1 2.5 0v173.94c0 .69-.56 1.25-1.25 1.25"/><path fill="#00544f" d="M110.97 183.7H378.9v151.5c0 13.92-11.3 25.21-25.21 25.21h-217.5c-13.92 0-25.21-11.3-25.21-25.21V183.7z"/><path fill="#6fafac" d="M306.44 198.96h-7.63v-27.45c0-14.31-11.64-25.94-25.94-25.94h-53.63c-14.31 0-25.95 11.64-25.95 25.94v27.45h-7.63v-27.45c0-18.51 15.06-33.57 33.58-33.57h53.63c18.51 0 33.58 15.06 33.58 33.57v27.45z"/><path fill="#003834" d="M110.97 183.7H378.9v83.73c0 10.62-8.62 19.25-19.25 19.25H130.22c-10.62 0-19.25-8.62-19.25-19.25z"/><path fill="#6fafac" d="M155.94 262.53c4.21 0 7.63 3.42 7.63 7.63v25.42c0 4.21-3.42 7.63-7.63 7.63s-7.63-3.42-7.63-7.63v-25.42c0-4.21 3.42-7.63 7.63-7.63m177.99 0c4.21 0 7.63 3.42 7.63 7.63v25.42c0 4.21-3.42 7.63-7.63 7.63s-7.63-3.42-7.63-7.63v-25.42c0-4.21 3.42-7.63 7.63-7.63"/><path fill="#003834" d="M244.93 325.87c21.114 0 38.23-17.116 38.23-38.23s-17.116-38.23-38.23-38.23-38.23 17.116-38.23 38.23 17.116 38.23 38.23 38.23"/><path fill="#fff" d="M291.72 287.64h-17.75s-.02 1.4-.07 2.09c-1.07 15.06-13.63 26.95-28.96 26.95s-27.99-11.98-28.97-27.13c-.04-.63-.06-1.91-.06-1.91h-17.75s0 1.26.04 1.89c.99 24.96 21.54 44.89 46.75 44.89s45.54-19.72 46.73-44.5c.04-.76.05-2.29.05-2.29z"/><path fill="#006d68" d="M198.15 287.64h17.75c0-16.04 13-29.04 29.04-29.04s29.04 13 29.04 29.04h17.75c0-25.84-20.95-46.78-46.78-46.78s-46.78 20.95-46.78 46.78z"/><path fill="#acca53" d="M244.93 309.65c12.156 0 22.01-9.854 22.01-22.01s-9.854-22.01-22.01-22.01-22.01 9.854-22.01 22.01 9.854 22.01 22.01 22.01"/><path fill="#fff" d="m247.18 287.64-2.25 22-2.24-22z"/><path fill="#3c3c3c" d="m242.69 287.64 2.24-22.01 2.25 22.01z"/><path fill="#aecc53" d="M164.21 368.38H72.85v2.06h91.36zm68.94 0h-47.14v2.06h47.14z"/><path fill="#aecc53" d="M102.79 340.09h-2.06v29.32h2.06z"/><path fill="#aecc53" d="M106.4 340.32c0-2.56-2.08-4.64-4.64-4.64s-4.64 2.08-4.64 4.64 2.08 4.64 4.64 4.64 4.64-2.08 4.64-4.64m-18.14-15.48H86.2v44.57h2.06z"/><path fill="#aecc53" d="M91.87 325.08c0-2.56-2.08-4.64-4.64-4.64s-4.64 2.08-4.64 4.64 2.08 4.64 4.64 4.64 4.64-2.08 4.64-4.64"/></svg>