<svg xmlns="http://www.w3.org/2000/svg" width="458" height="329" fill="none" viewBox="0 0 458 329"><path fill="#c3c3c3" d="M126.43 161.39H27.15V84l99.28-.22zm-98.06-1.22h96.84V85l-96.84.22z"/><path fill="#adcb53" d="M126.43 84.94H27.15v-12.6h99.28zM28.38 83.7h96.82V73.56H28.38z"/><path fill="#a8c653" d="m120.805 75.527-5.07 5.07 1.195 1.195 5.07-5.07z"/><path fill="#a8c653" d="m116.937 75.52-1.195 1.195 5.07 5.07 1.195-1.195zm-8.417.95v4.54h-5.1v-4.54zm.78-.78h-6.66v6.1h6.66z"/><path fill="#181818" d="M96.17 80.45h-6.66v1.34h6.66z"/><path fill="#c3c3c3" d="M67.58 112.47h-21v1.22h21zm-22.95 0h-8.64v1.22h8.64zm10.64 16.84H35.99v1.22h19.28z"/><path fill="#003834" d="M.61 135.2V60.26l96.83-.22v75.16z"/><path fill="#fff" d="M96.83 60.65v73.94H1.22V60.87zm1.23-1.23-98.05.22v76.17h98.05z"/><path fill="#a8c653" d="M98.05 49.62H0v11.37h98.05z"/><path fill="#003834" d="m93.046 52.193-5.07 5.07 1.195 1.195 5.07-5.07z"/><path fill="#003834" d="m89.164 52.19-1.195 1.195 5.07 5.07 1.195-1.195zm-8.404.95v4.54h-5.1v-4.54zm.78-.78h-6.66v6.1h6.66zm-13.13 4.75h-6.66v1.34h6.66z"/><path fill="#adcb53" d="M89.83 70.36H8.23v1.83h81.6zm0 8.43H8.23v1.83h81.6z"/><path fill="#fff" d="M89.83 87.51H42.77v1.22h47.06zm-50.01 0h-21v1.22h21zm-22.95 0H8.23v1.22h8.64zm72.96 8.41H8.23v1.22h81.6z"/><path fill="#adcb53" d="M89.83 104.04H29.79v1.83h60.04z"/><path fill="#fff" d="M27.51 104.34H8.23v1.22h19.28zm62.32 8.41H46.91v1.22h42.92z"/><path fill="#adcb53" d="M42.77 112.44H8.23v1.83h34.54zm47.06 8.42H25.51v1.83h64.32z"/><path fill="#fff" d="M21.52 121.17H8.23v1.22h13.29z"/><path fill="#adcb53" d="M92.91 30.01c-4.86 0-8.84-3.94-8.88-8.81-.04-4.79 8.08-12.54 8.43-12.87.2-.19.5-.19.7 0 .35.32 8.58 7.91 8.64 12.71v.01c.04 4.9-3.91 8.92-8.81 8.96zm-.09-20.6c-1.56 1.54-7.79 7.95-7.76 11.77.04 4.31 3.55 7.79 7.85 7.79h.07c2.1-.02 4.06-.85 5.53-2.35a7.74 7.74 0 0 0 2.25-5.55c-.02-3.83-6.37-10.14-7.95-11.65z"/><path fill="#adcb53" d="M93.01 37.54c-.28 0-.51-.23-.52-.51l-.12-18.08c0-.28.23-.52.51-.52.32.02.52.23.52.51l.12 18.08c0 .28-.23.52-.51.52m-23.5-7.53c-4.86 0-8.84-3.94-8.88-8.81-.04-4.79 8.08-12.54 8.43-12.87.2-.19.5-.19.7 0 .35.32 8.58 7.91 8.64 12.71v.01c.04 4.9-3.91 8.92-8.81 8.96zm-.09-20.6c-1.56 1.54-7.79 7.95-7.76 11.77.04 4.31 3.55 7.79 7.85 7.79h.07c4.33-.04 7.82-3.58 7.79-7.9-.02-3.83-6.37-10.14-7.95-11.65z"/><path fill="#adcb53" d="M69.61 37.54c-.28 0-.51-.23-.52-.51l-.12-18.08c0-.28.23-.52.51-.52.32.02.52.23.52.51l.12 18.08c0 .28-.23.52-.51.52"/><path fill="#013834" d="M304.57 262.69c-1.18-14.29-2.85-28.56-2.84-42.92 0-11.93.32-26.3 12.45-31.31 13.9-5.74 30.06 2.72 32.23 5.01 9.92 10.41 13.92 24.45 17.03 38.06 2.34 10.26 3.68 20.69 4.6 31.16z"/><path fill="#fff" d="M368.04 263.51h-63.47c-.42 0-.78-.33-.81-.75-.27-3.22-.56-6.45-.85-9.67-.98-10.9-2-22.16-2-33.32 0-11.27 0-26.71 12.95-32.06 13.98-5.78 30.49 2.42 33.13 5.2 10.25 10.76 14.27 25.48 17.23 38.44 2.07 9.1 3.54 19.03 4.62 31.27.02.23-.06.45-.21.62s-.37.26-.6.26zm-62.72-1.64h61.83c-1.06-11.75-2.5-21.36-4.5-30.16-2.91-12.74-6.85-27.22-16.83-37.68-1.73-1.82-17.64-10.47-31.33-4.82-11.95 4.93-11.95 19.74-11.95 30.56 0 11.08 1.01 22.31 1.99 33.17.27 2.98.54 5.96.79 8.93"/><path fill="#000" d="M157.91 57.27v75.49h154.48V57.27c0-2.88-2.33-5.21-5.21-5.21H163.12c-2.88 0-5.21 2.33-5.21 5.21"/><path fill="#fff" d="M312.9 132.76h-1.03V57.27c0-2.59-2.11-4.69-4.7-4.69H163.11c-2.59 0-4.69 2.11-4.69 4.69v75.49h-1.03V57.27c0-3.16 2.57-5.73 5.73-5.73h144.06c3.16 0 5.72 2.57 5.72 5.73z"/><path fill="#013834" d="M106.89 265.96c14-58.17 66.62-101.73 128.92-101.73 62.31 0 114.93 43.56 128.92 101.73z"/><path fill="#fff" d="M364.73 266.78H106.89c-.25 0-.49-.12-.64-.31a.82.82 0 0 1-.15-.69c6.88-28.6 23.44-54.57 46.63-73.12 23.55-18.85 53.06-29.23 83.08-29.23s59.54 10.38 83.09 29.23c23.19 18.56 39.75 44.53 46.62 73.12.06.24 0 .5-.15.7a.81.81 0 0 1-.64.31zm-256.8-1.64h255.76c-6.94-27.85-23.18-53.11-45.81-71.23-23.26-18.62-52.41-28.87-82.07-28.87s-58.8 10.25-82.06 28.87c-22.63 18.11-38.88 43.38-45.82 71.23"/><path fill="#013834" d="M94.56 265.96c.92-10.47 2.26-20.9 4.6-31.16 3.1-13.61 7.1-27.64 17.03-38.06 7.38-7.75 22.98-10.8 32.23-5.01 11.13 6.96 12.45 19.38 12.45 31.31 0 14.36-1.66 28.63-2.84 42.92z"/><path fill="#fff" d="M158.03 266.78H94.56c-.23 0-.45-.1-.6-.26a.83.83 0 0 1-.21-.62c1.08-12.24 2.54-22.17 4.62-31.27 2.95-12.94 6.95-27.65 17.23-38.44 7.96-8.36 24.12-10.85 33.25-5.14 11.28 7.05 12.83 19.55 12.83 32 0 11.18-1.02 22.47-2 33.39-.29 3.2-.58 6.4-.84 9.6-.03.42-.39.75-.81.75zm-62.58-1.64h61.83c.25-2.95.51-5.91.78-8.86.98-10.88 2-22.14 2-33.24 0-20.28-5.8-26.7-12.07-30.62-8.56-5.36-23.72-2.98-31.21 4.88-10 10.49-13.93 24.95-16.83 37.68-2.01 8.8-3.44 18.41-4.5 30.16"/><path fill="#aecc53" d="M439.56 267.04H19.58a.98.98 0 0 1-.98-.97c0-.53.44-.97.98-.97h419.98c.54 0 .97.44.97.97s-.44.97-.97.97"/><path fill="#cccbcb" d="M235.81 187.5c-13.78 0-24.97-11.19-24.97-24.97v-16.05c0-9.01 7.32-16.33 16.33-16.33h17.29c9.01 0 16.33 7.32 16.33 16.33v16.05c0 13.78-11.19 24.97-24.97 24.97z"/><path fill="#adcb53" d="M235.81 188.13c-17.2 0-31.2-11.48-31.2-25.6a4.02 4.02 0 0 1 8.04 0c0 9.52 10.61 17.57 23.17 17.57s23.17-8.04 23.17-17.57c0-2.22 1.8-4.02 4.01-4.02s4.01 1.8 4.01 4.02c0 14.11-13.99 25.6-31.19 25.6z"/><path fill="#fff" d="M235.82 155.43c41.609 0 75.34-33.731 75.34-75.34S277.429 4.75 235.82 4.75s-75.34 33.73-75.34 75.34c0 41.609 33.731 75.34 75.34 75.34"/><path fill="#fff" d="M172.608 104.141c7.612-5.019 8.349-17.33 1.645-27.496-6.703-10.167-18.309-14.34-25.921-9.32s-8.349 17.33-1.645 27.496c6.703 10.167 18.309 14.34 25.921 9.32m152.33-9.344c6.704-10.167 5.967-22.478-1.645-27.497-7.613-5.02-19.218-.847-25.922 9.32-6.703 10.167-5.967 22.477 1.645 27.497 7.613 5.019 19.218.846 25.922-9.32"/><path fill="#adcb53" d="M155.14 111.7a7.09 7.09 0 0 0 7.09-7.09 7.09 7.09 0 0 0-7.09-7.09 7.09 7.09 0 0 0-7.09 7.09 7.09 7.09 0 0 0 7.09 7.09m161.35 0a7.09 7.09 0 0 0 7.09-7.09 7.09 7.09 0 0 0-7.09-7.09 7.09 7.09 0 0 0-7.09 7.09 7.09 7.09 0 0 0 7.09 7.09"/><path fill="#9d9d9c" d="M235.82 127.91c-6.2 0-12.01-2.48-15.16-6.48a1.17 1.17 0 0 1 .2-1.66 1.17 1.17 0 0 1 1.66.2c2.72 3.44 7.81 5.58 13.3 5.58s10.59-2.14 13.3-5.58c.41-.51 1.15-.6 1.66-.2s.6 1.15.2 1.66c-3.15 4-8.96 6.48-15.16 6.48M161.43 93.7c-.14 0-.29-.03-.43-.08-2.63-1.04-4.82-3.23-5.86-5.86-.85-2.14-.72-4.19.36-5.64.72-.97 2-1.53 3.27-1.48-.48-1.69-1.29-3.37-2.31-4.78-1.43-1.96-3.79-3.04-5.75-2.63-.64.13-1.27-.28-1.4-.92s.28-1.27.92-1.4c2.88-.6 6.15.82 8.15 3.55 1.76 2.41 2.93 5.41 3.2 8.23.06.57-.3 1.09-.85 1.25s-1.13-.09-1.39-.6c-.13-.26-.45-.32-.63-.34-.5-.04-1.04.18-1.3.52-.57.76-.59 2.02-.06 3.35.8 2.04 2.49 3.73 4.52 4.52.61.24.91.93.67 1.54-.18.47-.63.75-1.1.75zm148.77 0c-.47 0-.92-.29-1.1-.75-.24-.61.06-1.3.67-1.54 2.03-.8 3.72-2.49 4.52-4.52.53-1.34.51-2.6-.06-3.36-.26-.34-.8-.56-1.3-.52-.18.02-.5.08-.63.34-.26.51-.84.76-1.39.6s-.9-.69-.85-1.25c.28-2.83 1.44-5.83 3.2-8.23 1.99-2.73 5.27-4.15 8.15-3.55.64.13 1.05.76.92 1.4s-.76 1.05-1.4.92c-1.95-.41-4.32.67-5.75 2.63-1.03 1.4-1.83 3.09-2.31 4.78 1.27-.05 2.54.51 3.27 1.47 1.06 1.43 1.2 3.54.36 5.65-1.03 2.63-3.22 4.82-5.86 5.86-.14.06-.29.08-.43.08z"/><path fill="#000" d="M206.42 73.32s-.04.74-.11 1.1a5.505 5.505 0 0 1-5.4 4.41c-2.67 0-5.02-2.01-5.44-4.63-.05-.29-.07-.88-.07-.88zm-24.89-1.23c-.65 0-1.31-.21-1.87-.63a3.087 3.087 0 0 1-.58-4.32c4.47-5.86 12.59-9.88 20.67-10.24 5.96-.27 14.76 1.25 22.8 10.03a3.07 3.07 0 0 1-.19 4.35 3.08 3.08 0 0 1-4.35-.19c-6.44-7.02-13.34-8.25-17.99-8.04-7.21.32-13.26 4.16-16.06 7.83-.61.79-1.52 1.21-2.45 1.21z"/><path fill="#adcb53" d="m206.42 74.35-17.09-1.03 17.09-1.03c1.43-.05 1.43 2.1 0 2.05z"/><path fill="#000" d="M265.21 73.32s.04.74.11 1.1a5.505 5.505 0 0 0 5.4 4.41c2.67 0 5.02-2.01 5.44-4.63.05-.29.07-.88.07-.88zm24.89-1.23c-.93 0-1.84-.42-2.45-1.21-2.8-3.66-8.85-7.5-16.06-7.83-4.64-.21-11.54 1.02-17.99 8.04a3.08 3.08 0 0 1-4.35.19 3.08 3.08 0 0 1-.19-4.35c8.05-8.77 16.84-10.29 22.8-10.03 8.08.36 16.2 4.38 20.67 10.24 1.03 1.35.77 3.28-.58 4.32-.56.43-1.22.63-1.87.63z"/><path fill="#adcb53" d="m265.21 72.3 17.09 1.03-17.09 1.03c-1.43.05-1.43-2.1 0-2.05z"/><path fill="#006e69" d="m374.61 320.82-57.03-46.25a11.5 11.5 0 0 0-7.22-2.56H138.83c-6.13 0-8.76 7.78-3.9 11.5l56.34 43.25c2.05 2.05 5.65 2.05 7.7 2.05l172.76.17a4.59 4.59 0 0 0 3.59-1.71c1.59-1.93 1.23-4.87-.72-6.44z"/><path fill="#000" d="m378.08 316.92-61.23-49.66a6.84 6.84 0 0 0-4.31-1.53H140.63c-6.54 0-9.35 8.29-4.16 12.27l57.92 44.33c.34.24.75.37 1.16.37h178.67c1.77-1.61 3.21-3.53 3.85-5.79z"/><path fill="#fff" d="M210.2 244.55c1.54-5.37 5.62-15.3-1.51-18.46-3.2-1.42-7.28-1.1-10.34.52-3.6 1.91-5.44 4.44-7.11 7.92-1.43 2.99-3.61 7.22-6.97 8.31-2.42.78-5.07-.44-7.28-1.69-.05 4.02.03 8.03.23 12.04.11 2.22.19 9.92 1.02 11.98 0 0 21.41 1.03 22.49.95 0 0 1.77-2.59 4.2-6.7 2.71-4.6 3.82-9.75 5.27-14.87"/><path fill="#bcbcbc" d="M200.66 267.67a.84.84 0 0 1-.74-1.24c5.68-10.44 14.59-29.16 10.56-37.16-.94-1.87-2.56-2.97-4.81-3.29-4.19-.59-8.46.96-11.14 4.03a28.7 28.7 0 0 0-4.2 6.33c-.18.37-.35.75-.53 1.12-.96 2.08-1.96 4.23-3.93 5.57-2.07 1.42-4.34 2.55-7.26-.46a.84.84 0 0 1 .02-1.19.84.84 0 0 1 1.19.02c1.88 1.93 3.04 1.65 5.1.24 1.59-1.09 2.45-2.93 3.36-4.89.18-.39.36-.77.54-1.15 1.17-2.41 2.66-4.67 4.44-6.71 3.05-3.5 7.9-5.25 12.64-4.59 2.79.39 4.89 1.84 6.07 4.19 3.29 6.53-.37 19.92-10.58 38.72-.15.28-.44.44-.74.44z"/><path fill="#fff" d="M154.15 273.84c-3.78-8.44-8.61-16.98-11.51-25.76-2.33-7.06-8.9-20.08-18.47-16.48-4.98 1.88-7.77 8.38-7.26 13.4 1.13 11.09 5.41 21.52 10.39 31.4 1.74 3.45 4.04 10.72 7.68 11.65 4.55 1.17 9.2-3.08 12.94-4.99s8.59-3.96 6.23-9.23z"/><path fill="#fff" d="M176.07 268.51c-3.78-8.44-8.61-16.98-11.51-25.76-2.33-7.06-8.9-20.08-18.47-16.48-4.75 1.79-5.25 8.92-10.41 8.96 2.79 5.33 4.05 11.46 5.79 17.18 1.96 6.46 4.72 12.65 7.75 18.67 1.74 3.45 4.04 10.72 7.68 11.65 4.55 1.17 9.2-3.08 12.94-4.99 3.87-1.97 8.59-3.96 6.23-9.23"/><path fill="#fff" d="M200.01 266.21c-3.78-8.44-8.61-16.98-11.51-25.76-2.33-7.06-8.9-20.08-18.47-16.48-4.98 1.88-7.77 8.38-7.26 13.4 1.13 11.09 5.41 21.52 10.39 31.4 1.74 3.45 4.04 10.72 7.68 11.65 4.55 1.17 9.2-3.08 12.94-4.99 3.87-1.97 8.59-3.96 6.23-9.23z"/><path fill="#bcbcbc" d="M131.87 286.39c-.31 0-.6-.17-.75-.46-2.32-4.63-2.92-8.86-1.73-12.25.99-2.83 3.19-5.05 6.53-6.59 4.2-1.93 11.84-2.91 14.47 2.7a.84.84 0 1 1-1.52.72c-2.12-4.51-8.64-3.55-12.25-1.88-2.91 1.35-4.81 3.24-5.65 5.62-1.3 3.72.18 8 1.65 10.94.21.42.04.92-.38 1.13-.12.06-.25.09-.38.09zm20.44-8.69c-.33 0-.64-.19-.77-.51-1.14-2.67-.83-5.98.85-9.07 1.92-3.54 5.31-6.2 8.64-6.78 3.47-.61 9.13 1.11 11.51 4.29.28.37.2.9-.17 1.18s-.9.2-1.18-.17c-1.96-2.63-7-4.14-9.87-3.64-2.84.49-5.76 2.82-7.45 5.92-1.43 2.64-1.72 5.41-.78 7.61a.842.842 0 0 1-.77 1.17zm22.94-4.18c-.42 0-.78-.31-.83-.74-.75-5.94 1.83-11.55 6.56-14.3 4.59-2.66 13.18-4.04 17.01 1.46.27.38.17.9-.21 1.17s-.9.17-1.17-.21c-3.23-4.63-10.74-3.31-14.79-.96-4.15 2.41-6.4 7.37-5.74 12.64.06.46-.27.88-.73.94h-.11z"/><path fill="#bcbcbc" d="M136.59 289.09c-.61 0-1.22-.07-1.83-.23-3.26-.83-5.36-5.64-7.05-9.51-.42-.96-.81-1.86-1.17-2.57-4.23-8.39-9.24-19.58-10.48-31.69-.53-5.25 2.3-12.19 7.8-14.27 3.28-1.23 6.44-.81 9.16 1.21 3.03 2.26 4.78 2.41 6.25.54.58-.74 1.04-1.52 1.48-2.27 1.09-1.84 2.22-3.75 5.04-4.81 3.62-1.37 7.48-.51 10.86 2.41 1.07.92 3.51 3.3 5.28 5.77.61-4.4 3.76-8.97 7.8-10.48 2.64-.99 5.25-.88 7.76.32 5.51 2.64 9.71 10.35 11.8 16.69 1.93 5.84 4.76 11.67 7.51 17.3 1.34 2.75 2.72 5.6 3.97 8.38 2.56 5.71-2.36 8.18-5.96 9.99l-.66.33c-.89.46-1.86 1.06-2.87 1.7-3.23 2.03-6.89 4.33-10.66 3.36-2.19-.56-3.86-2.92-5.23-5.57-1.24.64-2.38 1.44-3.58 2.28-1.1.77-2.23 1.56-3.45 2.22-2.11 1.14-4.54 2.16-7.44 3.13-1.05.35-2.28.7-3.52.42-1.53-.35-2.98-1.42-4-2.92-1.75 1.22-3.34 2.09-5.12 3-.89.46-1.85 1.06-2.87 1.7-2.7 1.7-5.71 3.58-8.83 3.59zm-9.13-57.28c-.98 0-1.99.19-3.01.58-4.6 1.74-7.19 7.88-6.72 12.53 1.21 11.84 6.14 22.85 10.3 31.11.38.75.78 1.68 1.21 2.66 1.46 3.34 3.46 7.92 5.93 8.56 3.07.79 6.41-1.3 9.35-3.15 1.05-.66 2.04-1.28 3-1.77 1.96-1 3.67-1.95 5.64-3.39.2-.14.45-.2.68-.14a.8.8 0 0 1 .55.43c.78 1.48 2.08 2.58 3.39 2.88.82.18 1.74-.09 2.62-.38 2.81-.94 5.15-1.92 7.17-3.01 1.13-.62 2.23-1.38 3.28-2.13 1.21-.84 2.45-1.71 3.81-2.42-.38-.82-.74-1.64-1.08-2.43-.42-.96-.81-1.86-1.17-2.57-2.48-4.93-4.53-10.31-6.51-15.5-1.17-3.09-2.39-6.28-3.68-9.34-.18-.43.02-.92.45-1.1s.92.02 1.1.45c1.3 3.08 2.52 6.29 3.7 9.39 1.96 5.16 3.99 10.49 6.44 15.35.38.75.78 1.68 1.21 2.66 1.46 3.34 3.46 7.93 5.93 8.56 3.07.79 6.41-1.3 9.35-3.15 1.05-.66 2.04-1.28 3-1.77l.67-.34c4.4-2.22 6.95-3.85 5.18-7.8-1.24-2.76-2.62-5.59-3.95-8.33-2.77-5.68-5.63-11.56-7.59-17.51-1.98-6.01-5.9-13.29-10.93-15.7-2.08-1-4.25-1.09-6.44-.26-4.41 1.66-7.7 7.81-6.61 12.18.04.14.08.28.11.41.1.44-.16.88-.6 1a.833.833 0 0 1-1.02-.56c-.04-.13-.08-.26-.11-.39-.81-2.45-4.3-6.3-6.54-8.23-2.89-2.5-6.15-3.25-9.17-2.11-2.27.85-3.12 2.28-4.19 4.09-.47.8-.96 1.62-1.6 2.45-3.05 3.89-7.06.9-8.57-.22-1.39-1.04-2.93-1.56-4.55-1.56z"/><path fill="#bcbcbc" d="M153.85 281.22c-.32 0-.62-.18-.76-.49-2.88-6.23-5.14-12.88-7.32-19.31-1.81-5.33-3.69-10.85-5.9-16.07-.18-.43.02-.92.45-1.1s.92.02 1.1.45c2.23 5.28 4.12 10.83 5.94 16.19 2.17 6.39 4.42 13 7.26 19.15.19.42.01.92-.41 1.12-.11.05-.23.08-.35.08z"/><path fill="#003834" d="M370.07 193.49H198.39c-5.683 0-10.29 4.607-10.29 10.29v110.54c0 5.683 4.607 10.29 10.29 10.29h171.68c5.683 0 10.29-4.607 10.29-10.29V203.78c0-5.683-4.607-10.29-10.29-10.29"/><path fill="#adcb53" d="M370.07 325.11H198.39c-5.95 0-10.79-4.84-10.79-10.79V203.78c0-5.95 4.84-10.79 10.79-10.79h171.68c5.95 0 10.79 4.84 10.79 10.79v110.54c0 5.95-4.84 10.79-10.79 10.79M198.39 193.99c-5.4 0-9.79 4.39-9.79 9.79v110.54c0 5.4 4.39 9.79 9.79 9.79h171.68c5.4 0 9.79-4.39 9.79-9.79V203.78c0-5.4-4.39-9.79-9.79-9.79z"/><path fill="#003834" d="M284.24 285.82c14.785 0 26.77-11.985 26.77-26.77s-11.985-26.77-26.77-26.77-26.77 11.985-26.77 26.77 11.985 26.77 26.77 26.77"/><path fill="#fff" d="M316.99 259.05h-12.42s-.02.98-.05 1.46c-.75 10.54-9.54 18.87-20.28 18.87s-19.6-8.39-20.28-18.99c-.03-.44-.04-1.33-.04-1.33H251.5s0 .89.03 1.32c.7 17.47 15.08 31.43 32.73 31.43s31.88-13.81 32.71-31.15c.03-.53.04-1.6.04-1.6h-.02z"/><path fill="#006d68" d="M251.48 259.05h12.42c0-11.23 9.1-20.33 20.33-20.33s20.33 9.1 20.33 20.33h12.42c0-18.09-14.66-32.75-32.75-32.75s-32.75 14.66-32.75 32.75"/><path fill="#acca53" d="M284.24 274.46c8.511 0 15.41-6.899 15.41-15.41s-6.899-15.41-15.41-15.41-15.41 6.899-15.41 15.41 6.899 15.41 15.41 15.41"/><path fill="#fff" d="m285.81 259.05-1.57 15.41-1.58-15.41z"/><path fill="#3c3c3c" d="m282.66 259.05 1.58-15.4 1.57 15.4z"/><path fill="#000" d="M158.16 55.43C169.22 23.47 199.58.52 235.31.52s66.08 22.95 77.15 54.91z"/><path fill="#fff" d="M311.97 55.6c-11.3-32.64-42.11-54.56-76.66-54.56s-65.37 21.93-76.66 54.56l-.97-.34C169.12 22.21 200.32 0 235.32 0s66.19 22.21 77.64 55.26l-.97.34z"/><path fill="#fff" d="M231.59.6c22.1 9.47 41.11 29.93 42.47 54.83h-5.13c.09-2.75-.18-5.58-.61-8.39-3.51-20.45-18.68-37.03-36.73-46.44"/><path fill="#adcb53" d="M231.59.6c19.18 11.42 33.5 32.2 34.64 54.83a1.03 1.03 0 1 1-2.06 0c-.47-22.2-14.09-43.04-32.59-54.82h.01zm194.12 211.19c-5.22 0-13.2-4.53-19.85-11.28-6.89-6.98-10.78-14.81-10.69-21.48.06-4.53 1.32-9.01 3.64-12.97.03-.07.06-.14.1-.21a27 27 0 0 1 2.66-3.72c1.54-1.82 1.89-4.16.93-6.25a21.45 21.45 0 0 1-1.97-9.01c0-5.21 1.93-10.32 5.42-14.4 1.71-1.99 1.99-4.61.75-6.83-1.55-2.78-2.38-5.91-2.38-9.06 0-6.02 4.04-14.29 7.82-20.02 1.88-2.85 8.45-12.15 13.97-12.15 8.77 0 21.79 21.1 21.79 32.18 0 3.19-.8 6.24-2.38 9.06-1.24 2.23-.95 4.85.75 6.84 3.55 4.15 5.42 9.12 5.42 14.4 0 3.12-.66 6.15-1.97 9.01-.95 2.1-.6 4.44.94 6.27 4.2 4.97 6.42 10.93 6.42 17.24 0 16.08-18.27 32.41-31.4 32.41zm-24.58-44.88c-.03.07-.06.14-.1.21a23.97 23.97 0 0 0-3.42 11.96c-.08 6.02 3.56 13.21 9.99 19.72 6.13 6.21 13.57 10.55 18.11 10.55 11.96 0 28.95-15.49 28.95-29.96 0-5.72-2.02-11.13-5.84-15.66-2.14-2.53-2.63-5.93-1.3-8.87 1.16-2.54 1.75-5.23 1.75-7.99 0-4.68-1.67-9.11-4.84-12.8-2.35-2.75-2.75-6.52-1.03-9.62 1.37-2.45 2.07-5.1 2.07-7.86 0-10.56-12.48-29.73-19.35-29.73-5.78 0-19.34 19.2-19.34 29.73 0 2.73.71 5.45 2.06 7.86 1.73 3.1 1.33 6.88-1.03 9.62-3.16 3.68-4.84 8.11-4.84 12.8 0 2.77.59 5.46 1.75 7.99 1.34 2.94.85 6.33-1.29 8.85-.88 1.04-1.65 2.12-2.3 3.19z"/><path fill="#adcb53" d="M426.13 248.09c-.68 0-1.22-.55-1.22-1.22V115c0-.68.55-1.23 1.22-1.23s1.22.55 1.22 1.23v131.87c0 .68-.55 1.22-1.22 1.22"/><path fill="#003834" d="M426.13 290.78c-8.22 0-14.91-6.69-14.91-14.91v-31.25h29.82v31.25c0 8.22-6.69 14.91-14.91 14.91"/><path fill="#fff" d="M440.43 245.23v30.64c0 7.89-6.42 14.3-14.3 14.3s-14.3-6.42-14.3-14.3v-30.64zm1.23-1.22h-31.05v31.87c0 8.57 6.95 15.52 15.52 15.52s15.52-6.95 15.52-15.52v-31.87z"/></svg>