<svg xmlns="http://www.w3.org/2000/svg" width="420" height="420" fill="none" viewBox="0 0 420 420"><path fill="#ebf2d4" d="M276.76 18.17C258.97 11.5 240.4 5.91 221.4 6c-25.6.11-49.94 10.45-73.24 21.08-42.88 19.57-76.7 50.24-111.85 81.4C7.86 133.69 3.19 185.98 4.04 221.5c.1 4.29.21 8.59.41 12.9.6 13.25 2.02 26.45 6.66 38.8 7.44 19.8 24.71 36.51 37.75 52.81 14.12 17.64 27.95 32.36 46.95 44.95 21.52 14.26 52.28 38.75 78.82 40.99 33.41 2.83 58.99 4.19 91.1-5.82 34.2-10.66 71.68-26.22 96.3-53.49 12.9-14.3 21.33-34.7 30.94-51.33 18.74-32.43 26.51-67.41 21.69-104.69-5.05-39.02-20.38-68.93-36.55-103.81-20.77-44.79-57.26-58.1-101.34-74.63h-.01z"/><path fill="#a6c453" d="M293.88 237.82c-2.96 0-6.09-.21-9.48-.61-17.94-2.16-34.99-9.75-48.01-21.37a86.76 86.76 0 0 1-28.42-54.67c-1.22-10.46-.56-20.91 1.97-31.07 1.71-6.88 5.3-12.85 8.78-18.62l.41-.68c1.26-2.09 2.32-4.24 3.35-6.32 1.87-3.77 3.79-7.67 6.89-11.15.02-.03.05-.06.08-.1 13.64-15.27 30.53-24.4 50.2-27.13 17.78-2.47 37.25.58 56.33 8.8 5.69 2.46 11.08 6.92 16.07 11.38 11.03 9.84 19.4 22.38 24.21 36.27 1.93 5.59 3.83 12.32 3.17 19.84-.34 3.91.08 7.36.53 11.01.24 1.95.49 3.96.63 6.12.33 5.35-1.63 11.62-3.21 16.66l-.26.83c-3.65 11.66-9.91 22.68-18.11 31.87-6.83 7.65-15.33 14.22-25.29 19.53-4.73 2.52-10.06 3.68-15.22 4.81-2.97.64-6.03 1.31-8.86 2.23-4.94 1.59-10.01 2.37-15.75 2.37zm-62.59-143.1s-.05.07-.08.1c-2.92 3.26-4.71 6.88-6.61 10.71-1.05 2.12-2.13 4.31-3.44 6.49l-.41.69c-3.54 5.88-6.89 11.44-8.51 17.97a84.4 84.4 0 0 0-1.91 30.23 84.44 84.44 0 0 0 27.64 53.19c12.66 11.3 29.25 18.68 46.72 20.79 9.61 1.16 17.08.64 24.23-1.66 2.94-.95 6.07-1.63 9.09-2.29 5-1.09 10.17-2.21 14.61-4.58 9.71-5.17 17.99-11.57 24.63-19.01 7.98-8.94 14.07-19.66 17.62-31.01l.26-.83c1.52-4.85 3.42-10.89 3.11-15.8-.14-2.09-.38-4.07-.61-5.98-.46-3.78-.9-7.35-.54-11.5.61-7.06-1.1-13.24-3.05-18.86-4.67-13.51-12.82-25.71-23.55-35.29-4.84-4.33-10.05-8.66-15.43-10.98-18.68-8.06-37.72-11.04-55.07-8.63-19.07 2.65-35.45 11.49-48.69 26.28z"/><path fill="#a6c453" d="M351.08 213.88c-3.86 0-8.01-1.42-10.71-3.05-1.85-1.12-3.7-2.25-5.27-3.79-3.52-3.45-5.26-8.9-4.53-14.22 1.28-9.32 9.36-15.67 16.48-21.27 1.04-.82 2.05-1.61 3.01-2.4 16.09-13.13 24.56-30.8 23.23-48.47-.05-.65.44-1.22 1.09-1.27.66-.04 1.22.44 1.27 1.09 1.39 18.45-7.39 36.85-24.09 50.47-.97.79-2 1.6-3.05 2.42-6.77 5.33-14.45 11.36-15.6 19.73-.63 4.59.84 9.28 3.85 12.22 1.37 1.35 3.03 2.36 4.79 3.42 3.16 1.91 8.26 3.36 11.98 2.48.64-.15 1.27.24 1.42.88.15.63-.24 1.27-.88 1.42-.95.22-1.96.33-2.99.33z"/><path fill="#a6c453" d="M331.08 228.94c-.08 0-.16 0-.25-.03-9.5-2.03-17.75-8.14-22.07-16.33-3.78-7.18-3.31-17.2 1.26-26.83 4.91-10.34 12.96-17.9 20.74-25.22 3.17-2.98 6.45-6.06 9.5-9.31 7.81-8.33 12.7-17.39 15.83-29.38 1.96-7.5 4.29-18.44 1.89-26.75a1.18 1.18 0 0 1 2.27-.65c2.56 8.87.16 20.23-1.87 28.01-3.24 12.39-8.29 21.76-16.39 30.4-3.1 3.3-6.4 6.41-9.6 9.41-7.97 7.49-15.5 14.57-20.23 24.51-4.25 8.95-4.74 18.19-1.3 24.71 3.94 7.47 11.78 13.27 20.47 15.12.64.14 1.04.76.91 1.4-.12.55-.61.93-1.15.93zm-97.66-62.06c-4.58 0-9.17-1.39-12.89-4.08-12.15-8.78-12.2-23.56-10.1-34.41.12-.64.74-1.06 1.38-.93.64.12 1.06.74.93 1.38-1.97 10.18-1.98 24 9.16 32.05 5.4 3.9 12.87 4.75 19.01 2.14 2.64-1.12 5.09-2.85 7.25-4.38 1.79-1.26 3.52-2.72 5.36-4.27 3.91-3.3 7.96-6.71 12.72-8.15 4.84-1.46 10.28-2.13 15.55-2.77 7.85-.96 15.96-1.95 22.04-5.59 8.97-5.38 20.5-14.84 24.53-29.33 3.01-10.82.83-21.1-6.14-28.94-8.13-9.15-21.73-13.78-34.63-11.79-.63.1-1.25-.34-1.35-.99-.1-.64.34-1.25.99-1.35 13.67-2.11 28.1 2.81 36.76 12.55 7.52 8.46 9.88 19.52 6.65 31.14-4.24 15.24-16.25 25.12-25.59 30.73-6.5 3.9-14.87 4.92-22.97 5.91-5.17.63-10.51 1.28-15.15 2.69-4.29 1.29-8.15 4.55-11.88 7.69-1.79 1.51-3.65 3.08-5.52 4.39-2.25 1.59-4.81 3.4-7.69 4.62-2.66 1.13-5.54 1.68-8.43 1.68z"/><path fill="#a6c453" d="M249.73 144.51c-.28 0-.56-.01-.85-.04-2.59-.28-4.93-1.8-7.15-4.67-3.89-5.04-5.3-12.26-3.77-19.32 1.25-5.8 4.38-11.63 9.28-17.34 12.89-15.03 33.03-22.38 50.11-18.26 3.73.89 6.61 2.18 8.8 3.96 4.82 3.92 7.02 11.12 5.48 17.94 0 .02 0 .05-.01.07-3.61 15.71-20.45 24.08-35.55 25.4-6.57.58-9.91 1.96-14.88 6.15-3.96 3.34-7.58 6.12-11.45 6.12zm37.85-58.41c-13.87 0-28.49 6.84-38.55 18.57-4.64 5.41-7.59 10.89-8.76 16.3-1.38 6.39-.14 12.89 3.33 17.38 1.8 2.33 3.61 3.56 5.53 3.77 3.27.34 6.7-2.3 10.53-5.53 5.35-4.51 9.13-6.07 16.2-6.69 14.22-1.24 30.07-9 33.44-23.52 0-.02 0-.05.01-.07 1.37-5.98-.5-12.26-4.65-15.64-1.91-1.55-4.48-2.69-7.86-3.5-2.99-.72-6.09-1.07-9.22-1.07"/><path fill="#a6c453" d="M262.57 121.7c-2.47 0-4.63-.48-6.04-1.74-1.91-1.7-2.23-4.42-.97-8.1 1.22-3.52 4.77-5.43 7.34-6.56a49.9 49.9 0 0 1 17.1-4.14c4.26-.26 7.18.74 8.68 2.98 1.5 2.25 1.22 5.56-.69 8.06-1.58 2.05-3.87 3.34-6.13 4.42-.03.02-.06.03-.09.05-.14.07-11.28 5.02-19.21 5.02zm18.74-18.22c-.37 0-.75.01-1.16.04-5.65.34-11.13 1.67-16.3 3.94-2.16.95-5.14 2.52-6.06 5.17-.92 2.69-.82 4.57.3 5.57 3.68 3.27 17.53-1.22 22.56-3.6.03-.02.06-.03.09-.05 1.89-.9 4.02-2.01 5.37-3.77 1.1-1.44 1.66-3.73.6-5.32-.88-1.31-2.7-1.97-5.42-1.97zm-49.25 87.63c-.55 0-1.11-.02-1.66-.05-6.9-.38-12.75-3.22-16.93-8.2-.42-.5-.35-1.24.15-1.66s1.24-.35 1.66.15c3.8 4.54 8.93 7.01 15.25 7.36 10.72.59 21.72-5.1 27.89-11 1.84-1.76 3.47-3.7 5.05-5.58 3.41-4.06 6.94-8.26 12.64-10.63 4.37-1.81 9.09-2.24 13.65-2.66 2.35-.22 4.78-.44 7.1-.85 14.17-2.49 28.22-13.39 37.58-29.13 9.46-15.92 12.31-33.72 7.64-47.64-.21-.62.12-1.29.74-1.49.62-.21 1.29.12 1.49.74 4.89 14.56 1.96 33.1-7.85 49.6-9.71 16.33-24.36 27.64-39.2 30.25-2.42.43-4.9.66-7.3.88-4.59.42-8.93.82-12.97 2.49-5.17 2.15-8.36 5.94-11.74 9.96-1.62 1.93-3.29 3.92-5.23 5.77-6.22 5.95-17.12 11.69-27.99 11.69zm76.21 44.91h-.15c-6.57-.84-12.26-5.27-15.21-11.86-2.32-5.19-3.56-11.1-3.58-17.09-.02-4.73-.27-9.72-3.14-14.22-1.24-1.95-3.09-3.06-5.5-3.28-4.77-.44-10.77 2.67-13.83 5.94l-.4.43c-2.95 3.15-6 6.41-9.41 9.24-8.24 6.84-17.18 8.88-25.85 5.91-.62-.21-.95-.88-.73-1.5s.88-.94 1.5-.73c7.96 2.73 15.89.88 23.57-5.49 3.29-2.74 6.29-5.94 9.19-9.04l.4-.43c3.41-3.63 10.09-7.21 15.78-6.67 3.12.29 5.64 1.8 7.27 4.37 3.2 5.03 3.48 10.41 3.5 15.48.02 5.66 1.19 11.24 3.38 16.13 2.61 5.83 7.6 9.75 13.35 10.48.65.08 1.1.67 1.02 1.32-.08.6-.58 1.03-1.17 1.03z"/><path fill="#a6c453" d="M288.3 237.45c-5.03 0-9.49-5.18-11.18-8.6-1.66-3.36-.88-6.2-.12-8.94.49-1.76.94-3.42.8-5.26-.15-1.93-1.33-3.81-3.01-4.78s-3.9-1.05-5.64-.22c-1.83.88-3.21 2.67-4.47 4.43l-.47.66c-1.56 2.18-3.17 4.43-5.32 6.2-2.9 2.4-7.88 4.2-11.96 2.44-.6-.26-.88-.95-.62-1.55s.95-.88 1.55-.62c3.03 1.3 7.09-.07 9.53-2.09 1.92-1.57 3.43-3.7 4.9-5.75l.47-.66c1.44-2.01 3.03-4.07 5.37-5.19 2.47-1.18 5.47-1.06 7.84.3 2.37 1.37 3.98 3.91 4.19 6.64.17 2.25-.36 4.19-.88 6.07-.7 2.53-1.3 4.72-.04 7.27 1.6 3.23 5.61 7.62 9.51 7.27.64-.07 1.22.42 1.28 1.07s-.42 1.22-1.07 1.28q-.33.03-.66.03"/><path fill="#a9c753" d="M236.56 173.16a7.46 7.46 0 1 0 0-14.92 7.46 7.46 0 0 0 0 14.92m116.55 5a7.46 7.46 0 1 0 0-14.92 7.46 7.46 0 0 0 0 14.92m-105.74-68.21a5.06 5.06 0 1 0 0-10.12 5.06 5.06 0 0 0 0 10.12m83.51-7.72a7.46 7.46 0 1 0 0-14.92 7.46 7.46 0 0 0 0 14.92m-52.67 102.25a5.06 5.06 0 1 0 0-10.12 5.06 5.06 0 1 0 0 10.12"/><path fill="#adcb53" d="M136.31 156.58c-3.49 0-6.34-2.85-6.34-6.34s2.85-6.34 6.34-6.34h32.47c.52-2.92.81-5.91.81-8.98 0-2.3-.35-4.97-.98-7.92h-32.3c-3.49 0-6.34-2.85-6.34-6.34s2.85-6.34 6.34-6.34h28.58c-1.89-5.3-4.24-11.01-6.89-16.9h-21.69c-3.49 0-6.34-2.85-6.34-6.34s2.85-6.34 6.34-6.34h15.72c-2.8-5.7-5.74-11.41-8.67-16.9h-7.05c-3.49 0-6.34-2.85-6.34-6.34s2.85-6.34 6.34-6.34h.14c-9.61-17.26-17.57-30.11-17.57-30.11s-7.96 12.85-17.57 30.11h.14c3.49 0 6.34 2.85 6.34 6.34s-2.85 6.34-6.34 6.34H94.4c-2.93 5.5-5.87 11.2-8.67 16.9h15.72c3.49 0 6.34 2.85 6.34 6.34s-2.85 6.34-6.34 6.34H79.76c-2.64 5.89-5 11.61-6.89 16.9h28.58c3.49 0 6.34 2.85 6.34 6.34s-2.85 6.34-6.34 6.34h-32.3c-.63 2.95-.98 5.62-.98 7.92 0 3.07.29 6.06.81 8.98h32.47c3.49 0 6.34 2.85 6.34 6.34s-2.85 6.34-6.34 6.34H73.02c8.12 17.17 25.6 29.05 45.86 29.05s37.74-11.88 45.86-29.05z"/><path fill="#006e69" d="M234.36 168.73c0 20.6-16.7 37.3-37.3 37.3s-37.3-16.7-37.3-37.3c0-13.9 16.99-44.61 28.04-63.1 4.19-7.01 14.33-7.01 18.52 0 11.05 18.49 28.04 49.2 28.04 63.1"/><path fill="#006e69" d="M197.06 207.05c-21.13 0-38.32-17.19-38.32-38.32 0-14.32 17.66-46.01 28.18-63.62 2.15-3.6 5.94-5.75 10.14-5.75 4.19 0 7.98 2.15 10.14 5.75 10.53 17.61 28.18 49.3 28.18 63.62 0 21.13-17.19 38.32-38.32 38.32m0-105.66c-3.47 0-6.6 1.78-8.38 4.76-10.42 17.43-27.9 48.74-27.9 62.58 0 20 16.28 36.28 36.28 36.28s36.28-16.27 36.28-36.28c0-13.83-17.48-45.14-27.9-62.58a9.69 9.69 0 0 0-8.38-4.76"/><path fill="#fff" d="M197.07 160.15c-7.73 0-14.34-5.53-15.71-13.14-.12-.66.32-1.3.98-1.42.67-.12 1.3.32 1.42.98a13.52 13.52 0 0 0 13.31 11.14c6.55 0 12.15-4.68 13.31-11.14.12-.66.75-1.1 1.42-.98.66.12 1.1.75.98 1.42a15.95 15.95 0 0 1-15.71 13.14"/><path fill="#fff" d="M208.81 146.66a2.75 2.75 0 0 1 3.01-2.47c1.52.15 2.62 1.49 2.47 3.01a2.75 2.75 0 0 1-3.01 2.47 2.75 2.75 0 0 1-2.47-3.01m-23.48 0a2.75 2.75 0 0 0-3.01-2.47 2.745 2.745 0 0 0-2.47 3.01 2.75 2.75 0 0 0 3.01 2.47 2.75 2.75 0 0 0 2.47-3.01m11.74 40.79c-11.7 0-21.58-8.76-22.98-20.38-.08-.67.4-1.28 1.06-1.36.67-.08 1.28.4 1.36 1.06 1.26 10.4 10.09 18.24 20.56 18.24s19.31-7.84 20.56-18.23c.08-.67.69-1.14 1.36-1.07.67.08 1.15.69 1.07 1.36-1.39 11.62-11.27 20.39-22.98 20.39z"/><path fill="#fff" d="M216.05 166.86a2.747 2.747 0 0 1 2.94-2.55c1.52.11 2.66 1.42 2.55 2.94a2.747 2.747 0 0 1-2.94 2.55 2.747 2.747 0 0 1-2.55-2.94m-37.96 0a2.747 2.747 0 0 0-2.94-2.55 2.747 2.747 0 0 0-2.55 2.94 2.747 2.747 0 0 0 2.94 2.55 2.747 2.747 0 0 0 2.55-2.94"/><path fill="#adcb53" d="M197.08 288.78c-.67 0-1.22-.55-1.22-1.22v-81.53c0-.67.55-1.22 1.22-1.22s1.22.55 1.22 1.22v81.53c0 .67-.55 1.22-1.22 1.22"/><path fill="#fff" d="M197.08 207.25c-.67 0-1.22-.55-1.22-1.22v-75.61c0-.67.55-1.22 1.22-1.22s1.22.55 1.22 1.22v75.61c0 .67-.55 1.22-1.22 1.22"/><path fill="#fff" d="M194.33 130.56c0-1.52 1.23-2.75 2.75-2.75s2.75 1.23 2.75 2.75-1.23 2.75-2.75 2.75-2.75-1.23-2.75-2.75M118.88 282.7c-.79 0-1.44-.64-1.44-1.43V69.92a1.44 1.44 0 0 1 2.88 0v211.35c0 .79-.64 1.43-1.44 1.43"/><path fill="#003834" d="M118.5 214.21c0 23-18.64 41.64-41.64 41.64s-41.64-18.64-41.64-41.64c0-15.56 19.05-51.35 31.38-72.88 4.54-7.93 15.98-7.93 20.51 0 12.33 21.53 31.38 57.33 31.38 72.88z"/><path fill="#aecc53" d="M76.86 301.85c-.84 0-1.52-.68-1.52-1.51V163.21a1.52 1.52 0 1 1 3.04 0v137.13c0 .84-.68 1.51-1.52 1.51"/><path fill="#aecc53" d="M73.44 163.38c0-1.89 1.53-3.42 3.42-3.42s3.42 1.53 3.42 3.42-1.53 3.42-3.42 3.42-3.42-1.53-3.42-3.42m2.99 42.03c-9.25 0-17.2-6.61-18.91-15.72-.15-.82.39-1.61 1.21-1.77.82-.15 1.61.39 1.77 1.21 1.44 7.67 8.14 13.24 15.93 13.24s14.5-5.57 15.93-13.24c.15-.82.94-1.37 1.77-1.21.82.15 1.36.94 1.21 1.77-1.7 9.11-9.65 15.72-18.91 15.72"/><path fill="#aecc53" d="M90.4 189.24a3.43 3.43 0 0 1 3.74-3.07c1.88.19 3.25 1.86 3.07 3.74a3.43 3.43 0 0 1-3.74 3.07 3.43 3.43 0 0 1-3.07-3.74m-27.94 0a3.43 3.43 0 0 0-3.74-3.07 3.43 3.43 0 0 0-3.07 3.74 3.43 3.43 0 0 0 3.74 3.07 3.43 3.43 0 0 0 3.07-3.74m13.97 48.97c-14.02 0-25.9-10.5-27.64-24.42-.1-.83.49-1.59 1.32-1.69.83-.12 1.59.49 1.69 1.32 1.55 12.41 12.14 21.76 24.64 21.76s23.1-9.36 24.64-21.76c.1-.83.86-1.42 1.69-1.32s1.42.86 1.32 1.69c-1.73 13.92-13.61 24.42-27.64 24.42z"/><path fill="#aecc53" d="M99.11 213.51c.14-1.88 1.78-3.3 3.66-3.16s3.3 1.78 3.16 3.66a3.423 3.423 0 0 1-3.66 3.16 3.423 3.423 0 0 1-3.16-3.66m-45.36 0a3.423 3.423 0 0 0-3.66-3.16c-1.88.14-3.3 1.78-3.16 3.66s1.78 3.3 3.66 3.16 3.3-1.78 3.16-3.66"/><path fill="#006e69" d="M239.31 280.49H52.28v94.22h187.03z"/><path fill="#006e69" d="M239.31 375.73H52.28c-.56 0-1.02-.46-1.02-1.02v-94.22c0-.56.46-1.02 1.02-1.02h187.03c.56 0 1.02.46 1.02 1.02v94.22c0 .56-.46 1.02-1.02 1.02M53.3 373.69h184.99v-92.18H53.3z"/><path fill="#ebf2d4" d="M150.67 343.67V321.4l-14.02-10.93-16.56-22.66-.23.17v-6.7h-2.17v50.74l-12.3 9.98v11.02c-.81.4-1.36 1.23-1.36 2.19 0 1.35 1.1 2.45 2.45 2.45s2.45-1.1 2.45-2.45c0-.96-.56-1.79-1.36-2.19v-9.98l10.12-8.22v23.51c-.81.4-1.37 1.23-1.37 2.19 0 1.35 1.1 2.45 2.45 2.45s2.45-1.1 2.45-2.45c0-.96-.56-1.79-1.36-2.19v-23.51l10.12 8.22v9.98c-.81.4-1.36 1.23-1.36 2.19 0 1.35 1.1 2.45 2.45 2.45s2.45-1.1 2.45-2.45c0-.96-.56-1.79-1.36-2.19V342l-12.3-9.98v-40.83l14.91 20.4v19.57c-.81.4-1.36 1.23-1.36 2.19 0 1.35 1.1 2.45 2.45 2.45s2.45-1.1 2.45-2.45c0-.96-.56-1.79-1.36-2.19v-17.7l11.55 9v21.2c-.81.4-1.36 1.23-1.36 2.19 0 1.35 1.1 2.45 2.45 2.45s2.45-1.1 2.45-2.45c0-.96-.56-1.79-1.36-2.19zm-48.96-15.04v-22.27l-14.14-11.01-9.79-7.74-.02.03v-6.35h-2.17v50.91l-9.04 9.91v10.92c-.81.4-1.36 1.23-1.36 2.19 0 1.35 1.1 2.45 2.45 2.45s2.45-1.1 2.45-2.45c0-.96-.56-1.79-1.36-2.19v-10.08l6.86-7.53v22.91c-.81.4-1.37 1.23-1.37 2.19 0 1.35 1.1 2.45 2.45 2.45s2.45-1.1 2.45-2.45c0-.96-.56-1.79-1.36-2.19v-22.91l6.86 7.52v10.08c-.81.4-1.36 1.23-1.36 2.19 0 1.35 1.1 2.45 2.45 2.45s2.45-1.1 2.45-2.45c0-.96-.56-1.79-1.36-2.19V342.1l-9.04-9.91v-41.83l8.05 6.37v19.4c-.81.4-1.36 1.23-1.36 2.19 0 1.35 1.1 2.45 2.45 2.45s2.45-1.1 2.45-2.45c0-.96-.56-1.79-1.37-2.19v-17.7l11.55 9v21.2c-.81.4-1.36 1.23-1.36 2.19 0 1.35 1.1 2.45 2.45 2.45s2.45-1.1 2.45-2.45c0-.96-.56-1.79-1.36-2.19m127.18 15.04V321.4l-14.02-10.93-16.56-22.66-.23.17v-6.7h-2.17v6.71l-.24-.17-16.01 22.65-14.02 10.92v22.27c-.81.4-1.36 1.23-1.36 2.19 0 1.35 1.1 2.45 2.45 2.45s2.45-1.1 2.45-2.45c0-.96-.56-1.79-1.37-2.19v-21.2l11.55-9v17.7c-.81.4-1.36 1.23-1.36 2.19 0 1.35 1.1 2.45 2.45 2.45s2.45-1.1 2.45-2.45c0-.96-.56-1.79-1.36-2.19v-19.58l14.37-20.32v40.76l-12.3 9.98v11.02c-.81.4-1.37 1.23-1.37 2.19 0 1.35 1.1 2.45 2.45 2.45s2.45-1.1 2.45-2.45c0-.96-.56-1.79-1.36-2.19v-9.98l10.12-8.22v23.51c-.81.4-1.36 1.23-1.36 2.19 0 1.35 1.1 2.45 2.45 2.45s2.45-1.1 2.45-2.45c0-.96-.56-1.79-1.36-2.19v-23.51l10.12 8.22v9.98c-.81.4-1.36 1.23-1.36 2.19 0 1.35 1.1 2.45 2.45 2.45s2.45-1.1 2.45-2.45c0-.96-.56-1.79-1.37-2.19V342l-12.3-9.98v-40.83l14.91 20.4v19.57c-.81.4-1.36 1.23-1.36 2.19 0 1.35 1.1 2.45 2.45 2.45s2.45-1.1 2.45-2.45c0-.96-.56-1.79-1.36-2.19v-17.7l11.55 9v21.2c-.81.4-1.36 1.23-1.36 2.19 0 1.35 1.1 2.45 2.45 2.45s2.45-1.1 2.45-2.45c0-.96-.56-1.79-1.37-2.19h.01z"/><path fill="#a9c753" d="M322.03 267.64v2.98c0 2.81 2.28 5.1 5.1 5.1h39.88c2.81 0 5.1 2.28 5.1 5.1v80.17c0 2.81-2.28 5.1-5.1 5.1h-98.05c-2.81 0-5.1-2.28-5.1-5.1v-93.34c0-2.81 2.28-5.1 5.1-5.1h47.98c2.81 0 5.1 2.28 5.1 5.1h-.01z"/><path fill="#003834" d="M313.33 276.58v2.98c0 2.81 2.28 5.1 5.1 5.1h39.88c2.81 0 5.1 2.28 5.1 5.1v80.17c0 2.81-2.28 5.1-5.1 5.1h-98.05c-2.81 0-5.1-2.28-5.1-5.1v-93.34c0-2.81 2.28-5.1 5.1-5.1h47.98c2.81 0 5.1 2.28 5.1 5.1h-.01z"/><path fill="#003834" d="M309.28 355.62c14.188 0 25.69-11.502 25.69-25.69s-11.502-25.69-25.69-25.69-25.69 11.502-25.69 25.69 11.502 25.69 25.69 25.69"/><path fill="#fff" d="M340.72 329.93H328.8s-.02.94-.05 1.4c-.72 10.12-9.16 18.11-19.46 18.11s-18.81-8.05-19.47-18.23c-.03-.42-.04-1.28-.04-1.28h-11.93s0 .85.03 1.27c.67 16.77 14.47 30.16 31.41 30.16s30.6-13.25 31.4-29.9c.02-.51.04-1.54.04-1.54h-.01z"/><path fill="#006d68" d="M277.84 329.93h11.93c0-10.78 8.74-19.51 19.51-19.51s19.51 8.74 19.51 19.51h11.92c0-17.36-14.07-31.44-31.44-31.44s-31.44 14.07-31.44 31.44z"/><path fill="#acca53" d="M309.28 344.72c8.168 0 14.79-6.622 14.79-14.79s-6.622-14.79-14.79-14.79-14.79 6.622-14.79 14.79 6.622 14.79 14.79 14.79"/><path fill="#fff" d="m310.79 329.93-1.51 14.79-1.51-14.79z"/><path fill="#3c3c3c" d="m307.77 329.93 1.51-14.79 1.51 14.79z"/><path fill="#003834" d="m354.784 235.432-11.251 11.25 11.251 11.25 11.25-11.25z"/><path fill="#aecc53" d="m354.79 238.79 7.91 7.91-7.91 7.91-7.91-7.91zm0-6.69-14.6 14.6 14.6 14.6 14.6-14.6z"/><path fill="#003834" d="M210.45 62.47c4.23 0 7.67 3.44 7.67 7.67s-3.44 7.67-7.67 7.67-7.67-3.44-7.67-7.67 3.44-7.67 7.67-7.67m0-5.76c-7.42 0-13.44 6.02-13.44 13.44s6.02 13.44 13.44 13.44 13.44-6.02 13.44-13.44-6.02-13.44-13.44-13.44"/><path fill="#006d68" d="m166.88 250.99-9.79-5.66v-11.29l9.79-5.64 9.78 5.64v11.29zm-7.45-7.01 7.45 4.3 7.44-4.3v-8.59l-7.44-4.29-7.45 4.29z"/></svg>