<svg xmlns="http://www.w3.org/2000/svg" width="420" height="426" fill="none" viewBox="0 0 420 426"><path fill="#ebf2d4" d="M271.01 59.93c-16.26-6.09-33.22-11.2-50.59-11.12-23.4.1-45.64 9.55-66.92 19.26-39.19 17.89-70.09 45.91-102.21 74.38-26 23.04-30.27 70.82-29.49 103.28.09 3.92.19 7.85.37 11.78.55 12.1 1.84 24.17 6.09 35.45 6.8 18.09 22.58 33.36 34.49 48.25 12.9 16.12 25.54 29.57 42.9 41.08 19.66 13.03 47.77 35.41 72.02 37.46 30.53 2.58 53.9 3.83 83.24-5.32 31.25-9.74 65.5-23.96 87.99-48.88 11.79-13.06 19.49-31.71 28.27-46.9 17.12-29.64 24.22-61.6 19.82-95.66-4.61-35.66-18.62-62.99-33.4-94.86-18.97-40.93-52.32-53.09-92.6-68.19h.02z"/><path fill="#6fafac" d="M255.65 86.72c-5.03 0-10.12-1.31-14.74-4.07-8.21-4.9-13.4-13.43-14-22.95-3.54.12-7.01-.75-10.07-2.56-8.69-5.19-11.54-16.49-6.36-25.18 3.75-6.28 10.97-9.73 18.19-8.77.62-2.5 1.59-4.88 2.91-7.08 3.55-5.96 9.21-10.17 15.94-11.86 6.72-1.7 13.71-.67 19.66 2.89 5.46 3.26 9.48 8.34 11.41 14.38 4.47-1.1 9.21-.4 13.15 1.96 4.02 2.4 6.86 6.22 8.01 10.76 1.14 4.54.45 9.25-1.94 13.27a17.48 17.48 0 0 1-13.31 8.44c.4 5.88-.99 11.64-4.02 16.71-5.39 9.04-14.99 14.06-24.82 14.06zm-27-28.97.03.96c.29 9.27 5.21 17.63 13.16 22.38 12.8 7.64 29.43 3.44 37.07-9.35 2.99-5 4.27-10.71 3.7-16.52l-.09-.95.96-.04c5.29-.25 10.06-3.1 12.77-7.63 2.15-3.6 2.77-7.83 1.74-11.89a15.6 15.6 0 0 0-7.18-9.64 15.68 15.68 0 0 0-12.57-1.54l-.89.27-.25-.89c-1.68-5.96-5.54-11-10.85-14.18-5.54-3.31-12.03-4.26-18.28-2.69-6.25 1.58-11.51 5.49-14.82 11.03a24.1 24.1 0 0 0-2.86 7.26v1l-1.07-.2c-6.75-1.23-13.65 1.89-17.17 7.77-4.67 7.83-2.1 18.01 5.73 22.68 3 1.78 6.43 2.57 9.92 2.25l.96-.08zm-42.27-10.9c-3.11 0-6.04-1.18-8.29-3.33a11.95 11.95 0 0 1-3.7-8.41c-.07-3.2 1.11-6.24 3.33-8.56a11.95 11.95 0 0 1 8.41-3.7c3.2-.08 6.24 1.11 8.56 3.33a11.95 11.95 0 0 1 3.7 8.41c.07 3.21-1.11 6.24-3.33 8.56a11.95 11.95 0 0 1-8.41 3.7zm.01-22.18h-.22c-2.72.06-5.25 1.17-7.13 3.14a10.15 10.15 0 0 0-2.83 7.26c.05 2.72 1.17 5.25 3.14 7.13s4.55 2.89 7.26 2.83c2.72-.06 5.25-1.17 7.13-3.14 1.88-1.96 2.88-4.54 2.83-7.26-.06-2.72-1.17-5.25-3.14-7.13a10.1 10.1 0 0 0-7.04-2.83"/><path fill="#aecc53" d="M163.1 187.36c-22.29 0-40.43-14.7-40.43-32.77 0-.77.62-1.39 1.39-1.39s1.39.62 1.39 1.39c0 16.54 16.89 29.99 37.65 29.99s33.34-15.67 37.14-30.34c.19-.74.95-1.19 1.69-1s1.19.95 1 1.69c-4.06 15.67-16.66 32.42-39.84 32.42z"/><path fill="#013834" d="M117.9 351.6c-.54 0-1.01-.4-1.08-.96L96.19 190.05V79.88c0-.6.49-1.1 1.1-1.1s1.1.49 1.1 1.1v109.96l20.62 160.52c.08.6-.35 1.15-.95 1.23h-.14z"/><path fill="#013834" d="M113.4 351.6c-.54 0-1.01-.4-1.08-.96L91.69 190.05V79.88c0-.6.49-1.1 1.1-1.1s1.1.49 1.1 1.1v109.96l20.62 160.52c.08.6-.35 1.15-.95 1.23h-.14zm-52.13.4h-.14c-.6-.08-1.02-.63-.95-1.23L80.8 190.25V80.29c0-.6.49-1.1 1.1-1.1s1.1.49 1.1 1.1v110.17L62.37 351.05c-.07.55-.54.96-1.08.96z"/><path fill="#013834" d="M65.77 352h-.14c-.6-.08-1.02-.63-.95-1.23L85.3 190.25V80.29c0-.6.49-1.1 1.1-1.1s1.1.49 1.1 1.1v110.17L66.87 351.05c-.07.55-.54.96-1.08.96z"/><path fill="#013834" d="M123.97 90.7H55.2c-.22 0-.43-.06-.61-.18l-14.56-9.71c-.4-.27-.58-.77-.44-1.23s.57-.78 1.05-.78h97.89c.48 0 .91.32 1.05.78s-.04.96-.44 1.23l-14.56 9.71c-.18.12-.39.18-.61.18m-68.44-2.2h68.11l11.28-7.52H44.26l11.28 7.52z"/><path fill="#013834" d="M123.97 105.26c-.6 0-1.1-.49-1.1-1.1V89.6c0-.6.49-1.1 1.1-1.1s1.1.49 1.1 1.1v14.56c0 .6-.49 1.1-1.1 1.1m.4 35.59H54.8c-.53 0-.98-.38-1.08-.89-.1-.52.19-1.03.68-1.22l27.1-10.52c.13-.05.26-.07.4-.07h16.18c.14 0 .28.03.41.08l26.29 10.52a1.094 1.094 0 0 1-.41 2.11zm-63.72-2.19h58.04l-20.82-8.33H82.11z"/><path fill="#013834" d="M123.97 155.42c-.6 0-1.1-.49-1.1-1.1v-14.56c0-.6.49-1.1 1.1-1.1s1.1.49 1.1 1.1v14.56c0 .6-.49 1.1-1.1 1.1m-69.58 0c-.6 0-1.1-.49-1.1-1.1v-14.56c0-.6.49-1.1 1.1-1.1s1.1.49 1.1 1.1v14.56c0 .6-.49 1.1-1.1 1.1m69.98 35.6H54.8c-.53 0-.98-.38-1.08-.89-.1-.52.19-1.03.68-1.22l27.1-10.52c.13-.05.26-.07.4-.07h16.18c.14 0 .28.03.41.08l26.29 10.52a1.094 1.094 0 0 1-.41 2.11zm-63.72-2.2h58.04l-20.82-8.33H82.11z"/><path fill="#013834" d="M123.97 205.58c-.6 0-1.1-.49-1.1-1.1v-14.56c0-.6.49-1.1 1.1-1.1s1.1.49 1.1 1.1v14.56c0 .6-.49 1.1-1.1 1.1m-69.58 0c-.6 0-1.1-.49-1.1-1.1v-14.56c0-.6.49-1.1 1.1-1.1s1.1.49 1.1 1.1v14.56c0 .6-.49 1.1-1.1 1.1m0-100.32c-.6 0-1.1-.49-1.1-1.1V89.6c0-.6.49-1.1 1.1-1.1s1.1.49 1.1 1.1v14.56c0 .6-.49 1.1-1.1 1.1"/><path fill="#aecc53" d="M252.99 351.84c-21.26 0-41.07-1.02-55.76-2.88-22.99-2.91-24.45-6.67-24.65-8.33l-.03-.1c-.03-.11-.05-.28-.05-.39 0-.3.06-.57.12-.78l35.85-241.17c.09-.63.6-1.11 1.23-1.18 4.14-5.28 28.78-6.73 43.49-6.73s39.87 1.48 43.61 6.9c.36.2.63.57.69 1.01l35.84 241.17c.06.21.12.48.12.78 0 .08 0 .16-.02.25v.04c-.13 1.53-.68 5.49-24.67 8.53-14.71 1.86-34.51 2.88-55.76 2.88zm-77.68-11.79s0 .06.01.1.53 3.31 22.25 6.05c14.59 1.84 34.27 2.86 55.42 2.86s40.82-1.02 55.42-2.86c21.72-2.75 22.25-6.01 22.25-6.05v-.03c0-.01-.01-.03-.02-.05-.02-.07-.04-.14-.05-.21L294.84 99.35c-.17-.17-.29-.39-.35-.63-.73-2.03-15.16-5.67-41.32-5.67s-40.59 3.63-41.32 5.67c-.11.43-.41.78-.8.94l-35.7 240.19c0 .06-.02.13-.04.19zm155.48-.45c-.06.13-.1.26-.11.36 0-.02 0-.04.02-.06.02-.11.05-.21.1-.3z"/><path fill="#aecc53" d="M211.26 349.58c-.27 0-.54-.08-.78-.24-.64-.43-.8-1.29-.37-1.93 3.78-5.58 5.96-13.09 6.47-22.35.05-.81.1-1.66.16-2.54.63-9.84 1.48-23.32-7.09-28.84-7.47-4.8-21.1-3.01-27.41 1.69-.62.46-1.49.33-1.94-.29-.46-.62-.33-1.49.29-1.94 7.16-5.32 22.07-7.26 30.57-1.79 9.95 6.4 9.03 20.82 8.36 31.35q-.09 1.305-.15 2.52c-.55 9.76-2.88 17.75-6.95 23.75-.27.4-.71.61-1.15.61z"/><path fill="#aecc53" d="M246.78 350.77c-.6 0-1.15-.39-1.33-.99-2.17-7.27-.72-14.77.68-22.03.69-3.58 1.41-7.28 1.66-10.87.83-11.74-3.5-26.46-10.31-34.98-6.49-8.13-14.81-14.15-24.74-17.91-8.8-3.33-20.44-1.56-27.06 4.12-.58.5-1.46.43-1.96-.15s-.43-1.46.15-1.96c7.34-6.29 20.17-8.27 29.86-4.6 10.4 3.93 19.12 10.25 25.92 18.77 7.2 9.02 11.79 24.54 10.91 36.92-.27 3.75-1 7.54-1.71 11.19-1.4 7.25-2.72 14.09-.75 20.71a1.39 1.39 0 0 1-1.33 1.79zm51.4-26.02c-.6 0-1.16-.4-1.33-1-1.64-5.7-4.79-10.89-7.88-15.72-3.15-4.94-6.4-10.05-3.31-16.45 2.81-5.82 9.89-10.05 16.06-9.64 3.38.23 6.42 1.71 8.42 2.8 8.81 4.8 14.89 11.55 17.59 19.5.25.73-.14 1.52-.87 1.76s-1.52-.14-1.76-.87c-2.47-7.28-8.11-13.49-16.29-17.96-2.8-1.53-5.11-2.32-7.27-2.46-5.07-.35-11.06 3.29-13.37 8.08-2.26 4.67-.31 8.31 3.15 13.75 3.19 5 6.46 10.39 8.2 16.44.21.74-.21 1.51-.95 1.72-.13.04-.26.05-.39.05"/><path fill="#aecc53" d="M270.29 351.44c-.34 0-.68-.12-.95-.38a1.38 1.38 0 0 1-.06-1.96c2.83-3.01 4.46-5.88 6.32-9.81 2.96-6.24 2.16-14.32-2.38-24.02-1.01-2.16-2.14-4.34-3.24-6.45-2.95-5.67-6-11.54-7.18-17.96-.81-4.4-.53-8.27.84-11.5 1.33-3.13 3.65-5.66 5.76-7.72 7.99-7.85 16.91-12.8 25.79-14.32 5.87-1 12.03-.41 17.36 1.66 5.44 2.11 6.97 4.93 9.1 8.84.35.64.72 1.32 1.13 2.04a1.394 1.394 0 0 1-2.42 1.38c-.42-.74-.8-1.43-1.16-2.09-1.98-3.64-3.18-5.83-7.67-7.57-4.87-1.89-10.5-2.43-15.88-1.52-8.32 1.42-16.72 6.11-24.31 13.56-1.91 1.87-4.01 4.15-5.15 6.82-1.15 2.73-1.38 6.06-.66 9.91 1.11 6.01 4.06 11.69 6.91 17.18 1.11 2.13 2.26 4.34 3.29 6.55 4.91 10.48 5.71 19.36 2.38 26.39-1.98 4.18-3.73 7.24-6.8 10.52-.27.29-.64.44-1.01.44zm-31.17-201.6c-2.29 0-4.58-.39-6.72-1.19-6.46-2.41-10.26-7.64-13.93-12.69-3.54-4.86-6.87-9.46-12.43-11.86-.71-.3-1.03-1.12-.73-1.83s1.12-1.03 1.83-.73c6.26 2.7 9.98 7.82 13.58 12.77 3.59 4.94 6.98 9.6 12.65 11.72 5.32 1.98 11.92.94 16.45-2.6 4.47-3.5 6.93-9.18 6.41-14.83-.13-1.49-.46-2.95-.8-4.49s-.7-3.14-.85-4.79c-.88-9.45 3.35-19.17 11.92-27.34.56-.53 1.44-.51 1.97.05s.51 1.44-.05 1.97c-4.6 4.39-12.16 13.48-11.08 25.08.14 1.47.46 2.91.8 4.44.35 1.56.71 3.18.86 4.85.6 6.58-2.26 13.19-7.47 17.27-3.52 2.75-7.98 4.21-12.41 4.21z"/><path fill="#aecc53" d="M241.98 172.92c-6.98 0-13.94-1.91-19.83-5.59-1.74-1.09-3.55-2.36-5.46-3.7-4.83-3.4-10.31-7.25-15.39-8.34-.75-.16-1.23-.9-1.07-1.65s.9-1.23 1.65-1.07c5.62 1.21 11.35 5.23 16.4 8.78 1.88 1.32 3.66 2.57 5.33 3.62 8.31 5.19 18.91 6.57 28.36 3.7 9.44-2.87 17.26-9.83 20.91-18.62 1.95-4.7 2.69-9.65 3.48-14.9.66-4.38 1.34-8.91 2.79-13.23 2.8-8.36 8.46-15.76 15.94-20.83.64-.43 1.5-.27 1.93.37s.27 1.5-.37 1.93c-6.98 4.73-12.25 11.62-14.86 19.41-1.37 4.09-2.04 8.5-2.68 12.76-.78 5.18-1.59 10.54-3.67 15.55-3.97 9.55-12.44 17.11-22.67 20.22-3.5 1.06-7.16 1.59-10.81 1.59zm38.15 66.38c-6.25 0-12.65-2-17.57-5.51-4.09-2.91-9-8.17-9.12-16.69-.19-13.23 8.88-25.25 12.78-29.81 1.77-2.06 3.8-3.87 5.77-5.61 2.23-1.98 4.34-3.85 6.1-6.07 3.1-3.89 4.89-8.53 6.8-13.44.76-1.96 1.55-3.99 2.42-5.95 2.79-6.29 7.02-13.72 15.02-15.41.76-.16 1.49.32 1.65 1.07s-.32 1.49-1.07 1.65c-6.73 1.42-10.38 7.79-13.06 13.82-.85 1.9-1.62 3.9-2.37 5.83-1.89 4.89-3.85 9.94-7.21 14.16-1.91 2.4-4.21 4.44-6.43 6.42-1.9 1.68-3.86 3.43-5.5 5.34-3.7 4.31-12.29 15.67-12.11 27.95.12 8.1 7.61 19.46 23.88 19.46h.15c6.43-.03 12.57-2.39 16.83-6.46 1.88-1.81 3.52-4.04 5.09-6.21 2.64-3.62 5.38-7.36 9.51-9.53.68-.36 1.52-.09 1.88.58.36.68.09 1.52-.58 1.88-3.56 1.87-5.99 5.19-8.56 8.71-1.65 2.26-3.35 4.6-5.42 6.57-4.77 4.57-11.6 7.2-18.74 7.24h-.13zm-72.21 13.15c-1.19 0-2.36-.07-3.5-.2-6.66-.76-12.48-3.87-15.97-8.54-.46-.62-.33-1.49.28-1.95a1.4 1.4 0 0 1 1.95.28c3.03 4.06 8.15 6.77 14.05 7.44 4.89.56 10.31-.19 16.59-2.3 3.71-1.24 6.48-2.55 8.71-4.13 3.17-2.24 5.89-5.5 7.88-9.44 6.07-12.01 3.5-27.56-6.09-36.98-4.68-4.6-10.49-7.55-16.64-10.68-3.2-1.63-6.52-3.31-9.62-5.24-2.85-1.77-5.96-4.05-7.44-7.54-.3-.71.03-1.52.74-1.82s1.52.03 1.82.74c1.18 2.78 3.87 4.72 6.34 6.26 3.01 1.87 6.26 3.52 9.42 5.13 6.07 3.08 12.34 6.27 17.32 11.17 10.44 10.25 13.22 27.16 6.63 40.22-2.19 4.35-5.22 7.96-8.76 10.46-2.46 1.74-5.46 3.17-9.43 4.49-5.24 1.75-9.95 2.62-14.29 2.62z"/><path fill="#aecc53" d="M206.1 232.58c-2.34 0-4.84-.7-7.33-2.07-3.54-1.95-6.58-5.03-8.13-8.23a1.39 1.39 0 0 1 .64-1.86c.69-.33 1.52-.05 1.86.64 2.43 5.02 10.26 10.63 16.09 8.11 5.47-2.37 7.82-9.51 7.32-15.35-.39-4.68-2.75-8.96-6.3-11.43-1.48-1.04-3.28-1.93-5.18-2.88-3.76-1.88-7.66-3.83-9.79-7.21a1.394 1.394 0 0 1 2.36-1.48c1.72 2.73 5.25 4.49 8.68 6.2 1.9.95 3.87 1.94 5.52 3.09 4.22 2.94 7.02 7.98 7.48 13.47.59 6.82-2.31 15.24-8.98 18.13-1.31.57-2.74.85-4.23.85z"/><path fill="#a9c753" d="M173.45 339.92H54.55v15.31h118.9z"/><path fill="#006d68" d="M390.45 265.29H259.57a6.27 6.27 0 0 0-6.27 6.27v36.75a6.27 6.27 0 0 0 6.27 6.27h130.88a6.27 6.27 0 0 0 6.27-6.27v-36.75a6.27 6.27 0 0 0-6.27-6.27"/><path fill="#fff" d="M390.45 315.37H259.57c-3.89 0-7.06-3.17-7.06-7.06v-36.75c0-3.89 3.17-7.06 7.06-7.06h130.88c3.89 0 7.06 3.17 7.06 7.06v36.75c0 3.89-3.17 7.06-7.06 7.06m-130.88-49.29c-3.02 0-5.48 2.46-5.48 5.48v36.75c0 3.02 2.46 5.48 5.48 5.48h130.88c3.02 0 5.48-2.46 5.48-5.48v-36.75c0-3.02-2.46-5.48-5.48-5.48z"/><path fill="#006d68" d="M390.45 314.7H259.57a6.27 6.27 0 0 0-6.27 6.27v36.75a6.27 6.27 0 0 0 6.27 6.27h130.88a6.27 6.27 0 0 0 6.27-6.27v-36.75a6.27 6.27 0 0 0-6.27-6.27"/><path fill="#fff" d="M390.45 364.78H259.57c-3.89 0-7.06-3.17-7.06-7.06v-36.75c0-3.89 3.17-7.06 7.06-7.06h130.88c3.89 0 7.06 3.17 7.06 7.06v36.75c0 3.89-3.17 7.06-7.06 7.06m-130.88-49.29c-3.02 0-5.48 2.46-5.48 5.48v36.75c0 3.02 2.46 5.48 5.48 5.48h130.88c3.02 0 5.48-2.46 5.48-5.48v-36.75c0-3.02-2.46-5.48-5.48-5.48z"/><path fill="#006d68" d="M390.45 215.95H259.57a6.27 6.27 0 0 0-6.27 6.27v36.75a6.27 6.27 0 0 0 6.27 6.27h130.88a6.27 6.27 0 0 0 6.27-6.27v-36.75a6.27 6.27 0 0 0-6.27-6.27"/><path fill="#fff" d="M390.45 266.03H259.57c-3.89 0-7.06-3.17-7.06-7.06v-36.75c0-3.89 3.17-7.06 7.06-7.06h130.88c3.89 0 7.06 3.17 7.06 7.06v36.75c0 3.89-3.17 7.06-7.06 7.06m-130.88-49.29c-3.02 0-5.48 2.46-5.48 5.48v36.75c0 3.02 2.46 5.48 5.48 5.48h130.88c3.02 0 5.48-2.46 5.48-5.48v-36.75c0-3.02-2.46-5.48-5.48-5.48z"/><path fill="#a9c753" d="m354.34 344.41 7.88 7.88 5.07-5.07 5.07 5.07 7.89-7.88-5.07-5.07 5.07-5.07-7.89-7.89-5.07 5.07-5.07-5.07-7.88 7.89 5.07 5.07z"/><path fill="#006d68" d="m362.22 352.97-8.56-8.56 5.07-5.07-5.07-5.07 8.56-8.57 5.07 5.07 5.07-5.07 8.57 8.57-5.07 5.07 5.07 5.07-8.57 8.56-5.07-5.07zm5.07-6.43 5.07 5.07 7.21-7.2-5.07-5.07 5.07-5.07-7.21-7.21-5.07 5.07-5.07-5.07-7.2 7.21 5.07 5.07-5.07 5.07 7.2 7.2z"/><path fill="#013834" d="M318.99 332.62h-18.78a5.69 5.69 0 0 0-5.69 5.69v.01a5.69 5.69 0 0 0 5.69 5.69h18.78a5.69 5.69 0 0 0 5.69-5.69v-.01a5.69 5.69 0 0 0-5.69-5.69"/><path fill="#a9c753" d="m354.34 295 7.88 7.89 5.07-5.07 5.07 5.07 7.89-7.89-5.07-5.07 5.07-5.07-7.89-7.88-5.07 5.07-5.07-5.07-7.88 7.88 5.07 5.07z"/><path fill="#006d68" d="m362.22 303.57-8.56-8.57 5.07-5.07-5.07-5.07 8.56-8.56 5.07 5.07 5.07-5.07 8.57 8.56-5.07 5.07 5.07 5.07-8.57 8.57-5.07-5.07zm5.07-6.43 5.07 5.07 7.21-7.21-5.07-5.07 5.07-5.07-7.21-7.2-5.07 5.07-5.07-5.07-7.2 7.2 5.07 5.07-5.07 5.07 7.2 7.21z"/><path fill="#013834" d="M318.99 284.24h-18.78a5.69 5.69 0 0 0-5.69 5.69v.01a5.69 5.69 0 0 0 5.69 5.69h18.78a5.69 5.69 0 0 0 5.69-5.69v-.01a5.69 5.69 0 0 0-5.69-5.69"/><path fill="#a9c753" d="m354.34 245.67 7.88 7.88 5.07-5.07 5.07 5.07 7.89-7.88-5.07-5.07 5.07-5.07-7.89-7.89-5.07 5.07-5.07-5.07-7.88 7.89 5.07 5.07z"/><path fill="#006d68" d="m362.22 254.23-8.56-8.56 5.07-5.07-5.07-5.07 8.56-8.57 5.07 5.07 5.07-5.07 8.57 8.57-5.07 5.07 5.07 5.07-8.57 8.56-5.07-5.07zm5.07-6.43 5.07 5.07 7.21-7.2-5.07-5.07 5.07-5.07-7.21-7.21-5.07 5.07-5.07-5.07-7.2 7.21 5.07 5.07-5.07 5.07 7.2 7.2z"/><path fill="#013834" d="M318.99 234.9h-18.78a5.69 5.69 0 0 0-5.69 5.69v.01a5.69 5.69 0 0 0 5.69 5.69h18.78a5.69 5.69 0 0 0 5.69-5.69v-.01a5.69 5.69 0 0 0-5.69-5.69m-36.29 97.72h-3.5a5.69 5.69 0 0 0-5.69 5.69v.01a5.69 5.69 0 0 0 5.69 5.69h3.5a5.69 5.69 0 0 0 5.69-5.69v-.01a5.69 5.69 0 0 0-5.69-5.69m0-48.38h-3.5a5.69 5.69 0 0 0-5.69 5.69v.01a5.69 5.69 0 0 0 5.69 5.69h3.5a5.69 5.69 0 0 0 5.69-5.69v-.01a5.69 5.69 0 0 0-5.69-5.69m0-49.34h-3.5a5.69 5.69 0 0 0-5.69 5.69v.01a5.69 5.69 0 0 0 5.69 5.69h3.5a5.69 5.69 0 0 0 5.69-5.69v-.01a5.69 5.69 0 0 0-5.69-5.69"/><path fill="#006e69" d="M156.52 389.89c37.147 0 67.26-30.113 67.26-67.26s-30.113-67.26-67.26-67.26-67.26 30.113-67.26 67.26 30.113 67.26 67.26 67.26"/><path fill="#a7c553" d="M156.52 382.59c33.115 0 59.96-26.845 59.96-59.96s-26.845-59.96-59.96-59.96-59.96 26.845-59.96 59.96 26.845 59.96 59.96 59.96"/><path fill="#fff" d="M156.52 369.25c-25.71 0-46.62-20.91-46.62-46.62s20.91-46.62 46.62-46.62 46.62 20.91 46.62 46.62-20.91 46.62-46.62 46.62m0-92.44c-25.27 0-45.82 20.55-45.82 45.82s20.56 45.82 45.82 45.82 45.82-20.55 45.82-45.82-20.56-45.82-45.82-45.82"/><path fill="#fff" d="M156.52 382.63c-33.08 0-60-26.92-60-60h3.66c0 31.07 25.27 56.34 56.34 56.34s56.34-25.27 56.34-56.34h3.66c0 33.08-26.92 60-60 60m60-60h-3.66c0-31.07-25.27-56.34-56.34-56.34s-56.34 25.27-56.34 56.34h-3.66c0-33.08 26.92-60 60-60s60 26.92 60 60"/><path fill="#fff" d="m155.56 326.29-37.29-3.66 37.29-3.66zm1.92-7.32 37.29 3.66-37.29 3.66z"/><path fill="#fff" d="m160.18 323.59-3.66 37.29-3.66-37.29zm-7.32-1.92 3.66-37.29 3.66 37.29z"/><path fill="#fff" d="m157.91 325.01-21.08 17.31 17.31-21.08zm-2.78-4.76 21.08-17.31-17.31 21.08z"/><path fill="#013834" d="m159.34 326.96-37.9 34.4 30.49-41.11z"/><path fill="#fff" d="m153.69 318.3 37.9-34.41-30.48 41.12z"/><path fill="#006e69" d="M156.52 329.17a6.54 6.54 0 1 0 0-13.08 6.54 6.54 0 0 0 0 13.08"/><path fill="#fff" d="M109.93 323.23h-7.73c-.33 0-.6-.27-.6-.6s.27-.6.6-.6h7.73c.33 0 .6.27.6.6s-.27.6-.6.6m100.91 0h-7.73c-.33 0-.6-.27-.6-.6s.27-.6.6-.6h7.73c.33 0 .6.27.6.6s-.27.6-.6.6"/><path fill="#013834" d="M159.44 362.76h-5.85l-2.92 5.06 2.92 5.07h5.85l2.93-5.07z"/><path fill="#fff" d="M161.49 276.81a4.97 4.97 0 0 1-4.97 4.97c-2.75 0-4.97-2.22-4.97-4.97s4.97-8.83 4.97-8.83 4.97 6.09 4.97 8.83"/><path fill="#a5c352" d="M156.52 282.15a.37.37 0 0 1-.37-.37v-8.77c0-.2.16-.37.37-.37s.37.16.37.37v8.77c0 .2-.16.37-.37.37"/></svg>