<svg width="50" height="50" viewBox="0 0 50 50" fill="none" xmlns="http://www.w3.org/2000/svg">
<path d="M18.15 3.95001V4.97001C18.15 5.93001 17.37 6.72001 16.4 6.72001H2.75C1.79 6.72001 1 7.50001 1 8.47001V35.93C1 36.89 1.78 37.68 2.75 37.68H36.34C37.3 37.68 38.09 36.9 38.09 35.93V3.95001C38.09 2.99001 37.31 2.20001 36.34 2.20001H19.91C18.95 2.20001 18.16 2.98001 18.16 3.95001H18.15Z" fill="#006D68"/>
<path d="M29.07 14.08V15.1C29.07 16.06 28.29 16.85 27.32 16.85H13.66C12.7 16.85 11.91 17.63 11.91 18.6V46.06C11.91 47.02 12.69 47.81 13.66 47.81H47.25C48.21 47.81 49 47.03 49 46.06V14.08C49 13.12 48.22 12.33 47.25 12.33H30.82C29.86 12.33 29.07 13.11 29.07 14.08Z" fill="#A7C553"/>
</svg>
