<?xml version="1.0" encoding="utf-8"?>
<svg xmlns="http://www.w3.org/2000/svg" width="220" height="59" viewBox="0 0 220 59" fill="none">
<path d="M128.042 16.5125L140.698 11.8001L128.042 6.95314V0.355835L149.718 9.10737V14.4929L128.042 23.2445V16.5125Z" fill="#A100FF"/>
<path d="M8.34761 58.2507C3.76989 58.2507 0 55.9618 0 50.8455V50.5763C0 44.3829 5.38556 42.2286 11.9829 42.2286H15.0796V41.0169C15.0796 38.4588 14.0024 36.9777 11.3097 36.9777C8.88617 36.9777 7.67442 38.3241 7.53978 40.2091H0.807834C1.34639 34.5542 5.78947 31.8614 11.7136 31.8614C17.7723 31.8614 22.2154 34.4196 22.2154 40.7476V57.7121H15.3488V54.7501C14.0024 56.635 11.7136 58.2507 8.34761 58.2507ZM15.0796 49.3645V46.941H12.2521C8.75153 46.941 7.00122 47.8835 7.00122 50.1723V50.4416C7.00122 52.1919 8.07834 53.4037 10.5018 53.4037C12.9253 53.269 15.0796 51.9227 15.0796 49.3645ZM38.2375 58.2507C31.2362 58.2507 26.12 53.9422 26.12 45.3253V44.9214C26.12 36.3045 31.5055 31.7268 38.2375 31.7268C44.0269 31.7268 48.7393 34.6889 49.2778 41.2862H42.5459C42.142 38.8627 40.7956 37.247 38.3721 37.247C35.41 37.247 33.2558 39.6705 33.2558 44.6521V45.46C33.2558 50.5763 35.1408 52.8651 38.3721 52.8651C40.7956 52.8651 42.5459 51.1148 42.9498 48.2874H49.4125C49.0086 54.2115 45.104 58.2507 38.2375 58.2507ZM64.6267 58.2507C57.6255 58.2507 52.5092 53.9422 52.5092 45.3253V44.9214C52.5092 36.3045 57.8947 31.7268 64.6267 31.7268C70.4162 31.7268 75.1285 34.6889 75.6671 41.2862H68.9351C68.5312 38.8627 67.1848 37.247 64.7613 37.247C61.7993 37.247 59.645 39.6705 59.645 44.6521V45.46C59.645 50.5763 61.53 52.8651 64.7613 52.8651C67.1848 52.8651 68.9351 51.1148 69.3391 48.2874H75.8017C75.3978 54.2115 71.4933 58.2507 64.6267 58.2507ZM91.1506 58.2507C83.8801 58.2507 78.8984 53.9422 78.8984 45.46V44.9214C78.8984 36.4392 84.1493 31.7268 91.0159 31.7268C97.3439 31.7268 102.595 35.2274 102.595 43.7097V46.8064H86.0343C86.3036 51.3841 88.3231 53.1344 91.2852 53.1344C93.978 53.1344 95.459 51.6534 95.9976 49.9031H102.595C101.787 54.6154 97.7479 58.2507 91.1506 58.2507ZM86.1689 42.094H95.5936C95.459 38.3241 93.7087 36.7085 90.8813 36.7085C88.7271 36.8431 86.7075 38.0548 86.1689 42.094ZM106.903 32.4H114.039V36.1699C115.251 33.7464 117.809 31.8614 121.714 31.8614C126.291 31.8614 129.388 34.6889 129.388 40.7476V57.7121H122.252V41.8247C122.252 38.8627 121.04 37.5163 118.482 37.5163C116.059 37.5163 114.039 38.9973 114.039 42.2286V57.7121H106.903V32.4ZM142.448 24.7256V32.4H147.295V37.6509H142.448V49.6338C142.448 51.5187 143.256 52.4612 145.006 52.4612C146.083 52.4612 146.756 52.3266 147.43 52.0573V57.5775C146.622 57.8468 145.141 58.116 143.39 58.116C137.87 58.116 135.312 55.5579 135.312 50.4416V37.6509H132.35V32.4H135.312V27.6876L142.448 24.7256ZM173.953 57.7121H166.952V53.9422C165.741 56.3657 163.317 58.2507 159.547 58.2507C154.969 58.2507 151.603 55.4233 151.603 49.4991V32.4H158.739V48.5567C158.739 51.5187 159.951 52.8651 162.375 52.8651C164.798 52.8651 166.818 51.2495 166.818 48.1528V32.4H173.953V57.7121ZM179.204 32.4H186.34V37.1124C187.821 33.7464 190.245 32.1307 194.015 32.1307V39.1319C189.168 39.1319 186.34 40.613 186.34 44.7868V57.8468H179.204V32.4ZM208.421 58.2507C201.151 58.2507 196.169 53.9422 196.169 45.46V44.9214C196.169 36.4392 201.42 31.7268 208.286 31.7268C214.614 31.7268 219.865 35.2274 219.865 43.7097V46.8064H203.439C203.709 51.3841 205.728 53.1344 208.69 53.1344C211.383 53.1344 212.864 51.6534 213.403 49.9031H220C218.923 54.6154 215.018 58.2507 208.421 58.2507ZM203.305 42.094H212.864C212.73 38.3241 210.979 36.7085 208.152 36.7085C205.998 36.8431 203.978 38.0548 203.305 42.094Z" fill="black"/>
</svg>