<?xml version="1.0" encoding="utf-8"?>
<svg xmlns="http://www.w3.org/2000/svg" width="212" height="46" viewBox="0 0 212 46" fill="none">
<path d="M88.25 9.98132V36.9813H83.5625V15.7938H83.5L75.125 36.9813H72L63.4375 15.7938H63.375V36.9813H59.0625V9.98132H65.8125L73.5625 29.9813H73.6875L81.875 9.98132H88.25ZM92.125 12.0438C92.125 11.2938 92.375 10.6688 92.9375 10.1688C93.5 9.66882 94.125 9.41882 94.875 9.41882C95.6875 9.41882 96.375 9.66882 96.875 10.1688C97.375 10.6688 97.6875 11.2938 97.6875 12.0438C97.6875 12.7938 97.4375 13.4188 96.875 13.9188C96.3125 14.4188 95.6875 14.6688 94.875 14.6688C94.0625 14.6688 93.4375 14.4188 92.9375 13.9188C92.4375 13.3563 92.125 12.7313 92.125 12.0438ZM97.1875 17.6063V36.9813H92.625V17.6063H97.1875ZM111 33.6688C111.688 33.6688 112.438 33.5438 113.25 33.1688C114.063 32.8563 114.813 32.4188 115.5 31.9188V36.1688C114.75 36.6063 113.938 36.9188 113 37.1063C112.063 37.2938 111.063 37.4188 109.938 37.4188C107.063 37.4188 104.75 36.5438 103 34.7313C101.188 32.9188 100.313 30.6063 100.313 27.8563C100.313 24.7313 101.25 22.1688 103.063 20.1688C104.875 18.1688 107.438 17.1688 110.813 17.1688C111.688 17.1688 112.563 17.2938 113.375 17.4813C114.25 17.6688 114.938 17.9813 115.438 18.2313V22.6063C114.75 22.1063 114 21.6688 113.313 21.4188C112.563 21.1688 111.813 20.9813 111.063 20.9813C109.25 20.9813 107.813 21.5438 106.688 22.7313C105.563 23.9188 105.063 25.4813 105.063 27.4813C105.063 29.4188 105.625 30.9813 106.688 32.0438C107.75 33.1063 109.188 33.6688 111 33.6688ZM128.438 17.2938C128.813 17.2938 129.125 17.2938 129.438 17.3563C129.75 17.4188 130 17.4813 130.188 17.5438V22.1688C129.938 21.9813 129.625 21.7938 129.125 21.6688C128.625 21.5438 128.125 21.4188 127.438 21.4188C126.313 21.4188 125.375 21.9188 124.625 22.8563C123.875 23.7938 123.438 25.2313 123.438 27.2313V36.9813H118.875V17.6063H123.438V20.6688H123.5C123.938 19.6063 124.563 18.7938 125.375 18.1688C126.25 17.6063 127.25 17.2938 128.438 17.2938ZM130.438 27.6063C130.438 24.4188 131.375 21.8563 133.125 19.9813C134.938 18.1063 137.438 17.1688 140.625 17.1688C143.625 17.1688 146 18.0438 147.688 19.8563C149.375 21.6688 150.25 24.1063 150.25 27.1688C150.25 30.2938 149.313 32.7938 147.563 34.6688C145.75 36.5438 143.313 37.4813 140.188 37.4813C137.188 37.4813 134.813 36.6063 133.063 34.8563C131.313 33.0438 130.438 30.6063 130.438 27.6063ZM135.188 27.4188C135.188 29.4188 135.625 30.9813 136.563 32.0438C137.5 33.1063 138.813 33.6688 140.5 33.6688C142.125 33.6688 143.438 33.1688 144.313 32.0438C145.188 30.9813 145.625 29.4188 145.625 27.2938C145.625 25.2313 145.188 23.6688 144.313 22.5438C143.438 21.4813 142.125 20.9188 140.563 20.9188C138.875 20.9188 137.625 21.4813 136.688 22.6063C135.625 23.7938 135.188 25.3563 135.188 27.4188ZM157.063 22.7313C157.063 23.3563 157.25 23.9188 157.688 24.2938C158.125 24.6688 159 25.1063 160.438 25.6688C162.25 26.4188 163.563 27.2313 164.25 28.1063C165 29.0438 165.375 30.1063 165.375 31.4188C165.375 33.2313 164.688 34.6688 163.25 35.7938C161.875 36.9188 159.938 37.4188 157.563 37.4188C156.75 37.4188 155.875 37.2938 154.875 37.1063C153.875 36.9188 153.063 36.6688 152.375 36.3563V31.8563C153.188 32.4188 154.125 32.9188 155.063 33.2313C156 33.5438 156.875 33.7313 157.688 33.7313C158.688 33.7313 159.5 33.6063 159.938 33.2938C160.438 32.9813 160.688 32.5438 160.688 31.8563C160.688 31.2313 160.438 30.7313 159.938 30.2313C159.438 29.7938 158.438 29.2938 157.063 28.7313C155.375 28.0438 154.188 27.2313 153.5 26.3563C152.813 25.4813 152.438 24.3563 152.438 22.9813C152.438 21.2313 153.125 19.7938 154.5 18.6688C155.875 17.5438 157.688 16.9813 159.875 16.9813C160.563 16.9813 161.313 17.0438 162.125 17.2313C162.938 17.4188 163.688 17.6063 164.25 17.7938V22.2313C163.625 21.8563 162.938 21.4813 162.125 21.1688C161.313 20.8563 160.5 20.7313 159.75 20.7313C158.875 20.7313 158.188 20.9188 157.75 21.2313C157.313 21.6688 157.063 22.1063 157.063 22.7313ZM167.313 27.6063C167.313 24.4188 168.25 21.8563 170 19.9813C171.813 18.1063 174.313 17.1688 177.5 17.1688C180.5 17.1688 182.875 18.0438 184.563 19.8563C186.25 21.6688 187.125 24.1063 187.125 27.1688C187.125 30.2938 186.188 32.7938 184.438 34.6688C182.625 36.5438 180.188 37.4813 177.063 37.4813C174.063 37.4813 171.688 36.6063 169.938 34.8563C168.25 33.0438 167.313 30.6063 167.313 27.6063ZM172.063 27.4188C172.063 29.4188 172.5 30.9813 173.438 32.0438C174.375 33.1063 175.688 33.6688 177.375 33.6688C179 33.6688 180.313 33.1688 181.188 32.0438C182.063 30.9813 182.5 29.4188 182.5 27.2938C182.5 25.2313 182.063 23.6688 181.188 22.5438C180.313 21.4813 179 20.9188 177.438 20.9188C175.75 20.9188 174.5 21.4813 173.563 22.6063C172.563 23.7938 172.063 25.3563 172.063 27.4188ZM202.313 21.3563H195.5V36.9813H190.875V21.3563H187.625V17.6063H190.875V14.9188C190.875 12.9188 191.563 11.2313 192.875 9.91882C194.188 8.60632 195.875 7.98132 197.938 7.98132C198.5 7.98132 199 8.04382 199.438 8.04382C199.875 8.04382 200.25 8.16882 200.563 8.29382V12.2313C200.438 12.1688 200.125 12.0438 199.75 11.9188C199.375 11.7938 198.938 11.7313 198.438 11.7313C197.5 11.7313 196.75 12.0438 196.25 12.6063C195.75 13.1688 195.5 14.1063 195.5 15.2313V17.5438H202.313V13.1688L206.875 11.7938V17.5438H211.5V21.2938H206.875V30.3563C206.875 31.5438 207.125 32.3563 207.5 32.8563C207.938 33.3563 208.625 33.6063 209.563 33.6063C209.813 33.6063 210.125 33.5438 210.5 33.4188C210.875 33.2938 211.188 33.1688 211.438 32.9813V36.7313C211.125 36.9188 210.688 37.0438 210 37.1688C209.313 37.2938 208.688 37.3563 208 37.3563C206.063 37.3563 204.625 36.8563 203.688 35.8563C202.75 34.8563 202.25 33.2938 202.25 31.2313L202.313 21.3563Z" fill="#737373"/>
<path d="M21.875 0.981445H0.5V22.3564H21.875V0.981445Z" fill="#F25022"/>
<path d="M45.5 0.981445H24.125V22.3564H45.5V0.981445Z" fill="#7FBA00"/>
<path d="M21.875 24.6064H0.5V45.9814H21.875V24.6064Z" fill="#00A4EF"/>
<path d="M45.5 24.6064H24.125V45.9814H45.5V24.6064Z" fill="#FFB900"/>
</svg>