<svg width="223" height="231" viewBox="0 0 223 231" fill="none" xmlns="http://www.w3.org/2000/svg">
<mask id="page-title-mask" style="mask-type:alpha" maskUnits="userSpaceOnUse" x="0" y="0" width="223" height="231">
<path d="M220.058 141.907C215.98 158.596 208.311 173.321 197.053 186.083C185.795 198.845 172.824 209.48 158.14 217.988C143.456 226.496 127.467 230.832 110.172 230.996C92.8773 231.159 77.051 226.578 62.6932 217.252C48.3354 207.926 35.2012 197.291 23.2907 185.347C11.3802 173.403 4.28288 159.005 1.99868 142.153C-0.285525 125.3 -0.61184 108.284 1.01973 91.1047C2.65131 73.9251 9.66707 59.3634 22.067 47.4195C34.467 35.4756 47.9275 25.1678 62.4485 16.4962C76.9695 7.82458 93.122 2.50709 110.906 0.543706C128.69 -1.41968 145.414 1.93444 161.077 10.606C176.74 19.2776 189.303 30.8943 198.766 45.4561C208.23 60.0178 215.164 75.5613 219.569 92.0864C223.974 108.612 224.137 125.219 220.058 141.907Z" fill="#AECC53"/>
<path d="M220.058 141.907C215.98 158.596 208.311 173.321 197.053 186.083C185.795 198.845 172.824 209.48 158.14 217.988C143.456 226.496 127.467 230.832 110.172 230.996C92.8773 231.159 77.051 226.578 62.6932 217.252C48.3354 207.926 35.2012 197.291 23.2907 185.347C11.3802 173.403 4.28288 159.005 1.99868 142.153C-0.285525 125.3 -0.61184 108.284 1.01973 91.1047C2.65131 73.9251 9.66707 59.3634 22.067 47.4195C34.467 35.4756 47.9275 25.1678 62.4485 16.4962C76.9695 7.82458 93.122 2.50709 110.906 0.543706C128.69 -1.41968 145.414 1.93444 161.077 10.606C176.74 19.2776 189.303 30.8943 198.766 45.4561C208.23 60.0178 215.164 75.5613 219.569 92.0864C223.974 108.612 224.137 125.219 220.058 141.907Z" fill="white" fill-opacity="0.75"/>
</mask>
<g mask="url(#page-title-mask)">
<path d="M102.975 179.699C101.95 178.342 101.28 176.75 101.025 175.069C100.77 173.388 100.938 171.669 101.515 170.069C102.855 166.749 106.915 163.679 112.155 163.329C114.955 163.139 118.365 164.329 120.805 163.329C121.683 162.945 122.46 162.363 123.075 161.627C123.689 160.891 124.124 160.022 124.345 159.089C124.825 157.469 124.975 155.769 126.095 154.279C130.445 148.469 136.815 153.849 136.455 159.469C136.114 162.28 135.173 164.984 133.695 167.399C130.625 173.079 126.625 178.589 120.855 181.489C116.025 183.919 109.705 185.489 105.105 181.919C104.291 181.286 103.574 180.538 102.975 179.699Z" stroke="#AECC53" stroke-width="0.75" stroke-linecap="round" stroke-linejoin="round"/>
<path d="M102.975 179.699C101.95 178.342 101.28 176.75 101.025 175.069C100.77 173.388 100.938 171.669 101.515 170.069C102.855 166.749 106.915 163.679 112.155 163.329C114.955 163.139 118.365 164.329 120.805 163.329C121.683 162.945 122.46 162.363 123.075 161.627C123.689 160.891 124.124 160.022 124.345 159.089C124.825 157.469 124.975 155.769 126.095 154.279C130.445 148.469 136.815 153.849 136.455 159.469C136.114 162.28 135.173 164.984 133.695 167.399C130.625 173.079 126.625 178.589 120.855 181.489C116.025 183.919 109.705 185.489 105.105 181.919C104.291 181.286 103.574 180.538 102.975 179.699Z" stroke="white" stroke-opacity="0.5" stroke-width="0.75" stroke-linecap="round" stroke-linejoin="round"/>
<path d="M87.5646 180.239C87.0233 178.315 86.8636 176.304 87.0946 174.319C87.8346 167.469 92.5346 159.159 99.3446 156.769C102.785 155.569 106.975 155.599 110.465 154.469C116.265 152.589 118.615 148.139 121.275 144.289C125.125 138.699 132.425 135.699 138.535 139.419C148.255 145.259 147.975 165.719 141.535 173.639C135.813 180.24 128.886 185.691 121.125 189.699C115.065 192.699 107.995 193.949 101.475 192.209C94.9546 190.469 89.3246 186.349 87.5646 180.239Z" stroke="#AECC53" stroke-width="0.75" stroke-linecap="round" stroke-linejoin="round"/>
<path d="M87.5646 180.239C87.0233 178.315 86.8636 176.304 87.0946 174.319C87.8346 167.469 92.5346 159.159 99.3446 156.769C102.785 155.569 106.975 155.599 110.465 154.469C116.265 152.589 118.615 148.139 121.275 144.289C125.125 138.699 132.425 135.699 138.535 139.419C148.255 145.259 147.975 165.719 141.535 173.639C135.813 180.24 128.886 185.691 121.125 189.699C115.065 192.699 107.995 193.949 101.475 192.209C94.9546 190.469 89.3246 186.349 87.5646 180.239Z" stroke="white" stroke-opacity="0.5" stroke-width="0.75" stroke-linecap="round" stroke-linejoin="round"/>
<path d="M153.705 131.299C157.535 140.719 157.595 151.299 155.625 161.299C154.175 168.609 151.545 175.899 146.575 181.449C142.575 185.959 137.205 189.059 131.965 192.079C125.575 195.769 119.095 199.499 111.965 201.519C104.835 203.539 96.9646 203.709 90.3546 200.419C82.9546 196.739 78.0946 189.169 75.7946 181.239C73.4946 173.309 71.6146 167.389 73.0046 159.239C73.7846 154.629 74.7046 149.959 78.0046 146.459C82.5646 141.699 89.3646 138.549 95.6746 141.589C98.7546 143.079 101.015 146.079 104.275 147.159C108.505 148.559 113.275 146.159 115.955 142.629C117.551 140.347 118.741 137.806 119.475 135.119C120.265 132.669 120.135 130.039 121.255 127.709C122.149 125.994 123.291 124.42 124.645 123.039C126.001 121.419 127.671 120.089 129.555 119.129C133.325 117.639 137.382 117.017 141.425 117.309C149.005 118.119 151.225 125.189 153.705 131.299Z" stroke="#AECC53" stroke-width="0.75" stroke-linecap="round" stroke-linejoin="round"/>
<path d="M153.705 131.299C157.535 140.719 157.595 151.299 155.625 161.299C154.175 168.609 151.545 175.899 146.575 181.449C142.575 185.959 137.205 189.059 131.965 192.079C125.575 195.769 119.095 199.499 111.965 201.519C104.835 203.539 96.9646 203.709 90.3546 200.419C82.9546 196.739 78.0946 189.169 75.7946 181.239C73.4946 173.309 71.6146 167.389 73.0046 159.239C73.7846 154.629 74.7046 149.959 78.0046 146.459C82.5646 141.699 89.3646 138.549 95.6746 141.589C98.7546 143.079 101.015 146.079 104.275 147.159C108.505 148.559 113.275 146.159 115.955 142.629C117.551 140.347 118.741 137.806 119.475 135.119C120.265 132.669 120.135 130.039 121.255 127.709C122.149 125.994 123.291 124.42 124.645 123.039C126.001 121.419 127.671 120.089 129.555 119.129C133.325 117.639 137.382 117.017 141.425 117.309C149.005 118.119 151.225 125.189 153.705 131.299Z" stroke="white" stroke-opacity="0.5" stroke-width="0.75" stroke-linecap="round" stroke-linejoin="round"/>
<path d="M64.1246 135.699C66.6646 130.349 70.4446 124.949 75.4946 121.699C80.5446 118.449 87.0546 123.559 90.1446 127.489C92.1446 130.079 93.9146 133.199 96.9446 134.489C101.075 136.289 105.855 133.919 109.225 130.929C111.887 128.581 114.162 125.827 115.965 122.769C118.645 118.219 121.085 114.639 125.915 112.289C130.534 110.015 135.665 108.982 140.805 109.289C145.13 109.512 149.335 110.792 153.052 113.017C156.769 115.241 159.884 118.342 162.125 122.049C167.495 131.239 164.715 141.439 163.895 151.429C162.895 163.999 160.775 177.429 152.015 186.549C142.285 196.639 131.015 205.849 117.365 209.829C99.3646 215.059 77.3646 209.059 66.3046 193.199C60.1446 184.329 58.3046 173.139 58.2246 162.339C58.2922 153.143 60.3028 144.064 64.1246 135.699V135.699Z" stroke="#AECC53" stroke-width="0.75" stroke-linecap="round" stroke-linejoin="round"/>
<path d="M64.1246 135.699C66.6646 130.349 70.4446 124.949 75.4946 121.699C80.5446 118.449 87.0546 123.559 90.1446 127.489C92.1446 130.079 93.9146 133.199 96.9446 134.489C101.075 136.289 105.855 133.919 109.225 130.929C111.887 128.581 114.162 125.827 115.965 122.769C118.645 118.219 121.085 114.639 125.915 112.289C130.534 110.015 135.665 108.982 140.805 109.289C145.13 109.512 149.335 110.792 153.052 113.017C156.769 115.241 159.884 118.342 162.125 122.049C167.495 131.239 164.715 141.439 163.895 151.429C162.895 163.999 160.775 177.429 152.015 186.549C142.285 196.639 131.015 205.849 117.365 209.829C99.3646 215.059 77.3646 209.059 66.3046 193.199C60.1446 184.329 58.3046 173.139 58.2246 162.339C58.2922 153.143 60.3028 144.064 64.1246 135.699V135.699Z" stroke="white" stroke-opacity="0.5" stroke-width="0.75" stroke-linecap="round" stroke-linejoin="round"/>
<path d="M91.3146 43.3891C93.5446 39.5191 91.5546 33.5991 98.4746 31.4791C101.205 30.6391 106.315 31.3691 109.475 30.8291C118.325 29.3291 121.205 19.1991 113.325 14.0591C105.865 9.18912 95.8246 12.4191 88.6346 16.0591C81.9546 19.3891 74.9946 23.5691 72.1646 30.4791C69.8646 36.0991 68.5946 45.0791 75.3146 47.8491C80.2046 49.8191 88.5046 48.2791 91.3146 43.3891Z" stroke="#AECC53" stroke-width="0.75" stroke-linecap="round" stroke-linejoin="round"/>
<path d="M91.3146 43.3891C93.5446 39.5191 91.5546 33.5991 98.4746 31.4791C101.205 30.6391 106.315 31.3691 109.475 30.8291C118.325 29.3291 121.205 19.1991 113.325 14.0591C105.865 9.18912 95.8246 12.4191 88.6346 16.0591C81.9546 19.3891 74.9946 23.5691 72.1646 30.4791C69.8646 36.0991 68.5946 45.0791 75.3146 47.8491C80.2046 49.8191 88.5046 48.2791 91.3146 43.3891Z" stroke="white" stroke-opacity="0.5" stroke-width="0.75" stroke-linecap="round" stroke-linejoin="round"/>
<path d="M95.8747 60.4791C101.195 58.2791 104.195 54.1191 104.415 50.0091C104.362 49.1732 104.51 48.3368 104.845 47.5691C106.235 45.1391 111.175 44.8391 115.105 44.4691C122.955 43.7291 128.665 40.2691 131.405 32.4691C132.48 29.2242 132.816 25.7795 132.387 22.3879C131.958 18.9963 130.775 15.7438 128.925 12.8691C123.615 4.50913 113.215 3.48913 104.215 4.63913C84.0247 7.16913 60.9147 21.8691 63.8847 45.0991C65.7247 59.4791 83.3747 65.6391 95.8747 60.4791Z" stroke="#AECC53" stroke-width="0.75" stroke-linecap="round" stroke-linejoin="round"/>
<path d="M95.8747 60.4791C101.195 58.2791 104.195 54.1191 104.415 50.0091C104.362 49.1732 104.51 48.3368 104.845 47.5691C106.235 45.1391 111.175 44.8391 115.105 44.4691C122.955 43.7291 128.665 40.2691 131.405 32.4691C132.48 29.2242 132.816 25.7795 132.387 22.3879C131.958 18.9963 130.775 15.7438 128.925 12.8691C123.615 4.50913 113.215 3.48913 104.215 4.63913C84.0247 7.16913 60.9147 21.8691 63.8847 45.0991C65.7247 59.4791 83.3747 65.6391 95.8747 60.4791Z" stroke="white" stroke-opacity="0.5" stroke-width="0.75" stroke-linecap="round" stroke-linejoin="round"/>
<path d="M106.125 89.0391C106.435 85.2191 107.255 81.6491 111.185 79.3891C116.375 76.3891 122.395 78.1091 127.965 76.7791C132.145 75.7791 136.785 72.3491 139.965 69.5191C147.405 62.9891 151.765 53.2191 152.745 43.4591C153.905 31.9791 151.745 12.2791 141.935 4.7791C129.935 -4.3409 116.175 -7.6909 101.235 -6.2809C85.1247 -4.7509 65.1247 4.8191 56.3247 18.7791C47.6347 32.5191 41.9147 50.0991 44.9347 66.4191C47.9347 82.3191 61.4447 95.4191 75.5647 102.149C79.7847 104.149 84.2047 105.979 88.8647 106.449C93.5247 106.919 98.4847 105.919 102.055 102.889C106.235 99.3391 105.765 93.9791 106.125 89.0391Z" stroke="#AECC53" stroke-width="0.75" stroke-linecap="round" stroke-linejoin="round"/>
<path d="M106.125 89.0391C106.435 85.2191 107.255 81.6491 111.185 79.3891C116.375 76.3891 122.395 78.1091 127.965 76.7791C132.145 75.7791 136.785 72.3491 139.965 69.5191C147.405 62.9891 151.765 53.2191 152.745 43.4591C153.905 31.9791 151.745 12.2791 141.935 4.7791C129.935 -4.3409 116.175 -7.6909 101.235 -6.2809C85.1247 -4.7509 65.1247 4.8191 56.3247 18.7791C47.6347 32.5191 41.9147 50.0991 44.9347 66.4191C47.9347 82.3191 61.4447 95.4191 75.5647 102.149C79.7847 104.149 84.2047 105.979 88.8647 106.449C93.5247 106.919 98.4847 105.919 102.055 102.889C106.235 99.3391 105.765 93.9791 106.125 89.0391Z" stroke="white" stroke-opacity="0.5" stroke-width="0.75" stroke-linecap="round" stroke-linejoin="round"/>
<path d="M54.0647 49.4091C54.0826 58.4126 57.4801 67.0812 63.5847 73.6991C69.4447 79.9491 79.1547 85.2391 87.9747 84.8291C94.9747 84.5091 105.975 80.5591 108.075 73.1291C108.213 72.2432 108.574 71.4071 109.125 70.6991C110.825 68.8991 114.725 68.9291 117.945 68.6391C126.405 67.8691 135.855 59.8791 139.645 52.3591C141.901 47.4917 143.133 42.2125 143.265 36.8491C144.385 16.1991 132.555 -1.15086 110.755 -1.63086C101.805 -1.82086 93.1547 0.789137 84.8547 3.88914C68.7947 9.88914 56.6047 28.2691 54.3447 44.8291C54.1474 46.3477 54.0538 47.8779 54.0647 49.4091V49.4091Z" stroke="#AECC53" stroke-width="0.75" stroke-linecap="round" stroke-linejoin="round"/>
<path d="M54.0647 49.4091C54.0826 58.4126 57.4801 67.0812 63.5847 73.6991C69.4447 79.9491 79.1547 85.2391 87.9747 84.8291C94.9747 84.5091 105.975 80.5591 108.075 73.1291C108.213 72.2432 108.574 71.4071 109.125 70.6991C110.825 68.8991 114.725 68.9291 117.945 68.6391C126.405 67.8691 135.855 59.8791 139.645 52.3591C141.901 47.4917 143.133 42.2125 143.265 36.8491C144.385 16.1991 132.555 -1.15086 110.755 -1.63086C101.805 -1.82086 93.1547 0.789137 84.8547 3.88914C68.7947 9.88914 56.6047 28.2691 54.3447 44.8291C54.1474 46.3477 54.0538 47.8779 54.0647 49.4091V49.4091Z" stroke="white" stroke-opacity="0.5" stroke-width="0.75" stroke-linecap="round" stroke-linejoin="round"/>
<path d="M37.0246 83.0391C32.4746 81.6891 27.4246 83.3991 23.8146 86.4791C20.2046 89.5591 17.8146 93.8291 15.9146 98.1691C5.65462 121.389 6.97462 148.839 16.8146 172.249C18.9346 177.249 21.4846 182.249 25.3546 186.079C29.2246 189.909 34.6146 192.529 40.0446 192.009C40.8864 191.979 41.7032 191.716 42.4046 191.249C43.2101 190.501 43.7506 189.511 43.9446 188.429C49.2646 169.259 40.5646 147.429 49.1346 129.499C54.1346 119.059 61.5146 112.739 53.7246 102.299C49.0446 96.0091 45.1946 85.4791 37.0246 83.0391Z" stroke="#AECC53" stroke-width="0.75" stroke-linecap="round" stroke-linejoin="round"/>
<path d="M37.0246 83.0391C32.4746 81.6891 27.4246 83.3991 23.8146 86.4791C20.2046 89.5591 17.8146 93.8291 15.9146 98.1691C5.65462 121.389 6.97462 148.839 16.8146 172.249C18.9346 177.249 21.4846 182.249 25.3546 186.079C29.2246 189.909 34.6146 192.529 40.0446 192.009C40.8864 191.979 41.7032 191.716 42.4046 191.249C43.2101 190.501 43.7506 189.511 43.9446 188.429C49.2646 169.259 40.5646 147.429 49.1346 129.499C54.1346 119.059 61.5146 112.739 53.7246 102.299C49.0446 96.0091 45.1946 85.4791 37.0246 83.0391Z" stroke="white" stroke-opacity="0.5" stroke-width="0.75" stroke-linecap="round" stroke-linejoin="round"/>
<path d="M45.1246 113.279C46.2946 119.429 43.3246 125.509 41.9446 131.629C39.6146 141.869 41.7346 152.719 39.5046 162.989C38.9746 165.459 37.6446 168.339 35.1246 168.499C32.9446 168.639 31.2846 166.629 30.1846 164.749C23.7346 153.669 22.9246 140.319 22.2646 127.519C21.8946 120.299 20.9746 107.889 28.2646 103.319C34.9946 99.0092 43.7846 106.469 45.1246 113.279Z" stroke="#AECC53" stroke-width="0.75" stroke-linecap="round" stroke-linejoin="round"/>
<path d="M45.1246 113.279C46.2946 119.429 43.3246 125.509 41.9446 131.629C39.6146 141.869 41.7346 152.719 39.5046 162.989C38.9746 165.459 37.6446 168.339 35.1246 168.499C32.9446 168.639 31.2846 166.629 30.1846 164.749C23.7346 153.669 22.9246 140.319 22.2646 127.519C21.8946 120.299 20.9746 107.889 28.2646 103.319C34.9946 99.0092 43.7846 106.469 45.1246 113.279Z" stroke="white" stroke-opacity="0.5" stroke-width="0.75" stroke-linecap="round" stroke-linejoin="round"/>
<path d="M37.4347 134.329C37.5291 135.724 37.209 137.116 36.5147 138.329C34.8747 140.589 31.0347 139.979 29.3147 137.779C27.5947 135.579 27.4647 132.559 27.7147 129.779C28.027 126.301 28.7935 122.878 29.9947 119.599C30.5297 117.773 31.6245 116.16 33.1247 114.989C40.6047 109.979 37.5147 131.079 37.4347 134.329Z" stroke="#AECC53" stroke-width="0.75" stroke-linecap="round" stroke-linejoin="round"/>
<path d="M37.4347 134.329C37.5291 135.724 37.209 137.116 36.5147 138.329C34.8747 140.589 31.0347 139.979 29.3147 137.779C27.5947 135.579 27.4647 132.559 27.7147 129.779C28.027 126.301 28.7935 122.878 29.9947 119.599C30.5297 117.773 31.6245 116.16 33.1247 114.989C40.6047 109.979 37.5147 131.079 37.4347 134.329Z" stroke="white" stroke-opacity="0.5" stroke-width="0.75" stroke-linecap="round" stroke-linejoin="round"/>
<path d="M165.705 43.0891C163.145 53.8191 157.895 64.1891 158.445 75.1992C159.785 101.639 192.245 110.379 205.585 129.979C213.105 140.979 215.795 154.979 224.135 165.379C225.355 166.899 226.875 168.379 228.815 168.599C231.565 168.849 233.715 166.309 235.055 163.899C243.385 148.899 239.995 129.049 238.375 112.739C236.51 93.9823 232.717 75.4677 227.055 57.4891C223.206 45.7229 218.393 34.2941 212.665 23.3191C207.765 13.6091 200.605 4.11915 189.735 0.889148C180.545 -1.85085 167.235 1.69915 165.985 12.8891C165.545 16.8191 167.295 21.3291 167.455 25.3091C167.685 31.2879 167.096 37.27 165.705 43.0891Z" stroke="#AECC53" stroke-width="0.75" stroke-linecap="round" stroke-linejoin="round"/>
<path d="M165.705 43.0891C163.145 53.8191 157.895 64.1891 158.445 75.1992C159.785 101.639 192.245 110.379 205.585 129.979C213.105 140.979 215.795 154.979 224.135 165.379C225.355 166.899 226.875 168.379 228.815 168.599C231.565 168.849 233.715 166.309 235.055 163.899C243.385 148.899 239.995 129.049 238.375 112.739C236.51 93.9823 232.717 75.4677 227.055 57.4891C223.206 45.7229 218.393 34.2941 212.665 23.3191C207.765 13.6091 200.605 4.11915 189.735 0.889148C180.545 -1.85085 167.235 1.69915 165.985 12.8891C165.545 16.8191 167.295 21.3291 167.455 25.3091C167.685 31.2879 167.096 37.27 165.705 43.0891Z" stroke="white" stroke-opacity="0.5" stroke-width="0.75" stroke-linecap="round" stroke-linejoin="round"/>
<path d="M216.585 65.8092C217.585 68.8092 218.525 71.8091 219.585 74.7191C224.745 89.5791 231.165 109.719 226.805 125.429C226.595 126.497 226.085 127.482 225.335 128.269C224.644 128.779 223.815 129.069 222.957 129.101C222.099 129.134 221.252 128.906 220.525 128.449C219.089 127.514 217.847 126.312 216.865 124.909C209.97 116.429 201.988 108.894 193.125 102.499C178.565 91.9692 164.645 81.7992 167.775 61.4992C168.855 54.4992 172.285 48.2091 174.235 41.4991C175.375 37.5691 176.015 33.4992 177.665 29.6992C178.735 27.2592 180.215 24.2892 182.505 22.6992C195.125 14.1792 208.125 44.5991 211.555 52.3691C213.454 56.7624 215.133 61.2481 216.585 65.8092V65.8092Z" stroke="#AECC53" stroke-width="0.75" stroke-linecap="round" stroke-linejoin="round"/>
<path d="M216.585 65.8092C217.585 68.8092 218.525 71.8091 219.585 74.7191C224.745 89.5791 231.165 109.719 226.805 125.429C226.595 126.497 226.085 127.482 225.335 128.269C224.644 128.779 223.815 129.069 222.957 129.101C222.099 129.134 221.252 128.906 220.525 128.449C219.089 127.514 217.847 126.312 216.865 124.909C209.97 116.429 201.988 108.894 193.125 102.499C178.565 91.9692 164.645 81.7992 167.775 61.4992C168.855 54.4992 172.285 48.2091 174.235 41.4991C175.375 37.5691 176.015 33.4992 177.665 29.6992C178.735 27.2592 180.215 24.2892 182.505 22.6992C195.125 14.1792 208.125 44.5991 211.555 52.3691C213.454 56.7624 215.133 61.2481 216.585 65.8092V65.8092Z" stroke="white" stroke-opacity="0.5" stroke-width="0.75" stroke-linecap="round" stroke-linejoin="round"/>
<path d="M216.965 94.2892C216.643 91.4643 216.162 88.6598 215.525 85.8892C212.985 73.8892 207.765 45.3792 192.725 42.4892C190.013 42.0272 187.226 42.598 184.915 44.0892C177.225 48.6992 178.125 65.6992 179.455 73.1592C181.925 87.1592 195.115 95.0092 206.835 100.919C216.125 105.589 217.545 100.699 216.965 94.2892Z" stroke="#AECC53" stroke-width="0.75" stroke-linecap="round" stroke-linejoin="round"/>
<path d="M216.965 94.2892C216.643 91.4643 216.162 88.6598 215.525 85.8892C212.985 73.8892 207.765 45.3792 192.725 42.4892C190.013 42.0272 187.226 42.598 184.915 44.0892C177.225 48.6992 178.125 65.6992 179.455 73.1592C181.925 87.1592 195.115 95.0092 206.835 100.919C216.125 105.589 217.545 100.699 216.965 94.2892Z" stroke="white" stroke-opacity="0.5" stroke-width="0.75" stroke-linecap="round" stroke-linejoin="round"/>
<path d="M194.855 74.5891C195.025 70.2491 194.725 57.2891 190.125 54.9591C187.375 53.5691 183.575 55.9591 183.125 58.7391C182.117 64.7969 182.632 71.0103 184.625 76.8191C185.625 79.6691 187.795 82.8791 190.755 82.3691C191.534 82.1848 192.254 81.8056 192.847 81.2668C193.44 80.7281 193.887 80.0476 194.145 79.2891C194.651 77.7753 194.892 76.1851 194.855 74.5891V74.5891Z" stroke="#AECC53" stroke-width="0.75" stroke-linecap="round" stroke-linejoin="round"/>
<path d="M194.855 74.5891C195.025 70.2491 194.725 57.2891 190.125 54.9591C187.375 53.5691 183.575 55.9591 183.125 58.7391C182.117 64.7969 182.632 71.0103 184.625 76.8191C185.625 79.6691 187.795 82.8791 190.755 82.3691C191.534 82.1848 192.254 81.8056 192.847 81.2668C193.44 80.7281 193.887 80.0476 194.145 79.2891C194.651 77.7753 194.892 76.1851 194.855 74.5891V74.5891Z" stroke="white" stroke-opacity="0.5" stroke-width="0.75" stroke-linecap="round" stroke-linejoin="round"/>
<path d="M123.925 275.699C117.345 280.499 109.095 282.809 101.015 283.059C96.4742 283.085 91.9423 282.663 87.4846 281.799C72.2646 279.269 57.3946 275.349 44.8146 266.069C39.5773 262.12 34.8125 257.58 30.6146 252.539C21.1446 241.429 12.9546 219.299 32.6146 213.929C36.9248 212.835 41.4686 213.112 45.6146 214.719C48.7346 215.909 50.2746 218.719 53.1046 220.439C60.2446 224.699 69.1046 225.169 77.2146 224.539C88.3546 223.679 99.3346 222.319 110.395 220.789C113.415 220.237 116.494 220.083 119.555 220.329C122.661 220.591 125.538 222.072 127.555 224.449C129.165 226.569 129.725 229.279 130.155 231.909C131.781 241.936 132.198 252.123 131.395 262.249C130.815 268.249 128.805 272.189 123.925 275.699Z" stroke="#AECC53" stroke-width="0.75" stroke-linecap="round" stroke-linejoin="round"/>
<path d="M123.925 275.699C117.345 280.499 109.095 282.809 101.015 283.059C96.4742 283.085 91.9423 282.663 87.4846 281.799C72.2646 279.269 57.3946 275.349 44.8146 266.069C39.5773 262.12 34.8125 257.58 30.6146 252.539C21.1446 241.429 12.9546 219.299 32.6146 213.929C36.9248 212.835 41.4686 213.112 45.6146 214.719C48.7346 215.909 50.2746 218.719 53.1046 220.439C60.2446 224.699 69.1046 225.169 77.2146 224.539C88.3546 223.679 99.3346 222.319 110.395 220.789C113.415 220.237 116.494 220.083 119.555 220.329C122.661 220.591 125.538 222.072 127.555 224.449C129.165 226.569 129.725 229.279 130.155 231.909C131.781 241.936 132.198 252.123 131.395 262.249C130.815 268.249 128.805 272.189 123.925 275.699Z" stroke="white" stroke-opacity="0.5" stroke-width="0.75" stroke-linecap="round" stroke-linejoin="round"/>
<path d="M80.3146 272.219C88.6646 273.869 96.8646 274.819 105.115 271.909C112.645 269.259 117.355 262.909 119.115 255.339C120.545 249.339 121.875 237.439 117.895 232.179C116.555 230.409 114.205 229.739 111.985 229.519C109.59 229.343 107.185 229.366 104.795 229.589L76.6546 231.439C68.8146 231.949 60.5546 232.309 53.2246 228.859C48.0846 226.439 42.9446 223.309 37.2246 222.559C33.4246 222.069 29.7946 222.989 27.3946 226.119C20.3246 235.379 31.2046 246.649 37.7946 252.479C47.4842 261.146 59.1628 267.287 71.7946 270.359C74.6146 271.059 77.4646 271.699 80.3146 272.219Z" stroke="#AECC53" stroke-width="0.75" stroke-linecap="round" stroke-linejoin="round"/>
<path d="M80.3146 272.219C88.6646 273.869 96.8646 274.819 105.115 271.909C112.645 269.259 117.355 262.909 119.115 255.339C120.545 249.339 121.875 237.439 117.895 232.179C116.555 230.409 114.205 229.739 111.985 229.519C109.59 229.343 107.185 229.366 104.795 229.589L76.6546 231.439C68.8146 231.949 60.5546 232.309 53.2246 228.859C48.0846 226.439 42.9446 223.309 37.2246 222.559C33.4246 222.069 29.7946 222.989 27.3946 226.119C20.3246 235.379 31.2046 246.649 37.7946 252.479C47.4842 261.146 59.1628 267.287 71.7946 270.359C74.6146 271.059 77.4646 271.699 80.3146 272.219Z" stroke="white" stroke-opacity="0.5" stroke-width="0.75" stroke-linecap="round" stroke-linejoin="round"/>
<path d="M-15.7754 85.9191C-15.6254 86.6291 -15.4654 87.3391 -15.3154 88.0391C-14.6254 91.1891 -13.8054 94.5591 -11.3854 96.6691C-7.3854 100.129 -1.1754 98.6691 3.2646 95.8191C10.2523 91.3056 15.2776 84.3195 17.3346 76.2591C18.3346 72.3191 17.4646 68.4291 18.2246 64.6291C19.2246 59.3691 22.2846 53.9091 23.9846 48.7691L32.0646 24.2891C37.1346 8.92914 24.9146 -1.94086 10.8646 -4.01086C3.26461 -5.13086 -5.1354 -4.80086 -11.2654 -0.220857C-17.1412 4.39147 -20.9927 11.1083 -22.0054 18.5091C-25.0854 42.0191 -20.7554 63.1691 -15.7754 85.9191Z" stroke="#AECC53" stroke-width="0.75" stroke-linecap="round" stroke-linejoin="round"/>
<path d="M-15.7754 85.9191C-15.6254 86.6291 -15.4654 87.3391 -15.3154 88.0391C-14.6254 91.1891 -13.8054 94.5591 -11.3854 96.6691C-7.3854 100.129 -1.1754 98.6691 3.2646 95.8191C10.2523 91.3056 15.2776 84.3195 17.3346 76.2591C18.3346 72.3191 17.4646 68.4291 18.2246 64.6291C19.2246 59.3691 22.2846 53.9091 23.9846 48.7691L32.0646 24.2891C37.1346 8.92914 24.9146 -1.94086 10.8646 -4.01086C3.26461 -5.13086 -5.1354 -4.80086 -11.2654 -0.220857C-17.1412 4.39147 -20.9927 11.1083 -22.0054 18.5091C-25.0854 42.0191 -20.7554 63.1691 -15.7754 85.9191Z" stroke="white" stroke-opacity="0.5" stroke-width="0.75" stroke-linecap="round" stroke-linejoin="round"/>
<path d="M-12.7653 52.9691C-10.9253 58.9691 -9.44531 73.5491 -2.37531 76.8491C6.62469 81.0591 13.1247 62.0391 14.7847 55.0291C16.5347 47.5991 17.1747 39.9591 18.7847 32.5091C20.2847 25.6991 22.5447 20.3191 16.9347 14.5091C13.8569 11.5201 9.96965 9.49994 5.7547 8.69912C3.93388 8.23092 2.04294 8.09876 0.174694 8.30912C-1.7039 8.66206 -3.51578 9.30651 -5.1953 10.2191C-9.9653 12.5391 -15.0053 15.8391 -16.0853 21.0391C-18.3353 31.7791 -15.8753 42.6991 -12.7653 52.9691Z" stroke="#AECC53" stroke-width="0.75" stroke-linecap="round" stroke-linejoin="round"/>
<path d="M-12.7653 52.9691C-10.9253 58.9691 -9.44531 73.5491 -2.37531 76.8491C6.62469 81.0591 13.1247 62.0391 14.7847 55.0291C16.5347 47.5991 17.1747 39.9591 18.7847 32.5091C20.2847 25.6991 22.5447 20.3191 16.9347 14.5091C13.8569 11.5201 9.96965 9.49994 5.7547 8.69912C3.93388 8.23092 2.04294 8.09876 0.174694 8.30912C-1.7039 8.66206 -3.51578 9.30651 -5.1953 10.2191C-9.9653 12.5391 -15.0053 15.8391 -16.0853 21.0391C-18.3353 31.7791 -15.8753 42.6991 -12.7653 52.9691Z" stroke="white" stroke-opacity="0.5" stroke-width="0.75" stroke-linecap="round" stroke-linejoin="round"/>
<path d="M-7.73531 30.2692C-7.86531 30.6592 -7.98531 31.0592 -8.09531 31.4792C-9.74531 37.9692 -7.09531 44.3892 -5.42531 50.5492C-4.42531 54.1292 -2.42531 58.5492 1.25469 58.3692C3.12469 58.2992 4.72469 56.9892 5.96469 55.5792C8.97014 52.0139 10.7651 47.586 11.0904 42.9343C11.4157 38.2827 10.2546 33.648 7.77469 29.6992C3.31469 22.9092 -4.95531 22.3692 -7.73531 30.2692Z" stroke="#AECC53" stroke-width="0.75" stroke-linecap="round" stroke-linejoin="round"/>
<path d="M-7.73531 30.2692C-7.86531 30.6592 -7.98531 31.0592 -8.09531 31.4792C-9.74531 37.9692 -7.09531 44.3892 -5.42531 50.5492C-4.42531 54.1292 -2.42531 58.5492 1.25469 58.3692C3.12469 58.2992 4.72469 56.9892 5.96469 55.5792C8.97014 52.0139 10.7651 47.586 11.0904 42.9343C11.4157 38.2827 10.2546 33.648 7.77469 29.6992C3.31469 22.9092 -4.95531 22.3692 -7.73531 30.2692Z" stroke="white" stroke-opacity="0.5" stroke-width="0.75" stroke-linecap="round" stroke-linejoin="round"/>
<path d="M23.2047 269.839C22.3947 268.999 21.5347 268.189 20.7247 267.389C14.9247 261.679 10.7247 254.529 6.92465 247.389C4.02465 241.979 3.82465 234.619 4.33465 228.519C4.75465 223.519 7.41465 218.519 9.06465 213.799C10.4247 209.909 11.4647 205.179 8.81465 202.029C7.18465 200.089 4.54465 199.329 2.03465 198.949C-3.13952 198.011 -8.47531 198.62 -13.3053 200.699C-23.3053 205.389 -24.9853 215.799 -25.6853 225.699C-26.5353 237.879 -25.5553 250.109 -24.0353 262.199L-23.9453 262.919C-23.6902 265.637 -23.1437 268.319 -22.3153 270.919C-18.8853 280.529 -10.3153 282.839 -1.55535 285.179C5.25465 286.999 14.4447 287.869 21.0347 284.749C24.3747 283.169 27.1347 279.749 26.7447 276.079C26.4947 273.699 24.9647 271.699 23.2047 269.839Z" stroke="#AECC53" stroke-width="0.75" stroke-linecap="round" stroke-linejoin="round"/>
<path d="M23.2047 269.839C22.3947 268.999 21.5347 268.189 20.7247 267.389C14.9247 261.679 10.7247 254.529 6.92465 247.389C4.02465 241.979 3.82465 234.619 4.33465 228.519C4.75465 223.519 7.41465 218.519 9.06465 213.799C10.4247 209.909 11.4647 205.179 8.81465 202.029C7.18465 200.089 4.54465 199.329 2.03465 198.949C-3.13952 198.011 -8.47531 198.62 -13.3053 200.699C-23.3053 205.389 -24.9853 215.799 -25.6853 225.699C-26.5353 237.879 -25.5553 250.109 -24.0353 262.199L-23.9453 262.919C-23.6902 265.637 -23.1437 268.319 -22.3153 270.919C-18.8853 280.529 -10.3153 282.839 -1.55535 285.179C5.25465 286.999 14.4447 287.869 21.0347 284.749C24.3747 283.169 27.1347 279.749 26.7447 276.079C26.4947 273.699 24.9647 271.699 23.2047 269.839Z" stroke="white" stroke-opacity="0.5" stroke-width="0.75" stroke-linecap="round" stroke-linejoin="round"/>
<path d="M3.63468 257.579C1.20092 254.263 -0.814308 250.659 -2.36532 246.849C-4.06532 242.669 -6.36532 236.849 -5.36532 232.269C-4.96115 230.687 -4.38435 229.155 -3.64532 227.699L1.35468 217.279C2.35468 215.209 3.35468 212.859 2.53468 210.709C2.16676 209.862 1.5838 209.125 0.84358 208.573C0.103361 208.02 -0.768409 207.671 -1.68532 207.559C-3.52876 207.343 -5.39428 207.692 -7.03532 208.559C-12.0353 210.989 -16.4253 217.249 -18.5453 222.269C-22.1953 230.889 -21.5453 240.679 -19.9253 249.679C-17.6353 262.679 -12.7653 278.129 2.79468 278.919C6.62468 279.119 10.8547 277.129 11.9647 273.459C12.2514 272.236 12.2848 270.967 12.063 269.731C11.8411 268.494 11.3687 267.316 10.6747 266.269C9.27783 264.189 7.70183 262.235 5.96468 260.429C5.12468 259.529 4.36468 258.569 3.63468 257.579Z" stroke="#AECC53" stroke-width="0.75" stroke-linecap="round" stroke-linejoin="round"/>
<path d="M3.63468 257.579C1.20092 254.263 -0.814308 250.659 -2.36532 246.849C-4.06532 242.669 -6.36532 236.849 -5.36532 232.269C-4.96115 230.687 -4.38435 229.155 -3.64532 227.699L1.35468 217.279C2.35468 215.209 3.35468 212.859 2.53468 210.709C2.16676 209.862 1.5838 209.125 0.84358 208.573C0.103361 208.02 -0.768409 207.671 -1.68532 207.559C-3.52876 207.343 -5.39428 207.692 -7.03532 208.559C-12.0353 210.989 -16.4253 217.249 -18.5453 222.269C-22.1953 230.889 -21.5453 240.679 -19.9253 249.679C-17.6353 262.679 -12.7653 278.129 2.79468 278.919C6.62468 279.119 10.8547 277.129 11.9647 273.459C12.2514 272.236 12.2848 270.967 12.063 269.731C11.8411 268.494 11.3687 267.316 10.6747 266.269C9.27783 264.189 7.70183 262.235 5.96468 260.429C5.12468 259.529 4.36468 258.569 3.63468 257.579Z" stroke="white" stroke-opacity="0.5" stroke-width="0.75" stroke-linecap="round" stroke-linejoin="round"/>
<path d="M232.535 1.53914C241.655 8.44914 243.715 28.8291 241.345 37.5391C241.165 38.6165 240.613 39.5967 239.785 40.3091C239.267 40.6126 238.675 40.7667 238.075 40.7543C237.475 40.742 236.89 40.5637 236.385 40.2391C235.382 39.5847 234.535 38.7175 233.905 37.6991C228.463 29.6113 223.665 21.1085 219.555 12.2691C217.875 8.74914 215.195 2.33914 219.955 0.399144C225.125 -1.68086 229.275 -0.930857 232.535 1.53914Z" stroke="#AECC53" stroke-width="0.75" stroke-linecap="round" stroke-linejoin="round"/>
<path d="M232.535 1.53914C241.655 8.44914 243.715 28.8291 241.345 37.5391C241.165 38.6165 240.613 39.5967 239.785 40.3091C239.267 40.6126 238.675 40.7667 238.075 40.7543C237.475 40.742 236.89 40.5637 236.385 40.2391C235.382 39.5847 234.535 38.7175 233.905 37.6991C228.463 29.6113 223.665 21.1085 219.555 12.2691C217.875 8.74914 215.195 2.33914 219.955 0.399144C225.125 -1.68086 229.275 -0.930857 232.535 1.53914Z" stroke="white" stroke-opacity="0.5" stroke-width="0.75" stroke-linecap="round" stroke-linejoin="round"/>
<path d="M-19.3353 176.309C-20.0906 174.527 -20.5402 172.631 -20.6653 170.699C-22.2553 155.209 -17.8253 136.979 -6.97532 125.559C-6.12091 124.551 -5.06491 123.734 -3.87532 123.159C-3.26822 122.878 -2.59753 122.764 -1.93169 122.827C-1.26586 122.89 -0.628721 123.129 -0.0853214 123.519C1.22468 124.609 1.27468 126.519 1.22468 128.269C0.994676 135.749 -1.63532 142.889 -1.86532 150.389C-2.13532 159.019 -0.475322 172.029 4.23468 179.389C6.50468 182.919 8.87468 186.839 3.50468 188.329C-2.68532 190.039 -16.6453 181.819 -19.3353 176.309Z" stroke="#AECC53" stroke-width="0.75" stroke-linecap="round" stroke-linejoin="round"/>
<path d="M-19.3353 176.309C-20.0906 174.527 -20.5402 172.631 -20.6653 170.699C-22.2553 155.209 -17.8253 136.979 -6.97532 125.559C-6.12091 124.551 -5.06491 123.734 -3.87532 123.159C-3.26822 122.878 -2.59753 122.764 -1.93169 122.827C-1.26586 122.89 -0.628721 123.129 -0.0853214 123.519C1.22468 124.609 1.27468 126.519 1.22468 128.269C0.994676 135.749 -1.63532 142.889 -1.86532 150.389C-2.13532 159.019 -0.475322 172.029 4.23468 179.389C6.50468 182.919 8.87468 186.839 3.50468 188.329C-2.68532 190.039 -16.6453 181.819 -19.3353 176.309Z" stroke="white" stroke-opacity="0.5" stroke-width="0.75" stroke-linecap="round" stroke-linejoin="round"/>
<path d="M187.125 225.199C182.995 223.519 180.685 223.809 177.645 220.199C174.785 216.769 171.535 210.979 167.765 208.669C163.995 206.359 158.595 207.869 155.105 209.969C151.153 212.518 148.051 216.188 146.195 220.509C144.025 225.299 143.395 230.619 142.965 235.859C142.028 246.261 142.32 256.736 143.835 267.069C145.135 275.379 148.635 283.159 158.385 282.969C162.695 282.889 166.815 281.289 170.775 279.589C179.965 275.649 189.215 270.869 196.505 263.909C203.795 256.949 210.125 246.909 203.125 237.399C202.915 237.109 202.685 236.829 202.445 236.559C198.274 231.65 193.033 227.764 187.125 225.199V225.199Z" stroke="#AECC53" stroke-width="0.75" stroke-linecap="round" stroke-linejoin="round"/>
<path d="M187.125 225.199C182.995 223.519 180.685 223.809 177.645 220.199C174.785 216.769 171.535 210.979 167.765 208.669C163.995 206.359 158.595 207.869 155.105 209.969C151.153 212.518 148.051 216.188 146.195 220.509C144.025 225.299 143.395 230.619 142.965 235.859C142.028 246.261 142.32 256.736 143.835 267.069C145.135 275.379 148.635 283.159 158.385 282.969C162.695 282.889 166.815 281.289 170.775 279.589C179.965 275.649 189.215 270.869 196.505 263.909C203.795 256.949 210.125 246.909 203.125 237.399C202.915 237.109 202.685 236.829 202.445 236.559C198.274 231.65 193.033 227.764 187.125 225.199V225.199Z" stroke="white" stroke-opacity="0.5" stroke-width="0.75" stroke-linecap="round" stroke-linejoin="round"/>
<path d="M188.785 236.109C182.675 232.169 174.885 230.959 170.415 224.769C168.705 222.399 167.285 219.519 164.595 218.399C161.315 217.039 157.485 218.959 155.205 221.679C151.455 226.159 150.625 232.419 150.955 238.249C151.285 244.079 151.465 250.459 152.375 256.459C153.095 261.219 154.075 268.339 158.325 271.459C162.885 274.789 169.975 271.219 174.175 268.879C179.868 265.695 185.054 261.681 189.565 256.969C191.529 255.056 193.146 252.816 194.345 250.349C195.544 247.846 195.706 244.971 194.795 242.349C193.715 239.619 191.255 237.699 188.785 236.109Z" stroke="#AECC53" stroke-width="0.75" stroke-linecap="round" stroke-linejoin="round"/>
<path d="M188.785 236.109C182.675 232.169 174.885 230.959 170.415 224.769C168.705 222.399 167.285 219.519 164.595 218.399C161.315 217.039 157.485 218.959 155.205 221.679C151.455 226.159 150.625 232.419 150.955 238.249C151.285 244.079 151.465 250.459 152.375 256.459C153.095 261.219 154.075 268.339 158.325 271.459C162.885 274.789 169.975 271.219 174.175 268.879C179.868 265.695 185.054 261.681 189.565 256.969C191.529 255.056 193.146 252.816 194.345 250.349C195.544 247.846 195.706 244.971 194.795 242.349C193.715 239.619 191.255 237.699 188.785 236.109Z" stroke="white" stroke-opacity="0.5" stroke-width="0.75" stroke-linecap="round" stroke-linejoin="round"/>
<path d="M158.125 244.929C157.655 240.369 156.415 235.189 157.715 230.669C159.975 222.829 169.895 232.349 172.865 235.439C173.688 236.216 174.365 237.134 174.865 238.149C177.925 245.269 162.965 255.649 159.125 248.829C158.548 247.624 158.224 246.314 158.175 244.979L158.125 244.929Z" stroke="#AECC53" stroke-width="0.75" stroke-linecap="round" stroke-linejoin="round"/>
<path d="M158.125 244.929C157.655 240.369 156.415 235.189 157.715 230.669C159.975 222.829 169.895 232.349 172.865 235.439C173.688 236.216 174.365 237.134 174.865 238.149C177.925 245.269 162.965 255.649 159.125 248.829C158.548 247.624 158.224 246.314 158.175 244.979L158.125 244.929Z" stroke="white" stroke-opacity="0.5" stroke-width="0.75" stroke-linecap="round" stroke-linejoin="round"/>
<path d="M176.955 201.009C180.715 206.849 187.375 210.669 195.675 212.819C208.355 216.089 218.855 202.399 219.125 190.699C219.245 185.059 217.805 179.509 216.125 174.139C213.465 165.779 198.525 122.669 183.375 137.429C181.265 139.489 180.565 142.609 180.485 145.549C180.473 151.099 179.802 156.628 178.485 162.019C176.725 168.919 175.485 175.929 174.175 182.939C172.805 190.379 173.955 196.339 176.955 201.009Z" stroke="#AECC53" stroke-width="0.75" stroke-linecap="round" stroke-linejoin="round"/>
<path d="M176.955 201.009C180.715 206.849 187.375 210.669 195.675 212.819C208.355 216.089 218.855 202.399 219.125 190.699C219.245 185.059 217.805 179.509 216.125 174.139C213.465 165.779 198.525 122.669 183.375 137.429C181.265 139.489 180.565 142.609 180.485 145.549C180.473 151.099 179.802 156.628 178.485 162.019C176.725 168.919 175.485 175.929 174.175 182.939C172.805 190.379 173.955 196.339 176.955 201.009Z" stroke="white" stroke-opacity="0.5" stroke-width="0.75" stroke-linecap="round" stroke-linejoin="round"/>
<path d="M187.445 186.379C188.445 189.189 190.795 191.699 193.745 192.209C197.235 192.819 200.745 190.459 202.445 187.369C204.145 184.279 204.445 180.609 204.515 177.069C204.595 171.349 201.515 151.839 191.255 159.259C185.625 163.329 185.405 180.839 187.445 186.379Z" stroke="#AECC53" stroke-width="0.75" stroke-linecap="round" stroke-linejoin="round"/>
<path d="M187.445 186.379C188.445 189.189 190.795 191.699 193.745 192.209C197.235 192.819 200.745 190.459 202.445 187.369C204.145 184.279 204.445 180.609 204.515 177.069C204.595 171.349 201.515 151.839 191.255 159.259C185.625 163.329 185.405 180.839 187.445 186.379Z" stroke="white" stroke-opacity="0.5" stroke-width="0.75" stroke-linecap="round" stroke-linejoin="round"/>
<path d="M124.045 85.7991C125.846 86.5133 127.321 87.868 128.185 89.603C129.048 91.338 129.241 93.331 128.725 95.1991C128.543 96.2069 128.143 97.1626 127.552 97.9989C126.961 98.8352 126.194 99.5316 125.305 100.039C122.855 101.199 119.855 99.9791 117.975 98.0391C115.465 95.4491 114.455 91.0391 116.695 88.2291C118.935 85.4191 121.665 84.9391 124.045 85.7991Z" stroke="#AECC53" stroke-width="0.75" stroke-linecap="round" stroke-linejoin="round"/>
<path d="M124.045 85.7991C125.846 86.5133 127.321 87.868 128.185 89.603C129.048 91.338 129.241 93.331 128.725 95.1991C128.543 96.2069 128.143 97.1626 127.552 97.9989C126.961 98.8352 126.194 99.5316 125.305 100.039C122.855 101.199 119.855 99.9791 117.975 98.0391C115.465 95.4491 114.455 91.0391 116.695 88.2291C118.935 85.4191 121.665 84.9391 124.045 85.7991Z" stroke="white" stroke-opacity="0.5" stroke-width="0.75" stroke-linecap="round" stroke-linejoin="round"/>
<path d="M218.295 226.699C220.228 226.073 221.99 225.008 223.445 223.589C229.032 218.011 233.679 211.564 237.205 204.499C238.095 202.759 238.875 200.499 237.635 198.979C236.395 197.459 234.045 197.789 232.305 198.599C229.632 200.022 227.255 201.943 225.305 204.259C221.455 208.399 212.835 216.319 213.055 222.489C213.225 226.699 215.635 227.489 218.295 226.699Z" stroke="#AECC53" stroke-width="0.75" stroke-linecap="round" stroke-linejoin="round"/>
<path d="M218.295 226.699C220.228 226.073 221.99 225.008 223.445 223.589C229.032 218.011 233.679 211.564 237.205 204.499C238.095 202.759 238.875 200.499 237.635 198.979C236.395 197.459 234.045 197.789 232.305 198.599C229.632 200.022 227.255 201.943 225.305 204.259C221.455 208.399 212.835 216.319 213.055 222.489C213.225 226.699 215.635 227.489 218.295 226.699Z" stroke="white" stroke-opacity="0.5" stroke-width="0.75" stroke-linecap="round" stroke-linejoin="round"/>
<path d="M44.1247 9.62911C44.1908 10.3574 44.4753 11.0488 44.941 11.6127C45.4068 12.1766 46.0319 12.5866 46.7347 12.7891C47.8161 12.8972 48.9007 12.6172 49.7947 11.9991C52.8847 10.2291 55.2247 7.45911 57.7947 4.99911C59.1717 3.57734 60.7163 2.32819 62.3947 1.27911C64.4947 0.0291052 66.8947 -0.720895 68.7847 -2.30089C70.6747 -3.88089 71.9147 -6.65089 70.7047 -8.77089C61.7547 -24.5209 42.8147 -0.640894 44.1247 9.62911Z" stroke="#AECC53" stroke-width="0.75" stroke-linecap="round" stroke-linejoin="round"/>
<path d="M44.1247 9.62911C44.1908 10.3574 44.4753 11.0488 44.941 11.6127C45.4068 12.1766 46.0319 12.5866 46.7347 12.7891C47.8161 12.8972 48.9007 12.6172 49.7947 11.9991C52.8847 10.2291 55.2247 7.45911 57.7947 4.99911C59.1717 3.57734 60.7163 2.32819 62.3947 1.27911C64.4947 0.0291052 66.8947 -0.720895 68.7847 -2.30089C70.6747 -3.88089 71.9147 -6.65089 70.7047 -8.77089C61.7547 -24.5209 42.8147 -0.640894 44.1247 9.62911Z" stroke="white" stroke-opacity="0.5" stroke-width="0.75" stroke-linecap="round" stroke-linejoin="round"/>
</g>
</svg>
