<svg width="270" height="307" viewBox="0 0 270 307" fill="none" xmlns="http://www.w3.org/2000/svg">
<path d="M129.4 194.14C128.375 192.783 127.705 191.191 127.45 189.51C127.196 187.829 127.364 186.11 127.94 184.51C129.28 181.19 133.34 178.12 138.58 177.77C141.38 177.58 144.79 178.77 147.23 177.77C148.109 177.386 148.886 176.803 149.5 176.068C150.115 175.332 150.549 174.463 150.77 173.53C151.25 171.91 151.4 170.21 152.52 168.72C156.87 162.91 163.24 168.29 162.88 173.91C162.539 176.721 161.598 179.425 160.12 181.84C157.05 187.52 153.05 193.03 147.28 195.93C142.45 198.36 136.13 199.93 131.53 196.36C130.717 195.727 129.999 194.979 129.4 194.14Z" stroke="#AECC53" stroke-width="0.85" stroke-linecap="round" stroke-linejoin="round"/>
<path d="M113.99 194.68C113.449 192.756 113.289 190.745 113.52 188.76C114.26 181.91 118.96 173.6 125.77 171.21C129.21 170.01 133.4 170.04 136.89 168.91C142.69 167.03 145.04 162.58 147.7 158.73C151.55 153.14 158.85 150.14 164.96 153.86C174.68 159.7 174.4 180.16 167.96 188.08C162.239 194.681 155.312 200.132 147.55 204.14C141.49 207.14 134.42 208.39 127.9 206.65C121.38 204.91 115.75 200.79 113.99 194.68Z" stroke="#AECC53" stroke-width="0.85" stroke-linecap="round" stroke-linejoin="round"/>
<path d="M180.13 145.74C183.96 155.16 184.02 165.74 182.05 175.74C180.6 183.05 177.97 190.34 173 195.89C169 200.4 163.63 203.5 158.39 206.52C152 210.21 145.52 213.94 138.39 215.96C131.26 217.98 123.39 218.15 116.78 214.86C109.38 211.18 104.52 203.61 102.22 195.68C99.92 187.75 98.04 181.83 99.43 173.68C100.21 169.07 101.13 164.4 104.43 160.9C108.99 156.14 115.79 152.99 122.1 156.03C125.18 157.52 127.44 160.52 130.7 161.6C134.93 163 139.7 160.6 142.38 157.07C143.976 154.787 145.167 152.247 145.9 149.56C146.69 147.11 146.56 144.48 147.68 142.15C148.574 140.435 149.716 138.861 151.07 137.48C152.427 135.859 154.097 134.53 155.98 133.57C159.75 132.08 163.807 131.458 167.85 131.75C175.43 132.56 177.65 139.63 180.13 145.74Z" stroke="#AECC53" stroke-width="0.85" stroke-linecap="round" stroke-linejoin="round"/>
<path d="M90.55 150.14C93.09 144.79 96.87 139.39 101.92 136.14C106.97 132.89 113.48 138 116.57 141.93C118.57 144.52 120.34 147.64 123.37 148.93C127.5 150.73 132.28 148.36 135.65 145.37C138.313 143.022 140.587 140.268 142.39 137.21C145.07 132.66 147.51 129.08 152.34 126.73C156.959 124.456 162.091 123.423 167.23 123.73C171.556 123.953 175.761 125.233 179.478 127.458C183.194 129.682 186.309 132.783 188.55 136.49C193.92 145.68 191.14 155.88 190.32 165.87C189.32 178.44 187.2 191.87 178.44 200.99C168.71 211.08 157.44 220.29 143.79 224.27C125.79 229.5 103.79 223.5 92.73 207.64C86.57 198.77 84.73 187.58 84.65 176.78C84.7176 167.584 86.7282 158.505 90.55 150.14V150.14Z" stroke="#AECC53" stroke-width="0.85" stroke-linecap="round" stroke-linejoin="round"/>
<path d="M117.74 57.83C119.97 53.96 117.98 48.04 124.9 45.92C127.63 45.08 132.74 45.81 135.9 45.27C144.75 43.77 147.63 33.64 139.75 28.5C132.29 23.63 122.25 26.86 115.06 30.5C108.38 33.83 101.42 38.01 98.59 44.92C96.29 50.54 95.02 59.52 101.74 62.29C106.63 64.26 114.93 62.72 117.74 57.83Z" stroke="#AECC53" stroke-width="0.85" stroke-linecap="round" stroke-linejoin="round"/>
<path d="M122.3 74.92C127.62 72.72 130.62 68.56 130.84 64.45C130.788 63.6141 130.935 62.7777 131.27 62.01C132.66 59.58 137.6 59.28 141.53 58.91C149.38 58.17 155.09 54.71 157.83 46.91C158.906 43.665 159.241 40.2204 158.812 36.8288C158.383 33.4372 157.2 30.1847 155.35 27.31C150.04 18.95 139.64 17.93 130.64 19.08C110.45 21.61 87.34 36.31 90.31 59.54C92.15 73.92 109.8 80.08 122.3 74.92Z" stroke="#AECC53" stroke-width="0.85" stroke-linecap="round" stroke-linejoin="round"/>
<path d="M132.55 103.48C132.86 99.66 133.68 96.09 137.61 93.83C142.8 90.83 148.82 92.55 154.39 91.22C158.57 90.22 163.21 86.79 166.39 83.96C173.83 77.43 178.19 67.66 179.17 57.9C180.33 46.42 178.17 26.72 168.36 19.22C156.36 10.1 142.6 6.75002 127.66 8.16002C111.55 9.69002 91.55 19.26 82.75 33.22C74.06 46.96 68.34 64.54 71.36 80.86C74.36 96.76 87.87 109.86 101.99 116.59C106.21 118.59 110.63 120.42 115.29 120.89C119.95 121.36 124.91 120.36 128.48 117.33C132.66 113.78 132.19 108.42 132.55 103.48Z" stroke="#AECC53" stroke-width="0.85" stroke-linecap="round" stroke-linejoin="round"/>
<path d="M80.49 63.8501C80.5079 72.8535 83.9054 81.5221 90.01 88.1401C95.87 94.3901 105.58 99.6801 114.4 99.2701C121.4 98.9501 132.4 95.0001 134.5 87.5701C134.638 86.6842 135 85.848 135.55 85.1401C137.25 83.3401 141.15 83.3701 144.37 83.0801C152.83 82.3101 162.28 74.3201 166.07 66.8001C168.326 61.9326 169.559 56.6534 169.69 51.2901C170.81 30.6401 158.98 13.2901 137.18 12.8101C128.23 12.6201 119.58 15.2301 111.28 18.3301C95.22 24.3301 83.03 42.7101 80.77 59.2701C80.5726 60.7886 80.4791 62.3188 80.49 63.8501V63.8501Z" stroke="#AECC53" stroke-width="0.85" stroke-linecap="round" stroke-linejoin="round"/>
<path d="M63.45 97.48C58.9 96.13 53.85 97.84 50.24 100.92C46.63 104 44.24 108.27 42.34 112.61C32.08 135.83 33.4 163.28 43.24 186.69C45.36 191.69 47.91 196.69 51.78 200.52C55.65 204.35 61.04 206.97 66.47 206.45C67.3118 206.42 68.1287 206.156 68.83 205.69C69.6355 204.942 70.176 203.952 70.37 202.87C75.69 183.7 66.99 161.87 75.56 143.94C80.56 133.5 87.94 127.18 80.15 116.74C75.47 110.45 71.62 99.92 63.45 97.48Z" stroke="#AECC53" stroke-width="0.85" stroke-linecap="round" stroke-linejoin="round"/>
<path d="M71.55 127.72C72.72 133.87 69.75 139.95 68.37 146.07C66.04 156.31 68.16 167.16 65.93 177.43C65.4 179.9 64.07 182.78 61.55 182.94C59.37 183.08 57.71 181.07 56.61 179.19C50.16 168.11 49.35 154.76 48.69 141.96C48.32 134.74 47.4 122.33 54.69 117.76C61.42 113.45 70.21 120.91 71.55 127.72Z" stroke="#AECC53" stroke-width="0.85" stroke-linecap="round" stroke-linejoin="round"/>
<path d="M63.86 148.77C63.9544 150.165 63.6343 151.557 62.94 152.77C61.3 155.03 57.46 154.42 55.74 152.22C54.02 150.02 53.89 147 54.14 144.22C54.4523 140.742 55.2188 137.319 56.42 134.04C56.955 132.214 58.0498 130.601 59.55 129.43C67.03 124.42 63.94 145.52 63.86 148.77Z" stroke="#AECC53" stroke-width="0.85" stroke-linecap="round" stroke-linejoin="round"/>
<path d="M192.13 57.5299C189.57 68.2599 184.32 78.6299 184.87 89.6399C186.21 116.08 218.67 124.82 232.01 144.42C239.53 155.42 242.22 169.42 250.56 179.82C251.78 181.34 253.3 182.82 255.24 183.04C257.99 183.29 260.14 180.75 261.48 178.34C269.81 163.34 266.42 143.49 264.8 127.18C262.936 108.423 259.142 89.9085 253.48 71.9299C249.631 60.1637 244.818 48.7349 239.09 37.7599C234.19 28.0499 227.03 18.5599 216.16 15.3299C206.97 12.5899 193.66 16.1399 192.41 27.3299C191.97 31.2599 193.72 35.7699 193.88 39.7499C194.11 45.7287 193.522 51.7108 192.13 57.5299Z" stroke="#AECC53" stroke-width="0.85" stroke-linecap="round" stroke-linejoin="round"/>
<path d="M243.01 80.2499C244.01 83.2499 244.95 86.2499 246.01 89.1599C251.17 104.02 257.59 124.16 253.23 139.87C253.02 140.937 252.51 141.923 251.76 142.71C251.069 143.22 250.241 143.51 249.383 143.542C248.525 143.574 247.677 143.347 246.95 142.89C245.515 141.955 244.272 140.753 243.29 139.35C236.395 130.87 228.413 123.335 219.55 116.94C204.99 106.41 191.07 96.2399 194.2 75.9399C195.28 68.9399 198.71 62.6499 200.66 55.9399C201.8 52.0099 202.44 47.9399 204.09 44.1399C205.16 41.6999 206.64 38.7299 208.93 37.1399C221.55 28.6199 234.55 59.0399 237.98 66.8099C239.88 71.2032 241.559 75.6889 243.01 80.2499V80.2499Z" stroke="#AECC53" stroke-width="0.85" stroke-linecap="round" stroke-linejoin="round"/>
<path d="M243.39 108.73C243.068 105.905 242.588 103.101 241.95 100.33C239.41 88.33 234.19 59.82 219.15 56.93C216.438 56.468 213.652 57.0388 211.34 58.53C203.65 63.14 204.55 80.14 205.88 87.6C208.35 101.6 221.54 109.45 233.26 115.36C242.55 120.03 243.97 115.14 243.39 108.73Z" stroke="#AECC53" stroke-width="0.85" stroke-linecap="round" stroke-linejoin="round"/>
<path d="M221.28 89.03C221.45 84.69 221.15 71.73 216.55 69.4C213.8 68.01 210 70.4 209.55 73.18C208.542 79.2378 209.057 85.4512 211.05 91.26C212.05 94.11 214.22 97.32 217.18 96.81C217.96 96.6257 218.68 96.2464 219.273 95.7077C219.866 95.169 220.312 94.4884 220.57 93.73C221.077 92.2162 221.317 90.6259 221.28 89.03V89.03Z" stroke="#AECC53" stroke-width="0.85" stroke-linecap="round" stroke-linejoin="round"/>
<path d="M150.35 290.14C143.77 294.94 135.52 297.25 127.44 297.5C122.9 297.525 118.368 297.103 113.91 296.24C98.69 293.71 83.8201 289.79 71.2401 280.51C66.0027 276.561 61.2379 272.021 57.0401 266.98C47.5701 255.87 39.38 233.74 59.04 228.37C63.3502 227.276 67.894 227.552 72.04 229.16C75.16 230.35 76.7001 233.16 79.5301 234.88C86.6701 239.14 95.53 239.61 103.64 238.98C114.78 238.12 125.76 236.76 136.82 235.23C139.84 234.678 142.92 234.524 145.98 234.77C149.087 235.032 151.963 236.513 153.98 238.89C155.59 241.01 156.15 243.72 156.58 246.35C158.207 256.377 158.623 266.564 157.82 276.69C157.24 282.69 155.23 286.63 150.35 290.14Z" stroke="#AECC53" stroke-width="0.85" stroke-linecap="round" stroke-linejoin="round"/>
<path d="M106.74 286.66C115.09 288.31 123.29 289.26 131.54 286.35C139.07 283.7 143.78 277.35 145.54 269.78C146.97 263.78 148.3 251.88 144.32 246.62C142.98 244.85 140.63 244.18 138.41 243.96C136.016 243.783 133.611 243.807 131.22 244.03L103.08 245.88C95.24 246.39 86.98 246.75 79.65 243.3C74.51 240.88 69.37 237.75 63.65 237C59.85 236.51 56.22 237.43 53.82 240.56C46.75 249.82 57.63 261.09 64.22 266.92C73.9096 275.587 85.5882 281.728 98.22 284.8C101.04 285.5 103.89 286.14 106.74 286.66Z" stroke="#AECC53" stroke-width="0.85" stroke-linecap="round" stroke-linejoin="round"/>
<path d="M113.55 254.81C109.91 255.16 106.3 255.81 102.69 256.12C97.78 256.53 93.51 258.68 88.69 256.12C85.34 254.35 81.25 251.84 77.32 253.21C73.13 254.68 73.48 259.21 75.32 262.46C79.53 269.79 86.14 271.98 93.9 274.46C100.146 276.54 106.725 277.436 113.3 277.1C121.25 276.49 125.71 270.65 126.11 262.6C126.25 259.92 125.23 257.02 122.94 255.6C121.268 254.756 119.396 254.389 117.53 254.54C116.19 254.59 114.84 254.68 113.55 254.81Z" stroke="#AECC53" stroke-width="0.85" stroke-linecap="round" stroke-linejoin="round"/>
<path d="M10.65 100.36C10.8 101.07 10.96 101.78 11.11 102.48C11.8 105.63 12.62 109 15.04 111.11C19.04 114.57 25.25 113.11 29.69 110.26C36.6777 105.747 41.703 98.7604 43.76 90.7001C44.76 86.7601 43.89 82.8701 44.65 79.0701C45.65 73.8101 48.71 68.3501 50.41 63.2101L58.49 38.7301C63.56 23.3701 51.34 12.5001 37.29 10.4301C29.69 9.31006 21.29 9.64006 15.16 14.2201C9.28425 18.8324 5.43274 25.5492 4.42002 32.9501C1.34002 56.4601 5.67002 77.6101 10.65 100.36Z" stroke="#AECC53" stroke-width="0.85" stroke-linecap="round" stroke-linejoin="round"/>
<path d="M13.66 67.41C15.5 73.41 16.98 87.99 24.05 91.29C33.05 95.5 39.55 76.48 41.21 69.47C42.96 62.04 43.6 54.4 45.21 46.95C46.71 40.14 48.97 34.76 43.36 28.95C40.2822 25.961 36.3949 23.9409 32.18 23.14C30.3592 22.6718 28.4682 22.5397 26.6 22.75C24.7214 23.103 22.9095 23.7474 21.23 24.66C16.46 26.98 11.42 30.28 10.34 35.48C8.08999 46.22 10.55 57.14 13.66 67.41Z" stroke="#AECC53" stroke-width="0.85" stroke-linecap="round" stroke-linejoin="round"/>
<path d="M18.69 44.71C18.56 45.1 18.44 45.5 18.33 45.92C16.68 52.41 19.33 58.83 21 64.99C22 68.57 24 72.99 27.68 72.81C29.55 72.74 31.15 71.43 32.39 70.02C35.3954 66.4548 37.1903 62.0268 37.5157 57.3752C37.841 52.7236 36.6799 48.0889 34.2 44.14C29.74 37.35 21.47 36.81 18.69 44.71Z" stroke="#AECC53" stroke-width="0.85" stroke-linecap="round" stroke-linejoin="round"/>
<path d="M242.3 283.38C239.694 285.546 236.756 287.278 233.6 288.51C230.04 290.08 226.41 291.51 222.74 292.82C220.2 293.71 205.47 297.59 209.74 302.66C211.74 305.06 222.96 304.28 226.05 304.53C232.963 305.083 239.877 305.497 246.79 305.77C250.51 305.91 254.29 306.01 257.86 304.95C263.64 303.23 268.31 297.88 268.46 291.82C268.421 287.67 267.934 283.536 267.01 279.49C265.54 271.8 264.13 264.07 262.11 256.49C261.26 253.34 258.11 244.88 254.11 249.7C251.31 253.08 252.11 260.42 251.36 264.52C250.2 271.14 247.43 278.76 242.3 283.38Z" stroke="#AECC53" stroke-width="0.85" stroke-linecap="round" stroke-linejoin="round"/>
<path d="M251.23 299.3C258.23 297.87 261.75 292.6 262.59 286.44C263 283.215 262.779 279.941 261.94 276.8C261.49 275.05 260.56 273.1 258.78 272.8C258.04 272.699 257.287 272.835 256.63 273.19C252.93 274.98 251.63 280.95 249.23 284.12C248.283 285.608 247.248 287.037 246.13 288.4C243.55 291.08 236.3 291.01 234.72 294.63C231.65 301.71 248.34 299.9 251.23 299.3Z" stroke="#AECC53" stroke-width="0.85" stroke-linecap="round" stroke-linejoin="round"/>
<path d="M49.6299 284.28C48.8199 283.44 47.9599 282.63 47.1499 281.83C41.3499 276.12 37.1499 268.97 33.3499 261.83C30.4499 256.42 30.2499 249.06 30.7599 242.96C31.1799 237.96 33.8399 232.96 35.4899 228.24C36.8499 224.35 37.8899 219.62 35.2399 216.47C33.6099 214.53 30.9699 213.77 28.4599 213.39C23.2858 212.452 17.95 213.061 13.1199 215.14C3.11995 219.83 1.43995 230.24 0.739946 240.14C-0.110054 252.32 0.869946 264.55 2.38995 276.64L2.47995 277.36C2.73509 280.077 3.28156 282.759 4.10995 285.36C7.53995 294.97 16.1099 297.28 24.8699 299.62C31.6799 301.44 40.8699 302.31 47.4599 299.19C50.7999 297.61 53.5599 294.19 53.1699 290.52C52.9199 288.14 51.3899 286.14 49.6299 284.28Z" stroke="#AECC53" stroke-width="0.85" stroke-linecap="round" stroke-linejoin="round"/>
<path d="M30.06 272.02C27.6262 268.704 25.611 265.1 24.06 261.29C22.36 257.11 20.06 251.29 21.06 246.71C21.4641 245.128 22.0409 243.596 22.78 242.14L27.78 231.72C28.78 229.65 29.78 227.3 28.96 225.15C28.5921 224.303 28.0091 223.566 27.2689 223.014C26.5287 222.461 25.6569 222.112 24.74 222C22.8965 221.784 21.031 222.133 19.39 223C14.39 225.43 9.99997 231.69 7.87997 236.71C4.22997 245.33 4.87997 255.12 6.49997 264.12C8.78997 277.12 13.66 292.57 29.22 293.36C33.05 293.56 37.28 291.57 38.39 287.9C38.6767 286.677 38.7101 285.408 38.4883 284.172C38.2664 282.935 37.794 281.757 37.1 280.71C35.7031 278.63 34.1271 276.676 32.39 274.87C31.55 273.97 30.79 273.01 30.06 272.02Z" stroke="#AECC53" stroke-width="0.85" stroke-linecap="round" stroke-linejoin="round"/>
<path d="M258.96 15.98C268.08 22.89 270.14 43.27 267.77 51.98C267.59 53.0574 267.038 54.0375 266.21 54.75C265.692 55.0535 265.1 55.2075 264.5 55.1952C263.9 55.1828 263.315 55.0045 262.81 54.68C261.807 54.0256 260.96 53.1584 260.33 52.14C254.888 44.0521 250.09 35.5493 245.98 26.71C244.3 23.19 241.62 16.78 246.38 14.84C251.55 12.76 255.7 13.51 258.96 15.98Z" stroke="#AECC53" stroke-width="0.85" stroke-linecap="round" stroke-linejoin="round"/>
<path d="M7.08997 190.75C6.33469 188.968 5.88507 187.071 5.75997 185.14C4.16997 169.65 8.59997 151.42 19.45 140C20.3044 138.992 21.3604 138.175 22.55 137.6C23.1571 137.319 23.8278 137.205 24.4936 137.268C25.1594 137.331 25.7966 137.57 26.34 137.96C27.65 139.05 27.7 140.96 27.65 142.71C27.42 150.19 24.79 157.33 24.56 164.83C24.29 173.46 25.95 186.47 30.66 193.83C32.93 197.36 35.3 201.28 29.93 202.77C23.74 204.48 9.77997 196.26 7.08997 190.75Z" stroke="#AECC53" stroke-width="0.85" stroke-linecap="round" stroke-linejoin="round"/>
<path d="M29.2 281.58C29.1956 281.553 29.1956 281.526 29.2 281.5C28.49 279.06 26.56 276.45 25.5 274.05C23.975 270.563 22.2625 267.162 20.37 263.86C19.8563 262.856 19.1805 261.944 18.37 261.16C17.9614 260.771 17.4705 260.48 16.9339 260.307C16.3973 260.134 15.8287 260.084 15.27 260.16C14.5503 260.366 13.9078 260.782 13.4237 261.353C12.9396 261.924 12.6356 262.626 12.55 263.37C12.4054 264.877 12.6002 266.398 13.12 267.82C14.2354 272.104 15.9955 276.194 18.34 279.95C19.42 281.53 20.65 284.27 22.27 285.34C23.2067 285.894 24.2719 286.194 25.36 286.21C26.182 286.306 27.0146 286.178 27.77 285.84C28.4403 285.383 28.9428 284.719 29.2009 283.95C29.4591 283.181 29.4588 282.349 29.2 281.58Z" stroke="#AECC53" stroke-width="0.85" stroke-linecap="round" stroke-linejoin="round"/>
<path d="M213.55 239.64C209.42 237.96 207.11 238.25 204.07 234.64C201.21 231.21 197.96 225.42 194.19 223.11C190.42 220.8 185.02 222.31 181.53 224.41C177.578 226.959 174.476 230.629 172.62 234.95C170.45 239.74 169.82 245.06 169.39 250.3C168.454 260.701 168.746 271.177 170.26 281.51C171.56 289.82 175.06 297.6 184.81 297.41C189.12 297.33 193.24 295.73 197.2 294.03C206.39 290.09 215.64 285.31 222.93 278.35C230.22 271.39 236.55 261.35 229.55 251.84C229.34 251.55 229.11 251.27 228.87 251C224.7 246.091 219.458 242.205 213.55 239.64V239.64Z" stroke="#AECC53" stroke-width="0.85" stroke-linecap="round" stroke-linejoin="round"/>
<path d="M215.21 250.55C209.1 246.61 201.31 245.4 196.84 239.21C195.13 236.84 193.71 233.96 191.02 232.84C187.74 231.48 183.91 233.4 181.63 236.12C177.88 240.6 177.05 246.86 177.38 252.69C177.71 258.52 177.89 264.9 178.8 270.9C179.52 275.66 180.5 282.78 184.75 285.9C189.31 289.23 196.4 285.66 200.6 283.32C206.293 280.136 211.48 276.122 215.99 271.41C217.954 269.496 219.572 267.257 220.77 264.79C221.969 262.287 222.131 259.412 221.22 256.79C220.14 254.06 217.68 252.14 215.21 250.55Z" stroke="#AECC53" stroke-width="0.85" stroke-linecap="round" stroke-linejoin="round"/>
<path d="M184.55 259.37C184.08 254.81 182.84 249.63 184.14 245.11C186.4 237.27 196.32 246.79 199.29 249.88C200.113 250.657 200.79 251.575 201.29 252.59C204.35 259.71 189.39 270.09 185.55 263.27C184.973 262.065 184.65 260.755 184.6 259.42L184.55 259.37Z" stroke="#AECC53" stroke-width="0.85" stroke-linecap="round" stroke-linejoin="round"/>
<path d="M203.38 215.45C207.14 221.29 213.8 225.11 222.1 227.26C234.78 230.53 245.28 216.84 245.55 205.14C245.67 199.5 244.23 193.95 242.55 188.58C239.89 180.22 224.95 137.11 209.8 151.87C207.69 153.93 206.99 157.05 206.91 159.99C206.899 165.54 206.227 171.069 204.91 176.46C203.15 183.36 201.91 190.37 200.6 197.38C199.23 204.82 200.38 210.78 203.38 215.45Z" stroke="#AECC53" stroke-width="0.85" stroke-linecap="round" stroke-linejoin="round"/>
<path d="M213.87 200.82C214.87 203.63 217.22 206.14 220.17 206.65C223.66 207.26 227.17 204.9 228.87 201.81C230.57 198.72 230.87 195.05 230.94 191.51C231.02 185.79 227.94 166.28 217.68 173.7C212.05 177.77 211.83 195.28 213.87 200.82Z" stroke="#AECC53" stroke-width="0.85" stroke-linecap="round" stroke-linejoin="round"/>
<path d="M150.47 100.24C152.272 100.954 153.746 102.309 154.61 104.044C155.474 105.779 155.666 107.772 155.15 109.64C154.969 110.648 154.568 111.603 153.978 112.44C153.387 113.276 152.619 113.972 151.73 114.48C149.28 115.64 146.28 114.42 144.4 112.48C141.89 109.89 140.88 105.48 143.12 102.67C145.36 99.86 148.09 99.38 150.47 100.24Z" stroke="#AECC53" stroke-width="0.85" stroke-linecap="round" stroke-linejoin="round"/>
<path d="M244.72 241.14C246.653 240.514 248.416 239.449 249.87 238.03C255.458 232.452 260.105 226.005 263.63 218.94C264.52 217.2 265.3 214.94 264.06 213.42C262.82 211.9 260.47 212.23 258.73 213.04C256.057 214.463 253.681 216.384 251.73 218.7C247.88 222.84 239.26 230.76 239.48 236.93C239.65 241.14 242.06 241.93 244.72 241.14Z" stroke="#AECC53" stroke-width="0.85" stroke-linecap="round" stroke-linejoin="round"/>
<path d="M70.55 24.07C70.6161 24.7984 70.9006 25.4897 71.3663 26.0536C71.8321 26.6175 72.4572 27.0275 73.16 27.23C74.2414 27.3381 75.326 27.0581 76.22 26.44C79.31 24.67 81.65 21.9 84.22 19.44C85.597 18.0183 87.1416 16.7691 88.82 15.72C90.92 14.47 93.32 13.72 95.21 12.14C97.1 10.56 98.34 7.79002 97.13 5.67002C88.18 -10.08 69.24 13.8 70.55 24.07Z" stroke="#AECC53" stroke-width="0.85" stroke-linecap="round" stroke-linejoin="round"/>
</svg>
