<?xml version="1.0" encoding="UTF-8"?>
<svg id="Layer_1" xmlns="http://www.w3.org/2000/svg" version="1.1" viewBox="0 0 500 495.03">
  <!-- Generator: Adobe Illustrator 30.2.1, SVG Export Plug-In . SVG Version: 2.1.1 Build 1)  -->
  <defs>
    <style>
      .st0 {
        fill: #6fafac;
      }

      .st1 {
        stroke: #3c3c3c;
        stroke-width: 2.4px;
      }

      .st1, .st2, .st3, .st4, .st5, .st6 {
        fill: none;
      }

      .st1, .st4, .st5, .st6 {
        stroke-linecap: round;
        stroke-linejoin: round;
      }

      .st2 {
        stroke: #aecc53;
      }

      .st2, .st3 {
        stroke-miterlimit: 10;
      }

      .st2, .st4, .st6 {
        stroke-width: 2.66px;
      }

      .st7 {
        fill: #ebf2d4;
      }

      .st8 {
        fill: #aac853;
      }

      .st9 {
        fill: #a8c653;
      }

      .st10 {
        fill: #00544f;
      }

      .st3 {
        stroke: #6fafac;
        stroke-width: 9.86px;
      }

      .st11 {
        fill: #fff;
      }

      .st4 {
        stroke: #fff;
      }

      .st12 {
        fill: #aecc53;
      }

      .st13 {
        fill: #006d68;
      }

      .st5 {
        stroke-width: 3.23px;
      }

      .st5, .st6 {
        stroke: #a8c653;
      }

      .st14 {
        fill: #003834;
      }
    </style>
  </defs>
  <path class="st7" d="M331,14.77C309.42,6.68,286.89-.1,263.83,0c-31.07.14-60.6,12.68-88.86,25.58-52.03,23.75-93.06,60.96-135.71,98.76C4.74,154.93-.93,218.37.11,261.47c.13,5.2.26,10.43.49,15.65.73,16.07,2.45,32.09,8.08,47.07,9.03,24.02,29.98,44.3,45.8,64.07,17.13,21.4,33.91,39.26,56.97,54.54,26.1,17.3,63.43,47.01,95.63,49.74,40.53,3.43,71.57,5.08,110.53-7.06,41.5-12.94,86.97-31.81,116.84-64.9,15.66-17.35,25.88-42.1,37.54-62.28,22.74-39.35,32.16-81.79,26.31-127.02-6.12-47.35-24.72-83.64-44.34-125.96-25.19-54.35-69.47-70.5-122.96-90.55Z"/>
  <g>
    <g>
      <polygon class="st6" points="238.33 52.76 154.27 52.76 154.27 196.84 267.28 196.84 267.28 86.6 238.33 52.76"/>
      <polygon class="st9" points="238.03 85.65 266.75 85.65 238.03 52.41 238.03 85.65"/>
    </g>
    <g>
      <rect class="st9" x="171.94" y="105.57" width="80.86" height="8.34"/>
      <rect class="st9" x="171.94" y="133.22" width="80.86" height="8.34"/>
      <rect class="st9" x="171.94" y="160.87" width="80.86" height="8.34"/>
    </g>
  </g>
  <g>
    <g>
      <rect class="st0" x="40.14" y="105.43" width="172.44" height="259.73"/>
      <path class="st10" d="M92.5,90.27h67.72c6.61,0,11.98,5.37,11.98,11.98v4.54h-91.68v-4.54c0-6.61,5.37-11.98,11.98-11.98Z"/>
      <rect class="st10" x="94.53" y="105.1" width="63.67" height="11.06"/>
    </g>
    <g>
      <rect class="st14" x="55.87" y="156.96" width="17.51" height="17.51"/>
      <line class="st4" x1="83.78" y1="165.71" x2="196.85" y2="165.71"/>
    </g>
    <g>
      <rect class="st14" x="55.87" y="208.06" width="17.51" height="17.51"/>
      <line class="st4" x1="83.78" y1="216.81" x2="196.85" y2="216.81"/>
    </g>
    <g>
      <rect class="st14" x="55.87" y="259.15" width="17.51" height="17.51"/>
      <line class="st4" x1="83.78" y1="267.91" x2="196.85" y2="267.91"/>
    </g>
    <g>
      <rect class="st14" x="55.87" y="310.25" width="17.51" height="17.51"/>
      <line class="st4" x1="83.78" y1="319" x2="196.85" y2="319"/>
    </g>
  </g>
  <g>
    <path class="st13" d="M363.86,141.58c-3.36,6.19-5.31,13.25-5.4,20.77-.3,24.54,29.99,52.07,44.07,52.07,19.04,0,45.35-26.61,45.35-51.52,0-10.22-3.43-19.65-9.21-27.18-2.75-3.58-3.41-8.34-1.68-12.5,1.8-4.33,2.79-9.07,2.79-14.05,0-8.47-2.88-16.27-7.71-22.48-3.04-3.91-3.58-9.18-1.33-13.59,2.13-4.2,3.34-8.95,3.34-13.98,0-17.07-18.77-51.15-30.91-51.15-10.67,0-30.91,34.08-30.91,51.15,0,5.03,1.2,9.78,3.34,13.98,2.25,4.41,1.71,9.68-1.33,13.59-4.83,6.2-7.71,14.01-7.71,22.48,0,4.98.99,9.72,2.79,14.05,1.73,4.16,1.08,8.91-1.66,12.48-1.42,1.85-2.7,3.81-3.82,5.88"/>
    <line class="st5" x1="403.17" y1="47.36" x2="403.17" y2="272.1"/>
  </g>
  <path class="st10" d="M134.98,232.92h346.16v195.74c0,17.98-14.6,32.58-32.58,32.58H167.55c-17.98,0-32.58-14.6-32.58-32.58v-195.74h0Z"/>
  <path class="st3" d="M236.39,252.63v-35.47c0-21.23,17.21-38.45,38.45-38.45h69.29c21.23,0,38.45,17.21,38.45,38.45v35.47"/>
  <path class="st14" d="M134.98,232.92h346.16v108.18c0,13.73-11.14,24.87-24.87,24.87H159.84c-13.73,0-24.87-11.14-24.87-24.87v-108.18h0Z"/>
  <g>
    <rect class="st0" x="183.22" y="334.76" width="19.71" height="52.56" rx="9.86" ry="9.86"/>
    <rect class="st0" x="413.18" y="334.76" width="19.71" height="52.56" rx="9.86" ry="9.86"/>
  </g>
  <g>
    <line class="st2" x1="203.76" y1="472.85" x2="85.73" y2="472.85"/>
    <line class="st2" x1="292.83" y1="472.85" x2="231.92" y2="472.85"/>
    <g>
      <line class="st2" x1="123.08" y1="472.85" x2="123.08" y2="434.96"/>
      <path class="st12" d="M129.08,435.26c0-3.31-2.69-6-6-6s-6,2.69-6,6,2.69,6,6,6,6-2.69,6-6Z"/>
    </g>
    <g>
      <line class="st2" x1="104.3" y1="472.85" x2="104.3" y2="415.27"/>
      <path class="st12" d="M110.3,415.57c0-3.31-2.69-6-6-6s-6,2.69-6,6,2.69,6,6,6,6-2.69,6-6Z"/>
    </g>
  </g>
  <g>
    <path class="st13" d="M270.54,367.2s0-.05,0-.08c.04-20.68,16.82-37.44,37.51-37.44s37.51,16.8,37.51,37.51h22.93s0,.03,0,.07c0-.02,0-.04,0-.07,0-33.38-27.06-60.44-60.44-60.44s-60.34,26.96-60.44,60.26c0,.06,0,.12,0,.19h22.93Z"/>
    <path class="st11" d="M368.5,367.2h-22.93s-.03,1.81-.09,2.7c-1.38,19.46-17.61,34.82-37.42,34.82s-36.17-15.48-37.43-35.05c-.05-.81-.08-2.46-.08-2.46h-22.93s.02,1.63.05,2.45c1.29,32.25,27.83,58,60.4,58s58.83-25.48,60.37-57.49c.05-.98.07-2.96.07-2.96"/>
    <path class="st8" d="M352.2,376.02c0-11.11-8.27-20.12-18.47-20.12-.98,0-1.94.11-2.87.27-3.16-10.44-12.17-17.98-22.81-17.98s-19.64,7.54-22.81,17.98c-.94-.16-1.89-.27-2.87-.27-10.2,0-18.47,9.01-18.47,20.12,0,7.79,4.08,14.54,10.03,17.88.69.45,1.76.84,2.92,1.17,2.68.77,5.46,1.1,8.23,1.12,9.43.05,36.51.05,45.94,0,2.77-.01,5.55-.35,8.23-1.12,1.16-.33,2.23-.73,2.92-1.17,5.95-3.34,10.03-10.08,10.03-17.88Z"/>
    <g>
      <g>
        <path class="st11" d="M308.05,388.8c-10.58,0-19.19-8.61-19.19-19.19s8.61-19.19,19.19-19.19,19.19,8.61,19.19,19.19c0,2.65-.53,5.21-1.57,7.62-.27.61-.97.9-1.59.63-.61-.27-.89-.98-.63-1.59.91-2.1,1.37-4.34,1.37-6.66,0-9.25-7.53-16.78-16.78-16.78s-16.78,7.53-16.78,16.78,7.53,16.78,16.78,16.78c.67,0,1.21.54,1.21,1.21s-.54,1.21-1.21,1.21Z"/>
        <polygon class="st11" points="321.08 372.82 320.64 382.45 329.2 378.03 321.08 372.82"/>
      </g>
      <line class="st1" x1="300.92" y1="376.11" x2="308.05" y2="369.6"/>
      <line class="st1" x1="308.05" y1="369.6" x2="308.05" y2="357.56"/>
    </g>
  </g>
</svg>