<svg xmlns="http://www.w3.org/2000/svg" id="Layer_1" viewBox="0 0 500 495.03"><defs><style>.st0{fill:#6fafac}.st2,.st4{fill:none}.st4{stroke-linecap:round;stroke-linejoin:round}.st2{stroke:#aecc53;stroke-miterlimit:10}.st2,.st4{stroke-width:2.66px}.st10{fill:#00544f}.st11{fill:#fff}.st4{stroke:#fff}.st12{fill:#aecc53}.st13{fill:#006d68}.st14{fill:#003834}</style></defs><path d="M331 14.77C309.42 6.68 286.89-.1 263.83 0c-31.07.14-60.6 12.68-88.86 25.58-52.03 23.75-93.06 60.96-135.71 98.76C4.74 154.93-.93 218.37.11 261.47c.13 5.2.26 10.43.49 15.65.73 16.07 2.45 32.09 8.08 47.07 9.03 24.02 29.98 44.3 45.8 64.07 17.13 21.4 33.91 39.26 56.97 54.54 26.1 17.3 63.43 47.01 95.63 49.74 40.53 3.43 71.57 5.08 110.53-7.06 41.5-12.94 86.97-31.81 116.84-64.9 15.66-17.35 25.88-42.1 37.54-62.28 22.74-39.35 32.16-81.79 26.31-127.02-6.12-47.35-24.72-83.64-44.34-125.96-25.19-54.35-69.47-70.5-122.96-90.55" style="fill:#ebf2d4"/><path d="M238.33 52.76h-84.06v144.08h113.01V86.6z" style="fill:none;stroke-linecap:round;stroke-linejoin:round;stroke-width:2.66px;stroke:#a8c653"/><path d="M238.03 85.65h28.72l-28.72-33.24zm-66.09 19.92h80.86v8.34h-80.86zm0 27.65h80.86v8.34h-80.86zm0 27.65h80.86v8.34h-80.86z" style="fill:#a8c653"/><path d="M40.14 105.43h172.44v259.73H40.14z" class="st0"/><path d="M92.5 90.27h67.72c6.61 0 11.98 5.37 11.98 11.98v4.54H80.52v-4.54c0-6.61 5.37-11.98 11.98-11.98" class="st10"/><path d="M94.53 105.1h63.67v11.06H94.53z" class="st10"/><path d="M55.87 156.96h17.51v17.51H55.87z" class="st14"/><path d="M83.78 165.71h113.07" class="st4"/><path d="M55.87 208.06h17.51v17.51H55.87z" class="st14"/><path d="M83.78 216.81h113.07" class="st4"/><path d="M55.87 259.15h17.51v17.51H55.87z" class="st14"/><path d="M83.78 267.91h113.07" class="st4"/><path d="M55.87 310.25h17.51v17.51H55.87z" class="st14"/><path d="M83.78 319h113.07" class="st4"/><path d="M363.86 141.58a44.5 44.5 0 0 0-5.4 20.77c-.3 24.54 29.99 52.07 44.07 52.07 19.04 0 45.35-26.61 45.35-51.52 0-10.22-3.43-19.65-9.21-27.18-2.75-3.58-3.41-8.34-1.68-12.5 1.8-4.33 2.79-9.07 2.79-14.05 0-8.47-2.88-16.27-7.71-22.48-3.04-3.91-3.58-9.18-1.33-13.59 2.13-4.2 3.34-8.95 3.34-13.98 0-17.07-18.77-51.15-30.91-51.15-10.67 0-30.91 34.08-30.91 51.15 0 5.03 1.2 9.78 3.34 13.98 2.25 4.41 1.71 9.68-1.33 13.59a36.47 36.47 0 0 0-7.71 22.48c0 4.98.99 9.72 2.79 14.05 1.73 4.16 1.08 8.91-1.66 12.48-1.42 1.85-2.7 3.81-3.82 5.88" class="st13"/><path d="M403.17 47.36V272.1" style="fill:none;stroke-linecap:round;stroke-linejoin:round;stroke-width:3.23px;stroke:#a8c653"/><path d="M134.98 232.92h346.16v195.74c0 17.98-14.6 32.58-32.58 32.58H167.55c-17.98 0-32.58-14.6-32.58-32.58V232.92Z" class="st10"/><path d="M236.39 252.63v-35.47c0-21.23 17.21-38.45 38.45-38.45h69.29c21.23 0 38.45 17.21 38.45 38.45v35.47" style="fill:none;stroke-miterlimit:10;stroke:#6fafac;stroke-width:9.86px"/><path d="M134.98 232.92h346.16V341.1c0 13.73-11.14 24.87-24.87 24.87H159.84c-13.73 0-24.87-11.14-24.87-24.87V232.92Z" class="st14"/><rect width="19.71" height="52.56" x="183.22" y="334.76" class="st0" rx="9.86" ry="9.86"/><rect width="19.71" height="52.56" x="413.18" y="334.76" class="st0" rx="9.86" ry="9.86"/><path d="M203.76 472.85H85.73m207.1 0h-60.91m-108.84 0v-37.89" class="st2"/><path d="M129.08 435.26c0-3.31-2.69-6-6-6s-6 2.69-6 6 2.69 6 6 6 6-2.69 6-6" class="st12"/><path d="M104.3 472.85v-57.58" class="st2"/><path d="M110.3 415.57c0-3.31-2.69-6-6-6s-6 2.69-6 6 2.69 6 6 6 6-2.69 6-6" class="st12"/><path d="M270.54 367.2v-.08c.04-20.68 16.82-37.44 37.51-37.44s37.51 16.8 37.51 37.51h22.93v.07-.07c0-33.38-27.06-60.44-60.44-60.44s-60.34 26.96-60.44 60.26v.19z" class="st13"/><path d="M368.5 367.2h-22.93s-.03 1.81-.09 2.7c-1.38 19.46-17.61 34.82-37.42 34.82s-36.17-15.48-37.43-35.05c-.05-.81-.08-2.46-.08-2.46h-22.93s.02 1.63.05 2.45c1.29 32.25 27.83 58 60.4 58s58.83-25.48 60.37-57.49c.05-.98.07-2.96.07-2.96" class="st11"/><path d="M352.2 376.02c0-11.11-8.27-20.12-18.47-20.12-.98 0-1.94.11-2.87.27-3.16-10.44-12.17-17.98-22.81-17.98s-19.64 7.54-22.81 17.98c-.94-.16-1.89-.27-2.87-.27-10.2 0-18.47 9.01-18.47 20.12 0 7.79 4.08 14.54 10.03 17.88.69.45 1.76.84 2.92 1.17 2.68.77 5.46 1.1 8.23 1.12 9.43.05 36.51.05 45.94 0 2.77-.01 5.55-.35 8.23-1.12 1.16-.33 2.23-.73 2.92-1.17 5.95-3.34 10.03-10.08 10.03-17.88" style="fill:#aac853"/><path d="M308.05 388.8c-10.58 0-19.19-8.61-19.19-19.19s8.61-19.19 19.19-19.19 19.19 8.61 19.19 19.19c0 2.65-.53 5.21-1.57 7.62-.27.61-.97.9-1.59.63-.61-.27-.89-.98-.63-1.59.91-2.1 1.37-4.34 1.37-6.66 0-9.25-7.53-16.78-16.78-16.78s-16.78 7.53-16.78 16.78 7.53 16.78 16.78 16.78c.67 0 1.21.54 1.21 1.21s-.54 1.21-1.21 1.21Z" class="st11"/><path d="m321.08 372.82-.44 9.63 8.56-4.42z" class="st11"/><path d="m300.92 376.11 7.13-6.51m0 0v-12.04" style="stroke:#3c3c3c;stroke-width:2.4px;fill:none;stroke-linecap:round;stroke-linejoin:round"/></svg>