<svg xmlns="http://www.w3.org/2000/svg" width="26" height="25" fill="none" viewBox="0 0 26 25"><path fill="#a5c352" stroke="#a5c352" stroke-miterlimit="10" stroke-width=".767" d="M4.384 16.168h20.434V3.175H4.384z"/><path fill="#006d68" d="M1.181 20.953h20.434V7.96H1.181z"/><path fill="#fff" d="M11.777 13.9c-.88-.377-1.158-.612-1.158-1.036 0-.33.232-.753.927-.753.648 0 1.019.235 1.204.33l.093.047.324-.895-.092-.047c-.371-.235-.742-.33-1.251-.377v-.988h-.835v1.036c-.926.188-1.482.847-1.482 1.694 0 1.036.834 1.507 1.714 1.836.742.33 1.066.612 1.066 1.083 0 .518-.417.894-1.066.894-.463 0-.973-.14-1.344-.423l-.139-.094-.324.894.046.047c.371.235.927.424 1.483.47v1.037h.834v-1.083c1.066-.236 1.576-1.036 1.576-1.79 0-.847-.464-1.411-1.576-1.882"/></svg>