<svg xmlns="http://www.w3.org/2000/svg" width="50" height="50" fill="none" viewBox="0 0 50 50"><path fill="#006d68" d="M18.15 3.95v1.02c0 .96-.78 1.75-1.75 1.75H2.75C1.79 6.72 1 7.5 1 8.47v27.46c0 .96.78 1.75 1.75 1.75h33.59c.96 0 1.75-.78 1.75-1.75V3.95c0-.96-.78-1.75-1.75-1.75H19.91c-.96 0-1.75.78-1.75 1.75z"/><path fill="#a7c553" d="M29.07 14.08v1.02c0 .96-.78 1.75-1.75 1.75H13.66c-.96 0-1.75.78-1.75 1.75v27.46c0 .96.78 1.75 1.75 1.75h33.59c.96 0 1.75-.78 1.75-1.75V14.08c0-.96-.78-1.75-1.75-1.75H30.82c-.96 0-1.75.78-1.75 1.75"/></svg>