<svg xmlns="http://www.w3.org/2000/svg" id="Layer_1" viewBox="0 0 500 500"><defs><style>.st0{stroke:#a6c453;stroke-width:2.79px}.st0,.st2,.st5{fill:none}.st0,.st2,.st5,.st7{stroke-linecap:round;stroke-linejoin:round}.st8{fill:#ebf2d4}.st11{fill:#fff}.st2{stroke:#fff;stroke-width:2.89px}.st12{fill:#aecc53}.st5{stroke:#aecc53;stroke-width:3.59px}.st7{fill:#006e69;stroke:#006e69;stroke-width:2.42px}.st14{fill:#a9c753}.st15{fill:#003834}</style></defs><path d="M329.11 22.69c-21.08-7.9-43.09-14.52-65.6-14.42-30.34.13-59.18 12.38-86.78 24.98-50.82 23.2-90.89 59.54-132.54 96.45-33.72 29.88-39.26 91.83-38.24 133.93.12 5.08.25 10.18.48 15.28.71 15.7 2.39 31.34 7.89 45.97 8.82 23.46 29.28 43.27 44.73 62.57 16.73 20.9 33.12 38.34 55.63 53.27 25.49 16.9 61.95 45.91 93.4 48.58 39.59 3.35 69.9 4.96 107.95-6.9 40.53-12.63 84.94-31.07 114.11-63.38 15.29-16.94 25.28-41.12 36.66-60.82 22.21-38.43 31.41-79.88 25.7-124.05-5.98-46.24-24.15-81.68-43.31-123.02-24.61-53.08-67.85-68.85-120.09-88.43Z" class="st8"/><path d="M274.09 112.56c33.39-37.4 81.42-40.01 124.64-21.36 6.75 2.91 13.23 8.39 18.67 13.24 12.84 11.46 22.66 26.13 28.3 42.4 2.66 7.67 4.38 14.9 3.68 22.93-.64 7.29.89 13.18 1.36 20.51.41 6.42-2.16 14.15-4.05 20.21-4.3 13.76-11.57 26.51-21.17 37.26-8.43 9.44-18.44 16.9-29.57 22.84-8.66 4.62-19.12 5.28-28.3 8.24-9.63 3.11-19.14 3.25-29.31 2.02-20.63-2.48-40.59-11.11-56.12-24.98-18.42-16.44-30.35-39.37-33.21-63.9-1.42-12.12-.64-24.48 2.29-36.32 2.05-8.26 6.39-15.29 10.74-22.49 4.28-7.11 6.5-14.36 12.06-20.59Z" class="st0"/><path d="M420.4 252.85c-4.72 1.11-11.14-.62-15.18-3.07-2.1-1.27-4.23-2.56-5.99-4.29-4.06-3.98-5.74-10.04-4.96-15.67 1.66-12.06 13.86-20.02 22.6-27.15 17.64-14.39 29.79-35.31 28.03-58.62" class="st0"/><path d="M393.48 271.04c-10.48-2.23-20.18-9.1-25.21-18.64-4.94-9.37-2.88-21.29 1.52-30.54 8.05-16.94 23.06-27.2 35.58-40.55 9.83-10.47 15.48-21.64 19.09-35.42 2.55-9.75 5.08-22.56 2.23-32.45m-84.96-33.32c28.31-4.37 58.98 17.28 49.88 50.02-4.33 15.56-16.12 27.43-29.69 35.58-12.34 7.41-30.67 5.77-44.86 10.05-7.9 2.38-14.27 9.78-21.02 14.52-2.82 1.98-5.67 3.98-8.85 5.33-7.71 3.27-17.1 2.21-23.89-2.69-12.35-8.92-14.36-24.13-11.42-39.37" class="st0"/><path d="M369.04 127.43c1.64-7.13-.31-15.33-5.99-19.93-2.82-2.29-6.33-3.57-9.87-4.43-21.05-5.07-43.89 4.75-57.99 21.18-4.96 5.78-9.08 12.49-10.69 19.94s-.45 15.71 4.21 21.74c7.21 9.32 14.13 3.96 21.04-1.87 6.25-5.28 10.48-6.91 18.42-7.6 16.94-1.48 36.66-10.65 40.88-29.02Z" class="st0"/><path d="M334.44 138.15c2.56-1.22 5.15-2.63 6.87-4.88s2.35-5.57.77-7.93c-1.85-2.76-5.73-3.12-9.04-2.92a58 58 0 0 0-19.79 4.78c-3.32 1.46-6.76 3.52-7.94 6.95-6.19 18.01 24.61 6.16 29.14 3.99Zm-79.27 78.78c13.84 16.51 40.03 8.35 53.15-4.2 6.97-6.67 11.05-14.99 20.54-18.92 7.62-3.15 16.19-2.65 24.31-4.08 36.69-6.46 66.7-56.96 54.66-92.8m-41.38 182.5c-7.62-.98-13.79-6.22-16.92-13.23-2.76-6.18-4.1-12.92-4.13-19.68-.03-6.27-.46-12.13-3.94-17.6-5.68-8.93-19.42-3.13-25.11 2.94-3.68 3.92-7.35 7.9-11.49 11.34-8.5 7.06-18.48 10.47-29.28 6.76" class="st0"/><path d="M343.43 281.09c-5.29.48-10.52-5.08-12.66-9.39-2.92-5.88 1.41-10.34.94-16.32-.21-2.76-1.86-5.38-4.26-6.77s-5.49-1.51-7.99-.31c-2.48 1.18-4.23 3.47-5.84 5.7-2 2.79-3.96 5.67-6.61 7.86-3.24 2.69-8.63 4.46-12.74 2.69" class="st0"/><circle cx="281.47" cy="197.51" r="8.84" class="st14"/><circle cx="419.58" cy="203.42" r="8.84" class="st14"/><circle cx="294.28" cy="125.45" r="6" class="st14"/><circle cx="393.24" cy="113.46" r="8.84" class="st14"/><circle cx="330.83" cy="237.46" r="6" class="st14"/><path d="M162.68 186.7c-4.13 0-7.51-3.38-7.51-7.51s3.38-7.51 7.51-7.51h38.48c.62-3.46.96-7.01.96-10.64 0-2.73-.41-5.89-1.16-9.39h-38.28c-4.13 0-7.51-3.38-7.51-7.51s3.38-7.51 7.51-7.51h33.86c-2.24-6.28-5.03-13.05-8.16-20.03h-25.7c-4.13 0-7.51-3.38-7.51-7.51s3.38-7.51 7.51-7.51h18.63c-3.32-6.76-6.81-13.52-10.27-20.03h-8.35c-4.13 0-7.51-3.38-7.51-7.51s3.38-7.51 7.51-7.51h.17c-11.39-20.45-20.82-35.68-20.82-35.68s-9.43 15.23-20.82 35.68h.17c4.13 0 7.51 3.38 7.51 7.51s-3.38 7.51-7.51 7.51h-8.35c-3.47 6.51-6.95 13.27-10.27 20.03h18.63c4.13 0 7.51 3.38 7.51 7.51s-3.38 7.51-7.51 7.51H95.7c-3.13 6.98-5.92 13.76-8.16 20.03h33.86c4.13 0 7.51 3.38 7.51 7.51s-3.38 7.51-7.51 7.51H83.12c-.74 3.5-1.16 6.66-1.16 9.39 0 3.63.34 7.19.96 10.64h38.48c4.13 0 7.51 3.38 7.51 7.51s-3.38 7.51-7.51 7.51H87.71c9.63 20.35 30.34 34.43 54.34 34.43s44.72-14.08 54.34-34.43H162.7Z" style="fill:#adcb53"/><path d="M278.87 201.1c0 24.41-19.79 44.2-44.2 44.2s-44.2-19.79-44.2-44.2c0-16.48 20.14-52.86 33.23-74.77 4.96-8.31 16.98-8.31 21.94 0 13.09 21.91 33.23 58.29 33.23 74.77" class="st7"/><path d="M251.88 175.1c-1.47 8.15-8.64 14.38-17.2 14.38s-15.73-6.23-17.2-14.38" class="st2"/><path d="M248.59 174.94c.17-1.79 1.77-3.1 3.56-2.93s3.1 1.77 2.93 3.56a3.264 3.264 0 0 1-3.56 2.93 3.264 3.264 0 0 1-2.93-3.56m-27.82 0a3.264 3.264 0 0 0-3.56-2.93c-1.79.17-3.1 1.77-2.93 3.56s1.77 3.1 3.56 2.93 3.1-1.77 2.93-3.56" class="st11"/><path d="M260.47 198.96c-1.54 12.84-12.55 22.88-25.79 22.88s-24.25-10.04-25.79-22.88" class="st2"/><path d="M257.17 198.88c.13-1.8 1.69-3.15 3.48-3.03 1.8.13 3.15 1.69 3.03 3.48s-1.69 3.15-3.48 3.03a3.27 3.27 0 0 1-3.03-3.48m-44.99 0c-.13-1.8-1.69-3.15-3.48-3.03s-3.15 1.69-3.03 3.48 1.69 3.15 3.48 3.03c1.8-.13 3.15-1.69 3.03-3.48" class="st11"/><path d="M234.69 245.3v96.61" style="fill:none;stroke-linecap:round;stroke-linejoin:round;stroke-width:2.89px;stroke:#adcb53"/><path d="M234.69 155.7v89.6" class="st2"/><circle cx="234.69" cy="155.86" r="3.26" class="st11"/><path d="M142.02 84.01v250.45" style="fill:none;stroke-linecap:round;stroke-linejoin:round;stroke:#fff;stroke-width:3.4px"/><path d="M141.58 254.99c0 27.25-22.09 49.34-49.34 49.34S42.9 282.24 42.9 254.99c0-18.43 22.58-60.85 37.19-86.37 5.38-9.39 18.93-9.39 24.31 0 14.61 25.52 37.19 67.93 37.19 86.37Z" class="st15"/><path d="M92.24 194.56v162.49" class="st5"/><path d="M88.18 194.76c0-2.24 1.82-4.05 4.05-4.05s4.05 1.82 4.05 4.05-1.82 4.05-4.05 4.05-4.05-1.82-4.05-4.05" class="st12"/><path d="M112.36 225.61c-1.82 9.73-10.4 17.15-20.64 17.15s-18.82-7.42-20.64-17.15" class="st5"/><path d="M108.28 225.4c.22-2.23 2.21-3.85 4.43-3.63s3.85 2.21 3.63 4.43c-.22 2.23-2.21 3.85-4.43 3.63s-3.85-2.21-3.63-4.43m-33.12 0a4.05 4.05 0 1 0-8.06.8 4.05 4.05 0 0 0 8.06-.8" class="st12"/><path d="M122.69 254.26c-1.91 15.37-15.11 27.36-30.97 27.36s-29.06-11.99-30.97-27.36" class="st5"/><path d="M118.59 254.16a4.055 4.055 0 1 1 8.089.589 4.055 4.055 0 0 1-8.089-.589m-53.74 0a4.06 4.06 0 0 0-4.34-3.75 4.055 4.055 0 1 0 .59 8.09 4.054 4.054 0 0 0 3.75-4.34" class="st12"/><path d="M63.11 333.52h221.63v111.65H63.11z" class="st7"/><path d="M179.69 408.39v-26.38l-16.62-12.95-19.62-26.85-.27.2v-7.94h-2.58v60.12l-14.57 11.83v13.05c-.95.48-1.62 1.45-1.62 2.59 0 1.6 1.3 2.91 2.91 2.91s2.91-1.3 2.91-2.91c0-1.14-.66-2.12-1.62-2.59v-11.83l12-9.74v27.86c-.96.48-1.62 1.45-1.62 2.59 0 1.6 1.3 2.91 2.91 2.91s2.91-1.3 2.91-2.91c0-1.14-.66-2.12-1.62-2.59V397.9l12 9.74v11.83c-.95.48-1.62 1.45-1.62 2.59 0 1.6 1.3 2.91 2.91 2.91s2.91-1.3 2.91-2.91c0-1.14-.66-2.12-1.62-2.59v-13.05l-14.57-11.83v-48.38l17.67 24.18v23.19c-.95.48-1.62 1.45-1.62 2.59 0 1.6 1.3 2.91 2.91 2.91s2.91-1.3 2.91-2.91c0-1.14-.66-2.12-1.62-2.59V372.6l13.69 10.66v25.13c-.95.48-1.62 1.45-1.62 2.59 0 1.6 1.3 2.91 2.91 2.91s2.91-1.3 2.91-2.91c0-1.14-.66-2.12-1.62-2.59Zm-58.01-17.82v-26.38l-16.75-13.05-11.6-9.18-.03.03v-7.52h-2.58v60.32l-10.71 11.74v12.94c-.96.48-1.62 1.45-1.62 2.59 0 1.6 1.3 2.91 2.91 2.91s2.91-1.3 2.91-2.91c0-1.14-.66-2.12-1.62-2.59v-11.94l8.13-8.92v27.15c-.96.48-1.62 1.45-1.62 2.59 0 1.6 1.3 2.91 2.91 2.91s2.91-1.3 2.91-2.91c0-1.14-.66-2.12-1.62-2.59v-27.15l8.13 8.92v11.94c-.95.48-1.62 1.45-1.62 2.59 0 1.6 1.3 2.91 2.91 2.91s2.91-1.3 2.91-2.91c0-1.14-.66-2.12-1.62-2.59v-12.94L93.3 394.79v-49.57l9.54 7.55v22.99c-.95.48-1.62 1.45-1.62 2.59 0 1.6 1.3 2.91 2.91 2.91s2.91-1.3 2.91-2.91c0-1.14-.66-2.12-1.62-2.59v-20.98l13.69 10.66v25.13c-.95.48-1.62 1.45-1.62 2.59 0 1.6 1.3 2.91 2.91 2.91s2.91-1.3 2.91-2.91c0-1.14-.66-2.12-1.62-2.59Zm150.7 17.82v-26.38l-16.62-12.95-19.62-26.85-.27.2v-7.94h-2.58v7.95l-.28-.2-18.98 26.84L197.42 382v26.38c-.95.48-1.62 1.45-1.62 2.59 0 1.6 1.3 2.91 2.91 2.91s2.91-1.3 2.91-2.91c0-1.14-.66-2.12-1.62-2.59v-25.13l13.69-10.66v20.98c-.95.48-1.62 1.45-1.62 2.59 0 1.6 1.3 2.91 2.91 2.91s2.91-1.3 2.91-2.91c0-1.14-.66-2.12-1.62-2.59v-23.2l17.03-24.08v48.3l-14.57 11.83v13.05c-.96.48-1.62 1.45-1.62 2.59 0 1.6 1.3 2.91 2.91 2.91s2.91-1.3 2.91-2.91c0-1.14-.66-2.12-1.62-2.59v-11.83l12-9.74v27.86c-.95.48-1.62 1.45-1.62 2.59 0 1.6 1.3 2.91 2.91 2.91s2.91-1.3 2.91-2.91c0-1.14-.66-2.12-1.62-2.59V397.9l12 9.74v11.83c-.95.48-1.62 1.45-1.62 2.59 0 1.6 1.3 2.91 2.91 2.91s2.91-1.3 2.91-2.91c0-1.14-.66-2.12-1.62-2.59v-13.05l-14.57-11.83v-48.38l17.67 24.18v23.19c-.96.48-1.62 1.45-1.62 2.59 0 1.6 1.3 2.91 2.91 2.91s2.91-1.3 2.91-2.91c0-1.14-.66-2.12-1.62-2.59V372.6l13.69 10.66v25.13c-.95.48-1.62 1.45-1.62 2.59 0 1.6 1.3 2.91 2.91 2.91s2.91-1.3 2.91-2.91c0-1.14-.66-2.12-1.62-2.59Z" class="st8"/><path d="M382.75 318.31v3.54c0 3.34 2.7 6.04 6.04 6.04h47.26c3.34 0 6.04 2.7 6.04 6.04v94.99c0 3.34-2.7 6.04-6.04 6.04H319.86c-3.34 0-6.04-2.7-6.04-6.04V318.31c0-3.34 2.7-6.04 6.04-6.04h56.85c3.34 0 6.04 2.7 6.04 6.04" class="st14"/><path d="M372.44 328.89v3.54c0 3.34 2.7 6.04 6.04 6.04h47.26c3.34 0 6.04 2.7 6.04 6.04v94.99c0 3.34-2.7 6.04-6.04 6.04H309.55c-3.34 0-6.04-2.7-6.04-6.04V328.89c0-3.34 2.7-6.04 6.04-6.04h56.85c3.34 0 6.04 2.7 6.04 6.04" class="st15"/><path d="M344.99 392.11v-.05c.02-12.49 10.16-22.61 22.65-22.61s22.65 10.14 22.65 22.65h13.85v.04-.04c0-20.16-16.34-36.5-36.5-36.5s-36.44 16.28-36.5 36.39v.11h13.85Z" style="fill:#006d68"/><path d="M404.14 392.11h-13.85s-.02 1.09-.06 1.63c-.83 11.75-10.63 21.03-22.6 21.03s-21.84-9.35-22.61-21.17c-.03-.49-.05-1.49-.05-1.49h-13.85s.01.99.03 1.48c.78 19.47 16.81 35.02 36.47 35.02s35.53-15.39 36.46-34.71c.03-.59.04-1.79.04-1.79" class="st11"/><path d="M394.3 397.44c0-6.71-4.99-12.15-11.15-12.15-.59 0-1.17.06-1.74.16-1.91-6.3-7.35-10.86-13.77-10.86s-11.86 4.55-13.77 10.86c-.57-.1-1.14-.16-1.74-.16-6.16 0-11.15 5.44-11.15 12.15 0 4.71 2.46 8.78 6.05 10.8.42.27 1.06.51 1.76.71 1.62.46 3.29.67 4.97.67 5.7.03 22.05.03 27.74 0 1.67 0 3.35-.21 4.97-.67.7-.2 1.35-.44 1.77-.71 3.59-2.02 6.06-6.09 6.06-10.8" style="fill:#aac853"/><path d="M367.64 405.15c-6.39 0-11.59-5.2-11.59-11.59s5.2-11.59 11.59-11.59 11.59 5.2 11.59 11.59c0 1.6-.32 3.14-.95 4.6a.73.73 0 0 1-1.34-.58c.55-1.27.83-2.62.83-4.02 0-5.59-4.54-10.13-10.13-10.13s-10.13 4.54-10.13 10.13 4.54 10.13 10.13 10.13c.4 0 .73.33.73.73s-.33.73-.73.73" class="st11"/><path d="m375.51 395.51-.27 5.81 5.17-2.67z" class="st11"/><path d="m363.34 397.49 4.3-3.93m0 0v-7.27" style="fill:none;stroke-linecap:round;stroke-linejoin:round;stroke:#3c3c3c;stroke-width:1.45px"/><path d="m408.238 293.494 13.336-13.336 13.336 13.336-13.336 13.336z" class="st15"/><path d="m421.57 284.12 9.37 9.37-9.37 9.37-9.37-9.37zm0-7.93-17.3 17.3 17.3 17.3 17.3-17.3z" class="st12"/><path d="M250.53 75.18c5.01 0 9.09 4.08 9.09 9.09s-4.08 9.09-9.09 9.09-9.09-4.08-9.09-9.09 4.08-9.09 9.09-9.09m0-6.83c-8.8 0-15.93 7.13-15.93 15.93s7.13 15.93 15.93 15.93 15.93-7.13 15.93-15.93-7.13-15.93-15.93-15.93" class="st15"/><path d="M209.1 291.08v-11.79l-10.2-5.89-10.21 5.89v11.79l10.21 5.89z" style="fill:none;stroke:#006d68;stroke-miterlimit:10;stroke-width:2.77px"/></svg>