<svg xmlns="http://www.w3.org/2000/svg" width="68" height="68" fill="none" viewBox="0 0 68 68"><path fill="#a5c352" d="M34 46.68c12.338 0 22.34-10.002 22.34-22.34S46.338 2 34 2 11.66 12.002 11.66 24.34 21.662 46.68 34 46.68"/><path fill="#fff" d="M53.4 24.34S44.71 36.73 34 36.73 14.6 24.34 14.6 24.34 23.29 11.95 34 11.95s19.4 12.39 19.4 12.39"/><path fill="#006d68" d="M34 31.03a6.81 6.81 0 1 0 0-13.62 6.81 6.81 0 0 0 0 13.62m0 36.63c-.91 0-1.66-.74-1.66-1.66V46.67c0-.92.74-1.66 1.66-1.66s1.66.74 1.66 1.66V66c0 .92-.74 1.66-1.66 1.66"/><path fill="#006d68" d="M15.23 50.54c7.58-2.18 15.64 1.58 18.77 8.83-7.59 2.21-15.62-1.61-18.77-8.83m37.54 0C49.62 57.77 41.58 61.58 34 59.37c3.13-7.25 11.19-11.01 18.77-8.83"/></svg>