<svg xmlns="http://www.w3.org/2000/svg" width="68" height="68" fill="none" viewBox="0 0 68 68"><path fill="#006d68" d="M34 53.5c10.77 0 19.5-8.73 19.5-19.5S44.77 14.5 34 14.5 14.5 23.23 14.5 34 23.23 53.5 34 53.5"/><path fill="#fff" d="M50.94 34S43.36 44.81 34 44.81 17.06 34 17.06 34 24.64 23.19 34 23.19 50.94 34 50.94 34"/><path fill="#006d68" d="M34 39.85a5.95 5.95 0 1 0 0-11.9 5.95 5.95 0 0 0 0 11.9"/><path stroke="#a5c352" stroke-linecap="round" stroke-linejoin="round" stroke-width="3.28" d="M7.87 22.61C14.17 8.18 30.96 1.58 45.39 7.87c7.77 3.39 13.27 9.82 15.71 17.29"/><path fill="#a5c352" d="m54.07 24.47 8.43 10.01 4.46-12.31z"/><path stroke="#a5c352" stroke-linecap="round" stroke-linejoin="round" stroke-width="3.28" d="M60.13 45.39c-6.29 14.43-23.09 21.03-37.51 14.74-7.77-3.39-13.27-9.82-15.71-17.29"/><path fill="#a5c352" d="M13.93 43.53 5.5 33.52 1.04 45.83z"/></svg>