<svg width="68" height="68" viewBox="0 0 68 68" fill="none" xmlns="http://www.w3.org/2000/svg">
<path d="M34 53.5C44.7696 53.5 53.5 44.7696 53.5 34C53.5 23.2304 44.7696 14.5 34 14.5C23.2304 14.5 14.5 23.2304 14.5 34C14.5 44.7696 23.2304 53.5 34 53.5Z" fill="#006D68"/>
<path d="M50.9401 33.9999C50.9401 33.9999 43.3601 44.8099 34.0001 44.8099C24.6401 44.8099 17.0601 33.9999 17.0601 33.9999C17.0601 33.9999 24.6401 23.1899 34.0001 23.1899C43.3601 23.1899 50.9401 33.9999 50.9401 33.9999Z" fill="white"/>
<path d="M34 39.8499C37.2861 39.8499 39.9501 37.186 39.9501 33.9C39.9501 30.6139 37.2861 27.95 34 27.95C30.714 27.95 28.05 30.6139 28.05 33.9C28.05 37.186 30.714 39.8499 34 39.8499Z" fill="#006D68"/>
<path d="M7.87012 22.61C14.1701 8.18001 30.9601 1.58001 45.3901 7.87001C53.1601 11.26 58.6601 17.69 61.1001 25.16" stroke="#A5C352" stroke-width="3.28" stroke-linecap="round" stroke-linejoin="round"/>
<path d="M54.0701 24.47L62.5001 34.48L66.9601 22.17L54.0701 24.47Z" fill="#A5C352"/>
<path d="M60.1302 45.39C53.8402 59.82 37.0402 66.42 22.6202 60.13C14.8502 56.74 9.35016 50.31 6.91016 42.84" stroke="#A5C352" stroke-width="3.28" stroke-linecap="round" stroke-linejoin="round"/>
<path d="M13.93 43.53L5.50004 33.52L1.04004 45.83L13.93 43.53Z" fill="#A5C352"/>
</svg>
