<svg xmlns="http://www.w3.org/2000/svg" width="64" height="64" fill="none" viewBox="0 0 64 64"><path fill="#006d68" d="M56.856 61.94a.75.75 0 0 0-.49-.23c-2.91-.29-5.19-2.82-5.19-5.74l.04-37.98c0-5.14-4.18-9.31-9.31-9.31H1.426c-.33 0-.6.22-.72.51-.13.3-.04.67.19.9.13.13.3.21.48.23 2.68.29 4.83 2.44 5.12 5.03l.06 38.69c0 5.13 4.18 9.31 9.31 9.31h40.45c.33 0 .6-.21.73-.51a.84.84 0 0 0-.19-.89z"/><path fill="#006d68" d="M56.316 64h-40.44c-5.49 0-9.96-4.47-9.97-9.96l-.06-38.68c-.25-2.22-2.2-4.14-4.53-4.39-.33-.04-.64-.19-.88-.42-.42-.43-.55-1.08-.33-1.61.23-.56.75-.92 1.33-.92h40.47c5.5 0 9.97 4.47 9.97 9.97l-.04 37.98c0 2.59 2.02 4.83 4.61 5.09.33.03.65.18.89.42.42.42.55 1.06.33 1.6-.23.56-.76.92-1.33.92zM1.426 9.33c-.05 0-.1.06-.12.11s0 .13.05.19c3.07.36 5.46 2.72 5.78 5.65l.06 38.76c0 4.77 3.89 8.66 8.66 8.66h40.45c.05 0 .1-.06.12-.11s0-.13-.05-.18c0 0-.06-.04-.09-.04-3.24-.33-5.78-3.14-5.78-6.4l.04-37.98c0-4.78-3.89-8.66-8.66-8.66z"/><path fill="#a5c352" d="M63.085 53.94a.85.85 0 0 0-.52-.25c-2.89-.29-5.15-2.79-5.15-5.69l.04-37.98c0-5.16-4.2-9.36-9.36-9.36H7.615c-.35 0-.64.23-.77.55a.9.9 0 0 0 .2.95c.14.14.32.23.51.25 2.65.29 4.79 2.42 5.07 4.99l.06 38.69c0 5.16 4.2 9.36 9.36 9.36h40.45c.35 0 .64-.22.77-.54s.04-.7-.2-.95z"/><path fill="#a5c352" d="M62.506 56.08h-40.45c-5.52 0-10.01-4.49-10.02-10.01l-.06-38.68c-.24-2.19-2.18-4.09-4.49-4.34-.34-.04-.67-.19-.91-.44-.43-.44-.57-1.11-.34-1.66.24-.58.78-.95 1.37-.95h40.47c5.52 0 10.02 4.49 10.02 10.02L58.056 48c0 2.57 2 4.79 4.56 5.04.35.04.67.19.92.44.43.44.57 1.1.34 1.66-.24.58-.78.95-1.37.95zM7.615 1.31c-.07 0-.14.07-.17.14s0 .18.06.24c.03.03.08.05.12.06 2.95.32 5.33 2.66 5.65 5.56l.06 38.76c0 4.8 3.91 8.71 8.71 8.71h40.45c.08 0 .14-.08.17-.14.03-.07 0-.17-.06-.23 0 0-.08-.06-.12-.06-3.22-.33-5.74-3.11-5.74-6.35l.04-37.98c0-4.8-3.91-8.71-8.71-8.71z"/><path fill="#fff" d="M33.736 42.41c-.71 0-1.39-.29-1.89-.81l-9.99-10.45c-1-1.04-.96-2.7.08-3.69 1.04-1 2.7-.96 3.69.08l7.5 7.85 10.95-20.34a2.61 2.61 0 0 1 3.54-1.06c1.27.68 1.75 2.27 1.06 3.54l-12.65 23.51c-.4.74-1.12 1.24-1.95 1.35-.12.02-.23.02-.35.02z"/></svg>