<svg xmlns="http://www.w3.org/2000/svg" width="68" height="68" fill="none" viewBox="0 0 68 68"><g clip-path="url(#a)"><path fill="#006d68" d="M34 58.14c13.332 0 24.14-10.808 24.14-24.14S47.332 9.86 34 9.86 9.86 20.668 9.86 34 20.668 58.14 34 58.14"/><path fill="#fff" d="M54.97 34S45.58 47.39 34 47.39 13.03 34 13.03 34 22.42 20.61 34 20.61 54.97 34 54.97 34"/><path fill="#006d68" d="M34 41.23a7.36 7.36 0 1 0 0-14.72 7.36 7.36 0 0 0 0 14.72"/><path fill="#a5c352" d="M2 23.43c-.82 0-1.49-.67-1.49-1.49V2C.51 1.17 1.18.51 2 .51h19.93c.82 0 1.49.67 1.49 1.49s-.67 1.49-1.49 1.49H3.49v18.44c0 .83-.67 1.49-1.49 1.49zm19.93 44.06H2c-.82 0-1.49-.67-1.49-1.49V46.07c0-.83.67-1.49 1.49-1.49s1.49.67 1.49 1.49v18.44h18.44c.82 0 1.49.67 1.49 1.49s-.67 1.49-1.49 1.49m44.07 0H46.07c-.82 0-1.49-.67-1.49-1.49s.67-1.49 1.49-1.49h18.44V46.07c0-.83.67-1.49 1.49-1.49s1.49.67 1.49 1.49V66c0 .83-.67 1.49-1.49 1.49m0-44.06c-.82 0-1.49-.67-1.49-1.49V3.49H46.07c-.82 0-1.49-.67-1.49-1.49S45.25.51 46.07.51H66c.82 0 1.49.67 1.49 1.49v19.93c0 .83-.67 1.49-1.49 1.49z"/></g><defs><clipPath id="a"><path fill="#fff" d="M0 0h68v68H0z"/></clipPath></defs></svg>