<?xml version="1.0" encoding="UTF-8"?>
<svg id="Layer_1" xmlns="http://www.w3.org/2000/svg" version="1.1" viewBox="0 0 500 500">
  <!-- Generator: Adobe Illustrator 30.2.1, SVG Export Plug-In . SVG Version: 2.1.1 Build 1)  -->
  <defs>
    <style>
      .st0 {
        stroke-width: 3.41px;
      }

      .st0, .st1, .st2, .st3 {
        fill: none;
      }

      .st0, .st4, .st5, .st6 {
        stroke-miterlimit: 10;
      }

      .st0, .st5 {
        stroke: #adcb53;
      }

      .st7 {
        fill: #ebf2d4;
      }

      .st8 {
        fill: #f4f7e8;
      }

      .st1 {
        stroke: #006d68;
        stroke-width: 4px;
      }

      .st1, .st2, .st3 {
        stroke-linejoin: round;
      }

      .st2 {
        stroke: #a8c653;
        stroke-width: 2px;
      }

      .st2, .st3 {
        stroke-linecap: round;
      }

      .st9, .st5 {
        fill: #adcb53;
      }

      .st10 {
        fill: #fff;
      }

      .st3 {
        stroke-width: 5.65px;
      }

      .st3, .st4, .st6 {
        stroke: #fff;
      }

      .st4, .st6 {
        stroke-width: 1.59px;
      }

      .st4, .st11 {
        fill: #003834;
      }

      .st12 {
        fill: #aecc53;
      }

      .st13, .st6 {
        fill: #006d68;
      }

      .st5 {
        stroke-width: .67px;
      }
    </style>
  </defs>
  <path class="st7" d="M331,17.25c-21.59-8.09-44.12-14.87-67.17-14.77-31.07.14-60.6,12.68-88.86,25.58-52.03,23.75-93.06,60.96-135.71,98.76C4.74,157.41-.93,220.85.11,263.95c.13,5.2.26,10.43.49,15.65.73,16.07,2.45,32.09,8.08,47.07,9.03,24.02,29.98,44.3,45.8,64.07,17.13,21.4,33.91,39.26,56.97,54.54,26.1,17.3,63.43,47.01,95.63,49.74,40.53,3.43,71.57,5.08,110.53-7.06,41.5-12.94,86.97-31.81,116.84-64.9,15.66-17.35,25.88-42.1,37.54-62.28,22.74-39.35,32.16-81.79,26.31-127.02-6.12-47.35-24.72-83.64-44.34-125.96-25.19-54.35-69.47-70.5-122.96-90.55Z"/>
  <g>
    <g>
      <path class="st8" d="M346.94,74.69c-8.78,0-17.18,1.6-24.94,4.51-8.64-29.52-35.9-51.08-68.22-51.08-32.31,0-59.57,21.57-68.22,51.08-7.76-2.91-16.16-4.51-24.94-4.51-39.26,0-71.09,31.83-71.09,71.09,0,39.26,31.83,71.09,71.09,71.09,17.82,0,75.33,0,93.15,0,17.82,0,75.33,0,93.15,0,39.26,0,71.09-31.83,71.09-71.09,0-39.26-31.83-71.09-71.09-71.09Z"/>
      <path class="st0" d="M348.46,74.69c-8.78,0-17.18,1.6-24.94,4.51-8.64-29.52-35.9-51.08-68.22-51.08-32.31,0-59.57,21.57-68.22,51.08-7.76-2.91-16.16-4.51-24.94-4.51-39.26,0-71.09,31.83-71.09,71.09,0,39.26,31.83,71.09,71.09,71.09,17.82,0,75.33,0,93.15,0,17.82,0,75.33,0,93.15,0,39.26,0,71.09-31.83,71.09-71.09,0-39.26-31.83-71.09-71.09-71.09Z"/>
      <path class="st3" d="M114.95,165.42c10.01,20.14,26.65,33.81,49.95,33.7"/>
      <line class="st3" x1="177.3" y1="199.12" x2="229.83" y2="199.12"/>
    </g>
    <g>
      <g>
        <path class="st11" d="M131.27,327.58H16.22v147.55h.09c-.06.15-.09.31-.09.46,0,4.59,25.76,12.73,57.53,12.73s57.53-8.14,57.53-12.73c0-.15-.03-.31-.09-.46h.09v-147.55Z"/>
        <g>
          <g>
            <path class="st9" d="M23.6,438.84v25.58c0,4.75,22.45,11.26,50.14,11.26s50.14-6.51,50.14-11.26v-25.58H23.6Z"/>
            <ellipse class="st4" cx="74.21" cy="438.84" rx="49.67" ry="8.61"/>
          </g>
          <g>
            <path class="st9" d="M23.6,397.87v25.58c0,4.75,22.45,8.61,50.14,8.61s50.14-3.85,50.14-8.61v-25.58H23.6Z"/>
            <ellipse class="st4" cx="74.21" cy="397.87" rx="49.67" ry="8.61"/>
          </g>
          <g>
            <path class="st9" d="M23.6,357.35v25.58c0,4.75,22.45,8.61,50.14,8.61s50.14-3.85,50.14-8.61v-25.58H23.6Z"/>
            <ellipse class="st4" cx="74.21" cy="357.35" rx="49.67" ry="8.61"/>
          </g>
        </g>
        <g>
          <path class="st9" d="M73.74,341.4c-33.94,0-56.73-6.41-56.73-12.39s22.8-12.39,56.73-12.39,56.73,6.41,56.73,12.39-22.8,12.39-56.73,12.39Z"/>
          <path class="st11" d="M73.74,317.41c34.66,0,55.94,6.76,55.94,11.6s-21.28,11.6-55.94,11.6-55.94-6.76-55.94-11.6,21.28-11.6,55.94-11.6M73.74,315.82c-31.77,0-57.53,5.91-57.53,13.19s25.76,13.19,57.53,13.19,57.53-5.91,57.53-13.19-25.76-13.19-57.53-13.19h0Z"/>
        </g>
        <path class="st10" d="M96.75,306.95h-47.3v20.45h.06c-.03.12-.06.24-.06.36,0,2.98,10.59,5.4,23.65,5.4s23.65-2.42,23.65-5.4c0-.12-.02-.24-.06-.36h.06v-20.45Z"/>
        <ellipse class="st11" cx="73.1" cy="306.95" rx="23.65" ry="5.4"/>
        <ellipse class="st12" cx="73.1" cy="306.95" rx="13.95" ry="2.39"/>
      </g>
      <g>
        <path class="st11" d="M483.78,327.58h-115.06v147.55h.09c-.06.15-.09.31-.09.46,0,4.59,25.76,12.73,57.53,12.73s57.53-8.14,57.53-12.73c0-.15-.03-.31-.09-.46h.09v-147.55Z"/>
        <g>
          <g>
            <path class="st9" d="M376.11,438.84v25.58c0,4.75,22.45,11.26,50.14,11.26s50.14-6.51,50.14-11.26v-25.58h-100.29Z"/>
            <ellipse class="st4" cx="426.73" cy="438.84" rx="49.67" ry="8.61"/>
          </g>
          <g>
            <path class="st9" d="M376.11,397.87v25.58c0,4.75,22.45,8.61,50.14,8.61s50.14-3.85,50.14-8.61v-25.58h-100.29Z"/>
            <ellipse class="st4" cx="426.73" cy="397.87" rx="49.67" ry="8.61"/>
          </g>
          <g>
            <path class="st9" d="M376.11,357.35v25.58c0,4.75,22.45,8.61,50.14,8.61s50.14-3.85,50.14-8.61v-25.58h-100.29Z"/>
            <ellipse class="st4" cx="426.73" cy="357.35" rx="49.67" ry="8.61"/>
          </g>
        </g>
        <g>
          <path class="st9" d="M426.26,341.4c-33.94,0-56.73-6.41-56.73-12.39s22.8-12.39,56.73-12.39,56.73,6.41,56.73,12.39-22.8,12.39-56.73,12.39Z"/>
          <path class="st11" d="M426.26,317.41c34.66,0,55.94,6.76,55.94,11.6s-21.28,11.6-55.94,11.6-55.94-6.76-55.94-11.6,21.28-11.6,55.94-11.6M426.26,315.82c-31.77,0-57.53,5.91-57.53,13.19s25.76,13.19,57.53,13.19,57.53-5.91,57.53-13.19-25.76-13.19-57.53-13.19h0Z"/>
        </g>
        <path class="st10" d="M449.27,306.95h-47.3v20.45h.06c-.03.12-.06.24-.06.36,0,2.98,10.59,5.4,23.65,5.4s23.65-2.42,23.65-5.4c0-.12-.02-.24-.06-.36h.06v-20.45Z"/>
        <ellipse class="st11" cx="425.62" cy="306.95" rx="23.65" ry="5.4"/>
        <ellipse class="st12" cx="425.62" cy="306.95" rx="13.95" ry="2.39"/>
      </g>
      <g>
        <path class="st13" d="M307.59,328.38h-115.06v147.55h.09c-.06.15-.09.31-.09.46,0,4.59,25.76,12.73,57.53,12.73s57.53-8.14,57.53-12.73c0-.15-.03-.31-.09-.46h.09"/>
        <g>
          <g>
            <path class="st9" d="M199.92,439.63v25.58c0,4.75,22.45,11.26,50.14,11.26s50.14-6.51,50.14-11.26v-25.58h-100.29Z"/>
            <ellipse class="st6" cx="250.53" cy="439.63" rx="49.67" ry="8.61"/>
          </g>
          <g>
            <path class="st9" d="M199.92,398.67v25.58c0,4.75,22.45,8.61,50.14,8.61s50.14-3.85,50.14-8.61v-25.58h-100.29Z"/>
            <ellipse class="st6" cx="250.53" cy="398.67" rx="49.67" ry="8.61"/>
          </g>
          <g>
            <path class="st9" d="M199.92,358.94v25.58c0,4.75,22.45,8.61,50.14,8.61s50.14-3.85,50.14-8.61v-25.58h-100.29Z"/>
            <ellipse class="st6" cx="250.53" cy="358.15" rx="49.67" ry="8.61"/>
          </g>
        </g>
        <g>
          <path class="st9" d="M250.06,342.2c-33.94,0-56.73-6.41-56.73-12.39s22.8-12.39,56.73-12.39,56.73,6.41,56.73,12.39-22.8,12.39-56.73,12.39Z"/>
          <path class="st13" d="M250.06,318.21c34.66,0,55.94,6.76,55.94,11.6s-21.28,11.6-55.94,11.6-55.94-6.76-55.94-11.6,21.28-11.6,55.94-11.6M250.06,316.62c-31.77,0-57.53,5.91-57.53,13.19s25.76,13.19,57.53,13.19,57.53-5.91,57.53-13.19-25.76-13.19-57.53-13.19h0Z"/>
        </g>
        <path class="st10" d="M273.07,307.75h-47.3v20.45h.06c-.03.12-.06.24-.06.36,0,2.98,10.59,5.4,23.65,5.4s23.65-2.42,23.65-5.4c0-.12-.02-.24-.06-.36h.06v-20.45Z"/>
        <ellipse class="st13" cx="249.42" cy="307.75" rx="23.65" ry="5.4"/>
        <ellipse class="st12" cx="249.42" cy="307.75" rx="13.95" ry="2.39"/>
      </g>
      <path class="st2" d="M151.12,215.86v28.41c0,10.71-8.68,19.39-19.39,19.39h-38.6c-10.71,0-19.39,8.68-19.39,19.39v25.46"/>
      <path class="st2" d="M164.27,215.86v28.41c0,10.71,8.68,19.39,19.39,19.39h38.6c10.71,0,19.39,8.68,19.39,19.39v23.46"/>
      <path class="st2" d="M335.73,215.86v28.41c0,10.71-8.68,19.39-19.39,19.39h-38.6c-10.71,0-19.39,8.68-19.39,19.39v23.46"/>
      <path class="st2" d="M348.88,215.86v28.41c0,10.71,8.68,19.39,19.39,19.39h38.6c10.71,0,19.39,8.68,19.39,19.39v25.46"/>
    </g>
  </g>
  <g>
    <path class="st9" d="M252.75,181.74c.79.03,2.39.05,2.39.05l1.52.02v-15.58l-1.48-.02s-1.68-.02-2.5-.07c-21.7-1.3-38.7-19.35-38.7-41.11s18.47-41.18,41.18-41.18,40.14,17.26,41.14,39.3c.03.63.04,1.89.04,1.9l.02,1.48h15.59v-1.51s-.03-1.33-.05-1.99c-.51-14.72-6.65-28.49-17.28-38.78-10.65-10.31-24.67-15.99-39.46-15.99-31.3,0-56.77,25.47-56.77,56.77s23.88,55.44,54.36,56.72Z"/>
    <path class="st13" d="M296.38,126.52c-.78,21.56-18.16,38.95-39.72,39.72v15.43c30.07-.79,54.36-25.09,55.15-55.15h-15.43Z"/>
  </g>
  <path class="st10" d="M77.35,197.08h-14.19v-14.19c0-2.51-2.03-4.54-4.54-4.54s-4.54,2.03-4.54,4.54v14.19h-14.19c-2.51,0-4.54,2.03-4.54,4.54s2.03,4.54,4.54,4.54h14.19v14.19c0,2.51,2.03,4.54,4.54,4.54s4.54-2.03,4.54-4.54v-14.19h14.19c2.51,0,4.54-2.03,4.54-4.54s-2.03-4.54-4.54-4.54Z"/>
  <path class="st10" d="M362.86,295.5h-14.19v-14.19c0-2.51-2.03-4.54-4.54-4.54s-4.54,2.03-4.54,4.54v14.19h-14.19c-2.51,0-4.54,2.03-4.54,4.54s2.03,4.54,4.54,4.54h14.19v14.19c0,2.51,2.03,4.54,4.54,4.54s4.54-2.03,4.54-4.54v-14.19h14.19c2.51,0,4.54-2.03,4.54-4.54s-2.03-4.54-4.54-4.54Z"/>
  <g>
    <path class="st13" d="M410.67,147.86v2.4c0,2.26-1.83,4.09-4.09,4.09h-32.03c-2.26,0-4.09,1.83-4.09,4.09v64.38c0,2.26,1.83,4.09,4.09,4.09h78.74c2.26,0,4.09-1.83,4.09-4.09v-74.96c0-2.26-1.83-4.09-4.09-4.09h-38.53c-2.26,0-4.09,1.83-4.09,4.09Z"/>
    <rect class="st8" x="379.51" y="200" width="36.12" height="17.97"/>
  </g>
  <g>
    <g>
      <path class="st10" d="M115.21,118.76c-17.64,0-32-14.36-32-32s14.36-32,32-32,32,14.36,32,32-14.36,32-32,32Z"/>
      <path class="st13" d="M115.21,56.76c16.54,0,30,13.46,30,30s-13.46,30-30,30-30-13.46-30-30,13.46-30,30-30M115.21,52.76c-18.78,0-34,15.22-34,34s15.22,34,34,34,34-15.22,34-34-15.22-34-34-34h0Z"/>
    </g>
    <polyline class="st1" points="129.7 92.43 115.21 87.39 115.21 64.73"/>
  </g>
  <circle class="st5" cx="126.71" cy="263.26" r="8"/>
  <circle class="st5" cx="190.71" cy="264.26" r="8"/>
  <circle class="st5" cx="296.71" cy="262.26" r="8"/>
  <circle class="st5" cx="426.71" cy="283.26" r="8"/>
</svg>