<svg xmlns="http://www.w3.org/2000/svg" id="Layer_1" viewBox="0 0 500 500"><defs><style>.st4,.st5,.st6{stroke-miterlimit:10}.st5{stroke:#adcb53}.st8{fill:#f4f7e8}.st5,.st9{fill:#adcb53}.st10{fill:#fff}.st4,.st6{stroke:#fff;stroke-width:1.59px}.st11,.st4{fill:#003834}.st12{fill:#aecc53}.st13,.st6{fill:#006d68}.st5{stroke-width:.67px}</style></defs><path d="M331 17.25c-21.59-8.09-44.12-14.87-67.17-14.77-31.07.14-60.6 12.68-88.86 25.58-52.03 23.75-93.06 60.96-135.71 98.76C4.74 157.41-.93 220.85.11 263.95c.13 5.2.26 10.43.49 15.65.73 16.07 2.45 32.09 8.08 47.07 9.03 24.02 29.98 44.3 45.8 64.07 17.13 21.4 33.91 39.26 56.97 54.54 26.1 17.3 63.43 47.01 95.63 49.74 40.53 3.43 71.57 5.08 110.53-7.06 41.5-12.94 86.97-31.81 116.84-64.9 15.66-17.35 25.88-42.1 37.54-62.28 22.74-39.35 32.16-81.79 26.31-127.02-6.12-47.35-24.72-83.64-44.34-125.96C428.77 53.45 384.49 37.3 331 17.25" style="fill:#ebf2d4"/><path d="M346.94 74.69c-8.78 0-17.18 1.6-24.94 4.51-8.64-29.52-35.9-51.08-68.22-51.08-32.31 0-59.57 21.57-68.22 51.08a70.9 70.9 0 0 0-24.94-4.51c-39.26 0-71.09 31.83-71.09 71.09s31.83 71.09 71.09 71.09h186.3c39.26 0 71.09-31.83 71.09-71.09s-31.83-71.09-71.09-71.09Z" class="st8"/><path d="M348.46 74.69c-8.78 0-17.18 1.6-24.94 4.51-8.64-29.52-35.9-51.08-68.22-51.08-32.31 0-59.57 21.57-68.22 51.08a70.9 70.9 0 0 0-24.94-4.51c-39.26 0-71.09 31.83-71.09 71.09s31.83 71.09 71.09 71.09h186.3c39.26 0 71.09-31.83 71.09-71.09s-31.83-71.09-71.09-71.09Z" style="stroke-width:3.41px;fill:none;stroke-miterlimit:10;stroke:#adcb53"/><path d="M114.95 165.42c10.01 20.14 26.65 33.81 49.95 33.7m12.4 0h52.53" style="fill:none;stroke-linejoin:round;stroke-linecap:round;stroke-width:5.65px;stroke:#fff"/><path d="M131.27 327.58H16.22v147.55h.09c-.06.15-.09.31-.09.46 0 4.59 25.76 12.73 57.53 12.73s57.53-8.14 57.53-12.73c0-.15-.03-.31-.09-.46h.09V327.58Z" class="st11"/><path d="M23.6 438.84v25.58c0 4.75 22.45 11.26 50.14 11.26s50.14-6.51 50.14-11.26v-25.58z" class="st9"/><ellipse cx="74.21" cy="438.84" class="st4" rx="49.67" ry="8.61"/><path d="M23.6 397.87v25.58c0 4.75 22.45 8.61 50.14 8.61s50.14-3.85 50.14-8.61v-25.58z" class="st9"/><ellipse cx="74.21" cy="397.87" class="st4" rx="49.67" ry="8.61"/><path d="M23.6 357.35v25.58c0 4.75 22.45 8.61 50.14 8.61s50.14-3.85 50.14-8.61v-25.58z" class="st9"/><ellipse cx="74.21" cy="357.35" class="st4" rx="49.67" ry="8.61"/><path d="M73.74 341.4c-33.94 0-56.73-6.41-56.73-12.39s22.8-12.39 56.73-12.39 56.73 6.41 56.73 12.39-22.8 12.39-56.73 12.39" class="st9"/><path d="M73.74 317.41c34.66 0 55.94 6.76 55.94 11.6s-21.28 11.6-55.94 11.6-55.94-6.76-55.94-11.6 21.28-11.6 55.94-11.6m0-1.59c-31.77 0-57.53 5.91-57.53 13.19s25.76 13.19 57.53 13.19 57.53-5.91 57.53-13.19-25.76-13.19-57.53-13.19" class="st11"/><path d="M96.75 306.95h-47.3v20.45h.06c-.03.12-.06.24-.06.36 0 2.98 10.59 5.4 23.65 5.4s23.65-2.42 23.65-5.4q0-.18-.06-.36h.06z" class="st10"/><ellipse cx="73.1" cy="306.95" class="st11" rx="23.65" ry="5.4"/><ellipse cx="73.1" cy="306.95" class="st12" rx="13.95" ry="2.39"/><path d="M483.78 327.58H368.72v147.55h.09c-.06.15-.09.31-.09.46 0 4.59 25.76 12.73 57.53 12.73s57.53-8.14 57.53-12.73c0-.15-.03-.31-.09-.46h.09z" class="st11"/><path d="M376.11 438.84v25.58c0 4.75 22.45 11.26 50.14 11.26s50.14-6.51 50.14-11.26v-25.58H376.1Z" class="st9"/><ellipse cx="426.73" cy="438.84" class="st4" rx="49.67" ry="8.61"/><path d="M376.11 397.87v25.58c0 4.75 22.45 8.61 50.14 8.61s50.14-3.85 50.14-8.61v-25.58H376.1Z" class="st9"/><ellipse cx="426.73" cy="397.87" class="st4" rx="49.67" ry="8.61"/><path d="M376.11 357.35v25.58c0 4.75 22.45 8.61 50.14 8.61s50.14-3.85 50.14-8.61v-25.58H376.1Z" class="st9"/><ellipse cx="426.73" cy="357.35" class="st4" rx="49.67" ry="8.61"/><path d="M426.26 341.4c-33.94 0-56.73-6.41-56.73-12.39s22.8-12.39 56.73-12.39 56.73 6.41 56.73 12.39-22.8 12.39-56.73 12.39" class="st9"/><path d="M426.26 317.41c34.66 0 55.94 6.76 55.94 11.6s-21.28 11.6-55.94 11.6-55.94-6.76-55.94-11.6 21.28-11.6 55.94-11.6m0-1.59c-31.77 0-57.53 5.91-57.53 13.19s25.76 13.19 57.53 13.19 57.53-5.91 57.53-13.19-25.76-13.19-57.53-13.19" class="st11"/><path d="M449.27 306.95h-47.3v20.45h.06c-.03.12-.06.24-.06.36 0 2.98 10.59 5.4 23.65 5.4s23.65-2.42 23.65-5.4q0-.18-.06-.36h.06z" class="st10"/><ellipse cx="425.62" cy="306.95" class="st11" rx="23.65" ry="5.4"/><ellipse cx="425.62" cy="306.95" class="st12" rx="13.95" ry="2.39"/><path d="M307.59 328.38H192.53v147.55h.09c-.06.15-.09.31-.09.46 0 4.59 25.76 12.73 57.53 12.73s57.53-8.14 57.53-12.73c0-.15-.03-.31-.09-.46h.09" class="st13"/><path d="M199.92 439.63v25.58c0 4.75 22.45 11.26 50.14 11.26s50.14-6.51 50.14-11.26v-25.58H199.91Z" class="st9"/><ellipse cx="250.53" cy="439.63" class="st6" rx="49.67" ry="8.61"/><path d="M199.92 398.67v25.58c0 4.75 22.45 8.61 50.14 8.61s50.14-3.85 50.14-8.61v-25.58H199.91Z" class="st9"/><ellipse cx="250.53" cy="398.67" class="st6" rx="49.67" ry="8.61"/><path d="M199.92 358.94v25.58c0 4.75 22.45 8.61 50.14 8.61s50.14-3.85 50.14-8.61v-25.58H199.91Z" class="st9"/><ellipse cx="250.53" cy="358.15" class="st6" rx="49.67" ry="8.61"/><path d="M250.06 342.2c-33.94 0-56.73-6.41-56.73-12.39s22.8-12.39 56.73-12.39 56.73 6.41 56.73 12.39-22.8 12.39-56.73 12.39" class="st9"/><path d="M250.06 318.21c34.66 0 55.94 6.76 55.94 11.6s-21.28 11.6-55.94 11.6-55.94-6.76-55.94-11.6 21.28-11.6 55.94-11.6m0-1.59c-31.77 0-57.53 5.91-57.53 13.19S218.29 343 250.06 343s57.53-5.91 57.53-13.19-25.76-13.19-57.53-13.19" class="st13"/><path d="M273.07 307.75h-47.3v20.45h.06c-.03.12-.06.24-.06.36 0 2.98 10.59 5.4 23.65 5.4s23.65-2.42 23.65-5.4q0-.18-.06-.36h.06z" class="st10"/><ellipse cx="249.42" cy="307.75" class="st13" rx="23.65" ry="5.4"/><ellipse cx="249.42" cy="307.75" class="st12" rx="13.95" ry="2.39"/><path d="M151.12 215.86v28.41c0 10.71-8.68 19.39-19.39 19.39h-38.6c-10.71 0-19.39 8.68-19.39 19.39v25.46m90.53-92.65v28.41c0 10.71 8.68 19.39 19.39 19.39h38.6c10.71 0 19.39 8.68 19.39 19.39v23.46m94.08-90.65v28.41c0 10.71-8.68 19.39-19.39 19.39h-38.6c-10.71 0-19.39 8.68-19.39 19.39v23.46m90.53-90.65v28.41c0 10.71 8.68 19.39 19.39 19.39h38.6c10.71 0 19.39 8.68 19.39 19.39v25.46" style="fill:none;stroke-linejoin:round;stroke:#a8c653;stroke-width:2px;stroke-linecap:round"/><path d="M252.75 181.74c.79.03 2.39.05 2.39.05l1.52.02v-15.58l-1.48-.02s-1.68-.02-2.5-.07c-21.7-1.3-38.7-19.35-38.7-41.11s18.47-41.18 41.18-41.18 40.14 17.26 41.14 39.3c.03.63.04 1.89.04 1.9l.02 1.48h15.59v-1.51s-.03-1.33-.05-1.99c-.51-14.72-6.65-28.49-17.28-38.78-10.65-10.31-24.67-15.99-39.46-15.99-31.3 0-56.77 25.47-56.77 56.77s23.88 55.44 54.36 56.72Z" class="st9"/><path d="M296.38 126.52c-.78 21.56-18.16 38.95-39.72 39.72v15.43c30.07-.79 54.36-25.09 55.15-55.15z" class="st13"/><path d="M77.35 197.08H63.16v-14.19c0-2.51-2.03-4.54-4.54-4.54s-4.54 2.03-4.54 4.54v14.19H39.89c-2.51 0-4.54 2.03-4.54 4.54s2.03 4.54 4.54 4.54h14.19v14.19c0 2.51 2.03 4.54 4.54 4.54s4.54-2.03 4.54-4.54v-14.19h14.19c2.51 0 4.54-2.03 4.54-4.54s-2.03-4.54-4.54-4.54m285.51 98.42h-14.19v-14.19c0-2.51-2.03-4.54-4.54-4.54s-4.54 2.03-4.54 4.54v14.19H325.4c-2.51 0-4.54 2.03-4.54 4.54s2.03 4.54 4.54 4.54h14.19v14.19c0 2.51 2.03 4.54 4.54 4.54s4.54-2.03 4.54-4.54v-14.19h14.19c2.51 0 4.54-2.03 4.54-4.54s-2.03-4.54-4.54-4.54" class="st10"/><path d="M410.67 147.86v2.4c0 2.26-1.83 4.09-4.09 4.09h-32.03c-2.26 0-4.09 1.83-4.09 4.09v64.38c0 2.26 1.83 4.09 4.09 4.09h78.74c2.26 0 4.09-1.83 4.09-4.09v-74.96c0-2.26-1.83-4.09-4.09-4.09h-38.53c-2.26 0-4.09 1.83-4.09 4.09" class="st13"/><path d="M379.51 200h36.12v17.97h-36.12z" class="st8"/><path d="M115.21 118.76c-17.64 0-32-14.36-32-32s14.36-32 32-32 32 14.36 32 32-14.36 32-32 32" class="st10"/><path d="M115.21 56.76c16.54 0 30 13.46 30 30s-13.46 30-30 30-30-13.46-30-30 13.46-30 30-30m0-4c-18.78 0-34 15.22-34 34s15.22 34 34 34 34-15.22 34-34-15.22-34-34-34" class="st13"/><path d="m129.7 92.43-14.49-5.04V64.73" style="fill:none;stroke:#006d68;stroke-width:4px;stroke-linejoin:round"/><circle cx="126.71" cy="263.26" r="8" class="st5"/><circle cx="190.71" cy="264.26" r="8" class="st5"/><circle cx="296.71" cy="262.26" r="8" class="st5"/><circle cx="426.71" cy="283.26" r="8" class="st5"/></svg>