<?xml version="1.0" encoding="UTF-8"?>
<svg id="Layer_1" xmlns="http://www.w3.org/2000/svg" version="1.1" viewBox="0 0 500 500">
  <!-- Generator: Adobe Illustrator 30.2.1, SVG Export Plug-In . SVG Version: 2.1.1 Build 1)  -->
  <defs>
    <style>
      .st0 {
        stroke: #aac853;
        stroke-width: 5.95px;
      }

      .st0, .st1, .st2, .st3 {
        stroke-linecap: round;
        stroke-linejoin: round;
      }

      .st0, .st1, .st4, .st5, .st3 {
        fill: none;
      }

      .st6 {
        fill: #6fafac;
      }

      .st7 {
        fill: #ebf2d4;
      }

      .st1 {
        stroke-width: 4.73px;
      }

      .st1, .st4, .st5 {
        stroke: #00544f;
      }

      .st2 {
        stroke: #fff;
        stroke-width: 1.06px;
      }

      .st2, .st8 {
        fill: #a8c653;
      }

      .st9 {
        fill: #00544f;
      }

      .st10 {
        fill: #adcb53;
      }

      .st11 {
        fill: #fff;
      }

      .st4 {
        stroke-width: 2.53px;
      }

      .st4, .st5 {
        stroke-miterlimit: 10;
      }

      .st12 {
        fill: #338a86;
      }

      .st5 {
        stroke-width: 3px;
      }

      .st3 {
        stroke: #adcb53;
        stroke-width: 3.3px;
      }

      .st13 {
        fill: #a9c753;
      }
    </style>
  </defs>
  <path class="st7" d="M321.72,43.82c-19.23-7.21-39.3-13.24-59.83-13.15-27.67.12-53.98,11.29-79.15,22.78-46.35,21.16-82.89,54.3-120.88,87.97-30.75,27.25-35.8,83.76-34.87,122.15.11,4.63.23,9.29.44,13.94.65,14.32,2.18,28.58,7.2,41.93,8.04,21.39,26.7,39.46,40.8,57.07,15.26,19.06,30.21,34.97,50.74,48.58,23.25,15.41,56.5,41.88,85.18,44.3,36.11,3.06,63.75,4.53,98.46-6.29,36.96-11.52,77.47-28.34,104.08-57.81,13.95-15.45,23.05-37.5,33.44-55.47,20.25-35.05,28.65-72.85,23.44-113.14-5.46-42.18-22.02-74.5-39.5-112.2-22.44-48.41-61.88-62.8-109.52-80.66Z"/>
  <g>
    <path class="st10" d="M463.49,283.71c3.17,0,5.75,2.58,5.75,5.75v52.99c0,3.17-2.58,5.75-5.75,5.75h-188.74c-3.17,0-5.75-2.58-5.75-5.75v-52.99c0-3.17,2.58-5.75,5.75-5.75h188.74M463.49,280.4h-188.74c-4.98,0-9.05,4.07-9.05,9.05v52.99c0,4.98,4.07,9.05,9.05,9.05h188.74c4.98,0,9.05-4.07,9.05-9.05v-52.99c0-4.98-4.07-9.05-9.05-9.05h0Z"/>
    <path class="st10" d="M463.49,352.59c3.17,0,5.75,2.58,5.75,5.75v52.99c0,3.17-2.58,5.75-5.75,5.75h-188.74c-3.17,0-5.75-2.58-5.75-5.75v-52.99c0-3.17,2.58-5.75,5.75-5.75h188.74M463.49,349.29h-188.74c-4.98,0-9.05,4.07-9.05,9.05v52.99c0,4.98,4.07,9.05,9.05,9.05h188.74c4.98,0,9.05-4.07,9.05-9.05v-52.99c0-4.98-4.07-9.05-9.05-9.05h0Z"/>
    <polygon class="st13" points="411.43 392.14 422.8 403.52 430.11 396.21 437.42 403.52 448.79 392.14 441.48 384.83 448.79 377.52 437.42 366.15 430.11 373.46 422.8 366.15 411.43 377.52 418.74 384.83 411.43 392.14"/>
    <rect class="st9" x="351.33" y="375.15" width="43.5" height="16.42" transform="translate(746.17 766.72) rotate(180)"/>
    <polygon class="st13" points="411.43 323.26 422.8 334.63 430.11 327.32 437.42 334.63 448.79 323.26 441.48 315.95 448.79 308.64 437.42 297.27 430.11 304.58 422.8 297.27 411.43 308.64 418.74 315.95 411.43 323.26"/>
    <rect class="st9" x="351.33" y="307.74" width="43.5" height="16.42" transform="translate(746.17 631.9) rotate(180)"/>
  </g>
  <g>
    <path class="st10" d="M269.62,99.35v151.24H55.42V99.9l214.2-.55M272.92,96.04l-220.8.57v157.28h220.8V96.04h0Z"/>
    <g>
      <rect class="st8" x="52.12" y="75.76" width="220.8" height="25.57"/>
      <g>
        <g>
          <rect class="st9" x="255.38" y="80.53" width="3.8" height="16.15" transform="translate(137.89 -155.92) rotate(44.97)"/>
          <rect class="st9" x="255.38" y="80.53" width="3.8" height="16.15" transform="translate(501.91 -30.55) rotate(135.03)"/>
        </g>
        <path class="st9" d="M233.96,83.69v10.21h-11.48v-10.21h11.48M235.72,81.93h-15v13.72h15v-13.72h0Z"/>
        <rect class="st9" x="191.16" y="92.63" width="15" height="3.02"/>
      </g>
    </g>
    <g>
      <g>
        <line class="st3" x1="205.35" y1="178.02" x2="227.91" y2="178.02"/>
        <line class="st3" x1="124.27" y1="178.02" x2="194.55" y2="178.02"/>
        <line class="st3" x1="93.66" y1="178.02" x2="111.97" y2="178.02"/>
        <line class="st3" x1="93.66" y1="201.87" x2="110.84" y2="201.87"/>
        <line class="st3" x1="124.46" y1="201.87" x2="231.38" y2="201.87"/>
      </g>
      <g>
        <line class="st3" x1="205.35" y1="125.93" x2="227.91" y2="125.93"/>
        <line class="st3" x1="124.27" y1="125.93" x2="194.55" y2="125.93"/>
        <line class="st3" x1="93.66" y1="125.93" x2="111.97" y2="125.93"/>
        <line class="st3" x1="210.09" y1="149.79" x2="227.91" y2="149.79"/>
        <line class="st3" x1="93.66" y1="149.79" x2="110.84" y2="149.79"/>
        <line class="st3" x1="118.66" y1="149.79" x2="202.9" y2="149.79"/>
      </g>
    </g>
  </g>
  <g>
    <g>
      <path class="st12" d="M392.09,139.8c-3.24,5.16-5.12,11.05-5.21,17.32-.29,20.47,28.92,43.43,42.5,43.43,18.36,0,43.73-22.19,43.73-42.96,0-8.53-3.31-16.38-8.88-22.66-2.65-2.99-3.29-6.95-1.62-10.43,1.74-3.61,2.69-7.56,2.69-11.71,0-7.07-2.78-13.57-7.44-18.75-2.94-3.26-3.45-7.65-1.28-11.33,2.06-3.5,3.22-7.46,3.22-11.66,0-14.24-18.1-42.66-29.81-42.66-10.29,0-29.81,28.42-29.81,42.66,0,4.2,1.16,8.16,3.22,11.66,2.17,3.68,1.65,8.08-1.28,11.33-4.66,5.17-7.44,11.68-7.44,18.75,0,4.15.96,8.11,2.69,11.71,1.67,3.47,1.04,7.43-1.61,10.41-1.37,1.54-2.6,3.18-3.68,4.9"/>
      <line class="st5" x1="430" y1="60.84" x2="430" y2="271.37"/>
    </g>
    <line class="st4" x1="467.8" y1="270.28" x2="373.17" y2="270.28"/>
    <g>
      <line class="st4" x1="390.84" y1="270.28" x2="390.84" y2="234.23"/>
      <path class="st9" d="M396.55,234.51c0-3.15-2.56-5.71-5.71-5.71s-5.71,2.56-5.71,5.71,2.56,5.71,5.71,5.71,5.71-2.56,5.71-5.71Z"/>
    </g>
    <g>
      <line class="st4" x1="411.08" y1="270.28" x2="411.08" y2="215.49"/>
      <path class="st9" d="M416.79,215.77c0-3.15-2.56-5.71-5.71-5.71s-5.71,2.56-5.71,5.71,2.56,5.71,5.71,5.71,5.71-2.56,5.71-5.71Z"/>
    </g>
  </g>
  <path class="st9" d="M366.79,258.63c0-27.57-20.52-49.92-45.83-49.92-2.43,0-4.8.27-7.13.66-7.85-25.9-30.19-44.61-56.6-44.61s-48.75,18.71-56.6,44.61c-2.33-.4-4.7-.66-7.13-.66-25.31,0-45.83,22.35-45.83,49.92,0,19.34,10.12,36.07,24.88,44.36,1.72,1.11,4.36,2.08,7.25,2.91,6.66,1.91,13.54,2.74,20.43,2.77,23.41.12,90.61.12,114.01,0,6.88-.03,13.76-.86,20.42-2.77,2.89-.83,5.54-1.8,7.25-2.91,14.77-8.29,24.88-25.03,24.88-44.37Z"/>
  <g>
    <g>
      <path class="st11" d="M257.23,290.35c-26.26,0-47.63-21.37-47.63-47.63s21.37-47.63,47.63-47.63,47.63,21.37,47.63,47.63c0,6.56-1.31,12.92-3.9,18.9-.66,1.52-2.42,2.22-3.94,1.56-1.52-.66-2.22-2.42-1.56-3.94,2.26-5.22,3.41-10.78,3.41-16.52,0-22.96-18.68-41.63-41.63-41.63s-41.63,18.68-41.63,41.63,18.68,41.63,41.63,41.63c1.66,0,3,1.34,3,3s-1.34,3-3,3Z"/>
      <polygon class="st11" points="289.56 250.71 288.45 274.61 309.71 263.62 289.56 250.71"/>
    </g>
    <line class="st0" x1="239.52" y1="258.86" x2="257.23" y2="242.72"/>
    <line class="st0" x1="257.23" y1="242.72" x2="257.23" y2="212.84"/>
  </g>
  <g>
    <g>
      <path class="st10" d="M173.5,295.19v151c-.1.36-.11.73-.03,1.1-.59,1.13-4.7,4.11-14.6,7-10.35,3.02-22.73,4.68-34.88,4.68s-24.53-1.66-34.88-4.68c-9.89-2.88-14-5.87-14.6-7,.08-.37.06-.74-.03-1.1v-151h99.02M175.87,292.82h-103.75v153.99h.08c-.05.17-.08.34-.08.51,0,5.05,23.23,14.02,51.88,14.02s51.88-8.96,51.88-14.02c0-.17-.03-.34-.08-.51h.08v-153.99h0Z"/>
      <g>
        <path class="st9" d="M81.37,409.59v28.16c0,5.23,19.08,10.53,42.62,10.53s42.62-5.3,42.62-10.53v-28.16h-85.25Z"/>
        <ellipse class="st6" cx="124.39" cy="409.59" rx="42.22" ry="9.47"/>
      </g>
      <g>
        <path class="st9" d="M81.37,366.56v28.16c0,5.23,19.08,9.47,42.62,9.47s42.62-4.24,42.62-9.47v-28.16h-85.25Z"/>
        <ellipse class="st6" cx="124.39" cy="366.56" rx="42.22" ry="9.47"/>
      </g>
      <g>
        <path class="st9" d="M81.37,321.95v28.16c0,5.23,19.08,9.47,42.62,9.47s42.62-4.24,42.62-9.47v-28.16h-85.25Z"/>
        <ellipse class="st6" cx="124.39" cy="321.95" rx="42.22" ry="9.47"/>
      </g>
      <ellipse class="st2" cx="123.99" cy="294.4" rx="51.87" ry="14.52"/>
      <path class="st12" d="M144.74,271.89h-42.65v18.43h.05c-.03.11-.05.22-.05.32,0,2.68,9.55,4.86,21.33,4.86s21.33-2.18,21.33-4.86c0-.11-.02-.22-.05-.32h.05v-18.43Z"/>
      <path class="st2" d="M144.74,271.89c0,2.68-9.55,5.92-21.33,5.92s-21.33-3.23-21.33-5.92,9.55-4.86,21.33-4.86,21.33,2.18,21.33,4.86Z"/>
    </g>
    <g>
      <g>
        <path class="st1" d="M147.29,159.21c-2.39,10.6-11.95,18.55-23.25,18.49h0c-11.3-.06-20.77-8.12-23.04-18.75"/>
        <path class="st9" d="M141.91,158.81c.36-2.93,3.03-5.01,5.96-4.64s5.01,3.03,4.64,5.96c-.36,2.93-3.03,5.01-5.96,4.64-2.93-.36-5.01-3.03-4.64-5.96Z"/>
        <path class="st9" d="M106.39,158.61c-.33-2.93-2.97-5.04-5.9-4.71-2.93.33-5.04,2.97-4.71,5.9s2.97,5.04,5.9,4.71c2.93-.33,5.04-2.97,4.71-5.9Z"/>
      </g>
      <g>
        <path class="st1" d="M158.81,191.59c-2.57,16.96-17.37,30.02-35.02,29.92-17.65-.1-32.3-13.33-34.68-30.31"/>
        <path class="st9" d="M153.41,191.36c.27-2.94,2.86-5.1,5.8-4.84s5.1,2.86,4.84,5.8-2.86,5.1-5.8,4.84c-2.94-.27-5.1-2.86-4.84-5.8Z"/>
        <path class="st9" d="M94.52,191.03c-.23-2.94-2.8-5.14-5.74-4.9s-5.14,2.8-4.9,5.74,2.8,5.14,5.74,4.9c2.94-.23,5.14-2.8,4.9-5.74Z"/>
      </g>
      <g>
        <line class="st1" x1="124.3" y1="132.81" x2="123.24" y2="271.07"/>
        <path class="st9" d="M118.95,133.04c.02-2.95,2.43-5.32,5.38-5.3,2.95.02,5.32,2.43,5.3,5.38s-2.43,5.32-5.38,5.3c-2.95-.02-5.32-2.43-5.3-5.38Z"/>
      </g>
    </g>
  </g>
</svg>