<svg xmlns="http://www.w3.org/2000/svg" id="Layer_1" viewBox="0 0 500 500"><defs><style>.st1,.st2{stroke-linecap:round;stroke-linejoin:round}.st1,.st4{fill:none}.st6{fill:#6fafac}.st1{stroke-width:4.73px}.st1,.st4{stroke:#00544f}.st2{stroke:#fff;stroke-width:1.06px;fill:#a8c653}.st9{fill:#00544f}.st10{fill:#adcb53}.st11{fill:#fff}.st4{stroke-width:2.53px;stroke-miterlimit:10}.st12{fill:#338a86}.st13{fill:#a9c753}</style></defs><path d="M321.72 43.82c-19.23-7.21-39.3-13.24-59.83-13.15-27.67.12-53.98 11.29-79.15 22.78-46.35 21.16-82.89 54.3-120.88 87.97-30.75 27.25-35.8 83.76-34.87 122.15.11 4.63.23 9.29.44 13.94.65 14.32 2.18 28.58 7.2 41.93 8.04 21.39 26.7 39.46 40.8 57.07 15.26 19.06 30.21 34.97 50.74 48.58 23.25 15.41 56.5 41.88 85.18 44.3 36.11 3.06 63.75 4.53 98.46-6.29 36.96-11.52 77.47-28.34 104.08-57.81 13.95-15.45 23.05-37.5 33.44-55.47 20.25-35.05 28.65-72.85 23.44-113.14-5.46-42.18-22.02-74.5-39.5-112.2-22.44-48.41-61.88-62.8-109.52-80.66Z" style="fill:#ebf2d4"/><path d="M463.49 283.71c3.17 0 5.75 2.58 5.75 5.75v52.99c0 3.17-2.58 5.75-5.75 5.75H274.75c-3.17 0-5.75-2.58-5.75-5.75v-52.99c0-3.17 2.58-5.75 5.75-5.75zm0-3.31H274.75c-4.98 0-9.05 4.07-9.05 9.05v52.99c0 4.98 4.07 9.05 9.05 9.05h188.74c4.98 0 9.05-4.07 9.05-9.05v-52.99c0-4.98-4.07-9.05-9.05-9.05" class="st10"/><path d="M463.49 352.59c3.17 0 5.75 2.58 5.75 5.75v52.99c0 3.17-2.58 5.75-5.75 5.75H274.75c-3.17 0-5.75-2.58-5.75-5.75v-52.99c0-3.17 2.58-5.75 5.75-5.75zm0-3.3H274.75c-4.98 0-9.05 4.07-9.05 9.05v52.99c0 4.98 4.07 9.05 9.05 9.05h188.74c4.98 0 9.05-4.07 9.05-9.05v-52.99c0-4.98-4.07-9.05-9.05-9.05" class="st10"/><path d="m411.43 392.14 11.37 11.38 7.31-7.31 7.31 7.31 11.37-11.38-7.31-7.31 7.31-7.31-11.37-11.37-7.31 7.31-7.31-7.31-11.37 11.37 7.31 7.31z" class="st13"/><path d="M394.84 391.57h-43.5v-16.42h43.5z" class="st9"/><path d="m411.43 323.26 11.37 11.37 7.31-7.31 7.31 7.31 11.37-11.37-7.31-7.31 7.31-7.31-11.37-11.37-7.31 7.31-7.31-7.31-11.37 11.37 7.31 7.31z" class="st13"/><path d="M394.84 324.16h-43.5v-16.42h43.5z" class="st9"/><path d="M269.62 99.35v151.24H55.42V99.9zm3.3-3.31-220.8.57v157.28h220.8z" class="st10"/><path d="M52.12 75.76h220.8v25.57H52.12z" style="fill:#a8c653"/><path d="m261.652 81.54 2.688 2.685-11.413 11.426-2.689-2.686z" class="st9"/><path d="m264.321 92.963-2.688 2.686-11.414-11.426 2.688-2.686zM233.96 83.69V93.9h-11.48V83.69zm1.76-1.76h-15v13.72h15zm-44.56 10.7h15v3.02h-15z" class="st9"/><path d="M205.35 178.02h22.56m-103.64 0h70.28m-100.89 0h18.31m-18.31 23.85h17.18m13.62 0h106.92m-26.03-75.94h22.56m-103.64 0h70.28m-100.89 0h18.31m98.12 23.86h17.82m-134.25 0h17.18m7.82 0h84.24" style="stroke-linecap:round;stroke-linejoin:round;fill:none;stroke:#adcb53;stroke-width:3.3px"/><path d="M392.09 139.8c-3.24 5.16-5.12 11.05-5.21 17.32-.29 20.47 28.92 43.43 42.5 43.43 18.36 0 43.73-22.19 43.73-42.96 0-8.53-3.31-16.38-8.88-22.66-2.65-2.99-3.29-6.95-1.62-10.43 1.74-3.61 2.69-7.56 2.69-11.71 0-7.07-2.78-13.57-7.44-18.75-2.94-3.26-3.45-7.65-1.28-11.33 2.06-3.5 3.22-7.46 3.22-11.66 0-14.24-18.1-42.66-29.81-42.66-10.29 0-29.81 28.42-29.81 42.66 0 4.2 1.16 8.16 3.22 11.66 2.17 3.68 1.65 8.08-1.28 11.33-4.66 5.17-7.44 11.68-7.44 18.75 0 4.15.96 8.11 2.69 11.71 1.67 3.47 1.04 7.43-1.61 10.41-1.37 1.54-2.6 3.18-3.68 4.9" class="st12"/><path d="M430 60.84v210.53" style="fill:none;stroke:#00544f;stroke-miterlimit:10;stroke-width:3px"/><path d="M467.8 270.28h-94.63m17.67 0v-36.05" class="st4"/><path d="M396.55 234.51c0-3.15-2.56-5.71-5.71-5.71s-5.71 2.56-5.71 5.71 2.56 5.71 5.71 5.71 5.71-2.56 5.71-5.71" class="st9"/><path d="M411.08 270.28v-54.79" class="st4"/><path d="M416.79 215.77c0-3.15-2.56-5.71-5.71-5.71s-5.71 2.56-5.71 5.71 2.56 5.71 5.71 5.71 5.71-2.56 5.71-5.71m-50 42.86c0-27.57-20.52-49.92-45.83-49.92-2.43 0-4.8.27-7.13.66-7.85-25.9-30.19-44.61-56.6-44.61s-48.75 18.71-56.6 44.61c-2.33-.4-4.7-.66-7.13-.66-25.31 0-45.83 22.35-45.83 49.92 0 19.34 10.12 36.07 24.88 44.36 1.72 1.11 4.36 2.08 7.25 2.91 6.66 1.91 13.54 2.74 20.43 2.77 23.41.12 90.61.12 114.01 0 6.88-.03 13.76-.86 20.42-2.77 2.89-.83 5.54-1.8 7.25-2.91 14.77-8.29 24.88-25.03 24.88-44.37Z" class="st9"/><path d="M257.23 290.35c-26.26 0-47.63-21.37-47.63-47.63s21.37-47.63 47.63-47.63 47.63 21.37 47.63 47.63c0 6.56-1.31 12.92-3.9 18.9a2.994 2.994 0 0 1-3.94 1.56 2.994 2.994 0 0 1-1.56-3.94 41.3 41.3 0 0 0 3.41-16.52c0-22.96-18.68-41.63-41.63-41.63s-41.63 18.68-41.63 41.63 18.68 41.63 41.63 41.63c1.66 0 3 1.34 3 3s-1.34 3-3 3Z" class="st11"/><path d="m289.56 250.71-1.11 23.9 21.26-10.99z" class="st11"/><path d="m239.52 258.86 17.71-16.14m0 0v-29.88" style="stroke:#aac853;stroke-width:5.95px;stroke-linecap:round;stroke-linejoin:round;fill:none"/><path d="M173.5 295.19v151c-.1.36-.11.73-.03 1.1-.59 1.13-4.7 4.11-14.6 7-10.35 3.02-22.73 4.68-34.88 4.68s-24.53-1.66-34.88-4.68c-9.89-2.88-14-5.87-14.6-7 .08-.37.06-.74-.03-1.1v-151zm2.37-2.37H72.12v153.99h.08c-.05.17-.08.34-.08.51 0 5.05 23.23 14.02 51.88 14.02s51.88-8.96 51.88-14.02c0-.17-.03-.34-.08-.51h.08V292.82Z" class="st10"/><path d="M81.37 409.59v28.16c0 5.23 19.08 10.53 42.62 10.53s42.62-5.3 42.62-10.53v-28.16H81.36Z" class="st9"/><ellipse cx="124.39" cy="409.59" class="st6" rx="42.22" ry="9.47"/><path d="M81.37 366.56v28.16c0 5.23 19.08 9.47 42.62 9.47s42.62-4.24 42.62-9.47v-28.16H81.36Z" class="st9"/><ellipse cx="124.39" cy="366.56" class="st6" rx="42.22" ry="9.47"/><path d="M81.37 321.95v28.16c0 5.23 19.08 9.47 42.62 9.47s42.62-4.24 42.62-9.47v-28.16H81.36Z" class="st9"/><ellipse cx="124.39" cy="321.95" class="st6" rx="42.22" ry="9.47"/><ellipse cx="123.99" cy="294.4" class="st2" rx="51.87" ry="14.52"/><path d="M144.74 271.89h-42.65v18.43h.05c-.03.11-.05.22-.05.32 0 2.68 9.55 4.86 21.33 4.86s21.33-2.18 21.33-4.86c0-.11-.02-.22-.05-.32h.05v-18.43Z" class="st12"/><path d="M144.74 271.89c0 2.68-9.55 5.92-21.33 5.92s-21.33-3.23-21.33-5.92 9.55-4.86 21.33-4.86 21.33 2.18 21.33 4.86" class="st2"/><path d="M147.29 159.21c-2.39 10.6-11.95 18.55-23.25 18.49h0c-11.3-.06-20.77-8.12-23.04-18.75" class="st1"/><path d="M141.91 158.81c.36-2.93 3.03-5.01 5.96-4.64s5.01 3.03 4.64 5.96a5.33 5.33 0 0 1-5.96 4.64 5.33 5.33 0 0 1-4.64-5.96m-35.52-.2a5.338 5.338 0 1 0-10.61 1.19 5.338 5.338 0 1 0 10.61-1.19" class="st9"/><path d="M158.81 191.59c-2.57 16.96-17.37 30.02-35.02 29.92s-32.3-13.33-34.68-30.31" class="st1"/><path d="M153.41 191.36c.27-2.94 2.86-5.1 5.8-4.84s5.1 2.86 4.84 5.8-2.86 5.1-5.8 4.84a5.346 5.346 0 0 1-4.84-5.8m-58.89-.33c-.23-2.94-2.8-5.14-5.74-4.9s-5.14 2.8-4.9 5.74 2.8 5.14 5.74 4.9c2.94-.23 5.14-2.8 4.9-5.74" class="st9"/><path d="m124.3 132.81-1.06 138.26" class="st1"/><path d="M118.95 133.04a5.34 5.34 0 0 1 5.38-5.3c2.95.02 5.32 2.43 5.3 5.38s-2.43 5.32-5.38 5.3a5.34 5.34 0 0 1-5.3-5.38" class="st9"/></svg>