<svg width="75" height="75" viewBox="0 0 75 75" fill="none" xmlns="http://www.w3.org/2000/svg">
<g clip-path="url(#clip0_59_1707)">
<path d="M38.88 0.430137V0.390137H0V40.4501H0.13C1.63 59.5701 17.61 74.6201 37.11 74.6201C57.61 74.6201 74.22 58.0001 74.22 37.5101C74.22 17.0201 58.55 1.36014 38.88 0.430137Z" fill="#A7C553"/>
<path d="M37.22 13.75L44.89 28.63L60.53 31.81L49.63 44.19L51.63 61.04L37.22 53.81L22.82 61.04L24.81 44.19L13.91 31.81L29.55 28.63L37.22 13.75Z" fill="#006D68"/>
<path d="M37.07 40.9001L13.69 31.8701L37.47 39.7801C38.22 40.0301 37.81 41.1801 37.07 40.9001Z" fill="#A7C553"/>
<path d="M22.77 61.25L36.79 40C36.97 39.73 37.34 39.65 37.61 39.83C37.89 40.01 37.96 40.4 37.76 40.67L22.77 61.24V61.25Z" fill="#A7C553"/>
<path d="M37.22 13.75L44.89 28.63L60.53 31.81L37.22 39.89V13.75Z" fill="#00544F"/>
<path d="M37.22 13.75L44.89 28.63L60.53 31.81L49.63 44.19L51.63 61.04L37.22 53.81L22.82 61.04L24.81 44.19L13.91 31.81L29.55 28.63L37.22 13.75Z" stroke="white" stroke-width="0.99" stroke-linecap="round" stroke-linejoin="round"/>
</g>
<defs>
<clipPath id="clip0_59_1707">
<rect width="75" height="75" fill="white"/>
</clipPath>
</defs>
</svg>
