<svg width="32" height="33" viewBox="0 0 32 33" fill="none" xmlns="http://www.w3.org/2000/svg">
<path d="M21.3327 4.68115C20.6254 4.68115 19.9472 4.9621 19.4471 5.4622C18.947 5.9623 18.666 6.64058 18.666 7.34782V15.3478C18.666 16.0551 18.947 16.7333 19.4471 17.2334C19.9472 17.7335 20.6254 18.0145 21.3327 18.0145C21.6863 18.0145 22.0254 18.155 22.2755 18.405C22.5255 18.6551 22.666 18.9942 22.666 19.3478V20.6812C22.666 21.3884 22.3851 22.0667 21.885 22.5668C21.3849 23.0669 20.7066 23.3478 19.9993 23.3478C19.6457 23.3478 19.3066 23.4883 19.0565 23.7383C18.8065 23.9884 18.666 24.3275 18.666 24.6812V27.3478C18.666 27.7014 18.8065 28.0406 19.0565 28.2906C19.3066 28.5407 19.6457 28.6812 19.9993 28.6812C22.1211 28.6812 24.1559 27.8383 25.6562 26.338C27.1565 24.8377 27.9993 22.8029 27.9993 20.6812V7.34782C27.9993 6.64058 27.7184 5.9623 27.2183 5.4622C26.7182 4.9621 26.0399 4.68115 25.3327 4.68115H21.3327Z" stroke="#00464B" stroke-width="2.66667" stroke-linecap="round" stroke-linejoin="round"/>
<path d="M6.66667 4.68115C5.95942 4.68115 5.28115 4.9621 4.78105 5.4622C4.28095 5.9623 4 6.64058 4 7.34782V15.3478C4 16.0551 4.28095 16.7333 4.78105 17.2334C5.28115 17.7335 5.95942 18.0145 6.66667 18.0145C7.02029 18.0145 7.35943 18.155 7.60948 18.405C7.85952 18.6551 8 18.9942 8 19.3478V20.6812C8 21.3884 7.71905 22.0667 7.21895 22.5668C6.71885 23.0669 6.04058 23.3478 5.33333 23.3478C4.97971 23.3478 4.64057 23.4883 4.39052 23.7383C4.14048 23.9884 4 24.3275 4 24.6812V27.3478C4 27.7014 4.14048 28.0406 4.39052 28.2906C4.64057 28.5407 4.97971 28.6812 5.33333 28.6812C7.45507 28.6812 9.4899 27.8383 10.9902 26.338C12.4905 24.8377 13.3333 22.8029 13.3333 20.6812V7.34782C13.3333 6.64058 13.0524 5.9623 12.5523 5.4622C12.0522 4.9621 11.3739 4.68115 10.6667 4.68115H6.66667Z" stroke="#00464B" stroke-width="2.66667" stroke-linecap="round" stroke-linejoin="round"/>
</svg>
