<svg xmlns="http://www.w3.org/2000/svg" id="Layer_1" viewBox="0 0 500 350"><defs><style>.st2,.st5,.st9{stroke-linecap:round;stroke-linejoin:round;fill:none}.st5{stroke:#fff}.st2{stroke:#a5c352;stroke-width:1.86px}.st5{stroke-width:.98px}.st21{fill:#adcb53}.st22{fill:#006d68}.st23{fill:#fff}.st9{stroke:#aecc53;stroke-width:2.16px}.st26{fill:#849e2a}.st27{fill:#999}</style></defs><path d="M383.37 134.72h31.12v31.12h-31.12z" style="stroke-linecap:round;stroke-linejoin:round;fill:#006d68;stroke:#006d68;stroke-width:2.32px"/><path d="M383.37 103.6h31.12v31.12h-31.12z" class="st2"/><circle cx="398.93" cy="119.16" r="6.57" class="st23"/><path d="M428.57 91h31.12v31.12h-31.12z" style="stroke-linecap:round;stroke-linejoin:round;fill:none;stroke:#fff;stroke-width:2.19px" transform="rotate(36.88 444.137 106.568)"/><path d="M414.49 134.72h31.12v31.12h-31.12z" class="st2"/><path d="M423.47 143.7h13.14v13.14h-13.14z" style="fill:#a5c352" transform="rotate(-45 430.044 150.27)"/><path d="M186.37 285.09H52.89v-65.14c0-36.86 29.88-66.74 66.74-66.74s66.74 29.88 66.74 66.74z" style="fill:none;stroke:#fff;stroke-width:.92px;stroke-miterlimit:10"/><rect width="44.43" height="110.76" x="38.59" y="171.76" rx="19.34" ry="19.34" style="fill:#01524f;stroke:#fff;stroke-width:.92px;stroke-miterlimit:10" transform="matrix(-1 0 0 -1 121.62 454.28)"/><path d="m140.82 182.77-23.36 55.77-23.36-55.77c-5.4-12.9.68-27.73 13.58-33.14 20.86-8.78 41.84 12.57 33.14 33.14" style="fill:#acca53"/><path d="M105.48 142.98h23.97v11.98c0 6.61-5.37 11.98-11.98 11.98s-11.98-5.37-11.98-11.98v-11.98Z" style="fill:#777"/><circle cx="117.47" cy="91.85" r="53.76" class="st27"/><path d="M117.47 38.08c-3.58 0-7.07.35-10.45 1.02-16.08 9.29-26.91 26.67-26.91 46.58 0 29.69 24.07 53.76 53.76 53.76 3.58 0 7.07-.35 10.45-1.02 16.08-9.29 26.91-26.67 26.91-46.58 0-29.69-24.07-53.76-53.76-53.76" class="st27"/><path d="M63.7 91.85c-5.3-22.76 9.25-47.15 30.41-56.36 22.19-10.11 49.74-4.53 65.63 14.09 9.96 11.44 14.92 27.63 11.49 42.28-1.69-7.03-4.16-13.46-7.57-19.13C136 28.22 74.7 41.64 63.71 91.86Z" class="st23"/><path d="M96.61 89.97a3.93 3.93 0 1 1-7.861-.001 3.93 3.93 0 0 1 7.861.001m53.9 0a3.93 3.93 0 1 1-7.861-.001 3.93 3.93 0 0 1 7.861.001"/><path d="M63.7 91.85c0-3.36.31-6.64.9-9.83-3.37-1.23-6.82-1.09-9.56.72-5.43 3.58-5.96 12.37-1.18 19.62 3.39 5.14 8.53 8.12 13.17 8.16a53.7 53.7 0 0 1-3.33-18.67" style="fill:#7c7c7c"/><path d="M179.89 82.74c-2.73-1.8-6.19-1.94-9.56-.72.59 3.19.9 6.47.9 9.83 0 6.56-1.18 12.85-3.33 18.67 4.64-.04 9.78-3.02 13.17-8.16 4.78-7.25 4.26-16.04-1.18-19.62" class="st27"/><path d="M170.9 100.71a6.68 6.68 0 0 0 3.71-3.7c.41-1.04.52-2.31-.15-3.21s-2.3-1.01-2.81-.01c.19-1.9 1-3.92 2.13-5.46s3.09-2.6 4.96-2.2M64.03 100.71a6.68 6.68 0 0 1-3.71-3.7c-.41-1.04-.52-2.31.15-3.21s2.3-1.01 2.81-.01c-.19-1.9-1-3.92-2.13-5.46s-3.09-2.6-4.96-2.2" style="stroke-linecap:round;fill:none;stroke:#000;stroke-linejoin:bevel;stroke-width:.85px"/><path d="M123.99 116.19c-.88 1.85-3.07 3.15-5.63 3.15s-4.62-1.23-5.54-2.98" style="stroke-linecap:round;fill:none;stroke-width:1.27px;stroke:#000;stroke-linejoin:bevel"/><rect width="42.42" height="29.69" x="123.9" y="75.41" class="st9" rx="10.76" ry="10.76" transform="matrix(-1 0 0 -1 290.22 180.51)"/><rect width="42.42" height="29.69" x="71.49" y="75.41" class="st9" rx="10.76" ry="10.76" transform="matrix(-1 0 0 -1 185.4 180.51)"/><path d="M113.91 91.43h9.39" class="st9"/><path d="M131.05 153.73c-.87 5.76-7.58 11.62-13.58 11.62h0c-5.79 0-12.36-5.55-13.48-11.01" style="stroke-linecap:round;stroke-linejoin:round;fill:none;stroke:#fff;stroke-width:5.2px"/><path d="M485.99 236.17H15.88l.14 67.06h469.97z" style="fill:#00524f"/><path d="m475.52 221.26-99.28-.84a4.635 4.635 0 0 0-4.67 4.63v27.6c0 1.44.49 2.84 1.38 3.97l5.98 9.11.28-30.31c.02-2.33 1.93-4.2 4.26-4.18l103.01.87-7.04-8.93c-.95-1.2-2.4-1.91-3.93-1.93Z" class="st26"/><path d="M480.58 230.79h-95.56c-3.95 0-7.18 3.23-7.18 7.18v23.75c0 2.16 1.66 6.37 3.82 6.37l102.5-2.45c2.16 0 3.93-1.77 3.93-3.93v-23.42c0-4.13-3.38-7.5-7.5-7.5Zm-6.19-46.32-95.77-.81a6.98 6.98 0 0 0-7.04 6.98v25.23c0 1.44.49 2.84 1.38 3.97l6.04 7.65.8-23.45a9.855 9.855 0 0 1 9.94-9.52l96.76.82-6.34-8.04a7.4 7.4 0 0 0-5.76-2.82Z" class="st26"/><path d="M484.15 194.07h-99.14c-3.95 0-7.18 3.23-7.18 7.18v20.5c0 3.95 3.23 7.18 7.18 7.18h95.89c3.95 0 7.18-3.23 7.18-7.18V198c0-1.29-1.77-3.93-3.93-3.93" class="st26"/><rect width="110.24" height="34.85" x="380.13" y="234.06" class="st21" rx="7.75" ry="7.75"/><path d="m402.78 244.76 9.42 14.83h-18.83l9.42-14.83m-.01-2.96-12.29 19.37h24.59l-12.29-19.37Z" class="st22"/><path d="M419.27 248.16h20.04v6.65h-20.04z" class="st5"/><path d="M457.97 244.44c3.89 0 7.05 3.16 7.05 7.05s-3.16 7.05-7.05 7.05h-1.89c-3.89 0-7.05-3.16-7.05-7.05s3.16-7.05 7.05-7.05zm0-2.64h-1.89c-5.35 0-9.68 4.34-9.68 9.68s4.33 9.68 9.68 9.68h1.89c5.35 0 9.68-4.34 9.68-9.68s-4.34-9.68-9.68-9.68" class="st26"/><rect width="110.24" height="34.85" x="380.13" y="197.34" class="st21" rx="7.75" ry="7.75"/><path d="m402.78 208.03 9.42 14.83h-18.83l9.42-14.83m-.01-2.95-12.29 19.37h24.59l-12.29-19.37Z" class="st22"/><path d="M419.27 211.44h20.04v6.65h-20.04z" class="st5"/><path d="M457.97 207.72c3.89 0 7.05 3.16 7.05 7.05s-3.16 7.05-7.05 7.05h-1.89c-3.89 0-7.05-3.16-7.05-7.05s3.16-7.05 7.05-7.05zm0-2.64h-1.89c-5.35 0-9.68 4.34-9.68 9.68s4.33 9.68 9.68 9.68h1.89c5.35 0 9.68-4.34 9.68-9.68s-4.34-9.68-9.68-9.68" class="st26"/><path d="M9.63 237.25h291.56" style="stroke-linecap:round;stroke-linejoin:round;fill:none;stroke:#007872;stroke-width:2.31px"/><path d="M359.02 264.46H138.61c-2.42 14.35-8.07 44.5-8.07 44.5l.29 2.96h235.6l.19-2.96s-4.91-29.73-7.6-44.5" style="stroke-linecap:round;stroke-linejoin:round;stroke:#a9c753;stroke-width:1.5px;fill:#a9c753"/><path d="M359.02 261.49H138.61c-2.67 15.81-5.56 31.58-7.78 47.46h235.6c-2.59-15.8-4.54-31.7-7.41-47.46" style="stroke-linecap:round;stroke-linejoin:round;fill:#00524f;stroke:#a9c753;stroke-width:1.5px"/><path d="M215.44 273.68h-11.38c.28-2.74.42-4.1.68-6.75h11.23c-.2 2.65-.31 4.01-.53 6.75m13.86.01h-11.36c.21-2.74.31-4.1.49-6.75h11.19c-.12 2.66-.19 4.01-.33 6.75Zm13.9 0h-11.35c.13-2.75.19-4.1.29-6.75h11.18c-.03 2.66-.06 4.01-.12 6.76Zm13.84 0H245.7c.04-2.75.06-4.1.08-6.76h11.17c.05 2.66.07 4.01.09 6.76m14 .01h-11.35c-.04-2.75-.07-4.1-.13-6.76h11.18c.13 2.66.19 4.01.3 6.76m13.91 0h-11.37c-.12-2.75-.19-4.1-.34-6.76h11.21c.21 2.66.31 4.01.5 6.76m13.9 0h-11.39c-.2-2.75-.31-4.1-.53-6.76h11.25c.29 2.66.42 4.01.68 6.76Zm22.94.01h-11.45c-.31-2.75-.47-4.11-.81-6.77h11.34c.38 2.66.56 4.02.92 6.77m14.08 0h-11.51c-.37-2.75-.55-4.11-.94-6.77h11.42c.42 2.66.63 4.02 1.03 6.77m14.11 0h-11.57c-.4-2.75-.61-4.11-1.04-6.77h11.52c.45 2.66.66 4.02 1.09 6.77m-27.01 9.45h-11.6c-.3-2.85-.45-4.26-.76-7.04h11.49c.35 2.78.52 4.19.87 7.04m14.22 0h-11.62a898 898 0 0 0-.89-7.04h11.53c.39 2.78.58 4.19.97 7.04Zm14.19.01h-11.63c-.39-2.85-.59-4.26-.98-7.04h11.58c.42 2.78.62 4.19 1.03 7.05Zm-27.24 9.72h-11.75c-.31-2.92-.46-4.37-.76-7.24h11.64c.34 2.87.52 4.32.87 7.24m14.36.01h-11.72c-.36-2.92-.54-4.37-.89-7.24h11.64c.39 2.87.58 4.32.97 7.24m14.27.01h-11.69c-.4-2.92-.6-4.37-.99-7.24h11.65c.41 2.87.62 4.32 1.04 7.24Zm-27.38 9.88h-11.9c-.35-2.95-.51-4.43-.83-7.36h11.79c.36 2.93.55 4.4.94 7.35Zm14.5.01h-11.83c-.4-2.95-.59-4.43-.96-7.35h11.75c.4 2.93.61 4.4 1.04 7.35m14.36 0h-11.76c-.44-2.95-.65-4.42-1.06-7.35h11.71c.43 2.93.65 4.4 1.1 7.35Zm-195.04-29.13h-11.57c.47-2.74.7-4.09 1.15-6.74h11.52c-.43 2.65-.65 4-1.11 6.74Zm14.05.01h-11.51c.45-2.74.67-4.09 1.09-6.74h11.42c-.39 2.65-.6 4-1.01 6.75Zm14.03 0h-11.45c.41-2.74.61-4.09.99-6.75h11.34c-.34 2.65-.52 4.01-.88 6.75m13.93 0h-11.41c.35-2.74.52-4.09.85-6.75h11.28c-.27 2.65-.42 4.01-.72 6.75m43.91 9.44h-14.88c.15-2.84.22-4.25.36-7.03h14.66c-.05 2.77-.08 4.18-.14 7.03m18.16.01h-14.88c.04-2.85.06-4.25.09-7.03h14.66c.06 2.78.08 4.18.13 7.03m18.23.01h-14.89c-.07-2.85-.1-4.26-.18-7.03h14.68c.16 2.78.24 4.19.39 7.03m18.18.01h-14.9c-.17-2.85-.26-4.26-.44-7.03h14.71c.25 2.78.38 4.19.63 7.04Zm-127.78-.06c-8.63 0-17.26 0-25.89-.01.48-2.84.72-4.24 1.2-7.01h25.75c-.42 2.77-.63 4.17-1.06 7.02m18.21.01h-14.91c.41-2.84.62-4.25 1.03-7.02h14.77c-.35 2.77-.53 4.18-.88 7.02Zm18.24.01h-14.9c.34-2.84.51-4.25.84-7.02h14.72c-.26 2.77-.4 4.18-.66 7.02m18.17 0h-14.89c.25-2.84.38-4.25.62-7.02h14.68c-.16 2.77-.24 4.18-.41 7.02m7.28 9.74h-15.17c.19-2.92.3-4.37.5-7.23h14.96c-.12 2.87-.18 4.31-.29 7.23m18.53.01h-15.18c.09-2.92.14-4.37.24-7.23h14.96c-.01 2.87-.02 4.32-.02 7.23m18.59.01h-15.18c-.02-2.92-.02-4.37-.03-7.23h14.96c.09 2.87.14 4.32.25 7.23m29.61.01c-8.76 0-17.51 0-26.27-.01-.12-2.92-.18-4.37-.29-7.23 8.64 0 17.28 0 25.93.01.25 2.87.37 4.32.63 7.24Zm-141.09-.07h-15.04c.47-2.92.71-4.36 1.19-7.23h14.97c-.45 2.86-.68 4.31-1.12 7.23m18.41.01h-15.09c.43-2.92.66-4.36 1.1-7.23h14.97c-.4 2.86-.6 4.31-.98 7.23m18.51.01h-15.13c.37-2.92.57-4.36.95-7.23h14.96c-.32 2.86-.48 4.31-.79 7.23Zm18.5.01h-15.16c.29-2.92.44-4.37.75-7.23h14.96c-.23 2.86-.34 4.31-.56 7.23Zm29.97 9.93h-15.48c.1-2.96.16-4.44.28-7.37h15.26c-.04 2.93-.05 4.41-.06 7.37m18.89 0h-15.48c-.01-2.96 0-4.44.01-7.37h15.26c.07 2.93.11 4.41.21 7.37m18.93.01h-15.46c-.12-2.96-.17-4.43-.26-7.36h15.25c.17 2.93.26 4.4.47 7.36m18.81.01h-15.41c-.22-2.96-.32-4.43-.51-7.36h15.22c.27 2.93.4 4.4.7 7.36m-132.31-.05h-26.28c.43-2.97.66-4.45 1.12-7.39 8.71 0 17.42 0 26.13.01-.4 2.93-.6 4.41-.98 7.38Zm18.68.01h-15.31c.36-2.97.56-4.45.95-7.38h15.16c-.33 2.93-.5 4.41-.8 7.38m18.83 0h-15.39c.29-2.97.45-4.45.77-7.38h15.21c-.25 2.93-.37 4.41-.58 7.37Zm18.85.01h-15.45c.2-2.97.31-4.44.54-7.37h15.24c-.15 2.93-.22 4.41-.33 7.37" style="fill:#003834"/><path d="M138.61 131.17h221.03v130.32H138.61z" style="stroke-linecap:round;stroke-linejoin:round;stroke:#adcb53;stroke-width:1.58px;fill:#003834"/><path d="M140.61 139.08h217.03" style="fill:none;stroke-miterlimit:10;stroke:#006d68;stroke-width:2.32px"/><path d="M291 174.66c-3.98 0-7.79.73-11.3 2.04-3.92-13.38-16.27-23.16-30.92-23.16s-27 9.78-30.92 23.16a32.1 32.1 0 0 0-11.3-2.04c-17.8 0-32.22 14.43-32.22 32.22 0 17.8 14.43 32.22 32.22 32.22H291c17.8 0 32.22-14.43 32.22-32.22 0-17.8-14.43-32.22-32.22-32.22" style="stroke-width:2px;stroke-linecap:round;stroke-linejoin:round;stroke:#adcb53;fill:none"/><path d="M185.85 215.79c4.54 9.13 12.08 15.33 22.64 15.28m5.62-.01h23.81" style="stroke-linecap:round;stroke-linejoin:round;stroke:#adcb53;fill:none;stroke-width:2.7px"/><path d="M248.31 223.19c.36.01 1.08.02 1.08.02h.69v-7.06h-.67s-.76-.02-1.13-.04c-9.84-.59-17.54-8.77-17.54-18.63s8.37-18.67 18.67-18.67 18.2 7.82 18.65 17.81c.01.28.02.86.02.86v.67h7.07v-.69s-.01-.6-.02-.9c-.23-6.67-3.01-12.91-7.83-17.58-4.83-4.67-11.18-7.25-17.89-7.25-14.19 0-25.73 11.54-25.73 25.73s10.82 25.13 24.64 25.71Z" class="st21"/><path d="M268.09 198.16c-.35 9.77-8.23 17.65-18.01 18.01v6.99c13.63-.36 24.64-11.37 25-25z" class="st23"/></svg>