<?xml version="1.0" encoding="UTF-8"?>
<svg id="Layer_1" xmlns="http://www.w3.org/2000/svg" version="1.1" viewBox="0 0 500 350">
  <!-- Generator: Adobe Illustrator 30.2.1, SVG Export Plug-In . SVG Version: 2.1.1 Build 1)  -->
  <defs>
    <style>
      .st0 {
        stroke-width: 2px;
      }

      .st0, .st1, .st2, .st3, .st4, .st5, .st6, .st7, .st8, .st9, .st10, .st11, .st12, .st13 {
        stroke-linecap: round;
      }

      .st0, .st1, .st2, .st3, .st4, .st5, .st6, .st7, .st8, .st9, .st12, .st13 {
        stroke-linejoin: round;
      }

      .st0, .st1, .st13 {
        stroke: #adcb53;
      }

      .st0, .st2, .st3, .st4, .st5, .st8, .st9, .st14, .st10, .st11, .st15, .st13 {
        fill: none;
      }

      .st16 {
        fill: #7c7c7c;
      }

      .st17 {
        fill: #01524f;
      }

      .st17, .st4, .st5, .st8, .st14 {
        stroke: #fff;
      }

      .st17, .st14 {
        stroke-width: .92px;
      }

      .st17, .st14, .st15 {
        stroke-miterlimit: 10;
      }

      .st18 {
        fill: #777;
      }

      .st1 {
        stroke-width: 1.58px;
      }

      .st1, .st19 {
        fill: #003834;
      }

      .st2 {
        stroke: #a5c352;
        stroke-width: 1.86px;
      }

      .st20 {
        fill: #acca53;
      }

      .st3 {
        stroke: #007872;
        stroke-width: 2.31px;
      }

      .st4 {
        stroke-width: 2.19px;
      }

      .st5 {
        stroke-width: .98px;
      }

      .st21 {
        fill: #adcb53;
      }

      .st6, .st22 {
        fill: #006d68;
      }

      .st6, .st15 {
        stroke: #006d68;
        stroke-width: 2.32px;
      }

      .st23 {
        fill: #fff;
      }

      .st24 {
        fill: #a5c352;
      }

      .st7, .st25 {
        fill: #00524f;
      }

      .st7, .st12 {
        stroke: #a9c753;
        stroke-width: 1.5px;
      }

      .st8 {
        stroke-width: 5.2px;
      }

      .st9 {
        stroke: #aecc53;
        stroke-width: 2.16px;
      }

      .st10 {
        stroke-width: 1.27px;
      }

      .st10, .st11 {
        stroke: #000;
        stroke-linejoin: bevel;
      }

      .st26 {
        fill: #849e2a;
      }

      .st11 {
        stroke-width: .85px;
      }

      .st12 {
        fill: #a9c753;
      }

      .st13 {
        stroke-width: 2.7px;
      }

      .st27 {
        fill: #999;
      }
    </style>
  </defs>
  <g>
    <rect class="st6" x="383.37" y="134.72" width="31.12" height="31.12"/>
    <rect class="st2" x="383.37" y="103.6" width="31.12" height="31.12"/>
    <circle class="st23" cx="398.93" cy="119.16" r="6.57"/>
    <rect class="st4" x="428.57" y="91" width="31.12" height="31.12" transform="translate(152.83 -245.22) rotate(36.88)"/>
    <rect class="st2" x="414.49" y="134.72" width="31.12" height="31.12"/>
    <rect class="st24" x="423.47" y="143.7" width="13.14" height="13.14" transform="translate(19.7 348.1) rotate(-45)"/>
  </g>
  <g>
    <g>
      <g>
        <path class="st14" d="M186.37,285.09H52.89v-65.14c0-36.86,29.88-66.74,66.74-66.74h0c36.86,0,66.74,29.88,66.74,66.74v65.14Z"/>
        <rect class="st17" x="38.59" y="171.76" width="44.43" height="110.76" rx="19.34" ry="19.34" transform="translate(121.62 454.28) rotate(-180)"/>
      </g>
      <path class="st20" d="M140.82,182.77l-23.36,55.77-23.36-55.77c-5.4-12.9.68-27.73,13.58-33.14,20.86-8.78,41.84,12.57,33.14,33.14h0Z"/>
      <path class="st18" d="M105.48,142.98h23.97v11.98c0,6.61-5.37,11.98-11.98,11.98h0c-6.61,0-11.98-5.37-11.98-11.98v-11.98h0Z"/>
      <circle class="st27" cx="117.47" cy="91.85" r="53.76"/>
      <path class="st27" d="M117.47,38.08c-3.58,0-7.07.35-10.45,1.02-16.08,9.29-26.91,26.67-26.91,46.58,0,29.69,24.07,53.76,53.76,53.76,3.58,0,7.07-.35,10.45-1.02,16.08-9.29,26.91-26.67,26.91-46.58,0-29.69-24.07-53.76-53.76-53.76Z"/>
      <path class="st23" d="M63.7,91.85c-5.3-22.76,9.25-47.15,30.41-56.36,22.19-10.11,49.74-4.53,65.63,14.09,9.96,11.44,14.92,27.63,11.49,42.28-1.69-7.03-4.16-13.46-7.57-19.13-27.66-44.51-88.96-31.09-99.95,19.13h0Z"/>
      <path d="M96.61,89.97c0,2.17-1.76,3.93-3.93,3.93-2.17,0-3.93-1.76-3.93-3.93s1.76-3.93,3.93-3.93,3.93,1.76,3.93,3.93Z"/>
      <path d="M150.51,89.97c0,2.17-1.76,3.93-3.93,3.93-2.17,0-3.93-1.76-3.93-3.93,0-2.17,1.76-3.93,3.93-3.93s3.93,1.76,3.93,3.93Z"/>
      <g>
        <path class="st16" d="M63.7,91.85c0-3.36.31-6.64.9-9.83-3.37-1.23-6.82-1.09-9.56.72-5.43,3.58-5.96,12.37-1.18,19.62,3.39,5.14,8.53,8.12,13.17,8.16-2.15-5.82-3.33-12.1-3.33-18.67Z"/>
        <path class="st27" d="M179.89,82.74c-2.73-1.8-6.19-1.94-9.56-.72.59,3.19.9,6.47.9,9.83,0,6.56-1.18,12.85-3.33,18.67,4.64-.04,9.78-3.02,13.17-8.16,4.78-7.25,4.26-16.04-1.18-19.62Z"/>
      </g>
      <path class="st11" d="M170.9,100.71c1.67-.66,3.05-2.03,3.71-3.7.41-1.04.52-2.31-.15-3.21s-2.3-1.01-2.81-.01c.19-1.9,1-3.92,2.13-5.46,1.13-1.54,3.09-2.6,4.96-2.2"/>
      <path class="st11" d="M64.03,100.71c-1.67-.66-3.05-2.03-3.71-3.7-.41-1.04-.52-2.31.15-3.21s2.3-1.01,2.81-.01c-.19-1.9-1-3.92-2.13-5.46-1.13-1.54-3.09-2.6-4.96-2.2"/>
      <path class="st10" d="M123.99,116.19c-.88,1.85-3.07,3.15-5.63,3.15s-4.62-1.23-5.54-2.98"/>
      <g>
        <rect class="st9" x="123.9" y="75.41" width="42.42" height="29.69" rx="10.76" ry="10.76" transform="translate(290.22 180.51) rotate(-180)"/>
        <rect class="st9" x="71.49" y="75.41" width="42.42" height="29.69" rx="10.76" ry="10.76" transform="translate(185.4 180.51) rotate(-180)"/>
        <line class="st9" x1="113.91" y1="91.43" x2="123.3" y2="91.43"/>
      </g>
    </g>
    <path class="st8" d="M131.05,153.73c-.87,5.76-7.58,11.62-13.58,11.62h0c-5.79,0-12.36-5.55-13.48-11.01"/>
  </g>
  <polygon class="st25" points="485.99 236.17 15.88 236.17 16.02 303.23 485.99 303.23 485.99 236.17"/>
  <g>
    <path class="st26" d="M475.52,221.26l-99.28-.84c-2.57-.02-4.67,2.06-4.67,4.63v27.6c0,1.44.49,2.84,1.38,3.97l5.98,9.11.28-30.31c.02-2.33,1.93-4.2,4.26-4.18l103.01.87-7.04-8.93c-.95-1.2-2.4-1.91-3.93-1.93Z"/>
    <path class="st26" d="M480.58,230.79h-95.56c-3.95,0-7.18,3.23-7.18,7.18v23.75c0,2.16,1.66,6.37,3.82,6.37l102.5-2.45c2.16,0,3.93-1.77,3.93-3.93v-23.42c0-4.13-3.38-7.5-7.5-7.5Z"/>
    <path class="st26" d="M474.39,184.47l-95.77-.81c-3.88-.03-7.04,3.1-7.04,6.98v25.23c0,1.44.49,2.84,1.38,3.97l6.04,7.65.8-23.45c.18-5.34,4.59-9.57,9.94-9.52l96.76.82-6.34-8.04c-1.39-1.77-3.51-2.8-5.76-2.82Z"/>
    <path class="st26" d="M484.15,194.07h-99.14c-3.95,0-7.18,3.23-7.18,7.18v20.5c0,3.95,3.23,7.18,7.18,7.18h95.89c3.95,0,7.18-3.23,7.18-7.18v-23.75c0-1.29-1.77-3.93-3.93-3.93Z"/>
    <g>
      <rect class="st21" x="380.13" y="234.06" width="110.24" height="34.85" rx="7.75" ry="7.75"/>
      <path class="st22" d="M402.78,244.76l9.42,14.83h-18.83l9.42-14.83M402.78,241.8l-12.29,19.37h24.59l-12.29-19.37h0Z"/>
      <rect class="st5" x="419.27" y="248.16" width="20.04" height="6.65"/>
      <path class="st26" d="M457.97,244.44c3.89,0,7.05,3.16,7.05,7.05s-3.16,7.05-7.05,7.05h-1.89c-3.89,0-7.05-3.16-7.05-7.05s3.16-7.05,7.05-7.05h1.89M457.97,241.8h-1.89c-5.35,0-9.68,4.34-9.68,9.68s4.33,9.68,9.68,9.68h1.89c5.35,0,9.68-4.34,9.68-9.68s-4.34-9.68-9.68-9.68h0Z"/>
    </g>
    <g>
      <rect class="st21" x="380.13" y="197.34" width="110.24" height="34.85" rx="7.75" ry="7.75"/>
      <path class="st22" d="M402.78,208.03l9.42,14.83h-18.83l9.42-14.83M402.78,205.08l-12.29,19.37h24.59l-12.29-19.37h0Z"/>
      <rect class="st5" x="419.27" y="211.44" width="20.04" height="6.65"/>
      <path class="st26" d="M457.97,207.72c3.89,0,7.05,3.16,7.05,7.05s-3.16,7.05-7.05,7.05h-1.89c-3.89,0-7.05-3.16-7.05-7.05s3.16-7.05,7.05-7.05h1.89M457.97,205.08h-1.89c-5.35,0-9.68,4.34-9.68,9.68s4.33,9.68,9.68,9.68h1.89c5.35,0,9.68-4.34,9.68-9.68s-4.34-9.68-9.68-9.68h0Z"/>
    </g>
  </g>
  <line class="st3" x1="9.63" y1="237.25" x2="301.19" y2="237.25"/>
  <g>
    <g>
      <path class="st12" d="M359.02,264.46h-220.41c-2.42,14.35-8.07,44.5-8.07,44.5l.29,2.96h235.6l.19-2.96s-4.91-29.73-7.6-44.5Z"/>
      <path class="st7" d="M359.02,261.49h-220.41c-2.67,15.81-5.56,31.58-7.78,47.46h235.6c-2.59-15.8-4.54-31.7-7.41-47.46Z"/>
      <g>
        <g>
          <g>
            <path class="st19" d="M215.44,273.68c-3.79,0-7.59,0-11.38,0,.28-2.74.42-4.1.68-6.75,3.74,0,7.49,0,11.23,0-.2,2.65-.31,4.01-.53,6.75Z"/>
            <path class="st19" d="M229.3,273.69c-3.79,0-7.57,0-11.36,0,.21-2.74.31-4.1.49-6.75,3.73,0,7.46,0,11.19,0-.12,2.66-.19,4.01-.33,6.75Z"/>
          </g>
          <path class="st19" d="M243.2,273.69c-3.78,0-7.56,0-11.35,0,.13-2.75.19-4.1.29-6.75,3.73,0,7.45,0,11.18,0-.03,2.66-.06,4.01-.12,6.76Z"/>
          <path class="st19" d="M257.04,273.69c-3.78,0-7.56,0-11.34,0,.04-2.75.06-4.1.08-6.76,3.72,0,7.45,0,11.17,0,.05,2.66.07,4.01.09,6.76Z"/>
          <path class="st19" d="M271.04,273.7c-3.78,0-7.57,0-11.35,0-.04-2.75-.07-4.1-.13-6.76,3.73,0,7.45,0,11.18,0,.13,2.66.19,4.01.3,6.76Z"/>
          <path class="st19" d="M284.95,273.7c-3.79,0-7.58,0-11.37,0-.12-2.75-.19-4.1-.34-6.76,3.74,0,7.47,0,11.21,0,.21,2.66.31,4.01.5,6.76Z"/>
          <path class="st19" d="M298.85,273.7c-3.8,0-7.59,0-11.39,0-.2-2.75-.31-4.1-.53-6.76,3.75,0,7.5,0,11.25,0,.29,2.66.42,4.01.68,6.76Z"/>
          <path class="st19" d="M321.79,273.71c-3.82,0-7.64,0-11.45,0-.31-2.75-.47-4.11-.81-6.77,3.78,0,7.56,0,11.34,0,.38,2.66.56,4.02.92,6.77Z"/>
          <path class="st19" d="M335.87,273.71c-3.84,0-7.67,0-11.51,0-.37-2.75-.55-4.11-.94-6.77,3.81,0,7.62,0,11.42,0,.42,2.66.63,4.02,1.03,6.77Z"/>
          <path class="st19" d="M349.98,273.71c-3.86,0-7.71,0-11.57,0-.4-2.75-.61-4.11-1.04-6.77,3.84,0,7.68,0,11.52,0,.45,2.66.66,4.02,1.09,6.77Z"/>
          <path class="st19" d="M322.97,283.16c-3.87,0-7.74,0-11.6,0-.3-2.85-.45-4.26-.76-7.04,3.83,0,7.66,0,11.49,0,.35,2.78.52,4.19.87,7.04Z"/>
          <path class="st19" d="M337.19,283.16c-3.87,0-7.74,0-11.62,0-.35-2.85-.53-4.26-.89-7.04,3.84,0,7.69,0,11.53,0,.39,2.78.58,4.19.97,7.04Z"/>
          <path class="st19" d="M351.38,283.17c-3.88,0-7.75,0-11.63,0-.39-2.85-.59-4.26-.98-7.04,3.86,0,7.72,0,11.58,0,.42,2.78.62,4.19,1.03,7.05Z"/>
          <path class="st19" d="M324.14,292.89c-3.92,0-7.83,0-11.75,0-.31-2.92-.46-4.37-.76-7.24,3.88,0,7.76,0,11.64,0,.34,2.87.52,4.32.87,7.24Z"/>
          <path class="st19" d="M338.5,292.9c-3.91,0-7.82,0-11.72,0-.36-2.92-.54-4.37-.89-7.24,3.88,0,7.76,0,11.64,0,.39,2.87.58,4.32.97,7.24Z"/>
          <path class="st19" d="M352.77,292.91c-3.9,0-7.8,0-11.69,0-.4-2.92-.6-4.37-.99-7.24,3.88,0,7.76,0,11.65,0,.41,2.87.62,4.32,1.04,7.24Z"/>
          <path class="st19" d="M325.39,302.79c-3.97,0-7.93,0-11.9,0-.35-2.95-.51-4.43-.83-7.36,3.93,0,7.86,0,11.79,0,.36,2.93.55,4.4.94,7.35Z"/>
          <path class="st19" d="M339.89,302.8c-3.94,0-7.89,0-11.83,0-.4-2.95-.59-4.43-.96-7.35,3.92,0,7.84,0,11.75,0,.4,2.93.61,4.4,1.04,7.35Z"/>
          <path class="st19" d="M354.25,302.8c-3.92,0-7.84,0-11.76,0-.44-2.95-.65-4.42-1.06-7.35,3.9,0,7.81,0,11.71,0,.43,2.93.65,4.4,1.1,7.35Z"/>
          <g>
            <path class="st19" d="M159.21,273.67c-3.86,0-7.71,0-11.57,0,.47-2.74.7-4.09,1.15-6.74,3.84,0,7.68,0,11.52,0-.43,2.65-.65,4-1.11,6.74Z"/>
            <path class="st19" d="M173.26,273.68c-3.84,0-7.67,0-11.51,0,.45-2.74.67-4.09,1.09-6.74,3.81,0,7.62,0,11.42,0-.39,2.65-.6,4-1.01,6.75Z"/>
          </g>
          <g>
            <path class="st19" d="M187.29,273.68c-3.82,0-7.64,0-11.45,0,.41-2.74.61-4.09.99-6.75,3.78,0,7.56,0,11.34,0-.34,2.65-.52,4.01-.88,6.75Z"/>
            <path class="st19" d="M201.22,273.68c-3.8,0-7.61,0-11.41,0,.35-2.74.52-4.09.85-6.75,3.76,0,7.52,0,11.28,0-.27,2.65-.42,4.01-.72,6.75Z"/>
          </g>
        </g>
        <g>
          <path class="st19" d="M245.13,283.12c-4.96,0-9.92,0-14.88,0,.15-2.84.22-4.25.36-7.03,4.89,0,9.78,0,14.66,0-.05,2.77-.08,4.18-.14,7.03Z"/>
          <path class="st19" d="M263.29,283.13c-4.96,0-9.92,0-14.88,0,.04-2.85.06-4.25.09-7.03,4.89,0,9.77,0,14.66,0,.06,2.78.08,4.18.13,7.03Z"/>
        </g>
        <g>
          <path class="st19" d="M281.52,283.14c-4.96,0-9.93,0-14.89,0-.07-2.85-.1-4.26-.18-7.03,4.89,0,9.78,0,14.68,0,.16,2.78.24,4.19.39,7.03Z"/>
          <path class="st19" d="M299.7,283.15c-4.97,0-9.93,0-14.9,0-.17-2.85-.26-4.26-.44-7.03,4.9,0,9.8,0,14.71,0,.25,2.78.38,4.19.63,7.04Z"/>
        </g>
        <g>
          <path class="st19" d="M171.92,283.09c-8.63,0-17.26,0-25.89-.01.48-2.84.72-4.24,1.2-7.01,8.58,0,17.16,0,25.75,0-.42,2.77-.63,4.17-1.06,7.02Z"/>
          <path class="st19" d="M190.13,283.1c-4.97,0-9.94,0-14.91,0,.41-2.84.62-4.25,1.03-7.02,4.92,0,9.85,0,14.77,0-.35,2.77-.53,4.18-.88,7.02Z"/>
        </g>
        <g>
          <path class="st19" d="M208.37,283.11c-4.97,0-9.93,0-14.9,0,.34-2.84.51-4.25.84-7.02,4.91,0,9.81,0,14.72,0-.26,2.77-.4,4.18-.66,7.02Z"/>
          <path class="st19" d="M226.54,283.11c-4.96,0-9.93,0-14.89,0,.25-2.84.38-4.25.62-7.02,4.89,0,9.79,0,14.68,0-.16,2.77-.24,4.18-.41,7.02Z"/>
        </g>
        <g>
          <path class="st19" d="M233.82,292.85c-5.06,0-10.12,0-15.17,0,.19-2.92.3-4.37.5-7.23,4.99,0,9.97,0,14.96,0-.12,2.87-.18,4.31-.29,7.23Z"/>
          <path class="st19" d="M252.35,292.86c-5.06,0-10.12,0-15.18,0,.09-2.92.14-4.37.24-7.23,4.99,0,9.97,0,14.96,0-.01,2.87-.02,4.32-.02,7.23Z"/>
        </g>
        <g>
          <path class="st19" d="M270.94,292.87c-5.06,0-10.12,0-15.18,0-.02-2.92-.02-4.37-.03-7.23,4.99,0,9.97,0,14.96,0,.09,2.87.14,4.32.25,7.23Z"/>
          <path class="st19" d="M300.55,292.88c-8.76,0-17.51,0-26.27-.01-.12-2.92-.18-4.37-.29-7.23,8.64,0,17.28,0,25.93.01.25,2.87.37,4.32.63,7.24Z"/>
        </g>
        <g>
          <path class="st19" d="M159.46,292.81c-5.01,0-10.02,0-15.04,0,.47-2.92.71-4.36,1.19-7.23,4.99,0,9.98,0,14.97,0-.45,2.86-.68,4.31-1.12,7.23Z"/>
          <path class="st19" d="M177.87,292.82c-5.03,0-10.06,0-15.09,0,.43-2.92.66-4.36,1.1-7.23,4.99,0,9.98,0,14.97,0-.4,2.86-.6,4.31-.98,7.23Z"/>
        </g>
        <g>
          <path class="st19" d="M196.38,292.83c-5.04,0-10.08,0-15.13,0,.37-2.92.57-4.36.95-7.23,4.99,0,9.98,0,14.96,0-.32,2.86-.48,4.31-.79,7.23Z"/>
          <path class="st19" d="M214.88,292.84c-5.05,0-10.1,0-15.16,0,.29-2.92.44-4.37.75-7.23,4.99,0,9.98,0,14.96,0-.23,2.86-.34,4.31-.56,7.23Z"/>
        </g>
        <g>
          <path class="st19" d="M244.85,302.77c-5.16,0-10.32,0-15.48,0,.1-2.96.16-4.44.28-7.37,5.09,0,10.17,0,15.26,0-.04,2.93-.05,4.41-.06,7.37Z"/>
          <path class="st19" d="M263.74,302.77c-5.16,0-10.32,0-15.48,0-.01-2.96,0-4.44.01-7.37,5.09,0,10.17,0,15.26,0,.07,2.93.11,4.41.21,7.37Z"/>
        </g>
        <g>
          <path class="st19" d="M282.67,302.78c-5.15,0-10.3,0-15.46,0-.12-2.96-.17-4.43-.26-7.36,5.08,0,10.16,0,15.25,0,.17,2.93.26,4.4.47,7.36Z"/>
          <path class="st19" d="M301.48,302.79c-5.14,0-10.27,0-15.41,0-.22-2.96-.32-4.43-.51-7.36,5.07,0,10.15,0,15.22,0,.27,2.93.4,4.4.7,7.36Z"/>
        </g>
        <g>
          <path class="st19" d="M169.17,302.74c-8.76,0-17.52,0-26.28,0,.43-2.97.66-4.45,1.12-7.39,8.71,0,17.42,0,26.13.01-.4,2.93-.6,4.41-.98,7.38Z"/>
          <path class="st19" d="M187.85,302.75c-5.1,0-10.21,0-15.31,0,.36-2.97.56-4.45.95-7.38,5.05,0,10.11,0,15.16,0-.33,2.93-.5,4.41-.8,7.38Z"/>
        </g>
        <g>
          <path class="st19" d="M206.68,302.75c-5.13,0-10.26,0-15.39,0,.29-2.97.45-4.45.77-7.38,5.07,0,10.14,0,15.21,0-.25,2.93-.37,4.41-.58,7.37Z"/>
          <path class="st19" d="M225.53,302.76c-5.15,0-10.3,0-15.45,0,.2-2.97.31-4.44.54-7.37,5.08,0,10.16,0,15.24,0-.15,2.93-.22,4.41-.33,7.37Z"/>
        </g>
      </g>
    </g>
    <rect class="st1" x="138.61" y="131.17" width="221.03" height="130.32"/>
    <line class="st15" x1="140.61" y1="139.08" x2="357.64" y2="139.08"/>
    <g>
      <g>
        <path class="st0" d="M291,174.66c-3.98,0-7.79.73-11.3,2.04-3.92-13.38-16.27-23.16-30.92-23.16-14.65,0-27,9.78-30.92,23.16-3.52-1.32-7.33-2.04-11.3-2.04-17.8,0-32.22,14.43-32.22,32.22,0,17.8,14.43,32.22,32.22,32.22,8.08,0,34.15,0,42.22,0,8.08,0,34.15,0,42.22,0,17.8,0,32.22-14.43,32.22-32.22,0-17.8-14.43-32.22-32.22-32.22Z"/>
        <path class="st13" d="M185.85,215.79c4.54,9.13,12.08,15.33,22.64,15.28"/>
        <line class="st13" x1="214.11" y1="231.06" x2="237.92" y2="231.06"/>
      </g>
      <g>
        <path class="st21" d="M248.31,223.19c.36.01,1.08.02,1.08.02h.69s0-7.06,0-7.06h-.67s-.76-.02-1.13-.04c-9.84-.59-17.54-8.77-17.54-18.63s8.37-18.67,18.67-18.67,18.2,7.82,18.65,17.81c.01.28.02.86.02.86v.67h7.07v-.69s-.01-.6-.02-.9c-.23-6.67-3.01-12.91-7.83-17.58-4.83-4.67-11.18-7.25-17.89-7.25-14.19,0-25.73,11.54-25.73,25.73s10.82,25.13,24.64,25.71Z"/>
        <path class="st23" d="M268.09,198.16c-.35,9.77-8.23,17.65-18.01,18.01v6.99c13.63-.36,24.64-11.37,25-25h-6.99Z"/>
      </g>
    </g>
  </g>
</svg>