<svg xmlns="http://www.w3.org/2000/svg" id="Layer_1" viewBox="0 0 500 350"><defs><style>.st0{stroke:#a8c653;stroke-width:1.62px}.st0,.st1,.st3,.st5,.st7{fill:none;stroke-linejoin:round;stroke-linecap:round}.st1{stroke:#adcb53}.st1,.st7{stroke-width:2.09px}.st16{fill:gray}.st3{stroke-width:2.02px;stroke:#a9c753}.st5{stroke:#c3c3c3;stroke-width:1.1px}.st17{fill:#a8c653}.st7{stroke:#fff}.st18{fill:#fff}.st19{fill:#a9c753}.st20{fill:#181818}</style></defs><path d="M374.57 308.22c-.89 6.09-1.71 11.46-2.28 13.51m101.39 1.39c-.03-35.22-2.29-91.8-6.31-106.16-3.9-13.93-9.96-27.71-20.39-37.74-12.23-11.76-29.65-19.78-45.57-10.14-10.4 6.3-16.57 18.97-20.52 29.84-3.66 10.07-7.47 20.29-8.92 30.97-1.39 10.2 4.36 17.45 7.85 26.59.91 2.38 1.44 4.71 1.68 7.02" style="fill:none;stroke:#adcb53;stroke-miterlimit:10;stroke-width:2.79px"/><path d="M393.54 155.64h23.73v11.86c0 6.55-5.32 11.86-11.86 11.86-6.55 0-11.86-5.32-11.86-11.86v-11.86Z" class="st16"/><circle cx="389.02" cy="134.6" r="37.85" class="st16"/><path d="M450.21 115.52c-4.15-16.91-17.1-30.24-33.85-34.95-12.95-3.64-28.21-3.45-40.96.67-2.46.79-4.82 1.75-7.08 2.87-13.82 5.3-23.64 18.69-23.64 34.38v3.65h65.95c1.13 1.75 1.91 3.62 2.44 5.56v48.87h3.86c19.45 0 35.22-15.77 35.22-35.22 0 0-1.18-22.7-1.95-25.83Z" class="st18"/><path d="M328.39 280.01c1.2-3.91 3.28-7.49 5.4-10.97-1.82-1.47-3.64-2.95-5.49-4.4-3.17-2.5-6.4-5.34-8.32-8.96-.5-.93-1.54-1.68-2.57-1.44-.83.2-1.4.97-1.72 1.76-.61 1.51-.53 3.17-.25 4.74.12.69 2.5 6.54 4.02 8.16.27.28.16.76-.2.9-1.38.53-2.98.51-4.43.14-3.14-.79-6.27-2.83-8.4-5.24-2.52-2.85-4.94-5.77-7.61-8.48-2.69-2.73-7.17-3.66-10.87-3.37-1.12.09-2.47.51-2.67 1.62-.12.69.28 1.36.66 1.95 2.74 4.2 6.01 7.93 8.82 12.07 2.04 3 3.46 6.73 5.04 10 .91 1.88 1.87 3.83 3.51 5.12 1.51 1.19 3.43 1.7 5.29 2.18 3.61.93 7.39.95 11 1.87 2.97.76 5.64.92 8.3 2.23-.73-3.26-.52-6.64.48-9.89Z" class="st16"/><ellipse cx="413.23" cy="129.25" class="st16" rx="13.28" ry="8.91" transform="rotate(-52.35 413.193 129.256)"/><path d="M433.8 286.04c10.14-12.32 15.35-56.04 15.55-62.93.28-9.55-1.02-26.61-9.92-32.49-8.22-5.44-19.58-3.57-25.65 3.9-4.51 5.55-8.05 13.39-9.7 20.33-1.85 7.74-1.89 15.76-1.42 23.66.43 7.17 1.96 13.22-3.09 19.36-3.56 4.33-8.82 6.68-14.43 6.44l-34.68-1.49c-12.23-.53-22.57 8.96-23.1 21.2-.52 12.14 8.82 22.42 20.92 23.08.09 0 .18 0 .27.01l34.68 1.49c19.64.84 38.07-7.38 50.56-22.55Z" class="st7"/><path d="M415.05 263.55c-2.6-4.45-9.01-8.35-14.28-7.98.1 0 4.59 4.45 5.06 5.02 1.54 1.86 2.36 4.38 2.3 6.79" class="st7"/><path d="M412.04 131.32c.9-.32 1.85-.93 1.96-1.88.08-.67-.32-1.34-.88-1.72s-1.25-.52-1.93-.56c.37-1.93 2.34-3.56 4.17-4.28 1.86-.73 4.25-.61 5.52.94" class="st5"/><path d="M124.48 261.27c-1.64-29.77-3.55-59.96-5.37-64.97-3.95-10.88-10.12-23.55-20.52-29.84-15.92-9.64-33.34-1.62-45.57 10.14-10.43 10.03-16.48 23.81-20.39 37.74-4.02 14.36-6.29 74.14-6.31 109.36m101.93.08c-.33-1.21-.81-8.16-1.38-18.24" style="fill:none;stroke-miterlimit:10;stroke:#fff;stroke-width:1.75px"/><path d="M83.69 155.64h23.73v11.86c0 6.55-5.32 11.86-11.86 11.86-6.55 0-11.86-5.32-11.86-11.86v-11.86Z" class="st18"/><circle cx="110.98" cy="131.99" r="37.85" class="st18"/><path d="M84.49 158.08c-11.19-2.19-19.22-11.92-22.19-22.58-2.99-10.72-1.72-22.81 3.15-32.79 1.54-3.16 3.47-6.15 5.89-8.7 17.74-18.63 39.86-16.92 53.26-12.59 6.96 2.25 12.49 6.77 17.6 11.86 2.44 2.43 4.15 4.71 5.93 7.6s4.94 6.21 8.56 4c-.34 3.5-2.76 6.73-6.04 8.02-3.87 1.53-8.49 1.02-12.44.19-3.87-.81-6.29-3.22-9.54-5.06-5.7-3.22-12.97-3.25-19.25-2.11-6.49 1.18-17.16 5.69-22.02 15.55-6.64 13.48-3.45 36.53-2.89 36.63Z" class="st20"/><path d="M62.29 135.5c-2.99-10.72-1.72-22.81 3.15-32.79 1.54-3.16 3.47-6.15 5.89-8.7 17.74-18.63 39.86-16.92 53.26-12.59 6.96 2.25 12.49 6.77 17.6 11.86 2.44 2.43 4.15 4.71 5.93 7.6s4.94 6.21 8.56 4c-.34 3.5-2.76 6.73-6.04 8.02" style="fill:none;stroke-miterlimit:10;stroke:#757575;stroke-width:1.07px"/><ellipse cx="86.77" cy="126.64" class="st18" rx="8.91" ry="13.28" transform="rotate(-37.65 86.792 126.652)"/><path d="M164.66 295.51c1.97 1.01 3.68 2.14 5.92 2.54 5.22.94 10.26-.18 15.5.19.9.06 2.31.06 3.09.57.65.42 1.12 1.37 1.63 1.96 1.46 1.69 3.02 3.3 4.84 4.61 2.37 1.7 5.24 2.85 8.15 2.7.48-.02 1.11-.27 1.04-.74-.03-.17-.15-.31-.26-.43-2.08-2.37-3.51-5.3-4.1-8.4 1.38 1.98 3.43 3.36 5.44 4.7 3.19 2.13 7.76 2.12 11.33 1.08 1.08-.32 2.32-1.01 2.29-2.13-.02-.7-.55-1.27-1.04-1.77-3.54-3.56-7.5-6.54-11.1-10.02-2.61-2.52-4.75-5.88-6.97-8.76-1.27-1.65-2.61-3.36-4.48-4.3-1.72-.86-3.7-.96-5.62-1.06-3.72-.18-7.42.58-11.15.41-3.6-.17-6.63.41-10.11-1" class="st18"/><path d="M188.39 290.57c.97.23 2-.01 2.99.11 4.93.6 9.22 8.58 11.64 12.21" style="fill:none;stroke-miterlimit:10;stroke-width:1.4px;stroke:#003834"/><path d="M66.2 283.43c-10.14-12.32-15.35-56.04-15.55-62.93-.28-9.55 1.02-26.61 9.92-32.49 8.22-5.44 19.58-3.57 25.65 3.9 4.51 5.55 8.05 13.39 9.7 20.33 1.85 7.74 1.89 15.76 1.42 23.66-.43 7.17-1.96 13.22 3.09 19.36 3.56 4.33 8.82 6.68 14.43 6.44l34.68-1.49c12.23-.53 22.57 8.96 23.1 21.2.52 12.14-8.82 22.42-20.92 23.08-.09 0-.18 0-.27.01l-34.68 1.49c-19.64.84-38.07-7.38-50.56-22.55Z" class="st1"/><path d="M84.95 260.94c2.6-4.45 9.01-8.35 14.28-7.98-.1 0-4.59 4.45-5.06 5.02-1.54 1.86-2.36 4.38-2.3 6.79" class="st1"/><path d="M87.96 128.7c-.9-.32-1.85-.93-1.96-1.88-.08-.67.32-1.34.88-1.72s1.25-.52 1.93-.56c-.37-1.93-2.34-3.56-4.17-4.28-1.86-.73-4.25-.61-5.52.94" style="fill:none;stroke-linejoin:round;stroke-linecap:round;stroke:#3d3d3d;stroke-width:1.65px"/><path d="M128.2 133.05a3.51 3.51 0 0 0 1.72 4.64c1.76.8 3.83.03 4.64-1.72.8-1.76-5.56-4.67-6.36-2.91Z" style="fill:#3c3c3c"/><path d="M142.42 132.94c-4.38-8.01-14.7-10.12-21.02-7.35" style="fill:none;stroke-linejoin:round;stroke:#3c3c3c;stroke-width:5.58px"/><path d="M131 161.11c-3.59-1.49-5.17-2.81-6.67-6.48" style="fill:none;stroke-linejoin:round;stroke-linecap:round;stroke:#606060;stroke-width:.98px"/><path d="M367.32 138.63c.8 1.76.03 3.83-1.72 4.64-1.76.8-3.83.03-4.64-1.72-.8-1.76 5.56-4.67 6.36-2.91Z" class="st20"/><path d="M353.1 138.52c4.38-8.01 14.7-10.12 21.02-7.35" style="fill:none;stroke-miterlimit:10;stroke:#fff;stroke-width:1.4px"/><path d="M365.91 163.9c3.59-1.49 5.17-2.81 6.67-6.48" class="st5"/><path d="M258.11 104.25c19.67 13.09 29.33 38.11 21.72 62-8.71 27.37-37.68 43.4-65.5 36.25-10.79-2.77-19.96-8.56-26.88-16.21-7 4.32-16.22 3.95-22.92-1.46 2.46-1.16 4.69-2.87 6.62-5.03.72-.81 1.34-1.6 1.87-2.38 2.7-3.93 3.44-8.87 2.19-13.47-2.7-9.9-2.64-20.7.8-31.27 8.82-27.04 37.45-42.86 65.04-35.95" class="st7"/><path d="M241.24 104.69c-19.23 13.2-28.6 37.93-21.07 61.56 8.71 27.37 37.68 43.4 65.5 36.25 10.79-2.77 19.96-8.56 26.88-16.21 7 4.32 16.22 3.95 22.92-1.46-2.46-1.16-4.69-2.87-6.62-5.03-.72-.81-1.34-1.6-1.87-2.38-2.7-3.93-3.44-8.87-2.19-13.47 2.7-9.9 2.64-20.7-.8-31.27-8.82-27.04-37.45-42.86-65.04-35.95" class="st1"/><path d="M260.87 44.63c-1.51 4.56-5.82 7.87-10.86 7.87s-9.36-3.32-10.87-7.88" class="st3"/><path d="M257.04 44.15a3.807 3.807 0 0 1 7.5 1.3 3.807 3.807 0 0 1-7.5-1.3m-14.08 0a3.807 3.807 0 0 0-7.5 1.3 3.807 3.807 0 0 0 7.5-1.3" class="st19"/><path d="M266.62 61.33c-1.66 7.64-8.5 13.41-16.62 13.41s-14.96-5.77-16.62-13.41" class="st3"/><path d="M262.79 61.07a3.803 3.803 0 0 1 4.22-3.34c2.09.24 3.58 2.13 3.34 4.22s-2.13 3.58-4.22 3.34-3.58-2.13-3.34-4.22m-25.58 0a3.803 3.803 0 0 0-4.22-3.34 3.803 3.803 0 0 0-3.34 4.22c.24 2.09 2.13 3.58 4.22 3.34s3.58-2.13 3.34-4.22" class="st19"/><path d="M250.01 29.83v133.62" class="st3"/><circle cx="250.01" cy="30.02" r="3.81" class="st19"/><path d="M268.69 163.45v-15.89" class="st0"/><path d="M271.74 147.71c0-1.68-1.36-3.05-3.05-3.05s-3.05 1.36-3.05 3.05 1.36 3.05 3.05 3.05 3.05-1.36 3.05-3.05" class="st17"/><path d="M259.99 163.44v-26.01" class="st0"/><path d="M263.03 137.58c0-1.68-1.36-3.05-3.05-3.05s-3.05 1.36-3.05 3.05 1.36 3.05 3.05 3.05 3.05-1.36 3.05-3.05" class="st17"/><path d="M231.31 163.45v-15.89" class="st0"/><path d="M234.36 147.71c0-1.68-1.36-3.05-3.05-3.05s-3.05 1.36-3.05 3.05 1.36 3.05 3.05 3.05 3.05-1.36 3.05-3.05" class="st17"/><path d="M240.01 163.44v-26.01" class="st0"/><path d="M243.06 137.58c0-1.68-1.36-3.05-3.05-3.05s-3.05 1.36-3.05 3.05 1.36 3.05 3.05 3.05 3.05-1.36 3.05-3.05" class="st17"/><path d="M221.27 164.01h57.46" style="fill:none;stroke-linejoin:round;stroke-linecap:round;stroke:#a9c753;stroke-width:1.01px"/><path d="M184.1 307.77h72.98l19.14-69.78" style="fill:none;stroke-linejoin:round;stroke-linecap:round;stroke:#adcb53;stroke-width:2.79px"/></svg>