<?xml version="1.0" encoding="UTF-8"?>
<svg xmlns="http://www.w3.org/2000/svg" version="1.1" viewBox="0 0 500 350">
  <!-- Generator: Adobe Illustrator 30.2.1, SVG Export Plug-In . SVG Version: 2.1.1 Build 1)  -->
  <defs>
    <style>
      .st0, .st1 {
        fill: gray;
      }

      .st2 {
        stroke-width: 2.47px;
      }

      .st2, .st3, .st4, .st5, .st6, .st7, .st8, .st9, .st10 {
        stroke-miterlimit: 10;
      }

      .st2, .st11, .st4, .st12, .st13, .st14, .st6, .st15, .st16, .st7, .st17, .st18, .st19, .st10 {
        fill: none;
      }

      .st2, .st11, .st18, .st9, .st20 {
        stroke: #adcb53;
      }

      .st21, .st3, .st22 {
        fill: #00524f;
      }

      .st21, .st23, .st11, .st12, .st13, .st14, .st15, .st16, .st17, .st18, .st19, .st20 {
        stroke-linejoin: round;
      }

      .st21, .st23, .st4, .st5, .st14, .st16, .st7 {
        stroke: #fff;
      }

      .st21, .st23, .st14 {
        stroke-width: 2.22px;
      }

      .st21, .st11, .st12, .st13, .st14, .st15, .st16, .st17, .st18, .st19, .st20 {
        stroke-linecap: round;
      }

      .st3 {
        stroke: #a9c753;
        stroke-width: 2.4px;
      }

      .st23, .st5, .st24 {
        fill: #fff;
      }

      .st11, .st20 {
        stroke-width: 1.79px;
      }

      .st4 {
        stroke-width: 4.1px;
      }

      .st25 {
        isolation: isolate;
      }

      .st12, .st6 {
        stroke: #007872;
        stroke-width: 2.14px;
      }

      .st13 {
        stroke: #003834;
        stroke-width: 1.09px;
      }

      .st5, .st9 {
        stroke-width: .71px;
      }

      .st15 {
        stroke: #c3c3c3;
        stroke-width: 2.2px;
      }

      .st26, .st9, .st20 {
        fill: #adcb53;
      }

      .st16 {
        stroke-width: 3.66px;
      }

      .st7 {
        stroke-width: 1.75px;
      }

      .st8 {
        fill: #a8c653;
        stroke: #a8c653;
        stroke-width: 1.96px;
      }

      .st17 {
        stroke-width: 1.06px;
      }

      .st17, .st19 {
        stroke: #545454;
      }

      .st18 {
        stroke-width: 2.62px;
      }

      .st19 {
        stroke-width: 1.62px;
      }

      .st27 {
        fill: #a9c753;
      }

      .st1 {
        mix-blend-mode: multiply;
        opacity: .5;
      }

      .st10 {
        stroke: #c8d3dd;
        stroke-width: 1.42px;
      }
    </style>
  </defs>
  <g class="st25">
    <g id="Layer_1">
      <g>
        <g>
          <rect class="st3" x="2.59" y="36.55" width="247.81" height="164.86"/>
          <g>
            <path class="st5" d="M137.81,151.98c-16.55,6.25-35.04-2.11-41.29-18.66-1.44-3.81-2.1-7.73-2.06-11.58-8.31-2.63-16.91-4.34-25.59-5.63-.89,8.66.15,17.65,3.43,26.36,11.2,29.67,44.14,44.77,73.87,34.03.26-.09,1.31-.49,1.31-.49l-9.15-24.23s-.34.14-.52.21Z"/>
            <path class="st9" d="M72.69,100.53s-.31.78-.45,1.17c-4.37,11.67-5.02,24.78-1.08,37.45.34,1.11,1.14,3.32,1.14,3.32l24.22-9.14c-2.8-7.42-2.67-15.24-.17-22.16.12-.33.38-.99.38-.99l-24.03-9.64Z"/>
            <path class="st10" d="M137.81,151.98c-16.55,6.25-35.04-2.11-41.29-18.66-6.25-16.55,2.11-35.04,18.66-41.29,16.55-6.25,35.04,2.11,41.29,18.66,6.25,16.55-2.11,35.04-18.66,41.29ZM146.95,176.21c-29.81,11.25-63.1-3.79-74.35-33.6-11.25-29.81,3.79-63.1,33.6-74.35,29.81-11.25,63.1,3.79,74.35,33.6,11.25,29.81-3.79,63.1-33.6,74.35Z"/>
          </g>
          <rect class="st27" x="107.74" y="22.5" width="37.5" height="24.57"/>
          <line class="st2" x1="21.31" y1="175.24" x2="68.87" y2="175.24"/>
          <line class="st2" x1="21.31" y1="184.56" x2="68.87" y2="184.56"/>
          <line class="st2" x1="68.87" y1="175.24" x2="96.72" y2="157.28"/>
        </g>
        <g>
          <g>
            <path class="st22" d="M332.49,191.33c-5.04-8.28-11.32-16.06-19.06-21.97-1.49-1.13-2.82-1.63-4.01-1.65.13-.33.24-.66.38-.99-2.09-2.21-4.41-4.19-6.94-5.9-6.64-4.49-14.66-7.11-23.28-7.11h-61.25c-6.7,0-13.04,1.58-18.65,4.4-4.37,2.19-8.28,5.16-11.6,8.68.18.3.34.61.51.91-2.96,1.11-5.79,3.35-9.08,6.52-3.67,3.53-7.01,7.4-9.89,11.59-27.42,39.97-29.3,94.73-28.41,141.68l35.51-.94v.94s144.51,0,144.51,0l-.02-1.81,36.14,1.81c.85-44.87-.86-96.73-24.85-136.17Z"/>
            <path class="st12" d="M321.21,327.5l-.82-84.69c-.05-5.2-1.28-10.32-3.62-14.97-5.97-11.83-16.4-38.09-6.98-61.11-2.09-2.21-4.41-4.19-6.94-5.9-6.65-4.49-14.66-7.11-23.28-7.11h-61.25c-6.7,0-13.04,1.58-18.65,4.4-4.37,2.19-8.28,5.16-11.6,8.68,10.65,17.54.71,48.32-6.25,61.35-2.57,4.81-3.86,10.2-3.94,15.66l-1.2,83.7"/>
            <path class="st6" d="M188.74,166.73c-44.5,29.98-48.44,113.25-47.54,160.77"/>
            <path class="st6" d="M309.79,166.73c44.5,29.98,48.44,113.25,47.54,160.77"/>
            <path class="st0" d="M244.27,132h11.86c6.18,0,11.2,5.02,11.2,11.2v11.01c0,9.46-7.68,17.13-17.13,17.13h0c-9.46,0-17.13-7.68-17.13-17.13v-11.01c0-6.18,5.02-11.2,11.2-11.2Z"/>
            <path class="st16" d="M267.34,154.21c0,9.42-7.71,17.13-17.13,17.13h0c-9.42,0-17.13-7.71-17.13-17.13"/>
            <path class="st1" d="M241.59,117.46h17.93c4.7,0,8.52,3.82,8.52,8.52v15.82c0,8.28-6.72,15-15,15h-4.95c-8.28,0-15-6.72-15-15v-15.82c0-4.7,3.82-8.52,8.52-8.52Z"/>
            <g>
              <circle class="st0" cx="250.2" cy="97.64" r="51.7"/>
              <ellipse class="st0" cx="301.9" cy="101.51" rx="15.13" ry="11.33" transform="translate(50.96 297.66) rotate(-56.6)"/>
              <ellipse class="st0" cx="198.51" cy="101.51" rx="11.33" ry="15.13" transform="translate(-23.09 126.05) rotate(-33.4)"/>
            </g>
            <g>
              <path class="st19" d="M301.24,106.16c1.61-.63,2.93-1.95,3.56-3.56.39-1,.5-2.22-.15-3.09s-2.21-.97-2.7-.01c.18-1.83.96-3.77,2.04-5.25,1.09-1.48,2.97-2.5,4.77-2.12"/>
              <path class="st19" d="M199.17,106.16c-1.61-.63-2.93-1.95-3.56-3.56-.39-1-.5-2.22.15-3.09s2.21-.97,2.7-.01c-.18-1.83-.96-3.77-2.04-5.25-1.09-1.48-2.97-2.5-4.77-2.12"/>
            </g>
            <g>
              <path class="st24" d="M216.02,55.07c-4.22,2.72-7.54,6.37-10.07,10.28-4.21,6.51-7.28,14.15-6.62,22.06.07.77.31,1.71,1.06,1.89,1.85-3.16,2.11-7.13,3.74-10.45,1.75-3.55,4.02-6.87,6.67-9.82,2.66-2.97,5.77-5.38,9.13-6.84l-3.92-7.11Z"/>
              <path class="st24" d="M295.42,51.21c2.59,1,5.29,1.26,7.29,3.94.7.94,1.78,2.64,1.97,3.81.08.51.1,3.21-1.06,2.46-.63-.4-.98-1.11-1.53-1.61-1.63-1.51-2.13.2-1.72,1.59,1.03,3.49,2.12,6.96,2.46,10.6.57,6,.9,12.18-2.02,17.75-.14.27-.38.49-.67.58-.92.28-1.4-.79-1.58-1.63-1.71-7.9-4.04-15.07-11.06-19.63-9.2-5.97-20.76-5.96-31.26-4.97-11.14,1.05-22.61,6.25-33.91,4.24-9.3-1.65-18.14-6.87-22.69-15.37-1.17-2.18-2.81-5.7-2.14-8.3,1.14-4.39,5.22.26,7.58,1.39,2.11,1.01,4.88,1.1,7.11.5,1.23-.33,2.39-.83,3.51-1.42,1.14-.59,2.25-1.27,3.35-1.94,3.85-2.35,8.25-5.88,12.91-5.97-1.54.03-3.27-6.72-2.61-7.83,1.02-1.72,2.94.28,4.45.78,2.24.75,4.6,1.23,6.92,1.71,3.39.69,5.95.26,9.32.16,6.1-.18,12.06.74,18.04,1.85-1-2.61.57-5.95,2.84-7.44.18-.12.42-.13.6,0,.3.21.15.64.06.98-.3,1.06.21,2.16.74,3.13,1.91,3.5,5.87,9.56,9.89,10.75.82-3.26,2.66-6.15,6.1-7.2.25-.07.52-.03.71.14.38.34.14.81-.06,1.19-.85,1.62-.97,3.55-.69,5.36.59,3.75,1.63,6.82,4.73,9.11.78.58,1.61.98,2.44,1.3Z"/>
            </g>
            <circle cx="234.97" cy="93" r="3.78"/>
            <circle cx="282.86" cy="93" r="3.78"/>
            <path class="st13" d="M229.41,30.37c.43,3.61,1.98,7.82,5.11,9.91,2.33,1.56,5.14,2.24,7.9,2.77"/>
            <path class="st13" d="M288.82,33.77c-4.54.83-7.22,7.87-6.11,11.87"/>
            <path class="st13" d="M270.6,26.77c-1.74,1.47-2.59,3.83-2.56,6.11s.85,4.49,2,6.46"/>
            <path class="st13" d="M211.23,51.07c4.99-.53,8.14-2.85,12.01-5.59,3.82-2.71,9.33-3.79,13.92-3.59"/>
            <path class="st13" d="M200.05,45.67c1.36,2.84,4.27,4.87,7.41,5.17"/>
            <path class="st13" d="M247.82,44.39c8.18,1.06,15.11,1.98,22.19,6.64"/>
            <line class="st4" x1="214.65" y1="84.54" x2="239.75" y2="84.83"/>
            <line class="st4" x1="261.6" y1="84.83" x2="286.7" y2="84.54"/>
            <path class="st24" d="M267.8,118.5c-.35.12-.68.2-.77.22-.73.09-1.59-.05-2.15-.56-1.35-1.23-1.93-3.25-3.23-4.57-.75-.76-1.58-1.42-2.48-1.98-1.87-1.37-4.18-2.01-6.5-2.01h-4.93c-2.32,0-4.62.65-6.5,2.01-.9.56-1.73,1.22-2.48,1.98-1.3,1.32-1.88,3.34-3.23,4.57-.56.5-1.42.65-2.15.56-.1-.01-.42-.09-.77-.22-.67-.23-1.36.31-1.28,1.02.22,1.99,1.61,4.02,3.07,5.09.14.1.28.19.44.28,1.33.75,3.25,1.07,4.68,1.22,2.1.23,9.46-3.44,11.03-3.44,1.34,0,8.24,3.66,10.33,3.44,1.43-.15,3.35-.47,4.68-1.22.16-.09.3-.18.44-.28,1.46-1.07,2.85-3.1,3.07-5.09.08-.71-.61-1.25-1.28-1.02Z"/>
            <path class="st17" d="M202.21,116.19c4.86,9.95,9.35,15.82,15.83,21.5,5.39,4.72,12.3,8.4,19.15,10.55,4.03,1.26,11.19,2.23,15.22.49,4.38-1.89,5.63-8.9.78-10.55-2.46-.84-9-.26-7.99,3.92"/>
          </g>
          <line class="st15" x1="4.99" y1="327.5" x2="495.42" y2="327.5"/>
          <g>
            <line class="st14" x1="123.59" y1="299.99" x2="27.29" y2="299.99"/>
            <line class="st14" x1="123.59" y1="312.91" x2="27.29" y2="312.91"/>
            <line class="st14" x1="123.59" y1="287.41" x2="27.29" y2="287.41"/>
            <line class="st14" x1="123.59" y1="274.84" x2="27.29" y2="274.84"/>
            <polygon class="st23" points="33.96 274.84 47.38 290.18 73.37 274.84 33.96 274.84"/>
          </g>
          <path class="st21" d="M355.95,245.65c0,27.36-22.18,49.55-49.55,49.55s-49.55-22.18-49.55-49.55h99.1Z"/>
          <path class="st21" d="M497.41,245.65c0,27.36-22.18,49.55-49.55,49.55s-49.55-22.18-49.55-49.55h99.1Z"/>
          <rect class="st27" x="363.58" y="289.53" width="26.52" height="36.79"/>
          <g>
            <line class="st18" x1="305.62" y1="295.2" x2="448.06" y2="295.2"/>
            <path class="st26" d="M306.11,305.04c-5.44,0-9.84-4.41-9.84-9.84s4.41-9.84,9.84-9.84,9.84,4.41,9.84,9.84-4.41,9.84-9.84,9.84Z"/>
            <path class="st26" d="M447.57,305.04c5.44,0,9.84-4.41,9.84-9.84s-4.41-9.84-9.84-9.84-9.84,4.41-9.84,9.84,4.41,9.84,9.84,9.84Z"/>
          </g>
          <g>
            <rect class="st20" x="267.92" y="189.83" width="76.97" height="44.51"/>
            <path class="st24" d="M305.04,224.66v-2.98c-1.94-.06-3.87-.61-4.98-1.35l.83-2.89c1.2.71,2.92,1.35,4.8,1.35s3.26-.95,3.26-2.43c0-1.38-1.08-2.27-3.35-3.11-3.23-1.17-5.32-2.64-5.32-5.5,0-2.64,1.85-4.67,4.95-5.23v-3.01h2.52v2.86c1.94.06,3.26.52,4.24,1.02l-.83,2.83c-.74-.34-2.09-1.05-4.18-1.05s-2.92,1.11-2.92,2.15c0,1.26,1.11,1.97,3.72,3.01,3.44,1.29,4.98,2.95,4.98,5.69s-1.81,4.92-5.2,5.47v3.17h-2.52Z"/>
            <circle class="st7" cx="306.4" cy="212.08" r="16.66"/>
          </g>
          <g>
            <polygon class="st11" points="495.45 155.19 403.06 155.49 403.06 233.86 495.45 233.86 495.45 155.19"/>
            <rect class="st8" x="403.06" y="148.13" width="92.39" height="9.92"/>
            <g>
              <g>
                <path class="st11" d="M438.49,188.22c0,5.95,4.82,10.77,10.77,10.77,5.95,0,10.77-4.82,10.77-10.77,0-4.01-4.9-12.88-8.09-18.21-1.21-2.02-4.14-2.02-5.34,0-3.19,5.34-8.09,14.2-8.09,18.21Z"/>
                <g>
                  <line class="st11" x1="449.25" y1="182.58" x2="449.25" y2="204.52"/>
                  <path class="st26" d="M446.57,182.72c0-1.48,1.2-2.69,2.69-2.69s2.69,1.2,2.69,2.69-1.2,2.69-2.69,2.69-2.69-1.2-2.69-2.69Z"/>
                </g>
              </g>
              <g>
                <polyline class="st11" points="430.72 182.43 420.48 189.98 430.72 197.53"/>
                <polyline class="st11" points="467.79 182.43 478.03 189.98 467.79 197.53"/>
              </g>
              <g>
                <line class="st11" x1="465.52" y1="217.42" x2="477.71" y2="217.42"/>
                <line class="st11" x1="437.35" y1="217.42" x2="459.68" y2="217.42"/>
                <line class="st11" x1="420.8" y1="217.42" x2="430.7" y2="217.42"/>
              </g>
            </g>
          </g>
        </g>
      </g>
    </g>
  </g>
</svg>