<svg xmlns="http://www.w3.org/2000/svg" id="Layer_1" viewBox="0 0 500 500"><defs><style>.st1,.st3{stroke-width:3px;fill:none;stroke:#006d68;stroke-linecap:round;stroke-linejoin:round}.st3{stroke-width:2px}.st9{fill:#fff}.st11{fill:#006d68}.st12{fill:#a9c753}.st13{fill:#003834}</style></defs><path d="M331.85 14.81C310.04 6.63 287.28-.22 263.98-.12c-31.39.14-61.23 12.81-89.79 25.85-52.58 24-94.04 61.6-137.14 99.8C2.16 156.44-3.57 220.55-2.52 264.1c.13 5.25.26 10.54.5 15.81.73 16.24 2.47 32.43 8.17 47.57 9.13 24.27 30.3 44.77 46.28 64.74 17.31 21.63 34.27 39.67 57.56 55.11 26.38 17.48 64.1 47.51 96.64 50.26 40.96 3.47 72.32 5.14 111.69-7.14 41.93-13.07 87.89-32.15 118.07-65.58 15.82-17.53 26.15-42.55 37.93-62.93 22.98-39.76 32.5-82.65 26.59-128.36-6.19-47.85-24.98-84.52-44.81-127.28-25.46-54.92-70.2-71.24-124.25-91.5Z" style="fill:#ebf2d4"/><path d="M229.89 66.64c37.01-41.45 90.23-44.34 138.13-23.67 7.49 3.23 14.66 9.3 20.69 14.68 14.23 12.7 25.12 28.96 31.36 46.99 2.94 8.49 4.86 16.51 4.08 25.41-.7 8.08.99 14.61 1.51 22.73.45 7.12-2.39 15.68-4.49 22.4-4.76 15.24-12.83 29.37-23.46 41.29-9.34 10.46-20.43 18.73-32.77 25.31-9.6 5.12-21.19 5.85-31.37 9.13-10.67 3.44-21.21 3.6-32.48 2.24-22.87-2.75-44.98-12.32-62.2-27.69-20.41-18.22-33.63-43.64-36.81-70.82-1.57-13.43-.71-27.13 2.54-40.25 2.27-9.16 7.09-16.94 11.9-24.93 4.75-7.88 7.2-15.91 13.37-22.82" class="st3"/><path d="M392.04 222.12c-5.23 1.23-12.34-.69-16.82-3.4-2.33-1.41-4.69-2.84-6.63-4.75-4.5-4.41-6.36-11.13-5.5-17.37 1.83-13.37 15.36-22.19 25.04-30.09 19.55-15.95 33.01-39.13 31.07-64.96" class="st3"/><path d="M362.2 242.27c-11.61-2.48-22.36-10.08-27.93-20.65-5.47-10.38-3.19-23.59 1.68-33.84 8.92-18.77 25.55-30.14 39.44-44.94 10.89-11.6 17.16-23.98 21.16-39.25 2.83-10.8 5.63-25 2.47-35.96m-94.17-36.94c31.37-4.85 65.36 19.14 55.27 55.43-4.79 17.24-17.86 30.4-32.9 39.43-13.68 8.21-33.99 6.4-49.71 11.14-8.75 2.64-15.82 10.83-23.3 16.09-3.13 2.2-6.29 4.42-9.81 5.91-8.54 3.62-18.95 2.45-26.47-2.98-13.68-9.89-15.91-26.74-12.65-43.63" class="st3"/><path d="M335.12 83.12c1.81-7.9-.35-16.98-6.64-22.09-3.13-2.54-7.02-3.96-10.94-4.9-23.33-5.62-48.64 5.26-64.27 23.47-5.5 6.41-10.06 13.84-11.85 22.09-1.78 8.25-.5 17.41 4.66 24.09 7.99 10.33 15.66 4.39 23.32-2.07 6.93-5.85 11.61-7.66 20.41-8.43 18.77-1.64 40.63-11.8 45.3-32.17Z" class="st3"/><path d="M296.78 94.99c2.84-1.36 5.7-2.91 7.61-5.41s2.6-6.18.85-8.79c-2.05-3.06-6.35-3.46-10.02-3.23-7.55.46-15.01 2.26-21.94 5.3-3.67 1.61-7.49 3.9-8.79 7.7-6.86 19.96 27.27 6.82 32.29 4.43m-87.85 87.32c15.34 18.3 44.36 9.25 58.9-4.65 7.73-7.39 12.25-16.61 22.76-20.97 8.44-3.5 17.94-2.93 26.94-4.52 40.66-7.16 73.92-63.12 60.58-102.84" class="st3"/><path d="M332.24 251.57c-8.44-1.08-15.28-6.89-18.75-14.66-3.06-6.85-4.54-14.32-4.58-21.81-.03-6.95-.51-13.44-4.37-19.5-6.29-9.89-21.52-3.47-27.82 3.25-4.07 4.35-8.14 8.75-12.74 12.56-9.42 7.82-20.48 11.6-32.45 7.49" class="st1"/><path d="M306.74 253.41c-5.87.54-11.66-5.63-14.03-10.4-3.24-6.52 1.56-11.46 1.04-18.09-.24-3.06-2.06-5.96-4.72-7.5s-6.08-1.67-8.85-.35c-2.75 1.31-4.69 3.84-6.47 6.32-2.22 3.09-4.39 6.28-7.32 8.71-3.59 2.98-9.57 4.94-14.12 2.98" class="st1"/><circle cx="238.07" cy="160.78" r="9.79" class="st12"/><circle cx="391.13" cy="167.34" r="9.79" class="st12"/><circle cx="252.27" cy="80.93" r="6.64" class="st12"/><circle cx="361.94" cy="67.64" r="9.79" class="st12"/><circle cx="292.78" cy="205.05" r="6.64" class="st12"/><path d="M335.94 198.04a74 74 0 0 0-26 4.7c-9.01-30.77-37.43-53.26-71.12-53.26s-62.11 22.48-71.12 53.26a74 74 0 0 0-26-4.7c-40.93 0-74.11 33.18-74.11 74.11s33.18 74.11 74.11 74.11h194.22c40.93 0 74.11-33.18 74.11-74.11s-33.18-74.11-74.11-74.11Z" style="fill:#f4f7e8"/><path d="M337.52 198.04a74 74 0 0 0-26 4.7c-9.01-30.77-37.43-53.26-71.12-53.26s-62.11 22.48-71.12 53.26a74 74 0 0 0-26-4.7c-40.93 0-74.11 33.18-74.11 74.11s33.18 74.11 74.11 74.11H337.5c40.93 0 74.11-33.18 74.11-74.11s-33.18-74.11-74.11-74.11Z" style="fill:none;stroke:#adcb53;stroke-miterlimit:10;stroke-width:3.56px"/><path d="M94.08 292.62c10.44 20.99 27.78 35.25 52.08 35.13m12.92.01h54.77" style="fill:none;stroke-linecap:round;stroke-linejoin:round;stroke:#fff;stroke-width:5.89px"/><path d="m259.658 381.77 14.778-14.779 14.779 14.779-14.779 14.778z" class="st13"/><path d="m274.44 371.37 10.39 10.39-10.39 10.39-10.39-10.39zm0-8.79-19.17 19.17 19.17 19.17 19.17-19.17z" style="fill:#aecc53"/><path d="M444.78 220.15c5.56 0 10.08 4.52 10.08 10.08s-4.52 10.08-10.08 10.08-10.08-4.52-10.08-10.08 4.52-10.08 10.08-10.08m0-7.57c-9.75 0-17.65 7.9-17.65 17.65s7.9 17.65 17.65 17.65 17.65-7.9 17.65-17.65-7.9-17.65-17.65-17.65" class="st13"/><path d="M165.37 171.29v-13.06l-11.31-6.53-11.3 6.53v13.06l11.3 6.53zm-7.85 124.43v3.92c0 3.7 3 6.69 6.69 6.69h52.37c3.7 0 6.69 3 6.69 6.69v105.27c0 3.7-3 6.69-6.69 6.69H87.83c-3.7 0-6.69-3-6.69-6.69V295.72c0-3.7 3-6.69 6.69-6.69h63c3.7 0 6.69 3 6.69 6.69" style="fill:#bed675"/><path d="M136.1 318.21v3.92c0 3.7 3 6.69 6.69 6.69h52.37c3.7 0 6.69 3 6.69 6.69v105.27c0 3.7-3 6.69-6.69 6.69H66.41c-3.7 0-6.69-3-6.69-6.69V318.21c0-3.7 3-6.69 6.69-6.69h63c3.7 0 6.69 3 6.69 6.69" class="st9"/><path d="M113.96 340.66v3.92c0 3.7 3 6.69 6.69 6.69h52.37c3.7 0 6.69 3 6.69 6.69v105.27c0 3.7-3 6.69-6.69 6.69H44.27c-3.7 0-6.69-3-6.69-6.69V340.66c0-3.7 3-6.69 6.69-6.69h63c3.7 0 6.69 3 6.69 6.69" class="st13"/><path d="M81.39 410.72v-.06c.03-15.03 12.22-27.2 27.25-27.2s27.25 12.2 27.25 27.25h16.66v.05-.05c0-24.25-19.66-43.91-43.91-43.91s-43.84 19.59-43.91 43.78v.14z" class="st11"/><path d="M152.56 410.72H135.9s-.02 1.31-.07 1.96c-1 14.14-12.79 25.3-27.19 25.3s-26.28-11.25-27.2-25.47c-.04-.59-.06-1.79-.06-1.79H64.72s.01 1.19.04 1.78c.93 23.43 20.22 42.14 43.88 42.14s42.74-18.51 43.86-41.77c.04-.71.05-2.15.05-2.15" class="st9"/><path d="M140.72 417.12c0-8.07-6.01-14.61-13.42-14.61-.71 0-1.41.08-2.09.19-2.3-7.58-8.84-13.06-16.57-13.06s-14.27 5.48-16.57 13.06c-.68-.12-1.38-.19-2.09-.19-7.41 0-13.42 6.54-13.42 14.61 0 5.66 2.96 10.56 7.28 12.99.5.32 1.28.61 2.12.85 1.95.56 3.96.8 5.98.81 6.85.03 26.53.03 33.38 0 2.02 0 4.03-.25 5.98-.81.85-.24 1.62-.53 2.12-.85 4.32-2.43 7.29-7.33 7.29-12.99Z" style="fill:#aac853"/><path d="M108.65 426.41c-7.69 0-13.95-6.26-13.95-13.94s6.26-13.94 13.95-13.94 13.94 6.26 13.94 13.94c0 1.92-.38 3.78-1.14 5.53-.19.45-.71.65-1.15.46a.873.873 0 0 1-.46-1.15c.66-1.53 1-3.16 1-4.84 0-6.72-5.47-12.19-12.19-12.19s-12.19 5.47-12.19 12.19 5.47 12.19 12.19 12.19c.48 0 .88.39.88.88s-.39.88-.88.88Z" class="st9"/><path d="m118.11 414.8-.32 7 6.22-3.22z" class="st9"/><path d="m103.46 417.19 5.19-4.73m0 0v-8.75" style="fill:none;stroke-linecap:round;stroke-linejoin:round;stroke:#3c3c3c;stroke-width:1.74px"/><path d="M341.6 313.14h97.47v16.76H341.6zm0-30.18h97.47v16.76H341.6zm0 60.36h97.47v16.76H341.6z" class="st11"/></svg>