<?xml version="1.0" encoding="UTF-8"?>
<svg id="Layer_1" xmlns="http://www.w3.org/2000/svg" xmlns:xlink="http://www.w3.org/1999/xlink" version="1.1" viewBox="0 0 50 50">
  <!-- Generator: Adobe Illustrator 30.3.0, SVG Export Plug-In . SVG Version: 2.1.3 Build 182)  -->
  <defs>
    <style>
      .st0 {
        fill: url(#linear-gradient1);
      }

      .st1 {
        fill: url(#linear-gradient);
      }
    </style>
    <linearGradient id="linear-gradient" x1="20.61" y1="39.91" x2="20.61" y2="0" gradientUnits="userSpaceOnUse">
      <stop offset="0" stop-color="#003834"/>
      <stop offset="1" stop-color="#006d68"/>
    </linearGradient>
    <linearGradient id="linear-gradient1" x1="29.39" y1="50" x2="29.39" y2="10.09" gradientUnits="userSpaceOnUse">
      <stop offset="0" stop-color="#338a86"/>
      <stop offset=".3" stop-color="#6aa88c"/>
      <stop offset=".62" stop-color="#a0c692"/>
      <stop offset=".87" stop-color="#c1d996"/>
      <stop offset="1" stop-color="#cee098"/>
    </linearGradient>
  </defs>
  <path class="st1" d="M19.05,1.96v1.15c0,1.09-.88,1.96-1.96,1.96H1.71c-1.09,0-1.96.88-1.96,1.96v30.9c0,1.09.88,1.96,1.96,1.96h37.8c1.09,0,1.96-.88,1.96-1.96V1.96c0-1.09-.88-1.96-1.96-1.96h-18.49c-1.09,0-1.96.88-1.96,1.96Z"/>
  <path class="st0" d="M27.83,12.05v1.15c0,1.09-.88,1.96-1.96,1.96h-15.37c-1.09,0-1.96.88-1.96,1.96v30.9c0,1.09.88,1.96,1.96,1.96h37.8c1.09,0,1.96-.88,1.96-1.96V12.05c0-1.09-.88-1.96-1.96-1.96h-18.49c-1.09,0-1.96.88-1.96,1.96Z"/>
</svg>