<?xml version="1.0" encoding="UTF-8"?>
<svg id="Layer_1" xmlns="http://www.w3.org/2000/svg" xmlns:xlink="http://www.w3.org/1999/xlink" version="1.1" viewBox="0 0 50 50">
  <!-- Generator: Adobe Illustrator 30.3.0, SVG Export Plug-In . SVG Version: 2.1.3 Build 182)  -->
  <defs>
    <style>
      .st0 {
        fill: url(#linear-gradient);
      }

      .st1 {
        fill: #acca53;
      }

      .st2 {
        fill: #006d68;
      }
    </style>
    <linearGradient id="linear-gradient" x1="25" y1="48.31" x2="25" y2="1.69" gradientUnits="userSpaceOnUse">
      <stop offset="0" stop-color="#000"/>
      <stop offset=".32" stop-color="#002e2c"/>
      <stop offset=".61" stop-color="#00504d"/>
      <stop offset=".84" stop-color="#006560"/>
      <stop offset="1" stop-color="#006d68"/>
    </linearGradient>
  </defs>
  <g>
    <path class="st2" d="M31.73,18.31c3.6,3.6,3.6,9.43,0,13.03-3.6,3.6-9.43,3.6-13.03,0l13.03-13.03Z"/>
    <path class="st1" d="M18.71,18.31c-3.6,3.6-3.6,9.43,0,13.03l6.51-6.51-6.51-6.51Z"/>
  </g>
  <path class="st0" d="M35.49,30.27c-1.91,3.68-5.76,6.2-10.18,6.2-6.33,0-11.48-5.15-11.48-11.48s5.15-11.48,11.48-11.48c4.43,0,8.27,2.52,10.18,6.2h12.52C45.61,9.4,36.36,1.69,25.31,1.69,12.43,1.69,2,12.13,2,25s10.43,23.31,23.31,23.31c11.06,0,20.31-7.7,22.7-18.03h-12.52Z"/>
  <path class="st1" d="M25.31,48.46c-12.94,0-23.46-10.53-23.46-23.46S12.37,1.54,25.31,1.54c5.33,0,10.55,1.84,14.7,5.18,4.08,3.29,6.98,7.9,8.15,12.98l-.31.07c-1.16-5.01-4.02-9.56-8.05-12.8-4.09-3.29-9.24-5.11-14.5-5.11C12.54,1.85,2.16,12.24,2.16,25s10.38,23.15,23.15,23.15c5.26,0,10.41-1.81,14.5-5.11,4.03-3.24,6.89-7.79,8.05-12.8l.31.07c-1.18,5.08-4.07,9.69-8.15,12.98-4.15,3.34-9.37,5.18-14.7,5.18Z"/>
</svg>