<?xml version="1.0" encoding="UTF-8"?>
<svg id="Layer_1" xmlns="http://www.w3.org/2000/svg" version="1.1" viewBox="0 0 50 50">
  <!-- Generator: Adobe Illustrator 30.3.0, SVG Export Plug-In . SVG Version: 2.1.3 Build 182)  -->
  <defs>
    <style>
      .st0 {
        fill: #acca53;
      }

      .st1 {
        fill: #fff;
      }

      .st2 {
        fill: #006d68;
      }

      .st3 {
        fill: #003834;
      }
    </style>
  </defs>
  <g>
    <path class="st3" d="M50,25h-9.48s-.01.75-.04,1.12c-.57,8.05-7.28,14.4-15.48,14.4s-14.96-6.4-15.48-14.5c-.02-.34-.03-1.02-.03-1.02H0s0,.68.02,1.01c.53,13.34,11.51,23.99,24.98,23.99,13.4,0,24.33-10.54,24.97-23.78.02-.41.03-1.22.03-1.22Z"/>
    <path class="st2" d="M0,25h9.48s0,.23,0,0c0-8.57,6.95-15.52,15.52-15.52s15.52,6.95,15.52,15.52c0,.19,0,0,0,0h9.48C50,11.19,38.81,0,25,0S0,11.19,0,25H0S0,25,0,25Z"/>
  </g>
  <g>
    <circle class="st0" cx="25" cy="25" r="11.76"/>
    <g>
      <polygon class="st1" points="26.2 25 25 36.76 23.8 25 26.2 25 26.2 25"/>
      <polygon class="st3" points="23.8 25 25 13.24 26.2 25 23.8 25 23.8 25"/>
    </g>
  </g>
</svg>