<?xml version="1.0" encoding="UTF-8"?>
<svg id="Layer_1" xmlns="http://www.w3.org/2000/svg" xmlns:xlink="http://www.w3.org/1999/xlink" version="1.1" viewBox="0 0 500 341.06">
  <!-- Generator: Adobe Illustrator 30.3.0, SVG Export Plug-In . SVG Version: 2.1.3 Build 182)  -->
  <defs>
    <style>
      .st0 {
        fill: #cee098;
      }

      .st1 {
        fill: url(#linear-gradient2);
      }

      .st2 {
        fill: url(#linear-gradient1);
      }

      .st3 {
        fill: url(#linear-gradient9);
      }

      .st4 {
        fill: url(#linear-gradient3);
      }

      .st5 {
        fill: url(#linear-gradient6);
      }

      .st6 {
        fill: url(#linear-gradient8);
      }

      .st7 {
        fill: url(#linear-gradient7);
      }

      .st8 {
        fill: url(#linear-gradient5);
      }

      .st9 {
        fill: url(#linear-gradient4);
      }

      .st10 {
        fill: url(#linear-gradient18);
      }

      .st11 {
        fill: url(#linear-gradient13);
      }

      .st12 {
        fill: url(#linear-gradient12);
      }

      .st13 {
        fill: url(#linear-gradient15);
      }

      .st14 {
        fill: url(#linear-gradient16);
      }

      .st15 {
        fill: url(#linear-gradient11);
      }

      .st16 {
        fill: url(#linear-gradient10);
      }

      .st17 {
        fill: url(#linear-gradient17);
      }

      .st18 {
        fill: url(#linear-gradient14);
      }

      .st19 {
        fill: url(#linear-gradient19);
      }

      .st20 {
        fill: url(#linear-gradient23);
      }

      .st21 {
        fill: url(#linear-gradient22);
      }

      .st22 {
        fill: url(#linear-gradient24);
      }

      .st23 {
        fill: url(#linear-gradient21);
      }

      .st24 {
        fill: url(#linear-gradient20);
      }

      .st25 {
        fill: url(#linear-gradient);
      }

      .st26 {
        fill: #aac853;
      }

      .st27 {
        fill: #00544f;
      }

      .st28 {
        stroke-width: 1.67px;
      }

      .st28, .st29 {
        stroke: #fff;
      }

      .st28, .st29, .st30 {
        fill: none;
      }

      .st28, .st30 {
        stroke-linecap: round;
        stroke-linejoin: round;
      }

      .st29 {
        stroke-miterlimit: 10;
        stroke-width: 1.15px;
      }

      .st31 {
        fill: #fff;
      }

      .st32 {
        fill: #338a86;
      }

      .st33 {
        fill: #00524f;
      }

      .st30 {
        stroke: #00524f;
        stroke-width: 1.27px;
      }
    </style>
    <linearGradient id="linear-gradient" x1="34.47" y1="208.96" x2="500" y2="208.96" gradientUnits="userSpaceOnUse">
      <stop offset=".28" stop-color="#cee098"/>
      <stop offset=".37" stop-color="#c5db96"/>
      <stop offset=".51" stop-color="#accd94"/>
      <stop offset=".69" stop-color="#85b78f"/>
      <stop offset=".9" stop-color="#4e9989"/>
      <stop offset="1" stop-color="#338a86"/>
    </linearGradient>
    <linearGradient id="linear-gradient1" x1="34.47" y1="195.13" x2="500" y2="195.13" gradientUnits="userSpaceOnUse">
      <stop offset=".18" stop-color="#006d68"/>
      <stop offset=".37" stop-color="#137874"/>
      <stop offset=".74" stop-color="#479793"/>
      <stop offset="1" stop-color="#6fafac"/>
    </linearGradient>
    <linearGradient id="linear-gradient2" x1="364.31" y1="142.6" x2="477.62" y2="142.6" gradientUnits="userSpaceOnUse">
      <stop offset="0" stop-color="#6baca9"/>
      <stop offset="1" stop-color="#afd3d0"/>
    </linearGradient>
    <linearGradient id="linear-gradient3" x1="3995.56" y1="230.16" x2="3995.56" y2="44.1" gradientTransform="translate(4270.2) rotate(-180) scale(1 -1)" gradientUnits="userSpaceOnUse">
      <stop offset=".28" stop-color="#cee098"/>
      <stop offset=".37" stop-color="#c5db96"/>
      <stop offset=".51" stop-color="#accd94"/>
      <stop offset=".69" stop-color="#85b78f"/>
      <stop offset=".9" stop-color="#4e9989"/>
      <stop offset="1" stop-color="#338a86"/>
    </linearGradient>
    <linearGradient id="linear-gradient4" x1="4014.25" y1="290.55" x2="4014.25" y2="194.76" gradientTransform="translate(4270.2) rotate(-180) scale(1 -1)" gradientUnits="userSpaceOnUse">
      <stop offset="0" stop-color="#338a86"/>
      <stop offset=".1" stop-color="#4e9989"/>
      <stop offset=".31" stop-color="#85b78f"/>
      <stop offset=".49" stop-color="#accd94"/>
      <stop offset=".63" stop-color="#c5db96"/>
      <stop offset=".72" stop-color="#cee098"/>
    </linearGradient>
    <linearGradient id="linear-gradient5" x1="3988.55" y1="305.93" x2="3988.55" y2="209.09" xlink:href="#linear-gradient4"/>
    <linearGradient id="linear-gradient6" x1="3962.61" y1="321.01" x2="3962.61" y2="223.64" xlink:href="#linear-gradient4"/>
    <linearGradient id="linear-gradient7" x1="4039.77" y1="275.16" x2="4039.77" y2="180.62" xlink:href="#linear-gradient4"/>
    <linearGradient id="linear-gradient8" x1="4090.48" y1="245.49" x2="4090.48" y2="152.86" xlink:href="#linear-gradient4"/>
    <linearGradient id="linear-gradient9" x1="4065.16" y1="260.05" x2="4065.16" y2="166.66" xlink:href="#linear-gradient4"/>
    <linearGradient id="linear-gradient10" x1="4115.77" y1="231.79" x2="4115.77" y2="139.2" xlink:href="#linear-gradient4"/>
    <linearGradient id="linear-gradient11" x1="4038.13" y1="281.55" x2="4038.13" y2="182.41" xlink:href="#linear-gradient4"/>
    <linearGradient id="linear-gradient12" x1="4011.82" y1="296.93" x2="4011.82" y2="196.62" xlink:href="#linear-gradient4"/>
    <linearGradient id="linear-gradient13" x1="3985.49" y1="311.91" x2="3985.49" y2="211.24" xlink:href="#linear-gradient4"/>
    <linearGradient id="linear-gradient14" x1="4064.32" y1="266.07" x2="4064.32" y2="168.6" xlink:href="#linear-gradient4"/>
    <linearGradient id="linear-gradient15" x1="4115.93" y1="235.97" x2="4115.93" y2="142.12" xlink:href="#linear-gradient4"/>
    <linearGradient id="linear-gradient16" x1="4090.28" y1="250.78" x2="4090.28" y2="155.17" xlink:href="#linear-gradient4"/>
    <linearGradient id="linear-gradient17" x1="4141.15" y1="221.96" x2="4141.15" y2="129.42" xlink:href="#linear-gradient4"/>
    <linearGradient id="linear-gradient18" x1="4089.84" y1="298.17" x2="4089.84" y2="30.25" xlink:href="#linear-gradient4"/>
    <linearGradient id="linear-gradient19" x1="4037.46" y1="287.78" x2="4037.46" y2="181.8" xlink:href="#linear-gradient4"/>
    <linearGradient id="linear-gradient20" x1="4011.11" y1="303.27" x2="4011.11" y2="195.9" xlink:href="#linear-gradient4"/>
    <linearGradient id="linear-gradient21" x1="4142.3" y1="225.29" x2="4142.3" y2="132.73" xlink:href="#linear-gradient4"/>
    <linearGradient id="linear-gradient22" x1="4167.09" y1="211.06" x2="4167.09" y2="122.32" xlink:href="#linear-gradient4"/>
    <linearGradient id="linear-gradient23" x1="4465.88" y1="17.7" x2="4609.14" y2="17.7" gradientTransform="translate(4607.24 -31.04) rotate(178.84) scale(1 -1)" xlink:href="#linear-gradient1"/>
    <linearGradient id="linear-gradient24" x1="4455.47" y1="21.49" x2="4596.67" y2="21.49" gradientTransform="translate(4607.24 -31.04) rotate(178.84) scale(1 -1)" xlink:href="#linear-gradient2"/>
  </defs>
  <polygon class="st25" points="34.47 209.31 267.24 76.86 500 209.31 267.49 341.06 34.47 209.31"/>
  <polygon class="st2" points="34.47 195.48 267.24 63.03 500 195.48 267.49 327.22 34.47 195.48"/>
  <g>
    <polygon class="st1" points="477.62 193.2 477.62 59.58 421.8 90.98 364.31 59.58 364.31 193.2 421.83 225.62 477.62 193.2"/>
    <polygon class="st31" points="416.39 101.48 369.73 75.99 369.73 82.48 416.41 108.79 416.39 101.48"/>
    <polygon class="st31" points="416.39 121.8 369.73 96.31 369.73 102.79 416.41 129.11 416.39 121.8"/>
    <polygon class="st31" points="416.39 142.12 369.73 116.63 369.73 123.11 416.41 149.43 416.39 142.12"/>
    <polygon class="st31" points="416.39 162.43 369.73 136.95 369.73 143.43 416.41 169.74 416.39 162.43"/>
    <polygon class="st31" points="416.39 182.75 369.73 157.27 369.73 163.75 416.41 190.06 416.39 182.75"/>
    <polygon class="st32" points="364.31 59.75 420.96 27.51 477.62 59.75 421.83 91.01 364.31 59.75"/>
    <line class="st30" x1="421.83" y1="91.01" x2="421.83" y2="225.62"/>
  </g>
  <g>
    <g>
      <polygon class="st4" points="208.16 44.1 208.24 154.59 341.06 230.16 341.13 119.28 208.16 44.1"/>
      <polygon class="st33" points="208.16 44.1 208.24 27.71 341.06 103.29 341.13 119.28 208.16 44.1"/>
      <path class="st31" d="M333.21,107.92h0c-.29,0-.59-.08-.86-.24h0c-.79-.47-1.05-1.5-.57-2.29h0c.47-.79,1.5-1.05,2.29-.57h0c.79.47,1.05,1.5.57,2.29-.31.52-.86.81-1.43.81ZM327.48,104.49h0c-.29,0-.59-.08-.86-.24h0c-.79-.47-1.05-1.5-.57-2.29h0c.47-.79,1.5-1.05,2.29-.57h0c.79.47,1.05,1.5.57,2.29-.31.52-.86.81-1.43.81ZM321.75,101.05h0c-.29,0-.59-.08-.86-.24h0c-.79-.48-1.05-1.5-.57-2.29h0c.47-.79,1.5-1.05,2.29-.57h0c.79.47,1.05,1.5.57,2.29-.31.52-.86.81-1.43.81Z"/>
      <line class="st28" x1="328.66" y1="131.74" x2="215.14" y2="68.3"/>
      <line class="st28" x1="291.77" y1="124.35" x2="216.28" y2="82.16"/>
      <line class="st28" x1="328.66" y1="158.45" x2="215.14" y2="95.02"/>
      <line class="st28" x1="328.66" y1="171.81" x2="215.14" y2="108.37"/>
      <line class="st28" x1="243.57" y1="137.28" x2="215.63" y2="121.66"/>
      <line class="st28" x1="314.83" y1="177.1" x2="265.7" y2="149.64"/>
    </g>
    <g>
      <path class="st27" d="M242.68,227.17c4.3,2.43,6.46,3.65,10.77,6.09,1.87,1.05,4.79,1.11,6.5.14,3.96-2.26,5.88-3.37,9.61-5.58,1.61-.95,1.41-2.57-.42-3.61-4.23-2.42-6.34-3.62-10.55-6.03-1.82-1.04-4.6-1.12-6.26-.18-3.82,2.18-5.8,3.29-9.84,5.52-1.75.97-1.68,2.61.18,3.66Z"/>
      <path class="st27" d="M268.59,241.81c4.33,2.45,6.5,3.68,10.84,6.13,1.87,1.06,4.77,1.12,6.43.13,3.85-2.28,5.72-3.41,9.33-5.64,1.56-.97,1.3-2.6-.55-3.66-4.27-2.44-6.4-3.66-10.65-6.09-1.84-1.05-4.59-1.13-6.18-.17-3.69,2.22-5.6,3.34-9.51,5.6-1.69.98-1.58,2.64.29,3.7Z"/>
      <path class="st27" d="M294.64,256.54c4.35,2.46,6.53,3.68,10.9,6.14,1.89,1.06,4.77,1.11,6.4.12,3.78-2.29,5.62-3.42,9.16-5.66,1.53-.97,1.22-2.62-.65-3.68-4.33-2.46-6.49-3.68-10.8-6.13-1.86-1.06-4.59-1.13-6.14-.16-3.59,2.24-5.44,3.37-9.26,5.66-1.65.99-1.49,2.66.39,3.72Z"/>
      <path class="st27" d="M216.93,212.69c4.28,2.39,6.42,3.59,10.71,6,1.85,1.04,4.81,1.1,6.58.14,4.09-2.23,6.08-3.33,9.95-5.5,1.67-.94,1.53-2.53-.29-3.56-4.2-2.39-6.3-3.58-10.49-5.96-1.81-1.03-4.64-1.11-6.35-.19-3.96,2.15-6,3.24-10.17,5.45-1.8.96-1.79,2.57.06,3.61Z"/>
      <path class="st27" d="M165.85,184.61c4.23,2.28,6.35,3.42,10.59,5.73,1.83,1,4.85,1.03,6.7.07,4.3-2.21,6.41-3.3,10.5-5.44,1.77-.93,1.71-2.48-.11-3.48-4.2-2.32-6.3-3.48-10.51-5.78-1.82-1-4.71-1.06-6.5-.12-4.13,2.16-6.25,3.26-10.58,5.5-1.87.97-1.92,2.55-.09,3.53Z"/>
      <path class="st27" d="M191.32,198.48c4.26,2.34,6.39,3.52,10.65,5.89,1.84,1.02,4.84,1.07,6.65.12,4.21-2.21,6.27-3.3,10.27-5.44,1.73-.93,1.63-2.5-.18-3.51-4.19-2.36-6.29-3.53-10.48-5.88-1.81-1.01-4.68-1.09-6.44-.17-4.07,2.14-6.17,3.23-10.44,5.43-1.85.95-1.88,2.55-.04,3.56Z"/>
      <path class="st27" d="M140.53,171.18c4.21,2.2,6.31,3.3,10.53,5.54,1.82.97,4.84.96,6.71-.02,4.33-2.25,6.45-3.37,10.59-5.55,1.79-.94,1.73-2.49-.1-3.48-4.23-2.28-6.35-3.42-10.59-5.68-1.83-.98-4.74-1-6.51-.03-4.11,2.23-6.23,3.38-10.53,5.69-1.86,1-1.91,2.58-.09,3.53Z"/>
      <path class="st27" d="M217.8,240.63c4.4,2.47,6.61,3.71,11.02,6.19,1.91,1.07,5,1.1,6.89.06,4.37-2.39,6.52-3.57,10.73-5.91,1.82-1.01,1.75-2.68-.13-3.74-4.35-2.45-6.52-3.67-10.86-6.11-1.87-1.05-4.87-1.11-6.73-.11-4.28,2.31-6.47,3.47-10.89,5.83-1.91,1.02-1.93,2.71-.03,3.78Z"/>
      <path class="st27" d="M244.26,255.52c4.41,2.49,6.62,3.73,11.02,6.21,1.9,1.07,4.98,1.08,6.84.02,4.31-2.44,6.42-3.64,10.55-6.01,1.78-1.02,1.67-2.7-.21-3.77-4.36-2.46-6.54-3.69-10.9-6.15-1.88-1.06-4.85-1.11-6.66-.1-4.18,2.34-6.32,3.53-10.66,5.94-1.88,1.04-1.88,2.77.03,3.84Z"/>
      <path class="st27" d="M270.68,270.41c4.39,2.47,6.58,3.71,10.96,6.17,1.89,1.06,4.95,1.04,6.81-.03,4.3-2.47,6.39-3.68,10.48-6.06,1.76-1.03,1.64-2.71-.25-3.77-4.37-2.45-6.56-3.68-10.93-6.14-1.89-1.06-4.83-1.1-6.61-.08-4.1,2.37-6.21,3.57-10.51,6.03-1.86,1.06-1.85,2.8.05,3.87Z"/>
      <path class="st27" d="M191.46,225.93c4.37,2.42,6.56,3.64,10.95,6.09,1.9,1.06,5.01,1.09,6.93.08,4.45-2.34,6.65-3.5,10.97-5.79,1.87-.99,1.84-2.64-.03-3.68-4.32-2.42-6.48-3.62-10.8-6.02-1.86-1.04-4.89-1.08-6.79-.1-4.39,2.27-6.62,3.42-11.12,5.73-1.94,1-2,2.65-.11,3.7Z"/>
      <path class="st27" d="M139.74,197.8c4.23,2.24,6.35,3.38,10.62,5.67,1.84.99,4.95,1,6.92.02,4.56-2.27,6.83-3.41,11.32-5.68,1.94-.98,2-2.58.16-3.57-4.25-2.3-6.38-3.44-10.61-5.71-1.83-.98-4.88-.97-6.82.02-4.49,2.28-6.77,3.43-11.33,5.71-1.97.98-2.09,2.56-.26,3.53Z"/>
      <path class="st27" d="M165.39,211.6c4.31,2.35,6.48,3.53,10.82,5.92,1.88,1.03,4.99,1.06,6.95.07,4.52-2.29,6.77-3.44,11.18-5.7,1.91-.98,1.93-2.6.08-3.62-4.29-2.37-6.44-3.55-10.72-5.89-1.85-1.01-4.9-1.04-6.83-.06-4.47,2.26-6.73,3.4-11.29,5.67-1.97.98-2.06,2.6-.2,3.61Z"/>
      <path class="st27" d="M114.68,184.71c4.12,2.11,6.19,3.18,10.36,5.35,1.8.94,4.86.91,6.82-.08,4.54-2.29,6.81-3.44,11.3-5.74,1.94-.99,2.02-2.58.21-3.53-4.21-2.21-6.31-3.31-10.49-5.47-1.81-.94-4.82-.87-6.74.15-4.45,2.35-6.69,3.53-11.17,5.87-1.94,1.01-2.07,2.55-.29,3.46Z"/>
      <path class="st27" d="M139.6,225.18c24.61,13.84,37.44,21.29,62.79,36.06,1.91,1.12,5.1,1.11,7.1,0,4.63-2.56,6.93-3.82,11.47-6.3,1.96-1.07,1.99-2.81.07-3.89-25.33-14.32-38.06-21.5-62.79-35.03-1.87-1.02-4.98-1.05-6.97-.07-4.59,2.26-6.89,3.39-11.46,5.61-1.97.96-2.07,2.57-.21,3.62Z"/>
      <path class="st27" d="M217.88,270.29c4.42,2.58,6.62,3.87,11.02,6.45,1.9,1.11,5.09,1.05,7.1-.11,4.67-2.69,6.97-4.01,11.5-6.58,1.96-1.11,1.98-2.88.07-3.96-4.41-2.5-6.62-3.76-11.04-6.26-1.91-1.08-5.03-1.09-6.99,0-4.53,2.52-6.83,3.79-11.47,6.4-2.01,1.12-2.09,2.95-.19,4.07Z"/>
      <path class="st27" d="M244.22,285.71c4.35,2.55,6.52,3.82,10.83,6.35,1.86,1.09,5.05.97,7.11-.24,4.75-2.81,7.08-4.16,11.64-6.81,1.97-1.14,2.02-2.92.13-3.98-4.37-2.47-6.56-3.71-10.95-6.2-1.9-1.07-5.01-1.05-6.96.07-4.53,2.6-6.84,3.93-11.53,6.66-2.03,1.18-2.16,3.05-.27,4.15Z"/>
      <path class="st27" d="M113.4,210.62c4.15,2.27,6.25,3.43,10.47,5.76,1.82,1.01,4.89,1.08,6.85.13,4.54-2.19,6.83-3.3,11.42-5.55,1.98-.97,2.09-2.57.25-3.56-4.26-2.3-6.38-3.43-10.6-5.68-1.82-.97-4.89-.96-6.86,0-4.55,2.22-6.81,3.32-11.29,5.46-1.93.92-2.04,2.45-.24,3.43Z"/>
      <path class="st27" d="M89.03,197.52c3.96,2.09,5.96,3.15,10.01,5.32,1.75.94,4.71.98,6.62.06,4.43-2.13,6.68-3.22,11.19-5.44,1.95-.96,2.08-2.51.29-3.45-4.14-2.16-6.2-3.23-10.28-5.32-1.76-.91-4.75-.84-6.66.13-4.42,2.24-6.62,3.33-10.92,5.44-1.86.91-1.97,2.35-.26,3.26Z"/>
    </g>
    <g>
      <path class="st9" d="M242.68,220.49c4.3,2.43,6.46,3.65,10.77,6.09,1.86,1.05,4.79,1.11,6.5.14,3.96-2.26,5.88-3.37,9.62-5.58,1.61-.95,1.41-2.57-.42-3.61-4.23-2.42-6.34-3.62-10.55-6.03-1.82-1.04-4.61-1.12-6.26-.18-3.82,2.18-5.8,3.29-9.84,5.52-1.75.97-1.68,2.61.18,3.66Z"/>
      <path class="st8" d="M268.59,235.13c4.33,2.45,6.5,3.68,10.83,6.13,1.88,1.06,4.77,1.11,6.43.13,3.85-2.28,5.72-3.41,9.33-5.64,1.56-.97,1.3-2.6-.55-3.66-4.27-2.44-6.4-3.66-10.65-6.08-1.84-1.05-4.59-1.13-6.18-.17-3.69,2.22-5.6,3.34-9.51,5.6-1.69.98-1.58,2.64.29,3.7Z"/>
      <path class="st5" d="M294.64,249.86c4.35,2.46,6.53,3.68,10.9,6.14,1.89,1.06,4.77,1.11,6.4.12,3.78-2.29,5.62-3.41,9.16-5.66,1.53-.97,1.22-2.62-.65-3.68-4.33-2.45-6.49-3.68-10.8-6.13-1.86-1.06-4.59-1.13-6.14-.16-3.58,2.24-5.44,3.37-9.26,5.66-1.65.99-1.49,2.66.39,3.72Z"/>
      <path class="st7" d="M216.93,206.02c4.28,2.39,6.42,3.59,10.71,6,1.85,1.04,4.81,1.1,6.58.14,4.09-2.23,6.08-3.33,9.95-5.5,1.67-.94,1.53-2.53-.29-3.56-4.2-2.39-6.3-3.58-10.49-5.96-1.81-1.03-4.64-1.11-6.35-.19-3.96,2.15-6,3.24-10.17,5.45-1.8.96-1.79,2.57.06,3.61Z"/>
      <path class="st6" d="M165.85,177.93c4.23,2.28,6.35,3.42,10.59,5.73,1.83,1,4.85,1.03,6.7.07,4.3-2.21,6.41-3.3,10.5-5.44,1.77-.92,1.71-2.48-.11-3.48-4.2-2.32-6.3-3.48-10.51-5.79-1.82-1-4.71-1.06-6.5-.12-4.13,2.16-6.25,3.27-10.58,5.5-1.87.97-1.92,2.55-.09,3.53Z"/>
      <path class="st3" d="M191.32,191.8c4.26,2.34,6.39,3.52,10.65,5.89,1.84,1.02,4.84,1.07,6.65.12,4.21-2.21,6.27-3.3,10.27-5.44,1.73-.93,1.63-2.5-.18-3.51-4.19-2.36-6.29-3.53-10.48-5.88-1.81-1.01-4.68-1.09-6.44-.17-4.07,2.14-6.17,3.23-10.44,5.43-1.85.95-1.88,2.55-.04,3.56Z"/>
      <path class="st16" d="M140.53,164.5c4.21,2.2,6.31,3.31,10.53,5.54,1.82.96,4.84.95,6.71-.02,4.33-2.25,6.45-3.37,10.59-5.55,1.79-.94,1.73-2.49-.1-3.48-4.23-2.28-6.35-3.42-10.59-5.68-1.83-.98-4.74-1-6.51-.04-4.11,2.23-6.23,3.38-10.53,5.69-1.86,1-1.91,2.58-.09,3.53Z"/>
      <path class="st15" d="M217.8,233.95c4.4,2.47,6.61,3.71,11.02,6.19,1.91,1.07,5,1.1,6.89.06,4.37-2.39,6.52-3.57,10.73-5.91,1.82-1.01,1.75-2.68-.13-3.73-4.35-2.45-6.52-3.67-10.86-6.11-1.88-1.05-4.88-1.1-6.73-.11-4.28,2.31-6.47,3.47-10.89,5.83-1.91,1.02-1.93,2.71-.03,3.78Z"/>
      <path class="st12" d="M244.26,248.84c4.41,2.49,6.61,3.73,11.02,6.21,1.9,1.07,4.98,1.08,6.84.02,4.31-2.44,6.42-3.64,10.55-6.01,1.78-1.02,1.67-2.7-.21-3.77-4.36-2.46-6.55-3.69-10.9-6.15-1.88-1.06-4.85-1.11-6.66-.1-4.18,2.34-6.32,3.53-10.66,5.94-1.88,1.04-1.88,2.77.03,3.84Z"/>
      <path class="st11" d="M270.68,263.74c4.39,2.47,6.58,3.71,10.96,6.17,1.89,1.06,4.95,1.04,6.81-.03,4.3-2.47,6.39-3.68,10.48-6.06,1.76-1.03,1.64-2.71-.25-3.77-4.37-2.45-6.56-3.68-10.93-6.14-1.89-1.06-4.83-1.1-6.61-.08-4.1,2.37-6.21,3.57-10.51,6.03-1.86,1.06-1.85,2.8.05,3.87Z"/>
      <path class="st18" d="M191.46,219.26c4.37,2.42,6.56,3.64,10.95,6.09,1.9,1.06,5.01,1.09,6.93.08,4.45-2.34,6.65-3.5,10.97-5.79,1.87-.99,1.84-2.64-.03-3.68-4.32-2.42-6.48-3.62-10.8-6.02-1.86-1.04-4.89-1.08-6.79-.1-4.39,2.27-6.62,3.42-11.12,5.73-1.95,1-2,2.65-.12,3.7Z"/>
      <path class="st13" d="M139.74,191.12c4.23,2.24,6.36,3.38,10.62,5.67,1.84.99,4.95,1,6.92.02,4.56-2.27,6.83-3.41,11.32-5.67,1.94-.98,2-2.58.16-3.57-4.25-2.3-6.38-3.44-10.61-5.71-1.83-.98-4.88-.97-6.82.02-4.5,2.28-6.77,3.43-11.33,5.71-1.97.99-2.09,2.56-.26,3.53Z"/>
      <path class="st14" d="M165.39,204.92c4.31,2.35,6.48,3.53,10.82,5.92,1.88,1.03,4.99,1.06,6.95.07,4.52-2.29,6.77-3.44,11.18-5.7,1.91-.98,1.93-2.6.08-3.63-4.29-2.37-6.44-3.55-10.72-5.89-1.85-1.01-4.9-1.04-6.83-.06-4.47,2.26-6.73,3.4-11.29,5.67-1.97.98-2.06,2.6-.2,3.61Z"/>
      <path class="st17" d="M114.68,178.04c4.12,2.11,6.19,3.18,10.36,5.35,1.8.94,4.86.91,6.82-.08,4.54-2.29,6.81-3.45,11.3-5.75,1.94-.99,2.03-2.58.21-3.53-4.21-2.21-6.31-3.31-10.49-5.48-1.81-.94-4.82-.87-6.74.15-4.45,2.35-6.69,3.53-11.17,5.87-1.94,1.01-2.07,2.55-.29,3.46Z"/>
      <path class="st10" d="M139.6,218.5c21.01,11.89,41.92,23.93,62.79,36.06,1.91,1.12,5.1,1.11,7.1,0,4.63-2.56,6.93-3.82,11.47-6.3,1.96-1.07,1.99-2.81.07-3.89-20.88-11.78-41.79-23.48-62.79-35.03-1.87-1.02-4.99-1.05-6.97-.07-4.59,2.26-6.89,3.39-11.46,5.61-1.97.96-2.07,2.57-.21,3.62Z"/>
      <path class="st19" d="M217.88,263.61c4.42,2.58,6.62,3.87,11.02,6.45,1.9,1.11,5.09,1.06,7.1-.11,4.67-2.69,6.97-4.01,11.5-6.58,1.96-1.11,1.98-2.88.07-3.96-4.41-2.5-6.62-3.76-11.04-6.26-1.91-1.08-5.03-1.09-6.99,0-4.53,2.52-6.83,3.79-11.47,6.4-2.01,1.13-2.09,2.95-.19,4.07Z"/>
      <path class="st24" d="M244.22,279.04c4.35,2.55,6.52,3.82,10.83,6.35,1.86,1.09,5.05.97,7.11-.24,4.75-2.81,7.08-4.16,11.64-6.81,1.97-1.14,2.02-2.92.13-3.98-4.37-2.47-6.56-3.71-10.95-6.2-1.9-1.08-5-1.05-6.96.07-4.53,2.6-6.84,3.93-11.53,6.66-2.03,1.18-2.16,3.05-.27,4.15Z"/>
      <path class="st23" d="M113.4,203.95c4.15,2.27,6.25,3.43,10.47,5.76,1.82,1.01,4.89,1.08,6.85.13,4.54-2.19,6.83-3.3,11.42-5.55,1.98-.97,2.09-2.57.25-3.56-4.26-2.3-6.38-3.43-10.6-5.68-1.82-.97-4.89-.96-6.86,0-4.55,2.22-6.81,3.32-11.28,5.46-1.93.93-2.04,2.45-.24,3.43Z"/>
      <path class="st21" d="M89.03,190.85c3.96,2.09,5.96,3.15,10.01,5.32,1.75.94,4.71.98,6.62.06,4.43-2.13,6.67-3.22,11.19-5.44,1.95-.96,2.08-2.51.29-3.45-4.14-2.16-6.2-3.23-10.28-5.32-1.76-.91-4.75-.84-6.66.13-4.42,2.24-6.62,3.33-10.92,5.44-1.86.91-1.97,2.35-.26,3.26Z"/>
    </g>
  </g>
  <g>
    <g>
      <path class="st20" d="M2.74,89.06c5.12-22.51,17.45-36.8,32.21-35.31C39.24,21.46,55.68-.51,73.98,0c7.82.22,17.54,6.5,19.91,7.91,5.14,3.07-1.31,2.86,1.85,9.9,5.05-4.24,10.56-6.82,16.07-7.26.01,0,.03,0,.04,0,2.74-.5,5.59-.23,8.19.76,2.43.92,11.59,4.77,13.54,6.21,11.96,8.86,8.02,24.12,5.62,41.56-.32,2.65-.77,5.33-1.38,8.04-5.07,22.55-18.17,32.81-33.22,42.27-17.29,9.7-50.71,28.94-67.58,37.75-4.8,3.25-3.26,10.72-3.51,10.67-2.31-.03-13.59-6.88-17.18-9.08C-.57,138.38-2.88,107.13,2.74,89.06Z"/>
      <path class="st22" d="M15.36,96.08c5.12-22.51,17.45-36.8,32.21-35.31C51.86,28.48,69.98,4.26,88.14,6.62c8.56,1.11,15.6,7.93,20.23,18.22,5.05-4.24,10.56-6.82,16.07-7.26.01,0,.03,0,.04,0,2.74-.5,5.59-.23,8.19.76,17.38,6.58,21.95,27.49,19.16,47.77-.32,2.65-.77,5.33-1.38,8.04-5.07,22.55-18.17,32.81-33.22,42.27-17.29,9.7-50.71,28.94-67.58,37.75-4.8,3.25-11.42,4.49-11.67,4.44-2.31-.03-5.43-.65-9.02-2.85-16.91-10.34-19.21-41.59-13.59-59.66Z"/>
    </g>
    <path class="st31" d="M79.05,94.75c0-5.72,0-8.58,0-14.31,4.03-5.04,5.75-7.35,9.06-11.94,3.29,1.11,4.88,1.7,8.49,2.65,0,5.72,0,8.58,0,14.31-3.44,4.62-5.07,6.86-8.6,11.55-3.51-1-5.19-1.51-8.95-2.26Z"/>
    <path class="st29" d="M68.56,109.08c0-12.56,0-18.84,0-31.4,8.84-11.06,12.62-16.14,19.89-26.21,7.22,2.44,10.7,3.72,18.64,5.82,0,12.56,0,18.84,0,31.4-7.54,10.14-11.12,15.05-18.87,25.36-7.7-2.2-11.39-3.32-19.65-4.96Z"/>
  </g>
  <path class="st0" d="M266.77,38.6v-14.31c-4.03-5.04-5.75-7.35-9.06-11.94-3.29,1.11-4.88,1.7-8.49,2.65v14.31c3.44,4.62,5.07,6.86,8.6,11.55,3.51-1,5.19-1.51,8.95-2.26Z"/>
  <path class="st32" d="M312.88,63.96v-14.31c-4.03-5.04-5.75-7.35-9.06-11.94-3.29,1.11-4.88,1.7-8.49,2.65v14.31c3.44,4.62,5.07,6.86,8.6,11.55,3.51-1,5.19-1.51,8.95-2.26Z"/>
  <path class="st26" d="M289.83,51.28v-14.31c-4.03-5.04-5.75-7.35-9.06-11.94-3.29,1.11-4.88,1.7-8.49,2.65v14.31c3.44,4.62,5.07,6.86,8.6,11.55,3.51-1,5.19-1.51,8.95-2.26Z"/>
</svg>