<?xml version="1.0" encoding="UTF-8"?>
<svg id="Layer_1" xmlns="http://www.w3.org/2000/svg" xmlns:xlink="http://www.w3.org/1999/xlink" version="1.1" viewBox="0 0 50 50">
  <!-- Generator: Adobe Illustrator 30.3.0, SVG Export Plug-In . SVG Version: 2.1.3 Build 182)  -->
  <defs>
    <style>
      .st0 {
        fill: url(#linear-gradient);
      }

      .st1 {
        fill: #fff;
      }

      .st2 {
        fill: #00524f;
      }
    </style>
    <linearGradient id="linear-gradient" x1="1.18" y1="29.75" x2="41.67" y2="29.75" gradientUnits="userSpaceOnUse">
      <stop offset="0" stop-color="#006d68"/>
      <stop offset=".22" stop-color="#137874"/>
      <stop offset=".68" stop-color="#479793"/>
      <stop offset="1" stop-color="#6fafac"/>
    </linearGradient>
  </defs>
  <circle class="st2" cx="28.48" cy="20.34" r="20.34"/>
  <path class="st0" d="M21.42,9.5C10.24,9.5,1.18,18.57,1.18,29.75s9.07,20.25,20.25,20.25,20.25-9.07,20.25-20.25-9.07-20.25-20.25-20.25h0Z"/>
  <path class="st1" d="M20.1,45.75v-3.94c-2.26-.04-4.6-.74-5.96-1.71l.94-2.61c1.4.94,3.43,1.68,5.61,1.68,2.77,0,4.64-1.6,4.64-3.82s-1.52-3.47-4.4-4.64c-3.98-1.56-6.43-3.35-6.43-6.74s2.3-5.69,5.89-6.28v-3.94h2.42v3.78c2.34.08,3.94.7,5.07,1.36l-.97,2.57c-.82-.47-2.42-1.33-4.91-1.33-3,0-4.13,1.79-4.13,3.35,0,2.03,1.44,3.04,4.83,4.44,4.01,1.64,6.04,3.66,6.04,7.13,0,3.08-2.14,5.96-6.16,6.63v4.05h-2.46Z"/>
</svg>