<?xml version="1.0" encoding="UTF-8"?>
<svg id="Layer_1" xmlns="http://www.w3.org/2000/svg" xmlns:xlink="http://www.w3.org/1999/xlink" version="1.1" viewBox="0 0 50 50">
  <!-- Generator: Adobe Illustrator 30.3.0, SVG Export Plug-In . SVG Version: 2.1.3 Build 182)  -->
  <defs>
    <style>
      .st0 {
        fill: #cee098;
      }

      .st1 {
        fill: url(#linear-gradient1);
      }

      .st2 {
        fill: url(#linear-gradient);
      }
    </style>
    <linearGradient id="linear-gradient" x1="5217.01" y1="-1993.44" x2="5217.01" y2="-2012.08" gradientTransform="translate(5230.83 -1990.47) rotate(-180)" gradientUnits="userSpaceOnUse">
      <stop offset="0" stop-color="#6fafac"/>
      <stop offset=".32" stop-color="#479793"/>
      <stop offset=".78" stop-color="#137874"/>
      <stop offset="1" stop-color="#006d68"/>
    </linearGradient>
    <linearGradient id="linear-gradient1" x1="36.2" y1="55.1" x2="36.2" y2="29.22" gradientTransform="matrix(1,0,0,1,0,0)" xlink:href="#linear-gradient"/>
  </defs>
  <path class="st0" d="M27.6,37.92c0-7.62-6.18-13.8-13.8-13.8h0c-5.18,0-9.69,2.85-12.05,7.06-1.12,1.99-1.75,4.29-1.75,6.73l.15,9.22c.94,1.62,6.69,2.86,13.65,2.86s12.7-1.25,13.65-2.86l.15-9.22Z"/>
  <circle class="st2" cx="13.82" cy="12.28" r="9.32"/>
  <path class="st1" d="M50,37.92c0-7.62-6.18-13.8-13.8-13.8h0c-5.18,0-9.69,2.85-12.05,7.06-1.12,1.99-1.75,4.29-1.75,6.73l.15,9.22c.94,1.62,6.69,2.86,13.65,2.86s12.7-1.25,13.65-2.86l.15-9.22Z"/>
  <path class="st0" d="M26.7,2.61h19v9.5c0,5.24-4.26,9.5-9.5,9.5h0c-5.24,0-9.5-4.26-9.5-9.5V2.61h0Z"/>
</svg>