<?xml version="1.0" encoding="UTF-8"?>
<svg id="Layer_1" xmlns="http://www.w3.org/2000/svg" xmlns:xlink="http://www.w3.org/1999/xlink" version="1.1" viewBox="0 0 500 500">
  <!-- Generator: Adobe Illustrator 30.3.0, SVG Export Plug-In . SVG Version: 2.1.3 Build 182)  -->
  <defs>
    <style>
      .st0 {
        stroke: #00524f;
        stroke-linecap: round;
        stroke-linejoin: round;
        stroke-width: 1.66px;
      }

      .st0, .st1 {
        fill: none;
      }

      .st2 {
        fill: #cee098;
      }

      .st3 {
        fill: #6fafac;
      }

      .st4 {
        fill: url(#linear-gradient2);
      }

      .st5 {
        fill: url(#linear-gradient1);
      }

      .st6 {
        fill: url(#linear-gradient9);
      }

      .st7 {
        fill: url(#linear-gradient3);
      }

      .st8 {
        fill: url(#linear-gradient6);
      }

      .st9 {
        fill: url(#linear-gradient8);
      }

      .st10 {
        fill: url(#linear-gradient7);
      }

      .st11 {
        fill: url(#linear-gradient5);
      }

      .st12 {
        fill: url(#linear-gradient4);
      }

      .st13 {
        fill: url(#linear-gradient11);
      }

      .st14 {
        fill: url(#linear-gradient10);
      }

      .st15 {
        fill: #ebf2d4;
      }

      .st16 {
        fill: url(#linear-gradient);
      }

      .st17 {
        fill: #acca53;
      }

      .st1 {
        stroke: #fff;
        stroke-miterlimit: 10;
        stroke-width: .67px;
      }

      .st18 {
        fill: #fff;
      }

      .st19 {
        fill: #00524f;
      }

      .st20 {
        opacity: .9;
      }

      .st21 {
        opacity: .4;
      }

      .st22 {
        fill: #006d68;
      }
    </style>
    <linearGradient id="linear-gradient" x1=".9" y1="415.89" x2="499.1" y2="415.89" gradientUnits="userSpaceOnUse">
      <stop offset=".28" stop-color="#cee098"/>
      <stop offset=".37" stop-color="#c5db96"/>
      <stop offset=".51" stop-color="#accd94"/>
      <stop offset=".69" stop-color="#85b78f"/>
      <stop offset=".9" stop-color="#4e9989"/>
      <stop offset="1" stop-color="#338a86"/>
    </linearGradient>
    <linearGradient id="linear-gradient1" x1=".9" y1="333.47" x2="499.1" y2="333.47" gradientUnits="userSpaceOnUse">
      <stop offset="0" stop-color="#006d68"/>
      <stop offset="1" stop-color="#003834"/>
    </linearGradient>
    <linearGradient id="linear-gradient2" x1="141.75" y1="374.7" x2="141.75" y2="307.22" xlink:href="#linear-gradient"/>
    <linearGradient id="linear-gradient3" x1="67.87" y1="306.81" x2="215.63" y2="306.81" xlink:href="#linear-gradient1"/>
    <linearGradient id="linear-gradient4" x1="141.75" y1="328.34" x2="141.75" y2="260.86" xlink:href="#linear-gradient"/>
    <linearGradient id="linear-gradient5" x1="67.87" y1="260.44" x2="215.63" y2="260.44" xlink:href="#linear-gradient1"/>
    <linearGradient id="linear-gradient6" x1="141.75" y1="275.34" x2="141.75" y2="207.87" xlink:href="#linear-gradient"/>
    <linearGradient id="linear-gradient7" x1="67.87" y1="207.45" x2="215.63" y2="207.45" xlink:href="#linear-gradient1"/>
    <linearGradient id="linear-gradient8" x1="281.62" y1="236.98" x2="421.01" y2="236.98" gradientTransform="translate(-21.04 -30.88) rotate(1.16)" gradientUnits="userSpaceOnUse">
      <stop offset="0" stop-color="#338a86"/>
      <stop offset=".1" stop-color="#4e9989"/>
      <stop offset=".31" stop-color="#85b78f"/>
      <stop offset=".49" stop-color="#accd94"/>
      <stop offset=".63" stop-color="#c5db96"/>
      <stop offset=".72" stop-color="#cee098"/>
    </linearGradient>
    <linearGradient id="linear-gradient9" x1="271.5" y1="240.67" x2="408.88" y2="240.67" gradientTransform="translate(-21.04 -30.88) rotate(1.16)" xlink:href="#linear-gradient"/>
    <linearGradient id="linear-gradient10" x1="183.47" y1="139.91" x2="183.47" y2="1.78" gradientUnits="userSpaceOnUse">
      <stop offset="0" stop-color="#000"/>
      <stop offset=".32" stop-color="#002e2c"/>
      <stop offset=".61" stop-color="#00504d"/>
      <stop offset=".84" stop-color="#006560"/>
      <stop offset="1" stop-color="#006d68"/>
    </linearGradient>
    <linearGradient id="linear-gradient11" x1="299.11" y1="349.78" x2="352.26" y2="349.78" xlink:href="#linear-gradient1"/>
  </defs>
  <polygon class="st16" points="499.1 356.13 499.1 333.09 250 474.84 .9 333.09 .9 356.13 250 498.68 499.1 356.13"/>
  <polygon class="st5" points=".9 333.84 250 192.1 499.1 333.84 250.27 474.84 .9 333.84"/>
  <g>
    <g>
      <line class="st1" x1="250.33" y1="476.67" x2="502.57" y2="333.87"/>
      <line class="st1" x1="214.28" y1="456.15" x2="466.52" y2="313.35"/>
      <line class="st1" x1="178.23" y1="435.64" x2="430.46" y2="292.84"/>
      <line class="st1" x1="142.17" y1="415.12" x2="394.41" y2="272.32"/>
      <line class="st1" x1="106.12" y1="394.61" x2="358.36" y2="251.81"/>
      <line class="st1" x1="70.06" y1="374.1" x2="322.3" y2="231.29"/>
      <line class="st1" x1="34.01" y1="353.58" x2="286.25" y2="210.78"/>
      <line class="st1" x1="-2.04" y1="333.07" x2="250.19" y2="190.27"/>
    </g>
    <g>
      <line class="st1" x1="-2.57" y1="333.2" x2="251" y2="476"/>
      <line class="st1" x1="33.46" y1="312.8" x2="286.84" y2="455.6"/>
      <line class="st1" x1="69.5" y1="292.4" x2="322.69" y2="435.2"/>
      <line class="st1" x1="105.53" y1="272" x2="358.53" y2="414.8"/>
      <line class="st1" x1="141.56" y1="251.6" x2="394.37" y2="394.4"/>
      <line class="st1" x1="177.6" y1="231.2" x2="430.22" y2="374"/>
      <line class="st1" x1="213.63" y1="210.8" x2="466.06" y2="353.6"/>
      <line class="st1" x1="249.67" y1="190.4" x2="501.9" y2="333.2"/>
    </g>
  </g>
  <g>
    <g>
      <polygon class="st4" points="215.63 332.43 215.63 307.22 142.84 348.17 67.87 307.22 67.87 332.43 142.88 374.7 215.63 332.43"/>
      <g>
        <path class="st18" d="M119.01,353.14l13.93,7.7v-7.81s-13.72-7.49-13.72-7.49c0,2.54-.08,5.07-.2,7.6Z"/>
        <path class="st19" d="M99.44,334.74l-24.99-13.64v7.42l24.92,13.77c.02-2.52.06-5.03.07-7.55Z"/>
        <path class="st18" d="M103.27,336.83c-.01,2.52-.04,5.05-.07,7.57l12.04,6.66c.1-2.55.13-5.09.08-7.64l-12.06-6.59Z"/>
      </g>
      <polygon class="st7" points="67.87 307.45 141.75 265.41 215.63 307.45 142.88 348.21 67.87 307.45"/>
      <line class="st0" x1="142.88" y1="348.21" x2="142.88" y2="374.7"/>
    </g>
    <g>
      <polygon class="st12" points="215.63 286.06 215.63 260.86 142.84 301.8 67.87 260.86 67.87 286.06 142.88 328.34 215.63 286.06"/>
      <g>
        <path class="st18" d="M119.01,306.77l13.93,7.7v-7.81s-13.72-7.49-13.72-7.49c0,2.54-.08,5.07-.2,7.6Z"/>
        <path class="st19" d="M99.44,288.37l-24.99-13.64v7.42l24.92,13.77c.02-2.52.06-5.03.07-7.55Z"/>
        <path class="st18" d="M103.27,290.46c-.01,2.52-.04,5.05-.07,7.57l12.04,6.66c.1-2.55.13-5.09.08-7.64l-12.06-6.59Z"/>
      </g>
      <polygon class="st11" points="67.87 261.08 141.75 219.04 215.63 261.08 142.88 301.84 67.87 261.08"/>
      <line class="st0" x1="142.88" y1="301.84" x2="142.88" y2="328.34"/>
    </g>
    <g>
      <polygon class="st8" points="215.63 233.07 215.63 207.87 142.84 248.81 67.87 207.87 67.87 233.07 142.88 275.34 215.63 233.07"/>
      <g>
        <path class="st18" d="M119.01,253.78l13.93,7.7v-7.81s-13.72-7.49-13.72-7.49c0,2.54-.08,5.07-.2,7.6Z"/>
        <path class="st19" d="M99.44,235.38l-24.99-13.64v7.42l24.92,13.77c.02-2.52.06-5.03.07-7.55Z"/>
        <path class="st18" d="M103.27,237.47c-.01,2.52-.04,5.05-.07,7.57l12.04,6.66c.1-2.55.13-5.09.08-7.64l-12.06-6.59Z"/>
      </g>
      <polygon class="st10" points="67.87 208.09 141.75 166.05 215.63 208.09 142.88 248.85 67.87 208.09"/>
      <line class="st0" x1="142.88" y1="248.85" x2="142.88" y2="275.34"/>
    </g>
  </g>
  <g>
    <path class="st9" d="M391.84,223.4c-4.98-21.9-16.98-35.8-31.34-34.36-4.18-31.41-20.17-52.78-37.97-52.28-7.6.21-17.07,6.32-19.37,7.7-5,2.99,1.28,2.78-1.8,9.63-4.91-4.13-10.27-6.64-15.63-7.06-.01,0-.03,0-.04,0-2.66-.49-5.44-.22-7.97.74-2.37.9-11.28,4.64-13.17,6.04-11.63,8.62-7.8,23.47-5.47,40.43.31,2.58.75,5.19,1.34,7.82,4.94,21.94,17.67,31.92,32.32,41.12,16.82,9.43,49.34,28.15,65.75,36.72,4.67,3.16,3.17,10.43,3.42,10.38,2.25-.03,13.22-6.69,16.72-8.83,16.45-10.06,18.69-40.46,13.22-58.04Z"/>
    <path class="st6" d="M379.56,230.23c-4.98-21.9-16.98-35.8-31.34-34.36-4.18-31.41-21.8-54.97-39.47-52.68-8.33,1.08-15.18,7.72-19.68,17.73-4.91-4.13-10.27-6.64-15.63-7.06-.01,0-.03,0-.04,0-2.66-.49-5.44-.22-7.97.74-16.91,6.4-21.36,26.74-18.64,46.48.31,2.58.75,5.19,1.34,7.82,4.94,21.94,17.67,31.92,32.32,41.12,16.82,9.43,49.34,28.15,65.75,36.72,4.67,3.16,11.11,4.37,11.36,4.32,2.25-.03,5.29-.63,8.78-2.77,16.45-10.06,18.69-40.46,13.22-58.04Z"/>
  </g>
  <g>
    <g>
      <path class="st22" d="M203.42,51.02c10.66,10.66,10.66,27.94,0,38.6-10.66,10.66-27.94,10.66-38.6,0l38.6-38.6Z"/>
      <path class="st17" d="M164.82,51.02c-10.66,10.66-10.66,27.94,0,38.6l19.3-19.3-19.3-19.3Z"/>
    </g>
    <path class="st14" d="M214.55,86.48c-5.67,10.9-17.06,18.38-30.17,18.38-18.75,0-34.01-15.25-34.01-34.01s15.26-34.01,34.01-34.01c13.12,0,24.5,7.48,30.17,18.38h37.1C244.56,24.61,217.14,1.78,184.37,1.78c-38.14,0-69.07,30.92-69.07,69.07s30.92,69.07,69.07,69.07c32.77,0,60.18-22.83,67.27-53.44h-37.1Z"/>
    <path class="st17" d="M184.37,140.38c-38.34,0-69.53-31.19-69.53-69.53S146.03,1.32,184.37,1.32c15.8,0,31.27,5.45,43.56,15.34,12.1,9.75,20.68,23.4,24.16,38.46l-.91.21c-3.44-14.85-11.9-28.33-23.84-37.94-12.12-9.76-27.38-15.14-42.97-15.14-37.83,0-68.6,30.77-68.6,68.6s30.77,68.6,68.6,68.6c15.59,0,30.85-5.38,42.97-15.14,11.94-9.62,20.4-23.09,23.84-37.94l.91.21c-3.48,15.05-12.07,28.71-24.16,38.46-12.28,9.89-27.75,15.34-43.56,15.34Z"/>
  </g>
  <g>
    <g class="st21">
      <path class="st18" d="M430.32,228.51v-28.63c-8.06-10.08-11.51-14.71-18.13-23.9-6.58,2.22-9.76,3.39-17,5.31v28.63c6.88,9.25,10.14,13.72,17.21,23.12,7.02-2.01,10.39-3.03,17.92-4.53Z"/>
    </g>
    <g class="st21">
      <path class="st18" d="M470.77,248.74v-28.63c-8.06-10.08-11.51-14.71-18.13-23.9-6.58,2.22-9.76,3.39-17,5.31v28.63c6.88,9.25,10.14,13.72,17.21,23.12,7.02-2.01,10.39-3.03,17.92-4.53Z"/>
    </g>
    <g class="st20">
      <path class="st2" d="M450.55,285.12v-28.63c-8.06-10.08-11.51-14.71-18.13-23.9-6.58,2.22-9.76,3.39-17,5.31v28.63c6.88,9.25,10.14,13.72,17.21,23.12,7.02-2.01,10.39-3.03,17.92-4.53Z"/>
    </g>
    <g class="st20">
      <path class="st2" d="M450.55,191.12v-28.63c-8.06-10.08-11.51-14.71-18.13-23.9-6.58,2.22-9.76,3.39-17,5.31v28.63c6.88,9.25,10.14,13.72,17.21,23.12,7.02-2.01,10.39-3.03,17.92-4.53Z"/>
    </g>
  </g>
  <g>
    <path class="st22" d="M311.26,249.17l-62.86,34.53c-4.68,2.57-7.59,7.49-7.59,12.83v89.69c0,2.12,1,3.89,2.48,5.02,1.88,1.43,4.16,4.7,6.51,3.41l63.22-37.42c4.68-2.57,7.59-7.49,7.59-12.83l3.37-88c0-1.91-4.19-5.24-5.44-6.37-1.89-1.7-4.76-2.25-7.29-.86Z"/>
    <path class="st15" d="M315.76,253.67l-62.86,34.53c-4.68,2.57-7.59,7.49-7.59,12.83v89.69c0,4.8,5.14,7.84,9.35,5.53l62.86-34.53c4.68-2.57,7.59-7.49,7.59-12.83v-89.69c0-4.8-5.14-7.84-9.35-5.53Z"/>
    <path class="st22" d="M287.46,290.92c-16.34,9.18-26.71,32.14-26.56,50.87.12,14.88,10.2,30.72,26.56,21.69,16.85-9.3,25.67-33.21,26.56-50.87.75-15.03-11.49-30.16-26.56-21.69ZM296.04,320.51c-4.89,13.41-9.77,26.82-14.66,40.23,2.74-10.44,3.89-19.74,6.63-30.17-4.49,3.02-5.14,3.4-9.63,6.41,2.63-13,5.27-26.01,7.9-39.01,4.1-2.39,6.15-3.58,10.24-5.96-3.31,10.93-6.62,21.86-9.93,32.79,3.78-1.72,5.66-2.57,9.44-4.29Z"/>
  </g>
  <g>
    <path class="st3" d="M349.48,271.65l-62.86,34.53c-4.68,2.57-7.59,7.49-7.59,12.83v89.69c0,2.12,1,3.89,2.48,5.02,1.88,1.43,4.16,4.7,6.51,3.41l63.22-37.42c4.68-2.57,7.59-7.49,7.59-12.83l3.37-88c0-1.91-4.19-5.24-5.44-6.37-1.89-1.7-4.76-2.25-7.29-.86Z"/>
    <path class="st18" d="M353.97,276.14l-62.86,34.53c-4.68,2.57-7.59,7.49-7.59,12.83v89.69c0,4.8,5.14,7.84,9.35,5.53l62.86-34.53c4.68-2.57,7.59-7.49,7.59-12.83v-89.69c0-4.8-5.14-7.84-9.35-5.53Z"/>
    <path class="st13" d="M325.67,313.4c-16.34,9.18-26.71,32.14-26.56,50.87.12,14.88,10.2,30.72,26.56,21.69,16.85-9.3,25.67-33.21,26.56-50.87.75-15.03-11.49-30.16-26.56-21.69ZM334.26,342.99c-4.89,13.41-9.77,26.82-14.66,40.23,2.74-10.44,3.89-19.74,6.63-30.17-4.49,3.02-5.14,3.4-9.63,6.41,2.63-13,5.27-26.01,7.9-39.01,4.1-2.39,6.15-3.58,10.24-5.96-3.31,10.93-6.62,21.86-9.93,32.79,3.78-1.72,5.66-2.57,9.44-4.29Z"/>
  </g>
</svg>