<svg width="25" height="25" viewBox="0 0 25 25" fill="none" xmlns="http://www.w3.org/2000/svg">
<path d="M11.3337 20.6255C9.57778 20.6308 7.88397 19.976 6.58824 18.7909C5.2925 17.6058 4.48949 15.977 4.33845 14.2276C4.18742 12.4782 4.69941 10.7358 5.77287 9.34623C6.84633 7.95661 8.40285 7.02119 10.1337 6.72549C15.8337 5.62549 17.3337 5.10549 19.3337 2.62549C20.3337 4.62549 21.3337 6.80549 21.3337 10.6255C21.3337 16.1255 16.5537 20.6255 11.3337 20.6255Z" stroke="#006D69" stroke-width="2" stroke-linecap="round" stroke-linejoin="round"/>
<path d="M2.3335 21.6255C2.3335 18.6255 4.1835 16.2655 7.4135 15.6255C9.8335 15.1455 12.3335 13.6255 13.3335 12.6255" stroke="#006D69" stroke-width="2" stroke-linecap="round" stroke-linejoin="round"/>
</svg>
