<svg xmlns="http://www.w3.org/2000/svg" width="52" height="53" fill="none" viewBox="0 0 52 53"><path fill="#cee098" d="m8.37 44.202 5.618 1.18L15.166 51l17.337-17.342-2.95-2.968-7.96.214z"/><path fill="#006d68" d="M50.319 25.684h-9.853L25.674 40.483 10.879 25.684H1l24.674 24.684 24.673-24.684z"/><path fill="#aac853" d="m1.003 25.684 2.49-2.47L25.697 1l22.204 22.213 2.444 2.471h-9.856L25.697 10.886 10.905 25.684zm41.974 18.518-5.615 1.18L36.182 51 18.847 33.658l4.243-4.268h5.157z"/><path fill="#3c3c3c" d="M34.56 26.737a.534.534 0 0 0 0-1.066h-2.996v-2.052h2.995a.534.534 0 0 0 0-1.067h-2.994V22.2c0-.983-.752-1.792-1.711-1.88v-3.007a.534.534 0 0 0-1.066 0v2.996h-2.584v-2.996a.534.534 0 0 0-1.066 0v2.996h-2.584v-2.996a.534.534 0 0 0-1.066 0v3.006a1.89 1.89 0 0 0-1.71 1.88v.354h-2.995a.534.534 0 0 0 0 1.067h2.994v2.052h-2.994a.534.534 0 0 0 0 1.066h2.994v2.052h-2.994a.534.534 0 0 0 0 1.066h2.994v.354c0 .983.752 1.792 1.711 1.88v3.007a.534.534 0 0 0 1.066 0V32.1h2.584v2.996a.534.534 0 0 0 1.066 0V32.1h2.584v2.996a.534.534 0 0 0 1.066 0V32.09a1.89 1.89 0 0 0 1.71-1.88v-.355h2.995a.534.534 0 0 0 0-1.066h-2.994v-2.052zm-6.308 1.22a.825.825 0 0 1-.826.827H23.92a.826.826 0 0 1-.826-.827v-3.506c0-.458.369-.827.826-.827h3.505c.457 0 .827.372.827.827z"/></svg>