<svg xmlns="http://www.w3.org/2000/svg" width="50" height="50" fill="none" viewBox="0 0 50 50"><path fill="#a5c352" d="M37.26 32.86C35.59 41.89 29.85 49 20.28 49 11.56 49 5.51 41.31 4.6 32.99c-.88-7.98 3.27-16.77 8.6-20.43-.78 2.67.85 10.66 4.74 9.02 4.95-2.09 1.87-12.29 3.33-16.21.65-1.75 1.75-3.43 2.97-4.36-.26 5.03 7.75 13.86 8.83 15.56 2.74 4.35 5.18 10.98 4.2 16.3z"/><path fill="#006d68" d="M45.3 32.86C43.63 41.89 37.89 49 28.32 49c-8.72 0-14.77-7.69-15.68-16.01-.88-7.98 3.27-16.77 8.6-20.43-.78 2.67.85 10.66 4.74 9.02 4.95-2.09 1.87-12.29 3.33-16.21.65-1.75 1.75-3.43 2.97-4.36-.26 5.03 7.75 13.86 8.83 15.56 2.74 4.35 5.18 10.98 4.2 16.3z"/><path fill="#fff" stroke="#fff" stroke-linecap="round" stroke-linejoin="round" stroke-width=".59" d="M26.94 41.87c2.91.23 5.57-1.75 7.12-4.06 2.11-3.13 1.65-7.15.81-10.65-.45-1.87-1.31-3.49-2.07-5.2-.11-.25-.46-.18-.48.09-.07 1.39-.59 2.7-1.19 4-1.06 2.28-2.71 3.93-4.84 5.15-.82.48-1.66.96-2.33 1.63-2.94 2.96-1.42 8.69 2.97 9.03z"/></svg>