<svg xmlns="http://www.w3.org/2000/svg" width="400" height="400" fill="none" viewBox="0 0 400 400"><path fill="#ebf2d4" d="M263.9 23.7c-16.35-6.13-33.42-11.26-50.88-11.19-23.53.1-45.9 9.6-67.31 19.37-39.41 17.99-70.49 46.18-102.79 74.8-26.15 23.17-30.44 71.23-29.66 103.87.09 3.94.19 7.9.37 11.85.55 12.17 1.85 24.31 6.12 35.66 6.84 18.19 22.71 33.56 34.69 48.53 12.97 16.21 25.69 29.74 43.15 41.31 19.77 13.1 48.05 35.61 72.44 37.67 30.7 2.6 54.21 3.85 83.72-5.35 31.43-9.8 65.88-24.1 88.5-49.16 11.86-13.14 19.6-31.89 28.43-47.17 17.22-29.81 24.36-61.95 19.93-96.21-4.64-35.86-18.73-63.35-33.59-95.41-19.08-41.17-52.62-53.4-93.14-68.59z"/><path stroke="#adcb53" stroke-miterlimit="10" stroke-width="2.1" d="M218.21 331.45c75.343 0 136.42-61.077 136.42-136.42S293.553 58.61 218.21 58.61 81.79 119.687 81.79 195.03s61.077 136.42 136.42 136.42Z"/><path fill="#ebf2d4" d="M336.03 286.76c17.397 0 31.5-14.103 31.5-31.5s-14.103-31.5-31.5-31.5-31.5 14.103-31.5 31.5 14.103 31.5 31.5 31.5m-12-139c17.397 0 31.5-14.103 31.5-31.5s-14.103-31.5-31.5-31.5-31.5 14.103-31.5 31.5 14.103 31.5 31.5 31.5M209.58 85.47c17.397 0 31.5-14.103 31.5-31.5s-14.103-31.5-31.5-31.5-31.5 14.103-31.5 31.5 14.103 31.5 31.5 31.5M84.03 171.76c17.397 0 31.5-14.103 31.5-31.5s-14.103-31.5-31.5-31.5-31.5 14.103-31.5 31.5 14.103 31.5 31.5 31.5"/><path fill="#003834" d="m277.34 302.85-21.9 14.09H139.33V107.56l21.48-14.08h116.53z"/><path stroke="#aecc53" stroke-linecap="round" stroke-linejoin="round" stroke-width="1.12" d="M255.44 107.8H139.37v209.27h116.07z"/><path stroke="#6fafac" stroke-linecap="round" stroke-linejoin="round" stroke-width="1.12" d="M174.86 192.09v-22.42c0-16.53 13.44-13.86 29.88-13.86h7.19c2.61 0 5.23-.02 7.84 0 3.5.03 7.15-.63 7.51-5.02v-33.72"/><path fill="#6fafac" d="M176.11 192.03a1.261 1.261 0 1 1-2.522-.002 1.261 1.261 0 0 1 2.522.002m52.42-74.91a1.261 1.261 0 1 0-2.522.002 1.261 1.261 0 0 0 2.522-.002"/><path stroke="#6fafac" stroke-linecap="round" stroke-linejoin="round" stroke-width="1.12" d="M178.17 192.09v-22.42c0-16.53 13.44-13.86 29.88-13.86h12.64"/><path fill="#6fafac" d="M178.17 193.29a1.26 1.26 0 1 0 0-2.52 1.26 1.26 0 0 0 0 2.52m42.44-36.23a1.261 1.261 0 1 0-.002-2.522 1.261 1.261 0 0 0 .002 2.522"/><path stroke="#6fafac" stroke-linecap="round" stroke-linejoin="round" stroke-width="1.12" d="M171.55 192.09v-22.42c0-16.53 13.44-13.86 29.88-13.86h19.26"/><path fill="#6fafac" d="M172.8 192.03a1.261 1.261 0 1 1-2.522-.002 1.261 1.261 0 0 1 2.522.002m47.81-34.97a1.261 1.261 0 1 0-.002-2.522 1.261 1.261 0 0 0 .002 2.522"/><path stroke="#6fafac" stroke-linecap="round" stroke-linejoin="round" stroke-width="1.12" d="M174.86 238.99v-22.42c0-16.53 13.44-13.86 29.88-13.86h7.19c2.61 0 5.23-.02 7.84 0 3.5.03 7.15-.63 7.51-5.02v-39.76"/><path fill="#6fafac" d="M176.11 238.93a1.261 1.261 0 1 1-2.522-.002 1.261 1.261 0 0 1 2.522.002m52.42-80.94a1.261 1.261 0 1 0-2.522.002 1.261 1.261 0 0 0 2.522-.002"/><path stroke="#6fafac" stroke-linecap="round" stroke-linejoin="round" stroke-width="1.12" d="M178.17 238.99v-22.42c0-16.53 13.44-13.86 29.88-13.86h12.64"/><path fill="#6fafac" d="M178.17 240.19a1.26 1.26 0 1 0 0-2.52 1.26 1.26 0 0 0 0 2.52m42.44-36.22a1.261 1.261 0 1 0-.002-2.522 1.261 1.261 0 0 0 .002 2.522"/><path stroke="#6fafac" stroke-linecap="round" stroke-linejoin="round" stroke-width="1.12" d="M171.55 238.99v-22.42c0-16.53 13.44-13.86 29.88-13.86h19.26"/><path fill="#6fafac" d="M172.8 238.93a1.261 1.261 0 1 1-2.522-.002 1.261 1.261 0 0 1 2.522.002m47.81-34.96a1.261 1.261 0 1 0-.002-2.522 1.261 1.261 0 0 0 .002 2.522"/><path fill="#aecc53" d="M254.85 108.41H140.02v8.36h114.83z"/><path stroke="#aecc53" stroke-linecap="round" stroke-linejoin="round" stroke-width="1.11" d="M276.99 93.63H160.81l-21.44 13.86h116.19z"/><path stroke="#aecc53" stroke-linecap="round" stroke-linejoin="round" stroke-width="1.12" d="m277.77 93.63-.55 209.27-21.51 13.87.54-209.28z"/><path stroke="#6fafac" stroke-linecap="round" stroke-linejoin="round" stroke-width="1.12" d="M174.86 285.89v-22.42c0-16.53 13.44-13.86 29.88-13.86h7.19c2.61 0 5.23-.02 7.84 0 3.5.03 7.15-.63 7.51-5.02v-39.76"/><path fill="#6fafac" d="M176.11 285.83a1.261 1.261 0 1 1-2.522-.002 1.261 1.261 0 0 1 2.522.002m52.42-80.93a1.261 1.261 0 1 0-2.522.002 1.261 1.261 0 0 0 2.522-.002"/><path stroke="#6fafac" stroke-linecap="round" stroke-linejoin="round" stroke-width="1.12" d="M178.17 285.89v-22.42c0-16.53 13.44-13.86 29.88-13.86h12.64"/><path fill="#6fafac" d="M179.42 285.83a1.261 1.261 0 1 1-2.522-.002 1.261 1.261 0 0 1 2.522.002m41.19-34.96a1.261 1.261 0 1 0-.002-2.522 1.261 1.261 0 0 0 .002 2.522"/><path stroke="#6fafac" stroke-linecap="round" stroke-linejoin="round" stroke-width="1.12" d="M171.55 285.89v-22.42c0-16.53 13.44-13.86 29.88-13.86h19.26"/><path fill="#6fafac" d="M172.8 285.83a1.261 1.261 0 1 1-2.522-.002 1.261 1.261 0 0 1 2.522.002m47.81-34.96a1.261 1.261 0 1 0-.002-2.522 1.261 1.261 0 0 0 .002 2.522"/><path fill="#003834" d="M246.39 133.93h-97.97a2.73 2.73 0 0 0-2.73 2.73v26.27a2.73 2.73 0 0 0 2.73 2.73h97.97a2.73 2.73 0 0 0 2.73-2.73v-26.27a2.73 2.73 0 0 0-2.73-2.73m0 46.9h-97.97a2.73 2.73 0 0 0-2.73 2.73v26.27a2.73 2.73 0 0 0 2.73 2.73h97.97a2.73 2.73 0 0 0 2.73-2.73v-26.27a2.73 2.73 0 0 0-2.73-2.73m0 46.9h-97.97a2.73 2.73 0 0 0-2.73 2.73v26.27a2.73 2.73 0 0 0 2.73 2.73h97.97a2.73 2.73 0 0 0 2.73-2.73v-26.27a2.73 2.73 0 0 0-2.73-2.73m0 46.91h-97.97a2.73 2.73 0 0 0-2.73 2.73v26.27a2.73 2.73 0 0 0 2.73 2.73h97.97a2.73 2.73 0 0 0 2.73-2.73v-26.27a2.73 2.73 0 0 0-2.73-2.73"/><path fill="#006e69" d="M246.39 129.92h-97.97a2.73 2.73 0 0 0-2.73 2.73v26.27a2.73 2.73 0 0 0 2.73 2.73h97.97a2.73 2.73 0 0 0 2.73-2.73v-26.27a2.73 2.73 0 0 0-2.73-2.73"/><path fill="#aecc53" d="M178.64 149.6h-22.88a3.809 3.809 0 1 1 0-7.62h22.88a3.809 3.809 0 1 1 0 7.62"/><path stroke="#6fafac" stroke-linecap="round" stroke-linejoin="round" stroke-width="1.09" d="M197.71 149.68h-6.36a3.809 3.809 0 1 1 0-7.62h6.36a3.809 3.809 0 1 1 0 7.62"/><path stroke="#6fafac" stroke-linecap="round" stroke-linejoin="round" stroke-width=".99" d="M194.64 146.63v-20.87c0-12.97 13.44-10.62 29.88-10.62h22.54"/><path fill="#6fafac" d="M195.75 146.57c0 .62-.5 1.11-1.11 1.11s-1.11-.5-1.11-1.11.5-1.11 1.11-1.11 1.11.5 1.11 1.11"/><path stroke="#6fafac" stroke-linecap="round" stroke-linejoin="round" stroke-width=".99" d="M197.95 146.63v-20.87c0-12.97 13.44-9.89 29.88-9.89h19.23"/><path fill="#6fafac" d="M199.06 146.57c0 .62-.5 1.11-1.11 1.11s-1.11-.5-1.11-1.11.5-1.11 1.11-1.11 1.11.5 1.11 1.11"/><path stroke="#6fafac" stroke-linecap="round" stroke-linejoin="round" stroke-width=".99" d="M191.33 146.63v-20.87c0-12.97 13.44-10.62 29.88-10.62h25.85"/><path fill="#6fafac" d="M192.44 146.57c0 .62-.5 1.11-1.11 1.11s-1.11-.5-1.11-1.11.5-1.11 1.11-1.11 1.11.5 1.11 1.11"/><path fill="#003834" d="M244.45 140.14h-31.76v11.29h31.76z"/><path stroke="#6fafac" stroke-linecap="round" stroke-linejoin="round" stroke-width=".99" d="M217.41 145.78h22.32"/><path fill="#006e69" d="M246.39 176.82h-97.97a2.73 2.73 0 0 0-2.73 2.73v26.27a2.73 2.73 0 0 0 2.73 2.73h97.97a2.73 2.73 0 0 0 2.73-2.73v-26.27a2.73 2.73 0 0 0-2.73-2.73"/><path fill="#003834" d="M244.45 187.04h-31.76v11.29h31.76z"/><path stroke="#6fafac" stroke-linecap="round" stroke-linejoin="round" stroke-width=".99" d="M217.41 192.69h22.32"/><path fill="#aecc53" d="M178.64 196.5h-22.88a3.809 3.809 0 1 1 0-7.62h22.88a3.809 3.809 0 1 1 0 7.62"/><path stroke="#6fafac" stroke-linecap="round" stroke-linejoin="round" stroke-width="1.09" d="M197.71 196.5h-6.36a3.809 3.809 0 1 1 0-7.62h6.36a3.809 3.809 0 1 1 0 7.62"/><path stroke="#6fafac" stroke-linecap="round" stroke-linejoin="round" stroke-width=".99" d="M194.64 192.22v-22.56c0-16.53 13.44-13.86 29.88-13.86h7.19c2.61 0 5.23-.02 7.84 0 3.5.03 7.15-.63 7.51-5.02v-35.32"/><path fill="#6fafac" d="M195.75 192.17c0 .62-.5 1.11-1.11 1.11s-1.11-.5-1.11-1.11.5-1.11 1.11-1.11 1.11.5 1.11 1.11m52.42-76.65c0-.62-.5-1.11-1.11-1.11s-1.11.5-1.11 1.11.5 1.11 1.11 1.11 1.11-.5 1.11-1.11"/><path stroke="#6fafac" stroke-linecap="round" stroke-linejoin="round" stroke-width=".99" d="M197.95 192.22v-22.56c0-16.53 13.44-13.86 29.88-13.86h12.77"/><path fill="#6fafac" d="M199.06 192.17c0 .62-.5 1.11-1.11 1.11s-1.11-.5-1.11-1.11.5-1.11 1.11-1.11 1.11.5 1.11 1.11m41.48-35.25c.62 0 1.11-.5 1.11-1.11s-.5-1.11-1.11-1.11-1.11.5-1.11 1.11.5 1.11 1.11 1.11"/><path stroke="#6fafac" stroke-linecap="round" stroke-linejoin="round" stroke-width=".99" d="M191.33 192.22v-22.56c0-16.53 13.44-13.86 29.88-13.86h19.39"/><path fill="#6fafac" d="M192.44 192.17c0 .62-.5 1.11-1.11 1.11s-1.11-.5-1.11-1.11.5-1.11 1.11-1.11 1.11.5 1.11 1.11m48.1-35.25c.62 0 1.11-.5 1.11-1.11s-.5-1.11-1.11-1.11-1.11.5-1.11 1.11.5 1.11 1.11 1.11"/><path fill="#006e69" d="M246.39 223.73h-97.97a2.73 2.73 0 0 0-2.73 2.73v26.27a2.73 2.73 0 0 0 2.73 2.73h97.97a2.73 2.73 0 0 0 2.73-2.73v-26.27a2.73 2.73 0 0 0-2.73-2.73"/><path fill="#003834" d="M244.45 233.94h-31.76v11.29h31.76z"/><path stroke="#6fafac" stroke-linecap="round" stroke-linejoin="round" stroke-width=".99" d="M217.41 239.59h22.32"/><path fill="#aecc53" d="M178.64 243.4h-22.88a3.809 3.809 0 1 1 0-7.62h22.88a3.809 3.809 0 1 1 0 7.62"/><path stroke="#6fafac" stroke-linecap="round" stroke-linejoin="round" stroke-width="1.09" d="M197.71 243.4h-6.36a3.809 3.809 0 1 1 0-7.62h6.36a3.809 3.809 0 1 1 0 7.62"/><path fill="#006e69" d="M246.39 270.63h-97.97a2.73 2.73 0 0 0-2.73 2.73v26.27a2.73 2.73 0 0 0 2.73 2.73h97.97a2.73 2.73 0 0 0 2.73-2.73v-26.27a2.73 2.73 0 0 0-2.73-2.73"/><path fill="#003834" d="M244.45 280.85h-31.76v11.29h31.76z"/><path stroke="#6fafac" stroke-linecap="round" stroke-linejoin="round" stroke-width=".99" d="M217.41 286.49h22.32"/><path stroke="#6fafac" stroke-linecap="round" stroke-linejoin="round" stroke-width="1.09" d="M197.71 290.31h-6.36a3.809 3.809 0 1 1 0-7.62h6.36a3.809 3.809 0 1 1 0 7.62"/><path stroke="#6fafac" stroke-linecap="round" stroke-linejoin="round" stroke-width="1.12" d="M194.64 238.99v-22.42c0-16.53 13.44-13.86 29.88-13.86h7.19c2.61 0 5.23-.02 7.84 0 3.5.03 7.15-.63 7.51-5.02v-32.63"/><path fill="#6fafac" d="M195.9 238.93a1.261 1.261 0 1 1-2.522-.002 1.261 1.261 0 0 1 2.522.002m52.41-73.81a1.261 1.261 0 1 0-2.522.002 1.261 1.261 0 0 0 2.522-.002"/><path stroke="#6fafac" stroke-linecap="round" stroke-linejoin="round" stroke-width="1.12" d="M197.95 238.99v-22.42c0-16.53 13.44-13.86 29.88-13.86h12.64"/><path fill="#6fafac" d="M199.21 238.93a1.261 1.261 0 1 1-2.522-.002 1.261 1.261 0 0 1 2.522.002m41.19-34.96a1.261 1.261 0 1 0-.002-2.522 1.261 1.261 0 0 0 .002 2.522"/><path stroke="#6fafac" stroke-linecap="round" stroke-linejoin="round" stroke-width="1.12" d="M191.33 238.99v-22.42c0-16.53 13.44-13.86 29.88-13.86h19.26"/><path fill="#6fafac" d="M192.59 238.93a1.261 1.261 0 1 1-2.522-.002 1.261 1.261 0 0 1 2.522.002m47.81-34.96a1.261 1.261 0 1 0-.002-2.522 1.261 1.261 0 0 0 .002 2.522"/><path stroke="#6fafac" stroke-linecap="round" stroke-linejoin="round" stroke-width=".99" d="M194.64 286.03v-22.56c0-16.53 13.44-13.86 29.88-13.86h7.19c2.61 0 5.23-.02 7.84 0 3.5.03 7.15-.63 7.51-5.02v-32.77"/><path fill="#6fafac" d="M195.75 285.98c0 .62-.5 1.11-1.11 1.11s-1.11-.5-1.11-1.11.5-1.11 1.11-1.11 1.11.5 1.11 1.11m52.42-74.1c0-.62-.5-1.11-1.11-1.11s-1.11.5-1.11 1.11.5 1.11 1.11 1.11 1.11-.5 1.11-1.11"/><path stroke="#6fafac" stroke-linecap="round" stroke-linejoin="round" stroke-width=".99" d="M197.95 286.03v-22.56c0-16.53 13.44-13.86 29.88-13.86h12.77"/><path fill="#6fafac" d="M199.06 285.98c0 .62-.5 1.11-1.11 1.11s-1.11-.5-1.11-1.11.5-1.11 1.11-1.11 1.11.5 1.11 1.11m41.48-35.25c.62 0 1.11-.5 1.11-1.11s-.5-1.11-1.11-1.11-1.11.5-1.11 1.11.5 1.11 1.11 1.11"/><path stroke="#6fafac" stroke-linecap="round" stroke-linejoin="round" stroke-width=".99" d="M191.33 286.03v-22.56c0-16.53 13.44-13.86 29.88-13.86h19.39"/><path fill="#6fafac" d="M192.44 285.98c0 .62-.5 1.11-1.11 1.11s-1.11-.5-1.11-1.11.5-1.11 1.11-1.11 1.11.5 1.11 1.11m48.1-35.25c.62 0 1.11-.5 1.11-1.11s-.5-1.11-1.11-1.11-1.11.5-1.11 1.11.5 1.11 1.11 1.11"/><path stroke="#6fafac" stroke-linecap="round" stroke-linejoin="round" stroke-width="1.12" d="M225.71 296.51h5.99c2.61 0 5.23-.02 7.84 0 3.5.03 7.15-.63 7.51-5.02v-32.63"/><path fill="#6fafac" d="M225.77 297.77a1.261 1.261 0 1 1 .002-2.522 1.261 1.261 0 0 1-.002 2.522m22.54-38.85a1.261 1.261 0 1 0-2.522.002 1.261 1.261 0 0 0 2.522-.002"/><path stroke="#6fafac" stroke-linecap="round" stroke-linejoin="round" stroke-width="1.12" d="M229.02 296.51h11.44"/><path fill="#6fafac" d="M229.08 297.77a1.261 1.261 0 1 1 .002-2.522 1.261 1.261 0 0 1-.002 2.522m11.32 0a1.261 1.261 0 1 0-.002-2.522 1.261 1.261 0 0 0 .002 2.522"/><path stroke="#6fafac" stroke-linecap="round" stroke-linejoin="round" stroke-width="1.12" d="M222.4 296.51h18.06"/><path fill="#6fafac" d="M222.46 297.77a1.261 1.261 0 1 1 .002-2.522 1.261 1.261 0 0 1-.002 2.522m17.94 0a1.261 1.261 0 1 0-.002-2.522 1.261 1.261 0 0 0 .002 2.522"/><path fill="#003834" d="M8.91 315.8V213.83l115.77-.3V315.8z"/><path fill="#6fafac" d="M123.86 214.35v100.62H9.74V214.64zm1.65-1.65L8.09 213v103.62h117.42z"/><path fill="#aecc53" d="M125.51 201.91H8.09v13.61h117.42z"/><path fill="#003834" d="M120.942 206.428 119.514 205l-6.074 6.074 1.428 1.428z"/><path fill="#003834" d="m119.512 212.502 1.428-1.428-6.074-6.074-1.428 1.428zm-14.722-6.372v5.43h-6.11v-5.43zm.94-.94h-7.98v7.3h7.98zm-15.72 5.7h-7.98v1.61h7.98z"/><path stroke="#aecc53" stroke-linecap="round" stroke-linejoin="round" stroke-width="1.76" d="M56.21 245.19c0 5.85 4.74 10.59 10.59 10.59s10.59-4.74 10.59-10.59c0-3.95-4.82-12.67-7.96-17.91-1.19-1.99-4.07-1.99-5.26 0-3.14 5.25-7.96 13.97-7.96 17.91m10.58-5.54v21.57"/><path fill="#aecc53" d="M64.15 239.78c0-1.46 1.18-2.64 2.64-2.64s2.64 1.18 2.64 2.64-1.18 2.64-2.64 2.64-2.64-1.18-2.64-2.64"/><path stroke="#aecc53" stroke-linecap="round" stroke-linejoin="round" stroke-width="1.76" d="m48.56 239.5-10.07 7.43 10.07 7.43m36.47-14.86 10.07 7.43-10.07 7.43m-2.23 19.56h11.99m-39.71 0h21.97m-38.25 0h9.74m36.78 12.69h9.47m-55.99 0h9.14m4.16 0h29.39m-9.88 12.7h23.18m-55.99 0h22.51"/><path fill="#003834" d="M55.07 378.8V276.83l115.76-.3V378.8z"/><path fill="#6fafac" d="M170.01 277.35v100.62H55.89V277.64zm1.65-1.65-117.42.3v103.62h117.42z"/><path fill="#6fafac" d="M65.09 332.32v27.52h8.34v-27.52z"/><path fill="#338a86" d="M108.78 295.48v64.36h8.34v-64.36zm-29.12 20.97v43.39H88v-43.39z"/><path fill="#6fafac" d="M94.22 308.49v51.36h8.34v-51.36zm58.24 23.84v27.52h8.34v-27.52z"/><path fill="#338a86" d="M137.9 316.46v43.39h8.34v-43.39z"/><path fill="#6fafac" d="M123.35 308.49v51.36h8.34v-51.36z"/><path fill="#aecc53" d="M171.66 264.91H54.24v13.61h117.42z"/><path fill="#003834" d="m167.087 269.419-1.428-1.429-6.074 6.074 1.428 1.429z"/><path fill="#003834" d="m165.661 275.497 1.429-1.428-6.074-6.074-1.429 1.428zm-14.721-6.367v5.43h-6.11v-5.43zm.94-.94h-7.98v7.3h7.98zm-15.72 5.7h-7.98v1.61h7.98z"/><path fill="#6fafac" d="M183.25 72 207 32.81c1.17-1.93 3.97-1.93 5.15 0L235.9 72c1.22 2-.23 4.57-2.57 4.57h-47.51c-2.34 0-3.79-2.56-2.57-4.57"/><path fill="#003834" d="m212.86 45.43-5.78 14.06-2.29-2.16 8.54-.4 2.79-.13c-.65.97-9.41 14.1-10.33 15.48l6.51-14.66 1.37 2.01-8.37 1.74-2.27.47c0-1.45 3.6-15.01 3.59-16.83l2.48.41h3.77z"/><path fill="#6fafac" d="M84.03 166.32c14.393 0 26.06-11.667 26.06-26.06S98.423 114.2 84.03 114.2s-26.06 11.667-26.06 26.06 11.668 26.06 26.06 26.06"/><path fill="#003834" d="M96.34 145.05c0 6.8-5.51 12.31-12.31 12.31s-12.31-5.51-12.31-12.31 12.31-21.9 12.31-21.9 12.31 15.1 12.31 21.9"/><path fill="#afd3d0" d="M74.93 141.75c2.16-4.86 5.18-9.25 8.14-13.64-1.32 2.28-2.59 4.59-3.78 6.93-1.17 2.32-2.34 4.7-3.16 7.15-.29.83-1.51.38-1.2-.44m3.57 11.27c-.12 0-.24-.03-.34-.1a8.68 8.68 0 0 1-3.99-7.94c.02-.35.33-.62.68-.59.35.02.62.33.59.68a7.39 7.39 0 0 0 3.41 6.77.634.634 0 0 1-.35 1.17z"/><path fill="#6fafac" d="M336.03 281.32c14.393 0 26.06-11.667 26.06-26.06s-11.667-26.06-26.06-26.06-26.06 11.667-26.06 26.06 11.667 26.06 26.06 26.06"/><path fill="#003834" d="M322.23 257.74c.09-.34.4-.57.74-.57.06 0 .13 0 .19.02l5.67 1.45 5.7-3.37h2.99l5.7 3.37 5.67-1.45c.06-.02.13-.02.19-.02.34 0 .65.23.74.57.1.41-.14.82-.55.93l-4.2 1.08 4.21 2.49c.36.21.48.68.27 1.04s-.68.48-1.04.27l-4.21-2.49 1.08 4.2c.1.41-.14.82-.55.93-.41.1-.82-.14-.93-.55l-1.45-5.67-5.66-3.35v6.58l4.14 4.14c.3.3.3.78 0 1.08s-.78.3-1.08 0l-3.06-3.06v4.89a.76.76 0 1 1-1.52 0v-4.89l-3.06 3.06c-.3.3-.78.3-1.08 0a.76.76 0 0 1 0-1.08l4.14-4.14v-6.58l-5.66 3.35-1.45 5.67a.764.764 0 1 1-1.48-.38l1.08-4.2-4.21 2.49c-.36.21-.83.09-1.04-.27a.763.763 0 0 1 .27-1.04l4.21-2.49-4.2-1.08a.764.764 0 0 1-.55-.93zm0-4.97c.09.34.4.57.74.57.06 0 .13 0 .19-.02l5.67-1.45 5.7 3.37h2.99l5.7-3.37 5.67 1.45c.06.02.13.02.19.02.34 0 .65-.23.74-.57.1-.41-.14-.82-.55-.93l-4.2-1.08 4.21-2.49c.36-.21.48-.68.27-1.04a.763.763 0 0 0-1.04-.27l-4.21 2.49 1.08-4.2c.1-.41-.14-.82-.55-.93-.41-.1-.82.14-.93.55l-1.45 5.67-5.66 3.35v-6.58l4.14-4.14c.3-.3.3-.78 0-1.08a.76.76 0 0 0-1.08 0l-3.06 3.06v-4.89a.76.76 0 1 0-1.52 0v4.89l-3.06-3.06a.76.76 0 0 0-1.08 0c-.3.3-.3.78 0 1.08l4.14 4.14v6.58l-5.66-3.35-1.45-5.67a.764.764 0 1 0-1.48.38l1.08 4.2-4.21-2.49a.763.763 0 0 0-1.04.27c-.21.36-.09.83.27 1.04l4.21 2.49-4.2 1.08c-.41.1-.65.52-.55.93z"/><path fill="#6fafac" d="M324.03 142.32c14.393 0 26.06-11.667 26.06-26.06S338.423 90.2 324.03 90.2s-26.06 11.667-26.06 26.06 11.667 26.06 26.06 26.06"/><path stroke="#003834" stroke-miterlimit="10" d="M345.12 116.26s-9.44 13.47-21.09 13.47-21.09-13.47-21.09-13.47 9.44-13.47 21.09-13.47 21.09 13.47 21.09 13.47Z"/><path fill="#003834" d="M324.03 127.51c6.285 0 11.38-5.095 11.38-11.38s-5.095-11.38-11.38-11.38-11.38 5.095-11.38 11.38 5.095 11.38 11.38 11.38"/><path fill="#6fafac" d="M324.03 120.82a4.69 4.69 0 1 0 0-9.38 4.69 4.69 0 0 0 0 9.38"/></svg>