<svg width="600" height="571" viewBox="0 0 600 571" fill="none" xmlns="http://www.w3.org/2000/svg">
<rect y="0.62793" width="600" height="570" rx="16" fill="#EBF2D4"/>
<path d="M374.44 318.448C373.14 304.268 372.3 289.758 371.57 276.958C371.33 272.898 371.25 268.708 371.16 264.658C371.08 260.448 370.98 256.158 370.73 251.898C370.79 251.718 370.82 251.528 370.77 251.338C370.75 251.278 370.71 251.228 370.69 251.178C370.41 246.728 369.94 242.308 369.1 237.988C368.65 235.688 368.02 233.068 366.2 231.188C363.76 228.688 359.8 228.018 354.08 229.128C348.05 230.298 343.5 232.068 340.13 234.608C340.64 234.768 341.11 234.948 341.54 235.128C341.78 235.228 339.44 236.878 339.54 237.128C339.64 237.368 338.64 235.888 338.54 236.128C338.44 236.378 338.28 236.418 338.08 236.378C338.71 235.738 339.39 235.148 340.13 234.608C335.81 233.178 329.1 232.448 325.89 233.638C317.11 236.918 313.56 244.738 311.24 251.948C309.88 256.178 309.45 260.398 309.55 264.578C306.02 261.158 300.86 259.608 295.76 260.598C290.28 261.658 286.23 265.368 284.92 270.528C283.26 277.098 286.86 282.988 290.6 287.878C294.01 292.348 296.48 297.758 298.88 302.998L298.97 303.188C299.56 304.478 300.14 305.768 300.75 307.038C304.53 315.018 299.13 323.478 292.29 334.188L292.09 334.498C292.03 334.588 292.01 334.688 291.98 334.778C282.74 335.018 272.39 332.508 267.06 327.808C262.73 323.998 259.05 318.608 256.98 313.028C256.08 310.608 255.66 308.018 255.26 305.518C254.68 301.968 254.08 298.288 252.13 294.838C249.26 289.768 244.4 285.878 238.82 284.188C235.96 283.328 232.94 283.048 229.97 283.338C229.66 283.028 229.18 282.948 228.79 283.188C228.65 283.278 228.55 283.398 228.47 283.538C226.17 283.908 223.92 284.618 221.83 285.668C219.56 286.808 217.99 288.128 217.01 289.708C215.06 292.828 214.97 297.128 215.29 301.378C215.02 301.708 214.98 302.178 215.23 302.548C215.28 302.608 215.34 302.658 215.4 302.708C215.48 303.548 215.56 304.388 215.65 305.208C215.85 307.228 216.05 309.138 216.06 310.758C216.11 319.498 216.59 328.338 217.05 335.838C217.9 349.358 220.74 362.758 225.31 375.498C227.46 381.498 229.81 387.918 233.14 393.378C236.49 398.868 251.23 382.428 257.54 381.128C286.54 375.128 294.54 375.128 328.54 380.128C341.28 381.998 352.23 387.628 358.87 376.948C365.43 366.378 370.12 354.628 372.38 342.388C373.48 336.388 374.66 329.418 374.64 322.718C374.63 321.228 374.57 319.788 374.44 318.448Z" fill="white"/>
<path d="M374.7 318.418C373.39 304.258 372.56 289.738 371.83 276.938C371.6 272.888 371.51 268.698 371.43 264.648C371.25 255.798 371.05 246.648 369.36 237.938C368.91 235.598 368.26 232.938 366.39 231.008C363.89 228.438 359.85 227.748 354.04 228.878C347.2 230.208 342.25 232.308 338.75 235.408C338.79 235.218 338.79 235.018 338.72 234.838C338.62 234.598 338.44 234.408 338.2 234.308C334.09 232.558 329.49 232.308 325.9 233.648C317.12 236.928 313.57 244.748 311.25 251.958C309.89 256.188 309.46 260.408 309.56 264.588C306.03 261.168 300.86 259.618 295.77 260.608C290.29 261.668 286.23 265.378 284.93 270.538C283.27 277.108 286.87 282.998 290.61 287.888C294.02 292.348 296.49 297.768 298.88 302.998L298.99 303.228C299.57 304.508 300.16 305.778 300.75 307.038C304.53 315.018 299.13 323.478 292.29 334.188L292.09 334.498C292.09 334.498 292.09 334.518 292.08 334.528C282.88 334.788 272.54 332.298 267.23 327.618C262.93 323.828 259.28 318.478 257.23 312.938C256.34 310.548 255.94 308.088 255.52 305.478C254.94 301.898 254.34 298.198 252.36 294.718C249.45 289.578 244.54 285.658 238.9 283.948C235.91 283.038 232.75 282.788 229.66 283.128C229.39 283.028 229.08 283.028 228.81 283.188C228.78 283.208 228.77 283.228 228.75 283.248C226.32 283.608 223.94 284.328 221.73 285.438C219.42 286.608 217.82 287.948 216.81 289.568C214.75 292.878 214.73 297.438 215.09 301.878C215.08 301.998 215.09 302.118 215.12 302.248C215.21 303.258 215.31 304.258 215.41 305.238C215.62 307.248 215.81 309.148 215.82 310.758C215.87 319.498 216.35 328.348 216.82 335.848C218.13 356.988 224.5 378.638 234.74 396.798L236.48 395.818C226.39 377.918 220.11 356.568 218.82 335.728C218.45 329.728 218.07 322.868 217.91 315.898C217.91 315.898 217.93 315.898 217.94 315.898C218.04 315.898 218.14 315.878 218.24 315.848C219.7 315.378 220.65 315.188 221.65 314.988C222.12 314.898 222.6 314.798 223.13 314.678C228.57 313.418 233.05 308.088 234.04 301.728C234.84 296.548 233.63 290.048 231.02 285.008C233.49 284.868 235.98 285.128 238.35 285.848C243.51 287.408 248 290.998 250.65 295.688C252.45 298.858 252.99 302.228 253.57 305.788C253.99 308.368 254.42 311.048 255.38 313.618C257.55 319.468 261.4 325.108 265.94 329.108C275 337.088 296.73 339.118 306.73 332.928C311.39 330.048 315.39 326.938 318.61 323.718C331.01 312.248 337.01 297.408 335.5 281.938C334.81 274.858 334.34 267.188 334.06 258.498C333.83 251.438 333.62 244.768 337.99 239.128C340.49 235.908 344.26 233.598 349.66 231.988C349.95 233.568 350.08 235.158 350.21 236.728C350.56 241.008 350.9 245.048 354.22 248.698C357.16 251.918 360.32 253.418 364.18 253.418C365.62 253.418 367.2 253.198 369.05 252.768C369.27 256.748 369.36 260.748 369.44 264.678C369.52 268.748 369.61 272.958 369.85 277.038C370.59 289.858 371.42 304.388 372.73 318.588C372.85 319.888 372.91 321.278 372.92 322.708C372.94 329.258 371.78 336.128 370.69 342.048C367.84 357.538 360.92 372.598 350.69 385.598L352.26 386.838C362.69 373.588 369.74 358.228 372.65 342.418C373.76 336.408 374.94 329.428 374.91 322.708C374.91 321.208 374.84 319.768 374.71 318.408L374.7 318.418ZM222.78 302.128C225.66 303.238 228.04 305.938 228.71 308.858C228.71 308.868 228.72 308.878 228.72 308.898C227.07 310.858 224.96 312.258 222.66 312.798C222.15 312.918 221.69 313.008 221.23 313.098C220.27 313.288 219.26 313.498 217.84 313.938C217.82 312.878 217.81 311.818 217.8 310.758C217.8 309.048 217.59 307.098 217.38 305.038C217.29 304.198 217.2 303.328 217.13 302.458C218.83 301.498 220.81 301.378 222.78 302.128ZM218.49 290.628C219.3 289.338 220.64 288.218 222.61 287.228C224.57 286.238 226.69 285.588 228.86 285.248C231.56 290.018 232.85 296.408 232.07 301.448C231.76 303.428 231.07 305.288 230.11 306.918C228.93 303.998 226.42 301.448 223.47 300.318C221.24 299.458 218.98 299.498 216.96 300.378C216.75 296.718 216.92 293.148 218.48 290.638L218.49 290.628ZM302.51 306.198C301.94 304.998 301.38 303.778 300.82 302.548C301.07 302.568 301.32 302.608 301.57 302.608C302.99 302.608 304.51 302.218 305.96 301.478C307.9 300.488 309.49 299.068 311.02 297.688C311.22 297.518 311.33 297.278 311.35 297.018C311.37 296.758 311.28 296.508 311.1 296.308C310.74 295.908 310.12 295.878 309.71 296.248C308.27 297.538 306.78 298.868 305.08 299.738C303.27 300.658 301.44 300.898 299.93 300.408C299.9 300.398 299.86 300.408 299.83 300.398C297.64 295.628 295.3 290.818 292.15 286.698C288.69 282.178 285.35 276.768 286.81 271.008C287.93 266.598 291.41 263.428 296.13 262.508C301.33 261.498 306.61 263.488 309.59 267.568C309.62 267.618 309.67 267.638 309.71 267.678C310.11 272.568 311.11 277.408 312.11 282.178C312.91 286.018 313.74 289.988 314.23 293.908C315.95 307.758 312.43 322.098 305.04 331.328C304.96 331.428 304.9 331.548 304.86 331.668C302.08 333.168 298.44 334.058 294.46 334.388C301.36 323.568 306.64 314.918 302.5 306.188L302.51 306.198ZM336.38 237.908C331.56 244.118 331.8 251.468 332.03 258.568C332.31 267.308 332.79 275.018 333.48 282.138C334.93 296.978 329.15 311.218 317.19 322.288C314.88 324.598 312.17 326.838 309.09 328.968C315.04 319.448 317.74 306.358 316.16 293.678C315.83 291.058 315.36 288.428 314.84 285.838C316.26 286.238 317.7 286.448 319.12 286.448C321.82 286.448 324.51 285.758 327.35 284.338C327.83 284.098 328.03 283.508 327.79 283.028C327.55 282.548 326.96 282.358 326.48 282.588C322.21 284.718 318.38 285.058 314.42 283.658C314.42 283.658 314.41 283.658 314.4 283.658C314.27 283.028 314.14 282.398 314.01 281.778C312.01 272.198 309.95 262.288 313.09 252.528C315.37 245.418 318.59 238.438 326.56 235.448C329.64 234.298 333.79 234.538 337.41 236.078C337.58 236.148 337.76 236.158 337.94 236.128C337.38 236.688 336.85 237.278 336.37 237.898L336.38 237.908ZM356.44 247.678C358.27 242.828 362.11 240.678 367.53 241.448C367.66 241.468 367.8 241.458 367.92 241.428C368.39 244.518 368.7 247.658 368.91 250.808C364.01 252.008 360.09 251.858 356.22 247.998C356.31 247.908 356.38 247.798 356.43 247.678H356.44ZM354.41 230.838C359.51 229.848 362.96 230.358 364.95 232.408C366.44 233.938 366.99 236.268 367.39 238.328C367.46 238.718 367.52 239.108 367.59 239.498C361.57 238.708 357.07 241.158 354.85 246.428C352.7 243.488 352.42 240.118 352.12 236.558C351.99 234.928 351.85 233.238 351.53 231.518C351.53 231.508 351.53 231.498 351.52 231.488C352.44 231.258 353.4 231.048 354.41 230.848V230.838Z" fill="#849E2A"/>
<path d="M293.15 381.458C331.33 381.458 363.01 399.158 369.05 422.368C369.74 418.048 370.09 414.668 370.09 412.598C370.09 385.548 335.64 363.628 293.15 363.628C250.66 363.628 216.21 385.558 216.21 412.598C216.21 417.028 216.24 421.758 216.42 426.768C219.37 401.438 252.59 381.468 293.15 381.468V381.458Z" fill="#006D68"/>
<path d="M361.47 524.128C361.47 524.128 368.96 440.058 368.96 430.438C368.96 404.068 334.96 382.608 293.16 382.608C251.36 382.608 217.36 404.068 217.36 430.438C217.36 448.998 224.94 524.128 224.94 524.128H222.65C222.65 524.128 215.08 449.028 215.08 430.438C215.08 402.808 250.11 380.328 293.16 380.328C336.21 380.328 371.24 402.808 371.24 430.438C371.24 440.268 363.77 524.128 363.77 524.128H361.48H361.47Z" fill="#AECC53"/>
<path d="M274.32 187.698H205.81L294.68 47.1777L293.83 216.798L274.32 187.698Z" fill="#BED675"/>
<g style="mix-blend-mode:multiply">
<path d="M294.68 218.058L274.32 186.428L294.68 47.1777V218.058Z" fill="#A9C753"/>
</g>
<path d="M310.11 154.468C309.74 154.468 309.41 154.198 309.35 153.818L293.92 48.0575C293.86 47.6375 294.15 47.2475 294.57 47.1875C294.98 47.1275 295.38 47.4175 295.44 47.8375L310.87 153.598C310.93 154.018 310.64 154.408 310.22 154.468C310.18 154.468 310.14 154.468 310.11 154.468Z" fill="#ADCB53"/>
<path d="M315.03 188.468C314.66 188.468 314.33 188.198 314.27 187.808L311.47 168.478C311.41 168.058 311.7 167.668 312.12 167.608C312.51 167.548 312.92 167.838 312.99 168.258L315.79 187.588C315.85 188.008 315.56 188.398 315.14 188.458C315.1 188.458 315.07 188.458 315.03 188.458V188.468Z" fill="#ADCB53"/>
<path d="M294.68 218.908C294.4 218.908 294.14 218.768 293.98 218.538L273.88 188.548H206.05C205.58 188.548 205.21 188.168 205.21 187.708C205.21 187.248 205.59 186.868 206.05 186.868H274.33C274.61 186.868 274.87 187.008 275.03 187.238L294.69 216.558L314.35 187.238C314.51 187.008 314.77 186.868 315.05 186.868H383.32C383.79 186.868 384.16 187.248 384.16 187.708C384.16 188.168 383.78 188.548 383.32 188.548H315.5L295.4 218.538C295.24 218.768 294.98 218.908 294.7 218.908H294.68Z" fill="#ADCB53"/>
<path d="M244.07 206.758C243.99 206.758 243.91 206.748 243.83 206.718C243.43 206.588 243.21 206.158 243.34 205.748L247.83 192.048C247.96 191.648 248.4 191.428 248.8 191.558C249.2 191.688 249.42 192.118 249.29 192.528L244.8 206.228C244.69 206.548 244.4 206.758 244.07 206.758Z" fill="#A9C753"/>
<path d="M378.71 241.078C378.42 241.078 378.14 240.908 378.01 240.628L354.32 188.318C354.14 187.928 354.32 187.478 354.7 187.308C355.08 187.128 355.54 187.308 355.71 187.688L379.4 239.998C379.58 240.388 379.4 240.838 379.02 241.008C378.92 241.058 378.81 241.078 378.7 241.078H378.71Z" fill="#A9C753"/>
<path d="M221.33 229.378C221.23 229.378 221.13 229.358 221.04 229.318C220.65 229.158 220.46 228.708 220.62 228.318L237.14 188.168C237.3 187.778 237.74 187.588 238.14 187.748C238.53 187.908 238.72 188.358 238.56 188.748L222.04 228.898C221.92 229.198 221.63 229.368 221.33 229.368V229.378Z" fill="#A9C753"/>
<path d="M333.21 213.998C332.87 213.998 332.56 213.768 332.47 213.428L326.07 189.038C325.96 188.628 326.21 188.208 326.61 188.108C327.03 187.998 327.44 188.248 327.54 188.658L333.94 213.048C334.05 213.458 333.8 213.878 333.4 213.978C333.33 213.998 333.27 214.008 333.2 214.008L333.21 213.998Z" fill="#A9C753"/>
<path d="M206.22 187.808L205.87 187.588L294.5 47.8276L294.86 48.0576L206.22 187.808Z" fill="white"/>
<path d="M206.05 188.548C205.89 188.548 205.74 188.508 205.6 188.418C205.21 188.168 205.09 187.648 205.34 187.258L293.97 47.4979C294.28 47.0079 295.08 47.0079 295.4 47.4979L384.03 187.248C384.28 187.638 384.16 188.158 383.77 188.408C383.38 188.658 382.86 188.548 382.61 188.148L294.69 49.5179L206.77 188.148C206.61 188.398 206.33 188.538 206.06 188.538L206.05 188.548Z" fill="#ADCB53"/>
<path d="M110.409 171.248C108.969 181.828 99.8291 190.048 88.8691 190.048C77.9091 190.048 68.7791 181.828 67.3291 171.248" stroke="#006D68" stroke-width="2.06" stroke-linecap="round" stroke-linejoin="round"/>
<path d="M107.28 171.148C107.42 169.448 108.91 168.178 110.61 168.308C112.31 168.448 113.58 169.938 113.45 171.638C113.32 173.338 111.82 174.608 110.12 174.478C108.42 174.338 107.15 172.848 107.28 171.148Z" fill="#006D68"/>
<path d="M70.4692 171.148C70.3292 169.448 68.8392 168.178 67.1392 168.308C65.4392 168.448 64.1692 169.938 64.2992 171.638C64.4392 173.338 65.9292 174.608 67.6292 174.478C69.3292 174.338 70.5992 172.848 70.4692 171.148Z" fill="#006D68"/>
<path d="M121.059 200.908C119.559 217.318 105.659 230.288 88.8792 230.288C72.0992 230.288 58.1892 217.318 56.6992 200.908" stroke="#006D68" stroke-width="2.06" stroke-linecap="round" stroke-linejoin="round"/>
<path d="M117.94 200.908C118.03 199.198 119.48 197.888 121.19 197.978C122.9 198.068 124.21 199.518 124.12 201.228C124.03 202.938 122.58 204.248 120.87 204.158C119.16 204.068 117.85 202.618 117.94 200.908Z" fill="#006D68"/>
<path d="M59.7996 200.908C59.7096 199.198 58.2596 197.888 56.5496 197.978C54.8396 198.068 53.5296 199.518 53.6196 201.228C53.7096 202.938 55.1596 204.248 56.8696 204.158C58.5796 204.068 59.8896 202.618 59.7996 200.908Z" fill="#006D68"/>
<path d="M88.8799 145.098V287.188" stroke="#006D68" stroke-width="2.06" stroke-linecap="round" stroke-linejoin="round"/>
<path d="M85.79 145.258C85.79 143.548 87.18 142.168 88.88 142.168C90.58 142.168 91.97 143.558 91.97 145.258C91.97 146.958 90.58 148.348 88.88 148.348C87.18 148.348 85.79 146.958 85.79 145.258Z" fill="#006D68"/>
<path d="M542.039 417.568H495.159V495.458H542.039V417.568Z" stroke="#006D68" stroke-width="1.5" stroke-linecap="round" stroke-linejoin="round"/>
<path d="M537.229 425.358H499.969V440.298H537.229V425.358Z" fill="#A9C753"/>
<path d="M537.229 448.958H499.969V463.898H537.229V448.958Z" fill="#A9C753"/>
<path d="M537.229 472.558H499.969V487.498H537.229V472.558Z" fill="#A9C753"/>
<path d="M527.969 409.228H508.699V417.558H527.969V409.228Z" stroke="#006D68" stroke-width="1.5" stroke-linecap="round" stroke-linejoin="round"/>
<path d="M158.029 288.458H94.3789" stroke="#ADCB53" stroke-width="1.54" stroke-linecap="round" stroke-linejoin="round"/>
<path d="M178.689 288.458H64.0293" stroke="#A9C753" stroke-width="1.54" stroke-linecap="round" stroke-linejoin="round"/>
<path d="M164.649 287.478V239.798" stroke="#ADCB53" stroke-width="1.54" stroke-linecap="round" stroke-linejoin="round"/>
<path d="M164.649 243.448C166.571 243.448 168.129 241.89 168.129 239.968C168.129 238.046 166.571 236.488 164.649 236.488C162.727 236.488 161.169 238.046 161.169 239.968C161.169 241.89 162.727 243.448 164.649 243.448Z" fill="#ADCB53"/>
<path d="M175.58 287.238V252.658" stroke="#ADCB53" stroke-width="1.54" stroke-linecap="round" stroke-linejoin="round"/>
<path d="M179.06 252.828C179.06 250.908 177.5 249.348 175.58 249.348C173.66 249.348 172.1 250.908 172.1 252.828C172.1 254.748 173.66 256.308 175.58 256.308C177.5 256.308 179.06 254.748 179.06 252.828Z" fill="#ADCB53"/>
<path d="M115.369 269.988L124.289 251.248C128.489 242.428 141.049 242.428 145.249 251.248L160.819 288.448" stroke="#A9C753" stroke-width="1.54" stroke-linecap="round" stroke-linejoin="round"/>
<path d="M122.449 283.848C125.199 277.858 127.949 271.878 130.699 265.888C131.779 263.538 132.889 261.138 134.629 259.228C137.149 256.458 140.779 255.698 144.259 256.968C145.279 257.338 148.199 259.038 149.289 260.898" stroke="#A9C753" stroke-width="1.54" stroke-linecap="round" stroke-linejoin="round"/>
<path d="M98.9492 287.518L106.499 271.478C108.459 267.368 114.299 267.368 116.259 271.478L123.899 287.518" stroke="#A9C753" stroke-width="1.54" stroke-linecap="round" stroke-linejoin="round"/>
<path d="M157.619 280.458C155.719 276.948 152.979 272.488 148.479 272.578C145.969 272.628 143.589 273.888 141.759 275.608C138.049 279.118 136.579 283.608 134.579 288.128" stroke="#A9C753" stroke-width="1.54" stroke-linecap="round" stroke-linejoin="round"/>
<path d="M179.239 292.918H64.7793V301.698H179.239V292.918Z" fill="#006D68"/>
<path d="M179.24 302.298H64.7797C64.4497 302.298 64.1797 302.028 64.1797 301.698V292.918C64.1797 292.588 64.4497 292.318 64.7797 292.318H179.24C179.57 292.318 179.84 292.588 179.84 292.918V301.698C179.84 302.028 179.57 302.298 179.24 302.298ZM65.3797 301.098H178.65V293.508H65.3797V301.098Z" fill="#006D68"/>
<path d="M99.6794 376.298C99.6794 376.298 99.6794 376.298 99.6694 376.298C99.3694 376.298 99.1294 376.037 99.1294 375.737C99.2194 371.627 99.0994 367.767 98.9994 364.367C98.7094 354.617 98.4994 347.567 102.989 343.337C107.109 339.457 115.139 338.298 129.049 339.548C132.269 339.508 135.029 339.558 137.469 339.608C143.829 339.728 147.339 339.788 149.029 338.078C151.039 336.048 150.919 331.298 150.639 320.888V320.497C150.619 320.197 150.859 319.947 151.159 319.938C151.459 319.938 151.709 320.167 151.719 320.467V320.858C152.009 331.588 152.139 336.488 149.799 338.848C147.779 340.888 144.109 340.828 137.439 340.698C135.009 340.658 132.259 340.608 128.999 340.638C115.379 339.408 107.599 340.488 103.729 344.128C99.5894 348.028 99.7994 354.858 100.079 364.328C100.179 367.738 100.299 371.607 100.209 375.747C100.209 376.047 99.9594 376.288 99.6594 376.288L99.6794 376.298Z" fill="#706F6F"/>
<path d="M100.879 375.688C100.879 376.368 100.329 376.928 99.6394 376.928C98.9594 376.928 98.3994 376.378 98.3994 375.688C98.3994 375.008 98.9494 374.448 99.6394 374.448C100.319 374.448 100.879 374.998 100.879 375.688Z" fill="#706F6F"/>
<path d="M152.419 320.518C152.399 319.838 151.839 319.298 151.159 319.308C150.479 319.328 149.939 319.888 149.949 320.568C149.969 321.248 150.529 321.788 151.219 321.778C151.899 321.758 152.439 321.198 152.429 320.518H152.419Z" fill="#706F6F"/>
<path d="M102.85 376.298C102.56 376.298 102.31 376.068 102.3 375.768C101.54 356.378 101.92 347.568 106.25 343.148C110.28 339.038 117.37 339.168 130.24 339.418C134.44 339.498 139.21 339.588 144.67 339.548C144.97 339.548 145.22 339.788 145.22 340.088C145.22 340.388 144.98 340.638 144.68 340.638C139.2 340.678 134.43 340.588 130.22 340.508C117.66 340.268 110.73 340.128 107.03 343.908C103.01 348.008 102.66 357.038 103.39 375.718C103.4 376.018 103.17 376.278 102.86 376.288C102.86 376.288 102.85 376.288 102.84 376.288L102.85 376.298Z" fill="#706F6F"/>
<path d="M104.109 375.658C104.129 376.338 103.589 376.908 102.899 376.928C102.209 376.948 101.649 376.408 101.629 375.718C101.609 375.028 102.149 374.468 102.839 374.448C103.529 374.428 104.089 374.968 104.109 375.658Z" fill="#706F6F"/>
<path d="M144.61 341.318C145.29 341.318 145.85 340.768 145.85 340.088C145.85 339.408 145.3 338.848 144.62 338.848C143.94 338.848 143.38 339.398 143.38 340.078C143.38 340.758 143.93 341.318 144.61 341.318Z" fill="#706F6F"/>
<path d="M96.3996 376.297C96.0996 376.297 95.8496 376.047 95.8496 375.747V353.717C95.8496 348.927 96.9796 345.497 99.3096 343.217C103.49 339.117 111.06 339.277 119.83 339.457C121.75 339.497 123.73 339.537 125.77 339.537H144.69C144.99 339.537 145.24 339.787 145.24 340.087C145.24 340.387 144.99 340.637 144.69 340.637H125.77C123.73 340.637 121.74 340.597 119.81 340.557C111.29 340.377 103.94 340.227 100.08 343.997C97.9796 346.057 96.9496 349.237 96.9496 353.707V375.737C96.9496 376.037 96.6996 376.287 96.3996 376.287V376.297Z" fill="#706F6F"/>
<path d="M97.6294 375.688C97.6294 376.368 97.0794 376.928 96.3894 376.928C95.6994 376.928 95.1494 376.378 95.1494 375.688C95.1494 374.998 95.6994 374.448 96.3894 374.448C97.0794 374.448 97.6294 374.998 97.6294 375.688Z" fill="#706F6F"/>
<path d="M144.62 341.328C145.3 341.328 145.86 340.778 145.86 340.088C145.86 339.398 145.31 338.848 144.62 338.848C143.93 338.848 143.38 339.398 143.38 340.088C143.38 340.778 143.93 341.328 144.62 341.328Z" fill="#706F6F"/>
<path d="M99.6294 422.388C99.3294 422.388 99.0894 422.148 99.0794 421.848C99.0494 419.508 99.0094 417.318 98.9694 415.258C98.6994 401.338 98.5494 393.668 102.829 389.488C107.439 384.978 116.959 384.848 136.089 385.638C137.379 385.458 138.989 385.548 140.689 385.638C144.879 385.858 149.219 386.088 150.379 382.238C150.469 381.948 150.769 381.788 151.059 381.868C151.349 381.958 151.509 382.258 151.429 382.548C150.019 387.218 145.029 386.948 140.629 386.718C138.979 386.628 137.429 386.548 136.139 386.718C116.529 385.918 107.709 386.238 103.589 390.258C99.6594 394.108 99.7994 401.608 100.059 415.228C100.099 417.288 100.139 419.478 100.169 421.828C100.169 422.128 99.9294 422.378 99.6294 422.388Z" fill="#706F6F"/>
<path d="M100.859 421.758C100.869 422.438 100.329 423.008 99.639 423.018C98.959 423.028 98.389 422.488 98.379 421.798C98.369 421.118 98.909 420.548 99.599 420.538C100.279 420.528 100.849 421.068 100.859 421.758Z" fill="#706F6F"/>
<path d="M152.089 382.728C152.239 382.058 151.819 381.398 151.149 381.248C150.479 381.098 149.819 381.518 149.669 382.188C149.519 382.858 149.939 383.518 150.609 383.668C151.279 383.818 151.939 383.398 152.089 382.728Z" fill="#706F6F"/>
<path d="M102.85 422.388C102.56 422.388 102.31 422.158 102.3 421.858C101.54 402.468 101.92 393.658 106.25 389.238C110.28 385.128 117.37 385.268 130.24 385.508C134.44 385.588 139.21 385.678 144.67 385.638C145.02 385.628 145.22 385.878 145.22 386.178C145.22 386.478 144.98 386.728 144.68 386.728C139.2 386.768 134.43 386.678 130.22 386.598C117.66 386.348 110.73 386.218 107.03 389.998C103.01 394.098 102.66 403.128 103.39 421.808C103.4 422.108 103.17 422.368 102.86 422.378C102.86 422.378 102.85 422.378 102.84 422.378L102.85 422.388Z" fill="#706F6F"/>
<path d="M104.109 421.748C104.129 422.428 103.589 422.998 102.899 423.018C102.219 423.038 101.649 422.498 101.629 421.818C101.609 421.138 102.149 420.568 102.839 420.548C103.529 420.528 104.089 421.068 104.109 421.758V421.748Z" fill="#706F6F"/>
<path d="M144.61 387.418C145.29 387.418 145.85 386.868 145.85 386.188C145.85 385.508 145.3 384.948 144.62 384.948C143.94 384.948 143.38 385.498 143.38 386.178C143.38 386.858 143.93 387.418 144.61 387.418Z" fill="#706F6F"/>
<path d="M96.3996 422.387C96.0996 422.387 95.8496 422.137 95.8496 421.837V399.807C95.8496 395.017 96.9796 391.587 99.3096 389.307C103.49 385.207 111.06 385.367 119.83 385.547C121.75 385.587 123.73 385.627 125.76 385.627H144.68C144.98 385.627 145.23 385.877 145.23 386.177C145.23 386.477 144.98 386.727 144.68 386.727H125.76C123.72 386.727 121.73 386.687 119.8 386.647C111.28 386.467 103.93 386.317 100.07 390.087C97.9696 392.147 96.9396 395.327 96.9396 399.797V421.827C96.9396 422.127 96.6896 422.377 96.3896 422.377L96.3996 422.387Z" fill="#706F6F"/>
<path d="M97.6294 421.778C97.6294 422.458 97.0794 423.018 96.3894 423.018C95.6994 423.018 95.1494 422.468 95.1494 421.778C95.1494 421.088 95.6994 420.538 96.3894 420.538C97.0794 420.538 97.6294 421.088 97.6294 421.778Z" fill="#706F6F"/>
<path d="M144.62 387.418C145.3 387.418 145.86 386.867 145.86 386.177C145.86 385.487 145.31 384.938 144.62 384.938C143.93 384.938 143.38 385.487 143.38 386.177C143.38 386.867 143.93 387.418 144.62 387.418Z" fill="#706F6F"/>
<path d="M99.6294 464.648C99.3294 464.648 99.0894 464.408 99.0794 464.108C99.0494 461.768 99.0094 459.578 98.9694 457.518C98.6994 443.598 98.5494 435.928 102.829 431.748C107.439 427.238 116.959 427.108 136.089 427.898C137.389 427.718 138.989 427.808 140.689 427.898C144.889 428.118 149.219 428.348 150.379 424.498C150.469 424.208 150.769 424.048 151.059 424.128C151.349 424.218 151.509 424.518 151.429 424.808C150.019 429.478 145.029 429.218 140.629 428.978C138.979 428.888 137.429 428.808 136.139 428.978C116.529 428.178 107.709 428.498 103.589 432.518C99.6594 436.368 99.7994 443.868 100.059 457.488C100.099 459.548 100.139 461.738 100.169 464.088C100.169 464.388 99.9294 464.638 99.6294 464.648Z" fill="#706F6F"/>
<path d="M100.859 464.018C100.869 464.698 100.329 465.268 99.639 465.278C98.959 465.288 98.389 464.748 98.379 464.058C98.369 463.378 98.909 462.808 99.599 462.798C100.279 462.788 100.849 463.328 100.859 464.018Z" fill="#706F6F"/>
<path d="M152.089 424.988C152.239 424.318 151.819 423.658 151.149 423.508C150.479 423.358 149.819 423.778 149.669 424.448C149.519 425.118 149.939 425.778 150.609 425.928C151.279 426.078 151.939 425.658 152.089 424.988Z" fill="#706F6F"/>
<path d="M102.85 464.648C102.56 464.648 102.31 464.418 102.3 464.118C101.54 444.728 101.92 435.918 106.25 431.498C110.28 427.388 117.37 427.528 130.24 427.768C134.44 427.848 139.21 427.938 144.67 427.898C144.97 427.898 145.22 428.138 145.22 428.438C145.22 428.738 144.98 428.988 144.68 428.988C139.2 429.028 134.43 428.938 130.22 428.858C117.66 428.618 110.73 428.478 107.03 432.258C103.01 436.358 102.66 445.388 103.39 464.068C103.4 464.368 103.17 464.628 102.86 464.638C102.86 464.638 102.85 464.638 102.84 464.638L102.85 464.648Z" fill="#706F6F"/>
<path d="M104.109 464.008C104.129 464.688 103.589 465.258 102.899 465.278C102.219 465.298 101.649 464.758 101.629 464.068C101.609 463.388 102.149 462.818 102.839 462.798C103.529 462.778 104.089 463.318 104.109 464.008Z" fill="#706F6F"/>
<path d="M144.61 429.668C145.29 429.668 145.85 429.118 145.85 428.438C145.85 427.758 145.3 427.198 144.62 427.198C143.94 427.198 143.38 427.748 143.38 428.428C143.38 429.108 143.93 429.668 144.61 429.668Z" fill="#706F6F"/>
<path d="M96.3996 464.648C96.0996 464.648 95.8496 464.398 95.8496 464.098V442.068C95.8496 437.278 96.9796 433.848 99.3096 431.568C103.49 427.468 111.06 427.628 119.83 427.808C121.75 427.848 123.73 427.888 125.77 427.888H144.69C144.99 427.888 145.24 428.138 145.24 428.438C145.24 428.738 144.99 428.988 144.69 428.988H125.77C123.73 428.988 121.74 428.948 119.81 428.908C111.29 428.728 103.94 428.578 100.08 432.348C97.9796 434.408 96.9496 437.588 96.9496 442.058V464.088C96.9496 464.388 96.6996 464.638 96.3996 464.638V464.648Z" fill="#706F6F"/>
<path d="M97.6294 464.038C97.6294 464.718 97.0794 465.278 96.3894 465.278C95.6994 465.278 95.1494 464.728 95.1494 464.038C95.1494 463.348 95.6994 462.798 96.3894 462.798C97.0794 462.798 97.6294 463.348 97.6294 464.038Z" fill="#706F6F"/>
<path d="M144.62 429.678C145.3 429.678 145.86 429.128 145.86 428.438C145.86 427.748 145.31 427.198 144.62 427.198C143.93 427.198 143.38 427.748 143.38 428.438C143.38 429.128 143.93 429.678 144.62 429.678Z" fill="#706F6F"/>
<path d="M178.599 301.948H65.0293V505.268H178.599V301.948Z" fill="#003834"/>
<path d="M177.75 302.788V504.418H65.8697V302.788H177.75ZM178.84 301.098H64.7797C64.4497 301.098 64.1797 301.368 64.1797 301.698V505.518C64.1797 505.848 64.4497 506.118 64.7797 506.118H178.84C179.17 506.118 179.44 505.848 179.44 505.518V301.698C179.44 301.368 179.17 301.098 178.84 301.098Z" fill="#006D68"/>
<path d="M165.09 345.838H78.5299C67.4399 346.138 71.7999 328.608 70.9899 322.198C70.9899 318.038 74.3699 314.658 78.5299 314.658H165.09C169.25 314.658 172.63 318.038 172.63 322.198C171.69 328.628 176.27 346.128 165.09 345.838Z" fill="#006D68"/>
<path d="M103.36 333.998H80.8701C78.8001 333.998 77.1201 332.318 77.1201 330.248C77.1201 328.178 78.8001 326.498 80.8701 326.498H103.36C108.22 326.428 108.23 334.068 103.36 333.998Z" fill="black"/>
<path d="M118.06 334.488C116.03 334.488 113.95 334.268 112.75 333.078C112.07 332.398 111.73 331.468 111.75 330.308C111.73 329.168 112.06 328.238 112.74 327.558C114.32 325.998 117.43 326.108 119.93 326.188C120.73 326.218 121.49 326.238 122.08 326.208C123.58 326.188 124.81 326.838 125.52 328.058C126.31 329.408 126.31 331.228 125.52 332.578C124.81 333.788 123.6 334.468 122.1 334.428H122.08C121.49 334.388 120.72 334.418 119.91 334.448C119.32 334.468 118.69 334.488 118.05 334.488H118.06ZM118.06 326.878C116.17 326.878 114.27 327.068 113.25 328.078C112.7 328.618 112.45 329.348 112.47 330.318C112.45 331.298 112.71 332.038 113.25 332.578C114.61 333.918 117.54 333.818 119.89 333.738C120.71 333.708 121.49 333.678 122.12 333.718C123.33 333.698 124.33 333.208 124.9 332.228C125.56 331.098 125.56 329.568 124.9 328.438C124.33 327.458 123.32 326.928 122.11 326.948C121.5 326.988 120.73 326.958 119.91 326.928C119.32 326.908 118.69 326.888 118.06 326.888V326.878Z" fill="#A8C653"/>
<path d="M119.09 331.558C118.82 331.558 118.6 331.338 118.6 331.068V310.558C118.6 307.228 119.47 304.758 121.26 302.998C125.13 299.208 132.56 299.358 141.96 299.548C144.05 299.588 146.21 299.638 148.44 299.638H170.59C170.86 299.638 171.08 299.858 171.08 300.128C171.08 300.398 170.86 300.618 170.59 300.618H148.44C146.21 300.618 144.03 300.578 141.94 300.528C133.13 300.348 125.51 300.198 121.93 303.698C120.33 305.258 119.56 307.508 119.56 310.558V331.068C119.56 331.338 119.34 331.558 119.07 331.558H119.09Z" fill="#A8C653"/>
<path d="M119.089 332.118C119.697 332.118 120.189 331.625 120.189 331.018C120.189 330.41 119.697 329.918 119.089 329.918C118.482 329.918 117.989 330.41 117.989 331.018C117.989 331.625 118.482 332.118 119.089 332.118Z" fill="#A8C653"/>
<path d="M122.34 331.558C122.07 331.558 121.85 331.338 121.85 331.068V310.558C121.85 307.288 122.69 304.878 124.43 303.198C128.08 299.668 135.03 299.888 143.83 300.178C146.36 300.258 148.98 300.348 151.7 300.348H170.6C170.87 300.348 171.09 300.568 171.09 300.838C171.09 301.108 170.87 301.328 170.6 301.328H151.7C148.96 301.328 146.34 301.238 143.8 301.158C135.23 300.878 128.46 300.658 125.11 303.908C123.58 305.398 122.83 307.568 122.83 310.568V331.078C122.83 331.348 122.61 331.568 122.34 331.568V331.558Z" fill="#A8C653"/>
<path d="M122.339 332.118C122.947 332.118 123.439 331.625 123.439 331.018C123.439 330.41 122.947 329.918 122.339 329.918C121.732 329.918 121.239 330.41 121.239 331.018C121.239 331.625 121.732 332.118 122.339 332.118Z" fill="#A8C653"/>
<path d="M115.84 331.558C115.57 331.558 115.35 331.338 115.35 331.068V310.558C115.35 307.228 116.22 304.758 118.01 302.998C121.88 299.208 129.31 299.358 138.71 299.548C140.8 299.588 142.96 299.638 145.19 299.638H170.59C170.86 299.638 171.08 299.858 171.08 300.128C171.08 300.398 170.86 300.618 170.59 300.618H145.19C142.96 300.618 140.78 300.578 138.69 300.528C129.87 300.348 122.26 300.198 118.68 303.698C117.08 305.258 116.31 307.508 116.31 310.558V331.068C116.31 331.338 116.09 331.558 115.82 331.558H115.84Z" fill="#A8C653"/>
<path d="M115.839 332.118C116.447 332.118 116.939 331.625 116.939 331.018C116.939 330.41 116.447 329.918 115.839 329.918C115.232 329.918 114.739 330.41 114.739 331.018C114.739 331.625 115.232 332.118 115.839 332.118Z" fill="#A8C653"/>
<path d="M168.04 324.698H136.83V335.798H168.04V324.698Z" fill="black"/>
<path d="M82.1 331.318C80.57 331.318 80.81 328.888 82.31 329.188C83.55 329.408 83.36 331.348 82.1 331.318Z" fill="#A8C653"/>
<path d="M94.8002 330.248C94.8002 329.658 95.2802 329.178 95.8702 329.178C96.4602 329.178 96.9402 329.658 96.9402 330.248C96.9402 330.838 96.4602 331.318 95.8702 331.318C95.2802 331.318 94.8002 330.838 94.8002 330.248ZM87.9102 330.248C87.9102 329.658 88.3902 329.178 88.9802 329.178C89.5702 329.178 90.0502 329.658 90.0502 330.248C90.0502 330.838 89.5702 331.318 88.9802 331.318C88.3902 331.318 87.9102 330.838 87.9102 330.248Z" fill="#A8C653"/>
<path d="M102.76 331.318C101.23 331.318 101.46 328.888 102.97 329.188C104.21 329.408 104.02 331.348 102.76 331.318Z" fill="#A8C653"/>
<path d="M165.09 391.928H78.5299C67.4399 392.228 71.7999 374.698 70.9899 368.288C70.9899 364.128 74.3699 360.748 78.5299 360.748H165.09C169.25 360.748 172.63 364.128 172.63 368.288C171.69 374.718 176.27 392.218 165.09 391.928Z" fill="#006D68"/>
<path d="M168.04 370.788H136.83V381.888H168.04V370.788Z" fill="black"/>
<path d="M103.36 380.088H80.8701C78.8001 380.088 77.1201 378.408 77.1201 376.338C77.1201 374.268 78.8001 372.588 80.8701 372.588H103.36C108.22 372.518 108.23 380.158 103.36 380.088Z" fill="black"/>
<path d="M118.06 380.508C116.03 380.508 113.95 380.288 112.75 379.098C112.07 378.418 111.73 377.488 111.75 376.328C111.73 375.188 112.06 374.258 112.74 373.578C114.32 372.018 117.43 372.128 119.93 372.208C120.73 372.238 121.49 372.268 122.08 372.228C123.59 372.198 124.81 372.858 125.52 374.078C126.31 375.428 126.31 377.248 125.52 378.598C124.81 379.808 123.6 380.478 122.1 380.448H122.08C121.49 380.408 120.72 380.438 119.91 380.468C119.32 380.488 118.69 380.508 118.05 380.508H118.06ZM118.06 372.888C116.17 372.888 114.27 373.078 113.25 374.088C112.7 374.628 112.45 375.358 112.47 376.328C112.45 377.308 112.71 378.048 113.25 378.588C114.61 379.928 117.54 379.828 119.89 379.748C120.71 379.718 121.49 379.688 122.12 379.728C123.35 379.728 124.33 379.218 124.9 378.238C125.56 377.108 125.56 375.578 124.9 374.448C124.33 373.468 123.34 372.938 122.11 372.958C121.51 372.998 120.73 372.958 119.91 372.938C119.32 372.918 118.69 372.898 118.06 372.898V372.888Z" fill="#A8C653"/>
<path d="M82.0997 377.418C80.0897 377.298 81.3497 374.268 82.8597 375.578C83.5397 376.218 83.0297 377.438 82.0997 377.418Z" fill="#A8C653"/>
<path d="M94.8002 376.338C94.8002 375.748 95.2802 375.268 95.8702 375.268C96.4602 375.268 96.9402 375.748 96.9402 376.338C96.9402 376.928 96.4602 377.408 95.8702 377.408C95.2802 377.408 94.8002 376.928 94.8002 376.338ZM87.9102 376.338C87.9102 375.748 88.3902 375.268 88.9902 375.268C89.5902 375.268 90.0602 375.748 90.0602 376.338C90.0602 376.928 89.5802 377.408 88.9902 377.408C88.4002 377.408 87.9102 376.928 87.9102 376.338Z" fill="#A8C653"/>
<path d="M102.76 377.418C101.23 377.418 101.47 374.988 102.97 375.288C104.21 375.508 104.02 377.448 102.76 377.418Z" fill="#A8C653"/>
<path d="M119.03 376.298C118.74 376.298 118.5 376.068 118.48 375.778C117.62 357.808 118.01 347.838 122.52 343.208C126.66 338.958 134.1 339.128 146.42 339.408C151.27 339.518 156.77 339.638 163.2 339.538C167.75 339.548 169.78 338.248 170.04 335.108V300.578C170.04 300.278 170.28 300.028 170.59 300.028C170.9 300.028 171.14 300.278 171.14 300.578V335.148C170.74 340.118 166.41 340.628 163.21 340.628C156.77 340.728 151.26 340.608 146.4 340.498C134.38 340.228 127.12 340.058 123.31 343.968C119.08 348.308 118.73 358.058 119.58 375.718C119.59 376.018 119.36 376.278 119.06 376.288C119.06 376.288 119.04 376.288 119.03 376.288V376.298Z" fill="#A8C653"/>
<path d="M120.29 375.648C120.31 376.328 119.77 376.898 119.09 376.918C118.41 376.938 117.84 376.398 117.82 375.718C117.8 375.038 118.34 374.468 119.02 374.448C119.7 374.428 120.27 374.968 120.29 375.648Z" fill="#A8C653"/>
<path d="M171.83 300.648C171.83 299.968 171.28 299.408 170.59 299.408C169.9 299.408 169.35 299.958 169.35 300.648C169.35 301.338 169.9 301.888 170.59 301.888C171.28 301.888 171.83 301.338 171.83 300.648Z" fill="#A8C653"/>
<path d="M122.3 376.298C122.01 376.298 121.76 376.068 121.75 375.768C120.99 356.378 121.37 347.568 125.7 343.148C129.73 339.038 136.82 339.168 149.69 339.418C153.89 339.498 158.66 339.588 164.12 339.548C164.42 339.548 164.67 339.788 164.67 340.088C164.67 340.388 164.43 340.638 164.13 340.638C158.65 340.678 153.88 340.588 149.67 340.508C137.11 340.268 130.18 340.128 126.48 343.908C122.46 348.008 122.11 357.038 122.84 375.718C122.85 376.018 122.62 376.278 122.31 376.288C122.31 376.288 122.3 376.288 122.29 376.288L122.3 376.298Z" fill="#A8C653"/>
<path d="M123.55 375.658C123.57 376.338 123.03 376.908 122.35 376.928C121.67 376.948 121.1 376.408 121.08 375.718C121.06 375.028 121.6 374.468 122.29 374.448C122.98 374.428 123.54 374.968 123.56 375.658H123.55Z" fill="#A8C653"/>
<path d="M164.049 341.318C164.729 341.318 165.289 340.768 165.289 340.088C165.289 339.408 164.739 338.848 164.059 338.848C163.379 338.848 162.819 339.398 162.819 340.078C162.819 340.758 163.369 341.318 164.049 341.318Z" fill="#A8C653"/>
<path d="M115.84 376.297C115.54 376.297 115.29 376.047 115.29 375.747V353.717C115.29 348.927 116.42 345.497 118.75 343.217C122.93 339.117 130.5 339.277 139.27 339.457C141.19 339.497 143.17 339.537 145.21 339.537H164.13C164.43 339.537 164.68 339.787 164.68 340.087C164.68 340.387 164.43 340.637 164.13 340.637H145.21C143.17 340.637 141.18 340.597 139.25 340.557C130.73 340.377 123.38 340.227 119.52 343.997C117.42 346.057 116.39 349.237 116.39 353.707V375.737C116.39 376.037 116.14 376.287 115.84 376.287V376.297Z" fill="#A8C653"/>
<path d="M117.07 375.688C117.07 376.368 116.52 376.928 115.83 376.928C115.14 376.928 114.59 376.378 114.59 375.688C114.59 374.998 115.14 374.448 115.83 374.448C116.52 374.448 117.07 374.998 117.07 375.688Z" fill="#A8C653"/>
<path d="M164.06 341.328C164.74 341.328 165.3 340.778 165.3 340.088C165.3 339.398 164.75 338.848 164.06 338.848C163.37 338.848 162.82 339.398 162.82 340.088C162.82 340.778 163.37 341.328 164.06 341.328Z" fill="#A8C653"/>
<path d="M165.09 438.018H78.5299C67.4399 438.318 71.7999 420.788 70.9899 414.378C70.9899 410.218 74.3699 406.838 78.5299 406.838H165.09C169.25 406.838 172.63 410.218 172.63 414.378C171.69 420.808 176.27 438.308 165.09 438.018Z" fill="#006D68"/>
<path d="M168.04 416.878H136.83V427.978H168.04V416.878Z" fill="black"/>
<path d="M103.36 426.178H80.8701C78.8001 426.178 77.1201 424.498 77.1201 422.428C77.1201 420.358 78.8001 418.678 80.8701 418.678H103.36C108.22 418.608 108.23 426.248 103.36 426.178Z" fill="black"/>
<path d="M82.1 423.508C80.57 423.508 80.81 421.078 82.31 421.378C83.55 421.588 83.36 423.538 82.1 423.508Z" fill="#A8C653"/>
<path d="M94.8002 422.428C94.8002 421.838 95.2802 421.358 95.8702 421.358C96.4602 421.358 96.9402 421.838 96.9402 422.428C96.9402 423.018 96.4602 423.498 95.8702 423.498C95.2802 423.498 94.8002 423.018 94.8002 422.428ZM87.9102 422.428C87.9102 421.838 88.3902 421.358 88.9802 421.358C89.5702 421.358 90.0502 421.838 90.0502 422.428C90.0502 423.018 89.5702 423.498 88.9802 423.498C88.3902 423.498 87.9102 423.018 87.9102 422.428Z" fill="#A8C653"/>
<path d="M102.76 423.508C101.83 423.538 101.32 422.308 102 421.678C103.51 420.358 104.76 423.398 102.76 423.508Z" fill="#A8C653"/>
<path d="M118.06 426.598C116.03 426.598 113.95 426.378 112.75 425.188C112.07 424.508 111.73 423.578 111.75 422.418C111.73 421.278 112.06 420.348 112.74 419.668C114.32 418.108 117.43 418.218 119.93 418.298C120.73 418.328 121.49 418.348 122.08 418.318C123.58 418.288 124.81 418.948 125.52 420.168C126.31 421.518 126.31 423.338 125.52 424.688C124.81 425.898 123.6 426.578 122.1 426.538H122.08C121.49 426.498 120.72 426.528 119.91 426.558C119.32 426.578 118.69 426.598 118.05 426.598H118.06ZM118.06 418.978C116.18 418.978 114.27 419.178 113.25 420.178C112.7 420.718 112.45 421.448 112.47 422.418C112.45 423.398 112.71 424.138 113.25 424.678C114.61 426.018 117.54 425.918 119.89 425.838C120.71 425.808 121.49 425.778 122.12 425.818C123.33 425.808 124.33 425.308 124.9 424.328C125.56 423.198 125.56 421.668 124.9 420.538C124.33 419.558 123.32 419.048 122.11 419.048C121.5 419.088 120.73 419.058 119.91 419.028C119.32 419.008 118.69 418.988 118.06 418.988V418.978Z" fill="#A8C653"/>
<path d="M119.03 422.388C118.74 422.388 118.5 422.158 118.48 421.868C117.62 403.898 118.01 393.928 122.52 389.298C126.66 385.048 134.1 385.218 146.42 385.498C151.27 385.608 156.77 385.728 163.2 385.628C167.75 385.628 169.78 384.338 170.04 381.198V349.178C170.04 348.878 170.28 348.628 170.59 348.628C170.9 348.628 171.14 348.878 171.14 349.178V381.248C170.74 386.218 166.41 386.738 163.21 386.728C156.77 386.828 151.26 386.708 146.4 386.598C134.38 386.328 127.12 386.158 123.31 390.068C119.08 394.408 118.73 404.158 119.58 421.818C119.59 422.118 119.36 422.378 119.06 422.388C119.06 422.388 119.04 422.388 119.03 422.388Z" fill="#A8C653"/>
<path d="M120.29 421.748C120.31 422.428 119.77 422.998 119.09 423.018C118.41 423.038 117.84 422.498 117.82 421.818C117.8 421.138 118.34 420.568 119.02 420.548C119.7 420.528 120.27 421.068 120.29 421.748Z" fill="#A8C653"/>
<path d="M171.83 349.248C171.83 348.568 171.28 348.008 170.59 348.008C169.9 348.008 169.35 348.558 169.35 349.248C169.35 349.938 169.9 350.488 170.59 350.488C171.28 350.488 171.83 349.938 171.83 349.248Z" fill="#A8C653"/>
<path d="M122.3 422.388C122.01 422.388 121.76 422.158 121.75 421.858C120.99 402.468 121.37 393.658 125.7 389.238C129.73 385.128 136.82 385.268 149.69 385.508C153.89 385.588 158.66 385.678 164.12 385.638C164.42 385.638 164.67 385.878 164.67 386.178C164.67 386.478 164.43 386.728 164.13 386.728C158.65 386.768 153.88 386.678 149.67 386.598C137.11 386.348 130.18 386.218 126.48 389.998C122.46 394.098 122.11 403.128 122.84 421.808C122.85 422.108 122.62 422.368 122.31 422.378C122.31 422.378 122.3 422.378 122.29 422.378L122.3 422.388Z" fill="#A8C653"/>
<path d="M123.55 421.748C123.57 422.428 123.03 422.998 122.35 423.018C121.67 423.038 121.1 422.498 121.08 421.818C121.06 421.138 121.6 420.568 122.29 420.548C122.98 420.528 123.54 421.068 123.56 421.758L123.55 421.748Z" fill="#A8C653"/>
<path d="M164.049 387.418C164.729 387.418 165.289 386.868 165.289 386.188C165.289 385.508 164.739 384.948 164.059 384.948C163.379 384.948 162.819 385.498 162.819 386.178C162.819 386.858 163.369 387.418 164.049 387.418Z" fill="#A8C653"/>
<path d="M115.84 422.388C115.54 422.388 115.29 422.138 115.29 421.838V399.808C115.29 395.018 116.42 391.588 118.75 389.308C122.93 385.208 130.5 385.368 139.27 385.548C141.19 385.588 143.17 385.628 145.2 385.628H164.12C164.42 385.628 164.67 385.878 164.67 386.178C164.67 386.478 164.42 386.728 164.12 386.728H145.2C143.16 386.728 141.17 386.688 139.24 386.648C130.72 386.468 123.37 386.318 119.51 390.088C117.41 392.148 116.38 395.328 116.38 399.798V421.828C116.38 422.128 116.13 422.378 115.83 422.378L115.84 422.388Z" fill="#A8C653"/>
<path d="M117.07 421.778C117.07 422.458 116.52 423.018 115.83 423.018C115.14 423.018 114.59 422.468 114.59 421.778C114.59 421.088 115.14 420.538 115.83 420.538C116.52 420.538 117.07 421.088 117.07 421.778Z" fill="#A8C653"/>
<path d="M164.06 387.418C164.74 387.418 165.3 386.868 165.3 386.178C165.3 385.488 164.75 384.938 164.06 384.938C163.37 384.938 162.82 385.488 162.82 386.178C162.82 386.868 163.37 387.418 164.06 387.418Z" fill="#A8C653"/>
<path d="M165.09 484.048H78.5299C67.4399 484.348 71.7999 466.818 70.9899 460.408C70.9899 456.248 74.3699 452.868 78.5299 452.868H165.09C169.25 452.868 172.63 456.248 172.63 460.408C171.69 466.838 176.27 484.338 165.09 484.048Z" fill="#006D68"/>
<path d="M168.04 462.908H136.83V474.008H168.04V462.908Z" fill="black"/>
<path d="M103.36 472.208H80.8701C78.8001 472.208 77.1201 470.528 77.1201 468.458C77.1201 466.388 78.8001 464.708 80.8701 464.708H103.36C108.22 464.638 108.23 472.278 103.36 472.208Z" fill="black"/>
<path d="M82.1 469.528C80.57 469.528 80.81 467.098 82.31 467.398C83.55 467.608 83.36 469.558 82.1 469.528Z" fill="#A8C653"/>
<path d="M94.8002 468.458C94.8002 467.868 95.2802 467.388 95.8702 467.388C96.4602 467.388 96.9402 467.868 96.9402 468.458C96.9402 469.048 96.4602 469.528 95.8702 469.528C95.2802 469.528 94.8002 469.048 94.8002 468.458ZM87.9102 468.458C87.9102 467.868 88.3902 467.388 88.9802 467.388C89.5702 467.388 90.0502 467.868 90.0502 468.458C90.0502 469.048 89.5702 469.528 88.9802 469.528C88.3902 469.528 87.9102 469.048 87.9102 468.458Z" fill="#A8C653"/>
<path d="M102.76 469.528C101.83 469.558 101.32 468.328 102 467.698C103.51 466.378 104.76 469.418 102.76 469.528Z" fill="#A8C653"/>
<path d="M118.05 472.618C116.03 472.618 113.94 472.398 112.74 471.208C112.06 470.528 111.72 469.598 111.74 468.438C111.72 467.298 112.05 466.368 112.73 465.688C114.31 464.128 117.42 464.238 119.92 464.318C120.72 464.348 121.48 464.378 122.07 464.338C123.58 464.308 124.8 464.968 125.51 466.188C126.3 467.538 126.3 469.358 125.51 470.708C124.8 471.918 123.61 472.588 122.09 472.558H122.07C121.48 472.518 120.71 472.548 119.9 472.578C119.31 472.598 118.67 472.618 118.04 472.618H118.05ZM118.06 465.008C116.17 465.008 114.27 465.198 113.25 466.208C112.7 466.748 112.45 467.478 112.47 468.448C112.45 469.428 112.71 470.168 113.25 470.708C114.61 472.048 117.54 471.948 119.89 471.868C120.71 471.838 121.49 471.808 122.12 471.848C123.35 471.838 124.33 471.338 124.9 470.358C125.56 469.228 125.56 467.698 124.9 466.568C124.33 465.588 123.34 465.068 122.11 465.078C121.51 465.118 120.73 465.088 119.91 465.058C119.32 465.038 118.69 465.018 118.06 465.018V465.008Z" fill="#A8C653"/>
<path d="M119.03 468.908C118.74 468.908 118.5 468.678 118.48 468.388C117.62 450.418 118.01 440.448 122.52 435.818C126.66 431.568 134.1 431.738 146.42 432.018C151.27 432.128 156.77 432.248 163.2 432.148C167.75 432.148 169.78 430.858 170.04 427.718V395.698C170.04 395.398 170.28 395.148 170.59 395.148C170.9 395.148 171.14 395.398 171.14 395.698V427.768C170.74 432.738 166.41 433.248 163.21 433.248C156.77 433.348 151.26 433.228 146.4 433.118C134.38 432.848 127.12 432.678 123.31 436.588C119.08 440.928 118.73 450.678 119.58 468.338C119.59 468.638 119.36 468.898 119.06 468.908C119.06 468.908 119.04 468.908 119.03 468.908Z" fill="#A8C653"/>
<path d="M120.29 468.258C120.31 468.938 119.77 469.508 119.09 469.528C118.41 469.548 117.84 469.008 117.82 468.328C117.8 467.648 118.34 467.078 119.02 467.058C119.7 467.038 120.27 467.578 120.29 468.258Z" fill="#A8C653"/>
<path d="M171.83 395.758C171.83 395.078 171.28 394.518 170.59 394.518C169.9 394.518 169.35 395.068 169.35 395.758C169.35 396.448 169.9 396.998 170.59 396.998C171.28 396.998 171.83 396.448 171.83 395.758Z" fill="#A8C653"/>
<path d="M122.3 468.908C122.01 468.908 121.76 468.678 121.75 468.378C120.99 448.988 121.37 440.178 125.7 435.758C129.73 431.648 136.82 431.778 149.69 432.028C153.89 432.108 158.66 432.198 164.12 432.158C164.42 432.158 164.67 432.398 164.67 432.698C164.67 432.998 164.43 433.248 164.13 433.248C158.65 433.288 153.88 433.198 149.67 433.118C137.11 432.878 130.18 432.738 126.48 436.518C122.46 440.618 122.11 449.648 122.84 468.328C122.85 468.628 122.62 468.888 122.31 468.898C122.31 468.898 122.3 468.898 122.29 468.898L122.3 468.908Z" fill="#A8C653"/>
<path d="M123.55 468.268C123.57 468.948 123.03 469.518 122.35 469.538C121.67 469.558 121.1 469.018 121.08 468.328C121.06 467.638 121.6 467.078 122.29 467.058C122.97 467.038 123.54 467.578 123.56 468.268H123.55Z" fill="#A8C653"/>
<path d="M164.049 433.928C164.729 433.928 165.289 433.378 165.289 432.698C165.289 432.018 164.739 431.458 164.059 431.458C163.379 431.458 162.819 432.008 162.819 432.688C162.819 433.368 163.369 433.928 164.049 433.928Z" fill="#A8C653"/>
<path d="M115.84 468.908C115.54 468.908 115.29 468.658 115.29 468.358V446.328C115.29 441.538 116.42 438.108 118.75 435.828C122.93 431.728 130.5 431.888 139.27 432.068C141.19 432.108 143.17 432.148 145.21 432.148H164.13C164.43 432.148 164.68 432.398 164.68 432.698C164.68 432.998 164.43 433.248 164.13 433.248H145.21C143.17 433.248 141.18 433.208 139.25 433.168C130.73 432.988 123.38 432.838 119.52 436.608C117.42 438.668 116.39 441.848 116.39 446.318V468.348C116.39 468.648 116.14 468.898 115.84 468.898V468.908Z" fill="#A8C653"/>
<path d="M117.07 468.298C117.07 468.978 116.52 469.538 115.83 469.538C115.14 469.538 114.59 468.988 114.59 468.298C114.59 467.608 115.14 467.058 115.83 467.058C116.52 467.058 117.07 467.608 117.07 468.298Z" fill="#A8C653"/>
<path d="M164.06 433.938C164.74 433.938 165.3 433.388 165.3 432.698C165.3 432.008 164.75 431.458 164.06 431.458C163.37 431.458 162.82 432.008 162.82 432.698C162.82 433.388 163.37 433.938 164.06 433.938Z" fill="#A8C653"/>
<path d="M164.279 331.438H140.549C139.889 331.438 139.359 330.908 139.359 330.248C139.359 329.588 139.889 329.058 140.549 329.058H164.279C164.939 329.058 165.469 329.588 165.469 330.248C165.469 330.908 164.939 331.438 164.279 331.438Z" fill="#A8C653"/>
<path d="M164.279 377.528H140.549C139.889 377.528 139.359 376.998 139.359 376.338C139.359 375.678 139.889 375.148 140.549 375.148H164.279C164.939 375.148 165.469 375.678 165.469 376.338C165.469 376.998 164.939 377.528 164.279 377.528Z" fill="#A8C653"/>
<path d="M164.279 423.618H140.549C139.889 423.618 139.359 423.088 139.359 422.428C139.359 421.768 139.889 421.238 140.549 421.238H164.279C164.939 421.238 165.469 421.768 165.469 422.428C165.469 423.088 164.939 423.618 164.279 423.618Z" fill="#A8C653"/>
<path d="M164.279 469.648H140.549C139.889 469.648 139.359 469.118 139.359 468.458C139.359 467.798 139.889 467.268 140.549 467.268H164.279C164.939 467.268 165.469 467.798 165.469 468.458C165.469 469.118 164.939 469.648 164.279 469.648Z" fill="#A8C653"/>
<path d="M500.59 503.178H543.44" stroke="#A9C753" stroke-width="1.59" stroke-linecap="round" stroke-linejoin="round"/>
<path d="M420.56 503.178H483.32" stroke="#A9C753" stroke-width="1.59" stroke-linecap="round" stroke-linejoin="round"/>
<path d="M428.51 502.688V485.318" stroke="#ADCB53" stroke-width="1.72" stroke-linecap="round" stroke-linejoin="round"/>
<path d="M428.509 488.708C430.293 488.708 431.739 487.262 431.739 485.478C431.739 483.694 430.293 482.248 428.509 482.248C426.725 482.248 425.279 483.694 425.279 485.478C425.279 487.262 426.725 488.708 428.509 488.708Z" fill="#ADCB53"/>
<path d="M439.869 502.518V470.528" stroke="#ADCB53" stroke-width="1.72" stroke-linecap="round" stroke-linejoin="round"/>
<path d="M439.87 473.918C441.654 473.918 443.1 472.472 443.1 470.688C443.1 468.904 441.654 467.458 439.87 467.458C438.086 467.458 436.64 468.904 436.64 470.688C436.64 472.472 438.086 473.918 439.87 473.918Z" fill="#ADCB53"/>
<path d="M541.75 284.708V386.718H419.61V285.008L541.75 284.708ZM543.44 283.008L417.92 283.318V388.398H543.44V283.008Z" fill="#006D68"/>
<path d="M543.44 269.488H417.92V285.168H543.44V269.488Z" fill="#A8C653"/>
<path d="M538.192 274.682L536.545 273.035L529.545 280.035L531.192 281.683L538.192 274.682Z" fill="#006D68"/>
<path d="M536.536 281.691L538.184 280.043L531.183 273.043L529.536 274.69L536.536 281.691Z" fill="#006D68"/>
<path d="M518.61 274.348V280.608H511.57V274.348H518.61ZM519.69 273.268H510.5V281.678H519.69V273.268Z" fill="#006D68"/>
<path d="M506.45 279.828H497.26V281.678H506.45V279.828Z" fill="#006D68"/>
<path d="M404.85 362.288V258.898L523.8 258.598V362.288H404.85Z" fill="#003834"/>
<path d="M522.96 259.438V361.438H405.69V259.728L522.96 259.428M524.65 257.748L404.01 258.058V363.138H524.65V257.748Z" fill="#006D68"/>
<path d="M525.039 244.218H403.609V259.898H525.039V244.218Z" fill="#006D68" stroke="#006D68" stroke-width="0.51" stroke-miterlimit="10"/>
<path d="M519.38 249.417L517.732 247.77L510.732 254.77L512.38 256.417L519.38 249.417Z" fill="#A8C653"/>
<path d="M517.74 256.419L519.388 254.771L512.387 247.771L510.74 249.418L517.74 256.419Z" fill="#A8C653"/>
<path d="M500.78 249.078V255.338H493.74V249.078H500.78ZM501.86 247.998H492.67V256.408H501.86V247.998Z" fill="#A8C653"/>
<path d="M483.75 254.558H474.56V256.408H483.75V254.558Z" fill="#A8C653"/>
<path d="M437.78 320.548H515.73" stroke="#ADCB53" stroke-width="2.53" stroke-miterlimit="10"/>
<path d="M412.92 320.548H434.64" stroke="#006D68" stroke-width="1.69" stroke-miterlimit="10"/>
<path d="M461.4 332.158H515.73" stroke="#006D68" stroke-width="1.69" stroke-miterlimit="10"/>
<path d="M412.92 332.158H455.68" stroke="#ADCB53" stroke-width="2.53" stroke-miterlimit="10"/>
<path d="M431.87 343.768H515.73" stroke="#ADCB53" stroke-width="2.53" stroke-miterlimit="10"/>
<path d="M412.92 343.768H426.37" stroke="#006D68" stroke-width="1.69" stroke-miterlimit="10"/>
<path d="M543.44 193.168C543.49 199.548 538.36 204.758 531.98 204.818C525.6 204.878 520.39 199.738 520.33 193.358C520.28 186.978 531.74 176.118 531.74 176.118C531.74 176.118 543.38 186.788 543.43 193.168H543.44Z" stroke="#ADCB53" stroke-width="1.43" stroke-linecap="round" stroke-linejoin="round"/>
<path d="M531.87 190.288L532.03 215.228" stroke="#ADCB53" stroke-width="1.43" stroke-linecap="round" stroke-linejoin="round"/>
<path d="M506.29 193.168C506.34 199.548 501.21 204.758 494.83 204.818C488.45 204.878 483.24 199.738 483.18 193.358C483.13 186.978 494.59 176.118 494.59 176.118C494.59 176.118 506.23 186.788 506.28 193.168H506.29Z" stroke="#ADCB53" stroke-width="1.43" stroke-linecap="round" stroke-linejoin="round"/>
<path d="M494.72 190.288L494.88 215.228" stroke="#ADCB53" stroke-width="1.43" stroke-linecap="round" stroke-linejoin="round"/>
<path d="M453.09 293.138C453.09 299.338 458.12 304.368 464.32 304.368C470.52 304.368 475.55 299.338 475.55 293.138C475.55 288.948 470.43 279.698 467.1 274.128C465.84 272.018 462.78 272.018 461.52 274.128C458.19 279.698 453.07 288.948 453.07 293.138H453.09Z" stroke="#ADCB53" stroke-width="1.5" stroke-linecap="round" stroke-linejoin="round"/>
<path d="M464.32 282.948V310.138" stroke="#ADCB53" stroke-width="1.5" stroke-linecap="round" stroke-linejoin="round"/>
<path d="M462.061 283.068C462.061 281.818 463.071 280.808 464.321 280.808C465.571 280.808 466.581 281.818 466.581 283.068C466.581 284.318 465.571 285.328 464.321 285.328C463.071 285.328 462.061 284.318 462.061 283.068Z" fill="#ADCB53"/>
<path d="M442.13 283.698L429.88 292.738L442.13 301.788" stroke="#ADCB53" stroke-width="1.72" stroke-linecap="round" stroke-linejoin="round"/>
<path d="M486.52 283.698L498.77 292.738L486.52 301.788" stroke="#ADCB53" stroke-width="1.72" stroke-linecap="round" stroke-linejoin="round"/>
<path d="M459.409 502.518V469.208" stroke="#ADCB53" stroke-width="1.72" stroke-linecap="round" stroke-linejoin="round"/>
<path d="M461.26 467.268C459.15 466.438 456.92 465.918 454.65 465.728C452.53 465.548 450.42 465.928 448.33 465.668C448.13 465.648 447.93 465.628 447.73 465.618C446.79 465.578 446.01 464.818 445.96 463.858L445.86 461.898C445.58 456.338 449.89 451.568 455.45 451.288L457.41 451.188C458.37 451.138 459.2 451.838 459.34 452.768C459.37 452.968 459.41 453.158 459.45 453.358C459.67 454.328 459.91 455.288 460.15 456.248" fill="white"/>
<path d="M461.26 467.268C459.15 466.438 456.92 465.918 454.65 465.728C452.53 465.548 450.42 465.928 448.33 465.668C448.13 465.648 447.93 465.628 447.73 465.618C446.79 465.578 446.01 464.818 445.96 463.858L445.86 461.898C445.58 456.338 449.89 451.568 455.45 451.288L457.41 451.188C458.37 451.138 459.2 451.838 459.34 452.768C459.37 452.968 459.41 453.158 459.45 453.358C459.67 454.328 459.91 455.288 460.15 456.248" stroke="white" stroke-width="0.86" stroke-miterlimit="10"/>
<path d="M460.08 466.778C460.91 466.708 461.86 465.958 462.65 465.658C463.66 465.278 464.72 465.008 465.78 464.848C467.57 464.578 469.4 464.618 471.18 464.978C472.51 465.248 474.43 465.078 474.5 463.288L474.58 461.328C474.8 455.768 470.42 451.048 464.87 450.828L462.91 450.748C461.95 450.708 461.13 451.418 461 452.348C460.97 452.548 460.94 452.748 460.9 452.938L459.09 461.298C458.91 462.168 458.72 463.028 458.72 463.918C458.72 464.808 458.9 465.728 459.39 466.468C459.48 466.608 459.59 466.748 459.74 466.838C459.89 466.928 459.96 466.848 460.11 466.768L460.08 466.778Z" fill="white" stroke="white" stroke-width="0.86" stroke-miterlimit="10"/>
<path d="M461.26 467.268C459.15 466.438 456.92 465.918 454.65 465.728C452.53 465.548 450.42 465.928 448.33 465.668C448.13 465.648 447.93 465.628 447.73 465.618C446.79 465.578 446.01 464.818 445.96 463.858L445.86 461.898C445.58 456.338 449.89 451.568 455.45 451.288L457.41 451.188C458.37 451.138 459.2 451.838 459.34 452.768C459.37 452.968 459.41 453.158 459.45 453.358C459.67 454.328 459.91 455.288 460.15 456.248" stroke="#A9C753" stroke-width="1.59" stroke-linecap="round" stroke-linejoin="round"/>
<path d="M460.08 466.778C460.91 466.708 461.86 465.958 462.65 465.658C463.66 465.278 464.72 465.008 465.78 464.848C467.57 464.578 469.4 464.618 471.18 464.978C472.51 465.248 474.43 465.078 474.5 463.288L474.58 461.328C474.8 455.768 470.42 451.048 464.87 450.828L462.91 450.748C461.95 450.708 461.13 451.418 461 452.348C460.97 452.548 460.94 452.748 460.9 452.938L459.09 461.298C458.91 462.168 458.72 463.028 458.72 463.918C458.72 464.808 458.9 465.728 459.39 466.468C459.48 466.608 459.59 466.748 459.74 466.838C459.89 466.928 459.96 466.848 460.11 466.768L460.08 466.778Z" stroke="#A9C753" stroke-width="1.59" stroke-linecap="round" stroke-linejoin="round"/>
<path d="M463.29 465.648C463.29 463.498 461.55 463.708 459.4 463.708C457.25 463.708 455.51 463.508 455.51 465.648C455.51 467.798 457.25 471.478 459.4 471.478C461.55 471.478 463.29 467.798 463.29 465.648Z" fill="#A8C653"/>
</svg>
