<svg xmlns="http://www.w3.org/2000/svg" width="325" height="508" fill="none" viewBox="0 0 325 508"><g stroke="#adcb53" stroke-miterlimit="10" clip-path="url(#a)" opacity=".5"><path d="M447.968-268.729c-24.565-6.58-57.347.1-80.414 8.988-32.923 12.733-63.776 40.586-73.094 74.769-11.481 42.509-35.353 55.498-67.708 82.171-25.323 20.935-46.408 46.778-60.115 76.667-51.225 112.136-17.195 228.249 60.311 317.474 25.768 29.66 53.81 57.205 80.258 86.348 19.873 21.939 56.761 51.383 54.784 83.093"/><path d="M518.315 112.455c-21.119-19.769-45.967-35.859-63.923-44.31-41.112-19.342-108.533-25.575-145.564 5.719-47.313 39.949-35.701 101.341-.101 145.803 26.84 33.404 67.972 44.256 110.735 43.494 37.716-.626 77.887-7.976 109.751-29.17 15.619-10.381 30.391-25.428 31.551-44.187 1.699-26.57-17.915-54.37-42.449-77.349Z"/><path d="M408.741 311.227c50.881 3.986 111.587-4.278 155.613-31.292 17.931-11.054 40.816-31.867 42.114-54.792 6.069-111.698-115.273-236.977-224.891-239.967-60.5-1.647-122.64 24.496-149.178 81.754-20.036 43.155-21.63 95.303-1.355 138.401 30.724 65.373 105.547 100.234 177.697 105.896Z"/></g><defs><clipPath id="a"><path fill="#fff" d="M354-328.378 789.27-54.81 435.881 507.46.612 233.89z"/></clipPath></defs></svg>