<svg xmlns="http://www.w3.org/2000/svg" width="75" height="75" fill="none" viewBox="0 0 75 75"><g clip-path="url(#a)"><path fill="#a7c553" d="M38.88.43V.39H0v40.06h.13c1.5 19.12 17.48 34.17 36.98 34.17 20.5 0 37.11-16.62 37.11-37.11S58.55 1.36 38.88.43"/><path fill="#006d68" d="m37.22 13.75 7.67 14.88 15.64 3.18-10.9 12.38 2 16.85-14.41-7.23-14.4 7.23 1.99-16.85-10.9-12.38 15.64-3.18z"/><path fill="#a7c553" d="m37.07 40.9-23.38-9.03 23.78 7.91c.75.25.34 1.4-.4 1.12"/><path fill="#a7c553" d="M22.77 61.25 36.79 40a.589.589 0 1 1 .97.67L22.77 61.24z"/><path fill="#00544f" d="m37.22 13.75 7.67 14.88 15.64 3.18-23.31 8.08z"/><path stroke="#fff" stroke-linecap="round" stroke-linejoin="round" stroke-width=".99" d="m37.22 13.75 7.67 14.88 15.64 3.18-10.9 12.38 2 16.85-14.41-7.23-14.4 7.23 1.99-16.85-10.9-12.38 15.64-3.18z"/></g><defs><clipPath id="a"><path fill="#fff" d="M0 0h75v75H0z"/></clipPath></defs></svg>