<svg xmlns="http://www.w3.org/2000/svg" width="50" height="50" fill="none" viewBox="0 0 50 50"><path fill="#a4c352" d="M48.3 34.83H17.03V46.7H48.3z"/><path fill="#006d68" d="M45.34 39.03h-8.56v3.45h8.56z"/><path fill="#a4c352" d="M48.3 19.06H17.03v11.87H48.3z"/><path fill="#006d68" d="M45.34 23.27h-8.56v3.45h8.56z"/><path fill="#a4c352" d="M48.3 3.3H17.03v11.87H48.3z"/><path fill="#006d68" d="M45.34 7.51h-8.56v3.45h8.56zM17.03 40.33c8.467 0 15.33-6.863 15.33-15.33S25.497 9.67 17.03 9.67 1.7 16.534 1.7 25s6.863 15.33 15.33 15.33"/><path fill="#006d68" d="M32.36 25c0 8.19-6.43 14.89-14.52 15.31-.27.01-.81.02-.81.02V9.67s.89.02 1.32.06c7.85.67 14.01 7.25 14.01 15.27"/><path stroke="#fff" stroke-linecap="round" stroke-miterlimit="10" stroke-width="1.08" d="M17.03 25V14.4M9.96 28.76 17.03 25"/></svg>