<svg xmlns="http://www.w3.org/2000/svg" width="103" height="112" fill="none" viewBox="0 0 103 112"><g clip-path="url(#a)"><path stroke="#adcb53" stroke-linecap="round" stroke-linejoin="round" stroke-width="1.23" d="M18.67 111.08V59.01"/><path fill="#adcb53" d="M22.37 59.2c0-2.04-1.66-3.7-3.7-3.7s-3.7 1.66-3.7 3.7 1.66 3.7 3.7 3.7 3.7-1.66 3.7-3.7"/><path stroke="#adcb53" stroke-linecap="round" stroke-linejoin="round" stroke-width="1.23" d="M27.61 111.08V70.03"/><path fill="#adcb53" d="M31.31 70.22c0-2.04-1.66-3.7-3.7-3.7s-3.7 1.66-3.7 3.7 1.66 3.7 3.7 3.7 3.7-1.66 3.7-3.7"/><path stroke="#adcb53" stroke-linecap="round" stroke-linejoin="round" stroke-width="1.23" d="M9.61 111.08V69.87"/><path fill="#adcb53" d="M13.31 70.05c0-2.04-1.66-3.7-3.7-3.7s-3.7 1.66-3.7 3.7 1.66 3.7 3.7 3.7 3.7-1.66 3.7-3.7"/><path stroke="#a9c753" stroke-linecap="round" stroke-linejoin="round" stroke-width="1.34" d="M31.31 15c.93 5.59 5.9 9.88 11.84 9.88s10.9-4.3 11.84-9.88"/><path fill="#a9c753" d="M29.34 15.29a2.01 2.01 0 0 1 1.81-2.19c1.1-.1 2.09.71 2.19 1.81s-.71 2.09-1.81 2.19-2.09-.71-2.19-1.81m27.61 0a2.01 2.01 0 0 0-1.81-2.19c-1.1-.1-2.09.71-2.19 1.81s.71 2.09 1.81 2.19 2.09-.71 2.19-1.81"/><path stroke="#a9c753" stroke-linecap="round" stroke-linejoin="round" stroke-width="1.34" d="M25.42 31.1c.98 8.75 8.57 15.62 17.73 15.62 9.15 0 16.75-6.87 17.73-15.62"/><path fill="#a9c753" d="M23.43 31.32c-.07-1.11.77-2.06 1.88-2.13s2.06.77 2.13 1.88-.77 2.06-1.88 2.13-2.06-.77-2.13-1.88m39.43 0c.07-1.11-.77-2.06-1.88-2.13s-2.06.77-2.13 1.88.77 2.06 1.88 2.13 2.06-.77 2.13-1.88"/><path stroke="#a9c753" stroke-linecap="round" stroke-linejoin="round" stroke-width="1.34" d="M43.14 1.91v108"/><path fill="#a9c753" d="M41.13 2.01a2.01 2.01 0 1 1 4.02 0 2.01 2.01 0 0 1-4.02 0"/><path stroke="#a9c753" stroke-linecap="round" stroke-linejoin="round" stroke-width="1.34" d="m92 110.86-13.97-25.5c-3.01-6.2-11.99-6.2-14.99 0l-12.4 25.5"/><path stroke="#a9c753" stroke-linecap="round" stroke-linejoin="round" stroke-width="1.34" d="M80.6 109.91c-1.97-4.21-5.19-10.05-7.16-14.26-.77-1.65-1.56-3.34-2.81-4.68-1.8-1.95-4.4-2.48-6.89-1.59-.73.26-1.4.64-2.08 1.01-.51.28-1.01.57-1.52.85M.67 111.08h101.32"/></g><defs><clipPath id="a"><path fill="#fff" d="M0 0h102.66v111.74H0z"/></clipPath></defs></svg>