<svg xmlns="http://www.w3.org/2000/svg" width="56" height="50" fill="none" viewBox="0 0 56 50"><path fill="#a4c352" d="M51 34.83H19.73V46.7H51z"/><path fill="#006d68" d="M48.04 39.03h-8.56v3.45h8.56z"/><path fill="#a4c352" d="M51 19.06H19.73v11.87H51z"/><path fill="#006d68" d="M48.04 23.27h-8.56v3.45h8.56z"/><path fill="#a4c352" d="M51 3.3H19.73v11.87H51z"/><path fill="#006d68" d="M48.04 7.51h-8.56v3.45h8.56zM34.45 33.5v-17L19.73 8 5 16.5v17L19.73 42z"/><path fill="#a4c352" d="M27.05 25.23a7.334 7.334 0 0 1-7.27 7.39 7.334 7.334 0 0 1-7.39-7.27c-.03-4.05 7.24-10.93 7.24-10.93s7.38 6.77 7.42 10.81"/><path stroke="#fff" stroke-linecap="round" stroke-linejoin="round" stroke-width="1.5" d="m19.71 23.39.1 12.2"/></svg>