<svg xmlns="http://www.w3.org/2000/svg" width="434" height="190" fill="none" viewBox="0 0 434 190"><path fill="#aac853" d="M189.72 94.91h-37.9l-56.91 56.9-56.9-56.9H0l94.91 94.91 94.91-94.91z"/><path fill="#006d68" d="m.01 94.91 9.58-9.5L95 0l85.41 85.41 9.4 9.5h-37.9L95 38.01l-56.9 56.9z"/><path fill="#003834" d="M80.78 98.27h-4V70.43l16.8-17.17 2.86 2.8-15.66 16z"/><path fill="#003834" d="M78.78 102.55a4.51 4.51 0 1 0 0-9.02 4.51 4.51 0 0 0 0 9.02m-13.48 2.3h-4v-19l16.82-16.78 2.83 2.84-15.65 15.6z"/><path fill="#3c3c3c" d="M58.79 104.62a4.511 4.511 0 0 0 9.02 0 4.511 4.511 0 0 0-9.02 0"/><path fill="#003834" d="M113.14 98.27h-4V72.06l-15.66-16 2.86-2.8 16.8 17.17z"/><path fill="#003834" d="M111.141 102.55a4.51 4.51 0 1 0 0-9.02 4.51 4.51 0 0 0 0 9.02m17.479 2.3h-4V87.51l-15.65-15.6 2.83-2.84 16.82 16.78z"/><path fill="#003834" d="M122.1 104.62a4.511 4.511 0 0 0 9.02 0 4.511 4.511 0 0 0-9.02 0"/><path fill="#006d68" d="M97 38.01h-4v81.46h4z"/><path fill="#006d68" d="M95 126.61a7.52 7.52 0 0 0 7.52-7.52 7.52 7.52 0 1 0-7.52 7.52"/><path fill="#003834" d="M354.09 78.037q-5.68 0-9.717-2.243-4.036-2.243-6.228-6.278-2.143-4.087-2.143-9.618 0-5.53 2.143-9.567 2.192-4.037 6.228-6.279 4.037-2.242 9.717-2.242 3.489 0 6.678 1.096t5.232 2.99l-2.392 6.13q-2.242-1.745-4.535-2.542a13.3 13.3 0 0 0-4.733-.847q-4.984 0-7.575 2.94-2.59 2.89-2.591 8.321 0 5.432 2.591 8.372t7.575 2.94a14 14 0 0 0 4.733-.797q2.293-.847 4.535-2.592l2.392 6.13q-2.043 1.892-5.232 2.99a20.4 20.4 0 0 1-6.678 1.096m-49.986-.549v-35.13h16.046q3.936 0 6.677 1.345 2.74 1.346 4.136 3.837 1.445 2.492 1.445 6.03 0 3.537-1.445 6.08-1.395 2.491-4.136 3.836t-6.677 1.345h-8.322v12.657zm7.724-18.636h7.026q2.99 0 4.535-1.346 1.594-1.346 1.594-3.936 0-2.592-1.594-3.887-1.545-1.296-4.535-1.296h-7.026zm-46.313 18.636v-35.13h13.753q5.98 0 10.165 2.093 4.236 2.043 6.428 5.98 2.243 3.886 2.243 9.467 0 5.58-2.243 9.518-2.192 3.936-6.428 6.03-4.185 2.042-10.165 2.042zm7.723-6.328h5.581q5.63 0 8.422-2.79 2.79-2.79 2.79-8.472 0-5.68-2.84-8.421-2.79-2.79-8.372-2.79h-5.581zm-53.723 6.328-12.507-35.13h7.923l9.119 27.108h-2.143l9.617-27.108h5.581l9.219 27.108h-1.844l9.269-27.108h7.474l-12.607 35.13h-6.278l-8.82-24.965h1.195l-8.919 24.965zm17.656 27.932-6.27 17.62h-3.12l-4.08-11.68-4.12 11.68h-3.12l-6.25-17.62h3.95l4.02 12.17 4.28-12.17h2.72l4.12 12.3 4.17-12.3zm2.87 17.04a5.5 5.5 0 0 1-2.27-2.22c-.53-.96-.8-2.09-.8-3.39s.27-2.43.8-3.39 1.29-1.7 2.27-2.21c.98-.52 2.12-.77 3.42-.77s2.44.26 3.43.77c.98.52 1.74 1.25 2.27 2.21s.8 2.09.8 3.39-.27 2.43-.8 3.39-1.29 1.7-2.27 2.22c-.98.53-2.12.79-3.43.79s-2.44-.26-3.42-.79m6.18-5.62c0-1.18-.24-2.07-.71-2.65-.48-.58-1.15-.88-2.04-.88-1.83 0-2.75 1.18-2.75 3.53s.92 3.52 2.75 3.52 2.75-1.18 2.75-3.52m14.82-3.27-2.12.23c-1.05.1-1.79.4-2.22.89s-.65 1.15-.65 1.96v6.4h-3.77v-12.28h3.62v2.08c.62-1.42 1.89-2.19 3.83-2.33l1.1-.08.22 3.12zm9.73 9.47-4.7-5.48v5.48h-3.77v-17.62h3.77v10.6l4.53-5.22h4.5l-5.15 5.85 5.45 6.4h-4.62zm5.47-17.62h3.77v17.62h-3.77zm9.15 17.04a5.5 5.5 0 0 1-2.27-2.22c-.53-.96-.8-2.09-.8-3.39s.27-2.43.8-3.39 1.29-1.7 2.27-2.21c.98-.52 2.12-.77 3.42-.77s2.44.26 3.43.77c.98.52 1.74 1.25 2.27 2.21s.8 2.09.8 3.39-.27 2.43-.8 3.39-1.29 1.7-2.27 2.22c-.98.53-2.12.79-3.43.79s-2.44-.26-3.42-.79m6.18-5.62c0-1.18-.24-2.07-.71-2.65-.48-.58-1.15-.88-2.04-.88-1.83 0-2.75 1.18-2.75 3.53s.92 3.52 2.75 3.52 2.75-1.18 2.75-3.52m15.56-5.07c.88.87 1.31 2.21 1.31 4.03v7.25h-3.58v-1.83c-.25.63-.67 1.13-1.25 1.49s-1.27.54-2.05.54c-.83 0-1.59-.17-2.26-.5a3.96 3.96 0 0 1-1.6-1.4c-.39-.6-.59-1.27-.59-2 0-.9.23-1.61.69-2.12.46-.52 1.2-.89 2.21-1.12s2.41-.35 4.18-.35h.65v-.45c0-.73-.16-1.25-.47-1.55q-.48-.45-1.65-.45c-.6 0-1.27.11-2 .32q-1.095.33-2.1.9l-1-2.52c.7-.43 1.56-.8 2.59-1.09s1.98-.44 2.86-.44c1.83 0 3.19.43 4.06 1.3zm-2.96 8.14c.45-.49.67-1.13.67-1.91v-.43h-.42c-1.35 0-2.3.11-2.84.33q-.81.33-.81 1.17c0 .45.15.83.46 1.12.31.3.7.45 1.16.45.73 0 1.33-.25 1.78-.74zm19.52-14.49v17.62h-3.75v-1.83a3.93 3.93 0 0 1-1.56 1.49c-.67.36-1.44.54-2.29.54-1.05 0-1.99-.27-2.81-.81-.83-.54-1.47-1.3-1.93-2.27q-.69-1.47-.69-3.36c0-1.26.23-2.38.69-3.34s1.1-1.7 1.91-2.21c.82-.52 1.76-.77 2.83-.77.83 0 1.59.17 2.26.52.68.35 1.2.84 1.56 1.48v-7.05h3.78zm-4.46 14.04c.48-.61.71-1.48.71-2.61s-.24-2-.71-2.6q-.705-.9-2.04-.9c-.89 0-1.57.3-2.05.89s-.73 1.45-.73 2.56.24 2.01.73 2.64 1.17.94 2.05.94 1.56-.3 2.04-.91zm14.64-14.04h6.85q2.88 0 4.95 1.05c1.38.7 2.44 1.71 3.17 3.02.73 1.32 1.1 2.89 1.1 4.73s-.36 3.41-1.09 4.74c-.72 1.33-1.78 2.34-3.16 3.04q-2.07 1.05-4.98 1.05h-6.85v-17.62zm6.57 14.47c3.75 0 5.62-1.89 5.62-5.67s-1.88-5.65-5.62-5.65h-2.67v11.33h2.67zm24.4-9.1-7.4 16.75h-3.83l2.35-5.18-5.05-11.57h3.93l3.1 7.8 3.2-7.8zm12.13.97c.72.86 1.08 2.15 1.08 3.89v7.4h-3.78v-7.23c0-.83-.15-1.44-.46-1.82q-.465-.57-1.44-.57-1.17 0-1.89.75c-.48.5-.71 1.17-.71 2v6.88h-3.77v-12.28h3.67v1.75c.43-.67 1-1.17 1.69-1.52s1.47-.52 2.34-.52q2.205 0 3.27 1.29zm13.41.01c.88.87 1.31 2.21 1.31 4.03v7.25h-3.58v-1.83c-.25.63-.67 1.13-1.25 1.49s-1.27.54-2.05.54c-.83 0-1.59-.17-2.26-.5a3.96 3.96 0 0 1-1.6-1.4c-.39-.6-.59-1.27-.59-2 0-.9.23-1.61.69-2.12.46-.52 1.2-.89 2.21-1.12s2.41-.35 4.18-.35h.65v-.45c0-.73-.16-1.25-.47-1.55q-.48-.45-1.65-.45c-.6 0-1.27.11-2 .32q-1.095.33-2.1.9l-1-2.52c.7-.43 1.56-.8 2.59-1.09s1.98-.44 2.86-.44c1.83 0 3.19.43 4.06 1.3zm-2.96 8.14c.45-.49.67-1.13.67-1.91v-.43h-.42c-1.35 0-2.3.11-2.84.33q-.81.33-.81 1.17c0 .45.15.83.46 1.12.31.3.7.45 1.16.45.73 0 1.33-.25 1.78-.74zm25.35-8.17q1.02 1.275 1.02 3.9v7.4h-3.77v-7.28q0-1.245-.39-1.8c-.26-.37-.7-.55-1.31-.55-.72 0-1.28.25-1.67.75q-.6.75-.6 2.1v6.78h-3.77v-7.28q0-1.245-.39-1.8c-.26-.37-.7-.55-1.31-.55-.72 0-1.28.25-1.67.75q-.6.75-.6 2.1v6.78h-3.77v-12.28h3.67v1.65c.38-.63.9-1.12 1.54-1.45s1.38-.5 2.21-.5c1.82 0 3.03.76 3.65 2.27.4-.7.96-1.25 1.67-1.66.72-.41 1.51-.61 2.38-.61 1.4 0 2.44.42 3.12 1.27zm7.799-6.87v3.52h-4.049v-3.52zm-3.929 5.9h3.77v12.28h-3.77zm7.8 10.77c-1.15-1.13-1.73-2.68-1.73-4.62 0-1.28.28-2.41.83-3.39s1.33-1.73 2.33-2.26 2.16-.8 3.47-.8c.9 0 1.77.14 2.6.41.83.28 1.51.65 2.02 1.11l-1 2.57a5.7 5.7 0 0 0-1.59-.89c-.58-.21-1.14-.31-1.69-.31-.98 0-1.75.29-2.29.88-.54.58-.81 1.45-.81 2.6q0 1.725.81 2.61c.54.59 1.3.89 2.29.89.55 0 1.11-.1 1.69-.31s1.1-.5 1.59-.89l1 2.6c-.55.47-1.25.83-2.1 1.1s-1.75.4-2.7.4c-2 0-3.58-.57-4.72-1.7m-212.95 13.88h8.1c1.92 0 3.41.48 4.48 1.45s1.6 2.32 1.6 4.05-.53 3.08-1.6 4.05-2.56 1.45-4.48 1.45h-4.2v6.62h-3.9zm7.6 8.05c1.95 0 2.93-.84 2.93-2.53 0-.87-.24-1.51-.73-1.92-.48-.42-1.22-.62-2.2-.62h-3.7v5.08h3.7zm10.78 8.99a5.5 5.5 0 0 1-2.27-2.22c-.53-.96-.8-2.09-.8-3.39s.27-2.43.8-3.39 1.29-1.7 2.27-2.21c.98-.52 2.12-.77 3.42-.77s2.44.26 3.43.77c.98.52 1.74 1.25 2.27 2.21s.8 2.09.8 3.39-.27 2.43-.8 3.39-1.29 1.7-2.27 2.22c-.98.53-2.12.79-3.43.79s-2.44-.26-3.42-.79m6.17-5.62c0-1.18-.24-2.07-.71-2.65-.48-.58-1.15-.88-2.04-.88-1.83 0-2.75 1.18-2.75 3.53s.92 3.52 2.75 3.52 2.75-1.18 2.75-3.52m25.98-6.07-4.97 12.28h-3.2l-2.7-6.93-2.62 6.93h-3.17l-5-12.28h3.85l2.9 7.78 2.9-7.78h2.55l2.92 7.85 2.88-7.85h3.67zm12.2 6.85h-8c.12.98.44 1.7.96 2.14s1.27.66 2.24.66c.63 0 1.26-.1 1.89-.31.62-.21 1.2-.5 1.71-.89l1 2.52c-.6.47-1.33.83-2.19 1.1s-1.72.4-2.59.4q-3.105 0-4.89-1.71c-1.19-1.14-1.79-2.7-1.79-4.66 0-1.25.26-2.36.78-3.32s1.23-1.72 2.15-2.26q1.38-.81 3.12-.81c1.72 0 3.08.56 4.09 1.67 1.01 1.12 1.51 2.63 1.51 4.55v.93zm-7.21-3.86c-.42.46-.69 1.12-.79 1.99h4.83c-.05-.88-.27-1.55-.66-2s-.95-.68-1.66-.68-1.29.23-1.71.69zm18.26-.19-2.12.23c-1.05.1-1.79.4-2.22.89s-.65 1.15-.65 1.96v6.4h-3.77v-12.28h3.62v2.08c.62-1.42 1.89-2.19 3.83-2.33l1.1-.08.22 3.12zm17.74-1.8c.88.87 1.31 2.21 1.31 4.03v7.25h-3.58v-1.83c-.25.63-.67 1.13-1.25 1.49s-1.27.54-2.05.54c-.83 0-1.59-.17-2.26-.5a3.96 3.96 0 0 1-1.6-1.4c-.39-.6-.59-1.27-.59-2 0-.9.23-1.61.69-2.12.46-.52 1.2-.89 2.21-1.12s2.41-.35 4.18-.35h.65v-.45c0-.73-.16-1.25-.47-1.55q-.48-.45-1.65-.45c-.6 0-1.27.11-2 .32q-1.095.33-2.1.9l-1-2.52c.7-.43 1.56-.8 2.59-1.09s1.98-.44 2.86-.44c1.83 0 3.19.43 4.06 1.3zm-2.97 8.14c.45-.49.67-1.13.67-1.91v-.43h-.42c-1.35 0-2.3.11-2.84.33q-.81.33-.81 1.17c0 .45.15.83.46 1.12.31.3.7.45 1.16.45.73 0 1.33-.25 1.78-.74zm18.08-8.15c.72.86 1.08 2.15 1.08 3.89v7.4h-3.78v-7.23c0-.83-.15-1.44-.46-1.82q-.465-.57-1.44-.57-1.17 0-1.89.75c-.48.5-.71 1.17-.71 2v6.88h-3.77v-12.28h3.67v1.75c.43-.67 1-1.17 1.69-1.52s1.47-.52 2.34-.52q2.205 0 3.27 1.29zm16.32-6.34v17.62h-3.75v-1.83a3.93 3.93 0 0 1-1.56 1.49c-.67.36-1.44.54-2.29.54-1.05 0-1.99-.27-2.81-.81-.83-.54-1.47-1.3-1.93-2.27q-.69-1.47-.69-3.36c0-1.26.23-2.38.69-3.34s1.1-1.7 1.91-2.21c.82-.52 1.76-.77 2.83-.77.83 0 1.59.17 2.26.52.68.35 1.2.84 1.56 1.48v-7.05h3.78zm-4.46 14.04c.48-.61.71-1.48.71-2.61s-.24-2-.71-2.6q-.705-.9-2.04-.9c-.89 0-1.57.3-2.05.89s-.73 1.45-.73 2.56.24 2.01.73 2.64 1.17.94 2.05.94 1.56-.3 2.04-.91zm18.25 2.68c-1.33-.75-2.34-1.81-3.05-3.17-.71-1.37-1.06-2.95-1.06-4.75s.35-3.38 1.06-4.75 1.72-2.42 3.05-3.16 2.88-1.11 4.66-1.11c1.17 0 2.28.18 3.35.54s1.94.85 2.62 1.49l-1.25 2.77c-.77-.58-1.53-1.01-2.29-1.27-.76-.27-1.55-.4-2.36-.4-1.57 0-2.77.5-3.61 1.5s-1.26 2.47-1.26 4.4q0 2.895 1.26 4.41c.84 1.01 2.05 1.51 3.61 1.51.82 0 1.6-.13 2.36-.4s1.52-.69 2.29-1.27l1.25 2.77c-.68.63-1.56 1.13-2.62 1.49-1.07.36-2.18.54-3.35.54-1.78 0-3.34-.38-4.66-1.12zm15.26.32a5.5 5.5 0 0 1-2.27-2.22c-.53-.96-.8-2.09-.8-3.39s.27-2.43.8-3.39 1.29-1.7 2.27-2.21c.98-.52 2.12-.77 3.42-.77s2.44.26 3.43.77c.98.52 1.74 1.25 2.27 2.21s.8 2.09.8 3.39-.27 2.43-.8 3.39-1.29 1.7-2.27 2.22c-.98.53-2.12.79-3.43.79s-2.44-.26-3.42-.79m6.18-5.62c0-1.18-.24-2.07-.71-2.65-.48-.58-1.15-.88-2.04-.88-1.83 0-2.75 1.18-2.75 3.53s.92 3.52 2.75 3.52 2.75-1.18 2.75-3.52m8.52 5.62a5.5 5.5 0 0 1-2.27-2.22c-.53-.96-.8-2.09-.8-3.39s.27-2.43.8-3.39 1.29-1.7 2.27-2.21c.98-.52 2.12-.77 3.42-.77s2.44.26 3.43.77c.98.52 1.74 1.25 2.27 2.21s.8 2.09.8 3.39-.27 2.43-.8 3.39-1.29 1.7-2.27 2.22c-.98.53-2.12.79-3.43.79s-2.44-.26-3.42-.79m6.18-5.62c0-1.18-.24-2.07-.71-2.65-.48-.58-1.15-.88-2.04-.88-1.83 0-2.75 1.18-2.75 3.53s.92 3.52 2.75 3.52 2.75-1.18 2.75-3.52m6.05-11.42h3.77v17.62h-3.77zm10.6-.55v3.52h-4.05v-3.52zm-3.93 5.9h3.77v12.28h-3.77zm17.65.99c.72.86 1.079 2.15 1.079 3.89v7.4h-3.78v-7.23c0-.83-.149-1.44-.459-1.82q-.465-.57-1.44-.57-1.17 0-1.89.75c-.48.5-.711 1.17-.711 2v6.88h-3.769v-12.28h3.67v1.75c.43-.67 1-1.17 1.69-1.52s1.47-.52 2.34-.52q2.205 0 3.27 1.29zm16.43-.99v10.95c0 1.98-.57 3.48-1.7 4.5s-2.81 1.52-5.03 1.52c-1.1 0-2.15-.13-3.16-.4s-1.9-.64-2.66-1.12l1-2.6c1.58.87 3.16 1.3 4.73 1.3 2.07 0 3.1-.98 3.1-2.93v-1.35c-.35.63-.88 1.13-1.58 1.5s-1.48.55-2.35.55c-1.07 0-2.01-.25-2.84-.75s-1.47-1.21-1.94-2.14-.7-2-.7-3.21.23-2.29.7-3.21 1.11-1.64 1.94-2.15 1.77-.76 2.84-.76q1.275 0 2.31.54c.69.36 1.22.85 1.59 1.49v-1.73zm-4.49 8.2c.49-.57.74-1.36.74-2.38s-.25-1.81-.74-2.39-1.18-.86-2.06-.86-1.58.29-2.08.86-.75 1.37-.75 2.39.25 1.79.75 2.36 1.19.86 2.08.86 1.57-.28 2.06-.85z"/></svg>