<svg width="434" height="190" viewBox="0 0 434 190" fill="none" xmlns="http://www.w3.org/2000/svg">
<path d="M189.72 94.91H151.82L94.91 151.81L38.01 94.91H0L94.91 189.82L189.82 94.91H189.72Z" fill="#AAC853"/>
<path d="M0.00976562 94.91L9.58976 85.41L94.9998 0L180.41 85.41L189.81 94.91H151.91L94.9998 38.01L38.0998 94.91H0.00976562Z" fill="#006D68"/>
<path d="M80.7793 98.27H76.7793V70.43L93.5793 53.26L96.4393 56.06L80.7793 72.06V98.27Z" fill="#003834"/>
<path d="M78.7795 102.55C81.2703 102.55 83.2895 100.531 83.2895 98.04C83.2895 95.5492 81.2703 93.53 78.7795 93.53C76.2887 93.53 74.2695 95.5492 74.2695 98.04C74.2695 100.531 76.2887 102.55 78.7795 102.55Z" fill="#003834"/>
<path d="M65.2998 104.85H61.2998V85.85L78.1198 69.07L80.9498 71.91L65.2998 87.51V104.85Z" fill="#003834"/>
<path d="M58.79 104.62C58.79 107.11 60.81 109.13 63.3 109.13C65.79 109.13 67.81 107.11 67.81 104.62C67.81 102.13 65.79 100.11 63.3 100.11C60.81 100.11 58.79 102.13 58.79 104.62Z" fill="#3C3C3C"/>
<path d="M113.14 98.27H109.14V72.06L93.4805 56.06L96.3405 53.26L113.14 70.43V98.27Z" fill="#003834"/>
<path d="M111.141 102.55C113.632 102.55 115.651 100.531 115.651 98.04C115.651 95.5492 113.632 93.53 111.141 93.53C108.65 93.53 106.631 95.5492 106.631 98.04C106.631 100.531 108.65 102.55 111.141 102.55Z" fill="#003834"/>
<path d="M128.62 104.85H124.62V87.51L108.97 71.91L111.8 69.07L128.62 85.85V104.85Z" fill="#003834"/>
<path d="M122.1 104.62C122.1 107.11 124.12 109.13 126.61 109.13C129.1 109.13 131.12 107.11 131.12 104.62C131.12 102.13 129.1 100.11 126.61 100.11C124.12 100.11 122.1 102.13 122.1 104.62Z" fill="#003834"/>
<path d="M97 38.01H93V119.47H97V38.01Z" fill="#006D68"/>
<path d="M95.0005 126.61C99.1537 126.61 102.52 123.243 102.52 119.09C102.52 114.937 99.1537 111.57 95.0005 111.57C90.8473 111.57 87.4805 114.937 87.4805 119.09C87.4805 123.243 90.8473 126.61 95.0005 126.61Z" fill="#006D68"/>
<path d="M354.09 78.0365C350.303 78.0365 347.064 77.2891 344.373 75.7942C341.683 74.2992 339.606 72.2064 338.145 69.5155C336.716 66.7915 336.002 63.5857 336.002 59.8983C336.002 56.2108 336.716 53.0217 338.145 50.3309C339.606 47.64 341.683 45.5471 344.373 44.0522C347.064 42.5573 350.303 41.8099 354.09 41.8099C356.416 41.8099 358.642 42.1753 360.768 42.9061C362.894 43.637 364.638 44.6336 366 45.896L363.608 52.0251C362.113 50.8624 360.602 50.0153 359.073 49.4837C357.578 48.919 356.001 48.6366 354.34 48.6366C351.017 48.6366 348.493 49.6166 346.765 51.5766C345.038 53.5034 344.174 56.2773 344.174 59.8983C344.174 63.5193 345.038 66.3098 346.765 68.2698C348.493 70.2298 351.017 71.2098 354.34 71.2098C356.001 71.2098 357.578 70.944 359.073 70.4125C360.602 69.8477 362.113 68.984 363.608 67.8213L366 73.9504C364.638 75.2128 362.894 76.2094 360.768 76.9402C358.642 77.6711 356.416 78.0365 354.09 78.0365Z" fill="#003834"/>
<path d="M304.104 77.4883V42.358H320.15C322.774 42.358 325 42.8064 326.827 43.7034C328.654 44.6003 330.033 45.8793 330.963 47.5403C331.926 49.2013 332.408 51.2112 332.408 53.5698C332.408 55.9284 331.926 57.9549 330.963 59.6491C330.033 61.3101 328.654 62.5891 326.827 63.486C325 64.383 322.774 64.8314 320.15 64.8314H311.828V77.4883H304.104ZM311.828 58.8518H318.854C320.847 58.8518 322.359 58.4033 323.389 57.5064C324.452 56.6094 324.983 55.2972 324.983 53.5698C324.983 51.8423 324.452 50.5468 323.389 49.683C322.359 48.8193 320.847 48.3874 318.854 48.3874H311.828V58.8518Z" fill="#003834"/>
<path d="M265.515 77.4883V42.358H279.268C283.254 42.358 286.643 43.0556 289.433 44.4508C292.257 45.8129 294.4 47.8061 295.861 50.4305C297.356 53.0217 298.104 56.1776 298.104 59.8982C298.104 63.6189 297.356 66.7914 295.861 69.4158C294.4 72.0402 292.257 74.0501 289.433 75.4453C286.643 76.8073 283.254 77.4883 279.268 77.4883H265.515ZM273.238 71.1599H278.819C282.573 71.1599 285.38 70.2297 287.241 68.3694C289.101 66.5091 290.031 63.6853 290.031 59.8982C290.031 56.1111 289.084 53.304 287.191 51.4769C285.331 49.6166 282.54 48.6864 278.819 48.6864H273.238V71.1599Z" fill="#003834"/>
<path d="M219.515 77.4883L207.008 42.358H214.931L224.05 69.4657H221.907L231.524 42.358H237.105L246.324 69.4657H244.48L253.749 42.358H261.223L248.616 77.4883H242.338L233.518 52.5234H234.713L225.794 77.4883H219.515Z" fill="#003834"/>
<path d="M237.171 105.42L230.901 123.04H227.781L223.701 111.36L219.581 123.04H216.461L210.211 105.42H214.161L218.181 117.59L222.461 105.42H225.181L229.301 117.72L233.471 105.42H237.171Z" fill="#003834"/>
<path d="M240.041 122.46C239.061 121.94 238.301 121.19 237.771 120.24C237.241 119.28 236.971 118.15 236.971 116.85C236.971 115.55 237.241 114.42 237.771 113.46C238.301 112.5 239.061 111.76 240.041 111.25C241.021 110.73 242.161 110.48 243.461 110.48C244.761 110.48 245.901 110.74 246.891 111.25C247.871 111.77 248.631 112.5 249.161 113.46C249.691 114.42 249.961 115.55 249.961 116.85C249.961 118.15 249.691 119.28 249.161 120.24C248.631 121.2 247.871 121.94 246.891 122.46C245.911 122.99 244.771 123.25 243.461 123.25C242.151 123.25 241.021 122.99 240.041 122.46ZM246.221 116.84C246.221 115.66 245.981 114.77 245.511 114.19C245.031 113.61 244.361 113.31 243.471 113.31C241.641 113.31 240.721 114.49 240.721 116.84C240.721 119.19 241.641 120.36 243.471 120.36C245.301 120.36 246.221 119.18 246.221 116.84Z" fill="#003834"/>
<path d="M261.041 113.57L258.921 113.8C257.871 113.9 257.131 114.2 256.701 114.69C256.271 115.18 256.051 115.84 256.051 116.65V123.05H252.281V110.77H255.901V112.85C256.521 111.43 257.791 110.66 259.731 110.52L260.831 110.44L261.051 113.56L261.041 113.57Z" fill="#003834"/>
<path d="M270.771 123.04L266.071 117.56V123.04H262.301V105.42H266.071V116.02L270.601 110.8H275.101L269.951 116.65L275.401 123.05H270.781L270.771 123.04Z" fill="#003834"/>
<path d="M276.241 105.42H280.011V123.04H276.241V105.42Z" fill="#003834"/>
<path d="M285.391 122.46C284.411 121.94 283.651 121.19 283.121 120.24C282.591 119.28 282.321 118.15 282.321 116.85C282.321 115.55 282.591 114.42 283.121 113.46C283.651 112.5 284.411 111.76 285.391 111.25C286.371 110.73 287.511 110.48 288.811 110.48C290.111 110.48 291.251 110.74 292.241 111.25C293.221 111.77 293.981 112.5 294.511 113.46C295.041 114.42 295.311 115.55 295.311 116.85C295.311 118.15 295.041 119.28 294.511 120.24C293.981 121.2 293.221 121.94 292.241 122.46C291.261 122.99 290.121 123.25 288.811 123.25C287.501 123.25 286.371 122.99 285.391 122.46ZM291.571 116.84C291.571 115.66 291.331 114.77 290.861 114.19C290.381 113.61 289.711 113.31 288.821 113.31C286.991 113.31 286.071 114.49 286.071 116.84C286.071 119.19 286.991 120.36 288.821 120.36C290.651 120.36 291.571 119.18 291.571 116.84Z" fill="#003834"/>
<path d="M307.131 111.77C308.011 112.64 308.441 113.98 308.441 115.8V123.05H304.861V121.22C304.611 121.85 304.191 122.35 303.611 122.71C303.031 123.07 302.341 123.25 301.561 123.25C300.731 123.25 299.971 123.08 299.301 122.75C298.631 122.42 298.091 121.95 297.701 121.35C297.311 120.75 297.111 120.08 297.111 119.35C297.111 118.45 297.341 117.74 297.801 117.23C298.261 116.71 299.001 116.34 300.011 116.11C301.021 115.88 302.421 115.76 304.191 115.76H304.841V115.31C304.841 114.58 304.681 114.06 304.371 113.76C304.051 113.46 303.501 113.31 302.721 113.31C302.121 113.31 301.451 113.42 300.721 113.63C299.991 113.85 299.291 114.15 298.621 114.53L297.621 112.01C298.321 111.58 299.181 111.21 300.211 110.92C301.241 110.63 302.191 110.48 303.071 110.48C304.901 110.48 306.261 110.91 307.131 111.78V111.77ZM304.171 119.91C304.621 119.42 304.841 118.78 304.841 118V117.57H304.421C303.071 117.57 302.121 117.68 301.581 117.9C301.041 118.12 300.771 118.51 300.771 119.07C300.771 119.52 300.921 119.9 301.231 120.19C301.541 120.49 301.931 120.64 302.391 120.64C303.121 120.64 303.721 120.39 304.171 119.9V119.91Z" fill="#003834"/>
<path d="M323.691 105.42V123.04H319.941V121.21C319.571 121.84 319.051 122.34 318.381 122.7C317.711 123.06 316.941 123.24 316.091 123.24C315.041 123.24 314.101 122.97 313.281 122.43C312.451 121.89 311.811 121.13 311.351 120.16C310.891 119.18 310.661 118.06 310.661 116.8C310.661 115.54 310.891 114.42 311.351 113.46C311.811 112.5 312.451 111.76 313.261 111.25C314.081 110.73 315.021 110.48 316.091 110.48C316.921 110.48 317.681 110.65 318.351 111C319.031 111.35 319.551 111.84 319.911 112.48V105.43H323.691V105.42ZM319.231 119.46C319.711 118.85 319.941 117.98 319.941 116.85C319.941 115.72 319.701 114.85 319.231 114.25C318.761 113.65 318.081 113.35 317.191 113.35C316.301 113.35 315.621 113.65 315.141 114.24C314.661 114.83 314.411 115.69 314.411 116.8C314.411 117.91 314.651 118.81 315.141 119.44C315.631 120.07 316.311 120.38 317.191 120.38C318.071 120.38 318.751 120.08 319.231 119.47V119.46Z" fill="#003834"/>
<path d="M333.871 105.42H340.721C342.641 105.42 344.291 105.77 345.671 106.47C347.051 107.17 348.111 108.18 348.841 109.49C349.571 110.81 349.941 112.38 349.941 114.22C349.941 116.06 349.581 117.63 348.851 118.96C348.131 120.29 347.071 121.3 345.691 122C344.311 122.7 342.651 123.05 340.711 123.05H333.861V105.43L333.871 105.42ZM340.441 119.89C344.191 119.89 346.061 118 346.061 114.22C346.061 110.44 344.181 108.57 340.441 108.57H337.771V119.9H340.441V119.89Z" fill="#003834"/>
<path d="M364.841 110.79L357.441 127.54H353.611L355.961 122.36L350.911 110.79H354.841L357.941 118.59L361.141 110.79H364.841Z" fill="#003834"/>
<path d="M376.971 111.76C377.691 112.62 378.051 113.91 378.051 115.65V123.05H374.271V115.82C374.271 114.99 374.121 114.38 373.811 114C373.501 113.62 373.021 113.43 372.371 113.43C371.591 113.43 370.961 113.68 370.481 114.18C370.001 114.68 369.771 115.35 369.771 116.18V123.06H366.001V110.78H369.671V112.53C370.101 111.86 370.671 111.36 371.361 111.01C372.051 110.66 372.831 110.49 373.701 110.49C375.171 110.49 376.261 110.92 376.971 111.78V111.76Z" fill="#003834"/>
<path d="M390.381 111.77C391.261 112.64 391.691 113.98 391.691 115.8V123.05H388.111V121.22C387.861 121.85 387.441 122.35 386.861 122.71C386.281 123.07 385.591 123.25 384.811 123.25C383.981 123.25 383.221 123.08 382.551 122.75C381.881 122.42 381.341 121.95 380.951 121.35C380.561 120.75 380.361 120.08 380.361 119.35C380.361 118.45 380.591 117.74 381.051 117.23C381.511 116.71 382.251 116.34 383.261 116.11C384.271 115.88 385.671 115.76 387.441 115.76H388.091V115.31C388.091 114.58 387.931 114.06 387.621 113.76C387.301 113.46 386.751 113.31 385.971 113.31C385.371 113.31 384.701 113.42 383.971 113.63C383.241 113.85 382.541 114.15 381.871 114.53L380.871 112.01C381.571 111.58 382.431 111.21 383.461 110.92C384.491 110.63 385.441 110.48 386.321 110.48C388.151 110.48 389.511 110.91 390.381 111.78V111.77ZM387.421 119.91C387.871 119.42 388.091 118.78 388.091 118V117.57H387.671C386.321 117.57 385.371 117.68 384.831 117.9C384.291 118.12 384.021 118.51 384.021 119.07C384.021 119.52 384.171 119.9 384.481 120.19C384.791 120.49 385.181 120.64 385.641 120.64C386.371 120.64 386.971 120.39 387.421 119.9V119.91Z" fill="#003834"/>
<path d="M412.771 111.74C413.451 112.59 413.791 113.89 413.791 115.64V123.04H410.021V115.76C410.021 114.93 409.891 114.33 409.631 113.96C409.371 113.59 408.931 113.41 408.321 113.41C407.601 113.41 407.041 113.66 406.651 114.16C406.251 114.66 406.051 115.36 406.051 116.26V123.04H402.281V115.76C402.281 114.93 402.151 114.33 401.891 113.96C401.631 113.59 401.191 113.41 400.581 113.41C399.861 113.41 399.301 113.66 398.911 114.16C398.511 114.66 398.311 115.36 398.311 116.26V123.04H394.541V110.76H398.211V112.41C398.591 111.78 399.111 111.29 399.751 110.96C400.391 110.63 401.131 110.46 401.961 110.46C403.781 110.46 404.991 111.22 405.611 112.73C406.011 112.03 406.571 111.48 407.281 111.07C408.001 110.66 408.791 110.46 409.661 110.46C411.061 110.46 412.101 110.88 412.781 111.73L412.771 111.74Z" fill="#003834"/>
<path d="M420.57 104.87V108.39H416.521V104.87H420.57ZM416.641 110.77H420.411V123.05H416.641V110.77Z" fill="#003834"/>
<path d="M424.441 121.54C423.291 120.41 422.711 118.86 422.711 116.92C422.711 115.64 422.991 114.51 423.541 113.53C424.091 112.55 424.871 111.8 425.871 111.27C426.871 110.74 428.031 110.47 429.341 110.47C430.241 110.47 431.111 110.61 431.941 110.88C432.771 111.16 433.451 111.53 433.961 111.99L432.961 114.56C432.481 114.18 431.951 113.88 431.371 113.67C430.791 113.46 430.231 113.36 429.681 113.36C428.701 113.36 427.931 113.65 427.391 114.24C426.851 114.82 426.581 115.69 426.581 116.84C426.581 117.99 426.851 118.86 427.391 119.45C427.931 120.04 428.691 120.34 429.681 120.34C430.231 120.34 430.791 120.24 431.371 120.03C431.951 119.82 432.471 119.53 432.961 119.14L433.961 121.74C433.411 122.21 432.711 122.57 431.861 122.84C431.011 123.11 430.111 123.24 429.161 123.24C427.161 123.24 425.581 122.67 424.441 121.54Z" fill="#003834"/>
<path d="M211.491 135.42H219.591C221.511 135.42 223.001 135.9 224.071 136.87C225.141 137.84 225.671 139.19 225.671 140.92C225.671 142.65 225.141 144 224.071 144.97C223.001 145.94 221.511 146.42 219.591 146.42H215.391V153.04H211.491V135.42ZM219.091 143.47C221.041 143.47 222.021 142.63 222.021 140.94C222.021 140.07 221.781 139.43 221.291 139.02C220.811 138.6 220.071 138.4 219.091 138.4H215.391V143.48H219.091V143.47Z" fill="#003834"/>
<path d="M229.871 152.46C228.891 151.94 228.131 151.19 227.601 150.24C227.071 149.28 226.801 148.15 226.801 146.85C226.801 145.55 227.071 144.42 227.601 143.46C228.131 142.5 228.891 141.76 229.871 141.25C230.851 140.73 231.991 140.48 233.291 140.48C234.591 140.48 235.731 140.74 236.721 141.25C237.701 141.77 238.461 142.5 238.991 143.46C239.521 144.42 239.791 145.55 239.791 146.85C239.791 148.15 239.521 149.28 238.991 150.24C238.461 151.2 237.701 151.94 236.721 152.46C235.741 152.99 234.601 153.25 233.291 153.25C231.981 153.25 230.851 152.99 229.871 152.46ZM236.041 146.84C236.041 145.66 235.801 144.77 235.331 144.19C234.851 143.61 234.181 143.31 233.291 143.31C231.461 143.31 230.541 144.49 230.541 146.84C230.541 149.19 231.461 150.36 233.291 150.36C235.121 150.36 236.041 149.18 236.041 146.84Z" fill="#003834"/>
<path d="M262.021 140.77L257.051 153.05H253.851L251.151 146.12L248.531 153.05H245.361L240.361 140.77H244.211L247.111 148.55L250.011 140.77H252.561L255.481 148.62L258.361 140.77H262.031H262.021Z" fill="#003834"/>
<path d="M274.221 147.62H266.221C266.341 148.6 266.661 149.32 267.181 149.76C267.701 150.2 268.451 150.42 269.421 150.42C270.051 150.42 270.681 150.32 271.311 150.11C271.931 149.9 272.511 149.61 273.021 149.22L274.021 151.74C273.421 152.21 272.691 152.57 271.831 152.84C270.971 153.11 270.111 153.24 269.241 153.24C267.171 153.24 265.541 152.67 264.351 151.53C263.161 150.39 262.561 148.83 262.561 146.87C262.561 145.62 262.821 144.51 263.341 143.55C263.861 142.59 264.571 141.83 265.491 141.29C266.411 140.75 267.451 140.48 268.611 140.48C270.331 140.48 271.691 141.04 272.701 142.15C273.711 143.27 274.211 144.78 274.211 146.7V147.63L274.221 147.62ZM267.011 143.76C266.591 144.22 266.321 144.88 266.221 145.75H271.051C271.001 144.87 270.781 144.2 270.391 143.75C270.001 143.3 269.441 143.07 268.731 143.07C268.021 143.07 267.441 143.3 267.021 143.76H267.011Z" fill="#003834"/>
<path d="M285.271 143.57L283.151 143.8C282.101 143.9 281.361 144.2 280.931 144.69C280.501 145.18 280.281 145.84 280.281 146.65V153.05H276.511V140.77H280.131V142.85C280.751 141.43 282.021 140.66 283.961 140.52L285.061 140.44L285.281 143.56L285.271 143.57Z" fill="#003834"/>
<path d="M303.011 141.77C303.891 142.64 304.321 143.98 304.321 145.8V153.05H300.741V151.22C300.491 151.85 300.071 152.35 299.491 152.71C298.911 153.07 298.221 153.25 297.441 153.25C296.611 153.25 295.851 153.08 295.181 152.75C294.511 152.42 293.971 151.95 293.581 151.35C293.191 150.75 292.991 150.08 292.991 149.35C292.991 148.45 293.221 147.74 293.681 147.23C294.141 146.71 294.881 146.34 295.891 146.11C296.901 145.88 298.301 145.76 300.071 145.76H300.721V145.31C300.721 144.58 300.561 144.06 300.251 143.76C299.931 143.46 299.381 143.31 298.601 143.31C298.001 143.31 297.331 143.42 296.601 143.63C295.871 143.85 295.171 144.15 294.501 144.53L293.501 142.01C294.201 141.58 295.061 141.21 296.091 140.92C297.121 140.63 298.071 140.48 298.951 140.48C300.781 140.48 302.141 140.91 303.011 141.78V141.77ZM300.041 149.91C300.491 149.42 300.711 148.78 300.711 148V147.57H300.291C298.941 147.57 297.991 147.68 297.451 147.9C296.911 148.12 296.641 148.51 296.641 149.07C296.641 149.52 296.791 149.9 297.101 150.19C297.411 150.49 297.801 150.64 298.261 150.64C298.991 150.64 299.591 150.39 300.041 149.9V149.91Z" fill="#003834"/>
<path d="M318.121 141.76C318.841 142.62 319.201 143.91 319.201 145.65V153.05H315.421V145.82C315.421 144.99 315.271 144.38 314.961 144C314.651 143.62 314.171 143.43 313.521 143.43C312.741 143.43 312.111 143.68 311.631 144.18C311.151 144.68 310.921 145.35 310.921 146.18V153.06H307.151V140.78H310.821V142.53C311.251 141.86 311.821 141.36 312.511 141.01C313.201 140.66 313.981 140.49 314.851 140.49C316.321 140.49 317.411 140.92 318.121 141.78V141.76Z" fill="#003834"/>
<path d="M334.441 135.42V153.04H330.691V151.21C330.321 151.84 329.801 152.34 329.131 152.7C328.461 153.06 327.691 153.24 326.841 153.24C325.791 153.24 324.851 152.97 324.031 152.43C323.201 151.89 322.561 151.13 322.101 150.16C321.641 149.18 321.411 148.06 321.411 146.8C321.411 145.54 321.641 144.42 322.101 143.46C322.561 142.5 323.201 141.76 324.011 141.25C324.831 140.73 325.771 140.48 326.841 140.48C327.671 140.48 328.431 140.65 329.101 141C329.781 141.35 330.301 141.84 330.661 142.48V135.43H334.441V135.42ZM329.981 149.46C330.461 148.85 330.691 147.98 330.691 146.85C330.691 145.72 330.451 144.85 329.981 144.25C329.511 143.65 328.831 143.35 327.941 143.35C327.051 143.35 326.371 143.65 325.891 144.24C325.411 144.83 325.161 145.69 325.161 146.8C325.161 147.91 325.401 148.81 325.891 149.44C326.381 150.07 327.061 150.38 327.941 150.38C328.821 150.38 329.501 150.08 329.981 149.47V149.46Z" fill="#003834"/>
<path d="M348.231 152.14C346.901 151.39 345.891 150.33 345.181 148.97C344.471 147.6 344.121 146.02 344.121 144.22C344.121 142.42 344.471 140.84 345.181 139.47C345.891 138.1 346.901 137.05 348.231 136.31C349.561 135.57 351.111 135.2 352.891 135.2C354.061 135.2 355.171 135.38 356.241 135.74C357.311 136.1 358.181 136.59 358.861 137.23L357.611 140C356.841 139.42 356.081 138.99 355.321 138.73C354.561 138.46 353.771 138.33 352.961 138.33C351.391 138.33 350.191 138.83 349.351 139.83C348.511 140.83 348.091 142.3 348.091 144.23C348.091 146.16 348.511 147.63 349.351 148.64C350.191 149.65 351.401 150.15 352.961 150.15C353.781 150.15 354.561 150.02 355.321 149.75C356.081 149.48 356.841 149.06 357.611 148.48L358.861 151.25C358.181 151.88 357.301 152.38 356.241 152.74C355.171 153.1 354.061 153.28 352.891 153.28C351.111 153.28 349.551 152.9 348.231 152.16V152.14Z" fill="#003834"/>
<path d="M363.491 152.46C362.511 151.94 361.751 151.19 361.221 150.24C360.691 149.28 360.421 148.15 360.421 146.85C360.421 145.55 360.691 144.42 361.221 143.46C361.751 142.5 362.511 141.76 363.491 141.25C364.471 140.73 365.611 140.48 366.911 140.48C368.211 140.48 369.351 140.74 370.341 141.25C371.321 141.77 372.081 142.5 372.611 143.46C373.141 144.42 373.411 145.55 373.411 146.85C373.411 148.15 373.141 149.28 372.611 150.24C372.081 151.2 371.321 151.94 370.341 152.46C369.361 152.99 368.221 153.25 366.911 153.25C365.601 153.25 364.471 152.99 363.491 152.46ZM369.671 146.84C369.671 145.66 369.431 144.77 368.961 144.19C368.481 143.61 367.811 143.31 366.921 143.31C365.091 143.31 364.171 144.49 364.171 146.84C364.171 149.19 365.091 150.36 366.921 150.36C368.751 150.36 369.671 149.18 369.671 146.84Z" fill="#003834"/>
<path d="M378.191 152.46C377.211 151.94 376.451 151.19 375.921 150.24C375.391 149.28 375.121 148.15 375.121 146.85C375.121 145.55 375.391 144.42 375.921 143.46C376.451 142.5 377.211 141.76 378.191 141.25C379.171 140.73 380.311 140.48 381.611 140.48C382.911 140.48 384.051 140.74 385.041 141.25C386.021 141.77 386.781 142.5 387.311 143.46C387.841 144.42 388.111 145.55 388.111 146.85C388.111 148.15 387.841 149.28 387.311 150.24C386.781 151.2 386.021 151.94 385.041 152.46C384.061 152.99 382.921 153.25 381.611 153.25C380.301 153.25 379.171 152.99 378.191 152.46ZM384.371 146.84C384.371 145.66 384.131 144.77 383.661 144.19C383.181 143.61 382.511 143.31 381.621 143.31C379.791 143.31 378.871 144.49 378.871 146.84C378.871 149.19 379.791 150.36 381.621 150.36C383.451 150.36 384.371 149.18 384.371 146.84Z" fill="#003834"/>
<path d="M390.421 135.42H394.191V153.04H390.421V135.42Z" fill="#003834"/>
<path d="M401.021 134.87V138.39H396.971V134.87H401.021ZM397.091 140.77H400.861V153.05H397.091V140.77Z" fill="#003834"/>
<path d="M414.741 141.76C415.461 142.62 415.82 143.91 415.82 145.65V153.05H412.04V145.82C412.04 144.99 411.891 144.38 411.581 144C411.271 143.62 410.791 143.43 410.141 143.43C409.361 143.43 408.731 143.68 408.251 144.18C407.771 144.68 407.54 145.35 407.54 146.18V153.06H403.771V140.78H407.441V142.53C407.871 141.86 408.441 141.36 409.131 141.01C409.821 140.66 410.601 140.49 411.471 140.49C412.941 140.49 414.031 140.92 414.741 141.78V141.76Z" fill="#003834"/>
<path d="M431.171 140.77V151.72C431.171 153.7 430.601 155.2 429.471 156.22C428.341 157.24 426.661 157.74 424.441 157.74C423.341 157.74 422.291 157.61 421.281 157.34C420.271 157.07 419.381 156.7 418.621 156.22L419.621 153.62C421.201 154.49 422.781 154.92 424.351 154.92C426.421 154.92 427.451 153.94 427.451 151.99V150.64C427.101 151.27 426.571 151.77 425.871 152.14C425.171 152.51 424.391 152.69 423.521 152.69C422.451 152.69 421.511 152.44 420.681 151.94C419.851 151.44 419.211 150.73 418.741 149.8C418.271 148.87 418.041 147.8 418.041 146.59C418.041 145.38 418.271 144.3 418.741 143.38C419.211 142.46 419.851 141.74 420.681 141.23C421.511 140.72 422.451 140.47 423.521 140.47C424.371 140.47 425.141 140.65 425.831 141.01C426.521 141.37 427.051 141.86 427.421 142.5V140.77H431.171ZM426.681 148.97C427.171 148.4 427.421 147.61 427.421 146.59C427.421 145.57 427.171 144.78 426.681 144.2C426.191 143.62 425.501 143.34 424.621 143.34C423.741 143.34 423.041 143.63 422.541 144.2C422.041 144.77 421.791 145.57 421.791 146.59C421.791 147.61 422.041 148.38 422.541 148.95C423.041 149.52 423.731 149.81 424.621 149.81C425.511 149.81 426.191 149.53 426.681 148.96V148.97Z" fill="#003834"/>
</svg>
