<svg xmlns="http://www.w3.org/2000/svg" width="420" height="421" fill="none" viewBox="0 0 420 421"><path fill="#ebf2d4" d="M276.25 20.268c-17.66-6.62-36.08-12.16-54.94-12.08-25.41.11-49.56 10.37-72.68 20.92-42.55 19.42-76.11 49.86-110.99 80.77-28.23 25.03-32.87 76.91-32.02 112.16.1 4.25.21 8.53.4 12.8.59 13.14 2 26.25 6.61 38.5 7.39 19.64 24.52 36.23 37.46 52.4 14.01 17.5 27.73 32.11 46.59 44.61 21.35 14.15 51.88 38.45 78.21 40.68 33.15 2.81 58.54 4.16 90.4-5.78 33.94-10.58 71.13-26.02 95.56-53.08 12.8-14.19 21.17-34.44 30.7-50.93 18.6-32.18 26.31-66.89 21.52-103.89-5.01-38.72-20.22-68.4-36.27-103.02-20.61-44.45-56.82-57.66-100.56-74.06z"/><path fill="#a9c753" stroke="#a9c753" stroke-linecap="round" stroke-linejoin="round" stroke-width="3.92" d="M361.11 244.668H131.57c-2.52 14.94-8.4 46.34-8.4 46.34l.3 3.09h245.36l.2-3.09s-5.12-30.96-7.92-46.34"/><path fill="#ebf2d4" d="M361.11 241.578H131.57c-2.78 16.47-5.79 32.89-8.1 49.43h245.36c-2.7-16.46-4.73-33.02-7.72-49.43"/><path fill="#a7c553" d="M211.58 254.278h-11.85c.29-2.86.44-4.27.71-7.03h11.69c-.21 2.76-.32 4.17-.55 7.03m14.44.01h-11.83c.22-2.86.32-4.27.51-7.03h11.66c-.12 2.77-.19 4.17-.34 7.03m14.471 0h-11.82c.13-2.86.2-4.27.3-7.03h11.64c-.04 2.77-.06 4.18-.12 7.04zm14.42 0h-11.81c.05-2.86.06-4.27.08-7.04h11.63c.05 2.77.07 4.18.1 7.04m14.57 0h-11.82c-.04-2.86-.07-4.27-.14-7.04h11.64c.14 2.77.2 4.18.31 7.04zm14.489.01h-11.84c-.13-2.86-.2-4.27-.35-7.04h11.67c.22 2.77.32 4.18.52 7.04m14.48 0h-11.86c-.21-2.86-.32-4.27-.56-7.04h11.71c.3 2.77.44 4.18.71 7.04m23.89.01h-11.93c-.33-2.87-.49-4.28-.84-7.05h11.81c.4 2.77.59 4.18.96 7.05m14.671 0h-11.98c-.38-2.87-.57-4.28-.98-7.05h11.9c.44 2.77.65 4.18 1.07 7.05zm14.689 0h-12.04c-.42-2.87-.64-4.28-1.08-7.05h12c.47 2.77.69 4.18 1.13 7.05zm-28.14 9.84h-12.08c-.31-2.97-.47-4.44-.79-7.33h11.97c.37 2.9.54 4.37.9 7.33m14.811 0h-12.1c-.37-2.97-.55-4.44-.92-7.33h12.01c.41 2.9.61 4.37 1.01 7.34zm14.78.01h-12.11c-.41-2.97-.61-4.44-1.02-7.34h12.06c.43 2.9.65 4.37 1.07 7.34m-28.36 10.13h-12.24c-.32-3.04-.48-4.55-.79-7.54h12.12c.36 2.99.54 4.5.91 7.54m14.95.01h-12.21c-.38-3.04-.56-4.55-.93-7.54h12.13c.4 2.99.6 4.5 1.02 7.54zm14.869 0h-12.18c-.42-3.04-.62-4.55-1.03-7.54h12.13c.43 2.99.64 4.5 1.08 7.54m-28.519 10.3h-12.39c-.36-3.08-.53-4.611-.86-7.66h12.28c.38 3.049.57 4.58.98 7.66zm15.099 0h-12.32c-.42-3.07-.61-4.611-1-7.66h12.24c.42 3.049.63 4.58 1.09 7.66zm14.951.01h-12.24c-.46-3.07-.67-4.61-1.1-7.66h12.19c.45 3.05.67 4.58 1.15 7.65zm-203.121-30.34h-12.04c.49-2.85.73-4.26 1.2-7.02h12c-.45 2.76-.68 4.17-1.15 7.02zm14.631 0h-11.98c.47-2.85.69-4.26 1.14-7.02h11.9c-.41 2.76-.62 4.17-1.05 7.02zm14.609.01h-11.93c.42-2.86.63-4.26 1.03-7.03h11.81c-.35 2.76-.54 4.17-.91 7.03m14.52 0h-11.89c.36-2.86.54-4.26.88-7.03h11.75c-.28 2.76-.44 4.17-.75 7.03zm45.72 9.83H227c.15-2.96.23-4.43.37-7.32h15.27c-.05 2.89-.08 4.36-.14 7.32m18.92.01h-15.5c.04-2.96.06-4.43.09-7.32h15.27c.06 2.89.08 4.36.14 7.32m18.98.01h-15.5c-.07-2.96-.11-4.43-.19-7.32h15.28c.17 2.89.25 4.36.41 7.33zm18.94.01h-15.51c-.18-2.97-.27-4.43-.45-7.33h15.32c.27 2.89.39 4.36.65 7.33zm-133.08-.06c-8.99 0-17.98 0-26.96-.01.5-2.96.75-4.42 1.25-7.3h26.81c-.44 2.88-.66 4.35-1.1 7.31m18.959.01h-15.53c.43-2.96.65-4.42 1.07-7.31h15.38c-.36 2.89-.55 4.35-.92 7.31m19.001.01H188.7c.35-2.96.53-4.42.88-7.31h15.33c-.27 2.89-.41 4.35-.69 7.31m18.931 0h-15.51c.26-2.96.39-4.43.64-7.31h15.29c-.17 2.89-.26 4.35-.43 7.32zm7.58 10.14h-15.8c.2-3.04.31-4.55.53-7.53h15.58c-.13 2.98-.19 4.49-.3 7.53zm19.29.01h-15.81c.09-3.04.15-4.55.25-7.53h15.58c-.01 2.99-.02 4.49-.02 7.53m19.359.01h-15.81c-.02-3.04-.02-4.55-.03-7.53h15.58c.1 2.99.15 4.5.26 7.53m30.84.02c-9.12 0-18.24 0-27.36-.01-.13-3.04-.19-4.55-.31-7.53 9 0 18 0 27 .01.26 2.99.39 4.5.66 7.54zm-146.94-.081h-15.66c.49-3.04.74-4.55 1.24-7.53h15.59c-.47 2.98-.71 4.49-1.17 7.53m19.17.01h-15.71c.45-3.04.68-4.55 1.15-7.53h15.59c-.41 2.98-.62 4.49-1.02 7.53zm19.29.01h-15.75c.39-3.04.59-4.549.99-7.529h15.58c-.33 2.98-.5 4.489-.82 7.529m19.261.011h-15.78c.3-3.04.46-4.55.78-7.53h15.58c-.24 2.98-.35 4.49-.58 7.53m31.209 10.34h-16.12c.1-3.09.16-4.62.29-7.68h15.89c-.04 3.05-.05 4.59-.06 7.67zm19.68.01h-16.12c-.01-3.08 0-4.62.01-7.67h15.89c.07 3.05.11 4.59.22 7.67m19.71-.001h-16.1c-.12-3.08-.17-4.62-.27-7.67h15.88c.18 3.05.28 4.59.49 7.67m19.59.01h-16.04c-.23-3.08-.33-4.62-.53-7.67h15.85c.28 3.05.42 4.59.73 7.66zm-137.79-.049h-27.37c.45-3.1.69-4.64 1.17-7.69 9.07 0 18.14 0 27.22.01-.42 3.05-.63 4.59-1.02 7.69zm19.45.01h-15.94c.38-3.09.58-4.63.99-7.69h15.79c-.35 3.05-.52 4.59-.84 7.68zm19.611.009h-16.03c.3-3.09.46-4.63.8-7.68h15.84c-.26 3.05-.38 4.59-.61 7.68m19.63 0h-16.09c.21-3.09.32-4.63.56-7.68h15.87c-.15 3.05-.23 4.59-.35 7.68z"/><path stroke="#adcb53" stroke-linecap="round" stroke-linejoin="round" stroke-width="1.64" d="M361.75 113.718H131.57v127.86h230.18z"/><path fill="#ebf2d4" d="M361.75 105.878H131.57v7.84h230.18z"/><path fill="#ebf2d4" stroke="#adcb53" stroke-linecap="round" stroke-linejoin="round" stroke-width="1.64" d="M361.75 105.858H131.57v135.72h230.18z"/><path stroke="#adcb53" stroke-linecap="round" stroke-linejoin="round" stroke-width="1.64" d="M131.57 114.098h230.18"/><path fill="#006e69" stroke="#006e69" stroke-linecap="round" stroke-linejoin="round" stroke-width="2.53" d="M244.23 372.878h45.87v-158.26h-45.87z"/><path fill="#013834" stroke="#ebf2d4" stroke-linecap="round" stroke-linejoin="round" stroke-width="2.31" d="M187.41 373.058h45.87v-131.58h-45.87z"/><path fill="#adcb53" stroke="#adcb53" stroke-linecap="round" stroke-linejoin="round" stroke-width="2.6" d="M346.9 206.228h-45.87v166.65h45.87z"/><path fill="#ebf2d4" d="M99.67 253.278H14.33v130.67h.07c-.04.14-.07.28-.07.42 0 4.16 19.1 11.54 42.67 11.54s42.67-7.38 42.67-11.54c0-.14-.03-.28-.07-.42h.07z"/><path stroke="#adcb53" stroke-linecap="round" stroke-linejoin="round" stroke-width="2.15" d="M99.67 252.348H14.33v130.67h.07c-.04.14-.07.28-.07.42 0 4.16 19.1 11.54 42.67 11.54s42.67-7.38 42.67-11.54c0-.14-.03-.28-.07-.42h.07z"/><path fill="#ebf2d4" stroke="#adcb53" stroke-miterlimit="10" stroke-width="1.68" d="M19.81 352.378v23.18c0 4.31 16.65 8.67 37.19 8.67s37.19-4.36 37.19-8.67v-23.18z"/><path fill="#ebf2d4" stroke="#adcb53" stroke-miterlimit="10" stroke-width="1.68" d="M57.35 360.178c20.347 0 36.84-3.492 36.84-7.8s-16.493-7.8-36.84-7.8c-20.345 0-36.84 3.492-36.84 7.8s16.495 7.8 36.84 7.8Z"/><path fill="#ebf2d4" stroke="#adcb53" stroke-miterlimit="10" stroke-width="1.68" d="M19.81 316.958v23.18c0 4.31 16.65 7.8 37.19 7.8s37.19-3.49 37.19-7.8v-23.18z"/><path fill="#ebf2d4" stroke="#adcb53" stroke-miterlimit="10" stroke-width="1.68" d="M57.35 324.758c20.347 0 36.84-3.492 36.84-7.8s-16.493-7.8-36.84-7.8c-20.345 0-36.84 3.492-36.84 7.8s16.495 7.8 36.84 7.8Z"/><path fill="#ebf2d4" stroke="#adcb53" stroke-miterlimit="10" stroke-width="1.68" d="M19.81 280.218v23.18c0 4.31 16.65 7.8 37.19 7.8s37.19-3.49 37.19-7.8v-23.18z"/><path fill="#ebf2d4" stroke="#adcb53" stroke-miterlimit="10" stroke-width="1.68" d="M57.35 288.018c20.347 0 36.84-3.492 36.84-7.8s-16.493-7.8-36.84-7.8c-20.345 0-36.84 3.492-36.84 7.8s16.495 7.8 36.84 7.8Zm-.35-22.42c23.566 0 42.67-5.35 42.67-11.95s-19.104-11.95-42.67-11.95-42.67 5.35-42.67 11.95 19.104 11.95 42.67 11.95Z"/><path fill="#aecc53" d="M74.07 235.118H38.99v15.17h.04c-.03.09-.04.18-.04.27 0 2.21 7.85 4 17.54 4s17.54-1.79 17.54-4c0-.09-.02-.18-.04-.27h.04z"/><path fill="#00544f" d="M74.07 235.118c0 2.21-7.85 4.87-17.54 4.87s-17.54-2.66-17.54-4.87 7.85-4 17.54-4 17.54 1.79 17.54 4"/><path fill="#aecc53" d="M56.53 237.058c4.689 0 8.49-.869 8.49-1.94 0-1.072-3.801-1.94-8.49-1.94s-8.49.868-8.49 1.94c0 1.071 3.801 1.94 8.49 1.94"/><path stroke="#adcb53" stroke-linecap="round" stroke-linejoin="round" stroke-width="3.04" d="M77 138.968c-1.62 9.53-9.99 16.82-19.96 16.76s-18.25-7.44-19.77-16.99"/><path fill="#adcb53" d="M73.54 138.798a3.434 3.434 0 0 1 3.75-3.08c1.89.18 3.26 1.86 3.08 3.75a3.434 3.434 0 0 1-3.75 3.08 3.434 3.434 0 0 1-3.08-3.75m-32.8-.18a3.423 3.423 0 0 0-3.71-3.12 3.423 3.423 0 0 0-3.12 3.71 3.423 3.423 0 0 0 3.71 3.12 3.423 3.423 0 0 0 3.12-3.71"/><path stroke="#adcb53" stroke-linecap="round" stroke-linejoin="round" stroke-width="3.04" d="M86.73 166.498c-1.72 14.93-14.54 26.58-29.89 26.5s-28.04-11.88-29.59-26.83"/><path fill="#adcb53" d="M83.27 166.428a3.426 3.426 0 0 1 3.65-3.19c1.89.13 3.32 1.76 3.19 3.65a3.426 3.426 0 0 1-3.65 3.19 3.426 3.426 0 0 1-3.19-3.65m-52.57-.3a3.43 3.43 0 0 0-3.62-3.23 3.43 3.43 0 0 0-3.23 3.62 3.43 3.43 0 0 0 3.62 3.23 3.43 3.43 0 0 0 3.23-3.62"/><path stroke="#adcb53" stroke-linecap="round" stroke-linejoin="round" stroke-width="3.04" d="m57.27 116.508-.9 118.7"/><path fill="#adcb53" d="M53.84 116.658a3.42 3.42 0 0 1 3.45-3.4 3.42 3.42 0 0 1 3.4 3.45 3.42 3.42 0 0 1-3.45 3.4 3.42 3.42 0 0 1-3.4-3.45"/><path fill="#ebf2d4" d="M274.95 67.358H130.34v120.33h144.61z"/><path fill="#013834" d="M274.36 67.948v119.14H130.94V67.948zm1.18-1.18h-145.8v121.51h145.8z"/><path stroke="#013834" stroke-miterlimit="10" stroke-width="1.19" d="M146.33 97.298h119.03m-119.03 10.72h119.03m-119.03 10.59h119.03m-119.03 10.72h119.03m-119.03 10.72h119.03m-119.03 10.72h119.03m-119.03 10.6h119.03"/><path fill="#acca53" d="M275.54 60.298h-145.8v12.88h145.8z"/><path fill="#000" d="m268.045 63.212-5.749 5.748 1.35 1.351 5.749-5.749z"/><path fill="#000" d="m263.646 63.212-1.35 1.35 5.749 5.749 1.35-1.35zm-9.536 1.076v5.14h-5.78v-5.14zm.89-.89h-7.55v6.91H255zm-14.88 5.39h-7.55v1.53h7.55z"/><path fill="#013834" d="M108.13 216.868v-112.81l127.99-.33v113.14z"/><path fill="#013834" d="M235.51 104.338v111.92H108.74v-111.59zm1.22-1.23-129.22.33v114.03h129.22v-114.37z"/><path fill="#a8c653" d="M236.74 91.238H107.52v14.98h129.22z"/><path fill="#181818" d="m231.705 96.2-1.57-1.57-6.689 6.689 1.569 1.57z"/><path fill="#181818" d="m230.138 102.882 1.57-1.57-6.689-6.689-1.57 1.57zm-16.199-7.004v5.98h-6.72v-5.98zm1.03-1.03h-8.78v8.04h8.78zm-17.299 6.27h-8.78v1.77h8.78z"/><path stroke="#adcb53" stroke-linecap="round" stroke-linejoin="round" stroke-width="1.93" d="M189.729 170.478h13.2m-43.69 0h24.17m-42.09 0h10.72m40.471 13.97h10.42m-61.611 0h10.06m4.57 0h32.35m-10.88 13.969h25.51m-61.61 0h24.77"/><path stroke="#acca53" stroke-linecap="round" stroke-linejoin="round" stroke-width="1.13" d="M195.319 138.697s-10.38 14.81-23.19 14.81-23.19-14.81-23.19-14.81 10.38-14.81 23.19-14.81 23.19 14.81 23.19 14.81"/><path stroke="#fff" stroke-miterlimit="10" stroke-width="1.13" d="M172.129 151.067c6.909 0 12.51-5.601 12.51-12.51s-5.601-12.51-12.51-12.51-12.51 5.601-12.51 12.51 5.601 12.51 12.51 12.51Z"/><path fill="#adcb53" d="M178.47 138.377c0 3.51-2.84 6.35-6.35 6.35s-6.35-2.84-6.35-6.35 6.35-8.96 6.35-8.96 6.35 5.45 6.35 8.96"/><path fill="#fff" d="M172.129 147.688a.76.76 0 0 1-.76-.76v-7.48a.76.76 0 1 1 1.52 0v7.48c0 .42-.34.76-.76.76"/><path stroke="#ebf2d4" stroke-miterlimit="10" stroke-width="1.68" d="M225.68 280.938v-17.7l-15.33-8.86-15.33 8.86v17.7l15.33 8.85z"/><path fill="#ebf2d4" d="M219.789 277.538v-10.9l-9.44-5.45-9.44 5.45v10.9l9.44 5.45z"/><path fill="#aecc53" d="M323.96 255.088c10.085 0 18.26-8.176 18.26-18.26s-8.175-18.26-18.26-18.26-18.26 8.175-18.26 18.26c0 10.084 8.175 18.26 18.26 18.26"/><path fill="#fff" d="M322.791 247.608v-2.56c-1.66-.05-3.32-.53-4.27-1.16l.71-2.48c1.03.61 2.5 1.16 4.11 1.16s2.79-.82 2.79-2.08c0-1.19-.92-1.95-2.87-2.66-2.77-1-4.56-2.27-4.56-4.72 0-2.27 1.58-4 4.24-4.48v-2.58h2.16v2.45c1.66.05 2.79.45 3.64.87l-.71 2.42c-.63-.29-1.79-.9-3.58-.9s-2.5.95-2.5 1.84c0 1.08.95 1.69 3.19 2.58 2.95 1.11 4.27 2.53 4.27 4.87s-1.55 4.22-4.45 4.69v2.71h-2.16z"/><path stroke="#fff" stroke-miterlimit="10" stroke-width="1.5" d="M323.96 251.098c7.882 0 14.27-6.389 14.27-14.27s-6.388-14.27-14.27-14.27-14.27 6.389-14.27 14.27 6.389 14.27 14.27 14.27Z"/><path fill="#013834" d="M267.161 256.558c-6.42 0-11.65-5.23-11.65-11.65 0-5.74 9.56-14.62 11.65-16.48 2.09 1.87 11.65 10.74 11.65 16.48 0 6.42-5.23 11.65-11.65 11.65"/><path fill="#013834" d="M267.16 229.238c3.69 3.34 11.04 10.95 11.04 15.67 0 6.09-4.95 11.04-11.04 11.04s-11.04-4.95-11.04-11.04c0-4.72 7.34-12.33 11.04-15.67m0-1.63s-12.26 10.53-12.26 17.3 5.49 12.26 12.26 12.26 12.26-5.49 12.26-12.26-12.26-17.3-12.26-17.3"/><path fill="#adcb53" d="M267.16 262.898c-.81 0-1.47-.66-1.47-1.47v-14.44c0-.81.66-1.47 1.47-1.47s1.47.66 1.47 1.47v14.44c0 .81-.66 1.47-1.47 1.47"/></svg>