<svg width="400" height="400" viewBox="0 0 400 400" fill="none" xmlns="http://www.w3.org/2000/svg">
<path d="M268.38 64.48C253.52 58.91 238 54.24 222.13 54.31C200.74 54.4 180.4 63.04 160.94 71.92C125.11 88.27 96.86 113.9 67.49 139.92C43.72 160.99 39.81 204.67 40.53 234.35C40.62 237.93 40.71 241.53 40.87 245.12C41.37 256.19 42.56 267.22 46.44 277.53C52.66 294.07 67.08 308.03 77.98 321.65C89.77 336.39 101.33 348.68 117.21 359.21C135.19 371.12 160.89 391.58 183.06 393.46C210.97 395.82 232.34 396.96 259.17 388.6C287.74 379.69 319.06 366.69 339.62 343.91C350.4 331.97 357.44 314.92 365.47 301.03C381.13 273.93 387.62 244.71 383.59 213.57C379.37 180.97 366.57 155.98 353.06 126.84C335.71 89.42 305.22 78.3 268.39 64.49L268.38 64.48Z" fill="#EBF2D4"/>
<path d="M291.67 27.36C292.28 24.47 293.37 21.63 294.97 18.95C302.78 5.86999 319.72 1.58999 332.81 9.40999C339.12 13.18 343.37 19.06 345.21 25.62C349.96 24.19 355.27 24.67 359.86 27.41C368.54 32.59 371.37 43.83 366.19 52.5C362.92 57.98 357.24 61.12 351.31 61.39C351.94 67.73 350.62 74.32 347.11 80.21C338.39 94.81 319.49 99.58 304.89 90.86C295.54 85.28 290.23 75.51 289.91 65.38C286.02 65.73 281.98 64.91 278.37 62.75C269.26 57.31 266.28 45.51 271.72 36.39C275.95 29.31 284.01 25.96 291.67 27.35V27.36Z" stroke="#808080" stroke-width="2" stroke-linecap="round" stroke-linejoin="round"/>
<path d="M244.585 51.2836C251.332 51.1388 256.684 45.5515 256.54 38.8041C256.395 32.0568 250.807 26.7044 244.06 26.8493C237.313 26.9941 231.96 32.5814 232.105 39.3288C232.25 46.0761 237.837 51.4285 244.585 51.2836Z" stroke="#808080" stroke-width="2" stroke-linecap="round" stroke-linejoin="round"/>
<path d="M94.74 151.03C94.74 166.88 110.72 179.72 130.43 179.72C150.14 179.72 164.12 166.87 164.12 151.03" stroke="#AECC53" stroke-width="2.54" stroke-linecap="round" stroke-linejoin="round"/>
<path d="M89.11 330.15L70.25 183.33V82.73" stroke="#006E69" stroke-width="2.24" stroke-linecap="round" stroke-linejoin="round"/>
<path d="M84.9899 330.15L66.1299 183.33V82.73" stroke="#006E69" stroke-width="2.24" stroke-linecap="round" stroke-linejoin="round"/>
<path d="M37.33 330.52L56.19 183.7V83.1" stroke="#006E69" stroke-width="2.24" stroke-linecap="round" stroke-linejoin="round"/>
<path d="M41.45 330.52L60.31 183.7V83.1" stroke="#006E69" stroke-width="2.24" stroke-linecap="round" stroke-linejoin="round"/>
<path d="M31.78 91.6H94.66L107.97 82.73H18.47L31.78 91.6Z" stroke="#006E69" stroke-width="2.24" stroke-linecap="round" stroke-linejoin="round"/>
<path d="M94.66 91.6V104.92" stroke="#006E69" stroke-width="2.24" stroke-linecap="round" stroke-linejoin="round"/>
<path d="M56.19 127.85H70.99L95.03 137.47H31.41L56.19 127.85Z" stroke="#006E69" stroke-width="2.24" stroke-linecap="round" stroke-linejoin="round"/>
<path d="M94.66 137.47V150.78" stroke="#006E69" stroke-width="2.24" stroke-linecap="round" stroke-linejoin="round"/>
<path d="M31.04 137.47V150.78" stroke="#006E69" stroke-width="2.24" stroke-linecap="round" stroke-linejoin="round"/>
<path d="M56.19 173.71H70.99L95.03 183.33H31.41L56.19 173.71Z" stroke="#006E69" stroke-width="2.24" stroke-linecap="round" stroke-linejoin="round"/>
<path d="M94.66 183.33V196.64" stroke="#006E69" stroke-width="2.24" stroke-linecap="round" stroke-linejoin="round"/>
<path d="M31.04 183.33V196.64" stroke="#006E69" stroke-width="2.24" stroke-linecap="round" stroke-linejoin="round"/>
<path d="M31.04 91.6V104.92" stroke="#006E69" stroke-width="2.24" stroke-linecap="round" stroke-linejoin="round"/>
<path d="M139.3 320.73C139.3 320.73 139.3 320.7 139.3 320.68C139.3 320.53 139.33 320.39 139.38 320.24L172.16 99.64H172.77C173.61 96.22 190.75 93.5 211.78 93.5C232.81 93.5 249.95 96.23 250.79 99.64H251.03L283.81 320.24C283.86 320.38 283.89 320.53 283.89 320.68C283.89 320.7 283.89 320.71 283.89 320.73V320.8H283.88C283.41 326.21 251.24 330.1 211.6 330.1C171.96 330.1 139.79 326.2 139.32 320.8H139.3V320.73Z" stroke="#AECC53" stroke-width="2.54" stroke-linecap="round" stroke-linejoin="round"/>
<path d="M146.17 278.73C152.66 273.9 165.57 272.57 172.68 277.14C181.87 283.06 180.13 297.54 179.61 306.97C179.21 314.15 177.63 321.92 173.48 328.04" stroke="#AECC53" stroke-width="2.54" stroke-linecap="round" stroke-linejoin="round"/>
<path d="M205.93 329.12C203.08 319.55 207.41 309.46 208.12 299.5C208.87 288.9 205.07 274.97 198.42 266.63C191.04 257.37 182.43 252.58 175.26 249.86C167.07 246.76 155.8 248.22 149.24 253.84" stroke="#AECC53" stroke-width="2.54" stroke-linecap="round" stroke-linejoin="round"/>
<path d="M278.74 288.26C276.19 280.77 270.4 275.03 263.26 271.13C261.04 269.92 258.64 268.9 256.09 268.73C250.69 268.37 244.88 272.18 242.63 276.83C240.17 281.92 242.65 286.03 245.59 290.63C248.56 295.28 251.42 300.08 252.94 305.33" stroke="#AECC53" stroke-width="2.54" stroke-linecap="round" stroke-linejoin="round"/>
<path d="M274.31 257.05C271.72 252.54 270.92 249.73 265.6 247.66C260.83 245.8 255.46 245.34 250.4 246.21C241.56 247.72 233.76 252.8 227.5 258.95C225.5 260.92 223.6 263.05 222.52 265.6C221.22 268.67 221.24 272.13 221.84 275.39C223.28 283.22 227.87 290.14 231.27 297.4C234.67 304.66 236.88 313.2 233.45 320.44C231.75 324.03 230.2 326.81 227.45 329.74" stroke="#AECC53" stroke-width="2.54" stroke-linecap="round" stroke-linejoin="round"/>
<path d="M224.85 94.71C218.28 100.99 213.48 109.47 214.34 118.67C214.61 121.53 215.59 124.3 215.85 127.16C216.35 132.65 213.96 138.35 209.5 141.84C205.04 145.32 198.61 146.41 193.24 144.41C182.3 140.33 180.16 126.72 169.19 121.99" stroke="#AECC53" stroke-width="2.54" stroke-linecap="round" stroke-linejoin="round"/>
<path d="M250.83 103.17C244.24 107.64 239.22 114.2 236.75 121.56C233.94 129.95 234.38 139.17 230.98 147.36C227.51 155.7 219.99 162.4 211.05 165.12C202.11 167.83 191.93 166.51 184.07 161.6C178.31 158 171.31 151.87 164.6 150.42" stroke="#AECC53" stroke-width="2.54" stroke-linecap="round" stroke-linejoin="round"/>
<path d="M250.35 325.16C250.35 325.16 250.35 325.13 250.35 325.11C250.35 324.96 250.38 324.82 250.43 324.67L283.21 98.76H283.82C284.66 95.34 301.8 92.62 322.83 92.62C343.86 92.62 361 95.35 361.84 98.76H362.08L394.86 324.67C394.91 324.81 394.94 324.96 394.94 325.11C394.94 325.13 394.94 325.14 394.94 325.16V325.23H394.93C394.46 330.64 362.29 334.53 322.65 334.53C283.01 334.53 250.84 330.63 250.37 325.23H250.35V325.16Z" fill="#006E69"/>
<path d="M250.35 325.16C250.35 325.16 250.35 325.13 250.35 325.11C250.35 324.96 250.38 324.82 250.43 324.67L283.21 98.76H283.82C284.66 95.34 301.8 92.62 322.83 92.62C343.86 92.62 361 95.35 361.84 98.76H362.08L394.86 324.67C394.91 324.81 394.94 324.96 394.94 325.11C394.94 325.13 394.94 325.14 394.94 325.16V325.23H394.93C394.46 330.64 362.29 334.53 322.65 334.53C283.01 334.53 250.84 330.63 250.37 325.23H250.35V325.16Z" stroke="white" stroke-width="2.24" stroke-linecap="round" stroke-linejoin="round"/>
<path d="M257.22 283.16C263.71 278.33 276.62 277 283.73 281.57C292.92 287.49 291.18 301.97 290.66 311.4C290.26 318.58 288.68 326.35 284.53 332.47" stroke="white" stroke-width="2.24" stroke-linecap="round" stroke-linejoin="round"/>
<path d="M296.56 332.61C305.46 315.7 310.17 291.01 302.36 272.87C299 265.07 292.7 258.25 284.51 255.15C276.32 252.05 266.26 253.14 259.7 258.76" stroke="white" stroke-width="2.24" stroke-linecap="round" stroke-linejoin="round"/>
<path d="M321.06 334.27C327.35 327.75 328.76 318.06 327.57 309.26C326.47 301.15 323.48 293.45 321.29 285.59C319.57 279.41 321.66 272.13 322.25 265.77C323.52 252.04 323.03 237.81 313.92 226.39C304.1 214.08 284.93 203.14 268.22 207.12" stroke="white" stroke-width="2.24" stroke-linecap="round" stroke-linejoin="round"/>
<path d="M389.8 292.69C387.25 285.2 381.46 279.46 374.32 275.56C372.1 274.35 369.7 273.33 367.15 273.16C361.75 272.8 355.94 276.61 353.69 281.26C351.23 286.35 353.71 290.46 356.65 295.06C359.62 299.71 362.48 304.51 364 309.76C366.44 318.18 364.68 327.53 357.03 332.86" stroke="white" stroke-width="2.24" stroke-linecap="round" stroke-linejoin="round"/>
<path d="M385.36 261.48C382.77 256.97 381.97 254.16 376.65 252.09C371.88 250.23 366.51 249.77 361.45 250.64C352.61 252.15 344.81 257.23 338.55 263.38C336.55 265.35 334.65 267.48 333.57 270.03C332.27 273.1 332.29 276.56 332.89 279.82C334.33 287.65 338.92 294.57 342.32 301.83C345.72 309.09 347.93 317.63 344.5 324.87C342.8 328.46 341.25 331.24 338.5 334.17" stroke="white" stroke-width="2.24" stroke-linecap="round" stroke-linejoin="round"/>
<path d="M335.9 93.83C329.33 100.11 324.53 108.59 325.39 117.79C325.66 120.65 326.64 123.42 326.9 126.28C327.4 131.77 325.01 137.47 320.55 140.96C316.09 144.44 309.66 145.53 304.29 143.53C293.35 139.45 291.21 125.84 280.24 121.11" stroke="white" stroke-width="2.24" stroke-linecap="round" stroke-linejoin="round"/>
<path d="M361.88 102.28C355.29 106.75 350.27 113.31 347.8 120.67C344.99 129.06 345.43 138.28 342.03 146.47C338.56 154.81 331.04 161.51 322.1 164.23C313.16 166.94 302.98 165.62 295.12 160.71C289.36 157.11 284.57 151.62 277.86 150.17" stroke="white" stroke-width="2.24" stroke-linecap="round" stroke-linejoin="round"/>
<path d="M368.05 146.27C361.43 147.64 357.05 153.81 355.01 160C352.97 166.18 352.55 172.81 350.15 178.87C346.67 187.67 338.9 194.82 329.58 197.8C320.26 200.79 309.56 199.56 301.25 194.54C296.48 191.66 292.55 187.68 288 184.5C283.44 181.32 277.82 178.9 272.28 179.89" stroke="white" stroke-width="2.24" stroke-linecap="round" stroke-linejoin="round"/>
<path d="M381.84 234.74C375.4 233.4 368.5 232.09 362.36 234.42C360.34 235.19 358.48 236.33 356.42 237.01C348.73 239.54 339.68 234.3 337.31 226.85C334.95 219.4 338.61 210.93 345.07 206.2C349.77 202.76 355.62 201.09 360.7 198.17C366.49 194.84 373.4 187.04 373.37 180.28" stroke="white" stroke-width="2.24" stroke-linecap="round" stroke-linejoin="round"/>
<path d="M256.98 139.67C250.45 141.05 246.85 146.94 244.14 153.03C241.43 159.12 239.7 165.81 235.54 171.03C232.37 175.02 227.98 177.88 224.66 181.74C221.78 185.09 213.1 196.08 213.28 208.14C213.46 220.7 226.17 227.23 236.54 227.19C242.49 227.17 248.5 225.04 252.8 220.93C257.48 216.45 260.13 209.75 265.87 206.75" stroke="#AECC53" stroke-width="2.54" stroke-linecap="round" stroke-linejoin="round"/>
<path d="M162.62 167.53C163.8 170.31 166.36 172.24 168.92 173.84C176.98 178.84 186.38 181.92 193.15 188.57C202.25 197.51 204.71 212.48 198.96 223.86C197.16 227.42 194.62 230.65 191.36 232.96C188.85 234.73 185.98 235.93 183.06 236.9C178 238.59 172.64 239.66 167.34 239.06C162.04 238.46 156.8 236.03 153.62 231.75" stroke="#AECC53" stroke-width="2.54" stroke-linecap="round" stroke-linejoin="round"/>
<path d="M159.92 184.84C162.6 189.11 169.11 190.81 173.25 193.7C176.92 196.26 179.17 200.62 179.55 205.08C180.03 210.69 177.78 217.93 172.1 220.38C166.14 222.95 158.31 217.65 155.74 212.35" stroke="#AECC53" stroke-width="2.54" stroke-linecap="round" stroke-linejoin="round"/>
<path d="M42.9 330.1H209.59V272.69H42.9V330.1Z" fill="#006E69"/>
<path d="M108.69 294.19H137.29V236.79H108.69V294.19Z" fill="#A9C753" stroke="#A9C753" stroke-width="1.26" stroke-linecap="round" stroke-linejoin="round"/>
<path d="M65.3799 294.19H94.9099V236.79H65.3799V294.19Z" fill="#A9C753" stroke="#A9C753" stroke-width="1.26" stroke-linecap="round" stroke-linejoin="round"/>
<path d="M42.9 332.1H209.59V323.84H42.9V332.1Z" fill="#003834"/>
<path d="M62.33 310.55H140.33V294.19H62.33V310.55Z" fill="white"/>
<path d="M323.44 222.28H175.65V376.73H323.44V222.28Z" fill="#013834"/>
<path d="M322.96 222.76V376.26H176.12V222.76H322.96ZM323.92 221.81H175.18V377.21H323.92V221.81Z" fill="#013834"/>
<path d="M155.27 222.28H7.47998V376.73H155.27V222.28Z" fill="#013834"/>
<path d="M154.79 222.76V376.26H7.95V222.76H154.79ZM155.74 221.81H7V377.21H155.74V221.81Z" fill="#013834"/>
<path d="M135.76 259.19C135.76 259.19 126.7 272.11 115.53 272.11C104.36 272.11 95.3 259.19 95.3 259.19C95.3 259.19 104.36 246.27 115.53 246.27C126.7 246.27 135.76 259.19 135.76 259.19Z" stroke="#AFD3D0" stroke-linecap="round" stroke-linejoin="round"/>
<path d="M115.52 269.98C121.545 269.98 126.43 265.095 126.43 259.07C126.43 253.045 121.545 248.16 115.52 248.16C109.495 248.16 104.61 253.045 104.61 259.07C104.61 265.095 109.495 269.98 115.52 269.98Z" stroke="white" stroke-miterlimit="10"/>
<path d="M114.6 257.81L117.45 251.66L114.47 251.68C114.19 252.64 112.01 259.01 111.79 259.76C112.45 259.72 113.9 259.84 115.61 259.74L112.24 266.49L119.28 258.11C118.75 258.08 116.3 257.92 114.61 257.81H114.6Z" fill="#ACCA53" stroke="#ACCA53" stroke-width="0.39" stroke-linecap="round" stroke-linejoin="round"/>
<path d="M300.98 259.19C300.98 259.19 291.75 272.35 280.36 272.35C268.97 272.35 259.74 259.19 259.74 259.19C259.74 259.19 268.97 246.03 280.36 246.03C291.75 246.03 300.98 259.19 300.98 259.19Z" stroke="#ACCA53" stroke-linecap="round" stroke-linejoin="round"/>
<path d="M280.36 270.19C286.501 270.19 291.48 265.211 291.48 259.07C291.48 252.929 286.501 247.95 280.36 247.95C274.219 247.95 269.24 252.929 269.24 259.07C269.24 265.211 274.219 270.19 280.36 270.19Z" stroke="white" stroke-miterlimit="10"/>
<path d="M286 258.91C286 262.03 283.47 264.55 280.36 264.55C277.25 264.55 274.72 262.02 274.72 258.91C274.72 255.8 280.36 250.95 280.36 250.95C280.36 250.95 286 255.79 286 258.91Z" fill="#ADCB53"/>
<path d="M280.36 267.19C279.99 267.19 279.68 266.89 279.68 266.51V259.86C279.68 259.49 279.98 259.18 280.36 259.18C280.74 259.18 281.04 259.48 281.04 259.86V266.51C281.04 266.88 280.74 267.19 280.36 267.19Z" fill="white"/>
<path d="M190.67 363.9H305.53" stroke="#AFD3D0" stroke-width="0.41" stroke-linecap="round" stroke-linejoin="round"/>
<path d="M304.93 365.95L308.48 363.9L304.93 361.85V365.95Z" fill="#AFD3D0"/>
<path d="M190.67 363.9V249.04" stroke="#AFD3D0" stroke-width="0.41" stroke-linecap="round" stroke-linejoin="round"/>
<path d="M192.72 249.64L190.67 246.09L188.62 249.64H192.72Z" fill="#AFD3D0"/>
<path d="M184.5 246.97L182.24 252.45L181.35 251.61L184.68 251.46L185.77 251.41C185.52 251.79 182.1 256.91 181.74 257.45L184.28 251.73L184.81 252.51L181.54 253.19L180.66 253.37C180.66 252.8 182.07 247.51 182.06 246.8L183.03 246.96H184.5V246.97Z" fill="#ACCA53" stroke="#ACCA53" stroke-width="0.35" stroke-linecap="round" stroke-linejoin="round"/>
<path d="M194.93 360.71V338.77" stroke="#ACCA53" stroke-width="2.93" stroke-linecap="round" stroke-linejoin="round"/>
<path d="M199.74 360.71V335.16" stroke="#ACCA53" stroke-width="2.93" stroke-linecap="round" stroke-linejoin="round"/>
<path d="M204.55 360.71V331.55" stroke="#ACCA53" stroke-width="2.93" stroke-linecap="round" stroke-linejoin="round"/>
<path d="M209.37 360.71V327.94" stroke="#ACCA53" stroke-width="2.93" stroke-linecap="round" stroke-linejoin="round"/>
<path d="M214.18 360.71V324.33" stroke="#ACCA53" stroke-width="2.93" stroke-linecap="round" stroke-linejoin="round"/>
<path d="M218.99 360.71V320.83" stroke="#ACCA53" stroke-width="2.93" stroke-linecap="round" stroke-linejoin="round"/>
<path d="M223.8 360.71V317.72" stroke="#ACCA53" stroke-width="2.93" stroke-linecap="round" stroke-linejoin="round"/>
<path d="M228.62 360.71V315" stroke="#ACCA53" stroke-width="2.93" stroke-linecap="round" stroke-linejoin="round"/>
<path d="M233.43 360.71V312.65" stroke="#ACCA53" stroke-width="2.93" stroke-linecap="round" stroke-linejoin="round"/>
<path d="M238.24 360.71V310.36" stroke="#ACCA53" stroke-width="2.93" stroke-linecap="round" stroke-linejoin="round"/>
<path d="M243.06 360.71V308.08" stroke="#ACCA53" stroke-width="2.93" stroke-linecap="round" stroke-linejoin="round"/>
<path d="M247.87 360.71V306.86" stroke="#ACCA53" stroke-width="2.93" stroke-linecap="round" stroke-linejoin="round"/>
<path d="M301.06 360.71V338.77" stroke="#ACCA53" stroke-width="2.93" stroke-linecap="round" stroke-linejoin="round"/>
<path d="M296.24 360.71V335.16" stroke="#ACCA53" stroke-width="2.93" stroke-linecap="round" stroke-linejoin="round"/>
<path d="M291.43 360.71V331.55" stroke="#ACCA53" stroke-width="2.93" stroke-linecap="round" stroke-linejoin="round"/>
<path d="M286.62 360.71V327.94" stroke="#ACCA53" stroke-width="2.93" stroke-linecap="round" stroke-linejoin="round"/>
<path d="M281.81 360.71V324.33" stroke="#ACCA53" stroke-width="2.93" stroke-linecap="round" stroke-linejoin="round"/>
<path d="M276.99 360.71V320.83" stroke="#ACCA53" stroke-width="2.93" stroke-linecap="round" stroke-linejoin="round"/>
<path d="M272.18 360.71V317.72" stroke="#ACCA53" stroke-width="2.93" stroke-linecap="round" stroke-linejoin="round"/>
<path d="M267.37 360.71V315" stroke="#ACCA53" stroke-width="2.93" stroke-linecap="round" stroke-linejoin="round"/>
<path d="M262.55 360.71V312.65" stroke="#ACCA53" stroke-width="2.93" stroke-linecap="round" stroke-linejoin="round"/>
<path d="M257.74 360.71V310.36" stroke="#ACCA53" stroke-width="2.93" stroke-linecap="round" stroke-linejoin="round"/>
<path d="M252.93 360.71V308.08" stroke="#ACCA53" stroke-width="2.93" stroke-linecap="round" stroke-linejoin="round"/>
<path d="M248.11 360.71V306.86" stroke="#ACCA53" stroke-width="2.93" stroke-linecap="round" stroke-linejoin="round"/>
<path d="M314.6 357.98C315.7 357.98 316.59 358.88 316.59 359.97V363.63H312.6V359.97C312.6 358.87 313.5 357.98 314.59 357.98H314.6Z" stroke="#ACCA53" stroke-width="0.33" stroke-miterlimit="10"/>
<path d="M314.6 361.47C315.7 361.47 316.59 362.37 316.59 363.46H312.6C312.6 362.36 313.5 361.47 314.59 361.47H314.6Z" fill="white" stroke="white" stroke-width="0.33" stroke-miterlimit="10"/>
<path d="M317.26 363.63H311.94" stroke="#ACCA53" stroke-linecap="round" stroke-linejoin="round"/>
<path d="M314.6 358.65C313.5 358.65 312.61 357.75 312.61 356.66H316.6C316.6 357.76 315.7 358.65 314.61 358.65H314.6Z" fill="white" stroke="white" stroke-width="0.33" stroke-miterlimit="10"/>
<path d="M314.6 358.65C313.5 358.65 312.61 357.75 312.61 356.66V353H316.6V356.66C316.6 357.76 315.7 358.65 314.61 358.65H314.6Z" stroke="#ACCA53" stroke-width="0.33" stroke-miterlimit="10"/>
<path d="M311.94 352.99H317.26" stroke="#ACCA53" stroke-linecap="round" stroke-linejoin="round"/>
<path d="M25.42 363.9H140.28" stroke="#AFD3D0" stroke-width="0.41" stroke-linecap="round" stroke-linejoin="round"/>
<path d="M139.68 365.95L143.23 363.9L139.68 361.85V365.95Z" fill="#AFD3D0"/>
<path d="M25.42 363.9V249.04" stroke="#AFD3D0" stroke-width="0.41" stroke-linecap="round" stroke-linejoin="round"/>
<path d="M27.47 249.64L25.42 246.09L23.37 249.64H27.47Z" fill="#AFD3D0"/>
<path d="M19.25 246.97L16.99 252.45L16.1 251.61L19.43 251.46L20.52 251.41C20.27 251.79 16.85 256.91 16.49 257.45L19.03 251.73L19.56 252.51L16.29 253.19L15.41 253.37C15.41 252.8 16.82 247.51 16.81 246.8L17.78 246.96H19.25V246.97Z" fill="#6FAFAC"/>
<path d="M149.08 358.25C150.18 358.25 151.07 359.15 151.07 360.24V363.9H147.08V360.24C147.08 359.14 147.98 358.25 149.07 358.25H149.08Z" stroke="#ACCA53" stroke-width="0.33" stroke-miterlimit="10"/>
<path d="M149.08 361.74C150.18 361.74 151.07 362.64 151.07 363.73H147.08C147.08 362.63 147.98 361.74 149.07 361.74H149.08Z" fill="white" stroke="white" stroke-width="0.33" stroke-miterlimit="10"/>
<path d="M151.74 363.9H146.42" stroke="#ACCA53" stroke-linecap="round" stroke-linejoin="round"/>
<path d="M149.08 358.91C147.98 358.91 147.09 358.01 147.09 356.92H151.08C151.08 358.02 150.18 358.91 149.09 358.91H149.08Z" fill="white" stroke="white" stroke-width="0.33" stroke-miterlimit="10"/>
<path d="M149.08 358.91C147.98 358.91 147.09 358.01 147.09 356.92V353.26H151.08V356.92C151.08 358.02 150.18 358.91 149.09 358.91H149.08Z" stroke="#ACCA53" stroke-width="0.33" stroke-miterlimit="10"/>
<path d="M146.42 353.26H151.74" stroke="#ACCA53" stroke-linecap="round" stroke-linejoin="round"/>
<path d="M29.67 359.65V350.15" stroke="#6FAFAC" stroke-width="3.19" stroke-linecap="round" stroke-linejoin="round"/>
<path d="M35.28 359.77V337.61" stroke="#6FAFAC" stroke-width="3.19" stroke-linecap="round" stroke-linejoin="round"/>
<path d="M40.89 359.89V329.47" stroke="#6FAFAC" stroke-width="3.19" stroke-linecap="round" stroke-linejoin="round"/>
<path d="M46.5 360V332.77" stroke="#6FAFAC" stroke-width="3.19" stroke-linecap="round" stroke-linejoin="round"/>
<path d="M52.11 360.12V324.19" stroke="#6FAFAC" stroke-width="3.19" stroke-linecap="round" stroke-linejoin="round"/>
<path d="M57.72 360.24V314.07" stroke="#6FAFAC" stroke-width="3.19" stroke-linecap="round" stroke-linejoin="round"/>
<path d="M63.33 360.36V305.93" stroke="#6FAFAC" stroke-width="3.19" stroke-linecap="round" stroke-linejoin="round"/>
<path d="M68.94 360.47V337.61" stroke="#6FAFAC" stroke-width="3.19" stroke-linecap="round" stroke-linejoin="round"/>
<path d="M74.55 360.59V316.93" stroke="#6FAFAC" stroke-width="3.19" stroke-linecap="round" stroke-linejoin="round"/>
<path d="M80.16 360.71V254.37" stroke="#6FAFAC" stroke-width="3.19" stroke-linecap="round" stroke-linejoin="round"/>
<path d="M136.05 359.65V350.15" stroke="#6FAFAC" stroke-width="3.19" stroke-linecap="round" stroke-linejoin="round"/>
<path d="M130.44 359.77V337.61" stroke="#6FAFAC" stroke-width="3.19" stroke-linecap="round" stroke-linejoin="round"/>
<path d="M124.83 359.89V329.47" stroke="#6FAFAC" stroke-width="3.19" stroke-linecap="round" stroke-linejoin="round"/>
<path d="M119.22 360V332.77" stroke="#6FAFAC" stroke-width="3.19" stroke-linecap="round" stroke-linejoin="round"/>
<path d="M113.61 360.12V338.71" stroke="#6FAFAC" stroke-width="3.19" stroke-linecap="round" stroke-linejoin="round"/>
<path d="M108 360.24V295.07" stroke="#6FAFAC" stroke-width="3.19" stroke-linecap="round" stroke-linejoin="round"/>
<path d="M102.39 360.36V331.45" stroke="#6FAFAC" stroke-width="3.19" stroke-linecap="round" stroke-linejoin="round"/>
<path d="M96.78 360.47V336.29" stroke="#6FAFAC" stroke-width="3.19" stroke-linecap="round" stroke-linejoin="round"/>
<path d="M91.17 360.59V324.41" stroke="#6FAFAC" stroke-width="3.19" stroke-linecap="round" stroke-linejoin="round"/>
<path d="M85.55 360.71V282.49" stroke="#6FAFAC" stroke-width="3.19" stroke-linecap="round" stroke-linejoin="round"/>
</svg>
