<svg xmlns="http://www.w3.org/2000/svg" width="400" height="390" fill="none" viewBox="0 0 400 390"><path fill="#ebf2d4" d="M222.75 59.52c-14.08-5.28-28.78-9.7-43.82-9.63-20.27.09-39.54 8.27-57.97 16.69-33.95 15.5-60.71 39.77-88.54 64.43C9.9 150.97 6.2 192.36 6.88 220.48c.08 3.39.17 6.8.32 10.21.47 10.49 1.6 20.94 5.27 30.71 5.89 15.67 19.56 28.9 29.88 41.8 11.17 13.96 22.12 25.61 37.17 35.58 17.03 11.29 41.38 30.67 62.39 32.45 26.45 2.24 46.69 3.32 72.11-4.61 27.07-8.44 56.74-20.76 76.23-42.34 10.21-11.32 16.89-27.47 24.49-40.63 14.84-25.67 20.98-53.36 17.17-82.87-4-30.89-16.13-54.57-28.93-82.18-16.44-35.46-45.32-45.99-80.22-59.08z"/><path fill="#a9c753" d="M156.23 131.76c0 21.82-17.69 39.51-39.51 39.51s-39.51-17.69-39.51-39.51c0-14.73 18-47.26 29.7-66.84 4.44-7.43 15.18-7.43 19.62 0 11.7 19.59 29.7 52.11 29.7 66.84"/><path stroke="#fff" stroke-linecap="round" stroke-linejoin="round" stroke-width="2.59" d="M132.1 108.52c-1.31 7.29-7.72 12.86-15.37 12.86s-14.06-5.57-15.37-12.86"/><path fill="#fff" d="M129.16 108.38c.16-1.6 1.58-2.78 3.18-2.62s2.78 1.58 2.62 3.18-1.58 2.78-3.18 2.62-2.78-1.58-2.62-3.18m-24.87 0a2.92 2.92 0 0 0-3.19-2.62 2.91 2.91 0 0 0-2.62 3.18c.16 1.6 1.58 2.78 3.19 2.62a2.91 2.91 0 0 0 2.62-3.18"/><path stroke="#fff" stroke-linecap="round" stroke-linejoin="round" stroke-width="2.59" d="M139.78 129.85c-1.38 11.48-11.22 20.45-23.06 20.45s-21.68-8.97-23.06-20.45"/><path fill="#fff" d="M136.83 129.78a2.904 2.904 0 0 1 3.11-2.7c1.61.11 2.82 1.51 2.7 3.11a2.904 2.904 0 0 1-3.11 2.7 2.904 2.904 0 0 1-2.7-3.11m-40.22 0a2.904 2.904 0 0 0-3.11-2.7 2.92 2.92 0 0 0-2.71 3.11 2.904 2.904 0 0 0 3.11 2.7 2.92 2.92 0 0 0 2.71-3.11"/><path stroke="#fff" stroke-linecap="round" stroke-linejoin="round" stroke-width="2.59" d="M116.73 91.18v142.43"/><path fill="#fff" d="M116.794 94.253a2.92 2.92 0 1 0-.139-5.84 2.92 2.92 0 0 0 .139 5.84"/><path stroke="#a8c653" stroke-linecap="round" stroke-linejoin="round" stroke-width="2" d="M72.64 150.69c-1.02 5.65-5.98 9.97-11.91 9.97s-10.9-4.32-11.91-9.97"/><path fill="#a8c653" d="M70.36 150.58a2.255 2.255 0 1 1 4.49.43 2.255 2.255 0 0 1-4.49-.43m-19.27 0a2.255 2.255 0 1 0-4.49.43 2.255 2.255 0 0 0 4.49-.43"/><path stroke="#a8c653" stroke-linecap="round" stroke-linejoin="round" stroke-width="2" d="M78.59 167.21c-1.07 8.9-8.69 15.85-17.87 15.85s-16.8-6.95-17.86-15.85"/><path fill="#a8c653" d="M76.31 167.17a2.26 2.26 0 0 1 2.41-2.09c1.24.09 2.18 1.17 2.09 2.41a2.26 2.26 0 0 1-2.41 2.09 2.26 2.26 0 0 1-2.09-2.41m-31.17 0a2.26 2.26 0 0 0-2.41-2.09 2.26 2.26 0 0 0-2.09 2.41 2.26 2.26 0 0 0 2.41 2.09 2.26 2.26 0 0 0 2.09-2.41"/><path stroke="#a8c653" stroke-linecap="round" stroke-linejoin="round" stroke-width="2" d="M60.73 137.26v110.35"/><path fill="#a8c653" d="M60.73 139.63a2.26 2.26 0 1 0 0-4.52 2.26 2.26 0 0 0 0 4.52"/><path stroke="#adcb53" stroke-linecap="round" stroke-linejoin="round" stroke-width="1.74" d="M351.95 254.06a21.8 21.8 0 0 0-2.65 10.2c-.15 12.05 14.72 25.57 21.64 25.57 9.35 0 22.27-13.07 22.27-25.3 0-5.02-1.69-9.65-4.52-13.35-1.35-1.76-1.68-4.09-.83-6.14s1.37-4.45 1.37-6.9c0-4.16-1.41-7.99-3.79-11.04-1.49-1.92-1.76-4.51-.65-6.67 1.05-2.06 1.64-4.39 1.64-6.86 0-8.38-9.22-25.12-15.18-25.12-5.24 0-15.18 16.73-15.18 25.12 0 2.47.59 4.8 1.64 6.86a6.24 6.24 0 0 1-.65 6.67 17.94 17.94 0 0 0-3.79 11.04c0 2.44.49 4.77 1.37 6.9.85 2.04.53 4.37-.82 6.13-.7.91-1.33 1.87-1.88 2.89m19.31-46.26v125.98"/><path stroke="#adcb53" stroke-linecap="round" stroke-linejoin="round" stroke-width="1.56" d="M351.9 333.89v-31.97"/><path fill="#adcb53" d="M356.58 302.15c0-2.58-2.1-4.68-4.68-4.68s-4.68 2.1-4.68 4.68 2.1 4.68 4.68 4.68 4.68-2.1 4.68-4.68"/><path stroke="#adcb53" stroke-linecap="round" stroke-linejoin="round" stroke-width="2" d="M382.4 334.61h-49"/><path stroke="#a8c653" stroke-linecap="round" stroke-linejoin="round" stroke-width="1.74" d="M325.31 141.95v-39.81"/><path fill="#a8c653" d="M328.59 102.3c0-1.81-1.47-3.28-3.28-3.28s-3.28 1.47-3.28 3.28 1.47 3.28 3.28 3.28 3.28-1.47 3.28-3.28"/><path stroke="#a8c653" stroke-linecap="round" stroke-linejoin="round" stroke-width="1.74" d="M332.81 145.2v-29.41"/><path fill="#a8c653" d="M336.08 115.95c0-1.81-1.47-3.28-3.28-3.28s-3.28 1.47-3.28 3.28 1.47 3.28 3.28 3.28 3.28-1.47 3.28-3.28"/><path stroke="#adcb53" stroke-linecap="round" stroke-linejoin="round" stroke-width="1.74" d="M240.69 108.5V79.54c12.6-2.93 22.02-18.24 22.02-31.71V36.62c0-3.55-2.88-6.44-6.44-6.44-3.55 0-6.44 2.88-6.44 6.44v11.21c0 6.3-3.76 11.72-9.15 14.17V17.32c0-3.55-2.88-6.44-6.44-6.44s-6.44 2.88-6.44 6.44V75.8h-.06c-5.01 0-9.09-4.08-9.09-9.09V55.4c0-3.55-2.88-6.44-6.44-6.44s-6.44 2.88-6.44 6.44v11.31c0 12.11 9.85 21.96 21.96 21.96h.06v34.23c.66 1.98 1.49 3.53 2.28 5.46 3.15-5.19 10.07-18.09 10.59-19.87z"/><path stroke="#006e69" stroke-miterlimit="10" d="M179.23 142.25c1.65-5.56 4.96-13.94 6.95-19.32 3.57-9.62 8.43-24.82 17.53-28.4 8.84-3.48 15.43 8.39 18.97 16.31 2.82 6.3 5.05 11.89 7.36 18.51"/><path stroke="#a8c653" stroke-linecap="round" stroke-linejoin="round" stroke-width="1.74" d="M208.64 145v-30.79"/><path fill="#a8c653" d="M211.92 114.37c0-1.81-1.47-3.28-3.28-3.28s-3.28 1.47-3.28 3.28 1.47 3.28 3.28 3.28 3.28-1.47 3.28-3.28"/><path stroke="#a8c653" stroke-linecap="round" stroke-linejoin="round" stroke-width="1.74" d="M199.76 145.82v-19.8"/><path fill="#a8c653" d="M203.03 126.19c0-1.81-1.47-3.28-3.28-3.28s-3.28 1.47-3.28 3.28 1.47 3.28 3.28 3.28 3.28-1.47 3.28-3.28"/><path stroke="#006e69" stroke-miterlimit="10" d="M322.76 146.59c-.1-5.48-5.24-17.37-7.38-22.4-2.99-7.03-6.44-13.93-10.55-20.49-6.08-9.71-16.16-24.17-30.29-24.17-14.08 0-24.14 14.37-30.21 24.04-3.44 5.48-19.23 32.56-21.57 43.82-.42 2.03 100.09 4.24 100-.81z"/><path stroke="#6fafac" stroke-miterlimit="10" stroke-width="2" d="M261.2 145.97c2.91-11.4 17.34-50.83 34.81-35.02 6.19 5.61 9.85 13.57 12.65 21.29 1.39 3.85 4.08 9.65 4.87 14.95.35 2.3-47.2.46-52.36-1.09z"/><path fill="#013834" stroke="#013834" stroke-linecap="round" stroke-linejoin="round" stroke-width="1.19" d="M178.76 378.6h156.43V152.96H178.76z"/><path stroke="#6fafac" stroke-linecap="round" stroke-linejoin="round" stroke-width="1.19" d="M287.37 269.12v-37.3c0-22.28-18.12-18.68-40.26-18.68h-9.69c-3.52 0-7.05-.03-10.57 0-4.72.03-9.64-.85-10.12-6.77v-52.53"/><path fill="#6fafac" d="M288.71 269.06a1.34 1.34 0 1 1-2.68 0 1.34 1.34 0 0 1 2.68 0M218.07 153.9a1.34 1.34 0 1 0-2.68 0 1.34 1.34 0 0 0 2.68 0"/><path fill="#a9c753" d="M178.03 152.96h157.56V141.7H178.03z"/><path stroke="#6fafac" stroke-linecap="round" stroke-linejoin="round" stroke-width="1.19" d="M282.91 269.12v-37.3c0-22.28-18.12-18.68-40.26-18.68h-17.37"/><path fill="#6fafac" d="M284.25 269.06a1.34 1.34 0 1 1-2.68 0 1.34 1.34 0 0 1 2.68 0m-58.91-57.26a1.34 1.34 0 1 0 0 2.68 1.34 1.34 0 0 0 0-2.68"/><path stroke="#6fafac" stroke-linecap="round" stroke-linejoin="round" stroke-width="1.19" d="M291.83 269.12v-37.3c0-22.28-18.12-18.68-40.26-18.68h-26.29"/><path fill="#6fafac" d="M293.17 269.06a1.34 1.34 0 1 1-2.68 0 1.34 1.34 0 0 1 2.68 0m-67.83-57.26a1.34 1.34 0 1 0 0 2.68 1.34 1.34 0 0 0 0-2.68"/><path stroke="#6fafac" stroke-linecap="round" stroke-linejoin="round" stroke-width="1.19" d="M287.37 339.08v-37.3c0-22.28-18.12-18.68-40.26-18.68h-9.69c-3.52 0-7.05-.03-10.57 0-4.72.03-9.64-.85-10.12-6.77v-60.66"/><path fill="#6fafac" d="M288.71 339.01a1.34 1.34 0 1 1-2.68 0 1.34 1.34 0 0 1 2.68 0m-70.64-123.28a1.34 1.34 0 1 0-2.68 0 1.34 1.34 0 0 0 2.68 0"/><path stroke="#6fafac" stroke-linecap="round" stroke-linejoin="round" stroke-width="1.19" d="M282.91 339.08v-37.3c0-22.28-18.12-18.68-40.26-18.68h-17.37"/><path fill="#6fafac" d="M282.91 340.35a1.34 1.34 0 1 0 0-2.68 1.34 1.34 0 0 0 0 2.68m-57.57-55.91a1.34 1.34 0 1 0 0-2.68 1.34 1.34 0 0 0 0 2.68"/><path stroke="#6fafac" stroke-linecap="round" stroke-linejoin="round" stroke-width="1.19" d="M291.83 339.08v-37.3c0-22.28-18.12-18.68-40.26-18.68h-26.29"/><path fill="#6fafac" d="M293.17 339.01a1.34 1.34 0 1 1-2.68 0 1.34 1.34 0 0 1 2.68 0m-67.83-54.57a1.34 1.34 0 1 0 0-2.68 1.34 1.34 0 0 0 0 2.68"/><path stroke="#6fafac" stroke-linecap="round" stroke-linejoin="round" stroke-width="1.19" d="M245.83 353.05h-8.41c-3.52 0-7.05-.03-10.57 0-4.72.03-9.64-.85-10.12-6.77v-60.66"/><path fill="#6fafac" d="M245.76 351.71a1.34 1.34 0 1 1 0 2.68 1.34 1.34 0 0 1 0-2.68m-29.03-64.68a1.34 1.34 0 1 0 0-2.68 1.34 1.34 0 0 0 0 2.68"/><path stroke="#a8c653" stroke-linecap="round" stroke-linejoin="round" stroke-width="1.5" d="M241.03 353.05h-15.42"/><path fill="#a8c653" d="M240.95 351.36c.94 0 1.7.76 1.7 1.7s-.76 1.7-1.7 1.7-1.7-.76-1.7-1.7.76-1.7 1.7-1.7m-15.25 0c-.94 0-1.7.76-1.7 1.7s.76 1.7 1.7 1.7 1.7-.76 1.7-1.7-.76-1.7-1.7-1.7"/><path stroke="#a8c653" stroke-linecap="round" stroke-linejoin="round" stroke-width="1.5" d="M249.95 353.05h-24.34"/><path fill="#a8c653" d="M249.87 351.36c.94 0 1.7.76 1.7 1.7s-.76 1.7-1.7 1.7-1.7-.76-1.7-1.7.76-1.7 1.7-1.7m-24.17 0c-.94 0-1.7.76-1.7 1.7s.76 1.7 1.7 1.7 1.7-.76 1.7-1.7-.76-1.7-1.7-1.7"/><path fill="#006e69" d="M197.32 221.02h119.31c5.545 0 10.04-4.495 10.04-10.04V188.3c0-5.545-4.495-10.04-10.04-10.04H197.32c-5.545 0-10.04 4.495-10.04 10.04v22.68c0 5.545 4.495 10.04 10.04 10.04"/><path fill="#181818" d="M282.27 204.78h30.84c2.84 0 5.14-2.3 5.14-5.14s-2.3-5.14-5.14-5.14h-30.84c-2.84 0-5.14 2.3-5.14 5.14s2.3 5.14 5.14 5.14"/><path stroke="#a8c653" stroke-linecap="round" stroke-linejoin="round" stroke-width="1.5" d="M256.57 204.88h8.57c2.84 0 5.14-2.3 5.14-5.14s-2.3-5.14-5.14-5.14h-8.57c-2.84 0-5.14 2.3-5.14 5.14s2.3 5.14 5.14 5.14"/><path stroke="#a8c653" stroke-linecap="round" stroke-linejoin="round" stroke-width="1.5" d="M260.7 200.59V165.9c0-17.48-18.12-14.32-40.26-14.32h-30.37"/><path fill="#a8c653" d="M262.4 200.5c0 .94-.76 1.7-1.7 1.7s-1.7-.76-1.7-1.7.76-1.7 1.7-1.7 1.7.76 1.7 1.7"/><path stroke="#a8c653" stroke-linecap="round" stroke-linejoin="round" stroke-width="1.5" d="M256.24 200.59V165.9c0-17.48-18.12-13.33-40.26-13.33h-25.91"/><path fill="#a8c653" d="M257.94 200.5c0 .94-.76 1.7-1.7 1.7s-1.7-.76-1.7-1.7.76-1.7 1.7-1.7 1.7.76 1.7 1.7"/><path stroke="#a8c653" stroke-linecap="round" stroke-linejoin="round" stroke-width="1.5" d="M265.17 200.59V165.9c0-17.48-18.12-14.32-40.26-14.32h-34.83"/><path fill="#a8c653" d="M266.86 200.5c0 .94-.76 1.7-1.7 1.7s-1.7-.76-1.7-1.7.76-1.7 1.7-1.7 1.7.76 1.7 1.7"/><path stroke="#a8c653" stroke-linecap="round" stroke-linejoin="round" stroke-width="2.38" d="M230.8 199.64h-24.9"/><path fill="#fff" d="M200.33 206.18h36.05v-13.09h-36.05z"/><path stroke="#a8c653" stroke-linecap="round" stroke-linejoin="round" stroke-width="2.38" d="M230.8 199.64h-24.9"/><path fill="#181818" d="M200.33 206.18h36.05v-13.09h-36.05z"/><path stroke="#a8c653" stroke-linecap="round" stroke-linejoin="round" stroke-width="2.38" d="M230.8 199.64h-24.9"/><circle cx="311.44" cy="199.64" r="1.475" fill="#a8c653"/><path stroke="#a8c653" stroke-linecap="round" stroke-linejoin="round" stroke-width="2.95" d="M301.99 199.64h-14.17"/><circle cx="283.1" cy="199.64" r="1.475" fill="#a8c653"/><path fill="#006e69" d="M197.32 290.97h119.31c5.545 0 10.04-4.495 10.04-10.04v-22.68c0-5.545-4.495-10.04-10.04-10.04H197.32c-5.545 0-10.04 4.495-10.04 10.04v22.68c0 5.545 4.495 10.04 10.04 10.04"/><path fill="#181818" d="M282.27 274.73h30.84c2.84 0 5.14-2.3 5.14-5.14s-2.3-5.14-5.14-5.14h-30.84c-2.84 0-5.14 2.3-5.14 5.14s2.3 5.14 5.14 5.14m-81.94 1.4h36.05v-13.09h-36.05z"/><path stroke="#a8c653" stroke-linecap="round" stroke-linejoin="round" stroke-width="2.38" d="M230.8 269.59h-24.9"/><path stroke="#a8c653" stroke-linecap="round" stroke-linejoin="round" stroke-width="1.5" d="M256.57 274.73h8.57c2.84 0 5.14-2.3 5.14-5.14s-2.3-5.14-5.14-5.14h-8.57c-2.84 0-5.14 2.3-5.14 5.14s2.3 5.14 5.14 5.14"/><circle cx="311.44" cy="269.59" r="1.475" fill="#a8c653"/><path stroke="#a8c653" stroke-linecap="round" stroke-linejoin="round" stroke-width="2.95" d="M301.99 269.59h-14.17"/><circle cx="283.1" cy="269.59" r="1.475" fill="#a8c653"/><path stroke="#a8c653" stroke-linecap="round" stroke-linejoin="round" stroke-width="1.5" d="M260.7 269.91v-38.08c0-22.28-18.12-18.68-40.26-18.68h-9.69c-3.52 0-7.05-.03-10.57 0-4.72.03-9.64-.85-10.12-6.77v-55.77"/><path fill="#a8c653" d="M260.7 271.52a1.7 1.7 0 1 0 0-3.4 1.7 1.7 0 0 0 0 3.4"/><path stroke="#a8c653" stroke-linecap="round" stroke-linejoin="round" stroke-width="1.5" d="M256.24 269.91v-38.08c0-22.28-18.12-18.68-40.26-18.68h-18.64"/><path fill="#a8c653" d="M256.24 271.52a1.7 1.7 0 1 0 0-3.4 1.7 1.7 0 0 0 0 3.4"/><path stroke="#a8c653" stroke-linecap="round" stroke-linejoin="round" stroke-width="1.5" d="M265.17 269.91v-38.08c0-22.28-18.12-18.68-40.26-18.68h-25.95"/><path fill="#a8c653" d="M265.17 271.52a1.7 1.7 0 1 0 0-3.4 1.7 1.7 0 0 0 0 3.4m-66.14-60.08c-.94 0-1.7.76-1.7 1.7s.76 1.7 1.7 1.7 1.7-.76 1.7-1.7-.76-1.7-1.7-1.7"/><path fill="#006e69" d="M197.32 360.93h119.31c5.545 0 10.04-4.495 10.04-10.04v-22.68c0-5.545-4.495-10.04-10.04-10.04H197.32c-5.545 0-10.04 4.495-10.04 10.04v22.68c0 5.545 4.495 10.04 10.04 10.04"/><path fill="#181818" d="M282.27 344.69h30.84c2.84 0 5.14-2.3 5.14-5.14s-2.3-5.14-5.14-5.14h-30.84c-2.84 0-5.14 2.3-5.14 5.14s2.3 5.14 5.14 5.14m-81.94 1.41h36.05v-13.09h-36.05z"/><path stroke="#a8c653" stroke-linecap="round" stroke-linejoin="round" stroke-width="2.38" d="M230.8 339.55h-24.9"/><path stroke="#a8c653" stroke-linecap="round" stroke-linejoin="round" stroke-width="1.5" d="M256.57 344.69h8.57c2.84 0 5.14-2.3 5.14-5.14s-2.3-5.14-5.14-5.14h-8.57c-2.84 0-5.14 2.3-5.14 5.14s2.3 5.14 5.14 5.14"/><circle cx="311.44" cy="339.55" r="1.475" fill="#a8c653"/><path stroke="#a8c653" stroke-linecap="round" stroke-linejoin="round" stroke-width="2.95" d="M301.99 339.55h-14.17"/><circle cx="283.1" cy="339.55" r="1.475" fill="#a8c653"/><path stroke="#a8c653" stroke-linecap="round" stroke-linejoin="round" stroke-width="1.5" d="M260.7 339.86v-38.08c0-22.28-18.12-18.68-40.26-18.68h-9.69c-3.52 0-7.05-.03-10.57 0-4.72.03-9.64-.85-10.12-6.77v-50.72"/><path fill="#a8c653" d="M260.7 341.47a1.7 1.7 0 1 0 0-3.4 1.7 1.7 0 0 0 0 3.4m-68.94-115.78c0-.94-.76-1.7-1.7-1.7s-1.7.76-1.7 1.7.76 1.7 1.7 1.7 1.7-.76 1.7-1.7"/><path stroke="#a8c653" stroke-linecap="round" stroke-linejoin="round" stroke-width="1.5" d="M256.24 339.86v-38.08c0-22.28-18.12-18.68-40.26-18.68h-17.03"/><path fill="#a8c653" d="M256.24 341.47a1.7 1.7 0 1 0 0-3.4 1.7 1.7 0 0 0 0 3.4m-57.21-56.67a1.7 1.7 0 1 0 0-3.4 1.7 1.7 0 0 0 0 3.4"/><path stroke="#a8c653" stroke-linecap="round" stroke-linejoin="round" stroke-width="1.5" d="M265.17 339.86v-38.08c0-22.28-18.12-18.68-40.26-18.68h-25.95"/><path fill="#a8c653" d="M265.17 341.47a1.7 1.7 0 1 0 0-3.4 1.7 1.7 0 0 0 0 3.4m-66.14-56.67a1.7 1.7 0 1 0 0-3.4 1.7 1.7 0 0 0 0 3.4"/><path fill="#006e69" d="M193.22 378.01s-44.66 1.15-44.4.47c6.19-15.76 14.7-27.37 21.82-27.37 8.35 0 18.87 11.14 22.58 26.9"/><path stroke="#adcb53" stroke-linecap="round" stroke-linejoin="round" stroke-width="2" d="M352.9 378.34H8.9"/><path fill="#003834" d="M159.58 307.5H50.41L7.9 320.91h108.76l42.96-13.15c.15-.05.12-.27-.04-.27z"/><path fill="#003834" stroke="#acca53" stroke-linecap="round" stroke-linejoin="round" stroke-width=".61" d="m160.11 344.06-44.03 17.32v-40.46l44.03-13.08z"/><path stroke="#acca53" stroke-linecap="round" stroke-linejoin="round" stroke-width=".61" d="m7.9 320.92 42.51-13.42m109.7 0H50.41"/><path fill="#007872" d="M115.47 326.17H8.57v34.63h106.9z"/><path stroke="#aecc53" stroke-linecap="round" stroke-linejoin="round" stroke-width="4.29" d="M23.35 347.05h77.34"/><path fill="#003834" d="M116.08 320.92H7.9v12.76h108.18z"/><path fill="#aecc53" d="m109.354 325.159-1.343-1.343-5.692 5.692 1.343 1.344z"/><path fill="#aecc53" d="m108 330.844 1.344-1.343-5.692-5.692-1.344 1.343z"/><path stroke="#acca53" stroke-linecap="round" stroke-linejoin="round" stroke-width="1.07" d="M116.08 320.92H7.9v40.46h108.18z"/><path fill="#003834" d="M160.55 201.06H51.37L8.86 214.47h108.76l42.96-13.15c.15-.05.12-.27-.04-.27z"/><path fill="#003834" stroke="#acca53" stroke-linecap="round" stroke-linejoin="round" stroke-width=".61" d="m161.08 237.62-44.04 17.31v-40.46l44.04-13.07z"/><path stroke="#acca53" stroke-linecap="round" stroke-linejoin="round" stroke-width=".61" d="m8.86 214.47 42.51-13.41m109.71 0H51.37"/><path fill="#007872" d="M116.44 219.73H9.54v34.63h106.9z"/><path stroke="#aecc53" stroke-linecap="round" stroke-linejoin="round" stroke-width="4.29" d="M24.31 240.61h77.35"/><path fill="#003834" d="M117.04 214.47H8.86v12.76h108.18z"/><path fill="#aecc53" d="m110.325 218.707-1.344-1.344-5.692 5.692 1.344 1.344z"/><path fill="#aecc53" d="m108.973 224.405 1.344-1.344-5.692-5.692-1.344 1.343z"/><path stroke="#acca53" stroke-linecap="round" stroke-linejoin="round" stroke-width="1.07" d="M117.04 214.47H8.86v40.46h108.18z"/><path fill="#003834" stroke="#acca53" stroke-miterlimit="10" stroke-width=".53" d="M159.58 256.95H50.41L7.9 270.36h108.76l42.96-13.15c.15-.05.12-.27-.04-.27z"/><path fill="#003834" stroke="#acca53" stroke-linecap="round" stroke-linejoin="round" stroke-width=".61" d="m160.11 293.5-44.03 17.32v-40.46l44.03-13.07z"/><path stroke="#fff" stroke-linecap="round" stroke-linejoin="round" stroke-width=".61" d="m7.9 270.36 42.51-13.41"/><path stroke="#acca53" stroke-linecap="round" stroke-linejoin="round" stroke-width=".61" d="M160.11 256.95H50.41"/><path fill="#007872" d="M115.47 275.61H8.57v34.63h106.9z"/><path stroke="#aecc53" stroke-linecap="round" stroke-linejoin="round" stroke-width="4.29" d="M23.35 296.5h77.34"/><path fill="#003834" d="M116.08 270.36H7.9v12.76h108.18z"/><path fill="#aecc53" d="m109.356 274.598-1.344-1.343-5.692 5.692 1.343 1.343z"/><path fill="#aecc53" d="m108.002 280.296 1.343-1.344-5.692-5.692-1.343 1.343z"/><path stroke="#acca53" stroke-linecap="round" stroke-linejoin="round" stroke-width="1.07" d="M116.08 270.36H7.9v40.46h108.18z"/></svg>