<svg width="40" height="40" viewBox="0 0 40 40" fill="none" xmlns="http://www.w3.org/2000/svg">
<g clip-path="url(#clip0_1417_359)">
<path d="M16.6738 18.6688H0V38H16.6738V18.6688Z" fill="white"/>
<path d="M27.5812 9.32788H10.9073V38.0001H27.5812V9.32788Z" fill="#006D68"/>
<path d="M39.8071 3H23.1333V38H39.8071V3Z" fill="#AECC53"/>
<path d="M39.8071 36.192H0V38H39.8071V36.192Z" fill="white"/>
<path d="M31.4702 24.139C29.2351 24.139 27.4247 22.2616 27.4247 19.9437C27.4247 17.7881 30.755 13.2914 31.1349 12.7815C31.2914 12.5728 31.6491 12.5728 31.8055 12.7815C32.1854 13.2682 35.5381 17.7649 35.5381 19.9205C35.5381 22.2384 33.7053 24.139 31.4702 24.139ZM31.4702 13.7781C30.3303 15.3543 28.2741 18.5066 28.2741 19.9205C28.2741 21.7517 29.7045 23.2351 31.4702 23.2351C33.2359 23.2351 34.6664 21.7517 34.6664 19.9205C34.6664 18.5066 32.6101 15.3543 31.4702 13.7781Z" fill="white"/>
<path d="M31.4702 26.6192C31.2243 26.6192 31.0455 26.4106 31.0455 26.1788V19.5729C31.0455 19.3179 31.2467 19.1324 31.4702 19.1324C31.6937 19.1324 31.8948 19.3411 31.8948 19.5729V26.1788C31.8948 26.4106 31.716 26.6192 31.4702 26.6192Z" fill="white"/>
</g>
<defs>
<clipPath id="clip0_1417_359">
<rect width="40" height="35" fill="white" transform="translate(0 3)"/>
</clipPath>
</defs>
</svg>
