<svg width="216" height="40" viewBox="0 0 216 40" fill="none" xmlns="http://www.w3.org/2000/svg">
<path d="M19.2586 17.4639H0V39.0073H19.2586V17.4639Z" fill="white"/>
<path d="M31.8631 6.93701H12.6045V38.3168H31.8631V6.93701Z" fill="#006D68"/>
<path d="M45.9998 0H26.7412V38.317H45.9998V0Z" fill="#AECC53"/>
<path d="M45.9997 36.9984H0V39.0071H45.9997V36.9984Z" fill="white"/>
<path d="M36.3715 23.545C33.7899 23.545 31.6846 21.4466 31.6846 18.8581C31.6846 16.4421 35.5363 11.4376 35.9781 10.8716C36.1645 10.63 36.5717 10.63 36.765 10.8716C37.2067 11.4376 41.0585 16.4421 41.0585 18.8581C41.0585 21.4397 38.9532 23.545 36.3715 23.545ZM36.3715 12.0037C35.0669 13.757 32.6855 17.2774 32.6855 18.8581C32.6855 20.8944 34.3421 22.5441 36.3715 22.5441C38.4079 22.5441 40.0576 20.8875 40.0576 18.8581C40.0576 17.2774 37.6762 13.757 36.3715 12.0037Z" fill="white"/>
<path d="M36.371 26.3131C36.0949 26.3131 35.874 26.0922 35.874 25.8161V18.4578C35.874 18.1817 36.0949 17.9608 36.371 17.9608C36.6472 17.9608 36.868 18.1817 36.868 18.4578V25.8161C36.868 26.0853 36.6472 26.3131 36.371 26.3131Z" fill="white"/>
<path d="M59.2068 30.8781C58.0957 30.8781 57.1498 30.6705 56.3692 30.2553C55.5979 29.8401 55.0101 29.2588 54.6061 28.5114C54.202 27.764 54 26.8921 54 25.8956C54 24.8622 54.2112 23.9671 54.6336 23.2105C55.0652 22.4447 55.6805 21.8542 56.4794 21.439C57.2784 21.0238 58.2426 20.8162 59.3721 20.8162C60.0517 20.8162 60.6991 20.9084 61.3143 21.093C61.9296 21.2683 62.4301 21.5082 62.8158 21.8127L62.0444 23.778C61.622 23.5012 61.195 23.3028 60.7634 23.1829C60.3318 23.0537 59.8726 22.9891 59.3859 22.9891C58.4584 22.9891 57.7651 23.2382 57.3059 23.7365C56.8559 24.2347 56.631 24.9544 56.631 25.8956C56.631 26.8367 56.8605 27.5472 57.3197 28.027C57.7788 28.5068 58.4584 28.7467 59.3583 28.7467C59.7808 28.7467 60.2537 28.6821 60.7771 28.5529V27.0166H58.8349V25.2312H62.8433V30.1307C62.3291 30.3706 61.7551 30.5552 61.1215 30.6843C60.4879 30.8135 59.8496 30.8781 59.2068 30.8781Z" fill="#AECC53"/>
<path d="M66.9491 30.7259V20.9684H71.6188C72.7207 20.9684 73.5702 21.2406 74.1671 21.785C74.7732 22.3201 75.0762 23.0675 75.0762 24.0271C75.0762 24.756 74.8925 25.3696 74.5252 25.8679C74.1671 26.3569 73.6436 26.6983 72.9549 26.8921C73.4692 27.0305 73.8824 27.3857 74.1946 27.9578L75.7098 30.7259H72.9273L71.2468 27.6256C71.1366 27.4319 70.9943 27.2935 70.8198 27.2104C70.6545 27.1274 70.4617 27.0858 70.2413 27.0858H69.4837V30.7259H66.9491ZM69.4837 25.2866H71.1642C72.1652 25.2866 72.6656 24.8898 72.6656 24.0963C72.6656 23.312 72.1652 22.9199 71.1642 22.9199H69.4837V25.2866Z" fill="#AECC53"/>
<path d="M79.0854 30.7259V20.9684H85.9452V22.9337H81.5097V24.7883H85.6283V26.7537H81.5097V28.7605H85.9452V30.7259H79.0854Z" fill="#AECC53"/>
<path d="M89.9571 30.7259V20.9684H96.8169V22.9337H92.3815V24.7883H96.5001V26.7537H92.3815V28.7605H96.8169V30.7259H89.9571Z" fill="#AECC53"/>
<path d="M100.829 30.7259V20.9684H102.688L107.151 26.5599V20.9684H109.493V30.7259H107.647L103.184 25.1344V30.7259H100.829Z" fill="#AECC53"/>
<path d="M123.639 30.8781C122.877 30.8781 122.147 30.7858 121.449 30.6013C120.751 30.4075 120.177 30.1538 119.727 29.8401L120.429 27.8609C120.852 28.1469 121.348 28.373 121.917 28.5391C122.486 28.7052 123.06 28.7882 123.639 28.7882C124.245 28.7882 124.667 28.7098 124.906 28.5529C125.154 28.3868 125.278 28.1838 125.278 27.9439C125.278 27.7317 125.191 27.561 125.016 27.4319C124.851 27.3027 124.553 27.192 124.121 27.0997L122.509 26.7537C120.765 26.3754 119.892 25.4573 119.892 23.9994C119.892 23.3628 120.062 22.8046 120.402 22.3248C120.751 21.845 121.233 21.4759 121.848 21.2175C122.464 20.95 123.18 20.8162 123.997 20.8162C124.667 20.8162 125.301 20.913 125.898 21.1068C126.504 21.2913 126.995 21.5451 127.372 21.868L126.669 23.7226C126.32 23.4643 125.916 23.2659 125.457 23.1275C124.998 22.9799 124.502 22.9061 123.97 22.9061C123.455 22.9061 123.06 22.9983 122.785 23.1829C122.509 23.3582 122.372 23.5888 122.372 23.8749C122.372 24.0779 122.454 24.244 122.62 24.3731C122.785 24.5023 123.079 24.613 123.501 24.7053L125.099 25.0513C126.871 25.4296 127.758 26.3246 127.758 27.7363C127.758 28.373 127.588 28.9266 127.248 29.3972C126.908 29.8678 126.431 30.2322 125.815 30.4906C125.2 30.7489 124.475 30.8781 123.639 30.8781Z" fill="#AECC53"/>
<path d="M136.096 30.8781C135.114 30.8781 134.251 30.6705 133.507 30.2553C132.772 29.8308 132.198 29.2403 131.785 28.4837C131.372 27.7271 131.165 26.8459 131.165 25.8402C131.165 24.8253 131.367 23.9441 131.771 23.1967C132.184 22.4401 132.763 21.8542 133.507 21.439C134.251 21.0238 135.114 20.8162 136.096 20.8162C137.079 20.8162 137.938 21.0238 138.672 21.439C139.416 21.8542 139.995 22.4401 140.408 23.1967C140.821 23.9441 141.028 24.8253 141.028 25.8402C141.028 26.8459 140.821 27.7271 140.408 28.4837C139.995 29.2403 139.416 29.8308 138.672 30.2553C137.938 30.6705 137.079 30.8781 136.096 30.8781ZM136.096 28.7467C136.813 28.7467 137.373 28.4929 137.777 27.9855C138.19 27.4688 138.397 26.7537 138.397 25.8402C138.397 24.9267 138.195 24.2163 137.791 23.7088C137.387 23.2013 136.822 22.9476 136.096 22.9476C135.371 22.9476 134.806 23.2013 134.402 23.7088C133.998 24.2163 133.796 24.9267 133.796 25.8402C133.796 26.7537 133.998 27.4688 134.402 27.9855C134.806 28.4929 135.371 28.7467 136.096 28.7467Z" fill="#AECC53"/>
<path d="M144.935 30.7259V20.9684H151.712V22.9337H147.469V24.8991H151.409V26.8506H147.469V30.7259H144.935Z" fill="#AECC53"/>
<path d="M157.824 30.7259V23.0445H154.738V20.9684H163.444V23.0445H160.359V30.7259H157.824Z" fill="#AECC53"/>
<path d="M169.81 30.7259L166.325 20.9684H168.914L170.939 27.0858L173.129 20.9684H174.92L177.014 27.2104L179.135 20.9684H181.573L178.061 30.7259H176.036L173.956 24.8575L171.835 30.7259H169.81Z" fill="#AECC53"/>
<path d="M182.917 30.7259L187.462 20.9684H189.46L194.005 30.7259H191.471L190.631 28.7467H186.291L185.451 30.7259H182.917ZM188.44 23.6258L187.118 26.7952H189.79L188.468 23.6258H188.44Z" fill="#AECC53"/>
<path d="M197.004 30.7259V20.9684H201.674C202.776 20.9684 203.625 21.2406 204.222 21.785C204.828 22.3201 205.131 23.0675 205.131 24.0271C205.131 24.756 204.947 25.3696 204.58 25.8679C204.222 26.3569 203.698 26.6983 203.01 26.8921C203.524 27.0305 203.937 27.3857 204.249 27.9578L205.765 30.7259H202.982L201.302 27.6256C201.191 27.4319 201.049 27.2935 200.875 27.2104C200.709 27.1274 200.516 27.0858 200.296 27.0858H199.539V30.7259H197.004ZM199.539 25.2866H201.219C202.22 25.2866 202.72 24.8898 202.72 24.0963C202.72 23.312 202.22 22.9199 201.219 22.9199H199.539V25.2866Z" fill="#AECC53"/>
<path d="M209.14 30.7259V20.9684H216V22.9337H211.565V24.7883H215.683V26.7537H211.565V28.7605H216V30.7259H209.14Z" fill="#AECC53"/>
<path d="M57.912 18.1911C57.1498 18.1911 56.4197 18.0988 55.7218 17.9143C55.0239 17.7205 54.45 17.4668 54 17.1531L54.7025 15.1739C55.1249 15.4599 55.6208 15.686 56.1902 15.8521C56.7595 16.0182 57.3335 16.1012 57.912 16.1012C58.5181 16.1012 58.9405 16.0228 59.1793 15.8659C59.4272 15.6998 59.5512 15.4968 59.5512 15.2569C59.5512 15.0447 59.4639 14.874 59.2895 14.7448C59.1242 14.6157 58.8257 14.5049 58.3941 14.4127L56.7825 14.0667C55.0377 13.6884 54.1653 12.7703 54.1653 11.3124C54.1653 10.6758 54.3352 10.1175 54.675 9.63775C55.0239 9.15795 55.506 8.78887 56.1213 8.53052C56.7366 8.26294 57.4528 8.12915 58.2701 8.12915C58.9405 8.12915 59.5741 8.22603 60.171 8.4198C60.7771 8.60434 61.2684 8.85808 61.6449 9.18102L60.9424 11.0356C60.5935 10.7773 60.1894 10.5789 59.7303 10.4405C59.2711 10.2929 58.7752 10.219 58.2426 10.219C57.7283 10.219 57.3335 10.3113 57.058 10.4959C56.7825 10.6712 56.6447 10.9018 56.6447 11.1879C56.6447 11.3909 56.7274 11.5569 56.8927 11.6861C57.058 11.8153 57.3518 11.926 57.7742 12.0183L59.3721 12.3643C61.1445 12.7426 62.0306 13.6376 62.0306 15.0493C62.0306 15.686 61.8607 16.2396 61.521 16.7102C61.1812 17.1807 60.7037 17.5452 60.0884 17.8036C59.4731 18.0619 58.7477 18.1911 57.912 18.1911Z" fill="#FBFCF6"/>
<path d="M67.7708 18.0388V10.3574H64.6852V8.28139H73.3908V10.3574H70.3053V18.0388H67.7708Z" fill="#FBFCF6"/>
<path d="M74.4991 18.0388L79.0447 8.28139H81.042L85.5877 18.0388H83.0531L82.2129 16.0597H77.8738L77.0336 18.0388H74.4991ZM80.0227 10.9387L78.7003 14.1082H81.3726L80.0502 10.9387H80.0227Z" fill="#FBFCF6"/>
<path d="M89.7833 18.0388V10.3574H86.6978V8.28139H95.4034V10.3574H92.3179V18.0388H89.7833Z" fill="#FBFCF6"/>
<path d="M98.772 18.0388V8.28139H105.632V10.2467H101.196V12.1013H105.315V14.0667H101.196V16.0735H105.632V18.0388H98.772Z" fill="#FBFCF6"/>
<path d="M120.679 18.1911C119.697 18.1911 118.833 17.9835 118.09 17.5683C117.355 17.1438 116.781 16.5533 116.368 15.7967C115.954 15.0401 115.748 14.1589 115.748 13.1532C115.748 12.1382 115.95 11.2571 116.354 10.5097C116.767 9.75309 117.346 9.16718 118.09 8.75197C118.833 8.33676 119.697 8.12915 120.679 8.12915C121.662 8.12915 122.52 8.33676 123.255 8.75197C123.999 9.16718 124.577 9.75309 124.991 10.5097C125.404 11.2571 125.61 12.1382 125.61 13.1532C125.61 14.1589 125.404 15.0401 124.991 15.7967C124.577 16.5533 123.999 17.1438 123.255 17.5683C122.52 17.9835 121.662 18.1911 120.679 18.1911ZM120.679 16.0597C121.395 16.0597 121.956 15.8059 122.36 15.2985C122.773 14.7817 122.979 14.0667 122.979 13.1532C122.979 12.2397 122.777 11.5293 122.373 11.0218C121.969 10.5143 121.405 10.2606 120.679 10.2606C119.954 10.2606 119.389 10.5143 118.985 11.0218C118.581 11.5293 118.379 12.2397 118.379 13.1532C118.379 14.0667 118.581 14.7817 118.985 15.2985C119.389 15.8059 119.954 16.0597 120.679 16.0597Z" fill="#FBFCF6"/>
<path d="M129.518 18.0388V8.28139H136.295V10.2467H132.052V12.2121H135.992V14.1635H132.052V18.0388H129.518Z" fill="#FBFCF6"/>
</svg>
