<svg width="40" height="40" viewBox="0 0 75 75" fill="none" xmlns="http://www.w3.org/2000/svg">
<g clip-path="url(#clip0_1311_9654)">
<path d="M75 37.5C75 16.8 58.2 0 37.5 0C16.8 0 0 16.8 0 37.5C0 58.2 16.8 75 37.5 75C38.7 75 74.9 74.8 74.9 74.8C74.9 74.8 75 38.5 75 37.5Z" fill="white"/>
<path d="M54.3 28C54.3 18.5 46.4 10.8 36.8 11.2C28.1 11.5 21.1 18.5 20.6 27.2C20.4 31.8 22 36 24.8 39.1C27.8 42.5 29.5 46.7 29.5 51.2V51.6C29.5 56 33.1 59.6 37.5 59.6C41.9 59.6 45.5 56 45.5 51.6V51.3C45.5 46.9 47 42.6 50 39.3C52.7 36.3 54.3 32.3 54.3 28Z" fill="#0D4B76"/>
<path d="M37.8 18.8L37.5 18.5L37.2 18.8C36.8 19.1 28.6 26.9 28.6 31.7C28.6 36.6 32.6 40.6 37.5 40.6C42.4 40.6 46.4 36.6 46.4 31.7C46.4 26.9 38.1 19.1 37.8 18.8Z" fill="#AECC53"/>
<path d="M37.5 57.9001C37.1 57.9001 36.8 57.6001 36.8 57.2001V29.5C36.8 29.1 37.1 28.8 37.5 28.8C37.9 28.8 38.2 29.1 38.2 29.5V57.3C38.2 57.7 37.9 57.9001 37.5 57.9001Z" fill="white"/>
<path d="M44.4 54.3999H30.6C29.4 54.3999 28.4 55.3999 28.4 56.5999C28.4 57.6999 29.2 58.5999 30.2 58.7999C29.8 59.1999 29.6 59.6999 29.6 60.2999C29.6 61.4999 30.6 62.4999 31.8 62.4999H33.2C33.8 64.2999 35.5 65.6999 37.5 65.6999C39.5 65.6999 41.3 64.3999 41.8 62.4999H43.2C44.4 62.4999 45.4 61.4999 45.4 60.2999C45.4 59.6999 45.2 59.1999 44.8 58.7999C45.8 58.5999 46.6 57.6999 46.6 56.5999C46.6 55.3999 45.6 54.3999 44.4 54.3999Z" fill="#AECC53"/>
</g>
<defs>
<clipPath id="clip0_1311_9654">
<rect width="75" height="75" fill="white"/>
</clipPath>
</defs>
</svg>
