<svg width="153" height="153" viewBox="0 0 153 153" fill="none" xmlns="http://www.w3.org/2000/svg">
<path d="M152.12 76.4402H123.34C123.34 76.4402 123.3 78.7102 123.22 79.8202C121.49 104.25 101.12 123.53 76.25 123.53C51.28 123.53 30.85 104.1 29.26 79.5302C29.19 78.5102 29.16 76.4402 29.16 76.4402H0.380005C0.380005 76.4402 0.400006 78.4902 0.440006 79.5102C2.05001 119.99 35.38 152.31 76.25 152.31C116.91 152.31 150.1 120.33 152.03 80.1502C152.09 78.9202 152.12 76.4402 152.12 76.4402Z" fill="white"/>
<path d="M0.369995 76.4401H29.15C29.15 50.4301 50.23 29.3501 76.24 29.3501C102.25 29.3501 123.33 50.4301 123.33 76.4401H152.11C152.11 34.5401 118.14 0.570068 76.24 0.570068C34.34 0.570068 0.369995 34.5401 0.369995 76.4401Z" fill="#006D68"/>
<path d="M76.24 112.13C95.951 112.13 111.93 96.151 111.93 76.44C111.93 56.729 95.951 40.75 76.24 40.75C56.5289 40.75 40.55 56.729 40.55 76.44C40.55 96.151 56.5289 112.13 76.24 112.13Z" fill="#ACCA53"/>
<path d="M79.89 76.4399L76.24 112.13L72.6 76.4399H79.89Z" fill="white"/>
<path d="M72.6 76.44L76.24 40.75L79.89 76.44H72.6Z" fill="#3C3C3C"/>
</svg>
