<svg width="164" height="70" viewBox="0 0 164 70" fill="none" xmlns="http://www.w3.org/2000/svg">
<g clip-path="url(#clip0_1795_4426)">
<path d="M93.2 28.5C92 27.8 91.1 26.8 90.5 25.6C89.9 24.3 89.5 22.9 89.5 21.2C89.5 19.5 89.8 18 90.5 16.8C91.1 15.6 92 14.6 93.2 13.9C94.4 13.2 95.8 12.9 97.4 12.9C98.5 12.9 99.5 13.1 100.5 13.4C101.5 13.7 102.3 14.2 102.9 14.8L101.9 17C101.2 16.4 100.4 16 99.7 15.7C99 15.4 98.2 15.3 97.4 15.3C95.8 15.3 94.6 15.8 93.8 16.8C93 17.8 92.5 19.3 92.5 21.2C92.5 23.1 92.9 24.6 93.8 25.6C94.6 26.6 95.8 27.1 97.4 27.1C98.2 27.1 99 27 99.7 26.7C100.4 26.4 101.1 26 101.9 25.4L102.9 27.6C102.3 28.2 101.4 28.7 100.5 29C99.5 29.3 98.5 29.5 97.4 29.5C95.8 29.5 94.4 29.2 93.2 28.5Z" fill="white"/>
<path d="M113.5 19C114.2 19.8 114.7 20.9 114.7 22.5V29.3H112V27.6C111.7 28.2 111.3 28.7 110.8 29C110.2 29.3 109.6 29.5 108.9 29.5C108.2 29.5 107.5 29.4 106.9 29C106.3 28.7 105.8 28.3001 105.5 27.7001C105.2 27.2001 105 26.6 105 25.9C105 25.1 105.2 24.4 105.6 24C106 23.6 106.7 23.2 107.6 23C108.5 22.8 109.9 22.7001 111.5 22.7001H112.1V22.2001C112.1 21.4001 111.9 20.9 111.6 20.5C111.3 20.2 110.7 20 110 20C109.4 20 108.8 20.1 108.1 20.3C107.5 20.5 106.8 20.8001 106.2 21.2001L105.4 19.2001C106 18.8001 106.8 18.5001 107.7 18.2001C108.6 17.9001 109.4 17.8 110.2 17.8C111.5 17.8 112.7 18.2 113.5 19ZM111.2 26.7001C111.7 26.2001 111.9 25.5001 111.9 24.7001V24.2001H111.5C110.5 24.2001 109.7 24.2 109.1 24.3C108.5 24.4 108.1 24.6 107.9 24.8C107.7 25 107.5 25.4001 107.5 25.7001C107.5 26.2001 107.7 26.6 108 26.9C108.3 27.2 108.7 27.4 109.3 27.4C110.1 27.4 110.7 27.2001 111.2 26.7001Z" fill="white"/>
<path d="M125 20.2001L123.3 20.3C121.4 20.5 120.5 21.5001 120.5 23.2001V29.3H117.6V18.1H120.3V20.1C120.9 18.8001 122.1 18 123.9 17.9L124.8 17.8L125 20.2001Z" fill="white"/>
<path d="M135.4 18.5C136.1 19 136.7 19.7 137.2 20.5C137.6 21.4 137.8 22.4 137.8 23.6C137.8 24.8 137.6 25.8 137.2 26.7C136.8 27.6 136.2 28.3 135.4 28.8C134.7 29.3 133.8 29.5 132.8 29.5C132 29.5 131.3 29.3 130.6 29C130 28.7 129.5 28.2 129.2 27.5V29.3H126.4V13.1H129.3V19.7C129.6 19.1 130.1 18.6 130.7 18.3C131.3 18 132 17.8 132.8 17.8C133.8 17.8 134.7 18 135.4 18.5ZM134.2 26.3C134.7 25.7 134.9 24.8 134.9 23.6C134.9 22.4 134.7 21.6 134.2 21C133.7 20.4 133 20.1 132.1 20.1C131.2 20.1 130.5 20.4 130 21C129.5 21.6 129.3 22.5 129.3 23.7C129.3 24.9 129.5 25.7 130 26.4C130.5 27 131.2 27.3 132.1 27.3C133 27.3 133.6 27 134.2 26.3Z" fill="white"/>
<path d="M142.3 28.8C141.4 28.3 140.8 27.6 140.3 26.8C139.8 25.9 139.6 24.9 139.6 23.7C139.6 22.5 139.8 21.5 140.3 20.6C140.8 19.7 141.5 19 142.3 18.6C143.2 18.1 144.2 17.9 145.3 17.9C146.5 17.9 147.4 18.1 148.3 18.6C149.2 19.1 149.8 19.8 150.3 20.6C150.8 21.5 151 22.5 151 23.7C151 24.9 150.8 25.9 150.3 26.8C149.8 27.7 149.2 28.4 148.3 28.8C147.4 29.3 146.4 29.5 145.3 29.5C144.1 29.5 143.2 29.3 142.3 28.8ZM147.4 26.4C147.9 25.8 148.1 24.9 148.1 23.7C148.1 22.5 147.9 21.6 147.4 21C146.9 20.4 146.2 20.1 145.3 20.1C144.4 20.1 143.7 20.4 143.2 21C142.7 21.6 142.5 22.5 142.5 23.7C142.5 24.9 142.7 25.8 143.2 26.4C143.7 27 144.4 27.3 145.3 27.3C146.2 27.3 146.9 27 147.4 26.4Z" fill="white"/>
<path d="M162.9 19C163.5 19.8 163.9 20.9 163.9 22.5V29.4H161V22.6C161 21.7 160.8 21.1 160.5 20.7C160.2 20.3 159.7 20.1 158.9 20.1C158.1 20.1 157.4 20.4 156.9 20.9C156.4 21.4 156.2 22.1 156.2 23V29.4H153.3V18.1H156.1V19.8C156.5 19.2 157 18.7 157.6 18.4C158.2 18.1 159 17.9 159.8 17.9C161.3 17.8 162.3 18.2 162.9 19Z" fill="white"/>
<path d="M104.2 40.7001V56.9001H101.3V49.9001H93V56.9001H90.1V40.7001H93V47.5001H101.3V40.7001H104.2Z" fill="white"/>
<path d="M115.8 46.5C116.5 47.2 117 48.4 117 50V56.8H114.3V55.1C114 55.7 113.6 56.2 113.1 56.5C112.5 56.8 111.9 57 111.2 57C110.5 57 109.8 56.9 109.2 56.5C108.6 56.2 108.1 55.8001 107.8 55.2001C107.4 54.6001 107.3 54.1001 107.3 53.4001C107.3 52.6001 107.5 51.9 107.9 51.5C108.3 51.1 109 50.7 109.9 50.5C110.8 50.3 112.2 50.2001 113.8 50.2001H114.4V49.7001C114.4 49.0001 114.2 48.4 113.9 48C113.6 47.7 113 47.5 112.3 47.5C111.7 47.5 111.1 47.6 110.4 47.8C109.8 48 109.1 48.3001 108.5 48.7001L107.7 46.7001C108.3 46.3001 109.1 46.0001 110 45.7001C110.9 45.4001 111.7 45.3 112.5 45.3C113.8 45.4 115 45.8 115.8 46.5ZM113.4 54.2001C113.9 53.7001 114.1 53.0001 114.1 52.2001V51.7001H113.7C112.7 51.7001 111.9 51.7 111.3 51.8C110.7 51.9 110.3 52.1 110.1 52.3C109.9 52.5 109.7 52.9001 109.7 53.2001C109.7 53.7001 109.9 54.1001 110.2 54.4001C110.5 54.7001 110.9 54.9001 111.5 54.9001C112.3 55.0001 113 54.7001 113.4 54.2001Z" fill="white"/>
<path d="M121.9 56.4C121 55.9 120.4 55.2 119.9 54.4C119.4 53.5 119.2 52.5 119.2 51.3C119.2 50.1 119.4 49.1 119.9 48.2C120.4 47.3 121.1 46.6 121.9 46.1C122.8 45.6 123.8 45.4 125 45.4C125.8 45.4 126.6 45.5 127.3 45.8C128 46 128.7 46.4 129.1 46.8L128.3 48.8C127.8 48.4 127.3 48.1 126.8 47.9C126.3 47.7 125.7 47.6 125.2 47.6C124.2 47.6 123.4 47.9 122.9 48.5C122.4 49.1 122.1 50 122.1 51.2C122.1 52.4 122.4 53.2 122.9 53.8C123.5 54.4 124.2 54.7 125.2 54.7C125.7 54.7 126.2 54.6 126.8 54.4C127.3 54.2 127.8 53.9 128.3 53.5L129.1 55.5C128.6 56 128 56.3 127.2 56.5C126.5 56.8 125.6 56.9 124.8 56.9C123.8 57.1 122.7 56.8 121.9 56.4Z" fill="white"/>
<path d="M138.7 56.9001L133.9 51.8001V56.9001H131V40.7001H133.9V50.6001L138.4 45.7001H141.9L136.8 51.1001L142.2 56.9001H138.7Z" fill="white"/>
<path d="M70 35C70 15.7 54.4 0 35 0C15.6 0 0 15.7 0 35C0 54.3 15.7 70 35 70C36.2 70 69.9 69.8 69.9 69.8C69.9 69.8 70 35.9 70 35Z" fill="white"/>
<path d="M49.5999 43.3V28.1L36.4 20.5L23.2 28.1V43.3L36.4 50.9L49.5999 43.3Z" fill="#AECC53"/>
<path d="M36.4 45.8L27.6 40.7V30.6L36.4 25.5L45.2 30.6V40.7L36.4 45.8ZM28.9 40L36.4 44.3L43.9 40V31.4L36.4 27.1L28.9 31.4V40Z" fill="white"/>
<path d="M26 53.9H15.1V17.4H26V19.5H17.1V51.9H26V53.9Z" fill="#0D4B76"/>
<path d="M57.6999 53.9H46.7999V51.9H55.6999V19.5H46.7999V17.4H57.6999V53.9Z" fill="#0D4B76"/>
</g>
<defs>
<clipPath id="clip0_1795_4426">
<rect width="163.9" height="70" fill="white"/>
</clipPath>
</defs>
</svg>
