<svg width="92" height="82" viewBox="0 0 92 82" fill="none" xmlns="http://www.w3.org/2000/svg">
<path d="M64.1936 78.0198C60.8986 65.9752 46.5202 49.5428 57.304 37.068C67.1035 25.7546 87.4301 39.0468 92.9932 48.3384" stroke="#AECC53" stroke-miterlimit="10"/>
<path d="M102.53 7.38338C93.3396 -0.667774 83.1996 -8.33352 71.2474 -11.0743C59.2953 -13.8152 45.1425 -10.3891 38.5839 -0.0682298C34.6142 6.14144 33.9238 13.85 31.076 20.6592C29.0049 25.4985 25.855 29.9523 24.8194 35.0913C22.4894 46.7398 31.6369 57.2748 40.0941 65.6686C44.9699 70.5078 47.8608 75.604 52.0894 81" stroke="#AECC53" stroke-miterlimit="10"/>
<path d="M20.1367 77.4238C6.46222 70.1712 -0.934065 51.6318 1.30202 36.7403C2.76407 26.9985 8.82731 18.7159 12.9555 9.78957C18.5457 -2.35542 20.5667 -15.8308 25.8129 -28.1474C31.0161 -40.4641 40.9065 -52.2228 54.194 -53.8107C61.5903 -54.7119 69.0296 -52.2657 75.8238 -49.2188C87.3483 -43.9831 97.9267 -36.7734 107 -27.9329" stroke="#AECC53" stroke-miterlimit="10"/>
</svg>
