<?xml version="1.0" encoding="utf-8"?>
<svg xmlns="http://www.w3.org/2000/svg" width="305.67" height="302.63" viewBox="0 0 305.67 302.63">
  <g style="isolation:isolate">
    <g id="a9258a97-c140-470e-8d71-db4138185d85" data-name="text">
      <path d="M202.36,9c-13.2-4.95-27-9.09-41.07-9-19,.08-37,7.75-54.32,15.64C75.16,30.16,50.08,52.91,24,76,2.9,94.71-.57,133.5.07,159.85c.08,3.18.15,6.37.3,9.56.44,9.83,1.5,19.62,4.94,28.78,5.52,14.69,18.33,27.08,28,39.17,10.47,13.08,20.73,24,34.82,33.34,16,10.58,38.78,28.74,58.47,30.41,24.78,2.1,43.75,3.11,67.57-4.32,25.37-7.91,53.17-19.45,71.43-39.67,9.57-10.61,15.82-25.75,22.95-38.08,13.9-24,19.66-50,16.09-77.65-3.75-28.95-15.12-51.13-27.11-77C262.12,31.16,235.06,21.29,202.36,9Z" style="fill:#aecc53;opacity:0.2"/>
      <path d="M157.13,155.33h-4.59A11.36,11.36,0,0,1,142,148.81a7.56,7.56,0,0,1-.24-5.28l7.17-23.19c1.66-5.36,10.12-5.36,11.78,0l7.2,23.19a7.62,7.62,0,0,1-.24,5.3A11.36,11.36,0,0,1,157.13,155.33Z" style="fill:none;stroke:#aecc53;stroke-linecap:round;stroke-linejoin:round"/>
      <path d="M160,131.56a5.27,5.27,0,0,1-10.33,0" style="fill:none;stroke:#aecc53;stroke-linecap:round;stroke-linejoin:round"/>
      <path d="M158.86,131.49a1.13,1.13,0,1,1,2.24.25,1.13,1.13,0,0,1-2.24-.25Z" style="fill:#aecc53"/>
      <path d="M150.81,131.49a1.13,1.13,0,1,0-1,1.24A1.13,1.13,0,0,0,150.81,131.49Z" style="fill:#aecc53"/>
      <path d="M162.6,138.76a7.84,7.84,0,0,1-15.53,0" style="fill:none;stroke:#aecc53;stroke-linecap:round;stroke-linejoin:round"/>
      <path d="M161.46,138.72a1.13,1.13,0,1,1,1,1.22A1.13,1.13,0,0,1,161.46,138.72Z" style="fill:#aecc53"/>
      <path d="M148.21,138.72a1.13,1.13,0,1,0-1,1.22A1.13,1.13,0,0,0,148.21,138.72Z" style="fill:#aecc53"/>
      <line x1="154.84" y1="125.7" x2="154.87" y2="167.32" style="fill:none;stroke:#aecc53;stroke-linecap:round;stroke-linejoin:round"/>
      <path d="M153.71,125.76a1.13,1.13,0,1,1,1.13,1.13A1.14,1.14,0,0,1,153.71,125.76Z" style="fill:#aecc53"/>
      <rect x="148.34" y="166.82" width="13" height="7" style="fill:#ccc"/>
      <path d="M101.54,255.26,91,246.86l10.12-48.29-27.51-14.4-6.82,24.89L84,211.55S81,243.33,81,250.08Z" style="fill:#3c3c3b;stroke:#3c3c3b;stroke-linecap:round;stroke-linejoin:round;stroke-width:0.964194979413252px"/>
      <path d="M99.39,246.34l3.44-49.21-21-7.57v-2.95H43.23v8.71a17,17,0,0,0,17,17H81.79v0l5.85,0S89.07,244.2,90,250.89l21,2.34Z" style="fill:#fff;stroke:#3c3c3b;stroke-linecap:round;stroke-linejoin:round;stroke-width:0.964194979413252px"/>
      <path d="M82.58,189.66c.4-.39-.39-11.74-.43-14a223.44,223.44,0,0,0-1.67-27.37c-1-7-1.6-14.11-7-19.28-6.42-6.15-15.53-6.93-22.14-.58-3.93,3.78-6.21,9-7.67,14.21-2.18,7.76-1.82,37.06-.73,49.58C43,192.87,68.14,203.65,82.58,189.66Z" style="fill:#006d68;stroke:#006d68;stroke-linecap:round;stroke-linejoin:round;stroke-width:0.752426474177474px"/>
      <circle cx="73.16" cy="112.53" r="14.25" style="fill:#fff;stroke:#3c3c3b;stroke-linecap:round;stroke-linejoin:round"/>
      <path d="M96.63,150.32c.49-.68,1.39-.92,2-1.5a4.51,4.51,0,0,0,.68-.94c1.18-2,2.52-4,3.87-5.85a5,5,0,0,1,3.24-2.13c.12,2.54-1.81,4.19-1,6.87,1.29-.88,2.64-1.68,3.94-2.56a3.31,3.31,0,0,0,.84-.74,3.51,3.51,0,0,0,.41-1.47,8.56,8.56,0,0,1,1.29-4c.57-.76,2.67-2.35,3.45-1.16.38.58-.73,3.55-.85,4.25-.36,2-.83,4-1.23,6a5.2,5.2,0,0,1-.79,2.19,5.25,5.25,0,0,1-1.72,1.3c-3,1.67-7.23,2.68-9.45,5.44" style="fill:#fff;stroke:#3c3c3b;stroke-linecap:round;stroke-linejoin:round"/>
      <path d="M78.16,94.26c-.43-.26-.87-.5-1.31-.72-10.66-5.26-23.78-.13-26.72,11.81-.75,3.05-1.63,6.19-1.44,9.38-7.68-3-11.9,5-8.18,11.46A7.54,7.54,0,0,0,47.43,130a6,6,0,0,0,5.37-5.38c1.46.35,11.17-1.86,11.45-.66-.47-2,0-3.73-.06-5.73,0,.71-1.37-.62-1.37-.62a4.87,4.87,0,0,1-.89-2.56c-.45-2.15-.38-4.44,1.37-6a3.19,3.19,0,0,1,2-.89,1.86,1.86,0,0,1,1.79,1.12c-.68-1.94,2.37-4.84,3.68-5.86,4-3.15,8.77-3.63,12.91-.38A10.3,10.3,0,0,0,78.16,94.26Z" style="fill:#3c3c3b;stroke:#3c3c3b;stroke-linecap:round;stroke-linejoin:round;stroke-width:0.970113517566058px"/>
      <g style="mix-blend-mode:multiply">
        <path d="M96.34,165.54l-.09,0-11.78,5.67a23.35,23.35,0,0,1-33.13-17.11L49.1,141.06a8.34,8.34,0,0,1,16.45-2.81l2.24,13.08a6.65,6.65,0,0,0,9.45,4.88L89,150.55a8.34,8.34,0,0,1,7.33,15Z" style="fill:#aecc53"/>
      </g>
      <path d="M208.6,255.26l10.57-8.4-10.12-48.29,27.51-10.4,6.83,20.89-17.21,2.49s2.92,31.78,2.94,38.53Z" style="fill:#3c3c3b;stroke:#3c3c3b;stroke-linecap:round;stroke-linejoin:round;stroke-width:0.964194979413252px"/>
      <path d="M210.74,246.34l-3.44-49.21,21-7.57v-2.95h38.57v8.71a17,17,0,0,1-17,17H228.34v0l-5.84,0s-1.43,31.88-2.34,38.57l-21,2.34Z" style="fill:#006d68;stroke:#006d68;stroke-linecap:round;stroke-linejoin:round;stroke-width:0.752426474177474px"/>
      <path d="M227.55,189.66c-.44-.34.4-11.74.44-14a221.46,221.46,0,0,1,1.66-27.37c1-7,1.6-14.11,7-19.28,6.41-6.15,15.53-6.93,22.13-.58,3.93,3.78,6.21,9,7.68,14.21,2.17,7.76,1.81,37.06.73,49.58C267.13,192.87,242.84,201.32,227.55,189.66Z" style="fill:#aecc53;mix-blend-mode:multiply"/>
      <circle cx="236.97" cy="112.53" r="14.25" style="fill:#3c3c3b;stroke:#3c3c3b;stroke-linecap:round;stroke-linejoin:round"/>
      <path d="M208.93,160.2c-.52.09-1.05.14-1.62.24a38.79,38.79,0,0,0-4.86,1.58,14,14,0,0,1-7,.74.54.54,0,0,1-.3-.15c-.2-.24.11-.56.39-.7,1.44-.74,3.12-1.23,4.07-2.54a.88.88,0,0,0,.16-.93.92.92,0,0,0-.84-.26c-1.7.09-3.38-.05-5.09,0-.74,0-2.14.22-2.69-.43a.69.69,0,0,1,.23-1c.78-.52,2.27-.49,3.17-.63s5-.29,4.81-1.75c-.16-1.06-3.83-1.1-4.58-1.22-.38-.06-3.66-.5-2.34-1.58.66-.54,3-.64,3.93-.71,1.9-.16,3.84.05,5.76-.12a1.36,1.36,0,0,0,.8-.25c1-.88-4.62-4.89-1.8-5.32a1.85,1.85,0,0,1,1.21.41c1.13.72,2.26,1.45,3.4,2.16,1.35.84,2.69,1.72,4,2.64a4.32,4.32,0,0,0,1,.59c.79.3,1.71.15,2.43.57s.54,2,.54,2.78a6.82,6.82,0,0,1-.61,3.35,5.12,5.12,0,0,1-2.22,2A6.72,6.72,0,0,1,208.93,160.2Z" style="fill:#3c3c3b;stroke:#3c3c3b;stroke-linecap:round;stroke-linejoin:round"/>
      <path d="M249.77,92.68a8.11,8.11,0,0,0-6.06.77c-.89.49-3,2-2.76,3.27.43,2,3.07.53,2.89-1.13-.22-2-3.13-3.88-4.93-4a7,7,0,0,0-5.47,2.17c-.71.63-2.86,2.58-1.47,3.55A1.18,1.18,0,0,0,233.73,96c-.24-.91-2.09-1.47-2.87-1.6a3.13,3.13,0,0,0-2.06.41,4.93,4.93,0,0,0-2.47,3.78,2.47,2.47,0,0,0,.13.93c.92,2.43,3.23,1.44,5,1.21a9.85,9.85,0,0,1,3.71.1c4.05,1,5.33,4.25,6.19,7.88.15.65.52,1.45,1.18,1.38.5-.06.76-.62,1.12-1,1.38-1.44,3.63-.24,4.42,1.12a7.21,7.21,0,0,1,.08,6c-.11.25-2.21,2.87-2.18,2.09-.18,3.69,2.59,7.36,6.55,5.29a6.45,6.45,0,0,0,3.18-3.91c.36-1.67-1.37-6.55-3.82-4.64a1.64,1.64,0,0,0,.34,2.59,2.45,2.45,0,0,0,1.37.07c3.78-.65,6.5-3.69,5.87-7.6-.26-1.64-1.9-3.49-3.68-3.48-2.31,0-1.2,3.27,1.1,1.4,1.75-1.42,2.71-5,1.79-7-1.09-2.44-3.27-3.13-5.7-2.81a3.9,3.9,0,0,0-2.46,1.11c-.66.76-.67,2,.56,1.89s1.67-1.88,1.87-2.78A4.59,4.59,0,0,0,249.77,92.68Z" style="fill:#fff;stroke:#3c3c3b;stroke-linecap:round;stroke-linejoin:round"/>
      <path d="M213.79,165.54l.1,0,11.77,5.67a23.36,23.36,0,0,0,33.14-17.11L261,141.06a8.34,8.34,0,1,0-16.45-2.81l-2.23,13.08a6.66,6.66,0,0,1-9.46,4.88l-11.77-5.66a8.34,8.34,0,0,0-7.33,15Z" style="fill:#fff;stroke:#3c3c3b;stroke-linecap:round;stroke-linejoin:round;stroke-width:0.964194979413252px"/>
      <path d="M84.13,214.08H44.4a14.07,14.07,0,0,1-14-14V153.3" style="fill:none;stroke:#3c3c3b;stroke-linecap:round;stroke-linejoin:round;stroke-width:4px"/>
      <rect x="27.79" y="149.21" width="12.86" height="35.06" rx="5.5" style="fill:#aecc53;stroke:#aecc53;stroke-miterlimit:10;stroke-width:2px"/>
      <line x1="75.95" y1="214.08" x2="75.95" y2="254.98" style="fill:none;stroke:#3c3c3b;stroke-linecap:round;stroke-linejoin:round;stroke-width:4px"/>
      <line x1="42.06" y1="214.08" x2="42.06" y2="254.98" style="fill:none;stroke:#3c3c3b;stroke-linecap:round;stroke-linejoin:round;stroke-width:4px"/>
      <path d="M225.54,214.08h39.74a14.06,14.06,0,0,0,14-14V153.3" style="fill:none;stroke:#3c3c3b;stroke-linecap:round;stroke-linejoin:round;stroke-width:4px"/>
      <rect x="269.03" y="149.21" width="12.86" height="35.06" rx="5.5" transform="translate(550.91 333.49) rotate(-180)" style="fill:#006d68;stroke:#006d68;stroke-linecap:round;stroke-linejoin:round"/>
      <line x1="233.72" y1="214.08" x2="233.72" y2="254.98" style="fill:none;stroke:#3c3c3b;stroke-linecap:round;stroke-linejoin:round;stroke-width:4px"/>
      <line x1="267.61" y1="214.08" x2="267.61" y2="254.98" style="fill:none;stroke:#3c3c3b;stroke-linecap:round;stroke-linejoin:round;stroke-width:4px"/>
      <rect x="141.2" y="214.65" width="27.27" height="10.96" rx="3.82" style="fill:none;stroke:#3c3c3b;stroke-linecap:round;stroke-linejoin:round"/>
      <rect x="147.66" y="198.86" width="14.35" height="15.79" style="fill:none;stroke:#3c3c3b;stroke-linecap:round;stroke-linejoin:round"/>
      <line x1="162.01" y1="226.13" x2="162.01" y2="242.31" style="fill:none;stroke:#3c3c3b;stroke-linecap:round;stroke-linejoin:round"/>
      <line x1="147.66" y1="242.31" x2="147.66" y2="226.13" style="fill:none;stroke:#3c3c3b;stroke-linecap:round;stroke-linejoin:round"/>
      <path d="M100.81,199.54,209,199.37a25,25,0,0,0,25-25h0l-158.21.26v.46A25,25,0,0,0,100.81,199.54Z" style="fill:#fff"/>
      <path d="M100.81,199.54,209,199.37a25,25,0,0,0,25-25h0l-158.21.26v.46A25,25,0,0,0,100.81,199.54Z" style="fill:none;stroke:#3c3c3b;stroke-linecap:round;stroke-linejoin:round"/>
      <path d="M224.63,193.35c-4.54,0-9.06-1.26-9-6.66,0-3.23,1.25-4.79-3.16-5.63a18.91,18.91,0,0,1-4.87-1.15c-2-1-3.3-3.44-1.79-5.41" style="fill:none;stroke:#3c3c3b;stroke-linecap:round;stroke-linejoin:round"/>
      <path d="M213,198.86a9.42,9.42,0,0,1-6-4.78c-1.3-2.56.22-6.08-1.38-8.74-1.71-2.83-5.49-1.1-8-2.25-3.73-1.67-7.59-3.71-6.61-8.32" style="fill:none;stroke:#3c3c3b;stroke-linecap:round;stroke-linejoin:round"/>
      <path d="M164.89,175.06c.66,5.44,6.31,7.42,5.64,13.45-.39,3.62-2.33,6.86-4.22,10" style="fill:none;stroke:#3c3c3b;stroke-linecap:round;stroke-linejoin:round"/>
      <path d="M158.28,198.45c4.43-4.26,6.28-15.68-2.32-16.58-1.94-.2-3.85.55-5.79.77-4.74.53-7.77-3.43-7.8-7.87" style="fill:none;stroke:#3c3c3b;stroke-linecap:round;stroke-linejoin:round"/>
      <path d="M131.15,198.86a16.94,16.94,0,0,0,2.24-5.4c1.59-6.72-2.15-7.16-6.8-9.29-3.63-1.66-1.73-7.28.12-9.53" style="fill:none;stroke:#3c3c3b;stroke-linecap:round;stroke-linejoin:round"/>
      <path d="M79.31,187c1-1.92,3.76-2.11,5.76-1.27a9,9,0,0,1,5,10.58" style="fill:none;stroke:#3c3c3b;stroke-linecap:round;stroke-linejoin:round"/>
      <path d="M82,175.11a15.73,15.73,0,0,0,7.09,4.45c2.13.64,4.48.86,6.24,2.21s2.65,3.77,3.07,6c.72,4,1,7.17-.24,11.05" style="fill:none;stroke:#3c3c3b;stroke-linecap:round;stroke-linejoin:round"/>
      <path d="M97.81,175.42c2.22,2.6,5.27,4,6.76,7.31,1.4,3.09,1.13,6.57,3.08,9.51,1.82,2.74,6.22,4,8.45,1.17,4-5,3.13-11.72,2.28-17.65" style="fill:none;stroke:#3c3c3b;stroke-linecap:round;stroke-linejoin:round"/>
      <path d="M138.16,198.48a36.37,36.37,0,0,1,9.87-9.72c1.39-.93,3.15-1.77,4.66-1.06,4,1.89.39,8.65-.94,11.17" style="fill:none;stroke:#3c3c3b;stroke-linecap:round;stroke-linejoin:round"/>
      <path d="M222.84,175.76c-.56,5.69,3.27,9.5,9.14,7.38" style="fill:none;stroke:#3c3c3b;stroke-linecap:round;stroke-linejoin:round"/>
      <path d="M182.52,199.29c-.83-3.63-.31-11,4.94-10.12a7.11,7.11,0,0,1,4.75,3.69,20.93,20.93,0,0,1,1.95,5.89" style="fill:none;stroke:#3c3c3b;stroke-linecap:round;stroke-linejoin:round"/>
      <path d="M175.34,199.11c1.23-2.44,1-5.34.5-8s-1.15-5.43-.66-8.12,2.55-5.34,5.28-5.45a7.91,7.91,0,0,1,4,1.21c7.17,3.84,15.57,11.83,16,20.5" style="fill:none;stroke:#3c3c3b;stroke-linecap:round;stroke-linejoin:round"/>
      <path d="M117.27,199.22c1-2.64,3.85-8.94,7.75-5.77,1.63,1.32,2,3.7,1.67,5.77" style="fill:none;stroke:#3c3c3b;stroke-linecap:round;stroke-linejoin:round"/>
      <path d="M172.78,257.32H136.9s0-1.17.08-1.75c.88-9.09,8.54-13.32,17.86-13.32s17,4.3,17.86,13.45C172.75,256.24,172.78,257.32,172.78,257.32Z" style="fill:none;stroke:#3c3c3b;stroke-linecap:round;stroke-linejoin:round"/>
      <path d="M149,48.32h58.92a8.84,8.84,0,0,1,8.81,8.81V78.07a8.84,8.84,0,0,1-8.81,8.81h-7.21a2,2,0,0,0-2.05,2.2v0a12,12,0,0,0,2.14,6.08,11.74,11.74,0,0,1-1.71.24,11.93,11.93,0,0,1-11.2-6.33,4.22,4.22,0,0,0-3.69-2.22H149a8.84,8.84,0,0,1-8.82-8.81V57.13A8.84,8.84,0,0,1,149,48.32Z" style="fill:#006d68"/>
      <path d="M164.67,58.83H105.76a8.85,8.85,0,0,0-8.82,8.82V88.59a8.85,8.85,0,0,0,8.82,8.81H113A2,2,0,0,1,115,99.6v0a12,12,0,0,1-2.14,6.08,11.73,11.73,0,0,0,1.71.25,11.93,11.93,0,0,0,11.2-6.33,4.23,4.23,0,0,1,3.69-2.22h35.2a8.85,8.85,0,0,0,8.82-8.81V67.65A8.85,8.85,0,0,0,164.67,58.83Z" style="fill:#aecc53;mix-blend-mode:multiply"/>
      <path d="M48,113.93c3.88,3.66,5.12,6.57,5.54,11.77" style="fill:none;stroke:#aecc53;stroke-linecap:round;stroke-linejoin:round;stroke-width:2.33734941482544px"/>
      <path d="M135.84,163.32a10,10,0,0,1-20,0Z" style="fill:#006d68"/>
      <path d="M189.84,163.32a10,10,0,0,1-20,0Z" style="fill:#aecc53"/>
    </g>
  </g>
</svg>