<?xml version="1.0" encoding="utf-8"?>
<svg xmlns="http://www.w3.org/2000/svg" xmlns:xlink="http://www.w3.org/1999/xlink" version="1.1" id="layer" x="0px" y="0px" viewBox="0 0 547.9 101.6" style="enable-background:new 0 0 547.9 101.6;">
<style type="text/css">
	.st0{fill:#322F30;}
	.st1{fill:#00ACD8;}
</style>
<path class="st0" d="M68.5,99.7l-2.1-10.8c-2.9,5.7-12.3,12.4-24.6,12.6c-11.3,0.1-21.4-2.7-29.1-10.9C2.5,80,0,66.9,0,50.8&#xA;	s2.1-28.7,12.7-39.3C20.2,4,31.3,0,41.8,0c12,0,22.4,4.4,29,11.2c4.8,5,8.4,11.2,9,19.7H61.6c-0.3-3.9-2.2-6.5-4.3-9&#xA;	c-3.4-4-8.8-5.9-15.6-5.9c-5.7,0-12.2,2.5-16,6.6c-6.8,7-7.6,19.2-7.6,28.2s1,21.5,7.7,28.6c3.9,4.1,10.2,6.2,15.9,6.2&#xA;	c6.3,0,11.3-2.2,14.6-5.7c5.2-5.5,6.3-11.6,6.3-19.1H39.3V46h40.6v53.6L68.5,99.7L68.5,99.7z M131.8,43.3&#xA;	c-12.1,0-18.5,8.7-18.5,20.3v36.2H95.9V28h14.6l1.5,10.8c3.3-8.3,11.9-11.7,20.3-11.7c1.8,0,3.6,0.1,5.4,0.4v16.6&#xA;	C135.8,43.5,133.7,43.3,131.8,43.3 M184.5,44.1c-2.3-2.5-5.9-4.1-10.9-4.1c-5.3,0-9.5,2.2-12,5.5c-2.5,3.2-3.6,6.5-3.7,11.2H189&#xA;	C188.8,51.3,187.3,47.1,184.5,44.1 M206,69.2h-48c-0.1,5.5,1.8,10.8,5.3,14.1c2.5,2.3,5.9,4.4,10.6,4.4c5,0,8-1,10.5-3.4&#xA;	c1.5-1.5,2.8-3.5,3.5-6.1h16.6c-0.4,4.3-3.3,9.9-6.1,13.3c-6.1,7.2-15.1,10.1-24.2,10.1c-9.8,0-17-3.4-22.6-8.8&#xA;	c-7.2-6.9-11-17-11-28.7c0-11.5,3.4-21.7,10.3-28.7c5.4-5.5,13.1-9.1,22.9-9.1c10.6,0,20.3,4.3,26.2,13.3c5.2,7.9,6.5,16,6.2,25&#xA;	C206.2,64.4,206,67.7,206,69.2 M257.8,44.1c-2.3-2.5-5.9-4.1-10.9-4.1c-5.2,0-9.5,2.2-12,5.5c-2.5,3.2-3.6,6.5-3.7,11.2h31.1&#xA;	C262.1,51.3,260.5,47.1,257.8,44.1 M279.3,69.2h-48c-0.1,5.5,1.8,10.8,5.2,14.1c2.5,2.3,5.9,4.4,10.6,4.4c5,0,8-1,10.5-3.4&#xA;	c1.5-1.5,2.7-3.5,3.4-6.1h16.6c-0.4,4.3-3.3,9.9-6.1,13.3c-6.1,7.2-15,10.1-24.1,10.1c-9.8,0-17-3.4-22.6-8.8&#xA;	c-7.2-6.9-11-17-11-28.7c0-11.5,3.4-21.7,10.3-28.7c5.4-5.5,13.1-9.1,22.9-9.1c10.6,0,20.3,4.3,26.2,13.3c5.3,7.9,6.5,16,6.2,25&#xA;	C279.5,64.4,279.3,67.7,279.3,69.2 M335.9,99.7V55.6c0-8.4-2.8-13.5-11.9-13.5c-6.1,0-10.1,3.9-12.4,9.1c-2.5,5.7-2.3,13.1-2.3,19.2&#xA;	v29.3H292V27.9h14.5l1.2,9.3c4.3-7.6,12.8-11,21.1-11c15.3,0,24.3,10.8,24.3,25.7v47.9h-17.2V99.7z"/>
<path class="st1" d="M410.9,56.7h-22.5v27.2h22c8.3,0,17.3-3,17.3-13C427.6,60.4,420.3,56.7,410.9,56.7 M410.3,17.2h-22v24.6h22.4&#xA;	c8,0,14.8-2.9,14.8-12.1C425.5,20.2,418.3,17.2,410.3,17.2 M435.7,93.2c-7.6,5.8-16.7,6.6-26.1,6.6h-38.9v-98h38.9&#xA;	c7.9,0,16,1.1,22.6,5.4c7.2,4.7,11.3,12.8,11.3,21.3c0,8-3.7,17-12,20.7c9.2,4.3,14.1,13,14.1,22.1C445.7,80,442.8,87.9,435.7,93.2&#xA;	 M458.4,27.9h17.5v71.8h-17.5V27.9z M457.8,0.2h18.5V18h-18.5V0.2z M489.3,99.7V84.5l38-42.4h-37.7V27.9h58v15.6l-37.5,42h37.8v14.2&#xA;	H489.3z"/>
</svg>