<?xml version="1.0" encoding="utf-8"?>
<svg xmlns="http://www.w3.org/2000/svg" height="100%" viewBox="0 0 1200 303.8">
  <g>
    <path fill="#222222" d="M633.1,9.1v285.1h-70.8V9.1H633.1z"/>
    <path fill="#222222" d="M809.4,0c84.8,0,153.1,65.7,153.1,151.1c0,85.7-68.8,152.7-153.8,152.7s-153.8-66.1-153.8-151.6 C654.8,66.8,724.6,0,809.4,0z M808.8,234.2c45,0,78-38.9,78-82.6s-33.2-82.2-78-82.2c-45,0-78.2,38.5-78.2,82.2 S763.9,234.2,808.8,234.2z"/>
    <path fill="#222222" d="M970.6,208l64.9-15.4c4.7,34.3,29.6,46.6,55.8,46.6c26,0,35.5-15.4,35.5-27.4c0-9.7-5.6-19.2-24.6-23 l-39.6-7.7c-47.4-9.1-80.9-38.9-80.9-84.7c0-54.5,49.7-92.9,105.8-92.9c72.3,0,102.1,45.2,107.3,83l-63.7,17.9 c-3.4-23.3-17.8-40.2-43.9-40.2c-22.6,0-33.4,15.1-33.4,26.5c0,9.5,4.5,20.4,21.3,23.7l41.3,7.9c54,10.4,83.6,43.4,83.6,86.3 c0,46.6-40.2,91.5-109.1,91.5C1018.8,300.2,980.1,262.4,970.6,208z"/>
    <path fill="#3b6be3" d="M76.2,294.2H0L125.8,9.1h76.4L76.2,294.2z"/>
    <polygon fill="#222222" points="450.3,148.5 544.9,9 458.4,9 407.3,93.4 357.5,9 269.8,9 365.6,148.5 303.7,239.2 202.2,9.1 125.8,9.1 252.1,294.2 347.7,294.2 407.3,203.9 466.3,294.2 544.5,294.2"/>
  </g>
</svg>