<svg width="50" height="50" viewBox="0 0 50 50" fill="none" xmlns="http://www.w3.org/2000/svg">
<path d="M18.15 3.9502V4.9702C18.15 5.9302 17.37 6.72019 16.4 6.72019H2.75C1.79 6.72019 1 7.5002 1 8.4702V35.9302C1 36.8902 1.78 37.6802 2.75 37.6802H36.34C37.3 37.6802 38.09 36.9002 38.09 35.9302V3.9502C38.09 2.9902 37.31 2.2002 36.34 2.2002H19.91C18.95 2.2002 18.16 2.9802 18.16 3.9502H18.15Z" fill="#006D68"/>
<path d="M29.07 14.0801V15.1001C29.07 16.0601 28.29 16.8501 27.32 16.8501H13.66C12.7 16.8501 11.91 17.6301 11.91 18.6001V46.0601C11.91 47.0201 12.69 47.8101 13.66 47.8101H47.25C48.21 47.8101 49 47.0301 49 46.0601V14.0801C49 13.1201 48.22 12.3301 47.25 12.3301H30.82C29.86 12.3301 29.07 13.1101 29.07 14.0801Z" fill="#A7C553"/>
</svg>
