<svg width="50" height="50" viewBox="0 0 50 50" fill="none" xmlns="http://www.w3.org/2000/svg">
<g clip-path="url(#clip0_60_2486)">
<path d="M48.95 39.47L32.68 7.32C31.36 4.72 27.65 4.72 26.34 7.32L10.06 39.47C8.86002 41.83 10.58 44.63 13.23 44.63H45.77C48.42 44.63 50.14 41.84 48.94 39.47H48.95Z" fill="#A5C352"/>
<path d="M22.74 15.22L18.54 29.04L16.41 27.05C18.22 26.61 26 24.74 27.66 24.34C27.41 24.81 18.71 41.41 18.12 42.52L24.51 25.54L25.86 27.07L17.41 30.25L14.77 31.24C15.08 29.45 17.38 16.14 17.75 14.02L22.75 15.21L22.74 15.22Z" fill="#006D68"/>
<path d="M36.77 44.63H4.22001C1.57001 44.63 -0.149988 41.83 1.05001 39.47L17.32 7.32C18.64 4.72 22.35 4.72 23.66 7.32L39.93 39.47C41.13 41.83 39.41 44.63 36.76 44.63H36.77Z" stroke="#006D68" stroke-width="1.45" stroke-miterlimit="10"/>
</g>
<defs>
<clipPath id="clip0_60_2486">
<rect width="50" height="50" fill="white"/>
</clipPath>
</defs>
</svg>
