<svg width="504" height="436" viewBox="0 0 504 436" fill="none" xmlns="http://www.w3.org/2000/svg">
<g clip-path="url(#clip0_8190_414)">
<path d="M92.2159 71.2974C164.031 -9.24733 267.324 -14.8662 360.277 25.2909C374.81 31.5651 388.737 43.361 400.421 53.8099C428.044 78.4939 449.159 110.083 461.279 145.119C466.988 161.624 470.709 177.194 469.194 194.487C467.824 210.179 471.121 222.873 472.115 238.661C472.988 252.496 467.473 269.134 463.4 282.18C454.152 311.803 438.504 339.254 417.875 362.409C399.755 382.736 378.216 398.792 354.278 411.595C335.648 421.546 313.152 422.954 293.407 429.338C272.705 436.024 252.246 436.328 230.38 433.694C186.006 428.342 143.086 409.763 109.67 379.897C70.0713 344.473 44.4118 295.092 38.2424 242.278C35.2001 216.186 36.8606 189.56 43.1755 164.063C47.5874 146.272 56.9325 131.151 66.2654 115.629C75.4772 100.326 80.2406 84.7196 92.2159 71.2974Z" stroke="url(#paint0_linear_8190_414)" stroke-width="1.27" stroke-linecap="round" stroke-linejoin="round"/>
<path d="M406.894 373.392C396.748 375.783 382.943 372.057 374.252 366.79C369.731 364.047 365.162 361.268 361.38 357.567C352.653 348.999 349.041 335.941 350.702 323.818C354.265 297.847 380.507 280.699 399.294 265.348C437.232 234.353 463.364 189.317 459.582 139.124" stroke="url(#paint1_linear_8190_414)" stroke-width="1.27" stroke-linecap="round" stroke-linejoin="round"/>
<path d="M421.014 357.434C412.736 359.387 400.106 354.994 393.003 350.686C389.306 348.441 385.573 346.172 382.482 343.15C375.355 336.147 372.398 325.492 373.755 315.59C376.664 294.376 398.094 280.372 413.451 267.823C444.443 242.508 462.831 206.429 466.988 164.718" stroke="url(#paint2_linear_8190_414)" stroke-width="1.27" stroke-linecap="round" stroke-linejoin="round"/>
<path d="M433.789 340.796C427.366 342.313 417.269 337.919 411.754 334.582C408.881 332.847 405.985 331.087 403.597 328.733C398.07 323.308 395.779 315.031 396.833 307.35C399.088 290.893 415.717 280.032 427.632 270.299C447.534 254.037 463.909 221.004 469.218 194.487" stroke="url(#paint3_linear_8190_414)" stroke-width="1.27" stroke-linecap="round" stroke-linejoin="round"/>
<path d="M439.51 331.463C434.007 332.761 425.85 329.388 421.147 326.536C418.699 325.043 416.214 323.538 414.166 321.536C409.439 316.888 407.475 309.813 408.372 303.247C410.299 289.17 424.529 279.874 434.723 271.549C451.619 257.75 466.649 234.778 469.473 213.37" stroke="url(#paint4_linear_8190_414)" stroke-width="1.27" stroke-linecap="round" stroke-linejoin="round"/>
<path d="M445.219 321.463C440.65 322.543 434.432 320.857 430.517 318.49C428.48 317.252 426.42 316.002 424.711 314.328C420.784 310.468 419.147 304.583 419.899 299.121C421.499 287.423 433.329 279.692 441.789 272.775C458.879 258.807 472.2 245.263 470.491 222.654" stroke="url(#paint5_linear_8190_414)" stroke-width="1.27" stroke-linecap="round" stroke-linejoin="round"/>
<path d="M350.302 413.561C327.77 408.756 305.601 392.967 294.777 372.421C284.159 352.252 288.596 326.585 298.05 306.67C315.37 270.202 347.648 248.091 374.58 219.353C395.718 196.805 407.875 172.752 415.633 143.092C421.123 122.098 425.208 95.8724 419.087 74.5742" stroke="url(#paint6_linear_8190_414)" stroke-width="1.27" stroke-linecap="round" stroke-linejoin="round"/>
<path d="M359.999 408.015C338.606 403.452 322.182 390.224 311.916 370.722C301.831 351.572 306.049 327.203 315.019 308.308C331.454 273.685 362.096 252.702 387.67 225.421C407.73 204.013 419.281 181.186 426.638 153.031C431.85 133.104 436.335 108.275 430.529 88.0566" stroke="url(#paint7_linear_8190_414)" stroke-width="1.27" stroke-linecap="round" stroke-linejoin="round"/>
<path d="M375.598 395.115C357.065 391.158 339.902 379.011 331.006 362.105C322.267 345.516 325.915 324.4 333.697 308.029C347.938 278.029 382.955 261.634 405.124 237.993C422.505 219.45 444.431 187.327 450.88 120.216" stroke="url(#paint8_linear_8190_414)" stroke-width="1.27" stroke-linecap="round" stroke-linejoin="round"/>
<path d="M344.969 109.137C335.66 142.643 310.304 168.213 281.105 185.762C254.561 201.72 215.132 198.189 184.636 207.4C167.643 212.533 153.947 228.455 139.426 238.673C133.354 242.945 127.22 247.253 120.397 250.154C103.815 257.192 83.6223 254.923 69.029 244.353C42.4604 225.142 38.1333 192.388 44.4603 159.573C47.6238 143.177 58.8112 128.966 66.2776 115.629C73.5621 102.62 77.0286 90.4355 87.1373 77.6688C95.5854 67.0015 113.354 50.2906 124.033 41.8563C143.547 26.4439 164.455 17.597 187.982 9.56311C196.599 6.61413 214.926 3.56806 223.907 2.33022C301.577 -8.38562 364.992 37.0384 344.969 109.137Z" stroke="url(#paint9_linear_8190_414)" stroke-width="1.27" stroke-linecap="round" stroke-linejoin="round"/>
<path d="M189.036 17.3541C197.375 14.4536 213.823 11.5775 222.501 10.3032C248.997 6.50474 273.929 9.58722 294.28 18.4463C305.868 23.5312 315.916 30.5213 323.624 39.3561C338.618 56.5403 344.399 80.6176 336.884 108.166C328.364 139.427 305.043 163.225 277.954 179.572C253.142 194.548 217.083 192.691 188.624 200.482C171.8 205.082 158.855 218.795 144.723 228.965C143.705 229.693 142.699 230.421 141.668 231.149C136.881 234.559 131.996 237.836 126.711 240.239C111.003 247.423 92.4583 245.797 78.1316 234.681C55.1992 216.865 50.7388 188.189 55.9264 159.039C58.5203 144.427 68.0108 131.685 74.3378 119.61C80.8709 107.134 84.3859 95.3382 93.7431 83.2389C97.755 78.0084 103.731 71.5886 109.997 65.4237C116.433 59.0888 123.196 53.0088 128.469 48.7492C146.856 33.9921 166.782 25.0845 189.036 17.3662V17.3541Z" stroke="url(#paint10_linear_8190_414)" stroke-width="1.27" stroke-linecap="round" stroke-linejoin="round"/>
<path d="M190.103 25.145C198.151 22.2931 212.72 19.5626 221.107 18.2762C245.385 14.5748 268.548 17.0383 287.88 24.9266C298.68 29.3318 308.219 35.5089 315.601 43.567C330.036 59.2949 335.503 82.0979 328.788 107.195C321.055 136.211 299.771 158.237 274.778 173.371C251.688 187.351 218.986 187.12 192.6 193.54C175.934 197.594 163.764 209.11 149.995 219.232C149.038 219.935 148.08 220.639 147.111 221.343C142.565 224.668 137.947 227.884 133.014 230.299C118.178 237.617 101.258 236.695 87.2343 224.972C67.8169 208.734 63.3444 183.953 67.3805 158.468C69.3926 145.653 77.1741 134.354 82.386 123.541C88.1554 111.576 91.7795 100.229 100.337 88.7604C104.215 83.5663 109.718 77.4499 115.512 71.6005C121.475 65.5933 127.754 59.8289 132.905 55.5935C150.177 41.4918 169.11 32.5114 190.103 25.1207V25.145Z" stroke="url(#paint11_linear_8190_414)" stroke-width="1.27" stroke-linecap="round" stroke-linejoin="round"/>
<path d="M191.169 32.9245C198.927 30.1332 211.629 27.5483 219.714 26.2498C241.773 22.694 263.142 24.5265 281.493 31.4075C291.505 35.1574 300.534 40.485 307.589 47.7664C321.467 62.0502 326.618 83.5547 320.691 106.224C313.746 132.996 294.498 153.25 271.602 167.182C250.246 180.179 220.877 181.514 196.563 186.611C180.042 190.082 168.661 199.451 155.268 209.511C154.371 210.179 153.462 210.871 152.541 211.562C148.25 214.802 143.899 217.946 139.305 220.373C125.342 227.824 110.009 227.678 96.3248 215.288C80.3133 200.786 75.9256 179.742 78.8225 157.935C80.2648 146.903 86.3009 137.037 90.422 127.522C95.4036 116.054 99.1125 105.132 106.918 94.3312C110.651 89.1735 115.682 83.3605 121.015 77.8388C126.493 72.1471 132.287 66.7103 137.329 62.4992C153.462 49.0164 171.413 40.0117 191.145 32.9366L191.169 32.9245Z" stroke="url(#paint12_linear_8190_414)" stroke-width="1.27" stroke-linecap="round" stroke-linejoin="round"/>
<path d="M192.224 40.7154C199.702 37.9728 210.526 35.5578 218.308 34.2228C238.161 30.8248 257.712 32.0384 275.093 37.8878C284.305 40.9824 292.838 45.4726 299.565 51.9774C312.885 64.8048 317.722 85.0351 312.595 105.253C306.437 129.779 289.214 148.262 268.427 160.98C248.803 172.995 222.744 175.822 200.539 179.669C184.164 182.509 173.558 189.766 160.552 199.778C159.704 200.421 158.855 201.089 157.995 201.756C153.947 204.924 149.874 207.994 145.62 210.433C132.529 218.018 118.724 218.746 105.427 205.579C92.7007 192.958 88.519 175.507 90.2765 157.364C91.1492 148.129 95.3915 139.658 98.4823 131.466C102.628 120.459 106.47 109.998 113.524 99.8649C117.1 94.7315 121.681 89.2462 126.542 84.0278C131.535 78.6638 136.869 73.5547 141.765 69.3557C156.807 56.5647 173.74 47.4629 192.212 40.7033L192.224 40.7154Z" stroke="url(#paint13_linear_8190_414)" stroke-width="1.27" stroke-linecap="round" stroke-linejoin="round"/>
<path d="M193.29 48.5067C200.478 45.8125 209.435 43.5674 216.926 42.1961C234.574 38.968 252.306 39.5748 268.718 44.3684C277.129 46.8319 285.165 50.4605 291.565 56.1764C304.328 67.5476 308.849 86.4915 304.522 104.282C299.141 126.564 283.965 143.287 265.287 154.791C247.385 165.811 224.635 170.07 204.551 172.752C188.297 174.912 178.503 180.106 165.861 190.07C165.073 190.689 164.273 191.332 163.461 191.987C159.668 195.07 155.85 198.079 151.947 200.531C139.729 208.249 127.269 210.009 114.554 195.919C104.979 185.301 101.149 171.332 101.755 156.842C102.046 149.391 104.446 142.304 106.555 135.447C109.791 124.889 113.827 114.889 120.142 105.435C123.56 100.326 127.681 95.1564 132.069 90.2535C136.59 85.2172 141.438 80.4357 146.214 76.2489C160.14 64.1132 176.079 54.9507 193.278 48.5067H193.29Z" stroke="url(#paint14_linear_8190_414)" stroke-width="1.27" stroke-linecap="round" stroke-linejoin="round"/>
<path d="M296.438 103.312C299.953 87.9599 295.759 70.3145 283.553 60.3875C277.481 55.4483 269.93 52.6935 262.33 50.861C239.689 45.3999 216.089 47.9605 194.357 56.2978C172.625 64.635 152.759 78.7731 137.608 96.467C126.942 108.918 118.081 123.36 114.615 139.403C111.161 155.447 113.633 173.225 123.669 186.211C139.171 206.283 154.068 194.742 168.916 182.194C182.37 170.823 191.448 167.315 208.526 165.823C244.949 162.631 287.371 142.886 296.438 103.324V103.312Z" stroke="url(#paint15_linear_8190_414)" stroke-width="1.27" stroke-linecap="round" stroke-linejoin="round"/>
<path d="M194.83 62.8753C175.534 70.1203 157.91 82.3653 144.068 97.5228C134.056 108.481 125.366 121.2 122.069 135.787C118.627 150.762 121.015 166.514 130.081 177.861C143.802 195.033 157.449 185.592 171.097 174.888C183.242 165.374 191.69 162.206 206.805 160.665C226.247 158.675 247.106 151.709 262.269 140.131C273.675 131.43 282.705 120.047 286.486 105.411C290.038 91.819 286.741 75.9333 276.026 66.7951C270.608 62.1714 263.772 59.5744 256.827 57.9118C250.209 56.322 243.47 55.5453 236.755 55.4361C222.538 55.2055 208.32 57.8875 194.83 62.8874V62.8753Z" stroke="url(#paint16_linear_8190_414)" stroke-width="1.27" stroke-linecap="round" stroke-linejoin="round"/>
<path d="M195.315 69.465C178.43 75.545 163.037 85.9574 150.541 98.5907C141.171 108.057 132.711 119.052 129.523 132.195C126.142 146.126 128.384 159.815 136.493 169.524C148.432 183.808 160.807 176.453 173.291 167.582C184.115 159.9 191.945 157.097 205.096 155.507C222.829 153.371 241.398 146.879 254.233 137.376C264.427 129.828 272.766 120.168 276.56 107.498C280.111 95.6417 277.76 81.54 268.524 73.1906C263.76 68.8825 257.639 66.4553 251.336 64.9505C245.385 63.5306 239.252 62.8874 233.216 62.8389C220.38 62.7418 207.532 65.0597 195.327 69.4528L195.315 69.465Z" stroke="url(#paint17_linear_8190_414)" stroke-width="1.27" stroke-linecap="round" stroke-linejoin="round"/>
<path d="M196.284 82.6319C184.261 86.4911 173.194 93.0687 163.474 100.714C155.304 107.146 147.317 114.743 144.432 124.998C141.111 136.818 143.086 146.417 149.317 152.837C157.619 161.381 167.449 158.104 177.655 152.983C185.751 148.917 192.442 146.818 201.654 145.216C215.98 142.74 229.992 137.316 238.113 131.879C245.894 126.672 252.888 120.435 256.67 111.685C260.282 103.323 259.76 92.7289 253.482 85.9935C250.027 82.2922 245.337 80.2169 240.343 79.0398C235.701 77.9476 230.816 77.5956 226.101 77.6806C216.017 77.8505 205.944 79.5252 196.284 82.6319Z" stroke="url(#paint18_linear_8190_414)" stroke-width="1.27" stroke-linecap="round" stroke-linejoin="round"/>
<path d="M222.841 124.379C228.101 121.284 233.386 117.801 236.67 112.656C239.943 107.51 240.682 100.265 236.864 95.5081C232.392 89.9257 224.016 89.865 216.95 90.9087C209.69 91.9766 202.526 93.6999 195.569 96.0299C188.612 98.36 181.861 101.297 175.412 104.816C168.576 108.542 161.571 113.615 159.68 121.175C157.195 131.114 159.316 136.636 164.043 139.233C168.77 141.83 176.103 141.502 184.042 139.755C199.92 136.272 218.199 127.134 222.853 124.391L222.841 124.379Z" stroke="url(#paint19_linear_8190_414)" stroke-width="1.27" stroke-linecap="round" stroke-linejoin="round"/>
<path d="M210.175 119.755C212.635 118.299 215.12 116.673 216.659 114.258C218.199 111.843 218.538 108.445 216.744 106.212C214.647 103.603 210.72 103.566 207.411 104.052C200.611 105.059 193.981 107.268 187.945 110.569C184.745 112.316 181.461 114.695 180.576 118.238C175.909 136.879 205.823 122.316 210.187 119.743L210.175 119.755Z" stroke="url(#paint20_linear_8190_414)" stroke-width="1.27" stroke-linecap="round" stroke-linejoin="round"/>
<path d="M51.5387 296.039C81.3072 331.597 137.632 314.024 165.861 286.998C180.867 272.629 189.63 254.717 210.029 246.258C226.404 239.462 244.84 240.566 262.306 237.484C341.212 223.564 405.754 114.84 379.877 37.6572" stroke="url(#paint21_linear_8190_414)" stroke-width="1.27" stroke-linecap="round" stroke-linejoin="round"/>
<path d="M45.6481 278.478C74.4469 312.883 134.493 297.847 161.801 271.707C176.309 257.811 184.794 240.482 204.526 232.29C220.368 225.725 238.21 226.78 255.094 223.795C331.418 210.336 405.112 110.617 360.277 25.2788" stroke="url(#paint22_linear_8190_414)" stroke-width="1.27" stroke-linecap="round" stroke-linejoin="round"/>
<path d="M38.2423 242.277C51.5266 289.776 122.227 288.624 149.523 262.483C164.031 248.588 172.516 231.258 192.248 223.066C208.09 216.501 225.931 217.557 242.816 214.571C319.14 201.113 400.021 97.0855 337.89 16.5771" stroke="url(#paint23_linear_8190_414)" stroke-width="1.27" stroke-linecap="round" stroke-linejoin="round"/>
<path d="M303.48 426.571C285.444 424.253 270.839 411.826 263.421 395.2C256.888 380.552 253.712 364.569 253.652 348.55C253.591 333.696 252.549 319.789 244.319 306.828C230.877 285.663 198.333 299.413 184.879 313.781C176.176 323.077 167.485 332.495 157.668 340.65C137.547 357.373 113.912 365.467 88.3372 356.669" stroke="url(#paint24_linear_8190_414)" stroke-width="1.27" stroke-linecap="round" stroke-linejoin="round"/>
<path d="M293.42 429.325C277.202 427.578 260.076 416.207 253.009 401.377C250.537 396.207 248.561 390.843 247.058 385.418C244.682 376.826 243.688 368.088 243.797 359.351C243.967 346.001 243.591 333.526 236.852 321.5C232.962 314.546 226.792 310.929 219.701 310.031C212.938 309.157 205.399 310.747 198.636 313.89C191.691 317.106 185.63 321.876 181.327 326.645C173.655 335.128 165.91 343.647 157.171 351.062C154.783 353.089 152.335 354.982 149.826 356.717C133.693 367.858 114.7 372.676 95.0157 365.758" stroke="url(#paint25_linear_8190_414)" stroke-width="1.27" stroke-linecap="round" stroke-linejoin="round"/>
<path d="M281.372 432.529C266.754 431.304 252.864 420.272 246.052 407.02C243.64 402.36 241.713 397.53 240.246 392.7C237.846 384.812 237.034 376.911 237.301 369.035C237.689 357.009 237.979 345.759 232.598 334.533C229.362 327.774 223.762 323.696 217.047 322.337C210.587 321.026 203.193 322.216 196.672 325.249C190.03 328.344 184.442 333.198 180.273 337.98C173.497 345.747 166.613 353.501 158.831 360.261C156.71 362.106 154.516 363.829 152.274 365.419C137.996 375.479 120.469 380.115 102.979 373.817" stroke="url(#paint26_linear_8190_414)" stroke-width="1.27" stroke-linecap="round" stroke-linejoin="round"/>
<path d="M268.451 434.52C256.112 433.852 243.046 422.991 236.84 411.971C234.634 408.052 232.852 403.974 231.495 399.957C229.204 393.149 228.61 386.474 228.998 379.824C229.58 369.691 230.489 360.176 226.634 350.346C224.198 344.121 219.435 339.849 213.435 338.138C207.435 336.427 200.757 337.24 194.842 340.019C188.842 342.834 184.006 347.47 180.188 352.021C174.612 358.671 168.928 365.31 162.443 371.098C160.674 372.676 158.855 374.156 156.977 375.516C145.208 384.023 127.317 388.015 112.821 382.639" stroke="url(#paint27_linear_8190_414)" stroke-width="1.27" stroke-linecap="round" stroke-linejoin="round"/>
<path d="M253.3 435.223C243.446 429.216 236.973 424.92 230.962 415.248C228.792 411.765 227.034 408.136 225.701 404.629C223.35 398.403 222.938 392.445 223.459 386.51C224.259 377.506 225.847 368.974 223.132 359.836C221.313 353.708 216.998 348.987 211.278 346.839C205.666 344.739 198.89 345.152 193.157 347.87C187.375 350.601 182.915 355.346 179.206 359.957C174.37 365.977 169.461 372.008 163.789 377.251C162.249 378.671 160.649 380.018 159.001 381.268C148.832 388.877 132.384 393.197 119.79 388.343" stroke="url(#paint28_linear_8190_414)" stroke-width="1.27" stroke-linecap="round" stroke-linejoin="round"/>
<path d="M241.688 434.774C234.295 431.231 228.065 427.323 222.647 419.556C220.659 416.716 219.035 413.767 217.823 410.952C215.568 405.697 215.35 400.794 215.98 395.952C216.914 388.61 219.095 381.571 217.58 373.707C216.489 368.076 212.853 363.246 207.787 360.868C202.769 358.489 196.515 358.574 191.327 361.038C186.151 363.501 182.321 368.004 178.976 372.397C175.158 377.409 171.303 382.482 166.782 386.85C165.558 388.04 164.273 389.168 162.94 390.212C154.953 396.45 141.547 401.001 131.56 396.96" stroke="url(#paint29_linear_8190_414)" stroke-width="1.27" stroke-linecap="round" stroke-linejoin="round"/>
<path d="M230.949 433.974C221.326 434.859 211.811 424.714 207.92 416.874C202.611 406.158 210.478 398.04 209.629 387.154C209.241 382.118 206.248 377.36 201.872 374.836C197.508 372.312 191.884 372.093 187.339 374.266C182.83 376.426 179.643 380.576 176.721 384.642C173.085 389.727 169.51 394.969 164.71 398.962C158.807 403.853 149.014 407.081 141.535 403.853" stroke="url(#paint30_linear_8190_414)" stroke-width="1.27" stroke-linecap="round" stroke-linejoin="round"/>
<path d="M264.306 343.975C264.306 319.691 256.864 302.458 254.294 298.539C249.312 290.966 241.349 285.214 232.404 283.733C229.228 283.211 217.956 278.163 184.891 313.805" stroke="url(#paint31_linear_8190_414)" stroke-width="1.27" stroke-linecap="round" stroke-linejoin="round"/>
<path d="M71.1743 332.094C91.8401 338.647 115.221 338.393 135.426 330.517C152.359 323.915 186.248 294.352 202.417 269.462C209.035 259.28 219.859 252.557 231.895 250.967C231.98 250.967 232.065 250.943 232.149 250.931C240.852 249.778 248.524 253.261 257.445 252.508C265.445 251.829 274.123 250.53 281.614 247.484C288.438 244.705 294.838 243.176 301.334 239.098C314.607 230.773 412.166 170.349 394.664 50.145" stroke="url(#paint32_linear_8190_414)" stroke-width="1.27" stroke-linecap="round" stroke-linejoin="round"/>
<path d="M400.433 53.8096C404.397 61.0182 404.506 82.1707 405.124 90.3745C409.548 149.014 378.083 193.589 357.381 216.198C350.023 224.231 341.611 231.185 332.545 237.229C307.419 253.976 287.214 278.393 278.135 294.534C272.475 304.885 265.093 332.203 264.306 343.975C263.106 361.802 268.208 380.418 280.172 393.683C291.456 406.194 310.376 414.993 325.952 421.401" stroke="url(#paint33_linear_8190_414)" stroke-width="1.27" stroke-linecap="round" stroke-linejoin="round"/>
<path d="M248.064 277.593C253.179 280.214 255.712 282.835 259.445 287.204C260.306 288.211 261.215 289.255 262.463 289.728C264.669 290.566 267.239 289.231 268.56 287.265C270.402 284.534 271.384 279 271.275 275.736C271.105 271.112 266.778 267.763 262.524 265.954C256.051 263.2 248.985 262.435 242.004 262.447C236.586 262.447 229.337 261.95 224.756 265.457C218.974 269.899 225.75 272.593 229.943 273.309C236.258 274.389 242.21 274.571 248.076 277.58L248.064 277.593Z" stroke="url(#paint34_linear_8190_414)" stroke-width="1.27" stroke-linecap="round" stroke-linejoin="round"/>
</g>
<g filter="url(#filter0_dd_8190_414)">
<rect x="19" y="53.5308" width="155" height="44" rx="8" fill="white"/>
<path d="M37.5399 80.6748C36.3985 80.6748 35.4225 80.4401 34.6119 79.9708C33.8012 79.5014 33.1772 78.8348 32.7399 77.9708C32.3132 77.0961 32.0999 76.0668 32.0999 74.8828C32.0999 73.6988 32.3132 72.6748 32.7399 71.8108C33.1772 70.9468 33.8012 70.2801 34.6119 69.8108C35.4225 69.3414 36.3985 69.1068 37.5399 69.1068C38.3079 69.1068 39.0225 69.2294 39.6839 69.4748C40.3559 69.7094 40.9159 70.0508 41.3639 70.4988L40.7879 71.8268C40.2972 71.3894 39.7905 71.0748 39.2679 70.8828C38.7559 70.6801 38.1959 70.5788 37.5879 70.5788C36.3719 70.5788 35.4439 70.9521 34.8039 71.6988C34.1639 72.4454 33.8439 73.5068 33.8439 74.8828C33.8439 76.2588 34.1639 77.3254 34.8039 78.0828C35.4439 78.8294 36.3719 79.2028 37.5879 79.2028C38.1959 79.2028 38.7559 79.1068 39.2679 78.9148C39.7905 78.7121 40.2972 78.3921 40.7879 77.9548L41.3639 79.2828C40.9159 79.7308 40.3559 80.0774 39.6839 80.3228C39.0225 80.5574 38.3079 80.6748 37.5399 80.6748ZM45.9499 80.6748C45.1605 80.6748 44.4779 80.5094 43.9019 80.1788C43.3365 79.8481 42.8939 79.3788 42.5739 78.7708C42.2539 78.1628 42.0939 77.4481 42.0939 76.6268C42.0939 75.7948 42.2539 75.0801 42.5739 74.4828C42.8939 73.8748 43.3365 73.4054 43.9019 73.0748C44.4779 72.7441 45.1605 72.5788 45.9499 72.5788C46.7285 72.5788 47.4005 72.7441 47.9659 73.0748C48.5419 73.4054 48.9899 73.8748 49.3099 74.4828C49.6299 75.0908 49.7899 75.8054 49.7899 76.6268C49.7899 77.4481 49.6299 78.1628 49.3099 78.7708C48.9899 79.3788 48.5419 79.8481 47.9659 80.1788C47.4005 80.5094 46.7285 80.6748 45.9499 80.6748ZM45.9339 79.4268C46.6059 79.4268 47.1445 79.1868 47.5499 78.7068C47.9552 78.2268 48.1579 77.5334 48.1579 76.6268C48.1579 75.7094 47.9552 75.0161 47.5499 74.5468C47.1445 74.0774 46.6059 73.8428 45.9339 73.8428C45.2725 73.8428 44.7392 74.0774 44.3339 74.5468C43.9285 75.0161 43.7259 75.7094 43.7259 76.6268C43.7259 77.5334 43.9285 78.2268 44.3339 78.7068C44.7392 79.1868 45.2725 79.4268 45.9339 79.4268ZM54.1488 80.6748C53.2954 80.6748 52.6554 80.4348 52.2288 79.9548C51.8128 79.4641 51.6048 78.7601 51.6048 77.8428V69.2508H53.2208V77.7468C53.2208 78.0881 53.2688 78.3814 53.3648 78.6268C53.4608 78.8614 53.6048 79.0374 53.7968 79.1548C53.9888 79.2721 54.2288 79.3308 54.5168 79.3308C54.6448 79.3308 54.7674 79.3254 54.8848 79.3148C55.0021 79.3041 55.1141 79.2828 55.2208 79.2508L55.1888 80.5468C55.0074 80.5894 54.8314 80.6214 54.6608 80.6428C54.4901 80.6641 54.3194 80.6748 54.1488 80.6748ZM59.0394 80.6748C58.186 80.6748 57.546 80.4348 57.1194 79.9548C56.7034 79.4641 56.4954 78.7601 56.4954 77.8428V69.2508H58.1114V77.7468C58.1114 78.0881 58.1594 78.3814 58.2554 78.6268C58.3514 78.8614 58.4954 79.0374 58.6874 79.1548C58.8794 79.2721 59.1194 79.3308 59.4074 79.3308C59.5354 79.3308 59.658 79.3254 59.7754 79.3148C59.8927 79.3041 60.0047 79.2828 60.1114 79.2508L60.0794 80.5468C59.898 80.5894 59.722 80.6214 59.5514 80.6428C59.3807 80.6641 59.21 80.6748 59.0394 80.6748ZM63.882 80.6748C63.338 80.6748 62.8473 80.5681 62.41 80.3548C61.9833 80.1414 61.6473 79.8534 61.402 79.4908C61.1567 79.1281 61.034 78.7174 61.034 78.2588C61.034 77.6828 61.178 77.2294 61.466 76.8988C61.7647 76.5574 62.25 76.3174 62.922 76.1788C63.6047 76.0294 64.522 75.9548 65.674 75.9548H66.426V76.9468H65.69C65.114 76.9468 64.6287 76.9681 64.234 77.0108C63.8393 77.0534 63.5247 77.1228 63.29 77.2188C63.0553 77.3041 62.8847 77.4268 62.778 77.5868C62.682 77.7468 62.634 77.9388 62.634 78.1628C62.634 78.5681 62.7727 78.8988 63.05 79.1548C63.3273 79.4001 63.7113 79.5228 64.202 79.5228C64.5967 79.5228 64.9433 79.4321 65.242 79.2508C65.5407 79.0588 65.7753 78.8028 65.946 78.4828C66.1273 78.1628 66.218 77.7948 66.218 77.3788V75.5388C66.218 74.9308 66.09 74.4934 65.834 74.2268C65.578 73.9601 65.1567 73.8268 64.57 73.8268C64.122 73.8268 63.674 73.8961 63.226 74.0348C62.778 74.1628 62.3193 74.3708 61.85 74.6588L61.354 73.5228C61.6313 73.3308 61.9513 73.1654 62.314 73.0268C62.6767 72.8881 63.0553 72.7814 63.45 72.7068C63.8553 72.6214 64.2447 72.5788 64.618 72.5788C65.3327 72.5788 65.9193 72.6908 66.378 72.9148C66.8473 73.1388 67.194 73.4801 67.418 73.9388C67.642 74.3974 67.754 74.9894 67.754 75.7148V80.5308H66.234V78.7868H66.378C66.2927 79.1814 66.1327 79.5228 65.898 79.8108C65.674 80.0881 65.3913 80.3014 65.05 80.4508C64.7087 80.6001 64.3193 80.6748 63.882 80.6748ZM74.1718 80.6748C73.4891 80.6748 72.8971 80.5041 72.3958 80.1628C71.8944 79.8108 71.5584 79.3468 71.3878 78.7708H71.5638V80.5308H69.9798V69.2508H71.5958V74.4348H71.4038C71.5744 73.8694 71.9104 73.4214 72.4118 73.0908C72.9131 72.7494 73.4998 72.5788 74.1718 72.5788C74.8758 72.5788 75.4838 72.7441 75.9958 73.0748C76.5078 73.4054 76.9024 73.8694 77.1798 74.4668C77.4678 75.0641 77.6118 75.7841 77.6118 76.6268C77.6118 77.4481 77.4678 78.1681 77.1798 78.7868C76.9024 79.3948 76.5024 79.8641 75.9798 80.1948C75.4678 80.5148 74.8651 80.6748 74.1718 80.6748ZM73.7718 79.4268C74.4438 79.4268 74.9771 79.1868 75.3718 78.7068C75.7771 78.2268 75.9798 77.5334 75.9798 76.6268C75.9798 75.7094 75.7771 75.0161 75.3718 74.5468C74.9771 74.0774 74.4438 73.8428 73.7718 73.8428C73.1104 73.8428 72.5771 74.0774 72.1718 74.5468C71.7664 75.0161 71.5638 75.7094 71.5638 76.6268C71.5638 77.5334 71.7664 78.2268 72.1718 78.7068C72.5771 79.1868 73.1104 79.4268 73.7718 79.4268ZM82.8249 80.6748C82.0355 80.6748 81.3529 80.5094 80.7769 80.1788C80.2115 79.8481 79.7689 79.3788 79.4489 78.7708C79.1289 78.1628 78.9689 77.4481 78.9689 76.6268C78.9689 75.7948 79.1289 75.0801 79.4489 74.4828C79.7689 73.8748 80.2115 73.4054 80.7769 73.0748C81.3529 72.7441 82.0355 72.5788 82.8249 72.5788C83.6035 72.5788 84.2755 72.7441 84.8409 73.0748C85.4169 73.4054 85.8649 73.8748 86.1849 74.4828C86.5049 75.0908 86.6649 75.8054 86.6649 76.6268C86.6649 77.4481 86.5049 78.1628 86.1849 78.7708C85.8649 79.3788 85.4169 79.8481 84.8409 80.1788C84.2755 80.5094 83.6035 80.6748 82.8249 80.6748ZM82.8089 79.4268C83.4809 79.4268 84.0195 79.1868 84.4249 78.7068C84.8302 78.2268 85.0329 77.5334 85.0329 76.6268C85.0329 75.7094 84.8302 75.0161 84.4249 74.5468C84.0195 74.0774 83.4809 73.8428 82.8089 73.8428C82.1475 73.8428 81.6142 74.0774 81.2089 74.5468C80.8035 75.0161 80.6009 75.7094 80.6009 76.6268C80.6009 77.5334 80.8035 78.2268 81.2089 78.7068C81.6142 79.1868 82.1475 79.4268 82.8089 79.4268ZM88.4798 80.5308V72.7228H90.0478V74.5948H89.8878C90.0584 73.9548 90.3624 73.4694 90.7998 73.1388C91.2478 72.8081 91.8398 72.6161 92.5758 72.5628L93.1038 72.5308L93.2158 73.9068L92.2398 74.0028C91.5464 74.0668 91.0184 74.2854 90.6558 74.6588C90.2931 75.0321 90.1118 75.5441 90.1118 76.1948V80.5308H88.4798ZM96.8664 80.6748C96.3224 80.6748 95.8317 80.5681 95.3944 80.3548C94.9677 80.1414 94.6317 79.8534 94.3864 79.4908C94.141 79.1281 94.0184 78.7174 94.0184 78.2588C94.0184 77.6828 94.1624 77.2294 94.4504 76.8988C94.749 76.5574 95.2344 76.3174 95.9064 76.1788C96.589 76.0294 97.5064 75.9548 98.6584 75.9548H99.4104V76.9468H98.6744C98.0984 76.9468 97.613 76.9681 97.2184 77.0108C96.8237 77.0534 96.509 77.1228 96.2744 77.2188C96.0397 77.3041 95.869 77.4268 95.7624 77.5868C95.6664 77.7468 95.6184 77.9388 95.6184 78.1628C95.6184 78.5681 95.757 78.8988 96.0344 79.1548C96.3117 79.4001 96.6957 79.5228 97.1864 79.5228C97.581 79.5228 97.9277 79.4321 98.2264 79.2508C98.525 79.0588 98.7597 78.8028 98.9304 78.4828C99.1117 78.1628 99.2024 77.7948 99.2024 77.3788V75.5388C99.2024 74.9308 99.0744 74.4934 98.8184 74.2268C98.5624 73.9601 98.141 73.8268 97.5544 73.8268C97.1064 73.8268 96.6584 73.8961 96.2104 74.0348C95.7624 74.1628 95.3037 74.3708 94.8344 74.6588L94.3384 73.5228C94.6157 73.3308 94.9357 73.1654 95.2984 73.0268C95.661 72.8881 96.0397 72.7814 96.4344 72.7068C96.8397 72.6214 97.229 72.5788 97.6024 72.5788C98.317 72.5788 98.9037 72.6908 99.3624 72.9148C99.8317 73.1388 100.178 73.4801 100.402 73.9388C100.626 74.3974 100.738 74.9894 100.738 75.7148V80.5308H99.2184V78.7868H99.3624C99.277 79.1814 99.117 79.5228 98.8824 79.8108C98.6584 80.0881 98.3757 80.3014 98.0344 80.4508C97.693 80.6001 97.3037 80.6748 96.8664 80.6748ZM106.292 80.6748C105.321 80.6748 104.591 80.4241 104.1 79.9228C103.62 79.4214 103.38 78.6961 103.38 77.7468V73.9708H101.86V72.7228H103.38V70.3708H104.996V72.7228H107.412V73.9708H104.996V77.6188C104.996 78.1841 105.113 78.6108 105.348 78.8988C105.593 79.1868 105.988 79.3308 106.532 79.3308C106.692 79.3308 106.852 79.3094 107.012 79.2668C107.183 79.2241 107.348 79.1814 107.508 79.1388L107.764 80.3548C107.604 80.4508 107.38 80.5254 107.092 80.5788C106.815 80.6428 106.548 80.6748 106.292 80.6748ZM108.664 70.9148V69.2348H110.552V70.9148H108.664ZM108.808 80.5308V72.7228H110.424V80.5308H108.808ZM116.091 80.6748C115.301 80.6748 114.619 80.5094 114.043 80.1788C113.477 79.8481 113.035 79.3788 112.715 78.7708C112.395 78.1628 112.235 77.4481 112.235 76.6268C112.235 75.7948 112.395 75.0801 112.715 74.4828C113.035 73.8748 113.477 73.4054 114.043 73.0748C114.619 72.7441 115.301 72.5788 116.091 72.5788C116.869 72.5788 117.541 72.7441 118.107 73.0748C118.683 73.4054 119.131 73.8748 119.451 74.4828C119.771 75.0908 119.931 75.8054 119.931 76.6268C119.931 77.4481 119.771 78.1628 119.451 78.7708C119.131 79.3788 118.683 79.8481 118.107 80.1788C117.541 80.5094 116.869 80.6748 116.091 80.6748ZM116.075 79.4268C116.747 79.4268 117.285 79.1868 117.691 78.7068C118.096 78.2268 118.299 77.5334 118.299 76.6268C118.299 75.7094 118.096 75.0161 117.691 74.5468C117.285 74.0774 116.747 73.8428 116.075 73.8428C115.413 73.8428 114.88 74.0774 114.475 74.5468C114.069 75.0161 113.867 75.7094 113.867 76.6268C113.867 77.5334 114.069 78.2268 114.475 78.7068C114.88 79.1868 115.413 79.4268 116.075 79.4268ZM121.745 80.5308V72.7228H123.313V74.3868H123.137C123.372 73.7894 123.74 73.3414 124.241 73.0428C124.743 72.7334 125.319 72.5788 125.969 72.5788C126.588 72.5788 127.1 72.6961 127.505 72.9308C127.921 73.1548 128.231 73.5014 128.433 73.9708C128.636 74.4294 128.737 75.0108 128.737 75.7148V80.5308H127.121V75.8108C127.121 75.3628 127.063 75.0001 126.945 74.7228C126.828 74.4348 126.652 74.2214 126.417 74.0828C126.183 73.9441 125.879 73.8748 125.505 73.8748C125.079 73.8748 124.7 73.9654 124.369 74.1468C124.049 74.3281 123.799 74.5894 123.617 74.9308C123.447 75.2721 123.361 75.6668 123.361 76.1148V80.5308H121.745Z" fill="#006D69"/>
<g filter="url(#filter1_dii_8190_414)">
<rect x="138" y="61.5308" width="28" height="28" rx="8" fill="#006D69"/>
<rect x="139" y="62.5308" width="26" height="26" rx="7" stroke="url(#paint35_linear_8190_414)" stroke-width="2"/>
<path d="M146.167 75.5306H157.833M152 69.6973V81.3639" stroke="#006D69" stroke-width="2" stroke-linecap="round" stroke-linejoin="round"/>
<path d="M146.167 75.5306H157.833M152 69.6973V81.3639" stroke="white" stroke-opacity="0.95" stroke-width="2" stroke-linecap="round" stroke-linejoin="round"/>
</g>
</g>
<g filter="url(#filter2_dd_8190_414)">
<rect x="342" y="307.625" width="155" height="44" rx="8" fill="white"/>
<path d="M355.422 334.625V323.345H356.814L361.246 331.601H360.75L365.15 323.345H366.51V334.625H365.022V325.697H365.374L361.486 332.897H360.478L356.542 325.681H356.926V334.625H355.422ZM372.387 334.769C371.598 334.769 370.915 334.604 370.339 334.273C369.774 333.943 369.331 333.473 369.011 332.865C368.691 332.257 368.531 331.543 368.531 330.721C368.531 329.889 368.691 329.175 369.011 328.577C369.331 327.969 369.774 327.5 370.339 327.169C370.915 326.839 371.598 326.673 372.387 326.673C373.166 326.673 373.838 326.839 374.403 327.169C374.979 327.5 375.427 327.969 375.747 328.577C376.067 329.185 376.227 329.9 376.227 330.721C376.227 331.543 376.067 332.257 375.747 332.865C375.427 333.473 374.979 333.943 374.403 334.273C373.838 334.604 373.166 334.769 372.387 334.769ZM372.371 333.521C373.043 333.521 373.582 333.281 373.987 332.801C374.393 332.321 374.595 331.628 374.595 330.721C374.595 329.804 374.393 329.111 373.987 328.641C373.582 328.172 373.043 327.937 372.371 327.937C371.71 327.937 371.177 328.172 370.771 328.641C370.366 329.111 370.163 329.804 370.163 330.721C370.163 331.628 370.366 332.321 370.771 332.801C371.177 333.281 371.71 333.521 372.371 333.521ZM381.018 334.769C380.336 334.769 379.733 334.609 379.21 334.289C378.698 333.959 378.298 333.489 378.01 332.881C377.722 332.263 377.578 331.543 377.578 330.721C377.578 329.879 377.722 329.159 378.01 328.561C378.298 327.964 378.698 327.5 379.21 327.169C379.733 326.839 380.336 326.673 381.018 326.673C381.701 326.673 382.288 326.844 382.778 327.185C383.28 327.516 383.616 327.964 383.786 328.529H383.61V323.345H385.226V334.625H383.642V332.865H383.802C383.632 333.441 383.296 333.905 382.794 334.257C382.304 334.599 381.712 334.769 381.018 334.769ZM381.434 333.521C382.096 333.521 382.629 333.281 383.034 332.801C383.44 332.321 383.642 331.628 383.642 330.721C383.642 329.804 383.44 329.111 383.034 328.641C382.629 328.172 382.096 327.937 381.434 327.937C380.762 327.937 380.224 328.172 379.818 328.641C379.413 329.111 379.21 329.804 379.21 330.721C379.21 331.628 379.413 332.321 379.818 332.801C380.224 333.281 380.762 333.521 381.434 333.521ZM391.159 334.769C390.306 334.769 389.57 334.609 388.951 334.289C388.343 333.959 387.869 333.495 387.527 332.897C387.197 332.289 387.031 331.569 387.031 330.737C387.031 329.927 387.197 329.217 387.527 328.609C387.858 328.001 388.311 327.527 388.887 327.185C389.463 326.844 390.119 326.673 390.855 326.673C391.581 326.673 392.199 326.833 392.711 327.153C393.234 327.463 393.634 327.905 393.911 328.481C394.189 329.057 394.327 329.745 394.327 330.545V331.089H388.311V330.097H393.239L392.967 330.321C392.967 329.521 392.791 328.903 392.439 328.465C392.087 328.028 391.581 327.809 390.919 327.809C390.418 327.809 389.991 327.927 389.639 328.161C389.298 328.396 389.037 328.721 388.855 329.137C388.674 329.553 388.583 330.039 388.583 330.593V330.689C388.583 331.308 388.679 331.831 388.871 332.257C389.074 332.673 389.367 332.988 389.751 333.201C390.135 333.415 390.61 333.521 391.175 333.521C391.623 333.521 392.061 333.452 392.487 333.313C392.925 333.164 393.335 332.935 393.719 332.625L394.199 333.745C393.847 334.065 393.394 334.316 392.839 334.497C392.285 334.679 391.725 334.769 391.159 334.769ZM398.633 334.769C397.78 334.769 397.14 334.529 396.713 334.049C396.297 333.559 396.089 332.855 396.089 331.937V323.345H397.705V331.841C397.705 332.183 397.753 332.476 397.849 332.721C397.945 332.956 398.089 333.132 398.281 333.249C398.473 333.367 398.713 333.425 399.001 333.425C399.129 333.425 399.252 333.42 399.369 333.409C399.486 333.399 399.598 333.377 399.705 333.345L399.673 334.641C399.492 334.684 399.316 334.716 399.145 334.737C398.974 334.759 398.804 334.769 398.633 334.769ZM410.415 334.769C409.274 334.769 408.298 334.535 407.487 334.065C406.676 333.596 406.052 332.929 405.615 332.065C405.188 331.191 404.975 330.161 404.975 328.977C404.975 327.793 405.188 326.769 405.615 325.905C406.052 325.041 406.676 324.375 407.487 323.905C408.298 323.436 409.274 323.201 410.415 323.201C411.183 323.201 411.898 323.324 412.559 323.569C413.231 323.804 413.791 324.145 414.239 324.593L413.663 325.921C413.172 325.484 412.666 325.169 412.143 324.977C411.631 324.775 411.071 324.673 410.463 324.673C409.247 324.673 408.319 325.047 407.679 325.793C407.039 326.54 406.719 327.601 406.719 328.977C406.719 330.353 407.039 331.42 407.679 332.177C408.319 332.924 409.247 333.297 410.463 333.297C411.071 333.297 411.631 333.201 412.143 333.009C412.666 332.807 413.172 332.487 413.663 332.049L414.239 333.377C413.791 333.825 413.231 334.172 412.559 334.417C411.898 334.652 411.183 334.769 410.415 334.769ZM415.995 334.625V323.345H417.611V328.481H417.387C417.622 327.884 417.99 327.436 418.491 327.137C418.993 326.828 419.569 326.673 420.219 326.673C420.838 326.673 421.35 326.791 421.755 327.025C422.171 327.249 422.481 327.596 422.683 328.065C422.886 328.524 422.987 329.105 422.987 329.809V334.625H421.371V329.905C421.371 329.457 421.313 329.095 421.195 328.817C421.078 328.529 420.902 328.316 420.667 328.177C420.433 328.039 420.129 327.969 419.755 327.969C419.329 327.969 418.95 328.06 418.619 328.241C418.299 328.423 418.049 328.684 417.867 329.025C417.697 329.367 417.611 329.761 417.611 330.209V334.625H415.995ZM428.606 334.769C427.817 334.769 427.134 334.604 426.558 334.273C425.993 333.943 425.55 333.473 425.23 332.865C424.91 332.257 424.75 331.543 424.75 330.721C424.75 329.889 424.91 329.175 425.23 328.577C425.55 327.969 425.993 327.5 426.558 327.169C427.134 326.839 427.817 326.673 428.606 326.673C429.385 326.673 430.057 326.839 430.622 327.169C431.198 327.5 431.646 327.969 431.966 328.577C432.286 329.185 432.446 329.9 432.446 330.721C432.446 331.543 432.286 332.257 431.966 332.865C431.646 333.473 431.198 333.943 430.622 334.273C430.057 334.604 429.385 334.769 428.606 334.769ZM428.59 333.521C429.262 333.521 429.801 333.281 430.206 332.801C430.611 332.321 430.814 331.628 430.814 330.721C430.814 329.804 430.611 329.111 430.206 328.641C429.801 328.172 429.262 327.937 428.59 327.937C427.929 327.937 427.395 328.172 426.99 328.641C426.585 329.111 426.382 329.804 426.382 330.721C426.382 331.628 426.585 332.321 426.99 332.801C427.395 333.281 427.929 333.521 428.59 333.521ZM434.117 325.009V323.329H436.005V325.009H434.117ZM434.261 334.625V326.817H435.877V334.625H434.261ZM441.592 334.769C440.792 334.769 440.098 334.604 439.512 334.273C438.936 333.932 438.488 333.457 438.168 332.849C437.848 332.231 437.688 331.505 437.688 330.673C437.688 329.852 437.848 329.143 438.168 328.545C438.488 327.948 438.936 327.489 439.512 327.169C440.098 326.839 440.792 326.673 441.592 326.673C442.082 326.673 442.568 326.759 443.048 326.929C443.528 327.089 443.922 327.324 444.232 327.633L443.72 328.769C443.432 328.492 443.106 328.289 442.744 328.161C442.381 328.023 442.04 327.953 441.72 327.953C440.962 327.953 440.376 328.193 439.96 328.673C439.554 329.143 439.352 329.815 439.352 330.689C439.352 331.564 439.554 332.252 439.96 332.753C440.376 333.244 440.962 333.489 441.72 333.489C442.04 333.489 442.381 333.425 442.744 333.297C443.106 333.159 443.432 332.951 443.72 332.673L444.232 333.825C443.922 334.113 443.522 334.343 443.032 334.513C442.552 334.684 442.072 334.769 441.592 334.769ZM449.128 334.769C448.275 334.769 447.539 334.609 446.92 334.289C446.312 333.959 445.837 333.495 445.496 332.897C445.165 332.289 445 331.569 445 330.737C445 329.927 445.165 329.217 445.496 328.609C445.827 328.001 446.28 327.527 446.856 327.185C447.432 326.844 448.088 326.673 448.824 326.673C449.549 326.673 450.168 326.833 450.68 327.153C451.203 327.463 451.603 327.905 451.88 328.481C452.157 329.057 452.296 329.745 452.296 330.545V331.089H446.28V330.097H451.208L450.936 330.321C450.936 329.521 450.76 328.903 450.408 328.465C450.056 328.028 449.549 327.809 448.888 327.809C448.387 327.809 447.96 327.927 447.608 328.161C447.267 328.396 447.005 328.721 446.824 329.137C446.643 329.553 446.552 330.039 446.552 330.593V330.689C446.552 331.308 446.648 331.831 446.84 332.257C447.043 332.673 447.336 332.988 447.72 333.201C448.104 333.415 448.579 333.521 449.144 333.521C449.592 333.521 450.029 333.452 450.456 333.313C450.893 333.164 451.304 332.935 451.688 332.625L452.168 333.745C451.816 334.065 451.363 334.316 450.808 334.497C450.253 334.679 449.693 334.769 449.128 334.769Z" fill="#006D69"/>
<g filter="url(#filter3_dii_8190_414)">
<rect x="461" y="315.625" width="28" height="28" rx="8" fill="#006D69"/>
<rect x="462" y="316.625" width="26" height="26" rx="7" stroke="url(#paint36_linear_8190_414)" stroke-width="2"/>
<path d="M469.167 329.625H480.833M475 323.792V335.459" stroke="#006D69" stroke-width="2" stroke-linecap="round" stroke-linejoin="round"/>
<path d="M469.167 329.625H480.833M475 323.792V335.459" stroke="white" stroke-opacity="0.95" stroke-width="2" stroke-linecap="round" stroke-linejoin="round"/>
</g>
</g>
<g filter="url(#filter4_dd_8190_414)">
<rect x="7" y="323.625" width="143" height="44" rx="8" fill="white"/>
<path d="M20.7104 350.625V339.345H25.3824C26.5984 339.345 27.5371 339.633 28.1984 340.209C28.8598 340.785 29.1904 341.601 29.1904 342.657C29.1904 343.34 29.0411 343.927 28.7424 344.417C28.4438 344.908 28.0064 345.281 27.4304 345.537C26.8651 345.793 26.1824 345.921 25.3824 345.921L25.5264 345.697H25.9424C26.3691 345.697 26.7371 345.804 27.0464 346.017C27.3664 346.231 27.6544 346.572 27.9104 347.041L29.8624 350.625H28.0384L26.0864 347.025C25.9371 346.748 25.7718 346.535 25.5904 346.385C25.4198 346.225 25.2171 346.119 24.9824 346.065C24.7584 346.001 24.4918 345.969 24.1824 345.969H22.3744V350.625H20.7104ZM22.3744 344.721H25.1104C25.9211 344.721 26.5344 344.551 26.9504 344.209C27.3664 343.868 27.5744 343.361 27.5744 342.689C27.5744 342.028 27.3664 341.527 26.9504 341.185C26.5344 340.844 25.9211 340.673 25.1104 340.673H22.3744V344.721ZM34.8391 350.769C33.9857 350.769 33.2497 350.609 32.6311 350.289C32.0231 349.959 31.5484 349.495 31.2071 348.897C30.8764 348.289 30.7111 347.569 30.7111 346.737C30.7111 345.927 30.8764 345.217 31.2071 344.609C31.5377 344.001 31.9911 343.527 32.5671 343.185C33.1431 342.844 33.7991 342.673 34.5351 342.673C35.2604 342.673 35.8791 342.833 36.3911 343.153C36.9137 343.463 37.3137 343.905 37.5911 344.481C37.8684 345.057 38.0071 345.745 38.0071 346.545V347.089H31.9911V346.097H36.9191L36.6471 346.321C36.6471 345.521 36.4711 344.903 36.1191 344.465C35.7671 344.028 35.2604 343.809 34.5991 343.809C34.0977 343.809 33.6711 343.927 33.3191 344.161C32.9777 344.396 32.7164 344.721 32.5351 345.137C32.3537 345.553 32.2631 346.039 32.2631 346.593V346.689C32.2631 347.308 32.3591 347.831 32.5511 348.257C32.7537 348.673 33.0471 348.988 33.4311 349.201C33.8151 349.415 34.2897 349.521 34.8551 349.521C35.3031 349.521 35.7404 349.452 36.1671 349.313C36.6044 349.164 37.0151 348.935 37.3991 348.625L37.8791 349.745C37.5271 350.065 37.0737 350.316 36.5191 350.497C35.9644 350.679 35.4044 350.769 34.8391 350.769ZM43.2088 350.769C42.4088 350.769 41.7155 350.604 41.1288 350.273C40.5528 349.932 40.1048 349.457 39.7848 348.849C39.4648 348.231 39.3048 347.505 39.3048 346.673C39.3048 345.852 39.4648 345.143 39.7848 344.545C40.1048 343.948 40.5528 343.489 41.1288 343.169C41.7155 342.839 42.4088 342.673 43.2088 342.673C43.6995 342.673 44.1848 342.759 44.6648 342.929C45.1448 343.089 45.5395 343.324 45.8488 343.633L45.3368 344.769C45.0488 344.492 44.7235 344.289 44.3608 344.161C43.9981 344.023 43.6568 343.953 43.3368 343.953C42.5795 343.953 41.9928 344.193 41.5768 344.673C41.1715 345.143 40.9688 345.815 40.9688 346.689C40.9688 347.564 41.1715 348.252 41.5768 348.753C41.9928 349.244 42.5795 349.489 43.3368 349.489C43.6568 349.489 43.9981 349.425 44.3608 349.297C44.7235 349.159 45.0488 348.951 45.3368 348.673L45.8488 349.825C45.5395 350.113 45.1395 350.343 44.6488 350.513C44.1688 350.684 43.6888 350.769 43.2088 350.769ZM50.4733 350.769C49.684 350.769 49.0013 350.604 48.4253 350.273C47.86 349.943 47.4173 349.473 47.0973 348.865C46.7773 348.257 46.6173 347.543 46.6173 346.721C46.6173 345.889 46.7773 345.175 47.0973 344.577C47.4173 343.969 47.86 343.5 48.4253 343.169C49.0013 342.839 49.684 342.673 50.4733 342.673C51.252 342.673 51.924 342.839 52.4893 343.169C53.0653 343.5 53.5133 343.969 53.8333 344.577C54.1533 345.185 54.3133 345.9 54.3133 346.721C54.3133 347.543 54.1533 348.257 53.8333 348.865C53.5133 349.473 53.0653 349.943 52.4893 350.273C51.924 350.604 51.252 350.769 50.4733 350.769ZM50.4573 349.521C51.1293 349.521 51.668 349.281 52.0733 348.801C52.4786 348.321 52.6813 347.628 52.6813 346.721C52.6813 345.804 52.4786 345.111 52.0733 344.641C51.668 344.172 51.1293 343.937 50.4573 343.937C49.796 343.937 49.2626 344.172 48.8573 344.641C48.452 345.111 48.2493 345.804 48.2493 346.721C48.2493 347.628 48.452 348.321 48.8573 348.801C49.2626 349.281 49.796 349.521 50.4573 349.521ZM59.6642 353.649C58.9602 353.649 58.3042 353.564 57.6962 353.393C57.0882 353.223 56.5495 352.967 56.0802 352.625L56.5762 351.473C56.8855 351.676 57.2002 351.847 57.5202 351.985C57.8509 352.135 58.1815 352.241 58.5122 352.305C58.8535 352.369 59.2002 352.401 59.5522 352.401C60.2989 352.401 60.8589 352.209 61.2322 351.825C61.6055 351.452 61.7922 350.897 61.7922 350.161V348.529H61.9362C61.7762 349.116 61.4402 349.58 60.9282 349.921C60.4162 350.263 59.8242 350.433 59.1522 350.433C58.4482 350.433 57.8349 350.273 57.3122 349.953C56.7895 349.623 56.3842 349.169 56.0962 348.593C55.8082 348.007 55.6642 347.324 55.6642 346.545C55.6642 345.767 55.8082 345.089 56.0962 344.513C56.3842 343.937 56.7895 343.489 57.3122 343.169C57.8349 342.839 58.4482 342.673 59.1522 342.673C59.8349 342.673 60.4269 342.844 60.9282 343.185C61.4402 343.527 61.7709 343.991 61.9202 344.577H61.7922V342.817H63.3602V349.969C63.3602 350.78 63.2215 351.457 62.9442 352.001C62.6669 352.556 62.2509 352.967 61.6962 353.233C61.1522 353.511 60.4749 353.649 59.6642 353.649ZM59.5362 349.169C60.2295 349.169 60.7735 348.935 61.1682 348.465C61.5735 347.996 61.7762 347.356 61.7762 346.545C61.7762 345.745 61.5735 345.111 61.1682 344.641C60.7735 344.172 60.2295 343.937 59.5362 343.937C58.8535 343.937 58.3095 344.172 57.9042 344.641C57.4989 345.111 57.2962 345.745 57.2962 346.545C57.2962 347.356 57.4989 347.996 57.9042 348.465C58.3095 348.935 58.8535 349.169 59.5362 349.169ZM65.6282 350.625V342.817H67.1962V344.481H67.0202C67.2549 343.884 67.6229 343.436 68.1242 343.137C68.6255 342.828 69.2015 342.673 69.8522 342.673C70.4709 342.673 70.9829 342.791 71.3882 343.025C71.8042 343.249 72.1135 343.596 72.3162 344.065C72.5189 344.524 72.6202 345.105 72.6202 345.809V350.625H71.0042V345.905C71.0042 345.457 70.9455 345.095 70.8282 344.817C70.7109 344.529 70.5349 344.316 70.3002 344.177C70.0655 344.039 69.7615 343.969 69.3882 343.969C68.9615 343.969 68.5829 344.06 68.2522 344.241C67.9322 344.423 67.6815 344.684 67.5002 345.025C67.3295 345.367 67.2442 345.761 67.2442 346.209V350.625H65.6282ZM74.7029 341.009V339.329H76.5909V341.009H74.7029ZM74.8469 350.625V342.817H76.4629V350.625H74.8469ZM82.0656 350.769C81.0949 350.769 80.3642 350.519 79.8736 350.017C79.3936 349.516 79.1536 348.791 79.1536 347.841V344.065H77.6336V342.817H79.1536V340.465H80.7696V342.817H83.1856V344.065H80.7696V347.713C80.7696 348.279 80.8869 348.705 81.1216 348.993C81.3669 349.281 81.7616 349.425 82.3056 349.425C82.4656 349.425 82.6256 349.404 82.7856 349.361C82.9562 349.319 83.1216 349.276 83.2816 349.233L83.5376 350.449C83.3776 350.545 83.1536 350.62 82.8656 350.673C82.5882 350.737 82.3216 350.769 82.0656 350.769ZM84.4373 341.009V339.329H86.3253V341.009H84.4373ZM84.5813 350.625V342.817H86.1973V350.625H84.5813ZM91.8639 350.769C91.0746 350.769 90.3919 350.604 89.8159 350.273C89.2506 349.943 88.8079 349.473 88.4879 348.865C88.1679 348.257 88.0079 347.543 88.0079 346.721C88.0079 345.889 88.1679 345.175 88.4879 344.577C88.8079 343.969 89.2506 343.5 89.8159 343.169C90.3919 342.839 91.0746 342.673 91.8639 342.673C92.6426 342.673 93.3146 342.839 93.8799 343.169C94.4559 343.5 94.9039 343.969 95.2239 344.577C95.5439 345.185 95.7039 345.9 95.7039 346.721C95.7039 347.543 95.5439 348.257 95.2239 348.865C94.9039 349.473 94.4559 349.943 93.8799 350.273C93.3146 350.604 92.6426 350.769 91.8639 350.769ZM91.8479 349.521C92.5199 349.521 93.0586 349.281 93.4639 348.801C93.8693 348.321 94.0719 347.628 94.0719 346.721C94.0719 345.804 93.8693 345.111 93.4639 344.641C93.0586 344.172 92.5199 343.937 91.8479 343.937C91.1866 343.937 90.6533 344.172 90.2479 344.641C89.8426 345.111 89.6399 345.804 89.6399 346.721C89.6399 347.628 89.8426 348.321 90.2479 348.801C90.6533 349.281 91.1866 349.521 91.8479 349.521ZM97.5188 350.625V342.817H99.0868V344.481H98.9108C99.1455 343.884 99.5135 343.436 100.015 343.137C100.516 342.828 101.092 342.673 101.743 342.673C102.361 342.673 102.873 342.791 103.279 343.025C103.695 343.249 104.004 343.596 104.207 344.065C104.409 344.524 104.511 345.105 104.511 345.809V350.625H102.895V345.905C102.895 345.457 102.836 345.095 102.719 344.817C102.601 344.529 102.425 344.316 102.191 344.177C101.956 344.039 101.652 343.969 101.279 343.969C100.852 343.969 100.473 344.06 100.143 344.241C99.8228 344.423 99.5721 344.684 99.3908 345.025C99.2201 345.367 99.1348 345.761 99.1348 346.209V350.625H97.5188Z" fill="#006D69"/>
<g filter="url(#filter5_dii_8190_414)">
<rect x="114" y="331.625" width="28" height="28" rx="8" fill="#006D69"/>
<rect x="115" y="332.625" width="26" height="26" rx="7" stroke="url(#paint37_linear_8190_414)" stroke-width="2"/>
<path d="M122.167 345.625H133.833M128 339.792V351.459" stroke="#006D69" stroke-width="2" stroke-linecap="round" stroke-linejoin="round"/>
<path d="M122.167 345.625H133.833M128 339.792V351.459" stroke="white" stroke-opacity="0.95" stroke-width="2" stroke-linecap="round" stroke-linejoin="round"/>
</g>
</g>
<g filter="url(#filter6_dd_8190_414)">
<rect x="338" y="77.6255" width="145" height="44" rx="8" fill="white"/>
<path d="M351.601 104.625V93.3455H358.897V94.6895H353.201V98.2255H358.561V99.5695H353.201V103.281H358.897V104.625H351.601ZM363.249 104.769C362.705 104.769 362.215 104.663 361.777 104.449C361.351 104.236 361.015 103.948 360.769 103.585C360.524 103.223 360.401 102.812 360.401 102.353C360.401 101.777 360.545 101.324 360.833 100.993C361.132 100.652 361.617 100.412 362.289 100.273C362.972 100.124 363.889 100.049 365.041 100.049H365.793V101.041H365.057C364.481 101.041 363.996 101.063 363.601 101.105C363.207 101.148 362.892 101.217 362.657 101.313C362.423 101.399 362.252 101.521 362.145 101.681C362.049 101.841 362.001 102.033 362.001 102.257C362.001 102.663 362.14 102.993 362.417 103.249C362.695 103.495 363.079 103.617 363.569 103.617C363.964 103.617 364.311 103.527 364.609 103.345C364.908 103.153 365.143 102.897 365.313 102.577C365.495 102.257 365.585 101.889 365.585 101.473V99.6335C365.585 99.0255 365.457 98.5882 365.201 98.3215C364.945 98.0548 364.524 97.9215 363.937 97.9215C363.489 97.9215 363.041 97.9908 362.593 98.1295C362.145 98.2575 361.687 98.4655 361.217 98.7535L360.721 97.6175C360.999 97.4255 361.319 97.2602 361.681 97.1215C362.044 96.9828 362.423 96.8762 362.817 96.8015C363.223 96.7162 363.612 96.6735 363.985 96.6735C364.7 96.6735 365.287 96.7855 365.745 97.0095C366.215 97.2335 366.561 97.5748 366.785 98.0335C367.009 98.4922 367.121 99.0842 367.121 99.8095V104.625H365.601V102.881H365.745C365.66 103.276 365.5 103.617 365.265 103.905C365.041 104.183 364.759 104.396 364.417 104.545C364.076 104.695 363.687 104.769 363.249 104.769ZM369.347 104.625V96.8175H370.915V98.6895H370.755C370.926 98.0495 371.23 97.5642 371.667 97.2335C372.115 96.9028 372.707 96.7108 373.443 96.6575L373.971 96.6255L374.083 98.0015L373.107 98.0975C372.414 98.1615 371.886 98.3802 371.523 98.7535C371.16 99.1268 370.979 99.6388 370.979 100.289V104.625H369.347ZM377.86 104.769C377.006 104.769 376.366 104.529 375.94 104.049C375.524 103.559 375.316 102.855 375.316 101.937V93.3455H376.932V101.841C376.932 102.183 376.98 102.476 377.076 102.721C377.172 102.956 377.316 103.132 377.508 103.249C377.7 103.367 377.94 103.425 378.228 103.425C378.356 103.425 378.478 103.42 378.596 103.409C378.713 103.399 378.825 103.377 378.932 103.345L378.9 104.641C378.718 104.684 378.542 104.716 378.372 104.737C378.201 104.759 378.03 104.769 377.86 104.769ZM380.819 107.505L382.355 104.081V104.769L378.947 96.8175H380.675L383.299 103.297H382.851L385.507 96.8175H387.171L382.515 107.505H380.819ZM395.03 104.769C394.486 104.769 393.996 104.663 393.558 104.449C393.132 104.236 392.796 103.948 392.55 103.585C392.305 103.223 392.182 102.812 392.182 102.353C392.182 101.777 392.326 101.324 392.614 100.993C392.913 100.652 393.398 100.412 394.07 100.273C394.753 100.124 395.67 100.049 396.822 100.049H397.574V101.041H396.838C396.262 101.041 395.777 101.063 395.382 101.105C394.988 101.148 394.673 101.217 394.438 101.313C394.204 101.399 394.033 101.521 393.926 101.681C393.83 101.841 393.782 102.033 393.782 102.257C393.782 102.663 393.921 102.993 394.198 103.249C394.476 103.495 394.86 103.617 395.35 103.617C395.745 103.617 396.092 103.527 396.39 103.345C396.689 103.153 396.924 102.897 397.094 102.577C397.276 102.257 397.366 101.889 397.366 101.473V99.6335C397.366 99.0255 397.238 98.5882 396.982 98.3215C396.726 98.0548 396.305 97.9215 395.718 97.9215C395.27 97.9215 394.822 97.9908 394.374 98.1295C393.926 98.2575 393.468 98.4655 392.998 98.7535L392.502 97.6175C392.78 97.4255 393.1 97.2602 393.462 97.1215C393.825 96.9828 394.204 96.8762 394.598 96.8015C395.004 96.7162 395.393 96.6735 395.766 96.6735C396.481 96.6735 397.068 96.7855 397.526 97.0095C397.996 97.2335 398.342 97.5748 398.566 98.0335C398.79 98.4922 398.902 99.0842 398.902 99.8095V104.625H397.382V102.881H397.526C397.441 103.276 397.281 103.617 397.046 103.905C396.822 104.183 396.54 104.396 396.198 104.545C395.857 104.695 395.468 104.769 395.03 104.769ZM404.568 104.769C403.768 104.769 403.075 104.604 402.488 104.273C401.912 103.932 401.464 103.457 401.144 102.849C400.824 102.231 400.664 101.505 400.664 100.673C400.664 99.8522 400.824 99.1428 401.144 98.5455C401.464 97.9482 401.912 97.4895 402.488 97.1695C403.075 96.8388 403.768 96.6735 404.568 96.6735C405.059 96.6735 405.544 96.7588 406.024 96.9295C406.504 97.0895 406.899 97.3242 407.208 97.6335L406.696 98.7695C406.408 98.4922 406.083 98.2895 405.72 98.1615C405.358 98.0228 405.016 97.9535 404.696 97.9535C403.939 97.9535 403.352 98.1935 402.936 98.6735C402.531 99.1428 402.328 99.8148 402.328 100.689C402.328 101.564 402.531 102.252 402.936 102.753C403.352 103.244 403.939 103.489 404.696 103.489C405.016 103.489 405.358 103.425 405.72 103.297C406.083 103.159 406.408 102.951 406.696 102.673L407.208 103.825C406.899 104.113 406.499 104.343 406.008 104.513C405.528 104.684 405.048 104.769 404.568 104.769ZM411.881 104.769C411.081 104.769 410.387 104.604 409.801 104.273C409.225 103.932 408.777 103.457 408.457 102.849C408.137 102.231 407.977 101.505 407.977 100.673C407.977 99.8522 408.137 99.1428 408.457 98.5455C408.777 97.9482 409.225 97.4895 409.801 97.1695C410.387 96.8388 411.081 96.6735 411.881 96.6735C412.371 96.6735 412.857 96.7588 413.337 96.9295C413.817 97.0895 414.211 97.3242 414.521 97.6335L414.009 98.7695C413.721 98.4922 413.395 98.2895 413.033 98.1615C412.67 98.0228 412.329 97.9535 412.009 97.9535C411.251 97.9535 410.665 98.1935 410.249 98.6735C409.843 99.1428 409.641 99.8148 409.641 100.689C409.641 101.564 409.843 102.252 410.249 102.753C410.665 103.244 411.251 103.489 412.009 103.489C412.329 103.489 412.67 103.425 413.033 103.297C413.395 103.159 413.721 102.951 414.009 102.673L414.521 103.825C414.211 104.113 413.811 104.343 413.321 104.513C412.841 104.684 412.361 104.769 411.881 104.769ZM419.417 104.769C418.564 104.769 417.828 104.609 417.209 104.289C416.601 103.959 416.127 103.495 415.785 102.897C415.455 102.289 415.289 101.569 415.289 100.737C415.289 99.9268 415.455 99.2175 415.785 98.6095C416.116 98.0015 416.569 97.5268 417.145 97.1855C417.721 96.8442 418.377 96.6735 419.113 96.6735C419.839 96.6735 420.457 96.8335 420.969 97.1535C421.492 97.4628 421.892 97.9055 422.169 98.4815C422.447 99.0575 422.585 99.7455 422.585 100.545V101.089H416.569V100.097H421.497L421.225 100.321C421.225 99.5215 421.049 98.9028 420.697 98.4655C420.345 98.0282 419.839 97.8095 419.177 97.8095C418.676 97.8095 418.249 97.9268 417.897 98.1615C417.556 98.3962 417.295 98.7215 417.113 99.1375C416.932 99.5535 416.841 100.039 416.841 100.593V100.689C416.841 101.308 416.937 101.831 417.129 102.257C417.332 102.673 417.625 102.988 418.009 103.201C418.393 103.415 418.868 103.521 419.433 103.521C419.881 103.521 420.319 103.452 420.745 103.313C421.183 103.164 421.593 102.935 421.977 102.625L422.457 103.745C422.105 104.065 421.652 104.316 421.097 104.497C420.543 104.679 419.983 104.769 419.417 104.769ZM427.083 104.769C426.667 104.769 426.262 104.732 425.867 104.657C425.472 104.583 425.11 104.476 424.779 104.337C424.448 104.199 424.155 104.028 423.899 103.825L424.363 102.737C424.63 102.919 424.912 103.079 425.211 103.217C425.51 103.345 425.819 103.441 426.139 103.505C426.47 103.569 426.79 103.601 427.099 103.601C427.664 103.601 428.091 103.5 428.379 103.297C428.667 103.095 428.811 102.823 428.811 102.481C428.811 102.204 428.715 101.991 428.523 101.841C428.331 101.681 428.043 101.559 427.659 101.473L426.139 101.169C425.478 101.031 424.976 100.785 424.635 100.433C424.294 100.081 424.123 99.6335 424.123 99.0895C424.123 98.5988 424.256 98.1722 424.523 97.8095C424.79 97.4468 425.163 97.1695 425.643 96.9775C426.123 96.7748 426.678 96.6735 427.307 96.6735C427.67 96.6735 428.022 96.7108 428.363 96.7855C428.704 96.8602 429.024 96.9668 429.323 97.1055C429.632 97.2442 429.894 97.4202 430.107 97.6335L429.643 98.7215C429.44 98.5402 429.206 98.3855 428.939 98.2575C428.683 98.1295 428.416 98.0335 428.139 97.9695C427.862 97.8948 427.584 97.8575 427.307 97.8575C426.742 97.8575 426.315 97.9642 426.027 98.1775C425.75 98.3802 425.611 98.6575 425.611 99.0095C425.611 99.2762 425.696 99.4948 425.867 99.6655C426.038 99.8362 426.304 99.9588 426.667 100.033L428.187 100.337C428.88 100.476 429.403 100.711 429.755 101.041C430.118 101.372 430.299 101.82 430.299 102.385C430.299 102.876 430.166 103.303 429.899 103.665C429.632 104.028 429.254 104.305 428.763 104.497C428.283 104.679 427.723 104.769 427.083 104.769ZM434.833 104.769C434.417 104.769 434.012 104.732 433.617 104.657C433.222 104.583 432.86 104.476 432.529 104.337C432.198 104.199 431.905 104.028 431.649 103.825L432.113 102.737C432.38 102.919 432.662 103.079 432.961 103.217C433.26 103.345 433.569 103.441 433.889 103.505C434.22 103.569 434.54 103.601 434.849 103.601C435.414 103.601 435.841 103.5 436.129 103.297C436.417 103.095 436.561 102.823 436.561 102.481C436.561 102.204 436.465 101.991 436.273 101.841C436.081 101.681 435.793 101.559 435.409 101.473L433.889 101.169C433.228 101.031 432.726 100.785 432.385 100.433C432.044 100.081 431.873 99.6335 431.873 99.0895C431.873 98.5988 432.006 98.1722 432.273 97.8095C432.54 97.4468 432.913 97.1695 433.393 96.9775C433.873 96.7748 434.428 96.6735 435.057 96.6735C435.42 96.6735 435.772 96.7108 436.113 96.7855C436.454 96.8602 436.774 96.9668 437.073 97.1055C437.382 97.2442 437.644 97.4202 437.857 97.6335L437.393 98.7215C437.19 98.5402 436.956 98.3855 436.689 98.2575C436.433 98.1295 436.166 98.0335 435.889 97.9695C435.612 97.8948 435.334 97.8575 435.057 97.8575C434.492 97.8575 434.065 97.9642 433.777 98.1775C433.5 98.3802 433.361 98.6575 433.361 99.0095C433.361 99.2762 433.446 99.4948 433.617 99.6655C433.788 99.8362 434.054 99.9588 434.417 100.033L435.937 100.337C436.63 100.476 437.153 100.711 437.505 101.041C437.868 101.372 438.049 101.82 438.049 102.385C438.049 102.876 437.916 103.303 437.649 103.665C437.382 104.028 437.004 104.305 436.513 104.497C436.033 104.679 435.473 104.769 434.833 104.769Z" fill="#006D69"/>
<g filter="url(#filter7_dii_8190_414)">
<rect x="447" y="85.6255" width="28" height="28" rx="8" fill="#006D69"/>
<rect x="448" y="86.6255" width="26" height="26" rx="7" stroke="url(#paint38_linear_8190_414)" stroke-width="2"/>
<path d="M455.167 99.6253H466.833M461 93.792V105.459" stroke="#006D69" stroke-width="2" stroke-linecap="round" stroke-linejoin="round"/>
<path d="M455.167 99.6253H466.833M461 93.792V105.459" stroke="white" stroke-opacity="0.95" stroke-width="2" stroke-linecap="round" stroke-linejoin="round"/>
</g>
</g>
<g filter="url(#filter8_dd_8190_414)">
<rect x="185" y="188.625" width="146" height="44" rx="8" fill="white"/>
<path d="M203.661 215.769C202.861 215.769 202.136 215.636 201.485 215.369C200.834 215.103 200.274 214.713 199.805 214.201C199.346 213.689 198.994 213.081 198.749 212.377C198.504 211.663 198.381 210.863 198.381 209.977C198.381 209.092 198.504 208.297 198.749 207.593C198.994 206.879 199.346 206.271 199.805 205.769C200.264 205.257 200.818 204.868 201.469 204.601C202.12 204.335 202.85 204.201 203.661 204.201C204.461 204.201 205.186 204.335 205.837 204.601C206.488 204.868 207.042 205.252 207.501 205.753C207.97 206.255 208.328 206.863 208.573 207.577C208.818 208.281 208.941 209.076 208.941 209.961C208.941 210.847 208.818 211.647 208.573 212.361C208.328 213.076 207.97 213.689 207.501 214.201C207.042 214.713 206.488 215.103 205.837 215.369C205.186 215.636 204.461 215.769 203.661 215.769ZM203.661 214.329C204.408 214.329 205.042 214.159 205.565 213.817C206.098 213.476 206.504 212.98 206.781 212.329C207.069 211.679 207.213 210.895 207.213 209.977C207.213 209.06 207.074 208.276 206.797 207.625C206.52 206.975 206.114 206.484 205.581 206.153C205.058 205.812 204.418 205.641 203.661 205.641C202.914 205.641 202.274 205.812 201.741 206.153C201.218 206.484 200.813 206.975 200.525 207.625C200.248 208.276 200.109 209.06 200.109 209.977C200.109 210.884 200.248 211.668 200.525 212.329C200.813 212.98 201.218 213.476 201.741 213.817C202.274 214.159 202.914 214.329 203.661 214.329ZM210.995 218.505V207.817H212.579V209.577H212.403C212.574 209.001 212.91 208.543 213.411 208.201C213.913 207.849 214.505 207.673 215.187 207.673C215.881 207.673 216.483 207.839 216.995 208.169C217.518 208.5 217.918 208.964 218.195 209.561C218.483 210.159 218.627 210.879 218.627 211.721C218.627 212.543 218.483 213.263 218.195 213.881C217.918 214.489 217.523 214.959 217.011 215.289C216.499 215.609 215.891 215.769 215.187 215.769C214.515 215.769 213.929 215.599 213.427 215.257C212.926 214.916 212.59 214.463 212.419 213.897H212.611V218.505H210.995ZM214.787 214.521C215.459 214.521 215.993 214.281 216.387 213.801C216.793 213.321 216.995 212.628 216.995 211.721C216.995 210.804 216.793 210.111 216.387 209.641C215.993 209.172 215.459 208.937 214.787 208.937C214.126 208.937 213.593 209.172 213.187 209.641C212.782 210.111 212.579 210.804 212.579 211.721C212.579 212.628 212.782 213.321 213.187 213.801C213.593 214.281 214.126 214.521 214.787 214.521ZM220.449 218.505V207.817H222.033V209.577H221.857C222.027 209.001 222.363 208.543 222.865 208.201C223.366 207.849 223.958 207.673 224.641 207.673C225.334 207.673 225.937 207.839 226.449 208.169C226.971 208.5 227.371 208.964 227.649 209.561C227.937 210.159 228.081 210.879 228.081 211.721C228.081 212.543 227.937 213.263 227.649 213.881C227.371 214.489 226.977 214.959 226.465 215.289C225.953 215.609 225.345 215.769 224.641 215.769C223.969 215.769 223.382 215.599 222.881 215.257C222.379 214.916 222.043 214.463 221.873 213.897H222.065V218.505H220.449ZM224.241 214.521C224.913 214.521 225.446 214.281 225.841 213.801C226.246 213.321 226.449 212.628 226.449 211.721C226.449 210.804 226.246 210.111 225.841 209.641C225.446 209.172 224.913 208.937 224.241 208.937C223.579 208.937 223.046 209.172 222.641 209.641C222.235 210.111 222.033 210.804 222.033 211.721C222.033 212.628 222.235 213.321 222.641 213.801C223.046 214.281 223.579 214.521 224.241 214.521ZM233.294 215.769C232.504 215.769 231.822 215.604 231.246 215.273C230.68 214.943 230.238 214.473 229.918 213.865C229.598 213.257 229.438 212.543 229.438 211.721C229.438 210.889 229.598 210.175 229.918 209.577C230.238 208.969 230.68 208.5 231.246 208.169C231.822 207.839 232.504 207.673 233.294 207.673C234.072 207.673 234.744 207.839 235.31 208.169C235.886 208.5 236.334 208.969 236.654 209.577C236.974 210.185 237.134 210.9 237.134 211.721C237.134 212.543 236.974 213.257 236.654 213.865C236.334 214.473 235.886 214.943 235.31 215.273C234.744 215.604 234.072 215.769 233.294 215.769ZM233.278 214.521C233.95 214.521 234.488 214.281 234.894 213.801C235.299 213.321 235.502 212.628 235.502 211.721C235.502 210.804 235.299 210.111 234.894 209.641C234.488 209.172 233.95 208.937 233.278 208.937C232.616 208.937 232.083 209.172 231.678 209.641C231.272 210.111 231.07 210.804 231.07 211.721C231.07 212.628 231.272 213.321 231.678 213.801C232.083 214.281 232.616 214.521 233.278 214.521ZM238.949 215.625V207.817H240.517V209.689H240.357C240.527 209.049 240.831 208.564 241.269 208.233C241.717 207.903 242.309 207.711 243.045 207.657L243.573 207.625L243.685 209.001L242.709 209.097C242.015 209.161 241.487 209.38 241.125 209.753C240.762 210.127 240.581 210.639 240.581 211.289V215.625H238.949ZM248.683 215.769C247.712 215.769 246.981 215.519 246.491 215.017C246.011 214.516 245.771 213.791 245.771 212.841V209.065H244.251V207.817H245.771V205.465H247.387V207.817H249.803V209.065H247.387V212.713C247.387 213.279 247.504 213.705 247.739 213.993C247.984 214.281 248.379 214.425 248.923 214.425C249.083 214.425 249.243 214.404 249.403 214.361C249.573 214.319 249.739 214.276 249.899 214.233L250.155 215.449C249.995 215.545 249.771 215.62 249.483 215.673C249.205 215.737 248.939 215.769 248.683 215.769ZM253.983 215.769C253.353 215.769 252.825 215.652 252.399 215.417C251.983 215.183 251.668 214.836 251.455 214.377C251.252 213.908 251.151 213.321 251.151 212.617V207.817H252.767V212.633C252.767 213.049 252.82 213.396 252.927 213.673C253.044 213.951 253.22 214.153 253.455 214.281C253.7 214.409 254.004 214.473 254.367 214.473C254.772 214.473 255.129 214.383 255.439 214.201C255.748 214.02 255.988 213.759 256.159 213.417C256.329 213.076 256.415 212.681 256.415 212.233V207.817H258.031V215.625H256.463V213.913H256.671C256.457 214.511 256.116 214.969 255.647 215.289C255.177 215.609 254.623 215.769 253.983 215.769ZM260.308 215.625V207.817H261.876V209.481H261.7C261.935 208.884 262.303 208.436 262.804 208.137C263.305 207.828 263.881 207.673 264.532 207.673C265.151 207.673 265.663 207.791 266.068 208.025C266.484 208.249 266.793 208.596 266.996 209.065C267.199 209.524 267.3 210.105 267.3 210.809V215.625H265.684V210.905C265.684 210.457 265.625 210.095 265.508 209.817C265.391 209.529 265.215 209.316 264.98 209.177C264.745 209.039 264.441 208.969 264.068 208.969C263.641 208.969 263.263 209.06 262.932 209.241C262.612 209.423 262.361 209.684 262.18 210.025C262.009 210.367 261.924 210.761 261.924 211.209V215.625H260.308ZM269.383 206.009V204.329H271.271V206.009H269.383ZM269.527 215.625V207.817H271.143V215.625H269.527ZM276.745 215.769C275.775 215.769 275.044 215.519 274.553 215.017C274.073 214.516 273.833 213.791 273.833 212.841V209.065H272.313V207.817H273.833V205.465H275.449V207.817H277.865V209.065H275.449V212.713C275.449 213.279 275.567 213.705 275.801 213.993C276.047 214.281 276.441 214.425 276.985 214.425C277.145 214.425 277.305 214.404 277.465 214.361C277.636 214.319 277.801 214.276 277.961 214.233L278.217 215.449C278.057 215.545 277.833 215.62 277.545 215.673C277.268 215.737 277.001 215.769 276.745 215.769ZM280.17 218.505L281.706 215.081V215.769L278.298 207.817H280.026L282.65 214.297H282.202L284.858 207.817H286.522L281.866 218.505H280.17Z" fill="#006D69"/>
<g filter="url(#filter9_dii_8190_414)">
<rect x="295" y="196.625" width="28" height="28" rx="8" fill="#006D69"/>
<rect x="296" y="197.625" width="26" height="26" rx="7" stroke="url(#paint39_linear_8190_414)" stroke-width="2"/>
<path d="M303.167 210.625H314.833M309 204.792V216.459" stroke="#006D69" stroke-width="2" stroke-linecap="round" stroke-linejoin="round"/>
<path d="M303.167 210.625H314.833M309 204.792V216.459" stroke="white" stroke-opacity="0.95" stroke-width="2" stroke-linecap="round" stroke-linejoin="round"/>
</g>
</g>
<defs>
<filter id="filter0_dd_8190_414" x="12" y="49.5308" width="169" height="58" filterUnits="userSpaceOnUse" color-interpolation-filters="sRGB">
<feFlood flood-opacity="0" result="BackgroundImageFix"/>
<feColorMatrix in="SourceAlpha" type="matrix" values="0 0 0 0 0 0 0 0 0 0 0 0 0 0 0 0 0 0 127 0" result="hardAlpha"/>
<feMorphology radius="1" operator="erode" in="SourceAlpha" result="effect1_dropShadow_8190_414"/>
<feOffset dy="3"/>
<feGaussianBlur stdDeviation="4"/>
<feColorMatrix type="matrix" values="0 0 0 0 0.196078 0 0 0 0 0.196078 0 0 0 0 0.278431 0 0 0 0.05 0"/>
<feBlend mode="normal" in2="BackgroundImageFix" result="effect1_dropShadow_8190_414"/>
<feColorMatrix in="SourceAlpha" type="matrix" values="0 0 0 0 0 0 0 0 0 0 0 0 0 0 0 0 0 0 127 0" result="hardAlpha"/>
<feOffset/>
<feGaussianBlur stdDeviation="0.5"/>
<feColorMatrix type="matrix" values="0 0 0 0 0.0470588 0 0 0 0 0.101961 0 0 0 0 0.294118 0 0 0 0.24 0"/>
<feBlend mode="normal" in2="effect1_dropShadow_8190_414" result="effect2_dropShadow_8190_414"/>
<feBlend mode="normal" in="SourceGraphic" in2="effect2_dropShadow_8190_414" result="shape"/>
</filter>
<filter id="filter1_dii_8190_414" x="136" y="60.5308" width="32" height="32" filterUnits="userSpaceOnUse" color-interpolation-filters="sRGB">
<feFlood flood-opacity="0" result="BackgroundImageFix"/>
<feColorMatrix in="SourceAlpha" type="matrix" values="0 0 0 0 0 0 0 0 0 0 0 0 0 0 0 0 0 0 127 0" result="hardAlpha"/>
<feOffset dy="1"/>
<feGaussianBlur stdDeviation="1"/>
<feColorMatrix type="matrix" values="0 0 0 0 0.0392157 0 0 0 0 0.0509804 0 0 0 0 0.0705882 0 0 0 0.05 0"/>
<feBlend mode="normal" in2="BackgroundImageFix" result="effect1_dropShadow_8190_414"/>
<feBlend mode="normal" in="SourceGraphic" in2="effect1_dropShadow_8190_414" result="shape"/>
<feColorMatrix in="SourceAlpha" type="matrix" values="0 0 0 0 0 0 0 0 0 0 0 0 0 0 0 0 0 0 127 0" result="hardAlpha"/>
<feOffset dy="-2"/>
<feComposite in2="hardAlpha" operator="arithmetic" k2="-1" k3="1"/>
<feColorMatrix type="matrix" values="0 0 0 0 0.0392157 0 0 0 0 0.0496732 0 0 0 0 0.0705882 0 0 0 0.05 0"/>
<feBlend mode="normal" in2="shape" result="effect2_innerShadow_8190_414"/>
<feColorMatrix in="SourceAlpha" type="matrix" values="0 0 0 0 0 0 0 0 0 0 0 0 0 0 0 0 0 0 127 0" result="hardAlpha"/>
<feMorphology radius="1" operator="erode" in="SourceAlpha" result="effect3_innerShadow_8190_414"/>
<feOffset/>
<feComposite in2="hardAlpha" operator="arithmetic" k2="-1" k3="1"/>
<feColorMatrix type="matrix" values="0 0 0 0 0.0392157 0 0 0 0 0.0496732 0 0 0 0 0.0705882 0 0 0 0.18 0"/>
<feBlend mode="normal" in2="effect2_innerShadow_8190_414" result="effect3_innerShadow_8190_414"/>
</filter>
<filter id="filter2_dd_8190_414" x="335" y="303.625" width="169" height="58" filterUnits="userSpaceOnUse" color-interpolation-filters="sRGB">
<feFlood flood-opacity="0" result="BackgroundImageFix"/>
<feColorMatrix in="SourceAlpha" type="matrix" values="0 0 0 0 0 0 0 0 0 0 0 0 0 0 0 0 0 0 127 0" result="hardAlpha"/>
<feMorphology radius="1" operator="erode" in="SourceAlpha" result="effect1_dropShadow_8190_414"/>
<feOffset dy="3"/>
<feGaussianBlur stdDeviation="4"/>
<feColorMatrix type="matrix" values="0 0 0 0 0.196078 0 0 0 0 0.196078 0 0 0 0 0.278431 0 0 0 0.05 0"/>
<feBlend mode="normal" in2="BackgroundImageFix" result="effect1_dropShadow_8190_414"/>
<feColorMatrix in="SourceAlpha" type="matrix" values="0 0 0 0 0 0 0 0 0 0 0 0 0 0 0 0 0 0 127 0" result="hardAlpha"/>
<feOffset/>
<feGaussianBlur stdDeviation="0.5"/>
<feColorMatrix type="matrix" values="0 0 0 0 0.0470588 0 0 0 0 0.101961 0 0 0 0 0.294118 0 0 0 0.24 0"/>
<feBlend mode="normal" in2="effect1_dropShadow_8190_414" result="effect2_dropShadow_8190_414"/>
<feBlend mode="normal" in="SourceGraphic" in2="effect2_dropShadow_8190_414" result="shape"/>
</filter>
<filter id="filter3_dii_8190_414" x="459" y="314.625" width="32" height="32" filterUnits="userSpaceOnUse" color-interpolation-filters="sRGB">
<feFlood flood-opacity="0" result="BackgroundImageFix"/>
<feColorMatrix in="SourceAlpha" type="matrix" values="0 0 0 0 0 0 0 0 0 0 0 0 0 0 0 0 0 0 127 0" result="hardAlpha"/>
<feOffset dy="1"/>
<feGaussianBlur stdDeviation="1"/>
<feColorMatrix type="matrix" values="0 0 0 0 0.0392157 0 0 0 0 0.0509804 0 0 0 0 0.0705882 0 0 0 0.05 0"/>
<feBlend mode="normal" in2="BackgroundImageFix" result="effect1_dropShadow_8190_414"/>
<feBlend mode="normal" in="SourceGraphic" in2="effect1_dropShadow_8190_414" result="shape"/>
<feColorMatrix in="SourceAlpha" type="matrix" values="0 0 0 0 0 0 0 0 0 0 0 0 0 0 0 0 0 0 127 0" result="hardAlpha"/>
<feOffset dy="-2"/>
<feComposite in2="hardAlpha" operator="arithmetic" k2="-1" k3="1"/>
<feColorMatrix type="matrix" values="0 0 0 0 0.0392157 0 0 0 0 0.0496732 0 0 0 0 0.0705882 0 0 0 0.05 0"/>
<feBlend mode="normal" in2="shape" result="effect2_innerShadow_8190_414"/>
<feColorMatrix in="SourceAlpha" type="matrix" values="0 0 0 0 0 0 0 0 0 0 0 0 0 0 0 0 0 0 127 0" result="hardAlpha"/>
<feMorphology radius="1" operator="erode" in="SourceAlpha" result="effect3_innerShadow_8190_414"/>
<feOffset/>
<feComposite in2="hardAlpha" operator="arithmetic" k2="-1" k3="1"/>
<feColorMatrix type="matrix" values="0 0 0 0 0.0392157 0 0 0 0 0.0496732 0 0 0 0 0.0705882 0 0 0 0.18 0"/>
<feBlend mode="normal" in2="effect2_innerShadow_8190_414" result="effect3_innerShadow_8190_414"/>
</filter>
<filter id="filter4_dd_8190_414" x="0" y="319.625" width="157" height="58" filterUnits="userSpaceOnUse" color-interpolation-filters="sRGB">
<feFlood flood-opacity="0" result="BackgroundImageFix"/>
<feColorMatrix in="SourceAlpha" type="matrix" values="0 0 0 0 0 0 0 0 0 0 0 0 0 0 0 0 0 0 127 0" result="hardAlpha"/>
<feMorphology radius="1" operator="erode" in="SourceAlpha" result="effect1_dropShadow_8190_414"/>
<feOffset dy="3"/>
<feGaussianBlur stdDeviation="4"/>
<feColorMatrix type="matrix" values="0 0 0 0 0.196078 0 0 0 0 0.196078 0 0 0 0 0.278431 0 0 0 0.05 0"/>
<feBlend mode="normal" in2="BackgroundImageFix" result="effect1_dropShadow_8190_414"/>
<feColorMatrix in="SourceAlpha" type="matrix" values="0 0 0 0 0 0 0 0 0 0 0 0 0 0 0 0 0 0 127 0" result="hardAlpha"/>
<feOffset/>
<feGaussianBlur stdDeviation="0.5"/>
<feColorMatrix type="matrix" values="0 0 0 0 0.0470588 0 0 0 0 0.101961 0 0 0 0 0.294118 0 0 0 0.24 0"/>
<feBlend mode="normal" in2="effect1_dropShadow_8190_414" result="effect2_dropShadow_8190_414"/>
<feBlend mode="normal" in="SourceGraphic" in2="effect2_dropShadow_8190_414" result="shape"/>
</filter>
<filter id="filter5_dii_8190_414" x="112" y="330.625" width="32" height="32" filterUnits="userSpaceOnUse" color-interpolation-filters="sRGB">
<feFlood flood-opacity="0" result="BackgroundImageFix"/>
<feColorMatrix in="SourceAlpha" type="matrix" values="0 0 0 0 0 0 0 0 0 0 0 0 0 0 0 0 0 0 127 0" result="hardAlpha"/>
<feOffset dy="1"/>
<feGaussianBlur stdDeviation="1"/>
<feColorMatrix type="matrix" values="0 0 0 0 0.0392157 0 0 0 0 0.0509804 0 0 0 0 0.0705882 0 0 0 0.05 0"/>
<feBlend mode="normal" in2="BackgroundImageFix" result="effect1_dropShadow_8190_414"/>
<feBlend mode="normal" in="SourceGraphic" in2="effect1_dropShadow_8190_414" result="shape"/>
<feColorMatrix in="SourceAlpha" type="matrix" values="0 0 0 0 0 0 0 0 0 0 0 0 0 0 0 0 0 0 127 0" result="hardAlpha"/>
<feOffset dy="-2"/>
<feComposite in2="hardAlpha" operator="arithmetic" k2="-1" k3="1"/>
<feColorMatrix type="matrix" values="0 0 0 0 0.0392157 0 0 0 0 0.0496732 0 0 0 0 0.0705882 0 0 0 0.05 0"/>
<feBlend mode="normal" in2="shape" result="effect2_innerShadow_8190_414"/>
<feColorMatrix in="SourceAlpha" type="matrix" values="0 0 0 0 0 0 0 0 0 0 0 0 0 0 0 0 0 0 127 0" result="hardAlpha"/>
<feMorphology radius="1" operator="erode" in="SourceAlpha" result="effect3_innerShadow_8190_414"/>
<feOffset/>
<feComposite in2="hardAlpha" operator="arithmetic" k2="-1" k3="1"/>
<feColorMatrix type="matrix" values="0 0 0 0 0.0392157 0 0 0 0 0.0496732 0 0 0 0 0.0705882 0 0 0 0.18 0"/>
<feBlend mode="normal" in2="effect2_innerShadow_8190_414" result="effect3_innerShadow_8190_414"/>
</filter>
<filter id="filter6_dd_8190_414" x="331" y="73.6255" width="159" height="58" filterUnits="userSpaceOnUse" color-interpolation-filters="sRGB">
<feFlood flood-opacity="0" result="BackgroundImageFix"/>
<feColorMatrix in="SourceAlpha" type="matrix" values="0 0 0 0 0 0 0 0 0 0 0 0 0 0 0 0 0 0 127 0" result="hardAlpha"/>
<feMorphology radius="1" operator="erode" in="SourceAlpha" result="effect1_dropShadow_8190_414"/>
<feOffset dy="3"/>
<feGaussianBlur stdDeviation="4"/>
<feColorMatrix type="matrix" values="0 0 0 0 0.196078 0 0 0 0 0.196078 0 0 0 0 0.278431 0 0 0 0.05 0"/>
<feBlend mode="normal" in2="BackgroundImageFix" result="effect1_dropShadow_8190_414"/>
<feColorMatrix in="SourceAlpha" type="matrix" values="0 0 0 0 0 0 0 0 0 0 0 0 0 0 0 0 0 0 127 0" result="hardAlpha"/>
<feOffset/>
<feGaussianBlur stdDeviation="0.5"/>
<feColorMatrix type="matrix" values="0 0 0 0 0.0470588 0 0 0 0 0.101961 0 0 0 0 0.294118 0 0 0 0.24 0"/>
<feBlend mode="normal" in2="effect1_dropShadow_8190_414" result="effect2_dropShadow_8190_414"/>
<feBlend mode="normal" in="SourceGraphic" in2="effect2_dropShadow_8190_414" result="shape"/>
</filter>
<filter id="filter7_dii_8190_414" x="445" y="84.6255" width="32" height="32" filterUnits="userSpaceOnUse" color-interpolation-filters="sRGB">
<feFlood flood-opacity="0" result="BackgroundImageFix"/>
<feColorMatrix in="SourceAlpha" type="matrix" values="0 0 0 0 0 0 0 0 0 0 0 0 0 0 0 0 0 0 127 0" result="hardAlpha"/>
<feOffset dy="1"/>
<feGaussianBlur stdDeviation="1"/>
<feColorMatrix type="matrix" values="0 0 0 0 0.0392157 0 0 0 0 0.0509804 0 0 0 0 0.0705882 0 0 0 0.05 0"/>
<feBlend mode="normal" in2="BackgroundImageFix" result="effect1_dropShadow_8190_414"/>
<feBlend mode="normal" in="SourceGraphic" in2="effect1_dropShadow_8190_414" result="shape"/>
<feColorMatrix in="SourceAlpha" type="matrix" values="0 0 0 0 0 0 0 0 0 0 0 0 0 0 0 0 0 0 127 0" result="hardAlpha"/>
<feOffset dy="-2"/>
<feComposite in2="hardAlpha" operator="arithmetic" k2="-1" k3="1"/>
<feColorMatrix type="matrix" values="0 0 0 0 0.0392157 0 0 0 0 0.0496732 0 0 0 0 0.0705882 0 0 0 0.05 0"/>
<feBlend mode="normal" in2="shape" result="effect2_innerShadow_8190_414"/>
<feColorMatrix in="SourceAlpha" type="matrix" values="0 0 0 0 0 0 0 0 0 0 0 0 0 0 0 0 0 0 127 0" result="hardAlpha"/>
<feMorphology radius="1" operator="erode" in="SourceAlpha" result="effect3_innerShadow_8190_414"/>
<feOffset/>
<feComposite in2="hardAlpha" operator="arithmetic" k2="-1" k3="1"/>
<feColorMatrix type="matrix" values="0 0 0 0 0.0392157 0 0 0 0 0.0496732 0 0 0 0 0.0705882 0 0 0 0.18 0"/>
<feBlend mode="normal" in2="effect2_innerShadow_8190_414" result="effect3_innerShadow_8190_414"/>
</filter>
<filter id="filter8_dd_8190_414" x="178" y="184.625" width="160" height="58" filterUnits="userSpaceOnUse" color-interpolation-filters="sRGB">
<feFlood flood-opacity="0" result="BackgroundImageFix"/>
<feColorMatrix in="SourceAlpha" type="matrix" values="0 0 0 0 0 0 0 0 0 0 0 0 0 0 0 0 0 0 127 0" result="hardAlpha"/>
<feMorphology radius="1" operator="erode" in="SourceAlpha" result="effect1_dropShadow_8190_414"/>
<feOffset dy="3"/>
<feGaussianBlur stdDeviation="4"/>
<feColorMatrix type="matrix" values="0 0 0 0 0.196078 0 0 0 0 0.196078 0 0 0 0 0.278431 0 0 0 0.05 0"/>
<feBlend mode="normal" in2="BackgroundImageFix" result="effect1_dropShadow_8190_414"/>
<feColorMatrix in="SourceAlpha" type="matrix" values="0 0 0 0 0 0 0 0 0 0 0 0 0 0 0 0 0 0 127 0" result="hardAlpha"/>
<feOffset/>
<feGaussianBlur stdDeviation="0.5"/>
<feColorMatrix type="matrix" values="0 0 0 0 0.0470588 0 0 0 0 0.101961 0 0 0 0 0.294118 0 0 0 0.24 0"/>
<feBlend mode="normal" in2="effect1_dropShadow_8190_414" result="effect2_dropShadow_8190_414"/>
<feBlend mode="normal" in="SourceGraphic" in2="effect2_dropShadow_8190_414" result="shape"/>
</filter>
<filter id="filter9_dii_8190_414" x="293" y="195.625" width="32" height="32" filterUnits="userSpaceOnUse" color-interpolation-filters="sRGB">
<feFlood flood-opacity="0" result="BackgroundImageFix"/>
<feColorMatrix in="SourceAlpha" type="matrix" values="0 0 0 0 0 0 0 0 0 0 0 0 0 0 0 0 0 0 127 0" result="hardAlpha"/>
<feOffset dy="1"/>
<feGaussianBlur stdDeviation="1"/>
<feColorMatrix type="matrix" values="0 0 0 0 0.0392157 0 0 0 0 0.0509804 0 0 0 0 0.0705882 0 0 0 0.05 0"/>
<feBlend mode="normal" in2="BackgroundImageFix" result="effect1_dropShadow_8190_414"/>
<feBlend mode="normal" in="SourceGraphic" in2="effect1_dropShadow_8190_414" result="shape"/>
<feColorMatrix in="SourceAlpha" type="matrix" values="0 0 0 0 0 0 0 0 0 0 0 0 0 0 0 0 0 0 127 0" result="hardAlpha"/>
<feOffset dy="-2"/>
<feComposite in2="hardAlpha" operator="arithmetic" k2="-1" k3="1"/>
<feColorMatrix type="matrix" values="0 0 0 0 0.0392157 0 0 0 0 0.0496732 0 0 0 0 0.0705882 0 0 0 0.05 0"/>
<feBlend mode="normal" in2="shape" result="effect2_innerShadow_8190_414"/>
<feColorMatrix in="SourceAlpha" type="matrix" values="0 0 0 0 0 0 0 0 0 0 0 0 0 0 0 0 0 0 127 0" result="hardAlpha"/>
<feMorphology radius="1" operator="erode" in="SourceAlpha" result="effect3_innerShadow_8190_414"/>
<feOffset/>
<feComposite in2="hardAlpha" operator="arithmetic" k2="-1" k3="1"/>
<feColorMatrix type="matrix" values="0 0 0 0 0.0392157 0 0 0 0 0.0496732 0 0 0 0 0.0705882 0 0 0 0.18 0"/>
<feBlend mode="normal" in2="effect2_innerShadow_8190_414" result="effect3_innerShadow_8190_414"/>
</filter>
<linearGradient id="paint0_linear_8190_414" x1="36" y1="218.079" x2="473" y2="218.079" gradientUnits="userSpaceOnUse">
<stop stop-color="#006D68"/>
<stop offset="0.14" stop-color="#107566"/>
<stop offset="0.4" stop-color="#3A8C60"/>
<stop offset="0.77" stop-color="#7EB158"/>
<stop offset="1" stop-color="#ACCA53"/>
</linearGradient>
<linearGradient id="paint1_linear_8190_414" x1="349.538" y1="256.622" x2="460.709" y2="256.622" gradientUnits="userSpaceOnUse">
<stop stop-color="#006D68"/>
<stop offset="0.14" stop-color="#107566"/>
<stop offset="0.4" stop-color="#3A8C60"/>
<stop offset="0.77" stop-color="#7EB158"/>
<stop offset="1" stop-color="#ACCA53"/>
</linearGradient>
<linearGradient id="paint2_linear_8190_414" x1="372.677" y1="261.306" x2="467.764" y2="261.306" gradientUnits="userSpaceOnUse">
<stop stop-color="#006D68"/>
<stop offset="0.14" stop-color="#107566"/>
<stop offset="0.4" stop-color="#3A8C60"/>
<stop offset="0.77" stop-color="#7EB158"/>
<stop offset="1" stop-color="#ACCA53"/>
</linearGradient>
<linearGradient id="paint3_linear_8190_414" x1="395.815" y1="267.799" x2="469.982" y2="267.799" gradientUnits="userSpaceOnUse">
<stop stop-color="#006D68"/>
<stop offset="0.14" stop-color="#107566"/>
<stop offset="0.4" stop-color="#3A8C60"/>
<stop offset="0.77" stop-color="#7EB158"/>
<stop offset="1" stop-color="#ACCA53"/>
</linearGradient>
<linearGradient id="paint4_linear_8190_414" x1="407.39" y1="272.556" x2="470.236" y2="272.556" gradientUnits="userSpaceOnUse">
<stop stop-color="#006D68"/>
<stop offset="0.14" stop-color="#107566"/>
<stop offset="0.4" stop-color="#3A8C60"/>
<stop offset="0.77" stop-color="#7EB158"/>
<stop offset="1" stop-color="#ACCA53"/>
</linearGradient>
<linearGradient id="paint5_linear_8190_414" x1="418.954" y1="272.229" x2="471.424" y2="272.229" gradientUnits="userSpaceOnUse">
<stop stop-color="#006D68"/>
<stop offset="0.14" stop-color="#107566"/>
<stop offset="0.4" stop-color="#3A8C60"/>
<stop offset="0.77" stop-color="#7EB158"/>
<stop offset="1" stop-color="#ACCA53"/>
</linearGradient>
<linearGradient id="paint6_linear_8190_414" x1="287.844" y1="244.062" x2="422.917" y2="244.062" gradientUnits="userSpaceOnUse">
<stop stop-color="#006D68"/>
<stop offset="0.14" stop-color="#107566"/>
<stop offset="0.4" stop-color="#3A8C60"/>
<stop offset="0.77" stop-color="#7EB158"/>
<stop offset="1" stop-color="#ACCA53"/>
</linearGradient>
<linearGradient id="paint7_linear_8190_414" x1="305.298" y1="248.03" x2="434.032" y2="248.03" gradientUnits="userSpaceOnUse">
<stop stop-color="#006D68"/>
<stop offset="0.14" stop-color="#107566"/>
<stop offset="0.4" stop-color="#3A8C60"/>
<stop offset="0.77" stop-color="#7EB158"/>
<stop offset="1" stop-color="#ACCA53"/>
</linearGradient>
<linearGradient id="paint8_linear_8190_414" x1="325.176" y1="257.653" x2="451.655" y2="257.653" gradientUnits="userSpaceOnUse">
<stop stop-color="#006D68"/>
<stop offset="0.14" stop-color="#107566"/>
<stop offset="0.4" stop-color="#3A8C60"/>
<stop offset="0.77" stop-color="#7EB158"/>
<stop offset="1" stop-color="#ACCA53"/>
</linearGradient>
<linearGradient id="paint9_linear_8190_414" x1="41.115" y1="127.486" x2="349.466" y2="127.486" gradientUnits="userSpaceOnUse">
<stop stop-color="#006D68"/>
<stop offset="0.14" stop-color="#107566"/>
<stop offset="0.4" stop-color="#3A8C60"/>
<stop offset="0.77" stop-color="#7EB158"/>
<stop offset="1" stop-color="#ACCA53"/>
</linearGradient>
<linearGradient id="paint10_linear_8190_414" x1="53.1993" y1="126.636" x2="340.933" y2="126.636" gradientUnits="userSpaceOnUse">
<stop stop-color="#006D68"/>
<stop offset="0.14" stop-color="#107566"/>
<stop offset="0.4" stop-color="#3A8C60"/>
<stop offset="0.77" stop-color="#7EB158"/>
<stop offset="1" stop-color="#ACCA53"/>
</linearGradient>
<linearGradient id="paint11_linear_8190_414" x1="65.2473" y1="125.787" x2="332.412" y2="125.787" gradientUnits="userSpaceOnUse">
<stop stop-color="#006D68"/>
<stop offset="0.14" stop-color="#107566"/>
<stop offset="0.4" stop-color="#3A8C60"/>
<stop offset="0.77" stop-color="#7EB158"/>
<stop offset="1" stop-color="#ACCA53"/>
</linearGradient>
<linearGradient id="paint12_linear_8190_414" x1="77.2347" y1="124.937" x2="323.891" y2="124.937" gradientUnits="userSpaceOnUse">
<stop stop-color="#006D68"/>
<stop offset="0.14" stop-color="#107566"/>
<stop offset="0.4" stop-color="#3A8C60"/>
<stop offset="0.77" stop-color="#7EB158"/>
<stop offset="1" stop-color="#ACCA53"/>
</linearGradient>
<linearGradient id="paint13_linear_8190_414" x1="89.1493" y1="124.112" x2="315.382" y2="124.112" gradientUnits="userSpaceOnUse">
<stop stop-color="#006D68"/>
<stop offset="0.14" stop-color="#107566"/>
<stop offset="0.4" stop-color="#3A8C60"/>
<stop offset="0.77" stop-color="#7EB158"/>
<stop offset="1" stop-color="#ACCA53"/>
</linearGradient>
<linearGradient id="paint14_linear_8190_414" x1="100.918" y1="123.311" x2="306.886" y2="123.311" gradientUnits="userSpaceOnUse">
<stop stop-color="#006D68"/>
<stop offset="0.14" stop-color="#107566"/>
<stop offset="0.4" stop-color="#3A8C60"/>
<stop offset="0.77" stop-color="#7EB158"/>
<stop offset="1" stop-color="#ACCA53"/>
</linearGradient>
<linearGradient id="paint15_linear_8190_414" x1="112.36" y1="122.535" x2="298.413" y2="122.535" gradientUnits="userSpaceOnUse">
<stop stop-color="#006D68"/>
<stop offset="0.14" stop-color="#107566"/>
<stop offset="0.4" stop-color="#3A8C60"/>
<stop offset="0.77" stop-color="#7EB158"/>
<stop offset="1" stop-color="#ACCA53"/>
</linearGradient>
<linearGradient id="paint16_linear_8190_414" x1="119.79" y1="121.369" x2="288.632" y2="121.369" gradientUnits="userSpaceOnUse">
<stop stop-color="#006D68"/>
<stop offset="0.14" stop-color="#107566"/>
<stop offset="0.4" stop-color="#3A8C60"/>
<stop offset="0.77" stop-color="#7EB158"/>
<stop offset="1" stop-color="#ACCA53"/>
</linearGradient>
<linearGradient id="paint17_linear_8190_414" x1="127.233" y1="120.204" x2="278.899" y2="120.204" gradientUnits="userSpaceOnUse">
<stop stop-color="#006D68"/>
<stop offset="0.14" stop-color="#107566"/>
<stop offset="0.4" stop-color="#3A8C60"/>
<stop offset="0.77" stop-color="#7EB158"/>
<stop offset="1" stop-color="#ACCA53"/>
</linearGradient>
<linearGradient id="paint18_linear_8190_414" x1="142.068" y1="117.886" x2="259.688" y2="117.886" gradientUnits="userSpaceOnUse">
<stop stop-color="#006D68"/>
<stop offset="0.14" stop-color="#107566"/>
<stop offset="0.4" stop-color="#3A8C60"/>
<stop offset="0.77" stop-color="#7EB158"/>
<stop offset="1" stop-color="#ACCA53"/>
</linearGradient>
<linearGradient id="paint19_linear_8190_414" x1="157.85" y1="115.738" x2="240.21" y2="115.738" gradientUnits="userSpaceOnUse">
<stop stop-color="#006D68"/>
<stop offset="0.14" stop-color="#107566"/>
<stop offset="0.4" stop-color="#3A8C60"/>
<stop offset="0.77" stop-color="#7EB158"/>
<stop offset="1" stop-color="#ACCA53"/>
</linearGradient>
<linearGradient id="paint20_linear_8190_414" x1="179.303" y1="115.702" x2="218.72" y2="115.702" gradientUnits="userSpaceOnUse">
<stop stop-color="#006D68"/>
<stop offset="0.14" stop-color="#107566"/>
<stop offset="0.4" stop-color="#3A8C60"/>
<stop offset="0.77" stop-color="#7EB158"/>
<stop offset="1" stop-color="#ACCA53"/>
</linearGradient>
<linearGradient id="paint21_linear_8190_414" x1="50.763" y1="176.83" x2="386.446" y2="176.83" gradientUnits="userSpaceOnUse">
<stop stop-color="#006D68"/>
<stop offset="0.14" stop-color="#107566"/>
<stop offset="0.4" stop-color="#3A8C60"/>
<stop offset="0.77" stop-color="#7EB158"/>
<stop offset="1" stop-color="#ACCA53"/>
</linearGradient>
<linearGradient id="paint22_linear_8190_414" x1="44.8845" y1="161.903" x2="374.689" y2="161.903" gradientUnits="userSpaceOnUse">
<stop stop-color="#006D68"/>
<stop offset="0.14" stop-color="#107566"/>
<stop offset="0.4" stop-color="#3A8C60"/>
<stop offset="0.77" stop-color="#7EB158"/>
<stop offset="1" stop-color="#ACCA53"/>
</linearGradient>
<linearGradient id="paint23_linear_8190_414" x1="37.4787" y1="148.529" x2="360.774" y2="148.529" gradientUnits="userSpaceOnUse">
<stop stop-color="#006D68"/>
<stop offset="0.14" stop-color="#107566"/>
<stop offset="0.4" stop-color="#3A8C60"/>
<stop offset="0.77" stop-color="#7EB158"/>
<stop offset="1" stop-color="#ACCA53"/>
</linearGradient>
<linearGradient id="paint24_linear_8190_414" x1="87.5736" y1="361.256" x2="304.255" y2="361.256" gradientUnits="userSpaceOnUse">
<stop stop-color="#006D68"/>
<stop offset="0.14" stop-color="#107566"/>
<stop offset="0.4" stop-color="#3A8C60"/>
<stop offset="0.77" stop-color="#7EB158"/>
<stop offset="1" stop-color="#ACCA53"/>
</linearGradient>
<linearGradient id="paint25_linear_8190_414" x1="94.2643" y1="369.557" x2="294.195" y2="369.557" gradientUnits="userSpaceOnUse">
<stop stop-color="#006D68"/>
<stop offset="0.14" stop-color="#107566"/>
<stop offset="0.4" stop-color="#3A8C60"/>
<stop offset="0.77" stop-color="#7EB158"/>
<stop offset="1" stop-color="#ACCA53"/>
</linearGradient>
<linearGradient id="paint26_linear_8190_414" x1="102.228" y1="377.166" x2="282.147" y2="377.166" gradientUnits="userSpaceOnUse">
<stop stop-color="#006D68"/>
<stop offset="0.14" stop-color="#107566"/>
<stop offset="0.4" stop-color="#3A8C60"/>
<stop offset="0.77" stop-color="#7EB158"/>
<stop offset="1" stop-color="#ACCA53"/>
</linearGradient>
<linearGradient id="paint27_linear_8190_414" x1="112.057" y1="385.892" x2="269.215" y2="385.892" gradientUnits="userSpaceOnUse">
<stop stop-color="#006D68"/>
<stop offset="0.14" stop-color="#107566"/>
<stop offset="0.4" stop-color="#3A8C60"/>
<stop offset="0.77" stop-color="#7EB158"/>
<stop offset="1" stop-color="#ACCA53"/>
</linearGradient>
<linearGradient id="paint28_linear_8190_414" x1="119.015" y1="390.37" x2="254.076" y2="390.37" gradientUnits="userSpaceOnUse">
<stop stop-color="#006D68"/>
<stop offset="0.14" stop-color="#107566"/>
<stop offset="0.4" stop-color="#3A8C60"/>
<stop offset="0.77" stop-color="#7EB158"/>
<stop offset="1" stop-color="#ACCA53"/>
</linearGradient>
<linearGradient id="paint29_linear_8190_414" x1="130.796" y1="396.947" x2="242.464" y2="396.947" gradientUnits="userSpaceOnUse">
<stop stop-color="#006D68"/>
<stop offset="0.14" stop-color="#107566"/>
<stop offset="0.4" stop-color="#3A8C60"/>
<stop offset="0.77" stop-color="#7EB158"/>
<stop offset="1" stop-color="#ACCA53"/>
</linearGradient>
<linearGradient id="paint30_linear_8190_414" x1="140.784" y1="403.391" x2="231.713" y2="403.391" gradientUnits="userSpaceOnUse">
<stop stop-color="#006D68"/>
<stop offset="0.14" stop-color="#107566"/>
<stop offset="0.4" stop-color="#3A8C60"/>
<stop offset="0.77" stop-color="#7EB158"/>
<stop offset="1" stop-color="#ACCA53"/>
</linearGradient>
<linearGradient id="paint31_linear_8190_414" x1="184.115" y1="313.587" x2="265.069" y2="313.587" gradientUnits="userSpaceOnUse">
<stop stop-color="#006D68"/>
<stop offset="0.14" stop-color="#107566"/>
<stop offset="0.4" stop-color="#3A8C60"/>
<stop offset="0.77" stop-color="#7EB158"/>
<stop offset="1" stop-color="#ACCA53"/>
</linearGradient>
<linearGradient id="paint32_linear_8190_414" x1="70.4107" y1="193.431" x2="397.536" y2="193.431" gradientUnits="userSpaceOnUse">
<stop stop-color="#006D68"/>
<stop offset="0.14" stop-color="#107566"/>
<stop offset="0.4" stop-color="#3A8C60"/>
<stop offset="0.77" stop-color="#7EB158"/>
<stop offset="1" stop-color="#ACCA53"/>
</linearGradient>
<linearGradient id="paint33_linear_8190_414" x1="263.36" y1="237.605" x2="406.312" y2="237.605" gradientUnits="userSpaceOnUse">
<stop stop-color="#006D68"/>
<stop offset="0.14" stop-color="#107566"/>
<stop offset="0.4" stop-color="#3A8C60"/>
<stop offset="0.77" stop-color="#7EB158"/>
<stop offset="1" stop-color="#ACCA53"/>
</linearGradient>
<linearGradient id="paint34_linear_8190_414" x1="221.738" y1="276.221" x2="272.027" y2="276.221" gradientUnits="userSpaceOnUse">
<stop stop-color="#006D68"/>
<stop offset="0.14" stop-color="#107566"/>
<stop offset="0.4" stop-color="#3A8C60"/>
<stop offset="0.77" stop-color="#7EB158"/>
<stop offset="1" stop-color="#ACCA53"/>
</linearGradient>
<linearGradient id="paint35_linear_8190_414" x1="152" y1="61.5308" x2="152" y2="89.5308" gradientUnits="userSpaceOnUse">
<stop stop-color="white" stop-opacity="0.12"/>
<stop offset="1" stop-color="white" stop-opacity="0"/>
</linearGradient>
<linearGradient id="paint36_linear_8190_414" x1="475" y1="315.625" x2="475" y2="343.625" gradientUnits="userSpaceOnUse">
<stop stop-color="white" stop-opacity="0.12"/>
<stop offset="1" stop-color="white" stop-opacity="0"/>
</linearGradient>
<linearGradient id="paint37_linear_8190_414" x1="128" y1="331.625" x2="128" y2="359.625" gradientUnits="userSpaceOnUse">
<stop stop-color="white" stop-opacity="0.12"/>
<stop offset="1" stop-color="white" stop-opacity="0"/>
</linearGradient>
<linearGradient id="paint38_linear_8190_414" x1="461" y1="85.6255" x2="461" y2="113.625" gradientUnits="userSpaceOnUse">
<stop stop-color="white" stop-opacity="0.12"/>
<stop offset="1" stop-color="white" stop-opacity="0"/>
</linearGradient>
<linearGradient id="paint39_linear_8190_414" x1="309" y1="196.625" x2="309" y2="224.625" gradientUnits="userSpaceOnUse">
<stop stop-color="white" stop-opacity="0.12"/>
<stop offset="1" stop-color="white" stop-opacity="0"/>
</linearGradient>
<clipPath id="clip0_8190_414">
<rect width="437" height="436" fill="white" transform="translate(36)"/>
</clipPath>
</defs>
</svg>
