<svg width="590" height="379" viewBox="0 0 590 379" fill="none" xmlns="http://www.w3.org/2000/svg">
<path d="M155.24 242.72L135.48 255.71H31.62V67.1698L50.25 55.3198H155.24V242.72Z" fill="#00524F" stroke="#013834" stroke-width="1.05" stroke-miterlimit="10"/>
<path d="M135.2 67.71H30.34V256.78H135.2V67.71Z" stroke="#013834" stroke-width="1.01" stroke-linecap="round" stroke-linejoin="round"/>
<path d="M62.4 143.86V123.6C62.4 108.67 74.55 111.08 89.39 111.08H95.88C98.24 111.08 100.6 111.06 102.96 111.08C106.12 111.1 109.42 110.51 109.74 106.54V76.0701" stroke="#006D68" stroke-width="1.01" stroke-linecap="round" stroke-linejoin="round"/>
<path d="M63.54 143.81C63.54 144.44 63.03 144.95 62.4 144.95C61.77 144.95 61.26 144.44 61.26 143.81C61.26 143.18 61.77 142.67 62.4 142.67C63.03 142.67 63.54 143.18 63.54 143.81Z" fill="#006D68"/>
<path d="M109.75 77.27C110.38 77.27 110.89 76.7596 110.89 76.13C110.89 75.5004 110.38 74.99 109.75 74.99C109.12 74.99 108.61 75.5004 108.61 76.13C108.61 76.7596 109.12 77.27 109.75 77.27Z" fill="#006D68"/>
<path d="M65.39 143.86V123.6C65.39 108.67 77.54 111.08 92.38 111.08H103.8" stroke="#006D68" stroke-width="1.01" stroke-linecap="round" stroke-linejoin="round"/>
<path d="M66.53 143.81C66.53 144.44 66.02 144.95 65.39 144.95C64.76 144.95 64.25 144.44 64.25 143.81C64.25 143.18 64.76 142.67 65.39 142.67C66.02 142.67 66.53 143.18 66.53 143.81Z" fill="#006D68"/>
<path d="M103.74 112.22C104.37 112.22 104.88 111.71 104.88 111.08C104.88 110.45 104.37 109.94 103.74 109.94C103.11 109.94 102.6 110.45 102.6 111.08C102.6 111.71 103.11 112.22 103.74 112.22Z" fill="#006D68"/>
<path d="M59.41 143.86V123.6C59.41 108.67 71.56 111.08 86.4 111.08H103.8" stroke="#006D68" stroke-width="1.01" stroke-linecap="round" stroke-linejoin="round"/>
<path d="M60.55 143.81C60.55 144.44 60.04 144.95 59.41 144.95C58.78 144.95 58.27 144.44 58.27 143.81C58.27 143.18 58.78 142.67 59.41 142.67C60.04 142.67 60.55 143.18 60.55 143.81Z" fill="#006D68"/>
<path d="M103.74 112.22C104.37 112.22 104.88 111.71 104.88 111.08C104.88 110.45 104.37 109.94 103.74 109.94C103.11 109.94 102.6 110.45 102.6 111.08C102.6 111.71 103.11 112.22 103.74 112.22Z" fill="#006D68"/>
<path d="M62.4 186.24V165.98C62.4 151.05 74.55 153.46 89.39 153.46H95.88C98.24 153.46 100.6 153.44 102.96 153.46C106.12 153.48 109.42 152.89 109.74 148.92V113" stroke="#006D68" stroke-width="1.01" stroke-linecap="round" stroke-linejoin="round"/>
<path d="M62.4 187.32C63.0296 187.32 63.54 186.81 63.54 186.18C63.54 185.55 63.0296 185.04 62.4 185.04C61.7704 185.04 61.26 185.55 61.26 186.18C61.26 186.81 61.7704 187.32 62.4 187.32Z" fill="#006D68"/>
<path d="M110.89 113.06C110.89 112.43 110.38 111.92 109.75 111.92C109.12 111.92 108.61 112.43 108.61 113.06C108.61 113.69 109.12 114.2 109.75 114.2C110.38 114.2 110.89 113.69 110.89 113.06Z" fill="#006D68"/>
<path d="M65.39 186.24V165.98C65.39 151.05 77.54 153.46 92.38 153.46H103.8" stroke="#006D68" stroke-width="1.01" stroke-linecap="round" stroke-linejoin="round"/>
<path d="M66.53 186.18C66.53 186.81 66.02 187.32 65.39 187.32C64.76 187.32 64.25 186.81 64.25 186.18C64.25 185.55 64.76 185.04 65.39 185.04C66.02 185.04 66.53 185.55 66.53 186.18Z" fill="#006D68"/>
<path d="M103.74 154.6C104.37 154.6 104.88 154.089 104.88 153.46C104.88 152.83 104.37 152.32 103.74 152.32C103.11 152.32 102.6 152.83 102.6 153.46C102.6 154.089 103.11 154.6 103.74 154.6Z" fill="#006D68"/>
<path d="M59.41 186.24V165.98C59.41 151.05 71.56 153.46 86.4 153.46H103.8" stroke="#006D68" stroke-width="1.01" stroke-linecap="round" stroke-linejoin="round"/>
<path d="M60.55 186.18C60.55 186.81 60.04 187.32 59.41 187.32C58.78 187.32 58.27 186.81 58.27 186.18C58.27 185.55 58.78 185.04 59.41 185.04C60.04 185.04 60.55 185.55 60.55 186.18Z" fill="#006D68"/>
<path d="M103.74 154.6C104.37 154.6 104.88 154.089 104.88 153.46C104.88 152.83 104.37 152.32 103.74 152.32C103.11 152.32 102.6 152.83 102.6 153.46C102.6 154.089 103.11 154.6 103.74 154.6Z" fill="#006D68"/>
<path d="M134.67 68.26H30.93V75.81H134.67V68.26Z" fill="#003834"/>
<path d="M154.67 54.9099H49.71L30.34 67.4399H135.31L154.67 54.9099Z" stroke="#013834" stroke-width="1.01" stroke-linecap="round" stroke-linejoin="round"/>
<path d="M155.37 54.9099L154.88 243.98L135.45 256.5L135.94 67.4399L155.37 54.9099Z" stroke="#013834" stroke-width="1.01" stroke-linecap="round" stroke-linejoin="round"/>
<path d="M62.4 228.61V208.35C62.4 193.42 74.55 195.83 89.39 195.83H95.88C98.24 195.83 100.6 195.81 102.96 195.83C106.12 195.85 109.42 195.26 109.74 191.29V155.37" stroke="#006D68" stroke-width="1.01" stroke-linecap="round" stroke-linejoin="round"/>
<path d="M63.54 228.56C63.54 229.19 63.03 229.7 62.4 229.7C61.77 229.7 61.26 229.19 61.26 228.56C61.26 227.93 61.77 227.42 62.4 227.42C63.03 227.42 63.54 227.93 63.54 228.56Z" fill="#006D68"/>
<path d="M109.75 156.57C110.38 156.57 110.89 156.059 110.89 155.43C110.89 154.8 110.38 154.29 109.75 154.29C109.12 154.29 108.61 154.8 108.61 155.43C108.61 156.059 109.12 156.57 109.75 156.57Z" fill="#006D68"/>
<path d="M65.39 228.61V208.35C65.39 193.42 77.54 195.83 92.38 195.83H103.8" stroke="#006D68" stroke-width="1.01" stroke-linecap="round" stroke-linejoin="round"/>
<path d="M66.53 228.56C66.53 229.19 66.02 229.7 65.39 229.7C64.76 229.7 64.25 229.19 64.25 228.56C64.25 227.93 64.76 227.42 65.39 227.42C66.02 227.42 66.53 227.93 66.53 228.56Z" fill="#006D68"/>
<path d="M103.74 196.97C104.37 196.97 104.88 196.46 104.88 195.83C104.88 195.2 104.37 194.69 103.74 194.69C103.11 194.69 102.6 195.2 102.6 195.83C102.6 196.46 103.11 196.97 103.74 196.97Z" fill="#006D68"/>
<path d="M59.41 228.61V208.35C59.41 193.42 71.56 195.83 86.4 195.83H103.8" stroke="#006D68" stroke-width="1.01" stroke-linecap="round" stroke-linejoin="round"/>
<path d="M60.55 228.56C60.55 229.19 60.04 229.7 59.41 229.7C58.78 229.7 58.27 229.19 58.27 228.56C58.27 227.93 58.78 227.42 59.41 227.42C60.04 227.42 60.55 227.93 60.55 228.56Z" fill="#006D68"/>
<path d="M103.74 196.97C104.37 196.97 104.88 196.46 104.88 195.83C104.88 195.2 104.37 194.69 103.74 194.69C103.11 194.69 102.6 195.2 102.6 195.83C102.6 196.46 103.11 196.97 103.74 196.97Z" fill="#006D68"/>
<path d="M127.02 91.3198H38.52C37.1558 91.3198 36.05 92.4257 36.05 93.7898V117.52C36.05 118.884 37.1558 119.99 38.52 119.99H127.02C128.384 119.99 129.49 118.884 129.49 117.52V93.7898C129.49 92.4257 128.384 91.3198 127.02 91.3198Z" fill="#006E69"/>
<path d="M127.02 133.69H38.52C37.1558 133.69 36.05 134.796 36.05 136.16V159.89C36.05 161.254 37.1558 162.36 38.52 162.36H127.02C128.384 162.36 129.49 161.254 129.49 159.89V136.16C129.49 134.796 128.384 133.69 127.02 133.69Z" fill="#006E69"/>
<path d="M127.02 176.07H38.52C37.1558 176.07 36.05 177.176 36.05 178.54V202.27C36.05 203.634 37.1558 204.74 38.52 204.74H127.02C128.384 204.74 129.49 203.634 129.49 202.27V178.54C129.49 177.176 128.384 176.07 127.02 176.07Z" fill="#006E69"/>
<path d="M127.02 218.44H38.52C37.1558 218.44 36.05 219.546 36.05 220.91V244.64C36.05 246.004 37.1558 247.11 38.52 247.11H127.02C128.384 247.11 129.49 246.004 129.49 244.64V220.91C129.49 219.546 128.384 218.44 127.02 218.44Z" fill="#006E69"/>
<path d="M127.02 87.7H38.52C37.1558 87.7 36.05 88.8058 36.05 90.17V113.9C36.05 115.264 37.1558 116.37 38.52 116.37H127.02C128.384 116.37 129.49 115.264 129.49 113.9V90.17C129.49 88.8058 128.384 87.7 127.02 87.7Z" fill="#003834"/>
<path d="M65.82 105.47H45.15C43.25 105.47 41.7 103.93 41.7 102.02C41.7 100.11 43.24 98.5698 45.15 98.5698H65.82C67.72 98.5698 69.27 100.11 69.27 102.02C69.27 103.93 67.73 105.47 65.82 105.47Z" fill="#006D68"/>
<path d="M83.04 105.55H77.3C75.4 105.55 73.85 104.01 73.85 102.1C73.85 100.19 75.39 98.6499 77.3 98.6499H83.04C84.94 98.6499 86.49 100.19 86.49 102.1C86.49 104.01 84.95 105.55 83.04 105.55Z" stroke="#006D68" stroke-width="0.99" stroke-linecap="round" stroke-linejoin="round"/>
<path d="M80.27 102.79V83.9298C80.27 72.2098 92.42 74.3298 107.26 74.3298H127.62" stroke="#006D68" stroke-width="0.89" stroke-linecap="round" stroke-linejoin="round"/>
<path d="M81.28 102.74C81.28 103.3 80.83 103.75 80.27 103.75C79.71 103.75 79.26 103.3 79.26 102.74C79.26 102.18 79.71 101.73 80.27 101.73C80.83 101.73 81.28 102.18 81.28 102.74Z" fill="#006D68"/>
<path d="M83.26 102.79V83.9297C83.26 72.2097 95.41 74.9897 110.25 74.9897H127.62" stroke="#006D68" stroke-width="0.89" stroke-linecap="round" stroke-linejoin="round"/>
<path d="M84.27 102.74C84.27 103.3 83.82 103.75 83.26 103.75C82.7 103.75 82.25 103.3 82.25 102.74C82.25 102.18 82.7 101.73 83.26 101.73C83.82 101.73 84.27 102.18 84.27 102.74Z" fill="#006D68"/>
<path d="M77.28 102.79V83.9298C77.28 72.2098 89.43 74.3298 104.27 74.3298H127.62" stroke="#006D68" stroke-width="0.89" stroke-linecap="round" stroke-linejoin="round"/>
<path d="M77.28 103.75C77.8378 103.75 78.29 103.298 78.29 102.74C78.29 102.182 77.8378 101.73 77.28 101.73C76.7222 101.73 76.27 102.182 76.27 102.74C76.27 103.298 76.7222 103.75 77.28 103.75Z" fill="#006D68"/>
<path d="M125.27 96.9299H96.58V107.13H125.27V96.9299Z" fill="#00524F" stroke="#013834" stroke-width="1.05" stroke-miterlimit="10"/>
<path d="M100.84 102.03H121.01" stroke="#006D68" stroke-width="0.89" stroke-linecap="round" stroke-linejoin="round"/>
<circle cx="46.26" cy="102.03" r="0.99" fill="#AFD3D0"/>
<path d="M52.6 102.03H62.09" stroke="#AFD3D0" stroke-width="1.98" stroke-linecap="round" stroke-linejoin="round"/>
<circle cx="65.26" cy="102.03" r="0.99" fill="#AFD3D0"/>
<path d="M127.02 130.07H38.52C37.1558 130.07 36.05 131.176 36.05 132.54V156.27C36.05 157.634 37.1558 158.74 38.52 158.74H127.02C128.384 158.74 129.49 157.634 129.49 156.27V132.54C129.49 131.176 128.384 130.07 127.02 130.07Z" fill="#003834"/>
<path d="M125.27 139.3H96.58V149.5H125.27V139.3Z" fill="#00524F" stroke="#013834" stroke-width="1.05" stroke-miterlimit="10"/>
<path d="M100.84 144.4H121.01" stroke="#006D68" stroke-width="0.89" stroke-linecap="round" stroke-linejoin="round"/>
<path d="M65.82 147.85H45.15C43.25 147.85 41.7 146.31 41.7 144.4C41.7 142.49 43.24 140.95 45.15 140.95H65.82C67.72 140.95 69.27 142.49 69.27 144.4C69.27 146.31 67.73 147.85 65.82 147.85Z" fill="#006D68"/>
<path d="M83.04 147.85H77.3C75.4 147.85 73.85 146.31 73.85 144.4C73.85 142.49 75.39 140.95 77.3 140.95H83.04C84.94 140.95 86.49 142.49 86.49 144.4C86.49 146.31 84.95 147.85 83.04 147.85Z" stroke="#006D68" stroke-width="0.99" stroke-linecap="round" stroke-linejoin="round"/>
<circle cx="46.26" cy="144.4" r="0.99" fill="#AFD3D0"/>
<path d="M52.6 144.4H62.09" stroke="#AFD3D0" stroke-width="1.98" stroke-linecap="round" stroke-linejoin="round"/>
<circle cx="65.26" cy="144.4" r="0.99" fill="#AFD3D0"/>
<path d="M80.27 143.99V123.61C80.27 108.68 92.42 111.09 107.26 111.09H113.75C116.11 111.09 118.47 111.07 120.83 111.09C123.99 111.11 127.29 110.52 127.61 106.55V74.6399" stroke="#006D68" stroke-width="0.89" stroke-linecap="round" stroke-linejoin="round"/>
<path d="M81.28 143.94C81.28 144.5 80.83 144.95 80.27 144.95C79.71 144.95 79.26 144.5 79.26 143.94C79.26 143.38 79.71 142.93 80.27 142.93C80.83 142.93 81.28 143.38 81.28 143.94Z" fill="#006D68"/>
<path d="M128.63 74.6899C128.63 74.1299 128.18 73.6799 127.62 73.6799C127.06 73.6799 126.61 74.1299 126.61 74.6899C126.61 75.2499 127.06 75.6999 127.62 75.6999C128.18 75.6999 128.63 75.2499 128.63 74.6899Z" fill="#006D68"/>
<path d="M83.26 143.99V123.61C83.26 108.68 95.41 111.09 110.25 111.09H121.79" stroke="#006D68" stroke-width="0.89" stroke-linecap="round" stroke-linejoin="round"/>
<path d="M84.27 143.94C84.27 144.5 83.82 144.95 83.26 144.95C82.7 144.95 82.25 144.5 82.25 143.94C82.25 143.38 82.7 142.93 83.26 142.93C83.82 142.93 84.27 143.38 84.27 143.94Z" fill="#006D68"/>
<path d="M121.74 112.09C122.3 112.09 122.75 111.64 122.75 111.08C122.75 110.52 122.3 110.07 121.74 110.07C121.18 110.07 120.73 110.52 120.73 111.08C120.73 111.64 121.18 112.09 121.74 112.09Z" fill="#006D68"/>
<path d="M77.28 143.99V123.61C77.28 108.68 89.43 111.09 104.27 111.09H121.79" stroke="#006D68" stroke-width="0.89" stroke-linecap="round" stroke-linejoin="round"/>
<path d="M78.29 143.94C78.29 144.5 77.84 144.95 77.28 144.95C76.72 144.95 76.27 144.5 76.27 143.94C76.27 143.38 76.72 142.93 77.28 142.93C77.84 142.93 78.29 143.38 78.29 143.94Z" fill="#006D68"/>
<path d="M121.74 112.09C122.3 112.09 122.75 111.64 122.75 111.08C122.75 110.52 122.3 110.07 121.74 110.07C121.18 110.07 120.73 110.52 120.73 111.08C120.73 111.64 121.18 112.09 121.74 112.09Z" fill="#006D68"/>
<path d="M127.02 172.45H38.52C37.1558 172.45 36.05 173.556 36.05 174.92V198.65C36.05 200.014 37.1558 201.12 38.52 201.12H127.02C128.384 201.12 129.49 200.014 129.49 198.65V174.92C129.49 173.556 128.384 172.45 127.02 172.45Z" fill="#003834"/>
<path d="M125.27 181.68H96.58V191.88H125.27V181.68Z" fill="#00524F" stroke="#013834" stroke-width="1.05" stroke-miterlimit="10"/>
<path d="M100.84 186.78H121.01" stroke="#006D68" stroke-width="0.89" stroke-linecap="round" stroke-linejoin="round"/>
<path d="M65.82 190.22H45.15C43.25 190.22 41.7 188.68 41.7 186.77C41.7 184.86 43.24 183.32 45.15 183.32H65.82C67.72 183.32 69.27 184.86 69.27 186.77C69.27 188.68 67.73 190.22 65.82 190.22Z" fill="#006D68"/>
<path d="M83.04 190.22H77.3C75.4 190.22 73.85 188.68 73.85 186.77C73.85 184.86 75.39 183.32 77.3 183.32H83.04C84.94 183.32 86.49 184.86 86.49 186.77C86.49 188.68 84.95 190.22 83.04 190.22Z" stroke="#006D68" stroke-width="0.99" stroke-linecap="round" stroke-linejoin="round"/>
<circle cx="46.26" cy="186.78" r="0.99" fill="#AFD3D0"/>
<path d="M52.6 186.78H62.09" stroke="#AFD3D0" stroke-width="1.98" stroke-linecap="round" stroke-linejoin="round"/>
<circle cx="65.26" cy="186.78" r="0.99" fill="#AFD3D0"/>
<path d="M127.02 214.82H38.52C37.1558 214.82 36.05 215.926 36.05 217.29V241.02C36.05 242.384 37.1558 243.49 38.52 243.49H127.02C128.384 243.49 129.49 242.384 129.49 241.02V217.29C129.49 215.926 128.384 214.82 127.02 214.82Z" fill="#003834"/>
<path d="M125.27 224.05H96.58V234.25H125.27V224.05Z" fill="#00524F" stroke="#013834" stroke-width="1.05" stroke-miterlimit="10"/>
<path d="M100.84 229.15H121.01" stroke="#006D68" stroke-width="0.89" stroke-linecap="round" stroke-linejoin="round"/>
<path d="M65.82 232.6H45.15C43.25 232.6 41.7 231.06 41.7 229.15C41.7 227.24 43.24 225.7 45.15 225.7H65.82C67.72 225.7 69.27 227.24 69.27 229.15C69.27 231.06 67.73 232.6 65.82 232.6Z" fill="#006D68"/>
<path d="M83.04 232.6H77.3C75.4 232.6 73.85 231.06 73.85 229.15C73.85 227.24 75.39 225.7 77.3 225.7H83.04C84.94 225.7 86.49 227.24 86.49 229.15C86.49 231.06 84.95 232.6 83.04 232.6Z" stroke="#006D68" stroke-width="0.99" stroke-linecap="round" stroke-linejoin="round"/>
<path d="M46.27 230.14C46.01 230.14 45.75 230.03 45.57 229.85C45.52 229.8 45.48 229.75 45.44 229.7C45.4 229.65 45.37 229.59 45.35 229.53C45.32 229.47 45.3 229.4 45.29 229.34C45.29 229.28 45.27 229.21 45.27 229.15C45.27 228.89 45.38 228.64 45.56 228.45C45.79 228.22 46.13 228.11 46.45 228.18C46.51 228.18 46.58 228.21 46.63 228.24C46.69 228.26 46.75 228.3 46.8 228.33C46.86 228.37 46.91 228.41 46.95 228.46C47.13 228.64 47.24 228.9 47.24 229.16C47.24 229.22 47.24 229.29 47.22 229.35C47.2 229.41 47.19 229.48 47.16 229.54C47.13 229.6 47.1 229.66 47.07 229.71C47.03 229.77 46.99 229.82 46.95 229.86C46.9 229.91 46.85 229.95 46.8 229.98C46.75 230.02 46.69 230.05 46.63 230.07C46.57 230.09 46.51 230.11 46.45 230.13C46.39 230.15 46.32 230.15 46.26 230.15L46.27 230.14Z" fill="#AFD3D0"/>
<path d="M57.94 229.15C57.94 228.6 58.38 228.16 58.93 228.16C59.47 228.16 59.91 228.6 59.91 229.15C59.91 229.69 59.47 230.14 58.93 230.14C58.38 230.14 57.94 229.7 57.94 229.15ZM51.61 229.15C51.61 228.6 52.05 228.16 52.6 228.16C53.15 228.16 53.59 228.6 53.59 229.15C53.59 229.69 53.15 230.14 52.6 230.14C52.05 230.14 51.61 229.7 51.61 229.15Z" fill="#AFD3D0" stroke="#AFD3D0" stroke-width="1.21" stroke-linecap="round" stroke-linejoin="round"/>
<path d="M65.26 230.14C65 230.14 64.75 230.03 64.56 229.85C64.51 229.8 64.47 229.75 64.43 229.7C64.4 229.65 64.36 229.59 64.34 229.53C64.31 229.47 64.3 229.4 64.28 229.34C64.26 229.28 64.26 229.21 64.26 229.15C64.26 228.89 64.37 228.64 64.55 228.45C64.6 228.4 64.65 228.36 64.7 228.32C64.76 228.29 64.81 228.25 64.87 228.23C64.93 228.2 64.99 228.18 65.05 228.17C65.18 228.14 65.31 228.14 65.44 228.17C65.5 228.17 65.57 228.2 65.62 228.23C65.68 228.25 65.74 228.29 65.79 228.32C65.85 228.36 65.9 228.4 65.94 228.45C66.12 228.63 66.23 228.89 66.23 229.15C66.23 229.41 66.12 229.66 65.94 229.85C65.89 229.9 65.84 229.94 65.79 229.97C65.74 230.01 65.68 230.04 65.62 230.06C65.56 230.08 65.5 230.1 65.44 230.12C65.37 230.13 65.31 230.14 65.25 230.14H65.26Z" fill="#AFD3D0"/>
<path d="M80.27 186.24V165.98C80.27 151.05 92.42 153.46 107.26 153.46H113.75C116.11 153.46 118.47 153.44 120.83 153.46C123.99 153.48 127.29 152.89 127.61 148.92V119.44" stroke="#006D68" stroke-width="1.01" stroke-linecap="round" stroke-linejoin="round"/>
<path d="M81.41 186.18C81.41 186.81 80.9 187.32 80.27 187.32C79.64 187.32 79.13 186.81 79.13 186.18C79.13 185.55 79.64 185.04 80.27 185.04C80.9 185.04 81.41 185.55 81.41 186.18Z" fill="#006D68"/>
<path d="M128.76 119.5C128.76 118.87 128.25 118.36 127.62 118.36C126.99 118.36 126.48 118.87 126.48 119.5C126.48 120.13 126.99 120.64 127.62 120.64C128.25 120.64 128.76 120.13 128.76 119.5Z" fill="#006D68"/>
<path d="M83.26 186.24V165.98C83.26 151.05 95.41 153.46 110.25 153.46H121.67" stroke="#006D68" stroke-width="1.01" stroke-linecap="round" stroke-linejoin="round"/>
<path d="M83.26 187.32C83.8896 187.32 84.4 186.809 84.4 186.18C84.4 185.55 83.8896 185.04 83.26 185.04C82.6304 185.04 82.12 185.55 82.12 186.18C82.12 186.809 82.6304 187.32 83.26 187.32Z" fill="#006D68"/>
<path d="M121.61 154.6C122.24 154.6 122.75 154.089 122.75 153.46C122.75 152.83 122.24 152.32 121.61 152.32C120.98 152.32 120.47 152.83 120.47 153.46C120.47 154.089 120.98 154.6 121.61 154.6Z" fill="#006D68"/>
<path d="M77.28 186.24V165.98C77.28 151.05 89.43 153.46 104.27 153.46H121.67" stroke="#006D68" stroke-width="1.01" stroke-linecap="round" stroke-linejoin="round"/>
<path d="M77.28 187.32C77.9096 187.32 78.42 186.809 78.42 186.18C78.42 185.55 77.9096 185.04 77.28 185.04C76.6504 185.04 76.14 185.55 76.14 186.18C76.14 186.809 76.6504 187.32 77.28 187.32Z" fill="#006D68"/>
<path d="M121.61 154.6C122.24 154.6 122.75 154.089 122.75 153.46C122.75 152.83 122.24 152.32 121.61 152.32C120.98 152.32 120.47 152.83 120.47 153.46C120.47 154.089 120.98 154.6 121.61 154.6Z" fill="#006D68"/>
<path d="M80.27 228.74V208.36C80.27 193.43 92.42 195.84 107.26 195.84H113.75C116.11 195.84 118.47 195.82 120.83 195.84C123.99 195.86 127.29 195.27 127.61 191.3V161.7" stroke="#006D68" stroke-width="0.89" stroke-linecap="round" stroke-linejoin="round"/>
<path d="M81.28 228.69C81.28 229.25 80.83 229.7 80.27 229.7C79.71 229.7 79.26 229.25 79.26 228.69C79.26 228.13 79.71 227.68 80.27 227.68C80.83 227.68 81.28 228.13 81.28 228.69Z" fill="#006D68"/>
<path d="M128.63 161.74C128.63 161.18 128.18 160.73 127.62 160.73C127.06 160.73 126.61 161.18 126.61 161.74C126.61 162.3 127.06 162.75 127.62 162.75C128.18 162.75 128.63 162.3 128.63 161.74Z" fill="#006D68"/>
<path d="M83.26 228.74V208.36C83.26 193.43 95.41 195.84 110.25 195.84H121.79" stroke="#006D68" stroke-width="0.89" stroke-linecap="round" stroke-linejoin="round"/>
<path d="M84.27 228.69C84.27 229.25 83.82 229.7 83.26 229.7C82.7 229.7 82.25 229.25 82.25 228.69C82.25 228.13 82.7 227.68 83.26 227.68C83.82 227.68 84.27 228.13 84.27 228.69Z" fill="#006D68"/>
<path d="M121.74 196.84C122.3 196.84 122.75 196.39 122.75 195.83C122.75 195.27 122.3 194.82 121.74 194.82C121.18 194.82 120.73 195.27 120.73 195.83C120.73 196.39 121.18 196.84 121.74 196.84Z" fill="#006D68"/>
<path d="M77.28 228.74V208.36C77.28 193.43 89.43 195.84 104.27 195.84H121.79" stroke="#006D68" stroke-width="0.89" stroke-linecap="round" stroke-linejoin="round"/>
<path d="M78.29 228.69C78.29 229.25 77.84 229.7 77.28 229.7C76.72 229.7 76.27 229.25 76.27 228.69C76.27 228.13 76.72 227.68 77.28 227.68C77.84 227.68 78.29 228.13 78.29 228.69Z" fill="#006D68"/>
<path d="M121.74 196.84C122.3 196.84 122.75 196.39 122.75 195.83C122.75 195.27 122.3 194.82 121.74 194.82C121.18 194.82 120.73 195.27 120.73 195.83C120.73 196.39 121.18 196.84 121.74 196.84Z" fill="#006D68"/>
<path d="M108.35 238.21H113.76C116.12 238.21 118.48 238.19 120.84 238.21C124 238.23 127.3 237.64 127.62 233.67V204.19" stroke="#006D68" stroke-width="1.01" stroke-linecap="round" stroke-linejoin="round"/>
<path d="M108.4 239.35C109.03 239.35 109.54 238.839 109.54 238.21C109.54 237.58 109.03 237.07 108.4 237.07C107.77 237.07 107.26 237.58 107.26 238.21C107.26 238.839 107.77 239.35 108.4 239.35Z" fill="#006D68"/>
<path d="M128.76 204.25C128.76 203.62 128.25 203.11 127.62 203.11C126.99 203.11 126.48 203.62 126.48 204.25C126.48 204.88 126.99 205.39 127.62 205.39C128.25 205.39 128.76 204.88 128.76 204.25Z" fill="#006D68"/>
<path d="M111.34 238.21H121.67" stroke="#006D68" stroke-width="1.01" stroke-linecap="round" stroke-linejoin="round"/>
<path d="M111.39 239.35C112.02 239.35 112.53 238.839 112.53 238.21C112.53 237.58 112.02 237.07 111.39 237.07C110.76 237.07 110.25 237.58 110.25 238.21C110.25 238.839 110.76 239.35 111.39 239.35Z" fill="#006D68"/>
<path d="M121.61 239.35C122.24 239.35 122.75 238.839 122.75 238.21C122.75 237.58 122.24 237.07 121.61 237.07C120.98 237.07 120.47 237.58 120.47 238.21C120.47 238.839 120.98 239.35 121.61 239.35Z" fill="#006D68"/>
<path d="M105.36 238.21H121.67" stroke="#006D68" stroke-width="1.01" stroke-linecap="round" stroke-linejoin="round"/>
<path d="M105.41 239.35C106.04 239.35 106.55 238.839 106.55 238.21C106.55 237.58 106.04 237.07 105.41 237.07C104.78 237.07 104.27 237.58 104.27 238.21C104.27 238.839 104.78 239.35 105.41 239.35Z" fill="#006D68"/>
<path d="M121.61 239.35C122.24 239.35 122.75 238.839 122.75 238.21C122.75 237.58 122.24 237.07 121.61 237.07C120.98 237.07 120.47 237.58 120.47 238.21C120.47 238.839 120.98 239.35 121.61 239.35Z" fill="#006D68"/>
<path d="M279.66 242.72L259.9 255.71H156.04V67.1698L174.66 55.3198H279.66V242.72Z" fill="#00524F" stroke="#013834" stroke-width="1.05" stroke-miterlimit="10"/>
<path d="M259.62 67.71H154.76V256.78H259.62V67.71Z" stroke="#013834" stroke-width="1.01" stroke-linecap="round" stroke-linejoin="round"/>
<path d="M186.82 143.86V123.6C186.82 108.67 198.97 111.08 213.81 111.08H220.3C222.66 111.08 225.02 111.06 227.38 111.08C230.54 111.1 233.84 110.51 234.16 106.54V76.0701" stroke="#006D68" stroke-width="1.01" stroke-linecap="round" stroke-linejoin="round"/>
<path d="M187.95 143.81C187.95 144.44 187.44 144.95 186.81 144.95C186.18 144.95 185.67 144.44 185.67 143.81C185.67 143.18 186.18 142.67 186.81 142.67C187.44 142.67 187.95 143.18 187.95 143.81Z" fill="#006D68"/>
<path d="M234.17 77.27C234.8 77.27 235.31 76.7596 235.31 76.13C235.31 75.5004 234.8 74.99 234.17 74.99C233.54 74.99 233.03 75.5004 233.03 76.13C233.03 76.7596 233.54 77.27 234.17 77.27Z" fill="#006D68"/>
<path d="M189.81 143.86V123.6C189.81 108.67 201.96 111.08 216.8 111.08H228.22" stroke="#006D68" stroke-width="1.01" stroke-linecap="round" stroke-linejoin="round"/>
<path d="M190.95 143.81C190.95 144.44 190.44 144.95 189.81 144.95C189.18 144.95 188.67 144.44 188.67 143.81C188.67 143.18 189.18 142.67 189.81 142.67C190.44 142.67 190.95 143.18 190.95 143.81Z" fill="#006D68"/>
<path d="M228.16 112.22C228.79 112.22 229.3 111.71 229.3 111.08C229.3 110.45 228.79 109.94 228.16 109.94C227.53 109.94 227.02 110.45 227.02 111.08C227.02 111.71 227.53 112.22 228.16 112.22Z" fill="#006D68"/>
<path d="M183.83 143.86V123.6C183.83 108.67 195.98 111.08 210.82 111.08H228.22" stroke="#006D68" stroke-width="1.01" stroke-linecap="round" stroke-linejoin="round"/>
<path d="M184.96 143.81C184.96 144.44 184.45 144.95 183.82 144.95C183.19 144.95 182.68 144.44 182.68 143.81C182.68 143.18 183.19 142.67 183.82 142.67C184.45 142.67 184.96 143.18 184.96 143.81Z" fill="#006D68"/>
<path d="M228.16 112.22C228.79 112.22 229.3 111.71 229.3 111.08C229.3 110.45 228.79 109.94 228.16 109.94C227.53 109.94 227.02 110.45 227.02 111.08C227.02 111.71 227.53 112.22 228.16 112.22Z" fill="#006D68"/>
<path d="M186.82 186.24V165.98C186.82 151.05 198.97 153.46 213.81 153.46H220.3C222.66 153.46 225.02 153.44 227.38 153.46C230.54 153.48 233.84 152.89 234.16 148.92V113" stroke="#006D68" stroke-width="1.01" stroke-linecap="round" stroke-linejoin="round"/>
<path d="M186.82 187.32C187.45 187.32 187.96 186.81 187.96 186.18C187.96 185.55 187.45 185.04 186.82 185.04C186.19 185.04 185.68 185.55 185.68 186.18C185.68 186.81 186.19 187.32 186.82 187.32Z" fill="#006D68"/>
<path d="M235.31 113.06C235.31 112.43 234.8 111.92 234.17 111.92C233.54 111.92 233.03 112.43 233.03 113.06C233.03 113.69 233.54 114.2 234.17 114.2C234.8 114.2 235.31 113.69 235.31 113.06Z" fill="#006D68"/>
<path d="M189.81 186.24V165.98C189.81 151.05 201.96 153.46 216.8 153.46H228.22" stroke="#006D68" stroke-width="1.01" stroke-linecap="round" stroke-linejoin="round"/>
<path d="M189.81 187.32C190.44 187.32 190.95 186.809 190.95 186.18C190.95 185.55 190.44 185.04 189.81 185.04C189.18 185.04 188.67 185.55 188.67 186.18C188.67 186.809 189.18 187.32 189.81 187.32Z" fill="#006D68"/>
<path d="M228.16 154.6C228.79 154.6 229.3 154.089 229.3 153.46C229.3 152.83 228.79 152.32 228.16 152.32C227.53 152.32 227.02 152.83 227.02 153.46C227.02 154.089 227.53 154.6 228.16 154.6Z" fill="#006D68"/>
<path d="M183.83 186.24V165.98C183.83 151.05 195.98 153.46 210.82 153.46H228.22" stroke="#006D68" stroke-width="1.01" stroke-linecap="round" stroke-linejoin="round"/>
<path d="M183.83 187.32C184.46 187.32 184.97 186.809 184.97 186.18C184.97 185.55 184.46 185.04 183.83 185.04C183.2 185.04 182.69 185.55 182.69 186.18C182.69 186.809 183.2 187.32 183.83 187.32Z" fill="#006D68"/>
<path d="M228.16 154.6C228.79 154.6 229.3 154.089 229.3 153.46C229.3 152.83 228.79 152.32 228.16 152.32C227.53 152.32 227.02 152.83 227.02 153.46C227.02 154.089 227.53 154.6 228.16 154.6Z" fill="#006D68"/>
<path d="M259.08 68.26H155.34V75.81H259.08V68.26Z" fill="#003834"/>
<path d="M279.09 54.9099H174.13L154.76 67.4399H259.73L279.09 54.9099Z" stroke="#013834" stroke-width="1.01" stroke-linecap="round" stroke-linejoin="round"/>
<path d="M279.79 54.9099L279.3 243.98L259.87 256.5L260.36 67.4399L279.79 54.9099Z" stroke="#013834" stroke-width="1.01" stroke-linecap="round" stroke-linejoin="round"/>
<path d="M186.82 228.61V208.35C186.82 193.42 198.97 195.83 213.81 195.83H220.3C222.66 195.83 225.02 195.81 227.38 195.83C230.54 195.85 233.84 195.26 234.16 191.29V155.37" stroke="#006D68" stroke-width="1.01" stroke-linecap="round" stroke-linejoin="round"/>
<path d="M187.95 228.56C187.95 229.19 187.44 229.7 186.81 229.7C186.18 229.7 185.67 229.19 185.67 228.56C185.67 227.93 186.18 227.42 186.81 227.42C187.44 227.42 187.95 227.93 187.95 228.56Z" fill="#006D68"/>
<path d="M234.17 156.57C234.8 156.57 235.31 156.059 235.31 155.43C235.31 154.8 234.8 154.29 234.17 154.29C233.54 154.29 233.03 154.8 233.03 155.43C233.03 156.059 233.54 156.57 234.17 156.57Z" fill="#006D68"/>
<path d="M189.81 228.61V208.35C189.81 193.42 201.96 195.83 216.8 195.83H228.22" stroke="#006D68" stroke-width="1.01" stroke-linecap="round" stroke-linejoin="round"/>
<path d="M190.95 228.56C190.95 229.19 190.44 229.7 189.81 229.7C189.18 229.7 188.67 229.19 188.67 228.56C188.67 227.93 189.18 227.42 189.81 227.42C190.44 227.42 190.95 227.93 190.95 228.56Z" fill="#006D68"/>
<path d="M228.16 196.97C228.79 196.97 229.3 196.46 229.3 195.83C229.3 195.2 228.79 194.69 228.16 194.69C227.53 194.69 227.02 195.2 227.02 195.83C227.02 196.46 227.53 196.97 228.16 196.97Z" fill="#006D68"/>
<path d="M183.83 228.61V208.35C183.83 193.42 195.98 195.83 210.82 195.83H228.22" stroke="#006D68" stroke-width="1.01" stroke-linecap="round" stroke-linejoin="round"/>
<path d="M184.96 228.56C184.96 229.19 184.45 229.7 183.82 229.7C183.19 229.7 182.68 229.19 182.68 228.56C182.68 227.93 183.19 227.42 183.82 227.42C184.45 227.42 184.96 227.93 184.96 228.56Z" fill="#006D68"/>
<path d="M228.16 196.97C228.79 196.97 229.3 196.46 229.3 195.83C229.3 195.2 228.79 194.69 228.16 194.69C227.53 194.69 227.02 195.2 227.02 195.83C227.02 196.46 227.53 196.97 228.16 196.97Z" fill="#006D68"/>
<path d="M251.44 91.3198H162.94C161.576 91.3198 160.47 92.4257 160.47 93.7898V117.52C160.47 118.884 161.576 119.99 162.94 119.99H251.44C252.804 119.99 253.91 118.884 253.91 117.52V93.7898C253.91 92.4257 252.804 91.3198 251.44 91.3198Z" fill="#006E69"/>
<path d="M251.44 133.69H162.94C161.576 133.69 160.47 134.796 160.47 136.16V159.89C160.47 161.254 161.576 162.36 162.94 162.36H251.44C252.804 162.36 253.91 161.254 253.91 159.89V136.16C253.91 134.796 252.804 133.69 251.44 133.69Z" fill="#006E69"/>
<path d="M251.44 176.07H162.94C161.576 176.07 160.47 177.176 160.47 178.54V202.27C160.47 203.634 161.576 204.74 162.94 204.74H251.44C252.804 204.74 253.91 203.634 253.91 202.27V178.54C253.91 177.176 252.804 176.07 251.44 176.07Z" fill="#006E69"/>
<path d="M251.44 218.44H162.94C161.576 218.44 160.47 219.546 160.47 220.91V244.64C160.47 246.004 161.576 247.11 162.94 247.11H251.44C252.804 247.11 253.91 246.004 253.91 244.64V220.91C253.91 219.546 252.804 218.44 251.44 218.44Z" fill="#006E69"/>
<path d="M251.44 87.7H162.94C161.576 87.7 160.47 88.8058 160.47 90.17V113.9C160.47 115.264 161.576 116.37 162.94 116.37H251.44C252.804 116.37 253.91 115.264 253.91 113.9V90.17C253.91 88.8058 252.804 87.7 251.44 87.7Z" fill="#003834"/>
<path d="M190.23 105.47H169.56C167.66 105.47 166.11 103.93 166.11 102.02C166.11 100.11 167.65 98.5698 169.56 98.5698H190.23C192.13 98.5698 193.68 100.11 193.68 102.02C193.68 103.93 192.14 105.47 190.23 105.47Z" fill="#006D68"/>
<path d="M207.46 105.55H201.72C199.82 105.55 198.27 104.01 198.27 102.1C198.27 100.19 199.81 98.6499 201.72 98.6499H207.46C209.36 98.6499 210.91 100.19 210.91 102.1C210.91 104.01 209.37 105.55 207.46 105.55Z" stroke="#006D68" stroke-width="0.99" stroke-linecap="round" stroke-linejoin="round"/>
<path d="M204.69 102.79V83.9298C204.69 72.2098 216.84 74.3298 231.68 74.3298H252.04" stroke="#006D68" stroke-width="0.89" stroke-linecap="round" stroke-linejoin="round"/>
<path d="M204.69 103.75C205.248 103.75 205.7 103.298 205.7 102.74C205.7 102.182 205.248 101.73 204.69 101.73C204.132 101.73 203.68 102.182 203.68 102.74C203.68 103.298 204.132 103.75 204.69 103.75Z" fill="#006D68"/>
<path d="M207.68 102.79V83.9297C207.68 72.2097 219.83 74.9897 234.67 74.9897H252.04" stroke="#006D68" stroke-width="0.89" stroke-linecap="round" stroke-linejoin="round"/>
<path d="M208.69 102.74C208.69 103.3 208.24 103.75 207.68 103.75C207.12 103.75 206.67 103.3 206.67 102.74C206.67 102.18 207.12 101.73 207.68 101.73C208.24 101.73 208.69 102.18 208.69 102.74Z" fill="#006D68"/>
<path d="M201.7 102.79V83.9298C201.7 72.2098 213.85 74.3298 228.69 74.3298H252.04" stroke="#006D68" stroke-width="0.89" stroke-linecap="round" stroke-linejoin="round"/>
<path d="M202.71 102.74C202.71 103.3 202.26 103.75 201.7 103.75C201.14 103.75 200.69 103.3 200.69 102.74C200.69 102.18 201.14 101.73 201.7 101.73C202.26 101.73 202.71 102.18 202.71 102.74Z" fill="#006D68"/>
<path d="M249.69 96.9299H221V107.13H249.69V96.9299Z" fill="#00524F" stroke="#013834" stroke-width="1.05" stroke-miterlimit="10"/>
<path d="M225.26 102.03H245.43" stroke="#006D68" stroke-width="0.89" stroke-linecap="round" stroke-linejoin="round"/>
<circle cx="170.68" cy="102.03" r="0.99" fill="#AFD3D0"/>
<path d="M177.01 102.03H186.51" stroke="#AFD3D0" stroke-width="1.98" stroke-linecap="round" stroke-linejoin="round"/>
<circle cx="189.68" cy="102.03" r="0.99" fill="#AFD3D0"/>
<path d="M251.44 130.07H162.94C161.576 130.07 160.47 131.176 160.47 132.54V156.27C160.47 157.634 161.576 158.74 162.94 158.74H251.44C252.804 158.74 253.91 157.634 253.91 156.27V132.54C253.91 131.176 252.804 130.07 251.44 130.07Z" fill="#003834"/>
<path d="M249.69 139.3H221V149.5H249.69V139.3Z" fill="#00524F" stroke="#013834" stroke-width="1.05" stroke-miterlimit="10"/>
<path d="M225.26 144.4H245.43" stroke="#006D68" stroke-width="0.89" stroke-linecap="round" stroke-linejoin="round"/>
<path d="M190.23 147.85H169.56C167.66 147.85 166.11 146.31 166.11 144.4C166.11 142.49 167.65 140.95 169.56 140.95H190.23C192.13 140.95 193.68 142.49 193.68 144.4C193.68 146.31 192.14 147.85 190.23 147.85Z" fill="#006D68"/>
<path d="M207.46 147.85H201.72C199.82 147.85 198.27 146.31 198.27 144.4C198.27 142.49 199.81 140.95 201.72 140.95H207.46C209.36 140.95 210.91 142.49 210.91 144.4C210.91 146.31 209.37 147.85 207.46 147.85Z" stroke="#006D68" stroke-width="0.99" stroke-linecap="round" stroke-linejoin="round"/>
<circle cx="170.68" cy="144.4" r="0.99" fill="#AFD3D0"/>
<path d="M177.01 144.4H186.51" stroke="#AFD3D0" stroke-width="1.98" stroke-linecap="round" stroke-linejoin="round"/>
<circle cx="189.68" cy="144.4" r="0.99" fill="#AFD3D0"/>
<path d="M204.69 143.99V123.61C204.69 108.68 216.84 111.09 231.68 111.09H238.17C240.53 111.09 242.89 111.07 245.25 111.09C248.41 111.11 251.71 110.52 252.03 106.55V74.6399" stroke="#006D68" stroke-width="0.89" stroke-linecap="round" stroke-linejoin="round"/>
<path d="M205.7 143.94C205.7 144.5 205.25 144.95 204.69 144.95C204.13 144.95 203.68 144.5 203.68 143.94C203.68 143.38 204.13 142.93 204.69 142.93C205.25 142.93 205.7 143.38 205.7 143.94Z" fill="#006D68"/>
<path d="M253.05 74.6899C253.05 74.1299 252.6 73.6799 252.04 73.6799C251.48 73.6799 251.03 74.1299 251.03 74.6899C251.03 75.2499 251.48 75.6999 252.04 75.6999C252.6 75.6999 253.05 75.2499 253.05 74.6899Z" fill="#006D68"/>
<path d="M207.68 143.99V123.61C207.68 108.68 219.83 111.09 234.67 111.09H246.21" stroke="#006D68" stroke-width="0.89" stroke-linecap="round" stroke-linejoin="round"/>
<path d="M208.69 143.94C208.69 144.5 208.24 144.95 207.68 144.95C207.12 144.95 206.67 144.5 206.67 143.94C206.67 143.38 207.12 142.93 207.68 142.93C208.24 142.93 208.69 143.38 208.69 143.94Z" fill="#006D68"/>
<path d="M246.16 112.09C246.72 112.09 247.17 111.64 247.17 111.08C247.17 110.52 246.72 110.07 246.16 110.07C245.6 110.07 245.15 110.52 245.15 111.08C245.15 111.64 245.6 112.09 246.16 112.09Z" fill="#006D68"/>
<path d="M201.7 143.99V123.61C201.7 108.68 213.85 111.09 228.69 111.09H246.21" stroke="#006D68" stroke-width="0.89" stroke-linecap="round" stroke-linejoin="round"/>
<path d="M202.71 143.94C202.71 144.5 202.26 144.95 201.7 144.95C201.14 144.95 200.69 144.5 200.69 143.94C200.69 143.38 201.14 142.93 201.7 142.93C202.26 142.93 202.71 143.38 202.71 143.94Z" fill="#006D68"/>
<path d="M246.16 112.09C246.72 112.09 247.17 111.64 247.17 111.08C247.17 110.52 246.72 110.07 246.16 110.07C245.6 110.07 245.15 110.52 245.15 111.08C245.15 111.64 245.6 112.09 246.16 112.09Z" fill="#006D68"/>
<path d="M251.44 172.45H162.94C161.576 172.45 160.47 173.556 160.47 174.92V198.65C160.47 200.014 161.576 201.12 162.94 201.12H251.44C252.804 201.12 253.91 200.014 253.91 198.65V174.92C253.91 173.556 252.804 172.45 251.44 172.45Z" fill="#003834"/>
<path d="M249.69 181.68H221V191.88H249.69V181.68Z" fill="#00524F" stroke="#013834" stroke-width="1.05" stroke-miterlimit="10"/>
<path d="M225.26 186.78H245.43" stroke="#006D68" stroke-width="0.89" stroke-linecap="round" stroke-linejoin="round"/>
<path d="M190.23 190.22H169.56C167.66 190.22 166.11 188.68 166.11 186.77C166.11 184.86 167.65 183.32 169.56 183.32H190.23C192.13 183.32 193.68 184.86 193.68 186.77C193.68 188.68 192.14 190.22 190.23 190.22Z" fill="#006D68"/>
<path d="M207.46 190.22H201.72C199.82 190.22 198.27 188.68 198.27 186.77C198.27 184.86 199.81 183.32 201.72 183.32H207.46C209.36 183.32 210.91 184.86 210.91 186.77C210.91 188.68 209.37 190.22 207.46 190.22Z" stroke="#006D68" stroke-width="0.99" stroke-linecap="round" stroke-linejoin="round"/>
<circle cx="170.68" cy="186.78" r="0.99" fill="#AFD3D0"/>
<path d="M177.01 186.78H186.51" stroke="#AFD3D0" stroke-width="1.98" stroke-linecap="round" stroke-linejoin="round"/>
<circle cx="189.68" cy="186.78" r="0.99" fill="#AFD3D0"/>
<path d="M251.44 214.82H162.94C161.576 214.82 160.47 215.926 160.47 217.29V241.02C160.47 242.384 161.576 243.49 162.94 243.49H251.44C252.804 243.49 253.91 242.384 253.91 241.02V217.29C253.91 215.926 252.804 214.82 251.44 214.82Z" fill="#003834"/>
<path d="M249.69 224.05H221V234.25H249.69V224.05Z" fill="#00524F" stroke="#013834" stroke-width="1.05" stroke-miterlimit="10"/>
<path d="M225.26 229.15H245.43" stroke="#006D68" stroke-width="0.89" stroke-linecap="round" stroke-linejoin="round"/>
<path d="M190.23 232.6H169.56C167.66 232.6 166.11 231.06 166.11 229.15C166.11 227.24 167.65 225.7 169.56 225.7H190.23C192.13 225.7 193.68 227.24 193.68 229.15C193.68 231.06 192.14 232.6 190.23 232.6Z" fill="#006D68"/>
<path d="M207.46 232.6H201.72C199.82 232.6 198.27 231.06 198.27 229.15C198.27 227.24 199.81 225.7 201.72 225.7H207.46C209.36 225.7 210.91 227.24 210.91 229.15C210.91 231.06 209.37 232.6 207.46 232.6Z" stroke="#006D68" stroke-width="0.99" stroke-linecap="round" stroke-linejoin="round"/>
<path d="M170.68 230.14C170.42 230.14 170.16 230.03 169.98 229.85C169.93 229.8 169.89 229.75 169.85 229.7C169.81 229.65 169.78 229.59 169.76 229.53C169.73 229.47 169.71 229.4 169.7 229.34C169.7 229.28 169.68 229.21 169.68 229.15C169.68 228.89 169.79 228.64 169.97 228.45C170.2 228.22 170.54 228.11 170.86 228.18C170.92 228.18 170.99 228.21 171.04 228.24C171.1 228.26 171.16 228.3 171.21 228.33C171.27 228.37 171.32 228.41 171.36 228.46C171.54 228.64 171.65 228.9 171.65 229.16C171.65 229.22 171.65 229.29 171.63 229.35C171.61 229.41 171.6 229.48 171.57 229.54C171.54 229.6 171.51 229.66 171.48 229.71C171.44 229.77 171.4 229.82 171.36 229.86C171.31 229.91 171.26 229.95 171.21 229.98C171.16 230.02 171.1 230.05 171.04 230.07C170.98 230.09 170.92 230.11 170.86 230.13C170.8 230.15 170.73 230.15 170.67 230.15L170.68 230.14Z" fill="#AFD3D0"/>
<path d="M182.36 229.15C182.36 228.6 182.8 228.16 183.35 228.16C183.89 228.16 184.33 228.6 184.33 229.15C184.33 229.69 183.89 230.14 183.35 230.14C182.8 230.14 182.36 229.7 182.36 229.15ZM176.03 229.15C176.03 228.6 176.47 228.16 177.02 228.16C177.57 228.16 178.01 228.6 178.01 229.15C178.01 229.69 177.57 230.14 177.02 230.14C176.47 230.14 176.03 229.7 176.03 229.15Z" fill="#AFD3D0" stroke="#AFD3D0" stroke-width="1.21" stroke-linecap="round" stroke-linejoin="round"/>
<path d="M189.68 230.14C189.42 230.14 189.17 230.03 188.98 229.85C188.93 229.8 188.89 229.75 188.85 229.7C188.82 229.65 188.78 229.59 188.76 229.53C188.73 229.47 188.72 229.4 188.7 229.34C188.68 229.28 188.68 229.21 188.68 229.15C188.68 228.89 188.79 228.64 188.97 228.45C189.02 228.4 189.07 228.36 189.12 228.32C189.18 228.29 189.23 228.25 189.29 228.23C189.35 228.2 189.41 228.18 189.47 228.17C189.6 228.14 189.73 228.14 189.86 228.17C189.92 228.17 189.99 228.2 190.04 228.23C190.1 228.25 190.16 228.29 190.21 228.32C190.27 228.36 190.32 228.4 190.36 228.45C190.54 228.63 190.65 228.89 190.65 229.15C190.65 229.41 190.54 229.66 190.36 229.85C190.31 229.9 190.26 229.94 190.21 229.97C190.16 230.01 190.1 230.04 190.04 230.06C189.98 230.08 189.92 230.1 189.86 230.12C189.79 230.13 189.73 230.14 189.67 230.14H189.68Z" fill="#AFD3D0"/>
<path d="M204.69 186.24V165.98C204.69 151.05 216.84 153.46 231.68 153.46H238.17C240.53 153.46 242.89 153.44 245.25 153.46C248.41 153.48 251.71 152.89 252.03 148.92V119.44" stroke="#006D68" stroke-width="1.01" stroke-linecap="round" stroke-linejoin="round"/>
<path d="M204.69 187.32C205.32 187.32 205.83 186.809 205.83 186.18C205.83 185.55 205.32 185.04 204.69 185.04C204.06 185.04 203.55 185.55 203.55 186.18C203.55 186.809 204.06 187.32 204.69 187.32Z" fill="#006D68"/>
<path d="M253.18 119.5C253.18 118.87 252.67 118.36 252.04 118.36C251.41 118.36 250.9 118.87 250.9 119.5C250.9 120.13 251.41 120.64 252.04 120.64C252.67 120.64 253.18 120.13 253.18 119.5Z" fill="#006D68"/>
<path d="M207.68 186.24V165.98C207.68 151.05 219.83 153.46 234.67 153.46H246.09" stroke="#006D68" stroke-width="1.01" stroke-linecap="round" stroke-linejoin="round"/>
<path d="M207.68 187.32C208.31 187.32 208.82 186.809 208.82 186.18C208.82 185.55 208.31 185.04 207.68 185.04C207.05 185.04 206.54 185.55 206.54 186.18C206.54 186.809 207.05 187.32 207.68 187.32Z" fill="#006D68"/>
<path d="M246.03 154.6C246.66 154.6 247.17 154.089 247.17 153.46C247.17 152.83 246.66 152.32 246.03 152.32C245.4 152.32 244.89 152.83 244.89 153.46C244.89 154.089 245.4 154.6 246.03 154.6Z" fill="#006D68"/>
<path d="M201.7 186.24V165.98C201.7 151.05 213.85 153.46 228.69 153.46H246.09" stroke="#006D68" stroke-width="1.01" stroke-linecap="round" stroke-linejoin="round"/>
<path d="M201.7 187.32C202.33 187.32 202.84 186.809 202.84 186.18C202.84 185.55 202.33 185.04 201.7 185.04C201.07 185.04 200.56 185.55 200.56 186.18C200.56 186.809 201.07 187.32 201.7 187.32Z" fill="#006D68"/>
<path d="M246.03 154.6C246.66 154.6 247.17 154.089 247.17 153.46C247.17 152.83 246.66 152.32 246.03 152.32C245.4 152.32 244.89 152.83 244.89 153.46C244.89 154.089 245.4 154.6 246.03 154.6Z" fill="#006D68"/>
<path d="M204.69 228.74V208.36C204.69 193.43 216.84 195.84 231.68 195.84H238.17C240.53 195.84 242.89 195.82 245.25 195.84C248.41 195.86 251.71 195.27 252.03 191.3V161.7" stroke="#006D68" stroke-width="0.89" stroke-linecap="round" stroke-linejoin="round"/>
<path d="M205.7 228.69C205.7 229.25 205.25 229.7 204.69 229.7C204.13 229.7 203.68 229.25 203.68 228.69C203.68 228.13 204.13 227.68 204.69 227.68C205.25 227.68 205.7 228.13 205.7 228.69Z" fill="#006D68"/>
<path d="M253.05 161.74C253.05 161.18 252.6 160.73 252.04 160.73C251.48 160.73 251.03 161.18 251.03 161.74C251.03 162.3 251.48 162.75 252.04 162.75C252.6 162.75 253.05 162.3 253.05 161.74Z" fill="#006D68"/>
<path d="M207.68 228.74V208.36C207.68 193.43 219.83 195.84 234.67 195.84H246.21" stroke="#006D68" stroke-width="0.89" stroke-linecap="round" stroke-linejoin="round"/>
<path d="M208.69 228.69C208.69 229.25 208.24 229.7 207.68 229.7C207.12 229.7 206.67 229.25 206.67 228.69C206.67 228.13 207.12 227.68 207.68 227.68C208.24 227.68 208.69 228.13 208.69 228.69Z" fill="#006D68"/>
<path d="M246.16 196.84C246.72 196.84 247.17 196.39 247.17 195.83C247.17 195.27 246.72 194.82 246.16 194.82C245.6 194.82 245.15 195.27 245.15 195.83C245.15 196.39 245.6 196.84 246.16 196.84Z" fill="#006D68"/>
<path d="M201.7 228.74V208.36C201.7 193.43 213.85 195.84 228.69 195.84H246.21" stroke="#006D68" stroke-width="0.89" stroke-linecap="round" stroke-linejoin="round"/>
<path d="M202.71 228.69C202.71 229.25 202.26 229.7 201.7 229.7C201.14 229.7 200.69 229.25 200.69 228.69C200.69 228.13 201.14 227.68 201.7 227.68C202.26 227.68 202.71 228.13 202.71 228.69Z" fill="#006D68"/>
<path d="M246.16 196.84C246.72 196.84 247.17 196.39 247.17 195.83C247.17 195.27 246.72 194.82 246.16 194.82C245.6 194.82 245.15 195.27 245.15 195.83C245.15 196.39 245.6 196.84 246.16 196.84Z" fill="#006D68"/>
<path d="M232.76 238.21H238.17C240.53 238.21 242.89 238.19 245.25 238.21C248.41 238.23 251.71 237.64 252.03 233.67V204.19" stroke="#006D68" stroke-width="1.01" stroke-linecap="round" stroke-linejoin="round"/>
<path d="M232.82 239.34C232.19 239.34 231.68 238.83 231.68 238.2C231.68 237.57 232.19 237.06 232.82 237.06C233.45 237.06 233.96 237.57 233.96 238.2C233.96 238.83 233.45 239.34 232.82 239.34Z" fill="#006D68"/>
<path d="M253.18 204.25C253.18 203.62 252.67 203.11 252.04 203.11C251.41 203.11 250.9 203.62 250.9 204.25C250.9 204.88 251.41 205.39 252.04 205.39C252.67 205.39 253.18 204.88 253.18 204.25Z" fill="#006D68"/>
<path d="M235.75 238.21H246.09" stroke="#006D68" stroke-width="1.01" stroke-linecap="round" stroke-linejoin="round"/>
<path d="M235.81 239.34C235.18 239.34 234.67 238.83 234.67 238.2C234.67 237.57 235.18 237.06 235.81 237.06C236.44 237.06 236.95 237.57 236.95 238.2C236.95 238.83 236.44 239.34 235.81 239.34Z" fill="#006D68"/>
<path d="M246.03 239.35C246.66 239.35 247.17 238.839 247.17 238.21C247.17 237.58 246.66 237.07 246.03 237.07C245.4 237.07 244.89 237.58 244.89 238.21C244.89 238.839 245.4 239.35 246.03 239.35Z" fill="#006D68"/>
<path d="M229.77 238.21H246.09" stroke="#006D68" stroke-width="1.01" stroke-linecap="round" stroke-linejoin="round"/>
<path d="M229.83 239.34C229.2 239.34 228.69 238.83 228.69 238.2C228.69 237.57 229.2 237.06 229.83 237.06C230.46 237.06 230.97 237.57 230.97 238.2C230.97 238.83 230.46 239.34 229.83 239.34Z" fill="#006D68"/>
<path d="M246.03 239.35C246.66 239.35 247.17 238.839 247.17 238.21C247.17 237.58 246.66 237.07 246.03 237.07C245.4 237.07 244.89 237.58 244.89 238.21C244.89 238.839 245.4 239.35 246.03 239.35Z" fill="#006D68"/>
<path d="M82.19 330.95V143.2L100.46 131.57H204.81V318.2L185.4 330.95H82.19Z" fill="#013834"/>
<path d="M204.31 132.07V317.93L185.26 330.45H82.7V143.47L100.62 132.07H204.32M205.31 131.07H100.32L81.69 142.92V331.46H185.55L205.31 318.48V131.07Z" fill="#013834"/>
<path d="M185.27 143.46H80.41V332.53H185.27V143.46Z" stroke="#AFD3D0" stroke-width="1.01" stroke-linecap="round" stroke-linejoin="round"/>
<path d="M112.47 219.61V199.35C112.47 184.42 124.62 186.83 139.46 186.83H145.95C148.31 186.83 150.67 186.81 153.03 186.83C156.19 186.85 159.49 186.26 159.81 182.29V151.82" stroke="#6FAFAC" stroke-width="1.01" stroke-linecap="round" stroke-linejoin="round"/>
<path d="M113.61 219.55C113.61 220.18 113.1 220.69 112.47 220.69C111.84 220.69 111.33 220.18 111.33 219.55C111.33 218.92 111.84 218.41 112.47 218.41C113.1 218.41 113.61 218.92 113.61 219.55Z" fill="#6FAFAC"/>
<path d="M159.82 153.02C160.45 153.02 160.96 152.51 160.96 151.88C160.96 151.25 160.45 150.74 159.82 150.74C159.19 150.74 158.68 151.25 158.68 151.88C158.68 152.51 159.19 153.02 159.82 153.02Z" fill="#6FAFAC"/>
<path d="M115.46 219.61V199.35C115.46 184.42 127.61 186.83 142.45 186.83H153.87" stroke="#6FAFAC" stroke-width="1.01" stroke-linecap="round" stroke-linejoin="round"/>
<path d="M116.6 219.55C116.6 220.18 116.09 220.69 115.46 220.69C114.83 220.69 114.32 220.18 114.32 219.55C114.32 218.92 114.83 218.41 115.46 218.41C116.09 218.41 116.6 218.92 116.6 219.55Z" fill="#6FAFAC"/>
<path d="M153.81 187.97C154.44 187.97 154.95 187.46 154.95 186.83C154.95 186.2 154.44 185.69 153.81 185.69C153.18 185.69 152.67 186.2 152.67 186.83C152.67 187.46 153.18 187.97 153.81 187.97Z" fill="#6FAFAC"/>
<path d="M109.48 219.61V199.35C109.48 184.42 121.63 186.83 136.47 186.83H153.87" stroke="#6FAFAC" stroke-width="1.01" stroke-linecap="round" stroke-linejoin="round"/>
<path d="M110.62 219.55C110.62 220.18 110.11 220.69 109.48 220.69C108.85 220.69 108.34 220.18 108.34 219.55C108.34 218.92 108.85 218.41 109.48 218.41C110.11 218.41 110.62 218.92 110.62 219.55Z" fill="#6FAFAC"/>
<path d="M153.81 187.97C154.44 187.97 154.95 187.46 154.95 186.83C154.95 186.2 154.44 185.69 153.81 185.69C153.18 185.69 152.67 186.2 152.67 186.83C152.67 187.46 153.18 187.97 153.81 187.97Z" fill="#6FAFAC"/>
<path d="M112.47 261.99V241.73C112.47 226.8 124.62 229.21 139.46 229.21C141.62 229.21 143.79 229.21 145.95 229.21C148.31 229.21 150.67 229.19 153.03 229.21C156.19 229.23 159.49 228.64 159.81 224.67V188.75" stroke="#6FAFAC" stroke-width="1.01" stroke-linecap="round" stroke-linejoin="round"/>
<path d="M113.61 261.93C113.61 262.56 113.1 263.07 112.47 263.07C111.84 263.07 111.33 262.56 111.33 261.93C111.33 261.3 111.84 260.79 112.47 260.79C113.1 260.79 113.61 261.3 113.61 261.93Z" fill="#6FAFAC"/>
<path d="M159.82 189.95C160.45 189.95 160.96 189.44 160.96 188.81C160.96 188.18 160.45 187.67 159.82 187.67C159.19 187.67 158.68 188.18 158.68 188.81C158.68 189.44 159.19 189.95 159.82 189.95Z" fill="#6FAFAC"/>
<path d="M115.46 261.99V241.73C115.46 226.8 127.61 229.21 142.45 229.21H153.87" stroke="#6FAFAC" stroke-width="1.01" stroke-linecap="round" stroke-linejoin="round"/>
<path d="M115.46 263.07C116.09 263.07 116.6 262.559 116.6 261.93C116.6 261.3 116.09 260.79 115.46 260.79C114.83 260.79 114.32 261.3 114.32 261.93C114.32 262.559 114.83 263.07 115.46 263.07Z" fill="#6FAFAC"/>
<path d="M153.81 230.34C154.44 230.34 154.95 229.83 154.95 229.2C154.95 228.57 154.44 228.06 153.81 228.06C153.18 228.06 152.67 228.57 152.67 229.2C152.67 229.83 153.18 230.34 153.81 230.34Z" fill="#6FAFAC"/>
<path d="M109.48 261.99V241.73C109.48 226.8 121.63 229.21 136.47 229.21H153.87" stroke="#6FAFAC" stroke-width="1.01" stroke-linecap="round" stroke-linejoin="round"/>
<path d="M109.48 263.07C110.11 263.07 110.62 262.559 110.62 261.93C110.62 261.3 110.11 260.79 109.48 260.79C108.85 260.79 108.34 261.3 108.34 261.93C108.34 262.559 108.85 263.07 109.48 263.07Z" fill="#6FAFAC"/>
<path d="M153.81 230.34C154.44 230.34 154.95 229.83 154.95 229.2C154.95 228.57 154.44 228.06 153.81 228.06C153.18 228.06 152.67 228.57 152.67 229.2C152.67 229.83 153.18 230.34 153.81 230.34Z" fill="#6FAFAC"/>
<path d="M184.74 144.01H81V151.56H184.74V144.01Z" fill="#AFD3D0"/>
<path d="M204.74 130.65H99.78L80.41 143.18H185.38L204.74 130.65Z" stroke="#AFD3D0" stroke-width="1.01" stroke-linecap="round" stroke-linejoin="round"/>
<path d="M205.44 130.65L204.95 319.72L185.52 332.25L186.01 143.18L205.44 130.65Z" stroke="#AFD3D0" stroke-width="1.01" stroke-linecap="round" stroke-linejoin="round"/>
<path d="M112.47 304.36V284.1C112.47 269.17 124.62 271.58 139.46 271.58H145.95C148.31 271.58 150.67 271.56 153.03 271.58C156.19 271.6 159.49 271.01 159.81 267.04V231.12" stroke="#6FAFAC" stroke-width="1.01" stroke-linecap="round" stroke-linejoin="round"/>
<path d="M113.61 304.3C113.61 304.93 113.1 305.44 112.47 305.44C111.84 305.44 111.33 304.93 111.33 304.3C111.33 303.67 111.84 303.16 112.47 303.16C113.1 303.16 113.61 303.67 113.61 304.3Z" fill="#6FAFAC"/>
<path d="M160.96 231.18C160.96 230.55 160.45 230.04 159.82 230.04C159.19 230.04 158.68 230.55 158.68 231.18C158.68 231.81 159.19 232.32 159.82 232.32C160.45 232.32 160.96 231.81 160.96 231.18Z" fill="#6FAFAC"/>
<path d="M115.46 304.36V284.1C115.46 269.17 127.61 271.58 142.45 271.58H153.87" stroke="#6FAFAC" stroke-width="1.01" stroke-linecap="round" stroke-linejoin="round"/>
<path d="M116.6 304.3C116.6 304.93 116.09 305.44 115.46 305.44C114.83 305.44 114.32 304.93 114.32 304.3C114.32 303.67 114.83 303.16 115.46 303.16C116.09 303.16 116.6 303.67 116.6 304.3Z" fill="#6FAFAC"/>
<path d="M153.81 272.72C154.44 272.72 154.95 272.209 154.95 271.58C154.95 270.95 154.44 270.44 153.81 270.44C153.18 270.44 152.67 270.95 152.67 271.58C152.67 272.209 153.18 272.72 153.81 272.72Z" fill="#6FAFAC"/>
<path d="M109.48 304.36V284.1C109.48 269.17 121.63 271.58 136.47 271.58H153.87" stroke="#6FAFAC" stroke-width="1.01" stroke-linecap="round" stroke-linejoin="round"/>
<path d="M110.62 304.3C110.62 304.93 110.11 305.44 109.48 305.44C108.85 305.44 108.34 304.93 108.34 304.3C108.34 303.67 108.85 303.16 109.48 303.16C110.11 303.16 110.62 303.67 110.62 304.3Z" fill="#6FAFAC"/>
<path d="M153.81 272.72C154.44 272.72 154.95 272.209 154.95 271.58C154.95 270.95 154.44 270.44 153.81 270.44C153.18 270.44 152.67 270.95 152.67 271.58C152.67 272.209 153.18 272.72 153.81 272.72Z" fill="#6FAFAC"/>
<path d="M177.09 167.06H88.59C87.2258 167.06 86.12 168.166 86.12 169.53V193.26C86.12 194.624 87.2258 195.73 88.59 195.73H177.09C178.454 195.73 179.56 194.624 179.56 193.26V169.53C179.56 168.166 178.454 167.06 177.09 167.06Z" fill="#003834"/>
<path d="M177.09 209.44H88.59C87.2258 209.44 86.12 210.546 86.12 211.91V235.64C86.12 237.004 87.2258 238.11 88.59 238.11H177.09C178.454 238.11 179.56 237.004 179.56 235.64V211.91C179.56 210.546 178.454 209.44 177.09 209.44Z" fill="#003834"/>
<path d="M177.09 251.82H88.59C87.2258 251.82 86.12 252.926 86.12 254.29V278.02C86.12 279.384 87.2258 280.49 88.59 280.49H177.09C178.454 280.49 179.56 279.384 179.56 278.02V254.29C179.56 252.926 178.454 251.82 177.09 251.82Z" fill="#003834"/>
<path d="M177.09 294.19H88.59C87.2258 294.19 86.12 295.296 86.12 296.66V320.39C86.12 321.754 87.2258 322.86 88.59 322.86H177.09C178.454 322.86 179.56 321.754 179.56 320.39V296.66C179.56 295.296 178.454 294.19 177.09 294.19Z" fill="#003834"/>
<path d="M177.09 163.44H88.59C87.2258 163.44 86.12 164.546 86.12 165.91V189.64C86.12 191.004 87.2258 192.11 88.59 192.11H177.09C178.454 192.11 179.56 191.004 179.56 189.64V165.91C179.56 164.546 178.454 163.44 177.09 163.44Z" fill="#006E69"/>
<path d="M115.89 181.22H95.22C93.32 181.22 91.77 179.68 91.77 177.77C91.77 175.86 93.31 174.32 95.22 174.32H115.89C117.79 174.32 119.34 175.86 119.34 177.77C119.34 179.68 117.8 181.22 115.89 181.22Z" fill="#6FAFAC"/>
<path d="M133.11 181.3H127.37C125.47 181.3 123.92 179.76 123.92 177.85C123.92 175.94 125.46 174.4 127.37 174.4H133.11C135.01 174.4 136.56 175.94 136.56 177.85C136.56 179.76 135.02 181.3 133.11 181.3Z" stroke="#6FAFAC" stroke-width="0.99" stroke-linecap="round" stroke-linejoin="round"/>
<path d="M130.34 178.54V159.68C130.34 147.96 142.49 150.08 157.33 150.08H177.69" stroke="#6FAFAC" stroke-width="0.89" stroke-linecap="round" stroke-linejoin="round"/>
<path d="M130.34 179.5C130.898 179.5 131.35 179.048 131.35 178.49C131.35 177.932 130.898 177.48 130.34 177.48C129.782 177.48 129.33 177.932 129.33 178.49C129.33 179.048 129.782 179.5 130.34 179.5Z" fill="#6FAFAC"/>
<path d="M133.33 178.54V159.68C133.33 147.96 145.48 150.74 160.32 150.74H177.69" stroke="#6FAFAC" stroke-width="0.89" stroke-linecap="round" stroke-linejoin="round"/>
<path d="M134.34 178.49C134.34 179.05 133.89 179.5 133.33 179.5C132.77 179.5 132.32 179.05 132.32 178.49C132.32 177.93 132.77 177.48 133.33 177.48C133.89 177.48 134.34 177.93 134.34 178.49Z" fill="#6FAFAC"/>
<path d="M127.35 178.54V159.68C127.35 147.96 139.5 150.08 154.34 150.08H177.69" stroke="#6FAFAC" stroke-width="0.89" stroke-linecap="round" stroke-linejoin="round"/>
<path d="M128.36 178.49C128.36 179.05 127.91 179.5 127.35 179.5C126.79 179.5 126.34 179.05 126.34 178.49C126.34 177.93 126.79 177.48 127.35 177.48C127.91 177.48 128.36 177.93 128.36 178.49Z" fill="#6FAFAC"/>
<path d="M175.34 172.67H146.65V182.87H175.34V172.67Z" fill="#003834"/>
<path d="M150.91 177.78H171.08" stroke="#6FAFAC" stroke-width="0.89" stroke-linecap="round" stroke-linejoin="round"/>
<circle cx="96.34" cy="177.78" r="0.99" fill="#AFD3D0"/>
<path d="M102.67 177.78H112.16" stroke="#AFD3D0" stroke-width="1.98" stroke-linecap="round" stroke-linejoin="round"/>
<circle cx="115.33" cy="177.78" r="0.99" fill="#AFD3D0"/>
<path d="M177.09 205.82H88.59C87.2258 205.82 86.12 206.926 86.12 208.29V232.02C86.12 233.384 87.2258 234.49 88.59 234.49H177.09C178.454 234.49 179.56 233.384 179.56 232.02V208.29C179.56 206.926 178.454 205.82 177.09 205.82Z" fill="#006E69"/>
<path d="M175.34 215.05H146.65V225.25H175.34V215.05Z" fill="#003834"/>
<path d="M150.91 220.15H171.08" stroke="#6FAFAC" stroke-width="0.89" stroke-linecap="round" stroke-linejoin="round"/>
<path d="M115.89 223.6H95.22C93.32 223.6 91.77 222.06 91.77 220.15C91.77 218.24 93.31 216.7 95.22 216.7H115.89C117.79 216.7 119.34 218.24 119.34 220.15C119.34 222.06 117.8 223.6 115.89 223.6Z" fill="#6FAFAC"/>
<path d="M133.11 223.6H127.37C125.47 223.6 123.92 222.06 123.92 220.15C123.92 218.24 125.46 216.7 127.37 216.7H133.11C135.01 216.7 136.56 218.24 136.56 220.15C136.56 222.06 135.02 223.6 133.11 223.6Z" stroke="#6FAFAC" stroke-width="0.99" stroke-linecap="round" stroke-linejoin="round"/>
<circle cx="96.34" cy="220.15" r="0.99" fill="#AFD3D0"/>
<path d="M102.67 220.15H112.16" stroke="#AFD3D0" stroke-width="1.98" stroke-linecap="round" stroke-linejoin="round"/>
<circle cx="115.33" cy="220.15" r="0.99" fill="#AFD3D0"/>
<path d="M130.34 219.73V199.35C130.34 184.42 142.49 186.83 157.33 186.83H163.82C166.18 186.83 168.54 186.81 170.9 186.83C174.06 186.85 177.36 186.26 177.68 182.29V150.38" stroke="#6FAFAC" stroke-width="0.89" stroke-linecap="round" stroke-linejoin="round"/>
<path d="M131.35 219.68C131.35 220.24 130.9 220.69 130.34 220.69C129.78 220.69 129.33 220.24 129.33 219.68C129.33 219.12 129.78 218.67 130.34 218.67C130.9 218.67 131.35 219.12 131.35 219.68Z" fill="#6FAFAC"/>
<path d="M178.7 150.43C178.7 149.87 178.25 149.42 177.69 149.42C177.13 149.42 176.68 149.87 176.68 150.43C176.68 150.99 177.13 151.44 177.69 151.44C178.25 151.44 178.7 150.99 178.7 150.43Z" fill="#6FAFAC"/>
<path d="M133.33 219.73V199.35C133.33 184.42 145.48 186.83 160.32 186.83H171.86" stroke="#6FAFAC" stroke-width="0.89" stroke-linecap="round" stroke-linejoin="round"/>
<path d="M134.34 219.68C134.34 220.24 133.89 220.69 133.33 220.69C132.77 220.69 132.32 220.24 132.32 219.68C132.32 219.12 132.77 218.67 133.33 218.67C133.89 218.67 134.34 219.12 134.34 219.68Z" fill="#6FAFAC"/>
<path d="M171.82 187.84C172.38 187.84 172.83 187.39 172.83 186.83C172.83 186.27 172.38 185.82 171.82 185.82C171.26 185.82 170.81 186.27 170.81 186.83C170.81 187.39 171.26 187.84 171.82 187.84Z" fill="#6FAFAC"/>
<path d="M127.35 219.73V199.35C127.35 184.42 139.5 186.83 154.34 186.83H171.86" stroke="#6FAFAC" stroke-width="0.89" stroke-linecap="round" stroke-linejoin="round"/>
<path d="M128.36 219.68C128.36 220.24 127.91 220.69 127.35 220.69C126.79 220.69 126.34 220.24 126.34 219.68C126.34 219.12 126.79 218.67 127.35 218.67C127.91 218.67 128.36 219.12 128.36 219.68Z" fill="#6FAFAC"/>
<path d="M171.82 187.84C172.38 187.84 172.83 187.39 172.83 186.83C172.83 186.27 172.38 185.82 171.82 185.82C171.26 185.82 170.81 186.27 170.81 186.83C170.81 187.39 171.26 187.84 171.82 187.84Z" fill="#6FAFAC"/>
<path d="M177.09 248.19H88.59C87.2258 248.19 86.12 249.296 86.12 250.66V274.39C86.12 275.754 87.2258 276.86 88.59 276.86H177.09C178.454 276.86 179.56 275.754 179.56 274.39V250.66C179.56 249.296 178.454 248.19 177.09 248.19Z" fill="#006E69"/>
<path d="M175.34 257.43H146.65V267.63H175.34V257.43Z" fill="#003834"/>
<path d="M150.91 262.53H171.08" stroke="#6FAFAC" stroke-width="0.89" stroke-linecap="round" stroke-linejoin="round"/>
<path d="M115.89 265.97H95.22C93.32 265.97 91.77 264.43 91.77 262.52C91.77 260.61 93.31 259.07 95.22 259.07H115.89C117.79 259.07 119.34 260.61 119.34 262.52C119.34 264.43 117.8 265.97 115.89 265.97Z" fill="#6FAFAC"/>
<path d="M133.11 265.97H127.37C125.47 265.97 123.92 264.43 123.92 262.52C123.92 260.61 125.46 259.07 127.37 259.07H133.11C135.01 259.07 136.56 260.61 136.56 262.52C136.56 264.43 135.02 265.97 133.11 265.97Z" stroke="#6FAFAC" stroke-width="0.99" stroke-linecap="round" stroke-linejoin="round"/>
<circle cx="96.34" cy="262.53" r="0.99" fill="#AFD3D0"/>
<path d="M102.67 262.53H112.16" stroke="#AFD3D0" stroke-width="1.98" stroke-linecap="round" stroke-linejoin="round"/>
<circle cx="115.33" cy="262.53" r="0.99" fill="#AFD3D0"/>
<path d="M177.09 290.57H88.59C87.2258 290.57 86.12 291.676 86.12 293.04V316.77C86.12 318.134 87.2258 319.24 88.59 319.24H177.09C178.454 319.24 179.56 318.134 179.56 316.77V293.04C179.56 291.676 178.454 290.57 177.09 290.57Z" fill="#006E69"/>
<path d="M175.34 299.8H146.65V310H175.34V299.8Z" fill="#003834"/>
<path d="M150.91 304.9H171.08" stroke="#6FAFAC" stroke-width="0.89" stroke-linecap="round" stroke-linejoin="round"/>
<path d="M115.89 308.35H95.22C93.32 308.35 91.77 306.81 91.77 304.9C91.77 302.99 93.31 301.45 95.22 301.45H115.89C117.79 301.45 119.34 302.99 119.34 304.9C119.34 306.81 117.8 308.35 115.89 308.35Z" fill="#6FAFAC"/>
<path d="M133.11 308.35H127.37C125.47 308.35 123.92 306.81 123.92 304.9C123.92 302.99 125.46 301.45 127.37 301.45H133.11C135.01 301.45 136.56 302.99 136.56 304.9C136.56 306.81 135.02 308.35 133.11 308.35Z" stroke="#6FAFAC" stroke-width="0.99" stroke-linecap="round" stroke-linejoin="round"/>
<path d="M96.34 305.89C96.08 305.89 95.82 305.78 95.64 305.6C95.59 305.55 95.55 305.5 95.51 305.45C95.47 305.4 95.44 305.34 95.42 305.28C95.39 305.22 95.37 305.15 95.36 305.09C95.36 305.03 95.34 304.96 95.34 304.9C95.34 304.64 95.45 304.39 95.63 304.2C95.86 303.97 96.2 303.86 96.52 303.93C96.58 303.93 96.65 303.96 96.7 303.99C96.76 304.01 96.82 304.05 96.87 304.08C96.93 304.12 96.98 304.16 97.02 304.21C97.2 304.39 97.31 304.65 97.31 304.91C97.31 304.97 97.31 305.04 97.29 305.1C97.27 305.16 97.26 305.23 97.23 305.29C97.2 305.35 97.17 305.41 97.14 305.46C97.1 305.52 97.06 305.57 97.02 305.61C96.97 305.66 96.92 305.7 96.87 305.73C96.82 305.77 96.76 305.8 96.7 305.82C96.64 305.84 96.58 305.86 96.52 305.88C96.46 305.9 96.39 305.9 96.33 305.9L96.34 305.89Z" fill="#AFD3D0"/>
<path d="M108.01 304.9C108.01 304.35 108.45 303.91 109 303.91C109.54 303.91 109.98 304.35 109.98 304.9C109.98 305.44 109.54 305.89 109 305.89C108.45 305.89 108.01 305.45 108.01 304.9ZM101.68 304.9C101.68 304.35 102.12 303.91 102.67 303.91C103.22 303.91 103.66 304.35 103.66 304.9C103.66 305.44 103.22 305.89 102.67 305.89C102.12 305.89 101.68 305.45 101.68 304.9Z" fill="#AFD3D0" stroke="#AFD3D0" stroke-width="1.21" stroke-linecap="round" stroke-linejoin="round"/>
<path d="M115.33 305.89C115.07 305.89 114.82 305.78 114.63 305.6C114.58 305.55 114.54 305.5 114.5 305.45C114.47 305.4 114.43 305.34 114.41 305.28C114.38 305.22 114.37 305.15 114.35 305.09C114.33 305.03 114.33 304.96 114.33 304.9C114.33 304.64 114.44 304.39 114.62 304.2C114.67 304.15 114.72 304.11 114.77 304.07C114.83 304.04 114.88 304 114.94 303.98C115 303.95 115.06 303.93 115.12 303.92C115.25 303.89 115.38 303.89 115.51 303.92C115.57 303.92 115.64 303.95 115.69 303.98C115.75 304 115.81 304.04 115.86 304.07C115.92 304.11 115.97 304.15 116.01 304.2C116.19 304.38 116.3 304.64 116.3 304.9C116.3 305.16 116.19 305.41 116.01 305.6C115.96 305.65 115.91 305.69 115.86 305.72C115.81 305.76 115.75 305.79 115.69 305.81C115.63 305.83 115.57 305.85 115.51 305.87C115.44 305.88 115.38 305.89 115.32 305.89H115.33Z" fill="#AFD3D0"/>
<path d="M130.34 261.99V241.73C130.34 226.8 142.49 229.21 157.33 229.21C159.49 229.21 161.66 229.21 163.82 229.21C166.18 229.21 168.54 229.19 170.9 229.21C174.06 229.23 177.36 228.64 177.68 224.67V195.19" stroke="#6FAFAC" stroke-width="1.01" stroke-linecap="round" stroke-linejoin="round"/>
<path d="M130.34 263.07C130.97 263.07 131.48 262.559 131.48 261.93C131.48 261.3 130.97 260.79 130.34 260.79C129.71 260.79 129.2 261.3 129.2 261.93C129.2 262.559 129.71 263.07 130.34 263.07Z" fill="#6FAFAC"/>
<path d="M177.7 196.38C178.33 196.38 178.84 195.869 178.84 195.24C178.84 194.61 178.33 194.1 177.7 194.1C177.07 194.1 176.56 194.61 176.56 195.24C176.56 195.869 177.07 196.38 177.7 196.38Z" fill="#6FAFAC"/>
<path d="M133.33 261.99V241.73C133.33 226.8 145.48 229.21 160.32 229.21H171.74" stroke="#6FAFAC" stroke-width="1.01" stroke-linecap="round" stroke-linejoin="round"/>
<path d="M134.47 261.93C134.47 262.56 133.96 263.07 133.33 263.07C132.7 263.07 132.19 262.56 132.19 261.93C132.19 261.3 132.7 260.79 133.33 260.79C133.96 260.79 134.47 261.3 134.47 261.93Z" fill="#6FAFAC"/>
<path d="M171.69 230.34C172.32 230.34 172.83 229.83 172.83 229.2C172.83 228.57 172.32 228.06 171.69 228.06C171.06 228.06 170.55 228.57 170.55 229.2C170.55 229.83 171.06 230.34 171.69 230.34Z" fill="#6FAFAC"/>
<path d="M127.35 261.99V241.73C127.35 226.8 139.5 229.21 154.34 229.21H171.74" stroke="#6FAFAC" stroke-width="1.01" stroke-linecap="round" stroke-linejoin="round"/>
<path d="M128.49 261.93C128.49 262.56 127.98 263.07 127.35 263.07C126.72 263.07 126.21 262.56 126.21 261.93C126.21 261.3 126.72 260.79 127.35 260.79C127.98 260.79 128.49 261.3 128.49 261.93Z" fill="#6FAFAC"/>
<path d="M171.69 230.34C172.32 230.34 172.83 229.83 172.83 229.2C172.83 228.57 172.32 228.06 171.69 228.06C171.06 228.06 170.55 228.57 170.55 229.2C170.55 229.83 171.06 230.34 171.69 230.34Z" fill="#6FAFAC"/>
<path d="M130.34 304.48V284.1C130.34 269.17 142.49 271.58 157.33 271.58H163.82C166.18 271.58 168.54 271.56 170.9 271.58C174.06 271.6 177.36 271.01 177.68 267.04V237.44" stroke="#6FAFAC" stroke-width="0.89" stroke-linecap="round" stroke-linejoin="round"/>
<path d="M131.35 304.43C131.35 304.99 130.9 305.44 130.34 305.44C129.78 305.44 129.33 304.99 129.33 304.43C129.33 303.87 129.78 303.42 130.34 303.42C130.9 303.42 131.35 303.87 131.35 304.43Z" fill="#6FAFAC"/>
<path d="M178.7 237.49C178.7 236.93 178.25 236.48 177.69 236.48C177.13 236.48 176.68 236.93 176.68 237.49C176.68 238.05 177.13 238.5 177.69 238.5C178.25 238.5 178.7 238.05 178.7 237.49Z" fill="#6FAFAC"/>
<path d="M133.33 304.48V284.1C133.33 269.17 145.48 271.58 160.32 271.58H171.86" stroke="#6FAFAC" stroke-width="0.89" stroke-linecap="round" stroke-linejoin="round"/>
<path d="M134.34 304.43C134.34 304.99 133.89 305.44 133.33 305.44C132.77 305.44 132.32 304.99 132.32 304.43C132.32 303.87 132.77 303.42 133.33 303.42C133.89 303.42 134.34 303.87 134.34 304.43Z" fill="#6FAFAC"/>
<path d="M171.82 272.59C172.38 272.59 172.83 272.14 172.83 271.58C172.83 271.02 172.38 270.57 171.82 270.57C171.26 270.57 170.81 271.02 170.81 271.58C170.81 272.14 171.26 272.59 171.82 272.59Z" fill="#6FAFAC"/>
<path d="M127.35 304.48V284.1C127.35 269.17 139.5 271.58 154.34 271.58H171.86" stroke="#6FAFAC" stroke-width="0.89" stroke-linecap="round" stroke-linejoin="round"/>
<path d="M128.36 304.43C128.36 304.99 127.91 305.44 127.35 305.44C126.79 305.44 126.34 304.99 126.34 304.43C126.34 303.87 126.79 303.42 127.35 303.42C127.91 303.42 128.36 303.87 128.36 304.43Z" fill="#6FAFAC"/>
<path d="M171.82 272.59C172.38 272.59 172.83 272.14 172.83 271.58C172.83 271.02 172.38 270.57 171.82 270.57C171.26 270.57 170.81 271.02 170.81 271.58C170.81 272.14 171.26 272.59 171.82 272.59Z" fill="#6FAFAC"/>
<path d="M158.42 313.95C160.22 313.95 162.03 313.95 163.83 313.95C166.19 313.95 168.55 313.93 170.91 313.95C174.07 313.97 177.37 313.38 177.69 309.41V279.93" stroke="#6FAFAC" stroke-width="1.01" stroke-linecap="round" stroke-linejoin="round"/>
<path d="M158.47 315.09C157.84 315.09 157.33 314.58 157.33 313.95C157.33 313.32 157.84 312.81 158.47 312.81C159.1 312.81 159.61 313.32 159.61 313.95C159.61 314.58 159.1 315.09 158.47 315.09Z" fill="#6FAFAC"/>
<path d="M177.7 281.13C178.33 281.13 178.84 280.619 178.84 279.99C178.84 279.36 178.33 278.85 177.7 278.85C177.07 278.85 176.56 279.36 176.56 279.99C176.56 280.619 177.07 281.13 177.7 281.13Z" fill="#6FAFAC"/>
<path d="M161.41 313.95H171.74" stroke="#6FAFAC" stroke-width="1.01" stroke-linecap="round" stroke-linejoin="round"/>
<path d="M161.46 315.09C160.83 315.09 160.32 314.58 160.32 313.95C160.32 313.32 160.83 312.81 161.46 312.81C162.09 312.81 162.6 313.32 162.6 313.95C162.6 314.58 162.09 315.09 161.46 315.09Z" fill="#6FAFAC"/>
<path d="M171.69 315.09C172.32 315.09 172.83 314.58 172.83 313.95C172.83 313.32 172.32 312.81 171.69 312.81C171.06 312.81 170.55 313.32 170.55 313.95C170.55 314.58 171.06 315.09 171.69 315.09Z" fill="#6FAFAC"/>
<path d="M155.42 313.95H171.74" stroke="#6FAFAC" stroke-width="1.01" stroke-linecap="round" stroke-linejoin="round"/>
<path d="M155.48 315.09C154.85 315.09 154.34 314.58 154.34 313.95C154.34 313.32 154.85 312.81 155.48 312.81C156.11 312.81 156.62 313.32 156.62 313.95C156.62 314.58 156.11 315.09 155.48 315.09Z" fill="#6FAFAC"/>
<path d="M171.69 315.09C172.32 315.09 172.83 314.58 172.83 313.95C172.83 313.32 172.32 312.81 171.69 312.81C171.06 312.81 170.55 313.32 170.55 313.95C170.55 314.58 171.06 315.09 171.69 315.09Z" fill="#6FAFAC"/>
<path d="M207.54 330.95V143.2L225.82 131.57H330.16V318.2L310.76 330.95H207.54Z" fill="#013834"/>
<path d="M329.66 132.07V317.93L310.61 330.45H208.05V143.47L225.97 132.07H329.67M330.66 131.07H225.67L207.04 142.92V331.46H310.9L330.66 318.48V131.07Z" fill="#013834"/>
<path d="M310.63 143.46H205.77V332.53H310.63V143.46Z" stroke="#AFD3D0" stroke-width="1.01" stroke-linecap="round" stroke-linejoin="round"/>
<path d="M237.82 219.61V199.35C237.82 184.42 249.97 186.83 264.81 186.83H271.3C273.66 186.83 276.02 186.81 278.38 186.83C281.54 186.85 284.84 186.26 285.16 182.29V151.82" stroke="#6FAFAC" stroke-width="1.01" stroke-linecap="round" stroke-linejoin="round"/>
<path d="M238.96 219.55C238.96 220.18 238.45 220.69 237.82 220.69C237.19 220.69 236.68 220.18 236.68 219.55C236.68 218.92 237.19 218.41 237.82 218.41C238.45 218.41 238.96 218.92 238.96 219.55Z" fill="#6FAFAC"/>
<path d="M286.31 151.88C286.31 151.25 285.8 150.74 285.17 150.74C284.54 150.74 284.03 151.25 284.03 151.88C284.03 152.51 284.54 153.02 285.17 153.02C285.8 153.02 286.31 152.51 286.31 151.88Z" fill="#6FAFAC"/>
<path d="M240.81 219.61V199.35C240.81 184.42 252.96 186.83 267.8 186.83H279.22" stroke="#6FAFAC" stroke-width="1.01" stroke-linecap="round" stroke-linejoin="round"/>
<path d="M241.95 219.55C241.95 220.18 241.44 220.69 240.81 220.69C240.18 220.69 239.67 220.18 239.67 219.55C239.67 218.92 240.18 218.41 240.81 218.41C241.44 218.41 241.95 218.92 241.95 219.55Z" fill="#6FAFAC"/>
<path d="M279.16 187.97C279.79 187.97 280.3 187.46 280.3 186.83C280.3 186.2 279.79 185.69 279.16 185.69C278.53 185.69 278.02 186.2 278.02 186.83C278.02 187.46 278.53 187.97 279.16 187.97Z" fill="#6FAFAC"/>
<path d="M234.83 219.61V199.35C234.83 184.42 246.98 186.83 261.82 186.83H279.22" stroke="#6FAFAC" stroke-width="1.01" stroke-linecap="round" stroke-linejoin="round"/>
<path d="M235.97 219.55C235.97 220.18 235.46 220.69 234.83 220.69C234.2 220.69 233.69 220.18 233.69 219.55C233.69 218.92 234.2 218.41 234.83 218.41C235.46 218.41 235.97 218.92 235.97 219.55Z" fill="#6FAFAC"/>
<path d="M279.16 187.97C279.79 187.97 280.3 187.46 280.3 186.83C280.3 186.2 279.79 185.69 279.16 185.69C278.53 185.69 278.02 186.2 278.02 186.83C278.02 187.46 278.53 187.97 279.16 187.97Z" fill="#6FAFAC"/>
<path d="M237.82 261.99V241.73C237.82 226.8 249.97 229.21 264.81 229.21C266.97 229.21 269.14 229.21 271.3 229.21C273.66 229.21 276.02 229.19 278.38 229.21C281.54 229.23 284.84 228.64 285.16 224.67V188.75" stroke="#6FAFAC" stroke-width="1.01" stroke-linecap="round" stroke-linejoin="round"/>
<path d="M238.96 261.93C238.96 262.56 238.45 263.07 237.82 263.07C237.19 263.07 236.68 262.56 236.68 261.93C236.68 261.3 237.19 260.79 237.82 260.79C238.45 260.79 238.96 261.3 238.96 261.93Z" fill="#6FAFAC"/>
<path d="M286.31 188.81C286.31 188.18 285.8 187.67 285.17 187.67C284.54 187.67 284.03 188.18 284.03 188.81C284.03 189.44 284.54 189.95 285.17 189.95C285.8 189.95 286.31 189.44 286.31 188.81Z" fill="#6FAFAC"/>
<path d="M240.81 261.99V241.73C240.81 226.8 252.96 229.21 267.8 229.21H279.22" stroke="#6FAFAC" stroke-width="1.01" stroke-linecap="round" stroke-linejoin="round"/>
<path d="M241.95 261.93C241.95 262.56 241.44 263.07 240.81 263.07C240.18 263.07 239.67 262.56 239.67 261.93C239.67 261.3 240.18 260.79 240.81 260.79C241.44 260.79 241.95 261.3 241.95 261.93Z" fill="#6FAFAC"/>
<path d="M279.16 230.34C279.79 230.34 280.3 229.83 280.3 229.2C280.3 228.57 279.79 228.06 279.16 228.06C278.53 228.06 278.02 228.57 278.02 229.2C278.02 229.83 278.53 230.34 279.16 230.34Z" fill="#6FAFAC"/>
<path d="M234.83 261.99V241.73C234.83 226.8 246.98 229.21 261.82 229.21H279.22" stroke="#6FAFAC" stroke-width="1.01" stroke-linecap="round" stroke-linejoin="round"/>
<path d="M235.97 261.93C235.97 262.56 235.46 263.07 234.83 263.07C234.2 263.07 233.69 262.56 233.69 261.93C233.69 261.3 234.2 260.79 234.83 260.79C235.46 260.79 235.97 261.3 235.97 261.93Z" fill="#6FAFAC"/>
<path d="M279.16 230.34C279.79 230.34 280.3 229.83 280.3 229.2C280.3 228.57 279.79 228.06 279.16 228.06C278.53 228.06 278.02 228.57 278.02 229.2C278.02 229.83 278.53 230.34 279.16 230.34Z" fill="#6FAFAC"/>
<path d="M310.09 144.01H206.35V151.56H310.09V144.01Z" fill="#AFD3D0"/>
<path d="M330.1 130.65H225.13L205.77 143.18H310.73L330.1 130.65Z" stroke="#AFD3D0" stroke-width="1.01" stroke-linecap="round" stroke-linejoin="round"/>
<path d="M330.8 130.65L330.31 319.72L310.87 332.25L311.36 143.18L330.8 130.65Z" stroke="#AFD3D0" stroke-width="1.01" stroke-linecap="round" stroke-linejoin="round"/>
<path d="M237.82 304.36V284.1C237.82 269.17 249.97 271.58 264.81 271.58H271.3C273.66 271.58 276.02 271.56 278.38 271.58C281.54 271.6 284.84 271.01 285.16 267.04V231.12" stroke="#6FAFAC" stroke-width="1.01" stroke-linecap="round" stroke-linejoin="round"/>
<path d="M238.96 304.3C238.96 304.93 238.45 305.44 237.82 305.44C237.19 305.44 236.68 304.93 236.68 304.3C236.68 303.67 237.19 303.16 237.82 303.16C238.45 303.16 238.96 303.67 238.96 304.3Z" fill="#6FAFAC"/>
<path d="M286.31 231.18C286.31 230.55 285.8 230.04 285.17 230.04C284.54 230.04 284.03 230.55 284.03 231.18C284.03 231.81 284.54 232.32 285.17 232.32C285.8 232.32 286.31 231.81 286.31 231.18Z" fill="#6FAFAC"/>
<path d="M240.81 304.36V284.1C240.81 269.17 252.96 271.58 267.8 271.58H279.22" stroke="#6FAFAC" stroke-width="1.01" stroke-linecap="round" stroke-linejoin="round"/>
<path d="M241.95 304.3C241.95 304.93 241.44 305.44 240.81 305.44C240.18 305.44 239.67 304.93 239.67 304.3C239.67 303.67 240.18 303.16 240.81 303.16C241.44 303.16 241.95 303.67 241.95 304.3Z" fill="#6FAFAC"/>
<path d="M279.16 272.72C279.79 272.72 280.3 272.209 280.3 271.58C280.3 270.95 279.79 270.44 279.16 270.44C278.53 270.44 278.02 270.95 278.02 271.58C278.02 272.209 278.53 272.72 279.16 272.72Z" fill="#6FAFAC"/>
<path d="M234.83 304.36V284.1C234.83 269.17 246.98 271.58 261.82 271.58H279.22" stroke="#6FAFAC" stroke-width="1.01" stroke-linecap="round" stroke-linejoin="round"/>
<path d="M235.97 304.3C235.97 304.93 235.46 305.44 234.83 305.44C234.2 305.44 233.69 304.93 233.69 304.3C233.69 303.67 234.2 303.16 234.83 303.16C235.46 303.16 235.97 303.67 235.97 304.3Z" fill="#6FAFAC"/>
<path d="M279.16 272.72C279.79 272.72 280.3 272.209 280.3 271.58C280.3 270.95 279.79 270.44 279.16 270.44C278.53 270.44 278.02 270.95 278.02 271.58C278.02 272.209 278.53 272.72 279.16 272.72Z" fill="#6FAFAC"/>
<path d="M302.45 167.06H213.95C212.586 167.06 211.48 168.166 211.48 169.53V193.26C211.48 194.624 212.586 195.73 213.95 195.73H302.45C303.814 195.73 304.92 194.624 304.92 193.26V169.53C304.92 168.166 303.814 167.06 302.45 167.06Z" fill="#003834"/>
<path d="M302.45 209.44H213.95C212.586 209.44 211.48 210.546 211.48 211.91V235.64C211.48 237.004 212.586 238.11 213.95 238.11H302.45C303.814 238.11 304.92 237.004 304.92 235.64V211.91C304.92 210.546 303.814 209.44 302.45 209.44Z" fill="#003834"/>
<path d="M302.45 251.82H213.95C212.586 251.82 211.48 252.926 211.48 254.29V278.02C211.48 279.384 212.586 280.49 213.95 280.49H302.45C303.814 280.49 304.92 279.384 304.92 278.02V254.29C304.92 252.926 303.814 251.82 302.45 251.82Z" fill="#003834"/>
<path d="M302.45 294.19H213.95C212.586 294.19 211.48 295.296 211.48 296.66V320.39C211.48 321.754 212.586 322.86 213.95 322.86H302.45C303.814 322.86 304.92 321.754 304.92 320.39V296.66C304.92 295.296 303.814 294.19 302.45 294.19Z" fill="#003834"/>
<path d="M302.45 163.44H213.95C212.586 163.44 211.48 164.546 211.48 165.91V189.64C211.48 191.004 212.586 192.11 213.95 192.11H302.45C303.814 192.11 304.92 191.004 304.92 189.64V165.91C304.92 164.546 303.814 163.44 302.45 163.44Z" fill="#006E69"/>
<path d="M241.24 181.22H220.57C218.67 181.22 217.12 179.68 217.12 177.77C217.12 175.86 218.66 174.32 220.57 174.32H241.24C243.14 174.32 244.69 175.86 244.69 177.77C244.69 179.68 243.15 181.22 241.24 181.22Z" fill="#6FAFAC"/>
<path d="M258.47 181.3H252.73C250.83 181.3 249.28 179.76 249.28 177.85C249.28 175.94 250.82 174.4 252.73 174.4H258.47C260.37 174.4 261.92 175.94 261.92 177.85C261.92 179.76 260.38 181.3 258.47 181.3Z" stroke="#6FAFAC" stroke-width="0.99" stroke-linecap="round" stroke-linejoin="round"/>
<path d="M255.7 178.54V159.68C255.7 147.96 267.85 150.08 282.69 150.08H303.05" stroke="#6FAFAC" stroke-width="0.89" stroke-linecap="round" stroke-linejoin="round"/>
<path d="M255.7 179.5C256.258 179.5 256.71 179.048 256.71 178.49C256.71 177.932 256.258 177.48 255.7 177.48C255.142 177.48 254.69 177.932 254.69 178.49C254.69 179.048 255.142 179.5 255.7 179.5Z" fill="#6FAFAC"/>
<path d="M258.69 178.54V159.68C258.69 147.96 270.84 150.74 285.68 150.74H303.05" stroke="#6FAFAC" stroke-width="0.89" stroke-linecap="round" stroke-linejoin="round"/>
<path d="M258.69 179.5C259.248 179.5 259.7 179.048 259.7 178.49C259.7 177.932 259.248 177.48 258.69 177.48C258.132 177.48 257.68 177.932 257.68 178.49C257.68 179.048 258.132 179.5 258.69 179.5Z" fill="#6FAFAC"/>
<path d="M252.71 178.54V159.68C252.71 147.96 264.86 150.08 279.7 150.08H303.05" stroke="#6FAFAC" stroke-width="0.89" stroke-linecap="round" stroke-linejoin="round"/>
<path d="M252.71 179.5C253.268 179.5 253.72 179.048 253.72 178.49C253.72 177.932 253.268 177.48 252.71 177.48C252.152 177.48 251.7 177.932 251.7 178.49C251.7 179.048 252.152 179.5 252.71 179.5Z" fill="#6FAFAC"/>
<path d="M300.7 172.67H272.01V182.87H300.7V172.67Z" fill="#003834"/>
<path d="M276.27 177.78H296.44" stroke="#6FAFAC" stroke-width="0.89" stroke-linecap="round" stroke-linejoin="round"/>
<circle cx="221.69" cy="177.78" r="0.99" fill="#AFD3D0"/>
<path d="M228.02 177.78H237.52" stroke="#AFD3D0" stroke-width="1.98" stroke-linecap="round" stroke-linejoin="round"/>
<circle cx="240.68" cy="177.78" r="0.99" fill="#AFD3D0"/>
<path d="M302.45 205.82H213.95C212.586 205.82 211.48 206.926 211.48 208.29V232.02C211.48 233.384 212.586 234.49 213.95 234.49H302.45C303.814 234.49 304.92 233.384 304.92 232.02V208.29C304.92 206.926 303.814 205.82 302.45 205.82Z" fill="#006E69"/>
<path d="M300.7 215.05H272.01V225.25H300.7V215.05Z" fill="#003834"/>
<path d="M276.27 220.15H296.44" stroke="#6FAFAC" stroke-width="0.89" stroke-linecap="round" stroke-linejoin="round"/>
<path d="M241.24 223.6H220.57C218.67 223.6 217.12 222.06 217.12 220.15C217.12 218.24 218.66 216.7 220.57 216.7H241.24C243.14 216.7 244.69 218.24 244.69 220.15C244.69 222.06 243.15 223.6 241.24 223.6Z" fill="#6FAFAC"/>
<path d="M258.47 223.6H252.73C250.83 223.6 249.28 222.06 249.28 220.15C249.28 218.24 250.82 216.7 252.73 216.7H258.47C260.37 216.7 261.92 218.24 261.92 220.15C261.92 222.06 260.38 223.6 258.47 223.6Z" stroke="#6FAFAC" stroke-width="0.99" stroke-linecap="round" stroke-linejoin="round"/>
<circle cx="221.69" cy="220.15" r="0.99" fill="#AFD3D0"/>
<path d="M228.02 220.15H237.52" stroke="#AFD3D0" stroke-width="1.98" stroke-linecap="round" stroke-linejoin="round"/>
<circle cx="240.68" cy="220.15" r="0.99" fill="#AFD3D0"/>
<path d="M255.7 219.73V199.35C255.7 184.42 267.85 186.83 282.69 186.83H289.18C291.54 186.83 293.9 186.81 296.26 186.83C299.42 186.85 302.72 186.26 303.04 182.29V150.38" stroke="#6FAFAC" stroke-width="0.89" stroke-linecap="round" stroke-linejoin="round"/>
<path d="M256.7 219.68C256.7 220.24 256.25 220.69 255.69 220.69C255.13 220.69 254.68 220.24 254.68 219.68C254.68 219.12 255.13 218.67 255.69 218.67C256.25 218.67 256.7 219.12 256.7 219.68Z" fill="#6FAFAC"/>
<path d="M304.06 150.43C304.06 149.87 303.61 149.42 303.05 149.42C302.49 149.42 302.04 149.87 302.04 150.43C302.04 150.99 302.49 151.44 303.05 151.44C303.61 151.44 304.06 150.99 304.06 150.43Z" fill="#6FAFAC"/>
<path d="M258.69 219.73V199.35C258.69 184.42 270.84 186.83 285.68 186.83H297.22" stroke="#6FAFAC" stroke-width="0.89" stroke-linecap="round" stroke-linejoin="round"/>
<path d="M259.69 219.68C259.69 220.24 259.24 220.69 258.68 220.69C258.12 220.69 257.67 220.24 257.67 219.68C257.67 219.12 258.12 218.67 258.68 218.67C259.24 218.67 259.69 219.12 259.69 219.68Z" fill="#6FAFAC"/>
<path d="M297.17 187.84C297.73 187.84 298.18 187.39 298.18 186.83C298.18 186.27 297.73 185.82 297.17 185.82C296.61 185.82 296.16 186.27 296.16 186.83C296.16 187.39 296.61 187.84 297.17 187.84Z" fill="#6FAFAC"/>
<path d="M252.71 219.73V199.35C252.71 184.42 264.86 186.83 279.7 186.83H297.22" stroke="#6FAFAC" stroke-width="0.89" stroke-linecap="round" stroke-linejoin="round"/>
<path d="M253.71 219.68C253.71 220.24 253.26 220.69 252.7 220.69C252.14 220.69 251.69 220.24 251.69 219.68C251.69 219.12 252.14 218.67 252.7 218.67C253.26 218.67 253.71 219.12 253.71 219.68Z" fill="#6FAFAC"/>
<path d="M297.17 187.84C297.73 187.84 298.18 187.39 298.18 186.83C298.18 186.27 297.73 185.82 297.17 185.82C296.61 185.82 296.16 186.27 296.16 186.83C296.16 187.39 296.61 187.84 297.17 187.84Z" fill="#6FAFAC"/>
<path d="M302.45 248.19H213.95C212.586 248.19 211.48 249.296 211.48 250.66V274.39C211.48 275.754 212.586 276.86 213.95 276.86H302.45C303.814 276.86 304.92 275.754 304.92 274.39V250.66C304.92 249.296 303.814 248.19 302.45 248.19Z" fill="#006E69"/>
<path d="M300.7 257.43H272.01V267.63H300.7V257.43Z" fill="#003834"/>
<path d="M276.27 262.53H296.44" stroke="#6FAFAC" stroke-width="0.89" stroke-linecap="round" stroke-linejoin="round"/>
<path d="M241.24 265.97H220.57C218.67 265.97 217.12 264.43 217.12 262.52C217.12 260.61 218.66 259.07 220.57 259.07H241.24C243.14 259.07 244.69 260.61 244.69 262.52C244.69 264.43 243.15 265.97 241.24 265.97Z" fill="#6FAFAC"/>
<path d="M258.47 265.97H252.73C250.83 265.97 249.28 264.43 249.28 262.52C249.28 260.61 250.82 259.07 252.73 259.07H258.47C260.37 259.07 261.92 260.61 261.92 262.52C261.92 264.43 260.38 265.97 258.47 265.97Z" stroke="#6FAFAC" stroke-width="0.99" stroke-linecap="round" stroke-linejoin="round"/>
<circle cx="221.69" cy="262.53" r="0.99" fill="#AFD3D0"/>
<path d="M228.02 262.53H237.52" stroke="#AFD3D0" stroke-width="1.98" stroke-linecap="round" stroke-linejoin="round"/>
<circle cx="240.68" cy="262.53" r="0.99" fill="#AFD3D0"/>
<path d="M302.45 290.57H213.95C212.586 290.57 211.48 291.676 211.48 293.04V316.77C211.48 318.134 212.586 319.24 213.95 319.24H302.45C303.814 319.24 304.92 318.134 304.92 316.77V293.04C304.92 291.676 303.814 290.57 302.45 290.57Z" fill="#006E69"/>
<path d="M300.7 299.8H272.01V310H300.7V299.8Z" fill="#003834"/>
<path d="M276.27 304.9H296.44" stroke="#6FAFAC" stroke-width="0.89" stroke-linecap="round" stroke-linejoin="round"/>
<path d="M241.24 308.35H220.57C218.67 308.35 217.12 306.81 217.12 304.9C217.12 302.99 218.66 301.45 220.57 301.45H241.24C243.14 301.45 244.69 302.99 244.69 304.9C244.69 306.81 243.15 308.35 241.24 308.35Z" fill="#6FAFAC"/>
<path d="M258.47 308.35H252.73C250.83 308.35 249.28 306.81 249.28 304.9C249.28 302.99 250.82 301.45 252.73 301.45H258.47C260.37 301.45 261.92 302.99 261.92 304.9C261.92 306.81 260.38 308.35 258.47 308.35Z" stroke="#6FAFAC" stroke-width="0.99" stroke-linecap="round" stroke-linejoin="round"/>
<path d="M221.69 305.89C221.43 305.89 221.17 305.78 220.99 305.6C220.94 305.55 220.9 305.5 220.86 305.45C220.82 305.4 220.79 305.34 220.77 305.28C220.74 305.22 220.72 305.15 220.71 305.09C220.71 305.03 220.69 304.96 220.69 304.9C220.69 304.64 220.8 304.39 220.98 304.2C221.21 303.97 221.55 303.86 221.87 303.93C221.93 303.93 222 303.96 222.05 303.99C222.11 304.01 222.17 304.05 222.22 304.08C222.28 304.12 222.33 304.16 222.37 304.21C222.55 304.39 222.66 304.65 222.66 304.91C222.66 304.97 222.66 305.04 222.64 305.1C222.62 305.16 222.61 305.23 222.58 305.29C222.55 305.35 222.52 305.41 222.49 305.46C222.45 305.52 222.41 305.57 222.37 305.61C222.32 305.66 222.27 305.7 222.22 305.73C222.17 305.77 222.11 305.8 222.05 305.82C221.99 305.84 221.93 305.86 221.87 305.88C221.81 305.9 221.74 305.9 221.68 305.9L221.69 305.89Z" fill="#AFD3D0"/>
<path d="M233.36 304.9C233.36 304.35 233.8 303.91 234.35 303.91C234.89 303.91 235.33 304.35 235.33 304.9C235.33 305.44 234.89 305.89 234.35 305.89C233.8 305.89 233.36 305.45 233.36 304.9ZM227.03 304.9C227.03 304.35 227.47 303.91 228.02 303.91C228.57 303.91 229.01 304.35 229.01 304.9C229.01 305.44 228.57 305.89 228.02 305.89C227.47 305.89 227.03 305.45 227.03 304.9Z" fill="#AFD3D0" stroke="#AFD3D0" stroke-width="1.21" stroke-linecap="round" stroke-linejoin="round"/>
<path d="M240.68 305.89C240.42 305.89 240.17 305.78 239.98 305.6C239.93 305.55 239.89 305.5 239.85 305.45C239.82 305.4 239.78 305.34 239.76 305.28C239.73 305.22 239.72 305.15 239.7 305.09C239.68 305.03 239.68 304.96 239.68 304.9C239.68 304.64 239.79 304.39 239.97 304.2C240.02 304.15 240.07 304.11 240.12 304.07C240.18 304.04 240.23 304 240.29 303.98C240.35 303.95 240.41 303.93 240.47 303.92C240.6 303.89 240.73 303.89 240.86 303.92C240.92 303.92 240.99 303.95 241.04 303.98C241.1 304 241.16 304.04 241.21 304.07C241.27 304.11 241.32 304.15 241.36 304.2C241.54 304.38 241.65 304.64 241.65 304.9C241.65 305.16 241.54 305.41 241.36 305.6C241.31 305.65 241.26 305.69 241.21 305.72C241.16 305.76 241.1 305.79 241.04 305.81C240.98 305.83 240.92 305.85 240.86 305.87C240.79 305.88 240.73 305.89 240.67 305.89H240.68Z" fill="#AFD3D0"/>
<path d="M255.7 261.99V241.73C255.7 226.8 267.85 229.21 282.69 229.21C284.85 229.21 287.02 229.21 289.18 229.21C291.54 229.21 293.9 229.19 296.26 229.21C299.42 229.23 302.72 228.64 303.04 224.67V195.19" stroke="#6FAFAC" stroke-width="1.01" stroke-linecap="round" stroke-linejoin="round"/>
<path d="M256.83 261.93C256.83 262.56 256.32 263.07 255.69 263.07C255.06 263.07 254.55 262.56 254.55 261.93C254.55 261.3 255.06 260.79 255.69 260.79C256.32 260.79 256.83 261.3 256.83 261.93Z" fill="#6FAFAC"/>
<path d="M304.19 195.24C304.19 194.61 303.68 194.1 303.05 194.1C302.42 194.1 301.91 194.61 301.91 195.24C301.91 195.87 302.42 196.38 303.05 196.38C303.68 196.38 304.19 195.87 304.19 195.24Z" fill="#6FAFAC"/>
<path d="M258.69 261.99V241.73C258.69 226.8 270.84 229.21 285.68 229.21H297.1" stroke="#6FAFAC" stroke-width="1.01" stroke-linecap="round" stroke-linejoin="round"/>
<path d="M259.82 261.93C259.82 262.56 259.31 263.07 258.68 263.07C258.05 263.07 257.54 262.56 257.54 261.93C257.54 261.3 258.05 260.79 258.68 260.79C259.31 260.79 259.82 261.3 259.82 261.93Z" fill="#6FAFAC"/>
<path d="M297.04 230.34C297.67 230.34 298.18 229.83 298.18 229.2C298.18 228.57 297.67 228.06 297.04 228.06C296.41 228.06 295.9 228.57 295.9 229.2C295.9 229.83 296.41 230.34 297.04 230.34Z" fill="#6FAFAC"/>
<path d="M252.71 261.99V241.73C252.71 226.8 264.86 229.21 279.7 229.21H297.1" stroke="#6FAFAC" stroke-width="1.01" stroke-linecap="round" stroke-linejoin="round"/>
<path d="M253.84 261.93C253.84 262.56 253.33 263.07 252.7 263.07C252.07 263.07 251.56 262.56 251.56 261.93C251.56 261.3 252.07 260.79 252.7 260.79C253.33 260.79 253.84 261.3 253.84 261.93Z" fill="#6FAFAC"/>
<path d="M297.04 230.34C297.67 230.34 298.18 229.83 298.18 229.2C298.18 228.57 297.67 228.06 297.04 228.06C296.41 228.06 295.9 228.57 295.9 229.2C295.9 229.83 296.41 230.34 297.04 230.34Z" fill="#6FAFAC"/>
<path d="M255.7 304.48V284.1C255.7 269.17 267.85 271.58 282.69 271.58H289.18C291.54 271.58 293.9 271.56 296.26 271.58C299.42 271.6 302.72 271.01 303.04 267.04V237.44" stroke="#6FAFAC" stroke-width="0.89" stroke-linecap="round" stroke-linejoin="round"/>
<path d="M256.7 304.43C256.7 304.99 256.25 305.44 255.69 305.44C255.13 305.44 254.68 304.99 254.68 304.43C254.68 303.87 255.13 303.42 255.69 303.42C256.25 303.42 256.7 303.87 256.7 304.43Z" fill="#6FAFAC"/>
<path d="M304.06 237.49C304.06 236.93 303.61 236.48 303.05 236.48C302.49 236.48 302.04 236.93 302.04 237.49C302.04 238.05 302.49 238.5 303.05 238.5C303.61 238.5 304.06 238.05 304.06 237.49Z" fill="#6FAFAC"/>
<path d="M258.69 304.48V284.1C258.69 269.17 270.84 271.58 285.68 271.58H297.22" stroke="#6FAFAC" stroke-width="0.89" stroke-linecap="round" stroke-linejoin="round"/>
<path d="M259.69 304.43C259.69 304.99 259.24 305.44 258.68 305.44C258.12 305.44 257.67 304.99 257.67 304.43C257.67 303.87 258.12 303.42 258.68 303.42C259.24 303.42 259.69 303.87 259.69 304.43Z" fill="#6FAFAC"/>
<path d="M297.17 272.59C297.73 272.59 298.18 272.14 298.18 271.58C298.18 271.02 297.73 270.57 297.17 270.57C296.61 270.57 296.16 271.02 296.16 271.58C296.16 272.14 296.61 272.59 297.17 272.59Z" fill="#6FAFAC"/>
<path d="M252.71 304.48V284.1C252.71 269.17 264.86 271.58 279.7 271.58H297.22" stroke="#6FAFAC" stroke-width="0.89" stroke-linecap="round" stroke-linejoin="round"/>
<path d="M253.71 304.43C253.71 304.99 253.26 305.44 252.7 305.44C252.14 305.44 251.69 304.99 251.69 304.43C251.69 303.87 252.14 303.42 252.7 303.42C253.26 303.42 253.71 303.87 253.71 304.43Z" fill="#6FAFAC"/>
<path d="M297.17 272.59C297.73 272.59 298.18 272.14 298.18 271.58C298.18 271.02 297.73 270.57 297.17 270.57C296.61 270.57 296.16 271.02 296.16 271.58C296.16 272.14 296.61 272.59 297.17 272.59Z" fill="#6FAFAC"/>
<path d="M283.77 313.95C285.57 313.95 287.38 313.95 289.18 313.95C291.54 313.95 293.9 313.93 296.26 313.95C299.42 313.97 302.72 313.38 303.04 309.41V279.93" stroke="#6FAFAC" stroke-width="1.01" stroke-linecap="round" stroke-linejoin="round"/>
<path d="M283.83 315.09C283.2 315.09 282.69 314.58 282.69 313.95C282.69 313.32 283.2 312.81 283.83 312.81C284.46 312.81 284.97 313.32 284.97 313.95C284.97 314.58 284.46 315.09 283.83 315.09Z" fill="#6FAFAC"/>
<path d="M304.19 279.99C304.19 279.36 303.68 278.85 303.05 278.85C302.42 278.85 301.91 279.36 301.91 279.99C301.91 280.62 302.42 281.13 303.05 281.13C303.68 281.13 304.19 280.62 304.19 279.99Z" fill="#6FAFAC"/>
<path d="M286.76 313.95H297.1" stroke="#6FAFAC" stroke-width="1.01" stroke-linecap="round" stroke-linejoin="round"/>
<path d="M286.82 315.09C286.19 315.09 285.68 314.58 285.68 313.95C285.68 313.32 286.19 312.81 286.82 312.81C287.45 312.81 287.96 313.32 287.96 313.95C287.96 314.58 287.45 315.09 286.82 315.09Z" fill="#6FAFAC"/>
<path d="M297.04 315.09C297.67 315.09 298.18 314.58 298.18 313.95C298.18 313.32 297.67 312.81 297.04 312.81C296.41 312.81 295.9 313.32 295.9 313.95C295.9 314.58 296.41 315.09 297.04 315.09Z" fill="#6FAFAC"/>
<path d="M280.78 313.95H297.1" stroke="#6FAFAC" stroke-width="1.01" stroke-linecap="round" stroke-linejoin="round"/>
<path d="M280.84 315.09C280.21 315.09 279.7 314.58 279.7 313.95C279.7 313.32 280.21 312.81 280.84 312.81C281.47 312.81 281.98 313.32 281.98 313.95C281.98 314.58 281.47 315.09 280.84 315.09Z" fill="#6FAFAC"/>
<path d="M297.04 315.09C297.67 315.09 298.18 314.58 298.18 313.95C298.18 313.32 297.67 312.81 297.04 312.81C296.41 312.81 295.9 313.32 295.9 313.95C295.9 314.58 296.41 315.09 297.04 315.09Z" fill="#6FAFAC"/>
<path d="M308.51 178.4H384.76C391.81 178.4 397.53 184.12 397.53 191.17V232.58C397.53 239.63 403.25 245.35 410.3 245.35H420.72" stroke="#ACCA53" stroke-width="1.05" stroke-linecap="round" stroke-linejoin="round"/>
<path d="M308.71 182.36C306.52 182.36 304.75 180.58 304.75 178.4C304.75 176.22 306.53 174.44 308.71 174.44C310.89 174.44 312.67 176.22 312.67 178.4C312.67 180.58 310.89 182.36 308.71 182.36Z" fill="#ACCA53"/>
<path d="M308.51 177.87H384.76C391.81 177.87 397.53 172.15 397.53 165.1V123.69C397.53 116.64 403.25 110.92 410.3 110.92H420.72" stroke="#ACCA53" stroke-width="1.05" stroke-linecap="round" stroke-linejoin="round"/>
<path d="M308.71 181.84C306.52 181.84 304.75 180.06 304.75 177.88C304.75 175.7 306.53 173.92 308.71 173.92C310.89 173.92 312.67 175.7 312.67 177.88C312.67 180.06 310.89 181.84 308.71 181.84Z" fill="#ACCA53"/>
<path d="M568.79 201.92H412.96V345.79H568.79V201.92Z" fill="#013834"/>
<path d="M568.28 202.42V345.29H413.46V202.42H568.28ZM569.29 201.42H412.46V346.29H569.29V201.42Z" fill="#013834"/>
<path d="M431.88 335.96H552.99" stroke="#AFD3D0" stroke-width="0.43" stroke-linecap="round" stroke-linejoin="round"/>
<path d="M552.36 338.12L556.1 335.96L552.36 333.8V338.12Z" fill="#AFD3D0"/>
<path d="M431.88 335.96V214.85" stroke="#AFD3D0" stroke-width="0.43" stroke-linecap="round" stroke-linejoin="round"/>
<path d="M434.04 215.48L431.88 211.74L429.72 215.48H434.04Z" fill="#AFD3D0"/>
<path d="M425.37 212.67L422.99 218.45L422.05 217.56L425.56 217.4L426.71 217.35C426.44 217.75 422.84 223.15 422.46 223.72L425.14 217.69L425.7 218.52L422.26 219.24L421.33 219.43C421.33 218.83 422.81 213.25 422.81 212.51L423.83 212.68H425.38L425.37 212.67Z" fill="#6FAFAC"/>
<path d="M562.26 330C563.42 330 564.36 330.95 564.36 332.1V335.96H560.15V332.1C560.15 330.94 561.1 330 562.25 330H562.26Z" stroke="#ACCA53" stroke-width="0.35" stroke-miterlimit="10"/>
<path d="M562.26 333.68C563.42 333.68 564.36 334.63 564.36 335.78H560.15C560.15 334.62 561.1 333.68 562.25 333.68H562.26Z" fill="white" stroke="white" stroke-width="0.35" stroke-miterlimit="10"/>
<path d="M565.07 335.96H559.46" stroke="#ACCA53" stroke-width="1.05" stroke-linecap="round" stroke-linejoin="round"/>
<path d="M562.26 330.7C561.1 330.7 560.16 329.75 560.16 328.6H564.37C564.37 329.76 563.42 330.7 562.27 330.7H562.26Z" fill="white" stroke="white" stroke-width="0.35" stroke-miterlimit="10"/>
<path d="M562.26 330.7C561.1 330.7 560.16 329.75 560.16 328.6V324.74H564.37V328.6C564.37 329.76 563.42 330.7 562.27 330.7H562.26Z" stroke="#ACCA53" stroke-width="0.35" stroke-miterlimit="10"/>
<path d="M559.46 324.74H565.07" stroke="#ACCA53" stroke-width="1.05" stroke-linecap="round" stroke-linejoin="round"/>
<path d="M436.37 331.48V321.46" stroke="#6FAFAC" stroke-width="3.36" stroke-linecap="round" stroke-linejoin="round"/>
<path d="M442.28 331.61V308.24" stroke="#6FAFAC" stroke-width="3.36" stroke-linecap="round" stroke-linejoin="round"/>
<path d="M448.2 331.73V299.65" stroke="#6FAFAC" stroke-width="3.36" stroke-linecap="round" stroke-linejoin="round"/>
<path d="M454.11 331.85V303.13" stroke="#6FAFAC" stroke-width="3.36" stroke-linecap="round" stroke-linejoin="round"/>
<path d="M460.03 331.98V294.09" stroke="#6FAFAC" stroke-width="3.36" stroke-linecap="round" stroke-linejoin="round"/>
<path d="M465.94 332.1V283.42" stroke="#6FAFAC" stroke-width="3.36" stroke-linecap="round" stroke-linejoin="round"/>
<path d="M471.86 332.22V274.83" stroke="#6FAFAC" stroke-width="3.36" stroke-linecap="round" stroke-linejoin="round"/>
<path d="M477.77 332.35V308.24" stroke="#6FAFAC" stroke-width="3.36" stroke-linecap="round" stroke-linejoin="round"/>
<path d="M483.69 332.47V286.43" stroke="#6FAFAC" stroke-width="3.36" stroke-linecap="round" stroke-linejoin="round"/>
<path d="M489.6 332.6V220.47" stroke="#6FAFAC" stroke-width="3.36" stroke-linecap="round" stroke-linejoin="round"/>
<path d="M548.53 331.48V321.46" stroke="#6FAFAC" stroke-width="3.36" stroke-linecap="round" stroke-linejoin="round"/>
<path d="M542.61 331.61V308.24" stroke="#6FAFAC" stroke-width="3.36" stroke-linecap="round" stroke-linejoin="round"/>
<path d="M536.69 331.73V299.65" stroke="#6FAFAC" stroke-width="3.36" stroke-linecap="round" stroke-linejoin="round"/>
<path d="M530.78 331.85V303.13" stroke="#6FAFAC" stroke-width="3.36" stroke-linecap="round" stroke-linejoin="round"/>
<path d="M524.86 331.98V309.4" stroke="#6FAFAC" stroke-width="3.36" stroke-linecap="round" stroke-linejoin="round"/>
<path d="M518.95 332.1V263.38" stroke="#6FAFAC" stroke-width="3.36" stroke-linecap="round" stroke-linejoin="round"/>
<path d="M513.03 332.22V301.74" stroke="#6FAFAC" stroke-width="3.36" stroke-linecap="round" stroke-linejoin="round"/>
<path d="M507.12 332.35V306.85" stroke="#6FAFAC" stroke-width="3.36" stroke-linecap="round" stroke-linejoin="round"/>
<path d="M501.2 332.47V294.32" stroke="#6FAFAC" stroke-width="3.36" stroke-linecap="round" stroke-linejoin="round"/>
<path d="M495.29 332.6V250.12" stroke="#6FAFAC" stroke-width="3.36" stroke-linecap="round" stroke-linejoin="round"/>
<path d="M568.79 33.21H412.96V177.08H568.79V33.21Z" fill="#013834"/>
<path d="M568.28 33.72V176.58H413.46V33.72H568.28ZM569.29 32.71H412.46V177.58H569.29V32.71Z" fill="#013834"/>
<path d="M428.8 167.26H549.9" stroke="#AFD3D0" stroke-width="0.43" stroke-linecap="round" stroke-linejoin="round"/>
<path d="M549.27 169.42L553.01 167.26L549.27 165.1V169.42Z" fill="#AFD3D0"/>
<path d="M428.8 167.26V46.1501" stroke="#AFD3D0" stroke-width="0.43" stroke-linecap="round" stroke-linejoin="round"/>
<path d="M430.95 46.78L428.8 43.04L426.64 46.78H430.95Z" fill="#AFD3D0"/>
<path d="M422.29 43.9701L419.91 49.7501L418.97 48.8601L422.48 48.7001L423.63 48.6501C423.36 49.0501 419.76 54.4501 419.38 55.0201L422.06 48.9901L422.62 49.8201L419.18 50.5401L418.25 50.7301C418.25 50.1301 419.73 44.5501 419.73 43.8101L420.75 43.9801H422.3L422.29 43.9701Z" fill="#ACCA53" stroke="#ACCA53" stroke-width="0.37" stroke-linecap="round" stroke-linejoin="round"/>
<path d="M433.28 163.89V140.76" stroke="#ACCA53" stroke-width="3.08" stroke-linecap="round" stroke-linejoin="round"/>
<path d="M438.36 163.89V136.95" stroke="#ACCA53" stroke-width="3.08" stroke-linecap="round" stroke-linejoin="round"/>
<path d="M443.43 163.89V133.15" stroke="#ACCA53" stroke-width="3.08" stroke-linecap="round" stroke-linejoin="round"/>
<path d="M448.51 163.89V129.34" stroke="#ACCA53" stroke-width="3.08" stroke-linecap="round" stroke-linejoin="round"/>
<path d="M453.58 163.89V125.53" stroke="#ACCA53" stroke-width="3.08" stroke-linecap="round" stroke-linejoin="round"/>
<path d="M458.66 163.89V121.85" stroke="#ACCA53" stroke-width="3.08" stroke-linecap="round" stroke-linejoin="round"/>
<path d="M463.73 163.89V118.57" stroke="#ACCA53" stroke-width="3.08" stroke-linecap="round" stroke-linejoin="round"/>
<path d="M468.81 163.89V115.7" stroke="#ACCA53" stroke-width="3.08" stroke-linecap="round" stroke-linejoin="round"/>
<path d="M473.88 163.89V113.22" stroke="#ACCA53" stroke-width="3.08" stroke-linecap="round" stroke-linejoin="round"/>
<path d="M478.96 163.89V110.81" stroke="#ACCA53" stroke-width="3.08" stroke-linecap="round" stroke-linejoin="round"/>
<path d="M484.03 163.89V108.4" stroke="#ACCA53" stroke-width="3.08" stroke-linecap="round" stroke-linejoin="round"/>
<path d="M489.11 163.89V107.11" stroke="#ACCA53" stroke-width="3.08" stroke-linecap="round" stroke-linejoin="round"/>
<path d="M545.19 163.89V140.76" stroke="#ACCA53" stroke-width="3.08" stroke-linecap="round" stroke-linejoin="round"/>
<path d="M540.11 163.89V136.95" stroke="#ACCA53" stroke-width="3.08" stroke-linecap="round" stroke-linejoin="round"/>
<path d="M535.04 163.89V133.15" stroke="#ACCA53" stroke-width="3.08" stroke-linecap="round" stroke-linejoin="round"/>
<path d="M529.96 163.89V129.34" stroke="#ACCA53" stroke-width="3.08" stroke-linecap="round" stroke-linejoin="round"/>
<path d="M524.89 163.89V125.53" stroke="#ACCA53" stroke-width="3.08" stroke-linecap="round" stroke-linejoin="round"/>
<path d="M519.81 163.89V121.85" stroke="#ACCA53" stroke-width="3.08" stroke-linecap="round" stroke-linejoin="round"/>
<path d="M514.74 163.89V118.57" stroke="#ACCA53" stroke-width="3.08" stroke-linecap="round" stroke-linejoin="round"/>
<path d="M509.66 163.89V115.7" stroke="#ACCA53" stroke-width="3.08" stroke-linecap="round" stroke-linejoin="round"/>
<path d="M504.59 163.89V113.22" stroke="#ACCA53" stroke-width="3.08" stroke-linecap="round" stroke-linejoin="round"/>
<path d="M499.51 163.89V110.81" stroke="#ACCA53" stroke-width="3.08" stroke-linecap="round" stroke-linejoin="round"/>
<path d="M494.44 163.89V108.4" stroke="#ACCA53" stroke-width="3.08" stroke-linecap="round" stroke-linejoin="round"/>
<path d="M489.36 163.89V107.11" stroke="#ACCA53" stroke-width="3.08" stroke-linecap="round" stroke-linejoin="round"/>
<path d="M559.46 161.02C560.62 161.02 561.56 161.97 561.56 163.12V166.98H557.35V163.12C557.35 161.96 558.3 161.02 559.45 161.02H559.46Z" stroke="#ACCA53" stroke-width="0.35" stroke-miterlimit="10"/>
<path d="M559.46 164.7C560.62 164.7 561.56 165.65 561.56 166.8H557.35C557.35 165.64 558.3 164.7 559.45 164.7H559.46Z" fill="white" stroke="white" stroke-width="0.35" stroke-miterlimit="10"/>
<path d="M562.27 166.98H556.66" stroke="#ACCA53" stroke-width="1.05" stroke-linecap="round" stroke-linejoin="round"/>
<path d="M559.46 161.72C558.3 161.72 557.36 160.77 557.36 159.62H561.57C561.57 160.78 560.62 161.72 559.47 161.72H559.46Z" fill="white" stroke="white" stroke-width="0.35" stroke-miterlimit="10"/>
<path d="M559.46 161.72C558.3 161.72 557.36 160.77 557.36 159.62V155.76H561.57V159.62C561.57 160.78 560.62 161.72 559.47 161.72H559.46Z" stroke="#ACCA53" stroke-width="0.35" stroke-miterlimit="10"/>
<path d="M556.66 155.76H562.27" stroke="#ACCA53" stroke-width="1.05" stroke-linecap="round" stroke-linejoin="round"/>
</svg>
