<svg width="458" height="329" viewBox="0 0 458 329" fill="none" xmlns="http://www.w3.org/2000/svg">
<path d="M126.43 161.39H27.15V84L126.43 83.78V161.39ZM28.37 160.17H125.21V85L28.37 85.22V160.17Z" fill="#C3C3C3"/>
<path d="M126.43 84.94H27.15V72.34H126.43V84.94ZM28.38 83.7H125.2V73.56H28.38V83.7Z" fill="#ADCB53"/>
<path d="M120.805 75.5271L115.735 80.597L116.93 81.7921L122 76.7221L120.805 75.5271Z" fill="#A8C653"/>
<path d="M116.937 75.5201L115.742 76.7151L120.812 81.785L122.007 80.59L116.937 75.5201Z" fill="#A8C653"/>
<path d="M108.52 76.4701V81.0101H103.42V76.4701H108.52ZM109.3 75.6901H102.64V81.7901H109.3V75.6901Z" fill="#A8C653"/>
<path d="M96.17 80.4501H89.51V81.7901H96.17V80.4501Z" fill="#181818"/>
<path d="M67.58 112.47H46.58V113.69H67.58V112.47Z" fill="#C3C3C3"/>
<path d="M44.63 112.47H35.99V113.69H44.63V112.47Z" fill="#C3C3C3"/>
<path d="M55.27 129.31H35.99V130.53H55.27V129.31Z" fill="#C3C3C3"/>
<path d="M0.609985 135.2V60.26L97.44 60.04V135.2H0.609985Z" fill="#003834"/>
<path d="M96.83 60.65V134.59H1.22001V60.87L96.83 60.65ZM98.06 59.42L0.0100098 59.64V135.81H98.06V59.42Z" fill="white"/>
<path d="M98.05 49.62H0V60.99H98.05V49.62Z" fill="#A8C653"/>
<path d="M93.0457 52.1925L87.9757 57.2625L89.1707 58.4575L94.2407 53.3875L93.0457 52.1925Z" fill="#003834"/>
<path d="M89.1636 52.1895L87.9686 53.3845L93.0386 58.4545L94.2336 57.2595L89.1636 52.1895Z" fill="#003834"/>
<path d="M80.76 53.14V57.68H75.66V53.14H80.76ZM81.54 52.36H74.88V58.46H81.54V52.36Z" fill="#003834"/>
<path d="M68.41 57.11H61.75V58.45H68.41V57.11Z" fill="#003834"/>
<path d="M89.83 70.36H8.22998V72.19H89.83V70.36Z" fill="#ADCB53"/>
<path d="M89.83 78.79H8.22998V80.62H89.83V78.79Z" fill="#ADCB53"/>
<path d="M89.83 87.51H42.77V88.73H89.83V87.51Z" fill="white"/>
<path d="M39.8199 87.51H18.8199V88.73H39.8199V87.51Z" fill="white"/>
<path d="M16.87 87.51H8.22998V88.73H16.87V87.51Z" fill="white"/>
<path d="M89.83 95.9199H8.22998V97.1399H89.83V95.9199Z" fill="white"/>
<path d="M89.83 104.04H29.79V105.87H89.83V104.04Z" fill="#ADCB53"/>
<path d="M27.51 104.34H8.22998V105.56H27.51V104.34Z" fill="white"/>
<path d="M89.83 112.75H46.91V113.97H89.83V112.75Z" fill="white"/>
<path d="M42.77 112.44H8.22998V114.27H42.77V112.44Z" fill="#ADCB53"/>
<path d="M89.83 120.86H25.51V122.69H89.83V120.86Z" fill="#ADCB53"/>
<path d="M21.52 121.17H8.22998V122.39H21.52V121.17Z" fill="white"/>
<path d="M92.9099 30.01C88.0499 30.01 84.0699 26.07 84.0299 21.2C83.9899 16.41 92.1099 8.66 92.4599 8.33C92.6599 8.14 92.9599 8.14 93.1599 8.33C93.5099 8.65 101.74 16.24 101.8 21.04C101.8 21.04 101.8 21.04 101.8 21.05C101.84 25.95 97.8899 29.97 92.9899 30.01H92.9099ZM92.8199 9.41C91.2599 10.95 85.0299 17.36 85.0599 21.18C85.0999 25.49 88.6099 28.97 92.9099 28.97C92.9299 28.97 92.9599 28.97 92.9799 28.97C95.0799 28.95 97.0399 28.12 98.5099 26.62C99.9799 25.13 100.78 23.16 100.76 21.07C100.74 17.24 94.3899 10.93 92.8099 9.42L92.8199 9.41Z" fill="#ADCB53"/>
<path d="M93.0099 37.5401C92.7299 37.5401 92.4999 37.3101 92.4899 37.0301L92.3699 18.9501C92.3699 18.6701 92.5999 18.4301 92.8799 18.4301C93.1999 18.4501 93.3999 18.6601 93.3999 18.9401L93.5199 37.0201C93.5199 37.3001 93.2899 37.5401 93.0099 37.5401Z" fill="#ADCB53"/>
<path d="M69.51 30.01C64.65 30.01 60.67 26.07 60.63 21.2C60.59 16.41 68.71 8.66 69.06 8.33C69.26 8.14 69.56 8.14 69.76 8.33C70.11 8.65 78.34 16.24 78.4 21.04C78.4 21.04 78.4 21.04 78.4 21.05C78.44 25.95 74.49 29.97 69.59 30.01H69.51ZM69.42 9.41C67.86 10.95 61.63 17.36 61.66 21.18C61.7 25.49 65.21 28.97 69.51 28.97C69.53 28.97 69.56 28.97 69.58 28.97C73.91 28.93 77.4 25.39 77.37 21.07C77.35 17.24 71 10.93 69.42 9.42V9.41Z" fill="#ADCB53"/>
<path d="M69.61 37.5401C69.33 37.5401 69.1 37.3101 69.09 37.0301L68.97 18.9501C68.97 18.6701 69.2 18.4301 69.48 18.4301C69.8 18.4501 70 18.6601 70 18.9401L70.12 37.0201C70.12 37.3001 69.89 37.5401 69.61 37.5401Z" fill="#ADCB53"/>
<path d="M304.57 262.69C303.39 248.4 301.72 234.13 301.73 219.77C301.73 207.84 302.05 193.47 314.18 188.46C328.08 182.72 344.24 191.18 346.41 193.47C356.33 203.88 360.33 217.92 363.44 231.53C365.78 241.79 367.12 252.22 368.04 262.69H304.57Z" fill="#013834"/>
<path d="M368.04 263.51H304.57C304.15 263.51 303.79 263.18 303.76 262.76C303.49 259.54 303.2 256.31 302.91 253.09C301.93 242.19 300.91 230.93 300.91 219.77C300.91 208.5 300.91 193.06 313.86 187.71C327.84 181.93 344.35 190.13 346.99 192.91C357.24 203.67 361.26 218.39 364.22 231.35C366.29 240.45 367.76 250.38 368.84 262.62C368.86 262.85 368.78 263.07 368.63 263.24C368.48 263.41 368.26 263.5 368.03 263.5L368.04 263.51ZM305.32 261.87H367.15C366.09 250.12 364.65 240.51 362.65 231.71C359.74 218.97 355.8 204.49 345.82 194.03C344.09 192.21 328.18 183.56 314.49 189.21C302.54 194.14 302.54 208.95 302.54 219.77C302.54 230.85 303.55 242.08 304.53 252.94C304.8 255.92 305.07 258.9 305.32 261.87Z" fill="white"/>
<path d="M157.91 57.2701V132.76H312.39V57.2701C312.39 54.3901 310.06 52.0601 307.18 52.0601H163.12C160.24 52.0601 157.91 54.3901 157.91 57.2701Z" fill="black"/>
<path d="M312.9 132.76H311.87V57.27C311.87 54.68 309.76 52.58 307.17 52.58H163.11C160.52 52.58 158.42 54.69 158.42 57.27V132.76H157.39V57.27C157.39 54.11 159.96 51.54 163.12 51.54H307.18C310.34 51.54 312.9 54.11 312.9 57.27V132.76Z" fill="white"/>
<path d="M106.89 265.96C120.89 207.79 173.51 164.23 235.81 164.23C298.12 164.23 350.74 207.79 364.73 265.96H106.89Z" fill="#013834"/>
<path d="M364.73 266.78H106.89C106.64 266.78 106.4 266.66 106.25 266.47C106.1 266.27 106.04 266.02 106.1 265.78C112.98 237.18 129.54 211.21 152.73 192.66C176.28 173.81 205.79 163.43 235.81 163.43C265.83 163.43 295.35 173.81 318.9 192.66C342.09 211.22 358.65 237.19 365.52 265.78C365.58 266.02 365.52 266.28 365.37 266.48C365.21 266.68 364.98 266.79 364.73 266.79V266.78ZM107.93 265.14H363.69C356.75 237.29 340.51 212.03 317.88 193.91C294.62 175.29 265.47 165.04 235.81 165.04C206.15 165.04 177.01 175.29 153.75 193.91C131.12 212.02 114.87 237.29 107.93 265.14Z" fill="white"/>
<path d="M94.5599 265.96C95.4799 255.49 96.8199 245.06 99.1599 234.8C102.26 221.19 106.26 207.16 116.19 196.74C123.57 188.99 139.17 185.94 148.42 191.73C159.55 198.69 160.87 211.11 160.87 223.04C160.87 237.4 159.21 251.67 158.03 265.96H94.5599Z" fill="#013834"/>
<path d="M158.03 266.78H94.56C94.33 266.78 94.11 266.68 93.96 266.52C93.81 266.35 93.73 266.13 93.75 265.9C94.83 253.66 96.29 243.73 98.37 234.63C101.32 221.69 105.32 206.98 115.6 196.19C123.56 187.83 139.72 185.34 148.85 191.05C160.13 198.1 161.68 210.6 161.68 223.05C161.68 234.23 160.66 245.52 159.68 256.44C159.39 259.64 159.1 262.84 158.84 266.04C158.81 266.46 158.45 266.79 158.03 266.79V266.78ZM95.45 265.14H157.28C157.53 262.19 157.79 259.23 158.06 256.28C159.04 245.4 160.06 234.14 160.06 223.04C160.06 202.76 154.26 196.34 147.99 192.42C139.43 187.06 124.27 189.44 116.78 197.3C106.78 207.79 102.85 222.25 99.95 234.98C97.94 243.78 96.51 253.39 95.45 265.14Z" fill="white"/>
<path d="M439.56 267.04H19.58C19.04 267.04 18.6 266.6 18.6 266.07C18.6 265.54 19.04 265.1 19.58 265.1H439.56C440.1 265.1 440.53 265.54 440.53 266.07C440.53 266.6 440.09 267.04 439.56 267.04Z" fill="#AECC53"/>
<path d="M235.81 187.5C222.03 187.5 210.84 176.31 210.84 162.53V146.48C210.84 137.47 218.16 130.15 227.17 130.15H244.46C253.47 130.15 260.79 137.47 260.79 146.48V162.53C260.79 176.31 249.6 187.5 235.82 187.5H235.81Z" fill="#CCCBCB"/>
<path d="M235.81 188.13C218.61 188.13 204.61 176.65 204.61 162.53C204.61 160.31 206.41 158.51 208.63 158.51C210.85 158.51 212.65 160.31 212.65 162.53C212.65 172.05 223.26 180.1 235.82 180.1C248.38 180.1 258.99 172.06 258.99 162.53C258.99 160.31 260.79 158.51 263 158.51C265.21 158.51 267.01 160.31 267.01 162.53C267.01 176.64 253.02 188.13 235.82 188.13H235.81Z" fill="#ADCB53"/>
<path d="M235.82 155.43C277.429 155.43 311.16 121.699 311.16 80.09C311.16 38.4809 277.429 4.75 235.82 4.75C194.211 4.75 160.48 38.4809 160.48 80.09C160.48 121.699 194.211 155.43 235.82 155.43Z" fill="white"/>
<path d="M172.608 104.141C180.22 99.122 180.957 86.8113 174.253 76.6446C167.55 66.4779 155.944 62.3052 148.332 67.3247C140.72 72.3441 139.983 84.6548 146.687 94.8215C153.39 104.988 164.996 109.161 172.608 104.141Z" fill="white"/>
<path d="M324.938 94.7967C331.642 84.63 330.905 72.3192 323.293 67.2998C315.68 62.2804 304.075 66.4531 297.371 76.6198C290.668 86.7865 291.404 99.0972 299.016 104.117C306.629 109.136 318.234 104.963 324.938 94.7967Z" fill="white"/>
<path d="M155.14 111.7C159.056 111.7 162.23 108.526 162.23 104.61C162.23 100.694 159.056 97.52 155.14 97.52C151.224 97.52 148.05 100.694 148.05 104.61C148.05 108.526 151.224 111.7 155.14 111.7Z" fill="#ADCB53"/>
<path d="M316.49 111.7C320.406 111.7 323.58 108.526 323.58 104.61C323.58 100.694 320.406 97.52 316.49 97.52C312.574 97.52 309.4 100.694 309.4 104.61C309.4 108.526 312.574 111.7 316.49 111.7Z" fill="#ADCB53"/>
<path d="M235.82 127.91C229.62 127.91 223.81 125.43 220.66 121.43C220.25 120.92 220.34 120.17 220.86 119.77C221.37 119.36 222.12 119.45 222.52 119.97C225.24 123.41 230.33 125.55 235.82 125.55C241.31 125.55 246.41 123.41 249.12 119.97C249.53 119.46 250.27 119.37 250.78 119.77C251.29 120.17 251.38 120.92 250.98 121.43C247.83 125.43 242.02 127.91 235.82 127.91Z" fill="#9D9D9C"/>
<path d="M161.43 93.7C161.29 93.7 161.14 93.67 161 93.62C158.37 92.58 156.18 90.39 155.14 87.76C154.29 85.62 154.42 83.57 155.5 82.12C156.22 81.15 157.5 80.59 158.77 80.64C158.29 78.95 157.48 77.27 156.46 75.86C155.03 73.9 152.67 72.82 150.71 73.23C150.07 73.36 149.44 72.95 149.31 72.31C149.18 71.67 149.59 71.04 150.23 70.91C153.11 70.31 156.38 71.73 158.38 74.46C160.14 76.87 161.31 79.87 161.58 82.69C161.64 83.26 161.28 83.78 160.73 83.94C160.18 84.1 159.6 83.85 159.34 83.34C159.21 83.08 158.89 83.02 158.71 83C158.21 82.96 157.67 83.18 157.41 83.52C156.84 84.28 156.82 85.54 157.35 86.87C158.15 88.91 159.84 90.6 161.87 91.39C162.48 91.63 162.78 92.32 162.54 92.93C162.36 93.4 161.91 93.68 161.44 93.68L161.43 93.7Z" fill="#9D9D9C"/>
<path d="M310.2 93.7C309.73 93.7 309.28 93.41 309.1 92.95C308.86 92.34 309.16 91.65 309.77 91.41C311.8 90.61 313.49 88.92 314.29 86.89C314.82 85.55 314.8 84.29 314.23 83.53C313.97 83.19 313.43 82.97 312.93 83.01C312.75 83.03 312.43 83.09 312.3 83.35C312.04 83.86 311.46 84.11 310.91 83.95C310.36 83.79 310.01 83.26 310.06 82.7C310.34 79.87 311.5 76.87 313.26 74.47C315.25 71.74 318.53 70.32 321.41 70.92C322.05 71.05 322.46 71.68 322.33 72.32C322.2 72.96 321.57 73.37 320.93 73.24C318.98 72.83 316.61 73.91 315.18 75.87C314.15 77.27 313.35 78.96 312.87 80.65C314.14 80.6 315.41 81.16 316.14 82.12C317.2 83.55 317.34 85.66 316.5 87.77C315.47 90.4 313.28 92.59 310.64 93.63C310.5 93.69 310.35 93.71 310.21 93.71L310.2 93.7Z" fill="#9D9D9C"/>
<path d="M206.42 73.3199C206.42 73.3199 206.38 74.0599 206.31 74.4199C205.8 76.9399 203.58 78.8299 200.91 78.8299C198.24 78.8299 195.89 76.8199 195.47 74.1999C195.42 73.9099 195.4 73.3199 195.4 73.3199H206.42Z" fill="black"/>
<path d="M181.53 72.09C180.88 72.09 180.22 71.88 179.66 71.46C178.31 70.43 178.05 68.49 179.08 67.14C183.55 61.28 191.67 57.26 199.75 56.9C205.71 56.63 214.51 58.15 222.55 66.93C223.7 68.18 223.62 70.13 222.36 71.28C221.11 72.43 219.16 72.34 218.01 71.09C211.57 64.07 204.67 62.84 200.02 63.05C192.81 63.37 186.76 67.21 183.96 70.88C183.35 71.67 182.44 72.09 181.51 72.09H181.53Z" fill="black"/>
<path d="M206.42 74.35L189.33 73.32L206.42 72.29C207.85 72.24 207.85 74.39 206.42 74.34V74.35Z" fill="#ADCB53"/>
<path d="M265.21 73.3199C265.21 73.3199 265.25 74.0599 265.32 74.4199C265.83 76.9399 268.05 78.8299 270.72 78.8299C273.39 78.8299 275.74 76.8199 276.16 74.1999C276.21 73.9099 276.23 73.3199 276.23 73.3199H265.21Z" fill="black"/>
<path d="M290.1 72.0899C289.17 72.0899 288.26 71.6699 287.65 70.8799C284.85 67.2199 278.8 63.3799 271.59 63.0499C266.95 62.8399 260.05 64.0699 253.6 71.0899C252.45 72.3399 250.5 72.4299 249.25 71.2799C248 70.1299 247.91 68.1799 249.06 66.9299C257.11 58.1599 265.9 56.6399 271.86 56.8999C279.94 57.2599 288.06 61.2799 292.53 67.1399C293.56 68.4899 293.3 70.4199 291.95 71.4599C291.39 71.8899 290.73 72.0899 290.08 72.0899H290.1Z" fill="black"/>
<path d="M265.21 72.3L282.3 73.33L265.21 74.36C263.78 74.41 263.78 72.26 265.21 72.31V72.3Z" fill="#ADCB53"/>
<path d="M374.61 320.82L317.58 274.57C315.54 272.92 312.99 272.01 310.36 272.01H138.83C132.7 272.01 130.07 279.79 134.93 283.51L191.27 326.76C193.32 328.81 196.92 328.81 198.97 328.81L371.73 328.98C373.08 328.98 374.37 328.4 375.24 327.37C375.27 327.34 375.3 327.3 375.32 327.27C376.91 325.34 376.55 322.4 374.6 320.83L374.61 320.82Z" fill="#006E69"/>
<path d="M378.08 316.92L316.85 267.26C315.63 266.27 314.11 265.73 312.54 265.73H140.63C134.09 265.73 131.28 274.02 136.47 278L194.39 322.33C194.73 322.57 195.14 322.7 195.55 322.7H374.22C375.99 321.09 377.43 319.17 378.07 316.91L378.08 316.92Z" fill="black"/>
<path d="M210.2 244.55C211.74 239.18 215.82 229.25 208.69 226.09C205.49 224.67 201.41 224.99 198.35 226.61C194.75 228.52 192.91 231.05 191.24 234.53C189.81 237.52 187.63 241.75 184.27 242.84C181.85 243.62 179.2 242.4 176.99 241.15C176.94 245.17 177.02 249.18 177.22 253.19C177.33 255.41 177.41 263.11 178.24 265.17C178.24 265.17 199.65 266.2 200.73 266.12C200.73 266.12 202.5 263.53 204.93 259.42C207.64 254.82 208.75 249.67 210.2 244.55Z" fill="white"/>
<path d="M200.66 267.67C200.52 267.67 200.39 267.64 200.26 267.57C199.85 267.35 199.7 266.84 199.92 266.43C205.6 255.99 214.51 237.27 210.48 229.27C209.54 227.4 207.92 226.3 205.67 225.98C201.48 225.39 197.21 226.94 194.53 230.01C192.85 231.93 191.44 234.06 190.33 236.34C190.15 236.71 189.98 237.09 189.8 237.46C188.84 239.54 187.84 241.69 185.87 243.03C183.8 244.45 181.53 245.58 178.61 242.57C178.29 242.24 178.29 241.71 178.63 241.38C178.96 241.06 179.49 241.06 179.82 241.4C181.7 243.33 182.86 243.05 184.92 241.64C186.51 240.55 187.37 238.71 188.28 236.75C188.46 236.36 188.64 235.98 188.82 235.6C189.99 233.19 191.48 230.93 193.26 228.89C196.31 225.39 201.16 223.64 205.9 224.3C208.69 224.69 210.79 226.14 211.97 228.49C215.26 235.02 211.6 248.41 201.39 267.21C201.24 267.49 200.95 267.65 200.65 267.65L200.66 267.67Z" fill="#BCBCBC"/>
<path d="M154.15 273.84C150.37 265.4 145.54 256.86 142.64 248.08C140.31 241.02 133.74 228 124.17 231.6C119.19 233.48 116.4 239.98 116.91 245C118.04 256.09 122.32 266.52 127.3 276.4C129.04 279.85 131.34 287.12 134.98 288.05C139.53 289.22 144.18 284.97 147.92 283.06C151.66 281.15 156.51 279.1 154.15 273.83V273.84Z" fill="white"/>
<path d="M176.07 268.51C172.29 260.07 167.46 251.53 164.56 242.75C162.23 235.69 155.66 222.67 146.09 226.27C141.34 228.06 140.84 235.19 135.68 235.23C138.47 240.56 139.73 246.69 141.47 252.41C143.43 258.87 146.19 265.06 149.22 271.08C150.96 274.53 153.26 281.8 156.9 282.73C161.45 283.9 166.1 279.65 169.84 277.74C173.71 275.77 178.43 273.78 176.07 268.51Z" fill="white"/>
<path d="M200.01 266.21C196.23 257.77 191.4 249.23 188.5 240.45C186.17 233.39 179.6 220.37 170.03 223.97C165.05 225.85 162.26 232.35 162.77 237.37C163.9 248.46 168.18 258.89 173.16 268.77C174.9 272.22 177.2 279.49 180.84 280.42C185.39 281.59 190.04 277.34 193.78 275.43C197.65 273.46 202.37 271.47 200.01 266.2V266.21Z" fill="white"/>
<path d="M131.87 286.39C131.56 286.39 131.27 286.22 131.12 285.93C128.8 281.3 128.2 277.07 129.39 273.68C130.38 270.85 132.58 268.63 135.92 267.09C140.12 265.16 147.76 264.18 150.39 269.79C150.59 270.21 150.41 270.71 149.99 270.91C149.57 271.11 149.07 270.93 148.87 270.51C146.75 266 140.23 266.96 136.62 268.63C133.71 269.98 131.81 271.87 130.97 274.25C129.67 277.97 131.15 282.25 132.62 285.19C132.83 285.61 132.66 286.11 132.24 286.32C132.12 286.38 131.99 286.41 131.86 286.41L131.87 286.39Z" fill="#BCBCBC"/>
<path d="M152.31 277.7C151.98 277.7 151.67 277.51 151.54 277.19C150.4 274.52 150.71 271.21 152.39 268.12C154.31 264.58 157.7 261.92 161.03 261.34C164.5 260.73 170.16 262.45 172.54 265.63C172.82 266 172.74 266.53 172.37 266.81C172 267.09 171.47 267.01 171.19 266.64C169.23 264.01 164.19 262.5 161.32 263C158.48 263.49 155.56 265.82 153.87 268.92C152.44 271.56 152.15 274.33 153.09 276.53C153.27 276.96 153.07 277.45 152.65 277.63C152.54 277.68 152.43 277.7 152.32 277.7H152.31Z" fill="#BCBCBC"/>
<path d="M175.25 273.52C174.83 273.52 174.47 273.21 174.42 272.78C173.67 266.84 176.25 261.23 180.98 258.48C185.57 255.82 194.16 254.44 197.99 259.94C198.26 260.32 198.16 260.84 197.78 261.11C197.4 261.38 196.88 261.28 196.61 260.9C193.38 256.27 185.87 257.59 181.82 259.94C177.67 262.35 175.42 267.31 176.08 272.58C176.14 273.04 175.81 273.46 175.35 273.52C175.31 273.52 175.28 273.52 175.24 273.52H175.25Z" fill="#BCBCBC"/>
<path d="M136.59 289.09C135.98 289.09 135.37 289.02 134.76 288.86C131.5 288.03 129.4 283.22 127.71 279.35C127.29 278.39 126.9 277.49 126.54 276.78C122.31 268.39 117.3 257.2 116.06 245.09C115.53 239.84 118.36 232.9 123.86 230.82C127.14 229.59 130.3 230.01 133.02 232.03C136.05 234.29 137.8 234.44 139.27 232.57C139.85 231.83 140.31 231.05 140.75 230.3C141.84 228.46 142.97 226.55 145.79 225.49C149.41 224.12 153.27 224.98 156.65 227.9C157.72 228.82 160.16 231.2 161.93 233.67C162.54 229.27 165.69 224.7 169.73 223.19C172.37 222.2 174.98 222.31 177.49 223.51C183 226.15 187.2 233.86 189.29 240.2C191.22 246.04 194.05 251.87 196.8 257.5C198.14 260.25 199.52 263.1 200.77 265.88C203.33 271.59 198.41 274.06 194.81 275.87L194.15 276.2C193.26 276.66 192.29 277.26 191.28 277.9C188.05 279.93 184.39 282.23 180.62 281.26C178.43 280.7 176.76 278.34 175.39 275.69C174.15 276.33 173.01 277.13 171.81 277.97C170.71 278.74 169.58 279.53 168.36 280.19C166.25 281.33 163.82 282.35 160.92 283.32C159.87 283.67 158.64 284.02 157.4 283.74C155.87 283.39 154.42 282.32 153.4 280.82C151.65 282.04 150.06 282.91 148.28 283.82C147.39 284.28 146.43 284.88 145.41 285.52C142.71 287.22 139.7 289.1 136.58 289.11L136.59 289.09ZM127.46 231.81C126.48 231.81 125.47 232 124.45 232.39C119.85 234.13 117.26 240.27 117.73 244.92C118.94 256.76 123.87 267.77 128.03 276.03C128.41 276.78 128.81 277.71 129.24 278.69C130.7 282.03 132.7 286.61 135.17 287.25C138.24 288.04 141.58 285.95 144.52 284.1C145.57 283.44 146.56 282.82 147.52 282.33C149.48 281.33 151.19 280.38 153.16 278.94C153.36 278.8 153.61 278.74 153.84 278.8C154.08 278.85 154.28 279.01 154.39 279.23C155.17 280.71 156.47 281.81 157.78 282.11C158.6 282.29 159.52 282.02 160.4 281.73C163.21 280.79 165.55 279.81 167.57 278.72C168.7 278.1 169.8 277.34 170.85 276.59C172.06 275.75 173.3 274.88 174.66 274.17C174.28 273.35 173.92 272.53 173.58 271.74C173.16 270.78 172.77 269.88 172.41 269.17C169.93 264.24 167.88 258.86 165.9 253.67C164.73 250.58 163.51 247.39 162.22 244.33C162.04 243.9 162.24 243.41 162.67 243.23C163.1 243.05 163.59 243.25 163.77 243.68C165.07 246.76 166.29 249.97 167.47 253.07C169.43 258.23 171.46 263.56 173.91 268.42C174.29 269.17 174.69 270.1 175.12 271.08C176.58 274.42 178.58 279.01 181.05 279.64C184.12 280.43 187.46 278.34 190.4 276.49C191.45 275.83 192.44 275.21 193.4 274.72L194.07 274.38C198.47 272.16 201.02 270.53 199.25 266.58C198.01 263.82 196.63 260.99 195.3 258.25C192.53 252.57 189.67 246.69 187.71 240.74C185.73 234.73 181.81 227.45 176.78 225.04C174.7 224.04 172.53 223.95 170.34 224.78C165.93 226.44 162.64 232.59 163.73 236.96C163.77 237.1 163.81 237.24 163.84 237.37C163.94 237.81 163.68 238.25 163.24 238.37C162.8 238.49 162.35 238.24 162.22 237.81C162.18 237.68 162.14 237.55 162.11 237.42C161.3 234.97 157.81 231.12 155.57 229.19C152.68 226.69 149.42 225.94 146.4 227.08C144.13 227.93 143.28 229.36 142.21 231.17C141.74 231.97 141.25 232.79 140.61 233.62C137.56 237.51 133.55 234.52 132.04 233.4C130.65 232.36 129.11 231.84 127.49 231.84L127.46 231.81Z" fill="#BCBCBC"/>
<path d="M153.85 281.22C153.53 281.22 153.23 281.04 153.09 280.73C150.21 274.5 147.95 267.85 145.77 261.42C143.96 256.09 142.08 250.57 139.87 245.35C139.69 244.92 139.89 244.43 140.32 244.25C140.75 244.07 141.24 244.27 141.42 244.7C143.65 249.98 145.54 255.53 147.36 260.89C149.53 267.28 151.78 273.89 154.62 280.04C154.81 280.46 154.63 280.96 154.21 281.16C154.1 281.21 153.98 281.24 153.86 281.24L153.85 281.22Z" fill="#BCBCBC"/>
<path d="M370.07 193.49H198.39C192.707 193.49 188.1 198.097 188.1 203.78V314.32C188.1 320.003 192.707 324.61 198.39 324.61H370.07C375.753 324.61 380.36 320.003 380.36 314.32V203.78C380.36 198.097 375.753 193.49 370.07 193.49Z" fill="#003834"/>
<path d="M370.07 325.11H198.39C192.44 325.11 187.6 320.27 187.6 314.32V203.78C187.6 197.83 192.44 192.99 198.39 192.99H370.07C376.02 192.99 380.86 197.83 380.86 203.78V314.32C380.86 320.27 376.02 325.11 370.07 325.11ZM198.39 193.99C192.99 193.99 188.6 198.38 188.6 203.78V314.32C188.6 319.72 192.99 324.11 198.39 324.11H370.07C375.47 324.11 379.86 319.72 379.86 314.32V203.78C379.86 198.38 375.47 193.99 370.07 193.99H198.39Z" fill="#ADCB53"/>
<path d="M284.24 285.82C299.025 285.82 311.01 273.835 311.01 259.05C311.01 244.265 299.025 232.28 284.24 232.28C269.455 232.28 257.47 244.265 257.47 259.05C257.47 273.835 269.455 285.82 284.24 285.82Z" fill="#003834"/>
<path d="M316.99 259.05H304.57C304.57 259.05 304.55 260.03 304.52 260.51C303.77 271.05 294.98 279.38 284.24 279.38C273.5 279.38 264.64 270.99 263.96 260.39C263.93 259.95 263.92 259.06 263.92 259.06H251.5C251.5 259.06 251.5 259.95 251.53 260.38C252.23 277.85 266.61 291.81 284.26 291.81C301.91 291.81 316.14 278 316.97 260.66C317 260.13 317.01 259.06 317.01 259.06H316.99V259.05Z" fill="white"/>
<path d="M251.48 259.05H263.9C263.9 247.82 273 238.72 284.23 238.72C295.46 238.72 304.56 247.82 304.56 259.05H316.98C316.98 240.96 302.32 226.3 284.23 226.3C266.14 226.3 251.48 240.96 251.48 259.05Z" fill="#006D68"/>
<path d="M284.24 274.46C292.751 274.46 299.65 267.561 299.65 259.05C299.65 250.539 292.751 243.64 284.24 243.64C275.729 243.64 268.83 250.539 268.83 259.05C268.83 267.561 275.729 274.46 284.24 274.46Z" fill="#ACCA53"/>
<path d="M285.81 259.05L284.24 274.46L282.66 259.05H285.81Z" fill="white"/>
<path d="M282.66 259.05L284.24 243.65L285.81 259.05H282.66Z" fill="#3C3C3C"/>
<path d="M158.16 55.43C169.22 23.47 199.58 0.52002 235.31 0.52002C271.04 0.52002 301.39 23.47 312.46 55.43H158.16Z" fill="black"/>
<path d="M311.97 55.6C300.67 22.96 269.86 1.04 235.31 1.04C200.76 1.04 169.94 22.97 158.65 55.6L157.68 55.26C169.12 22.21 200.32 0 235.32 0C270.32 0 301.51 22.21 312.96 55.26L311.99 55.6H311.97Z" fill="white"/>
<path d="M231.59 0.599976C253.69 10.07 272.7 30.53 274.06 55.43H268.93C269.02 52.68 268.75 49.85 268.32 47.04C264.81 26.59 249.64 10.01 231.59 0.599976Z" fill="white"/>
<path d="M231.59 0.599976C250.77 12.02 265.09 32.8 266.23 55.43C266.25 56 265.8 56.47 265.23 56.49C264.64 56.51 264.15 56.02 264.17 55.43C263.7 33.23 250.08 12.39 231.58 0.609976H231.59V0.599976Z" fill="#ADCB53"/>
<path d="M425.71 211.79C420.49 211.79 412.51 207.26 405.86 200.51C398.97 193.53 395.08 185.7 395.17 179.03C395.23 174.5 396.49 170.02 398.81 166.06C398.84 165.99 398.87 165.92 398.91 165.85C399.65 164.59 400.55 163.34 401.57 162.13C403.11 160.31 403.46 157.97 402.5 155.88C401.19 153.03 400.53 149.99 400.53 146.87C400.53 141.66 402.46 136.55 405.95 132.47C407.66 130.48 407.94 127.86 406.7 125.64C405.15 122.86 404.32 119.73 404.32 116.58C404.32 110.56 408.36 102.29 412.14 96.56C414.02 93.71 420.59 84.41 426.11 84.41C434.88 84.41 447.9 105.51 447.9 116.59C447.9 119.78 447.1 122.83 445.52 125.65C444.28 127.88 444.57 130.5 446.27 132.49C449.82 136.64 451.69 141.61 451.69 146.89C451.69 150.01 451.03 153.04 449.72 155.9C448.77 158 449.12 160.34 450.66 162.17C454.86 167.14 457.08 173.1 457.08 179.41C457.08 195.49 438.81 211.82 425.68 211.82L425.71 211.79ZM401.13 166.91C401.1 166.98 401.07 167.05 401.03 167.12C398.85 170.76 397.67 174.89 397.61 179.08C397.53 185.1 401.17 192.29 407.6 198.8C413.73 205.01 421.17 209.35 425.71 209.35C437.67 209.35 454.66 193.86 454.66 179.39C454.66 173.67 452.64 168.26 448.82 163.73C446.68 161.2 446.19 157.8 447.52 154.86C448.68 152.32 449.27 149.63 449.27 146.87C449.27 142.19 447.6 137.76 444.43 134.07C442.08 131.32 441.68 127.55 443.4 124.45C444.77 122 445.47 119.35 445.47 116.59C445.47 106.03 432.99 86.86 426.12 86.86C420.34 86.86 406.78 106.06 406.78 116.59C406.78 119.32 407.49 122.04 408.84 124.45C410.57 127.55 410.17 131.33 407.81 134.07C404.65 137.75 402.97 142.18 402.97 146.87C402.97 149.64 403.56 152.33 404.72 154.86C406.06 157.8 405.57 161.19 403.43 163.71C402.55 164.75 401.78 165.83 401.13 166.9V166.91Z" fill="#ADCB53"/>
<path d="M426.13 248.09C425.45 248.09 424.91 247.54 424.91 246.87V115C424.91 114.32 425.46 113.77 426.13 113.77C426.8 113.77 427.35 114.32 427.35 115V246.87C427.35 247.55 426.8 248.09 426.13 248.09Z" fill="#ADCB53"/>
<path d="M426.13 290.78C417.91 290.78 411.22 284.09 411.22 275.87V244.62H441.04V275.87C441.04 284.09 434.35 290.78 426.13 290.78Z" fill="#003834"/>
<path d="M440.43 245.23V275.87C440.43 283.76 434.01 290.17 426.13 290.17C418.25 290.17 411.83 283.75 411.83 275.87V245.23H440.43ZM441.66 244.01H410.61V275.88C410.61 284.45 417.56 291.4 426.13 291.4C434.7 291.4 441.65 284.45 441.65 275.88V244.01H441.66Z" fill="white"/>
</svg>
