<svg width="400" height="390" viewBox="0 0 400 390" fill="none" xmlns="http://www.w3.org/2000/svg">
<path d="M222.75 59.52C208.67 54.24 193.97 49.82 178.93 49.89C158.66 49.98 139.39 58.16 120.96 66.58C87.01 82.08 60.25 106.35 32.42 131.01C9.89998 150.97 6.19998 192.36 6.87998 220.48C6.95998 223.87 7.04998 227.28 7.19998 230.69C7.66998 241.18 8.79998 251.63 12.47 261.4C18.36 277.07 32.03 290.3 42.35 303.2C53.52 317.16 64.47 328.81 79.52 338.78C96.55 350.07 120.9 369.45 141.91 371.23C168.36 373.47 188.6 374.55 214.02 366.62C241.09 358.18 270.76 345.86 290.25 324.28C300.46 312.96 307.14 296.81 314.74 283.65C329.58 257.98 335.72 230.29 331.91 200.78C327.91 169.89 315.78 146.21 302.98 118.6C286.54 83.14 257.66 72.61 222.76 59.52H222.75Z" fill="#EBF2D4"/>
<path d="M156.23 131.76C156.23 153.58 138.54 171.27 116.72 171.27C94.9 171.27 77.21 153.58 77.21 131.76C77.21 117.03 95.21 84.5 106.91 64.92C111.35 57.49 122.09 57.49 126.53 64.92C138.23 84.51 156.23 117.03 156.23 131.76Z" fill="#A9C753"/>
<path d="M132.1 108.52C130.79 115.81 124.38 121.38 116.73 121.38C109.08 121.38 102.67 115.81 101.36 108.52" stroke="white" stroke-width="2.59" stroke-linecap="round" stroke-linejoin="round"/>
<path d="M129.16 108.38C129.32 106.78 130.74 105.6 132.34 105.76C133.94 105.92 135.12 107.34 134.96 108.94C134.8 110.54 133.38 111.72 131.78 111.56C130.18 111.4 129 109.98 129.16 108.38Z" fill="white"/>
<path d="M104.29 108.38C104.13 106.78 102.71 105.6 101.1 105.76C99.49 105.92 98.32 107.34 98.48 108.94C98.64 110.54 100.06 111.72 101.67 111.56C103.28 111.4 104.45 109.98 104.29 108.38Z" fill="white"/>
<path d="M139.78 129.85C138.4 141.33 128.56 150.3 116.72 150.3C104.88 150.3 95.04 141.33 93.66 129.85" stroke="white" stroke-width="2.59" stroke-linecap="round" stroke-linejoin="round"/>
<path d="M136.83 129.78C136.94 128.17 138.34 126.96 139.94 127.08C141.55 127.19 142.76 128.59 142.64 130.19C142.53 131.8 141.13 133.01 139.53 132.89C137.92 132.78 136.71 131.38 136.83 129.78Z" fill="white"/>
<path d="M96.61 129.78C96.5 128.17 95.1 126.96 93.5 127.08C91.89 127.19 90.68 128.59 90.79 130.19C90.9 131.8 92.3 133.01 93.9 132.89C95.51 132.78 96.72 131.38 96.61 129.78Z" fill="white"/>
<path d="M116.73 91.1799V233.61" stroke="white" stroke-width="2.59" stroke-linecap="round" stroke-linejoin="round"/>
<path d="M116.794 94.2529C118.406 94.2147 119.682 92.8767 119.644 91.2645C119.606 89.6522 118.268 88.3763 116.656 88.4146C115.043 88.4529 113.767 89.7908 113.806 91.4031C113.844 93.0153 115.182 94.2912 116.794 94.2529Z" fill="white"/>
<path d="M72.6401 150.69C71.6201 156.34 66.6601 160.66 60.7301 160.66C54.8001 160.66 49.8301 156.34 48.8201 150.69" stroke="#A8C653" stroke-width="2" stroke-linecap="round" stroke-linejoin="round"/>
<path d="M70.3601 150.58C70.4801 149.34 71.5801 148.43 72.8201 148.55C74.0601 148.67 74.9701 149.77 74.8501 151.01C74.7301 152.25 73.6301 153.16 72.3901 153.04C71.1501 152.92 70.2401 151.82 70.3601 150.58Z" fill="#A8C653"/>
<path d="M51.09 150.58C50.97 149.34 49.87 148.43 48.63 148.55C47.39 148.67 46.48 149.77 46.6 151.01C46.72 152.25 47.82 153.16 49.06 153.04C50.3 152.92 51.21 151.82 51.09 150.58Z" fill="#A8C653"/>
<path d="M78.59 167.21C77.52 176.11 69.9 183.06 60.72 183.06C51.54 183.06 43.92 176.11 42.86 167.21" stroke="#A8C653" stroke-width="2" stroke-linecap="round" stroke-linejoin="round"/>
<path d="M76.31 167.17C76.4 165.93 77.48 164.99 78.72 165.08C79.96 165.17 80.9 166.25 80.81 167.49C80.72 168.73 79.64 169.67 78.4 169.58C77.16 169.49 76.22 168.41 76.31 167.17Z" fill="#A8C653"/>
<path d="M45.14 167.17C45.05 165.93 43.97 164.99 42.73 165.08C41.49 165.17 40.55 166.25 40.64 167.49C40.73 168.73 41.81 169.67 43.05 169.58C44.29 169.49 45.23 168.41 45.14 167.17Z" fill="#A8C653"/>
<path d="M60.73 137.26V247.61" stroke="#A8C653" stroke-width="2" stroke-linecap="round" stroke-linejoin="round"/>
<path d="M60.73 139.63C61.9782 139.63 62.99 138.618 62.99 137.37C62.99 136.122 61.9782 135.11 60.73 135.11C59.4819 135.11 58.47 136.122 58.47 137.37C58.47 138.618 59.4819 139.63 60.73 139.63Z" fill="#A8C653"/>
<path d="M351.95 254.06C350.3 257.1 349.34 260.57 349.3 264.26C349.15 276.31 364.02 289.83 370.94 289.83C380.29 289.83 393.21 276.76 393.21 264.53C393.21 259.51 391.52 254.88 388.69 251.18C387.34 249.42 387.01 247.09 387.86 245.04C388.71 242.99 389.23 240.59 389.23 238.14C389.23 233.98 387.82 230.15 385.44 227.1C383.95 225.18 383.68 222.59 384.79 220.43C385.84 218.37 386.43 216.04 386.43 213.57C386.43 205.19 377.21 188.45 371.25 188.45C366.01 188.45 356.07 205.18 356.07 213.57C356.07 216.04 356.66 218.37 357.71 220.43C358.81 222.6 358.55 225.19 357.06 227.1C354.69 230.15 353.27 233.98 353.27 238.14C353.27 240.58 353.76 242.91 354.64 245.04C355.49 247.08 355.17 249.41 353.82 251.17C353.12 252.08 352.49 253.04 351.94 254.06" stroke="#ADCB53" stroke-width="1.74" stroke-linecap="round" stroke-linejoin="round"/>
<path d="M371.25 207.8V333.78" stroke="#ADCB53" stroke-width="1.74" stroke-linecap="round" stroke-linejoin="round"/>
<path d="M351.9 333.89V301.92" stroke="#ADCB53" stroke-width="1.56" stroke-linecap="round" stroke-linejoin="round"/>
<path d="M356.58 302.15C356.58 299.57 354.48 297.47 351.9 297.47C349.32 297.47 347.22 299.57 347.22 302.15C347.22 304.73 349.32 306.83 351.9 306.83C354.48 306.83 356.58 304.73 356.58 302.15Z" fill="#ADCB53"/>
<path d="M382.4 334.61H333.4" stroke="#ADCB53" stroke-width="2" stroke-linecap="round" stroke-linejoin="round"/>
<path d="M325.31 141.95V102.14" stroke="#A8C653" stroke-width="1.74" stroke-linecap="round" stroke-linejoin="round"/>
<path d="M328.59 102.3C328.59 100.49 327.12 99.02 325.31 99.02C323.5 99.02 322.03 100.49 322.03 102.3C322.03 104.11 323.5 105.58 325.31 105.58C327.12 105.58 328.59 104.11 328.59 102.3Z" fill="#A8C653"/>
<path d="M332.81 145.2V115.79" stroke="#A8C653" stroke-width="1.74" stroke-linecap="round" stroke-linejoin="round"/>
<path d="M336.08 115.95C336.08 114.14 334.61 112.67 332.8 112.67C330.99 112.67 329.52 114.14 329.52 115.95C329.52 117.76 330.99 119.23 332.8 119.23C334.61 119.23 336.08 117.76 336.08 115.95Z" fill="#A8C653"/>
<path d="M240.69 108.5V79.54C253.29 76.61 262.71 61.3 262.71 47.83V36.62C262.71 33.07 259.83 30.18 256.27 30.18C252.72 30.18 249.83 33.06 249.83 36.62V47.83C249.83 54.13 246.07 59.55 240.68 62V17.32C240.68 13.77 237.8 10.88 234.24 10.88C230.68 10.88 227.8 13.76 227.8 17.32V69.85V75.8H227.74C222.73 75.8 218.65 71.72 218.65 66.71V55.4C218.65 51.85 215.77 48.96 212.21 48.96C208.65 48.96 205.77 51.84 205.77 55.4V66.71C205.77 78.82 215.62 88.67 227.73 88.67H227.79V122.9C228.45 124.88 229.28 126.43 230.07 128.36C233.22 123.17 240.14 110.27 240.66 108.49L240.69 108.5Z" stroke="#ADCB53" stroke-width="1.74" stroke-linecap="round" stroke-linejoin="round"/>
<path d="M179.23 142.25C180.88 136.69 184.19 128.31 186.18 122.93C189.75 113.31 194.61 98.1101 203.71 94.5301C212.55 91.0501 219.14 102.92 222.68 110.84C225.5 117.14 227.73 122.73 230.04 129.35" stroke="#006E69" stroke-miterlimit="10"/>
<path d="M208.64 145V114.21" stroke="#A8C653" stroke-width="1.74" stroke-linecap="round" stroke-linejoin="round"/>
<path d="M211.92 114.37C211.92 112.56 210.45 111.09 208.64 111.09C206.83 111.09 205.36 112.56 205.36 114.37C205.36 116.18 206.83 117.65 208.64 117.65C210.45 117.65 211.92 116.18 211.92 114.37Z" fill="#A8C653"/>
<path d="M199.76 145.82V126.02" stroke="#A8C653" stroke-width="1.74" stroke-linecap="round" stroke-linejoin="round"/>
<path d="M203.03 126.19C203.03 124.38 201.56 122.91 199.75 122.91C197.94 122.91 196.47 124.38 196.47 126.19C196.47 128 197.94 129.47 199.75 129.47C201.56 129.47 203.03 128 203.03 126.19Z" fill="#A8C653"/>
<path d="M322.76 146.59C322.66 141.11 317.52 129.22 315.38 124.19C312.39 117.16 308.94 110.26 304.83 103.7C298.75 93.99 288.67 79.53 274.54 79.53C260.46 79.53 250.4 93.9 244.33 103.57C240.89 109.05 225.1 136.13 222.76 147.39C222.34 149.42 322.85 151.63 322.76 146.58V146.59Z" stroke="#006E69" stroke-miterlimit="10"/>
<path d="M261.2 145.97C264.11 134.57 278.54 95.1399 296.01 110.95C302.2 116.56 305.86 124.52 308.66 132.24C310.05 136.09 312.74 141.89 313.53 147.19C313.88 149.49 266.33 147.65 261.17 146.1C261.18 146.06 261.19 146.01 261.2 145.97Z" stroke="#6FAFAC" stroke-width="2" stroke-miterlimit="10"/>
<path d="M178.76 378.6H335.19V152.96L178.76 152.96L178.76 378.6Z" fill="#013834" stroke="#013834" stroke-width="1.19" stroke-linecap="round" stroke-linejoin="round"/>
<path d="M287.37 269.12V231.82C287.37 209.54 269.25 213.14 247.11 213.14H237.42C233.9 213.14 230.37 213.11 226.85 213.14C222.13 213.17 217.21 212.29 216.73 206.37V153.84" stroke="#6FAFAC" stroke-width="1.19" stroke-linecap="round" stroke-linejoin="round"/>
<path d="M288.71 269.06C288.71 269.8 288.11 270.4 287.37 270.4C286.63 270.4 286.03 269.8 286.03 269.06C286.03 268.32 286.63 267.72 287.37 267.72C288.11 267.72 288.71 268.32 288.71 269.06Z" fill="#6FAFAC"/>
<path d="M218.07 153.9C218.07 153.16 217.47 152.56 216.73 152.56C215.99 152.56 215.39 153.16 215.39 153.9C215.39 154.64 215.99 155.24 216.73 155.24C217.47 155.24 218.07 154.64 218.07 153.9Z" fill="#6FAFAC"/>
<path d="M178.03 152.96L335.59 152.96V141.7L178.03 141.7V152.96Z" fill="#A9C753"/>
<path d="M282.91 269.12V231.82C282.91 209.54 264.79 213.14 242.65 213.14H225.28" stroke="#6FAFAC" stroke-width="1.19" stroke-linecap="round" stroke-linejoin="round"/>
<path d="M284.25 269.06C284.25 269.8 283.65 270.4 282.91 270.4C282.17 270.4 281.57 269.8 281.57 269.06C281.57 268.32 282.17 267.72 282.91 267.72C283.65 267.72 284.25 268.32 284.25 269.06Z" fill="#6FAFAC"/>
<path d="M225.34 211.8C224.6 211.8 224 212.4 224 213.14C224 213.88 224.6 214.48 225.34 214.48C226.08 214.48 226.68 213.88 226.68 213.14C226.68 212.4 226.08 211.8 225.34 211.8Z" fill="#6FAFAC"/>
<path d="M291.83 269.12V231.82C291.83 209.54 273.71 213.14 251.57 213.14H225.28" stroke="#6FAFAC" stroke-width="1.19" stroke-linecap="round" stroke-linejoin="round"/>
<path d="M293.17 269.06C293.17 269.8 292.57 270.4 291.83 270.4C291.09 270.4 290.49 269.8 290.49 269.06C290.49 268.32 291.09 267.72 291.83 267.72C292.57 267.72 293.17 268.32 293.17 269.06Z" fill="#6FAFAC"/>
<path d="M225.34 211.8C224.6 211.8 224 212.4 224 213.14C224 213.88 224.6 214.48 225.34 214.48C226.08 214.48 226.68 213.88 226.68 213.14C226.68 212.4 226.08 211.8 225.34 211.8Z" fill="#6FAFAC"/>
<path d="M287.37 339.08V301.78C287.37 279.5 269.25 283.1 247.11 283.1C243.88 283.1 240.65 283.1 237.42 283.1C233.9 283.1 230.37 283.07 226.85 283.1C222.13 283.13 217.21 282.25 216.73 276.33V215.67" stroke="#6FAFAC" stroke-width="1.19" stroke-linecap="round" stroke-linejoin="round"/>
<path d="M288.71 339.01C288.71 339.75 288.11 340.35 287.37 340.35C286.63 340.35 286.03 339.75 286.03 339.01C286.03 338.27 286.63 337.67 287.37 337.67C288.11 337.67 288.71 338.27 288.71 339.01Z" fill="#6FAFAC"/>
<path d="M218.07 215.73C218.07 214.99 217.47 214.39 216.73 214.39C215.99 214.39 215.39 214.99 215.39 215.73C215.39 216.47 215.99 217.07 216.73 217.07C217.47 217.07 218.07 216.47 218.07 215.73Z" fill="#6FAFAC"/>
<path d="M282.91 339.08V301.78C282.91 279.5 264.79 283.1 242.65 283.1H225.28" stroke="#6FAFAC" stroke-width="1.19" stroke-linecap="round" stroke-linejoin="round"/>
<path d="M282.91 340.35C283.65 340.35 284.25 339.75 284.25 339.01C284.25 338.27 283.65 337.67 282.91 337.67C282.17 337.67 281.57 338.27 281.57 339.01C281.57 339.75 282.17 340.35 282.91 340.35Z" fill="#6FAFAC"/>
<path d="M225.34 284.44C226.08 284.44 226.68 283.84 226.68 283.1C226.68 282.36 226.08 281.76 225.34 281.76C224.6 281.76 224 282.36 224 283.1C224 283.84 224.6 284.44 225.34 284.44Z" fill="#6FAFAC"/>
<path d="M291.83 339.08V301.78C291.83 279.5 273.71 283.1 251.57 283.1H225.28" stroke="#6FAFAC" stroke-width="1.19" stroke-linecap="round" stroke-linejoin="round"/>
<path d="M293.17 339.01C293.17 339.75 292.57 340.35 291.83 340.35C291.09 340.35 290.49 339.75 290.49 339.01C290.49 338.27 291.09 337.67 291.83 337.67C292.57 337.67 293.17 338.27 293.17 339.01Z" fill="#6FAFAC"/>
<path d="M225.34 284.44C226.08 284.44 226.68 283.84 226.68 283.1C226.68 282.36 226.08 281.76 225.34 281.76C224.6 281.76 224 282.36 224 283.1C224 283.84 224.6 284.44 225.34 284.44Z" fill="#6FAFAC"/>
<path d="M245.83 353.05H237.42C233.9 353.05 230.37 353.02 226.85 353.05C222.13 353.08 217.21 352.2 216.73 346.28V285.62" stroke="#6FAFAC" stroke-width="1.19" stroke-linecap="round" stroke-linejoin="round"/>
<path d="M245.76 351.71C246.5 351.71 247.1 352.31 247.1 353.05C247.1 353.79 246.5 354.39 245.76 354.39C245.02 354.39 244.42 353.79 244.42 353.05C244.42 352.31 245.02 351.71 245.76 351.71Z" fill="#6FAFAC"/>
<path d="M216.73 287.03C217.47 287.03 218.07 286.43 218.07 285.69C218.07 284.95 217.47 284.35 216.73 284.35C215.99 284.35 215.39 284.95 215.39 285.69C215.39 286.43 215.99 287.03 216.73 287.03Z" fill="#6FAFAC"/>
<path d="M241.03 353.05H225.61" stroke="#A8C653" stroke-width="1.5" stroke-linecap="round" stroke-linejoin="round"/>
<path d="M240.95 351.36C241.89 351.36 242.65 352.12 242.65 353.06C242.65 354 241.89 354.76 240.95 354.76C240.01 354.76 239.25 354 239.25 353.06C239.25 352.12 240.01 351.36 240.95 351.36Z" fill="#A8C653"/>
<path d="M225.7 351.36C224.76 351.36 224 352.12 224 353.06C224 354 224.76 354.76 225.7 354.76C226.64 354.76 227.4 354 227.4 353.06C227.4 352.12 226.64 351.36 225.7 351.36Z" fill="#A8C653"/>
<path d="M249.95 353.05H225.61" stroke="#A8C653" stroke-width="1.5" stroke-linecap="round" stroke-linejoin="round"/>
<path d="M249.87 351.36C250.81 351.36 251.57 352.12 251.57 353.06C251.57 354 250.81 354.76 249.87 354.76C248.93 354.76 248.17 354 248.17 353.06C248.17 352.12 248.93 351.36 249.87 351.36Z" fill="#A8C653"/>
<path d="M225.7 351.36C224.76 351.36 224 352.12 224 353.06C224 354 224.76 354.76 225.7 354.76C226.64 354.76 227.4 354 227.4 353.06C227.4 352.12 226.64 351.36 225.7 351.36Z" fill="#A8C653"/>
<path d="M197.32 221.02L316.63 221.02C322.175 221.02 326.67 216.525 326.67 210.98V188.3C326.67 182.755 322.175 178.26 316.63 178.26H197.32C191.775 178.26 187.28 182.755 187.28 188.3V210.98C187.28 216.525 191.775 221.02 197.32 221.02Z" fill="#006E69"/>
<path d="M282.27 204.78H313.11C315.95 204.78 318.25 202.48 318.25 199.64C318.25 196.8 315.95 194.5 313.11 194.5H282.27C279.43 194.5 277.13 196.8 277.13 199.64C277.13 202.48 279.43 204.78 282.27 204.78Z" fill="#181818"/>
<path d="M256.57 204.88H265.14C267.98 204.88 270.28 202.58 270.28 199.74C270.28 196.9 267.98 194.6 265.14 194.6H256.57C253.73 194.6 251.43 196.9 251.43 199.74C251.43 202.58 253.73 204.88 256.57 204.88Z" stroke="#A8C653" stroke-width="1.5" stroke-linecap="round" stroke-linejoin="round"/>
<path d="M260.7 200.59V165.9C260.7 148.42 242.58 151.58 220.44 151.58H190.07" stroke="#A8C653" stroke-width="1.5" stroke-linecap="round" stroke-linejoin="round"/>
<path d="M262.4 200.5C262.4 201.44 261.64 202.2 260.7 202.2C259.76 202.2 259 201.44 259 200.5C259 199.56 259.76 198.8 260.7 198.8C261.64 198.8 262.4 199.56 262.4 200.5Z" fill="#A8C653"/>
<path d="M256.24 200.59V165.9C256.24 148.42 238.12 152.57 215.98 152.57H190.07" stroke="#A8C653" stroke-width="1.5" stroke-linecap="round" stroke-linejoin="round"/>
<path d="M257.94 200.5C257.94 201.44 257.18 202.2 256.24 202.2C255.3 202.2 254.54 201.44 254.54 200.5C254.54 199.56 255.3 198.8 256.24 198.8C257.18 198.8 257.94 199.56 257.94 200.5Z" fill="#A8C653"/>
<path d="M265.17 200.59V165.9C265.17 148.42 247.05 151.58 224.91 151.58H190.08" stroke="#A8C653" stroke-width="1.5" stroke-linecap="round" stroke-linejoin="round"/>
<path d="M266.86 200.5C266.86 201.44 266.1 202.2 265.16 202.2C264.22 202.2 263.46 201.44 263.46 200.5C263.46 199.56 264.22 198.8 265.16 198.8C266.1 198.8 266.86 199.56 266.86 200.5Z" fill="#A8C653"/>
<path d="M230.8 199.64H205.9" stroke="#A8C653" stroke-width="2.38" stroke-linecap="round" stroke-linejoin="round"/>
<path d="M200.33 206.18H236.38V193.09H200.33V206.18Z" fill="white"/>
<path d="M230.8 199.64H205.9" stroke="#A8C653" stroke-width="2.38" stroke-linecap="round" stroke-linejoin="round"/>
<path d="M200.33 206.18H236.38V193.09H200.33V206.18Z" fill="#181818"/>
<path d="M230.8 199.64H205.9" stroke="#A8C653" stroke-width="2.38" stroke-linecap="round" stroke-linejoin="round"/>
<circle cx="311.44" cy="199.64" r="1.475" fill="#A8C653"/>
<path d="M301.99 199.64H287.82" stroke="#A8C653" stroke-width="2.95" stroke-linecap="round" stroke-linejoin="round"/>
<circle cx="283.1" cy="199.64" r="1.475" fill="#A8C653"/>
<path d="M197.32 290.97H316.63C322.175 290.97 326.67 286.475 326.67 280.93V258.25C326.67 252.705 322.175 248.21 316.63 248.21H197.32C191.775 248.21 187.28 252.705 187.28 258.25V280.93C187.28 286.475 191.775 290.97 197.32 290.97Z" fill="#006E69"/>
<path d="M282.27 274.73H313.11C315.95 274.73 318.25 272.43 318.25 269.59C318.25 266.75 315.95 264.45 313.11 264.45H282.27C279.43 264.45 277.13 266.75 277.13 269.59C277.13 272.43 279.43 274.73 282.27 274.73Z" fill="#181818"/>
<path d="M200.33 276.13H236.38V263.04H200.33V276.13Z" fill="#181818"/>
<path d="M230.8 269.59H205.9" stroke="#A8C653" stroke-width="2.38" stroke-linecap="round" stroke-linejoin="round"/>
<path d="M256.57 274.73H265.14C267.98 274.73 270.28 272.43 270.28 269.59C270.28 266.75 267.98 264.45 265.14 264.45H256.57C253.73 264.45 251.43 266.75 251.43 269.59C251.43 272.43 253.73 274.73 256.57 274.73Z" stroke="#A8C653" stroke-width="1.5" stroke-linecap="round" stroke-linejoin="round"/>
<circle cx="311.44" cy="269.59" r="1.475" fill="#A8C653"/>
<path d="M301.99 269.59H287.82" stroke="#A8C653" stroke-width="2.95" stroke-linecap="round" stroke-linejoin="round"/>
<circle cx="283.1" cy="269.59" r="1.475" fill="#A8C653"/>
<path d="M260.7 269.91V231.83C260.7 209.55 242.58 213.15 220.44 213.15H210.75C207.23 213.15 203.7 213.12 200.18 213.15C195.46 213.18 190.54 212.3 190.06 206.38V150.61" stroke="#A8C653" stroke-width="1.5" stroke-linecap="round" stroke-linejoin="round"/>
<path d="M260.7 271.52C261.639 271.52 262.4 270.759 262.4 269.82C262.4 268.881 261.639 268.12 260.7 268.12C259.761 268.12 259 268.881 259 269.82C259 270.759 259.761 271.52 260.7 271.52Z" fill="#A8C653"/>
<path d="M256.24 269.91V231.83C256.24 209.55 238.12 213.15 215.98 213.15H197.34" stroke="#A8C653" stroke-width="1.5" stroke-linecap="round" stroke-linejoin="round"/>
<path d="M256.24 271.52C257.179 271.52 257.94 270.759 257.94 269.82C257.94 268.881 257.179 268.12 256.24 268.12C255.301 268.12 254.54 268.881 254.54 269.82C254.54 270.759 255.301 271.52 256.24 271.52Z" fill="#A8C653"/>
<path d="M265.17 269.91V231.83C265.17 209.55 247.05 213.15 224.91 213.15H198.96" stroke="#A8C653" stroke-width="1.5" stroke-linecap="round" stroke-linejoin="round"/>
<path d="M265.17 271.52C266.109 271.52 266.87 270.759 266.87 269.82C266.87 268.881 266.109 268.12 265.17 268.12C264.231 268.12 263.47 268.881 263.47 269.82C263.47 270.759 264.231 271.52 265.17 271.52Z" fill="#A8C653"/>
<path d="M199.03 211.44C198.09 211.44 197.33 212.2 197.33 213.14C197.33 214.08 198.09 214.84 199.03 214.84C199.97 214.84 200.73 214.08 200.73 213.14C200.73 212.2 199.97 211.44 199.03 211.44Z" fill="#A8C653"/>
<path d="M197.32 360.93H316.63C322.175 360.93 326.67 356.435 326.67 350.89V328.21C326.67 322.665 322.175 318.17 316.63 318.17H197.32C191.775 318.17 187.28 322.665 187.28 328.21V350.89C187.28 356.435 191.775 360.93 197.32 360.93Z" fill="#006E69"/>
<path d="M282.27 344.69H313.11C315.95 344.69 318.25 342.39 318.25 339.55C318.25 336.71 315.95 334.41 313.11 334.41H282.27C279.43 334.41 277.13 336.71 277.13 339.55C277.13 342.39 279.43 344.69 282.27 344.69Z" fill="#181818"/>
<path d="M200.33 346.1H236.38V333.01H200.33V346.1Z" fill="#181818"/>
<path d="M230.8 339.55H205.9" stroke="#A8C653" stroke-width="2.38" stroke-linecap="round" stroke-linejoin="round"/>
<path d="M256.57 344.69H265.14C267.98 344.69 270.28 342.39 270.28 339.55C270.28 336.71 267.98 334.41 265.14 334.41H256.57C253.73 334.41 251.43 336.71 251.43 339.55C251.43 342.39 253.73 344.69 256.57 344.69Z" stroke="#A8C653" stroke-width="1.5" stroke-linecap="round" stroke-linejoin="round"/>
<circle cx="311.44" cy="339.55" r="1.475" fill="#A8C653"/>
<path d="M301.99 339.55H287.82" stroke="#A8C653" stroke-width="2.95" stroke-linecap="round" stroke-linejoin="round"/>
<circle cx="283.1" cy="339.55" r="1.475" fill="#A8C653"/>
<path d="M260.7 339.86V301.78C260.7 279.5 242.58 283.1 220.44 283.1C217.21 283.1 213.98 283.1 210.75 283.1C207.23 283.1 203.7 283.07 200.18 283.1C195.46 283.13 190.54 282.25 190.06 276.33V225.61" stroke="#A8C653" stroke-width="1.5" stroke-linecap="round" stroke-linejoin="round"/>
<path d="M260.7 341.47C261.639 341.47 262.4 340.709 262.4 339.77C262.4 338.831 261.639 338.07 260.7 338.07C259.761 338.07 259 338.831 259 339.77C259 340.709 259.761 341.47 260.7 341.47Z" fill="#A8C653"/>
<path d="M191.76 225.69C191.76 224.75 191 223.99 190.06 223.99C189.12 223.99 188.36 224.75 188.36 225.69C188.36 226.63 189.12 227.39 190.06 227.39C191 227.39 191.76 226.63 191.76 225.69Z" fill="#A8C653"/>
<path d="M256.24 339.86V301.78C256.24 279.5 238.12 283.1 215.98 283.1H198.95" stroke="#A8C653" stroke-width="1.5" stroke-linecap="round" stroke-linejoin="round"/>
<path d="M256.24 341.47C257.179 341.47 257.94 340.709 257.94 339.77C257.94 338.831 257.179 338.07 256.24 338.07C255.301 338.07 254.54 338.831 254.54 339.77C254.54 340.709 255.301 341.47 256.24 341.47Z" fill="#A8C653"/>
<path d="M199.03 284.8C199.969 284.8 200.73 284.039 200.73 283.1C200.73 282.161 199.969 281.4 199.03 281.4C198.091 281.4 197.33 282.161 197.33 283.1C197.33 284.039 198.091 284.8 199.03 284.8Z" fill="#A8C653"/>
<path d="M265.17 339.86V301.78C265.17 279.5 247.05 283.1 224.91 283.1H198.96" stroke="#A8C653" stroke-width="1.5" stroke-linecap="round" stroke-linejoin="round"/>
<path d="M265.17 341.47C266.109 341.47 266.87 340.709 266.87 339.77C266.87 338.831 266.109 338.07 265.17 338.07C264.231 338.07 263.47 338.831 263.47 339.77C263.47 340.709 264.231 341.47 265.17 341.47Z" fill="#A8C653"/>
<path d="M199.03 284.8C199.969 284.8 200.73 284.039 200.73 283.1C200.73 282.161 199.969 281.4 199.03 281.4C198.091 281.4 197.33 282.161 197.33 283.1C197.33 284.039 198.091 284.8 199.03 284.8Z" fill="#A8C653"/>
<path d="M193.22 378.01C193.22 378.01 148.56 379.16 148.82 378.48C155.01 362.72 163.52 351.11 170.64 351.11C178.99 351.11 189.51 362.25 193.22 378.01Z" fill="#006E69"/>
<path d="M352.9 378.34H8.90002" stroke="#ADCB53" stroke-width="2" stroke-linecap="round" stroke-linejoin="round"/>
<path d="M159.58 307.5H50.41L7.90002 320.91H116.66L159.62 307.76C159.77 307.71 159.74 307.49 159.58 307.49V307.5Z" fill="#003834"/>
<path d="M160.11 344.06L116.08 361.38V320.92L160.11 307.84V344.06Z" fill="#003834" stroke="#ACCA53" stroke-width="0.61" stroke-linecap="round" stroke-linejoin="round"/>
<path d="M7.90002 320.92L50.41 307.5" stroke="#ACCA53" stroke-width="0.61" stroke-linecap="round" stroke-linejoin="round"/>
<path d="M160.11 307.5H50.41" stroke="#ACCA53" stroke-width="0.61" stroke-linecap="round" stroke-linejoin="round"/>
<path d="M115.47 326.17H8.57001V360.8H115.47V326.17Z" fill="#007872"/>
<path d="M23.35 347.05H100.69" stroke="#AECC53" stroke-width="4.29" stroke-linecap="round" stroke-linejoin="round"/>
<path d="M116.08 320.92H7.90002V333.68H116.08V320.92Z" fill="#003834"/>
<path d="M109.354 325.159L108.011 323.816L102.319 329.508L103.662 330.852L109.354 325.159Z" fill="#AECC53"/>
<path d="M108 330.844L109.344 329.501L103.652 323.809L102.308 325.152L108 330.844Z" fill="#AECC53"/>
<path d="M116.08 320.92H7.90002V361.38H116.08V320.92Z" stroke="#ACCA53" stroke-width="1.07" stroke-linecap="round" stroke-linejoin="round"/>
<path d="M160.55 201.06H51.37L8.86005 214.47H117.62L160.58 201.32C160.73 201.27 160.7 201.05 160.54 201.05L160.55 201.06Z" fill="#003834"/>
<path d="M161.08 237.62L117.04 254.93V214.47L161.08 201.4V237.62Z" fill="#003834" stroke="#ACCA53" stroke-width="0.61" stroke-linecap="round" stroke-linejoin="round"/>
<path d="M8.86005 214.47L51.37 201.06" stroke="#ACCA53" stroke-width="0.61" stroke-linecap="round" stroke-linejoin="round"/>
<path d="M161.08 201.06H51.3701" stroke="#ACCA53" stroke-width="0.61" stroke-linecap="round" stroke-linejoin="round"/>
<path d="M116.44 219.73H9.54004V254.36H116.44V219.73Z" fill="#007872"/>
<path d="M24.3101 240.61H101.66" stroke="#AECC53" stroke-width="4.29" stroke-linecap="round" stroke-linejoin="round"/>
<path d="M117.04 214.47H8.86005V227.23H117.04V214.47Z" fill="#003834"/>
<path d="M110.325 218.707L108.981 217.363L103.289 223.055L104.633 224.399L110.325 218.707Z" fill="#AECC53"/>
<path d="M108.973 224.405L110.317 223.061L104.625 217.369L103.281 218.712L108.973 224.405Z" fill="#AECC53"/>
<path d="M117.04 214.47H8.86005V254.93H117.04V214.47Z" stroke="#ACCA53" stroke-width="1.07" stroke-linecap="round" stroke-linejoin="round"/>
<path d="M159.58 256.95H50.41L7.90002 270.36H116.66L159.62 257.21C159.77 257.16 159.74 256.94 159.58 256.94V256.95Z" fill="#003834" stroke="#ACCA53" stroke-width="0.53" stroke-miterlimit="10"/>
<path d="M160.11 293.5L116.08 310.82V270.36L160.11 257.29V293.5Z" fill="#003834" stroke="#ACCA53" stroke-width="0.61" stroke-linecap="round" stroke-linejoin="round"/>
<path d="M7.90002 270.36L50.41 256.95" stroke="white" stroke-width="0.61" stroke-linecap="round" stroke-linejoin="round"/>
<path d="M160.11 256.95H50.41" stroke="#ACCA53" stroke-width="0.61" stroke-linecap="round" stroke-linejoin="round"/>
<path d="M115.47 275.61H8.57001V310.24H115.47V275.61Z" fill="#007872"/>
<path d="M23.35 296.5H100.69" stroke="#AECC53" stroke-width="4.29" stroke-linecap="round" stroke-linejoin="round"/>
<path d="M116.08 270.36H7.90002V283.12H116.08V270.36Z" fill="#003834"/>
<path d="M109.356 274.598L108.012 273.255L102.32 278.947L103.663 280.29L109.356 274.598Z" fill="#AECC53"/>
<path d="M108.002 280.296L109.345 278.952L103.653 273.26L102.31 274.603L108.002 280.296Z" fill="#AECC53"/>
<path d="M116.08 270.36H7.90002V310.82H116.08V270.36Z" stroke="#ACCA53" stroke-width="1.07" stroke-linecap="round" stroke-linejoin="round"/>
</svg>
