<svg width="420" height="421" viewBox="0 0 420 421" fill="none" xmlns="http://www.w3.org/2000/svg">
<path d="M276.25 20.2676C258.59 13.6476 240.17 8.10762 221.31 8.18762C195.9 8.29762 171.75 18.5576 148.63 29.1076C106.08 48.5276 72.5199 78.9676 37.6399 109.878C9.40992 134.908 4.76991 186.788 5.61991 222.038C5.71991 226.288 5.82992 230.568 6.01992 234.838C6.60992 247.978 8.01992 261.088 12.6299 273.338C20.0199 292.978 37.1499 309.568 50.0899 325.738C64.0999 343.238 77.8199 357.848 96.6799 370.348C118.03 384.498 148.56 408.798 174.89 411.028C208.04 413.838 233.43 415.188 265.29 405.248C299.23 394.668 336.42 379.228 360.85 352.168C373.65 337.978 382.02 317.728 391.55 301.238C410.15 269.058 417.86 234.348 413.07 197.348C408.06 158.628 392.85 128.948 376.8 94.3276C356.19 49.8776 319.98 36.6676 276.24 20.2676H276.25Z" fill="#EBF2D4"/>
<path d="M361.11 244.668H131.57C129.05 259.608 123.17 291.008 123.17 291.008L123.47 294.098H368.83L369.03 291.008C369.03 291.008 363.91 260.048 361.11 244.668Z" fill="#A9C753" stroke="#A9C753" stroke-width="3.92" stroke-linecap="round" stroke-linejoin="round"/>
<path d="M361.11 241.578H131.57C128.79 258.048 125.78 274.468 123.47 291.008H368.83C366.13 274.548 364.1 257.988 361.11 241.578Z" fill="#EBF2D4"/>
<path d="M211.58 254.278C207.63 254.278 203.68 254.278 199.73 254.278C200.02 251.418 200.17 250.008 200.44 247.248C204.34 247.248 208.24 247.248 212.13 247.248C211.92 250.008 211.81 251.418 211.58 254.278Z" fill="#A7C553"/>
<path d="M226.02 254.288C222.08 254.288 218.13 254.288 214.19 254.288C214.41 251.428 214.51 250.018 214.7 247.258C218.59 247.258 222.47 247.258 226.36 247.258C226.24 250.028 226.17 251.428 226.02 254.288Z" fill="#A7C553"/>
<path d="M240.491 254.288C236.551 254.288 232.611 254.288 228.671 254.288C228.801 251.428 228.871 250.018 228.971 247.258C232.851 247.258 236.731 247.258 240.611 247.258C240.571 250.028 240.551 251.438 240.491 254.298V254.288Z" fill="#A7C553"/>
<path d="M254.911 254.288C250.971 254.288 247.031 254.288 243.101 254.288C243.151 251.428 243.161 250.018 243.181 247.248C247.061 247.248 250.941 247.248 254.811 247.248C254.861 250.018 254.881 251.428 254.911 254.288Z" fill="#A7C553"/>
<path d="M269.481 254.288C265.541 254.288 261.601 254.288 257.661 254.288C257.621 251.428 257.591 250.018 257.521 247.248C261.401 247.248 265.281 247.248 269.161 247.248C269.301 250.018 269.361 251.428 269.471 254.288H269.481Z" fill="#A7C553"/>
<path d="M283.97 254.298C280.02 254.298 276.08 254.298 272.13 254.298C272 251.438 271.93 250.028 271.78 247.258C275.67 247.258 279.56 247.258 283.45 247.258C283.67 250.028 283.77 251.438 283.97 254.298Z" fill="#A7C553"/>
<path d="M298.45 254.298C294.5 254.298 290.54 254.298 286.59 254.298C286.38 251.438 286.27 250.028 286.03 247.258C289.93 247.258 293.84 247.258 297.74 247.258C298.04 250.028 298.18 251.438 298.45 254.298Z" fill="#A7C553"/>
<path d="M322.34 254.308C318.36 254.308 314.39 254.308 310.41 254.308C310.08 251.438 309.92 250.028 309.57 247.258C313.51 247.258 317.45 247.258 321.38 247.258C321.78 250.028 321.97 251.438 322.34 254.308Z" fill="#A7C553"/>
<path d="M337.011 254.308C333.021 254.308 329.021 254.308 325.031 254.308C324.651 251.438 324.461 250.028 324.051 247.258C328.021 247.258 331.981 247.258 335.951 247.258C336.391 250.028 336.601 251.438 337.021 254.308H337.011Z" fill="#A7C553"/>
<path d="M351.7 254.308C347.69 254.308 343.67 254.308 339.66 254.308C339.24 251.438 339.02 250.028 338.58 247.258C342.58 247.258 346.58 247.258 350.58 247.258C351.05 250.028 351.27 251.438 351.71 254.308H351.7Z" fill="#A7C553"/>
<path d="M323.56 264.148C319.53 264.148 315.5 264.148 311.48 264.148C311.17 261.178 311.01 259.708 310.69 256.818C314.68 256.818 318.67 256.818 322.66 256.818C323.03 259.718 323.2 261.188 323.56 264.148Z" fill="#A7C553"/>
<path d="M338.371 264.148C334.341 264.148 330.311 264.148 326.271 264.148C325.901 261.178 325.721 259.708 325.351 256.818C329.351 256.818 333.361 256.818 337.361 256.818C337.771 259.718 337.971 261.188 338.371 264.158V264.148Z" fill="#A7C553"/>
<path d="M353.151 264.158C349.111 264.158 345.081 264.158 341.041 264.158C340.631 261.188 340.431 259.718 340.021 256.818C344.041 256.818 348.061 256.818 352.081 256.818C352.511 259.718 352.731 261.188 353.151 264.158Z" fill="#A7C553"/>
<path d="M324.791 274.288C320.711 274.288 316.631 274.288 312.551 274.288C312.231 271.248 312.071 269.738 311.761 266.748C315.801 266.748 319.841 266.748 323.881 266.748C324.241 269.738 324.421 271.248 324.791 274.288Z" fill="#A7C553"/>
<path d="M339.741 274.298C335.671 274.298 331.601 274.298 327.531 274.298C327.151 271.258 326.971 269.748 326.601 266.758C330.641 266.758 334.681 266.758 338.731 266.758C339.131 269.748 339.331 271.258 339.751 274.298H339.741Z" fill="#A7C553"/>
<path d="M354.61 274.298C350.55 274.298 346.49 274.298 342.43 274.298C342.01 271.258 341.81 269.748 341.4 266.758C345.44 266.758 349.49 266.758 353.53 266.758C353.96 269.748 354.17 271.258 354.61 274.298Z" fill="#A7C553"/>
<path d="M326.091 284.598C321.961 284.598 317.831 284.598 313.701 284.598C313.341 281.518 313.171 279.987 312.841 276.938C316.931 276.938 321.031 276.938 325.121 276.938C325.501 279.987 325.691 281.518 326.101 284.598H326.091Z" fill="#A7C553"/>
<path d="M341.19 284.598C337.08 284.598 332.97 284.598 328.87 284.598C328.45 281.528 328.26 279.987 327.87 276.938C331.95 276.938 336.03 276.938 340.11 276.938C340.53 279.987 340.74 281.518 341.2 284.598H341.19Z" fill="#A7C553"/>
<path d="M356.141 284.608C352.061 284.608 347.981 284.608 343.901 284.608C343.441 281.538 343.231 279.998 342.801 276.948C346.861 276.948 350.931 276.948 354.991 276.948C355.441 279.998 355.661 281.528 356.141 284.598V284.608Z" fill="#A7C553"/>
<path d="M153.02 254.268C149 254.268 144.99 254.268 140.98 254.268C141.47 251.418 141.71 250.008 142.18 247.248C146.18 247.248 150.18 247.248 154.18 247.248C153.73 250.008 153.5 251.418 153.03 254.268H153.02Z" fill="#A7C553"/>
<path d="M167.651 254.268C163.661 254.268 159.661 254.268 155.671 254.268C156.141 251.418 156.361 250.008 156.811 247.248C160.781 247.248 164.741 247.248 168.711 247.248C168.301 250.008 168.091 251.418 167.661 254.268H167.651Z" fill="#A7C553"/>
<path d="M182.26 254.278C178.28 254.278 174.31 254.278 170.33 254.278C170.75 251.418 170.96 250.018 171.36 247.248C175.3 247.248 179.24 247.248 183.17 247.248C182.82 250.008 182.63 251.418 182.26 254.278Z" fill="#A7C553"/>
<path d="M196.78 254.278C192.82 254.278 188.86 254.278 184.89 254.278C185.25 251.418 185.43 250.018 185.77 247.248C189.69 247.248 193.6 247.248 197.52 247.248C197.24 250.008 197.08 251.418 196.77 254.278H196.78Z" fill="#A7C553"/>
<path d="M242.5 264.108C237.33 264.108 232.17 264.108 227 264.108C227.15 261.148 227.23 259.678 227.37 256.788C232.46 256.788 237.55 256.788 242.64 256.788C242.59 259.678 242.56 261.148 242.5 264.108Z" fill="#A7C553"/>
<path d="M261.42 264.118C256.25 264.118 251.09 264.118 245.92 264.118C245.96 261.158 245.98 259.688 246.01 256.798C251.1 256.798 256.19 256.798 261.28 256.798C261.34 259.688 261.36 261.158 261.42 264.118Z" fill="#A7C553"/>
<path d="M280.4 264.128C275.23 264.128 270.06 264.128 264.9 264.128C264.83 261.168 264.79 259.698 264.71 256.808C269.8 256.808 274.9 256.808 279.99 256.808C280.16 259.698 280.24 261.168 280.4 264.138V264.128Z" fill="#A7C553"/>
<path d="M299.34 264.138C294.17 264.138 289 264.138 283.83 264.138C283.65 261.168 283.56 259.708 283.38 256.808C288.49 256.808 293.59 256.808 298.7 256.808C298.97 259.698 299.09 261.168 299.35 264.138H299.34Z" fill="#A7C553"/>
<path d="M166.26 264.078C157.27 264.078 148.28 264.078 139.3 264.068C139.8 261.108 140.05 259.648 140.55 256.768C149.49 256.768 158.43 256.768 167.36 256.768C166.92 259.648 166.7 261.118 166.26 264.078Z" fill="#A7C553"/>
<path d="M185.219 264.088C180.039 264.088 174.859 264.088 169.689 264.088C170.119 261.128 170.339 259.668 170.759 256.778C175.889 256.778 181.009 256.778 186.139 256.778C185.779 259.668 185.589 261.128 185.219 264.088Z" fill="#A7C553"/>
<path d="M204.22 264.098C199.05 264.098 193.88 264.098 188.7 264.098C189.05 261.138 189.23 259.678 189.58 256.788C194.69 256.788 199.8 256.788 204.91 256.788C204.64 259.678 204.5 261.138 204.22 264.098Z" fill="#A7C553"/>
<path d="M223.151 264.098C217.981 264.098 212.811 264.098 207.641 264.098C207.901 261.138 208.031 259.668 208.281 256.788C213.381 256.788 218.471 256.788 223.571 256.788C223.401 259.678 223.311 261.138 223.141 264.108L223.151 264.098Z" fill="#A7C553"/>
<path d="M230.731 274.238C225.461 274.238 220.191 274.238 214.931 274.238C215.131 271.198 215.241 269.688 215.461 266.708C220.651 266.708 225.851 266.708 231.041 266.708C230.911 269.688 230.851 271.198 230.741 274.238H230.731Z" fill="#A7C553"/>
<path d="M250.021 274.248C244.751 274.248 239.481 274.248 234.211 274.248C234.301 271.208 234.361 269.698 234.461 266.718C239.651 266.718 244.851 266.718 250.041 266.718C250.031 269.708 250.021 271.208 250.021 274.248Z" fill="#A7C553"/>
<path d="M269.38 274.258C264.11 274.258 258.84 274.258 253.57 274.258C253.55 271.218 253.55 269.708 253.54 266.728C258.73 266.728 263.93 266.728 269.12 266.728C269.22 269.718 269.27 271.228 269.38 274.258Z" fill="#A7C553"/>
<path d="M300.22 274.278C291.1 274.278 281.98 274.278 272.86 274.268C272.73 271.228 272.67 269.718 272.55 266.738C281.55 266.738 290.55 266.738 299.55 266.748C299.81 269.738 299.94 271.248 300.21 274.288L300.22 274.278Z" fill="#A7C553"/>
<path d="M153.28 274.197C148.06 274.197 142.84 274.197 137.62 274.197C138.11 271.157 138.36 269.647 138.86 266.667C144.06 266.667 149.25 266.667 154.45 266.667C153.98 269.647 153.74 271.157 153.28 274.197Z" fill="#A7C553"/>
<path d="M172.45 274.207C167.21 274.207 161.97 274.207 156.74 274.207C157.19 271.167 157.42 269.657 157.89 266.677C163.09 266.677 168.28 266.677 173.48 266.677C173.07 269.657 172.86 271.167 172.46 274.207H172.45Z" fill="#A7C553"/>
<path d="M191.74 274.217C186.49 274.217 181.24 274.217 175.99 274.217C176.38 271.177 176.58 269.668 176.98 266.688C182.17 266.688 187.37 266.688 192.56 266.688C192.23 269.668 192.06 271.177 191.74 274.217Z" fill="#A7C553"/>
<path d="M211.001 274.228C205.741 274.228 200.481 274.228 195.221 274.228C195.521 271.188 195.681 269.678 196.001 266.698C201.191 266.698 206.391 266.698 211.581 266.698C211.341 269.678 211.231 271.188 211.001 274.228Z" fill="#A7C553"/>
<path d="M242.21 284.568C236.84 284.568 231.47 284.568 226.09 284.568C226.19 281.478 226.25 279.948 226.38 276.888C231.68 276.888 236.97 276.888 242.27 276.888C242.23 279.938 242.22 281.478 242.21 284.558V284.568Z" fill="#A7C553"/>
<path d="M261.89 284.578C256.52 284.578 251.14 284.578 245.77 284.578C245.76 281.498 245.77 279.958 245.78 276.908C251.08 276.908 256.37 276.908 261.67 276.908C261.74 279.958 261.78 281.498 261.89 284.578Z" fill="#A7C553"/>
<path d="M281.6 284.577C276.23 284.577 270.87 284.577 265.5 284.577C265.38 281.497 265.33 279.957 265.23 276.907C270.52 276.907 275.81 276.907 281.11 276.907C281.29 279.957 281.39 281.497 281.6 284.577Z" fill="#A7C553"/>
<path d="M301.19 284.587C295.84 284.587 290.49 284.587 285.15 284.587C284.92 281.507 284.82 279.967 284.62 276.917C289.9 276.917 295.19 276.917 300.47 276.917C300.75 279.967 300.89 281.507 301.2 284.577L301.19 284.587Z" fill="#A7C553"/>
<path d="M163.4 284.538C154.28 284.538 145.16 284.538 136.03 284.538C136.48 281.438 136.72 279.898 137.2 276.848C146.27 276.848 155.34 276.848 164.42 276.858C164 279.908 163.79 281.448 163.4 284.548V284.538Z" fill="#A7C553"/>
<path d="M182.85 284.548C177.54 284.548 172.22 284.548 166.91 284.548C167.29 281.458 167.49 279.918 167.9 276.858C173.16 276.858 178.43 276.858 183.69 276.858C183.34 279.908 183.17 281.448 182.85 284.538V284.548Z" fill="#A7C553"/>
<path d="M202.461 284.557C197.121 284.557 191.771 284.557 186.431 284.557C186.731 281.467 186.891 279.927 187.231 276.877C192.511 276.877 197.791 276.877 203.071 276.877C202.811 279.927 202.691 281.467 202.461 284.557Z" fill="#A7C553"/>
<path d="M222.091 284.557C216.731 284.557 211.371 284.557 206.001 284.557C206.211 281.467 206.321 279.927 206.561 276.877C211.851 276.877 217.141 276.877 222.431 276.877C222.281 279.927 222.201 281.467 222.081 284.557H222.091Z" fill="#A7C553"/>
<path d="M361.75 113.718H131.57V241.578H361.75V113.718Z" stroke="#ADCB53" stroke-width="1.64" stroke-linecap="round" stroke-linejoin="round"/>
<path d="M361.75 105.878H131.57V113.718H361.75V105.878Z" fill="#EBF2D4"/>
<path d="M361.75 105.858H131.57V241.578H361.75V105.858Z" fill="#EBF2D4" stroke="#ADCB53" stroke-width="1.64" stroke-linecap="round" stroke-linejoin="round"/>
<path d="M131.57 114.098H361.75" stroke="#ADCB53" stroke-width="1.64" stroke-linecap="round" stroke-linejoin="round"/>
<path d="M244.23 372.878H290.1V214.618H244.23L244.23 372.878Z" fill="#006E69" stroke="#006E69" stroke-width="2.53" stroke-linecap="round" stroke-linejoin="round"/>
<path d="M187.41 373.058H233.28L233.28 241.478H187.41V373.058Z" fill="#013834" stroke="#EBF2D4" stroke-width="2.31" stroke-linecap="round" stroke-linejoin="round"/>
<path d="M346.9 206.228H301.03V372.878H346.9V206.228Z" fill="#ADCB53" stroke="#ADCB53" stroke-width="2.6" stroke-linecap="round" stroke-linejoin="round"/>
<path d="M99.6701 253.278H14.3301V383.948H14.4001C14.3601 384.088 14.3301 384.228 14.3301 384.368C14.3301 388.528 33.4301 395.908 57.0001 395.908C80.5701 395.908 99.6701 388.528 99.6701 384.368C99.6701 384.228 99.6401 384.088 99.6001 383.948H99.6701V253.278Z" fill="#EBF2D4"/>
<path d="M99.6701 252.348H14.3301V383.018H14.4001C14.3601 383.158 14.3301 383.298 14.3301 383.438C14.3301 387.598 33.4301 394.978 57.0001 394.978C80.5701 394.978 99.6701 387.598 99.6701 383.438C99.6701 383.298 99.6401 383.158 99.6001 383.018H99.6701V252.348Z" stroke="#ADCB53" stroke-width="2.15" stroke-linecap="round" stroke-linejoin="round"/>
<path d="M19.8105 352.378V375.558C19.8105 379.868 36.4605 384.228 57.0005 384.228C77.5406 384.228 94.1906 379.868 94.1906 375.558V352.378H19.8105Z" fill="#EBF2D4" stroke="#ADCB53" stroke-width="1.68" stroke-miterlimit="10"/>
<path d="M57.3507 360.178C77.6969 360.178 94.1907 356.686 94.1907 352.378C94.1907 348.07 77.6969 344.578 57.3507 344.578C37.0046 344.578 20.5107 348.07 20.5107 352.378C20.5107 356.686 37.0046 360.178 57.3507 360.178Z" fill="#EBF2D4" stroke="#ADCB53" stroke-width="1.68" stroke-miterlimit="10"/>
<path d="M19.8105 316.958V340.138C19.8105 344.448 36.4605 347.938 57.0005 347.938C77.5406 347.938 94.1906 344.448 94.1906 340.138V316.958H19.8105Z" fill="#EBF2D4" stroke="#ADCB53" stroke-width="1.68" stroke-miterlimit="10"/>
<path d="M57.3507 324.758C77.6969 324.758 94.1907 321.266 94.1907 316.958C94.1907 312.65 77.6969 309.158 57.3507 309.158C37.0046 309.158 20.5107 312.65 20.5107 316.958C20.5107 321.266 37.0046 324.758 57.3507 324.758Z" fill="#EBF2D4" stroke="#ADCB53" stroke-width="1.68" stroke-miterlimit="10"/>
<path d="M19.8105 280.218V303.398C19.8105 307.708 36.4605 311.198 57.0005 311.198C77.5406 311.198 94.1906 307.708 94.1906 303.398V280.218H19.8105Z" fill="#EBF2D4" stroke="#ADCB53" stroke-width="1.68" stroke-miterlimit="10"/>
<path d="M57.3507 288.018C77.6969 288.018 94.1907 284.526 94.1907 280.218C94.1907 275.91 77.6969 272.418 57.3507 272.418C37.0046 272.418 20.5107 275.91 20.5107 280.218C20.5107 284.526 37.0046 288.018 57.3507 288.018Z" fill="#EBF2D4" stroke="#ADCB53" stroke-width="1.68" stroke-miterlimit="10"/>
<path d="M57.0001 265.598C80.5661 265.598 99.6701 260.248 99.6701 253.648C99.6701 247.048 80.5661 241.698 57.0001 241.698C33.4341 241.698 14.3301 247.048 14.3301 253.648C14.3301 260.248 33.4341 265.598 57.0001 265.598Z" fill="#EBF2D4" stroke="#ADCB53" stroke-width="1.68" stroke-miterlimit="10"/>
<path d="M74.0702 235.118H38.9902V250.288H39.0302C39.0002 250.378 38.9902 250.468 38.9902 250.558C38.9902 252.768 46.8402 254.558 56.5302 254.558C66.2202 254.558 74.0702 252.768 74.0702 250.558C74.0702 250.468 74.0502 250.378 74.0302 250.288H74.0702V235.118Z" fill="#AECC53"/>
<path d="M74.0702 235.118C74.0702 237.328 66.2202 239.988 56.5302 239.988C46.8402 239.988 38.9902 237.328 38.9902 235.118C38.9902 232.908 46.8402 231.118 56.5302 231.118C66.2202 231.118 74.0702 232.908 74.0702 235.118Z" fill="#00544F"/>
<path d="M56.53 237.058C61.2189 237.058 65.02 236.189 65.02 235.118C65.02 234.046 61.2189 233.178 56.53 233.178C51.8411 233.178 48.04 234.046 48.04 235.118C48.04 236.189 51.8411 237.058 56.53 237.058Z" fill="#AECC53"/>
<path d="M76.9995 138.968C75.3795 148.498 67.0095 155.788 57.0395 155.728C47.0695 155.668 38.7895 148.288 37.2695 138.738" stroke="#ADCB53" stroke-width="3.04" stroke-linecap="round" stroke-linejoin="round"/>
<path d="M73.5402 138.798C73.7202 136.918 75.4002 135.538 77.2902 135.718C79.1802 135.898 80.5502 137.578 80.3702 139.468C80.1902 141.348 78.5102 142.728 76.6202 142.548C74.7402 142.368 73.3602 140.688 73.5402 138.798Z" fill="#ADCB53"/>
<path d="M40.74 138.618C40.58 136.728 38.92 135.338 37.03 135.498C35.14 135.658 33.75 137.318 33.91 139.208C34.07 141.098 35.73 142.488 37.62 142.328C39.51 142.168 40.9 140.508 40.74 138.618Z" fill="#ADCB53"/>
<path d="M86.73 166.498C85.01 181.428 72.19 193.078 56.84 192.998C41.49 192.918 28.8 181.118 27.25 166.168" stroke="#ADCB53" stroke-width="3.04" stroke-linecap="round" stroke-linejoin="round"/>
<path d="M83.2699 166.428C83.3999 164.538 85.0299 163.108 86.9199 163.238C88.8099 163.368 90.2399 164.998 90.1099 166.888C89.9799 168.778 88.3499 170.208 86.4599 170.078C84.5699 169.948 83.1399 168.318 83.2699 166.428Z" fill="#ADCB53"/>
<path d="M30.6996 166.128C30.5896 164.238 28.9696 162.788 27.0796 162.898C25.1896 163.008 23.7396 164.628 23.8496 166.518C23.9596 168.408 25.5796 169.858 27.4696 169.748C29.3596 169.638 30.8096 168.018 30.6996 166.128Z" fill="#ADCB53"/>
<path d="M57.2701 116.508L56.3701 235.208" stroke="#ADCB53" stroke-width="3.04" stroke-linecap="round" stroke-linejoin="round"/>
<path d="M53.84 116.658C53.85 114.768 55.4 113.238 57.29 113.258C59.18 113.268 60.71 114.818 60.69 116.708C60.68 118.598 59.13 120.128 57.24 120.108C55.35 120.098 53.82 118.548 53.84 116.658Z" fill="#ADCB53"/>
<path d="M274.95 67.3577H130.34V187.688H274.95V67.3577Z" fill="#EBF2D4"/>
<path d="M274.36 67.9476V187.088H130.94V67.9476H274.36ZM275.54 66.7676H129.74V188.278H275.54V66.7676Z" fill="#013834"/>
<path d="M146.33 97.2976H265.36" stroke="#013834" stroke-width="1.19" stroke-miterlimit="10"/>
<path d="M146.33 108.018H265.36" stroke="#013834" stroke-width="1.19" stroke-miterlimit="10"/>
<path d="M146.33 118.608H265.36" stroke="#013834" stroke-width="1.19" stroke-miterlimit="10"/>
<path d="M146.33 129.328H265.36" stroke="#013834" stroke-width="1.19" stroke-miterlimit="10"/>
<path d="M146.33 140.048H265.36" stroke="#013834" stroke-width="1.19" stroke-miterlimit="10"/>
<path d="M146.33 150.768H265.36" stroke="#013834" stroke-width="1.19" stroke-miterlimit="10"/>
<path d="M146.33 161.368H265.36" stroke="#013834" stroke-width="1.19" stroke-miterlimit="10"/>
<path d="M275.54 60.2976H129.74V73.1776H275.54V60.2976Z" fill="#ACCA53"/>
<path d="M268.045 63.2117L262.296 68.9604L263.646 70.311L269.395 64.5622L268.045 63.2117Z" fill="black"/>
<path d="M263.646 63.2117L262.296 64.5623L268.045 70.311L269.395 68.9605L263.646 63.2117Z" fill="black"/>
<path d="M254.11 64.2877V69.4277H248.33V64.2877H254.11ZM255 63.3977H247.45V70.3077H255V63.3977Z" fill="black"/>
<path d="M240.12 68.7876H232.57V70.3176H240.12V68.7876Z" fill="black"/>
<path d="M108.13 216.868V104.058L236.12 103.728V216.868H108.13Z" fill="#013834"/>
<path d="M235.51 104.338V216.258H108.74V104.668L235.51 104.338ZM236.73 103.108L107.51 103.438V217.468H236.73V103.098V103.108Z" fill="#013834"/>
<path d="M236.74 91.2375H107.52V106.218H236.74V91.2375Z" fill="#A8C653"/>
<path d="M231.705 96.1997L230.135 94.6299L223.446 101.319L225.015 102.889L231.705 96.1997Z" fill="#181818"/>
<path d="M230.138 102.882L231.708 101.312L225.019 94.623L223.449 96.1928L230.138 102.882Z" fill="#181818"/>
<path d="M213.939 95.8777V101.858H207.219V95.8777H213.939ZM214.969 94.8477H206.189V102.888H214.969V94.8477Z" fill="#181818"/>
<path d="M197.67 101.118H188.89V102.888H197.67V101.118Z" fill="#181818"/>
<path d="M189.729 170.478H202.929" stroke="#ADCB53" stroke-width="1.93" stroke-linecap="round" stroke-linejoin="round"/>
<path d="M159.239 170.478H183.409" stroke="#ADCB53" stroke-width="1.93" stroke-linecap="round" stroke-linejoin="round"/>
<path d="M141.319 170.478H152.039" stroke="#ADCB53" stroke-width="1.93" stroke-linecap="round" stroke-linejoin="round"/>
<path d="M192.51 184.448H202.93" stroke="#ADCB53" stroke-width="1.93" stroke-linecap="round" stroke-linejoin="round"/>
<path d="M141.319 184.448H151.379" stroke="#ADCB53" stroke-width="1.93" stroke-linecap="round" stroke-linejoin="round"/>
<path d="M155.949 184.448H188.299" stroke="#ADCB53" stroke-width="1.93" stroke-linecap="round" stroke-linejoin="round"/>
<path d="M177.419 198.417H202.929" stroke="#ADCB53" stroke-width="1.93" stroke-linecap="round" stroke-linejoin="round"/>
<path d="M141.319 198.417H166.089" stroke="#ADCB53" stroke-width="1.93" stroke-linecap="round" stroke-linejoin="round"/>
<path d="M195.319 138.697C195.319 138.697 184.939 153.507 172.129 153.507C159.319 153.507 148.939 138.697 148.939 138.697C148.939 138.697 159.319 123.887 172.129 123.887C184.939 123.887 195.319 138.697 195.319 138.697Z" stroke="#ACCA53" stroke-width="1.13" stroke-linecap="round" stroke-linejoin="round"/>
<path d="M172.129 151.067C179.038 151.067 184.639 145.466 184.639 138.557C184.639 131.648 179.038 126.047 172.129 126.047C165.22 126.047 159.619 131.648 159.619 138.557C159.619 145.466 165.22 151.067 172.129 151.067Z" stroke="white" stroke-width="1.13" stroke-miterlimit="10"/>
<path d="M178.47 138.377C178.47 141.887 175.63 144.727 172.12 144.727C168.61 144.727 165.77 141.887 165.77 138.377C165.77 134.867 172.12 129.417 172.12 129.417C172.12 129.417 178.47 134.867 178.47 138.377Z" fill="#ADCB53"/>
<path d="M172.129 147.688C171.709 147.688 171.369 147.348 171.369 146.928V139.448C171.369 139.028 171.709 138.688 172.129 138.688C172.549 138.688 172.889 139.028 172.889 139.448V146.928C172.889 147.348 172.549 147.688 172.129 147.688Z" fill="white"/>
<path d="M225.68 280.938V263.238L210.35 254.378L195.02 263.238V280.938L210.35 289.788L225.68 280.938Z" stroke="#EBF2D4" stroke-width="1.68" stroke-miterlimit="10"/>
<path d="M219.789 277.538V266.638L210.349 261.188L200.909 266.638V277.538L210.349 282.988L219.789 277.538Z" fill="#EBF2D4"/>
<path d="M323.96 255.088C334.045 255.088 342.22 246.912 342.22 236.828C342.22 226.743 334.045 218.568 323.96 218.568C313.875 218.568 305.7 226.743 305.7 236.828C305.7 246.912 313.875 255.088 323.96 255.088Z" fill="#AECC53"/>
<path d="M322.791 247.608V245.048C321.131 244.998 319.471 244.518 318.521 243.888L319.231 241.408C320.261 242.018 321.731 242.568 323.341 242.568C324.951 242.568 326.131 241.748 326.131 240.488C326.131 239.298 325.211 238.538 323.261 237.828C320.491 236.828 318.701 235.558 318.701 233.108C318.701 230.838 320.281 229.108 322.941 228.628V226.048H325.101V228.498C326.761 228.548 327.891 228.948 328.741 229.368L328.031 231.788C327.401 231.498 326.241 230.888 324.451 230.888C322.661 230.888 321.951 231.838 321.951 232.728C321.951 233.808 322.901 234.418 325.141 235.308C328.091 236.418 329.411 237.838 329.411 240.178C329.411 242.518 327.861 244.398 324.961 244.868V247.578H322.801L322.791 247.608Z" fill="white"/>
<path d="M323.96 251.098C331.842 251.098 338.23 244.709 338.23 236.828C338.23 228.947 331.842 222.558 323.96 222.558C316.079 222.558 309.69 228.947 309.69 236.828C309.69 244.709 316.079 251.098 323.96 251.098Z" stroke="white" stroke-width="1.5" stroke-miterlimit="10"/>
<path d="M267.161 256.558C260.741 256.558 255.511 251.328 255.511 244.908C255.511 239.168 265.071 230.288 267.161 228.428C269.251 230.298 278.811 239.168 278.811 244.908C278.811 251.328 273.581 256.558 267.161 256.558Z" fill="#013834"/>
<path d="M267.16 229.238C270.85 232.578 278.2 240.188 278.2 244.908C278.2 250.998 273.25 255.948 267.16 255.948C261.07 255.948 256.12 250.998 256.12 244.908C256.12 240.188 263.46 232.578 267.16 229.238ZM267.16 227.608C267.16 227.608 254.9 238.138 254.9 244.908C254.9 251.678 260.39 257.168 267.16 257.168C273.93 257.168 279.42 251.678 279.42 244.908C279.42 238.138 267.16 227.608 267.16 227.608Z" fill="#013834"/>
<path d="M267.16 262.898C266.35 262.898 265.69 262.238 265.69 261.428V246.988C265.69 246.178 266.35 245.518 267.16 245.518C267.97 245.518 268.63 246.178 268.63 246.988V261.428C268.63 262.238 267.97 262.898 267.16 262.898Z" fill="#ADCB53"/>
</svg>
